<?xml version="1.0" encoding="utf-8" standalone="no"?>
<!DOCTYPE svg PUBLIC "-//W3C//DTD SVG 1.0//EN" "http://www.w3.org/TR/SVG/DTD/svg11.dtd" >
<svg version="1.1" baseProfile="full"  width="319.13385" height="319.13385" viewBox="0 0 229.77638 229.77638" preserveAspectRatio="xMidYMid" xmlns="http://www.w3.org/2000/svg" >

<g lengthAdjust="spacingAndGlyphs" xml:space='preserve' >
<g  transform="translate(1.19,1.19)" >
<path d="
M0.0 0.0
L0.0 227.39
L227.39 227.39
L227.39 0.0
Z
" fill="none" fill-rule="nonzero" />
<line x1="6.54" y1="6.54" x2="6.54" y2="220.84" fill="none" stroke="black" stroke-width="0.87px" stroke-linecap="square" />
<line x1="18.45" y1="6.54" x2="18.45" y2="220.84" fill="none" stroke="black" stroke-width="0.25px" stroke-linecap="butt" />
<line x1="30.35" y1="6.54" x2="30.35" y2="220.84" fill="none" stroke="black" stroke-width="0.25px" stroke-linecap="butt" />
<line x1="42.26" y1="6.54" x2="42.26" y2="220.84" fill="none" stroke="black" stroke-width="0.25px" stroke-linecap="butt" />
<line x1="54.17" y1="6.54" x2="54.17" y2="220.84" fill="none" stroke="black" stroke-width="0.25px" stroke-linecap="butt" />
<line x1="66.07" y1="6.54" x2="66.07" y2="220.84" fill="none" stroke="black" stroke-width="0.25px" stroke-linecap="butt" />
<line x1="77.98" y1="6.54" x2="77.98" y2="220.84" fill="none" stroke="black" stroke-width="0.25px" stroke-linecap="butt" />
<line x1="89.88" y1="6.54" x2="89.88" y2="220.84" fill="none" stroke="black" stroke-width="0.25px" stroke-linecap="butt" />
<line x1="101.79" y1="6.54" x2="101.79" y2="220.84" fill="none" stroke="black" stroke-width="0.25px" stroke-linecap="butt" />
<line x1="113.69" y1="6.54" x2="113.69" y2="220.84" fill="none" stroke="black" stroke-width="0.25px" stroke-linecap="butt" />
<line x1="125.60" y1="6.54" x2="125.60" y2="220.84" fill="none" stroke="black" stroke-width="0.25px" stroke-linecap="butt" />
<line x1="137.50" y1="6.54" x2="137.50" y2="220.84" fill="none" stroke="black" stroke-width="0.25px" stroke-linecap="butt" />
<line x1="149.41" y1="6.54" x2="149.41" y2="220.84" fill="none" stroke="black" stroke-width="0.25px" stroke-linecap="butt" />
<line x1="161.31" y1="6.54" x2="161.31" y2="220.84" fill="none" stroke="black" stroke-width="0.25px" stroke-linecap="butt" />
<line x1="173.22" y1="6.54" x2="173.22" y2="220.84" fill="none" stroke="black" stroke-width="0.25px" stroke-linecap="butt" />
<line x1="185.13" y1="6.54" x2="185.13" y2="220.84" fill="none" stroke="black" stroke-width="0.25px" stroke-linecap="butt" />
<line x1="197.03" y1="6.54" x2="197.03" y2="220.84" fill="none" stroke="black" stroke-width="0.25px" stroke-linecap="butt" />
<line x1="208.94" y1="6.54" x2="208.94" y2="220.84" fill="none" stroke="black" stroke-width="0.25px" stroke-linecap="butt" />
<line x1="220.84" y1="6.54" x2="220.84" y2="220.84" fill="none" stroke="black" stroke-width="0.87px" stroke-linecap="square" />
<line x1="6.54" y1="6.54" x2="220.84" y2="6.54" fill="none" stroke="black" stroke-width="0.87px" stroke-linecap="square" />
<line x1="6.54" y1="18.45" x2="220.84" y2="18.45" fill="none" stroke="black" stroke-width="0.25px" stroke-linecap="butt" />
<line x1="6.54" y1="30.35" x2="220.84" y2="30.35" fill="none" stroke="black" stroke-width="0.25px" stroke-linecap="butt" />
<line x1="6.54" y1="42.26" x2="220.84" y2="42.26" fill="none" stroke="black" stroke-width="0.25px" stroke-linecap="butt" />
<line x1="6.54" y1="54.17" x2="220.84" y2="54.17" fill="none" stroke="black" stroke-width="0.25px" stroke-linecap="butt" />
<line x1="6.54" y1="66.07" x2="220.84" y2="66.07" fill="none" stroke="black" stroke-width="0.25px" stroke-linecap="butt" />
<line x1="6.54" y1="77.98" x2="220.84" y2="77.98" fill="none" stroke="black" stroke-width="0.25px" stroke-linecap="butt" />
<line x1="6.54" y1="89.88" x2="220.84" y2="89.88" fill="none" stroke="black" stroke-width="0.25px" stroke-linecap="butt" />
<line x1="6.54" y1="101.79" x2="220.84" y2="101.79" fill="none" stroke="black" stroke-width="0.25px" stroke-linecap="butt" />
<line x1="6.54" y1="113.69" x2="220.84" y2="113.69" fill="none" stroke="black" stroke-width="0.25px" stroke-linecap="butt" />
<line x1="6.54" y1="125.60" x2="220.84" y2="125.60" fill="none" stroke="black" stroke-width="0.25px" stroke-linecap="butt" />
<line x1="6.54" y1="137.50" x2="220.84" y2="137.50" fill="none" stroke="black" stroke-width="0.25px" stroke-linecap="butt" />
<line x1="6.54" y1="149.41" x2="220.84" y2="149.41" fill="none" stroke="black" stroke-width="0.25px" stroke-linecap="butt" />
<line x1="6.54" y1="161.31" x2="220.84" y2="161.31" fill="none" stroke="black" stroke-width="0.25px" stroke-linecap="butt" />
<line x1="6.54" y1="173.22" x2="220.84" y2="173.22" fill="none" stroke="black" stroke-width="0.25px" stroke-linecap="butt" />
<line x1="6.54" y1="185.13" x2="220.84" y2="185.13" fill="none" stroke="black" stroke-width="0.25px" stroke-linecap="butt" />
<line x1="6.54" y1="197.03" x2="220.84" y2="197.03" fill="none" stroke="black" stroke-width="0.25px" stroke-linecap="butt" />
<line x1="6.54" y1="208.94" x2="220.84" y2="208.94" fill="none" stroke="black" stroke-width="0.25px" stroke-linecap="butt" />
<line x1="6.54" y1="220.84" x2="220.84" y2="220.84" fill="none" stroke="black" stroke-width="0.87px" stroke-linecap="square" />
<circle cx="30.35" cy="30.35" r="5.89" fill="white"/>
<circle cx="30.35" cy="30.35" r="5.89" fill="none" stroke="black" stroke-width="0.25px"/>
<circle cx="30.35" cy="42.26" r="5.89" fill="white"/>
<circle cx="30.35" cy="42.26" r="5.89" fill="none" stroke="black" stroke-width="0.25px"/>
<circle cx="30.35" cy="66.07" r="5.89" fill="white"/>
<circle cx="30.35" cy="66.07" r="5.89" fill="none" stroke="black" stroke-width="0.25px"/>
<circle cx="30.35" cy="113.69" r="6.01" fill="black"/>
<circle cx="42.26" cy="18.45" r="6.01" fill="black"/>
<circle cx="42.26" cy="30.35" r="6.01" fill="black"/>
<circle cx="42.26" cy="42.26" r="5.89" fill="white"/>
<circle cx="42.26" cy="42.26" r="5.89" fill="none" stroke="black" stroke-width="0.25px"/>
<circle cx="42.26" cy="113.69" r="1.27" fill="black"/>
<circle cx="42.26" cy="161.31" r="5.89" fill="white"/>
<circle cx="42.26" cy="161.31" r="5.89" fill="none" stroke="black" stroke-width="0.25px"/>
<circle cx="42.26" cy="185.13" r="5.89" fill="white"/>
<circle cx="42.26" cy="185.13" r="5.89" fill="none" stroke="black" stroke-width="0.25px"/>
<circle cx="54.17" cy="42.26" r="6.01" fill="black"/>
<circle cx="54.17" cy="54.17" r="6.01" fill="black"/>
<circle cx="54.17" cy="66.07" r="5.89" fill="white"/>
<circle cx="54.17" cy="66.07" r="5.89" fill="none" stroke="black" stroke-width="0.25px"/>
<circle cx="66.07" cy="30.35" r="6.01" fill="black"/>
<circle cx="66.07" cy="66.07" r="5.89" fill="white"/>
<circle cx="66.07" cy="66.07" r="5.89" fill="none" stroke="black" stroke-width="0.25px"/>
<circle cx="89.88" cy="30.35" r="5.89" fill="white"/>
<circle cx="89.88" cy="30.35" r="5.89" fill="none" stroke="black" stroke-width="0.25px"/>
<circle cx="89.88" cy="42.26" r="6.01" fill="black"/>
<circle cx="89.88" cy="54.17" r="6.01" fill="black"/>
<circle cx="89.88" cy="66.07" r="6.01" fill="black"/>
<circle cx="101.79" cy="30.35" r="5.89" fill="white"/>
<circle cx="101.79" cy="30.35" r="5.89" fill="none" stroke="black" stroke-width="0.25px"/>
<circle cx="101.79" cy="42.26" r="5.89" fill="white"/>
<circle cx="101.79" cy="42.26" r="5.89" fill="none" stroke="black" stroke-width="0.25px"/>
<circle cx="101.79" cy="54.17" r="5.89" fill="white"/>
<circle cx="101.79" cy="54.17" r="5.89" fill="none" stroke="black" stroke-width="0.25px"/>
<circle cx="101.79" cy="66.07" r="6.01" fill="black"/>
<circle cx="101.79" cy="185.13" r="5.89" fill="white"/>
<circle cx="101.79" cy="185.13" r="5.89" fill="none" stroke="black" stroke-width="0.25px"/>
<circle cx="113.69" cy="42.26" r="1.27" fill="black"/>
<circle cx="113.69" cy="113.69" r="1.27" fill="black"/>
<circle cx="113.69" cy="185.13" r="1.27" fill="black"/>
<circle cx="125.60" cy="66.07" r="6.01" fill="black"/>
<circle cx="137.50" cy="30.35" r="5.89" fill="white"/>
<circle cx="137.50" cy="30.35" r="5.89" fill="none" stroke="black" stroke-width="0.25px"/>
<circle cx="137.50" cy="54.17" r="5.89" fill="white"/>
<circle cx="137.50" cy="54.17" r="5.89" fill="none" stroke="black" stroke-width="0.25px"/>
<circle cx="137.50" cy="185.13" r="5.89" fill="white"/>
<circle cx="137.50" cy="185.13" r="5.89" fill="none" stroke="black" stroke-width="0.25px"/>
<circle cx="161.31" cy="30.35" r="6.01" fill="black"/>
<circle cx="161.31" cy="185.13" r="6.01" fill="black"/>
<circle cx="185.13" cy="42.26" r="6.01" fill="black"/>
<circle cx="185.13" cy="113.69" r="1.27" fill="black"/>
<circle cx="185.13" cy="185.13" r="1.27" fill="black"/>
<circle cx="185.13" cy="197.03" r="6.01" fill="black"/>
<circle cx="197.03" cy="125.60" r="6.01" fill="black"/>
<path d="
M32.45 28.21
L32.45 31.42
L30.99 31.42
L32.45 28.21
Z
M28.77 26.78
C28.67 27.09 28.50 27.41 28.26 27.74
C28.02 28.06 27.74 28.34 27.42 28.57
L27.42 29.41
C27.61 29.31 27.81 29.15 28.04 28.95
C28.26 28.75 28.44 28.55 28.57 28.36
L28.57 33.93
L29.15 33.93
L29.15 26.78
Z
M32.56 26.81
L30.43 31.42
L30.43 32.22
L32.45 32.22
L32.45 33.93
L33.03 33.93
L33.03 32.22
L33.66 32.22
L33.66 31.42
L33.03 31.42
L33.03 26.81
Z
" fill="black" fill-rule="nonzero" />
<path d="
M32.11 39.35
C32.40 39.35 32.63 39.54 32.80 39.93
C32.98 40.33 33.07 41.10 33.07 42.26
C33.07 43.41 32.98 44.18 32.81 44.58
C32.63 44.98 32.41 45.18 32.15 45.18
C31.87 45.18 31.65 44.98 31.47 44.59
C31.29 44.19 31.20 43.42 31.20 42.26
C31.20 41.12 31.29 40.34 31.46 39.94
C31.64 39.55 31.86 39.35 32.11 39.35
Z
M28.55 38.62
C28.11 38.62 27.76 38.80 27.49 39.14
C27.22 39.49 27.07 40.00 27.03 40.68
L27.62 40.78
C27.62 40.32 27.70 39.96 27.87 39.72
C28.05 39.47 28.26 39.35 28.53 39.35
C28.78 39.35 28.99 39.46 29.16 39.69
C29.33 39.92 29.41 40.21 29.41 40.58
C29.41 40.89 29.33 41.23 29.16 41.59
C29.00 41.96 28.65 42.47 28.11 43.14
C27.65 43.71 27.34 44.21 27.17 44.63
C26.99 45.05 26.91 45.43 26.92 45.77
L30.01 45.77
L30.01 44.93
L27.71 44.93
C27.78 44.78 27.86 44.62 27.96 44.46
C28.06 44.30 28.28 44.00 28.62 43.56
C29.16 42.87 29.52 42.32 29.71 41.90
C29.90 41.48 30.00 41.05 30.00 40.60
C30.00 40.08 29.88 39.63 29.63 39.23
C29.39 38.82 29.03 38.62 28.55 38.62
Z
M32.14 38.62
C31.64 38.62 31.26 38.93 31.00 39.55
C30.74 40.16 30.61 41.07 30.61 42.26
C30.61 43.60 30.76 44.54 31.04 45.08
C31.32 45.62 31.69 45.90 32.13 45.90
C32.64 45.90 33.02 45.59 33.28 44.97
C33.53 44.35 33.66 43.45 33.66 42.26
C33.66 40.94 33.51 39.97 33.20 39.37
C32.94 38.87 32.59 38.62 32.14 38.62
Z
" fill="black" fill-rule="nonzero" />
<path d="
M32.11 63.16
C32.40 63.16 32.63 63.35 32.80 63.75
C32.98 64.14 33.07 64.91 33.07 66.07
C33.07 67.22 32.98 67.99 32.81 68.39
C32.63 68.79 32.41 68.99 32.15 68.99
C31.87 68.99 31.65 68.79 31.47 68.40
C31.29 68.00 31.20 67.23 31.20 66.07
C31.20 64.93 31.29 64.15 31.46 63.76
C31.64 63.36 31.86 63.16 32.11 63.16
Z
M28.77 62.43
C28.67 62.75 28.50 63.06 28.26 63.39
C28.02 63.72 27.74 64.00 27.42 64.22
L27.42 65.07
C27.61 64.96 27.81 64.81 28.04 64.61
C28.26 64.41 28.44 64.21 28.57 64.01
L28.57 69.59
L29.15 69.59
L29.15 62.43
Z
M32.14 62.43
C31.64 62.43 31.26 62.74 31.00 63.36
C30.74 63.97 30.61 64.88 30.61 66.07
C30.61 67.41 30.76 68.35 31.04 68.89
C31.32 69.43 31.69 69.71 32.13 69.71
C32.64 69.71 33.02 69.40 33.28 68.78
C33.53 68.16 33.66 67.26 33.66 66.07
C33.66 64.75 33.51 63.78 33.20 63.18
C32.94 62.68 32.59 62.43 32.14 62.43
Z
" fill="black" fill-rule="nonzero" />
<path d="
M28.67 109.91
L28.64 110.01
C28.54 110.31 28.38 110.61 28.15 110.93
C27.91 111.24 27.65 111.51 27.34 111.73
L27.28 111.77
L27.28 111.84
L27.28 112.69
L27.28 112.93
L27.49 112.81
C27.69 112.70 27.90 112.54 28.13 112.33
C28.24 112.23 28.34 112.14 28.43 112.04
L28.43 112.04
L28.43 117.21
L28.43 117.35
L29.29 117.35
L29.29 117.21
L29.29 110.05
L29.29 109.91
Z
M32.09 109.91
C31.68 109.91 31.34 110.09 31.06 110.43
C30.79 110.76 30.61 111.25 30.54 111.88
L30.52 112.00
L30.64 112.04
L31.21 112.19
L31.37 112.24
L31.39 112.07
C31.43 111.66 31.52 111.36 31.65 111.17
C31.77 111.00 31.92 110.91 32.09 110.91
C32.09 110.91 32.09 110.91 32.10 110.91
C32.10 110.91 32.10 110.91 32.10 110.91
C32.26 110.91 32.40 111.00 32.52 111.16
C32.65 111.34 32.72 111.58 32.72 111.88
C32.72 112.21 32.64 112.47 32.48 112.66
C32.34 112.84 32.15 112.93 31.91 112.93
L31.91 112.93
L31.83 112.92
L31.69 112.91
L31.67 113.05
L31.61 113.82
L31.59 114.05
L31.80 113.96
C31.95 113.91 32.06 113.88 32.15 113.88
C32.15 113.88 32.15 113.88 32.15 113.88
C32.15 113.88 32.16 113.88 32.16 113.88
C32.36 113.88 32.54 113.98 32.69 114.20
C32.85 114.42 32.93 114.73 32.93 115.12
C32.93 115.53 32.84 115.86 32.66 116.11
C32.50 116.35 32.31 116.47 32.10 116.47
C32.10 116.47 32.10 116.47 32.10 116.47
C32.10 116.47 32.10 116.47 32.10 116.47
C31.91 116.47 31.75 116.37 31.63 116.18
C31.49 115.97 31.39 115.64 31.33 115.19
L31.31 115.04
L31.17 115.07
L30.59 115.19
L30.47 115.21
L30.48 115.33
C30.52 115.97 30.69 116.49 30.98 116.87
C31.29 117.27 31.66 117.47 32.11 117.47
C32.58 117.47 32.99 117.25 33.33 116.79
C33.66 116.35 33.82 115.79 33.82 115.10
C33.82 114.78 33.78 114.49 33.70 114.22
C33.62 113.96 33.51 113.74 33.38 113.58
C33.29 113.47 33.19 113.38 33.07 113.31
L33.07 113.31
C33.21 113.18 33.32 113.01 33.41 112.82
C33.53 112.55 33.59 112.24 33.59 111.90
C33.59 111.34 33.45 110.87 33.16 110.49
C32.87 110.11 32.51 109.91 32.09 109.91
Z
" fill="white" fill-rule="nonzero" />
<path d="
M40.57 14.73
L40.54 14.83
C40.45 15.13 40.29 15.43 40.05 15.75
C39.82 16.06 39.55 16.33 39.25 16.55
L39.19 16.59
L39.19 16.66
L39.19 17.51
L39.19 17.75
L39.40 17.63
C39.59 17.52 39.81 17.36 40.04 17.15
C40.15 17.05 40.25 16.95 40.33 16.86
L40.33 16.86
L40.33 22.02
L40.33 22.17
L41.19 22.17
L41.19 22.02
L41.19 14.87
L41.19 14.73
Z
M44.20 14.73
L44.17 14.83
C44.08 15.13 43.92 15.43 43.68 15.75
C43.45 16.06 43.18 16.33 42.88 16.55
L42.82 16.59
L42.82 16.66
L42.82 17.51
L42.82 17.75
L43.03 17.63
C43.22 17.52 43.44 17.36 43.67 17.15
C43.78 17.05 43.88 16.95 43.96 16.86
L43.96 16.86
L43.96 22.02
L43.96 22.17
L44.82 22.17
L44.82 22.02
L44.82 14.87
L44.82 14.73
Z
" fill="white" fill-rule="nonzero" />
<path d="
M44.06 27.58
C44.06 27.58 44.06 27.58 44.06 27.58
C44.06 27.58 44.06 27.58 44.06 27.58
C44.25 27.58 44.41 27.71 44.56 27.95
C44.73 28.22 44.82 28.60 44.82 29.08
C44.82 29.56 44.73 29.93 44.57 30.19
C44.43 30.42 44.25 30.54 44.05 30.54
C44.05 30.54 44.05 30.54 44.05 30.54
C44.05 30.54 44.05 30.54 44.04 30.54
C43.84 30.54 43.66 30.42 43.50 30.19
C43.34 29.94 43.25 29.59 43.25 29.15
C43.25 28.66 43.34 28.27 43.52 27.98
C43.68 27.72 43.86 27.58 44.06 27.58
Z
M40.57 26.58
L40.54 26.67
C40.45 26.97 40.29 27.28 40.05 27.59
C39.82 27.91 39.55 28.17 39.25 28.39
L39.19 28.43
L39.19 28.51
L39.19 29.35
L39.19 29.59
L39.19 29.59
L39.40 29.47
C39.59 29.37 39.81 29.21 40.04 29.00
C40.15 28.90 40.25 28.80 40.33 28.70
L40.33 28.70
L40.33 33.87
L40.33 34.01
L41.19 34.01
L41.19 33.87
L41.19 26.72
L41.19 26.58
Z
M43.99 26.58
C43.53 26.58 43.15 26.81 42.83 27.28
C42.53 27.74 42.38 28.35 42.38 29.12
C42.38 29.87 42.52 30.47 42.82 30.91
C43.12 31.37 43.49 31.59 43.92 31.60
C44.16 31.60 44.40 31.50 44.63 31.31
C44.72 31.24 44.80 31.15 44.87 31.06
L44.87 31.06
C44.85 31.45 44.80 31.81 44.72 32.12
C44.62 32.51 44.49 32.78 44.36 32.93
C44.23 33.06 44.09 33.13 43.94 33.13
C43.94 33.13 43.94 33.13 43.93 33.13
C43.93 33.13 43.93 33.13 43.93 33.13
C43.77 33.13 43.63 33.06 43.53 32.91
C43.42 32.74 43.34 32.48 43.30 32.13
L43.28 31.98
L43.14 32.00
L42.59 32.08
L42.45 32.10
L42.46 32.23
C42.51 32.84 42.67 33.30 42.92 33.62
C43.19 33.96 43.52 34.13 43.92 34.13
C44.28 34.13 44.59 33.99 44.87 33.72
C45.14 33.45 45.36 33.03 45.51 32.47
C45.66 31.92 45.74 31.14 45.74 30.15
C45.74 29.26 45.67 28.58 45.52 28.10
C45.38 27.61 45.17 27.23 44.90 26.97
C44.62 26.71 44.32 26.58 43.99 26.58
Z
" fill="white" fill-rule="nonzero" />
<path d="
M42.27 38.73
C41.73 38.73 41.30 38.90 40.97 39.24
C40.64 39.58 40.44 40.09 40.39 40.76
L41.12 40.85
C41.12 40.40 41.23 40.05 41.44 39.81
C41.65 39.56 41.92 39.44 42.25 39.44
C42.56 39.44 42.82 39.56 43.03 39.78
C43.23 40.01 43.34 40.30 43.34 40.66
C43.34 40.97 43.24 41.30 43.03 41.66
C42.83 42.02 42.39 42.53 41.73 43.19
C41.17 43.76 40.78 44.25 40.56 44.66
C40.35 45.08 40.25 45.46 40.26 45.79
L44.07 45.79
L44.07 44.96
L41.24 44.96
C41.32 44.80 41.42 44.65 41.54 44.49
C41.67 44.33 41.94 44.04 42.36 43.61
C43.02 42.92 43.47 42.38 43.71 41.96
C43.95 41.55 44.06 41.12 44.06 40.68
C44.06 40.17 43.91 39.72 43.61 39.32
C43.31 38.93 42.86 38.73 42.27 38.73
Z
" fill="black" fill-rule="nonzero" />
<path d="
M40.68 157.74
C40.58 158.05 40.41 158.37 40.17 158.70
C39.92 159.02 39.65 159.30 39.33 159.53
L39.33 160.37
C39.52 160.27 39.72 160.12 39.94 159.91
C40.17 159.71 40.34 159.51 40.48 159.32
L40.48 164.89
L41.05 164.89
L41.05 157.74
Z
M44.09 157.74
C43.65 157.74 43.30 157.91 43.03 158.26
C42.76 158.60 42.60 159.12 42.56 159.80
L43.15 159.89
C43.15 159.43 43.24 159.08 43.41 158.83
C43.58 158.59 43.80 158.46 44.07 158.46
C44.32 158.46 44.52 158.58 44.69 158.81
C44.86 159.03 44.95 159.33 44.95 159.69
C44.95 160.01 44.87 160.35 44.70 160.71
C44.53 161.07 44.18 161.59 43.65 162.26
C43.19 162.83 42.87 163.33 42.70 163.75
C42.53 164.17 42.45 164.55 42.45 164.89
L45.54 164.89
L45.54 164.05
L43.25 164.05
C43.31 163.89 43.39 163.73 43.49 163.57
C43.59 163.42 43.81 163.12 44.16 162.68
C44.69 161.99 45.06 161.43 45.25 161.02
C45.44 160.60 45.54 160.16 45.54 159.71
C45.54 159.20 45.41 158.74 45.17 158.34
C44.92 157.94 44.56 157.74 44.09 157.74
Z
" fill="black" fill-rule="nonzero" />
<path d="
M42.61 182.99
L42.61 186.17
L40.81 186.17
L42.61 182.99
Z
M42.74 181.61
L40.11 186.17
L40.11 186.96
L42.61 186.96
L42.61 188.64
L43.32 188.64
L43.32 186.96
L44.10 186.96
L44.10 186.17
L43.32 186.17
L43.32 181.61
Z
" fill="black" fill-rule="nonzero" />
<path d="
M52.48 38.54
L52.45 38.64
C52.35 38.94 52.19 39.24 51.96 39.56
C51.72 39.87 51.46 40.14 51.15 40.36
L51.09 40.40
L51.09 40.47
L51.09 41.32
L51.09 41.56
L51.30 41.44
C51.50 41.33 51.71 41.17 51.94 40.96
C52.05 40.86 52.15 40.77 52.24 40.67
L52.24 40.67
L52.24 45.84
L52.24 45.98
L53.10 45.98
L53.10 45.84
L53.10 38.68
L53.10 38.54
Z
M54.32 38.66
L54.32 38.81
L54.32 39.65
L54.32 39.79
L56.51 39.79
C56.26 40.26 56.02 40.81 55.80 41.44
C55.55 42.16 55.35 42.92 55.21 43.73
C55.06 44.53 54.98 45.23 54.98 45.83
L54.97 45.98
L55.71 45.98
L55.84 45.98
L55.85 45.84
C55.90 44.70 56.10 43.55 56.43 42.38
C56.77 41.22 57.16 40.28 57.61 39.56
L57.63 39.53
L57.63 39.49
L57.63 38.81
L57.63 38.66
Z
" fill="white" fill-rule="nonzero" />
<path d="
M52.36 50.45
C51.88 50.45 51.49 50.64 51.19 51.02
C50.90 51.39 50.74 51.93 50.70 52.64
L50.69 52.77
L50.82 52.79
L51.41 52.88
L51.57 52.91
L51.57 52.74
C51.57 52.31 51.65 51.99 51.80 51.76
C51.94 51.56 52.12 51.45 52.34 51.45
C52.34 51.45 52.34 51.45 52.34 51.45
C52.34 51.45 52.34 51.45 52.35 51.45
C52.55 51.45 52.72 51.55 52.86 51.74
C53.01 51.94 53.08 52.21 53.08 52.54
C53.08 52.84 53.00 53.16 52.85 53.50
C52.69 53.86 52.34 54.36 51.81 55.02
C51.34 55.60 51.02 56.11 50.84 56.55
C50.67 56.98 50.58 57.38 50.59 57.74
L50.59 57.88
L53.96 57.88
L53.96 57.74
L53.96 56.90
L53.96 56.76
L51.74 56.76
C51.79 56.67 51.83 56.59 51.89 56.50
C51.99 56.35 52.20 56.05 52.54 55.62
C53.09 54.92 53.46 54.35 53.65 53.93
C53.85 53.49 53.95 53.04 53.95 52.56
C53.95 52.02 53.82 51.54 53.57 51.12
C53.29 50.67 52.89 50.45 52.36 50.45
Z
M56.11 50.45
L56.08 50.55
C55.98 50.84 55.82 51.15 55.59 51.46
C55.35 51.78 55.09 52.04 54.78 52.26
L54.72 52.30
L54.72 52.38
L54.72 53.22
L54.72 53.46
L54.93 53.35
C55.13 53.24 55.34 53.08 55.57 52.87
C55.68 52.77 55.78 52.67 55.87 52.57
L55.87 52.57
L55.87 57.74
L55.87 57.88
L56.73 57.88
L56.73 57.74
L56.73 50.59
L56.73 50.45
Z
" fill="white" fill-rule="nonzero" />
<path d="
M55.96 63.15
C56.16 63.15 56.34 63.26 56.50 63.47
C56.65 63.68 56.72 63.96 56.72 64.29
C56.72 64.61 56.65 64.88 56.50 65.08
C56.35 65.29 56.17 65.39 55.96 65.39
C55.75 65.39 55.57 65.28 55.42 65.08
C55.27 64.87 55.20 64.59 55.20 64.24
C55.20 63.93 55.27 63.67 55.42 63.46
C55.57 63.26 55.75 63.15 55.96 63.15
Z
M55.95 66.10
C56.21 66.10 56.44 66.24 56.63 66.50
C56.82 66.77 56.91 67.12 56.91 67.56
C56.91 67.99 56.82 68.34 56.64 68.60
C56.45 68.86 56.23 68.99 55.96 68.99
C55.70 68.99 55.48 68.85 55.29 68.59
C55.10 68.32 55.01 67.97 55.01 67.53
C55.01 67.11 55.10 66.77 55.28 66.50
C55.47 66.23 55.69 66.10 55.95 66.10
Z
M52.58 62.43
C52.48 62.75 52.31 63.06 52.07 63.39
C51.83 63.72 51.55 64.00 51.23 64.22
L51.23 65.07
C51.42 64.96 51.63 64.81 51.85 64.61
C52.07 64.41 52.25 64.21 52.38 64.01
L52.38 69.59
L52.96 69.59
L52.96 62.43
Z
M55.95 62.43
C55.57 62.43 55.25 62.60 54.99 62.94
C54.74 63.28 54.61 63.72 54.61 64.27
C54.61 64.63 54.67 64.93 54.79 65.17
C54.90 65.41 55.08 65.59 55.31 65.72
C55.03 65.83 54.81 66.04 54.66 66.35
C54.50 66.66 54.42 67.05 54.42 67.53
C54.42 68.18 54.57 68.71 54.86 69.11
C55.16 69.51 55.52 69.71 55.96 69.71
C56.40 69.71 56.76 69.51 57.06 69.11
C57.35 68.71 57.50 68.19 57.50 67.55
C57.50 67.09 57.42 66.71 57.27 66.40
C57.12 66.09 56.90 65.86 56.62 65.72
C56.85 65.59 57.02 65.40 57.14 65.17
C57.25 64.93 57.31 64.64 57.31 64.29
C57.31 63.75 57.18 63.30 56.92 62.95
C56.66 62.61 56.34 62.43 55.95 62.43
Z
" fill="black" fill-rule="nonzero" />
<path d="
M66.05 27.62
C66.05 27.62 66.05 27.62 66.05 27.62
C66.05 27.62 66.05 27.62 66.05 27.62
C66.30 27.62 66.52 27.74 66.71 28.00
C66.92 28.26 67.02 28.62 67.02 29.09
C67.02 29.57 66.92 29.93 66.72 30.18
C66.53 30.42 66.31 30.54 66.04 30.54
C66.04 30.54 66.04 30.54 66.04 30.54
C66.04 30.54 66.04 30.54 66.03 30.54
C65.76 30.54 65.53 30.42 65.33 30.18
C65.12 29.93 65.02 29.59 65.02 29.17
C65.02 28.69 65.13 28.31 65.35 28.02
C65.56 27.75 65.79 27.62 66.05 27.62
Z
M65.97 26.62
C65.42 26.62 64.95 26.85 64.57 27.31
C64.20 27.76 64.01 28.37 64.01 29.14
C64.01 29.88 64.19 30.48 64.55 30.91
C64.92 31.36 65.36 31.58 65.88 31.58
C66.17 31.58 66.45 31.49 66.72 31.31
C66.86 31.22 66.98 31.11 67.09 30.99
L67.09 30.99
C67.07 31.40 67.01 31.77 66.90 32.09
C66.77 32.48 66.63 32.74 66.45 32.88
C66.29 33.02 66.10 33.09 65.90 33.09
C65.90 33.09 65.90 33.09 65.90 33.09
C65.90 33.09 65.90 33.09 65.89 33.09
C65.67 33.09 65.50 33.02 65.37 32.87
C65.22 32.70 65.13 32.45 65.08 32.10
L65.06 31.97
L64.92 31.98
L64.24 32.06
L64.10 32.07
L64.12 32.21
C64.18 32.81 64.37 33.27 64.68 33.60
C65.01 33.92 65.41 34.09 65.88 34.09
C66.30 34.09 66.68 33.95 67.02 33.69
C67.35 33.42 67.62 33.01 67.81 32.45
C68.00 31.90 68.09 31.14 68.09 30.15
C68.09 29.27 68.00 28.59 67.83 28.11
C67.65 27.63 67.39 27.26 67.06 27.00
C66.72 26.75 66.36 26.62 65.97 26.62
Z
" fill="white" fill-rule="nonzero" />
<path d="
M64.27 62.49
C63.83 62.49 63.48 62.67 63.21 63.01
C62.94 63.36 62.79 63.87 62.74 64.55
L63.33 64.65
C63.33 64.19 63.42 63.83 63.59 63.59
C63.76 63.34 63.98 63.22 64.25 63.22
C64.50 63.22 64.71 63.33 64.88 63.56
C65.05 63.79 65.13 64.09 65.13 64.45
C65.13 64.76 65.05 65.10 64.88 65.47
C64.72 65.83 64.36 66.35 63.83 67.01
C63.37 67.59 63.05 68.08 62.88 68.50
C62.71 68.93 62.63 69.31 62.63 69.65
L65.72 69.65
L65.72 68.81
L63.43 68.81
C63.49 68.65 63.57 68.49 63.67 68.33
C63.77 68.17 64.00 67.87 64.34 67.44
C64.87 66.74 65.24 66.19 65.43 65.77
C65.62 65.36 65.72 64.92 65.72 64.47
C65.72 63.96 65.59 63.50 65.35 63.10
C65.10 62.70 64.74 62.49 64.27 62.49
Z
M67.90 62.49
C67.46 62.49 67.11 62.67 66.84 63.01
C66.57 63.36 66.42 63.87 66.37 64.55
L66.96 64.65
C66.96 64.19 67.05 63.83 67.22 63.59
C67.39 63.34 67.61 63.22 67.88 63.22
C68.13 63.22 68.34 63.33 68.51 63.56
C68.68 63.79 68.76 64.09 68.76 64.45
C68.76 64.76 68.68 65.10 68.51 65.47
C68.35 65.83 67.99 66.35 67.46 67.01
C67.00 67.59 66.68 68.08 66.51 68.50
C66.34 68.93 66.26 69.31 66.26 69.65
L69.35 69.65
L69.35 68.81
L67.06 68.81
C67.12 68.65 67.20 68.49 67.30 68.33
C67.40 68.17 67.63 67.87 67.97 67.44
C68.50 66.74 68.87 66.19 69.06 65.77
C69.25 65.36 69.35 64.92 69.35 64.47
C69.35 63.96 69.22 63.50 68.98 63.10
C68.73 62.70 68.37 62.49 67.90 62.49
Z
" fill="black" fill-rule="nonzero" />
<path d="
M91.70 30.02
C91.96 30.02 92.17 30.16 92.35 30.44
C92.53 30.72 92.61 31.11 92.61 31.61
C92.61 32.13 92.53 32.53 92.35 32.83
C92.17 33.12 91.97 33.27 91.74 33.27
C91.49 33.27 91.26 33.12 91.07 32.80
C90.87 32.49 90.78 32.08 90.78 31.56
C90.78 31.09 90.87 30.71 91.05 30.44
C91.24 30.16 91.46 30.02 91.70 30.02
Z
M88.30 26.72
C88.20 27.03 88.03 27.35 87.79 27.67
C87.55 28.00 87.27 28.28 86.95 28.51
L86.95 29.35
C87.14 29.25 87.34 29.09 87.57 28.89
C87.79 28.69 87.97 28.49 88.10 28.30
L88.10 33.87
L88.67 33.87
L88.67 26.72
Z
M91.79 26.72
C91.30 26.72 90.90 27.01 90.59 27.59
C90.27 28.18 90.11 29.16 90.11 30.54
C90.11 31.78 90.27 32.66 90.57 33.19
C90.88 33.72 91.27 33.99 91.74 33.99
C92.00 33.99 92.24 33.90 92.46 33.71
C92.68 33.53 92.85 33.24 92.99 32.86
C93.13 32.47 93.20 32.04 93.20 31.56
C93.20 30.86 93.06 30.30 92.79 29.88
C92.51 29.46 92.19 29.25 91.82 29.25
C91.59 29.25 91.38 29.33 91.18 29.49
C90.98 29.65 90.82 29.89 90.69 30.20
C90.69 29.32 90.78 28.66 90.95 28.21
C91.15 27.70 91.42 27.44 91.76 27.44
C91.97 27.44 92.15 27.55 92.31 27.78
C92.41 27.93 92.49 28.19 92.55 28.56
L93.12 28.49
C93.07 27.91 92.92 27.47 92.68 27.17
C92.44 26.87 92.14 26.72 91.79 26.72
Z
" fill="black" fill-rule="nonzero" />
<path d="
M88.08 38.48
C87.59 38.48 87.20 38.67 86.91 39.05
C86.62 39.42 86.46 39.96 86.41 40.67
L86.41 40.80
L86.53 40.82
L87.12 40.91
L87.29 40.94
L87.29 40.77
C87.29 40.34 87.36 40.02 87.52 39.79
C87.66 39.59 87.84 39.49 88.05 39.49
C88.06 39.49 88.06 39.49 88.06 39.49
C88.06 39.49 88.06 39.49 88.06 39.49
C88.26 39.49 88.43 39.58 88.57 39.77
C88.72 39.97 88.80 40.24 88.80 40.57
C88.80 40.87 88.72 41.19 88.56 41.53
C88.40 41.89 88.06 42.39 87.53 43.05
C87.06 43.63 86.74 44.14 86.56 44.58
C86.38 45.02 86.30 45.42 86.30 45.78
L86.31 45.91
L89.68 45.91
L89.68 45.77
L89.68 44.93
L89.68 44.79
L87.46 44.79
C87.50 44.70 87.55 44.62 87.61 44.53
C87.70 44.38 87.92 44.08 88.26 43.65
C88.80 42.95 89.17 42.38 89.37 41.96
C89.57 41.52 89.67 41.07 89.67 40.59
C89.67 40.05 89.54 39.57 89.28 39.15
C89.01 38.70 88.61 38.48 88.08 38.48
Z
M91.62 38.48
C91.21 38.48 90.87 38.65 90.58 39.00
C90.31 39.33 90.14 39.81 90.06 40.45
L90.05 40.57
L90.17 40.60
L90.74 40.76
L90.90 40.80
L90.92 40.64
C90.96 40.23 91.04 39.93 91.18 39.74
C91.30 39.57 91.45 39.48 91.62 39.48
C91.62 39.48 91.62 39.48 91.62 39.48
C91.62 39.48 91.62 39.48 91.63 39.48
C91.79 39.48 91.93 39.56 92.05 39.73
C92.18 39.90 92.24 40.14 92.24 40.45
C92.24 40.78 92.17 41.04 92.01 41.23
C91.86 41.41 91.67 41.50 91.44 41.50
L91.44 41.50
L91.36 41.49
L91.21 41.48
L91.20 41.62
L91.14 42.39
L91.12 42.62
L91.33 42.53
C91.47 42.47 91.59 42.45 91.68 42.45
C91.68 42.45 91.68 42.45 91.68 42.45
C91.68 42.45 91.68 42.45 91.68 42.45
C91.89 42.45 92.07 42.55 92.21 42.76
C92.37 42.99 92.45 43.30 92.45 43.68
C92.45 44.09 92.37 44.43 92.19 44.68
C92.03 44.91 91.84 45.03 91.63 45.03
C91.63 45.03 91.63 45.03 91.63 45.03
C91.63 45.03 91.62 45.03 91.62 45.03
C91.43 45.03 91.28 44.94 91.16 44.75
C91.02 44.53 90.92 44.20 90.86 43.76
L90.84 43.61
L90.69 43.64
L90.12 43.75
L90.00 43.78
L90.00 43.90
C90.05 44.54 90.21 45.05 90.51 45.44
C90.81 45.84 91.19 46.04 91.63 46.04
C92.11 46.04 92.52 45.81 92.86 45.36
C93.18 44.92 93.35 44.35 93.35 43.67
C93.35 43.35 93.31 43.05 93.23 42.79
C93.15 42.52 93.04 42.31 92.91 42.15
C92.82 42.04 92.71 41.95 92.60 41.88
L92.60 41.88
C92.73 41.74 92.85 41.58 92.94 41.39
C93.06 41.12 93.12 40.81 93.12 40.47
C93.12 39.90 92.98 39.44 92.69 39.06
C92.40 38.67 92.04 38.48 91.62 38.48
Z
" fill="white" fill-rule="nonzero" />
<path d="
M91.09 53.05
L91.09 53.05
L91.09 53.05
C91.09 53.05 91.09 53.05 91.09 53.05
Z
M88.08 50.39
C87.59 50.39 87.20 50.58 86.91 50.96
C86.62 51.33 86.46 51.87 86.41 52.58
L86.41 52.71
L86.53 52.73
L87.12 52.82
L87.29 52.85
L87.29 52.68
C87.29 52.25 87.36 51.92 87.52 51.70
C87.66 51.50 87.84 51.39 88.05 51.39
C88.06 51.39 88.06 51.39 88.06 51.39
C88.06 51.39 88.06 51.39 88.06 51.39
C88.26 51.39 88.43 51.49 88.57 51.68
C88.72 51.88 88.80 52.15 88.80 52.48
C88.80 52.78 88.72 53.10 88.56 53.44
C88.40 53.79 88.06 54.30 87.53 54.96
C87.06 55.54 86.74 56.05 86.56 56.48
C86.38 56.92 86.30 57.32 86.30 57.68
L86.31 57.82
L89.68 57.82
L89.68 57.68
L89.68 56.84
L89.68 56.70
L87.46 56.70
C87.50 56.61 87.55 56.53 87.61 56.44
C87.70 56.28 87.92 55.99 88.26 55.56
C88.80 54.85 89.17 54.29 89.37 53.86
C89.57 53.43 89.67 52.98 89.67 52.50
C89.67 51.96 89.54 51.48 89.28 51.06
C89.01 50.61 88.61 50.39 88.08 50.39
Z
M90.57 50.51
L90.56 50.64
L90.10 54.30
L90.09 54.43
L90.22 54.45
L90.76 54.56
L90.87 54.58
L90.91 54.47
C90.99 54.28 91.10 54.13 91.23 54.02
C91.36 53.92 91.49 53.87 91.63 53.87
C91.63 53.87 91.63 53.87 91.63 53.87
C91.63 53.87 91.63 53.87 91.63 53.87
C91.87 53.87 92.07 53.99 92.23 54.23
C92.40 54.49 92.49 54.85 92.49 55.33
C92.49 55.85 92.40 56.25 92.22 56.54
C92.05 56.81 91.86 56.94 91.64 56.94
C91.64 56.94 91.64 56.94 91.63 56.94
C91.63 56.94 91.63 56.94 91.63 56.94
C91.46 56.94 91.31 56.85 91.18 56.67
C91.03 56.46 90.93 56.15 90.89 55.72
L90.87 55.58
L90.73 55.60
L90.12 55.67
L89.99 55.69
L90.00 55.82
C90.04 56.47 90.21 56.99 90.51 57.36
C90.81 57.75 91.19 57.94 91.64 57.94
C92.18 57.94 92.61 57.67 92.93 57.13
C93.23 56.61 93.38 55.99 93.38 55.27
C93.38 54.53 93.23 53.94 92.92 53.50
C92.60 53.05 92.23 52.82 91.79 52.82
C91.54 52.82 91.31 52.89 91.09 53.05
L91.09 53.05
L91.28 51.63
L93.16 51.63
L93.16 51.49
L93.16 50.65
L93.16 50.51
Z
" fill="white" fill-rule="nonzero" />
<path d="
M88.08 62.35
C87.59 62.35 87.20 62.54 86.91 62.93
C86.62 63.29 86.46 63.83 86.41 64.55
L86.41 64.67
L86.53 64.69
L87.12 64.79
L87.29 64.81
L87.29 64.65
C87.29 64.22 87.36 63.89 87.52 63.67
C87.66 63.46 87.84 63.36 88.05 63.36
C88.06 63.36 88.06 63.36 88.06 63.36
C88.06 63.36 88.06 63.36 88.06 63.36
C88.26 63.36 88.43 63.46 88.57 63.65
C88.72 63.85 88.80 64.12 88.80 64.45
C88.80 64.74 88.72 65.06 88.56 65.41
C88.40 65.76 88.06 66.27 87.53 66.92
C87.06 67.51 86.74 68.02 86.56 68.45
C86.38 68.89 86.30 69.29 86.30 69.65
L86.31 69.79
L89.68 69.79
L89.68 69.65
L89.68 68.81
L89.68 68.66
L87.46 68.66
C87.50 68.58 87.55 68.49 87.61 68.41
C87.70 68.25 87.92 67.96 88.26 67.52
C88.80 66.82 89.17 66.26 89.37 65.83
C89.57 65.40 89.67 64.94 89.67 64.47
C89.67 63.93 89.54 63.45 89.28 63.02
C89.01 62.58 88.61 62.35 88.08 62.35
Z
M90.04 62.47
L90.04 62.62
L90.04 63.46
L90.04 63.60
L92.23 63.60
C91.98 64.07 91.74 64.62 91.52 65.25
C91.27 65.97 91.07 66.74 90.92 67.54
C90.78 68.34 90.70 69.04 90.69 69.64
L90.69 69.79
L91.42 69.79
L91.56 69.79
L91.57 69.65
C91.62 68.51 91.81 67.36 92.15 66.20
C92.49 65.03 92.88 64.09 93.33 63.37
L93.35 63.34
L93.35 63.30
L93.35 62.62
L93.35 62.47
Z
" fill="white" fill-rule="nonzero" />
<path d="
M103.55 27.44
C103.83 27.44 104.06 27.63 104.24 28.03
C104.42 28.42 104.50 29.19 104.50 30.35
C104.50 31.50 104.42 32.27 104.24 32.67
C104.06 33.07 103.84 33.27 103.58 33.27
C103.31 33.27 103.08 33.07 102.90 32.68
C102.72 32.29 102.63 31.51 102.63 30.35
C102.63 29.21 102.72 28.44 102.90 28.04
C103.07 27.64 103.29 27.44 103.55 27.44
Z
M103.58 26.72
C103.07 26.72 102.69 27.02 102.43 27.64
C102.18 28.25 102.05 29.16 102.05 30.35
C102.05 31.69 102.19 32.63 102.47 33.17
C102.76 33.72 103.12 33.99 103.57 33.99
C104.07 33.99 104.45 33.68 104.71 33.06
C104.97 32.45 105.09 31.54 105.09 30.35
C105.09 29.03 104.94 28.07 104.63 27.46
C104.37 26.96 104.02 26.72 103.58 26.72
Z
M99.89 26.72
C99.53 26.72 99.22 26.87 98.97 27.18
C98.72 27.49 98.55 27.95 98.48 28.56
L99.05 28.72
C99.09 28.29 99.19 27.96 99.34 27.75
C99.49 27.54 99.68 27.43 99.90 27.43
C100.11 27.43 100.29 27.54 100.44 27.74
C100.59 27.94 100.66 28.21 100.66 28.54
C100.66 28.90 100.57 29.19 100.40 29.41
C100.22 29.63 99.99 29.74 99.71 29.74
L99.62 29.73
L99.55 30.49
C99.71 30.43 99.85 30.40 99.96 30.40
C100.21 30.40 100.43 30.52 100.61 30.78
C100.78 31.03 100.87 31.36 100.87 31.78
C100.87 32.22 100.77 32.58 100.58 32.85
C100.39 33.13 100.16 33.27 99.90 33.27
C99.42 33.27 99.12 32.80 99.00 31.87
L98.42 31.99
C98.46 32.60 98.62 33.09 98.90 33.45
C99.17 33.81 99.51 33.99 99.91 33.99
C100.34 33.99 100.71 33.78 101.02 33.37
C101.33 32.95 101.48 32.42 101.48 31.76
C101.48 31.46 101.44 31.18 101.37 30.93
C101.29 30.68 101.19 30.48 101.07 30.33
C100.95 30.18 100.80 30.07 100.61 30.01
C100.81 29.87 100.97 29.67 101.08 29.42
C101.19 29.17 101.25 28.89 101.25 28.56
C101.25 28.03 101.12 27.59 100.85 27.24
C100.59 26.89 100.27 26.72 99.89 26.72
Z
" fill="black" fill-rule="nonzero" />
<path d="
M103.89 40.12
L103.89 43.33
L102.42 43.33
L103.89 40.12
Z
M99.98 38.68
C99.55 38.68 99.19 38.86 98.92 39.20
C98.66 39.55 98.50 40.06 98.46 40.74
L99.05 40.84
C99.05 40.38 99.14 40.02 99.31 39.78
C99.48 39.53 99.70 39.41 99.96 39.41
C100.21 39.41 100.42 39.52 100.59 39.75
C100.76 39.98 100.85 40.27 100.85 40.64
C100.85 40.95 100.76 41.29 100.60 41.65
C100.43 42.02 100.08 42.53 99.54 43.20
C99.09 43.78 98.77 44.27 98.60 44.69
C98.43 45.11 98.34 45.50 98.35 45.84
L101.44 45.84
L101.44 44.99
L99.15 44.99
C99.21 44.84 99.29 44.68 99.39 44.52
C99.49 44.36 99.71 44.06 100.05 43.62
C100.59 42.93 100.95 42.38 101.15 41.96
C101.34 41.54 101.43 41.11 101.43 40.66
C101.43 40.14 101.31 39.69 101.07 39.29
C100.82 38.88 100.46 38.68 99.98 38.68
Z
M103.99 38.71
L101.86 43.33
L101.86 44.13
L103.89 44.13
L103.89 45.84
L104.46 45.84
L104.46 44.13
L105.09 44.13
L105.09 43.33
L104.46 43.33
L104.46 38.71
Z
" fill="black" fill-rule="nonzero" />
<path d="
M103.61 53.83
C103.86 53.83 104.08 53.97 104.26 54.25
C104.43 54.53 104.52 54.92 104.52 55.43
C104.52 55.94 104.43 56.35 104.25 56.64
C104.08 56.94 103.87 57.08 103.65 57.08
C103.39 57.08 103.17 56.93 102.97 56.61
C102.78 56.30 102.68 55.89 102.68 55.37
C102.68 54.90 102.77 54.52 102.96 54.25
C103.14 53.97 103.36 53.83 103.61 53.83
Z
M99.98 50.53
C99.55 50.53 99.19 50.70 98.92 51.05
C98.66 51.39 98.50 51.91 98.46 52.59
L99.05 52.68
C99.05 52.22 99.14 51.87 99.31 51.62
C99.48 51.38 99.70 51.25 99.96 51.25
C100.21 51.25 100.42 51.37 100.59 51.60
C100.76 51.82 100.85 52.12 100.85 52.48
C100.85 52.80 100.76 53.14 100.60 53.50
C100.43 53.86 100.08 54.38 99.54 55.05
C99.09 55.62 98.77 56.12 98.60 56.54
C98.43 56.96 98.34 57.34 98.35 57.68
L101.44 57.68
L101.44 56.84
L99.15 56.84
C99.21 56.68 99.29 56.52 99.39 56.36
C99.49 56.20 99.71 55.91 100.05 55.47
C100.59 54.78 100.95 54.22 101.15 53.81
C101.34 53.39 101.43 52.95 101.43 52.50
C101.43 51.99 101.31 51.53 101.07 51.13
C100.82 50.73 100.46 50.53 99.98 50.53
Z
M103.70 50.53
C103.21 50.53 102.80 50.82 102.49 51.41
C102.18 51.99 102.02 52.97 102.02 54.35
C102.02 55.59 102.17 56.47 102.48 57.00
C102.78 57.54 103.17 57.80 103.64 57.80
C103.91 57.80 104.15 57.71 104.36 57.52
C104.58 57.34 104.76 57.05 104.90 56.67
C105.04 56.28 105.11 55.85 105.11 55.37
C105.11 54.67 104.97 54.11 104.69 53.69
C104.42 53.27 104.09 53.06 103.72 53.06
C103.50 53.06 103.29 53.14 103.09 53.30
C102.89 53.46 102.72 53.70 102.59 54.01
C102.59 53.13 102.68 52.47 102.86 52.02
C103.06 51.51 103.33 51.25 103.66 51.25
C103.88 51.25 104.06 51.36 104.21 51.59
C104.32 51.74 104.40 52.00 104.45 52.37
L105.02 52.30
C104.97 51.73 104.83 51.29 104.59 50.98
C104.35 50.68 104.05 50.53 103.70 50.53
Z
" fill="black" fill-rule="nonzero" />
<path d="
M103.58 63.30
C103.58 63.30 103.59 63.30 103.59 63.30
C103.59 63.30 103.59 63.30 103.59 63.30
C103.77 63.30 103.94 63.42 104.09 63.67
C104.26 63.94 104.34 64.31 104.34 64.80
C104.34 65.28 104.26 65.65 104.10 65.90
C103.95 66.14 103.78 66.26 103.58 66.26
C103.58 66.26 103.58 66.26 103.58 66.26
C103.57 66.26 103.57 66.26 103.57 66.26
C103.37 66.26 103.19 66.14 103.03 65.90
C102.86 65.65 102.78 65.31 102.78 64.87
C102.78 64.38 102.87 63.99 103.05 63.70
C103.21 63.43 103.39 63.30 103.58 63.30
Z
M99.98 62.29
C99.50 62.29 99.11 62.48 98.81 62.86
C98.53 63.23 98.36 63.77 98.32 64.49
L98.31 64.61
L98.44 64.63
L99.03 64.73
L99.19 64.75
L99.19 64.59
C99.19 64.16 99.27 63.83 99.42 63.61
C99.57 63.40 99.74 63.30 99.96 63.30
C99.96 63.30 99.96 63.30 99.96 63.30
C99.97 63.30 99.97 63.30 99.97 63.30
C100.17 63.30 100.34 63.39 100.48 63.59
C100.63 63.79 100.71 64.06 100.70 64.39
C100.70 64.68 100.63 65.00 100.47 65.35
C100.31 65.70 99.96 66.21 99.43 66.86
C98.97 67.45 98.64 67.96 98.47 68.39
C98.29 68.83 98.20 69.23 98.21 69.59
L98.21 69.73
L101.58 69.73
L101.58 69.59
L101.58 68.75
L101.58 68.60
L99.37 68.60
C99.41 68.52 99.46 68.43 99.51 68.34
C99.61 68.19 99.83 67.90 100.17 67.46
C100.71 66.76 101.08 66.20 101.27 65.77
C101.47 65.34 101.58 64.88 101.58 64.41
C101.58 63.87 101.45 63.39 101.19 62.96
C100.91 62.52 100.51 62.29 99.98 62.29
Z
M103.52 62.29
C103.06 62.29 102.67 62.53 102.36 63.00
C102.06 63.45 101.91 64.07 101.91 64.84
C101.91 65.59 102.05 66.19 102.34 66.63
C102.65 67.08 103.02 67.31 103.45 67.31
C103.69 67.31 103.93 67.22 104.16 67.03
C104.24 66.95 104.32 66.87 104.40 66.78
L104.40 66.78
C104.38 67.17 104.33 67.52 104.25 67.83
C104.14 68.23 104.02 68.50 103.88 68.64
C103.75 68.78 103.62 68.85 103.46 68.85
C103.46 68.85 103.46 68.85 103.46 68.85
C103.46 68.85 103.46 68.85 103.46 68.85
C103.29 68.85 103.16 68.77 103.06 68.63
C102.95 68.46 102.87 68.20 102.83 67.84
L102.81 67.70
L102.67 67.72
L102.11 67.80
L101.98 67.82
L101.99 67.95
C102.04 68.55 102.19 69.02 102.45 69.34
C102.72 69.68 103.05 69.85 103.45 69.85
C103.80 69.85 104.12 69.71 104.40 69.43
C104.67 69.17 104.88 68.75 105.04 68.18
C105.19 67.63 105.26 66.86 105.26 65.87
C105.26 64.98 105.19 64.29 105.05 63.81
C104.91 63.32 104.70 62.95 104.43 62.69
C104.15 62.43 103.85 62.29 103.52 62.29
Z
" fill="white" fill-rule="nonzero" />
<path d="
M101.76 182.24
C102.01 182.24 102.24 182.35 102.42 182.56
C102.61 182.77 102.70 183.04 102.70 183.37
C102.70 183.69 102.61 183.95 102.43 184.15
C102.25 184.35 102.03 184.45 101.77 184.45
C101.50 184.45 101.28 184.35 101.10 184.14
C100.91 183.94 100.82 183.66 100.82 183.32
C100.82 183.01 100.91 182.76 101.10 182.55
C101.28 182.35 101.50 182.24 101.76 182.24
Z
M101.75 185.16
C102.08 185.16 102.36 185.29 102.59 185.55
C102.82 185.82 102.94 186.16 102.94 186.60
C102.94 187.03 102.83 187.37 102.60 187.62
C102.37 187.88 102.09 188.01 101.77 188.01
C101.44 188.01 101.17 187.88 100.94 187.61
C100.70 187.35 100.59 187.00 100.59 186.57
C100.59 186.15 100.70 185.81 100.93 185.55
C101.15 185.29 101.43 185.16 101.75 185.16
Z
M101.75 181.53
C101.28 181.53 100.88 181.70 100.57 182.04
C100.25 182.37 100.09 182.81 100.09 183.34
C100.09 183.70 100.17 183.99 100.31 184.23
C100.46 184.47 100.67 184.65 100.96 184.78
C100.61 184.89 100.35 185.10 100.15 185.40
C99.96 185.71 99.86 186.10 99.86 186.57
C99.86 187.21 100.04 187.73 100.41 188.13
C100.77 188.52 101.22 188.72 101.77 188.72
C102.31 188.72 102.76 188.52 103.12 188.13
C103.48 187.73 103.66 187.22 103.66 186.59
C103.66 186.14 103.57 185.76 103.38 185.45
C103.20 185.14 102.93 184.92 102.58 184.78
C102.86 184.65 103.08 184.47 103.22 184.23
C103.36 184.00 103.43 183.71 103.43 183.37
C103.43 182.83 103.27 182.39 102.95 182.05
C102.63 181.70 102.23 181.53 101.75 181.53
Z
" fill="black" fill-rule="nonzero" />
<path d="
M127.54 62.29
L127.51 62.39
C127.42 62.68 127.25 62.99 127.02 63.30
C126.79 63.62 126.52 63.89 126.22 64.10
L126.16 64.15
L126.16 64.22
L126.16 65.06
L126.16 65.31
L126.37 65.19
C126.56 65.08 126.78 64.92 127.01 64.71
C127.12 64.61 127.21 64.51 127.30 64.42
L127.30 64.42
L127.30 69.58
L127.30 69.72
L128.16 69.72
L128.16 69.58
L128.16 62.43
L128.16 62.29
Z
M123.70 62.29
C123.30 62.29 122.95 62.46 122.67 62.81
C122.40 63.14 122.23 63.62 122.15 64.26
L122.14 64.38
L122.25 64.41
L122.82 64.57
L122.99 64.61
L123.00 64.45
C123.04 64.04 123.13 63.74 123.27 63.55
C123.39 63.38 123.54 63.29 123.71 63.29
C123.71 63.29 123.71 63.29 123.71 63.29
C123.71 63.29 123.71 63.29 123.71 63.29
C123.88 63.29 124.02 63.37 124.13 63.54
C124.26 63.72 124.33 63.96 124.33 64.26
C124.33 64.59 124.25 64.85 124.10 65.04
C123.95 65.22 123.76 65.31 123.53 65.31
L123.53 65.31
L123.44 65.30
L123.30 65.29
L123.29 65.43
L123.22 66.20
L123.20 66.43
L123.42 66.34
C123.56 66.29 123.68 66.26 123.77 66.26
C123.77 66.26 123.77 66.26 123.77 66.26
C123.77 66.26 123.77 66.26 123.77 66.26
C123.98 66.26 124.15 66.36 124.30 66.57
C124.46 66.80 124.54 67.11 124.54 67.49
C124.54 67.91 124.45 68.24 124.28 68.49
C124.11 68.73 123.93 68.84 123.72 68.84
C123.72 68.84 123.71 68.84 123.71 68.84
C123.71 68.84 123.71 68.84 123.71 68.84
C123.52 68.84 123.36 68.75 123.24 68.56
C123.10 68.34 123.00 68.01 122.95 67.57
L122.93 67.42
L122.78 67.45
L122.20 67.56
L122.08 67.59
L122.09 67.71
C122.13 68.35 122.30 68.87 122.59 69.25
C122.90 69.65 123.28 69.85 123.72 69.85
C124.20 69.85 124.61 69.62 124.94 69.17
C125.27 68.73 125.43 68.16 125.43 67.48
C125.43 67.16 125.39 66.87 125.31 66.60
C125.23 66.34 125.13 66.12 124.99 65.96
C124.90 65.85 124.80 65.76 124.68 65.69
L124.68 65.69
C124.82 65.56 124.93 65.39 125.02 65.20
C125.14 64.93 125.20 64.62 125.20 64.28
C125.20 63.72 125.06 63.25 124.78 62.87
C124.49 62.48 124.13 62.29 123.70 62.29
Z
" fill="white" fill-rule="nonzero" />
<path d="
M139.30 27.44
C139.50 27.44 139.68 27.54 139.83 27.75
C139.99 27.97 140.06 28.24 140.06 28.57
C140.06 28.90 139.99 29.16 139.84 29.37
C139.69 29.57 139.51 29.67 139.30 29.67
C139.09 29.67 138.91 29.57 138.76 29.36
C138.61 29.15 138.54 28.87 138.54 28.52
C138.54 28.21 138.61 27.95 138.76 27.75
C138.91 27.54 139.09 27.44 139.30 27.44
Z
M139.29 30.39
C139.55 30.39 139.78 30.52 139.97 30.79
C140.16 31.05 140.25 31.41 140.25 31.84
C140.25 32.28 140.16 32.62 139.98 32.88
C139.79 33.14 139.57 33.27 139.30 33.27
C139.04 33.27 138.82 33.14 138.63 32.87
C138.44 32.60 138.35 32.25 138.35 31.81
C138.35 31.39 138.44 31.05 138.62 30.78
C138.80 30.52 139.03 30.39 139.29 30.39
Z
M135.70 26.72
C135.26 26.72 134.91 26.89 134.64 27.23
C134.37 27.58 134.22 28.09 134.18 28.78
L134.77 28.87
C134.77 28.41 134.85 28.06 135.02 27.81
C135.19 27.56 135.41 27.44 135.68 27.44
C135.93 27.44 136.14 27.56 136.31 27.78
C136.48 28.01 136.56 28.31 136.56 28.67
C136.56 28.98 136.48 29.32 136.31 29.69
C136.15 30.05 135.80 30.57 135.26 31.24
C134.80 31.81 134.49 32.31 134.31 32.73
C134.14 33.15 134.06 33.53 134.07 33.87
L137.16 33.87
L137.16 33.03
L134.86 33.03
C134.93 32.87 135.01 32.71 135.11 32.55
C135.21 32.39 135.43 32.10 135.77 31.66
C136.31 30.97 136.67 30.41 136.86 29.99
C137.05 29.58 137.15 29.14 137.15 28.69
C137.15 28.18 137.03 27.72 136.78 27.32
C136.54 26.92 136.18 26.72 135.70 26.72
Z
M139.29 26.72
C138.91 26.72 138.58 26.89 138.33 27.23
C138.07 27.57 137.95 28.01 137.95 28.55
C137.95 28.91 138.01 29.21 138.12 29.45
C138.24 29.69 138.42 29.88 138.65 30.01
C138.37 30.12 138.15 30.33 138.00 30.64
C137.84 30.95 137.76 31.34 137.76 31.81
C137.76 32.47 137.91 32.99 138.20 33.39
C138.50 33.79 138.86 33.99 139.30 33.99
C139.74 33.99 140.10 33.79 140.40 33.39
C140.69 32.99 140.84 32.47 140.84 31.84
C140.84 31.38 140.76 30.99 140.61 30.68
C140.46 30.37 140.24 30.15 139.96 30.01
C140.19 29.87 140.36 29.69 140.48 29.45
C140.59 29.21 140.65 28.92 140.65 28.58
C140.65 28.03 140.52 27.58 140.26 27.24
C140.00 26.89 139.68 26.72 139.29 26.72
Z
" fill="black" fill-rule="nonzero" />
<path d="
M139.33 50.53
C138.89 50.53 138.54 50.70 138.27 51.04
C138.00 51.39 137.85 51.90 137.81 52.59
L138.40 52.68
C138.40 52.22 138.48 51.87 138.65 51.62
C138.83 51.37 139.04 51.25 139.31 51.25
C139.56 51.25 139.77 51.36 139.94 51.59
C140.11 51.82 140.19 52.12 140.19 52.48
C140.19 52.79 140.11 53.13 139.94 53.50
C139.78 53.86 139.43 54.38 138.89 55.04
C138.43 55.62 138.12 56.11 137.94 56.54
C137.77 56.96 137.69 57.34 137.70 57.68
L140.79 57.68
L140.79 56.84
L138.49 56.84
C138.56 56.68 138.64 56.52 138.74 56.36
C138.84 56.20 139.06 55.90 139.40 55.47
C139.94 54.77 140.30 54.22 140.49 53.80
C140.68 53.39 140.78 52.95 140.78 52.50
C140.78 51.99 140.66 51.53 140.41 51.13
C140.17 50.73 139.81 50.53 139.33 50.53
Z
M135.61 50.53
C135.25 50.53 134.94 50.68 134.69 50.99
C134.43 51.30 134.27 51.76 134.20 52.37
L134.77 52.53
C134.81 52.10 134.91 51.78 135.06 51.56
C135.21 51.35 135.39 51.25 135.61 51.25
C135.83 51.25 136.01 51.35 136.15 51.55
C136.30 51.75 136.38 52.02 136.38 52.35
C136.38 52.72 136.29 53.01 136.11 53.22
C135.94 53.44 135.71 53.55 135.42 53.55
L135.33 53.54
L135.27 54.31
C135.43 54.24 135.56 54.21 135.67 54.21
C135.93 54.21 136.15 54.34 136.32 54.59
C136.50 54.84 136.59 55.17 136.59 55.59
C136.59 56.03 136.49 56.39 136.30 56.66
C136.11 56.94 135.88 57.08 135.62 57.08
C135.13 57.08 134.83 56.61 134.71 55.68
L134.14 55.80
C134.18 56.41 134.33 56.90 134.61 57.26
C134.89 57.62 135.23 57.80 135.63 57.80
C136.06 57.80 136.43 57.60 136.73 57.18
C137.04 56.76 137.20 56.23 137.20 55.57
C137.20 55.27 137.16 54.99 137.08 54.74
C137.01 54.49 136.91 54.29 136.79 54.14
C136.67 53.99 136.51 53.88 136.33 53.82
C136.53 53.68 136.69 53.48 136.80 53.23
C136.91 52.98 136.97 52.70 136.97 52.37
C136.97 51.84 136.84 51.40 136.57 51.05
C136.31 50.70 135.99 50.53 135.61 50.53
Z
" fill="black" fill-rule="nonzero" />
<path d="
M137.51 184.80
C137.83 184.80 138.09 184.93 138.31 185.21
C138.53 185.48 138.64 185.87 138.64 186.37
C138.64 186.88 138.53 187.28 138.31 187.57
C138.09 187.86 137.84 188.01 137.56 188.01
C137.24 188.01 136.97 187.85 136.73 187.54
C136.49 187.24 136.37 186.83 136.37 186.32
C136.37 185.85 136.48 185.48 136.71 185.21
C136.94 184.93 137.21 184.80 137.51 184.80
Z
M137.62 181.53
C137.01 181.53 136.52 181.82 136.13 182.40
C135.74 182.98 135.55 183.95 135.55 185.31
C135.55 186.53 135.74 187.41 136.12 187.93
C136.49 188.46 136.97 188.72 137.56 188.72
C137.88 188.72 138.18 188.63 138.44 188.44
C138.71 188.26 138.93 187.98 139.10 187.60
C139.28 187.22 139.36 186.79 139.36 186.32
C139.36 185.62 139.19 185.07 138.85 184.66
C138.51 184.24 138.11 184.03 137.65 184.03
C137.38 184.03 137.12 184.11 136.87 184.27
C136.62 184.43 136.42 184.66 136.26 184.97
C136.26 184.11 136.37 183.45 136.58 183.01
C136.83 182.50 137.16 182.24 137.58 182.24
C137.84 182.24 138.07 182.36 138.26 182.58
C138.39 182.73 138.49 182.99 138.55 183.35
L139.26 183.29
C139.20 182.72 139.02 182.28 138.72 181.98
C138.42 181.68 138.06 181.53 137.62 181.53
Z
" fill="black" fill-rule="nonzero" />
<path d="
M162.53 29.24
L162.53 29.24
L162.53 29.24
C162.53 29.24 162.53 29.24 162.53 29.24
Z
M159.63 26.58
L159.60 26.67
C159.50 26.97 159.34 27.28 159.11 27.59
C158.87 27.91 158.61 28.17 158.30 28.39
L158.24 28.43
L158.24 28.51
L158.24 29.35
L158.24 29.59
L158.45 29.47
C158.65 29.37 158.86 29.21 159.09 29.00
C159.20 28.90 159.30 28.80 159.39 28.70
L159.39 28.70
L159.39 33.87
L159.39 34.01
L160.25 34.01
L160.25 33.87
L160.25 26.72
L160.25 26.58
Z
M162.01 26.70
L161.99 26.83
L161.54 30.48
L161.52 30.62
L161.65 30.64
L162.19 30.75
L162.30 30.77
L162.35 30.66
C162.43 30.47 162.53 30.32 162.66 30.21
C162.79 30.11 162.92 30.06 163.06 30.06
C163.06 30.06 163.06 30.06 163.06 30.06
C163.06 30.06 163.07 30.06 163.07 30.06
C163.30 30.06 163.50 30.18 163.66 30.42
C163.84 30.68 163.92 31.04 163.92 31.52
C163.92 32.04 163.83 32.44 163.65 32.73
C163.48 33.00 163.29 33.13 163.07 33.13
C163.07 33.13 163.07 33.13 163.07 33.13
C163.07 33.13 163.07 33.13 163.06 33.13
C162.90 33.13 162.74 33.04 162.61 32.85
C162.46 32.65 162.36 32.34 162.32 31.91
L162.30 31.77
L162.16 31.79
L161.56 31.86
L161.43 31.88
L161.43 32.01
C161.47 32.66 161.64 33.18 161.94 33.55
C162.25 33.94 162.63 34.13 163.08 34.13
C163.62 34.13 164.04 33.86 164.36 33.32
C164.66 32.80 164.81 32.18 164.81 31.45
C164.81 30.72 164.66 30.13 164.36 29.69
C164.04 29.23 163.66 29.01 163.22 29.01
C162.98 29.01 162.75 29.08 162.53 29.24
L162.53 29.24
L162.71 27.82
L164.59 27.82
L164.59 27.68
L164.59 26.84
L164.59 26.70
Z
" fill="white" fill-rule="nonzero" />
<path d="
M159.30 181.51
L159.30 181.65
L159.30 182.48
L159.30 182.63
L161.99 182.63
C161.69 183.09 161.40 183.62 161.13 184.24
C160.82 184.96 160.57 185.72 160.39 186.51
C160.21 187.30 160.12 188.00 160.11 188.60
L160.10 188.74
L160.98 188.74
L161.11 188.74
L161.12 188.61
C161.18 187.48 161.42 186.34 161.84 185.20
C162.26 184.05 162.74 183.12 163.29 182.41
L163.32 182.37
L163.32 182.33
L163.32 181.65
L163.32 181.51
Z
" fill="white" fill-rule="nonzero" />
<path d="
M185.32 38.59
L185.28 38.68
C185.17 38.97 184.97 39.27 184.68 39.58
C184.39 39.89 184.06 40.15 183.68 40.37
L183.61 40.41
L183.61 40.49
L183.61 41.33
L183.61 41.55
L183.81 41.46
C184.05 41.35 184.31 41.20 184.59 40.99
C184.75 40.87 184.90 40.75 185.02 40.64
L185.02 40.64
L185.02 45.79
L185.02 45.93
L186.02 45.93
L186.02 45.79
L186.02 38.73
L186.02 38.59
Z
" fill="white" fill-rule="nonzero" />
<path d="
M185.02 193.29
C184.54 193.30 184.13 193.46 183.79 193.80
C183.45 194.13 183.24 194.61 183.14 195.24
L183.12 195.37
L183.25 195.40
L183.96 195.55
L184.11 195.59
L184.13 195.43
C184.18 195.03 184.28 194.74 184.45 194.56
C184.61 194.38 184.80 194.29 185.03 194.29
C185.03 194.29 185.03 194.29 185.03 194.29
C185.04 194.29 185.04 194.29 185.04 194.29
C185.26 194.29 185.44 194.37 185.60 194.54
C185.76 194.72 185.83 194.95 185.83 195.24
C185.83 195.56 185.74 195.81 185.55 196.00
C185.36 196.19 185.11 196.28 184.81 196.28
L184.81 196.28
L184.70 196.27
L184.56 196.26
L184.55 196.40
L184.47 197.16
L184.44 197.37
L184.65 197.31
C184.84 197.25 184.99 197.22 185.11 197.22
C185.11 197.22 185.11 197.22 185.11 197.22
C185.11 197.22 185.11 197.22 185.11 197.22
C185.38 197.22 185.61 197.32 185.80 197.54
C186.00 197.76 186.09 198.06 186.09 198.44
C186.09 198.84 185.99 199.16 185.77 199.41
C185.56 199.65 185.32 199.77 185.04 199.77
C185.04 199.77 185.04 199.77 185.04 199.77
C185.04 199.77 185.04 199.77 185.04 199.77
C184.78 199.77 184.58 199.67 184.42 199.48
C184.25 199.27 184.13 198.94 184.06 198.51
L184.04 198.37
L183.90 198.39
L183.19 198.50
L183.06 198.52
L183.07 198.65
C183.12 199.29 183.33 199.80 183.69 200.19
C184.06 200.57 184.52 200.77 185.05 200.77
C185.62 200.77 186.11 200.55 186.52 200.11
C186.93 199.67 187.13 199.11 187.13 198.42
C187.13 198.10 187.08 197.81 186.98 197.55
C186.88 197.28 186.75 197.07 186.58 196.91
C186.48 196.80 186.36 196.72 186.22 196.65
L186.22 196.65
C186.38 196.52 186.51 196.36 186.62 196.18
C186.77 195.91 186.85 195.61 186.85 195.26
C186.85 194.70 186.67 194.23 186.32 193.86
C185.96 193.48 185.53 193.30 185.02 193.29
Z
" fill="white" fill-rule="nonzero" />
<path d="
M196.25 124.46
L196.25 124.46
L196.25 124.46
C196.25 124.46 196.25 124.46 196.25 124.46
Z
M195.68 121.93
L195.66 122.05
L195.10 125.66
L195.07 125.80
L195.21 125.82
L195.88 125.93
L195.98 125.94
L196.03 125.85
C196.13 125.66 196.26 125.51 196.42 125.41
C196.59 125.30 196.76 125.25 196.95 125.25
C196.95 125.25 196.95 125.25 196.95 125.25
C196.95 125.25 196.95 125.25 196.95 125.25
C197.26 125.25 197.52 125.37 197.73 125.61
C197.94 125.86 198.05 126.22 198.05 126.69
C198.05 127.19 197.93 127.58 197.71 127.87
C197.50 128.14 197.25 128.28 196.96 128.28
C196.96 128.28 196.96 128.28 196.95 128.28
C196.95 128.28 196.95 128.28 196.95 128.28
C196.73 128.28 196.52 128.18 196.35 127.99
C196.17 127.80 196.05 127.49 196.00 127.07
L195.98 126.93
L195.84 126.95
L195.10 127.02
L194.96 127.04
L194.97 127.18
C195.02 127.82 195.23 128.34 195.60 128.71
C195.97 129.08 196.43 129.27 196.96 129.27
C197.61 129.27 198.13 129.00 198.52 128.47
C198.89 127.96 199.08 127.34 199.08 126.62
C199.08 125.89 198.89 125.30 198.51 124.87
C198.12 124.42 197.67 124.20 197.14 124.20
C196.83 124.20 196.53 124.29 196.25 124.46
L196.25 124.46
L196.48 123.04
L198.80 123.04
L198.80 122.89
L198.80 122.07
L198.80 121.93
Z
" fill="white" fill-rule="nonzero" />
</g>
</g>
</svg>
