<?xml version="1.0" encoding="utf-8" standalone="no"?>
<!DOCTYPE svg PUBLIC "-//W3C//DTD SVG 1.0//EN" "http://www.w3.org/TR/SVG/DTD/svg11.dtd" >
<svg version="1.1" baseProfile="full"  width="319.13385" height="338.46454" viewBox="0 0 229.77638 243.69449" preserveAspectRatio="xMidYMid" xmlns="http://www.w3.org/2000/svg" >

<g lengthAdjust="spacingAndGlyphs" xml:space='preserve' >
<g  transform="translate(1.19,1.19)" >
<path d="
M0.0 0.0
L0.0 227.39
L227.39 227.39
L227.39 0.0
Z
" fill="none" fill-rule="nonzero" />
<line x1="6.54" y1="6.54" x2="6.54" y2="220.84" fill="none" stroke="black" stroke-width="0.87px" stroke-linecap="square" />
<line x1="18.45" y1="6.54" x2="18.45" y2="220.84" fill="none" stroke="black" stroke-width="0.25px" stroke-linecap="butt" />
<line x1="30.35" y1="6.54" x2="30.35" y2="220.84" fill="none" stroke="black" stroke-width="0.25px" stroke-linecap="butt" />
<line x1="42.26" y1="6.54" x2="42.26" y2="220.84" fill="none" stroke="black" stroke-width="0.25px" stroke-linecap="butt" />
<line x1="54.17" y1="6.54" x2="54.17" y2="220.84" fill="none" stroke="black" stroke-width="0.25px" stroke-linecap="butt" />
<line x1="66.07" y1="6.54" x2="66.07" y2="220.84" fill="none" stroke="black" stroke-width="0.25px" stroke-linecap="butt" />
<line x1="77.98" y1="6.54" x2="77.98" y2="220.84" fill="none" stroke="black" stroke-width="0.25px" stroke-linecap="butt" />
<line x1="89.88" y1="6.54" x2="89.88" y2="220.84" fill="none" stroke="black" stroke-width="0.25px" stroke-linecap="butt" />
<line x1="101.79" y1="6.54" x2="101.79" y2="220.84" fill="none" stroke="black" stroke-width="0.25px" stroke-linecap="butt" />
<line x1="113.69" y1="6.54" x2="113.69" y2="220.84" fill="none" stroke="black" stroke-width="0.25px" stroke-linecap="butt" />
<line x1="125.60" y1="6.54" x2="125.60" y2="220.84" fill="none" stroke="black" stroke-width="0.25px" stroke-linecap="butt" />
<line x1="137.50" y1="6.54" x2="137.50" y2="220.84" fill="none" stroke="black" stroke-width="0.25px" stroke-linecap="butt" />
<line x1="149.41" y1="6.54" x2="149.41" y2="220.84" fill="none" stroke="black" stroke-width="0.25px" stroke-linecap="butt" />
<line x1="161.31" y1="6.54" x2="161.31" y2="220.84" fill="none" stroke="black" stroke-width="0.25px" stroke-linecap="butt" />
<line x1="173.22" y1="6.54" x2="173.22" y2="220.84" fill="none" stroke="black" stroke-width="0.25px" stroke-linecap="butt" />
<line x1="185.13" y1="6.54" x2="185.13" y2="220.84" fill="none" stroke="black" stroke-width="0.25px" stroke-linecap="butt" />
<line x1="197.03" y1="6.54" x2="197.03" y2="220.84" fill="none" stroke="black" stroke-width="0.25px" stroke-linecap="butt" />
<line x1="208.94" y1="6.54" x2="208.94" y2="220.84" fill="none" stroke="black" stroke-width="0.25px" stroke-linecap="butt" />
<line x1="220.84" y1="6.54" x2="220.84" y2="220.84" fill="none" stroke="black" stroke-width="0.87px" stroke-linecap="square" />
<line x1="6.54" y1="6.54" x2="220.84" y2="6.54" fill="none" stroke="black" stroke-width="0.87px" stroke-linecap="square" />
<line x1="6.54" y1="18.45" x2="220.84" y2="18.45" fill="none" stroke="black" stroke-width="0.25px" stroke-linecap="butt" />
<line x1="6.54" y1="30.35" x2="220.84" y2="30.35" fill="none" stroke="black" stroke-width="0.25px" stroke-linecap="butt" />
<line x1="6.54" y1="42.26" x2="220.84" y2="42.26" fill="none" stroke="black" stroke-width="0.25px" stroke-linecap="butt" />
<line x1="6.54" y1="54.17" x2="220.84" y2="54.17" fill="none" stroke="black" stroke-width="0.25px" stroke-linecap="butt" />
<line x1="6.54" y1="66.07" x2="220.84" y2="66.07" fill="none" stroke="black" stroke-width="0.25px" stroke-linecap="butt" />
<line x1="6.54" y1="77.98" x2="220.84" y2="77.98" fill="none" stroke="black" stroke-width="0.25px" stroke-linecap="butt" />
<line x1="6.54" y1="89.88" x2="220.84" y2="89.88" fill="none" stroke="black" stroke-width="0.25px" stroke-linecap="butt" />
<line x1="6.54" y1="101.79" x2="220.84" y2="101.79" fill="none" stroke="black" stroke-width="0.25px" stroke-linecap="butt" />
<line x1="6.54" y1="113.69" x2="220.84" y2="113.69" fill="none" stroke="black" stroke-width="0.25px" stroke-linecap="butt" />
<line x1="6.54" y1="125.60" x2="220.84" y2="125.60" fill="none" stroke="black" stroke-width="0.25px" stroke-linecap="butt" />
<line x1="6.54" y1="137.50" x2="220.84" y2="137.50" fill="none" stroke="black" stroke-width="0.25px" stroke-linecap="butt" />
<line x1="6.54" y1="149.41" x2="220.84" y2="149.41" fill="none" stroke="black" stroke-width="0.25px" stroke-linecap="butt" />
<line x1="6.54" y1="161.31" x2="220.84" y2="161.31" fill="none" stroke="black" stroke-width="0.25px" stroke-linecap="butt" />
<line x1="6.54" y1="173.22" x2="220.84" y2="173.22" fill="none" stroke="black" stroke-width="0.25px" stroke-linecap="butt" />
<line x1="6.54" y1="185.13" x2="220.84" y2="185.13" fill="none" stroke="black" stroke-width="0.25px" stroke-linecap="butt" />
<line x1="6.54" y1="197.03" x2="220.84" y2="197.03" fill="none" stroke="black" stroke-width="0.25px" stroke-linecap="butt" />
<line x1="6.54" y1="208.94" x2="220.84" y2="208.94" fill="none" stroke="black" stroke-width="0.25px" stroke-linecap="butt" />
<line x1="6.54" y1="220.84" x2="220.84" y2="220.84" fill="none" stroke="black" stroke-width="0.87px" stroke-linecap="square" />
<circle cx="30.35" cy="54.17" r="5.98" fill="black"/>
<circle cx="30.35" cy="89.88" r="5.85" fill="white"/>
<circle cx="30.35" cy="89.88" r="5.85" fill="none" stroke="black" stroke-width="0.25px"/>
<circle cx="30.35" cy="125.60" r="5.85" fill="white"/>
<circle cx="30.35" cy="125.60" r="5.85" fill="none" stroke="black" stroke-width="0.25px"/>
<circle cx="30.35" cy="161.31" r="5.85" fill="white"/>
<circle cx="30.35" cy="161.31" r="5.85" fill="none" stroke="black" stroke-width="0.25px"/>
<circle cx="42.26" cy="30.35" r="5.85" fill="white"/>
<circle cx="42.26" cy="30.35" r="5.85" fill="none" stroke="black" stroke-width="0.25px"/>
<circle cx="42.26" cy="42.26" r="1.27" fill="black"/>
<circle cx="42.26" cy="77.98" r="5.85" fill="white"/>
<circle cx="42.26" cy="77.98" r="5.85" fill="none" stroke="black" stroke-width="0.25px"/>
<circle cx="42.26" cy="89.88" r="5.98" fill="black"/>
<circle cx="42.26" cy="101.79" r="5.85" fill="white"/>
<circle cx="42.26" cy="101.79" r="5.85" fill="none" stroke="black" stroke-width="0.25px"/>
<circle cx="42.26" cy="113.69" r="1.27" fill="black"/>
<circle cx="42.26" cy="185.13" r="5.98" fill="black"/>
<circle cx="54.17" cy="66.07" r="5.98" fill="black"/>
<circle cx="54.17" cy="77.98" r="5.98" fill="black"/>
<circle cx="54.17" cy="89.88" r="5.98" fill="black"/>
<circle cx="66.07" cy="197.03" r="5.98" fill="black"/>
<circle cx="77.98" cy="30.35" r="5.85" fill="white"/>
<circle cx="77.98" cy="30.35" r="5.85" fill="none" stroke="black" stroke-width="0.25px"/>
<circle cx="101.79" cy="30.35" r="5.98" fill="black"/>
<circle cx="113.69" cy="42.26" r="1.27" fill="black"/>
<circle cx="113.69" cy="113.69" r="1.27" fill="black"/>
<circle cx="113.69" cy="185.13" r="1.27" fill="black"/>
<circle cx="149.41" cy="101.79" r="5.98" fill="black"/>
<circle cx="149.41" cy="113.69" r="5.85" fill="white"/>
<circle cx="149.41" cy="113.69" r="5.85" fill="none" stroke="black" stroke-width="0.25px"/>
<circle cx="149.41" cy="197.03" r="5.98" fill="black"/>
<circle cx="161.31" cy="66.07" r="5.98" fill="black"/>
<circle cx="161.31" cy="77.98" r="5.98" fill="black"/>
<circle cx="161.31" cy="185.13" r="5.85" fill="white"/>
<circle cx="161.31" cy="185.13" r="5.85" fill="none" stroke="black" stroke-width="0.25px"/>
<circle cx="173.22" cy="66.07" r="5.98" fill="black"/>
<circle cx="173.22" cy="77.98" r="5.85" fill="white"/>
<circle cx="173.22" cy="77.98" r="5.85" fill="none" stroke="black" stroke-width="0.25px"/>
<circle cx="173.22" cy="89.88" r="5.98" fill="black"/>
<circle cx="173.22" cy="113.69" r="5.85" fill="white"/>
<circle cx="173.22" cy="113.69" r="5.85" fill="none" stroke="black" stroke-width="0.25px"/>
<circle cx="173.22" cy="149.41" r="5.98" fill="black"/>
<circle cx="173.22" cy="173.22" r="5.98" fill="black"/>
<circle cx="173.22" cy="185.13" r="5.85" fill="white"/>
<circle cx="173.22" cy="185.13" r="5.85" fill="none" stroke="black" stroke-width="0.25px"/>
<circle cx="185.13" cy="30.35" r="5.98" fill="black"/>
<circle cx="185.13" cy="42.26" r="5.98" fill="black"/>
<circle cx="185.13" cy="54.17" r="5.98" fill="black"/>
<circle cx="185.13" cy="66.07" r="5.85" fill="white"/>
<circle cx="185.13" cy="66.07" r="5.85" fill="none" stroke="black" stroke-width="0.25px"/>
<circle cx="185.13" cy="77.98" r="5.85" fill="white"/>
<circle cx="185.13" cy="77.98" r="5.85" fill="none" stroke="black" stroke-width="0.25px"/>
<circle cx="185.13" cy="89.88" r="5.98" fill="black"/>
<circle cx="185.13" cy="113.69" r="1.27" fill="black"/>
<circle cx="185.13" cy="137.50" r="5.85" fill="white"/>
<circle cx="185.13" cy="137.50" r="5.85" fill="none" stroke="black" stroke-width="0.25px"/>
<circle cx="185.13" cy="149.41" r="5.98" fill="black"/>
<circle cx="185.13" cy="185.13" r="1.27" fill="black"/>
<circle cx="185.13" cy="197.03" r="5.85" fill="white"/>
<circle cx="185.13" cy="197.03" r="5.85" fill="none" stroke="black" stroke-width="0.25px"/>
<circle cx="197.03" cy="30.35" r="5.85" fill="white"/>
<circle cx="197.03" cy="30.35" r="5.85" fill="none" stroke="black" stroke-width="0.25px"/>
<circle cx="197.03" cy="42.26" r="5.85" fill="white"/>
<circle cx="197.03" cy="42.26" r="5.85" fill="none" stroke="black" stroke-width="0.25px"/>
<circle cx="197.03" cy="54.17" r="5.85" fill="white"/>
<circle cx="197.03" cy="54.17" r="5.85" fill="none" stroke="black" stroke-width="0.25px"/>
<circle cx="197.03" cy="89.88" r="5.98" fill="black"/>
<circle cx="197.03" cy="113.69" r="5.85" fill="white"/>
<circle cx="197.03" cy="113.69" r="5.85" fill="none" stroke="black" stroke-width="0.25px"/>
<circle cx="197.03" cy="149.41" r="5.85" fill="white"/>
<circle cx="197.03" cy="149.41" r="5.85" fill="none" stroke="black" stroke-width="0.25px"/>
<circle cx="197.03" cy="173.22" r="5.98" fill="black"/>
<circle cx="208.94" cy="66.07" r="5.85" fill="white"/>
<circle cx="208.94" cy="66.07" r="5.85" fill="none" stroke="black" stroke-width="0.25px"/>
<circle cx="208.94" cy="77.98" r="5.85" fill="white"/>
<circle cx="208.94" cy="77.98" r="5.85" fill="none" stroke="black" stroke-width="0.25px"/>
<circle cx="208.94" cy="89.88" r="5.98" fill="black"/>
<path d="
M28.34 50.55
L28.34 50.69
L28.34 51.52
L28.34 51.66
L31.03 51.66
C30.73 52.13 30.44 52.66 30.17 53.28
C29.86 54.00 29.61 54.75 29.43 55.55
C29.25 56.34 29.16 57.04 29.15 57.64
L29.14 57.78
L30.02 57.78
L30.15 57.78
L30.16 57.65
C30.22 56.52 30.46 55.38 30.88 54.24
C31.30 53.09 31.78 52.16 32.33 51.45
L32.36 51.41
L32.36 51.36
L32.36 50.69
L32.36 50.55
Z
" fill="white" fill-rule="nonzero" />
<path d="
M32.18 89.55
C32.43 89.55 32.65 89.69 32.82 89.97
C33.00 90.25 33.09 90.64 33.09 91.14
C33.09 91.66 33.00 92.06 32.82 92.36
C32.64 92.65 32.44 92.80 32.22 92.80
C31.96 92.80 31.73 92.64 31.54 92.33
C31.35 92.02 31.25 91.60 31.25 91.09
C31.25 90.62 31.34 90.24 31.53 89.96
C31.71 89.69 31.93 89.55 32.18 89.55
Z
M28.77 86.25
C28.67 86.56 28.50 86.88 28.26 87.20
C28.02 87.53 27.74 87.81 27.42 88.03
L27.42 88.88
C27.61 88.77 27.81 88.62 28.04 88.42
C28.26 88.22 28.44 88.02 28.57 87.82
L28.57 93.40
L29.15 93.40
L29.15 86.25
Z
M32.26 86.25
C31.77 86.25 31.37 86.54 31.06 87.12
C30.74 87.71 30.59 88.69 30.59 90.06
C30.59 91.30 30.74 92.19 31.05 92.72
C31.35 93.25 31.74 93.52 32.21 93.52
C32.47 93.52 32.71 93.43 32.93 93.24
C33.15 93.06 33.33 92.77 33.47 92.38
C33.60 92.00 33.67 91.57 33.67 91.09
C33.67 90.39 33.54 89.82 33.26 89.41
C32.98 88.99 32.66 88.78 32.29 88.78
C32.07 88.78 31.86 88.86 31.66 89.02
C31.46 89.18 31.29 89.41 31.16 89.72
C31.16 88.85 31.25 88.19 31.42 87.74
C31.63 87.22 31.89 86.96 32.23 86.96
C32.44 86.96 32.63 87.08 32.78 87.30
C32.89 87.46 32.97 87.72 33.02 88.09
L33.59 88.02
C33.54 87.44 33.39 87.00 33.15 86.70
C32.91 86.40 32.62 86.25 32.26 86.25
Z
" fill="black" fill-rule="nonzero" />
<path d="
M32.15 122.68
C32.35 122.68 32.53 122.79 32.68 123.00
C32.84 123.21 32.91 123.48 32.91 123.82
C32.91 124.14 32.84 124.41 32.69 124.61
C32.54 124.81 32.36 124.92 32.15 124.92
C31.94 124.92 31.76 124.81 31.61 124.60
C31.46 124.40 31.39 124.12 31.39 123.77
C31.39 123.46 31.46 123.20 31.61 122.99
C31.76 122.78 31.94 122.68 32.15 122.68
Z
M32.14 125.63
C32.40 125.63 32.63 125.76 32.82 126.03
C33.01 126.30 33.10 126.65 33.10 127.09
C33.10 127.52 33.01 127.87 32.83 128.13
C32.64 128.39 32.42 128.52 32.15 128.52
C31.89 128.52 31.67 128.38 31.48 128.11
C31.29 127.85 31.20 127.50 31.20 127.06
C31.20 126.64 31.29 126.29 31.47 126.03
C31.65 125.76 31.88 125.63 32.14 125.63
Z
M28.77 121.96
C28.67 122.27 28.50 122.59 28.26 122.92
C28.02 123.25 27.74 123.52 27.42 123.75
L27.42 124.59
C27.61 124.49 27.81 124.34 28.04 124.14
C28.26 123.93 28.44 123.73 28.57 123.54
L28.57 129.11
L29.15 129.11
L29.15 121.96
Z
M32.14 121.96
C31.76 121.96 31.44 122.13 31.18 122.47
C30.92 122.81 30.80 123.25 30.80 123.79
C30.80 124.15 30.86 124.45 30.97 124.69
C31.09 124.94 31.27 125.12 31.50 125.25
C31.22 125.36 31.00 125.57 30.85 125.88
C30.69 126.19 30.61 126.58 30.61 127.06
C30.61 127.71 30.76 128.23 31.05 128.63
C31.35 129.03 31.71 129.23 32.15 129.23
C32.59 129.23 32.95 129.03 33.25 128.63
C33.54 128.23 33.69 127.72 33.69 127.08
C33.69 126.62 33.61 126.24 33.46 125.93
C33.31 125.62 33.09 125.39 32.81 125.25
C33.04 125.12 33.21 124.93 33.33 124.69
C33.44 124.46 33.50 124.17 33.50 123.82
C33.50 123.28 33.37 122.83 33.11 122.48
C32.85 122.13 32.53 121.96 32.14 121.96
Z
" fill="black" fill-rule="nonzero" />
<path d="
M32.45 159.17
L32.45 162.38
L30.99 162.38
L32.45 159.17
Z
M28.77 157.74
C28.67 158.05 28.50 158.37 28.26 158.70
C28.02 159.02 27.74 159.30 27.42 159.53
L27.42 160.37
C27.61 160.27 27.81 160.12 28.04 159.91
C28.26 159.71 28.44 159.51 28.57 159.32
L28.57 164.89
L29.15 164.89
L29.15 157.74
Z
M32.56 157.77
L30.43 162.38
L30.43 163.19
L32.45 163.19
L32.45 164.89
L33.03 164.89
L33.03 163.19
L33.66 163.19
L33.66 162.38
L33.03 162.38
L33.03 157.77
Z
" fill="black" fill-rule="nonzero" />
<path d="
M42.27 26.82
C41.73 26.82 41.30 26.99 40.97 27.33
C40.64 27.67 40.44 28.18 40.39 28.86
L41.12 28.95
C41.12 28.49 41.23 28.14 41.44 27.90
C41.65 27.66 41.92 27.54 42.25 27.54
C42.56 27.54 42.82 27.65 43.03 27.87
C43.23 28.10 43.34 28.39 43.34 28.75
C43.34 29.06 43.24 29.40 43.03 29.76
C42.83 30.12 42.39 30.63 41.73 31.29
C41.17 31.85 40.78 32.34 40.56 32.76
C40.35 33.17 40.25 33.55 40.26 33.89
L44.07 33.89
L44.07 33.06
L41.24 33.06
C41.32 32.90 41.42 32.74 41.54 32.59
C41.67 32.43 41.94 32.13 42.36 31.70
C43.02 31.02 43.47 30.47 43.71 30.06
C43.95 29.65 44.06 29.22 44.06 28.77
C44.06 28.26 43.91 27.81 43.61 27.42
C43.31 27.02 42.86 26.82 42.27 26.82
Z
" fill="black" fill-rule="nonzero" />
<path d="
M42.23 75.09
C42.49 75.09 42.71 75.20 42.90 75.41
C43.08 75.62 43.18 75.89 43.18 76.22
C43.18 76.54 43.09 76.80 42.90 77.00
C42.72 77.20 42.50 77.30 42.24 77.30
C41.98 77.30 41.75 77.20 41.57 76.99
C41.39 76.79 41.30 76.51 41.30 76.17
C41.30 75.86 41.39 75.61 41.57 75.40
C41.76 75.20 41.98 75.09 42.23 75.09
Z
M42.22 78.01
C42.55 78.01 42.83 78.14 43.06 78.40
C43.29 78.67 43.41 79.02 43.41 79.45
C43.41 79.88 43.30 80.22 43.07 80.47
C42.84 80.73 42.57 80.86 42.24 80.86
C41.92 80.86 41.64 80.73 41.41 80.46
C41.18 80.20 41.06 79.85 41.06 79.42
C41.06 79.00 41.17 78.66 41.40 78.40
C41.62 78.14 41.90 78.01 42.22 78.01
Z
M42.23 74.38
C41.75 74.38 41.35 74.55 41.04 74.89
C40.72 75.22 40.57 75.66 40.57 76.19
C40.57 76.55 40.64 76.84 40.78 77.08
C40.93 77.32 41.14 77.50 41.43 77.63
C41.09 77.74 40.82 77.95 40.63 78.25
C40.43 78.56 40.34 78.95 40.34 79.42
C40.34 80.06 40.52 80.58 40.88 80.98
C41.24 81.37 41.70 81.57 42.24 81.57
C42.78 81.57 43.23 81.37 43.59 80.98
C43.96 80.58 44.14 80.07 44.14 79.44
C44.14 78.99 44.04 78.61 43.86 78.30
C43.67 77.99 43.40 77.77 43.05 77.63
C43.34 77.50 43.55 77.32 43.69 77.08
C43.83 76.85 43.90 76.56 43.90 76.22
C43.90 75.68 43.74 75.24 43.42 74.90
C43.11 74.55 42.71 74.38 42.23 74.38
Z
" fill="black" fill-rule="nonzero" />
<path d="
M40.57 86.10
L40.54 86.20
C40.45 86.50 40.29 86.80 40.05 87.12
C39.82 87.43 39.55 87.70 39.25 87.92
L39.19 87.96
L39.19 88.03
L39.19 88.88
L39.19 89.12
L39.40 89.00
C39.59 88.89 39.81 88.73 40.04 88.52
C40.15 88.42 40.25 88.32 40.33 88.23
L40.33 88.23
L40.33 93.39
L40.33 93.54
L41.19 93.54
L41.19 93.39
L41.19 86.24
L41.19 86.10
Z
M43.99 86.10
C43.59 86.10 43.24 86.27 42.96 86.62
C42.69 86.95 42.52 87.44 42.44 88.07
L42.43 88.19
L42.55 88.23
L43.12 88.38
L43.28 88.43
L43.29 88.26
C43.33 87.85 43.42 87.55 43.56 87.36
C43.68 87.19 43.83 87.10 44.00 87.10
C44.00 87.10 44.00 87.10 44.00 87.10
C44.00 87.10 44.00 87.10 44.00 87.10
C44.17 87.10 44.31 87.19 44.43 87.35
C44.56 87.53 44.62 87.77 44.62 88.07
C44.62 88.40 44.54 88.66 44.39 88.85
C44.24 89.03 44.05 89.12 43.82 89.12
L43.82 89.12
L43.74 89.11
L43.59 89.10
L43.58 89.24
L43.51 90.01
L43.49 90.24
L43.49 90.24
L43.71 90.15
C43.85 90.10 43.97 90.07 44.06 90.07
C44.06 90.07 44.06 90.07 44.06 90.07
C44.06 90.07 44.06 90.07 44.06 90.07
C44.27 90.07 44.45 90.17 44.59 90.39
C44.75 90.61 44.83 90.92 44.83 91.31
C44.83 91.72 44.74 92.05 44.57 92.30
C44.41 92.54 44.22 92.65 44.01 92.65
C44.01 92.65 44.01 92.65 44.00 92.65
C44.00 92.65 44.00 92.65 44.00 92.65
C43.81 92.65 43.66 92.56 43.53 92.37
C43.39 92.15 43.30 91.82 43.24 91.38
L43.22 91.23
L43.07 91.26
L42.50 91.38
L42.37 91.40
L42.38 91.52
C42.42 92.16 42.59 92.68 42.89 93.06
C43.19 93.46 43.57 93.66 44.01 93.66
C44.49 93.66 44.90 93.43 45.23 92.98
C45.56 92.54 45.72 91.98 45.72 91.29
C45.72 90.97 45.68 90.68 45.61 90.41
C45.53 90.15 45.42 89.93 45.28 89.77
C45.20 89.66 45.09 89.57 44.97 89.50
L44.97 89.50
C45.11 89.37 45.23 89.20 45.31 89.01
C45.43 88.74 45.50 88.43 45.50 88.09
C45.49 87.53 45.35 87.06 45.07 86.68
C44.78 86.30 44.42 86.10 43.99 86.10
Z
" fill="white" fill-rule="nonzero" />
<path d="
M40.68 98.21
C40.58 98.52 40.41 98.84 40.17 99.17
C39.92 99.50 39.65 99.77 39.33 100.00
L39.33 100.84
C39.52 100.74 39.72 100.59 39.94 100.39
C40.17 100.18 40.34 99.98 40.48 99.79
L40.48 105.36
L41.05 105.36
L41.05 98.21
Z
M44.09 98.21
C43.65 98.21 43.30 98.38 43.03 98.73
C42.76 99.07 42.60 99.59 42.56 100.27
L43.15 100.36
C43.15 99.90 43.24 99.55 43.41 99.30
C43.58 99.06 43.80 98.94 44.07 98.94
C44.32 98.94 44.52 99.05 44.69 99.28
C44.86 99.51 44.95 99.80 44.95 100.16
C44.95 100.48 44.87 100.82 44.70 101.18
C44.53 101.55 44.18 102.06 43.65 102.73
C43.19 103.30 42.87 103.80 42.70 104.22
C42.53 104.64 42.45 105.02 42.45 105.36
L45.54 105.36
L45.54 104.52
L43.25 104.52
C43.31 104.36 43.39 104.20 43.49 104.05
C43.59 103.89 43.81 103.59 44.16 103.15
C44.69 102.46 45.06 101.90 45.25 101.49
C45.44 101.07 45.54 100.64 45.54 100.18
C45.54 99.67 45.41 99.22 45.17 98.81
C44.92 98.41 44.56 98.21 44.09 98.21
Z
" fill="black" fill-rule="nonzero" />
<path d="
M42.16 181.39
C41.68 181.39 41.26 181.56 40.92 181.89
C40.59 182.22 40.37 182.70 40.28 183.33
L40.26 183.46
L40.39 183.49
L41.09 183.65
L41.24 183.68
L41.26 183.53
C41.31 183.13 41.42 182.84 41.59 182.65
C41.74 182.47 41.94 182.38 42.17 182.38
C42.17 182.38 42.17 182.38 42.17 182.38
C42.17 182.38 42.17 182.38 42.17 182.38
C42.39 182.38 42.58 182.47 42.73 182.64
C42.89 182.81 42.97 183.04 42.97 183.34
C42.97 183.65 42.87 183.91 42.68 184.09
C42.49 184.28 42.25 184.37 41.94 184.37
L41.94 184.37
L41.84 184.37
L41.70 184.35
L41.68 184.49
L41.60 185.25
L41.58 185.47
L41.58 185.47
L41.78 185.40
C41.97 185.34 42.12 185.31 42.24 185.31
C42.24 185.31 42.24 185.31 42.24 185.31
C42.24 185.31 42.24 185.31 42.24 185.31
C42.52 185.31 42.75 185.42 42.94 185.64
C43.13 185.86 43.23 186.16 43.23 186.53
C43.23 186.93 43.12 187.26 42.91 187.50
C42.70 187.74 42.46 187.86 42.18 187.86
C42.18 187.86 42.17 187.86 42.17 187.86
C42.17 187.86 42.17 187.86 42.17 187.86
C41.92 187.86 41.71 187.77 41.56 187.57
C41.38 187.36 41.26 187.04 41.19 186.60
L41.17 186.46
L41.03 186.48
L40.32 186.60
L40.19 186.62
L40.20 186.75
C40.25 187.39 40.46 187.90 40.83 188.28
C41.20 188.67 41.65 188.86 42.18 188.86
C42.76 188.86 43.25 188.64 43.65 188.20
C44.06 187.76 44.26 187.20 44.26 186.52
C44.26 186.20 44.21 185.90 44.12 185.64
C44.02 185.38 43.88 185.16 43.72 185.00
C43.61 184.90 43.49 184.81 43.35 184.75
L43.35 184.75
C43.52 184.62 43.65 184.46 43.75 184.27
C43.90 184.01 43.98 183.70 43.98 183.35
C43.98 182.79 43.80 182.32 43.45 181.95
C43.10 181.58 42.67 181.39 42.16 181.39
Z
" fill="white" fill-rule="nonzero" />
<path d="
M54.14 63.33
C54.14 63.33 54.15 63.33 54.15 63.33
C54.15 63.33 54.15 63.33 54.15 63.33
C54.39 63.33 54.61 63.46 54.81 63.71
C55.01 63.97 55.11 64.34 55.11 64.81
C55.11 65.28 55.01 65.64 54.82 65.89
C54.63 66.13 54.40 66.25 54.13 66.25
C54.13 66.25 54.13 66.25 54.13 66.25
C54.13 66.25 54.13 66.25 54.13 66.25
C53.86 66.25 53.62 66.13 53.42 65.89
C53.22 65.65 53.12 65.31 53.12 64.88
C53.12 64.40 53.23 64.02 53.44 63.74
C53.65 63.47 53.89 63.33 54.14 63.33
Z
M54.06 62.34
C53.52 62.34 53.05 62.57 52.67 63.02
C52.29 63.47 52.10 64.08 52.10 64.85
C52.10 65.60 52.29 66.19 52.65 66.63
C53.02 67.08 53.46 67.30 53.97 67.30
C54.26 67.30 54.54 67.21 54.82 67.03
C54.95 66.93 55.07 66.83 55.18 66.70
L55.18 66.70
C55.16 67.12 55.10 67.48 55.00 67.81
C54.87 68.19 54.72 68.46 54.55 68.60
C54.38 68.74 54.20 68.81 53.99 68.81
C53.99 68.81 53.99 68.81 53.99 68.81
C53.99 68.81 53.99 68.81 53.99 68.81
C53.77 68.81 53.59 68.73 53.46 68.58
C53.32 68.42 53.22 68.16 53.17 67.82
L53.15 67.68
L53.02 67.70
L52.34 67.78
L52.20 67.79
L52.21 67.93
C52.27 68.53 52.46 68.99 52.78 69.31
C53.10 69.64 53.50 69.80 53.98 69.80
C54.40 69.80 54.78 69.67 55.11 69.40
C55.45 69.14 55.71 68.73 55.90 68.17
C56.09 67.62 56.18 66.85 56.18 65.87
C56.18 64.99 56.10 64.31 55.92 63.83
C55.74 63.34 55.49 62.97 55.15 62.72
C54.82 62.46 54.45 62.34 54.06 62.34
Z
" fill="white" fill-rule="nonzero" />
<path d="
M52.48 74.26
L52.45 74.36
C52.35 74.65 52.19 74.96 51.96 75.27
C51.72 75.59 51.46 75.85 51.15 76.07
L51.09 76.12
L51.09 76.19
L51.09 77.03
L51.09 77.27
L51.30 77.16
C51.50 77.05 51.71 76.89 51.94 76.68
C52.05 76.58 52.15 76.48 52.24 76.39
L52.24 76.39
L52.24 81.55
L52.24 81.69
L53.10 81.69
L53.10 81.55
L53.10 74.40
L53.10 74.26
Z
M56.11 74.26
L56.08 74.36
C55.98 74.65 55.82 74.96 55.59 75.27
C55.35 75.59 55.09 75.85 54.78 76.07
L54.72 76.12
L54.72 76.19
L54.72 77.03
L54.72 77.27
L54.93 77.16
C55.13 77.05 55.34 76.89 55.57 76.68
C55.68 76.58 55.78 76.48 55.87 76.39
L55.87 76.39
L55.87 81.55
L55.87 81.69
L56.73 81.69
L56.73 81.55
L56.73 74.40
L56.73 74.26
Z
" fill="white" fill-rule="nonzero" />
<path d="
M52.48 86.16
L52.45 86.26
C52.35 86.56 52.19 86.86 51.96 87.18
C51.72 87.49 51.46 87.76 51.15 87.98
L51.09 88.02
L51.09 88.09
L51.09 88.94
L51.09 89.18
L51.30 89.06
C51.50 88.95 51.71 88.79 51.94 88.58
C52.05 88.49 52.15 88.39 52.24 88.29
L52.24 88.29
L52.24 93.46
L52.24 93.60
L53.10 93.60
L53.10 93.46
L53.10 86.31
L53.10 86.16
Z
M54.32 86.29
L54.32 86.43
L54.32 87.27
L54.32 87.41
L56.51 87.41
C56.26 87.88 56.02 88.43 55.80 89.06
C55.55 89.78 55.35 90.55 55.21 91.35
C55.06 92.15 54.98 92.85 54.98 93.46
L54.97 93.60
L55.71 93.60
L55.84 93.60
L55.85 93.46
C55.90 92.32 56.10 91.17 56.43 90.01
C56.77 88.84 57.16 87.90 57.61 87.18
L57.63 87.15
L57.63 87.11
L57.63 86.43
L57.63 86.29
Z
" fill="white" fill-rule="nonzero" />
<path d="
M67.28 195.91
L67.28 195.91
L67.28 195.91
C67.28 195.91 67.28 195.91 67.28 195.91
Z
M64.39 193.25
L64.35 193.35
C64.26 193.65 64.10 193.95 63.86 194.27
C63.63 194.58 63.36 194.85 63.06 195.07
L63.00 195.11
L63.00 195.18
L63.00 196.03
L63.00 196.27
L63.21 196.15
C63.41 196.04 63.62 195.88 63.85 195.67
C63.96 195.57 64.06 195.48 64.15 195.38
L64.15 195.38
L64.15 200.55
L64.15 200.69
L65.00 200.69
L65.00 200.55
L65.00 193.39
L65.00 193.25
Z
M66.76 193.38
L66.75 193.50
L66.29 197.16
L66.28 197.29
L66.40 197.32
L66.94 197.43
L67.06 197.45
L67.10 197.34
C67.18 197.15 67.29 197.00 67.42 196.89
C67.55 196.79 67.68 196.74 67.82 196.74
C67.82 196.74 67.82 196.74 67.82 196.74
C67.82 196.74 67.82 196.74 67.82 196.74
C68.06 196.74 68.26 196.86 68.42 197.10
C68.59 197.35 68.68 197.72 68.68 198.20
C68.68 198.71 68.59 199.11 68.41 199.40
C68.24 199.67 68.05 199.81 67.83 199.81
C67.83 199.81 67.82 199.81 67.82 199.81
C67.82 199.81 67.82 199.81 67.82 199.81
C67.65 199.81 67.50 199.72 67.36 199.53
C67.21 199.33 67.12 199.02 67.07 198.59
L67.06 198.44
L66.92 198.46
L66.31 198.54
L66.18 198.56
L66.19 198.69
C66.23 199.34 66.40 199.85 66.70 200.23
C67.00 200.61 67.38 200.81 67.83 200.81
C68.37 200.81 68.80 200.54 69.12 199.99
C69.42 199.47 69.57 198.85 69.57 198.13
C69.57 197.40 69.42 196.81 69.11 196.37
C68.79 195.91 68.42 195.68 67.98 195.68
C67.73 195.68 67.50 195.76 67.28 195.91
L67.28 195.91
L67.47 194.50
L69.35 194.50
L69.35 194.36
L69.35 193.52
L69.35 193.38
Z
" fill="white" fill-rule="nonzero" />
<path d="
M79.74 27.44
C80.02 27.44 80.25 27.64 80.43 28.03
C80.60 28.42 80.69 29.20 80.69 30.36
C80.69 31.50 80.60 32.28 80.43 32.67
C80.25 33.07 80.03 33.27 79.77 33.27
C79.49 33.27 79.27 33.07 79.09 32.68
C78.91 32.29 78.82 31.51 78.82 30.36
C78.82 29.21 78.91 28.44 79.09 28.04
C79.26 27.64 79.48 27.44 79.74 27.44
Z
M76.39 26.72
C76.30 27.03 76.13 27.35 75.88 27.67
C75.64 28.00 75.36 28.28 75.05 28.51
L75.05 29.35
C75.23 29.25 75.44 29.09 75.66 28.89
C75.88 28.69 76.06 28.49 76.19 28.30
L76.19 33.87
L76.77 33.87
L76.77 26.72
Z
M79.76 26.72
C79.26 26.72 78.88 27.03 78.62 27.64
C78.37 28.26 78.24 29.16 78.24 30.36
C78.24 31.69 78.38 32.63 78.66 33.17
C78.95 33.72 79.31 33.99 79.76 33.99
C80.26 33.99 80.64 33.68 80.90 33.07
C81.16 32.45 81.28 31.55 81.28 30.36
C81.28 29.03 81.13 28.07 80.82 27.47
C80.56 26.97 80.21 26.72 79.76 26.72
Z
" fill="black" fill-rule="nonzero" />
<path d="
M101.94 26.69
L101.94 26.84
L101.94 27.68
L101.94 27.82
L104.13 27.82
C103.88 28.29 103.65 28.84 103.43 29.47
C103.17 30.19 102.97 30.96 102.83 31.76
C102.68 32.56 102.61 33.26 102.60 33.86
L102.60 34.01
L103.33 34.01
L103.47 34.01
L103.47 33.87
C103.52 32.73 103.72 31.58 104.06 30.42
C104.40 29.25 104.79 28.31 105.23 27.59
L105.25 27.56
L105.25 27.52
L105.25 26.84
L105.25 26.69
Z
M99.89 26.57
C99.49 26.57 99.14 26.75 98.86 27.09
C98.59 27.42 98.41 27.91 98.34 28.54
L98.32 28.67
L98.44 28.70
L99.01 28.85
L99.18 28.90
L99.19 28.73
C99.23 28.32 99.32 28.03 99.46 27.83
C99.58 27.66 99.72 27.58 99.89 27.58
C99.90 27.58 99.90 27.58 99.90 27.58
C99.90 27.58 99.90 27.58 99.90 27.58
C100.07 27.58 100.21 27.66 100.32 27.82
C100.45 28.00 100.52 28.24 100.52 28.54
C100.52 28.87 100.44 29.13 100.29 29.32
C100.14 29.50 99.95 29.59 99.72 29.60
L99.72 29.60
L99.63 29.59
L99.49 29.57
L99.48 29.72
L99.41 30.48
L99.39 30.71
L99.61 30.63
C99.75 30.57 99.87 30.54 99.96 30.54
C99.96 30.54 99.96 30.54 99.96 30.54
C99.96 30.54 99.96 30.54 99.96 30.54
C100.17 30.54 100.34 30.65 100.49 30.86
C100.65 31.09 100.73 31.39 100.73 31.78
C100.73 32.19 100.64 32.52 100.47 32.77
C100.30 33.01 100.12 33.13 99.91 33.13
C99.90 33.13 99.90 33.13 99.90 33.13
C99.90 33.13 99.90 33.13 99.90 33.13
C99.71 33.13 99.55 33.03 99.43 32.84
C99.29 32.63 99.19 32.30 99.14 31.85
L99.12 31.70
L98.97 31.73
L98.39 31.85
L98.27 31.87
L98.28 32.00
C98.32 32.64 98.49 33.15 98.78 33.53
C99.09 33.93 99.46 34.13 99.91 34.13
C100.39 34.13 100.79 33.91 101.13 33.45
C101.46 33.01 101.62 32.45 101.62 31.76
C101.62 31.44 101.58 31.15 101.50 30.89
C101.42 30.62 101.32 30.40 101.18 30.24
C101.09 30.13 100.99 30.04 100.87 29.97
L100.87 29.97
C101.01 29.84 101.12 29.67 101.21 29.48
C101.33 29.21 101.39 28.91 101.39 28.56
C101.39 28.00 101.25 27.53 100.97 27.15
C100.67 26.77 100.32 26.57 99.89 26.57
Z
" fill="white" fill-rule="nonzero" />
<path d="
M151.35 98.01
L151.32 98.11
C151.23 98.40 151.07 98.71 150.83 99.02
C150.60 99.34 150.33 99.60 150.03 99.82
L149.97 99.86
L149.97 99.94
L149.97 100.78
L149.97 101.02
L150.18 100.91
C150.37 100.80 150.59 100.64 150.82 100.43
C150.93 100.33 151.03 100.23 151.11 100.13
L151.11 100.13
L151.11 105.30
L151.11 105.44
L151.97 105.44
L151.97 105.30
L151.97 98.15
L151.97 98.01
Z
M147.51 98.01
C147.11 98.01 146.76 98.18 146.48 98.53
C146.21 98.86 146.04 99.34 145.96 99.98
L145.95 100.10
L146.06 100.13
L146.64 100.29
L146.80 100.33
L146.81 100.16
C146.85 99.76 146.94 99.46 147.08 99.27
C147.20 99.10 147.35 99.01 147.52 99.01
C147.52 99.01 147.52 99.01 147.52 99.01
C147.52 99.01 147.52 99.01 147.52 99.01
C147.69 99.01 147.83 99.09 147.95 99.25
C148.08 99.43 148.14 99.67 148.14 99.97
C148.14 100.30 148.06 100.56 147.91 100.76
C147.76 100.94 147.57 101.03 147.34 101.03
L147.34 101.03
L147.26 101.02
L147.11 101.00
L147.10 101.15
L147.03 101.92
L147.01 102.15
L147.23 102.06
C147.37 102.00 147.49 101.97 147.58 101.97
C147.58 101.97 147.58 101.97 147.58 101.97
C147.58 101.97 147.58 101.97 147.58 101.97
C147.79 101.97 147.97 102.08 148.11 102.29
C148.27 102.52 148.35 102.83 148.35 103.21
C148.35 103.62 148.26 103.95 148.09 104.21
C147.93 104.44 147.74 104.56 147.53 104.56
C147.53 104.56 147.53 104.56 147.52 104.56
C147.52 104.56 147.52 104.56 147.52 104.56
C147.33 104.56 147.17 104.47 147.05 104.28
C146.91 104.06 146.82 103.73 146.76 103.28
L146.74 103.13
L146.59 103.16
L146.02 103.28
L145.89 103.31
L145.90 103.43
C145.94 104.07 146.11 104.58 146.41 104.97
C146.71 105.37 147.09 105.57 147.53 105.57
C148.01 105.57 148.42 105.34 148.75 104.89
C149.08 104.44 149.24 103.88 149.24 103.20
C149.24 102.87 149.20 102.58 149.13 102.32
C149.04 102.05 148.94 101.84 148.80 101.67
C148.72 101.56 148.61 101.48 148.49 101.41
L148.49 101.41
C148.63 101.27 148.75 101.11 148.83 100.91
C148.95 100.64 149.01 100.34 149.01 99.99
C149.01 99.43 148.87 98.96 148.59 98.59
C148.30 98.20 147.94 98.01 147.51 98.01
Z
" fill="white" fill-rule="nonzero" />
<path d="
M151.24 110.05
C150.80 110.05 150.44 110.23 150.18 110.57
C149.91 110.92 149.75 111.43 149.71 112.11
L150.30 112.21
C150.30 111.75 150.39 111.39 150.56 111.15
C150.73 110.90 150.95 110.78 151.22 110.78
C151.47 110.78 151.67 110.89 151.84 111.12
C152.01 111.35 152.10 111.64 152.10 112.01
C152.10 112.32 152.02 112.66 151.85 113.02
C151.68 113.39 151.33 113.90 150.80 114.57
C150.34 115.15 150.02 115.64 149.85 116.06
C149.68 116.48 149.60 116.87 149.60 117.21
L152.69 117.21
L152.69 116.36
L150.40 116.36
C150.46 116.21 150.54 116.05 150.64 115.89
C150.74 115.73 150.96 115.43 151.31 114.99
C151.84 114.30 152.21 113.75 152.40 113.33
C152.59 112.91 152.69 112.48 152.69 112.03
C152.69 111.51 152.56 111.06 152.32 110.66
C152.07 110.25 151.71 110.05 151.24 110.05
Z
M147.51 110.05
C147.15 110.05 146.85 110.21 146.59 110.52
C146.34 110.83 146.17 111.29 146.10 111.90
L146.67 112.06
C146.71 111.62 146.81 111.30 146.96 111.09
C147.11 110.88 147.30 110.77 147.52 110.77
C147.73 110.77 147.91 110.87 148.06 111.08
C148.21 111.28 148.28 111.55 148.28 111.88
C148.28 112.24 148.19 112.53 148.02 112.75
C147.84 112.97 147.61 113.08 147.33 113.08
L147.24 113.07
L147.17 113.83
C147.34 113.77 147.47 113.74 147.58 113.74
C147.84 113.74 148.05 113.86 148.23 114.12
C148.40 114.37 148.49 114.70 148.49 115.12
C148.49 115.56 148.40 115.92 148.20 116.19
C148.01 116.47 147.79 116.61 147.52 116.61
C147.04 116.61 146.74 116.14 146.62 115.21
L146.04 115.33
C146.08 115.94 146.24 116.42 146.52 116.79
C146.79 117.15 147.13 117.33 147.53 117.33
C147.96 117.33 148.33 117.12 148.64 116.71
C148.95 116.29 149.10 115.76 149.10 115.10
C149.10 114.79 149.06 114.52 148.99 114.27
C148.91 114.02 148.82 113.82 148.69 113.67
C148.57 113.52 148.42 113.41 148.23 113.35
C148.43 113.21 148.59 113.01 148.70 112.76
C148.82 112.51 148.87 112.22 148.87 111.90
C148.87 111.37 148.74 110.93 148.48 110.58
C148.21 110.23 147.89 110.05 147.51 110.05
Z
" fill="black" fill-rule="nonzero" />
<path d="
M147.61 193.31
C147.12 193.31 146.73 193.51 146.43 193.89
C146.15 194.25 145.98 194.79 145.94 195.51
L145.93 195.64
L146.06 195.66
L146.65 195.75
L146.81 195.77
L146.81 195.61
C146.81 195.18 146.89 194.85 147.05 194.63
C147.19 194.42 147.37 194.32 147.58 194.32
C147.58 194.32 147.59 194.32 147.59 194.32
C147.59 194.32 147.59 194.32 147.59 194.32
C147.79 194.32 147.96 194.42 148.10 194.61
C148.25 194.81 148.33 195.08 148.33 195.41
C148.33 195.70 148.25 196.02 148.09 196.37
C147.93 196.72 147.59 197.23 147.06 197.88
C146.59 198.47 146.27 198.98 146.09 199.41
C145.91 199.85 145.82 200.25 145.83 200.61
L145.83 200.75
L149.21 200.75
L149.21 200.61
L149.21 199.77
L149.21 199.62
L146.99 199.62
C147.03 199.54 147.08 199.45 147.13 199.37
C147.23 199.21 147.45 198.92 147.79 198.48
C148.33 197.78 148.70 197.22 148.90 196.79
C149.10 196.36 149.20 195.90 149.20 195.43
C149.20 194.89 149.07 194.41 148.81 193.98
C148.54 193.54 148.13 193.32 147.61 193.31
Z
M151.35 193.31
L151.32 193.41
C151.23 193.71 151.07 194.01 150.83 194.33
C150.60 194.64 150.33 194.91 150.03 195.13
L149.97 195.17
L149.97 195.24
L149.97 196.09
L149.97 196.33
L150.18 196.21
C150.37 196.10 150.59 195.94 150.82 195.73
C150.93 195.64 151.03 195.54 151.11 195.44
L151.11 195.44
L151.11 200.61
L151.11 200.75
L151.97 200.75
L151.97 200.61
L151.97 193.46
L151.97 193.31
Z
" fill="white" fill-rule="nonzero" />
<path d="
M159.64 64.57
L159.64 66.98
L158.54 66.98
L159.64 64.57
Z
M159.80 62.37
L159.76 62.45
L157.63 67.07
L157.62 67.09
L157.62 67.12
L157.62 67.93
L157.62 68.07
L159.64 68.07
L159.64 69.63
L159.64 69.77
L160.50 69.77
L160.50 69.63
L160.50 68.07
L161.13 68.07
L161.13 67.93
L161.13 67.12
L161.13 66.98
L160.50 66.98
L160.50 62.51
L160.50 62.37
Z
M161.47 62.46
L161.47 62.60
L161.47 63.44
L161.47 63.58
L163.66 63.58
C163.41 64.05 163.17 64.60 162.95 65.23
C162.70 65.96 162.50 66.72 162.35 67.52
C162.21 68.32 162.13 69.03 162.13 69.63
L162.12 69.77
L162.86 69.77
L162.99 69.77
L163.00 69.64
C163.05 68.50 163.25 67.34 163.58 66.18
C163.92 65.02 164.31 64.08 164.76 63.36
L164.78 63.32
L164.78 63.28
L164.78 62.60
L164.78 62.46
Z
" fill="white" fill-rule="nonzero" />
<path d="
M162.53 76.85
L162.53 76.85
L162.53 76.85
C162.53 76.85 162.53 76.85 162.53 76.85
Z
M159.64 76.41
L159.64 78.83
L158.54 78.83
L159.64 76.41
Z
M159.80 74.21
L159.76 74.29
L157.63 78.91
L157.62 78.94
L157.62 78.97
L157.62 79.77
L157.62 79.91
L159.64 79.91
L159.64 81.48
L159.64 81.62
L160.50 81.62
L160.50 81.48
L160.50 79.91
L161.13 79.91
L161.13 79.77
L161.13 78.97
L161.13 78.83
L160.50 78.83
L160.50 74.35
L160.50 74.21
Z
M162.01 74.31
L161.99 74.43
L161.54 78.09
L161.52 78.22
L161.65 78.25
L162.19 78.36
L162.30 78.38
L162.35 78.27
C162.43 78.08 162.53 77.93 162.66 77.82
C162.79 77.72 162.92 77.67 163.06 77.67
C163.06 77.67 163.06 77.67 163.06 77.67
C163.06 77.67 163.07 77.67 163.07 77.67
C163.30 77.67 163.50 77.79 163.66 78.03
C163.84 78.28 163.93 78.65 163.92 79.13
C163.92 79.64 163.83 80.05 163.65 80.33
C163.48 80.60 163.29 80.74 163.07 80.74
C163.07 80.74 163.07 80.74 163.07 80.74
C163.07 80.74 163.07 80.74 163.06 80.74
C162.90 80.74 162.74 80.65 162.61 80.46
C162.46 80.26 162.36 79.95 162.32 79.52
L162.30 79.37
L162.16 79.39
L161.56 79.47
L161.43 79.49
L161.43 79.62
C161.47 80.27 161.64 80.78 161.94 81.16
C162.25 81.55 162.63 81.74 163.08 81.74
C163.62 81.74 164.04 81.47 164.36 80.92
C164.66 80.40 164.81 79.78 164.81 79.06
C164.81 78.33 164.66 77.74 164.36 77.30
C164.04 76.84 163.66 76.61 163.22 76.61
C162.98 76.61 162.75 76.69 162.53 76.85
L162.53 76.85
L162.71 75.43
L164.59 75.43
L164.59 75.29
L164.59 74.45
L164.59 74.31
Z
" fill="white" fill-rule="nonzero" />
<path d="
M163.14 184.79
C163.39 184.79 163.61 184.93 163.78 185.21
C163.96 185.49 164.05 185.88 164.05 186.39
C164.05 186.90 163.96 187.31 163.78 187.60
C163.60 187.90 163.40 188.04 163.18 188.04
C162.92 188.04 162.69 187.89 162.50 187.57
C162.31 187.26 162.21 186.85 162.21 186.33
C162.21 185.86 162.30 185.49 162.49 185.21
C162.67 184.93 162.89 184.79 163.14 184.79
Z
M159.51 181.49
C159.07 181.49 158.72 181.66 158.45 182.01
C158.18 182.35 158.03 182.87 157.99 183.55
L158.58 183.64
C158.58 183.18 158.66 182.83 158.84 182.58
C159.01 182.34 159.23 182.21 159.49 182.21
C159.74 182.21 159.95 182.33 160.12 182.56
C160.29 182.78 160.37 183.08 160.37 183.44
C160.37 183.76 160.29 184.10 160.13 184.46
C159.96 184.82 159.61 185.34 159.07 186.01
C158.61 186.58 158.30 187.08 158.13 187.50
C157.95 187.92 157.87 188.30 157.88 188.64
L160.97 188.64
L160.97 187.80
L158.68 187.80
C158.74 187.64 158.82 187.48 158.92 187.32
C159.02 187.17 159.24 186.87 159.58 186.43
C160.12 185.74 160.48 185.18 160.67 184.77
C160.87 184.35 160.96 183.92 160.96 183.46
C160.96 182.95 160.84 182.49 160.59 182.09
C160.35 181.69 159.99 181.49 159.51 181.49
Z
M163.22 181.49
C162.73 181.49 162.33 181.78 162.02 182.37
C161.70 182.95 161.55 183.93 161.55 185.31
C161.55 186.55 161.70 187.43 162.01 187.97
C162.31 188.50 162.70 188.76 163.17 188.76
C163.43 188.76 163.67 188.67 163.89 188.49
C164.11 188.30 164.29 188.01 164.43 187.63
C164.56 187.24 164.63 186.81 164.63 186.33
C164.63 185.63 164.50 185.07 164.22 184.65
C163.94 184.23 163.62 184.02 163.25 184.02
C163.03 184.02 162.82 184.10 162.62 184.26
C162.42 184.42 162.25 184.66 162.12 184.97
C162.12 184.09 162.21 183.43 162.38 182.99
C162.59 182.47 162.85 182.21 163.19 182.21
C163.40 182.21 163.59 182.32 163.74 182.55
C163.85 182.70 163.93 182.96 163.98 183.33
L164.55 183.26
C164.50 182.69 164.35 182.25 164.12 181.94
C163.88 181.64 163.58 181.49 163.22 181.49
Z
" fill="black" fill-rule="nonzero" />
<path d="
M171.55 64.58
L171.55 67.00
L170.45 67.00
L171.55 64.58
Z
M171.71 62.38
L171.67 62.46
L169.54 67.08
L169.52 67.11
L169.52 67.14
L169.52 67.94
L169.52 68.08
L171.55 68.08
L171.55 69.65
L171.55 69.79
L172.41 69.79
L172.41 69.65
L172.41 68.08
L173.04 68.08
L173.04 67.94
L173.04 67.14
L173.04 67.00
L172.41 67.00
L172.41 62.52
L172.41 62.38
Z
M175.16 62.35
L175.13 62.45
C175.04 62.75 174.88 63.05 174.64 63.37
C174.41 63.68 174.14 63.95 173.84 64.17
L173.78 64.21
L173.78 64.28
L173.78 65.13
L173.78 65.37
L173.99 65.25
C174.18 65.14 174.40 64.98 174.63 64.77
C174.74 64.68 174.84 64.58 174.92 64.48
L174.92 64.48
L174.92 69.65
L174.92 69.79
L175.78 69.79
L175.78 69.65
L175.78 62.49
L175.78 62.35
Z
" fill="white" fill-rule="nonzero" />
<path d="
M171.69 75.82
L171.69 79.03
L170.23 79.03
L171.69 75.82
Z
M175.32 75.82
L175.32 79.03
L173.86 79.03
L175.32 75.82
Z
M171.80 74.41
L169.66 79.03
L169.66 79.83
L171.69 79.83
L171.69 81.54
L172.26 81.54
L172.26 79.83
L172.90 79.83
L172.90 79.03
L172.26 79.03
L172.26 74.41
Z
M175.43 74.41
L173.29 79.03
L173.29 79.83
L175.32 79.83
L175.32 81.54
L175.89 81.54
L175.89 79.83
L176.53 79.83
L176.53 79.03
L175.89 79.03
L175.89 74.41
Z
" fill="black" fill-rule="nonzero" />
<path d="
M171.42 86.10
C170.93 86.10 170.54 86.29 170.25 86.67
C169.96 87.04 169.80 87.58 169.75 88.29
L169.74 88.42
L169.87 88.44
L170.46 88.54
L170.63 88.56
L170.63 88.40
C170.63 87.96 170.70 87.64 170.86 87.42
C171.00 87.21 171.18 87.11 171.39 87.11
C171.39 87.11 171.40 87.11 171.40 87.11
C171.40 87.11 171.40 87.11 171.40 87.11
C171.60 87.11 171.77 87.20 171.91 87.39
C172.06 87.60 172.14 87.86 172.14 88.20
C172.14 88.49 172.06 88.81 171.90 89.16
C171.74 89.51 171.40 90.01 170.87 90.67
C170.40 91.26 170.08 91.77 169.90 92.20
C169.72 92.64 169.63 93.04 169.64 93.40
L169.65 93.54
L173.02 93.54
L173.02 93.39
L173.02 92.55
L173.02 92.41
L170.80 92.41
C170.84 92.33 170.89 92.24 170.94 92.15
C171.04 92.00 171.26 91.70 171.60 91.27
C172.14 90.57 172.51 90.01 172.71 89.58
C172.91 89.14 173.01 88.69 173.01 88.22
C173.01 87.68 172.88 87.20 172.62 86.77
C172.35 86.33 171.95 86.10 171.42 86.10
Z
M174.95 86.10
C174.55 86.10 174.21 86.27 173.92 86.62
C173.65 86.95 173.48 87.44 173.40 88.07
L173.39 88.19
L173.51 88.23
L174.08 88.38
L174.24 88.43
L174.26 88.26
C174.29 87.85 174.38 87.55 174.52 87.36
C174.64 87.19 174.79 87.10 174.96 87.10
C174.96 87.10 174.96 87.10 174.96 87.10
C174.96 87.10 174.96 87.10 174.96 87.10
C175.13 87.10 175.27 87.19 175.39 87.35
C175.52 87.53 175.58 87.77 175.58 88.07
C175.58 88.40 175.50 88.66 175.35 88.85
C175.20 89.03 175.01 89.12 174.78 89.12
L174.78 89.12
L174.70 89.11
L174.55 89.10
L174.54 89.24
L174.47 90.01
L174.45 90.24
L174.67 90.15
C174.81 90.10 174.93 90.07 175.02 90.07
C175.02 90.07 175.02 90.07 175.02 90.07
C175.02 90.07 175.02 90.07 175.02 90.07
C175.23 90.07 175.41 90.17 175.55 90.39
C175.71 90.61 175.79 90.92 175.79 91.31
C175.79 91.72 175.70 92.05 175.53 92.30
C175.37 92.54 175.18 92.65 174.97 92.65
C174.97 92.65 174.97 92.65 174.97 92.65
C174.96 92.65 174.96 92.65 174.96 92.65
C174.77 92.65 174.62 92.56 174.49 92.37
C174.36 92.15 174.26 91.82 174.20 91.38
L174.18 91.23
L174.03 91.26
L173.46 91.38
L173.34 91.40
L173.34 91.52
C173.38 92.16 173.55 92.68 173.85 93.06
C174.15 93.46 174.53 93.66 174.97 93.66
C175.45 93.66 175.86 93.43 176.19 92.98
C176.52 92.54 176.68 91.98 176.69 91.29
C176.69 90.97 176.65 90.68 176.57 90.41
C176.49 90.15 176.38 89.93 176.24 89.77
C176.16 89.66 176.05 89.57 175.94 89.50
L175.94 89.50
C176.07 89.37 176.19 89.20 176.27 89.01
C176.40 88.74 176.46 88.43 176.46 88.09
C176.46 87.53 176.31 87.06 176.03 86.68
C175.74 86.30 175.38 86.10 174.95 86.10
Z
" fill="white" fill-rule="nonzero" />
<path d="
M174.98 110.78
C175.26 110.78 175.49 110.97 175.67 111.37
C175.85 111.76 175.94 112.53 175.94 113.69
C175.94 114.84 175.85 115.61 175.67 116.01
C175.50 116.41 175.28 116.61 175.02 116.61
C174.74 116.61 174.51 116.41 174.33 116.02
C174.16 115.62 174.07 114.85 174.07 113.69
C174.07 112.55 174.15 111.77 174.33 111.38
C174.50 110.98 174.72 110.78 174.98 110.78
Z
M175.01 110.05
C174.51 110.05 174.13 110.36 173.87 110.98
C173.61 111.59 173.48 112.50 173.48 113.69
C173.48 115.03 173.62 115.97 173.91 116.51
C174.19 117.05 174.55 117.33 175.00 117.33
C175.51 117.33 175.89 117.02 176.14 116.40
C176.40 115.78 176.53 114.88 176.53 113.69
C176.53 112.37 176.37 111.40 176.06 110.80
C175.80 110.30 175.45 110.05 175.01 110.05
Z
M171.32 110.05
C170.96 110.05 170.66 110.21 170.40 110.52
C170.15 110.83 169.99 111.29 169.91 111.90
L170.48 112.06
C170.53 111.62 170.62 111.30 170.77 111.09
C170.93 110.88 171.11 110.77 171.33 110.77
C171.54 110.77 171.72 110.87 171.87 111.08
C172.02 111.28 172.09 111.55 172.09 111.88
C172.09 112.24 172.01 112.53 171.83 112.75
C171.65 112.97 171.42 113.08 171.14 113.08
L171.05 113.07
L170.99 113.83
C171.15 113.77 171.28 113.74 171.39 113.74
C171.65 113.74 171.86 113.86 172.04 114.12
C172.22 114.37 172.30 114.70 172.30 115.12
C172.30 115.56 172.21 115.92 172.02 116.19
C171.82 116.47 171.60 116.61 171.34 116.61
C170.85 116.61 170.55 116.14 170.43 115.21
L169.85 115.33
C169.89 115.94 170.05 116.42 170.33 116.79
C170.61 117.15 170.94 117.33 171.34 117.33
C171.77 117.33 172.14 117.12 172.45 116.71
C172.76 116.29 172.91 115.76 172.91 115.10
C172.91 114.79 172.88 114.52 172.80 114.27
C172.73 114.02 172.63 113.82 172.51 113.67
C172.38 113.52 172.23 113.41 172.04 113.35
C172.24 113.21 172.40 113.01 172.51 112.76
C172.63 112.51 172.68 112.22 172.68 111.90
C172.68 111.37 172.55 110.93 172.29 110.58
C172.02 110.23 171.70 110.05 171.32 110.05
Z
" fill="black" fill-rule="nonzero" />
<path d="
M175.02 146.64
C175.02 146.64 175.02 146.64 175.02 146.64
C175.02 146.64 175.02 146.64 175.02 146.64
C175.21 146.64 175.37 146.76 175.53 147.01
C175.69 147.28 175.78 147.65 175.78 148.13
C175.78 148.62 175.70 148.99 175.53 149.24
C175.39 149.48 175.21 149.60 175.01 149.60
C175.01 149.60 175.01 149.60 175.01 149.60
C175.01 149.60 175.01 149.60 175.00 149.60
C174.80 149.60 174.62 149.48 174.47 149.24
C174.30 148.99 174.21 148.64 174.21 148.21
C174.21 147.72 174.30 147.33 174.48 147.04
C174.64 146.77 174.82 146.64 175.02 146.64
Z
M171.42 145.63
C170.93 145.63 170.54 145.82 170.25 146.20
C169.96 146.57 169.80 147.11 169.75 147.82
L169.74 147.95
L169.87 147.97
L170.46 148.07
L170.63 148.09
L170.63 147.93
C170.63 147.49 170.70 147.17 170.86 146.95
C171.00 146.74 171.18 146.64 171.39 146.64
C171.39 146.64 171.40 146.64 171.40 146.64
C171.40 146.64 171.40 146.64 171.40 146.64
C171.60 146.64 171.77 146.73 171.91 146.92
C172.06 147.13 172.14 147.39 172.14 147.73
C172.14 148.02 172.06 148.34 171.90 148.69
C171.74 149.04 171.40 149.54 170.87 150.20
C170.40 150.79 170.08 151.30 169.90 151.73
C169.72 152.17 169.63 152.57 169.64 152.93
L169.65 153.07
L173.02 153.07
L173.02 152.92
L173.02 152.08
L173.02 151.94
L170.80 151.94
C170.84 151.86 170.89 151.77 170.94 151.68
C171.04 151.53 171.26 151.23 171.60 150.80
C172.14 150.10 172.51 149.54 172.71 149.11
C172.91 148.67 173.01 148.22 173.01 147.75
C173.01 147.21 172.88 146.73 172.62 146.30
C172.35 145.86 171.95 145.63 171.42 145.63
Z
M174.95 145.63
C174.49 145.63 174.11 145.87 173.79 146.34
C173.49 146.79 173.34 147.40 173.34 148.18
C173.34 148.93 173.48 149.52 173.78 149.96
C174.08 150.42 174.45 150.65 174.88 150.65
C175.12 150.65 175.36 150.56 175.59 150.37
C175.68 150.29 175.76 150.21 175.83 150.12
L175.83 150.12
C175.81 150.51 175.76 150.86 175.68 151.17
C175.58 151.57 175.46 151.84 175.32 151.98
C175.19 152.12 175.05 152.18 174.90 152.18
C174.90 152.18 174.90 152.18 174.90 152.18
C174.89 152.18 174.89 152.18 174.89 152.18
C174.73 152.18 174.60 152.11 174.50 151.96
C174.38 151.80 174.30 151.54 174.26 151.18
L174.24 151.04
L174.10 151.06
L173.55 151.14
L173.41 151.16
L173.42 151.29
C173.47 151.89 173.63 152.35 173.88 152.68
C174.15 153.02 174.48 153.19 174.88 153.19
C175.24 153.19 175.55 153.05 175.83 152.77
C176.10 152.51 176.32 152.09 176.47 151.52
C176.62 150.97 176.70 150.20 176.70 149.21
C176.70 148.32 176.63 147.63 176.48 147.15
C176.34 146.66 176.13 146.29 175.86 146.03
C175.58 145.76 175.28 145.63 174.95 145.63
Z
" fill="white" fill-rule="nonzero" />
<path d="
M174.43 172.10
L174.43 172.10
L174.43 172.10
C174.43 172.10 174.43 172.10 174.43 172.10
Z
M171.42 169.44
C170.93 169.44 170.54 169.63 170.25 170.01
C169.96 170.38 169.80 170.92 169.75 171.64
L169.74 171.76
L169.87 171.78
L170.46 171.88
L170.63 171.90
L170.63 171.74
C170.63 171.31 170.70 170.98 170.86 170.76
C171.00 170.55 171.18 170.45 171.39 170.45
C171.39 170.45 171.40 170.45 171.40 170.45
C171.40 170.45 171.40 170.45 171.40 170.45
C171.60 170.45 171.77 170.54 171.91 170.73
C172.06 170.94 172.14 171.21 172.14 171.54
C172.14 171.83 172.06 172.15 171.90 172.50
C171.74 172.85 171.40 173.36 170.87 174.01
C170.40 174.60 170.08 175.11 169.90 175.54
C169.72 175.98 169.63 176.38 169.64 176.74
L169.65 176.88
L173.02 176.88
L173.02 176.74
L173.02 175.89
L173.02 175.75
L170.80 175.75
C170.84 175.67 170.89 175.58 170.94 175.49
C171.04 175.34 171.26 175.05 171.60 174.61
C172.14 173.91 172.51 173.35 172.71 172.92
C172.91 172.49 173.01 172.03 173.01 171.56
C173.01 171.02 172.88 170.54 172.62 170.11
C172.35 169.67 171.95 169.44 171.42 169.44
Z
M173.91 169.57
L173.90 169.69
L173.44 173.35
L173.42 173.48
L173.55 173.51
L174.09 173.61
L174.21 173.64
L174.25 173.53
C174.33 173.33 174.44 173.18 174.57 173.08
C174.70 172.98 174.83 172.93 174.97 172.93
C174.97 172.93 174.97 172.93 174.97 172.93
C174.97 172.93 174.97 172.93 174.97 172.93
C175.21 172.93 175.41 173.05 175.57 173.29
C175.74 173.54 175.83 173.91 175.83 174.39
C175.83 174.90 175.74 175.30 175.56 175.59
C175.39 175.86 175.20 176.00 174.98 176.00
C174.98 176.00 174.97 176.00 174.97 176.00
C174.97 176.00 174.97 176.00 174.97 176.00
C174.80 176.00 174.65 175.90 174.51 175.72
C174.36 175.52 174.27 175.21 174.22 174.78
L174.21 174.63
L174.06 174.65
L173.46 174.73
L173.33 174.75
L173.34 174.88
C173.38 175.53 173.55 176.04 173.85 176.42
C174.15 176.80 174.53 177.00 174.98 177.00
C175.52 177.00 175.95 176.72 176.27 176.18
C176.57 175.66 176.72 175.04 176.72 174.32
C176.72 173.58 176.57 173.00 176.26 172.56
C175.94 172.10 175.56 171.87 175.12 171.87
C174.88 171.87 174.65 171.95 174.43 172.10
L174.43 172.10
L174.62 170.69
L176.50 170.69
L176.50 170.55
L176.50 169.71
L176.50 169.57
Z
" fill="white" fill-rule="nonzero" />
<path d="
M171.42 181.55
C170.98 181.55 170.63 181.72 170.36 182.07
C170.09 182.41 169.93 182.93 169.89 183.61
L170.48 183.70
C170.48 183.24 170.57 182.89 170.74 182.64
C170.91 182.40 171.13 182.27 171.40 182.27
C171.65 182.27 171.86 182.39 172.03 182.62
C172.19 182.84 172.28 183.14 172.28 183.50
C172.28 183.82 172.20 184.16 172.03 184.52
C171.87 184.89 171.51 185.40 170.98 186.07
C170.52 186.64 170.20 187.14 170.03 187.56
C169.86 187.98 169.78 188.36 169.78 188.70
L172.87 188.70
L172.87 187.86
L170.58 187.86
C170.64 187.70 170.72 187.54 170.82 187.38
C170.92 187.23 171.14 186.93 171.49 186.49
C172.02 185.80 172.39 185.24 172.58 184.83
C172.77 184.41 172.87 183.98 172.87 183.52
C172.87 183.01 172.74 182.55 172.50 182.15
C172.25 181.75 171.89 181.55 171.42 181.55
Z
M175.05 181.55
C174.61 181.55 174.26 181.72 173.99 182.07
C173.72 182.41 173.56 182.93 173.52 183.61
L174.11 183.70
C174.11 183.24 174.20 182.89 174.37 182.64
C174.54 182.40 174.76 182.27 175.03 182.27
C175.28 182.27 175.49 182.39 175.66 182.62
C175.83 182.84 175.91 183.14 175.91 183.50
C175.91 183.82 175.83 184.16 175.66 184.52
C175.50 184.89 175.14 185.40 174.61 186.07
C174.15 186.64 173.83 187.14 173.66 187.56
C173.49 187.98 173.41 188.36 173.41 188.70
L176.50 188.70
L176.50 187.86
L174.21 187.86
C174.27 187.70 174.35 187.54 174.45 187.38
C174.55 187.23 174.77 186.93 175.12 186.49
C175.65 185.80 176.02 185.24 176.21 184.83
C176.40 184.41 176.50 183.98 176.50 183.52
C176.50 183.01 176.37 182.55 176.13 182.15
C175.88 181.75 175.52 181.55 175.05 181.55
Z
" fill="black" fill-rule="nonzero" />
<path d="
M183.23 26.57
C182.82 26.57 182.48 26.75 182.20 27.09
C181.93 27.42 181.75 27.91 181.68 28.54
L181.66 28.67
L181.78 28.70
L182.35 28.85
L182.51 28.90
L182.53 28.73
C182.57 28.32 182.66 28.03 182.79 27.83
C182.92 27.66 183.06 27.58 183.23 27.58
C183.23 27.58 183.24 27.58 183.24 27.58
C183.24 27.58 183.24 27.58 183.24 27.58
C183.40 27.58 183.54 27.66 183.66 27.82
C183.79 28.00 183.86 28.24 183.86 28.54
C183.86 28.87 183.78 29.13 183.62 29.32
C183.48 29.50 183.29 29.59 183.05 29.60
L183.05 29.60
L182.97 29.59
L182.83 29.57
L182.82 29.72
L182.75 30.48
L182.73 30.71
L182.94 30.63
C183.09 30.57 183.20 30.54 183.30 30.54
C183.30 30.54 183.30 30.54 183.30 30.54
C183.30 30.54 183.30 30.54 183.30 30.54
C183.51 30.54 183.68 30.65 183.83 30.86
C183.99 31.09 184.07 31.39 184.07 31.78
C184.07 32.19 183.98 32.52 183.80 32.77
C183.64 33.01 183.46 33.13 183.24 33.13
C183.24 33.13 183.24 33.13 183.24 33.13
C183.24 33.13 183.24 33.13 183.24 33.13
C183.05 33.13 182.89 33.03 182.77 32.84
C182.63 32.63 182.53 32.30 182.48 31.85
L182.46 31.70
L182.31 31.73
L181.73 31.85
L181.61 31.87
L181.62 32.00
C181.66 32.64 181.83 33.15 182.12 33.53
C182.43 33.93 182.80 34.13 183.25 34.13
C183.73 34.13 184.13 33.91 184.47 33.45
C184.80 33.01 184.96 32.45 184.96 31.76
C184.96 31.44 184.92 31.15 184.84 30.89
C184.76 30.62 184.65 30.40 184.52 30.24
C184.43 30.13 184.33 30.04 184.21 29.97
L184.21 29.97
C184.35 29.84 184.46 29.67 184.55 29.48
C184.67 29.21 184.73 28.91 184.73 28.56
C184.73 28.00 184.59 27.53 184.31 27.15
C184.01 26.77 183.65 26.57 183.23 26.57
Z
M186.86 26.57
C186.45 26.57 186.11 26.75 185.83 27.09
C185.56 27.42 185.38 27.91 185.31 28.54
L185.29 28.67
L185.41 28.70
L185.98 28.85
L186.14 28.90
L186.16 28.73
C186.20 28.32 186.29 28.03 186.42 27.83
C186.55 27.66 186.69 27.58 186.86 27.58
C186.86 27.58 186.87 27.58 186.87 27.58
C186.87 27.58 186.87 27.58 186.87 27.58
C187.03 27.58 187.17 27.66 187.29 27.82
C187.42 28.00 187.49 28.24 187.49 28.54
C187.49 28.87 187.41 29.13 187.25 29.32
C187.11 29.50 186.92 29.59 186.68 29.60
L186.68 29.60
L186.60 29.59
L186.46 29.57
L186.45 29.72
L186.38 30.48
L186.36 30.71
L186.57 30.63
C186.72 30.57 186.83 30.54 186.93 30.54
C186.93 30.54 186.93 30.54 186.93 30.54
C186.93 30.54 186.93 30.54 186.93 30.54
C187.14 30.54 187.31 30.65 187.46 30.86
C187.62 31.09 187.70 31.39 187.70 31.78
C187.70 32.19 187.61 32.52 187.43 32.77
C187.27 33.01 187.09 33.13 186.87 33.13
C186.87 33.13 186.87 33.13 186.87 33.13
C186.87 33.13 186.87 33.13 186.87 33.13
C186.68 33.13 186.52 33.03 186.40 32.84
C186.26 32.63 186.16 32.30 186.11 31.85
L186.09 31.70
L185.94 31.73
L185.36 31.85
L185.24 31.87
L185.25 32.00
C185.29 32.64 185.46 33.15 185.75 33.53
C186.06 33.93 186.43 34.13 186.88 34.13
C187.36 34.13 187.76 33.91 188.10 33.45
C188.43 33.01 188.59 32.45 188.59 31.76
C188.59 31.44 188.55 31.15 188.47 30.89
C188.39 30.62 188.28 30.40 188.15 30.24
C188.06 30.13 187.96 30.04 187.84 29.97
L187.84 29.97
C187.98 29.84 188.09 29.67 188.18 29.48
C188.30 29.21 188.36 28.91 188.36 28.56
C188.36 28.00 188.22 27.53 187.94 27.15
C187.64 26.77 187.28 26.57 186.86 26.57
Z
" fill="white" fill-rule="nonzero" />
<path d="
M185.32 38.59
L185.28 38.67
C185.17 38.97 184.97 39.27 184.68 39.58
C184.39 39.89 184.06 40.15 183.68 40.37
L183.61 40.41
L183.61 40.49
L183.61 41.33
L183.61 41.55
L183.81 41.46
C184.05 41.35 184.31 41.20 184.59 40.99
C184.75 40.87 184.90 40.75 185.02 40.64
L185.02 40.64
L185.02 45.79
L185.02 45.93
L186.02 45.93
L186.02 45.79
L186.02 38.73
L186.02 38.59
Z
" fill="white" fill-rule="nonzero" />
<path d="
M186.34 53.05
L186.34 53.05
L186.34 53.05
C186.34 53.05 186.34 53.05 186.34 53.05
Z
M185.82 50.51
L185.80 50.64
L185.35 54.29
L185.33 54.42
L185.46 54.45
L186.00 54.56
L186.11 54.58
L186.16 54.47
C186.24 54.28 186.34 54.13 186.48 54.02
C186.60 53.92 186.73 53.87 186.87 53.87
C186.87 53.87 186.87 53.87 186.87 53.87
C186.88 53.87 186.88 53.87 186.88 53.87
C187.12 53.87 187.31 53.99 187.47 54.23
C187.65 54.48 187.74 54.85 187.74 55.33
C187.74 55.84 187.64 56.25 187.46 56.54
C187.29 56.80 187.10 56.94 186.88 56.94
C186.88 56.94 186.88 56.94 186.88 56.94
C186.88 56.94 186.88 56.94 186.88 56.94
C186.71 56.94 186.55 56.85 186.42 56.66
C186.27 56.46 186.17 56.15 186.13 55.72
L186.11 55.58
L185.97 55.59
L185.37 55.67
L185.24 55.69
L185.24 55.82
C185.29 56.47 185.45 56.99 185.75 57.36
C186.06 57.75 186.44 57.94 186.89 57.94
C187.43 57.94 187.86 57.67 188.17 57.12
C188.47 56.61 188.63 55.99 188.63 55.26
C188.63 54.53 188.47 53.94 188.17 53.50
C187.85 53.04 187.47 52.81 187.03 52.81
C186.79 52.81 186.56 52.89 186.34 53.05
L186.34 53.05
L186.52 51.63
L188.40 51.63
L188.40 51.49
L188.40 50.65
L188.40 50.51
Z
M183.23 50.38
C182.82 50.39 182.48 50.56 182.20 50.90
C181.93 51.24 181.75 51.72 181.68 52.36
L181.66 52.48
L181.78 52.51
L182.35 52.66
L182.51 52.71
L182.53 52.54
C182.57 52.14 182.66 51.84 182.79 51.65
C182.92 51.47 183.06 51.39 183.23 51.39
C183.23 51.39 183.24 51.39 183.24 51.39
C183.24 51.39 183.24 51.39 183.24 51.39
C183.40 51.39 183.54 51.47 183.66 51.63
C183.79 51.81 183.86 52.05 183.86 52.35
C183.86 52.68 183.78 52.94 183.62 53.13
C183.48 53.31 183.29 53.41 183.05 53.41
L183.05 53.41
L182.97 53.40
L182.83 53.38
L182.82 53.53
L182.75 54.29
L182.73 54.52
L182.94 54.44
C183.09 54.38 183.20 54.35 183.30 54.35
C183.30 54.35 183.30 54.35 183.30 54.35
C183.30 54.35 183.30 54.35 183.30 54.35
C183.51 54.35 183.68 54.46 183.83 54.67
C183.99 54.90 184.07 55.20 184.07 55.59
C184.07 56.00 183.98 56.33 183.80 56.58
C183.64 56.82 183.46 56.94 183.24 56.94
C183.24 56.94 183.24 56.94 183.24 56.94
C183.24 56.94 183.24 56.94 183.24 56.94
C183.05 56.94 182.89 56.84 182.77 56.65
C182.63 56.44 182.53 56.11 182.48 55.66
L182.46 55.51
L182.31 55.54
L181.73 55.66
L181.61 55.68
L181.62 55.81
C181.66 56.45 181.83 56.96 182.12 57.35
C182.43 57.74 182.80 57.94 183.25 57.95
C183.73 57.94 184.13 57.72 184.47 57.26
C184.80 56.82 184.96 56.26 184.96 55.57
C184.96 55.25 184.92 54.96 184.84 54.70
C184.76 54.43 184.65 54.21 184.52 54.05
C184.43 53.94 184.33 53.85 184.21 53.79
L184.21 53.79
C184.35 53.65 184.46 53.48 184.55 53.29
C184.67 53.02 184.73 52.72 184.73 52.37
C184.73 51.81 184.59 51.34 184.31 50.97
C184.01 50.58 183.65 50.39 183.23 50.38
Z
" fill="white" fill-rule="nonzero" />
<path d="
M183.59 63.87
L183.59 67.08
L182.13 67.08
L183.59 63.87
Z
M186.89 63.16
C187.17 63.16 187.40 63.35 187.58 63.75
C187.75 64.14 187.84 64.91 187.84 66.07
C187.84 67.22 187.75 67.99 187.58 68.39
C187.40 68.79 187.18 68.99 186.92 68.99
C186.64 68.99 186.42 68.79 186.24 68.40
C186.06 68.00 185.97 67.23 185.97 66.07
C185.97 64.93 186.06 64.15 186.24 63.76
C186.41 63.36 186.63 63.16 186.89 63.16
Z
M183.70 62.46
L181.57 67.08
L181.57 67.88
L183.59 67.88
L183.59 69.59
L184.17 69.59
L184.17 67.88
L184.80 67.88
L184.80 67.08
L184.17 67.08
L184.17 62.46
Z
M186.91 62.43
C186.41 62.43 186.03 62.74 185.77 63.36
C185.52 63.97 185.39 64.88 185.39 66.07
C185.39 67.41 185.53 68.35 185.81 68.89
C186.10 69.44 186.46 69.71 186.91 69.71
C187.41 69.71 187.79 69.40 188.05 68.78
C188.31 68.16 188.43 67.26 188.43 66.07
C188.43 64.75 188.28 63.78 187.97 63.18
C187.71 62.68 187.36 62.43 186.91 62.43
Z
" fill="black" fill-rule="nonzero" />
<path d="
M183.59 75.83
L183.59 79.05
L182.13 79.05
L183.59 75.83
Z
M183.70 74.43
L181.57 79.05
L181.57 79.85
L183.59 79.85
L183.59 81.55
L184.17 81.55
L184.17 79.85
L184.80 79.85
L184.80 79.05
L184.17 79.05
L184.17 74.43
Z
M186.95 74.40
C186.51 74.40 186.16 74.57 185.89 74.92
C185.63 75.26 185.47 75.78 185.43 76.46
L186.02 76.55
C186.02 76.09 186.11 75.74 186.28 75.49
C186.45 75.25 186.67 75.12 186.93 75.12
C187.18 75.12 187.39 75.24 187.56 75.47
C187.73 75.70 187.82 75.99 187.82 76.35
C187.82 76.67 187.73 77.01 187.57 77.37
C187.40 77.74 187.05 78.25 186.51 78.92
C186.05 79.49 185.74 79.99 185.57 80.41
C185.39 80.83 185.31 81.21 185.32 81.55
L188.41 81.55
L188.41 80.71
L186.12 80.71
C186.18 80.55 186.26 80.39 186.36 80.24
C186.46 80.08 186.68 79.78 187.02 79.34
C187.56 78.65 187.92 78.09 188.11 77.68
C188.31 77.26 188.40 76.83 188.40 76.37
C188.40 75.86 188.28 75.40 188.03 75.00
C187.79 74.60 187.43 74.40 186.95 74.40
Z
" fill="black" fill-rule="nonzero" />
<path d="
M183.45 88.33
L183.45 90.75
L182.35 90.75
L183.45 88.33
Z
M183.61 86.13
L183.57 86.21
L181.44 90.83
L181.43 90.86
L181.43 90.89
L181.43 91.69
L181.43 91.83
L183.45 91.83
L183.45 93.39
L183.45 93.54
L184.31 93.54
L184.31 93.39
L184.31 91.83
L184.95 91.83
L184.95 91.69
L184.95 90.89
L184.95 90.75
L184.31 90.75
L184.31 86.27
L184.31 86.13
Z
M186.86 86.10
C186.45 86.10 186.11 86.27 185.83 86.62
C185.56 86.95 185.38 87.44 185.31 88.07
L185.29 88.19
L185.41 88.23
L185.98 88.38
L186.14 88.43
L186.16 88.26
C186.20 87.85 186.29 87.55 186.42 87.36
C186.55 87.19 186.69 87.10 186.86 87.10
C186.86 87.10 186.87 87.10 186.87 87.10
C186.87 87.10 186.87 87.10 186.87 87.10
C187.03 87.10 187.17 87.19 187.29 87.35
C187.42 87.53 187.49 87.77 187.49 88.07
C187.49 88.40 187.41 88.66 187.25 88.85
C187.11 89.03 186.92 89.12 186.68 89.12
L186.68 89.12
L186.60 89.11
L186.46 89.10
L186.45 89.24
L186.38 90.01
L186.36 90.24
L186.57 90.15
C186.72 90.10 186.83 90.07 186.93 90.07
C186.93 90.07 186.93 90.07 186.93 90.07
C186.93 90.07 186.93 90.07 186.93 90.07
C187.14 90.07 187.31 90.17 187.46 90.39
C187.62 90.61 187.70 90.92 187.70 91.31
C187.70 91.72 187.61 92.05 187.43 92.30
C187.27 92.54 187.09 92.65 186.87 92.65
C186.87 92.65 186.87 92.65 186.87 92.65
C186.87 92.65 186.87 92.65 186.87 92.65
C186.68 92.65 186.52 92.56 186.40 92.37
C186.26 92.15 186.16 91.82 186.11 91.38
L186.09 91.23
L185.94 91.26
L185.36 91.38
L185.24 91.40
L185.25 91.52
C185.29 92.16 185.46 92.68 185.75 93.06
C186.06 93.46 186.43 93.66 186.88 93.66
C187.36 93.66 187.76 93.43 188.10 92.98
C188.43 92.54 188.59 91.98 188.59 91.29
C188.59 90.97 188.55 90.68 188.47 90.41
C188.39 90.15 188.28 89.93 188.15 89.77
C188.06 89.66 187.96 89.57 187.84 89.50
L187.84 89.50
C187.98 89.37 188.09 89.20 188.18 89.01
C188.30 88.74 188.36 88.43 188.36 88.09
C188.36 87.53 188.22 87.06 187.94 86.68
C187.64 86.30 187.28 86.10 186.86 86.10
Z
" fill="white" fill-rule="nonzero" />
<path d="
M186.92 134.59
C187.12 134.59 187.30 134.69 187.46 134.90
C187.61 135.12 187.68 135.39 187.68 135.72
C187.68 136.05 187.61 136.31 187.46 136.51
C187.31 136.72 187.14 136.82 186.93 136.82
C186.71 136.82 186.53 136.72 186.38 136.51
C186.23 136.30 186.16 136.02 186.16 135.67
C186.16 135.36 186.23 135.10 186.38 134.90
C186.53 134.69 186.71 134.59 186.92 134.59
Z
M186.91 137.54
C187.17 137.54 187.40 137.67 187.59 137.94
C187.78 138.20 187.87 138.56 187.87 138.99
C187.87 139.43 187.78 139.77 187.60 140.03
C187.41 140.29 187.19 140.42 186.93 140.42
C186.66 140.42 186.44 140.29 186.25 140.02
C186.06 139.75 185.97 139.40 185.97 138.96
C185.97 138.54 186.06 138.20 186.24 137.93
C186.43 137.67 186.65 137.54 186.91 137.54
Z
M183.32 133.87
C182.88 133.87 182.53 134.04 182.26 134.38
C182.00 134.73 181.84 135.24 181.80 135.93
L182.39 136.02
C182.39 135.56 182.48 135.21 182.65 134.96
C182.82 134.71 183.04 134.59 183.30 134.59
C183.55 134.59 183.76 134.71 183.93 134.93
C184.10 135.16 184.19 135.46 184.19 135.82
C184.19 136.13 184.10 136.47 183.94 136.84
C183.77 137.20 183.42 137.72 182.88 138.39
C182.42 138.96 182.11 139.46 181.94 139.88
C181.76 140.30 181.68 140.68 181.69 141.02
L184.78 141.02
L184.78 140.18
L182.49 140.18
C182.55 140.02 182.63 139.86 182.73 139.70
C182.83 139.54 183.05 139.25 183.39 138.81
C183.93 138.11 184.29 137.56 184.48 137.14
C184.68 136.73 184.77 136.29 184.77 135.84
C184.77 135.33 184.65 134.87 184.40 134.47
C184.16 134.07 183.80 133.87 183.32 133.87
Z
M186.91 133.87
C186.53 133.87 186.21 134.04 185.95 134.38
C185.70 134.72 185.57 135.16 185.57 135.70
C185.57 136.06 185.63 136.36 185.75 136.60
C185.86 136.84 186.04 137.03 186.27 137.16
C185.99 137.27 185.77 137.48 185.62 137.79
C185.46 138.09 185.38 138.49 185.38 138.96
C185.38 139.61 185.53 140.14 185.82 140.54
C186.12 140.94 186.48 141.14 186.93 141.14
C187.36 141.14 187.73 140.94 188.02 140.54
C188.31 140.14 188.46 139.62 188.46 138.99
C188.46 138.53 188.38 138.14 188.23 137.83
C188.08 137.52 187.86 137.30 187.58 137.16
C187.81 137.02 187.99 136.84 188.10 136.60
C188.21 136.36 188.27 136.07 188.27 135.73
C188.27 135.18 188.14 134.73 187.88 134.39
C187.63 134.04 187.30 133.87 186.91 133.87
Z
" fill="black" fill-rule="nonzero" />
<path d="
M183.32 145.69
C182.84 145.69 182.45 145.88 182.15 146.26
C181.87 146.63 181.70 147.17 181.66 147.88
L181.65 148.01
L181.78 148.03
L182.37 148.13
L182.53 148.15
L182.53 147.99
C182.53 147.56 182.61 147.23 182.76 147.01
C182.90 146.80 183.08 146.70 183.30 146.70
C183.30 146.70 183.30 146.70 183.30 146.70
C183.30 146.70 183.31 146.70 183.31 146.70
C183.51 146.70 183.68 146.79 183.82 146.98
C183.97 147.19 184.04 147.45 184.04 147.79
C184.04 148.08 183.96 148.40 183.81 148.75
C183.65 149.10 183.30 149.61 182.77 150.26
C182.31 150.85 181.98 151.36 181.81 151.79
C181.63 152.23 181.54 152.63 181.55 152.99
L181.55 153.13
L184.92 153.13
L184.92 152.98
L184.92 152.14
L184.92 152.00
L182.70 152.00
C182.75 151.92 182.80 151.83 182.85 151.74
C182.95 151.59 183.17 151.30 183.50 150.86
C184.05 150.16 184.42 149.60 184.61 149.17
C184.81 148.73 184.91 148.28 184.91 147.81
C184.91 147.27 184.78 146.79 184.53 146.36
C184.25 145.92 183.85 145.69 183.32 145.69
Z
M185.28 145.81
L185.28 145.95
L185.28 146.80
L185.28 146.94
L187.47 146.94
C187.22 147.41 186.98 147.96 186.76 148.59
C186.51 149.31 186.31 150.07 186.17 150.88
C186.02 151.68 185.94 152.38 185.94 152.98
L185.93 153.13
L186.67 153.13
L186.80 153.13
L186.81 152.99
C186.86 151.85 187.06 150.70 187.40 149.53
C187.73 148.37 188.13 147.43 188.57 146.71
L188.59 146.68
L188.59 146.63
L188.59 145.95
L188.59 145.81
Z
" fill="white" fill-rule="nonzero" />
<path d="
M185.48 194.90
L185.48 198.07
L183.67 198.07
L185.48 194.90
Z
M185.61 193.51
L182.98 198.07
L182.98 198.86
L185.48 198.86
L185.48 200.55
L186.19 200.55
L186.19 198.86
L186.97 198.86
L186.97 198.07
L186.19 198.07
L186.19 193.51
Z
" fill="black" fill-rule="nonzero" />
<path d="
M199.13 28.21
L199.13 31.42
L197.67 31.42
L199.13 28.21
Z
M195.23 26.78
C194.79 26.78 194.44 26.95 194.17 27.30
C193.90 27.64 193.75 28.15 193.70 28.84
L194.30 28.93
C194.30 28.47 194.38 28.12 194.55 27.87
C194.72 27.63 194.94 27.50 195.21 27.50
C195.46 27.50 195.67 27.62 195.84 27.84
C196.01 28.07 196.09 28.37 196.09 28.73
C196.09 29.05 196.01 29.38 195.84 29.75
C195.68 30.11 195.33 30.63 194.79 31.30
C194.33 31.87 194.01 32.37 193.84 32.79
C193.67 33.21 193.59 33.59 193.60 33.93
L196.69 33.93
L196.69 33.09
L194.39 33.09
C194.45 32.93 194.54 32.77 194.64 32.61
C194.74 32.45 194.96 32.16 195.30 31.72
C195.83 31.03 196.20 30.47 196.39 30.06
C196.58 29.64 196.68 29.20 196.68 28.75
C196.68 28.24 196.56 27.78 196.31 27.38
C196.07 26.98 195.70 26.78 195.23 26.78
Z
M199.24 26.81
L197.11 31.42
L197.11 32.22
L199.13 32.22
L199.13 33.93
L199.71 33.93
L199.71 32.22
L200.34 32.22
L200.34 31.42
L199.71 31.42
L199.71 26.81
Z
" fill="black" fill-rule="nonzero" />
<path d="
M199.13 40.05
L199.13 43.27
L197.67 43.27
L199.13 40.05
Z
M199.24 38.65
L197.11 43.27
L197.11 44.07
L199.13 44.07
L199.13 45.77
L199.71 45.77
L199.71 44.07
L200.34 44.07
L200.34 43.27
L199.71 43.27
L199.71 38.65
Z
M195.13 38.62
C194.77 38.62 194.47 38.78 194.21 39.09
C193.96 39.40 193.80 39.86 193.72 40.47
L194.30 40.62
C194.34 40.19 194.43 39.87 194.58 39.66
C194.74 39.45 194.92 39.34 195.14 39.34
C195.35 39.34 195.54 39.44 195.68 39.64
C195.83 39.85 195.90 40.11 195.90 40.45
C195.90 40.81 195.82 41.10 195.64 41.32
C195.46 41.53 195.23 41.64 194.95 41.64
L194.86 41.63
L194.80 42.40
C194.96 42.34 195.09 42.30 195.20 42.30
C195.46 42.30 195.67 42.43 195.85 42.68
C196.03 42.93 196.11 43.27 196.11 43.68
C196.11 44.12 196.02 44.48 195.83 44.76
C195.63 45.04 195.41 45.17 195.15 45.17
C194.66 45.17 194.36 44.71 194.24 43.78
L193.67 43.89
C193.70 44.50 193.86 44.99 194.14 45.35
C194.42 45.72 194.76 45.90 195.15 45.90
C195.58 45.90 195.95 45.69 196.26 45.27
C196.57 44.86 196.72 44.32 196.72 43.67
C196.72 43.36 196.69 43.08 196.61 42.83
C196.54 42.58 196.44 42.38 196.32 42.24
C196.19 42.09 196.04 41.98 195.85 41.91
C196.06 41.77 196.21 41.58 196.33 41.33
C196.44 41.08 196.50 40.79 196.50 40.47
C196.50 39.94 196.36 39.50 196.10 39.15
C195.83 38.80 195.51 38.62 195.13 38.62
Z
" fill="black" fill-rule="nonzero" />
<path d="
M198.85 53.83
C199.11 53.83 199.32 53.97 199.50 54.25
C199.68 54.53 199.76 54.92 199.76 55.42
C199.76 55.94 199.67 56.34 199.50 56.64
C199.32 56.93 199.12 57.08 198.89 57.08
C198.64 57.08 198.41 56.92 198.22 56.61
C198.02 56.30 197.93 55.88 197.93 55.37
C197.93 54.90 198.02 54.52 198.20 54.25
C198.39 53.97 198.61 53.83 198.85 53.83
Z
M198.94 50.53
C198.45 50.53 198.05 50.82 197.73 51.40
C197.42 51.99 197.26 52.97 197.26 54.34
C197.26 55.59 197.42 56.47 197.72 57.00
C198.03 57.53 198.42 57.80 198.89 57.80
C199.15 57.80 199.39 57.71 199.61 57.52
C199.83 57.34 200.00 57.05 200.14 56.66
C200.28 56.28 200.35 55.85 200.35 55.37
C200.35 54.67 200.21 54.11 199.94 53.69
C199.66 53.27 199.34 53.06 198.97 53.06
C198.74 53.06 198.53 53.14 198.33 53.30
C198.13 53.46 197.97 53.69 197.84 54.00
C197.84 53.13 197.93 52.47 198.10 52.02
C198.30 51.50 198.57 51.25 198.90 51.25
C199.12 51.25 199.30 51.36 199.46 51.59
C199.56 51.74 199.64 52.00 199.70 52.37
L200.27 52.30
C200.22 51.72 200.07 51.28 199.83 50.98
C199.59 50.68 199.29 50.53 198.94 50.53
Z
M195.13 50.53
C194.77 50.53 194.47 50.68 194.21 50.99
C193.96 51.30 193.80 51.76 193.72 52.37
L194.30 52.53
C194.34 52.10 194.43 51.78 194.58 51.56
C194.74 51.35 194.92 51.25 195.14 51.25
C195.35 51.25 195.54 51.35 195.68 51.55
C195.83 51.75 195.90 52.02 195.90 52.35
C195.90 52.72 195.82 53.01 195.64 53.22
C195.46 53.44 195.23 53.55 194.95 53.55
L194.86 53.54
L194.80 54.31
C194.96 54.24 195.09 54.21 195.20 54.21
C195.46 54.21 195.67 54.34 195.85 54.59
C196.03 54.84 196.11 55.17 196.11 55.59
C196.11 56.03 196.02 56.39 195.83 56.66
C195.63 56.94 195.41 57.08 195.15 57.08
C194.66 57.08 194.36 56.61 194.24 55.68
L193.67 55.80
C193.70 56.41 193.86 56.90 194.14 57.26
C194.42 57.62 194.76 57.80 195.15 57.80
C195.58 57.80 195.95 57.60 196.26 57.18
C196.57 56.76 196.72 56.23 196.72 55.57
C196.72 55.27 196.69 54.99 196.61 54.74
C196.54 54.49 196.44 54.29 196.32 54.14
C196.19 53.99 196.04 53.88 195.85 53.82
C196.06 53.68 196.21 53.48 196.33 53.23
C196.44 52.98 196.50 52.70 196.50 52.37
C196.50 51.84 196.36 51.40 196.10 51.05
C195.83 50.70 195.51 50.53 195.13 50.53
Z
" fill="black" fill-rule="nonzero" />
<path d="
M198.83 87.11
C198.83 87.11 198.83 87.11 198.83 87.11
C198.83 87.11 198.83 87.11 198.83 87.11
C199.02 87.11 199.18 87.23 199.34 87.48
C199.50 87.75 199.59 88.12 199.59 88.61
C199.59 89.09 199.51 89.46 199.34 89.72
C199.20 89.95 199.02 90.07 198.82 90.07
C198.82 90.07 198.82 90.07 198.82 90.07
C198.82 90.07 198.82 90.07 198.82 90.07
C198.61 90.07 198.43 89.95 198.28 89.72
C198.11 89.46 198.02 89.12 198.02 88.68
C198.02 88.19 198.11 87.80 198.29 87.51
C198.46 87.24 198.63 87.11 198.83 87.11
Z
M195.35 86.10
L195.31 86.20
C195.22 86.50 195.06 86.80 194.82 87.12
C194.59 87.43 194.32 87.70 194.02 87.92
L193.96 87.96
L193.96 88.03
L193.96 88.88
L193.96 89.12
L194.17 89.00
C194.37 88.89 194.58 88.73 194.81 88.52
C194.92 88.43 195.02 88.33 195.11 88.23
L195.11 88.23
L195.11 93.40
L195.11 93.54
L195.96 93.54
L195.96 93.40
L195.96 86.25
L195.96 86.10
Z
M198.76 86.10
C198.31 86.10 197.92 86.34 197.60 86.81
C197.30 87.26 197.15 87.88 197.15 88.65
C197.15 89.40 197.30 90.00 197.59 90.44
C197.89 90.89 198.26 91.12 198.69 91.12
C198.93 91.12 199.17 91.03 199.40 90.84
C199.49 90.77 199.57 90.68 199.64 90.59
L199.64 90.59
C199.62 90.98 199.57 91.33 199.49 91.65
C199.39 92.04 199.27 92.31 199.13 92.46
C199.00 92.59 198.86 92.66 198.71 92.66
C198.71 92.66 198.71 92.66 198.71 92.66
C198.71 92.66 198.70 92.66 198.70 92.66
C198.54 92.66 198.41 92.58 198.31 92.44
C198.19 92.27 198.11 92.01 198.07 91.66
L198.05 91.51
L197.91 91.53
L197.36 91.61
L197.23 91.63
L197.24 91.76
C197.29 92.36 197.44 92.83 197.69 93.15
C197.96 93.49 198.29 93.66 198.69 93.66
C199.05 93.66 199.36 93.52 199.64 93.24
C199.91 92.98 200.13 92.56 200.28 92.00
C200.43 91.44 200.51 90.67 200.51 89.68
C200.51 88.79 200.44 88.10 200.30 87.62
C200.15 87.13 199.94 86.76 199.67 86.50
C199.40 86.24 199.09 86.10 198.76 86.10
Z
" fill="white" fill-rule="nonzero" />
<path d="
M197.04 113.36
C197.35 113.36 197.62 113.50 197.84 113.78
C198.06 114.05 198.16 114.44 198.16 114.94
C198.16 115.45 198.05 115.85 197.84 116.14
C197.62 116.43 197.37 116.57 197.09 116.57
C196.77 116.57 196.49 116.42 196.25 116.11
C196.01 115.80 195.89 115.39 195.89 114.89
C195.89 114.42 196.01 114.05 196.24 113.77
C196.47 113.50 196.73 113.36 197.04 113.36
Z
M197.15 110.10
C196.54 110.10 196.05 110.39 195.66 110.97
C195.27 111.54 195.08 112.51 195.08 113.87
C195.08 115.10 195.27 115.97 195.64 116.50
C196.02 117.02 196.50 117.29 197.08 117.29
C197.41 117.29 197.70 117.19 197.97 117.01
C198.24 116.83 198.46 116.55 198.63 116.16
C198.80 115.78 198.89 115.36 198.89 114.89
C198.89 114.19 198.72 113.64 198.38 113.22
C198.04 112.81 197.64 112.60 197.18 112.60
C196.91 112.60 196.64 112.68 196.40 112.84
C196.15 113.00 195.95 113.23 195.78 113.54
C195.79 112.67 195.90 112.02 196.11 111.58
C196.36 111.07 196.69 110.81 197.10 110.81
C197.37 110.81 197.60 110.92 197.79 111.15
C197.92 111.30 198.02 111.56 198.08 111.92
L198.79 111.85
C198.72 111.28 198.54 110.85 198.25 110.55
C197.95 110.25 197.59 110.10 197.15 110.10
Z
" fill="black" fill-rule="nonzero" />
<path d="
M198.79 146.50
C199.07 146.50 199.30 146.69 199.48 147.08
C199.66 147.48 199.75 148.25 199.75 149.41
C199.75 150.56 199.66 151.33 199.48 151.73
C199.31 152.13 199.09 152.33 198.83 152.33
C198.55 152.33 198.32 152.13 198.14 151.74
C197.97 151.34 197.88 150.57 197.88 149.41
C197.88 148.27 197.97 147.49 198.14 147.09
C198.32 146.70 198.53 146.50 198.79 146.50
Z
M195.23 145.77
C194.79 145.77 194.44 145.95 194.17 146.29
C193.90 146.64 193.75 147.15 193.70 147.83
L194.30 147.93
C194.30 147.47 194.38 147.11 194.55 146.87
C194.72 146.62 194.94 146.50 195.21 146.50
C195.46 146.50 195.67 146.61 195.84 146.84
C196.01 147.07 196.09 147.36 196.09 147.73
C196.09 148.04 196.01 148.38 195.84 148.74
C195.68 149.11 195.33 149.62 194.79 150.29
C194.33 150.86 194.01 151.36 193.84 151.78
C193.67 152.20 193.59 152.58 193.60 152.92
L196.69 152.92
L196.69 152.08
L194.39 152.08
C194.45 151.93 194.54 151.77 194.64 151.61
C194.74 151.45 194.96 151.15 195.30 150.71
C195.83 150.02 196.20 149.47 196.39 149.05
C196.58 148.63 196.68 148.20 196.68 147.75
C196.68 147.23 196.56 146.78 196.31 146.38
C196.07 145.97 195.70 145.77 195.23 145.77
Z
M198.82 145.77
C198.32 145.77 197.94 146.08 197.68 146.70
C197.42 147.31 197.29 148.22 197.29 149.41
C197.29 150.75 197.43 151.69 197.72 152.23
C198.00 152.77 198.37 153.05 198.81 153.05
C199.32 153.05 199.70 152.74 199.95 152.12
C200.21 151.50 200.34 150.60 200.34 149.41
C200.34 148.09 200.18 147.12 199.87 146.52
C199.62 146.02 199.26 145.77 198.82 145.77
Z
" fill="black" fill-rule="nonzero" />
<path d="
M196.25 172.09
L196.25 172.09
L196.25 172.09
C196.25 172.09 196.25 172.09 196.25 172.09
Z
M195.68 169.55
L195.66 169.67
L195.10 173.28
L195.07 173.42
L195.21 173.44
L195.88 173.55
L195.98 173.57
L196.03 173.47
C196.13 173.28 196.26 173.13 196.42 173.03
C196.59 172.92 196.76 172.87 196.95 172.87
C196.95 172.87 196.95 172.87 196.95 172.87
C196.95 172.87 196.95 172.87 196.95 172.87
C197.26 172.87 197.52 172.99 197.73 173.24
C197.94 173.49 198.05 173.84 198.05 174.31
C198.05 174.81 197.94 175.21 197.71 175.49
C197.50 175.76 197.25 175.90 196.96 175.90
C196.96 175.90 196.96 175.90 196.95 175.90
C196.95 175.90 196.95 175.90 196.95 175.90
C196.73 175.90 196.52 175.80 196.35 175.61
C196.17 175.42 196.05 175.11 196.00 174.69
L195.98 174.56
L195.84 174.57
L195.10 174.65
L194.96 174.66
L194.97 174.80
C195.02 175.45 195.23 175.96 195.60 176.33
C195.97 176.70 196.43 176.89 196.96 176.89
C197.61 176.89 198.13 176.63 198.52 176.10
C198.89 175.58 199.08 174.96 199.08 174.24
C199.08 173.51 198.89 172.93 198.51 172.49
C198.12 172.05 197.67 171.82 197.14 171.82
C196.83 171.82 196.53 171.91 196.25 172.09
L196.25 172.09
L196.48 170.66
L198.81 170.66
L198.81 170.52
L198.81 169.69
L198.81 169.55
Z
" fill="white" fill-rule="nonzero" />
<path d="
M207.41 63.87
L207.41 67.08
L205.94 67.08
L207.41 63.87
Z
M210.76 65.74
C211.01 65.74 211.23 65.88 211.40 66.16
C211.58 66.43 211.67 66.83 211.67 67.33
C211.67 67.85 211.58 68.25 211.40 68.55
C211.23 68.84 211.02 68.99 210.80 68.99
C210.54 68.99 210.32 68.83 210.12 68.52
C209.93 68.21 209.83 67.79 209.83 67.28
C209.83 66.81 209.92 66.43 210.11 66.15
C210.29 65.88 210.51 65.74 210.76 65.74
Z
M207.51 62.46
L205.38 67.08
L205.38 67.88
L207.41 67.88
L207.41 69.59
L207.98 69.59
L207.98 67.88
L208.61 67.88
L208.61 67.08
L207.98 67.08
L207.98 62.46
Z
M210.85 62.43
C210.36 62.43 209.95 62.73 209.64 63.31
C209.33 63.90 209.17 64.88 209.17 66.25
C209.17 67.49 209.32 68.38 209.63 68.91
C209.93 69.44 210.32 69.71 210.79 69.71
C211.06 69.71 211.30 69.61 211.51 69.43
C211.73 69.25 211.91 68.96 212.05 68.57
C212.19 68.19 212.26 67.75 212.26 67.28
C212.26 66.58 212.12 66.01 211.84 65.59
C211.57 65.18 211.24 64.97 210.87 64.97
C210.65 64.97 210.44 65.05 210.24 65.21
C210.04 65.37 209.87 65.60 209.74 65.91
C209.74 65.04 209.83 64.38 210.01 63.93
C210.21 63.41 210.48 63.15 210.81 63.15
C211.03 63.15 211.21 63.27 211.36 63.49
C211.47 63.65 211.55 63.91 211.60 64.28
L212.17 64.21
C212.12 63.63 211.98 63.19 211.74 62.89
C211.50 62.59 211.20 62.43 210.85 62.43
Z
" fill="black" fill-rule="nonzero" />
<path d="
M210.73 75.06
C210.94 75.06 211.12 75.16 211.27 75.37
C211.42 75.59 211.49 75.86 211.49 76.19
C211.49 76.52 211.42 76.78 211.27 76.99
C211.12 77.19 210.95 77.29 210.74 77.29
C210.52 77.29 210.34 77.19 210.19 76.98
C210.04 76.77 209.97 76.49 209.97 76.14
C209.97 75.83 210.05 75.57 210.19 75.37
C210.34 75.16 210.52 75.06 210.73 75.06
Z
M210.72 78.01
C210.99 78.01 211.21 78.14 211.40 78.41
C211.59 78.67 211.68 79.03 211.68 79.46
C211.68 79.90 211.59 80.24 211.41 80.50
C211.22 80.76 211.00 80.89 210.74 80.89
C210.47 80.89 210.25 80.76 210.06 80.49
C209.87 80.22 209.78 79.87 209.78 79.43
C209.78 79.01 209.87 78.67 210.05 78.40
C210.24 78.14 210.46 78.01 210.72 78.01
Z
M210.72 74.34
C210.34 74.34 210.02 74.51 209.76 74.85
C209.51 75.19 209.38 75.63 209.38 76.17
C209.38 76.53 209.44 76.83 209.56 77.07
C209.67 77.31 209.85 77.50 210.08 77.63
C209.80 77.74 209.59 77.95 209.43 78.26
C209.27 78.56 209.19 78.96 209.19 79.43
C209.19 80.08 209.34 80.61 209.63 81.01
C209.93 81.41 210.30 81.61 210.74 81.61
C211.17 81.61 211.54 81.41 211.83 81.01
C212.12 80.61 212.27 80.09 212.27 79.46
C212.27 79.00 212.20 78.61 212.04 78.30
C211.89 77.99 211.68 77.77 211.39 77.63
C211.62 77.49 211.80 77.31 211.91 77.07
C212.02 76.83 212.08 76.54 212.08 76.20
C212.08 75.65 211.95 75.20 211.69 74.86
C211.44 74.51 211.11 74.34 210.72 74.34
Z
M207.04 74.34
C206.68 74.34 206.37 74.49 206.12 74.80
C205.87 75.11 205.70 75.57 205.63 76.18
L206.20 76.34
C206.24 75.91 206.34 75.59 206.49 75.37
C206.64 75.16 206.83 75.06 207.05 75.06
C207.26 75.06 207.44 75.16 207.59 75.36
C207.74 75.56 207.81 75.83 207.81 76.16
C207.81 76.53 207.72 76.82 207.55 77.03
C207.37 77.25 207.14 77.36 206.86 77.36
L206.77 77.35
L206.70 78.12
C206.86 78.05 207.00 78.02 207.11 78.02
C207.36 78.02 207.58 78.15 207.76 78.40
C207.93 78.65 208.02 78.99 208.02 79.40
C208.02 79.84 207.92 80.20 207.73 80.48
C207.54 80.75 207.31 80.89 207.05 80.89
C206.57 80.89 206.27 80.42 206.15 79.49
L205.57 79.61
C205.61 80.22 205.77 80.71 206.05 81.07
C206.32 81.43 206.66 81.62 207.06 81.62
C207.49 81.62 207.86 81.41 208.17 80.99
C208.48 80.57 208.63 80.04 208.63 79.39
C208.63 79.08 208.59 78.80 208.52 78.55
C208.44 78.30 208.34 78.10 208.22 77.95
C208.10 77.80 207.95 77.70 207.76 77.63
C207.96 77.49 208.12 77.29 208.23 77.04
C208.34 76.79 208.40 76.51 208.40 76.18
C208.40 75.65 208.27 75.21 208.00 74.86
C207.74 74.51 207.42 74.34 207.04 74.34
Z
" fill="black" fill-rule="nonzero" />
<path d="
M210.73 87.11
C210.73 87.11 210.74 87.11 210.74 87.11
C210.74 87.11 210.74 87.11 210.74 87.11
C210.92 87.11 211.09 87.23 211.24 87.48
C211.41 87.75 211.49 88.12 211.49 88.60
C211.49 89.09 211.41 89.46 211.25 89.71
C211.10 89.95 210.93 90.07 210.73 90.07
C210.73 90.07 210.73 90.07 210.72 90.07
C210.72 90.07 210.72 90.07 210.72 90.07
C210.52 90.07 210.34 89.95 210.18 89.71
C210.01 89.46 209.93 89.11 209.93 88.68
C209.93 88.19 210.02 87.80 210.20 87.51
C210.36 87.24 210.54 87.11 210.73 87.11
Z
M210.67 86.10
C210.21 86.10 209.82 86.34 209.51 86.81
C209.21 87.26 209.06 87.87 209.06 88.65
C209.06 89.40 209.20 89.99 209.49 90.43
C209.80 90.89 210.17 91.12 210.60 91.12
C210.84 91.12 211.08 91.03 211.31 90.84
C211.39 90.76 211.47 90.68 211.55 90.59
L211.55 90.59
C211.53 90.98 211.48 91.33 211.40 91.64
C211.29 92.04 211.17 92.31 211.03 92.45
C210.90 92.59 210.76 92.65 210.61 92.65
C210.61 92.65 210.61 92.65 210.61 92.65
C210.61 92.65 210.61 92.65 210.61 92.65
C210.44 92.65 210.31 92.58 210.21 92.43
C210.10 92.27 210.02 92.01 209.98 91.65
L209.96 91.51
L209.81 91.53
L209.26 91.61
L209.13 91.63
L209.14 91.76
C209.19 92.36 209.34 92.82 209.60 93.15
C209.87 93.49 210.20 93.66 210.60 93.66
C210.95 93.66 211.27 93.52 211.55 93.24
C211.82 92.98 212.03 92.56 212.19 91.99
C212.34 91.44 212.41 90.67 212.41 89.68
C212.41 88.79 212.34 88.10 212.20 87.62
C212.06 87.13 211.85 86.76 211.58 86.50
C211.30 86.23 211.00 86.10 210.67 86.10
Z
M207.04 86.10
C206.64 86.10 206.29 86.27 206.01 86.62
C205.74 86.95 205.56 87.44 205.49 88.07
L205.47 88.19
L205.59 88.23
L206.16 88.38
L206.33 88.43
L206.34 88.26
C206.38 87.85 206.47 87.55 206.61 87.36
C206.73 87.19 206.87 87.10 207.04 87.10
C207.05 87.10 207.05 87.10 207.05 87.10
C207.05 87.10 207.05 87.10 207.05 87.10
C207.21 87.10 207.36 87.19 207.47 87.35
C207.60 87.53 207.67 87.77 207.67 88.07
C207.67 88.40 207.59 88.66 207.44 88.85
C207.29 89.03 207.10 89.12 206.87 89.12
L206.87 89.12
L206.78 89.11
L206.64 89.10
L206.63 89.24
L206.56 90.01
L206.54 90.24
L206.76 90.15
C206.90 90.10 207.02 90.07 207.11 90.07
C207.11 90.07 207.11 90.07 207.11 90.07
C207.11 90.07 207.11 90.07 207.11 90.07
C207.32 90.07 207.49 90.17 207.64 90.39
C207.80 90.61 207.88 90.92 207.88 91.31
C207.88 91.72 207.79 92.05 207.62 92.30
C207.45 92.54 207.27 92.65 207.06 92.65
C207.05 92.65 207.05 92.65 207.05 92.65
C207.05 92.65 207.05 92.65 207.05 92.65
C206.86 92.65 206.70 92.56 206.58 92.37
C206.44 92.15 206.34 91.82 206.29 91.38
L206.27 91.23
L206.12 91.26
L205.54 91.38
L205.42 91.40
L205.43 91.52
C205.47 92.16 205.64 92.68 205.93 93.06
C206.24 93.46 206.61 93.66 207.06 93.66
C207.54 93.66 207.94 93.43 208.28 92.98
C208.61 92.54 208.77 91.98 208.77 91.29
C208.77 90.97 208.73 90.68 208.65 90.41
C208.57 90.15 208.47 89.93 208.33 89.77
C208.24 89.66 208.14 89.57 208.02 89.50
L208.02 89.50
C208.16 89.37 208.27 89.20 208.36 89.01
C208.48 88.74 208.54 88.43 208.54 88.09
C208.54 87.53 208.40 87.06 208.12 86.68
C207.82 86.30 207.46 86.10 207.04 86.10
Z
" fill="white" fill-rule="nonzero" />
</g>
<g  transform="translate(1.19,228.58)" >
<path d="
M109.47 2.94
C109.30 2.94 109.16 3.00 109.05 3.11
C108.93 3.23 108.88 3.37 108.88 3.53
C108.88 3.69 108.94 3.83 109.05 3.95
C109.17 4.07 109.31 4.12 109.47 4.12
C109.63 4.12 109.77 4.07 109.89 3.95
C110.00 3.83 110.06 3.69 110.06 3.53
C110.06 3.37 110.00 3.23 109.89 3.11
C109.77 3.00 109.63 2.94 109.47 2.94
Z
M114.44 8.04
L114.44 10.07
C113.96 10.46 113.57 10.65 113.28 10.65
C113.06 10.65 112.87 10.56 112.70 10.37
C112.54 10.19 112.45 9.96 112.45 9.68
C112.45 9.46 112.52 9.25 112.65 9.07
C112.78 8.88 113.00 8.70 113.31 8.53
C113.48 8.44 113.86 8.27 114.44 8.04
Z
M102.79 3.77
C103.72 3.77 104.48 4.08 105.08 4.71
C105.67 5.34 105.97 6.20 105.97 7.29
C105.97 8.37 105.67 9.23 105.08 9.86
C104.48 10.49 103.74 10.81 102.84 10.81
C102.50 10.81 102.09 10.75 101.60 10.64
L101.60 3.94
C102.05 3.83 102.44 3.77 102.79 3.77
Z
M125.23 6.74
C125.71 6.74 126.09 6.98 126.35 7.47
C126.62 7.95 126.75 8.53 126.75 9.19
C126.75 9.78 126.62 10.23 126.35 10.55
C126.08 10.87 125.78 11.03 125.45 11.03
C125.16 11.03 124.92 10.94 124.72 10.75
C124.45 10.50 124.25 10.15 124.11 9.72
C123.97 9.28 123.90 8.88 123.90 8.50
C123.90 8.18 123.94 7.76 124.01 7.24
C124.34 7.03 124.59 6.90 124.76 6.83
C124.92 6.77 125.08 6.74 125.23 6.74
Z
M99.35 3.33
L99.35 3.54
L99.65 3.54
C99.94 3.54 100.17 3.63 100.32 3.80
C100.43 3.92 100.48 4.23 100.48 4.72
L100.48 9.82
C100.48 10.26 100.44 10.55 100.35 10.68
C100.22 10.89 99.98 11.00 99.65 11.00
L99.35 11.00
L99.35 11.21
L102.87 11.21
C104.40 11.21 105.54 10.80 106.29 9.98
C106.96 9.24 107.29 8.33 107.29 7.23
C107.29 6.41 107.11 5.69 106.73 5.07
C106.36 4.44 105.86 4.00 105.25 3.73
C104.63 3.46 103.74 3.33 102.56 3.33
Z
M109.70 5.73
L108.09 6.38
L108.17 6.59
C108.33 6.53 108.46 6.50 108.57 6.50
C108.67 6.50 108.75 6.53 108.81 6.58
C108.87 6.62 108.91 6.71 108.94 6.83
C108.97 7.00 108.99 7.38 108.99 7.96
L108.99 10.01
C108.99 10.34 108.96 10.56 108.91 10.68
C108.86 10.79 108.79 10.88 108.70 10.93
C108.61 10.98 108.43 11.00 108.17 11.00
L108.17 11.21
L110.76 11.21
L110.76 11.00
C110.51 11.00 110.34 10.98 110.24 10.92
C110.15 10.87 110.07 10.79 110.03 10.68
C109.98 10.56 109.95 10.34 109.95 10.01
L109.95 5.73
Z
M113.63 5.73
C113.01 5.73 112.53 5.87 112.19 6.15
C111.85 6.43 111.68 6.73 111.68 7.07
C111.68 7.24 111.72 7.38 111.82 7.48
C111.91 7.58 112.02 7.63 112.17 7.63
C112.31 7.63 112.43 7.58 112.52 7.49
C112.62 7.39 112.66 7.25 112.66 7.07
L112.65 6.74
C112.65 6.56 112.72 6.41 112.87 6.28
C113.01 6.15 113.21 6.08 113.45 6.08
C113.77 6.08 114.02 6.18 114.19 6.38
C114.36 6.58 114.44 6.94 114.44 7.47
L114.44 7.68
C113.53 8.02 112.87 8.30 112.48 8.53
C112.08 8.76 111.81 9.01 111.65 9.28
C111.53 9.47 111.48 9.69 111.48 9.95
C111.48 10.36 111.59 10.69 111.83 10.95
C112.07 11.20 112.37 11.32 112.74 11.32
C112.98 11.32 113.20 11.27 113.41 11.18
C113.55 11.11 113.89 10.87 114.44 10.45
C114.44 10.76 114.50 10.99 114.62 11.12
C114.73 11.25 114.88 11.32 115.07 11.32
C115.46 11.32 115.88 11.03 116.31 10.45
L116.31 10.12
C116.08 10.35 115.92 10.49 115.84 10.54
C115.80 10.57 115.74 10.58 115.68 10.58
C115.62 10.58 115.57 10.57 115.53 10.53
C115.48 10.49 115.45 10.41 115.43 10.30
C115.41 10.18 115.40 9.87 115.40 9.36
L115.40 7.55
C115.40 7.04 115.37 6.70 115.30 6.53
C115.19 6.28 115.02 6.09 114.79 5.97
C114.49 5.81 114.10 5.73 113.63 5.73
Z
M127.29 3.16
C126.87 3.16 126.43 3.25 125.95 3.42
C125.46 3.59 124.96 3.92 124.44 4.41
C123.91 4.91 123.51 5.47 123.22 6.11
C122.94 6.74 122.80 7.41 122.80 8.12
C122.80 9.22 123.17 10.12 123.90 10.82
C124.28 11.17 124.74 11.35 125.28 11.35
C126.07 11.35 126.70 11.02 127.18 10.36
C127.58 9.82 127.78 9.22 127.78 8.56
C127.78 7.88 127.59 7.32 127.19 6.89
C126.79 6.45 126.33 6.23 125.79 6.23
C125.23 6.23 124.67 6.43 124.11 6.81
C124.25 6.28 124.42 5.82 124.63 5.44
C124.84 5.05 125.10 4.70 125.41 4.39
C125.73 4.07 126.05 3.84 126.37 3.68
C126.70 3.53 127.11 3.43 127.63 3.38
L127.63 3.16
Z
M117.82 10.08
C117.65 10.08 117.49 10.15 117.37 10.27
C117.24 10.39 117.18 10.55 117.18 10.73
C117.18 10.91 117.24 11.06 117.37 11.19
C117.49 11.31 117.65 11.38 117.82 11.38
C118.00 11.38 118.15 11.31 118.28 11.19
C118.41 11.06 118.47 10.91 118.47 10.73
C118.47 10.55 118.41 10.40 118.28 10.27
C118.16 10.15 118.01 10.08 117.82 10.08
Z
" fill="black" fill-rule="nonzero" />
</g>
</g>
</svg>
