<?xml version="1.0" encoding="utf-8" standalone="no"?>
<!DOCTYPE svg PUBLIC "-//W3C//DTD SVG 1.0//EN" "http://www.w3.org/TR/SVG/DTD/svg11.dtd" >
<svg version="1.1" baseProfile="full"  width="319.13385" height="338.46454" viewBox="0 0 229.77638 243.69449" preserveAspectRatio="xMidYMid" xmlns="http://www.w3.org/2000/svg" >

<g lengthAdjust="spacingAndGlyphs" xml:space='preserve' >
<g  transform="translate(1.19,1.19)" >
<path d="
M0.0 0.0
L0.0 227.39
L227.39 227.39
L227.39 0.0
Z
" fill="none" fill-rule="nonzero" />
<line x1="6.54" y1="6.54" x2="6.54" y2="220.84" fill="none" stroke="black" stroke-width="0.87px" stroke-linecap="square" />
<line x1="18.45" y1="6.54" x2="18.45" y2="220.84" fill="none" stroke="black" stroke-width="0.25px" stroke-linecap="butt" />
<line x1="30.35" y1="6.54" x2="30.35" y2="220.84" fill="none" stroke="black" stroke-width="0.25px" stroke-linecap="butt" />
<line x1="42.26" y1="6.54" x2="42.26" y2="220.84" fill="none" stroke="black" stroke-width="0.25px" stroke-linecap="butt" />
<line x1="54.17" y1="6.54" x2="54.17" y2="220.84" fill="none" stroke="black" stroke-width="0.25px" stroke-linecap="butt" />
<line x1="66.07" y1="6.54" x2="66.07" y2="220.84" fill="none" stroke="black" stroke-width="0.25px" stroke-linecap="butt" />
<line x1="77.98" y1="6.54" x2="77.98" y2="220.84" fill="none" stroke="black" stroke-width="0.25px" stroke-linecap="butt" />
<line x1="89.88" y1="6.54" x2="89.88" y2="220.84" fill="none" stroke="black" stroke-width="0.25px" stroke-linecap="butt" />
<line x1="101.79" y1="6.54" x2="101.79" y2="220.84" fill="none" stroke="black" stroke-width="0.25px" stroke-linecap="butt" />
<line x1="113.69" y1="6.54" x2="113.69" y2="220.84" fill="none" stroke="black" stroke-width="0.25px" stroke-linecap="butt" />
<line x1="125.60" y1="6.54" x2="125.60" y2="220.84" fill="none" stroke="black" stroke-width="0.25px" stroke-linecap="butt" />
<line x1="137.50" y1="6.54" x2="137.50" y2="220.84" fill="none" stroke="black" stroke-width="0.25px" stroke-linecap="butt" />
<line x1="149.41" y1="6.54" x2="149.41" y2="220.84" fill="none" stroke="black" stroke-width="0.25px" stroke-linecap="butt" />
<line x1="161.31" y1="6.54" x2="161.31" y2="220.84" fill="none" stroke="black" stroke-width="0.25px" stroke-linecap="butt" />
<line x1="173.22" y1="6.54" x2="173.22" y2="220.84" fill="none" stroke="black" stroke-width="0.25px" stroke-linecap="butt" />
<line x1="185.13" y1="6.54" x2="185.13" y2="220.84" fill="none" stroke="black" stroke-width="0.25px" stroke-linecap="butt" />
<line x1="197.03" y1="6.54" x2="197.03" y2="220.84" fill="none" stroke="black" stroke-width="0.25px" stroke-linecap="butt" />
<line x1="208.94" y1="6.54" x2="208.94" y2="220.84" fill="none" stroke="black" stroke-width="0.25px" stroke-linecap="butt" />
<line x1="220.84" y1="6.54" x2="220.84" y2="220.84" fill="none" stroke="black" stroke-width="0.87px" stroke-linecap="square" />
<line x1="6.54" y1="6.54" x2="220.84" y2="6.54" fill="none" stroke="black" stroke-width="0.87px" stroke-linecap="square" />
<line x1="6.54" y1="18.45" x2="220.84" y2="18.45" fill="none" stroke="black" stroke-width="0.25px" stroke-linecap="butt" />
<line x1="6.54" y1="30.35" x2="220.84" y2="30.35" fill="none" stroke="black" stroke-width="0.25px" stroke-linecap="butt" />
<line x1="6.54" y1="42.26" x2="220.84" y2="42.26" fill="none" stroke="black" stroke-width="0.25px" stroke-linecap="butt" />
<line x1="6.54" y1="54.17" x2="220.84" y2="54.17" fill="none" stroke="black" stroke-width="0.25px" stroke-linecap="butt" />
<line x1="6.54" y1="66.07" x2="220.84" y2="66.07" fill="none" stroke="black" stroke-width="0.25px" stroke-linecap="butt" />
<line x1="6.54" y1="77.98" x2="220.84" y2="77.98" fill="none" stroke="black" stroke-width="0.25px" stroke-linecap="butt" />
<line x1="6.54" y1="89.88" x2="220.84" y2="89.88" fill="none" stroke="black" stroke-width="0.25px" stroke-linecap="butt" />
<line x1="6.54" y1="101.79" x2="220.84" y2="101.79" fill="none" stroke="black" stroke-width="0.25px" stroke-linecap="butt" />
<line x1="6.54" y1="113.69" x2="220.84" y2="113.69" fill="none" stroke="black" stroke-width="0.25px" stroke-linecap="butt" />
<line x1="6.54" y1="125.60" x2="220.84" y2="125.60" fill="none" stroke="black" stroke-width="0.25px" stroke-linecap="butt" />
<line x1="6.54" y1="137.50" x2="220.84" y2="137.50" fill="none" stroke="black" stroke-width="0.25px" stroke-linecap="butt" />
<line x1="6.54" y1="149.41" x2="220.84" y2="149.41" fill="none" stroke="black" stroke-width="0.25px" stroke-linecap="butt" />
<line x1="6.54" y1="161.31" x2="220.84" y2="161.31" fill="none" stroke="black" stroke-width="0.25px" stroke-linecap="butt" />
<line x1="6.54" y1="173.22" x2="220.84" y2="173.22" fill="none" stroke="black" stroke-width="0.25px" stroke-linecap="butt" />
<line x1="6.54" y1="185.13" x2="220.84" y2="185.13" fill="none" stroke="black" stroke-width="0.25px" stroke-linecap="butt" />
<line x1="6.54" y1="197.03" x2="220.84" y2="197.03" fill="none" stroke="black" stroke-width="0.25px" stroke-linecap="butt" />
<line x1="6.54" y1="208.94" x2="220.84" y2="208.94" fill="none" stroke="black" stroke-width="0.25px" stroke-linecap="butt" />
<line x1="6.54" y1="220.84" x2="220.84" y2="220.84" fill="none" stroke="black" stroke-width="0.87px" stroke-linecap="square" />
<circle cx="30.35" cy="54.17" r="5.98" fill="black"/>
<circle cx="30.35" cy="89.88" r="5.85" fill="white"/>
<circle cx="30.35" cy="89.88" r="5.85" fill="none" stroke="black" stroke-width="0.25px"/>
<circle cx="30.35" cy="125.60" r="5.85" fill="white"/>
<circle cx="30.35" cy="125.60" r="5.85" fill="none" stroke="black" stroke-width="0.25px"/>
<circle cx="30.35" cy="161.31" r="5.85" fill="white"/>
<circle cx="30.35" cy="161.31" r="5.85" fill="none" stroke="black" stroke-width="0.25px"/>
<circle cx="42.26" cy="30.35" r="5.85" fill="white"/>
<circle cx="42.26" cy="30.35" r="5.85" fill="none" stroke="black" stroke-width="0.25px"/>
<circle cx="42.26" cy="42.26" r="1.27" fill="black"/>
<circle cx="42.26" cy="77.98" r="5.85" fill="white"/>
<circle cx="42.26" cy="77.98" r="5.85" fill="none" stroke="black" stroke-width="0.25px"/>
<circle cx="42.26" cy="89.88" r="5.98" fill="black"/>
<circle cx="42.26" cy="101.79" r="5.85" fill="white"/>
<circle cx="42.26" cy="101.79" r="5.85" fill="none" stroke="black" stroke-width="0.25px"/>
<circle cx="42.26" cy="113.69" r="1.27" fill="black"/>
<circle cx="42.26" cy="185.13" r="5.98" fill="black"/>
<circle cx="54.17" cy="66.07" r="5.98" fill="black"/>
<circle cx="54.17" cy="77.98" r="5.98" fill="black"/>
<circle cx="54.17" cy="89.88" r="5.98" fill="black"/>
<circle cx="66.07" cy="197.03" r="5.98" fill="black"/>
<circle cx="77.98" cy="30.35" r="5.85" fill="white"/>
<circle cx="77.98" cy="30.35" r="5.85" fill="none" stroke="black" stroke-width="0.25px"/>
<circle cx="113.69" cy="42.26" r="1.27" fill="black"/>
<circle cx="113.69" cy="113.69" r="1.27" fill="black"/>
<circle cx="113.69" cy="185.13" r="1.27" fill="black"/>
<circle cx="149.41" cy="185.13" r="5.85" fill="white"/>
<circle cx="149.41" cy="185.13" r="5.85" fill="none" stroke="black" stroke-width="0.25px"/>
<circle cx="149.41" cy="197.03" r="5.98" fill="black"/>
<circle cx="161.31" cy="197.03" r="5.85" fill="white"/>
<circle cx="161.31" cy="197.03" r="5.85" fill="none" stroke="black" stroke-width="0.25px"/>
<circle cx="161.31" cy="208.94" r="5.85" fill="white"/>
<circle cx="161.31" cy="208.94" r="5.85" fill="none" stroke="black" stroke-width="0.25px"/>
<circle cx="173.22" cy="173.22" r="5.85" fill="white"/>
<circle cx="173.22" cy="173.22" r="5.85" fill="none" stroke="black" stroke-width="0.25px"/>
<circle cx="173.22" cy="185.13" r="5.85" fill="white"/>
<circle cx="173.22" cy="185.13" r="5.85" fill="none" stroke="black" stroke-width="0.25px"/>
<circle cx="173.22" cy="197.03" r="5.98" fill="black"/>
<circle cx="173.22" cy="208.94" r="5.98" fill="black"/>
<circle cx="185.13" cy="42.26" r="5.98" fill="black"/>
<circle cx="185.13" cy="113.69" r="1.27" fill="black"/>
<circle cx="185.13" cy="173.22" r="5.85" fill="white"/>
<circle cx="185.13" cy="173.22" r="5.85" fill="none" stroke="black" stroke-width="0.25px"/>
<circle cx="185.13" cy="185.13" r="5.98" fill="black"/>
<circle cx="185.13" cy="197.03" r="5.85" fill="white"/>
<circle cx="185.13" cy="197.03" r="5.85" fill="none" stroke="black" stroke-width="0.25px"/>
<circle cx="185.13" cy="208.94" r="5.98" fill="black"/>
<circle cx="197.03" cy="89.88" r="5.98" fill="black"/>
<circle cx="197.03" cy="113.69" r="5.85" fill="white"/>
<circle cx="197.03" cy="113.69" r="5.85" fill="none" stroke="black" stroke-width="0.25px"/>
<circle cx="197.03" cy="137.50" r="5.85" fill="white"/>
<circle cx="197.03" cy="137.50" r="5.85" fill="none" stroke="black" stroke-width="0.25px"/>
<circle cx="197.03" cy="173.22" r="5.98" fill="black"/>
<circle cx="197.03" cy="185.13" r="5.98" fill="black"/>
<path d="
M28.34 50.55
L28.34 50.69
L28.34 51.52
L28.34 51.66
L31.03 51.66
C30.73 52.13 30.44 52.66 30.17 53.28
C29.86 54.00 29.61 54.75 29.43 55.55
C29.25 56.34 29.16 57.04 29.15 57.64
L29.14 57.78
L30.02 57.78
L30.15 57.78
L30.16 57.65
C30.22 56.52 30.46 55.38 30.88 54.24
C31.30 53.09 31.78 52.16 32.33 51.45
L32.36 51.41
L32.36 51.36
L32.36 50.69
L32.36 50.55
Z
" fill="white" fill-rule="nonzero" />
<path d="
M32.18 89.55
C32.43 89.55 32.65 89.69 32.82 89.97
C33.00 90.25 33.09 90.64 33.09 91.14
C33.09 91.66 33.00 92.06 32.82 92.36
C32.64 92.65 32.44 92.80 32.22 92.80
C31.96 92.80 31.73 92.64 31.54 92.33
C31.35 92.02 31.25 91.60 31.25 91.09
C31.25 90.62 31.34 90.24 31.53 89.96
C31.71 89.69 31.93 89.55 32.18 89.55
Z
M28.77 86.25
C28.67 86.56 28.50 86.88 28.26 87.20
C28.02 87.53 27.74 87.81 27.42 88.03
L27.42 88.88
C27.61 88.77 27.81 88.62 28.04 88.42
C28.26 88.22 28.44 88.02 28.57 87.82
L28.57 93.40
L29.15 93.40
L29.15 86.25
Z
M32.26 86.25
C31.77 86.25 31.37 86.54 31.06 87.12
C30.74 87.71 30.59 88.69 30.59 90.06
C30.59 91.30 30.74 92.19 31.05 92.72
C31.35 93.25 31.74 93.52 32.21 93.52
C32.47 93.52 32.71 93.43 32.93 93.24
C33.15 93.06 33.33 92.77 33.47 92.38
C33.60 92.00 33.67 91.57 33.67 91.09
C33.67 90.39 33.54 89.82 33.26 89.41
C32.98 88.99 32.66 88.78 32.29 88.78
C32.07 88.78 31.86 88.86 31.66 89.02
C31.46 89.18 31.29 89.41 31.16 89.72
C31.16 88.85 31.25 88.19 31.42 87.74
C31.63 87.22 31.89 86.96 32.23 86.96
C32.44 86.96 32.63 87.08 32.78 87.30
C32.89 87.46 32.97 87.72 33.02 88.09
L33.59 88.02
C33.54 87.44 33.39 87.00 33.15 86.70
C32.91 86.40 32.62 86.25 32.26 86.25
Z
" fill="black" fill-rule="nonzero" />
<path d="
M32.15 122.68
C32.35 122.68 32.53 122.79 32.68 123.00
C32.84 123.21 32.91 123.48 32.91 123.82
C32.91 124.14 32.84 124.41 32.69 124.61
C32.54 124.81 32.36 124.92 32.15 124.92
C31.94 124.92 31.76 124.81 31.61 124.60
C31.46 124.40 31.39 124.12 31.39 123.77
C31.39 123.46 31.46 123.20 31.61 122.99
C31.76 122.78 31.94 122.68 32.15 122.68
Z
M32.14 125.63
C32.40 125.63 32.63 125.76 32.82 126.03
C33.01 126.30 33.10 126.65 33.10 127.09
C33.10 127.52 33.01 127.87 32.83 128.13
C32.64 128.39 32.42 128.52 32.15 128.52
C31.89 128.52 31.67 128.38 31.48 128.11
C31.29 127.85 31.20 127.50 31.20 127.06
C31.20 126.64 31.29 126.29 31.47 126.03
C31.65 125.76 31.88 125.63 32.14 125.63
Z
M28.77 121.96
C28.67 122.27 28.50 122.59 28.26 122.92
C28.02 123.25 27.74 123.52 27.42 123.75
L27.42 124.59
C27.61 124.49 27.81 124.34 28.04 124.14
C28.26 123.93 28.44 123.73 28.57 123.54
L28.57 129.11
L29.15 129.11
L29.15 121.96
Z
M32.14 121.96
C31.76 121.96 31.44 122.13 31.18 122.47
C30.92 122.81 30.80 123.25 30.80 123.79
C30.80 124.15 30.86 124.45 30.97 124.69
C31.09 124.94 31.27 125.12 31.50 125.25
C31.22 125.36 31.00 125.57 30.85 125.88
C30.69 126.19 30.61 126.58 30.61 127.06
C30.61 127.71 30.76 128.23 31.05 128.63
C31.35 129.03 31.71 129.23 32.15 129.23
C32.59 129.23 32.95 129.03 33.25 128.63
C33.54 128.23 33.69 127.72 33.69 127.08
C33.69 126.62 33.61 126.24 33.46 125.93
C33.31 125.62 33.09 125.39 32.81 125.25
C33.04 125.12 33.21 124.93 33.33 124.69
C33.44 124.46 33.50 124.17 33.50 123.82
C33.50 123.28 33.37 122.83 33.11 122.48
C32.85 122.13 32.53 121.96 32.14 121.96
Z
" fill="black" fill-rule="nonzero" />
<path d="
M32.45 159.17
L32.45 162.38
L30.99 162.38
L32.45 159.17
Z
M28.77 157.74
C28.67 158.05 28.50 158.37 28.26 158.70
C28.02 159.02 27.74 159.30 27.42 159.53
L27.42 160.37
C27.61 160.27 27.81 160.12 28.04 159.91
C28.26 159.71 28.44 159.51 28.57 159.32
L28.57 164.89
L29.15 164.89
L29.15 157.74
Z
M32.56 157.77
L30.43 162.38
L30.43 163.19
L32.45 163.19
L32.45 164.89
L33.03 164.89
L33.03 163.19
L33.66 163.19
L33.66 162.38
L33.03 162.38
L33.03 157.77
Z
" fill="black" fill-rule="nonzero" />
<path d="
M42.27 26.82
C41.73 26.82 41.30 26.99 40.97 27.33
C40.64 27.67 40.44 28.18 40.39 28.86
L41.12 28.95
C41.12 28.49 41.23 28.14 41.44 27.90
C41.65 27.66 41.92 27.54 42.25 27.54
C42.56 27.54 42.82 27.65 43.03 27.87
C43.23 28.10 43.34 28.39 43.34 28.75
C43.34 29.06 43.24 29.40 43.03 29.76
C42.83 30.12 42.39 30.63 41.73 31.29
C41.17 31.85 40.78 32.34 40.56 32.76
C40.35 33.17 40.25 33.55 40.26 33.89
L44.07 33.89
L44.07 33.06
L41.24 33.06
C41.32 32.90 41.42 32.74 41.54 32.59
C41.67 32.43 41.94 32.13 42.36 31.70
C43.02 31.02 43.47 30.47 43.71 30.06
C43.95 29.65 44.06 29.22 44.06 28.77
C44.06 28.26 43.91 27.81 43.61 27.42
C43.31 27.02 42.86 26.82 42.27 26.82
Z
" fill="black" fill-rule="nonzero" />
<path d="
M42.23 75.09
C42.49 75.09 42.71 75.20 42.90 75.41
C43.08 75.62 43.18 75.89 43.18 76.22
C43.18 76.54 43.09 76.80 42.90 77.00
C42.72 77.20 42.50 77.30 42.24 77.30
C41.98 77.30 41.75 77.20 41.57 76.99
C41.39 76.79 41.30 76.51 41.30 76.17
C41.30 75.86 41.39 75.61 41.57 75.40
C41.76 75.20 41.98 75.09 42.23 75.09
Z
M42.22 78.01
C42.55 78.01 42.83 78.14 43.06 78.40
C43.29 78.67 43.41 79.02 43.41 79.45
C43.41 79.88 43.30 80.22 43.07 80.47
C42.84 80.73 42.57 80.86 42.24 80.86
C41.92 80.86 41.64 80.73 41.41 80.46
C41.18 80.20 41.06 79.85 41.06 79.42
C41.06 79.00 41.17 78.66 41.40 78.40
C41.62 78.14 41.90 78.01 42.22 78.01
Z
M42.23 74.38
C41.75 74.38 41.35 74.55 41.04 74.89
C40.72 75.22 40.57 75.66 40.57 76.19
C40.57 76.55 40.64 76.84 40.78 77.08
C40.93 77.32 41.14 77.50 41.43 77.63
C41.09 77.74 40.82 77.95 40.63 78.25
C40.43 78.56 40.34 78.95 40.34 79.42
C40.34 80.06 40.52 80.58 40.88 80.98
C41.24 81.37 41.70 81.57 42.24 81.57
C42.78 81.57 43.23 81.37 43.59 80.98
C43.96 80.58 44.14 80.07 44.14 79.44
C44.14 78.99 44.04 78.61 43.86 78.30
C43.67 77.99 43.40 77.77 43.05 77.63
C43.34 77.50 43.55 77.32 43.69 77.08
C43.83 76.85 43.90 76.56 43.90 76.22
C43.90 75.68 43.74 75.24 43.42 74.90
C43.11 74.55 42.71 74.38 42.23 74.38
Z
" fill="black" fill-rule="nonzero" />
<path d="
M40.57 86.10
L40.54 86.20
C40.45 86.50 40.29 86.80 40.05 87.12
C39.82 87.43 39.55 87.70 39.25 87.92
L39.19 87.96
L39.19 88.03
L39.19 88.88
L39.19 89.12
L39.40 89.00
C39.59 88.89 39.81 88.73 40.04 88.52
C40.15 88.42 40.25 88.32 40.33 88.23
L40.33 88.23
L40.33 93.39
L40.33 93.54
L41.19 93.54
L41.19 93.39
L41.19 86.24
L41.19 86.10
Z
M43.99 86.10
C43.59 86.10 43.24 86.27 42.96 86.62
C42.69 86.95 42.52 87.44 42.44 88.07
L42.43 88.19
L42.55 88.23
L43.12 88.38
L43.28 88.43
L43.29 88.26
C43.33 87.85 43.42 87.55 43.56 87.36
C43.68 87.19 43.83 87.10 44.00 87.10
C44.00 87.10 44.00 87.10 44.00 87.10
C44.00 87.10 44.00 87.10 44.00 87.10
C44.17 87.10 44.31 87.19 44.43 87.35
C44.56 87.53 44.62 87.77 44.62 88.07
C44.62 88.40 44.54 88.66 44.39 88.85
C44.24 89.03 44.05 89.12 43.82 89.12
L43.82 89.12
L43.74 89.11
L43.59 89.10
L43.58 89.24
L43.51 90.01
L43.49 90.24
L43.49 90.24
L43.71 90.15
C43.85 90.10 43.97 90.07 44.06 90.07
C44.06 90.07 44.06 90.07 44.06 90.07
C44.06 90.07 44.06 90.07 44.06 90.07
C44.27 90.07 44.45 90.17 44.59 90.39
C44.75 90.61 44.83 90.92 44.83 91.31
C44.83 91.72 44.74 92.05 44.57 92.30
C44.41 92.54 44.22 92.65 44.01 92.65
C44.01 92.65 44.01 92.65 44.00 92.65
C44.00 92.65 44.00 92.65 44.00 92.65
C43.81 92.65 43.66 92.56 43.53 92.37
C43.39 92.15 43.30 91.82 43.24 91.38
L43.22 91.23
L43.07 91.26
L42.50 91.38
L42.37 91.40
L42.38 91.52
C42.42 92.16 42.59 92.68 42.89 93.06
C43.19 93.46 43.57 93.66 44.01 93.66
C44.49 93.66 44.90 93.43 45.23 92.98
C45.56 92.54 45.72 91.98 45.72 91.29
C45.72 90.97 45.68 90.68 45.61 90.41
C45.53 90.15 45.42 89.93 45.28 89.77
C45.20 89.66 45.09 89.57 44.97 89.50
L44.97 89.50
C45.11 89.37 45.23 89.20 45.31 89.01
C45.43 88.74 45.50 88.43 45.50 88.09
C45.49 87.53 45.35 87.06 45.07 86.68
C44.78 86.30 44.42 86.10 43.99 86.10
Z
" fill="white" fill-rule="nonzero" />
<path d="
M40.68 98.21
C40.58 98.52 40.41 98.84 40.17 99.17
C39.92 99.50 39.65 99.77 39.33 100.00
L39.33 100.84
C39.52 100.74 39.72 100.59 39.94 100.39
C40.17 100.18 40.34 99.98 40.48 99.79
L40.48 105.36
L41.05 105.36
L41.05 98.21
Z
M44.09 98.21
C43.65 98.21 43.30 98.38 43.03 98.73
C42.76 99.07 42.60 99.59 42.56 100.27
L43.15 100.36
C43.15 99.90 43.24 99.55 43.41 99.30
C43.58 99.06 43.80 98.94 44.07 98.94
C44.32 98.94 44.52 99.05 44.69 99.28
C44.86 99.51 44.95 99.80 44.95 100.16
C44.95 100.48 44.87 100.82 44.70 101.18
C44.53 101.55 44.18 102.06 43.65 102.73
C43.19 103.30 42.87 103.80 42.70 104.22
C42.53 104.64 42.45 105.02 42.45 105.36
L45.54 105.36
L45.54 104.52
L43.25 104.52
C43.31 104.36 43.39 104.20 43.49 104.05
C43.59 103.89 43.81 103.59 44.16 103.15
C44.69 102.46 45.06 101.90 45.25 101.49
C45.44 101.07 45.54 100.64 45.54 100.18
C45.54 99.67 45.41 99.22 45.17 98.81
C44.92 98.41 44.56 98.21 44.09 98.21
Z
" fill="black" fill-rule="nonzero" />
<path d="
M42.16 181.39
C41.68 181.39 41.26 181.56 40.92 181.89
C40.59 182.22 40.37 182.70 40.28 183.33
L40.26 183.46
L40.39 183.49
L41.09 183.65
L41.24 183.68
L41.26 183.53
C41.31 183.13 41.42 182.84 41.59 182.65
C41.74 182.47 41.94 182.38 42.17 182.38
C42.17 182.38 42.17 182.38 42.17 182.38
C42.17 182.38 42.17 182.38 42.17 182.38
C42.39 182.38 42.58 182.47 42.73 182.64
C42.89 182.81 42.97 183.04 42.97 183.34
C42.97 183.65 42.87 183.91 42.68 184.09
C42.49 184.28 42.25 184.37 41.94 184.37
L41.94 184.37
L41.84 184.37
L41.70 184.35
L41.68 184.49
L41.60 185.25
L41.58 185.47
L41.58 185.47
L41.78 185.40
C41.97 185.34 42.12 185.31 42.24 185.31
C42.24 185.31 42.24 185.31 42.24 185.31
C42.24 185.31 42.24 185.31 42.24 185.31
C42.52 185.31 42.75 185.42 42.94 185.64
C43.13 185.86 43.23 186.16 43.23 186.53
C43.23 186.93 43.12 187.26 42.91 187.50
C42.70 187.74 42.46 187.86 42.18 187.86
C42.18 187.86 42.17 187.86 42.17 187.86
C42.17 187.86 42.17 187.86 42.17 187.86
C41.92 187.86 41.71 187.77 41.56 187.57
C41.38 187.36 41.26 187.04 41.19 186.60
L41.17 186.46
L41.03 186.48
L40.32 186.60
L40.19 186.62
L40.20 186.75
C40.25 187.39 40.46 187.90 40.83 188.28
C41.20 188.67 41.65 188.86 42.18 188.86
C42.76 188.86 43.25 188.64 43.65 188.20
C44.06 187.76 44.26 187.20 44.26 186.52
C44.26 186.20 44.21 185.90 44.12 185.64
C44.02 185.38 43.88 185.16 43.72 185.00
C43.61 184.90 43.49 184.81 43.35 184.75
L43.35 184.75
C43.52 184.62 43.65 184.46 43.75 184.27
C43.90 184.01 43.98 183.70 43.98 183.35
C43.98 182.79 43.80 182.32 43.45 181.95
C43.10 181.58 42.67 181.39 42.16 181.39
Z
" fill="white" fill-rule="nonzero" />
<path d="
M54.14 63.33
C54.14 63.33 54.15 63.33 54.15 63.33
C54.15 63.33 54.15 63.33 54.15 63.33
C54.39 63.33 54.61 63.46 54.81 63.71
C55.01 63.97 55.11 64.34 55.11 64.81
C55.11 65.28 55.01 65.64 54.82 65.89
C54.63 66.13 54.40 66.25 54.13 66.25
C54.13 66.25 54.13 66.25 54.13 66.25
C54.13 66.25 54.13 66.25 54.13 66.25
C53.86 66.25 53.62 66.13 53.42 65.89
C53.22 65.65 53.12 65.31 53.12 64.88
C53.12 64.40 53.23 64.02 53.44 63.74
C53.65 63.47 53.89 63.33 54.14 63.33
Z
M54.06 62.34
C53.52 62.34 53.05 62.57 52.67 63.02
C52.29 63.47 52.10 64.08 52.10 64.85
C52.10 65.60 52.29 66.19 52.65 66.63
C53.02 67.08 53.46 67.30 53.97 67.30
C54.26 67.30 54.54 67.21 54.82 67.03
C54.95 66.93 55.07 66.83 55.18 66.70
L55.18 66.70
C55.16 67.12 55.10 67.48 55.00 67.81
C54.87 68.19 54.72 68.46 54.55 68.60
C54.38 68.74 54.20 68.81 53.99 68.81
C53.99 68.81 53.99 68.81 53.99 68.81
C53.99 68.81 53.99 68.81 53.99 68.81
C53.77 68.81 53.59 68.73 53.46 68.58
C53.32 68.42 53.22 68.16 53.17 67.82
L53.15 67.68
L53.02 67.70
L52.34 67.78
L52.20 67.79
L52.21 67.93
C52.27 68.53 52.46 68.99 52.78 69.31
C53.10 69.64 53.50 69.80 53.98 69.80
C54.40 69.80 54.78 69.67 55.11 69.40
C55.45 69.14 55.71 68.73 55.90 68.17
C56.09 67.62 56.18 66.85 56.18 65.87
C56.18 64.99 56.10 64.31 55.92 63.83
C55.74 63.34 55.49 62.97 55.15 62.72
C54.82 62.46 54.45 62.34 54.06 62.34
Z
" fill="white" fill-rule="nonzero" />
<path d="
M52.48 74.26
L52.45 74.36
C52.35 74.65 52.19 74.96 51.96 75.27
C51.72 75.59 51.46 75.85 51.15 76.07
L51.09 76.12
L51.09 76.19
L51.09 77.03
L51.09 77.27
L51.30 77.16
C51.50 77.05 51.71 76.89 51.94 76.68
C52.05 76.58 52.15 76.48 52.24 76.39
L52.24 76.39
L52.24 81.55
L52.24 81.69
L53.10 81.69
L53.10 81.55
L53.10 74.40
L53.10 74.26
Z
M56.11 74.26
L56.08 74.36
C55.98 74.65 55.82 74.96 55.59 75.27
C55.35 75.59 55.09 75.85 54.78 76.07
L54.72 76.12
L54.72 76.19
L54.72 77.03
L54.72 77.27
L54.93 77.16
C55.13 77.05 55.34 76.89 55.57 76.68
C55.68 76.58 55.78 76.48 55.87 76.39
L55.87 76.39
L55.87 81.55
L55.87 81.69
L56.73 81.69
L56.73 81.55
L56.73 74.40
L56.73 74.26
Z
" fill="white" fill-rule="nonzero" />
<path d="
M52.48 86.16
L52.45 86.26
C52.35 86.56 52.19 86.86 51.96 87.18
C51.72 87.49 51.46 87.76 51.15 87.98
L51.09 88.02
L51.09 88.09
L51.09 88.94
L51.09 89.18
L51.30 89.06
C51.50 88.95 51.71 88.79 51.94 88.58
C52.05 88.49 52.15 88.39 52.24 88.29
L52.24 88.29
L52.24 93.46
L52.24 93.60
L53.10 93.60
L53.10 93.46
L53.10 86.31
L53.10 86.16
Z
M54.32 86.29
L54.32 86.43
L54.32 87.27
L54.32 87.41
L56.51 87.41
C56.26 87.88 56.02 88.43 55.80 89.06
C55.55 89.78 55.35 90.55 55.21 91.35
C55.06 92.15 54.98 92.85 54.98 93.46
L54.97 93.60
L55.71 93.60
L55.84 93.60
L55.85 93.46
C55.90 92.32 56.10 91.17 56.43 90.01
C56.77 88.84 57.16 87.90 57.61 87.18
L57.63 87.15
L57.63 87.11
L57.63 86.43
L57.63 86.29
Z
" fill="white" fill-rule="nonzero" />
<path d="
M67.28 195.91
L67.28 195.91
L67.28 195.91
C67.28 195.91 67.28 195.91 67.28 195.91
Z
M64.39 193.25
L64.35 193.35
C64.26 193.65 64.10 193.95 63.86 194.27
C63.63 194.58 63.36 194.85 63.06 195.07
L63.00 195.11
L63.00 195.18
L63.00 196.03
L63.00 196.27
L63.21 196.15
C63.41 196.04 63.62 195.88 63.85 195.67
C63.96 195.57 64.06 195.48 64.15 195.38
L64.15 195.38
L64.15 200.55
L64.15 200.69
L65.00 200.69
L65.00 200.55
L65.00 193.39
L65.00 193.25
Z
M66.76 193.38
L66.75 193.50
L66.29 197.16
L66.28 197.29
L66.40 197.32
L66.94 197.43
L67.06 197.45
L67.10 197.34
C67.18 197.15 67.29 197.00 67.42 196.89
C67.55 196.79 67.68 196.74 67.82 196.74
C67.82 196.74 67.82 196.74 67.82 196.74
C67.82 196.74 67.82 196.74 67.82 196.74
C68.06 196.74 68.26 196.86 68.42 197.10
C68.59 197.35 68.68 197.72 68.68 198.20
C68.68 198.71 68.59 199.11 68.41 199.40
C68.24 199.67 68.05 199.81 67.83 199.81
C67.83 199.81 67.82 199.81 67.82 199.81
C67.82 199.81 67.82 199.81 67.82 199.81
C67.65 199.81 67.50 199.72 67.36 199.53
C67.21 199.33 67.12 199.02 67.07 198.59
L67.06 198.44
L66.92 198.46
L66.31 198.54
L66.18 198.56
L66.19 198.69
C66.23 199.34 66.40 199.85 66.70 200.23
C67.00 200.61 67.38 200.81 67.83 200.81
C68.37 200.81 68.80 200.54 69.12 199.99
C69.42 199.47 69.57 198.85 69.57 198.13
C69.57 197.40 69.42 196.81 69.11 196.37
C68.79 195.91 68.42 195.68 67.98 195.68
C67.73 195.68 67.50 195.76 67.28 195.91
L67.28 195.91
L67.47 194.50
L69.35 194.50
L69.35 194.36
L69.35 193.52
L69.35 193.38
Z
" fill="white" fill-rule="nonzero" />
<path d="
M79.74 27.44
C80.02 27.44 80.25 27.64 80.43 28.03
C80.60 28.42 80.69 29.20 80.69 30.36
C80.69 31.50 80.60 32.28 80.43 32.67
C80.25 33.07 80.03 33.27 79.77 33.27
C79.49 33.27 79.27 33.07 79.09 32.68
C78.91 32.29 78.82 31.51 78.82 30.36
C78.82 29.21 78.91 28.44 79.09 28.04
C79.26 27.64 79.48 27.44 79.74 27.44
Z
M76.39 26.72
C76.30 27.03 76.13 27.35 75.88 27.67
C75.64 28.00 75.36 28.28 75.05 28.51
L75.05 29.35
C75.23 29.25 75.44 29.09 75.66 28.89
C75.88 28.69 76.06 28.49 76.19 28.30
L76.19 33.87
L76.77 33.87
L76.77 26.72
Z
M79.76 26.72
C79.26 26.72 78.88 27.03 78.62 27.64
C78.37 28.26 78.24 29.16 78.24 30.36
C78.24 31.69 78.38 32.63 78.66 33.17
C78.95 33.72 79.31 33.99 79.76 33.99
C80.26 33.99 80.64 33.68 80.90 33.07
C81.16 32.45 81.28 31.55 81.28 30.36
C81.28 29.03 81.13 28.07 80.82 27.47
C80.56 26.97 80.21 26.72 79.76 26.72
Z
" fill="black" fill-rule="nonzero" />
<path d="
M151.24 181.49
C150.80 181.49 150.44 181.66 150.18 182.00
C149.91 182.35 149.75 182.86 149.71 183.55
L150.30 183.64
C150.30 183.18 150.39 182.83 150.56 182.58
C150.73 182.33 150.95 182.21 151.22 182.21
C151.47 182.21 151.67 182.32 151.84 182.55
C152.01 182.78 152.10 183.08 152.10 183.44
C152.10 183.75 152.02 184.09 151.85 184.46
C151.68 184.82 151.33 185.34 150.80 186.01
C150.34 186.58 150.02 187.08 149.85 187.50
C149.68 187.92 149.60 188.30 149.60 188.64
L152.69 188.64
L152.69 187.80
L150.40 187.80
C150.46 187.64 150.54 187.48 150.64 187.32
C150.74 187.16 150.96 186.87 151.31 186.43
C151.84 185.73 152.21 185.18 152.40 184.76
C152.59 184.35 152.69 183.91 152.69 183.46
C152.69 182.95 152.56 182.49 152.32 182.09
C152.07 181.69 151.71 181.49 151.24 181.49
Z
M147.51 181.49
C147.15 181.49 146.85 181.64 146.59 181.95
C146.34 182.26 146.17 182.72 146.10 183.33
L146.67 183.49
C146.71 183.06 146.81 182.74 146.96 182.52
C147.11 182.31 147.30 182.21 147.52 182.21
C147.73 182.21 147.91 182.31 148.06 182.51
C148.21 182.71 148.28 182.98 148.28 183.31
C148.28 183.68 148.19 183.97 148.02 184.18
C147.84 184.40 147.61 184.51 147.33 184.51
L147.24 184.50
L147.17 185.27
C147.34 185.20 147.47 185.17 147.58 185.17
C147.84 185.17 148.05 185.30 148.23 185.55
C148.40 185.80 148.49 186.13 148.49 186.55
C148.49 186.99 148.40 187.35 148.20 187.63
C148.01 187.90 147.79 188.04 147.52 188.04
C147.04 188.04 146.74 187.57 146.62 186.64
L146.04 186.76
C146.08 187.37 146.24 187.86 146.52 188.22
C146.79 188.58 147.13 188.76 147.53 188.76
C147.96 188.76 148.33 188.56 148.64 188.14
C148.95 187.72 149.10 187.19 149.10 186.53
C149.10 186.23 149.06 185.95 148.99 185.70
C148.91 185.45 148.82 185.25 148.69 185.10
C148.57 184.95 148.42 184.85 148.23 184.78
C148.43 184.64 148.59 184.44 148.70 184.19
C148.82 183.94 148.87 183.66 148.87 183.33
C148.87 182.80 148.74 182.36 148.48 182.01
C148.21 181.66 147.89 181.49 147.51 181.49
Z
" fill="black" fill-rule="nonzero" />
<path d="
M147.61 193.31
C147.12 193.31 146.73 193.51 146.43 193.89
C146.15 194.25 145.98 194.79 145.94 195.51
L145.93 195.64
L146.06 195.66
L146.65 195.75
L146.81 195.77
L146.81 195.61
C146.81 195.18 146.89 194.85 147.05 194.63
C147.19 194.42 147.37 194.32 147.58 194.32
C147.58 194.32 147.59 194.32 147.59 194.32
C147.59 194.32 147.59 194.32 147.59 194.32
C147.79 194.32 147.96 194.42 148.10 194.61
C148.25 194.81 148.33 195.08 148.33 195.41
C148.33 195.70 148.25 196.02 148.09 196.37
C147.93 196.72 147.59 197.23 147.06 197.88
C146.59 198.47 146.27 198.98 146.09 199.41
C145.91 199.85 145.82 200.25 145.83 200.61
L145.83 200.75
L149.21 200.75
L149.21 200.61
L149.21 199.77
L149.21 199.62
L146.99 199.62
C147.03 199.54 147.08 199.45 147.13 199.37
C147.23 199.21 147.45 198.92 147.79 198.48
C148.33 197.78 148.70 197.22 148.90 196.79
C149.10 196.36 149.20 195.90 149.20 195.43
C149.20 194.89 149.07 194.41 148.81 193.98
C148.54 193.54 148.13 193.32 147.61 193.31
Z
M151.35 193.31
L151.32 193.41
C151.23 193.71 151.07 194.01 150.83 194.33
C150.60 194.64 150.33 194.91 150.03 195.13
L149.97 195.17
L149.97 195.24
L149.97 196.09
L149.97 196.33
L150.18 196.21
C150.37 196.10 150.59 195.94 150.82 195.73
C150.93 195.64 151.03 195.54 151.11 195.44
L151.11 195.44
L151.11 200.61
L151.11 200.75
L151.97 200.75
L151.97 200.61
L151.97 193.46
L151.97 193.31
Z
" fill="white" fill-rule="nonzero" />
<path d="
M163.11 194.11
C163.31 194.11 163.49 194.22 163.64 194.43
C163.80 194.64 163.87 194.92 163.87 195.25
C163.87 195.57 163.80 195.84 163.65 196.04
C163.50 196.25 163.32 196.35 163.11 196.35
C162.90 196.35 162.72 196.25 162.57 196.04
C162.42 195.83 162.35 195.55 162.35 195.20
C162.35 194.89 162.42 194.63 162.57 194.42
C162.72 194.22 162.90 194.11 163.11 194.11
Z
M163.10 197.06
C163.36 197.06 163.59 197.20 163.78 197.46
C163.97 197.73 164.06 198.08 164.06 198.52
C164.06 198.95 163.97 199.30 163.79 199.56
C163.60 199.82 163.38 199.95 163.11 199.95
C162.85 199.95 162.63 199.82 162.44 199.55
C162.25 199.28 162.16 198.93 162.16 198.49
C162.16 198.07 162.25 197.73 162.43 197.46
C162.61 197.20 162.84 197.06 163.10 197.06
Z
M159.51 193.39
C159.07 193.39 158.72 193.57 158.45 193.91
C158.18 194.26 158.03 194.77 157.99 195.45
L158.58 195.55
C158.58 195.09 158.66 194.73 158.84 194.49
C159.01 194.24 159.23 194.12 159.49 194.12
C159.74 194.12 159.95 194.23 160.12 194.46
C160.29 194.69 160.37 194.99 160.37 195.35
C160.37 195.66 160.29 196.00 160.13 196.37
C159.96 196.73 159.61 197.25 159.07 197.91
C158.61 198.49 158.30 198.98 158.13 199.40
C157.95 199.83 157.87 200.21 157.88 200.55
L160.97 200.55
L160.97 199.71
L158.68 199.71
C158.74 199.55 158.82 199.39 158.92 199.23
C159.02 199.07 159.24 198.77 159.58 198.34
C160.12 197.64 160.48 197.09 160.67 196.67
C160.87 196.26 160.96 195.82 160.96 195.37
C160.96 194.86 160.84 194.40 160.59 194.00
C160.35 193.60 159.99 193.39 159.51 193.39
Z
M163.10 193.39
C162.72 193.39 162.40 193.56 162.14 193.90
C161.89 194.25 161.76 194.69 161.76 195.23
C161.76 195.59 161.82 195.89 161.93 196.13
C162.05 196.37 162.23 196.55 162.46 196.68
C162.18 196.79 161.96 197.00 161.81 197.31
C161.65 197.62 161.57 198.02 161.57 198.49
C161.57 199.14 161.72 199.67 162.01 200.07
C162.31 200.47 162.67 200.67 163.11 200.67
C163.55 200.67 163.91 200.47 164.21 200.07
C164.50 199.67 164.65 199.15 164.65 198.52
C164.65 198.06 164.57 197.67 164.42 197.36
C164.27 197.05 164.05 196.82 163.77 196.68
C164.00 196.55 164.17 196.37 164.29 196.13
C164.40 195.89 164.46 195.60 164.46 195.26
C164.46 194.71 164.33 194.26 164.07 193.91
C163.81 193.57 163.49 193.39 163.10 193.39
Z
" fill="black" fill-rule="nonzero" />
<path d="
M163.08 206.02
C163.36 206.02 163.59 206.22 163.77 206.61
C163.94 207.00 164.03 207.78 164.03 208.94
C164.03 210.08 163.94 210.86 163.77 211.25
C163.59 211.65 163.37 211.85 163.11 211.85
C162.83 211.85 162.61 211.65 162.43 211.26
C162.25 210.87 162.16 210.09 162.16 208.94
C162.16 207.79 162.25 207.02 162.42 206.62
C162.60 206.22 162.82 206.02 163.08 206.02
Z
M163.10 205.30
C162.60 205.30 162.22 205.61 161.96 206.22
C161.70 206.84 161.58 207.74 161.58 208.94
C161.58 210.27 161.72 211.21 162.00 211.75
C162.28 212.30 162.65 212.57 163.09 212.57
C163.60 212.57 163.98 212.26 164.24 211.65
C164.49 211.03 164.62 210.13 164.62 208.94
C164.62 207.61 164.47 206.65 164.16 206.05
C163.90 205.55 163.55 205.30 163.10 205.30
Z
M159.42 205.30
C159.06 205.30 158.75 205.45 158.50 205.76
C158.24 206.08 158.08 206.54 158.01 207.14
L158.58 207.30
C158.62 206.87 158.72 206.55 158.87 206.34
C159.02 206.12 159.21 206.02 159.43 206.02
C159.64 206.02 159.82 206.12 159.97 206.32
C160.11 206.52 160.19 206.79 160.19 207.12
C160.19 207.49 160.10 207.78 159.92 207.99
C159.75 208.21 159.52 208.32 159.24 208.32
L159.15 208.31
L159.08 209.08
C159.24 209.01 159.38 208.98 159.48 208.98
C159.74 208.98 159.96 209.11 160.13 209.36
C160.31 209.61 160.40 209.95 160.40 210.36
C160.40 210.80 160.30 211.16 160.11 211.44
C159.92 211.71 159.69 211.85 159.43 211.85
C158.95 211.85 158.64 211.39 158.52 210.45
L157.95 210.57
C157.99 211.18 158.15 211.67 158.42 212.03
C158.70 212.39 159.04 212.58 159.44 212.58
C159.87 212.58 160.24 212.37 160.55 211.95
C160.85 211.54 161.01 211.00 161.01 210.35
C161.01 210.04 160.97 209.76 160.90 209.51
C160.82 209.26 160.72 209.06 160.60 208.91
C160.48 208.76 160.32 208.66 160.14 208.59
C160.34 208.45 160.50 208.25 160.61 208.00
C160.72 207.75 160.78 207.47 160.78 207.14
C160.78 206.61 160.65 206.17 160.38 205.82
C160.12 205.47 159.80 205.30 159.42 205.30
Z
" fill="black" fill-rule="nonzero" />
<path d="
M175.04 172.89
C175.30 172.89 175.51 173.03 175.69 173.31
C175.86 173.58 175.95 173.98 175.95 174.48
C175.95 175.00 175.86 175.40 175.69 175.70
C175.51 175.99 175.31 176.14 175.08 176.14
C174.83 176.14 174.60 175.98 174.41 175.67
C174.21 175.36 174.11 174.94 174.11 174.43
C174.11 173.95 174.21 173.58 174.39 173.30
C174.58 173.03 174.79 172.89 175.04 172.89
Z
M171.42 169.58
C170.98 169.58 170.63 169.76 170.36 170.10
C170.09 170.45 169.93 170.96 169.89 171.64
L170.48 171.74
C170.48 171.28 170.57 170.92 170.74 170.68
C170.91 170.43 171.13 170.31 171.40 170.31
C171.65 170.31 171.86 170.42 172.03 170.65
C172.19 170.88 172.28 171.17 172.28 171.54
C172.28 171.85 172.20 172.19 172.03 172.55
C171.87 172.92 171.51 173.43 170.98 174.10
C170.52 174.68 170.20 175.17 170.03 175.59
C169.86 176.01 169.78 176.40 169.78 176.74
L172.87 176.74
L172.87 175.89
L170.58 175.89
C170.64 175.74 170.72 175.58 170.82 175.42
C170.92 175.26 171.14 174.96 171.49 174.52
C172.02 173.83 172.39 173.28 172.58 172.86
C172.77 172.44 172.87 172.01 172.87 171.56
C172.87 171.04 172.74 170.59 172.50 170.19
C172.25 169.78 171.89 169.58 171.42 169.58
Z
M175.13 169.58
C174.64 169.58 174.24 169.88 173.92 170.46
C173.61 171.05 173.45 172.03 173.45 173.40
C173.45 174.64 173.61 175.53 173.91 176.06
C174.22 176.59 174.61 176.86 175.08 176.86
C175.34 176.86 175.58 176.76 175.80 176.58
C176.01 176.40 176.19 176.11 176.33 175.72
C176.47 175.34 176.54 174.90 176.54 174.43
C176.54 173.72 176.40 173.16 176.13 172.74
C175.85 172.32 175.53 172.11 175.16 172.11
C174.93 172.11 174.72 172.20 174.52 172.36
C174.32 172.52 174.16 172.75 174.02 173.06
C174.03 172.19 174.12 171.53 174.29 171.08
C174.49 170.56 174.76 170.30 175.09 170.30
C175.31 170.30 175.49 170.42 175.65 170.64
C175.75 170.80 175.83 171.06 175.89 171.43
L176.46 171.36
C176.41 170.78 176.26 170.34 176.02 170.04
C175.78 169.74 175.48 169.58 175.13 169.58
Z
" fill="black" fill-rule="nonzero" />
<path d="
M175.32 182.98
L175.32 186.19
L173.86 186.19
L175.32 182.98
Z
M171.42 181.55
C170.98 181.55 170.63 181.72 170.36 182.07
C170.09 182.41 169.93 182.93 169.89 183.61
L170.48 183.70
C170.48 183.24 170.57 182.89 170.74 182.64
C170.91 182.40 171.13 182.27 171.40 182.27
C171.65 182.27 171.86 182.39 172.03 182.62
C172.19 182.84 172.28 183.14 172.28 183.50
C172.28 183.82 172.20 184.16 172.03 184.52
C171.87 184.89 171.51 185.40 170.98 186.07
C170.52 186.64 170.20 187.14 170.03 187.56
C169.86 187.98 169.78 188.36 169.78 188.70
L172.87 188.70
L172.87 187.86
L170.58 187.86
C170.64 187.70 170.72 187.54 170.82 187.38
C170.92 187.23 171.14 186.93 171.49 186.49
C172.02 185.80 172.39 185.24 172.58 184.83
C172.77 184.41 172.87 183.98 172.87 183.52
C172.87 183.01 172.74 182.55 172.50 182.15
C172.25 181.75 171.89 181.55 171.42 181.55
Z
M175.43 181.58
L173.29 186.19
L173.29 187.00
L175.32 187.00
L175.32 188.70
L175.89 188.70
L175.89 187.00
L176.53 187.00
L176.53 186.19
L175.89 186.19
L175.89 181.58
Z
" fill="black" fill-rule="nonzero" />
<path d="
M171.42 193.31
C170.93 193.31 170.54 193.51 170.25 193.89
C169.96 194.25 169.80 194.79 169.75 195.51
L169.74 195.64
L169.87 195.66
L170.46 195.75
L170.63 195.77
L170.63 195.61
C170.63 195.18 170.70 194.85 170.86 194.63
C171.00 194.42 171.18 194.32 171.39 194.32
C171.39 194.32 171.40 194.32 171.40 194.32
C171.40 194.32 171.40 194.32 171.40 194.32
C171.60 194.32 171.77 194.42 171.91 194.61
C172.06 194.81 172.14 195.08 172.14 195.41
C172.14 195.70 172.06 196.02 171.90 196.37
C171.74 196.72 171.40 197.23 170.87 197.88
C170.40 198.47 170.08 198.98 169.90 199.41
C169.72 199.85 169.63 200.25 169.64 200.61
L169.65 200.75
L173.02 200.75
L173.02 200.61
L173.02 199.77
L173.02 199.62
L170.80 199.62
C170.84 199.54 170.89 199.45 170.94 199.37
C171.04 199.21 171.26 198.92 171.60 198.48
C172.14 197.78 172.51 197.22 172.71 196.79
C172.91 196.36 173.01 195.90 173.01 195.43
C173.01 194.89 172.88 194.41 172.62 193.98
C172.35 193.54 171.95 193.32 171.42 193.31
Z
M173.38 193.44
L173.38 193.58
L173.38 194.42
L173.38 194.56
L175.56 194.56
C175.31 195.03 175.08 195.58 174.86 196.21
C174.60 196.93 174.41 197.70 174.26 198.50
C174.12 199.30 174.04 200.00 174.03 200.61
L174.03 200.75
L174.76 200.75
L174.90 200.75
L174.90 200.61
C174.96 199.47 175.15 198.32 175.49 197.16
C175.83 195.99 176.22 195.05 176.66 194.33
L176.69 194.30
L176.69 194.26
L176.69 193.58
L176.69 193.44
Z
" fill="white" fill-rule="nonzero" />
<path d="
M175.02 206.17
C175.02 206.17 175.02 206.17 175.02 206.17
C175.02 206.17 175.02 206.17 175.02 206.17
C175.21 206.17 175.37 206.29 175.53 206.54
C175.69 206.80 175.78 207.18 175.78 207.66
C175.78 208.15 175.70 208.52 175.53 208.77
C175.39 209.01 175.21 209.12 175.01 209.12
C175.01 209.12 175.01 209.12 175.01 209.12
C175.01 209.12 175.01 209.12 175.00 209.12
C174.80 209.12 174.62 209.01 174.47 208.77
C174.30 208.52 174.21 208.17 174.21 207.73
C174.21 207.24 174.30 206.85 174.48 206.57
C174.64 206.30 174.82 206.17 175.02 206.17
Z
M171.42 205.16
C170.93 205.16 170.54 205.35 170.25 205.73
C169.96 206.10 169.80 206.64 169.75 207.35
L169.74 207.48
L169.87 207.50
L170.46 207.59
L170.63 207.62
L170.63 207.45
C170.63 207.02 170.70 206.70 170.86 206.47
C171.00 206.27 171.18 206.17 171.39 206.17
C171.39 206.17 171.40 206.17 171.40 206.17
C171.40 206.17 171.40 206.17 171.40 206.17
C171.60 206.17 171.77 206.26 171.91 206.45
C172.06 206.65 172.14 206.92 172.14 207.25
C172.14 207.55 172.06 207.87 171.90 208.21
C171.74 208.57 171.40 209.07 170.87 209.73
C170.40 210.31 170.08 210.82 169.90 211.26
C169.72 211.70 169.63 212.10 169.64 212.46
L169.65 212.59
L173.02 212.59
L173.02 212.45
L173.02 211.61
L173.02 211.47
L170.80 211.47
C170.84 211.38 170.89 211.30 170.94 211.21
C171.04 211.06 171.26 210.76 171.60 210.33
C172.14 209.63 172.51 209.06 172.71 208.64
C172.91 208.20 173.01 207.75 173.01 207.27
C173.01 206.73 172.88 206.25 172.62 205.83
C172.35 205.38 171.95 205.16 171.42 205.16
Z
M174.95 205.16
C174.49 205.16 174.11 205.40 173.79 205.87
C173.49 206.32 173.34 206.93 173.34 207.71
C173.34 208.46 173.48 209.05 173.78 209.49
C174.08 209.95 174.45 210.18 174.88 210.18
C175.12 210.18 175.36 210.08 175.59 209.89
C175.68 209.82 175.76 209.74 175.83 209.64
L175.83 209.64
C175.81 210.04 175.76 210.39 175.68 210.70
C175.58 211.10 175.46 211.37 175.32 211.51
C175.19 211.65 175.05 211.71 174.90 211.71
C174.90 211.71 174.90 211.71 174.90 211.71
C174.89 211.71 174.89 211.71 174.89 211.71
C174.73 211.71 174.60 211.64 174.50 211.49
C174.38 211.32 174.30 211.06 174.26 210.71
L174.24 210.57
L174.10 210.59
L173.55 210.66
L173.41 210.68
L173.42 210.82
C173.47 211.42 173.63 211.88 173.88 212.21
C174.15 212.54 174.48 212.71 174.88 212.71
C175.24 212.71 175.55 212.58 175.83 212.30
C176.10 212.03 176.32 211.62 176.47 211.05
C176.62 210.50 176.70 209.73 176.70 208.74
C176.70 207.84 176.63 207.16 176.48 206.68
C176.34 206.19 176.13 205.81 175.86 205.56
C175.58 205.29 175.28 205.16 174.95 205.16
Z
" fill="white" fill-rule="nonzero" />
<path d="
M185.32 38.59
L185.28 38.67
C185.17 38.97 184.97 39.27 184.68 39.58
C184.39 39.89 184.06 40.15 183.68 40.37
L183.61 40.41
L183.61 40.49
L183.61 41.33
L183.61 41.55
L183.81 41.46
C184.05 41.35 184.31 41.20 184.59 40.99
C184.75 40.87 184.90 40.75 185.02 40.64
L185.02 40.64
L185.02 45.79
L185.02 45.93
L186.02 45.93
L186.02 45.79
L186.02 38.73
L186.02 38.59
Z
" fill="white" fill-rule="nonzero" />
<path d="
M183.32 169.64
C182.88 169.64 182.53 169.82 182.26 170.16
C182.00 170.51 181.84 171.02 181.80 171.70
L182.39 171.80
C182.39 171.34 182.48 170.98 182.65 170.74
C182.82 170.49 183.04 170.37 183.30 170.37
C183.55 170.37 183.76 170.48 183.93 170.71
C184.10 170.94 184.19 171.23 184.19 171.60
C184.19 171.91 184.10 172.25 183.94 172.62
C183.77 172.98 183.42 173.50 182.88 174.16
C182.42 174.74 182.11 175.23 181.94 175.65
C181.76 176.08 181.68 176.46 181.69 176.80
L184.78 176.80
L184.78 175.96
L182.49 175.96
C182.55 175.80 182.63 175.64 182.73 175.48
C182.83 175.32 183.05 175.02 183.39 174.59
C183.93 173.89 184.29 173.34 184.48 172.92
C184.68 172.51 184.77 172.07 184.77 171.62
C184.77 171.11 184.65 170.65 184.40 170.25
C184.16 169.85 183.80 169.64 183.32 169.64
Z
M186.95 169.64
C186.51 169.64 186.16 169.82 185.89 170.16
C185.63 170.51 185.47 171.02 185.43 171.70
L186.02 171.80
C186.02 171.34 186.11 170.98 186.28 170.74
C186.45 170.49 186.67 170.37 186.93 170.37
C187.18 170.37 187.39 170.48 187.56 170.71
C187.73 170.94 187.82 171.23 187.82 171.60
C187.82 171.91 187.73 172.25 187.57 172.62
C187.40 172.98 187.05 173.50 186.51 174.16
C186.05 174.74 185.74 175.23 185.57 175.65
C185.39 176.08 185.31 176.46 185.32 176.80
L188.41 176.80
L188.41 175.96
L186.12 175.96
C186.18 175.80 186.26 175.64 186.36 175.48
C186.46 175.32 186.68 175.02 187.02 174.59
C187.56 173.89 187.92 173.34 188.11 172.92
C188.31 172.51 188.40 172.07 188.40 171.62
C188.40 171.11 188.28 170.65 188.03 170.25
C187.79 169.85 187.43 169.64 186.95 169.64
Z
" fill="black" fill-rule="nonzero" />
<path d="
M183.32 181.35
C182.84 181.35 182.45 181.54 182.15 181.92
C181.87 182.29 181.70 182.83 181.66 183.54
L181.65 183.67
L181.78 183.69
L182.37 183.78
L182.53 183.80
L182.53 183.64
C182.53 183.21 182.61 182.88 182.76 182.66
C182.90 182.46 183.08 182.35 183.30 182.35
C183.30 182.35 183.30 182.35 183.30 182.35
C183.30 182.35 183.31 182.35 183.31 182.35
C183.51 182.35 183.68 182.45 183.82 182.64
C183.97 182.84 184.04 183.11 184.04 183.44
C184.04 183.73 183.96 184.05 183.81 184.40
C183.65 184.75 183.30 185.26 182.77 185.92
C182.31 186.50 181.98 187.01 181.81 187.44
C181.63 187.88 181.54 188.28 181.55 188.64
L181.55 188.78
L184.92 188.78
L184.92 188.64
L184.92 187.80
L184.92 187.66
L182.70 187.66
C182.75 187.57 182.80 187.48 182.85 187.40
C182.95 187.24 183.17 186.95 183.50 186.52
C184.05 185.81 184.42 185.25 184.61 184.82
C184.81 184.39 184.91 183.93 184.91 183.46
C184.91 182.92 184.78 182.44 184.53 182.02
C184.25 181.57 183.85 181.35 183.32 181.35
Z
M186.86 181.35
C186.45 181.35 186.11 181.52 185.83 181.86
C185.56 182.20 185.38 182.68 185.31 183.32
L185.29 183.44
L185.41 183.47
L185.98 183.63
L186.14 183.67
L186.16 183.50
C186.20 183.10 186.29 182.80 186.42 182.61
C186.55 182.43 186.69 182.35 186.86 182.35
C186.86 182.35 186.87 182.35 186.87 182.35
C186.87 182.35 186.87 182.35 186.87 182.35
C187.03 182.35 187.17 182.43 187.29 182.59
C187.42 182.77 187.49 183.01 187.49 183.31
C187.49 183.64 187.41 183.90 187.25 184.09
C187.11 184.27 186.92 184.37 186.68 184.37
L186.68 184.37
L186.60 184.36
L186.46 184.34
L186.45 184.49
L186.38 185.25
L186.36 185.48
L186.57 185.40
C186.72 185.34 186.83 185.31 186.93 185.31
C186.93 185.31 186.93 185.31 186.93 185.31
C186.93 185.31 186.93 185.31 186.93 185.31
C187.14 185.31 187.31 185.42 187.46 185.63
C187.62 185.86 187.70 186.16 187.70 186.55
C187.70 186.96 187.61 187.29 187.43 187.54
C187.27 187.78 187.09 187.90 186.87 187.90
C186.87 187.90 186.87 187.90 186.87 187.90
C186.87 187.90 186.87 187.90 186.87 187.90
C186.68 187.90 186.52 187.80 186.40 187.61
C186.26 187.40 186.16 187.07 186.11 186.62
L186.09 186.47
L185.94 186.50
L185.36 186.62
L185.24 186.64
L185.25 186.77
C185.29 187.41 185.46 187.92 185.75 188.31
C186.06 188.71 186.43 188.91 186.88 188.91
C187.36 188.91 187.76 188.68 188.10 188.22
C188.43 187.78 188.59 187.22 188.59 186.53
C188.59 186.21 188.55 185.92 188.47 185.66
C188.39 185.39 188.28 185.18 188.15 185.01
C188.06 184.90 187.96 184.81 187.84 184.75
L187.84 184.75
C187.98 184.61 188.09 184.45 188.18 184.25
C188.30 183.98 188.36 183.68 188.36 183.33
C188.36 182.77 188.22 182.30 187.94 181.93
C187.64 181.54 187.28 181.35 186.86 181.35
Z
" fill="white" fill-rule="nonzero" />
<path d="
M185.48 194.90
L185.48 198.07
L183.67 198.07
L185.48 194.90
Z
M185.61 193.51
L182.98 198.07
L182.98 198.86
L185.48 198.86
L185.48 200.55
L186.19 200.55
L186.19 198.86
L186.97 198.86
L186.97 198.07
L186.19 198.07
L186.19 193.51
Z
" fill="black" fill-rule="nonzero" />
<path d="
M187.07 205.16
L187.04 205.26
C186.95 205.55 186.78 205.86 186.55 206.17
C186.32 206.49 186.05 206.75 185.74 206.97
L185.68 207.01
L185.68 207.09
L185.68 207.93
L185.68 208.17
L185.89 208.05
C186.09 207.95 186.30 207.79 186.53 207.58
C186.64 207.48 186.74 207.38 186.83 207.28
L186.83 207.28
L186.83 212.45
L186.83 212.59
L187.69 212.59
L187.69 212.45
L187.69 205.30
L187.69 205.16
Z
M183.23 205.16
C182.82 205.16 182.48 205.33 182.20 205.67
C181.93 206.01 181.75 206.49 181.68 207.13
L181.66 207.25
L181.78 207.28
L182.35 207.44
L182.51 207.48
L182.53 207.31
C182.57 206.91 182.66 206.61 182.79 206.42
C182.92 206.24 183.06 206.16 183.23 206.16
C183.23 206.16 183.24 206.16 183.24 206.16
C183.24 206.16 183.24 206.16 183.24 206.16
C183.40 206.16 183.54 206.24 183.66 206.40
C183.79 206.58 183.86 206.82 183.86 207.12
C183.86 207.45 183.78 207.71 183.62 207.90
C183.48 208.09 183.29 208.18 183.05 208.18
L183.05 208.18
L182.97 208.17
L182.83 208.15
L182.82 208.30
L182.75 209.07
L182.73 209.30
L182.94 209.21
C183.09 209.15 183.20 209.12 183.30 209.12
C183.30 209.12 183.30 209.12 183.30 209.12
C183.30 209.12 183.30 209.12 183.30 209.12
C183.51 209.12 183.68 209.23 183.83 209.44
C183.99 209.67 184.07 209.98 184.07 210.36
C184.07 210.77 183.98 211.10 183.80 211.36
C183.64 211.59 183.46 211.71 183.24 211.71
C183.24 211.71 183.24 211.71 183.24 211.71
C183.24 211.71 183.24 211.71 183.24 211.71
C183.05 211.71 182.89 211.61 182.77 211.42
C182.63 211.21 182.53 210.88 182.48 210.43
L182.46 210.28
L182.31 210.31
L181.73 210.43
L181.61 210.45
L181.62 210.58
C181.66 211.22 181.83 211.73 182.12 212.12
C182.43 212.52 182.80 212.72 183.25 212.72
C183.73 212.72 184.13 212.49 184.47 212.04
C184.80 211.59 184.96 211.03 184.96 210.35
C184.96 210.02 184.92 209.73 184.84 209.47
C184.76 209.20 184.65 208.99 184.52 208.82
C184.43 208.71 184.33 208.63 184.21 208.56
L184.21 208.56
C184.35 208.42 184.46 208.26 184.55 208.06
C184.67 207.79 184.73 207.49 184.73 207.14
C184.73 206.58 184.59 206.11 184.31 205.74
C184.01 205.35 183.65 205.16 183.23 205.16
Z
" fill="white" fill-rule="nonzero" />
<path d="
M198.83 87.11
C198.83 87.11 198.83 87.11 198.83 87.11
C198.83 87.11 198.83 87.11 198.83 87.11
C199.02 87.11 199.18 87.23 199.34 87.48
C199.50 87.75 199.59 88.12 199.59 88.61
C199.59 89.09 199.51 89.46 199.34 89.72
C199.20 89.95 199.02 90.07 198.82 90.07
C198.82 90.07 198.82 90.07 198.82 90.07
C198.82 90.07 198.82 90.07 198.82 90.07
C198.61 90.07 198.43 89.95 198.28 89.72
C198.11 89.46 198.02 89.12 198.02 88.68
C198.02 88.19 198.11 87.80 198.29 87.51
C198.46 87.24 198.63 87.11 198.83 87.11
Z
M195.35 86.10
L195.31 86.20
C195.22 86.50 195.06 86.80 194.82 87.12
C194.59 87.43 194.32 87.70 194.02 87.92
L193.96 87.96
L193.96 88.03
L193.96 88.88
L193.96 89.12
L194.17 89.00
C194.37 88.89 194.58 88.73 194.81 88.52
C194.92 88.43 195.02 88.33 195.11 88.23
L195.11 88.23
L195.11 93.40
L195.11 93.54
L195.96 93.54
L195.96 93.40
L195.96 86.25
L195.96 86.10
Z
M198.76 86.10
C198.31 86.10 197.92 86.34 197.60 86.81
C197.30 87.26 197.15 87.88 197.15 88.65
C197.15 89.40 197.30 90.00 197.59 90.44
C197.89 90.89 198.26 91.12 198.69 91.12
C198.93 91.12 199.17 91.03 199.40 90.84
C199.49 90.77 199.57 90.68 199.64 90.59
L199.64 90.59
C199.62 90.98 199.57 91.33 199.49 91.65
C199.39 92.04 199.27 92.31 199.13 92.46
C199.00 92.59 198.86 92.66 198.71 92.66
C198.71 92.66 198.71 92.66 198.71 92.66
C198.71 92.66 198.70 92.66 198.70 92.66
C198.54 92.66 198.41 92.58 198.31 92.44
C198.19 92.27 198.11 92.01 198.07 91.66
L198.05 91.51
L197.91 91.53
L197.36 91.61
L197.23 91.63
L197.24 91.76
C197.29 92.36 197.44 92.83 197.69 93.15
C197.96 93.49 198.29 93.66 198.69 93.66
C199.05 93.66 199.36 93.52 199.64 93.24
C199.91 92.98 200.13 92.56 200.28 92.00
C200.43 91.44 200.51 90.67 200.51 89.68
C200.51 88.79 200.44 88.10 200.30 87.62
C200.15 87.13 199.94 86.76 199.67 86.50
C199.40 86.24 199.09 86.10 198.76 86.10
Z
" fill="white" fill-rule="nonzero" />
<path d="
M197.04 113.36
C197.35 113.36 197.62 113.50 197.84 113.78
C198.06 114.05 198.16 114.44 198.16 114.94
C198.16 115.45 198.05 115.85 197.84 116.14
C197.62 116.43 197.37 116.57 197.09 116.57
C196.77 116.57 196.49 116.42 196.25 116.11
C196.01 115.80 195.89 115.39 195.89 114.89
C195.89 114.42 196.01 114.05 196.24 113.77
C196.47 113.50 196.73 113.36 197.04 113.36
Z
M197.15 110.10
C196.54 110.10 196.05 110.39 195.66 110.97
C195.27 111.54 195.08 112.51 195.08 113.87
C195.08 115.10 195.27 115.97 195.64 116.50
C196.02 117.02 196.50 117.29 197.08 117.29
C197.41 117.29 197.70 117.19 197.97 117.01
C198.24 116.83 198.46 116.55 198.63 116.16
C198.80 115.78 198.89 115.36 198.89 114.89
C198.89 114.19 198.72 113.64 198.38 113.22
C198.04 112.81 197.64 112.60 197.18 112.60
C196.91 112.60 196.64 112.68 196.40 112.84
C196.15 113.00 195.95 113.23 195.78 113.54
C195.79 112.67 195.90 112.02 196.11 111.58
C196.36 111.07 196.69 110.81 197.10 110.81
C197.37 110.81 197.60 110.92 197.79 111.15
C197.92 111.30 198.02 111.56 198.08 111.92
L198.79 111.85
C198.72 111.28 198.54 110.85 198.25 110.55
C197.95 110.25 197.59 110.10 197.15 110.10
Z
" fill="black" fill-rule="nonzero" />
<path d="
M198.79 134.59
C199.07 134.59 199.30 134.79 199.48 135.18
C199.66 135.57 199.75 136.35 199.75 137.51
C199.75 138.65 199.66 139.43 199.48 139.82
C199.31 140.22 199.09 140.42 198.83 140.42
C198.55 140.42 198.32 140.22 198.14 139.83
C197.97 139.44 197.88 138.66 197.88 137.51
C197.88 136.36 197.97 135.59 198.14 135.19
C198.32 134.79 198.53 134.59 198.79 134.59
Z
M195.23 133.87
C194.79 133.87 194.44 134.04 194.17 134.38
C193.90 134.73 193.75 135.24 193.70 135.93
L194.30 136.02
C194.30 135.56 194.38 135.21 194.55 134.96
C194.72 134.71 194.94 134.59 195.21 134.59
C195.46 134.59 195.67 134.71 195.84 134.93
C196.01 135.16 196.09 135.46 196.09 135.82
C196.09 136.13 196.01 136.47 195.84 136.84
C195.68 137.20 195.33 137.72 194.79 138.39
C194.33 138.96 194.01 139.46 193.84 139.88
C193.67 140.30 193.59 140.68 193.60 141.02
L196.69 141.02
L196.69 140.18
L194.39 140.18
C194.45 140.02 194.54 139.86 194.64 139.70
C194.74 139.54 194.96 139.25 195.30 138.81
C195.83 138.11 196.20 137.56 196.39 137.14
C196.58 136.73 196.68 136.29 196.68 135.84
C196.68 135.33 196.56 134.87 196.31 134.47
C196.07 134.07 195.70 133.87 195.23 133.87
Z
M198.82 133.87
C198.32 133.87 197.94 134.17 197.68 134.79
C197.42 135.41 197.29 136.31 197.29 137.51
C197.29 138.84 197.43 139.78 197.72 140.32
C198.00 140.87 198.37 141.14 198.81 141.14
C199.32 141.14 199.70 140.83 199.95 140.21
C200.21 139.60 200.34 138.69 200.34 137.51
C200.34 136.18 200.18 135.22 199.87 134.62
C199.62 134.12 199.26 133.87 198.82 133.87
Z
" fill="black" fill-rule="nonzero" />
<path d="
M196.25 172.09
L196.25 172.09
L196.25 172.09
C196.25 172.09 196.25 172.09 196.25 172.09
Z
M195.68 169.55
L195.66 169.67
L195.10 173.28
L195.07 173.42
L195.21 173.44
L195.88 173.55
L195.98 173.57
L196.03 173.47
C196.13 173.28 196.26 173.13 196.42 173.03
C196.59 172.92 196.76 172.87 196.95 172.87
C196.95 172.87 196.95 172.87 196.95 172.87
C196.95 172.87 196.95 172.87 196.95 172.87
C197.26 172.87 197.52 172.99 197.73 173.24
C197.94 173.49 198.05 173.84 198.05 174.31
C198.05 174.81 197.94 175.21 197.71 175.49
C197.50 175.76 197.25 175.90 196.96 175.90
C196.96 175.90 196.96 175.90 196.95 175.90
C196.95 175.90 196.95 175.90 196.95 175.90
C196.73 175.90 196.52 175.80 196.35 175.61
C196.17 175.42 196.05 175.11 196.00 174.69
L195.98 174.56
L195.84 174.57
L195.10 174.65
L194.96 174.66
L194.97 174.80
C195.02 175.45 195.23 175.96 195.60 176.33
C195.97 176.70 196.43 176.89 196.96 176.89
C197.61 176.89 198.13 176.63 198.52 176.10
C198.89 175.58 199.08 174.96 199.08 174.24
C199.08 173.51 198.89 172.93 198.51 172.49
C198.12 172.05 197.67 171.82 197.14 171.82
C196.83 171.82 196.53 171.91 196.25 172.09
L196.25 172.09
L196.48 170.66
L198.81 170.66
L198.81 170.52
L198.81 169.69
L198.81 169.55
Z
" fill="white" fill-rule="nonzero" />
<path d="
M198.24 184.01
L198.24 184.01
L198.24 184.01
C198.24 184.01 198.24 184.01 198.24 184.01
Z
M195.23 181.35
C194.74 181.35 194.35 181.54 194.06 181.92
C193.77 182.29 193.61 182.83 193.56 183.54
L193.56 183.67
L193.68 183.69
L194.27 183.78
L194.44 183.81
L194.44 183.64
C194.44 183.21 194.51 182.88 194.67 182.66
C194.81 182.46 194.99 182.35 195.20 182.35
C195.21 182.35 195.21 182.35 195.21 182.35
C195.21 182.35 195.21 182.35 195.21 182.35
C195.41 182.35 195.58 182.45 195.72 182.64
C195.87 182.84 195.95 183.11 195.95 183.44
C195.95 183.74 195.87 184.06 195.71 184.40
C195.55 184.76 195.21 185.26 194.68 185.92
C194.21 186.50 193.89 187.01 193.71 187.45
C193.53 187.88 193.45 188.28 193.45 188.64
L193.46 188.78
L196.83 188.78
L196.83 188.64
L196.83 187.80
L196.83 187.66
L194.61 187.66
C194.65 187.57 194.70 187.49 194.76 187.40
C194.85 187.24 195.07 186.95 195.41 186.52
C195.95 185.82 196.32 185.25 196.52 184.83
C196.72 184.39 196.82 183.94 196.82 183.46
C196.82 182.92 196.69 182.44 196.43 182.02
C196.16 181.57 195.76 181.35 195.23 181.35
Z
M197.72 181.47
L197.71 181.60
L197.25 185.26
L197.24 185.39
L197.36 185.41
L197.91 185.52
L198.02 185.54
L198.06 185.43
C198.14 185.24 198.25 185.09 198.38 184.98
C198.51 184.88 198.64 184.83 198.78 184.83
C198.78 184.83 198.78 184.83 198.78 184.83
C198.78 184.83 198.78 184.83 198.78 184.83
C199.02 184.83 199.22 184.95 199.38 185.19
C199.55 185.45 199.64 185.81 199.64 186.29
C199.64 186.81 199.55 187.21 199.37 187.50
C199.20 187.77 199.01 187.90 198.79 187.90
C198.79 187.90 198.79 187.90 198.78 187.90
C198.78 187.90 198.78 187.90 198.78 187.90
C198.61 187.90 198.46 187.81 198.32 187.63
C198.18 187.42 198.08 187.11 198.04 186.68
L198.02 186.54
L197.88 186.56
L197.27 186.63
L197.14 186.65
L197.15 186.78
C197.19 187.44 197.36 187.95 197.66 188.32
C197.96 188.71 198.34 188.90 198.79 188.90
C199.33 188.90 199.76 188.63 200.08 188.09
C200.38 187.57 200.53 186.95 200.53 186.23
C200.53 185.49 200.38 184.90 200.07 184.46
C199.75 184.01 199.38 183.78 198.94 183.78
C198.69 183.78 198.46 183.85 198.24 184.01
L198.24 184.01
L198.43 182.59
L200.31 182.59
L200.31 182.45
L200.31 181.62
L200.31 181.47
Z
" fill="white" fill-rule="nonzero" />
</g>
<g  transform="translate(1.19,228.58)" >
<path d="
M109.47 2.94
C109.30 2.94 109.16 3.00 109.05 3.11
C108.93 3.23 108.88 3.37 108.88 3.53
C108.88 3.69 108.94 3.83 109.05 3.95
C109.17 4.07 109.31 4.12 109.47 4.12
C109.63 4.12 109.77 4.07 109.89 3.95
C110.00 3.83 110.06 3.69 110.06 3.53
C110.06 3.37 110.00 3.23 109.89 3.11
C109.77 3.00 109.63 2.94 109.47 2.94
Z
M125.81 4.39
L125.81 8.31
L123.04 8.31
L125.81 4.39
Z
M114.44 8.04
L114.44 10.07
C113.96 10.46 113.57 10.65 113.28 10.65
C113.06 10.65 112.87 10.56 112.70 10.37
C112.54 10.19 112.45 9.96 112.45 9.68
C112.45 9.46 112.52 9.25 112.65 9.07
C112.78 8.88 113.00 8.70 113.31 8.53
C113.48 8.44 113.86 8.27 114.44 8.04
Z
M102.79 3.77
C103.72 3.77 104.48 4.08 105.08 4.71
C105.67 5.34 105.97 6.20 105.97 7.29
C105.97 8.37 105.67 9.23 105.08 9.86
C104.48 10.49 103.74 10.81 102.84 10.81
C102.50 10.81 102.09 10.75 101.60 10.64
L101.60 3.94
C102.05 3.83 102.44 3.77 102.79 3.77
Z
M99.35 3.33
L99.35 3.54
L99.65 3.54
C99.94 3.54 100.17 3.63 100.32 3.80
C100.43 3.92 100.48 4.23 100.48 4.72
L100.48 9.82
C100.48 10.26 100.44 10.55 100.35 10.68
C100.22 10.89 99.98 11.00 99.65 11.00
L99.35 11.00
L99.35 11.21
L102.87 11.21
C104.40 11.21 105.54 10.80 106.29 9.98
C106.96 9.24 107.29 8.33 107.29 7.23
C107.29 6.41 107.11 5.69 106.73 5.07
C106.36 4.44 105.86 4.00 105.25 3.73
C104.63 3.46 103.74 3.33 102.56 3.33
Z
M109.70 5.73
L108.09 6.38
L108.17 6.59
C108.33 6.53 108.46 6.50 108.57 6.50
C108.67 6.50 108.75 6.53 108.81 6.58
C108.87 6.62 108.91 6.71 108.94 6.83
C108.97 7.00 108.99 7.38 108.99 7.96
L108.99 10.01
C108.99 10.34 108.96 10.56 108.91 10.68
C108.86 10.79 108.79 10.88 108.70 10.93
C108.61 10.98 108.43 11.00 108.17 11.00
L108.17 11.21
L110.76 11.21
L110.76 11.00
C110.51 11.00 110.34 10.98 110.24 10.92
C110.15 10.87 110.07 10.79 110.03 10.68
C109.98 10.56 109.95 10.34 109.95 10.01
L109.95 5.73
Z
M126.13 3.16
L122.47 8.39
L122.47 9.13
L125.81 9.13
L125.81 11.21
L126.77 11.21
L126.77 9.13
L127.83 9.13
L127.83 8.31
L126.77 8.31
L126.77 3.16
Z
M113.63 5.73
C113.01 5.73 112.53 5.87 112.19 6.15
C111.85 6.43 111.68 6.73 111.68 7.07
C111.68 7.24 111.72 7.38 111.82 7.48
C111.91 7.58 112.02 7.63 112.17 7.63
C112.31 7.63 112.43 7.58 112.52 7.49
C112.62 7.39 112.66 7.25 112.66 7.07
L112.65 6.74
C112.65 6.56 112.72 6.41 112.87 6.28
C113.01 6.15 113.21 6.08 113.45 6.08
C113.77 6.08 114.02 6.18 114.19 6.38
C114.36 6.58 114.44 6.94 114.44 7.47
L114.44 7.68
C113.53 8.02 112.87 8.30 112.48 8.53
C112.08 8.76 111.81 9.01 111.65 9.28
C111.53 9.47 111.48 9.69 111.48 9.95
C111.48 10.36 111.59 10.69 111.83 10.95
C112.07 11.20 112.37 11.32 112.74 11.32
C112.98 11.32 113.20 11.27 113.41 11.18
C113.55 11.11 113.89 10.87 114.44 10.45
C114.44 10.76 114.50 10.99 114.62 11.12
C114.73 11.25 114.88 11.32 115.07 11.32
C115.46 11.32 115.88 11.03 116.31 10.45
L116.31 10.12
C116.08 10.35 115.92 10.49 115.84 10.54
C115.80 10.57 115.74 10.58 115.68 10.58
C115.62 10.58 115.57 10.57 115.53 10.53
C115.48 10.49 115.45 10.41 115.43 10.30
C115.41 10.18 115.40 9.87 115.40 9.36
L115.40 7.55
C115.40 7.04 115.37 6.70 115.30 6.53
C115.19 6.28 115.02 6.09 114.79 5.97
C114.49 5.81 114.10 5.73 113.63 5.73
Z
M117.82 10.08
C117.65 10.08 117.49 10.15 117.37 10.27
C117.24 10.39 117.18 10.55 117.18 10.73
C117.18 10.91 117.24 11.06 117.37 11.19
C117.49 11.31 117.65 11.38 117.82 11.38
C118.00 11.38 118.15 11.31 118.28 11.19
C118.41 11.06 118.47 10.91 118.47 10.73
C118.47 10.55 118.41 10.40 118.28 10.27
C118.16 10.15 118.01 10.08 117.82 10.08
Z
" fill="black" fill-rule="nonzero" />
</g>
</g>
</svg>
