<?xml version="1.0" encoding="utf-8" standalone="no"?>
<!DOCTYPE svg PUBLIC "-//W3C//DTD SVG 1.0//EN" "http://www.w3.org/TR/SVG/DTD/svg11.dtd" >
<svg version="1.1" baseProfile="full"  width="319.13385" height="338.46454" viewBox="0 0 229.77638 243.69449" preserveAspectRatio="xMidYMid" xmlns="http://www.w3.org/2000/svg" >

<g lengthAdjust="spacingAndGlyphs" xml:space='preserve' >
<g  transform="translate(1.19,1.19)" >
<path d="
M0.0 0.0
L0.0 227.39
L227.39 227.39
L227.39 0.0
Z
" fill="none" fill-rule="nonzero" />
<line x1="6.54" y1="6.54" x2="6.54" y2="220.84" fill="none" stroke="black" stroke-width="0.87px" stroke-linecap="square" />
<line x1="18.45" y1="6.54" x2="18.45" y2="220.84" fill="none" stroke="black" stroke-width="0.25px" stroke-linecap="butt" />
<line x1="30.35" y1="6.54" x2="30.35" y2="220.84" fill="none" stroke="black" stroke-width="0.25px" stroke-linecap="butt" />
<line x1="42.26" y1="6.54" x2="42.26" y2="220.84" fill="none" stroke="black" stroke-width="0.25px" stroke-linecap="butt" />
<line x1="54.17" y1="6.54" x2="54.17" y2="220.84" fill="none" stroke="black" stroke-width="0.25px" stroke-linecap="butt" />
<line x1="66.07" y1="6.54" x2="66.07" y2="220.84" fill="none" stroke="black" stroke-width="0.25px" stroke-linecap="butt" />
<line x1="77.98" y1="6.54" x2="77.98" y2="220.84" fill="none" stroke="black" stroke-width="0.25px" stroke-linecap="butt" />
<line x1="89.88" y1="6.54" x2="89.88" y2="220.84" fill="none" stroke="black" stroke-width="0.25px" stroke-linecap="butt" />
<line x1="101.79" y1="6.54" x2="101.79" y2="220.84" fill="none" stroke="black" stroke-width="0.25px" stroke-linecap="butt" />
<line x1="113.69" y1="6.54" x2="113.69" y2="220.84" fill="none" stroke="black" stroke-width="0.25px" stroke-linecap="butt" />
<line x1="125.60" y1="6.54" x2="125.60" y2="220.84" fill="none" stroke="black" stroke-width="0.25px" stroke-linecap="butt" />
<line x1="137.50" y1="6.54" x2="137.50" y2="220.84" fill="none" stroke="black" stroke-width="0.25px" stroke-linecap="butt" />
<line x1="149.41" y1="6.54" x2="149.41" y2="220.84" fill="none" stroke="black" stroke-width="0.25px" stroke-linecap="butt" />
<line x1="161.31" y1="6.54" x2="161.31" y2="220.84" fill="none" stroke="black" stroke-width="0.25px" stroke-linecap="butt" />
<line x1="173.22" y1="6.54" x2="173.22" y2="220.84" fill="none" stroke="black" stroke-width="0.25px" stroke-linecap="butt" />
<line x1="185.13" y1="6.54" x2="185.13" y2="220.84" fill="none" stroke="black" stroke-width="0.25px" stroke-linecap="butt" />
<line x1="197.03" y1="6.54" x2="197.03" y2="220.84" fill="none" stroke="black" stroke-width="0.25px" stroke-linecap="butt" />
<line x1="208.94" y1="6.54" x2="208.94" y2="220.84" fill="none" stroke="black" stroke-width="0.25px" stroke-linecap="butt" />
<line x1="220.84" y1="6.54" x2="220.84" y2="220.84" fill="none" stroke="black" stroke-width="0.87px" stroke-linecap="square" />
<line x1="6.54" y1="6.54" x2="220.84" y2="6.54" fill="none" stroke="black" stroke-width="0.87px" stroke-linecap="square" />
<line x1="6.54" y1="18.45" x2="220.84" y2="18.45" fill="none" stroke="black" stroke-width="0.25px" stroke-linecap="butt" />
<line x1="6.54" y1="30.35" x2="220.84" y2="30.35" fill="none" stroke="black" stroke-width="0.25px" stroke-linecap="butt" />
<line x1="6.54" y1="42.26" x2="220.84" y2="42.26" fill="none" stroke="black" stroke-width="0.25px" stroke-linecap="butt" />
<line x1="6.54" y1="54.17" x2="220.84" y2="54.17" fill="none" stroke="black" stroke-width="0.25px" stroke-linecap="butt" />
<line x1="6.54" y1="66.07" x2="220.84" y2="66.07" fill="none" stroke="black" stroke-width="0.25px" stroke-linecap="butt" />
<line x1="6.54" y1="77.98" x2="220.84" y2="77.98" fill="none" stroke="black" stroke-width="0.25px" stroke-linecap="butt" />
<line x1="6.54" y1="89.88" x2="220.84" y2="89.88" fill="none" stroke="black" stroke-width="0.25px" stroke-linecap="butt" />
<line x1="6.54" y1="101.79" x2="220.84" y2="101.79" fill="none" stroke="black" stroke-width="0.25px" stroke-linecap="butt" />
<line x1="6.54" y1="113.69" x2="220.84" y2="113.69" fill="none" stroke="black" stroke-width="0.25px" stroke-linecap="butt" />
<line x1="6.54" y1="125.60" x2="220.84" y2="125.60" fill="none" stroke="black" stroke-width="0.25px" stroke-linecap="butt" />
<line x1="6.54" y1="137.50" x2="220.84" y2="137.50" fill="none" stroke="black" stroke-width="0.25px" stroke-linecap="butt" />
<line x1="6.54" y1="149.41" x2="220.84" y2="149.41" fill="none" stroke="black" stroke-width="0.25px" stroke-linecap="butt" />
<line x1="6.54" y1="161.31" x2="220.84" y2="161.31" fill="none" stroke="black" stroke-width="0.25px" stroke-linecap="butt" />
<line x1="6.54" y1="173.22" x2="220.84" y2="173.22" fill="none" stroke="black" stroke-width="0.25px" stroke-linecap="butt" />
<line x1="6.54" y1="185.13" x2="220.84" y2="185.13" fill="none" stroke="black" stroke-width="0.25px" stroke-linecap="butt" />
<line x1="6.54" y1="197.03" x2="220.84" y2="197.03" fill="none" stroke="black" stroke-width="0.25px" stroke-linecap="butt" />
<line x1="6.54" y1="208.94" x2="220.84" y2="208.94" fill="none" stroke="black" stroke-width="0.25px" stroke-linecap="butt" />
<line x1="6.54" y1="220.84" x2="220.84" y2="220.84" fill="none" stroke="black" stroke-width="0.87px" stroke-linecap="square" />
<circle cx="30.35" cy="54.17" r="5.98" fill="black"/>
<circle cx="30.35" cy="89.88" r="5.85" fill="white"/>
<circle cx="30.35" cy="89.88" r="5.85" fill="none" stroke="black" stroke-width="0.25px"/>
<circle cx="30.35" cy="125.60" r="5.85" fill="white"/>
<circle cx="30.35" cy="125.60" r="5.85" fill="none" stroke="black" stroke-width="0.25px"/>
<circle cx="30.35" cy="161.31" r="5.85" fill="white"/>
<circle cx="30.35" cy="161.31" r="5.85" fill="none" stroke="black" stroke-width="0.25px"/>
<circle cx="42.26" cy="30.35" r="5.85" fill="white"/>
<circle cx="42.26" cy="30.35" r="5.85" fill="none" stroke="black" stroke-width="0.25px"/>
<circle cx="42.26" cy="42.26" r="1.27" fill="black"/>
<circle cx="42.26" cy="77.98" r="5.85" fill="white"/>
<circle cx="42.26" cy="77.98" r="5.85" fill="none" stroke="black" stroke-width="0.25px"/>
<circle cx="42.26" cy="89.88" r="5.98" fill="black"/>
<circle cx="42.26" cy="101.79" r="5.85" fill="white"/>
<circle cx="42.26" cy="101.79" r="5.85" fill="none" stroke="black" stroke-width="0.25px"/>
<circle cx="42.26" cy="113.69" r="1.27" fill="black"/>
<circle cx="42.26" cy="185.13" r="5.98" fill="black"/>
<circle cx="54.17" cy="66.07" r="5.98" fill="black"/>
<circle cx="54.17" cy="77.98" r="5.98" fill="black"/>
<circle cx="54.17" cy="89.88" r="5.98" fill="black"/>
<circle cx="66.07" cy="197.03" r="5.98" fill="black"/>
<circle cx="77.98" cy="30.35" r="5.85" fill="white"/>
<circle cx="77.98" cy="30.35" r="5.85" fill="none" stroke="black" stroke-width="0.25px"/>
<circle cx="113.69" cy="30.35" r="5.85" fill="white"/>
<circle cx="113.69" cy="30.35" r="5.85" fill="none" stroke="black" stroke-width="0.25px"/>
<circle cx="113.69" cy="42.26" r="1.27" fill="black"/>
<circle cx="113.69" cy="54.17" r="5.85" fill="white"/>
<circle cx="113.69" cy="54.17" r="5.85" fill="none" stroke="black" stroke-width="0.25px"/>
<circle cx="113.69" cy="113.69" r="1.27" fill="black"/>
<circle cx="113.69" cy="185.13" r="1.27" fill="black"/>
<circle cx="137.50" cy="30.35" r="5.98" fill="black"/>
<circle cx="137.50" cy="54.17" r="5.98" fill="black"/>
<circle cx="149.41" cy="113.69" r="5.98" fill="black"/>
<circle cx="149.41" cy="137.50" r="5.85" fill="white"/>
<circle cx="149.41" cy="137.50" r="5.85" fill="none" stroke="black" stroke-width="0.25px"/>
<circle cx="149.41" cy="197.03" r="5.98" fill="black"/>
<circle cx="173.22" cy="101.79" r="5.98" fill="black"/>
<circle cx="173.22" cy="125.60" r="5.85" fill="white"/>
<circle cx="173.22" cy="125.60" r="5.85" fill="none" stroke="black" stroke-width="0.25px"/>
<circle cx="173.22" cy="173.22" r="5.98" fill="black"/>
<circle cx="173.22" cy="185.13" r="5.98" fill="black"/>
<circle cx="185.13" cy="30.35" r="5.98" fill="black"/>
<circle cx="185.13" cy="42.26" r="5.98" fill="black"/>
<circle cx="185.13" cy="113.69" r="1.27" fill="black"/>
<circle cx="185.13" cy="161.31" r="5.98" fill="black"/>
<circle cx="185.13" cy="173.22" r="5.85" fill="white"/>
<circle cx="185.13" cy="173.22" r="5.85" fill="none" stroke="black" stroke-width="0.25px"/>
<circle cx="185.13" cy="185.13" r="5.98" fill="black"/>
<circle cx="185.13" cy="197.03" r="5.85" fill="white"/>
<circle cx="185.13" cy="197.03" r="5.85" fill="none" stroke="black" stroke-width="0.25px"/>
<circle cx="197.03" cy="89.88" r="5.98" fill="black"/>
<circle cx="197.03" cy="113.69" r="5.85" fill="white"/>
<circle cx="197.03" cy="113.69" r="5.85" fill="none" stroke="black" stroke-width="0.25px"/>
<circle cx="197.03" cy="137.50" r="5.85" fill="white"/>
<circle cx="197.03" cy="137.50" r="5.85" fill="none" stroke="black" stroke-width="0.25px"/>
<circle cx="197.03" cy="173.22" r="5.98" fill="black"/>
<circle cx="197.03" cy="185.13" r="5.85" fill="white"/>
<circle cx="197.03" cy="185.13" r="5.85" fill="none" stroke="black" stroke-width="0.25px"/>
<circle cx="197.03" cy="197.03" r="5.85" fill="white"/>
<circle cx="197.03" cy="197.03" r="5.85" fill="none" stroke="black" stroke-width="0.25px"/>
<circle cx="208.94" cy="161.31" r="5.85" fill="white"/>
<circle cx="208.94" cy="161.31" r="5.85" fill="none" stroke="black" stroke-width="0.25px"/>
<circle cx="208.94" cy="173.22" r="5.85" fill="white"/>
<circle cx="208.94" cy="173.22" r="5.85" fill="none" stroke="black" stroke-width="0.25px"/>
<path d="
M28.34 50.55
L28.34 50.69
L28.34 51.52
L28.34 51.66
L31.03 51.66
C30.73 52.13 30.44 52.66 30.17 53.28
C29.86 54.00 29.61 54.75 29.43 55.55
C29.25 56.34 29.16 57.04 29.15 57.64
L29.14 57.78
L30.02 57.78
L30.15 57.78
L30.16 57.65
C30.22 56.52 30.46 55.38 30.88 54.24
C31.30 53.09 31.78 52.16 32.33 51.45
L32.36 51.41
L32.36 51.36
L32.36 50.69
L32.36 50.55
Z
" fill="white" fill-rule="nonzero" />
<path d="
M32.18 89.55
C32.43 89.55 32.65 89.69 32.82 89.97
C33.00 90.25 33.09 90.64 33.09 91.14
C33.09 91.66 33.00 92.06 32.82 92.36
C32.64 92.65 32.44 92.80 32.22 92.80
C31.96 92.80 31.73 92.64 31.54 92.33
C31.35 92.02 31.25 91.60 31.25 91.09
C31.25 90.62 31.34 90.24 31.53 89.96
C31.71 89.69 31.93 89.55 32.18 89.55
Z
M28.77 86.25
C28.67 86.56 28.50 86.88 28.26 87.20
C28.02 87.53 27.74 87.81 27.42 88.03
L27.42 88.88
C27.61 88.77 27.81 88.62 28.04 88.42
C28.26 88.22 28.44 88.02 28.57 87.82
L28.57 93.40
L29.15 93.40
L29.15 86.25
Z
M32.26 86.25
C31.77 86.25 31.37 86.54 31.06 87.12
C30.74 87.71 30.59 88.69 30.59 90.06
C30.59 91.30 30.74 92.19 31.05 92.72
C31.35 93.25 31.74 93.52 32.21 93.52
C32.47 93.52 32.71 93.43 32.93 93.24
C33.15 93.06 33.33 92.77 33.47 92.38
C33.60 92.00 33.67 91.57 33.67 91.09
C33.67 90.39 33.54 89.82 33.26 89.41
C32.98 88.99 32.66 88.78 32.29 88.78
C32.07 88.78 31.86 88.86 31.66 89.02
C31.46 89.18 31.29 89.41 31.16 89.72
C31.16 88.85 31.25 88.19 31.42 87.74
C31.63 87.22 31.89 86.96 32.23 86.96
C32.44 86.96 32.63 87.08 32.78 87.30
C32.89 87.46 32.97 87.72 33.02 88.09
L33.59 88.02
C33.54 87.44 33.39 87.00 33.15 86.70
C32.91 86.40 32.62 86.25 32.26 86.25
Z
" fill="black" fill-rule="nonzero" />
<path d="
M32.15 122.68
C32.35 122.68 32.53 122.79 32.68 123.00
C32.84 123.21 32.91 123.48 32.91 123.82
C32.91 124.14 32.84 124.41 32.69 124.61
C32.54 124.81 32.36 124.92 32.15 124.92
C31.94 124.92 31.76 124.81 31.61 124.60
C31.46 124.40 31.39 124.12 31.39 123.77
C31.39 123.46 31.46 123.20 31.61 122.99
C31.76 122.78 31.94 122.68 32.15 122.68
Z
M32.14 125.63
C32.40 125.63 32.63 125.76 32.82 126.03
C33.01 126.30 33.10 126.65 33.10 127.09
C33.10 127.52 33.01 127.87 32.83 128.13
C32.64 128.39 32.42 128.52 32.15 128.52
C31.89 128.52 31.67 128.38 31.48 128.11
C31.29 127.85 31.20 127.50 31.20 127.06
C31.20 126.64 31.29 126.29 31.47 126.03
C31.65 125.76 31.88 125.63 32.14 125.63
Z
M28.77 121.96
C28.67 122.27 28.50 122.59 28.26 122.92
C28.02 123.25 27.74 123.52 27.42 123.75
L27.42 124.59
C27.61 124.49 27.81 124.34 28.04 124.14
C28.26 123.93 28.44 123.73 28.57 123.54
L28.57 129.11
L29.15 129.11
L29.15 121.96
Z
M32.14 121.96
C31.76 121.96 31.44 122.13 31.18 122.47
C30.92 122.81 30.80 123.25 30.80 123.79
C30.80 124.15 30.86 124.45 30.97 124.69
C31.09 124.94 31.27 125.12 31.50 125.25
C31.22 125.36 31.00 125.57 30.85 125.88
C30.69 126.19 30.61 126.58 30.61 127.06
C30.61 127.71 30.76 128.23 31.05 128.63
C31.35 129.03 31.71 129.23 32.15 129.23
C32.59 129.23 32.95 129.03 33.25 128.63
C33.54 128.23 33.69 127.72 33.69 127.08
C33.69 126.62 33.61 126.24 33.46 125.93
C33.31 125.62 33.09 125.39 32.81 125.25
C33.04 125.12 33.21 124.93 33.33 124.69
C33.44 124.46 33.50 124.17 33.50 123.82
C33.50 123.28 33.37 122.83 33.11 122.48
C32.85 122.13 32.53 121.96 32.14 121.96
Z
" fill="black" fill-rule="nonzero" />
<path d="
M32.45 159.17
L32.45 162.38
L30.99 162.38
L32.45 159.17
Z
M28.77 157.74
C28.67 158.05 28.50 158.37 28.26 158.70
C28.02 159.02 27.74 159.30 27.42 159.53
L27.42 160.37
C27.61 160.27 27.81 160.12 28.04 159.91
C28.26 159.71 28.44 159.51 28.57 159.32
L28.57 164.89
L29.15 164.89
L29.15 157.74
Z
M32.56 157.77
L30.43 162.38
L30.43 163.19
L32.45 163.19
L32.45 164.89
L33.03 164.89
L33.03 163.19
L33.66 163.19
L33.66 162.38
L33.03 162.38
L33.03 157.77
Z
" fill="black" fill-rule="nonzero" />
<path d="
M42.27 26.82
C41.73 26.82 41.30 26.99 40.97 27.33
C40.64 27.67 40.44 28.18 40.39 28.86
L41.12 28.95
C41.12 28.49 41.23 28.14 41.44 27.90
C41.65 27.66 41.92 27.54 42.25 27.54
C42.56 27.54 42.82 27.65 43.03 27.87
C43.23 28.10 43.34 28.39 43.34 28.75
C43.34 29.06 43.24 29.40 43.03 29.76
C42.83 30.12 42.39 30.63 41.73 31.29
C41.17 31.85 40.78 32.34 40.56 32.76
C40.35 33.17 40.25 33.55 40.26 33.89
L44.07 33.89
L44.07 33.06
L41.24 33.06
C41.32 32.90 41.42 32.74 41.54 32.59
C41.67 32.43 41.94 32.13 42.36 31.70
C43.02 31.02 43.47 30.47 43.71 30.06
C43.95 29.65 44.06 29.22 44.06 28.77
C44.06 28.26 43.91 27.81 43.61 27.42
C43.31 27.02 42.86 26.82 42.27 26.82
Z
" fill="black" fill-rule="nonzero" />
<path d="
M42.23 75.09
C42.49 75.09 42.71 75.20 42.90 75.41
C43.08 75.62 43.18 75.89 43.18 76.22
C43.18 76.54 43.09 76.80 42.90 77.00
C42.72 77.20 42.50 77.30 42.24 77.30
C41.98 77.30 41.75 77.20 41.57 76.99
C41.39 76.79 41.30 76.51 41.30 76.17
C41.30 75.86 41.39 75.61 41.57 75.40
C41.76 75.20 41.98 75.09 42.23 75.09
Z
M42.22 78.01
C42.55 78.01 42.83 78.14 43.06 78.40
C43.29 78.67 43.41 79.02 43.41 79.45
C43.41 79.88 43.30 80.22 43.07 80.47
C42.84 80.73 42.57 80.86 42.24 80.86
C41.92 80.86 41.64 80.73 41.41 80.46
C41.18 80.20 41.06 79.85 41.06 79.42
C41.06 79.00 41.17 78.66 41.40 78.40
C41.62 78.14 41.90 78.01 42.22 78.01
Z
M42.23 74.38
C41.75 74.38 41.35 74.55 41.04 74.89
C40.72 75.22 40.57 75.66 40.57 76.19
C40.57 76.55 40.64 76.84 40.78 77.08
C40.93 77.32 41.14 77.50 41.43 77.63
C41.09 77.74 40.82 77.95 40.63 78.25
C40.43 78.56 40.34 78.95 40.34 79.42
C40.34 80.06 40.52 80.58 40.88 80.98
C41.24 81.37 41.70 81.57 42.24 81.57
C42.78 81.57 43.23 81.37 43.59 80.98
C43.96 80.58 44.14 80.07 44.14 79.44
C44.14 78.99 44.04 78.61 43.86 78.30
C43.67 77.99 43.40 77.77 43.05 77.63
C43.34 77.50 43.55 77.32 43.69 77.08
C43.83 76.85 43.90 76.56 43.90 76.22
C43.90 75.68 43.74 75.24 43.42 74.90
C43.11 74.55 42.71 74.38 42.23 74.38
Z
" fill="black" fill-rule="nonzero" />
<path d="
M40.57 86.10
L40.54 86.20
C40.45 86.50 40.29 86.80 40.05 87.12
C39.82 87.43 39.55 87.70 39.25 87.92
L39.19 87.96
L39.19 88.03
L39.19 88.88
L39.19 89.12
L39.40 89.00
C39.59 88.89 39.81 88.73 40.04 88.52
C40.15 88.42 40.25 88.32 40.33 88.23
L40.33 88.23
L40.33 93.39
L40.33 93.54
L41.19 93.54
L41.19 93.39
L41.19 86.24
L41.19 86.10
Z
M43.99 86.10
C43.59 86.10 43.24 86.27 42.96 86.62
C42.69 86.95 42.52 87.44 42.44 88.07
L42.43 88.19
L42.55 88.23
L43.12 88.38
L43.28 88.43
L43.29 88.26
C43.33 87.85 43.42 87.55 43.56 87.36
C43.68 87.19 43.83 87.10 44.00 87.10
C44.00 87.10 44.00 87.10 44.00 87.10
C44.00 87.10 44.00 87.10 44.00 87.10
C44.17 87.10 44.31 87.19 44.43 87.35
C44.56 87.53 44.62 87.77 44.62 88.07
C44.62 88.40 44.54 88.66 44.39 88.85
C44.24 89.03 44.05 89.12 43.82 89.12
L43.82 89.12
L43.74 89.11
L43.59 89.10
L43.58 89.24
L43.51 90.01
L43.49 90.24
L43.49 90.24
L43.71 90.15
C43.85 90.10 43.97 90.07 44.06 90.07
C44.06 90.07 44.06 90.07 44.06 90.07
C44.06 90.07 44.06 90.07 44.06 90.07
C44.27 90.07 44.45 90.17 44.59 90.39
C44.75 90.61 44.83 90.92 44.83 91.31
C44.83 91.72 44.74 92.05 44.57 92.30
C44.41 92.54 44.22 92.65 44.01 92.65
C44.01 92.65 44.01 92.65 44.00 92.65
C44.00 92.65 44.00 92.65 44.00 92.65
C43.81 92.65 43.66 92.56 43.53 92.37
C43.39 92.15 43.30 91.82 43.24 91.38
L43.22 91.23
L43.07 91.26
L42.50 91.38
L42.37 91.40
L42.38 91.52
C42.42 92.16 42.59 92.68 42.89 93.06
C43.19 93.46 43.57 93.66 44.01 93.66
C44.49 93.66 44.90 93.43 45.23 92.98
C45.56 92.54 45.72 91.98 45.72 91.29
C45.72 90.97 45.68 90.68 45.61 90.41
C45.53 90.15 45.42 89.93 45.28 89.77
C45.20 89.66 45.09 89.57 44.97 89.50
L44.97 89.50
C45.11 89.37 45.23 89.20 45.31 89.01
C45.43 88.74 45.50 88.43 45.50 88.09
C45.49 87.53 45.35 87.06 45.07 86.68
C44.78 86.30 44.42 86.10 43.99 86.10
Z
" fill="white" fill-rule="nonzero" />
<path d="
M40.68 98.21
C40.58 98.52 40.41 98.84 40.17 99.17
C39.92 99.50 39.65 99.77 39.33 100.00
L39.33 100.84
C39.52 100.74 39.72 100.59 39.94 100.39
C40.17 100.18 40.34 99.98 40.48 99.79
L40.48 105.36
L41.05 105.36
L41.05 98.21
Z
M44.09 98.21
C43.65 98.21 43.30 98.38 43.03 98.73
C42.76 99.07 42.60 99.59 42.56 100.27
L43.15 100.36
C43.15 99.90 43.24 99.55 43.41 99.30
C43.58 99.06 43.80 98.94 44.07 98.94
C44.32 98.94 44.52 99.05 44.69 99.28
C44.86 99.51 44.95 99.80 44.95 100.16
C44.95 100.48 44.87 100.82 44.70 101.18
C44.53 101.55 44.18 102.06 43.65 102.73
C43.19 103.30 42.87 103.80 42.70 104.22
C42.53 104.64 42.45 105.02 42.45 105.36
L45.54 105.36
L45.54 104.52
L43.25 104.52
C43.31 104.36 43.39 104.20 43.49 104.05
C43.59 103.89 43.81 103.59 44.16 103.15
C44.69 102.46 45.06 101.90 45.25 101.49
C45.44 101.07 45.54 100.64 45.54 100.18
C45.54 99.67 45.41 99.22 45.17 98.81
C44.92 98.41 44.56 98.21 44.09 98.21
Z
" fill="black" fill-rule="nonzero" />
<path d="
M42.16 181.39
C41.68 181.39 41.26 181.56 40.92 181.89
C40.59 182.22 40.37 182.70 40.28 183.33
L40.26 183.46
L40.39 183.49
L41.09 183.65
L41.24 183.68
L41.26 183.53
C41.31 183.13 41.42 182.84 41.59 182.65
C41.74 182.47 41.94 182.38 42.17 182.38
C42.17 182.38 42.17 182.38 42.17 182.38
C42.17 182.38 42.17 182.38 42.17 182.38
C42.39 182.38 42.58 182.47 42.73 182.64
C42.89 182.81 42.97 183.04 42.97 183.34
C42.97 183.65 42.87 183.91 42.68 184.09
C42.49 184.28 42.25 184.37 41.94 184.37
L41.94 184.37
L41.84 184.37
L41.70 184.35
L41.68 184.49
L41.60 185.25
L41.58 185.47
L41.58 185.47
L41.78 185.40
C41.97 185.34 42.12 185.31 42.24 185.31
C42.24 185.31 42.24 185.31 42.24 185.31
C42.24 185.31 42.24 185.31 42.24 185.31
C42.52 185.31 42.75 185.42 42.94 185.64
C43.13 185.86 43.23 186.16 43.23 186.53
C43.23 186.93 43.12 187.26 42.91 187.50
C42.70 187.74 42.46 187.86 42.18 187.86
C42.18 187.86 42.17 187.86 42.17 187.86
C42.17 187.86 42.17 187.86 42.17 187.86
C41.92 187.86 41.71 187.77 41.56 187.57
C41.38 187.36 41.26 187.04 41.19 186.60
L41.17 186.46
L41.03 186.48
L40.32 186.60
L40.19 186.62
L40.20 186.75
C40.25 187.39 40.46 187.90 40.83 188.28
C41.20 188.67 41.65 188.86 42.18 188.86
C42.76 188.86 43.25 188.64 43.65 188.20
C44.06 187.76 44.26 187.20 44.26 186.52
C44.26 186.20 44.21 185.90 44.12 185.64
C44.02 185.38 43.88 185.16 43.72 185.00
C43.61 184.90 43.49 184.81 43.35 184.75
L43.35 184.75
C43.52 184.62 43.65 184.46 43.75 184.27
C43.90 184.01 43.98 183.70 43.98 183.35
C43.98 182.79 43.80 182.32 43.45 181.95
C43.10 181.58 42.67 181.39 42.16 181.39
Z
" fill="white" fill-rule="nonzero" />
<path d="
M54.14 63.33
C54.14 63.33 54.15 63.33 54.15 63.33
C54.15 63.33 54.15 63.33 54.15 63.33
C54.39 63.33 54.61 63.46 54.81 63.71
C55.01 63.97 55.11 64.34 55.11 64.81
C55.11 65.28 55.01 65.64 54.82 65.89
C54.63 66.13 54.40 66.25 54.13 66.25
C54.13 66.25 54.13 66.25 54.13 66.25
C54.13 66.25 54.13 66.25 54.13 66.25
C53.86 66.25 53.62 66.13 53.42 65.89
C53.22 65.65 53.12 65.31 53.12 64.88
C53.12 64.40 53.23 64.02 53.44 63.74
C53.65 63.47 53.89 63.33 54.14 63.33
Z
M54.06 62.34
C53.52 62.34 53.05 62.57 52.67 63.02
C52.29 63.47 52.10 64.08 52.10 64.85
C52.10 65.60 52.29 66.19 52.65 66.63
C53.02 67.08 53.46 67.30 53.97 67.30
C54.26 67.30 54.54 67.21 54.82 67.03
C54.95 66.93 55.07 66.83 55.18 66.70
L55.18 66.70
C55.16 67.12 55.10 67.48 55.00 67.81
C54.87 68.19 54.72 68.46 54.55 68.60
C54.38 68.74 54.20 68.81 53.99 68.81
C53.99 68.81 53.99 68.81 53.99 68.81
C53.99 68.81 53.99 68.81 53.99 68.81
C53.77 68.81 53.59 68.73 53.46 68.58
C53.32 68.42 53.22 68.16 53.17 67.82
L53.15 67.68
L53.02 67.70
L52.34 67.78
L52.20 67.79
L52.21 67.93
C52.27 68.53 52.46 68.99 52.78 69.31
C53.10 69.64 53.50 69.80 53.98 69.80
C54.40 69.80 54.78 69.67 55.11 69.40
C55.45 69.14 55.71 68.73 55.90 68.17
C56.09 67.62 56.18 66.85 56.18 65.87
C56.18 64.99 56.10 64.31 55.92 63.83
C55.74 63.34 55.49 62.97 55.15 62.72
C54.82 62.46 54.45 62.34 54.06 62.34
Z
" fill="white" fill-rule="nonzero" />
<path d="
M52.48 74.26
L52.45 74.36
C52.35 74.65 52.19 74.96 51.96 75.27
C51.72 75.59 51.46 75.85 51.15 76.07
L51.09 76.12
L51.09 76.19
L51.09 77.03
L51.09 77.27
L51.30 77.16
C51.50 77.05 51.71 76.89 51.94 76.68
C52.05 76.58 52.15 76.48 52.24 76.39
L52.24 76.39
L52.24 81.55
L52.24 81.69
L53.10 81.69
L53.10 81.55
L53.10 74.40
L53.10 74.26
Z
M56.11 74.26
L56.08 74.36
C55.98 74.65 55.82 74.96 55.59 75.27
C55.35 75.59 55.09 75.85 54.78 76.07
L54.72 76.12
L54.72 76.19
L54.72 77.03
L54.72 77.27
L54.93 77.16
C55.13 77.05 55.34 76.89 55.57 76.68
C55.68 76.58 55.78 76.48 55.87 76.39
L55.87 76.39
L55.87 81.55
L55.87 81.69
L56.73 81.69
L56.73 81.55
L56.73 74.40
L56.73 74.26
Z
" fill="white" fill-rule="nonzero" />
<path d="
M52.48 86.16
L52.45 86.26
C52.35 86.56 52.19 86.86 51.96 87.18
C51.72 87.49 51.46 87.76 51.15 87.98
L51.09 88.02
L51.09 88.09
L51.09 88.94
L51.09 89.18
L51.30 89.06
C51.50 88.95 51.71 88.79 51.94 88.58
C52.05 88.49 52.15 88.39 52.24 88.29
L52.24 88.29
L52.24 93.46
L52.24 93.60
L53.10 93.60
L53.10 93.46
L53.10 86.31
L53.10 86.16
Z
M54.32 86.29
L54.32 86.43
L54.32 87.27
L54.32 87.41
L56.51 87.41
C56.26 87.88 56.02 88.43 55.80 89.06
C55.55 89.78 55.35 90.55 55.21 91.35
C55.06 92.15 54.98 92.85 54.98 93.46
L54.97 93.60
L55.71 93.60
L55.84 93.60
L55.85 93.46
C55.90 92.32 56.10 91.17 56.43 90.01
C56.77 88.84 57.16 87.90 57.61 87.18
L57.63 87.15
L57.63 87.11
L57.63 86.43
L57.63 86.29
Z
" fill="white" fill-rule="nonzero" />
<path d="
M67.28 195.91
L67.28 195.91
L67.28 195.91
C67.28 195.91 67.28 195.91 67.28 195.91
Z
M64.39 193.25
L64.35 193.35
C64.26 193.65 64.10 193.95 63.86 194.27
C63.63 194.58 63.36 194.85 63.06 195.07
L63.00 195.11
L63.00 195.18
L63.00 196.03
L63.00 196.27
L63.21 196.15
C63.41 196.04 63.62 195.88 63.85 195.67
C63.96 195.57 64.06 195.48 64.15 195.38
L64.15 195.38
L64.15 200.55
L64.15 200.69
L65.00 200.69
L65.00 200.55
L65.00 193.39
L65.00 193.25
Z
M66.76 193.38
L66.75 193.50
L66.29 197.16
L66.28 197.29
L66.40 197.32
L66.94 197.43
L67.06 197.45
L67.10 197.34
C67.18 197.15 67.29 197.00 67.42 196.89
C67.55 196.79 67.68 196.74 67.82 196.74
C67.82 196.74 67.82 196.74 67.82 196.74
C67.82 196.74 67.82 196.74 67.82 196.74
C68.06 196.74 68.26 196.86 68.42 197.10
C68.59 197.35 68.68 197.72 68.68 198.20
C68.68 198.71 68.59 199.11 68.41 199.40
C68.24 199.67 68.05 199.81 67.83 199.81
C67.83 199.81 67.82 199.81 67.82 199.81
C67.82 199.81 67.82 199.81 67.82 199.81
C67.65 199.81 67.50 199.72 67.36 199.53
C67.21 199.33 67.12 199.02 67.07 198.59
L67.06 198.44
L66.92 198.46
L66.31 198.54
L66.18 198.56
L66.19 198.69
C66.23 199.34 66.40 199.85 66.70 200.23
C67.00 200.61 67.38 200.81 67.83 200.81
C68.37 200.81 68.80 200.54 69.12 199.99
C69.42 199.47 69.57 198.85 69.57 198.13
C69.57 197.40 69.42 196.81 69.11 196.37
C68.79 195.91 68.42 195.68 67.98 195.68
C67.73 195.68 67.50 195.76 67.28 195.91
L67.28 195.91
L67.47 194.50
L69.35 194.50
L69.35 194.36
L69.35 193.52
L69.35 193.38
Z
" fill="white" fill-rule="nonzero" />
<path d="
M79.74 27.44
C80.02 27.44 80.25 27.64 80.43 28.03
C80.60 28.42 80.69 29.20 80.69 30.36
C80.69 31.50 80.60 32.28 80.43 32.67
C80.25 33.07 80.03 33.27 79.77 33.27
C79.49 33.27 79.27 33.07 79.09 32.68
C78.91 32.29 78.82 31.51 78.82 30.36
C78.82 29.21 78.91 28.44 79.09 28.04
C79.26 27.64 79.48 27.44 79.74 27.44
Z
M76.39 26.72
C76.30 27.03 76.13 27.35 75.88 27.67
C75.64 28.00 75.36 28.28 75.05 28.51
L75.05 29.35
C75.23 29.25 75.44 29.09 75.66 28.89
C75.88 28.69 76.06 28.49 76.19 28.30
L76.19 33.87
L76.77 33.87
L76.77 26.72
Z
M79.76 26.72
C79.26 26.72 78.88 27.03 78.62 27.64
C78.37 28.26 78.24 29.16 78.24 30.36
C78.24 31.69 78.38 32.63 78.66 33.17
C78.95 33.72 79.31 33.99 79.76 33.99
C80.26 33.99 80.64 33.68 80.90 33.07
C81.16 32.45 81.28 31.55 81.28 30.36
C81.28 29.03 81.13 28.07 80.82 27.47
C80.56 26.97 80.21 26.72 79.76 26.72
Z
" fill="black" fill-rule="nonzero" />
<path d="
M115.52 30.02
C115.77 30.02 115.98 30.16 116.16 30.44
C116.34 30.72 116.42 31.11 116.42 31.61
C116.42 32.13 116.34 32.53 116.16 32.83
C115.98 33.12 115.78 33.27 115.55 33.27
C115.30 33.27 115.07 33.11 114.88 32.80
C114.68 32.49 114.59 32.07 114.59 31.56
C114.59 31.09 114.68 30.71 114.86 30.43
C115.05 30.16 115.27 30.02 115.52 30.02
Z
M115.60 26.72
C115.11 26.72 114.71 27.01 114.40 27.59
C114.08 28.18 113.93 29.16 113.93 30.53
C113.93 31.77 114.08 32.66 114.38 33.19
C114.69 33.72 115.08 33.99 115.55 33.99
C115.81 33.99 116.05 33.90 116.27 33.71
C116.49 33.53 116.67 33.24 116.80 32.85
C116.94 32.47 117.01 32.04 117.01 31.56
C117.01 30.86 116.87 30.29 116.60 29.88
C116.32 29.46 116.00 29.25 115.63 29.25
C115.41 29.25 115.19 29.33 114.99 29.49
C114.80 29.65 114.63 29.88 114.50 30.19
C114.50 29.32 114.59 28.66 114.76 28.21
C114.96 27.69 115.23 27.43 115.57 27.43
C115.78 27.43 115.97 27.55 116.12 27.77
C116.22 27.93 116.30 28.19 116.36 28.56
L116.93 28.49
C116.88 27.91 116.73 27.47 116.49 27.17
C116.25 26.87 115.96 26.72 115.60 26.72
Z
M111.80 26.72
C111.44 26.72 111.13 26.87 110.87 27.18
C110.62 27.49 110.46 27.95 110.39 28.56
L110.96 28.72
C111.00 28.29 111.09 27.96 111.25 27.75
C111.40 27.54 111.58 27.43 111.80 27.43
C112.02 27.43 112.20 27.54 112.34 27.74
C112.49 27.94 112.57 28.21 112.57 28.54
C112.57 28.90 112.48 29.19 112.30 29.41
C112.13 29.63 111.90 29.74 111.61 29.74
L111.52 29.73
L111.46 30.49
C111.62 30.43 111.75 30.40 111.86 30.40
C112.12 30.40 112.34 30.52 112.51 30.78
C112.69 31.03 112.78 31.36 112.78 31.78
C112.78 32.22 112.68 32.58 112.49 32.85
C112.30 33.13 112.07 33.27 111.81 33.27
C111.32 33.27 111.02 32.80 110.90 31.87
L110.33 31.99
C110.37 32.60 110.52 33.09 110.80 33.45
C111.08 33.81 111.42 33.99 111.82 33.99
C112.25 33.99 112.61 33.78 112.92 33.37
C113.23 32.95 113.39 32.42 113.39 31.76
C113.39 31.46 113.35 31.18 113.27 30.93
C113.20 30.68 113.10 30.48 112.98 30.33
C112.86 30.18 112.70 30.07 112.52 30.01
C112.72 29.87 112.87 29.67 112.99 29.42
C113.10 29.17 113.16 28.89 113.16 28.56
C113.16 28.03 113.02 27.59 112.76 27.24
C112.50 26.89 112.17 26.72 111.80 26.72
Z
" fill="black" fill-rule="nonzero" />
<path d="
M115.48 51.25
C115.69 51.25 115.87 51.35 116.02 51.56
C116.17 51.78 116.25 52.05 116.25 52.38
C116.25 52.71 116.18 52.97 116.03 53.17
C115.88 53.38 115.70 53.48 115.49 53.48
C115.28 53.48 115.10 53.38 114.95 53.17
C114.80 52.96 114.73 52.68 114.73 52.33
C114.73 52.02 114.80 51.76 114.95 51.56
C115.10 51.35 115.28 51.25 115.48 51.25
Z
M115.48 54.19
C115.74 54.19 115.97 54.33 116.16 54.60
C116.35 54.86 116.44 55.21 116.44 55.65
C116.44 56.09 116.35 56.43 116.16 56.69
C115.98 56.95 115.76 57.08 115.49 57.08
C115.23 57.08 115.01 56.95 114.82 56.68
C114.63 56.41 114.54 56.06 114.54 55.62
C114.54 55.20 114.63 54.86 114.81 54.59
C114.99 54.33 115.21 54.19 115.48 54.19
Z
M115.48 50.53
C115.09 50.53 114.77 50.70 114.52 51.04
C114.26 51.38 114.14 51.82 114.14 52.36
C114.14 52.72 114.19 53.02 114.31 53.26
C114.43 53.50 114.60 53.69 114.84 53.82
C114.56 53.93 114.34 54.14 114.18 54.44
C114.03 54.75 113.95 55.15 113.95 55.62
C113.95 56.27 114.10 56.80 114.39 57.20
C114.68 57.60 115.05 57.80 115.49 57.80
C115.93 57.80 116.29 57.60 116.59 57.20
C116.88 56.80 117.03 56.28 117.03 55.65
C117.03 55.19 116.95 54.80 116.80 54.49
C116.65 54.18 116.43 53.95 116.15 53.82
C116.38 53.68 116.55 53.50 116.67 53.26
C116.78 53.02 116.84 52.73 116.84 52.39
C116.84 51.84 116.71 51.39 116.45 51.05
C116.19 50.70 115.87 50.53 115.48 50.53
Z
M111.80 50.53
C111.44 50.53 111.13 50.68 110.87 50.99
C110.62 51.30 110.46 51.76 110.39 52.37
L110.96 52.53
C111.00 52.10 111.09 51.78 111.25 51.56
C111.40 51.35 111.58 51.25 111.80 51.25
C112.02 51.25 112.20 51.35 112.34 51.55
C112.49 51.75 112.57 52.02 112.57 52.35
C112.57 52.72 112.48 53.01 112.30 53.22
C112.13 53.44 111.90 53.55 111.61 53.55
L111.52 53.54
L111.46 54.31
C111.62 54.24 111.75 54.21 111.86 54.21
C112.12 54.21 112.34 54.34 112.51 54.59
C112.69 54.84 112.78 55.17 112.78 55.59
C112.78 56.03 112.68 56.39 112.49 56.66
C112.30 56.94 112.07 57.08 111.81 57.08
C111.32 57.08 111.02 56.61 110.90 55.68
L110.33 55.80
C110.37 56.41 110.52 56.90 110.80 57.26
C111.08 57.62 111.42 57.80 111.82 57.80
C112.25 57.80 112.61 57.60 112.92 57.18
C113.23 56.76 113.39 56.23 113.39 55.57
C113.39 55.27 113.35 54.99 113.27 54.74
C113.20 54.49 113.10 54.29 112.98 54.14
C112.86 53.99 112.70 53.88 112.52 53.82
C112.72 53.68 112.87 53.48 112.99 53.23
C113.10 52.98 113.16 52.70 113.16 52.37
C113.16 51.84 113.02 51.40 112.76 51.05
C112.50 50.70 112.17 50.53 111.80 50.53
Z
" fill="black" fill-rule="nonzero" />
<path d="
M137.66 26.69
L137.66 26.84
L137.66 27.68
L137.66 27.82
L139.85 27.82
C139.60 28.29 139.36 28.84 139.14 29.47
C138.89 30.19 138.69 30.96 138.54 31.76
C138.40 32.56 138.32 33.26 138.31 33.86
L138.31 34.01
L139.05 34.01
L139.18 34.01
L139.19 33.87
C139.24 32.73 139.43 31.58 139.77 30.42
C140.11 29.25 140.50 28.31 140.95 27.59
L140.97 27.56
L140.97 27.52
L140.97 26.84
L140.97 26.69
Z
M135.61 26.57
C135.20 26.57 134.86 26.75 134.58 27.09
C134.30 27.42 134.13 27.91 134.06 28.54
L134.04 28.67
L134.16 28.70
L134.73 28.85
L134.89 28.90
L134.91 28.73
C134.95 28.32 135.04 28.03 135.17 27.83
C135.29 27.66 135.44 27.58 135.61 27.58
C135.61 27.58 135.61 27.58 135.61 27.58
C135.62 27.58 135.62 27.58 135.62 27.58
C135.78 27.58 135.92 27.66 136.04 27.82
C136.17 28.00 136.24 28.24 136.24 28.54
C136.24 28.87 136.16 29.13 136.00 29.32
C135.86 29.50 135.67 29.59 135.43 29.60
L135.43 29.60
L135.35 29.59
L135.21 29.57
L135.19 29.72
L135.13 30.48
L135.11 30.71
L135.32 30.63
C135.47 30.57 135.58 30.54 135.67 30.54
C135.67 30.54 135.67 30.54 135.67 30.54
C135.67 30.54 135.68 30.54 135.68 30.54
C135.88 30.54 136.06 30.65 136.21 30.86
C136.37 31.09 136.45 31.39 136.44 31.78
C136.44 32.19 136.36 32.52 136.18 32.77
C136.02 33.01 135.83 33.13 135.62 33.13
C135.62 33.13 135.62 33.13 135.62 33.13
C135.62 33.13 135.62 33.13 135.61 33.13
C135.42 33.13 135.27 33.03 135.15 32.84
C135.01 32.63 134.91 32.30 134.85 31.85
L134.83 31.70
L134.68 31.73
L134.11 31.85
L133.99 31.87
L134.00 32.00
C134.04 32.64 134.21 33.15 134.50 33.53
C134.81 33.93 135.18 34.13 135.63 34.13
C136.10 34.13 136.51 33.91 136.85 33.45
C137.17 33.01 137.34 32.45 137.34 31.76
C137.34 31.44 137.30 31.15 137.22 30.89
C137.14 30.62 137.03 30.40 136.90 30.24
C136.81 30.13 136.71 30.04 136.59 29.97
L136.59 29.97
C136.73 29.84 136.84 29.67 136.93 29.48
C137.05 29.21 137.11 28.91 137.11 28.56
C137.11 28.00 136.97 27.53 136.68 27.15
C136.39 26.77 136.03 26.57 135.61 26.57
Z
" fill="white" fill-rule="nonzero" />
<path d="
M139.30 51.39
C139.30 51.39 139.30 51.39 139.30 51.39
C139.30 51.39 139.31 51.39 139.31 51.39
C139.49 51.39 139.66 51.52 139.81 51.76
C139.98 52.03 140.06 52.41 140.06 52.89
C140.06 53.37 139.98 53.74 139.82 54.00
C139.67 54.23 139.50 54.35 139.30 54.35
C139.29 54.35 139.29 54.35 139.29 54.35
C139.29 54.35 139.29 54.35 139.29 54.35
C139.08 54.35 138.90 54.23 138.75 54.00
C138.58 53.74 138.50 53.40 138.50 52.96
C138.50 52.47 138.59 52.08 138.76 51.79
C138.93 51.52 139.11 51.39 139.30 51.39
Z
M139.24 50.38
C138.78 50.39 138.39 50.62 138.08 51.09
C137.77 51.54 137.62 52.16 137.62 52.93
C137.62 53.68 137.77 54.28 138.06 54.72
C138.36 55.17 138.73 55.40 139.16 55.40
C139.41 55.40 139.64 55.31 139.87 55.12
C139.96 55.05 140.04 54.96 140.11 54.87
L140.11 54.87
C140.09 55.26 140.04 55.62 139.96 55.93
C139.86 56.32 139.74 56.59 139.60 56.74
C139.47 56.87 139.33 56.94 139.18 56.94
C139.18 56.94 139.18 56.94 139.18 56.94
C139.18 56.94 139.18 56.94 139.17 56.94
C139.01 56.94 138.88 56.86 138.78 56.72
C138.66 56.55 138.58 56.29 138.54 55.94
L138.53 55.79
L138.38 55.81
L137.83 55.89
L137.70 55.91
L137.71 56.04
C137.76 56.64 137.91 57.11 138.17 57.43
C138.43 57.77 138.77 57.94 139.17 57.94
C139.52 57.94 139.84 57.80 140.12 57.53
C140.39 57.26 140.60 56.84 140.75 56.28
C140.90 55.72 140.98 54.95 140.98 53.96
C140.98 53.07 140.91 52.38 140.77 51.90
C140.62 51.41 140.42 51.04 140.15 50.78
C139.87 50.52 139.56 50.38 139.24 50.38
Z
M135.61 50.38
C135.20 50.39 134.86 50.56 134.58 50.90
C134.30 51.24 134.13 51.72 134.06 52.36
L134.04 52.48
L134.16 52.51
L134.73 52.66
L134.89 52.71
L134.91 52.54
C134.95 52.14 135.04 51.84 135.17 51.65
C135.29 51.47 135.44 51.39 135.61 51.39
C135.61 51.39 135.61 51.39 135.61 51.39
C135.62 51.39 135.62 51.39 135.62 51.39
C135.78 51.39 135.92 51.47 136.04 51.63
C136.17 51.81 136.24 52.05 136.24 52.35
C136.24 52.68 136.16 52.94 136.00 53.13
C135.86 53.31 135.67 53.41 135.43 53.41
L135.43 53.41
L135.35 53.40
L135.21 53.38
L135.19 53.53
L135.13 54.29
L135.11 54.52
L135.32 54.44
C135.47 54.38 135.58 54.35 135.67 54.35
C135.67 54.35 135.67 54.35 135.67 54.35
C135.67 54.35 135.68 54.35 135.68 54.35
C135.88 54.35 136.06 54.46 136.21 54.67
C136.37 54.90 136.45 55.20 136.44 55.59
C136.44 56.00 136.36 56.33 136.18 56.58
C136.02 56.82 135.83 56.94 135.62 56.94
C135.62 56.94 135.62 56.94 135.62 56.94
C135.62 56.94 135.62 56.94 135.61 56.94
C135.42 56.94 135.27 56.84 135.15 56.65
C135.01 56.44 134.91 56.11 134.85 55.66
L134.83 55.51
L134.68 55.54
L134.11 55.66
L133.99 55.68
L134.00 55.81
C134.04 56.45 134.21 56.96 134.50 57.35
C134.81 57.74 135.18 57.94 135.63 57.95
C136.10 57.94 136.51 57.72 136.85 57.26
C137.17 56.82 137.34 56.26 137.34 55.57
C137.34 55.25 137.30 54.96 137.22 54.70
C137.14 54.43 137.03 54.21 136.90 54.05
C136.81 53.94 136.71 53.85 136.59 53.79
L136.59 53.79
C136.73 53.65 136.84 53.48 136.93 53.29
C137.05 53.02 137.11 52.72 137.11 52.37
C137.11 51.81 136.97 51.34 136.68 50.97
C136.39 50.58 136.03 50.39 135.61 50.38
Z
" fill="white" fill-rule="nonzero" />
<path d="
M147.51 109.91
C147.11 109.91 146.76 110.09 146.48 110.43
C146.21 110.76 146.04 111.25 145.96 111.88
L145.95 112.00
L146.06 112.04
L146.64 112.19
L146.80 112.24
L146.81 112.07
C146.85 111.66 146.94 111.36 147.08 111.17
C147.20 111.00 147.35 110.91 147.52 110.91
C147.52 110.91 147.52 110.91 147.52 110.91
C147.52 110.91 147.52 110.91 147.52 110.91
C147.69 110.91 147.83 111.00 147.95 111.16
C148.08 111.34 148.14 111.58 148.14 111.88
C148.14 112.21 148.06 112.47 147.91 112.66
C147.76 112.84 147.57 112.93 147.34 112.93
L147.34 112.93
L147.26 112.93
L147.11 112.91
L147.10 113.05
L147.03 113.82
L147.01 114.05
L147.23 113.97
C147.37 113.91 147.49 113.88 147.58 113.88
C147.58 113.88 147.58 113.88 147.58 113.88
C147.58 113.88 147.58 113.88 147.58 113.88
C147.79 113.88 147.97 113.98 148.11 114.20
C148.27 114.42 148.35 114.73 148.35 115.12
C148.35 115.53 148.26 115.86 148.09 116.11
C147.93 116.35 147.74 116.47 147.53 116.47
C147.53 116.47 147.53 116.47 147.52 116.47
C147.52 116.47 147.52 116.47 147.52 116.47
C147.33 116.47 147.17 116.37 147.05 116.18
C146.91 115.97 146.82 115.64 146.76 115.19
L146.74 115.04
L146.59 115.07
L146.02 115.19
L145.89 115.21
L145.90 115.33
C145.94 115.97 146.11 116.49 146.41 116.87
C146.71 117.27 147.09 117.47 147.53 117.47
C148.01 117.47 148.42 117.25 148.75 116.79
C149.08 116.35 149.24 115.79 149.24 115.10
C149.24 114.78 149.20 114.49 149.13 114.22
C149.04 113.96 148.94 113.74 148.80 113.58
C148.72 113.47 148.61 113.38 148.49 113.31
L148.49 113.31
C148.63 113.18 148.75 113.01 148.83 112.82
C148.95 112.55 149.01 112.24 149.01 111.90
C149.01 111.34 148.87 110.87 148.59 110.49
C148.30 110.11 147.94 109.91 147.51 109.91
Z
M151.14 109.91
C150.74 109.91 150.39 110.09 150.11 110.43
C149.84 110.76 149.67 111.25 149.59 111.88
L149.58 112.00
L149.69 112.04
L150.27 112.19
L150.43 112.24
L150.44 112.07
C150.48 111.66 150.57 111.36 150.71 111.17
C150.83 111.00 150.98 110.91 151.15 110.91
C151.15 110.91 151.15 110.91 151.15 110.91
C151.15 110.91 151.15 110.91 151.15 110.91
C151.32 110.91 151.46 111.00 151.58 111.16
C151.71 111.34 151.77 111.58 151.77 111.88
C151.77 112.21 151.69 112.47 151.54 112.66
C151.39 112.84 151.20 112.93 150.97 112.93
L150.97 112.93
L150.89 112.93
L150.74 112.91
L150.73 113.05
L150.66 113.82
L150.64 114.05
L150.86 113.97
C151.00 113.91 151.12 113.88 151.21 113.88
C151.21 113.88 151.21 113.88 151.21 113.88
C151.21 113.88 151.21 113.88 151.21 113.88
C151.42 113.88 151.60 113.98 151.74 114.20
C151.90 114.42 151.98 114.73 151.98 115.12
C151.98 115.53 151.89 115.86 151.72 116.11
C151.56 116.35 151.37 116.47 151.16 116.47
C151.16 116.47 151.16 116.47 151.15 116.47
C151.15 116.47 151.15 116.47 151.15 116.47
C150.96 116.47 150.80 116.37 150.68 116.18
C150.54 115.97 150.45 115.64 150.39 115.19
L150.37 115.04
L150.22 115.07
L149.65 115.19
L149.52 115.21
L149.53 115.33
C149.57 115.97 149.74 116.49 150.04 116.87
C150.34 117.27 150.72 117.47 151.16 117.47
C151.64 117.47 152.05 117.25 152.38 116.79
C152.71 116.35 152.87 115.79 152.87 115.10
C152.87 114.78 152.83 114.49 152.76 114.22
C152.67 113.96 152.57 113.74 152.43 113.58
C152.35 113.47 152.24 113.38 152.12 113.31
L152.12 113.31
C152.26 113.18 152.38 113.01 152.46 112.82
C152.58 112.55 152.64 112.24 152.64 111.90
C152.64 111.34 152.50 110.87 152.22 110.49
C151.93 110.11 151.57 109.91 151.14 109.91
Z
" fill="white" fill-rule="nonzero" />
<path d="
M151.51 135.30
L151.51 138.51
L150.05 138.51
L151.51 135.30
Z
M151.62 133.89
L149.48 138.51
L149.48 139.31
L151.51 139.31
L151.51 141.02
L152.08 141.02
L152.08 139.31
L152.72 139.31
L152.72 138.51
L152.08 138.51
L152.08 133.89
Z
M147.51 133.86
C147.15 133.86 146.85 134.02 146.59 134.33
C146.34 134.64 146.17 135.10 146.10 135.71
L146.67 135.87
C146.71 135.44 146.81 135.11 146.96 134.90
C147.11 134.69 147.30 134.58 147.52 134.58
C147.73 134.58 147.91 134.69 148.06 134.89
C148.21 135.09 148.28 135.36 148.28 135.69
C148.28 136.05 148.19 136.34 148.02 136.56
C147.84 136.78 147.61 136.89 147.33 136.89
L147.24 136.88
L147.17 137.64
C147.34 137.58 147.47 137.55 147.58 137.55
C147.84 137.55 148.05 137.67 148.23 137.93
C148.40 138.18 148.49 138.51 148.49 138.93
C148.49 139.37 148.40 139.73 148.20 140.00
C148.01 140.28 147.79 140.42 147.52 140.42
C147.04 140.42 146.74 139.95 146.62 139.02
L146.04 139.14
C146.08 139.75 146.24 140.24 146.52 140.60
C146.79 140.96 147.13 141.14 147.53 141.14
C147.96 141.14 148.33 140.93 148.64 140.52
C148.95 140.10 149.10 139.57 149.10 138.91
C149.10 138.60 149.06 138.33 148.99 138.08
C148.91 137.83 148.82 137.63 148.69 137.48
C148.57 137.33 148.42 137.22 148.23 137.16
C148.43 137.02 148.59 136.82 148.70 136.57
C148.82 136.32 148.87 136.03 148.87 135.71
C148.87 135.18 148.74 134.74 148.48 134.39
C148.21 134.04 147.89 133.86 147.51 133.86
Z
" fill="black" fill-rule="nonzero" />
<path d="
M147.61 193.31
C147.12 193.31 146.73 193.51 146.43 193.89
C146.15 194.25 145.98 194.79 145.94 195.51
L145.93 195.64
L146.06 195.66
L146.65 195.75
L146.81 195.77
L146.81 195.61
C146.81 195.18 146.89 194.85 147.05 194.63
C147.19 194.42 147.37 194.32 147.58 194.32
C147.58 194.32 147.59 194.32 147.59 194.32
C147.59 194.32 147.59 194.32 147.59 194.32
C147.79 194.32 147.96 194.42 148.10 194.61
C148.25 194.81 148.33 195.08 148.33 195.41
C148.33 195.70 148.25 196.02 148.09 196.37
C147.93 196.72 147.59 197.23 147.06 197.88
C146.59 198.47 146.27 198.98 146.09 199.41
C145.91 199.85 145.82 200.25 145.83 200.61
L145.83 200.75
L149.21 200.75
L149.21 200.61
L149.21 199.77
L149.21 199.62
L146.99 199.62
C147.03 199.54 147.08 199.45 147.13 199.37
C147.23 199.21 147.45 198.92 147.79 198.48
C148.33 197.78 148.70 197.22 148.90 196.79
C149.10 196.36 149.20 195.90 149.20 195.43
C149.20 194.89 149.07 194.41 148.81 193.98
C148.54 193.54 148.13 193.32 147.61 193.31
Z
M151.35 193.31
L151.32 193.41
C151.23 193.71 151.07 194.01 150.83 194.33
C150.60 194.64 150.33 194.91 150.03 195.13
L149.97 195.17
L149.97 195.24
L149.97 196.09
L149.97 196.33
L150.18 196.21
C150.37 196.10 150.59 195.94 150.82 195.73
C150.93 195.64 151.03 195.54 151.11 195.44
L151.11 195.44
L151.11 200.61
L151.11 200.75
L151.97 200.75
L151.97 200.61
L151.97 193.46
L151.97 193.31
Z
" fill="white" fill-rule="nonzero" />
<path d="
M175.16 98.01
L175.13 98.11
C175.04 98.40 174.88 98.71 174.64 99.02
C174.41 99.34 174.14 99.60 173.84 99.82
L173.78 99.86
L173.78 99.94
L173.78 100.78
L173.78 101.02
L173.99 100.91
C174.18 100.80 174.40 100.64 174.63 100.43
C174.74 100.33 174.84 100.23 174.92 100.13
L174.92 100.13
L174.92 105.30
L174.92 105.44
L175.78 105.44
L175.78 105.30
L175.78 98.15
L175.78 98.01
Z
M171.32 98.01
C170.92 98.01 170.58 98.18 170.29 98.53
C170.02 98.86 169.85 99.34 169.77 99.98
L169.76 100.10
L169.88 100.13
L170.45 100.29
L170.61 100.33
L170.63 100.16
C170.66 99.76 170.75 99.46 170.89 99.27
C171.01 99.10 171.16 99.01 171.33 99.01
C171.33 99.01 171.33 99.01 171.33 99.01
C171.33 99.01 171.33 99.01 171.33 99.01
C171.50 99.01 171.64 99.09 171.76 99.25
C171.89 99.43 171.95 99.67 171.95 99.97
C171.95 100.30 171.87 100.56 171.72 100.76
C171.57 100.94 171.38 101.03 171.15 101.03
L171.15 101.03
L171.07 101.02
L170.92 101.00
L170.91 101.15
L170.84 101.92
L170.82 102.15
L171.04 102.06
C171.18 102.00 171.30 101.97 171.39 101.97
C171.39 101.97 171.39 101.97 171.39 101.97
C171.39 101.97 171.39 101.97 171.39 101.97
C171.60 101.97 171.78 102.08 171.92 102.29
C172.08 102.52 172.16 102.83 172.16 103.21
C172.16 103.62 172.07 103.95 171.90 104.21
C171.74 104.44 171.55 104.56 171.34 104.56
C171.34 104.56 171.34 104.56 171.34 104.56
C171.33 104.56 171.33 104.56 171.33 104.56
C171.14 104.56 170.99 104.47 170.86 104.28
C170.73 104.06 170.63 103.73 170.57 103.28
L170.55 103.13
L170.40 103.16
L169.83 103.28
L169.71 103.31
L169.71 103.43
C169.75 104.07 169.92 104.58 170.22 104.97
C170.52 105.37 170.90 105.57 171.34 105.57
C171.82 105.57 172.23 105.34 172.56 104.89
C172.89 104.44 173.05 103.88 173.05 103.20
C173.06 102.87 173.02 102.58 172.94 102.32
C172.86 102.05 172.75 101.84 172.61 101.67
C172.53 101.56 172.42 101.48 172.31 101.41
L172.31 101.41
C172.44 101.27 172.56 101.11 172.64 100.91
C172.77 100.64 172.83 100.34 172.83 99.99
C172.83 99.43 172.68 98.96 172.40 98.59
C172.11 98.20 171.75 98.01 171.32 98.01
Z
" fill="white" fill-rule="nonzero" />
<path d="
M175.05 121.96
C174.61 121.96 174.26 122.13 173.99 122.48
C173.72 122.82 173.56 123.34 173.52 124.02
L174.11 124.11
C174.11 123.65 174.20 123.30 174.37 123.05
C174.54 122.81 174.76 122.68 175.03 122.68
C175.28 122.68 175.49 122.80 175.66 123.03
C175.83 123.25 175.91 123.55 175.91 123.91
C175.91 124.23 175.83 124.57 175.66 124.93
C175.50 125.29 175.14 125.81 174.61 126.48
C174.15 127.05 173.83 127.55 173.66 127.97
C173.49 128.39 173.41 128.77 173.41 129.11
L176.50 129.11
L176.50 128.27
L174.21 128.27
C174.27 128.11 174.35 127.95 174.45 127.79
C174.55 127.64 174.77 127.34 175.12 126.90
C175.65 126.21 176.02 125.65 176.21 125.24
C176.40 124.82 176.50 124.39 176.50 123.93
C176.50 123.42 176.37 122.96 176.13 122.56
C175.88 122.16 175.52 121.96 175.05 121.96
Z
M171.32 121.96
C170.96 121.96 170.66 122.11 170.40 122.43
C170.15 122.74 169.99 123.20 169.91 123.81
L170.48 123.96
C170.53 123.53 170.62 123.21 170.77 123.00
C170.93 122.78 171.11 122.68 171.33 122.68
C171.54 122.68 171.72 122.78 171.87 122.98
C172.02 123.18 172.09 123.45 172.09 123.79
C172.09 124.15 172.01 124.44 171.83 124.66
C171.65 124.87 171.42 124.98 171.14 124.98
L171.05 124.97
L170.99 125.74
C171.15 125.67 171.28 125.64 171.39 125.64
C171.65 125.64 171.86 125.77 172.04 126.02
C172.22 126.27 172.30 126.61 172.30 127.02
C172.30 127.46 172.21 127.82 172.02 128.10
C171.82 128.37 171.60 128.51 171.34 128.51
C170.85 128.51 170.55 128.05 170.43 127.11
L169.85 127.23
C169.89 127.84 170.05 128.33 170.33 128.69
C170.61 129.06 170.94 129.24 171.34 129.24
C171.77 129.24 172.14 129.03 172.45 128.61
C172.76 128.20 172.91 127.66 172.91 127.01
C172.91 126.70 172.88 126.42 172.80 126.17
C172.73 125.92 172.63 125.72 172.51 125.57
C172.38 125.42 172.23 125.32 172.04 125.25
C172.24 125.11 172.40 124.91 172.51 124.67
C172.63 124.42 172.68 124.13 172.68 123.81
C172.68 123.27 172.55 122.83 172.29 122.48
C172.02 122.13 171.70 121.96 171.32 121.96
Z
" fill="black" fill-rule="nonzero" />
<path d="
M175.02 170.45
C175.02 170.45 175.02 170.45 175.02 170.45
C175.02 170.45 175.02 170.45 175.02 170.45
C175.21 170.45 175.37 170.57 175.53 170.82
C175.69 171.09 175.78 171.46 175.78 171.94
C175.78 172.43 175.70 172.80 175.53 173.05
C175.39 173.29 175.21 173.41 175.01 173.41
C175.01 173.41 175.01 173.41 175.01 173.41
C175.01 173.41 175.01 173.41 175.00 173.41
C174.80 173.41 174.62 173.29 174.47 173.05
C174.30 172.80 174.21 172.46 174.21 172.02
C174.21 171.53 174.30 171.14 174.48 170.85
C174.64 170.58 174.82 170.45 175.02 170.45
Z
M171.42 169.44
C170.93 169.44 170.54 169.63 170.25 170.01
C169.96 170.38 169.80 170.92 169.75 171.64
L169.74 171.76
L169.87 171.78
L170.46 171.88
L170.63 171.90
L170.63 171.74
C170.63 171.31 170.70 170.98 170.86 170.76
C171.00 170.55 171.18 170.45 171.39 170.45
C171.39 170.45 171.40 170.45 171.40 170.45
C171.40 170.45 171.40 170.45 171.40 170.45
C171.60 170.45 171.77 170.54 171.91 170.73
C172.06 170.94 172.14 171.21 172.14 171.54
C172.14 171.83 172.06 172.15 171.90 172.50
C171.74 172.85 171.40 173.36 170.87 174.01
C170.40 174.60 170.08 175.11 169.90 175.54
C169.72 175.98 169.63 176.38 169.64 176.74
L169.65 176.88
L173.02 176.88
L173.02 176.74
L173.02 175.89
L173.02 175.75
L170.80 175.75
C170.84 175.67 170.89 175.58 170.94 175.49
C171.04 175.34 171.26 175.05 171.60 174.61
C172.14 173.91 172.51 173.35 172.71 172.92
C172.91 172.49 173.01 172.03 173.01 171.56
C173.01 171.02 172.88 170.54 172.62 170.11
C172.35 169.67 171.95 169.44 171.42 169.44
Z
M174.95 169.44
C174.49 169.44 174.11 169.68 173.79 170.15
C173.49 170.60 173.34 171.22 173.34 171.99
C173.34 172.74 173.48 173.33 173.78 173.77
C174.08 174.23 174.45 174.46 174.88 174.46
C175.12 174.46 175.36 174.37 175.59 174.18
C175.68 174.10 175.76 174.02 175.83 173.93
L175.83 173.93
C175.81 174.32 175.76 174.67 175.68 174.98
C175.58 175.38 175.46 175.65 175.32 175.79
C175.19 175.93 175.05 176.00 174.90 176.00
C174.90 176.00 174.90 176.00 174.90 176.00
C174.89 176.00 174.89 176.00 174.89 176.00
C174.73 176.00 174.60 175.92 174.50 175.78
C174.38 175.61 174.30 175.35 174.26 174.99
L174.24 174.85
L174.10 174.87
L173.55 174.95
L173.41 174.97
L173.42 175.10
C173.47 175.70 173.63 176.16 173.88 176.49
C174.15 176.83 174.48 177.00 174.88 177.00
C175.24 177.00 175.55 176.86 175.83 176.58
C176.10 176.32 176.32 175.90 176.47 175.33
C176.62 174.78 176.70 174.01 176.70 173.02
C176.70 172.13 176.63 171.44 176.48 170.96
C176.34 170.47 176.13 170.10 175.86 169.84
C175.58 169.58 175.28 169.44 174.95 169.44
Z
" fill="white" fill-rule="nonzero" />
<path d="
M174.43 184.01
L174.43 184.01
L174.43 184.01
C174.43 184.01 174.43 184.01 174.43 184.01
Z
M171.42 181.35
C170.93 181.35 170.54 181.54 170.25 181.92
C169.96 182.29 169.80 182.83 169.75 183.54
L169.74 183.67
L169.87 183.69
L170.46 183.78
L170.63 183.81
L170.63 183.64
C170.63 183.21 170.70 182.88 170.86 182.66
C171.00 182.46 171.18 182.35 171.39 182.35
C171.39 182.35 171.40 182.35 171.40 182.35
C171.40 182.35 171.40 182.35 171.40 182.35
C171.60 182.35 171.77 182.45 171.91 182.64
C172.06 182.84 172.14 183.11 172.14 183.44
C172.14 183.74 172.06 184.06 171.90 184.40
C171.74 184.76 171.40 185.26 170.87 185.92
C170.40 186.50 170.08 187.01 169.90 187.45
C169.72 187.88 169.63 188.28 169.64 188.64
L169.65 188.78
L173.02 188.78
L173.02 188.64
L173.02 187.80
L173.02 187.66
L170.80 187.66
C170.84 187.57 170.89 187.49 170.94 187.40
C171.04 187.24 171.26 186.95 171.60 186.52
C172.14 185.82 172.51 185.25 172.71 184.83
C172.91 184.39 173.01 183.94 173.01 183.46
C173.01 182.92 172.88 182.44 172.62 182.02
C172.35 181.57 171.95 181.35 171.42 181.35
Z
M173.91 181.47
L173.90 181.60
L173.44 185.26
L173.42 185.39
L173.55 185.41
L174.09 185.52
L174.21 185.54
L174.25 185.43
C174.33 185.24 174.44 185.09 174.57 184.98
C174.70 184.88 174.83 184.83 174.97 184.83
C174.97 184.83 174.97 184.83 174.97 184.83
C174.97 184.83 174.97 184.83 174.97 184.83
C175.21 184.83 175.41 184.95 175.57 185.19
C175.74 185.45 175.83 185.81 175.83 186.29
C175.83 186.81 175.74 187.21 175.56 187.50
C175.39 187.77 175.20 187.90 174.98 187.90
C174.98 187.90 174.97 187.90 174.97 187.90
C174.97 187.90 174.97 187.90 174.97 187.90
C174.80 187.90 174.65 187.81 174.51 187.63
C174.36 187.42 174.27 187.11 174.22 186.68
L174.21 186.54
L174.06 186.56
L173.46 186.63
L173.33 186.65
L173.34 186.78
C173.38 187.44 173.55 187.95 173.85 188.32
C174.15 188.71 174.53 188.90 174.98 188.90
C175.52 188.90 175.95 188.63 176.27 188.09
C176.57 187.57 176.72 186.95 176.72 186.23
C176.72 185.49 176.57 184.90 176.26 184.46
C175.94 184.01 175.56 183.78 175.12 183.78
C174.88 183.78 174.65 183.85 174.43 184.01
L174.43 184.01
L174.62 182.59
L176.50 182.59
L176.50 182.45
L176.50 181.62
L176.50 181.47
Z
" fill="white" fill-rule="nonzero" />
<path d="
M186.34 29.24
L186.34 29.24
L186.34 29.24
C186.34 29.24 186.34 29.24 186.34 29.24
Z
M185.82 26.70
L185.80 26.82
L185.35 30.48
L185.33 30.61
L185.46 30.64
L186.00 30.75
L186.11 30.77
L186.16 30.66
C186.24 30.47 186.34 30.32 186.48 30.21
C186.60 30.11 186.73 30.06 186.87 30.06
C186.87 30.06 186.87 30.06 186.87 30.06
C186.88 30.06 186.88 30.06 186.88 30.06
C187.12 30.06 187.31 30.18 187.47 30.42
C187.65 30.67 187.74 31.04 187.74 31.52
C187.74 32.03 187.64 32.44 187.46 32.72
C187.29 32.99 187.10 33.13 186.88 33.13
C186.88 33.13 186.88 33.13 186.88 33.13
C186.88 33.13 186.88 33.13 186.88 33.13
C186.71 33.13 186.55 33.04 186.42 32.85
C186.27 32.65 186.17 32.34 186.13 31.91
L186.11 31.76
L185.97 31.78
L185.37 31.86
L185.24 31.88
L185.24 32.01
C185.29 32.66 185.45 33.17 185.75 33.55
C186.06 33.94 186.44 34.13 186.89 34.13
C187.43 34.13 187.86 33.86 188.17 33.31
C188.47 32.79 188.63 32.17 188.63 31.45
C188.63 30.72 188.47 30.13 188.17 29.69
C187.85 29.23 187.47 29.00 187.03 29.00
C186.79 29.00 186.56 29.08 186.34 29.24
L186.34 29.24
L186.52 27.82
L188.40 27.82
L188.40 27.68
L188.40 26.84
L188.40 26.70
Z
M183.23 26.57
C182.82 26.57 182.48 26.75 182.20 27.09
C181.93 27.42 181.75 27.91 181.68 28.54
L181.66 28.67
L181.78 28.70
L182.35 28.85
L182.51 28.90
L182.53 28.73
C182.57 28.32 182.66 28.03 182.79 27.83
C182.92 27.66 183.06 27.58 183.23 27.58
C183.23 27.58 183.24 27.58 183.24 27.58
C183.24 27.58 183.24 27.58 183.24 27.58
C183.40 27.58 183.54 27.66 183.66 27.82
C183.79 28.00 183.86 28.24 183.86 28.54
C183.86 28.87 183.78 29.13 183.62 29.32
C183.48 29.50 183.29 29.59 183.05 29.60
L183.05 29.60
L182.97 29.59
L182.83 29.57
L182.82 29.72
L182.75 30.48
L182.73 30.71
L182.94 30.63
C183.09 30.57 183.20 30.54 183.30 30.54
C183.30 30.54 183.30 30.54 183.30 30.54
C183.30 30.54 183.30 30.54 183.30 30.54
C183.51 30.54 183.68 30.65 183.83 30.86
C183.99 31.09 184.07 31.39 184.07 31.78
C184.07 32.19 183.98 32.52 183.80 32.77
C183.64 33.01 183.46 33.13 183.24 33.13
C183.24 33.13 183.24 33.13 183.24 33.13
C183.24 33.13 183.24 33.13 183.24 33.13
C183.05 33.13 182.89 33.03 182.77 32.84
C182.63 32.63 182.53 32.30 182.48 31.85
L182.46 31.70
L182.31 31.73
L181.73 31.85
L181.61 31.87
L181.62 32.00
C181.66 32.64 181.83 33.15 182.12 33.53
C182.43 33.93 182.80 34.13 183.25 34.13
C183.73 34.13 184.13 33.91 184.47 33.45
C184.80 33.01 184.96 32.45 184.96 31.76
C184.96 31.44 184.92 31.15 184.84 30.89
C184.76 30.62 184.65 30.40 184.52 30.24
C184.43 30.13 184.33 30.04 184.21 29.97
L184.21 29.97
C184.35 29.84 184.46 29.67 184.55 29.48
C184.67 29.21 184.73 28.91 184.73 28.56
C184.73 28.00 184.59 27.53 184.31 27.15
C184.01 26.77 183.65 26.57 183.23 26.57
Z
" fill="white" fill-rule="nonzero" />
<path d="
M185.32 38.59
L185.28 38.67
C185.17 38.97 184.97 39.27 184.68 39.58
C184.39 39.89 184.06 40.15 183.68 40.37
L183.61 40.41
L183.61 40.49
L183.61 41.33
L183.61 41.55
L183.81 41.46
C184.05 41.35 184.31 41.20 184.59 40.99
C184.75 40.87 184.90 40.75 185.02 40.64
L185.02 40.64
L185.02 45.79
L185.02 45.93
L186.02 45.93
L186.02 45.79
L186.02 38.73
L186.02 38.59
Z
" fill="white" fill-rule="nonzero" />
<path d="
M183.32 157.60
C182.84 157.60 182.45 157.79 182.15 158.17
C181.87 158.54 181.70 159.08 181.66 159.79
L181.65 159.92
L181.78 159.94
L182.37 160.03
L182.53 160.06
L182.53 159.89
C182.53 159.46 182.61 159.13 182.76 158.91
C182.90 158.71 183.08 158.60 183.30 158.60
C183.30 158.60 183.30 158.60 183.30 158.60
C183.30 158.60 183.31 158.60 183.31 158.60
C183.51 158.60 183.68 158.70 183.82 158.89
C183.97 159.09 184.04 159.36 184.04 159.69
C184.04 159.99 183.96 160.31 183.81 160.65
C183.65 161.00 183.30 161.51 182.77 162.17
C182.31 162.75 181.98 163.26 181.81 163.70
C181.63 164.13 181.54 164.53 181.55 164.89
L181.55 165.03
L184.92 165.03
L184.92 164.89
L184.92 164.05
L184.92 163.91
L182.70 163.91
C182.75 163.82 182.80 163.74 182.85 163.65
C182.95 163.49 183.17 163.20 183.50 162.77
C184.05 162.07 184.42 161.50 184.61 161.08
C184.81 160.64 184.91 160.19 184.91 159.71
C184.91 159.17 184.78 158.69 184.53 158.27
C184.25 157.82 183.85 157.60 183.32 157.60
Z
M185.28 157.72
L185.28 157.86
L185.28 158.70
L185.28 158.84
L187.47 158.84
C187.22 159.31 186.98 159.86 186.76 160.49
C186.51 161.22 186.31 161.98 186.17 162.78
C186.02 163.58 185.94 164.28 185.94 164.89
L185.93 165.03
L186.67 165.03
L186.80 165.03
L186.81 164.90
C186.86 163.76 187.06 162.60 187.40 161.44
C187.73 160.28 188.13 159.34 188.57 158.61
L188.59 158.58
L188.59 158.54
L188.59 157.86
L188.59 157.72
Z
" fill="white" fill-rule="nonzero" />
<path d="
M183.32 169.64
C182.88 169.64 182.53 169.82 182.26 170.16
C182.00 170.51 181.84 171.02 181.80 171.70
L182.39 171.80
C182.39 171.34 182.48 170.98 182.65 170.74
C182.82 170.49 183.04 170.37 183.30 170.37
C183.55 170.37 183.76 170.48 183.93 170.71
C184.10 170.94 184.19 171.23 184.19 171.60
C184.19 171.91 184.10 172.25 183.94 172.62
C183.77 172.98 183.42 173.50 182.88 174.16
C182.42 174.74 182.11 175.23 181.94 175.65
C181.76 176.08 181.68 176.46 181.69 176.80
L184.78 176.80
L184.78 175.96
L182.49 175.96
C182.55 175.80 182.63 175.64 182.73 175.48
C182.83 175.32 183.05 175.02 183.39 174.59
C183.93 173.89 184.29 173.34 184.48 172.92
C184.68 172.51 184.77 172.07 184.77 171.62
C184.77 171.11 184.65 170.65 184.40 170.25
C184.16 169.85 183.80 169.64 183.32 169.64
Z
M186.95 169.64
C186.51 169.64 186.16 169.82 185.89 170.16
C185.63 170.51 185.47 171.02 185.43 171.70
L186.02 171.80
C186.02 171.34 186.11 170.98 186.28 170.74
C186.45 170.49 186.67 170.37 186.93 170.37
C187.18 170.37 187.39 170.48 187.56 170.71
C187.73 170.94 187.82 171.23 187.82 171.60
C187.82 171.91 187.73 172.25 187.57 172.62
C187.40 172.98 187.05 173.50 186.51 174.16
C186.05 174.74 185.74 175.23 185.57 175.65
C185.39 176.08 185.31 176.46 185.32 176.80
L188.41 176.80
L188.41 175.96
L186.12 175.96
C186.18 175.80 186.26 175.64 186.36 175.48
C186.46 175.32 186.68 175.02 187.02 174.59
C187.56 173.89 187.92 173.34 188.11 172.92
C188.31 172.51 188.40 172.07 188.40 171.62
C188.40 171.11 188.28 170.65 188.03 170.25
C187.79 169.85 187.43 169.64 186.95 169.64
Z
" fill="black" fill-rule="nonzero" />
<path d="
M183.32 181.35
C182.84 181.35 182.45 181.54 182.15 181.92
C181.87 182.29 181.70 182.83 181.66 183.54
L181.65 183.67
L181.78 183.69
L182.37 183.78
L182.53 183.80
L182.53 183.64
C182.53 183.21 182.61 182.88 182.76 182.66
C182.90 182.46 183.08 182.35 183.30 182.35
C183.30 182.35 183.30 182.35 183.30 182.35
C183.30 182.35 183.31 182.35 183.31 182.35
C183.51 182.35 183.68 182.45 183.82 182.64
C183.97 182.84 184.04 183.11 184.04 183.44
C184.04 183.73 183.96 184.05 183.81 184.40
C183.65 184.75 183.30 185.26 182.77 185.92
C182.31 186.50 181.98 187.01 181.81 187.44
C181.63 187.88 181.54 188.28 181.55 188.64
L181.55 188.78
L184.92 188.78
L184.92 188.64
L184.92 187.80
L184.92 187.66
L182.70 187.66
C182.75 187.57 182.80 187.48 182.85 187.40
C182.95 187.24 183.17 186.95 183.50 186.52
C184.05 185.81 184.42 185.25 184.61 184.82
C184.81 184.39 184.91 183.93 184.91 183.46
C184.91 182.92 184.78 182.44 184.53 182.02
C184.25 181.57 183.85 181.35 183.32 181.35
Z
M186.86 181.35
C186.45 181.35 186.11 181.52 185.83 181.86
C185.56 182.20 185.38 182.68 185.31 183.32
L185.29 183.44
L185.41 183.47
L185.98 183.63
L186.14 183.67
L186.16 183.50
C186.20 183.10 186.29 182.80 186.42 182.61
C186.55 182.43 186.69 182.35 186.86 182.35
C186.86 182.35 186.87 182.35 186.87 182.35
C186.87 182.35 186.87 182.35 186.87 182.35
C187.03 182.35 187.17 182.43 187.29 182.59
C187.42 182.77 187.49 183.01 187.49 183.31
C187.49 183.64 187.41 183.90 187.25 184.09
C187.11 184.27 186.92 184.37 186.68 184.37
L186.68 184.37
L186.60 184.36
L186.46 184.34
L186.45 184.49
L186.38 185.25
L186.36 185.48
L186.57 185.40
C186.72 185.34 186.83 185.31 186.93 185.31
C186.93 185.31 186.93 185.31 186.93 185.31
C186.93 185.31 186.93 185.31 186.93 185.31
C187.14 185.31 187.31 185.42 187.46 185.63
C187.62 185.86 187.70 186.16 187.70 186.55
C187.70 186.96 187.61 187.29 187.43 187.54
C187.27 187.78 187.09 187.90 186.87 187.90
C186.87 187.90 186.87 187.90 186.87 187.90
C186.87 187.90 186.87 187.90 186.87 187.90
C186.68 187.90 186.52 187.80 186.40 187.61
C186.26 187.40 186.16 187.07 186.11 186.62
L186.09 186.47
L185.94 186.50
L185.36 186.62
L185.24 186.64
L185.25 186.77
C185.29 187.41 185.46 187.92 185.75 188.31
C186.06 188.71 186.43 188.91 186.88 188.91
C187.36 188.91 187.76 188.68 188.10 188.22
C188.43 187.78 188.59 187.22 188.59 186.53
C188.59 186.21 188.55 185.92 188.47 185.66
C188.39 185.39 188.28 185.18 188.15 185.01
C188.06 184.90 187.96 184.81 187.84 184.75
L187.84 184.75
C187.98 184.61 188.09 184.45 188.18 184.25
C188.30 183.98 188.36 183.68 188.36 183.33
C188.36 182.77 188.22 182.30 187.94 181.93
C187.64 181.54 187.28 181.35 186.86 181.35
Z
" fill="white" fill-rule="nonzero" />
<path d="
M185.48 194.90
L185.48 198.07
L183.67 198.07
L185.48 194.90
Z
M185.61 193.51
L182.98 198.07
L182.98 198.86
L185.48 198.86
L185.48 200.55
L186.19 200.55
L186.19 198.86
L186.97 198.86
L186.97 198.07
L186.19 198.07
L186.19 193.51
Z
" fill="black" fill-rule="nonzero" />
<path d="
M198.83 87.11
C198.83 87.11 198.83 87.11 198.83 87.11
C198.83 87.11 198.83 87.11 198.83 87.11
C199.02 87.11 199.18 87.23 199.34 87.48
C199.50 87.75 199.59 88.12 199.59 88.61
C199.59 89.09 199.51 89.46 199.34 89.72
C199.20 89.95 199.02 90.07 198.82 90.07
C198.82 90.07 198.82 90.07 198.82 90.07
C198.82 90.07 198.82 90.07 198.82 90.07
C198.61 90.07 198.43 89.95 198.28 89.72
C198.11 89.46 198.02 89.12 198.02 88.68
C198.02 88.19 198.11 87.80 198.29 87.51
C198.46 87.24 198.63 87.11 198.83 87.11
Z
M195.35 86.10
L195.31 86.20
C195.22 86.50 195.06 86.80 194.82 87.12
C194.59 87.43 194.32 87.70 194.02 87.92
L193.96 87.96
L193.96 88.03
L193.96 88.88
L193.96 89.12
L194.17 89.00
C194.37 88.89 194.58 88.73 194.81 88.52
C194.92 88.43 195.02 88.33 195.11 88.23
L195.11 88.23
L195.11 93.40
L195.11 93.54
L195.96 93.54
L195.96 93.40
L195.96 86.25
L195.96 86.10
Z
M198.76 86.10
C198.31 86.10 197.92 86.34 197.60 86.81
C197.30 87.26 197.15 87.88 197.15 88.65
C197.15 89.40 197.30 90.00 197.59 90.44
C197.89 90.89 198.26 91.12 198.69 91.12
C198.93 91.12 199.17 91.03 199.40 90.84
C199.49 90.77 199.57 90.68 199.64 90.59
L199.64 90.59
C199.62 90.98 199.57 91.33 199.49 91.65
C199.39 92.04 199.27 92.31 199.13 92.46
C199.00 92.59 198.86 92.66 198.71 92.66
C198.71 92.66 198.71 92.66 198.71 92.66
C198.71 92.66 198.70 92.66 198.70 92.66
C198.54 92.66 198.41 92.58 198.31 92.44
C198.19 92.27 198.11 92.01 198.07 91.66
L198.05 91.51
L197.91 91.53
L197.36 91.61
L197.23 91.63
L197.24 91.76
C197.29 92.36 197.44 92.83 197.69 93.15
C197.96 93.49 198.29 93.66 198.69 93.66
C199.05 93.66 199.36 93.52 199.64 93.24
C199.91 92.98 200.13 92.56 200.28 92.00
C200.43 91.44 200.51 90.67 200.51 89.68
C200.51 88.79 200.44 88.10 200.30 87.62
C200.15 87.13 199.94 86.76 199.67 86.50
C199.40 86.24 199.09 86.10 198.76 86.10
Z
" fill="white" fill-rule="nonzero" />
<path d="
M197.04 113.36
C197.35 113.36 197.62 113.50 197.84 113.78
C198.06 114.05 198.16 114.44 198.16 114.94
C198.16 115.45 198.05 115.85 197.84 116.14
C197.62 116.43 197.37 116.57 197.09 116.57
C196.77 116.57 196.49 116.42 196.25 116.11
C196.01 115.80 195.89 115.39 195.89 114.89
C195.89 114.42 196.01 114.05 196.24 113.77
C196.47 113.50 196.73 113.36 197.04 113.36
Z
M197.15 110.10
C196.54 110.10 196.05 110.39 195.66 110.97
C195.27 111.54 195.08 112.51 195.08 113.87
C195.08 115.10 195.27 115.97 195.64 116.50
C196.02 117.02 196.50 117.29 197.08 117.29
C197.41 117.29 197.70 117.19 197.97 117.01
C198.24 116.83 198.46 116.55 198.63 116.16
C198.80 115.78 198.89 115.36 198.89 114.89
C198.89 114.19 198.72 113.64 198.38 113.22
C198.04 112.81 197.64 112.60 197.18 112.60
C196.91 112.60 196.64 112.68 196.40 112.84
C196.15 113.00 195.95 113.23 195.78 113.54
C195.79 112.67 195.90 112.02 196.11 111.58
C196.36 111.07 196.69 110.81 197.10 110.81
C197.37 110.81 197.60 110.92 197.79 111.15
C197.92 111.30 198.02 111.56 198.08 111.92
L198.79 111.85
C198.72 111.28 198.54 110.85 198.25 110.55
C197.95 110.25 197.59 110.10 197.15 110.10
Z
" fill="black" fill-rule="nonzero" />
<path d="
M198.79 134.59
C199.07 134.59 199.30 134.79 199.48 135.18
C199.66 135.57 199.75 136.35 199.75 137.51
C199.75 138.65 199.66 139.43 199.48 139.82
C199.31 140.22 199.09 140.42 198.83 140.42
C198.55 140.42 198.32 140.22 198.14 139.83
C197.97 139.44 197.88 138.66 197.88 137.51
C197.88 136.36 197.97 135.59 198.14 135.19
C198.32 134.79 198.53 134.59 198.79 134.59
Z
M195.23 133.87
C194.79 133.87 194.44 134.04 194.17 134.38
C193.90 134.73 193.75 135.24 193.70 135.93
L194.30 136.02
C194.30 135.56 194.38 135.21 194.55 134.96
C194.72 134.71 194.94 134.59 195.21 134.59
C195.46 134.59 195.67 134.71 195.84 134.93
C196.01 135.16 196.09 135.46 196.09 135.82
C196.09 136.13 196.01 136.47 195.84 136.84
C195.68 137.20 195.33 137.72 194.79 138.39
C194.33 138.96 194.01 139.46 193.84 139.88
C193.67 140.30 193.59 140.68 193.60 141.02
L196.69 141.02
L196.69 140.18
L194.39 140.18
C194.45 140.02 194.54 139.86 194.64 139.70
C194.74 139.54 194.96 139.25 195.30 138.81
C195.83 138.11 196.20 137.56 196.39 137.14
C196.58 136.73 196.68 136.29 196.68 135.84
C196.68 135.33 196.56 134.87 196.31 134.47
C196.07 134.07 195.70 133.87 195.23 133.87
Z
M198.82 133.87
C198.32 133.87 197.94 134.17 197.68 134.79
C197.42 135.41 197.29 136.31 197.29 137.51
C197.29 138.84 197.43 139.78 197.72 140.32
C198.00 140.87 198.37 141.14 198.81 141.14
C199.32 141.14 199.70 140.83 199.95 140.21
C200.21 139.60 200.34 138.69 200.34 137.51
C200.34 136.18 200.18 135.22 199.87 134.62
C199.62 134.12 199.26 133.87 198.82 133.87
Z
" fill="black" fill-rule="nonzero" />
<path d="
M196.25 172.09
L196.25 172.09
L196.25 172.09
C196.25 172.09 196.25 172.09 196.25 172.09
Z
M195.68 169.55
L195.66 169.67
L195.10 173.28
L195.07 173.42
L195.21 173.44
L195.88 173.55
L195.98 173.57
L196.03 173.47
C196.13 173.28 196.26 173.13 196.42 173.03
C196.59 172.92 196.76 172.87 196.95 172.87
C196.95 172.87 196.95 172.87 196.95 172.87
C196.95 172.87 196.95 172.87 196.95 172.87
C197.26 172.87 197.52 172.99 197.73 173.24
C197.94 173.49 198.05 173.84 198.05 174.31
C198.05 174.81 197.94 175.21 197.71 175.49
C197.50 175.76 197.25 175.90 196.96 175.90
C196.96 175.90 196.96 175.90 196.95 175.90
C196.95 175.90 196.95 175.90 196.95 175.90
C196.73 175.90 196.52 175.80 196.35 175.61
C196.17 175.42 196.05 175.11 196.00 174.69
L195.98 174.56
L195.84 174.57
L195.10 174.65
L194.96 174.66
L194.97 174.80
C195.02 175.45 195.23 175.96 195.60 176.33
C195.97 176.70 196.43 176.89 196.96 176.89
C197.61 176.89 198.13 176.63 198.52 176.10
C198.89 175.58 199.08 174.96 199.08 174.24
C199.08 173.51 198.89 172.93 198.51 172.49
C198.12 172.05 197.67 171.82 197.14 171.82
C196.83 171.82 196.53 171.91 196.25 172.09
L196.25 172.09
L196.48 170.66
L198.81 170.66
L198.81 170.52
L198.81 169.69
L198.81 169.55
Z
" fill="white" fill-rule="nonzero" />
<path d="
M199.13 182.98
L199.13 186.19
L197.67 186.19
L199.13 182.98
Z
M195.23 181.55
C194.79 181.55 194.44 181.72 194.17 182.07
C193.90 182.41 193.75 182.93 193.70 183.61
L194.30 183.70
C194.30 183.24 194.38 182.89 194.55 182.64
C194.72 182.40 194.94 182.27 195.21 182.27
C195.46 182.27 195.67 182.39 195.84 182.62
C196.01 182.84 196.09 183.14 196.09 183.50
C196.09 183.82 196.01 184.16 195.84 184.52
C195.68 184.89 195.33 185.40 194.79 186.07
C194.33 186.64 194.01 187.14 193.84 187.56
C193.67 187.98 193.59 188.36 193.60 188.70
L196.69 188.70
L196.69 187.86
L194.39 187.86
C194.45 187.70 194.54 187.54 194.64 187.38
C194.74 187.23 194.96 186.93 195.30 186.49
C195.83 185.80 196.20 185.24 196.39 184.83
C196.58 184.41 196.68 183.98 196.68 183.52
C196.68 183.01 196.56 182.55 196.31 182.15
C196.07 181.75 195.70 181.55 195.23 181.55
Z
M199.24 181.58
L197.11 186.19
L197.11 187.00
L199.13 187.00
L199.13 188.70
L199.71 188.70
L199.71 187.00
L200.34 187.00
L200.34 186.19
L199.71 186.19
L199.71 181.58
Z
" fill="black" fill-rule="nonzero" />
<path d="
M198.85 196.70
C199.11 196.70 199.32 196.84 199.50 197.12
C199.68 197.39 199.76 197.79 199.76 198.29
C199.76 198.81 199.67 199.21 199.50 199.51
C199.32 199.80 199.12 199.95 198.89 199.95
C198.64 199.95 198.41 199.79 198.22 199.48
C198.02 199.17 197.93 198.75 197.93 198.24
C197.93 197.77 198.02 197.39 198.20 197.11
C198.39 196.84 198.61 196.70 198.85 196.70
Z
M195.23 193.39
C194.79 193.39 194.44 193.57 194.17 193.91
C193.90 194.26 193.75 194.77 193.70 195.45
L194.30 195.55
C194.30 195.09 194.38 194.73 194.55 194.49
C194.72 194.24 194.94 194.12 195.21 194.12
C195.46 194.12 195.67 194.23 195.84 194.46
C196.01 194.69 196.09 194.99 196.09 195.35
C196.09 195.66 196.01 196.00 195.84 196.37
C195.68 196.73 195.33 197.25 194.79 197.91
C194.33 198.49 194.01 198.98 193.84 199.40
C193.67 199.83 193.59 200.21 193.60 200.55
L196.69 200.55
L196.69 199.71
L194.39 199.71
C194.45 199.55 194.54 199.39 194.64 199.23
C194.74 199.07 194.96 198.77 195.30 198.34
C195.83 197.64 196.20 197.09 196.39 196.67
C196.58 196.26 196.68 195.82 196.68 195.37
C196.68 194.86 196.56 194.40 196.31 194.00
C196.07 193.60 195.70 193.39 195.23 193.39
Z
M198.94 193.39
C198.45 193.39 198.05 193.69 197.73 194.27
C197.42 194.86 197.26 195.84 197.26 197.21
C197.26 198.45 197.42 199.34 197.72 199.87
C198.03 200.40 198.42 200.67 198.89 200.67
C199.15 200.67 199.39 200.58 199.61 200.39
C199.83 200.21 200.00 199.92 200.14 199.53
C200.28 199.15 200.35 198.71 200.35 198.24
C200.35 197.54 200.21 196.97 199.94 196.56
C199.66 196.14 199.34 195.93 198.97 195.93
C198.74 195.93 198.53 196.01 198.33 196.17
C198.13 196.33 197.97 196.56 197.84 196.87
C197.84 196.00 197.93 195.34 198.10 194.89
C198.30 194.37 198.57 194.11 198.90 194.11
C199.12 194.11 199.30 194.23 199.46 194.45
C199.56 194.61 199.64 194.87 199.70 195.24
L200.27 195.17
C200.22 194.59 200.07 194.15 199.83 193.85
C199.59 193.55 199.29 193.39 198.94 193.39
Z
" fill="black" fill-rule="nonzero" />
<path d="
M210.70 158.40
C210.98 158.40 211.21 158.60 211.39 158.99
C211.56 159.38 211.65 160.16 211.65 161.31
C211.65 162.46 211.57 163.23 211.39 163.63
C211.21 164.03 210.99 164.23 210.73 164.23
C210.46 164.23 210.23 164.03 210.05 163.64
C209.87 163.25 209.78 162.47 209.78 161.31
C209.78 160.17 209.87 159.40 210.05 159.00
C210.22 158.60 210.44 158.40 210.70 158.40
Z
M210.72 157.68
C210.22 157.68 209.84 157.98 209.58 158.60
C209.33 159.21 209.20 160.12 209.20 161.31
C209.20 162.65 209.34 163.59 209.62 164.13
C209.91 164.68 210.27 164.95 210.72 164.95
C211.22 164.95 211.60 164.64 211.86 164.02
C212.12 163.41 212.24 162.50 212.24 161.31
C212.24 159.99 212.09 159.03 211.78 158.42
C211.52 157.93 211.17 157.68 210.72 157.68
Z
M207.04 157.68
C206.68 157.68 206.37 157.83 206.12 158.14
C205.87 158.45 205.70 158.91 205.63 159.52
L206.20 159.68
C206.24 159.25 206.34 158.93 206.49 158.71
C206.64 158.50 206.83 158.39 207.05 158.39
C207.26 158.39 207.44 158.50 207.59 158.70
C207.74 158.90 207.81 159.17 207.81 159.50
C207.81 159.87 207.72 160.16 207.55 160.37
C207.37 160.59 207.14 160.70 206.86 160.70
L206.77 160.69
L206.70 161.46
C206.86 161.39 207.00 161.36 207.11 161.36
C207.36 161.36 207.58 161.48 207.76 161.74
C207.93 161.99 208.02 162.32 208.02 162.74
C208.02 163.18 207.92 163.54 207.73 163.81
C207.54 164.09 207.31 164.23 207.05 164.23
C206.57 164.23 206.27 163.76 206.15 162.83
L205.57 162.95
C205.61 163.56 205.77 164.05 206.05 164.41
C206.32 164.77 206.66 164.95 207.06 164.95
C207.49 164.95 207.86 164.75 208.17 164.33
C208.48 163.91 208.63 163.38 208.63 162.72
C208.63 162.42 208.59 162.14 208.52 161.89
C208.44 161.64 208.34 161.44 208.22 161.29
C208.10 161.14 207.95 161.03 207.76 160.97
C207.96 160.83 208.12 160.63 208.23 160.38
C208.34 160.13 208.40 159.85 208.40 159.52
C208.40 158.99 208.27 158.55 208.00 158.20
C207.74 157.85 207.42 157.68 207.04 157.68
Z
" fill="black" fill-rule="nonzero" />
<path d="
M210.73 170.30
C210.94 170.30 211.12 170.41 211.27 170.62
C211.42 170.83 211.49 171.11 211.49 171.44
C211.49 171.76 211.42 172.03 211.27 172.23
C211.12 172.44 210.95 172.54 210.74 172.54
C210.52 172.54 210.34 172.43 210.19 172.23
C210.04 172.02 209.97 171.74 209.97 171.39
C209.97 171.08 210.05 170.82 210.19 170.61
C210.34 170.41 210.52 170.30 210.73 170.30
Z
M210.72 173.25
C210.99 173.25 211.21 173.39 211.40 173.65
C211.59 173.92 211.68 174.27 211.68 174.71
C211.68 175.14 211.59 175.49 211.41 175.75
C211.22 176.01 211.00 176.14 210.74 176.14
C210.47 176.14 210.25 176.00 210.06 175.74
C209.87 175.47 209.78 175.12 209.78 174.68
C209.78 174.26 209.87 173.92 210.05 173.65
C210.24 173.38 210.46 173.25 210.72 173.25
Z
M207.13 169.58
C206.70 169.58 206.34 169.76 206.07 170.10
C205.81 170.45 205.65 170.96 205.61 171.64
L206.20 171.74
C206.20 171.28 206.29 170.92 206.46 170.68
C206.63 170.43 206.85 170.31 207.11 170.31
C207.36 170.31 207.57 170.42 207.74 170.65
C207.91 170.88 208.00 171.17 208.00 171.54
C208.00 171.85 207.91 172.19 207.75 172.55
C207.58 172.92 207.23 173.43 206.69 174.10
C206.24 174.68 205.92 175.17 205.75 175.59
C205.58 176.01 205.49 176.40 205.50 176.74
L208.59 176.74
L208.59 175.89
L206.30 175.89
C206.36 175.74 206.44 175.58 206.54 175.42
C206.64 175.26 206.86 174.96 207.20 174.52
C207.74 173.83 208.10 173.28 208.30 172.86
C208.49 172.44 208.58 172.01 208.58 171.56
C208.58 171.04 208.46 170.59 208.22 170.19
C207.97 169.78 207.61 169.58 207.13 169.58
Z
M210.72 169.58
C210.34 169.58 210.02 169.75 209.76 170.09
C209.51 170.43 209.38 170.87 209.38 171.42
C209.38 171.77 209.44 172.08 209.56 172.32
C209.67 172.56 209.85 172.74 210.08 172.87
C209.80 172.98 209.59 173.19 209.43 173.50
C209.27 173.81 209.19 174.20 209.19 174.68
C209.19 175.33 209.34 175.86 209.63 176.26
C209.93 176.66 210.30 176.86 210.74 176.86
C211.17 176.86 211.54 176.66 211.83 176.26
C212.12 175.86 212.27 175.34 212.27 174.70
C212.27 174.24 212.20 173.86 212.04 173.55
C211.89 173.24 211.68 173.01 211.39 172.87
C211.62 172.74 211.80 172.55 211.91 172.32
C212.02 172.08 212.08 171.79 212.08 171.44
C212.08 170.90 211.95 170.45 211.69 170.10
C211.44 169.76 211.11 169.58 210.72 169.58
Z
" fill="black" fill-rule="nonzero" />
</g>
<g  transform="translate(1.19,228.58)" >
<path d="
M109.47 2.94
C109.30 2.94 109.16 3.00 109.05 3.11
C108.93 3.23 108.88 3.37 108.88 3.53
C108.88 3.69 108.94 3.83 109.05 3.95
C109.17 4.07 109.31 4.12 109.47 4.12
C109.63 4.12 109.77 4.07 109.89 3.95
C110.00 3.83 110.06 3.69 110.06 3.53
C110.06 3.37 110.00 3.23 109.89 3.11
C109.77 3.00 109.63 2.94 109.47 2.94
Z
M114.44 8.04
L114.44 10.07
C113.96 10.46 113.57 10.65 113.28 10.65
C113.06 10.65 112.87 10.56 112.70 10.37
C112.54 10.19 112.45 9.96 112.45 9.68
C112.45 9.46 112.52 9.25 112.65 9.07
C112.78 8.88 113.00 8.70 113.31 8.53
C113.48 8.44 113.86 8.27 114.44 8.04
Z
M102.79 3.77
C103.72 3.77 104.48 4.08 105.08 4.71
C105.67 5.34 105.97 6.20 105.97 7.29
C105.97 8.37 105.67 9.23 105.08 9.86
C104.48 10.49 103.74 10.81 102.84 10.81
C102.50 10.81 102.09 10.75 101.60 10.64
L101.60 3.94
C102.05 3.83 102.44 3.77 102.79 3.77
Z
M99.35 3.33
L99.35 3.54
L99.65 3.54
C99.94 3.54 100.17 3.63 100.32 3.80
C100.43 3.92 100.48 4.23 100.48 4.72
L100.48 9.82
C100.48 10.26 100.44 10.55 100.35 10.68
C100.22 10.89 99.98 11.00 99.65 11.00
L99.35 11.00
L99.35 11.21
L102.87 11.21
C104.40 11.21 105.54 10.80 106.29 9.98
C106.96 9.24 107.29 8.33 107.29 7.23
C107.29 6.41 107.11 5.69 106.73 5.07
C106.36 4.44 105.86 4.00 105.25 3.73
C104.63 3.46 103.74 3.33 102.56 3.33
Z
M109.70 5.73
L108.09 6.38
L108.17 6.59
C108.33 6.53 108.46 6.50 108.57 6.50
C108.67 6.50 108.75 6.53 108.81 6.58
C108.87 6.62 108.91 6.71 108.94 6.83
C108.97 7.00 108.99 7.38 108.99 7.96
L108.99 10.01
C108.99 10.34 108.96 10.56 108.91 10.68
C108.86 10.79 108.79 10.88 108.70 10.93
C108.61 10.98 108.43 11.00 108.17 11.00
L108.17 11.21
L110.76 11.21
L110.76 11.00
C110.51 11.00 110.34 10.98 110.24 10.92
C110.15 10.87 110.07 10.79 110.03 10.68
C109.98 10.56 109.95 10.34 109.95 10.01
L109.95 5.73
Z
M113.63 5.73
C113.01 5.73 112.53 5.87 112.19 6.15
C111.85 6.43 111.68 6.73 111.68 7.07
C111.68 7.24 111.72 7.38 111.82 7.48
C111.91 7.58 112.02 7.63 112.17 7.63
C112.31 7.63 112.43 7.58 112.52 7.49
C112.62 7.39 112.66 7.25 112.66 7.07
L112.65 6.74
C112.65 6.56 112.72 6.41 112.87 6.28
C113.01 6.15 113.21 6.08 113.45 6.08
C113.77 6.08 114.02 6.18 114.19 6.38
C114.36 6.58 114.44 6.94 114.44 7.47
L114.44 7.68
C113.53 8.02 112.87 8.30 112.48 8.53
C112.08 8.76 111.81 9.01 111.65 9.28
C111.53 9.47 111.48 9.69 111.48 9.95
C111.48 10.36 111.59 10.69 111.83 10.95
C112.07 11.20 112.37 11.32 112.74 11.32
C112.98 11.32 113.20 11.27 113.41 11.18
C113.55 11.11 113.89 10.87 114.44 10.45
C114.44 10.76 114.50 10.99 114.62 11.12
C114.73 11.25 114.88 11.32 115.07 11.32
C115.46 11.32 115.88 11.03 116.31 10.45
L116.31 10.12
C116.08 10.35 115.92 10.49 115.84 10.54
C115.80 10.57 115.74 10.58 115.68 10.58
C115.62 10.58 115.57 10.57 115.53 10.53
C115.48 10.49 115.45 10.41 115.43 10.30
C115.41 10.18 115.40 9.87 115.40 9.36
L115.40 7.55
C115.40 7.04 115.37 6.70 115.30 6.53
C115.19 6.28 115.02 6.09 114.79 5.97
C114.49 5.81 114.10 5.73 113.63 5.73
Z
M124.63 3.33
L123.12 6.39
C123.85 6.42 124.42 6.52 124.85 6.69
C125.39 6.92 125.81 7.24 126.11 7.65
C126.42 8.06 126.57 8.51 126.57 8.99
C126.57 9.48 126.40 9.90 126.06 10.24
C125.72 10.58 125.32 10.75 124.86 10.75
C124.57 10.75 124.27 10.65 123.98 10.45
C123.80 10.32 123.67 10.24 123.59 10.21
C123.52 10.18 123.43 10.17 123.33 10.17
C123.19 10.17 123.08 10.21 122.99 10.29
C122.90 10.37 122.86 10.47 122.86 10.58
C122.86 10.77 122.96 10.95 123.18 11.11
C123.40 11.27 123.74 11.35 124.21 11.35
C124.68 11.35 125.14 11.25 125.58 11.03
C125.90 10.88 126.18 10.68 126.44 10.43
C126.70 10.19 126.91 9.89 127.08 9.53
C127.25 9.18 127.33 8.80 127.33 8.38
C127.33 7.67 127.07 7.05 126.56 6.52
C125.96 5.91 125.14 5.53 124.11 5.37
L124.63 4.32
L127.00 4.32
L127.46 3.33
Z
M117.82 10.08
C117.65 10.08 117.49 10.15 117.37 10.27
C117.24 10.39 117.18 10.55 117.18 10.73
C117.18 10.91 117.24 11.06 117.37 11.19
C117.49 11.31 117.65 11.38 117.82 11.38
C118.00 11.38 118.15 11.31 118.28 11.19
C118.41 11.06 118.47 10.91 118.47 10.73
C118.47 10.55 118.41 10.40 118.28 10.27
C118.16 10.15 118.01 10.08 117.82 10.08
Z
" fill="black" fill-rule="nonzero" />
</g>
</g>
</svg>
