<?xml version="1.0" encoding="utf-8" standalone="no"?>
<!DOCTYPE svg PUBLIC "-//W3C//DTD SVG 1.0//EN" "http://www.w3.org/TR/SVG/DTD/svg11.dtd" >
<svg version="1.1" baseProfile="full"  width="319.13385" height="338.46454" viewBox="0 0 229.77638 243.69449" preserveAspectRatio="xMidYMid" xmlns="http://www.w3.org/2000/svg" >

<g lengthAdjust="spacingAndGlyphs" xml:space='preserve' >
<g  transform="translate(1.19,1.19)" >
<path d="
M0.0 0.0
L0.0 227.39
L227.39 227.39
L227.39 0.0
Z
" fill="none" fill-rule="nonzero" />
<line x1="6.54" y1="6.54" x2="6.54" y2="220.84" fill="none" stroke="black" stroke-width="0.87px" stroke-linecap="square" />
<line x1="18.45" y1="6.54" x2="18.45" y2="220.84" fill="none" stroke="black" stroke-width="0.25px" stroke-linecap="butt" />
<line x1="30.35" y1="6.54" x2="30.35" y2="220.84" fill="none" stroke="black" stroke-width="0.25px" stroke-linecap="butt" />
<line x1="42.26" y1="6.54" x2="42.26" y2="220.84" fill="none" stroke="black" stroke-width="0.25px" stroke-linecap="butt" />
<line x1="54.17" y1="6.54" x2="54.17" y2="220.84" fill="none" stroke="black" stroke-width="0.25px" stroke-linecap="butt" />
<line x1="66.07" y1="6.54" x2="66.07" y2="220.84" fill="none" stroke="black" stroke-width="0.25px" stroke-linecap="butt" />
<line x1="77.98" y1="6.54" x2="77.98" y2="220.84" fill="none" stroke="black" stroke-width="0.25px" stroke-linecap="butt" />
<line x1="89.88" y1="6.54" x2="89.88" y2="36.31" fill="none" stroke="black" stroke-width="0.25px" stroke-linecap="butt" />
<line x1="89.88" y1="48.21" x2="89.88" y2="220.84" fill="none" stroke="black" stroke-width="0.25px" stroke-linecap="butt" />
<line x1="101.79" y1="6.54" x2="101.79" y2="36.31" fill="none" stroke="black" stroke-width="0.25px" stroke-linecap="butt" />
<line x1="101.79" y1="48.21" x2="101.79" y2="220.84" fill="none" stroke="black" stroke-width="0.25px" stroke-linecap="butt" />
<line x1="113.69" y1="6.54" x2="113.69" y2="220.84" fill="none" stroke="black" stroke-width="0.25px" stroke-linecap="butt" />
<line x1="125.60" y1="6.54" x2="125.60" y2="220.84" fill="none" stroke="black" stroke-width="0.25px" stroke-linecap="butt" />
<line x1="137.50" y1="6.54" x2="137.50" y2="220.84" fill="none" stroke="black" stroke-width="0.25px" stroke-linecap="butt" />
<line x1="149.41" y1="6.54" x2="149.41" y2="220.84" fill="none" stroke="black" stroke-width="0.25px" stroke-linecap="butt" />
<line x1="161.31" y1="6.54" x2="161.31" y2="220.84" fill="none" stroke="black" stroke-width="0.25px" stroke-linecap="butt" />
<line x1="173.22" y1="6.54" x2="173.22" y2="220.84" fill="none" stroke="black" stroke-width="0.25px" stroke-linecap="butt" />
<line x1="185.13" y1="6.54" x2="185.13" y2="220.84" fill="none" stroke="black" stroke-width="0.25px" stroke-linecap="butt" />
<line x1="197.03" y1="6.54" x2="197.03" y2="220.84" fill="none" stroke="black" stroke-width="0.25px" stroke-linecap="butt" />
<line x1="208.94" y1="6.54" x2="208.94" y2="220.84" fill="none" stroke="black" stroke-width="0.25px" stroke-linecap="butt" />
<line x1="220.84" y1="6.54" x2="220.84" y2="220.84" fill="none" stroke="black" stroke-width="0.87px" stroke-linecap="square" />
<line x1="6.54" y1="6.54" x2="220.84" y2="6.54" fill="none" stroke="black" stroke-width="0.87px" stroke-linecap="square" />
<line x1="6.54" y1="18.45" x2="220.84" y2="18.45" fill="none" stroke="black" stroke-width="0.25px" stroke-linecap="butt" />
<line x1="6.54" y1="30.35" x2="220.84" y2="30.35" fill="none" stroke="black" stroke-width="0.25px" stroke-linecap="butt" />
<line x1="6.54" y1="42.26" x2="83.93" y2="42.26" fill="none" stroke="black" stroke-width="0.25px" stroke-linecap="butt" />
<line x1="107.74" y1="42.26" x2="220.84" y2="42.26" fill="none" stroke="black" stroke-width="0.25px" stroke-linecap="butt" />
<line x1="6.54" y1="54.17" x2="220.84" y2="54.17" fill="none" stroke="black" stroke-width="0.25px" stroke-linecap="butt" />
<line x1="6.54" y1="66.07" x2="220.84" y2="66.07" fill="none" stroke="black" stroke-width="0.25px" stroke-linecap="butt" />
<line x1="6.54" y1="77.98" x2="220.84" y2="77.98" fill="none" stroke="black" stroke-width="0.25px" stroke-linecap="butt" />
<line x1="6.54" y1="89.88" x2="220.84" y2="89.88" fill="none" stroke="black" stroke-width="0.25px" stroke-linecap="butt" />
<line x1="6.54" y1="101.79" x2="220.84" y2="101.79" fill="none" stroke="black" stroke-width="0.25px" stroke-linecap="butt" />
<line x1="6.54" y1="113.69" x2="220.84" y2="113.69" fill="none" stroke="black" stroke-width="0.25px" stroke-linecap="butt" />
<line x1="6.54" y1="125.60" x2="220.84" y2="125.60" fill="none" stroke="black" stroke-width="0.25px" stroke-linecap="butt" />
<line x1="6.54" y1="137.50" x2="220.84" y2="137.50" fill="none" stroke="black" stroke-width="0.25px" stroke-linecap="butt" />
<line x1="6.54" y1="149.41" x2="220.84" y2="149.41" fill="none" stroke="black" stroke-width="0.25px" stroke-linecap="butt" />
<line x1="6.54" y1="161.31" x2="220.84" y2="161.31" fill="none" stroke="black" stroke-width="0.25px" stroke-linecap="butt" />
<line x1="6.54" y1="173.22" x2="220.84" y2="173.22" fill="none" stroke="black" stroke-width="0.25px" stroke-linecap="butt" />
<line x1="6.54" y1="185.13" x2="220.84" y2="185.13" fill="none" stroke="black" stroke-width="0.25px" stroke-linecap="butt" />
<line x1="6.54" y1="197.03" x2="220.84" y2="197.03" fill="none" stroke="black" stroke-width="0.25px" stroke-linecap="butt" />
<line x1="6.54" y1="208.94" x2="220.84" y2="208.94" fill="none" stroke="black" stroke-width="0.25px" stroke-linecap="butt" />
<line x1="6.54" y1="220.84" x2="220.84" y2="220.84" fill="none" stroke="black" stroke-width="0.87px" stroke-linecap="square" />
<circle cx="30.35" cy="54.17" r="5.98" fill="black"/>
<circle cx="30.35" cy="89.88" r="5.85" fill="white"/>
<circle cx="30.35" cy="89.88" r="5.85" fill="none" stroke="black" stroke-width="0.25px"/>
<circle cx="30.35" cy="125.60" r="5.85" fill="white"/>
<circle cx="30.35" cy="125.60" r="5.85" fill="none" stroke="black" stroke-width="0.25px"/>
<circle cx="30.35" cy="161.31" r="5.85" fill="white"/>
<circle cx="30.35" cy="161.31" r="5.85" fill="none" stroke="black" stroke-width="0.25px"/>
<circle cx="42.26" cy="30.35" r="5.85" fill="white"/>
<circle cx="42.26" cy="30.35" r="5.85" fill="none" stroke="black" stroke-width="0.25px"/>
<circle cx="42.26" cy="42.26" r="1.27" fill="black"/>
<circle cx="42.26" cy="77.98" r="5.85" fill="white"/>
<circle cx="42.26" cy="77.98" r="5.85" fill="none" stroke="black" stroke-width="0.25px"/>
<circle cx="42.26" cy="89.88" r="5.98" fill="black"/>
<circle cx="42.26" cy="101.79" r="5.85" fill="white"/>
<circle cx="42.26" cy="101.79" r="5.85" fill="none" stroke="black" stroke-width="0.25px"/>
<circle cx="42.26" cy="113.69" r="1.27" fill="black"/>
<circle cx="42.26" cy="185.13" r="5.98" fill="black"/>
<circle cx="54.17" cy="66.07" r="5.98" fill="black"/>
<circle cx="54.17" cy="77.98" r="5.98" fill="black"/>
<circle cx="54.17" cy="89.88" r="5.98" fill="black"/>
<circle cx="66.07" cy="197.03" r="5.98" fill="black"/>
<circle cx="77.98" cy="30.35" r="5.85" fill="white"/>
<circle cx="77.98" cy="30.35" r="5.85" fill="none" stroke="black" stroke-width="0.25px"/>
<circle cx="77.98" cy="54.17" r="5.85" fill="white"/>
<circle cx="77.98" cy="54.17" r="5.85" fill="none" stroke="black" stroke-width="0.25px"/>
<circle cx="77.98" cy="77.98" r="5.85" fill="white"/>
<circle cx="77.98" cy="77.98" r="5.85" fill="none" stroke="black" stroke-width="0.25px"/>
<circle cx="101.79" cy="30.35" r="5.98" fill="black"/>
<circle cx="101.79" cy="54.17" r="5.98" fill="black"/>
<circle cx="113.69" cy="42.26" r="1.27" fill="black"/>
<circle cx="113.69" cy="113.69" r="1.27" fill="black"/>
<circle cx="113.69" cy="185.13" r="1.27" fill="black"/>
<circle cx="149.41" cy="197.03" r="5.98" fill="black"/>
<circle cx="173.22" cy="89.88" r="5.98" fill="black"/>
<circle cx="173.22" cy="185.13" r="5.85" fill="white"/>
<circle cx="173.22" cy="185.13" r="5.85" fill="none" stroke="black" stroke-width="0.25px"/>
<circle cx="185.13" cy="30.35" r="5.98" fill="black"/>
<circle cx="185.13" cy="42.26" r="5.98" fill="black"/>
<circle cx="185.13" cy="113.69" r="1.27" fill="black"/>
<circle cx="185.13" cy="161.31" r="5.85" fill="white"/>
<circle cx="185.13" cy="161.31" r="5.85" fill="none" stroke="black" stroke-width="0.25px"/>
<circle cx="185.13" cy="185.13" r="1.27" fill="black"/>
<circle cx="185.13" cy="197.03" r="5.85" fill="white"/>
<circle cx="185.13" cy="197.03" r="5.85" fill="none" stroke="black" stroke-width="0.25px"/>
<circle cx="197.03" cy="89.88" r="5.98" fill="black"/>
<circle cx="197.03" cy="113.69" r="5.85" fill="white"/>
<circle cx="197.03" cy="113.69" r="5.85" fill="none" stroke="black" stroke-width="0.25px"/>
<circle cx="197.03" cy="149.41" r="5.85" fill="white"/>
<circle cx="197.03" cy="149.41" r="5.85" fill="none" stroke="black" stroke-width="0.25px"/>
<circle cx="197.03" cy="173.22" r="5.98" fill="black"/>
<circle cx="208.94" cy="101.79" r="5.85" fill="white"/>
<circle cx="208.94" cy="101.79" r="5.85" fill="none" stroke="black" stroke-width="0.25px"/>
<path d="
M77.88 50.57
C77.43 50.57 77.05 50.72 76.74 51.03
C76.42 51.34 76.22 51.79 76.13 52.39
L76.84 52.55
C76.89 52.12 77.01 51.80 77.20 51.59
C77.38 51.39 77.61 51.28 77.89 51.28
C78.15 51.28 78.37 51.38 78.55 51.58
C78.73 51.78 78.83 52.05 78.83 52.37
C78.83 52.73 78.72 53.02 78.50 53.23
C78.28 53.45 78.00 53.56 77.65 53.56
L77.54 53.55
L77.46 54.30
C77.66 54.24 77.82 54.21 77.96 54.21
C78.27 54.21 78.54 54.33 78.76 54.58
C78.98 54.83 79.09 55.16 79.09 55.57
C79.09 56.01 78.97 56.36 78.73 56.63
C78.49 56.91 78.21 57.04 77.89 57.04
C77.29 57.04 76.92 56.58 76.77 55.66
L76.06 55.78
C76.11 56.38 76.30 56.86 76.65 57.22
C76.99 57.58 77.41 57.76 77.90 57.76
C78.43 57.76 78.89 57.55 79.27 57.14
C79.65 56.73 79.84 56.20 79.84 55.56
C79.84 55.25 79.79 54.98 79.70 54.73
C79.61 54.49 79.49 54.29 79.33 54.14
C79.18 53.99 78.99 53.89 78.76 53.82
C79.01 53.68 79.21 53.49 79.35 53.24
C79.49 53.00 79.56 52.71 79.56 52.39
C79.56 51.87 79.39 51.43 79.07 51.09
C78.74 50.74 78.34 50.57 77.88 50.57
Z
" fill="black" fill-rule="nonzero" />
<path d="
M76.74 74.45
L76.18 78.06
L76.85 78.17
C76.96 77.95 77.11 77.78 77.29 77.66
C77.48 77.54 77.68 77.48 77.89 77.48
C78.25 77.48 78.55 77.62 78.78 77.90
C79.02 78.18 79.13 78.57 79.13 79.07
C79.13 79.60 79.01 80.02 78.77 80.33
C78.53 80.64 78.24 80.80 77.90 80.80
C77.63 80.80 77.39 80.69 77.19 80.47
C76.99 80.25 76.86 79.91 76.80 79.47
L76.06 79.54
C76.10 80.16 76.30 80.64 76.64 80.99
C76.99 81.33 77.41 81.51 77.91 81.51
C78.51 81.51 78.99 81.26 79.35 80.77
C79.70 80.28 79.88 79.69 79.88 79.00
C79.88 78.30 79.70 77.75 79.35 77.34
C78.99 76.93 78.57 76.72 78.09 76.72
C77.70 76.72 77.34 76.87 77.00 77.16
L77.31 75.27
L79.61 75.27
L79.61 74.45
Z
" fill="black" fill-rule="nonzero" />
<path d="
M89.23 39.70
C89.96 39.70 90.40 39.71 90.56 39.73
C90.82 39.76 91.01 39.85 91.14 40.00
C91.27 40.15 91.34 40.34 91.34 40.58
C91.34 40.82 91.26 41.02 91.11 41.17
C90.96 41.33 90.75 41.42 90.48 41.45
C90.34 41.47 89.96 41.48 89.36 41.48
L88.35 41.48
L88.35 39.70
Z
M89.59 42.75
C90.30 42.75 90.76 42.79 90.97 42.86
C91.18 42.93 91.34 43.05 91.45 43.21
C91.56 43.37 91.62 43.57 91.62 43.80
C91.62 44.07 91.55 44.29 91.40 44.45
C91.26 44.61 91.07 44.71 90.84 44.75
C90.69 44.79 90.34 44.80 89.78 44.80
L88.35 44.80
L88.35 42.75
Z
M86.80 38.43
L86.80 46.09
L89.41 46.09
C90.39 46.09 91.02 46.07 91.27 46.04
C91.69 46.00 92.03 45.87 92.31 45.68
C92.59 45.48 92.81 45.22 92.98 44.89
C93.14 44.56 93.22 44.22 93.22 43.87
C93.22 43.43 93.09 43.04 92.84 42.71
C92.59 42.39 92.23 42.15 91.77 42.02
C92.10 41.87 92.36 41.64 92.55 41.34
C92.75 41.04 92.84 40.72 92.84 40.36
C92.84 40.02 92.76 39.73 92.61 39.46
C92.45 39.19 92.25 38.98 92.02 38.82
C91.78 38.66 91.52 38.55 91.22 38.50
C90.92 38.45 90.47 38.43 89.86 38.43
Z
" fill="black" fill-rule="nonzero" />
<path d="
M101.80 26.68
C101.22 26.68 100.75 26.86 100.39 27.23
C100.04 27.60 99.83 28.14 99.78 28.85
L99.77 28.98
L99.90 29.00
L100.63 29.09
L100.79 29.11
L100.79 28.95
C100.79 28.53 100.89 28.21 101.07 27.99
C101.26 27.78 101.49 27.68 101.77 27.68
C101.78 27.68 101.78 27.68 101.78 27.68
C101.78 27.68 101.78 27.68 101.78 27.68
C102.05 27.68 102.27 27.78 102.45 27.97
C102.63 28.17 102.73 28.43 102.73 28.75
C102.73 29.04 102.63 29.35 102.44 29.69
C102.24 30.04 101.81 30.53 101.16 31.18
C100.58 31.76 100.18 32.27 99.96 32.69
C99.74 33.13 99.63 33.53 99.64 33.89
L99.65 34.03
L103.74 34.03
L103.74 33.89
L103.74 33.06
L103.74 32.91
L101.01 32.91
C101.06 32.83 101.12 32.75 101.18 32.67
C101.30 32.52 101.57 32.23 101.99 31.80
C102.66 31.11 103.12 30.55 103.36 30.13
C103.61 29.70 103.73 29.24 103.73 28.77
C103.73 28.23 103.57 27.75 103.25 27.33
C102.92 26.90 102.44 26.68 101.80 26.68
Z
" fill="white" fill-rule="nonzero" />
<path d="
M101.70 40.21
L102.76 43.06
L100.67 43.06
L101.70 40.21
Z
M100.90 38.43
L97.92 46.09
L99.56 46.09
L100.19 44.35
L103.26 44.35
L103.93 46.09
L105.61 46.09
L102.54 38.43
Z
" fill="black" fill-rule="nonzero" />
<path d="
M102.00 52.57
L102.00 55.06
L100.58 55.06
L102.00 52.57
Z
M102.19 50.51
L102.15 50.58
L99.51 55.14
L99.50 55.17
L99.50 55.21
L99.50 56.00
L99.50 56.14
L102.00 56.14
L102.00 57.68
L102.00 57.83
L102.99 57.83
L102.99 57.68
L102.99 56.14
L103.77 56.14
L103.77 56.00
L103.77 55.21
L103.77 55.06
L102.99 55.06
L102.99 50.65
L102.99 50.51
Z
" fill="white" fill-rule="nonzero" />
<path d="
M209.23 98.25
C209.10 98.56 208.89 98.88 208.59 99.20
C208.29 99.52 207.95 99.80 207.56 100.02
L207.56 100.86
C207.79 100.75 208.04 100.60 208.32 100.40
C208.59 100.20 208.81 100.01 208.98 99.81
L208.98 105.32
L209.69 105.32
L209.69 98.25
Z
" fill="black" fill-rule="nonzero" />
</g>
<g  transform="translate(1.19,228.58)" >
<path d="
M109.47 2.94
C109.30 2.94 109.16 3.00 109.05 3.11
C108.93 3.23 108.88 3.37 108.88 3.53
C108.88 3.69 108.94 3.83 109.05 3.95
C109.17 4.07 109.31 4.12 109.47 4.12
C109.63 4.12 109.77 4.07 109.89 3.95
C110.00 3.83 110.06 3.69 110.06 3.53
C110.06 3.37 110.00 3.23 109.89 3.11
C109.77 3.00 109.63 2.94 109.47 2.94
Z
M114.44 8.04
L114.44 10.07
C113.96 10.46 113.57 10.65 113.28 10.65
C113.06 10.65 112.87 10.56 112.70 10.37
C112.54 10.19 112.45 9.96 112.45 9.68
C112.45 9.46 112.52 9.25 112.65 9.07
C112.78 8.88 113.00 8.70 113.31 8.53
C113.48 8.44 113.86 8.27 114.44 8.04
Z
M102.79 3.77
C103.72 3.77 104.48 4.08 105.08 4.71
C105.67 5.34 105.97 6.20 105.97 7.29
C105.97 8.37 105.67 9.23 105.08 9.86
C104.48 10.49 103.74 10.81 102.84 10.81
C102.50 10.81 102.09 10.75 101.60 10.64
L101.60 3.94
C102.05 3.83 102.44 3.77 102.79 3.77
Z
M99.35 3.33
L99.35 3.54
L99.65 3.54
C99.94 3.54 100.17 3.63 100.32 3.80
C100.43 3.92 100.48 4.23 100.48 4.72
L100.48 9.82
C100.48 10.26 100.44 10.55 100.35 10.68
C100.22 10.89 99.98 11.00 99.65 11.00
L99.35 11.00
L99.35 11.21
L102.87 11.21
C104.40 11.21 105.54 10.80 106.29 9.98
C106.96 9.24 107.29 8.33 107.29 7.23
C107.29 6.41 107.11 5.69 106.73 5.07
C106.36 4.44 105.86 4.00 105.25 3.73
C104.63 3.46 103.74 3.33 102.56 3.33
Z
M109.70 5.73
L108.09 6.38
L108.17 6.59
C108.33 6.53 108.46 6.50 108.57 6.50
C108.67 6.50 108.75 6.53 108.81 6.58
C108.87 6.62 108.91 6.71 108.94 6.83
C108.97 7.00 108.99 7.38 108.99 7.96
L108.99 10.01
C108.99 10.34 108.96 10.56 108.91 10.68
C108.86 10.79 108.79 10.88 108.70 10.93
C108.61 10.98 108.43 11.00 108.17 11.00
L108.17 11.21
L110.76 11.21
L110.76 11.00
C110.51 11.00 110.34 10.98 110.24 10.92
C110.15 10.87 110.07 10.79 110.03 10.68
C109.98 10.56 109.95 10.34 109.95 10.01
L109.95 5.73
Z
M113.63 5.73
C113.01 5.73 112.53 5.87 112.19 6.15
C111.85 6.43 111.68 6.73 111.68 7.07
C111.68 7.24 111.72 7.38 111.82 7.48
C111.91 7.58 112.02 7.63 112.17 7.63
C112.31 7.63 112.43 7.58 112.52 7.49
C112.62 7.39 112.66 7.25 112.66 7.07
L112.65 6.74
C112.65 6.56 112.72 6.41 112.87 6.28
C113.01 6.15 113.21 6.08 113.45 6.08
C113.77 6.08 114.02 6.18 114.19 6.38
C114.36 6.58 114.44 6.94 114.44 7.47
L114.44 7.68
C113.53 8.02 112.87 8.30 112.48 8.53
C112.08 8.76 111.81 9.01 111.65 9.28
C111.53 9.47 111.48 9.69 111.48 9.95
C111.48 10.36 111.59 10.69 111.83 10.95
C112.07 11.20 112.37 11.32 112.74 11.32
C112.98 11.32 113.20 11.27 113.41 11.18
C113.55 11.11 113.89 10.87 114.44 10.45
C114.44 10.76 114.50 10.99 114.62 11.12
C114.73 11.25 114.88 11.32 115.07 11.32
C115.46 11.32 115.88 11.03 116.31 10.45
L116.31 10.12
C116.08 10.35 115.92 10.49 115.84 10.54
C115.80 10.57 115.74 10.58 115.68 10.58
C115.62 10.58 115.57 10.57 115.53 10.53
C115.48 10.49 115.45 10.41 115.43 10.30
C115.41 10.18 115.40 9.87 115.40 9.36
L115.40 7.55
C115.40 7.04 115.37 6.70 115.30 6.53
C115.19 6.28 115.02 6.09 114.79 5.97
C114.49 5.81 114.10 5.73 113.63 5.73
Z
M117.82 10.08
C117.65 10.08 117.49 10.15 117.37 10.27
C117.24 10.39 117.18 10.55 117.18 10.73
C117.18 10.91 117.24 11.06 117.37 11.19
C117.49 11.31 117.65 11.38 117.82 11.38
C118.00 11.38 118.15 11.31 118.28 11.19
C118.41 11.06 118.47 10.91 118.47 10.73
C118.47 10.55 118.41 10.40 118.28 10.27
C118.16 10.15 118.01 10.08 117.82 10.08
Z
M123.49 3.33
L122.73 5.19
L122.90 5.26
C123.10 4.89 123.36 4.61 123.68 4.43
C123.87 4.33 124.18 4.28 124.62 4.28
L126.79 4.28
L124.43 11.38
L125.08 11.38
L127.71 3.55
L127.71 3.33
Z
" fill="black" fill-rule="nonzero" />
</g>
</g>
</svg>
