<?xml version="1.0" encoding="utf-8" standalone="no"?>
<!DOCTYPE svg PUBLIC "-//W3C//DTD SVG 1.0//EN" "http://www.w3.org/TR/SVG/DTD/svg11.dtd" >
<svg version="1.1" baseProfile="full"  width="319.13385" height="338.46454" viewBox="0 0 229.77638 243.69449" preserveAspectRatio="xMidYMid" xmlns="http://www.w3.org/2000/svg" >

<g lengthAdjust="spacingAndGlyphs" xml:space='preserve' >
<g  transform="translate(1.19,1.19)" >
<path d="
M0.0 0.0
L0.0 227.39
L227.39 227.39
L227.39 0.0
Z
" fill="none" fill-rule="nonzero" />
<line x1="6.54" y1="6.54" x2="6.54" y2="220.84" fill="none" stroke="black" stroke-width="0.87px" stroke-linecap="square" />
<line x1="18.45" y1="6.54" x2="18.45" y2="220.84" fill="none" stroke="black" stroke-width="0.25px" stroke-linecap="butt" />
<line x1="30.35" y1="6.54" x2="30.35" y2="220.84" fill="none" stroke="black" stroke-width="0.25px" stroke-linecap="butt" />
<line x1="42.26" y1="6.54" x2="42.26" y2="220.84" fill="none" stroke="black" stroke-width="0.25px" stroke-linecap="butt" />
<line x1="54.17" y1="6.54" x2="54.17" y2="220.84" fill="none" stroke="black" stroke-width="0.25px" stroke-linecap="butt" />
<line x1="66.07" y1="6.54" x2="66.07" y2="220.84" fill="none" stroke="black" stroke-width="0.25px" stroke-linecap="butt" />
<line x1="77.98" y1="6.54" x2="77.98" y2="48.21" fill="none" stroke="black" stroke-width="0.25px" stroke-linecap="butt" />
<line x1="77.98" y1="60.12" x2="77.98" y2="220.84" fill="none" stroke="black" stroke-width="0.25px" stroke-linecap="butt" />
<line x1="89.88" y1="6.54" x2="89.88" y2="220.84" fill="none" stroke="black" stroke-width="0.25px" stroke-linecap="butt" />
<line x1="101.79" y1="6.54" x2="101.79" y2="220.84" fill="none" stroke="black" stroke-width="0.25px" stroke-linecap="butt" />
<line x1="113.69" y1="6.54" x2="113.69" y2="220.84" fill="none" stroke="black" stroke-width="0.25px" stroke-linecap="butt" />
<line x1="125.60" y1="6.54" x2="125.60" y2="220.84" fill="none" stroke="black" stroke-width="0.25px" stroke-linecap="butt" />
<line x1="137.50" y1="6.54" x2="137.50" y2="220.84" fill="none" stroke="black" stroke-width="0.25px" stroke-linecap="butt" />
<line x1="149.41" y1="6.54" x2="149.41" y2="220.84" fill="none" stroke="black" stroke-width="0.25px" stroke-linecap="butt" />
<line x1="161.31" y1="6.54" x2="161.31" y2="220.84" fill="none" stroke="black" stroke-width="0.25px" stroke-linecap="butt" />
<line x1="173.22" y1="6.54" x2="173.22" y2="220.84" fill="none" stroke="black" stroke-width="0.25px" stroke-linecap="butt" />
<line x1="185.13" y1="6.54" x2="185.13" y2="220.84" fill="none" stroke="black" stroke-width="0.25px" stroke-linecap="butt" />
<line x1="197.03" y1="6.54" x2="197.03" y2="220.84" fill="none" stroke="black" stroke-width="0.25px" stroke-linecap="butt" />
<line x1="208.94" y1="6.54" x2="208.94" y2="220.84" fill="none" stroke="black" stroke-width="0.25px" stroke-linecap="butt" />
<line x1="220.84" y1="6.54" x2="220.84" y2="220.84" fill="none" stroke="black" stroke-width="0.87px" stroke-linecap="square" />
<line x1="6.54" y1="6.54" x2="220.84" y2="6.54" fill="none" stroke="black" stroke-width="0.87px" stroke-linecap="square" />
<line x1="6.54" y1="18.45" x2="220.84" y2="18.45" fill="none" stroke="black" stroke-width="0.25px" stroke-linecap="butt" />
<line x1="6.54" y1="30.35" x2="220.84" y2="30.35" fill="none" stroke="black" stroke-width="0.25px" stroke-linecap="butt" />
<line x1="6.54" y1="42.26" x2="220.84" y2="42.26" fill="none" stroke="black" stroke-width="0.25px" stroke-linecap="butt" />
<line x1="6.54" y1="54.17" x2="72.02" y2="54.17" fill="none" stroke="black" stroke-width="0.25px" stroke-linecap="butt" />
<line x1="83.93" y1="54.17" x2="220.84" y2="54.17" fill="none" stroke="black" stroke-width="0.25px" stroke-linecap="butt" />
<line x1="6.54" y1="66.07" x2="220.84" y2="66.07" fill="none" stroke="black" stroke-width="0.25px" stroke-linecap="butt" />
<line x1="6.54" y1="77.98" x2="220.84" y2="77.98" fill="none" stroke="black" stroke-width="0.25px" stroke-linecap="butt" />
<line x1="6.54" y1="89.88" x2="220.84" y2="89.88" fill="none" stroke="black" stroke-width="0.25px" stroke-linecap="butt" />
<line x1="6.54" y1="101.79" x2="220.84" y2="101.79" fill="none" stroke="black" stroke-width="0.25px" stroke-linecap="butt" />
<line x1="6.54" y1="113.69" x2="220.84" y2="113.69" fill="none" stroke="black" stroke-width="0.25px" stroke-linecap="butt" />
<line x1="6.54" y1="125.60" x2="220.84" y2="125.60" fill="none" stroke="black" stroke-width="0.25px" stroke-linecap="butt" />
<line x1="6.54" y1="137.50" x2="220.84" y2="137.50" fill="none" stroke="black" stroke-width="0.25px" stroke-linecap="butt" />
<line x1="6.54" y1="149.41" x2="220.84" y2="149.41" fill="none" stroke="black" stroke-width="0.25px" stroke-linecap="butt" />
<line x1="6.54" y1="161.31" x2="220.84" y2="161.31" fill="none" stroke="black" stroke-width="0.25px" stroke-linecap="butt" />
<line x1="6.54" y1="173.22" x2="220.84" y2="173.22" fill="none" stroke="black" stroke-width="0.25px" stroke-linecap="butt" />
<line x1="6.54" y1="185.13" x2="220.84" y2="185.13" fill="none" stroke="black" stroke-width="0.25px" stroke-linecap="butt" />
<line x1="6.54" y1="197.03" x2="220.84" y2="197.03" fill="none" stroke="black" stroke-width="0.25px" stroke-linecap="butt" />
<line x1="6.54" y1="208.94" x2="220.84" y2="208.94" fill="none" stroke="black" stroke-width="0.25px" stroke-linecap="butt" />
<line x1="6.54" y1="220.84" x2="220.84" y2="220.84" fill="none" stroke="black" stroke-width="0.87px" stroke-linecap="square" />
<circle cx="30.35" cy="54.17" r="5.98" fill="black"/>
<circle cx="30.35" cy="89.88" r="5.85" fill="white"/>
<circle cx="30.35" cy="89.88" r="5.85" fill="none" stroke="black" stroke-width="0.25px"/>
<circle cx="30.35" cy="125.60" r="5.85" fill="white"/>
<circle cx="30.35" cy="125.60" r="5.85" fill="none" stroke="black" stroke-width="0.25px"/>
<circle cx="30.35" cy="161.31" r="5.85" fill="white"/>
<circle cx="30.35" cy="161.31" r="5.85" fill="none" stroke="black" stroke-width="0.25px"/>
<circle cx="42.26" cy="30.35" r="5.85" fill="white"/>
<circle cx="42.26" cy="30.35" r="5.85" fill="none" stroke="black" stroke-width="0.25px"/>
<circle cx="42.26" cy="42.26" r="1.27" fill="black"/>
<circle cx="42.26" cy="77.98" r="5.85" fill="white"/>
<circle cx="42.26" cy="77.98" r="5.85" fill="none" stroke="black" stroke-width="0.25px"/>
<circle cx="42.26" cy="89.88" r="5.98" fill="black"/>
<circle cx="42.26" cy="101.79" r="5.85" fill="white"/>
<circle cx="42.26" cy="101.79" r="5.85" fill="none" stroke="black" stroke-width="0.25px"/>
<circle cx="42.26" cy="113.69" r="1.27" fill="black"/>
<circle cx="42.26" cy="185.13" r="5.98" fill="black"/>
<circle cx="54.17" cy="66.07" r="5.98" fill="black"/>
<circle cx="54.17" cy="77.98" r="5.98" fill="black"/>
<circle cx="54.17" cy="89.88" r="5.98" fill="black"/>
<circle cx="66.07" cy="197.03" r="5.98" fill="black"/>
<circle cx="77.98" cy="30.35" r="5.85" fill="white"/>
<circle cx="77.98" cy="30.35" r="5.85" fill="none" stroke="black" stroke-width="0.25px"/>
<circle cx="89.88" cy="30.35" r="5.85" fill="white"/>
<circle cx="89.88" cy="30.35" r="5.85" fill="none" stroke="black" stroke-width="0.25px"/>
<circle cx="89.88" cy="42.26" r="5.98" fill="black"/>
<circle cx="89.88" cy="54.17" r="5.98" fill="black"/>
<circle cx="101.79" cy="30.35" r="5.98" fill="black"/>
<circle cx="101.79" cy="42.26" r="5.85" fill="white"/>
<circle cx="101.79" cy="42.26" r="5.85" fill="none" stroke="black" stroke-width="0.25px"/>
<circle cx="113.69" cy="30.35" r="5.98" fill="black"/>
<circle cx="113.69" cy="42.26" r="5.85" fill="white"/>
<circle cx="113.69" cy="42.26" r="5.85" fill="none" stroke="black" stroke-width="0.25px"/>
<circle cx="113.69" cy="113.69" r="1.27" fill="black"/>
<circle cx="113.69" cy="185.13" r="1.27" fill="black"/>
<circle cx="125.60" cy="30.35" r="5.98" fill="black"/>
<circle cx="125.60" cy="42.26" r="5.85" fill="white"/>
<circle cx="125.60" cy="42.26" r="5.85" fill="none" stroke="black" stroke-width="0.25px"/>
<circle cx="137.50" cy="18.45" r="5.98" fill="black"/>
<circle cx="137.50" cy="30.35" r="5.98" fill="black"/>
<circle cx="137.50" cy="42.26" r="5.85" fill="white"/>
<circle cx="137.50" cy="42.26" r="5.85" fill="none" stroke="black" stroke-width="0.25px"/>
<circle cx="149.41" cy="18.45" r="5.98" fill="black"/>
<circle cx="149.41" cy="30.35" r="5.85" fill="white"/>
<circle cx="149.41" cy="30.35" r="5.85" fill="none" stroke="black" stroke-width="0.25px"/>
<circle cx="149.41" cy="42.26" r="5.85" fill="white"/>
<circle cx="149.41" cy="42.26" r="5.85" fill="none" stroke="black" stroke-width="0.25px"/>
<circle cx="149.41" cy="197.03" r="5.98" fill="black"/>
<circle cx="161.31" cy="18.45" r="5.85" fill="white"/>
<circle cx="161.31" cy="18.45" r="5.85" fill="none" stroke="black" stroke-width="0.25px"/>
<circle cx="161.31" cy="30.35" r="5.98" fill="black"/>
<circle cx="161.31" cy="42.26" r="5.98" fill="black"/>
<circle cx="161.31" cy="54.17" r="5.98" fill="black"/>
<circle cx="173.22" cy="18.45" r="5.85" fill="white"/>
<circle cx="173.22" cy="18.45" r="5.85" fill="none" stroke="black" stroke-width="0.25px"/>
<circle cx="173.22" cy="30.35" r="5.85" fill="white"/>
<circle cx="173.22" cy="30.35" r="5.85" fill="none" stroke="black" stroke-width="0.25px"/>
<circle cx="173.22" cy="42.26" r="5.85" fill="white"/>
<circle cx="173.22" cy="42.26" r="5.85" fill="none" stroke="black" stroke-width="0.25px"/>
<circle cx="173.22" cy="54.17" r="5.98" fill="black"/>
<circle cx="173.22" cy="89.88" r="5.98" fill="black"/>
<circle cx="173.22" cy="185.13" r="5.85" fill="white"/>
<circle cx="173.22" cy="185.13" r="5.85" fill="none" stroke="black" stroke-width="0.25px"/>
<circle cx="185.13" cy="30.35" r="5.98" fill="black"/>
<circle cx="185.13" cy="42.26" r="5.98" fill="black"/>
<circle cx="185.13" cy="113.69" r="1.27" fill="black"/>
<circle cx="185.13" cy="161.31" r="5.85" fill="white"/>
<circle cx="185.13" cy="161.31" r="5.85" fill="none" stroke="black" stroke-width="0.25px"/>
<circle cx="185.13" cy="185.13" r="1.27" fill="black"/>
<circle cx="185.13" cy="197.03" r="5.85" fill="white"/>
<circle cx="185.13" cy="197.03" r="5.85" fill="none" stroke="black" stroke-width="0.25px"/>
<circle cx="197.03" cy="89.88" r="5.98" fill="black"/>
<circle cx="197.03" cy="113.69" r="5.85" fill="white"/>
<circle cx="197.03" cy="113.69" r="5.85" fill="none" stroke="black" stroke-width="0.25px"/>
<circle cx="197.03" cy="149.41" r="5.85" fill="white"/>
<circle cx="197.03" cy="149.41" r="5.85" fill="none" stroke="black" stroke-width="0.25px"/>
<circle cx="197.03" cy="173.22" r="5.98" fill="black"/>
<circle cx="208.94" cy="101.79" r="5.85" fill="white"/>
<circle cx="208.94" cy="101.79" r="5.85" fill="none" stroke="black" stroke-width="0.25px"/>
<path d="
M77.89 52.12
L78.95 54.97
L76.86 54.97
L77.89 52.12
Z
M77.09 50.33
L74.11 58.00
L75.75 58.00
L76.38 56.26
L79.45 56.26
L80.12 58.00
L81.80 58.00
L78.73 50.33
Z
" fill="black" fill-rule="nonzero" />
<path d="
M89.78 26.76
C89.34 26.76 88.96 26.91 88.64 27.22
C88.33 27.53 88.13 27.98 88.04 28.58
L88.74 28.74
C88.80 28.31 88.91 27.99 89.10 27.78
C89.29 27.57 89.52 27.47 89.79 27.47
C90.05 27.47 90.28 27.57 90.46 27.77
C90.64 27.97 90.73 28.23 90.73 28.56
C90.73 28.92 90.62 29.21 90.41 29.42
C90.19 29.64 89.90 29.74 89.56 29.74
L89.45 29.73
L89.36 30.49
C89.56 30.43 89.73 30.40 89.86 30.40
C90.18 30.40 90.45 30.52 90.66 30.77
C90.88 31.02 90.99 31.35 90.99 31.76
C90.99 32.20 90.87 32.55 90.64 32.82
C90.40 33.10 90.12 33.23 89.80 33.23
C89.20 33.23 88.82 32.77 88.68 31.85
L87.97 31.97
C88.01 32.57 88.21 33.05 88.55 33.41
C88.89 33.77 89.31 33.95 89.81 33.95
C90.34 33.95 90.79 33.74 91.17 33.33
C91.55 32.92 91.74 32.39 91.74 31.75
C91.74 31.44 91.70 31.17 91.61 30.92
C91.51 30.67 91.39 30.48 91.24 30.33
C91.09 30.18 90.90 30.08 90.67 30.01
C90.92 29.87 91.11 29.68 91.25 29.43
C91.39 29.19 91.46 28.90 91.46 28.58
C91.46 28.06 91.30 27.62 90.97 27.28
C90.65 26.93 90.25 26.76 89.78 26.76
Z
" fill="black" fill-rule="nonzero" />
<path d="
M89.90 38.59
C89.32 38.59 88.85 38.77 88.49 39.14
C88.13 39.50 87.93 40.04 87.87 40.75
L87.86 40.89
L88.00 40.90
L88.73 40.99
L88.89 41.01
L88.89 40.85
C88.89 40.43 88.98 40.12 89.17 39.90
C89.35 39.69 89.58 39.58 89.87 39.58
C89.87 39.58 89.87 39.58 89.87 39.58
C89.87 39.58 89.87 39.58 89.87 39.58
C90.14 39.58 90.36 39.68 90.54 39.88
C90.73 40.08 90.82 40.33 90.82 40.66
C90.82 40.94 90.72 41.25 90.53 41.59
C90.33 41.94 89.91 42.44 89.25 43.09
C88.68 43.67 88.28 44.17 88.06 44.60
C87.84 45.04 87.73 45.44 87.74 45.80
L87.74 45.93
L91.84 45.93
L91.84 45.79
L91.84 44.96
L91.84 44.82
L89.11 44.82
C89.16 44.74 89.21 44.66 89.28 44.58
C89.40 44.43 89.67 44.14 90.08 43.71
C90.75 43.01 91.21 42.46 91.45 42.04
C91.70 41.60 91.83 41.15 91.83 40.68
C91.83 40.14 91.67 39.66 91.35 39.24
C91.01 38.80 90.53 38.59 89.90 38.59
Z
" fill="white" fill-rule="nonzero" />
<path d="
M91.64 51.39
C91.64 51.39 91.64 51.39 91.64 51.39
C91.64 51.39 91.64 51.39 91.64 51.39
C91.75 51.39 91.85 51.43 91.93 51.51
C92.03 51.59 92.12 51.72 92.20 51.90
C92.37 52.27 92.46 53.03 92.46 54.17
C92.46 55.29 92.37 56.05 92.20 56.43
C92.12 56.61 92.04 56.74 91.94 56.83
C91.86 56.90 91.77 56.94 91.68 56.94
C91.68 56.94 91.68 56.94 91.68 56.94
C91.68 56.94 91.68 56.94 91.68 56.94
C91.57 56.94 91.48 56.90 91.39 56.83
C91.29 56.74 91.20 56.61 91.12 56.43
C90.96 56.06 90.87 55.30 90.87 54.17
C90.87 53.04 90.95 52.29 91.12 51.91
C91.20 51.73 91.29 51.59 91.38 51.51
C91.46 51.43 91.55 51.39 91.64 51.39
Z
M88.20 50.39
L88.16 50.49
C88.07 50.78 87.91 51.09 87.67 51.40
C87.44 51.72 87.17 51.98 86.87 52.20
L86.81 52.24
L86.81 52.32
L86.81 53.16
L86.81 53.40
L86.81 53.40
L87.02 53.29
C87.22 53.18 87.43 53.02 87.66 52.81
C87.77 52.71 87.87 52.61 87.96 52.51
L87.96 52.51
L87.96 57.68
L87.96 57.82
L88.81 57.82
L88.81 57.68
L88.81 50.53
L88.81 50.39
Z
M91.67 50.39
C91.38 50.39 91.13 50.47 90.92 50.65
C90.71 50.82 90.54 51.07 90.40 51.40
C90.13 52.03 90.00 52.95 90.00 54.17
C90.00 55.53 90.15 56.49 90.44 57.05
C90.59 57.34 90.77 57.56 90.97 57.71
C91.18 57.87 91.41 57.94 91.66 57.94
C91.95 57.94 92.20 57.86 92.42 57.68
C92.62 57.51 92.80 57.26 92.94 56.93
C93.20 56.30 93.33 55.38 93.33 54.17
C93.33 52.82 93.17 51.83 92.85 51.21
C92.71 50.94 92.54 50.74 92.35 50.60
C92.15 50.46 91.92 50.39 91.67 50.39
Z
" fill="white" fill-rule="nonzero" />
<path d="
M102.08 38.73
C101.95 39.03 101.74 39.35 101.44 39.67
C101.15 40.00 100.80 40.27 100.41 40.49
L100.41 41.33
C100.64 41.23 100.89 41.07 101.17 40.87
C101.44 40.67 101.66 40.48 101.83 40.29
L101.83 45.79
L102.54 45.79
L102.54 38.73
Z
" fill="black" fill-rule="nonzero" />
<path d="
M113.90 28.76
L113.90 31.25
L112.48 31.25
L113.90 28.76
Z
M114.10 26.69
L114.05 26.76
L111.42 31.32
L111.40 31.36
L111.40 31.40
L111.40 32.19
L111.40 32.33
L113.90 32.33
L113.90 33.87
L113.90 34.01
L114.90 34.01
L114.90 33.87
L114.90 32.33
L115.68 32.33
L115.68 32.19
L115.68 31.40
L115.68 31.25
L114.90 31.25
L114.90 26.84
L114.90 26.69
Z
" fill="white" fill-rule="nonzero" />
<path d="
M112.46 38.73
L111.90 42.34
L112.57 42.45
C112.67 42.23 112.82 42.07 113.01 41.95
C113.20 41.83 113.40 41.77 113.61 41.77
C113.97 41.77 114.26 41.91 114.50 42.18
C114.73 42.46 114.85 42.85 114.85 43.35
C114.85 43.89 114.73 44.31 114.48 44.62
C114.24 44.93 113.95 45.08 113.62 45.08
C113.35 45.08 113.11 44.97 112.91 44.75
C112.71 44.53 112.57 44.20 112.52 43.75
L111.77 43.83
C111.82 44.44 112.02 44.92 112.36 45.27
C112.70 45.62 113.13 45.79 113.63 45.79
C114.23 45.79 114.71 45.54 115.06 45.05
C115.42 44.56 115.60 43.97 115.60 43.28
C115.60 42.59 115.42 42.03 115.06 41.62
C114.71 41.21 114.29 41.00 113.80 41.00
C113.42 41.00 113.06 41.15 112.71 41.45
L113.03 39.55
L115.32 39.55
L115.32 38.73
Z
" fill="black" fill-rule="nonzero" />
<path d="
M125.61 30.17
C125.88 30.17 126.11 30.29 126.29 30.53
C126.49 30.78 126.59 31.13 126.59 31.60
C126.59 32.08 126.49 32.45 126.29 32.71
C126.10 32.97 125.89 33.09 125.66 33.09
C125.66 33.09 125.66 33.09 125.66 33.09
C125.66 33.09 125.65 33.09 125.65 33.09
C125.38 33.09 125.14 32.96 124.93 32.69
C124.71 32.40 124.60 32.02 124.60 31.55
C124.60 31.11 124.71 30.77 124.91 30.53
C125.11 30.29 125.34 30.17 125.61 30.17
C125.61 30.17 125.61 30.17 125.61 30.17
C125.61 30.17 125.61 30.17 125.61 30.17
Z
M125.71 26.62
C125.06 26.62 124.52 26.93 124.11 27.55
C123.70 28.15 123.50 29.15 123.50 30.53
C123.50 31.79 123.70 32.69 124.10 33.24
C124.50 33.81 125.02 34.09 125.65 34.09
C126.00 34.09 126.33 33.99 126.62 33.79
C126.91 33.59 127.15 33.29 127.33 32.88
C127.51 32.48 127.60 32.04 127.60 31.55
C127.60 30.82 127.42 30.23 127.05 29.79
C126.68 29.35 126.25 29.12 125.75 29.12
C125.44 29.12 125.16 29.21 124.89 29.38
C124.75 29.47 124.62 29.58 124.51 29.72
L124.51 29.72
C124.54 29.11 124.64 28.64 124.80 28.30
C124.92 28.07 125.05 27.89 125.20 27.78
C125.34 27.67 125.50 27.61 125.67 27.61
C125.67 27.61 125.67 27.61 125.67 27.61
C125.67 27.61 125.67 27.61 125.67 27.61
C125.89 27.61 126.08 27.71 126.24 27.90
C126.36 28.03 126.45 28.27 126.51 28.61
L126.53 28.73
L126.66 28.72
L127.37 28.65
L127.51 28.64
L127.50 28.50
C127.43 27.90 127.23 27.43 126.92 27.11
C126.59 26.78 126.19 26.62 125.71 26.62
Z
" fill="white" fill-rule="nonzero" />
<path d="
M123.73 38.79
L123.73 39.62
L126.55 39.62
C126.19 40.12 125.86 40.72 125.55 41.43
C125.24 42.14 124.99 42.89 124.81 43.67
C124.64 44.46 124.54 45.14 124.53 45.73
L125.26 45.73
C125.33 44.59 125.57 43.44 125.99 42.28
C126.41 41.12 126.90 40.18 127.46 39.46
L127.46 38.79
Z
" fill="black" fill-rule="nonzero" />
<path d="
M139.33 18.26
C139.53 18.26 139.71 18.37 139.85 18.61
C140.01 18.86 140.09 19.23 140.09 19.71
C140.09 20.20 140.01 20.58 139.85 20.85
C139.70 21.10 139.54 21.22 139.37 21.22
C139.37 21.22 139.37 21.22 139.37 21.22
C139.36 21.22 139.36 21.22 139.36 21.22
C139.16 21.22 138.97 21.09 138.81 20.82
C138.63 20.53 138.54 20.14 138.54 19.66
C138.54 19.21 138.62 18.86 138.79 18.61
C138.95 18.38 139.13 18.26 139.32 18.26
C139.32 18.26 139.33 18.26 139.33 18.26
C139.33 18.26 139.33 18.26 139.33 18.26
Z
M135.82 14.67
L135.79 14.77
C135.69 15.07 135.53 15.37 135.30 15.68
C135.06 16.00 134.79 16.27 134.49 16.48
L134.43 16.53
L134.43 16.60
L134.43 17.45
L134.43 17.69
L134.64 17.57
C134.84 17.46 135.05 17.30 135.28 17.09
C135.39 16.99 135.49 16.89 135.58 16.80
L135.58 16.80
L135.58 21.96
L135.58 22.11
L136.44 22.11
L136.44 21.96
L136.44 14.81
L136.44 14.67
Z
M139.41 14.67
C139.14 14.67 138.89 14.75 138.66 14.92
C138.44 15.08 138.25 15.31 138.08 15.62
C137.76 16.23 137.60 17.23 137.60 18.63
C137.60 19.90 137.75 20.81 138.07 21.36
C138.24 21.64 138.42 21.86 138.64 22.00
C138.85 22.15 139.10 22.23 139.36 22.23
C139.66 22.23 139.93 22.12 140.17 21.92
C140.41 21.72 140.60 21.41 140.75 21.00
C140.89 20.60 140.96 20.15 140.96 19.66
C140.96 18.92 140.82 18.34 140.53 17.89
C140.22 17.43 139.86 17.20 139.44 17.20
C139.18 17.20 138.94 17.29 138.72 17.47
C138.63 17.55 138.54 17.63 138.46 17.73
L138.46 17.73
C138.50 17.15 138.58 16.69 138.70 16.36
C138.80 16.12 138.90 15.94 139.02 15.83
C139.13 15.72 139.25 15.67 139.38 15.67
C139.38 15.67 139.38 15.67 139.38 15.67
C139.38 15.67 139.38 15.67 139.38 15.67
C139.54 15.67 139.69 15.77 139.81 15.95
C139.91 16.09 139.98 16.33 140.03 16.67
L140.05 16.81
L140.19 16.79
L140.76 16.73
L140.89 16.71
L140.88 16.57
C140.83 15.97 140.67 15.50 140.42 15.18
C140.15 14.84 139.81 14.67 139.41 14.67
Z
" fill="white" fill-rule="nonzero" />
<path d="
M137.47 27.61
C137.47 27.61 137.47 27.61 137.48 27.61
C137.48 27.61 137.48 27.61 137.48 27.61
C137.69 27.61 137.88 27.70 138.03 27.88
C138.20 28.06 138.28 28.30 138.28 28.59
C138.28 28.88 138.20 29.11 138.04 29.28
C137.89 29.45 137.70 29.54 137.49 29.54
C137.49 29.54 137.49 29.54 137.48 29.54
C137.48 29.54 137.48 29.54 137.48 29.54
C137.26 29.54 137.07 29.45 136.92 29.28
C136.76 29.10 136.68 28.86 136.68 28.55
C136.68 28.28 136.76 28.05 136.92 27.87
C137.08 27.70 137.26 27.61 137.47 27.61
Z
M137.46 30.53
C137.46 30.53 137.46 30.53 137.47 30.53
C137.47 30.53 137.47 30.53 137.47 30.53
C137.75 30.53 137.99 30.64 138.20 30.88
C138.41 31.11 138.51 31.43 138.51 31.83
C138.51 32.22 138.41 32.53 138.21 32.76
C138.01 32.98 137.77 33.09 137.49 33.09
C137.49 33.09 137.49 33.09 137.48 33.09
C137.48 33.09 137.48 33.09 137.48 33.09
C137.20 33.09 136.96 32.98 136.76 32.75
C136.55 32.51 136.45 32.19 136.45 31.80
C136.45 31.42 136.55 31.11 136.75 30.87
C136.95 30.64 137.18 30.53 137.46 30.53
Z
M137.47 26.62
C136.95 26.62 136.52 26.80 136.18 27.17
C135.84 27.53 135.67 28.00 135.67 28.57
C135.67 28.95 135.75 29.27 135.91 29.54
C136.02 29.72 136.17 29.87 136.35 29.99
L136.35 29.99
C136.11 30.12 135.91 30.31 135.75 30.56
C135.54 30.89 135.44 31.30 135.44 31.80
C135.44 32.48 135.63 33.03 136.02 33.45
C136.41 33.87 136.90 34.09 137.48 34.09
C138.06 34.09 138.55 33.87 138.94 33.45
C139.33 33.03 139.52 32.48 139.52 31.82
C139.52 31.34 139.42 30.93 139.22 30.60
C139.07 30.35 138.86 30.15 138.60 30.00
L138.60 30.00
C138.79 29.88 138.94 29.72 139.06 29.53
C139.21 29.28 139.29 28.96 139.29 28.60
C139.29 28.02 139.11 27.55 138.77 27.18
C138.42 26.81 137.99 26.62 137.47 26.62
Z
" fill="white" fill-rule="nonzero" />
<path d="
M137.48 39.38
C137.78 39.38 138.03 39.53 138.26 39.81
C138.48 40.10 138.59 40.50 138.59 41.00
C138.59 41.51 138.48 41.90 138.27 42.17
C138.05 42.45 137.78 42.58 137.47 42.58
C137.15 42.58 136.88 42.45 136.65 42.17
C136.43 41.90 136.31 41.53 136.31 41.07
C136.31 40.56 136.43 40.15 136.67 39.84
C136.91 39.54 137.18 39.38 137.48 39.38
Z
M137.40 38.67
C136.90 38.67 136.47 38.88 136.11 39.30
C135.76 39.73 135.58 40.31 135.58 41.04
C135.58 41.76 135.75 42.32 136.10 42.73
C136.44 43.14 136.84 43.35 137.31 43.35
C137.57 43.35 137.83 43.26 138.08 43.10
C138.32 42.93 138.52 42.71 138.67 42.42
L138.67 42.59
C138.67 43.14 138.60 43.63 138.47 44.04
C138.33 44.45 138.17 44.74 137.98 44.90
C137.78 45.06 137.57 45.14 137.33 45.14
C136.80 45.14 136.48 44.77 136.37 44.03
L135.69 44.11
C135.75 44.67 135.92 45.10 136.22 45.40
C136.51 45.70 136.88 45.85 137.32 45.85
C137.70 45.85 138.05 45.73 138.37 45.48
C138.68 45.24 138.92 44.85 139.11 44.31
C139.29 43.78 139.38 43.03 139.38 42.06
C139.38 41.19 139.30 40.53 139.13 40.07
C138.96 39.61 138.72 39.26 138.41 39.02
C138.10 38.79 137.76 38.67 137.40 38.67
Z
" fill="black" fill-rule="nonzero" />
<path d="
M147.72 14.73
L147.69 14.83
C147.60 15.13 147.44 15.43 147.20 15.75
C146.97 16.06 146.70 16.33 146.40 16.55
L146.34 16.59
L146.34 16.66
L146.34 17.51
L146.34 17.75
L146.55 17.63
C146.74 17.52 146.96 17.36 147.19 17.15
C147.30 17.05 147.40 16.95 147.48 16.86
L147.48 16.86
L147.48 22.02
L147.48 22.17
L148.34 22.17
L148.34 22.02
L148.34 14.87
L148.34 14.73
Z
M151.24 14.73
C150.75 14.73 150.36 14.92 150.06 15.30
C149.78 15.67 149.61 16.21 149.57 16.92
L149.56 17.05
L149.69 17.07
L150.28 17.17
L150.44 17.19
L150.44 17.03
C150.44 16.59 150.52 16.27 150.68 16.05
C150.82 15.84 151.00 15.74 151.21 15.74
C151.21 15.74 151.22 15.74 151.22 15.74
C151.22 15.74 151.22 15.74 151.22 15.74
C151.42 15.74 151.59 15.83 151.73 16.02
C151.88 16.23 151.96 16.49 151.96 16.83
C151.96 17.12 151.88 17.44 151.72 17.79
C151.56 18.14 151.22 18.64 150.69 19.30
C150.22 19.89 149.90 20.40 149.72 20.83
C149.54 21.27 149.45 21.67 149.46 22.03
L149.46 22.17
L152.84 22.17
L152.84 22.02
L152.84 21.18
L152.84 21.04
L150.62 21.04
C150.66 20.96 150.71 20.87 150.76 20.78
C150.86 20.63 151.08 20.33 151.42 19.90
C151.96 19.20 152.33 18.64 152.53 18.21
C152.73 17.77 152.83 17.32 152.83 16.85
C152.83 16.31 152.70 15.83 152.44 15.40
C152.17 14.96 151.76 14.73 151.24 14.73
Z
" fill="white" fill-rule="nonzero" />
<path d="
M147.83 26.78
C147.73 27.09 147.56 27.41 147.32 27.74
C147.07 28.06 146.79 28.34 146.48 28.57
L146.48 29.41
C146.67 29.31 146.87 29.15 147.09 28.95
C147.32 28.75 147.49 28.55 147.63 28.36
L147.63 33.93
L148.20 33.93
L148.20 26.78
Z
M151.46 26.78
C151.36 27.09 151.19 27.41 150.95 27.74
C150.70 28.06 150.42 28.34 150.11 28.57
L150.11 29.41
C150.30 29.31 150.50 29.15 150.72 28.95
C150.95 28.75 151.12 28.55 151.26 28.36
L151.26 33.93
L151.83 33.93
L151.83 26.78
Z
" fill="black" fill-rule="nonzero" />
<path d="
M147.83 38.62
C147.73 38.93 147.56 39.25 147.32 39.58
C147.07 39.91 146.79 40.18 146.48 40.41
L146.48 41.26
C146.67 41.15 146.87 41.00 147.09 40.80
C147.32 40.59 147.49 40.40 147.63 40.20
L147.63 45.77
L148.20 45.77
L148.20 38.62
Z
M150.23 38.75
L149.77 42.41
L150.31 42.51
C150.40 42.30 150.52 42.13 150.67 42.01
C150.82 41.89 150.98 41.82 151.16 41.82
C151.45 41.82 151.68 41.96 151.88 42.25
C152.07 42.53 152.16 42.92 152.16 43.43
C152.16 43.97 152.06 44.40 151.87 44.71
C151.67 45.02 151.43 45.18 151.16 45.18
C150.94 45.18 150.75 45.07 150.59 44.84
C150.42 44.62 150.32 44.28 150.27 43.83
L149.67 43.91
C149.71 44.53 149.87 45.02 150.15 45.37
C150.42 45.72 150.77 45.90 151.17 45.90
C151.66 45.90 152.05 45.65 152.33 45.15
C152.62 44.65 152.77 44.06 152.77 43.36
C152.77 42.65 152.62 42.09 152.33 41.68
C152.05 41.26 151.70 41.05 151.31 41.05
C151.00 41.05 150.71 41.20 150.43 41.50
L150.68 39.59
L152.55 39.59
L152.55 38.75
Z
" fill="black" fill-rule="nonzero" />
<path d="
M159.73 14.81
C159.63 15.12 159.46 15.44 159.22 15.77
C158.98 16.09 158.70 16.37 158.38 16.60
L158.38 17.44
C158.57 17.34 158.78 17.19 159.00 16.98
C159.22 16.78 159.40 16.58 159.53 16.39
L159.53 21.96
L160.11 21.96
L160.11 14.81
Z
M163.05 14.81
C162.69 14.81 162.38 14.97 162.13 15.28
C161.87 15.59 161.71 16.05 161.64 16.66
L162.21 16.81
C162.25 16.38 162.35 16.06 162.50 15.85
C162.65 15.63 162.84 15.53 163.06 15.53
C163.27 15.53 163.45 15.63 163.60 15.83
C163.74 16.03 163.82 16.30 163.82 16.64
C163.82 17.00 163.73 17.29 163.55 17.51
C163.38 17.72 163.15 17.83 162.87 17.83
L162.78 17.82
L162.71 18.59
C162.87 18.52 163.01 18.49 163.11 18.49
C163.37 18.49 163.59 18.62 163.76 18.87
C163.94 19.12 164.03 19.46 164.03 19.87
C164.03 20.31 163.93 20.67 163.74 20.95
C163.55 21.23 163.32 21.36 163.06 21.36
C162.58 21.36 162.27 20.90 162.15 19.96
L161.58 20.08
C161.62 20.69 161.78 21.18 162.05 21.54
C162.33 21.91 162.67 22.09 163.07 22.09
C163.50 22.09 163.87 21.88 164.18 21.46
C164.48 21.05 164.64 20.51 164.64 19.86
C164.64 19.55 164.60 19.27 164.53 19.02
C164.45 18.77 164.35 18.57 164.23 18.42
C164.11 18.28 163.95 18.17 163.77 18.10
C163.97 17.96 164.13 17.77 164.24 17.52
C164.35 17.27 164.41 16.98 164.41 16.66
C164.41 16.12 164.28 15.68 164.01 15.33
C163.75 14.98 163.43 14.81 163.05 14.81
Z
" fill="black" fill-rule="nonzero" />
<path d="
M163.27 28.87
L163.27 31.28
L162.17 31.28
L163.27 28.87
Z
M159.63 26.64
L159.60 26.74
C159.50 27.03 159.34 27.34 159.11 27.65
C158.87 27.97 158.61 28.23 158.30 28.45
L158.24 28.49
L158.24 28.57
L158.24 29.41
L158.24 29.65
L158.45 29.54
C158.65 29.43 158.86 29.27 159.09 29.06
C159.20 28.96 159.30 28.86 159.39 28.76
L159.39 28.76
L159.39 33.93
L159.39 34.07
L160.25 34.07
L160.25 33.93
L160.25 26.78
L160.25 26.64
Z
M163.43 26.67
L163.39 26.75
L161.26 31.36
L161.25 31.39
L161.25 31.42
L161.25 32.22
L161.25 32.37
L163.27 32.37
L163.27 33.93
L163.27 34.07
L164.13 34.07
L164.13 33.93
L164.13 32.37
L164.76 32.37
L164.76 32.22
L164.76 31.42
L164.76 31.28
L164.13 31.28
L164.13 26.81
L164.13 26.67
Z
" fill="white" fill-rule="nonzero" />
<path d="
M163.10 39.48
C163.10 39.48 163.11 39.48 163.11 39.48
C163.11 39.48 163.11 39.48 163.11 39.48
C163.27 39.48 163.41 39.57 163.53 39.74
C163.66 39.93 163.73 40.18 163.73 40.48
C163.73 40.77 163.67 41.01 163.54 41.19
C163.42 41.35 163.28 41.44 163.12 41.44
C163.12 41.44 163.12 41.44 163.11 41.44
C163.11 41.44 163.11 41.44 163.11 41.44
C162.95 41.44 162.80 41.35 162.69 41.18
C162.56 41.00 162.49 40.75 162.49 40.43
C162.49 40.15 162.56 39.92 162.69 39.74
C162.81 39.57 162.95 39.48 163.10 39.48
Z
M163.10 42.43
C163.10 42.43 163.10 42.43 163.10 42.43
C163.10 42.43 163.10 42.43 163.10 42.43
C163.32 42.43 163.50 42.55 163.66 42.77
C163.84 43.02 163.92 43.34 163.92 43.75
C163.92 44.15 163.84 44.47 163.67 44.71
C163.52 44.93 163.33 45.04 163.12 45.04
C163.12 45.04 163.12 45.04 163.11 45.04
C163.11 45.04 163.11 45.04 163.11 45.04
C162.90 45.04 162.71 44.92 162.56 44.69
C162.38 44.45 162.30 44.13 162.30 43.72
C162.30 43.33 162.38 43.01 162.55 42.77
C162.70 42.55 162.88 42.43 163.10 42.43
Z
M159.63 38.48
L159.60 38.58
C159.50 38.88 159.34 39.18 159.11 39.50
C158.87 39.81 158.61 40.08 158.30 40.30
L158.24 40.34
L158.24 40.41
L158.24 41.26
L158.24 41.50
L158.45 41.38
C158.65 41.27 158.86 41.11 159.09 40.90
C159.20 40.80 159.30 40.71 159.39 40.61
L159.39 40.61
L159.39 45.77
L159.39 45.92
L160.25 45.92
L160.25 45.77
L160.25 38.62
L160.25 38.48
Z
M163.10 38.48
C162.67 38.48 162.31 38.67 162.03 39.05
C161.75 39.41 161.62 39.88 161.62 40.45
C161.62 40.84 161.68 41.16 161.81 41.42
C161.90 41.61 162.03 41.77 162.18 41.90
L162.18 41.90
C161.98 42.03 161.81 42.22 161.68 42.48
C161.51 42.81 161.43 43.22 161.43 43.72
C161.43 44.40 161.59 44.95 161.90 45.38
C162.22 45.82 162.63 46.04 163.11 46.04
C163.60 46.04 164.00 45.82 164.32 45.38
C164.63 44.95 164.79 44.41 164.79 43.74
C164.79 43.26 164.71 42.86 164.55 42.53
C164.42 42.26 164.25 42.06 164.03 41.90
L164.03 41.90
C164.20 41.77 164.32 41.61 164.42 41.42
C164.54 41.16 164.60 40.85 164.60 40.48
C164.60 39.91 164.46 39.43 164.19 39.06
C163.90 38.67 163.54 38.48 163.10 38.48
Z
" fill="white" fill-rule="nonzero" />
<path d="
M163.07 51.39
C163.07 51.39 163.07 51.39 163.08 51.39
C163.08 51.39 163.08 51.39 163.08 51.39
C163.18 51.39 163.28 51.43 163.37 51.51
C163.47 51.59 163.56 51.72 163.64 51.90
C163.81 52.27 163.89 53.03 163.89 54.17
C163.89 55.29 163.81 56.05 163.64 56.43
C163.56 56.61 163.47 56.74 163.38 56.83
C163.29 56.90 163.21 56.94 163.11 56.94
C163.11 56.94 163.11 56.94 163.11 56.94
C163.11 56.94 163.11 56.94 163.11 56.94
C163.01 56.94 162.91 56.90 162.82 56.83
C162.73 56.74 162.64 56.61 162.56 56.43
C162.39 56.06 162.30 55.30 162.30 54.17
C162.30 53.04 162.39 52.29 162.55 51.91
C162.63 51.73 162.72 51.59 162.81 51.51
C162.89 51.43 162.98 51.39 163.07 51.39
Z
M159.51 50.39
C159.03 50.39 158.64 50.58 158.34 50.96
C158.05 51.33 157.89 51.87 157.85 52.58
L157.84 52.71
L157.97 52.73
L158.56 52.82
L158.72 52.85
L158.72 52.68
C158.72 52.25 158.80 51.92 158.95 51.70
C159.09 51.50 159.27 51.39 159.49 51.39
C159.49 51.39 159.49 51.39 159.49 51.39
C159.49 51.39 159.49 51.39 159.50 51.39
C159.70 51.39 159.87 51.49 160.01 51.68
C160.16 51.88 160.23 52.15 160.23 52.48
C160.23 52.78 160.15 53.10 160.00 53.44
C159.84 53.79 159.49 54.30 158.96 54.96
C158.49 55.54 158.17 56.05 157.99 56.48
C157.81 56.92 157.73 57.32 157.74 57.68
L157.74 57.82
L161.11 57.82
L161.11 57.68
L161.11 56.84
L161.11 56.70
L158.89 56.70
C158.94 56.61 158.98 56.53 159.04 56.44
C159.14 56.28 159.35 55.99 159.69 55.56
C160.24 54.85 160.61 54.29 160.80 53.86
C161.00 53.43 161.10 52.98 161.10 52.50
C161.10 51.96 160.97 51.48 160.71 51.06
C160.44 50.61 160.04 50.39 159.51 50.39
Z
M163.10 50.39
C162.82 50.39 162.57 50.47 162.35 50.65
C162.14 50.82 161.97 51.07 161.83 51.40
C161.57 52.03 161.43 52.95 161.43 54.17
C161.43 55.53 161.58 56.49 161.88 57.05
C162.03 57.34 162.20 57.56 162.40 57.71
C162.61 57.87 162.84 57.94 163.09 57.94
C163.38 57.94 163.63 57.86 163.85 57.68
C164.06 57.51 164.23 57.26 164.37 56.93
C164.63 56.30 164.76 55.38 164.76 54.17
C164.76 52.82 164.60 51.83 164.28 51.21
C164.14 50.94 163.98 50.74 163.78 50.60
C163.58 50.46 163.36 50.39 163.10 50.39
Z
" fill="white" fill-rule="nonzero" />
<path d="
M171.42 14.87
C170.98 14.87 170.63 15.05 170.36 15.39
C170.09 15.74 169.93 16.25 169.89 16.93
L170.48 17.03
C170.48 16.57 170.57 16.21 170.74 15.97
C170.91 15.72 171.13 15.60 171.40 15.60
C171.65 15.60 171.86 15.71 172.03 15.94
C172.19 16.17 172.28 16.46 172.28 16.83
C172.28 17.14 172.20 17.48 172.03 17.84
C171.87 18.21 171.51 18.72 170.98 19.39
C170.52 19.96 170.20 20.46 170.03 20.88
C169.86 21.30 169.78 21.68 169.78 22.02
L172.87 22.02
L172.87 21.18
L170.58 21.18
C170.64 21.03 170.72 20.87 170.82 20.71
C170.92 20.55 171.14 20.25 171.49 19.81
C172.02 19.12 172.39 18.57 172.58 18.15
C172.77 17.73 172.87 17.30 172.87 16.85
C172.87 16.33 172.74 15.88 172.50 15.48
C172.25 15.07 171.89 14.87 171.42 14.87
Z
M175.27 14.87
C175.17 15.18 175.00 15.50 174.76 15.83
C174.52 16.16 174.24 16.43 173.92 16.66
L173.92 17.51
C174.11 17.40 174.31 17.25 174.53 17.05
C174.76 16.84 174.93 16.65 175.07 16.45
L175.07 22.02
L175.64 22.02
L175.64 14.87
Z
" fill="black" fill-rule="nonzero" />
<path d="
M171.64 26.78
C171.54 27.09 171.37 27.41 171.13 27.74
C170.89 28.06 170.61 28.34 170.29 28.57
L170.29 29.41
C170.48 29.31 170.68 29.15 170.90 28.95
C171.13 28.75 171.30 28.55 171.44 28.36
L171.44 33.93
L172.01 33.93
L172.01 26.78
Z
M173.52 26.90
L173.52 27.74
L175.80 27.74
C175.51 28.25 175.24 28.86 174.99 29.58
C174.74 30.30 174.54 31.05 174.40 31.85
C174.26 32.64 174.18 33.33 174.17 33.93
L174.76 33.93
C174.82 32.78 175.01 31.61 175.35 30.44
C175.70 29.27 176.09 28.31 176.54 27.58
L176.54 26.90
Z
" fill="black" fill-rule="nonzero" />
<path d="
M175.02 39.35
C175.26 39.35 175.46 39.49 175.65 39.78
C175.83 40.08 175.92 40.48 175.92 40.98
C175.92 41.50 175.83 41.89 175.65 42.17
C175.48 42.45 175.26 42.59 175.01 42.59
C174.75 42.59 174.53 42.45 174.35 42.17
C174.16 41.90 174.07 41.52 174.07 41.06
C174.07 40.54 174.17 40.12 174.36 39.81
C174.55 39.50 174.77 39.35 175.02 39.35
Z
M171.64 38.62
C171.54 38.93 171.37 39.25 171.13 39.58
C170.89 39.91 170.61 40.18 170.29 40.41
L170.29 41.26
C170.48 41.15 170.68 41.00 170.90 40.80
C171.13 40.59 171.30 40.40 171.44 40.20
L171.44 45.77
L172.01 45.77
L172.01 38.62
Z
M174.95 38.62
C174.54 38.62 174.20 38.84 173.91 39.27
C173.62 39.70 173.48 40.28 173.48 41.03
C173.48 41.75 173.62 42.32 173.89 42.74
C174.17 43.15 174.50 43.36 174.88 43.36
C175.09 43.36 175.30 43.28 175.50 43.11
C175.70 42.94 175.86 42.71 175.98 42.42
L175.98 42.60
C175.98 43.15 175.93 43.64 175.82 44.06
C175.71 44.48 175.57 44.77 175.42 44.93
C175.26 45.10 175.09 45.18 174.90 45.18
C174.47 45.18 174.21 44.80 174.12 44.05
L173.57 44.13
C173.61 44.70 173.76 45.14 173.99 45.44
C174.23 45.74 174.53 45.90 174.88 45.90
C175.20 45.90 175.48 45.77 175.73 45.52
C175.99 45.27 176.19 44.88 176.33 44.34
C176.48 43.80 176.56 43.04 176.56 42.06
C176.56 41.18 176.49 40.51 176.35 40.04
C176.21 39.58 176.02 39.22 175.77 38.98
C175.51 38.74 175.24 38.62 174.95 38.62
Z
" fill="black" fill-rule="nonzero" />
<path d="
M171.42 50.45
C170.93 50.45 170.54 50.64 170.25 51.02
C169.96 51.39 169.80 51.93 169.75 52.64
L169.74 52.77
L169.87 52.79
L170.46 52.88
L170.63 52.91
L170.63 52.74
C170.63 52.31 170.70 51.99 170.86 51.76
C171.00 51.56 171.18 51.45 171.39 51.45
C171.39 51.45 171.40 51.45 171.40 51.45
C171.40 51.45 171.40 51.45 171.40 51.45
C171.60 51.45 171.77 51.55 171.91 51.74
C172.06 51.94 172.14 52.21 172.14 52.54
C172.14 52.84 172.06 53.16 171.90 53.50
C171.74 53.86 171.40 54.36 170.87 55.02
C170.40 55.60 170.08 56.11 169.90 56.55
C169.72 56.98 169.63 57.38 169.64 57.74
L169.65 57.88
L173.02 57.88
L173.02 57.74
L173.02 56.90
L173.02 56.76
L170.80 56.76
C170.84 56.67 170.89 56.59 170.94 56.50
C171.04 56.35 171.26 56.05 171.60 55.62
C172.14 54.92 172.51 54.35 172.71 53.93
C172.91 53.49 173.01 53.04 173.01 52.56
C173.01 52.02 172.88 51.54 172.62 51.12
C172.35 50.67 171.95 50.45 171.42 50.45
Z
M175.05 50.45
C174.56 50.45 174.17 50.64 173.88 51.02
C173.59 51.39 173.43 51.93 173.38 52.64
L173.37 52.77
L173.50 52.79
L174.09 52.88
L174.26 52.91
L174.26 52.74
C174.26 52.31 174.33 51.99 174.49 51.76
C174.63 51.56 174.81 51.45 175.02 51.45
C175.02 51.45 175.03 51.45 175.03 51.45
C175.03 51.45 175.03 51.45 175.03 51.45
C175.23 51.45 175.40 51.55 175.54 51.74
C175.69 51.94 175.77 52.21 175.77 52.54
C175.77 52.84 175.69 53.16 175.53 53.50
C175.37 53.86 175.03 54.36 174.50 55.02
C174.03 55.60 173.71 56.11 173.53 56.55
C173.35 56.98 173.26 57.38 173.27 57.74
L173.28 57.88
L176.65 57.88
L176.65 57.74
L176.65 56.90
L176.65 56.76
L174.43 56.76
C174.47 56.67 174.52 56.59 174.57 56.50
C174.67 56.35 174.89 56.05 175.23 55.62
C175.77 54.92 176.14 54.35 176.34 53.93
C176.54 53.49 176.64 53.04 176.64 52.56
C176.64 52.02 176.51 51.54 176.25 51.12
C175.98 50.67 175.58 50.45 175.05 50.45
Z
" fill="white" fill-rule="nonzero" />
</g>
<g  transform="translate(1.19,228.58)" >
<path d="
M109.47 2.94
C109.30 2.94 109.16 3.00 109.05 3.11
C108.93 3.23 108.88 3.37 108.88 3.53
C108.88 3.69 108.94 3.83 109.05 3.95
C109.17 4.07 109.31 4.12 109.47 4.12
C109.63 4.12 109.77 4.07 109.89 3.95
C110.00 3.83 110.06 3.69 110.06 3.53
C110.06 3.37 110.00 3.23 109.89 3.11
C109.77 3.00 109.63 2.94 109.47 2.94
Z
M125.28 3.50
C125.67 3.50 125.98 3.62 126.21 3.85
C126.44 4.08 126.56 4.40 126.56 4.80
C126.56 5.11 126.49 5.38 126.37 5.63
C126.25 5.87 125.95 6.20 125.49 6.62
L124.53 5.83
C124.34 5.65 124.20 5.45 124.09 5.25
C123.99 5.05 123.94 4.85 123.94 4.65
C123.94 4.34 124.06 4.07 124.31 3.84
C124.56 3.62 124.88 3.50 125.28 3.50
Z
M114.44 8.04
L114.44 10.07
C113.96 10.46 113.57 10.65 113.28 10.65
C113.06 10.65 112.87 10.56 112.70 10.37
C112.54 10.19 112.45 9.96 112.45 9.68
C112.45 9.46 112.52 9.25 112.65 9.07
C112.78 8.88 113.00 8.70 113.31 8.53
C113.48 8.44 113.86 8.27 114.44 8.04
Z
M102.79 3.77
C103.72 3.77 104.48 4.08 105.08 4.71
C105.67 5.34 105.97 6.20 105.97 7.29
C105.97 8.37 105.67 9.23 105.08 9.86
C104.48 10.49 103.74 10.81 102.84 10.81
C102.50 10.81 102.09 10.75 101.60 10.64
L101.60 3.94
C102.05 3.83 102.44 3.77 102.79 3.77
Z
M124.85 7.46
C125.68 8.12 126.24 8.66 126.52 9.07
C126.66 9.29 126.74 9.54 126.74 9.82
C126.74 10.16 126.61 10.45 126.36 10.68
C126.11 10.92 125.77 11.04 125.35 11.04
C124.93 11.04 124.58 10.89 124.31 10.59
C124.03 10.29 123.90 9.89 123.90 9.39
C123.90 9.01 123.98 8.67 124.13 8.35
C124.29 8.03 124.52 7.73 124.85 7.46
Z
M99.35 3.33
L99.35 3.54
L99.65 3.54
C99.94 3.54 100.17 3.63 100.32 3.80
C100.43 3.92 100.48 4.23 100.48 4.72
L100.48 9.82
C100.48 10.26 100.44 10.55 100.35 10.68
C100.22 10.89 99.98 11.00 99.65 11.00
L99.35 11.00
L99.35 11.21
L102.87 11.21
C104.40 11.21 105.54 10.80 106.29 9.98
C106.96 9.24 107.29 8.33 107.29 7.23
C107.29 6.41 107.11 5.69 106.73 5.07
C106.36 4.44 105.86 4.00 105.25 3.73
C104.63 3.46 103.74 3.33 102.56 3.33
Z
M109.70 5.73
L108.09 6.38
L108.17 6.59
C108.33 6.53 108.46 6.50 108.57 6.50
C108.67 6.50 108.75 6.53 108.81 6.58
C108.87 6.62 108.91 6.71 108.94 6.83
C108.97 7.00 108.99 7.38 108.99 7.96
L108.99 10.01
C108.99 10.34 108.96 10.56 108.91 10.68
C108.86 10.79 108.79 10.88 108.70 10.93
C108.61 10.98 108.43 11.00 108.17 11.00
L108.17 11.21
L110.76 11.21
L110.76 11.00
C110.51 11.00 110.34 10.98 110.24 10.92
C110.15 10.87 110.07 10.79 110.03 10.68
C109.98 10.56 109.95 10.34 109.95 10.01
L109.95 5.73
Z
M113.63 5.73
C113.01 5.73 112.53 5.87 112.19 6.15
C111.85 6.43 111.68 6.73 111.68 7.07
C111.68 7.24 111.72 7.38 111.82 7.48
C111.91 7.58 112.02 7.63 112.17 7.63
C112.31 7.63 112.43 7.58 112.52 7.49
C112.62 7.39 112.66 7.25 112.66 7.07
L112.65 6.74
C112.65 6.56 112.72 6.41 112.87 6.28
C113.01 6.15 113.21 6.08 113.45 6.08
C113.77 6.08 114.02 6.18 114.19 6.38
C114.36 6.58 114.44 6.94 114.44 7.47
L114.44 7.68
C113.53 8.02 112.87 8.30 112.48 8.53
C112.08 8.76 111.81 9.01 111.65 9.28
C111.53 9.47 111.48 9.69 111.48 9.95
C111.48 10.36 111.59 10.69 111.83 10.95
C112.07 11.20 112.37 11.32 112.74 11.32
C112.98 11.32 113.20 11.27 113.41 11.18
C113.55 11.11 113.89 10.87 114.44 10.45
C114.44 10.76 114.50 10.99 114.62 11.12
C114.73 11.25 114.88 11.32 115.07 11.32
C115.46 11.32 115.88 11.03 116.31 10.45
L116.31 10.12
C116.08 10.35 115.92 10.49 115.84 10.54
C115.80 10.57 115.74 10.58 115.68 10.58
C115.62 10.58 115.57 10.57 115.53 10.53
C115.48 10.49 115.45 10.41 115.43 10.30
C115.41 10.18 115.40 9.87 115.40 9.36
L115.40 7.55
C115.40 7.04 115.37 6.70 115.30 6.53
C115.19 6.28 115.02 6.09 114.79 5.97
C114.49 5.81 114.10 5.73 113.63 5.73
Z
M125.26 3.16
C124.61 3.16 124.08 3.35 123.69 3.72
C123.29 4.09 123.10 4.53 123.10 5.04
C123.10 5.38 123.19 5.70 123.37 6.01
C123.55 6.32 123.95 6.73 124.57 7.24
C124.00 7.66 123.59 8.03 123.36 8.38
C123.13 8.72 123.01 9.07 123.01 9.42
C123.01 9.86 123.18 10.27 123.51 10.65
C123.93 11.12 124.51 11.35 125.26 11.35
C125.95 11.35 126.50 11.16 126.92 10.76
C127.34 10.37 127.56 9.89 127.56 9.34
C127.56 8.90 127.41 8.49 127.11 8.09
C126.89 7.79 126.44 7.37 125.76 6.85
C126.42 6.43 126.86 6.07 127.07 5.76
C127.28 5.46 127.38 5.16 127.38 4.86
C127.38 4.42 127.19 4.03 126.80 3.68
C126.41 3.34 125.90 3.16 125.26 3.16
Z
M117.82 10.08
C117.65 10.08 117.49 10.15 117.37 10.27
C117.24 10.39 117.18 10.55 117.18 10.73
C117.18 10.91 117.24 11.06 117.37 11.19
C117.49 11.31 117.65 11.38 117.82 11.38
C118.00 11.38 118.15 11.31 118.28 11.19
C118.41 11.06 118.47 10.91 118.47 10.73
C118.47 10.55 118.41 10.40 118.28 10.27
C118.16 10.15 118.01 10.08 117.82 10.08
Z
" fill="black" fill-rule="nonzero" />
</g>
</g>
</svg>
