<?xml version="1.0" encoding="utf-8" standalone="no"?>
<!DOCTYPE svg PUBLIC "-//W3C//DTD SVG 1.0//EN" "http://www.w3.org/TR/SVG/DTD/svg11.dtd" >
<svg version="1.1" baseProfile="full"  width="319.13385" height="338.46454" viewBox="0 0 229.77638 243.69449" preserveAspectRatio="xMidYMid" xmlns="http://www.w3.org/2000/svg" >

<g lengthAdjust="spacingAndGlyphs" xml:space='preserve' >
<g  transform="translate(1.19,1.19)" >
<path d="
M0.0 0.0
L0.0 227.39
L227.39 227.39
L227.39 0.0
Z
" fill="none" fill-rule="nonzero" />
<line x1="6.54" y1="6.54" x2="6.54" y2="220.84" fill="none" stroke="black" stroke-width="0.87px" stroke-linecap="square" />
<line x1="18.45" y1="6.54" x2="18.45" y2="220.84" fill="none" stroke="black" stroke-width="0.25px" stroke-linecap="butt" />
<line x1="30.35" y1="6.54" x2="30.35" y2="220.84" fill="none" stroke="black" stroke-width="0.25px" stroke-linecap="butt" />
<line x1="42.26" y1="6.54" x2="42.26" y2="220.84" fill="none" stroke="black" stroke-width="0.25px" stroke-linecap="butt" />
<line x1="54.17" y1="6.54" x2="54.17" y2="220.84" fill="none" stroke="black" stroke-width="0.25px" stroke-linecap="butt" />
<line x1="66.07" y1="6.54" x2="66.07" y2="220.84" fill="none" stroke="black" stroke-width="0.25px" stroke-linecap="butt" />
<line x1="77.98" y1="6.54" x2="77.98" y2="220.84" fill="none" stroke="black" stroke-width="0.25px" stroke-linecap="butt" />
<line x1="89.88" y1="6.54" x2="89.88" y2="220.84" fill="none" stroke="black" stroke-width="0.25px" stroke-linecap="butt" />
<line x1="101.79" y1="6.54" x2="101.79" y2="220.84" fill="none" stroke="black" stroke-width="0.25px" stroke-linecap="butt" />
<line x1="113.69" y1="6.54" x2="113.69" y2="220.84" fill="none" stroke="black" stroke-width="0.25px" stroke-linecap="butt" />
<line x1="125.60" y1="6.54" x2="125.60" y2="220.84" fill="none" stroke="black" stroke-width="0.25px" stroke-linecap="butt" />
<line x1="137.50" y1="6.54" x2="137.50" y2="220.84" fill="none" stroke="black" stroke-width="0.25px" stroke-linecap="butt" />
<line x1="149.41" y1="6.54" x2="149.41" y2="220.84" fill="none" stroke="black" stroke-width="0.25px" stroke-linecap="butt" />
<line x1="161.31" y1="6.54" x2="161.31" y2="220.84" fill="none" stroke="black" stroke-width="0.25px" stroke-linecap="butt" />
<line x1="173.22" y1="6.54" x2="173.22" y2="220.84" fill="none" stroke="black" stroke-width="0.25px" stroke-linecap="butt" />
<line x1="185.13" y1="6.54" x2="185.13" y2="220.84" fill="none" stroke="black" stroke-width="0.25px" stroke-linecap="butt" />
<line x1="197.03" y1="6.54" x2="197.03" y2="220.84" fill="none" stroke="black" stroke-width="0.25px" stroke-linecap="butt" />
<line x1="208.94" y1="6.54" x2="208.94" y2="179.17" fill="none" stroke="black" stroke-width="0.25px" stroke-linecap="butt" />
<line x1="208.94" y1="202.98" x2="208.94" y2="220.84" fill="none" stroke="black" stroke-width="0.25px" stroke-linecap="butt" />
<line x1="220.84" y1="6.54" x2="220.84" y2="220.84" fill="none" stroke="black" stroke-width="0.87px" stroke-linecap="square" />
<line x1="6.54" y1="6.54" x2="220.84" y2="6.54" fill="none" stroke="black" stroke-width="0.87px" stroke-linecap="square" />
<line x1="6.54" y1="18.45" x2="220.84" y2="18.45" fill="none" stroke="black" stroke-width="0.25px" stroke-linecap="butt" />
<line x1="6.54" y1="30.35" x2="220.84" y2="30.35" fill="none" stroke="black" stroke-width="0.25px" stroke-linecap="butt" />
<line x1="6.54" y1="42.26" x2="220.84" y2="42.26" fill="none" stroke="black" stroke-width="0.25px" stroke-linecap="butt" />
<line x1="6.54" y1="54.17" x2="220.84" y2="54.17" fill="none" stroke="black" stroke-width="0.25px" stroke-linecap="butt" />
<line x1="6.54" y1="66.07" x2="220.84" y2="66.07" fill="none" stroke="black" stroke-width="0.25px" stroke-linecap="butt" />
<line x1="6.54" y1="77.98" x2="220.84" y2="77.98" fill="none" stroke="black" stroke-width="0.25px" stroke-linecap="butt" />
<line x1="6.54" y1="89.88" x2="220.84" y2="89.88" fill="none" stroke="black" stroke-width="0.25px" stroke-linecap="butt" />
<line x1="6.54" y1="101.79" x2="220.84" y2="101.79" fill="none" stroke="black" stroke-width="0.25px" stroke-linecap="butt" />
<line x1="6.54" y1="113.69" x2="220.84" y2="113.69" fill="none" stroke="black" stroke-width="0.25px" stroke-linecap="butt" />
<line x1="6.54" y1="125.60" x2="220.84" y2="125.60" fill="none" stroke="black" stroke-width="0.25px" stroke-linecap="butt" />
<line x1="6.54" y1="137.50" x2="220.84" y2="137.50" fill="none" stroke="black" stroke-width="0.25px" stroke-linecap="butt" />
<line x1="6.54" y1="149.41" x2="220.84" y2="149.41" fill="none" stroke="black" stroke-width="0.25px" stroke-linecap="butt" />
<line x1="6.54" y1="161.31" x2="220.84" y2="161.31" fill="none" stroke="black" stroke-width="0.25px" stroke-linecap="butt" />
<line x1="6.54" y1="173.22" x2="220.84" y2="173.22" fill="none" stroke="black" stroke-width="0.25px" stroke-linecap="butt" />
<line x1="6.54" y1="185.13" x2="202.98" y2="185.13" fill="none" stroke="black" stroke-width="0.25px" stroke-linecap="butt" />
<line x1="214.89" y1="185.13" x2="220.84" y2="185.13" fill="none" stroke="black" stroke-width="0.25px" stroke-linecap="butt" />
<line x1="6.54" y1="197.03" x2="202.98" y2="197.03" fill="none" stroke="black" stroke-width="0.25px" stroke-linecap="butt" />
<line x1="214.89" y1="197.03" x2="220.84" y2="197.03" fill="none" stroke="black" stroke-width="0.25px" stroke-linecap="butt" />
<line x1="6.54" y1="208.94" x2="220.84" y2="208.94" fill="none" stroke="black" stroke-width="0.25px" stroke-linecap="butt" />
<line x1="6.54" y1="220.84" x2="220.84" y2="220.84" fill="none" stroke="black" stroke-width="0.87px" stroke-linecap="square" />
<circle cx="30.35" cy="54.17" r="5.98" fill="black"/>
<circle cx="30.35" cy="89.88" r="5.85" fill="white"/>
<circle cx="30.35" cy="89.88" r="5.85" fill="none" stroke="black" stroke-width="0.25px"/>
<circle cx="30.35" cy="125.60" r="5.85" fill="white"/>
<circle cx="30.35" cy="125.60" r="5.85" fill="none" stroke="black" stroke-width="0.25px"/>
<circle cx="30.35" cy="161.31" r="5.85" fill="white"/>
<circle cx="30.35" cy="161.31" r="5.85" fill="none" stroke="black" stroke-width="0.25px"/>
<circle cx="42.26" cy="30.35" r="5.85" fill="white"/>
<circle cx="42.26" cy="30.35" r="5.85" fill="none" stroke="black" stroke-width="0.25px"/>
<circle cx="42.26" cy="42.26" r="1.27" fill="black"/>
<circle cx="42.26" cy="77.98" r="5.85" fill="white"/>
<circle cx="42.26" cy="77.98" r="5.85" fill="none" stroke="black" stroke-width="0.25px"/>
<circle cx="42.26" cy="89.88" r="5.98" fill="black"/>
<circle cx="42.26" cy="101.79" r="5.85" fill="white"/>
<circle cx="42.26" cy="101.79" r="5.85" fill="none" stroke="black" stroke-width="0.25px"/>
<circle cx="42.26" cy="113.69" r="1.27" fill="black"/>
<circle cx="42.26" cy="185.13" r="5.98" fill="black"/>
<circle cx="54.17" cy="66.07" r="5.98" fill="black"/>
<circle cx="54.17" cy="77.98" r="5.98" fill="black"/>
<circle cx="54.17" cy="89.88" r="5.98" fill="black"/>
<circle cx="66.07" cy="197.03" r="5.98" fill="black"/>
<circle cx="77.98" cy="30.35" r="5.85" fill="white"/>
<circle cx="77.98" cy="30.35" r="5.85" fill="none" stroke="black" stroke-width="0.25px"/>
<circle cx="113.69" cy="30.35" r="5.85" fill="white"/>
<circle cx="113.69" cy="30.35" r="5.85" fill="none" stroke="black" stroke-width="0.25px"/>
<circle cx="113.69" cy="42.26" r="1.27" fill="black"/>
<circle cx="113.69" cy="113.69" r="1.27" fill="black"/>
<circle cx="113.69" cy="185.13" r="1.27" fill="black"/>
<circle cx="149.41" cy="197.03" r="5.98" fill="black"/>
<circle cx="173.22" cy="89.88" r="5.98" fill="black"/>
<circle cx="173.22" cy="185.13" r="5.85" fill="white"/>
<circle cx="173.22" cy="185.13" r="5.85" fill="none" stroke="black" stroke-width="0.25px"/>
<circle cx="185.13" cy="30.35" r="5.98" fill="black"/>
<circle cx="185.13" cy="42.26" r="5.98" fill="black"/>
<circle cx="185.13" cy="113.69" r="1.27" fill="black"/>
<circle cx="185.13" cy="137.50" r="5.85" fill="white"/>
<circle cx="185.13" cy="137.50" r="5.85" fill="none" stroke="black" stroke-width="0.25px"/>
<circle cx="185.13" cy="161.31" r="5.85" fill="white"/>
<circle cx="185.13" cy="161.31" r="5.85" fill="none" stroke="black" stroke-width="0.25px"/>
<circle cx="185.13" cy="185.13" r="1.27" fill="black"/>
<circle cx="185.13" cy="197.03" r="5.85" fill="white"/>
<circle cx="185.13" cy="197.03" r="5.85" fill="none" stroke="black" stroke-width="0.25px"/>
<circle cx="197.03" cy="89.88" r="5.98" fill="black"/>
<circle cx="197.03" cy="113.69" r="5.85" fill="white"/>
<circle cx="197.03" cy="113.69" r="5.85" fill="none" stroke="black" stroke-width="0.25px"/>
<circle cx="197.03" cy="125.60" r="5.85" fill="white"/>
<circle cx="197.03" cy="125.60" r="5.85" fill="none" stroke="black" stroke-width="0.25px"/>
<circle cx="197.03" cy="137.50" r="5.98" fill="black"/>
<circle cx="197.03" cy="149.41" r="5.85" fill="white"/>
<circle cx="197.03" cy="149.41" r="5.85" fill="none" stroke="black" stroke-width="0.25px"/>
<circle cx="197.03" cy="173.22" r="5.98" fill="black"/>
<circle cx="208.94" cy="113.69" r="5.85" fill="white"/>
<circle cx="208.94" cy="113.69" r="5.85" fill="none" stroke="black" stroke-width="0.25px"/>
<circle cx="208.94" cy="125.60" r="5.98" fill="black"/>
<circle cx="208.94" cy="137.50" r="5.98" fill="black"/>
<circle cx="208.94" cy="149.41" r="5.98" fill="black"/>
<path d="
M186.95 133.86
C186.51 133.86 186.16 134.04 185.89 134.38
C185.63 134.73 185.47 135.24 185.43 135.92
L186.02 136.02
C186.02 135.56 186.11 135.20 186.28 134.96
C186.45 134.71 186.67 134.59 186.93 134.59
C187.18 134.59 187.39 134.70 187.56 134.93
C187.73 135.16 187.82 135.46 187.82 135.82
C187.82 136.13 187.73 136.47 187.57 136.84
C187.40 137.20 187.05 137.72 186.51 138.38
C186.05 138.96 185.74 139.45 185.57 139.87
C185.39 140.30 185.31 140.68 185.32 141.02
L188.41 141.02
L188.41 140.18
L186.12 140.18
C186.18 140.02 186.26 139.86 186.36 139.70
C186.46 139.54 186.68 139.24 187.02 138.81
C187.56 138.11 187.92 137.56 188.11 137.14
C188.31 136.73 188.40 136.29 188.40 135.84
C188.40 135.33 188.28 134.87 188.03 134.47
C187.79 134.07 187.43 133.86 186.95 133.86
Z
M183.23 133.86
C182.87 133.86 182.56 134.02 182.31 134.33
C182.05 134.64 181.89 135.10 181.82 135.71
L182.39 135.87
C182.43 135.44 182.53 135.11 182.68 134.90
C182.83 134.69 183.02 134.58 183.24 134.58
C183.45 134.58 183.63 134.69 183.78 134.89
C183.92 135.09 184.00 135.36 184.00 135.69
C184.00 136.05 183.91 136.34 183.73 136.56
C183.56 136.78 183.33 136.89 183.05 136.89
L182.96 136.88
L182.89 137.64
C183.05 137.58 183.19 137.55 183.30 137.55
C183.55 137.55 183.77 137.67 183.94 137.93
C184.12 138.18 184.21 138.51 184.21 138.93
C184.21 139.37 184.11 139.73 183.92 140.00
C183.73 140.28 183.50 140.42 183.24 140.42
C182.76 140.42 182.45 139.95 182.34 139.02
L181.76 139.14
C181.80 139.75 181.96 140.24 182.23 140.60
C182.51 140.96 182.85 141.14 183.25 141.14
C183.68 141.14 184.05 140.93 184.36 140.52
C184.66 140.10 184.82 139.57 184.82 138.91
C184.82 138.60 184.78 138.33 184.71 138.08
C184.63 137.83 184.53 137.63 184.41 137.48
C184.29 137.33 184.13 137.22 183.95 137.16
C184.15 137.02 184.31 136.82 184.42 136.57
C184.53 136.32 184.59 136.03 184.59 135.71
C184.59 135.18 184.46 134.74 184.19 134.39
C183.93 134.04 183.61 133.86 183.23 133.86
Z
" fill="black" fill-rule="nonzero" />
<path d="
M198.82 122.68
C199.03 122.68 199.21 122.79 199.36 123.00
C199.51 123.21 199.59 123.48 199.59 123.82
C199.59 124.14 199.51 124.41 199.37 124.61
C199.22 124.81 199.04 124.92 198.83 124.92
C198.62 124.92 198.43 124.81 198.29 124.60
C198.14 124.40 198.07 124.12 198.07 123.77
C198.07 123.46 198.14 123.20 198.29 122.99
C198.44 122.78 198.62 122.68 198.82 122.68
Z
M198.82 125.63
C199.08 125.63 199.31 125.76 199.50 126.03
C199.68 126.30 199.78 126.65 199.78 127.09
C199.78 127.52 199.69 127.87 199.50 128.13
C199.32 128.39 199.10 128.52 198.83 128.52
C198.57 128.52 198.34 128.38 198.16 128.11
C197.97 127.85 197.87 127.50 197.87 127.06
C197.87 126.64 197.97 126.29 198.15 126.03
C198.33 125.76 198.55 125.63 198.82 125.63
Z
M195.23 121.96
C194.79 121.96 194.44 122.13 194.17 122.48
C193.90 122.82 193.75 123.34 193.70 124.02
L194.30 124.11
C194.30 123.65 194.38 123.30 194.55 123.05
C194.72 122.81 194.94 122.69 195.21 122.69
C195.46 122.69 195.67 122.80 195.84 123.03
C196.01 123.26 196.09 123.55 196.09 123.91
C196.09 124.23 196.01 124.57 195.84 124.93
C195.68 125.30 195.33 125.81 194.79 126.48
C194.33 127.05 194.01 127.55 193.84 127.97
C193.67 128.39 193.59 128.77 193.60 129.11
L196.69 129.11
L196.69 128.27
L194.39 128.27
C194.45 128.11 194.54 127.96 194.64 127.80
C194.74 127.64 194.96 127.34 195.30 126.90
C195.83 126.21 196.20 125.65 196.39 125.24
C196.58 124.82 196.68 124.39 196.68 123.93
C196.68 123.42 196.56 122.97 196.31 122.56
C196.07 122.16 195.70 121.96 195.23 121.96
Z
M198.82 121.96
C198.43 121.96 198.11 122.13 197.86 122.47
C197.60 122.81 197.47 123.25 197.47 123.79
C197.47 124.15 197.53 124.45 197.65 124.69
C197.77 124.94 197.94 125.12 198.17 125.25
C197.90 125.36 197.68 125.57 197.52 125.88
C197.37 126.19 197.29 126.58 197.29 127.06
C197.29 127.71 197.43 128.23 197.73 128.63
C198.02 129.03 198.39 129.23 198.83 129.23
C199.27 129.23 199.63 129.03 199.92 128.63
C200.22 128.23 200.37 127.72 200.37 127.08
C200.37 126.62 200.29 126.24 200.14 125.93
C199.99 125.62 199.77 125.39 199.49 125.25
C199.72 125.12 199.89 124.93 200.00 124.69
C200.12 124.46 200.18 124.17 200.18 123.82
C200.18 123.28 200.05 122.83 199.79 122.48
C199.53 122.13 199.21 121.96 198.82 121.96
Z
" fill="black" fill-rule="nonzero" />
<path d="
M198.98 133.72
L198.94 133.82
C198.85 134.12 198.69 134.42 198.45 134.74
C198.22 135.05 197.95 135.32 197.65 135.54
L197.59 135.58
L197.59 135.65
L197.59 136.50
L197.59 136.74
L197.80 136.62
C198.00 136.51 198.21 136.35 198.44 136.14
C198.55 136.04 198.65 135.95 198.74 135.85
L198.74 135.85
L198.74 141.02
L198.74 141.16
L199.59 141.16
L199.59 141.02
L199.59 133.86
L199.59 133.72
Z
M195.13 133.72
C194.73 133.72 194.39 133.90 194.10 134.24
C193.83 134.57 193.66 135.06 193.58 135.69
L193.57 135.82
L193.69 135.85
L194.26 136.00
L194.42 136.05
L194.44 135.88
C194.48 135.47 194.56 135.18 194.70 134.98
C194.82 134.81 194.97 134.73 195.14 134.73
C195.14 134.73 195.14 134.73 195.14 134.73
C195.14 134.73 195.14 134.73 195.15 134.73
C195.31 134.73 195.45 134.81 195.57 134.97
C195.70 135.15 195.76 135.39 195.76 135.69
C195.76 136.02 195.69 136.28 195.53 136.47
C195.38 136.65 195.19 136.74 194.96 136.74
L194.96 136.74
L194.88 136.74
L194.73 136.72
L194.72 136.86
L194.66 137.63
L194.64 137.86
L194.85 137.78
C194.99 137.72 195.11 137.69 195.20 137.69
C195.20 137.69 195.20 137.69 195.20 137.69
C195.20 137.69 195.20 137.69 195.20 137.69
C195.41 137.69 195.59 137.80 195.73 138.01
C195.89 138.24 195.97 138.54 195.97 138.93
C195.97 139.34 195.89 139.67 195.71 139.92
C195.55 140.16 195.36 140.28 195.15 140.28
C195.15 140.28 195.15 140.28 195.15 140.28
C195.15 140.28 195.14 140.28 195.14 140.28
C194.95 140.28 194.80 140.18 194.68 139.99
C194.54 139.78 194.44 139.45 194.38 139.00
L194.36 138.85
L194.21 138.88
L193.64 139.00
L193.52 139.02
L193.52 139.15
C193.56 139.79 193.73 140.30 194.03 140.68
C194.33 141.08 194.71 141.28 195.15 141.28
C195.63 141.28 196.04 141.06 196.38 140.60
C196.70 140.16 196.87 139.60 196.87 138.91
C196.87 138.59 196.83 138.30 196.75 138.04
C196.67 137.77 196.56 137.55 196.43 137.39
C196.34 137.28 196.23 137.19 196.12 137.12
L196.12 137.12
C196.25 136.99 196.37 136.82 196.46 136.63
C196.58 136.36 196.64 136.06 196.64 135.71
C196.64 135.15 196.49 134.68 196.21 134.30
C195.92 133.92 195.56 133.72 195.13 133.72
Z
" fill="white" fill-rule="nonzero" />
<path d="
M210.70 110.78
C210.98 110.78 211.21 110.97 211.39 111.37
C211.56 111.76 211.65 112.53 211.65 113.69
C211.65 114.84 211.57 115.61 211.39 116.01
C211.21 116.41 210.99 116.61 210.73 116.61
C210.46 116.61 210.23 116.41 210.05 116.02
C209.87 115.62 209.78 114.85 209.78 113.69
C209.78 112.55 209.87 111.77 210.05 111.38
C210.22 110.98 210.44 110.78 210.70 110.78
Z
M210.72 110.05
C210.22 110.05 209.84 110.36 209.58 110.98
C209.33 111.59 209.20 112.50 209.20 113.69
C209.20 115.03 209.34 115.97 209.62 116.51
C209.91 117.05 210.27 117.33 210.72 117.33
C211.22 117.33 211.60 117.02 211.86 116.40
C212.12 115.78 212.24 114.88 212.24 113.69
C212.24 112.37 212.09 111.40 211.78 110.80
C211.52 110.30 211.17 110.05 210.72 110.05
Z
M207.04 110.05
C206.68 110.05 206.37 110.21 206.12 110.52
C205.87 110.83 205.70 111.29 205.63 111.90
L206.20 112.06
C206.24 111.62 206.34 111.30 206.49 111.09
C206.64 110.88 206.83 110.77 207.05 110.77
C207.26 110.77 207.44 110.87 207.59 111.08
C207.74 111.28 207.81 111.55 207.81 111.88
C207.81 112.24 207.72 112.53 207.55 112.75
C207.37 112.97 207.14 113.08 206.86 113.08
L206.77 113.07
L206.70 113.83
C206.86 113.77 207.00 113.74 207.11 113.74
C207.36 113.74 207.58 113.86 207.76 114.12
C207.93 114.37 208.02 114.70 208.02 115.12
C208.02 115.56 207.92 115.92 207.73 116.19
C207.54 116.47 207.31 116.61 207.05 116.61
C206.57 116.61 206.27 116.14 206.15 115.21
L205.57 115.33
C205.61 115.94 205.77 116.42 206.05 116.79
C206.32 117.15 206.66 117.33 207.06 117.33
C207.49 117.33 207.86 117.12 208.17 116.71
C208.48 116.29 208.63 115.76 208.63 115.10
C208.63 114.79 208.59 114.52 208.52 114.27
C208.44 114.02 208.34 113.82 208.22 113.67
C208.10 113.52 207.95 113.41 207.76 113.35
C207.96 113.21 208.12 113.01 208.23 112.76
C208.34 112.51 208.40 112.22 208.40 111.90
C208.40 111.37 208.27 110.93 208.00 110.58
C207.74 110.23 207.42 110.05 207.04 110.05
Z
" fill="black" fill-rule="nonzero" />
<path d="
M207.13 121.88
C206.65 121.88 206.26 122.07 205.96 122.45
C205.68 122.82 205.51 123.36 205.47 124.07
L205.46 124.20
L205.59 124.22
L206.18 124.31
L206.34 124.34
L206.34 124.17
C206.34 123.74 206.42 123.42 206.57 123.20
C206.71 122.99 206.89 122.89 207.11 122.89
C207.11 122.89 207.11 122.89 207.11 122.89
C207.12 122.89 207.12 122.89 207.12 122.89
C207.32 122.89 207.49 122.98 207.63 123.17
C207.78 123.38 207.85 123.64 207.85 123.98
C207.85 124.27 207.78 124.59 207.62 124.93
C207.46 125.29 207.11 125.79 206.58 126.45
C206.12 127.04 205.79 127.54 205.62 127.98
C205.44 128.42 205.35 128.82 205.36 129.18
L205.36 129.32
L208.73 129.32
L208.73 129.17
L208.73 128.33
L208.73 128.19
L206.52 128.19
C206.56 128.11 206.61 128.02 206.66 127.93
C206.76 127.78 206.98 127.48 207.31 127.05
C207.86 126.35 208.23 125.78 208.42 125.36
C208.62 124.92 208.72 124.47 208.72 123.99
C208.72 123.46 208.60 122.98 208.34 122.55
C208.06 122.11 207.66 121.88 207.13 121.88
Z
M209.09 122.00
L209.09 122.14
L209.09 122.98
L209.09 123.13
L211.28 123.13
C211.03 123.59 210.80 124.14 210.58 124.77
C210.32 125.50 210.12 126.26 209.98 127.06
C209.83 127.87 209.76 128.57 209.75 129.17
L209.75 129.32
L210.48 129.32
L210.62 129.32
L210.62 129.18
C210.67 128.04 210.87 126.89 211.21 125.72
C211.55 124.56 211.94 123.62 212.38 122.90
L212.40 122.86
L212.40 122.82
L212.40 122.14
L212.40 122.00
Z
" fill="white" fill-rule="nonzero" />
<path d="
M210.73 134.73
C210.73 134.73 210.74 134.73 210.74 134.73
C210.74 134.73 210.74 134.73 210.74 134.73
C210.92 134.73 211.09 134.86 211.24 135.10
C211.41 135.37 211.49 135.75 211.49 136.23
C211.49 136.71 211.41 137.08 211.25 137.34
C211.10 137.57 210.93 137.69 210.73 137.69
C210.73 137.69 210.73 137.69 210.72 137.69
C210.72 137.69 210.72 137.69 210.72 137.69
C210.52 137.69 210.34 137.57 210.18 137.34
C210.01 137.08 209.93 136.74 209.93 136.30
C209.93 135.81 210.02 135.42 210.20 135.13
C210.36 134.87 210.54 134.73 210.73 134.73
Z
M207.13 133.73
C206.65 133.73 206.26 133.92 205.96 134.30
C205.68 134.67 205.51 135.21 205.47 135.92
L205.46 136.05
L205.59 136.07
L206.18 136.16
L206.34 136.19
L206.34 136.02
C206.34 135.59 206.42 135.26 206.57 135.04
C206.71 134.84 206.89 134.73 207.11 134.73
C207.11 134.73 207.11 134.73 207.11 134.73
C207.12 134.73 207.12 134.73 207.12 134.73
C207.32 134.73 207.49 134.83 207.63 135.02
C207.78 135.22 207.85 135.49 207.85 135.82
C207.85 136.11 207.78 136.43 207.62 136.78
C207.46 137.13 207.11 137.64 206.58 138.30
C206.12 138.88 205.79 139.39 205.62 139.82
C205.44 140.26 205.35 140.66 205.36 141.02
L205.36 141.16
L208.73 141.16
L208.73 141.02
L208.73 140.18
L208.73 140.04
L206.52 140.04
C206.56 139.95 206.61 139.86 206.66 139.78
C206.76 139.62 206.98 139.33 207.31 138.90
C207.86 138.19 208.23 137.63 208.42 137.20
C208.62 136.77 208.72 136.31 208.72 135.84
C208.72 135.30 208.60 134.82 208.34 134.40
C208.06 133.95 207.66 133.73 207.13 133.73
Z
M210.67 133.73
C210.21 133.73 209.82 133.96 209.51 134.43
C209.21 134.89 209.06 135.50 209.06 136.27
C209.06 137.02 209.20 137.62 209.49 138.06
C209.80 138.52 210.17 138.74 210.60 138.75
C210.84 138.75 211.08 138.65 211.31 138.46
C211.39 138.39 211.47 138.30 211.55 138.21
L211.55 138.21
C211.53 138.60 211.48 138.96 211.40 139.27
C211.29 139.66 211.17 139.93 211.03 140.08
C210.90 140.21 210.76 140.28 210.61 140.28
C210.61 140.28 210.61 140.28 210.61 140.28
C210.61 140.28 210.61 140.28 210.61 140.28
C210.44 140.28 210.31 140.21 210.21 140.06
C210.10 139.89 210.02 139.63 209.98 139.28
L209.96 139.13
L209.81 139.15
L209.26 139.23
L209.13 139.25
L209.14 139.38
C209.19 139.98 209.34 140.45 209.60 140.77
C209.87 141.11 210.20 141.28 210.60 141.28
C210.95 141.28 211.27 141.14 211.55 140.87
C211.82 140.60 212.03 140.18 212.19 139.62
C212.34 139.06 212.41 138.29 212.41 137.30
C212.41 136.41 212.34 135.73 212.20 135.25
C212.06 134.76 211.85 134.38 211.58 134.12
C211.30 133.86 211.00 133.73 210.67 133.73
Z
" fill="white" fill-rule="nonzero" />
<path d="
M207.04 145.63
C206.64 145.63 206.29 145.80 206.01 146.15
C205.74 146.48 205.56 146.96 205.49 147.60
L205.47 147.72
L205.59 147.75
L206.16 147.91
L206.33 147.95
L206.34 147.79
C206.38 147.38 206.47 147.08 206.61 146.89
C206.73 146.72 206.87 146.63 207.04 146.63
C207.05 146.63 207.05 146.63 207.05 146.63
C207.05 146.63 207.05 146.63 207.05 146.63
C207.21 146.63 207.36 146.71 207.47 146.88
C207.60 147.05 207.67 147.29 207.67 147.60
C207.67 147.93 207.59 148.19 207.44 148.38
C207.29 148.56 207.10 148.65 206.87 148.65
L206.87 148.65
L206.78 148.64
L206.64 148.63
L206.63 148.77
L206.56 149.54
L206.54 149.77
L206.76 149.68
C206.90 149.62 207.02 149.59 207.11 149.59
C207.11 149.59 207.11 149.59 207.11 149.59
C207.11 149.59 207.11 149.59 207.11 149.59
C207.32 149.59 207.49 149.70 207.64 149.91
C207.80 150.14 207.88 150.45 207.88 150.83
C207.88 151.24 207.79 151.58 207.62 151.83
C207.45 152.06 207.27 152.18 207.06 152.18
C207.05 152.18 207.05 152.18 207.05 152.18
C207.05 152.18 207.05 152.18 207.05 152.18
C206.86 152.18 206.70 152.09 206.58 151.90
C206.44 151.68 206.34 151.35 206.29 150.91
L206.27 150.76
L206.12 150.79
L205.54 150.90
L205.42 150.93
L205.43 151.05
C205.47 151.69 205.64 152.20 205.93 152.59
C206.24 152.99 206.61 153.19 207.06 153.19
C207.54 153.19 207.94 152.96 208.28 152.51
C208.61 152.07 208.77 151.50 208.77 150.82
C208.77 150.50 208.73 150.20 208.65 149.94
C208.57 149.67 208.47 149.46 208.33 149.30
C208.24 149.19 208.14 149.10 208.02 149.03
L208.02 149.03
C208.16 148.89 208.27 148.73 208.36 148.53
C208.48 148.27 208.54 147.96 208.54 147.62
C208.54 147.05 208.40 146.58 208.12 146.21
C207.82 145.82 207.46 145.63 207.04 145.63
Z
M210.67 145.63
C210.27 145.63 209.92 145.80 209.64 146.15
C209.37 146.48 209.19 146.96 209.12 147.60
L209.10 147.72
L209.22 147.75
L209.79 147.91
L209.96 147.95
L209.97 147.79
C210.01 147.38 210.10 147.08 210.24 146.89
C210.36 146.72 210.50 146.63 210.67 146.63
C210.68 146.63 210.68 146.63 210.68 146.63
C210.68 146.63 210.68 146.63 210.68 146.63
C210.84 146.63 210.99 146.71 211.10 146.88
C211.23 147.05 211.30 147.29 211.30 147.60
C211.30 147.93 211.22 148.19 211.07 148.38
C210.92 148.56 210.73 148.65 210.50 148.65
L210.50 148.65
L210.41 148.64
L210.27 148.63
L210.26 148.77
L210.19 149.54
L210.17 149.77
L210.39 149.68
C210.53 149.62 210.65 149.59 210.74 149.59
C210.74 149.59 210.74 149.59 210.74 149.59
C210.74 149.59 210.74 149.59 210.74 149.59
C210.95 149.59 211.12 149.70 211.27 149.91
C211.43 150.14 211.51 150.45 211.51 150.83
C211.51 151.24 211.42 151.58 211.25 151.83
C211.08 152.06 210.90 152.18 210.69 152.18
C210.68 152.18 210.68 152.18 210.68 152.18
C210.68 152.18 210.68 152.18 210.68 152.18
C210.49 152.18 210.33 152.09 210.21 151.90
C210.07 151.68 209.97 151.35 209.92 150.91
L209.90 150.76
L209.75 150.79
L209.17 150.90
L209.05 150.93
L209.06 151.05
C209.10 151.69 209.27 152.20 209.56 152.59
C209.87 152.99 210.24 153.19 210.69 153.19
C211.17 153.19 211.57 152.96 211.91 152.51
C212.24 152.07 212.40 151.50 212.40 150.82
C212.40 150.50 212.36 150.20 212.28 149.94
C212.20 149.67 212.10 149.46 211.96 149.30
C211.87 149.19 211.77 149.10 211.65 149.03
L211.65 149.03
C211.79 148.89 211.90 148.73 211.99 148.53
C212.11 148.27 212.17 147.96 212.17 147.62
C212.17 147.05 212.03 146.58 211.75 146.21
C211.45 145.82 211.09 145.63 210.67 145.63
Z
" fill="white" fill-rule="nonzero" />
<path d="
M208.85 183.08
L209.91 185.93
L207.82 185.93
L208.85 183.08
Z
M208.05 181.29
L205.07 188.96
L206.71 188.96
L207.34 187.22
L210.41 187.22
L211.08 188.96
L212.76 188.96
L209.69 181.29
Z
" fill="black" fill-rule="nonzero" />
<path d="
M208.29 194.47
C209.02 194.47 209.46 194.48 209.61 194.50
C209.87 194.53 210.06 194.62 210.20 194.77
C210.33 194.92 210.39 195.11 210.39 195.35
C210.39 195.59 210.32 195.79 210.16 195.95
C210.01 196.10 209.80 196.19 209.54 196.22
C209.39 196.24 209.02 196.25 208.41 196.25
L207.40 196.25
L207.40 194.47
Z
M208.65 197.52
C209.35 197.52 209.81 197.56 210.02 197.63
C210.23 197.71 210.40 197.82 210.51 197.98
C210.62 198.14 210.67 198.34 210.67 198.57
C210.67 198.84 210.60 199.06 210.46 199.22
C210.31 199.38 210.12 199.48 209.89 199.53
C209.74 199.56 209.39 199.57 208.83 199.57
L207.40 199.57
L207.40 197.52
Z
M205.85 193.20
L205.85 200.86
L208.46 200.86
C209.45 200.86 210.07 200.84 210.33 200.81
C210.74 200.77 211.09 200.65 211.37 200.45
C211.65 200.25 211.87 199.99 212.03 199.66
C212.19 199.33 212.27 198.99 212.27 198.64
C212.27 198.20 212.15 197.81 211.90 197.49
C211.65 197.16 211.29 196.93 210.82 196.79
C211.15 196.64 211.41 196.42 211.61 196.12
C211.80 195.82 211.90 195.49 211.90 195.13
C211.90 194.80 211.82 194.50 211.66 194.23
C211.51 193.96 211.31 193.75 211.07 193.59
C210.84 193.43 210.57 193.32 210.27 193.27
C209.98 193.22 209.52 193.20 208.92 193.20
Z
" fill="black" fill-rule="nonzero" />
</g>
<g  transform="translate(1.19,228.58)" >
<path d="
M109.47 2.94
C109.30 2.94 109.16 3.00 109.05 3.11
C108.93 3.23 108.88 3.37 108.88 3.53
C108.88 3.69 108.94 3.83 109.05 3.95
C109.17 4.07 109.31 4.12 109.47 4.12
C109.63 4.12 109.77 4.07 109.89 3.95
C110.00 3.83 110.06 3.69 110.06 3.53
C110.06 3.37 110.00 3.23 109.89 3.11
C109.77 3.00 109.63 2.94 109.47 2.94
Z
M125.09 3.54
C125.39 3.54 125.66 3.66 125.89 3.89
C126.12 4.12 126.31 4.46 126.43 4.89
C126.56 5.33 126.63 5.74 126.63 6.11
C126.63 6.42 126.59 6.82 126.52 7.32
C126.33 7.48 126.12 7.60 125.88 7.68
C125.63 7.77 125.42 7.81 125.24 7.81
C124.87 7.81 124.56 7.64 124.31 7.31
C123.97 6.85 123.79 6.21 123.79 5.39
C123.79 4.78 123.92 4.32 124.18 4.01
C124.44 3.70 124.75 3.54 125.09 3.54
Z
M114.44 8.04
L114.44 10.07
C113.96 10.46 113.57 10.65 113.28 10.65
C113.06 10.65 112.87 10.56 112.70 10.37
C112.54 10.19 112.45 9.96 112.45 9.68
C112.45 9.46 112.52 9.25 112.65 9.07
C112.78 8.88 113.00 8.70 113.31 8.53
C113.48 8.44 113.86 8.27 114.44 8.04
Z
M102.79 3.77
C103.72 3.77 104.48 4.08 105.08 4.71
C105.67 5.34 105.97 6.20 105.97 7.29
C105.97 8.37 105.67 9.23 105.08 9.86
C104.48 10.49 103.74 10.81 102.84 10.81
C102.50 10.81 102.09 10.75 101.60 10.64
L101.60 3.94
C102.05 3.83 102.44 3.77 102.79 3.77
Z
M99.35 3.33
L99.35 3.54
L99.65 3.54
C99.94 3.54 100.17 3.63 100.32 3.80
C100.43 3.92 100.48 4.23 100.48 4.72
L100.48 9.82
C100.48 10.26 100.44 10.55 100.35 10.68
C100.22 10.89 99.98 11.00 99.65 11.00
L99.35 11.00
L99.35 11.21
L102.87 11.21
C104.40 11.21 105.54 10.80 106.29 9.98
C106.96 9.24 107.29 8.33 107.29 7.23
C107.29 6.41 107.11 5.69 106.73 5.07
C106.36 4.44 105.86 4.00 105.25 3.73
C104.63 3.46 103.74 3.33 102.56 3.33
Z
M109.70 5.73
L108.09 6.38
L108.17 6.59
C108.33 6.53 108.46 6.50 108.57 6.50
C108.67 6.50 108.75 6.53 108.81 6.58
C108.87 6.62 108.91 6.71 108.94 6.83
C108.97 7.00 108.99 7.38 108.99 7.96
L108.99 10.01
C108.99 10.34 108.96 10.56 108.91 10.68
C108.86 10.79 108.79 10.88 108.70 10.93
C108.61 10.98 108.43 11.00 108.17 11.00
L108.17 11.21
L110.76 11.21
L110.76 11.00
C110.51 11.00 110.34 10.98 110.24 10.92
C110.15 10.87 110.07 10.79 110.03 10.68
C109.98 10.56 109.95 10.34 109.95 10.01
L109.95 5.73
Z
M113.63 5.73
C113.01 5.73 112.53 5.87 112.19 6.15
C111.85 6.43 111.68 6.73 111.68 7.07
C111.68 7.24 111.72 7.38 111.82 7.48
C111.91 7.58 112.02 7.63 112.17 7.63
C112.31 7.63 112.43 7.58 112.52 7.49
C112.62 7.39 112.66 7.25 112.66 7.07
L112.65 6.74
C112.65 6.56 112.72 6.41 112.87 6.28
C113.01 6.15 113.21 6.08 113.45 6.08
C113.77 6.08 114.02 6.18 114.19 6.38
C114.36 6.58 114.44 6.94 114.44 7.47
L114.44 7.68
C113.53 8.02 112.87 8.30 112.48 8.53
C112.08 8.76 111.81 9.01 111.65 9.28
C111.53 9.47 111.48 9.69 111.48 9.95
C111.48 10.36 111.59 10.69 111.83 10.95
C112.07 11.20 112.37 11.32 112.74 11.32
C112.98 11.32 113.20 11.27 113.41 11.18
C113.55 11.11 113.89 10.87 114.44 10.45
C114.44 10.76 114.50 10.99 114.62 11.12
C114.73 11.25 114.88 11.32 115.07 11.32
C115.46 11.32 115.88 11.03 116.31 10.45
L116.31 10.12
C116.08 10.35 115.92 10.49 115.84 10.54
C115.80 10.57 115.74 10.58 115.68 10.58
C115.62 10.58 115.57 10.57 115.53 10.53
C115.48 10.49 115.45 10.41 115.43 10.30
C115.41 10.18 115.40 9.87 115.40 9.36
L115.40 7.55
C115.40 7.04 115.37 6.70 115.30 6.53
C115.19 6.28 115.02 6.09 114.79 5.97
C114.49 5.81 114.10 5.73 113.63 5.73
Z
M117.82 10.08
C117.65 10.08 117.49 10.15 117.37 10.27
C117.24 10.39 117.18 10.55 117.18 10.73
C117.18 10.91 117.24 11.06 117.37 11.19
C117.49 11.31 117.65 11.38 117.82 11.38
C118.00 11.38 118.15 11.31 118.28 11.19
C118.41 11.06 118.47 10.91 118.47 10.73
C118.47 10.55 118.41 10.40 118.28 10.27
C118.16 10.15 118.01 10.08 117.82 10.08
Z
M125.22 3.16
C124.45 3.16 123.83 3.49 123.35 4.15
C122.96 4.69 122.76 5.30 122.76 5.99
C122.76 6.70 122.96 7.27 123.35 7.70
C123.75 8.13 124.22 8.34 124.78 8.34
C125.27 8.34 125.82 8.14 126.43 7.75
L126.43 7.75
C126.27 8.43 125.99 9.05 125.58 9.62
C125.18 10.19 124.76 10.58 124.32 10.81
C123.89 11.04 123.42 11.15 122.92 11.16
L122.92 11.38
L123.25 11.38
C123.98 11.38 124.66 11.17 125.29 10.76
C126.06 10.26 126.65 9.63 127.09 8.87
C127.52 8.11 127.73 7.30 127.73 6.42
C127.73 5.45 127.45 4.63 126.88 3.97
C126.42 3.43 125.87 3.16 125.22 3.16
Z
" fill="black" fill-rule="nonzero" />
</g>
</g>
</svg>
