<?xml version="1.0" encoding="utf-8" standalone="no"?>
<!DOCTYPE svg PUBLIC "-//W3C//DTD SVG 1.0//EN" "http://www.w3.org/TR/SVG/DTD/svg11.dtd" >
<svg version="1.1" baseProfile="full"  width="319.13385" height="338.46454" viewBox="0 0 229.77638 243.69449" preserveAspectRatio="xMidYMid" xmlns="http://www.w3.org/2000/svg" >

<g lengthAdjust="spacingAndGlyphs" xml:space='preserve' >
<g  transform="translate(1.19,1.19)" >
<path d="
M0.0 0.0
L0.0 227.39
L227.39 227.39
L227.39 0.0
Z
" fill="none" fill-rule="nonzero" />
<line x1="6.54" y1="6.54" x2="6.54" y2="220.84" fill="none" stroke="black" stroke-width="0.87px" stroke-linecap="square" />
<line x1="18.45" y1="6.54" x2="18.45" y2="220.84" fill="none" stroke="black" stroke-width="0.25px" stroke-linecap="butt" />
<line x1="30.35" y1="6.54" x2="30.35" y2="220.84" fill="none" stroke="black" stroke-width="0.25px" stroke-linecap="butt" />
<line x1="42.26" y1="6.54" x2="42.26" y2="220.84" fill="none" stroke="black" stroke-width="0.25px" stroke-linecap="butt" />
<line x1="54.17" y1="6.54" x2="54.17" y2="220.84" fill="none" stroke="black" stroke-width="0.25px" stroke-linecap="butt" />
<line x1="66.07" y1="6.54" x2="66.07" y2="220.84" fill="none" stroke="black" stroke-width="0.25px" stroke-linecap="butt" />
<line x1="77.98" y1="6.54" x2="77.98" y2="220.84" fill="none" stroke="black" stroke-width="0.25px" stroke-linecap="butt" />
<line x1="89.88" y1="6.54" x2="89.88" y2="220.84" fill="none" stroke="black" stroke-width="0.25px" stroke-linecap="butt" />
<line x1="101.79" y1="6.54" x2="101.79" y2="220.84" fill="none" stroke="black" stroke-width="0.25px" stroke-linecap="butt" />
<line x1="113.69" y1="6.54" x2="113.69" y2="220.84" fill="none" stroke="black" stroke-width="0.25px" stroke-linecap="butt" />
<line x1="125.60" y1="6.54" x2="125.60" y2="220.84" fill="none" stroke="black" stroke-width="0.25px" stroke-linecap="butt" />
<line x1="137.50" y1="6.54" x2="137.50" y2="220.84" fill="none" stroke="black" stroke-width="0.25px" stroke-linecap="butt" />
<line x1="149.41" y1="6.54" x2="149.41" y2="220.84" fill="none" stroke="black" stroke-width="0.25px" stroke-linecap="butt" />
<line x1="161.31" y1="6.54" x2="161.31" y2="220.84" fill="none" stroke="black" stroke-width="0.25px" stroke-linecap="butt" />
<line x1="173.22" y1="6.54" x2="173.22" y2="220.84" fill="none" stroke="black" stroke-width="0.25px" stroke-linecap="butt" />
<line x1="185.13" y1="6.54" x2="185.13" y2="220.84" fill="none" stroke="black" stroke-width="0.25px" stroke-linecap="butt" />
<line x1="197.03" y1="6.54" x2="197.03" y2="220.84" fill="none" stroke="black" stroke-width="0.25px" stroke-linecap="butt" />
<line x1="208.94" y1="6.54" x2="208.94" y2="220.84" fill="none" stroke="black" stroke-width="0.25px" stroke-linecap="butt" />
<line x1="220.84" y1="6.54" x2="220.84" y2="220.84" fill="none" stroke="black" stroke-width="0.87px" stroke-linecap="square" />
<line x1="6.54" y1="6.54" x2="220.84" y2="6.54" fill="none" stroke="black" stroke-width="0.87px" stroke-linecap="square" />
<line x1="6.54" y1="18.45" x2="220.84" y2="18.45" fill="none" stroke="black" stroke-width="0.25px" stroke-linecap="butt" />
<line x1="6.54" y1="30.35" x2="220.84" y2="30.35" fill="none" stroke="black" stroke-width="0.25px" stroke-linecap="butt" />
<line x1="6.54" y1="42.26" x2="220.84" y2="42.26" fill="none" stroke="black" stroke-width="0.25px" stroke-linecap="butt" />
<line x1="6.54" y1="54.17" x2="220.84" y2="54.17" fill="none" stroke="black" stroke-width="0.25px" stroke-linecap="butt" />
<line x1="6.54" y1="66.07" x2="220.84" y2="66.07" fill="none" stroke="black" stroke-width="0.25px" stroke-linecap="butt" />
<line x1="6.54" y1="77.98" x2="220.84" y2="77.98" fill="none" stroke="black" stroke-width="0.25px" stroke-linecap="butt" />
<line x1="6.54" y1="89.88" x2="220.84" y2="89.88" fill="none" stroke="black" stroke-width="0.25px" stroke-linecap="butt" />
<line x1="6.54" y1="101.79" x2="220.84" y2="101.79" fill="none" stroke="black" stroke-width="0.25px" stroke-linecap="butt" />
<line x1="6.54" y1="113.69" x2="220.84" y2="113.69" fill="none" stroke="black" stroke-width="0.25px" stroke-linecap="butt" />
<line x1="6.54" y1="125.60" x2="220.84" y2="125.60" fill="none" stroke="black" stroke-width="0.25px" stroke-linecap="butt" />
<line x1="6.54" y1="137.50" x2="220.84" y2="137.50" fill="none" stroke="black" stroke-width="0.25px" stroke-linecap="butt" />
<line x1="6.54" y1="149.41" x2="220.84" y2="149.41" fill="none" stroke="black" stroke-width="0.25px" stroke-linecap="butt" />
<line x1="6.54" y1="161.31" x2="220.84" y2="161.31" fill="none" stroke="black" stroke-width="0.25px" stroke-linecap="butt" />
<line x1="6.54" y1="173.22" x2="220.84" y2="173.22" fill="none" stroke="black" stroke-width="0.25px" stroke-linecap="butt" />
<line x1="6.54" y1="185.13" x2="220.84" y2="185.13" fill="none" stroke="black" stroke-width="0.25px" stroke-linecap="butt" />
<line x1="6.54" y1="197.03" x2="220.84" y2="197.03" fill="none" stroke="black" stroke-width="0.25px" stroke-linecap="butt" />
<line x1="6.54" y1="208.94" x2="220.84" y2="208.94" fill="none" stroke="black" stroke-width="0.25px" stroke-linecap="butt" />
<line x1="6.54" y1="220.84" x2="220.84" y2="220.84" fill="none" stroke="black" stroke-width="0.87px" stroke-linecap="square" />
<circle cx="30.35" cy="54.17" r="5.98" fill="black"/>
<circle cx="30.35" cy="89.88" r="5.85" fill="white"/>
<circle cx="30.35" cy="89.88" r="5.85" fill="none" stroke="black" stroke-width="0.25px"/>
<circle cx="30.35" cy="125.60" r="5.85" fill="white"/>
<circle cx="30.35" cy="125.60" r="5.85" fill="none" stroke="black" stroke-width="0.25px"/>
<circle cx="30.35" cy="161.31" r="5.85" fill="white"/>
<circle cx="30.35" cy="161.31" r="5.85" fill="none" stroke="black" stroke-width="0.25px"/>
<circle cx="42.26" cy="30.35" r="5.85" fill="white"/>
<circle cx="42.26" cy="30.35" r="5.85" fill="none" stroke="black" stroke-width="0.25px"/>
<circle cx="42.26" cy="42.26" r="1.27" fill="black"/>
<circle cx="42.26" cy="77.98" r="5.85" fill="white"/>
<circle cx="42.26" cy="77.98" r="5.85" fill="none" stroke="black" stroke-width="0.25px"/>
<circle cx="42.26" cy="89.88" r="5.98" fill="black"/>
<circle cx="42.26" cy="101.79" r="5.85" fill="white"/>
<circle cx="42.26" cy="101.79" r="5.85" fill="none" stroke="black" stroke-width="0.25px"/>
<circle cx="42.26" cy="113.69" r="1.27" fill="black"/>
<circle cx="42.26" cy="185.13" r="5.98" fill="black"/>
<circle cx="54.17" cy="66.07" r="5.98" fill="black"/>
<circle cx="54.17" cy="77.98" r="5.98" fill="black"/>
<circle cx="54.17" cy="89.88" r="5.98" fill="black"/>
<circle cx="66.07" cy="197.03" r="5.98" fill="black"/>
<circle cx="77.98" cy="30.35" r="5.85" fill="white"/>
<circle cx="77.98" cy="30.35" r="5.85" fill="none" stroke="black" stroke-width="0.25px"/>
<circle cx="113.69" cy="30.35" r="5.85" fill="white"/>
<circle cx="113.69" cy="30.35" r="5.85" fill="none" stroke="black" stroke-width="0.25px"/>
<circle cx="113.69" cy="42.26" r="1.27" fill="black"/>
<circle cx="113.69" cy="113.69" r="1.27" fill="black"/>
<circle cx="113.69" cy="185.13" r="1.27" fill="black"/>
<circle cx="149.41" cy="137.50" r="5.98" fill="black"/>
<circle cx="149.41" cy="149.41" r="5.85" fill="white"/>
<circle cx="149.41" cy="149.41" r="5.85" fill="none" stroke="black" stroke-width="0.25px"/>
<circle cx="149.41" cy="197.03" r="5.98" fill="black"/>
<circle cx="161.31" cy="125.60" r="5.98" fill="black"/>
<circle cx="161.31" cy="137.50" r="5.85" fill="white"/>
<circle cx="161.31" cy="137.50" r="5.85" fill="none" stroke="black" stroke-width="0.25px"/>
<circle cx="173.22" cy="89.88" r="5.98" fill="black"/>
<circle cx="173.22" cy="113.69" r="5.85" fill="white"/>
<circle cx="173.22" cy="113.69" r="5.85" fill="none" stroke="black" stroke-width="0.25px"/>
<circle cx="173.22" cy="125.60" r="5.98" fill="black"/>
<circle cx="173.22" cy="137.50" r="5.85" fill="white"/>
<circle cx="173.22" cy="137.50" r="5.85" fill="none" stroke="black" stroke-width="0.25px"/>
<circle cx="173.22" cy="149.41" r="5.98" fill="black"/>
<circle cx="173.22" cy="161.31" r="5.98" fill="black"/>
<circle cx="173.22" cy="173.22" r="5.85" fill="white"/>
<circle cx="173.22" cy="173.22" r="5.85" fill="none" stroke="black" stroke-width="0.25px"/>
<circle cx="173.22" cy="185.13" r="5.85" fill="white"/>
<circle cx="173.22" cy="185.13" r="5.85" fill="none" stroke="black" stroke-width="0.25px"/>
<circle cx="173.22" cy="208.94" r="5.85" fill="white"/>
<circle cx="173.22" cy="208.94" r="5.85" fill="none" stroke="black" stroke-width="0.25px"/>
<circle cx="185.13" cy="30.35" r="5.98" fill="black"/>
<circle cx="185.13" cy="42.26" r="5.98" fill="black"/>
<circle cx="185.13" cy="113.69" r="5.85" fill="white"/>
<circle cx="185.13" cy="113.69" r="5.85" fill="none" stroke="black" stroke-width="0.25px"/>
<circle cx="185.13" cy="125.60" r="5.98" fill="black"/>
<circle cx="185.13" cy="137.50" r="5.85" fill="white"/>
<circle cx="185.13" cy="137.50" r="5.85" fill="none" stroke="black" stroke-width="0.25px"/>
<circle cx="185.13" cy="149.41" r="5.85" fill="white"/>
<circle cx="185.13" cy="149.41" r="5.85" fill="none" stroke="black" stroke-width="0.25px"/>
<circle cx="185.13" cy="161.31" r="5.85" fill="white"/>
<circle cx="185.13" cy="161.31" r="5.85" fill="none" stroke="black" stroke-width="0.25px"/>
<circle cx="185.13" cy="173.22" r="5.98" fill="black"/>
<circle cx="185.13" cy="185.13" r="1.27" fill="black"/>
<circle cx="185.13" cy="197.03" r="5.85" fill="white"/>
<circle cx="185.13" cy="197.03" r="5.85" fill="none" stroke="black" stroke-width="0.25px"/>
<circle cx="185.13" cy="208.94" r="5.98" fill="black"/>
<circle cx="185.13" cy="220.84" r="5.85" fill="white"/>
<circle cx="185.13" cy="220.84" r="5.85" fill="none" stroke="black" stroke-width="0.25px"/>
<circle cx="197.03" cy="89.88" r="5.98" fill="black"/>
<circle cx="197.03" cy="113.69" r="5.85" fill="white"/>
<circle cx="197.03" cy="113.69" r="5.85" fill="none" stroke="black" stroke-width="0.25px"/>
<circle cx="197.03" cy="125.60" r="5.85" fill="white"/>
<circle cx="197.03" cy="125.60" r="5.85" fill="none" stroke="black" stroke-width="0.25px"/>
<circle cx="197.03" cy="137.50" r="5.98" fill="black"/>
<circle cx="197.03" cy="149.41" r="5.85" fill="white"/>
<circle cx="197.03" cy="149.41" r="5.85" fill="none" stroke="black" stroke-width="0.25px"/>
<circle cx="197.03" cy="173.22" r="5.98" fill="black"/>
<circle cx="197.03" cy="185.13" r="5.98" fill="black"/>
<circle cx="197.03" cy="197.03" r="5.98" fill="black"/>
<circle cx="197.03" cy="208.94" r="5.85" fill="white"/>
<circle cx="197.03" cy="208.94" r="5.85" fill="none" stroke="black" stroke-width="0.25px"/>
<circle cx="208.94" cy="113.69" r="5.85" fill="white"/>
<circle cx="208.94" cy="113.69" r="5.85" fill="none" stroke="black" stroke-width="0.25px"/>
<circle cx="208.94" cy="125.60" r="5.98" fill="black"/>
<circle cx="208.94" cy="137.50" r="5.98" fill="black"/>
<circle cx="208.94" cy="149.41" r="5.98" fill="black"/>
<circle cx="208.94" cy="173.22" r="5.98" fill="black"/>
<circle cx="208.94" cy="185.13" r="5.85" fill="white"/>
<circle cx="208.94" cy="185.13" r="5.85" fill="none" stroke="black" stroke-width="0.25px"/>
<circle cx="208.94" cy="197.03" r="5.85" fill="white"/>
<circle cx="208.94" cy="197.03" r="5.85" fill="none" stroke="black" stroke-width="0.25px"/>
<circle cx="208.94" cy="208.94" r="5.98" fill="black"/>
<circle cx="220.84" cy="161.31" r="5.85" fill="white"/>
<circle cx="220.84" cy="161.31" r="5.85" fill="none" stroke="black" stroke-width="0.25px"/>
<path d="
M147.61 133.79
C147.12 133.79 146.73 133.98 146.43 134.36
C146.15 134.73 145.98 135.27 145.94 135.98
L145.93 136.11
L146.06 136.13
L146.65 136.22
L146.81 136.25
L146.81 136.08
C146.81 135.65 146.89 135.32 147.05 135.10
C147.19 134.90 147.37 134.79 147.58 134.79
C147.58 134.79 147.59 134.79 147.59 134.79
C147.59 134.79 147.59 134.79 147.59 134.79
C147.79 134.79 147.96 134.89 148.10 135.08
C148.25 135.28 148.33 135.55 148.33 135.88
C148.33 136.17 148.25 136.49 148.09 136.84
C147.93 137.19 147.59 137.70 147.06 138.36
C146.59 138.94 146.27 139.45 146.09 139.88
C145.91 140.32 145.82 140.72 145.83 141.08
L145.83 141.22
L149.21 141.22
L149.21 141.08
L149.21 140.24
L149.21 140.10
L146.99 140.10
C147.03 140.01 147.08 139.92 147.13 139.84
C147.23 139.68 147.45 139.39 147.79 138.96
C148.33 138.25 148.70 137.69 148.90 137.26
C149.10 136.83 149.20 136.37 149.20 135.90
C149.20 135.36 149.07 134.88 148.81 134.46
C148.54 134.01 148.13 133.79 147.61 133.79
Z
M151.24 133.79
C150.75 133.79 150.36 133.98 150.06 134.36
C149.78 134.73 149.61 135.27 149.57 135.98
L149.56 136.11
L149.69 136.13
L150.28 136.22
L150.44 136.25
L150.44 136.08
C150.44 135.65 150.52 135.32 150.68 135.10
C150.82 134.90 151.00 134.79 151.21 134.79
C151.21 134.79 151.22 134.79 151.22 134.79
C151.22 134.79 151.22 134.79 151.22 134.79
C151.42 134.79 151.59 134.89 151.73 135.08
C151.88 135.28 151.96 135.55 151.96 135.88
C151.96 136.17 151.88 136.49 151.72 136.84
C151.56 137.19 151.22 137.70 150.69 138.36
C150.22 138.94 149.90 139.45 149.72 139.88
C149.54 140.32 149.45 140.72 149.46 141.08
L149.46 141.22
L152.84 141.22
L152.84 141.08
L152.84 140.24
L152.84 140.10
L150.62 140.10
C150.66 140.01 150.71 139.92 150.76 139.84
C150.86 139.68 151.08 139.39 151.42 138.96
C151.96 138.25 152.33 137.69 152.53 137.26
C152.73 136.83 152.83 136.37 152.83 135.90
C152.83 135.36 152.70 134.88 152.44 134.46
C152.17 134.01 151.76 133.79 151.24 133.79
Z
" fill="white" fill-rule="nonzero" />
<path d="
M147.61 145.77
C147.17 145.77 146.81 145.94 146.55 146.29
C146.28 146.63 146.12 147.15 146.08 147.83
L146.67 147.92
C146.67 147.46 146.76 147.11 146.93 146.86
C147.10 146.62 147.32 146.49 147.59 146.49
C147.84 146.49 148.04 146.61 148.21 146.84
C148.38 147.07 148.47 147.36 148.47 147.72
C148.47 148.04 148.39 148.38 148.22 148.74
C148.05 149.11 147.70 149.62 147.17 150.29
C146.71 150.86 146.39 151.36 146.22 151.78
C146.05 152.20 145.97 152.58 145.97 152.92
L149.06 152.92
L149.06 152.08
L146.77 152.08
C146.83 151.92 146.91 151.76 147.01 151.61
C147.11 151.45 147.33 151.15 147.68 150.71
C148.21 150.02 148.58 149.46 148.77 149.05
C148.96 148.63 149.06 148.20 149.06 147.74
C149.06 147.23 148.93 146.77 148.69 146.37
C148.44 145.97 148.08 145.77 147.61 145.77
Z
M151.14 145.77
C150.78 145.77 150.48 145.93 150.22 146.24
C149.97 146.55 149.80 147.01 149.73 147.62
L150.30 147.77
C150.34 147.34 150.44 147.02 150.59 146.81
C150.74 146.60 150.93 146.49 151.15 146.49
C151.36 146.49 151.54 146.59 151.69 146.79
C151.84 147.00 151.91 147.26 151.91 147.60
C151.91 147.96 151.82 148.25 151.65 148.47
C151.47 148.68 151.24 148.79 150.96 148.79
L150.87 148.78
L150.80 149.55
C150.97 149.49 151.10 149.45 151.21 149.45
C151.47 149.45 151.68 149.58 151.86 149.83
C152.03 150.08 152.12 150.42 152.12 150.83
C152.12 151.27 152.03 151.63 151.83 151.91
C151.64 152.19 151.42 152.32 151.15 152.32
C150.67 152.32 150.37 151.86 150.25 150.92
L149.67 151.04
C149.71 151.65 149.87 152.14 150.15 152.50
C150.42 152.87 150.76 153.05 151.16 153.05
C151.59 153.05 151.96 152.84 152.27 152.42
C152.58 152.01 152.73 151.47 152.73 150.82
C152.73 150.51 152.69 150.23 152.62 149.98
C152.54 149.73 152.45 149.53 152.32 149.38
C152.20 149.24 152.05 149.13 151.86 149.06
C152.06 148.92 152.22 148.73 152.33 148.48
C152.45 148.23 152.50 147.94 152.50 147.62
C152.50 147.09 152.37 146.64 152.11 146.29
C151.84 145.95 151.52 145.77 151.14 145.77
Z
" fill="black" fill-rule="nonzero" />
<path d="
M163.07 122.83
C163.07 122.83 163.07 122.83 163.08 122.83
C163.08 122.83 163.08 122.83 163.08 122.83
C163.18 122.83 163.28 122.87 163.37 122.94
C163.47 123.02 163.56 123.16 163.64 123.33
C163.81 123.71 163.89 124.46 163.89 125.60
C163.89 126.73 163.81 127.48 163.64 127.86
C163.56 128.04 163.47 128.18 163.38 128.26
C163.29 128.34 163.21 128.37 163.11 128.37
C163.11 128.37 163.11 128.37 163.11 128.37
C163.11 128.37 163.11 128.37 163.11 128.37
C163.01 128.37 162.91 128.34 162.82 128.26
C162.73 128.18 162.64 128.04 162.56 127.87
C162.39 127.49 162.30 126.74 162.30 125.60
C162.30 124.47 162.39 123.72 162.55 123.34
C162.63 123.16 162.72 123.03 162.81 122.94
C162.89 122.86 162.98 122.83 163.07 122.83
Z
M159.51 121.82
C159.03 121.82 158.64 122.01 158.34 122.39
C158.05 122.76 157.89 123.30 157.85 124.01
L157.84 124.14
L157.97 124.16
L158.56 124.25
L158.72 124.28
L158.72 124.11
C158.72 123.68 158.80 123.36 158.95 123.14
C159.09 122.93 159.27 122.83 159.49 122.83
C159.49 122.83 159.49 122.83 159.49 122.83
C159.49 122.83 159.49 122.83 159.50 122.83
C159.70 122.83 159.87 122.92 160.01 123.11
C160.16 123.32 160.23 123.58 160.23 123.91
C160.23 124.21 160.15 124.53 160.00 124.87
C159.84 125.23 159.49 125.73 158.96 126.39
C158.49 126.98 158.17 127.48 157.99 127.92
C157.81 128.36 157.73 128.76 157.74 129.12
L157.74 129.25
L161.11 129.25
L161.11 129.11
L161.11 128.27
L161.11 128.13
L158.89 128.13
C158.94 128.04 158.98 127.96 159.04 127.87
C159.14 127.72 159.35 127.42 159.69 126.99
C160.24 126.29 160.61 125.72 160.80 125.30
C161.00 124.86 161.10 124.41 161.10 123.93
C161.10 123.40 160.97 122.91 160.71 122.49
C160.44 122.04 160.04 121.82 159.51 121.82
Z
M163.10 121.82
C162.82 121.82 162.57 121.91 162.35 122.08
C162.14 122.25 161.97 122.50 161.83 122.83
C161.57 123.46 161.43 124.39 161.43 125.60
C161.43 126.96 161.58 127.92 161.88 128.48
C162.03 128.78 162.20 129.00 162.40 129.14
C162.61 129.30 162.84 129.38 163.09 129.38
C163.38 129.38 163.63 129.29 163.85 129.11
C164.06 128.94 164.23 128.69 164.37 128.36
C164.63 127.73 164.76 126.81 164.76 125.60
C164.76 124.25 164.60 123.27 164.28 122.64
C164.14 122.38 163.98 122.17 163.78 122.03
C163.58 121.89 163.36 121.82 163.10 121.82
Z
" fill="white" fill-rule="nonzero" />
<path d="
M159.51 133.93
C159.07 133.93 158.72 134.10 158.45 134.45
C158.18 134.79 158.03 135.30 157.99 135.99
L158.58 136.08
C158.58 135.62 158.66 135.27 158.84 135.02
C159.01 134.77 159.23 134.65 159.49 134.65
C159.74 134.65 159.95 134.77 160.12 134.99
C160.29 135.22 160.37 135.52 160.37 135.88
C160.37 136.20 160.29 136.53 160.13 136.90
C159.96 137.26 159.61 137.78 159.07 138.45
C158.61 139.02 158.30 139.52 158.13 139.94
C157.95 140.36 157.87 140.74 157.88 141.08
L160.97 141.08
L160.97 140.24
L158.68 140.24
C158.74 140.08 158.82 139.92 158.92 139.76
C159.02 139.60 159.24 139.31 159.58 138.87
C160.12 138.18 160.48 137.62 160.67 137.20
C160.87 136.79 160.96 136.35 160.96 135.90
C160.96 135.39 160.84 134.93 160.59 134.53
C160.35 134.13 159.99 133.93 159.51 133.93
Z
M163.36 133.93
C163.26 134.24 163.09 134.56 162.85 134.88
C162.61 135.21 162.33 135.49 162.01 135.72
L162.01 136.56
C162.20 136.46 162.41 136.30 162.63 136.10
C162.85 135.90 163.03 135.70 163.16 135.51
L163.16 141.08
L163.74 141.08
L163.74 133.93
Z
" fill="black" fill-rule="nonzero" />
<path d="
M171.64 110.12
C171.54 110.43 171.37 110.75 171.13 111.07
C170.89 111.40 170.61 111.68 170.29 111.90
L170.29 112.75
C170.48 112.65 170.68 112.49 170.90 112.29
C171.13 112.09 171.30 111.89 171.44 111.70
L171.44 117.27
L172.01 117.27
L172.01 110.12
Z
M175.27 110.12
C175.17 110.43 175.00 110.75 174.76 111.07
C174.52 111.40 174.24 111.68 173.92 111.90
L173.92 112.75
C174.11 112.65 174.31 112.49 174.53 112.29
C174.76 112.09 174.93 111.89 175.07 111.70
L175.07 117.27
L175.64 117.27
L175.64 110.12
Z
" fill="black" fill-rule="nonzero" />
<path d="
M174.98 122.83
C174.98 122.83 174.98 122.83 174.98 122.83
C174.98 122.83 174.98 122.83 174.98 122.83
C175.09 122.83 175.19 122.87 175.27 122.94
C175.37 123.02 175.46 123.16 175.54 123.33
C175.71 123.71 175.80 124.46 175.80 125.60
C175.80 126.73 175.71 127.48 175.54 127.86
C175.46 128.04 175.38 128.18 175.28 128.26
C175.20 128.34 175.11 128.37 175.02 128.37
C175.02 128.37 175.02 128.37 175.02 128.37
C175.02 128.37 175.01 128.37 175.01 128.37
C174.91 128.37 174.82 128.34 174.73 128.26
C174.63 128.18 174.54 128.04 174.46 127.87
C174.29 127.49 174.21 126.74 174.21 125.60
C174.21 124.47 174.29 123.72 174.46 123.34
C174.54 123.16 174.63 123.03 174.72 122.94
C174.80 122.86 174.89 122.83 174.98 122.83
Z
M171.53 121.82
L171.50 121.92
C171.41 122.21 171.25 122.52 171.01 122.83
C170.78 123.15 170.51 123.42 170.21 123.63
L170.15 123.68
L170.15 123.75
L170.15 124.59
L170.15 124.84
L170.36 124.72
C170.55 124.61 170.77 124.45 171.00 124.24
C171.11 124.14 171.21 124.04 171.29 123.95
L171.29 123.95
L171.29 129.11
L171.29 129.25
L172.15 129.25
L172.15 129.11
L172.15 121.96
L172.15 121.82
Z
M175.01 121.82
C174.72 121.82 174.47 121.91 174.26 122.08
C174.05 122.25 173.87 122.50 173.74 122.83
C173.47 123.46 173.34 124.39 173.34 125.60
C173.34 126.96 173.49 127.92 173.78 128.48
C173.93 128.78 174.11 129.00 174.31 129.14
C174.52 129.30 174.75 129.38 175.00 129.38
C175.29 129.38 175.54 129.29 175.75 129.11
C175.96 128.94 176.14 128.69 176.27 128.36
C176.54 127.73 176.67 126.81 176.67 125.60
C176.67 124.25 176.51 123.27 176.19 122.64
C176.05 122.38 175.88 122.17 175.69 122.03
C175.49 121.89 175.26 121.82 175.01 121.82
Z
" fill="white" fill-rule="nonzero" />
<path d="
M175.02 134.59
C175.26 134.59 175.46 134.74 175.65 135.03
C175.83 135.32 175.92 135.72 175.92 136.23
C175.92 136.74 175.83 137.14 175.65 137.41
C175.48 137.69 175.26 137.83 175.01 137.83
C174.75 137.83 174.53 137.69 174.35 137.42
C174.16 137.14 174.07 136.77 174.07 136.30
C174.07 135.78 174.17 135.37 174.36 135.06
C174.55 134.75 174.77 134.59 175.02 134.59
Z
M171.64 133.87
C171.54 134.18 171.37 134.50 171.13 134.82
C170.89 135.15 170.61 135.43 170.29 135.65
L170.29 136.50
C170.48 136.40 170.68 136.24 170.90 136.04
C171.13 135.84 171.30 135.64 171.44 135.45
L171.44 141.02
L172.01 141.02
L172.01 133.87
Z
M174.95 133.87
C174.54 133.87 174.20 134.08 173.91 134.51
C173.62 134.94 173.48 135.53 173.48 136.27
C173.48 136.99 173.62 137.56 173.89 137.98
C174.17 138.40 174.50 138.60 174.88 138.60
C175.09 138.60 175.30 138.52 175.50 138.35
C175.70 138.18 175.86 137.95 175.98 137.67
L175.98 137.84
C175.98 138.40 175.93 138.89 175.82 139.30
C175.71 139.72 175.57 140.01 175.42 140.18
C175.26 140.34 175.09 140.42 174.90 140.42
C174.47 140.42 174.21 140.05 174.12 139.29
L173.57 139.37
C173.61 139.95 173.76 140.38 173.99 140.69
C174.23 140.99 174.53 141.14 174.88 141.14
C175.20 141.14 175.48 141.02 175.73 140.77
C175.99 140.52 176.19 140.12 176.33 139.58
C176.48 139.04 176.56 138.28 176.56 137.30
C176.56 136.42 176.49 135.75 176.35 135.29
C176.21 134.82 176.02 134.47 175.77 134.23
C175.51 133.99 175.24 133.87 174.95 133.87
Z
" fill="black" fill-rule="nonzero" />
<path d="
M173.23 149.22
C173.50 149.22 173.73 149.34 173.92 149.58
C174.11 149.83 174.21 150.19 174.21 150.65
C174.21 151.13 174.11 151.50 173.91 151.77
C173.72 152.02 173.51 152.15 173.28 152.15
C173.28 152.15 173.28 152.15 173.28 152.15
C173.28 152.15 173.28 152.15 173.28 152.15
C173.01 152.15 172.77 152.01 172.55 151.74
C172.33 151.46 172.22 151.08 172.22 150.60
C172.22 150.17 172.33 149.83 172.53 149.58
C172.73 149.34 172.97 149.22 173.23 149.22
C173.23 149.22 173.23 149.22 173.23 149.22
C173.23 149.22 173.23 149.22 173.23 149.22
Z
M173.34 145.67
C172.68 145.68 172.15 145.99 171.73 146.60
C171.33 147.21 171.13 148.20 171.13 149.59
C171.13 150.85 171.32 151.75 171.72 152.30
C172.12 152.86 172.64 153.14 173.27 153.14
C173.63 153.14 173.95 153.04 174.24 152.85
C174.53 152.65 174.77 152.35 174.95 151.94
C175.13 151.54 175.22 151.09 175.22 150.60
C175.22 149.87 175.04 149.29 174.68 148.85
C174.31 148.40 173.87 148.18 173.37 148.18
C173.07 148.18 172.78 148.26 172.51 148.44
C172.37 148.53 172.24 148.64 172.13 148.77
L172.13 148.77
C172.16 148.17 172.26 147.69 172.43 147.36
C172.54 147.12 172.67 146.95 172.82 146.83
C172.96 146.72 173.12 146.67 173.29 146.67
C173.29 146.67 173.29 146.67 173.29 146.67
C173.29 146.67 173.29 146.67 173.30 146.67
C173.52 146.67 173.71 146.76 173.87 146.95
C173.98 147.09 174.07 147.32 174.13 147.66
L174.16 147.79
L174.29 147.78
L174.99 147.71
L175.13 147.70
L175.12 147.55
C175.05 146.95 174.86 146.49 174.54 146.17
C174.21 145.84 173.81 145.68 173.34 145.67
Z
" fill="white" fill-rule="nonzero" />
<path d="
M175.01 158.54
C175.01 158.54 175.01 158.54 175.01 158.54
C175.01 158.54 175.01 158.54 175.01 158.54
C175.17 158.54 175.31 158.63 175.44 158.80
C175.57 158.99 175.64 159.23 175.64 159.53
C175.64 159.83 175.57 160.06 175.44 160.24
C175.32 160.41 175.18 160.49 175.02 160.49
C175.02 160.49 175.02 160.49 175.02 160.49
C175.02 160.49 175.02 160.49 175.02 160.49
C174.85 160.49 174.71 160.41 174.59 160.24
C174.46 160.06 174.40 159.81 174.40 159.49
C174.40 159.20 174.46 158.97 174.59 158.79
C174.71 158.62 174.85 158.54 175.01 158.54
Z
M175.00 161.49
C175.00 161.49 175.00 161.49 175.00 161.49
C175.01 161.49 175.01 161.49 175.01 161.49
C175.22 161.49 175.41 161.60 175.57 161.83
C175.74 162.07 175.83 162.40 175.83 162.80
C175.83 163.21 175.74 163.53 175.58 163.76
C175.42 163.98 175.24 164.09 175.02 164.09
C175.02 164.09 175.02 164.09 175.02 164.09
C175.02 164.09 175.02 164.09 175.02 164.09
C174.80 164.09 174.62 163.98 174.46 163.75
C174.29 163.51 174.21 163.18 174.21 162.77
C174.21 162.38 174.29 162.07 174.45 161.83
C174.61 161.60 174.79 161.49 175.00 161.49
Z
M171.53 157.54
L171.50 157.64
C171.41 157.93 171.25 158.24 171.01 158.55
C170.78 158.87 170.51 159.13 170.21 159.35
L170.15 159.39
L170.15 159.47
L170.15 160.31
L170.15 160.55
L170.36 160.44
C170.55 160.33 170.77 160.17 171.00 159.96
C171.11 159.86 171.21 159.76 171.29 159.66
L171.29 159.66
L171.29 164.83
L171.29 164.97
L172.15 164.97
L172.15 164.83
L172.15 157.68
L172.15 157.54
Z
M175.01 157.54
C174.58 157.54 174.22 157.73 173.93 158.10
C173.66 158.47 173.52 158.94 173.52 159.51
C173.52 159.89 173.59 160.21 173.71 160.47
C173.81 160.66 173.93 160.82 174.09 160.95
L174.09 160.95
C173.88 161.08 173.71 161.28 173.59 161.53
C173.42 161.86 173.34 162.28 173.34 162.77
C173.34 163.46 173.49 164.01 173.80 164.44
C174.13 164.87 174.53 165.09 175.02 165.09
C175.50 165.09 175.91 164.87 176.23 164.44
C176.54 164.01 176.70 163.46 176.70 162.80
C176.70 162.32 176.62 161.91 176.45 161.58
C176.33 161.32 176.15 161.11 175.94 160.96
L175.94 160.96
C176.10 160.83 176.23 160.67 176.32 160.47
C176.44 160.21 176.51 159.90 176.51 159.54
C176.51 158.96 176.37 158.49 176.09 158.11
C175.80 157.73 175.44 157.54 175.01 157.54
Z
" fill="white" fill-rule="nonzero" />
<path d="
M171.64 169.64
C171.54 169.96 171.37 170.27 171.13 170.60
C170.89 170.93 170.61 171.21 170.29 171.43
L170.29 172.28
C170.48 172.17 170.68 172.02 170.90 171.82
C171.13 171.62 171.30 171.42 171.44 171.22
L171.44 176.80
L172.01 176.80
L172.01 169.64
Z
M173.52 169.77
L173.52 170.61
L175.80 170.61
C175.51 171.11 175.24 171.72 174.99 172.44
C174.74 173.16 174.54 173.92 174.40 174.71
C174.26 175.51 174.18 176.20 174.17 176.80
L174.76 176.80
C174.82 175.64 175.01 174.48 175.35 173.31
C175.70 172.13 176.09 171.18 176.54 170.45
L176.54 169.77
Z
" fill="black" fill-rule="nonzero" />
<path d="
M171.64 205.30
C171.54 205.61 171.37 205.93 171.13 206.26
C170.89 206.58 170.61 206.86 170.29 207.09
L170.29 207.93
C170.48 207.83 170.68 207.68 170.90 207.47
C171.13 207.27 171.30 207.07 171.44 206.88
L171.44 212.45
L172.01 212.45
L172.01 205.30
Z
M174.04 205.43
L173.58 209.08
L174.12 209.19
C174.21 208.97 174.33 208.81 174.48 208.68
C174.63 208.56 174.80 208.50 174.97 208.50
C175.26 208.50 175.50 208.64 175.69 208.92
C175.88 209.20 175.97 209.60 175.97 210.11
C175.97 210.65 175.87 211.07 175.68 211.39
C175.48 211.70 175.25 211.85 174.97 211.85
C174.76 211.85 174.56 211.74 174.40 211.52
C174.24 211.30 174.13 210.96 174.08 210.51
L173.48 210.59
C173.52 211.21 173.68 211.69 173.96 212.05
C174.24 212.40 174.58 212.57 174.98 212.57
C175.47 212.57 175.86 212.32 176.14 211.83
C176.43 211.33 176.58 210.73 176.58 210.04
C176.58 209.33 176.43 208.77 176.14 208.35
C175.86 207.94 175.52 207.73 175.12 207.73
C174.81 207.73 174.52 207.88 174.24 208.18
L174.50 206.26
L176.36 206.26
L176.36 205.43
Z
" fill="black" fill-rule="nonzero" />
<path d="
M185.11 110.82
C185.40 110.82 185.66 110.96 185.88 111.25
C186.10 111.54 186.22 111.93 186.22 112.43
C186.22 112.94 186.11 113.33 185.89 113.60
C185.67 113.88 185.41 114.02 185.09 114.02
C184.78 114.02 184.50 113.88 184.28 113.61
C184.05 113.33 183.94 112.97 183.94 112.50
C183.94 111.99 184.05 111.58 184.29 111.28
C184.53 110.97 184.80 110.82 185.11 110.82
Z
M185.03 110.10
C184.52 110.10 184.09 110.31 183.74 110.74
C183.38 111.16 183.21 111.74 183.21 112.48
C183.21 113.19 183.38 113.75 183.72 114.16
C184.06 114.57 184.46 114.78 184.93 114.78
C185.19 114.78 185.45 114.70 185.70 114.53
C185.95 114.36 186.15 114.14 186.29 113.85
L186.29 114.03
C186.29 114.58 186.23 115.06 186.09 115.47
C185.96 115.88 185.79 116.17 185.60 116.33
C185.41 116.49 185.19 116.57 184.95 116.57
C184.42 116.57 184.10 116.20 183.99 115.46
L183.31 115.54
C183.37 116.10 183.55 116.54 183.84 116.84
C184.13 117.14 184.50 117.29 184.94 117.29
C185.33 117.29 185.68 117.16 185.99 116.92
C186.30 116.67 186.55 116.28 186.73 115.74
C186.91 115.21 187.00 114.46 187.00 113.49
C187.00 112.63 186.92 111.96 186.75 111.50
C186.58 111.04 186.34 110.69 186.03 110.46
C185.72 110.22 185.38 110.10 185.03 110.10
Z
" fill="black" fill-rule="nonzero" />
<path d="
M185.09 122.86
C185.10 122.86 185.10 122.86 185.10 122.86
C185.10 122.86 185.10 122.86 185.10 122.86
C185.31 122.86 185.50 122.95 185.66 123.12
C185.82 123.31 185.90 123.55 185.90 123.84
C185.90 124.12 185.82 124.35 185.66 124.53
C185.51 124.70 185.33 124.78 185.11 124.78
C185.11 124.78 185.11 124.78 185.11 124.78
C185.11 124.78 185.10 124.78 185.10 124.78
C184.88 124.78 184.69 124.70 184.54 124.52
C184.38 124.34 184.30 124.10 184.30 123.79
C184.30 123.52 184.38 123.30 184.54 123.12
C184.70 122.94 184.88 122.86 185.09 122.86
Z
M185.08 125.77
C185.09 125.77 185.09 125.77 185.09 125.77
C185.09 125.77 185.09 125.77 185.09 125.77
C185.37 125.77 185.62 125.89 185.82 126.12
C186.03 126.36 186.14 126.67 186.14 127.07
C186.14 127.46 186.03 127.77 185.83 128.00
C185.63 128.23 185.39 128.34 185.11 128.34
C185.11 128.34 185.11 128.34 185.11 128.34
C185.11 128.34 185.11 128.34 185.10 128.34
C184.82 128.34 184.58 128.22 184.38 127.99
C184.17 127.75 184.07 127.44 184.07 127.04
C184.07 126.66 184.17 126.35 184.37 126.12
C184.57 125.89 184.81 125.77 185.08 125.77
Z
M185.09 121.86
C184.58 121.86 184.14 122.05 183.80 122.41
C183.46 122.78 183.29 123.24 183.29 123.82
C183.29 124.20 183.37 124.52 183.53 124.78
C183.64 124.96 183.79 125.11 183.97 125.24
L183.97 125.24
C183.73 125.37 183.53 125.55 183.37 125.80
C183.16 126.13 183.06 126.54 183.06 127.04
C183.06 127.72 183.25 128.27 183.64 128.69
C184.03 129.12 184.52 129.33 185.11 129.33
C185.69 129.33 186.17 129.12 186.56 128.69
C186.95 128.27 187.14 127.73 187.14 127.06
C187.14 126.58 187.04 126.18 186.84 125.85
C186.69 125.59 186.48 125.39 186.23 125.25
L186.23 125.25
C186.42 125.12 186.57 124.96 186.68 124.78
C186.83 124.52 186.91 124.21 186.91 123.84
C186.91 123.27 186.74 122.79 186.39 122.42
C186.05 122.05 185.61 121.86 185.09 121.86
Z
" fill="white" fill-rule="nonzero" />
<path d="
M183.25 145.94
L183.25 146.77
L186.08 146.77
C185.72 147.27 185.38 147.87 185.07 148.58
C184.76 149.29 184.52 150.04 184.34 150.82
C184.16 151.61 184.07 152.29 184.06 152.88
L184.79 152.88
C184.85 151.74 185.10 150.59 185.52 149.43
C185.94 148.27 186.43 147.33 186.99 146.61
L186.99 145.94
Z
" fill="black" fill-rule="nonzero" />
<path d="
M186.95 173.03
C187.15 173.03 187.33 173.15 187.47 173.38
C187.64 173.64 187.72 174.00 187.72 174.48
C187.72 174.97 187.63 175.35 187.47 175.62
C187.32 175.87 187.16 176.00 186.99 176.00
C186.99 176.00 186.99 176.00 186.99 176.00
C186.99 176.00 186.99 176.00 186.98 176.00
C186.78 176.00 186.60 175.86 186.43 175.59
C186.25 175.30 186.16 174.92 186.16 174.43
C186.16 173.98 186.25 173.63 186.42 173.38
C186.57 173.15 186.75 173.03 186.95 173.03
C186.95 173.03 186.95 173.03 186.95 173.03
C186.95 173.03 186.95 173.03 186.95 173.03
Z
M183.44 169.44
L183.41 169.54
C183.32 169.84 183.15 170.14 182.92 170.46
C182.69 170.77 182.42 171.04 182.11 171.26
L182.05 171.30
L182.05 171.37
L182.05 172.22
L182.05 172.46
L182.26 172.34
C182.46 172.23 182.67 172.07 182.90 171.86
C183.01 171.76 183.11 171.67 183.20 171.57
L183.20 171.57
L183.20 176.74
L183.20 176.88
L184.06 176.88
L184.06 176.74
L184.06 169.58
L184.06 169.44
Z
M187.03 169.44
C186.76 169.44 186.51 169.52 186.28 169.69
C186.06 169.85 185.87 170.08 185.70 170.39
C185.38 171.00 185.22 172.00 185.22 173.40
C185.22 174.67 185.38 175.58 185.69 176.13
C185.86 176.41 186.05 176.63 186.26 176.77
C186.48 176.92 186.72 177.00 186.98 177.00
C187.28 177.00 187.55 176.89 187.79 176.69
C188.03 176.49 188.22 176.18 188.37 175.77
C188.51 175.37 188.59 174.92 188.59 174.43
C188.59 173.70 188.44 173.11 188.15 172.67
C187.84 172.21 187.48 171.97 187.06 171.97
C186.81 171.97 186.56 172.06 186.34 172.24
C186.25 172.32 186.16 172.40 186.09 172.50
L186.09 172.50
C186.12 171.92 186.20 171.46 186.33 171.13
C186.42 170.89 186.53 170.71 186.65 170.60
C186.75 170.50 186.87 170.44 187.00 170.44
C187.00 170.44 187.00 170.44 187.00 170.44
C187.00 170.44 187.00 170.44 187.00 170.44
C187.17 170.44 187.31 170.54 187.43 170.72
C187.53 170.86 187.60 171.10 187.65 171.45
L187.67 171.58
L187.81 171.57
L188.38 171.50
L188.52 171.48
L188.50 171.34
C188.45 170.74 188.29 170.28 188.04 169.95
C187.77 169.61 187.43 169.44 187.03 169.44
Z
" fill="white" fill-rule="nonzero" />
<path d="
M187.08 207.45
L187.08 209.86
L185.98 209.86
L187.08 207.45
Z
M183.44 205.22
L183.41 205.32
C183.32 205.61 183.15 205.92 182.92 206.23
C182.69 206.55 182.42 206.82 182.11 207.03
L182.05 207.08
L182.05 207.15
L182.05 207.99
L182.05 208.24
L182.26 208.12
C182.46 208.01 182.67 207.85 182.90 207.64
C183.01 207.54 183.11 207.44 183.20 207.35
L183.20 207.35
L183.20 212.51
L183.20 212.65
L184.06 212.65
L184.06 212.51
L184.06 205.36
L184.06 205.22
Z
M187.24 205.25
L187.20 205.33
L185.07 209.95
L185.06 209.97
L185.06 210.01
L185.06 210.81
L185.06 210.95
L187.08 210.95
L187.08 212.51
L187.08 212.65
L187.94 212.65
L187.94 212.51
L187.94 210.95
L188.58 210.95
L188.58 210.81
L188.58 210.01
L188.58 209.86
L187.94 209.86
L187.94 205.39
L187.94 205.25
Z
" fill="white" fill-rule="nonzero" />
<path d="
M183.32 217.21
C182.88 217.21 182.53 217.38 182.26 217.72
C182.00 218.07 181.84 218.58 181.80 219.27
L182.39 219.36
C182.39 218.90 182.48 218.55 182.65 218.30
C182.82 218.05 183.04 217.93 183.30 217.93
C183.55 217.93 183.76 218.04 183.93 218.27
C184.10 218.50 184.19 218.80 184.19 219.16
C184.19 219.47 184.10 219.81 183.94 220.18
C183.77 220.54 183.42 221.06 182.88 221.72
C182.42 222.30 182.11 222.79 181.94 223.22
C181.76 223.64 181.68 224.02 181.69 224.36
L184.78 224.36
L184.78 223.52
L182.49 223.52
C182.55 223.36 182.63 223.20 182.73 223.04
C182.83 222.88 183.05 222.58 183.39 222.15
C183.93 221.45 184.29 220.90 184.48 220.48
C184.68 220.07 184.77 219.63 184.77 219.18
C184.77 218.67 184.65 218.21 184.40 217.81
C184.16 217.41 183.80 217.21 183.32 217.21
Z
M185.94 217.33
L185.49 220.99
L186.03 221.10
C186.12 220.88 186.24 220.71 186.39 220.59
C186.54 220.47 186.70 220.41 186.87 220.41
C187.16 220.41 187.40 220.55 187.59 220.83
C187.78 221.11 187.88 221.50 187.88 222.01
C187.88 222.55 187.78 222.98 187.58 223.29
C187.39 223.60 187.15 223.76 186.88 223.76
C186.66 223.76 186.47 223.65 186.31 223.43
C186.14 223.21 186.04 222.87 185.99 222.41
L185.39 222.49
C185.43 223.11 185.58 223.60 185.86 223.95
C186.14 224.30 186.48 224.48 186.89 224.48
C187.37 224.48 187.76 224.23 188.05 223.73
C188.34 223.24 188.48 222.64 188.48 221.94
C188.48 221.24 188.34 220.68 188.05 220.26
C187.76 219.84 187.42 219.63 187.03 219.63
C186.72 219.63 186.43 219.78 186.15 220.08
L186.40 218.17
L188.26 218.17
L188.26 217.33
Z
" fill="black" fill-rule="nonzero" />
<path d="
M197.24 183.53
L197.24 186.03
L195.82 186.03
L197.24 183.53
Z
M197.43 181.47
L197.39 181.54
L194.76 186.10
L194.74 186.13
L194.74 186.17
L194.74 186.96
L194.74 187.10
L197.24 187.10
L197.24 188.64
L197.24 188.79
L198.23 188.79
L198.23 188.64
L198.23 187.10
L199.02 187.10
L199.02 186.96
L199.02 186.17
L199.02 186.03
L198.23 186.03
L198.23 181.61
L198.23 181.47
Z
" fill="white" fill-rule="nonzero" />
<path d="
M195.35 193.31
L195.31 193.41
C195.22 193.71 195.06 194.01 194.82 194.33
C194.59 194.64 194.32 194.91 194.02 195.13
L193.96 195.17
L193.96 195.24
L193.96 196.09
L193.96 196.33
L194.17 196.21
C194.37 196.10 194.58 195.94 194.81 195.73
C194.92 195.64 195.02 195.54 195.11 195.44
L195.11 195.44
L195.11 200.61
L195.11 200.75
L195.96 200.75
L195.96 200.61
L195.96 193.46
L195.96 193.31
Z
M198.86 193.31
C198.37 193.31 197.98 193.51 197.69 193.89
C197.40 194.25 197.24 194.79 197.19 195.51
L197.19 195.64
L197.31 195.66
L197.90 195.75
L198.07 195.77
L198.07 195.61
C198.07 195.18 198.14 194.85 198.30 194.63
C198.44 194.42 198.62 194.32 198.83 194.32
C198.84 194.32 198.84 194.32 198.84 194.32
C198.84 194.32 198.84 194.32 198.84 194.32
C199.04 194.32 199.21 194.42 199.35 194.61
C199.50 194.81 199.58 195.08 199.58 195.41
C199.58 195.70 199.50 196.02 199.34 196.37
C199.18 196.72 198.84 197.23 198.31 197.88
C197.84 198.47 197.52 198.98 197.34 199.41
C197.16 199.85 197.08 200.25 197.08 200.61
L197.09 200.75
L200.46 200.75
L200.46 200.61
L200.46 199.77
L200.46 199.62
L198.24 199.62
C198.28 199.54 198.33 199.45 198.39 199.37
C198.48 199.21 198.70 198.92 199.04 198.48
C199.58 197.78 199.95 197.22 200.15 196.79
C200.35 196.36 200.45 195.90 200.45 195.43
C200.45 194.89 200.32 194.41 200.06 193.98
C199.79 193.54 199.39 193.32 198.86 193.31
Z
" fill="white" fill-rule="nonzero" />
<path d="
M195.45 205.30
C195.35 205.61 195.18 205.93 194.94 206.25
C194.70 206.58 194.42 206.86 194.10 207.09
L194.10 207.93
C194.29 207.83 194.49 207.67 194.71 207.47
C194.94 207.27 195.12 207.07 195.25 206.88
L195.25 212.45
L195.82 212.45
L195.82 205.30
Z
M198.76 205.30
C198.40 205.30 198.10 205.45 197.84 205.76
C197.59 206.08 197.43 206.54 197.35 207.14
L197.93 207.30
C197.97 206.87 198.06 206.55 198.21 206.34
C198.37 206.12 198.55 206.02 198.77 206.02
C198.98 206.02 199.17 206.12 199.31 206.32
C199.46 206.52 199.53 206.79 199.53 207.12
C199.53 207.49 199.45 207.78 199.27 207.99
C199.09 208.21 198.86 208.32 198.58 208.32
L198.49 208.31
L198.43 209.08
C198.59 209.01 198.72 208.98 198.83 208.98
C199.09 208.98 199.30 209.11 199.48 209.36
C199.66 209.61 199.74 209.95 199.74 210.36
C199.74 210.80 199.65 211.16 199.46 211.44
C199.26 211.71 199.04 211.85 198.78 211.85
C198.29 211.85 197.99 211.39 197.87 210.45
L197.30 210.57
C197.33 211.18 197.49 211.67 197.77 212.03
C198.05 212.39 198.39 212.58 198.78 212.58
C199.21 212.58 199.58 212.37 199.89 211.95
C200.20 211.54 200.35 211.00 200.35 210.35
C200.35 210.04 200.32 209.76 200.24 209.51
C200.17 209.26 200.07 209.06 199.95 208.91
C199.82 208.76 199.67 208.66 199.48 208.59
C199.69 208.45 199.84 208.25 199.96 208.00
C200.07 207.75 200.13 207.47 200.13 207.14
C200.13 206.61 199.99 206.17 199.73 205.82
C199.46 205.47 199.14 205.30 198.76 205.30
Z
" fill="black" fill-rule="nonzero" />
<path d="
M208.95 169.55
C208.37 169.55 207.90 169.73 207.54 170.10
C207.19 170.47 206.98 171.00 206.93 171.71
L206.92 171.85
L207.05 171.86
L207.78 171.95
L207.94 171.97
L207.94 171.81
C207.94 171.39 208.03 171.08 208.22 170.86
C208.41 170.65 208.64 170.54 208.92 170.54
C208.93 170.54 208.93 170.54 208.93 170.54
C208.93 170.54 208.93 170.54 208.93 170.54
C209.20 170.54 209.42 170.64 209.60 170.84
C209.78 171.04 209.88 171.30 209.88 171.62
C209.88 171.90 209.78 172.21 209.59 172.55
C209.39 172.90 208.96 173.40 208.31 174.05
C207.73 174.63 207.33 175.13 207.11 175.56
C206.89 176.00 206.78 176.40 206.79 176.76
L206.80 176.89
L210.89 176.89
L210.89 176.75
L210.89 175.92
L210.89 175.78
L208.16 175.78
C208.21 175.70 208.27 175.62 208.33 175.54
C208.45 175.39 208.72 175.10 209.14 174.67
C209.81 173.97 210.27 173.42 210.51 173.00
C210.76 172.56 210.88 172.11 210.88 171.64
C210.88 171.10 210.72 170.62 210.40 170.20
C210.07 169.76 209.59 169.55 208.95 169.55
Z
" fill="white" fill-rule="nonzero" />
<path d="
M209.23 181.59
C209.10 181.90 208.89 182.22 208.59 182.54
C208.29 182.86 207.95 183.14 207.56 183.36
L207.56 184.19
C207.79 184.09 208.04 183.94 208.32 183.74
C208.59 183.54 208.81 183.35 208.98 183.15
L208.98 188.66
L209.69 188.66
L209.69 181.59
Z
" fill="black" fill-rule="nonzero" />
<path d="
M207.70 193.50
L207.14 197.12
L207.81 197.22
C207.92 197.01 208.07 196.84 208.25 196.72
C208.44 196.60 208.64 196.54 208.86 196.54
C209.21 196.54 209.51 196.68 209.74 196.95
C209.98 197.23 210.09 197.62 210.09 198.12
C210.09 198.66 209.97 199.08 209.73 199.39
C209.49 199.70 209.20 199.85 208.86 199.85
C208.59 199.85 208.36 199.74 208.15 199.52
C207.95 199.30 207.82 198.97 207.76 198.52
L207.02 198.60
C207.07 199.21 207.26 199.69 207.61 200.04
C207.95 200.39 208.37 200.56 208.87 200.56
C209.47 200.56 209.95 200.32 210.31 199.82
C210.66 199.33 210.84 198.74 210.84 198.06
C210.84 197.36 210.66 196.80 210.31 196.39
C209.95 195.98 209.53 195.78 209.05 195.78
C208.66 195.78 208.30 195.92 207.96 196.22
L208.27 194.33
L210.57 194.33
L210.57 193.50
Z
" fill="black" fill-rule="nonzero" />
<path d="
M210.89 207.45
L210.89 209.86
L209.79 209.86
L210.89 207.45
Z
M207.13 205.22
C206.65 205.22 206.26 205.41 205.96 205.79
C205.68 206.16 205.51 206.70 205.47 207.41
L205.46 207.54
L205.59 207.56
L206.18 207.65
L206.34 207.68
L206.34 207.51
C206.34 207.08 206.42 206.76 206.57 206.53
C206.71 206.33 206.89 206.23 207.11 206.23
C207.11 206.23 207.11 206.23 207.11 206.23
C207.12 206.23 207.12 206.23 207.12 206.23
C207.32 206.23 207.49 206.32 207.63 206.51
C207.78 206.72 207.85 206.98 207.85 207.31
C207.85 207.61 207.78 207.93 207.62 208.27
C207.46 208.63 207.11 209.13 206.58 209.79
C206.12 210.37 205.79 210.88 205.62 211.32
C205.44 211.76 205.35 212.16 205.36 212.52
L205.36 212.65
L208.73 212.65
L208.73 212.51
L208.73 211.67
L208.73 211.53
L206.52 211.53
C206.56 211.44 206.61 211.36 206.66 211.27
C206.76 211.12 206.98 210.82 207.31 210.39
C207.86 209.69 208.23 209.12 208.42 208.70
C208.62 208.26 208.72 207.81 208.72 207.33
C208.72 206.80 208.60 206.31 208.34 205.89
C208.06 205.44 207.66 205.22 207.13 205.22
Z
M211.05 205.25
L211.02 205.33
L208.88 209.95
L208.87 209.97
L208.87 210.01
L208.87 210.81
L208.87 210.95
L210.89 210.95
L210.89 212.51
L210.89 212.65
L211.75 212.65
L211.75 212.51
L211.75 210.95
L212.39 210.95
L212.39 210.81
L212.39 210.01
L212.39 209.86
L211.75 209.86
L211.75 205.39
L211.75 205.25
Z
" fill="white" fill-rule="nonzero" />
<path d="
M220.74 157.72
C220.30 157.72 219.92 157.87 219.60 158.18
C219.29 158.49 219.09 158.94 219.00 159.54
L219.70 159.70
C219.76 159.27 219.88 158.95 220.06 158.74
C220.25 158.53 220.48 158.43 220.75 158.43
C221.01 158.43 221.24 158.53 221.42 158.73
C221.60 158.93 221.69 159.19 221.69 159.52
C221.69 159.88 221.58 160.17 221.37 160.38
C221.15 160.60 220.86 160.71 220.52 160.71
L220.41 160.70
L220.32 161.45
C220.52 161.39 220.69 161.36 220.82 161.36
C221.14 161.36 221.41 161.48 221.62 161.73
C221.84 161.98 221.95 162.31 221.95 162.72
C221.95 163.16 221.83 163.51 221.60 163.78
C221.36 164.06 221.08 164.19 220.76 164.19
C220.16 164.19 219.78 163.73 219.64 162.81
L218.93 162.93
C218.98 163.53 219.17 164.01 219.51 164.37
C219.86 164.73 220.27 164.91 220.77 164.91
C221.30 164.91 221.75 164.70 222.13 164.29
C222.51 163.88 222.70 163.35 222.70 162.71
C222.70 162.40 222.66 162.13 222.57 161.88
C222.47 161.63 222.35 161.44 222.20 161.29
C222.05 161.14 221.86 161.04 221.63 160.97
C221.88 160.83 222.07 160.64 222.21 160.39
C222.35 160.15 222.42 159.86 222.42 159.54
C222.42 159.02 222.26 158.58 221.93 158.24
C221.61 157.89 221.21 157.72 220.74 157.72
Z
" fill="black" fill-rule="nonzero" />
</g>
<g  transform="translate(1.19,228.58)" >
<path d="
M106.49 2.94
C106.33 2.94 106.19 3.00 106.07 3.11
C105.96 3.23 105.90 3.37 105.90 3.53
C105.90 3.69 105.96 3.83 106.08 3.95
C106.19 4.07 106.33 4.12 106.49 4.12
C106.66 4.12 106.80 4.07 106.91 3.95
C107.02 3.83 107.08 3.69 107.08 3.53
C107.08 3.37 107.02 3.23 106.91 3.11
C106.80 3.00 106.66 2.94 106.49 2.94
Z
M111.46 8.04
L111.46 10.07
C110.98 10.46 110.60 10.65 110.30 10.65
C110.08 10.65 109.89 10.56 109.73 10.37
C109.56 10.19 109.48 9.96 109.48 9.68
C109.48 9.46 109.54 9.25 109.67 9.07
C109.81 8.88 110.02 8.70 110.33 8.53
C110.50 8.44 110.88 8.27 111.46 8.04
Z
M99.82 3.77
C100.75 3.77 101.51 4.08 102.10 4.71
C102.69 5.34 102.99 6.20 102.99 7.29
C102.99 8.37 102.69 9.23 102.10 9.86
C101.51 10.49 100.76 10.81 99.86 10.81
C99.53 10.81 99.12 10.75 98.62 10.64
L98.62 3.94
C99.07 3.83 99.47 3.77 99.82 3.77
Z
M96.37 3.33
L96.37 3.54
L96.67 3.54
C96.97 3.54 97.19 3.63 97.34 3.80
C97.45 3.92 97.51 4.23 97.51 4.72
L97.51 9.82
C97.51 10.26 97.46 10.55 97.38 10.68
C97.24 10.89 97.00 11.00 96.67 11.00
L96.37 11.00
L96.37 11.21
L99.90 11.21
C101.43 11.21 102.57 10.80 103.32 9.98
C103.98 9.24 104.32 8.33 104.32 7.23
C104.32 6.41 104.13 5.69 103.76 5.07
C103.38 4.44 102.89 4.00 102.27 3.73
C101.66 3.46 100.76 3.33 99.58 3.33
Z
M106.72 5.73
L105.12 6.38
L105.20 6.59
C105.35 6.53 105.48 6.50 105.59 6.50
C105.69 6.50 105.77 6.53 105.83 6.58
C105.89 6.62 105.93 6.71 105.96 6.83
C105.99 7.00 106.01 7.38 106.01 7.96
L106.01 10.01
C106.01 10.34 105.98 10.56 105.93 10.68
C105.88 10.79 105.81 10.88 105.72 10.93
C105.63 10.98 105.46 11.00 105.20 11.00
L105.20 11.21
L107.78 11.21
L107.78 11.00
C107.53 11.00 107.36 10.98 107.26 10.92
C107.17 10.87 107.10 10.79 107.05 10.68
C107.00 10.56 106.98 10.34 106.98 10.01
L106.98 5.73
Z
M122.63 3.16
L120.71 4.10
L120.79 4.28
C121.05 4.16 121.25 4.10 121.39 4.10
C121.49 4.10 121.58 4.13 121.65 4.19
C121.72 4.25 121.77 4.34 121.80 4.46
C121.84 4.62 121.86 4.99 121.86 5.57
L121.86 9.82
C121.86 10.30 121.84 10.58 121.79 10.67
C121.75 10.77 121.68 10.85 121.57 10.90
C121.46 10.96 121.22 10.99 120.85 11.00
L120.85 11.21
L123.81 11.21
L123.81 11.00
C123.46 10.99 123.22 10.96 123.10 10.90
C122.99 10.84 122.91 10.76 122.87 10.65
C122.84 10.54 122.82 10.27 122.82 9.82
L122.82 3.16
Z
M128.58 3.16
L126.66 4.10
L126.75 4.28
C127.00 4.16 127.20 4.10 127.35 4.10
C127.45 4.10 127.53 4.13 127.60 4.19
C127.68 4.25 127.73 4.34 127.75 4.46
C127.79 4.62 127.81 4.99 127.81 5.57
L127.81 9.82
C127.81 10.30 127.79 10.58 127.75 10.67
C127.70 10.77 127.63 10.85 127.52 10.90
C127.41 10.96 127.17 10.99 126.80 11.00
L126.80 11.21
L129.76 11.21
L129.76 11.00
C129.41 10.99 129.17 10.96 129.06 10.90
C128.94 10.84 128.86 10.76 128.83 10.65
C128.79 10.54 128.77 10.27 128.77 9.82
L128.77 3.16
Z
M110.65 5.73
C110.03 5.73 109.56 5.87 109.21 6.15
C108.87 6.43 108.70 6.73 108.70 7.07
C108.70 7.24 108.75 7.38 108.84 7.48
C108.93 7.58 109.05 7.63 109.19 7.63
C109.34 7.63 109.46 7.58 109.55 7.49
C109.64 7.39 109.69 7.25 109.69 7.07
L109.67 6.74
C109.67 6.56 109.75 6.41 109.89 6.28
C110.04 6.15 110.23 6.08 110.48 6.08
C110.80 6.08 111.04 6.18 111.21 6.38
C111.38 6.58 111.46 6.94 111.46 7.47
L111.46 7.68
C110.55 8.02 109.90 8.30 109.50 8.53
C109.11 8.76 108.83 9.01 108.67 9.28
C108.56 9.47 108.50 9.69 108.50 9.95
C108.50 10.36 108.62 10.69 108.86 10.95
C109.09 11.20 109.40 11.32 109.77 11.32
C110.00 11.32 110.23 11.27 110.44 11.18
C110.57 11.11 110.92 10.87 111.46 10.45
C111.47 10.76 111.53 10.99 111.64 11.12
C111.75 11.25 111.90 11.32 112.09 11.32
C112.49 11.32 112.90 11.03 113.34 10.45
L113.34 10.12
C113.10 10.35 112.95 10.49 112.87 10.54
C112.82 10.57 112.77 10.58 112.70 10.58
C112.65 10.58 112.59 10.57 112.55 10.53
C112.50 10.49 112.47 10.41 112.45 10.30
C112.43 10.18 112.42 9.87 112.42 9.36
L112.42 7.55
C112.42 7.04 112.39 6.70 112.32 6.53
C112.21 6.28 112.04 6.09 111.81 5.97
C111.51 5.81 111.12 5.73 110.65 5.73
Z
M114.85 10.08
C114.67 10.08 114.52 10.15 114.39 10.27
C114.26 10.39 114.20 10.55 114.20 10.73
C114.20 10.91 114.26 11.06 114.39 11.19
C114.52 11.31 114.67 11.38 114.85 11.38
C115.03 11.38 115.18 11.31 115.30 11.19
C115.43 11.06 115.49 10.91 115.49 10.73
C115.49 10.55 115.43 10.40 115.31 10.27
C115.18 10.15 115.03 10.08 114.85 10.08
Z
" fill="black" fill-rule="nonzero" />
</g>
</g>
</svg>
