<?xml version="1.0" encoding="utf-8" standalone="no"?>
<!DOCTYPE svg PUBLIC "-//W3C//DTD SVG 1.0//EN" "http://www.w3.org/TR/SVG/DTD/svg11.dtd" >
<svg version="1.1" baseProfile="full"  width="319.13385" height="356.88123" viewBox="0 0 229.77638 256.95447" preserveAspectRatio="xMidYMid" xmlns="http://www.w3.org/2000/svg" >

<g lengthAdjust="spacingAndGlyphs" xml:space='preserve' >
<g  transform="translate(1.19,1.19)" >
<path d="
M0.0 0.0
L0.0 227.39
L227.39 227.39
L227.39 0.0
Z
" fill="none" fill-rule="nonzero" />
<line x1="6.54" y1="6.54" x2="6.54" y2="220.84" fill="none" stroke="black" stroke-width="0.87px" stroke-linecap="square" />
<line x1="18.45" y1="6.54" x2="18.45" y2="220.84" fill="none" stroke="black" stroke-width="0.25px" stroke-linecap="butt" />
<line x1="30.35" y1="6.54" x2="30.35" y2="220.84" fill="none" stroke="black" stroke-width="0.25px" stroke-linecap="butt" />
<line x1="42.26" y1="6.54" x2="42.26" y2="220.84" fill="none" stroke="black" stroke-width="0.25px" stroke-linecap="butt" />
<line x1="54.17" y1="6.54" x2="54.17" y2="220.84" fill="none" stroke="black" stroke-width="0.25px" stroke-linecap="butt" />
<line x1="66.07" y1="6.54" x2="66.07" y2="220.84" fill="none" stroke="black" stroke-width="0.25px" stroke-linecap="butt" />
<line x1="77.98" y1="6.54" x2="77.98" y2="220.84" fill="none" stroke="black" stroke-width="0.25px" stroke-linecap="butt" />
<line x1="89.88" y1="6.54" x2="89.88" y2="220.84" fill="none" stroke="black" stroke-width="0.25px" stroke-linecap="butt" />
<line x1="101.79" y1="6.54" x2="101.79" y2="220.84" fill="none" stroke="black" stroke-width="0.25px" stroke-linecap="butt" />
<line x1="113.69" y1="6.54" x2="113.69" y2="220.84" fill="none" stroke="black" stroke-width="0.25px" stroke-linecap="butt" />
<line x1="125.60" y1="6.54" x2="125.60" y2="220.84" fill="none" stroke="black" stroke-width="0.25px" stroke-linecap="butt" />
<line x1="137.50" y1="6.54" x2="137.50" y2="220.84" fill="none" stroke="black" stroke-width="0.25px" stroke-linecap="butt" />
<line x1="149.41" y1="6.54" x2="149.41" y2="220.84" fill="none" stroke="black" stroke-width="0.25px" stroke-linecap="butt" />
<line x1="161.31" y1="6.54" x2="161.31" y2="220.84" fill="none" stroke="black" stroke-width="0.25px" stroke-linecap="butt" />
<line x1="173.22" y1="6.54" x2="173.22" y2="202.98" fill="none" stroke="black" stroke-width="0.25px" stroke-linecap="butt" />
<line x1="173.22" y1="214.89" x2="173.22" y2="220.84" fill="none" stroke="black" stroke-width="0.25px" stroke-linecap="butt" />
<line x1="185.13" y1="6.54" x2="185.13" y2="220.84" fill="none" stroke="black" stroke-width="0.25px" stroke-linecap="butt" />
<line x1="197.03" y1="6.54" x2="197.03" y2="220.84" fill="none" stroke="black" stroke-width="0.25px" stroke-linecap="butt" />
<line x1="208.94" y1="6.54" x2="208.94" y2="220.84" fill="none" stroke="black" stroke-width="0.25px" stroke-linecap="butt" />
<line x1="220.84" y1="6.54" x2="220.84" y2="220.84" fill="none" stroke="black" stroke-width="0.87px" stroke-linecap="square" />
<line x1="6.54" y1="6.54" x2="220.84" y2="6.54" fill="none" stroke="black" stroke-width="0.87px" stroke-linecap="square" />
<line x1="6.54" y1="18.45" x2="220.84" y2="18.45" fill="none" stroke="black" stroke-width="0.25px" stroke-linecap="butt" />
<line x1="6.54" y1="30.35" x2="220.84" y2="30.35" fill="none" stroke="black" stroke-width="0.25px" stroke-linecap="butt" />
<line x1="6.54" y1="42.26" x2="220.84" y2="42.26" fill="none" stroke="black" stroke-width="0.25px" stroke-linecap="butt" />
<line x1="6.54" y1="54.17" x2="220.84" y2="54.17" fill="none" stroke="black" stroke-width="0.25px" stroke-linecap="butt" />
<line x1="6.54" y1="66.07" x2="220.84" y2="66.07" fill="none" stroke="black" stroke-width="0.25px" stroke-linecap="butt" />
<line x1="6.54" y1="77.98" x2="220.84" y2="77.98" fill="none" stroke="black" stroke-width="0.25px" stroke-linecap="butt" />
<line x1="6.54" y1="89.88" x2="220.84" y2="89.88" fill="none" stroke="black" stroke-width="0.25px" stroke-linecap="butt" />
<line x1="6.54" y1="101.79" x2="220.84" y2="101.79" fill="none" stroke="black" stroke-width="0.25px" stroke-linecap="butt" />
<line x1="6.54" y1="113.69" x2="220.84" y2="113.69" fill="none" stroke="black" stroke-width="0.25px" stroke-linecap="butt" />
<line x1="6.54" y1="125.60" x2="220.84" y2="125.60" fill="none" stroke="black" stroke-width="0.25px" stroke-linecap="butt" />
<line x1="6.54" y1="137.50" x2="220.84" y2="137.50" fill="none" stroke="black" stroke-width="0.25px" stroke-linecap="butt" />
<line x1="6.54" y1="149.41" x2="220.84" y2="149.41" fill="none" stroke="black" stroke-width="0.25px" stroke-linecap="butt" />
<line x1="6.54" y1="161.31" x2="220.84" y2="161.31" fill="none" stroke="black" stroke-width="0.25px" stroke-linecap="butt" />
<line x1="6.54" y1="173.22" x2="220.84" y2="173.22" fill="none" stroke="black" stroke-width="0.25px" stroke-linecap="butt" />
<line x1="6.54" y1="185.13" x2="220.84" y2="185.13" fill="none" stroke="black" stroke-width="0.25px" stroke-linecap="butt" />
<line x1="6.54" y1="197.03" x2="220.84" y2="197.03" fill="none" stroke="black" stroke-width="0.25px" stroke-linecap="butt" />
<line x1="6.54" y1="208.94" x2="167.27" y2="208.94" fill="none" stroke="black" stroke-width="0.25px" stroke-linecap="butt" />
<line x1="179.17" y1="208.94" x2="220.84" y2="208.94" fill="none" stroke="black" stroke-width="0.25px" stroke-linecap="butt" />
<line x1="6.54" y1="220.84" x2="220.84" y2="220.84" fill="none" stroke="black" stroke-width="0.87px" stroke-linecap="square" />
<circle cx="30.35" cy="54.17" r="5.98" fill="black"/>
<circle cx="30.35" cy="89.88" r="5.85" fill="white"/>
<circle cx="30.35" cy="89.88" r="5.85" fill="none" stroke="black" stroke-width="0.25px"/>
<circle cx="30.35" cy="125.60" r="5.85" fill="white"/>
<circle cx="30.35" cy="125.60" r="5.85" fill="none" stroke="black" stroke-width="0.25px"/>
<circle cx="30.35" cy="161.31" r="5.85" fill="white"/>
<circle cx="30.35" cy="161.31" r="5.85" fill="none" stroke="black" stroke-width="0.25px"/>
<circle cx="42.26" cy="30.35" r="5.85" fill="white"/>
<circle cx="42.26" cy="30.35" r="5.85" fill="none" stroke="black" stroke-width="0.25px"/>
<circle cx="42.26" cy="42.26" r="1.27" fill="black"/>
<circle cx="42.26" cy="77.98" r="5.85" fill="white"/>
<circle cx="42.26" cy="77.98" r="5.85" fill="none" stroke="black" stroke-width="0.25px"/>
<circle cx="42.26" cy="89.88" r="5.98" fill="black"/>
<circle cx="42.26" cy="101.79" r="5.85" fill="white"/>
<circle cx="42.26" cy="101.79" r="5.85" fill="none" stroke="black" stroke-width="0.25px"/>
<circle cx="42.26" cy="113.69" r="1.27" fill="black"/>
<circle cx="42.26" cy="185.13" r="5.98" fill="black"/>
<circle cx="54.17" cy="66.07" r="5.98" fill="black"/>
<circle cx="54.17" cy="77.98" r="5.98" fill="black"/>
<circle cx="54.17" cy="89.88" r="5.98" fill="black"/>
<circle cx="66.07" cy="197.03" r="5.98" fill="black"/>
<circle cx="77.98" cy="30.35" r="5.85" fill="white"/>
<circle cx="77.98" cy="30.35" r="5.85" fill="none" stroke="black" stroke-width="0.25px"/>
<circle cx="113.69" cy="30.35" r="5.85" fill="white"/>
<circle cx="113.69" cy="30.35" r="5.85" fill="none" stroke="black" stroke-width="0.25px"/>
<circle cx="113.69" cy="42.26" r="1.27" fill="black"/>
<circle cx="113.69" cy="113.69" r="1.27" fill="black"/>
<circle cx="113.69" cy="185.13" r="1.27" fill="black"/>
<circle cx="149.41" cy="197.03" r="5.98" fill="black"/>
<circle cx="161.31" cy="173.22" r="5.98" fill="black"/>
<circle cx="173.22" cy="89.88" r="5.98" fill="black"/>
<circle cx="173.22" cy="113.69" r="5.85" fill="white"/>
<circle cx="173.22" cy="113.69" r="5.85" fill="none" stroke="black" stroke-width="0.25px"/>
<circle cx="173.22" cy="125.60" r="5.98" fill="black"/>
<circle cx="173.22" cy="137.50" r="5.85" fill="white"/>
<circle cx="173.22" cy="137.50" r="5.85" fill="none" stroke="black" stroke-width="0.25px"/>
<circle cx="173.22" cy="149.41" r="5.98" fill="black"/>
<circle cx="173.22" cy="161.31" r="5.98" fill="black"/>
<circle cx="173.22" cy="173.22" r="5.85" fill="white"/>
<circle cx="173.22" cy="173.22" r="5.85" fill="none" stroke="black" stroke-width="0.25px"/>
<circle cx="173.22" cy="185.13" r="5.85" fill="white"/>
<circle cx="173.22" cy="185.13" r="5.85" fill="none" stroke="black" stroke-width="0.25px"/>
<circle cx="173.22" cy="197.03" r="5.98" fill="black"/>
<circle cx="185.13" cy="30.35" r="5.98" fill="black"/>
<circle cx="185.13" cy="42.26" r="5.98" fill="black"/>
<circle cx="185.13" cy="113.69" r="5.85" fill="white"/>
<circle cx="185.13" cy="113.69" r="5.85" fill="none" stroke="black" stroke-width="0.25px"/>
<circle cx="185.13" cy="125.60" r="5.98" fill="black"/>
<circle cx="185.13" cy="137.50" r="5.85" fill="white"/>
<circle cx="185.13" cy="137.50" r="5.85" fill="none" stroke="black" stroke-width="0.25px"/>
<circle cx="185.13" cy="149.41" r="5.85" fill="white"/>
<circle cx="185.13" cy="149.41" r="5.85" fill="none" stroke="black" stroke-width="0.25px"/>
<circle cx="185.13" cy="161.31" r="5.85" fill="white"/>
<circle cx="185.13" cy="161.31" r="5.85" fill="none" stroke="black" stroke-width="0.25px"/>
<circle cx="185.13" cy="173.22" r="5.98" fill="black"/>
<circle cx="185.13" cy="185.13" r="5.98" fill="black"/>
<circle cx="185.13" cy="197.03" r="5.85" fill="white"/>
<circle cx="185.13" cy="197.03" r="5.85" fill="none" stroke="black" stroke-width="0.25px"/>
<circle cx="185.13" cy="208.94" r="5.98" fill="black"/>
<circle cx="197.03" cy="89.88" r="5.98" fill="black"/>
<circle cx="197.03" cy="113.69" r="5.85" fill="white"/>
<circle cx="197.03" cy="113.69" r="5.85" fill="none" stroke="black" stroke-width="0.25px"/>
<circle cx="197.03" cy="125.60" r="5.85" fill="white"/>
<circle cx="197.03" cy="125.60" r="5.85" fill="none" stroke="black" stroke-width="0.25px"/>
<circle cx="197.03" cy="137.50" r="5.98" fill="black"/>
<circle cx="197.03" cy="149.41" r="5.85" fill="white"/>
<circle cx="197.03" cy="149.41" r="5.85" fill="none" stroke="black" stroke-width="0.25px"/>
<circle cx="197.03" cy="161.31" r="5.85" fill="white"/>
<circle cx="197.03" cy="161.31" r="5.85" fill="none" stroke="black" stroke-width="0.25px"/>
<circle cx="197.03" cy="173.22" r="5.98" fill="black"/>
<circle cx="197.03" cy="185.13" r="5.98" fill="black"/>
<circle cx="197.03" cy="197.03" r="5.98" fill="black"/>
<circle cx="197.03" cy="208.94" r="5.85" fill="white"/>
<circle cx="197.03" cy="208.94" r="5.85" fill="none" stroke="black" stroke-width="0.25px"/>
<circle cx="208.94" cy="113.69" r="5.85" fill="white"/>
<circle cx="208.94" cy="113.69" r="5.85" fill="none" stroke="black" stroke-width="0.25px"/>
<circle cx="208.94" cy="125.60" r="5.98" fill="black"/>
<circle cx="208.94" cy="137.50" r="5.98" fill="black"/>
<circle cx="208.94" cy="149.41" r="5.98" fill="black"/>
<circle cx="208.94" cy="161.31" r="5.85" fill="white"/>
<circle cx="208.94" cy="161.31" r="5.85" fill="none" stroke="black" stroke-width="0.25px"/>
<circle cx="208.94" cy="173.22" r="5.98" fill="black"/>
<circle cx="208.94" cy="185.13" r="5.85" fill="white"/>
<circle cx="208.94" cy="185.13" r="5.85" fill="none" stroke="black" stroke-width="0.25px"/>
<circle cx="208.94" cy="197.03" r="5.85" fill="white"/>
<circle cx="208.94" cy="197.03" r="5.85" fill="none" stroke="black" stroke-width="0.25px"/>
<circle cx="208.94" cy="208.94" r="5.85" fill="white"/>
<circle cx="208.94" cy="208.94" r="5.85" fill="none" stroke="black" stroke-width="0.25px"/>
<circle cx="220.84" cy="161.31" r="5.85" fill="white"/>
<circle cx="220.84" cy="161.31" r="5.85" fill="none" stroke="black" stroke-width="0.25px"/>
<circle cx="220.84" cy="173.22" r="5.98" fill="black"/>
<circle cx="220.84" cy="185.13" r="5.85" fill="white"/>
<circle cx="220.84" cy="185.13" r="5.85" fill="none" stroke="black" stroke-width="0.25px"/>
<circle cx="220.84" cy="208.94" r="5.85" fill="white"/>
<circle cx="220.84" cy="208.94" r="5.85" fill="none" stroke="black" stroke-width="0.25px"/>
<path d="
M163.10 170.44
C163.10 170.44 163.11 170.44 163.11 170.44
C163.11 170.44 163.11 170.44 163.11 170.44
C163.27 170.44 163.41 170.53 163.53 170.70
C163.66 170.89 163.73 171.14 163.73 171.44
C163.73 171.73 163.67 171.97 163.54 172.15
C163.42 172.31 163.28 172.40 163.12 172.40
C163.12 172.40 163.12 172.40 163.11 172.40
C163.11 172.40 163.11 172.40 163.11 172.40
C162.95 172.40 162.80 172.31 162.69 172.14
C162.56 171.96 162.49 171.71 162.49 171.39
C162.49 171.11 162.56 170.88 162.69 170.70
C162.81 170.53 162.95 170.44 163.10 170.44
Z
M163.10 173.39
C163.10 173.39 163.10 173.39 163.10 173.39
C163.10 173.39 163.10 173.39 163.10 173.39
C163.32 173.39 163.50 173.51 163.66 173.73
C163.84 173.98 163.92 174.30 163.92 174.71
C163.92 175.11 163.84 175.43 163.67 175.67
C163.52 175.89 163.33 176.00 163.12 176.00
C163.12 176.00 163.12 176.00 163.11 176.00
C163.11 176.00 163.11 176.00 163.11 176.00
C162.90 176.00 162.71 175.88 162.56 175.66
C162.38 175.41 162.30 175.09 162.30 174.68
C162.30 174.29 162.38 173.97 162.55 173.73
C162.70 173.51 162.88 173.39 163.10 173.39
Z
M159.51 169.44
C159.03 169.44 158.64 169.63 158.34 170.01
C158.05 170.38 157.89 170.92 157.85 171.64
L157.84 171.76
L157.97 171.78
L158.56 171.88
L158.72 171.90
L158.72 171.74
C158.72 171.31 158.80 170.98 158.95 170.76
C159.09 170.55 159.27 170.45 159.49 170.45
C159.49 170.45 159.49 170.45 159.49 170.45
C159.49 170.45 159.49 170.45 159.50 170.45
C159.70 170.45 159.87 170.54 160.01 170.73
C160.16 170.94 160.23 171.21 160.23 171.54
C160.23 171.83 160.15 172.15 160.00 172.50
C159.84 172.85 159.49 173.36 158.96 174.01
C158.49 174.60 158.17 175.11 157.99 175.54
C157.81 175.98 157.73 176.38 157.74 176.74
L157.74 176.88
L161.11 176.88
L161.11 176.74
L161.11 175.89
L161.11 175.75
L158.89 175.75
C158.94 175.67 158.98 175.58 159.04 175.49
C159.14 175.34 159.35 175.05 159.69 174.61
C160.24 173.91 160.61 173.35 160.80 172.92
C161.00 172.49 161.10 172.03 161.10 171.56
C161.10 171.02 160.97 170.54 160.71 170.11
C160.44 169.67 160.04 169.44 159.51 169.44
Z
M163.10 169.44
C162.67 169.44 162.31 169.63 162.03 170.01
C161.75 170.37 161.62 170.84 161.62 171.42
C161.62 171.80 161.68 172.12 161.81 172.38
C161.90 172.57 162.03 172.73 162.18 172.86
L162.18 172.86
C161.98 172.99 161.81 173.18 161.68 173.44
C161.51 173.77 161.43 174.18 161.43 174.68
C161.43 175.36 161.59 175.92 161.90 176.34
C162.22 176.78 162.63 177.00 163.11 177.00
C163.60 177.00 164.00 176.78 164.32 176.34
C164.63 175.92 164.79 175.37 164.79 174.70
C164.79 174.22 164.71 173.82 164.55 173.49
C164.42 173.22 164.25 173.02 164.03 172.86
L164.03 172.86
C164.20 172.73 164.32 172.57 164.42 172.38
C164.54 172.12 164.60 171.81 164.60 171.44
C164.60 170.87 164.46 170.39 164.19 170.02
C163.90 169.64 163.54 169.44 163.10 169.44
Z
" fill="white" fill-rule="nonzero" />
<path d="
M171.64 110.12
C171.54 110.43 171.37 110.75 171.13 111.07
C170.89 111.40 170.61 111.68 170.29 111.90
L170.29 112.75
C170.48 112.65 170.68 112.49 170.90 112.29
C171.13 112.09 171.30 111.89 171.44 111.70
L171.44 117.27
L172.01 117.27
L172.01 110.12
Z
M175.27 110.12
C175.17 110.43 175.00 110.75 174.76 111.07
C174.52 111.40 174.24 111.68 173.92 111.90
L173.92 112.75
C174.11 112.65 174.31 112.49 174.53 112.29
C174.76 112.09 174.93 111.89 175.07 111.70
L175.07 117.27
L175.64 117.27
L175.64 110.12
Z
" fill="black" fill-rule="nonzero" />
<path d="
M174.98 122.83
C174.98 122.83 174.98 122.83 174.98 122.83
C174.98 122.83 174.98 122.83 174.98 122.83
C175.09 122.83 175.19 122.87 175.27 122.94
C175.37 123.02 175.46 123.16 175.54 123.33
C175.71 123.71 175.80 124.46 175.80 125.60
C175.80 126.73 175.71 127.48 175.54 127.86
C175.46 128.04 175.38 128.18 175.28 128.26
C175.20 128.34 175.11 128.37 175.02 128.37
C175.02 128.37 175.02 128.37 175.02 128.37
C175.02 128.37 175.01 128.37 175.01 128.37
C174.91 128.37 174.82 128.34 174.73 128.26
C174.63 128.18 174.54 128.04 174.46 127.87
C174.29 127.49 174.21 126.74 174.21 125.60
C174.21 124.47 174.29 123.72 174.46 123.34
C174.54 123.16 174.63 123.03 174.72 122.94
C174.80 122.86 174.89 122.83 174.98 122.83
Z
M171.53 121.82
L171.50 121.92
C171.41 122.21 171.25 122.52 171.01 122.83
C170.78 123.15 170.51 123.42 170.21 123.63
L170.15 123.68
L170.15 123.75
L170.15 124.59
L170.15 124.84
L170.36 124.72
C170.55 124.61 170.77 124.45 171.00 124.24
C171.11 124.14 171.21 124.04 171.29 123.95
L171.29 123.95
L171.29 129.11
L171.29 129.25
L172.15 129.25
L172.15 129.11
L172.15 121.96
L172.15 121.82
Z
M175.01 121.82
C174.72 121.82 174.47 121.91 174.26 122.08
C174.05 122.25 173.87 122.50 173.74 122.83
C173.47 123.46 173.34 124.39 173.34 125.60
C173.34 126.96 173.49 127.92 173.78 128.48
C173.93 128.78 174.11 129.00 174.31 129.14
C174.52 129.30 174.75 129.38 175.00 129.38
C175.29 129.38 175.54 129.29 175.75 129.11
C175.96 128.94 176.14 128.69 176.27 128.36
C176.54 127.73 176.67 126.81 176.67 125.60
C176.67 124.25 176.51 123.27 176.19 122.64
C176.05 122.38 175.88 122.17 175.69 122.03
C175.49 121.89 175.26 121.82 175.01 121.82
Z
" fill="white" fill-rule="nonzero" />
<path d="
M175.02 134.59
C175.26 134.59 175.46 134.74 175.65 135.03
C175.83 135.32 175.92 135.72 175.92 136.23
C175.92 136.74 175.83 137.14 175.65 137.41
C175.48 137.69 175.26 137.83 175.01 137.83
C174.75 137.83 174.53 137.69 174.35 137.42
C174.16 137.14 174.07 136.77 174.07 136.30
C174.07 135.78 174.17 135.37 174.36 135.06
C174.55 134.75 174.77 134.59 175.02 134.59
Z
M171.64 133.87
C171.54 134.18 171.37 134.50 171.13 134.82
C170.89 135.15 170.61 135.43 170.29 135.65
L170.29 136.50
C170.48 136.40 170.68 136.24 170.90 136.04
C171.13 135.84 171.30 135.64 171.44 135.45
L171.44 141.02
L172.01 141.02
L172.01 133.87
Z
M174.95 133.87
C174.54 133.87 174.20 134.08 173.91 134.51
C173.62 134.94 173.48 135.53 173.48 136.27
C173.48 136.99 173.62 137.56 173.89 137.98
C174.17 138.40 174.50 138.60 174.88 138.60
C175.09 138.60 175.30 138.52 175.50 138.35
C175.70 138.18 175.86 137.95 175.98 137.67
L175.98 137.84
C175.98 138.40 175.93 138.89 175.82 139.30
C175.71 139.72 175.57 140.01 175.42 140.18
C175.26 140.34 175.09 140.42 174.90 140.42
C174.47 140.42 174.21 140.05 174.12 139.29
L173.57 139.37
C173.61 139.95 173.76 140.38 173.99 140.69
C174.23 140.99 174.53 141.14 174.88 141.14
C175.20 141.14 175.48 141.02 175.73 140.77
C175.99 140.52 176.19 140.12 176.33 139.58
C176.48 139.04 176.56 138.28 176.56 137.30
C176.56 136.42 176.49 135.75 176.35 135.29
C176.21 134.82 176.02 134.47 175.77 134.23
C175.51 133.99 175.24 133.87 174.95 133.87
Z
" fill="black" fill-rule="nonzero" />
<path d="
M173.23 149.22
C173.50 149.22 173.73 149.34 173.92 149.58
C174.11 149.83 174.21 150.19 174.21 150.65
C174.21 151.13 174.11 151.50 173.91 151.77
C173.72 152.02 173.51 152.15 173.28 152.15
C173.28 152.15 173.28 152.15 173.28 152.15
C173.28 152.15 173.28 152.15 173.28 152.15
C173.01 152.15 172.77 152.01 172.55 151.74
C172.33 151.46 172.22 151.08 172.22 150.60
C172.22 150.17 172.33 149.83 172.53 149.58
C172.73 149.34 172.97 149.22 173.23 149.22
C173.23 149.22 173.23 149.22 173.23 149.22
C173.23 149.22 173.23 149.22 173.23 149.22
Z
M173.34 145.67
C172.68 145.68 172.15 145.99 171.73 146.60
C171.33 147.21 171.13 148.20 171.13 149.59
C171.13 150.85 171.32 151.75 171.72 152.30
C172.12 152.86 172.64 153.14 173.27 153.14
C173.63 153.14 173.95 153.04 174.24 152.85
C174.53 152.65 174.77 152.35 174.95 151.94
C175.13 151.54 175.22 151.09 175.22 150.60
C175.22 149.87 175.04 149.29 174.68 148.85
C174.31 148.40 173.87 148.18 173.37 148.18
C173.07 148.18 172.78 148.26 172.51 148.44
C172.37 148.53 172.24 148.64 172.13 148.77
L172.13 148.77
C172.16 148.17 172.26 147.69 172.43 147.36
C172.54 147.12 172.67 146.95 172.82 146.83
C172.96 146.72 173.12 146.67 173.29 146.67
C173.29 146.67 173.29 146.67 173.29 146.67
C173.29 146.67 173.29 146.67 173.30 146.67
C173.52 146.67 173.71 146.76 173.87 146.95
C173.98 147.09 174.07 147.32 174.13 147.66
L174.16 147.79
L174.29 147.78
L174.99 147.71
L175.13 147.70
L175.12 147.55
C175.05 146.95 174.86 146.49 174.54 146.17
C174.21 145.84 173.81 145.68 173.34 145.67
Z
" fill="white" fill-rule="nonzero" />
<path d="
M175.01 158.54
C175.01 158.54 175.01 158.54 175.01 158.54
C175.01 158.54 175.01 158.54 175.01 158.54
C175.17 158.54 175.31 158.63 175.44 158.80
C175.57 158.99 175.64 159.23 175.64 159.53
C175.64 159.83 175.57 160.06 175.44 160.24
C175.32 160.41 175.18 160.49 175.02 160.49
C175.02 160.49 175.02 160.49 175.02 160.49
C175.02 160.49 175.02 160.49 175.02 160.49
C174.85 160.49 174.71 160.41 174.59 160.24
C174.46 160.06 174.40 159.81 174.40 159.49
C174.40 159.20 174.46 158.97 174.59 158.79
C174.71 158.62 174.85 158.54 175.01 158.54
Z
M175.00 161.49
C175.00 161.49 175.00 161.49 175.00 161.49
C175.01 161.49 175.01 161.49 175.01 161.49
C175.22 161.49 175.41 161.60 175.57 161.83
C175.74 162.07 175.83 162.40 175.83 162.80
C175.83 163.21 175.74 163.53 175.58 163.76
C175.42 163.98 175.24 164.09 175.02 164.09
C175.02 164.09 175.02 164.09 175.02 164.09
C175.02 164.09 175.02 164.09 175.02 164.09
C174.80 164.09 174.62 163.98 174.46 163.75
C174.29 163.51 174.21 163.18 174.21 162.77
C174.21 162.38 174.29 162.07 174.45 161.83
C174.61 161.60 174.79 161.49 175.00 161.49
Z
M171.53 157.54
L171.50 157.64
C171.41 157.93 171.25 158.24 171.01 158.55
C170.78 158.87 170.51 159.13 170.21 159.35
L170.15 159.39
L170.15 159.47
L170.15 160.31
L170.15 160.55
L170.36 160.44
C170.55 160.33 170.77 160.17 171.00 159.96
C171.11 159.86 171.21 159.76 171.29 159.66
L171.29 159.66
L171.29 164.83
L171.29 164.97
L172.15 164.97
L172.15 164.83
L172.15 157.68
L172.15 157.54
Z
M175.01 157.54
C174.58 157.54 174.22 157.73 173.93 158.10
C173.66 158.47 173.52 158.94 173.52 159.51
C173.52 159.89 173.59 160.21 173.71 160.47
C173.81 160.66 173.93 160.82 174.09 160.95
L174.09 160.95
C173.88 161.08 173.71 161.28 173.59 161.53
C173.42 161.86 173.34 162.28 173.34 162.77
C173.34 163.46 173.49 164.01 173.80 164.44
C174.13 164.87 174.53 165.09 175.02 165.09
C175.50 165.09 175.91 164.87 176.23 164.44
C176.54 164.01 176.70 163.46 176.70 162.80
C176.70 162.32 176.62 161.91 176.45 161.58
C176.33 161.32 176.15 161.11 175.94 160.96
L175.94 160.96
C176.10 160.83 176.23 160.67 176.32 160.47
C176.44 160.21 176.51 159.90 176.51 159.54
C176.51 158.96 176.37 158.49 176.09 158.11
C175.80 157.73 175.44 157.54 175.01 157.54
Z
" fill="white" fill-rule="nonzero" />
<path d="
M171.64 169.64
C171.54 169.96 171.37 170.27 171.13 170.60
C170.89 170.93 170.61 171.21 170.29 171.43
L170.29 172.28
C170.48 172.17 170.68 172.02 170.90 171.82
C171.13 171.62 171.30 171.42 171.44 171.22
L171.44 176.80
L172.01 176.80
L172.01 169.64
Z
M173.52 169.77
L173.52 170.61
L175.80 170.61
C175.51 171.11 175.24 171.72 174.99 172.44
C174.74 173.16 174.54 173.92 174.40 174.71
C174.26 175.51 174.18 176.20 174.17 176.80
L174.76 176.80
C174.82 175.64 175.01 174.48 175.35 173.31
C175.70 172.13 176.09 171.18 176.54 170.45
L176.54 169.77
Z
" fill="black" fill-rule="nonzero" />
<path d="
M174.98 194.26
C174.98 194.26 174.98 194.26 174.98 194.26
C174.98 194.26 174.98 194.26 174.98 194.26
C175.09 194.26 175.19 194.30 175.27 194.37
C175.37 194.46 175.46 194.59 175.54 194.76
C175.71 195.14 175.80 195.89 175.80 197.03
C175.80 198.16 175.71 198.91 175.54 199.29
C175.46 199.47 175.38 199.61 175.28 199.69
C175.20 199.77 175.11 199.81 175.02 199.81
C175.02 199.81 175.02 199.81 175.02 199.81
C175.02 199.81 175.01 199.81 175.01 199.81
C174.91 199.81 174.82 199.77 174.73 199.69
C174.63 199.61 174.54 199.48 174.46 199.30
C174.29 198.93 174.21 198.17 174.21 197.03
C174.21 195.91 174.29 195.15 174.46 194.77
C174.54 194.59 174.63 194.46 174.72 194.37
C174.80 194.30 174.89 194.26 174.98 194.26
Z
M171.42 193.25
C170.93 193.25 170.54 193.44 170.25 193.83
C169.96 194.19 169.80 194.73 169.75 195.45
L169.74 195.57
L169.87 195.59
L170.46 195.69
L170.63 195.71
L170.63 195.55
C170.63 195.12 170.70 194.79 170.86 194.57
C171.00 194.36 171.18 194.26 171.39 194.26
C171.39 194.26 171.40 194.26 171.40 194.26
C171.40 194.26 171.40 194.26 171.40 194.26
C171.60 194.26 171.77 194.36 171.91 194.55
C172.06 194.75 172.14 195.02 172.14 195.35
C172.14 195.64 172.06 195.96 171.90 196.31
C171.74 196.66 171.40 197.17 170.87 197.82
C170.40 198.41 170.08 198.92 169.90 199.35
C169.72 199.79 169.63 200.19 169.64 200.55
L169.65 200.69
L173.02 200.69
L173.02 200.55
L173.02 199.71
L173.02 199.56
L170.80 199.56
C170.84 199.48 170.89 199.39 170.94 199.31
C171.04 199.15 171.26 198.86 171.60 198.42
C172.14 197.72 172.51 197.16 172.71 196.73
C172.91 196.30 173.01 195.84 173.01 195.37
C173.01 194.83 172.88 194.35 172.62 193.92
C172.35 193.48 171.95 193.25 171.42 193.25
Z
M175.01 193.25
C174.72 193.25 174.47 193.34 174.26 193.52
C174.05 193.68 173.87 193.93 173.74 194.26
C173.47 194.90 173.34 195.82 173.34 197.03
C173.34 198.39 173.49 199.35 173.78 199.92
C173.93 200.21 174.11 200.43 174.31 200.58
C174.52 200.73 174.75 200.81 175.00 200.81
C175.29 200.81 175.54 200.72 175.75 200.55
C175.96 200.38 176.14 200.13 176.27 199.80
C176.54 199.16 176.67 198.24 176.67 197.03
C176.67 195.69 176.51 194.70 176.19 194.08
C176.05 193.81 175.88 193.60 175.69 193.47
C175.49 193.32 175.26 193.25 175.01 193.25
Z
" fill="white" fill-rule="nonzero" />
<path d="
M172.57 206.38
C173.30 206.38 173.74 206.39 173.90 206.41
C174.15 206.44 174.35 206.53 174.48 206.68
C174.61 206.82 174.67 207.02 174.67 207.25
C174.67 207.50 174.60 207.70 174.45 207.85
C174.30 208.00 174.09 208.09 173.82 208.13
C173.68 208.14 173.30 208.15 172.70 208.15
L171.68 208.15
L171.68 206.38
Z
M172.93 209.43
C173.64 209.43 174.10 209.46 174.31 209.54
C174.52 209.61 174.68 209.73 174.79 209.89
C174.90 210.05 174.96 210.24 174.96 210.47
C174.96 210.75 174.89 210.96 174.74 211.13
C174.60 211.29 174.41 211.39 174.18 211.43
C174.03 211.46 173.67 211.48 173.12 211.48
L171.68 211.48
L171.68 209.43
Z
M170.14 205.10
L170.14 212.77
L172.75 212.77
C173.73 212.76 174.35 212.75 174.61 212.72
C175.02 212.67 175.37 212.55 175.65 212.35
C175.93 212.16 176.15 211.89 176.31 211.56
C176.48 211.24 176.56 210.90 176.56 210.55
C176.56 210.10 176.43 209.72 176.18 209.39
C175.93 209.06 175.57 208.83 175.10 208.70
C175.43 208.55 175.70 208.32 175.89 208.02
C176.08 207.72 176.18 207.39 176.18 207.03
C176.18 206.70 176.10 206.40 175.95 206.14
C175.79 205.87 175.59 205.66 175.36 205.50
C175.12 205.34 174.86 205.23 174.56 205.18
C174.26 205.13 173.81 205.10 173.20 205.10
Z
" fill="black" fill-rule="nonzero" />
<path d="
M185.11 110.82
C185.40 110.82 185.66 110.96 185.88 111.25
C186.10 111.54 186.22 111.93 186.22 112.43
C186.22 112.94 186.11 113.33 185.89 113.60
C185.67 113.88 185.41 114.02 185.09 114.02
C184.78 114.02 184.50 113.88 184.28 113.61
C184.05 113.33 183.94 112.97 183.94 112.50
C183.94 111.99 184.05 111.58 184.29 111.28
C184.53 110.97 184.80 110.82 185.11 110.82
Z
M185.03 110.10
C184.52 110.10 184.09 110.31 183.74 110.74
C183.38 111.16 183.21 111.74 183.21 112.48
C183.21 113.19 183.38 113.75 183.72 114.16
C184.06 114.57 184.46 114.78 184.93 114.78
C185.19 114.78 185.45 114.70 185.70 114.53
C185.95 114.36 186.15 114.14 186.29 113.85
L186.29 114.03
C186.29 114.58 186.23 115.06 186.09 115.47
C185.96 115.88 185.79 116.17 185.60 116.33
C185.41 116.49 185.19 116.57 184.95 116.57
C184.42 116.57 184.10 116.20 183.99 115.46
L183.31 115.54
C183.37 116.10 183.55 116.54 183.84 116.84
C184.13 117.14 184.50 117.29 184.94 117.29
C185.33 117.29 185.68 117.16 185.99 116.92
C186.30 116.67 186.55 116.28 186.73 115.74
C186.91 115.21 187.00 114.46 187.00 113.49
C187.00 112.63 186.92 111.96 186.75 111.50
C186.58 111.04 186.34 110.69 186.03 110.46
C185.72 110.22 185.38 110.10 185.03 110.10
Z
" fill="black" fill-rule="nonzero" />
<path d="
M185.09 122.86
C185.10 122.86 185.10 122.86 185.10 122.86
C185.10 122.86 185.10 122.86 185.10 122.86
C185.31 122.86 185.50 122.95 185.66 123.12
C185.82 123.31 185.90 123.55 185.90 123.84
C185.90 124.12 185.82 124.35 185.66 124.53
C185.51 124.70 185.33 124.78 185.11 124.78
C185.11 124.78 185.11 124.78 185.11 124.78
C185.11 124.78 185.10 124.78 185.10 124.78
C184.88 124.78 184.69 124.70 184.54 124.52
C184.38 124.34 184.30 124.10 184.30 123.79
C184.30 123.52 184.38 123.30 184.54 123.12
C184.70 122.94 184.88 122.86 185.09 122.86
Z
M185.08 125.77
C185.09 125.77 185.09 125.77 185.09 125.77
C185.09 125.77 185.09 125.77 185.09 125.77
C185.37 125.77 185.62 125.89 185.82 126.12
C186.03 126.36 186.14 126.67 186.14 127.07
C186.14 127.46 186.03 127.77 185.83 128.00
C185.63 128.23 185.39 128.34 185.11 128.34
C185.11 128.34 185.11 128.34 185.11 128.34
C185.11 128.34 185.11 128.34 185.10 128.34
C184.82 128.34 184.58 128.22 184.38 127.99
C184.17 127.75 184.07 127.44 184.07 127.04
C184.07 126.66 184.17 126.35 184.37 126.12
C184.57 125.89 184.81 125.77 185.08 125.77
Z
M185.09 121.86
C184.58 121.86 184.14 122.05 183.80 122.41
C183.46 122.78 183.29 123.24 183.29 123.82
C183.29 124.20 183.37 124.52 183.53 124.78
C183.64 124.96 183.79 125.11 183.97 125.24
L183.97 125.24
C183.73 125.37 183.53 125.55 183.37 125.80
C183.16 126.13 183.06 126.54 183.06 127.04
C183.06 127.72 183.25 128.27 183.64 128.69
C184.03 129.12 184.52 129.33 185.11 129.33
C185.69 129.33 186.17 129.12 186.56 128.69
C186.95 128.27 187.14 127.73 187.14 127.06
C187.14 126.58 187.04 126.18 186.84 125.85
C186.69 125.59 186.48 125.39 186.23 125.25
L186.23 125.25
C186.42 125.12 186.57 124.96 186.68 124.78
C186.83 124.52 186.91 124.21 186.91 123.84
C186.91 123.27 186.74 122.79 186.39 122.42
C186.05 122.05 185.61 121.86 185.09 121.86
Z
" fill="white" fill-rule="nonzero" />
<path d="
M183.25 145.94
L183.25 146.77
L186.08 146.77
C185.72 147.27 185.38 147.87 185.07 148.58
C184.76 149.29 184.52 150.04 184.34 150.82
C184.16 151.61 184.07 152.29 184.06 152.88
L184.79 152.88
C184.85 151.74 185.10 150.59 185.52 149.43
C185.94 148.27 186.43 147.33 186.99 146.61
L186.99 145.94
Z
" fill="black" fill-rule="nonzero" />
<path d="
M186.95 173.03
C187.15 173.03 187.33 173.15 187.47 173.38
C187.64 173.64 187.72 174.00 187.72 174.48
C187.72 174.97 187.63 175.35 187.47 175.62
C187.32 175.87 187.16 176.00 186.99 176.00
C186.99 176.00 186.99 176.00 186.99 176.00
C186.99 176.00 186.99 176.00 186.98 176.00
C186.78 176.00 186.60 175.86 186.43 175.59
C186.25 175.30 186.16 174.92 186.16 174.43
C186.16 173.98 186.25 173.63 186.42 173.38
C186.57 173.15 186.75 173.03 186.95 173.03
C186.95 173.03 186.95 173.03 186.95 173.03
C186.95 173.03 186.95 173.03 186.95 173.03
Z
M183.44 169.44
L183.41 169.54
C183.32 169.84 183.15 170.14 182.92 170.46
C182.69 170.77 182.42 171.04 182.11 171.26
L182.05 171.30
L182.05 171.37
L182.05 172.22
L182.05 172.46
L182.26 172.34
C182.46 172.23 182.67 172.07 182.90 171.86
C183.01 171.76 183.11 171.67 183.20 171.57
L183.20 171.57
L183.20 176.74
L183.20 176.88
L184.06 176.88
L184.06 176.74
L184.06 169.58
L184.06 169.44
Z
M187.03 169.44
C186.76 169.44 186.51 169.52 186.28 169.69
C186.06 169.85 185.87 170.08 185.70 170.39
C185.38 171.00 185.22 172.00 185.22 173.40
C185.22 174.67 185.38 175.58 185.69 176.13
C185.86 176.41 186.05 176.63 186.26 176.77
C186.48 176.92 186.72 177.00 186.98 177.00
C187.28 177.00 187.55 176.89 187.79 176.69
C188.03 176.49 188.22 176.18 188.37 175.77
C188.51 175.37 188.59 174.92 188.59 174.43
C188.59 173.70 188.44 173.11 188.15 172.67
C187.84 172.21 187.48 171.97 187.06 171.97
C186.81 171.97 186.56 172.06 186.34 172.24
C186.25 172.32 186.16 172.40 186.09 172.50
L186.09 172.50
C186.12 171.92 186.20 171.46 186.33 171.13
C186.42 170.89 186.53 170.71 186.65 170.60
C186.75 170.50 186.87 170.44 187.00 170.44
C187.00 170.44 187.00 170.44 187.00 170.44
C187.00 170.44 187.00 170.44 187.00 170.44
C187.17 170.44 187.31 170.54 187.43 170.72
C187.53 170.86 187.60 171.10 187.65 171.45
L187.67 171.58
L187.81 171.57
L188.38 171.50
L188.52 171.48
L188.50 171.34
C188.45 170.74 188.29 170.28 188.04 169.95
C187.77 169.61 187.43 169.44 187.03 169.44
Z
" fill="white" fill-rule="nonzero" />
<path d="
M187.08 183.64
L187.08 186.05
L185.98 186.05
L187.08 183.64
Z
M183.32 181.41
C182.84 181.41 182.45 181.60 182.15 181.98
C181.87 182.35 181.70 182.89 181.66 183.60
L181.65 183.73
L181.78 183.75
L182.37 183.84
L182.53 183.87
L182.53 183.70
C182.53 183.27 182.61 182.95 182.76 182.72
C182.90 182.52 183.08 182.42 183.30 182.42
C183.30 182.42 183.30 182.42 183.30 182.42
C183.30 182.42 183.31 182.42 183.31 182.42
C183.51 182.42 183.68 182.51 183.82 182.70
C183.97 182.90 184.04 183.17 184.04 183.50
C184.04 183.80 183.96 184.12 183.81 184.46
C183.65 184.82 183.30 185.32 182.77 185.98
C182.31 186.56 181.98 187.07 181.81 187.51
C181.63 187.95 181.54 188.34 181.55 188.70
L181.55 188.84
L184.92 188.84
L184.92 188.70
L184.92 187.86
L184.92 187.72
L182.70 187.72
C182.75 187.63 182.80 187.55 182.85 187.46
C182.95 187.31 183.17 187.01 183.50 186.58
C184.05 185.88 184.42 185.31 184.61 184.89
C184.81 184.45 184.91 184.00 184.91 183.52
C184.91 182.98 184.78 182.50 184.53 182.08
C184.25 181.63 183.85 181.41 183.32 181.41
Z
M187.24 181.44
L187.20 181.52
L185.07 186.14
L185.06 186.16
L185.06 186.19
L185.06 187.00
L185.06 187.14
L187.08 187.14
L187.08 188.70
L187.08 188.84
L187.94 188.84
L187.94 188.70
L187.94 187.14
L188.58 187.14
L188.58 187.00
L188.58 186.19
L188.58 186.05
L187.94 186.05
L187.94 181.58
L187.94 181.44
Z
" fill="white" fill-rule="nonzero" />
<path d="
M185.04 194.99
L186.10 197.83
L184.01 197.83
L185.04 194.99
Z
M184.24 193.20
L181.26 200.86
L182.90 200.86
L183.53 199.12
L186.60 199.12
L187.27 200.86
L188.95 200.86
L185.88 193.20
Z
" fill="black" fill-rule="nonzero" />
<path d="
M187.08 207.45
L187.08 209.86
L185.98 209.86
L187.08 207.45
Z
M183.44 205.22
L183.41 205.32
C183.32 205.61 183.15 205.92 182.92 206.23
C182.69 206.55 182.42 206.82 182.11 207.03
L182.05 207.08
L182.05 207.15
L182.05 207.99
L182.05 208.24
L182.26 208.12
C182.46 208.01 182.67 207.85 182.90 207.64
C183.01 207.54 183.11 207.44 183.20 207.35
L183.20 207.35
L183.20 212.51
L183.20 212.65
L184.06 212.65
L184.06 212.51
L184.06 205.36
L184.06 205.22
Z
M187.24 205.25
L187.20 205.33
L185.07 209.95
L185.06 209.97
L185.06 210.01
L185.06 210.81
L185.06 210.95
L187.08 210.95
L187.08 212.51
L187.08 212.65
L187.94 212.65
L187.94 212.51
L187.94 210.95
L188.58 210.95
L188.58 210.81
L188.58 210.01
L188.58 209.86
L187.94 209.86
L187.94 205.39
L187.94 205.25
Z
" fill="white" fill-rule="nonzero" />
<path d="
M195.23 157.68
C194.79 157.68 194.44 157.85 194.17 158.19
C193.90 158.54 193.75 159.05 193.70 159.74
L194.30 159.83
C194.30 159.37 194.38 159.02 194.55 158.77
C194.72 158.52 194.94 158.40 195.21 158.40
C195.46 158.40 195.67 158.51 195.84 158.74
C196.01 158.97 196.09 159.27 196.09 159.63
C196.09 159.94 196.01 160.28 195.84 160.65
C195.68 161.01 195.33 161.53 194.79 162.19
C194.33 162.77 194.01 163.26 193.84 163.69
C193.67 164.11 193.59 164.49 193.60 164.83
L196.69 164.83
L196.69 163.99
L194.39 163.99
C194.45 163.83 194.54 163.67 194.64 163.51
C194.74 163.35 194.96 163.05 195.30 162.62
C195.83 161.92 196.20 161.37 196.39 160.95
C196.58 160.54 196.68 160.10 196.68 159.65
C196.68 159.14 196.56 158.68 196.31 158.28
C196.07 157.88 195.70 157.68 195.23 157.68
Z
M198.76 157.68
C198.40 157.68 198.10 157.83 197.84 158.14
C197.59 158.45 197.43 158.91 197.35 159.52
L197.93 159.68
C197.97 159.25 198.06 158.93 198.21 158.71
C198.37 158.50 198.55 158.39 198.77 158.39
C198.98 158.39 199.17 158.50 199.31 158.70
C199.46 158.90 199.53 159.17 199.53 159.50
C199.53 159.87 199.45 160.16 199.27 160.37
C199.09 160.59 198.86 160.70 198.58 160.70
L198.49 160.69
L198.43 161.46
C198.59 161.39 198.72 161.36 198.83 161.36
C199.09 161.36 199.30 161.48 199.48 161.74
C199.66 161.99 199.74 162.32 199.74 162.74
C199.74 163.18 199.65 163.54 199.46 163.81
C199.26 164.09 199.04 164.23 198.78 164.23
C198.29 164.23 197.99 163.76 197.87 162.83
L197.30 162.95
C197.33 163.56 197.49 164.05 197.77 164.41
C198.05 164.77 198.39 164.95 198.78 164.95
C199.21 164.95 199.58 164.75 199.89 164.33
C200.20 163.91 200.35 163.38 200.35 162.72
C200.35 162.42 200.32 162.14 200.24 161.89
C200.17 161.64 200.07 161.44 199.95 161.29
C199.82 161.14 199.67 161.03 199.48 160.97
C199.69 160.83 199.84 160.63 199.96 160.38
C200.07 160.13 200.13 159.85 200.13 159.52
C200.13 158.99 199.99 158.55 199.73 158.20
C199.46 157.85 199.14 157.68 198.76 157.68
Z
" fill="black" fill-rule="nonzero" />
<path d="
M197.24 183.53
L197.24 186.03
L195.82 186.03
L197.24 183.53
Z
M197.43 181.47
L197.39 181.54
L194.76 186.10
L194.74 186.13
L194.74 186.17
L194.74 186.96
L194.74 187.10
L197.24 187.10
L197.24 188.64
L197.24 188.79
L198.23 188.79
L198.23 188.64
L198.23 187.10
L199.02 187.10
L199.02 186.96
L199.02 186.17
L199.02 186.03
L198.23 186.03
L198.23 181.61
L198.23 181.47
Z
" fill="white" fill-rule="nonzero" />
<path d="
M195.35 193.31
L195.31 193.41
C195.22 193.71 195.06 194.01 194.82 194.33
C194.59 194.64 194.32 194.91 194.02 195.13
L193.96 195.17
L193.96 195.24
L193.96 196.09
L193.96 196.33
L194.17 196.21
C194.37 196.10 194.58 195.94 194.81 195.73
C194.92 195.64 195.02 195.54 195.11 195.44
L195.11 195.44
L195.11 200.61
L195.11 200.75
L195.96 200.75
L195.96 200.61
L195.96 193.46
L195.96 193.31
Z
M198.86 193.31
C198.37 193.31 197.98 193.51 197.69 193.89
C197.40 194.25 197.24 194.79 197.19 195.51
L197.19 195.64
L197.31 195.66
L197.90 195.75
L198.07 195.77
L198.07 195.61
C198.07 195.18 198.14 194.85 198.30 194.63
C198.44 194.42 198.62 194.32 198.83 194.32
C198.84 194.32 198.84 194.32 198.84 194.32
C198.84 194.32 198.84 194.32 198.84 194.32
C199.04 194.32 199.21 194.42 199.35 194.61
C199.50 194.81 199.58 195.08 199.58 195.41
C199.58 195.70 199.50 196.02 199.34 196.37
C199.18 196.72 198.84 197.23 198.31 197.88
C197.84 198.47 197.52 198.98 197.34 199.41
C197.16 199.85 197.08 200.25 197.08 200.61
L197.09 200.75
L200.46 200.75
L200.46 200.61
L200.46 199.77
L200.46 199.62
L198.24 199.62
C198.28 199.54 198.33 199.45 198.39 199.37
C198.48 199.21 198.70 198.92 199.04 198.48
C199.58 197.78 199.95 197.22 200.15 196.79
C200.35 196.36 200.45 195.90 200.45 195.43
C200.45 194.89 200.32 194.41 200.06 193.98
C199.79 193.54 199.39 193.32 198.86 193.31
Z
" fill="white" fill-rule="nonzero" />
<path d="
M195.45 205.30
C195.35 205.61 195.18 205.93 194.94 206.25
C194.70 206.58 194.42 206.86 194.10 207.09
L194.10 207.93
C194.29 207.83 194.49 207.67 194.71 207.47
C194.94 207.27 195.12 207.07 195.25 206.88
L195.25 212.45
L195.82 212.45
L195.82 205.30
Z
M198.76 205.30
C198.40 205.30 198.10 205.45 197.84 205.76
C197.59 206.08 197.43 206.54 197.35 207.14
L197.93 207.30
C197.97 206.87 198.06 206.55 198.21 206.34
C198.37 206.12 198.55 206.02 198.77 206.02
C198.98 206.02 199.17 206.12 199.31 206.32
C199.46 206.52 199.53 206.79 199.53 207.12
C199.53 207.49 199.45 207.78 199.27 207.99
C199.09 208.21 198.86 208.32 198.58 208.32
L198.49 208.31
L198.43 209.08
C198.59 209.01 198.72 208.98 198.83 208.98
C199.09 208.98 199.30 209.11 199.48 209.36
C199.66 209.61 199.74 209.95 199.74 210.36
C199.74 210.80 199.65 211.16 199.46 211.44
C199.26 211.71 199.04 211.85 198.78 211.85
C198.29 211.85 197.99 211.39 197.87 210.45
L197.30 210.57
C197.33 211.18 197.49 211.67 197.77 212.03
C198.05 212.39 198.39 212.58 198.78 212.58
C199.21 212.58 199.58 212.37 199.89 211.95
C200.20 211.54 200.35 211.00 200.35 210.35
C200.35 210.04 200.32 209.76 200.24 209.51
C200.17 209.26 200.07 209.06 199.95 208.91
C199.82 208.76 199.67 208.66 199.48 208.59
C199.69 208.45 199.84 208.25 199.96 208.00
C200.07 207.75 200.13 207.47 200.13 207.14
C200.13 206.61 199.99 206.17 199.73 205.82
C199.46 205.47 199.14 205.30 198.76 205.30
Z
" fill="black" fill-rule="nonzero" />
<path d="
M207.13 157.74
C206.70 157.74 206.34 157.91 206.07 158.26
C205.81 158.60 205.65 159.12 205.61 159.80
L206.20 159.89
C206.20 159.43 206.29 159.08 206.46 158.83
C206.63 158.59 206.85 158.46 207.11 158.46
C207.36 158.46 207.57 158.58 207.74 158.81
C207.91 159.03 208.00 159.33 208.00 159.69
C208.00 160.01 207.91 160.35 207.75 160.71
C207.58 161.07 207.23 161.59 206.69 162.26
C206.24 162.83 205.92 163.33 205.75 163.75
C205.58 164.17 205.49 164.55 205.50 164.89
L208.59 164.89
L208.59 164.05
L206.30 164.05
C206.36 163.89 206.44 163.73 206.54 163.57
C206.64 163.42 206.86 163.12 207.20 162.68
C207.74 161.99 208.10 161.43 208.30 161.02
C208.49 160.60 208.58 160.16 208.58 159.71
C208.58 159.20 208.46 158.74 208.22 158.34
C207.97 157.94 207.61 157.74 207.13 157.74
Z
M210.99 157.74
C210.89 158.05 210.72 158.37 210.47 158.70
C210.23 159.02 209.95 159.30 209.64 159.53
L209.64 160.37
C209.82 160.27 210.03 160.12 210.25 159.91
C210.47 159.71 210.65 159.51 210.78 159.32
L210.78 164.89
L211.36 164.89
L211.36 157.74
Z
" fill="black" fill-rule="nonzero" />
<path d="
M208.95 169.55
C208.37 169.55 207.90 169.73 207.54 170.10
C207.19 170.47 206.98 171.00 206.93 171.71
L206.92 171.85
L207.05 171.86
L207.78 171.95
L207.94 171.97
L207.94 171.81
C207.94 171.39 208.03 171.08 208.22 170.86
C208.41 170.65 208.64 170.54 208.92 170.54
C208.93 170.54 208.93 170.54 208.93 170.54
C208.93 170.54 208.93 170.54 208.93 170.54
C209.20 170.54 209.42 170.64 209.60 170.84
C209.78 171.04 209.88 171.30 209.88 171.62
C209.88 171.90 209.78 172.21 209.59 172.55
C209.39 172.90 208.96 173.40 208.31 174.05
C207.73 174.63 207.33 175.13 207.11 175.56
C206.89 176.00 206.78 176.40 206.79 176.76
L206.80 176.89
L210.89 176.89
L210.89 176.75
L210.89 175.92
L210.89 175.78
L208.16 175.78
C208.21 175.70 208.27 175.62 208.33 175.54
C208.45 175.39 208.72 175.10 209.14 174.67
C209.81 173.97 210.27 173.42 210.51 173.00
C210.76 172.56 210.88 172.11 210.88 171.64
C210.88 171.10 210.72 170.62 210.40 170.20
C210.07 169.76 209.59 169.55 208.95 169.55
Z
" fill="white" fill-rule="nonzero" />
<path d="
M209.23 181.59
C209.10 181.90 208.89 182.22 208.59 182.54
C208.29 182.86 207.95 183.14 207.56 183.36
L207.56 184.19
C207.79 184.09 208.04 183.94 208.32 183.74
C208.59 183.54 208.81 183.35 208.98 183.15
L208.98 188.66
L209.69 188.66
L209.69 181.59
Z
" fill="black" fill-rule="nonzero" />
<path d="
M207.70 193.50
L207.14 197.12
L207.81 197.22
C207.92 197.01 208.07 196.84 208.25 196.72
C208.44 196.60 208.64 196.54 208.86 196.54
C209.21 196.54 209.51 196.68 209.74 196.95
C209.98 197.23 210.09 197.62 210.09 198.12
C210.09 198.66 209.97 199.08 209.73 199.39
C209.49 199.70 209.20 199.85 208.86 199.85
C208.59 199.85 208.36 199.74 208.15 199.52
C207.95 199.30 207.82 198.97 207.76 198.52
L207.02 198.60
C207.07 199.21 207.26 199.69 207.61 200.04
C207.95 200.39 208.37 200.56 208.87 200.56
C209.47 200.56 209.95 200.32 210.31 199.82
C210.66 199.33 210.84 198.74 210.84 198.06
C210.84 197.36 210.66 196.80 210.31 196.39
C209.95 195.98 209.53 195.78 209.05 195.78
C208.66 195.78 208.30 195.92 207.96 196.22
L208.27 194.33
L210.57 194.33
L210.57 193.50
Z
" fill="black" fill-rule="nonzero" />
<path d="
M207.35 205.30
C207.26 205.61 207.09 205.93 206.84 206.26
C206.60 206.58 206.32 206.86 206.01 207.09
L206.01 207.93
C206.19 207.83 206.40 207.68 206.62 207.47
C206.84 207.27 207.02 207.07 207.15 206.88
L207.15 212.45
L207.73 212.45
L207.73 205.30
Z
M209.75 205.43
L209.30 209.08
L209.84 209.19
C209.93 208.97 210.05 208.81 210.20 208.68
C210.35 208.56 210.51 208.50 210.69 208.50
C210.97 208.50 211.21 208.64 211.40 208.92
C211.59 209.20 211.69 209.60 211.69 210.11
C211.69 210.65 211.59 211.07 211.39 211.39
C211.20 211.70 210.96 211.85 210.69 211.85
C210.47 211.85 210.28 211.74 210.12 211.52
C209.95 211.30 209.85 210.96 209.80 210.51
L209.20 210.59
C209.24 211.21 209.39 211.69 209.67 212.05
C209.95 212.40 210.29 212.57 210.70 212.57
C211.18 212.57 211.57 212.32 211.86 211.83
C212.15 211.33 212.29 210.73 212.29 210.04
C212.29 209.33 212.15 208.77 211.86 208.35
C211.57 207.94 211.23 207.73 210.84 207.73
C210.53 207.73 210.24 207.88 209.96 208.18
L210.21 206.26
L212.07 206.26
L212.07 205.43
Z
" fill="black" fill-rule="nonzero" />
<path d="
M220.74 157.72
C220.30 157.72 219.92 157.87 219.60 158.18
C219.29 158.49 219.09 158.94 219.00 159.54
L219.70 159.70
C219.76 159.27 219.88 158.95 220.06 158.74
C220.25 158.53 220.48 158.43 220.75 158.43
C221.01 158.43 221.24 158.53 221.42 158.73
C221.60 158.93 221.69 159.19 221.69 159.52
C221.69 159.88 221.58 160.17 221.37 160.38
C221.15 160.60 220.86 160.71 220.52 160.71
L220.41 160.70
L220.32 161.45
C220.52 161.39 220.69 161.36 220.82 161.36
C221.14 161.36 221.41 161.48 221.62 161.73
C221.84 161.98 221.95 162.31 221.95 162.72
C221.95 163.16 221.83 163.51 221.60 163.78
C221.36 164.06 221.08 164.19 220.76 164.19
C220.16 164.19 219.78 163.73 219.64 162.81
L218.93 162.93
C218.98 163.53 219.17 164.01 219.51 164.37
C219.86 164.73 220.27 164.91 220.77 164.91
C221.30 164.91 221.75 164.70 222.13 164.29
C222.51 163.88 222.70 163.35 222.70 162.71
C222.70 162.40 222.66 162.13 222.57 161.88
C222.47 161.63 222.35 161.44 222.20 161.29
C222.05 161.14 221.86 161.04 221.63 160.97
C221.88 160.83 222.07 160.64 222.21 160.39
C222.35 160.15 222.42 159.86 222.42 159.54
C222.42 159.02 222.26 158.58 221.93 158.24
C221.61 157.89 221.21 157.72 220.74 157.72
Z
" fill="black" fill-rule="nonzero" />
<path d="
M219.04 169.50
C218.56 169.50 218.16 169.69 217.87 170.07
C217.58 170.44 217.42 170.98 217.37 171.70
L217.37 171.82
L217.49 171.84
L218.08 171.94
L218.25 171.96
L218.25 171.80
C218.25 171.37 218.32 171.04 218.48 170.82
C218.62 170.61 218.80 170.51 219.02 170.51
C219.02 170.51 219.02 170.51 219.02 170.51
C219.02 170.51 219.02 170.51 219.02 170.51
C219.22 170.51 219.39 170.61 219.53 170.80
C219.68 171.00 219.76 171.27 219.76 171.60
C219.76 171.89 219.68 172.21 219.52 172.56
C219.36 172.91 219.02 173.42 218.49 174.07
C218.02 174.66 217.70 175.17 217.52 175.60
C217.34 176.04 217.26 176.44 217.26 176.80
L217.27 176.94
L220.64 176.94
L220.64 176.80
L220.64 175.96
L220.64 175.81
L218.42 175.81
C218.46 175.73 218.51 175.64 218.57 175.55
C218.66 175.40 218.88 175.11 219.22 174.67
C219.76 173.97 220.13 173.41 220.33 172.98
C220.53 172.55 220.63 172.09 220.63 171.62
C220.63 171.08 220.50 170.60 220.24 170.17
C219.97 169.73 219.57 169.50 219.04 169.50
Z
M222.67 169.50
C222.19 169.50 221.80 169.69 221.50 170.07
C221.21 170.44 221.05 170.98 221.00 171.70
L221.00 171.82
L221.12 171.84
L221.71 171.94
L221.88 171.96
L221.88 171.80
C221.88 171.37 221.95 171.04 222.11 170.82
C222.25 170.61 222.43 170.51 222.65 170.51
C222.65 170.51 222.65 170.51 222.65 170.51
C222.65 170.51 222.65 170.51 222.65 170.51
C222.85 170.51 223.02 170.61 223.16 170.80
C223.31 171.00 223.39 171.27 223.39 171.60
C223.39 171.89 223.31 172.21 223.15 172.56
C222.99 172.91 222.65 173.42 222.12 174.07
C221.65 174.66 221.33 175.17 221.15 175.60
C220.97 176.04 220.89 176.44 220.89 176.80
L220.90 176.94
L224.27 176.94
L224.27 176.80
L224.27 175.96
L224.27 175.81
L222.05 175.81
C222.09 175.73 222.14 175.64 222.20 175.55
C222.29 175.40 222.51 175.11 222.85 174.67
C223.39 173.97 223.76 173.41 223.96 172.98
C224.16 172.55 224.26 172.09 224.26 171.62
C224.26 171.08 224.13 170.60 223.87 170.17
C223.60 169.73 223.20 169.50 222.67 169.50
Z
" fill="white" fill-rule="nonzero" />
<path d="
M219.04 181.49
C218.60 181.49 218.25 181.66 217.98 182.01
C217.71 182.35 217.56 182.87 217.52 183.55
L218.11 183.64
C218.11 183.18 218.19 182.83 218.36 182.58
C218.53 182.34 218.75 182.21 219.02 182.21
C219.27 182.21 219.48 182.33 219.65 182.56
C219.82 182.78 219.90 183.08 219.90 183.44
C219.90 183.76 219.82 184.10 219.65 184.46
C219.49 184.82 219.14 185.34 218.60 186.01
C218.14 186.58 217.83 187.08 217.65 187.50
C217.48 187.92 217.40 188.30 217.41 188.64
L220.50 188.64
L220.50 187.80
L218.20 187.80
C218.27 187.64 218.35 187.48 218.45 187.32
C218.55 187.17 218.77 186.87 219.11 186.43
C219.65 185.74 220.01 185.18 220.20 184.77
C220.39 184.35 220.49 183.92 220.49 183.46
C220.49 182.95 220.37 182.49 220.12 182.09
C219.88 181.69 219.52 181.49 219.04 181.49
Z
M221.66 181.62
L221.20 185.27
L221.74 185.38
C221.83 185.16 221.95 184.99 222.10 184.87
C222.26 184.75 222.42 184.69 222.59 184.69
C222.88 184.69 223.12 184.83 223.31 185.11
C223.50 185.39 223.59 185.79 223.59 186.29
C223.59 186.84 223.50 187.26 223.30 187.57
C223.10 187.89 222.87 188.04 222.60 188.04
C222.38 188.04 222.19 187.93 222.02 187.71
C221.86 187.49 221.75 187.15 221.71 186.70
L221.10 186.78
C221.14 187.40 221.30 187.88 221.58 188.24
C221.86 188.59 222.20 188.76 222.60 188.76
C223.09 188.76 223.48 188.51 223.77 188.02
C224.06 187.52 224.20 186.92 224.20 186.23
C224.20 185.52 224.06 184.96 223.77 184.54
C223.48 184.13 223.14 183.92 222.75 183.92
C222.44 183.92 222.14 184.07 221.86 184.37
L222.12 182.45
L223.98 182.45
L223.98 181.62
Z
" fill="black" fill-rule="nonzero" />
<path d="
M219.04 205.36
C218.60 205.36 218.25 205.53 217.98 205.88
C217.71 206.22 217.56 206.74 217.52 207.42
L218.11 207.51
C218.11 207.05 218.19 206.70 218.36 206.45
C218.53 206.21 218.75 206.08 219.02 206.08
C219.27 206.08 219.48 206.20 219.65 206.43
C219.82 206.66 219.90 206.95 219.90 207.31
C219.90 207.63 219.82 207.97 219.65 208.33
C219.49 208.70 219.14 209.21 218.60 209.88
C218.14 210.45 217.83 210.95 217.65 211.37
C217.48 211.79 217.40 212.17 217.41 212.51
L220.50 212.51
L220.50 211.67
L218.20 211.67
C218.27 211.51 218.35 211.35 218.45 211.20
C218.55 211.04 218.77 210.74 219.11 210.30
C219.65 209.61 220.01 209.05 220.20 208.64
C220.39 208.22 220.49 207.79 220.49 207.33
C220.49 206.82 220.37 206.36 220.12 205.96
C219.88 205.56 219.52 205.36 219.04 205.36
Z
M221.14 205.48
L221.14 206.32
L223.43 206.32
C223.14 206.83 222.87 207.44 222.61 208.16
C222.36 208.88 222.17 209.63 222.02 210.43
C221.88 211.22 221.80 211.92 221.79 212.51
L222.39 212.51
C222.44 211.36 222.63 210.20 222.98 209.02
C223.32 207.85 223.71 206.89 224.17 206.16
L224.17 205.48
Z
" fill="black" fill-rule="nonzero" />
</g>
<g  transform="translate(1.19,228.58)" >
<path d="
M106.49 2.94
C106.33 2.94 106.19 3.00 106.07 3.11
C105.96 3.23 105.90 3.37 105.90 3.53
C105.90 3.69 105.96 3.83 106.08 3.95
C106.19 4.07 106.33 4.12 106.49 4.12
C106.66 4.12 106.80 4.07 106.91 3.95
C107.02 3.83 107.08 3.69 107.08 3.53
C107.08 3.37 107.02 3.23 106.91 3.11
C106.80 3.00 106.66 2.94 106.49 2.94
Z
M111.46 8.04
L111.46 10.07
C110.98 10.46 110.60 10.65 110.30 10.65
C110.08 10.65 109.89 10.56 109.73 10.37
C109.56 10.19 109.48 9.96 109.48 9.68
C109.48 9.46 109.54 9.25 109.67 9.07
C109.81 8.88 110.02 8.70 110.33 8.53
C110.50 8.44 110.88 8.27 111.46 8.04
Z
M99.82 3.77
C100.75 3.77 101.51 4.08 102.10 4.71
C102.69 5.34 102.99 6.20 102.99 7.29
C102.99 8.37 102.69 9.23 102.10 9.86
C101.51 10.49 100.76 10.81 99.86 10.81
C99.53 10.81 99.12 10.75 98.62 10.64
L98.62 3.94
C99.07 3.83 99.47 3.77 99.82 3.77
Z
M128.26 3.55
C128.48 3.55 128.68 3.61 128.83 3.74
C129.06 3.93 129.24 4.24 129.38 4.69
C129.56 5.29 129.65 6.04 129.65 6.94
C129.65 8.15 129.57 9.09 129.39 9.76
C129.27 10.20 129.10 10.52 128.88 10.70
C128.65 10.89 128.43 10.99 128.22 10.99
C127.79 10.99 127.46 10.70 127.24 10.12
C126.97 9.43 126.83 8.55 126.83 7.46
C126.83 6.79 126.88 6.11 126.99 5.42
C127.09 4.73 127.28 4.22 127.55 3.90
C127.76 3.67 128.00 3.55 128.26 3.55
Z
M96.37 3.33
L96.37 3.54
L96.67 3.54
C96.97 3.54 97.19 3.63 97.34 3.80
C97.45 3.92 97.51 4.23 97.51 4.72
L97.51 9.82
C97.51 10.26 97.46 10.55 97.38 10.68
C97.24 10.89 97.00 11.00 96.67 11.00
L96.37 11.00
L96.37 11.21
L99.90 11.21
C101.43 11.21 102.57 10.80 103.32 9.98
C103.98 9.24 104.32 8.33 104.32 7.23
C104.32 6.41 104.13 5.69 103.76 5.07
C103.38 4.44 102.89 4.00 102.27 3.73
C101.66 3.46 100.76 3.33 99.58 3.33
Z
M106.72 5.73
L105.12 6.38
L105.20 6.59
C105.35 6.53 105.48 6.50 105.59 6.50
C105.69 6.50 105.77 6.53 105.83 6.58
C105.89 6.62 105.93 6.71 105.96 6.83
C105.99 7.00 106.01 7.38 106.01 7.96
L106.01 10.01
C106.01 10.34 105.98 10.56 105.93 10.68
C105.88 10.79 105.81 10.88 105.72 10.93
C105.63 10.98 105.46 11.00 105.20 11.00
L105.20 11.21
L107.78 11.21
L107.78 11.00
C107.53 11.00 107.36 10.98 107.26 10.92
C107.17 10.87 107.10 10.79 107.05 10.68
C107.00 10.56 106.98 10.34 106.98 10.01
L106.98 5.73
Z
M122.63 3.16
L120.71 4.10
L120.79 4.28
C121.05 4.16 121.25 4.10 121.39 4.10
C121.49 4.10 121.58 4.13 121.65 4.19
C121.72 4.25 121.77 4.34 121.80 4.46
C121.84 4.62 121.86 4.99 121.86 5.57
L121.86 9.82
C121.86 10.30 121.84 10.58 121.79 10.67
C121.75 10.77 121.68 10.85 121.57 10.90
C121.46 10.96 121.22 10.99 120.85 11.00
L120.85 11.21
L123.81 11.21
L123.81 11.00
C123.46 10.99 123.22 10.96 123.10 10.90
C122.99 10.84 122.91 10.76 122.87 10.65
C122.84 10.54 122.82 10.27 122.82 9.82
L122.82 3.16
Z
M110.65 5.73
C110.03 5.73 109.56 5.87 109.21 6.15
C108.87 6.43 108.70 6.73 108.70 7.07
C108.70 7.24 108.75 7.38 108.84 7.48
C108.93 7.58 109.05 7.63 109.19 7.63
C109.34 7.63 109.46 7.58 109.55 7.49
C109.64 7.39 109.69 7.25 109.69 7.07
L109.67 6.74
C109.67 6.56 109.75 6.41 109.89 6.28
C110.04 6.15 110.23 6.08 110.48 6.08
C110.80 6.08 111.04 6.18 111.21 6.38
C111.38 6.58 111.46 6.94 111.46 7.47
L111.46 7.68
C110.55 8.02 109.90 8.30 109.50 8.53
C109.11 8.76 108.83 9.01 108.67 9.28
C108.56 9.47 108.50 9.69 108.50 9.95
C108.50 10.36 108.62 10.69 108.86 10.95
C109.09 11.20 109.40 11.32 109.77 11.32
C110.00 11.32 110.23 11.27 110.44 11.18
C110.57 11.11 110.92 10.87 111.46 10.45
C111.47 10.76 111.53 10.99 111.64 11.12
C111.75 11.25 111.90 11.32 112.09 11.32
C112.49 11.32 112.90 11.03 113.34 10.45
L113.34 10.12
C113.10 10.35 112.95 10.49 112.87 10.54
C112.82 10.57 112.77 10.58 112.70 10.58
C112.65 10.58 112.59 10.57 112.55 10.53
C112.50 10.49 112.47 10.41 112.45 10.30
C112.43 10.18 112.42 9.87 112.42 9.36
L112.42 7.55
C112.42 7.04 112.39 6.70 112.32 6.53
C112.21 6.28 112.04 6.09 111.81 5.97
C111.51 5.81 111.12 5.73 110.65 5.73
Z
M128.26 3.16
C127.89 3.16 127.53 3.29 127.18 3.54
C126.73 3.86 126.37 4.34 126.10 4.99
C125.83 5.64 125.69 6.42 125.69 7.32
C125.69 8.37 125.91 9.27 126.33 10.02
C126.83 10.91 127.45 11.35 128.21 11.35
C128.59 11.35 128.98 11.21 129.39 10.92
C129.80 10.63 130.14 10.17 130.40 9.53
C130.66 8.89 130.79 8.11 130.79 7.19
C130.79 5.89 130.49 4.85 129.89 4.09
C129.41 3.47 128.87 3.16 128.26 3.16
Z
M114.85 10.08
C114.67 10.08 114.52 10.15 114.39 10.27
C114.26 10.39 114.20 10.55 114.20 10.73
C114.20 10.91 114.26 11.06 114.39 11.19
C114.52 11.31 114.67 11.38 114.85 11.38
C115.03 11.38 115.18 11.31 115.30 11.19
C115.43 11.06 115.49 10.91 115.49 10.73
C115.49 10.55 115.43 10.40 115.31 10.27
C115.18 10.15 115.03 10.08 114.85 10.08
Z
" fill="black" fill-rule="nonzero" />
</g>
<g  transform="translate(1.19,242.50)" >
<circle cx="101.19" cy="6.08" r="5.98" fill="black"/>
<path d="
M103.02 5.89
C103.22 5.89 103.40 6.00 103.54 6.24
C103.70 6.49 103.79 6.86 103.79 7.34
C103.79 7.83 103.70 8.21 103.54 8.48
C103.39 8.73 103.23 8.85 103.06 8.85
C103.06 8.85 103.06 8.85 103.06 8.85
C103.06 8.85 103.05 8.85 103.05 8.85
C102.85 8.85 102.67 8.72 102.50 8.45
C102.32 8.16 102.23 7.77 102.23 7.29
C102.23 6.84 102.32 6.49 102.48 6.24
C102.64 6.00 102.82 5.89 103.01 5.89
C103.02 5.89 103.02 5.89 103.02 5.89
C103.02 5.89 103.02 5.89 103.02 5.89
Z
M99.39 2.30
C98.91 2.30 98.52 2.49 98.22 2.87
C97.93 3.24 97.77 3.78 97.73 4.49
L97.72 4.62
L97.85 4.64
L98.44 4.73
L98.60 4.76
L98.60 4.59
C98.60 4.16 98.68 3.84 98.83 3.62
C98.97 3.41 99.15 3.31 99.37 3.31
C99.37 3.31 99.37 3.31 99.37 3.31
C99.37 3.31 99.37 3.31 99.38 3.31
C99.58 3.31 99.75 3.40 99.89 3.59
C100.04 3.80 100.11 4.06 100.11 4.39
C100.11 4.69 100.03 5.01 99.88 5.35
C99.72 5.71 99.37 6.21 98.84 6.87
C98.37 7.45 98.05 7.96 97.87 8.40
C97.70 8.84 97.61 9.24 97.62 9.60
L97.62 9.73
L100.99 9.73
L100.99 9.59
L100.99 8.75
L100.99 8.61
L98.77 8.61
C98.82 8.52 98.86 8.44 98.92 8.35
C99.02 8.20 99.23 7.90 99.57 7.47
C100.12 6.77 100.49 6.20 100.68 5.78
C100.88 5.34 100.98 4.89 100.98 4.41
C100.98 3.88 100.85 3.39 100.60 2.97
C100.32 2.52 99.92 2.30 99.39 2.30
Z
M103.10 2.30
C102.83 2.30 102.58 2.38 102.35 2.55
C102.13 2.70 101.94 2.94 101.77 3.25
C101.45 3.86 101.29 4.86 101.29 6.26
C101.29 7.53 101.45 8.44 101.76 8.99
C101.93 9.27 102.12 9.49 102.33 9.63
C102.55 9.78 102.79 9.86 103.05 9.86
C103.35 9.86 103.62 9.75 103.86 9.55
C104.10 9.34 104.29 9.04 104.44 8.63
C104.58 8.23 104.66 7.78 104.66 7.29
C104.66 6.55 104.51 5.97 104.22 5.52
C103.91 5.06 103.55 4.83 103.13 4.83
C102.87 4.83 102.63 4.92 102.41 5.10
C102.32 5.18 102.23 5.26 102.16 5.36
L102.16 5.36
C102.19 4.78 102.27 4.32 102.40 3.99
C102.49 3.75 102.60 3.57 102.72 3.46
C102.82 3.35 102.94 3.30 103.07 3.30
C103.07 3.30 103.07 3.30 103.07 3.30
C103.07 3.30 103.07 3.30 103.07 3.30
C103.24 3.30 103.38 3.39 103.50 3.58
C103.60 3.72 103.67 3.96 103.72 4.30
L103.74 4.44
L103.88 4.42
L104.45 4.36
L104.59 4.34
L104.57 4.20
C104.52 3.60 104.36 3.13 104.11 2.81
C103.84 2.47 103.50 2.30 103.10 2.30
Z
" fill="white" fill-rule="nonzero" />
<path d="
M112.88 7.06
L112.88 8.88
C112.44 9.23 112.09 9.40 111.83 9.40
C111.63 9.40 111.46 9.32 111.31 9.16
C111.16 8.99 111.09 8.78 111.09 8.53
C111.09 8.33 111.15 8.15 111.26 7.98
C111.38 7.81 111.58 7.65 111.86 7.50
C112.01 7.41 112.35 7.26 112.88 7.06
Z
M116.15 3.55
C116.00 3.90 115.89 4.14 115.81 4.27
C115.65 4.52 115.48 4.74 115.27 4.92
C115.07 5.11 114.88 5.24 114.69 5.31
L114.69 5.49
L115.44 5.49
L115.44 8.71
C115.44 9.05 115.48 9.31 115.55 9.47
C115.63 9.64 115.74 9.77 115.89 9.86
C116.05 9.94 116.20 9.99 116.37 9.99
C116.60 9.99 116.83 9.90 117.06 9.73
C117.28 9.56 117.45 9.30 117.57 8.96
L117.37 8.96
C117.31 9.10 117.23 9.20 117.12 9.28
C117.01 9.35 116.90 9.38 116.78 9.38
C116.64 9.38 116.53 9.33 116.44 9.22
C116.35 9.11 116.31 8.90 116.31 8.59
L116.31 5.49
L117.43 5.49
L117.43 5.12
L116.31 5.12
L116.31 3.55
Z
M112.14 4.98
C111.59 4.98 111.16 5.10 110.85 5.36
C110.54 5.61 110.39 5.88 110.39 6.18
C110.39 6.34 110.43 6.46 110.51 6.55
C110.60 6.64 110.70 6.69 110.83 6.69
C110.96 6.69 111.07 6.65 111.15 6.56
C111.23 6.47 111.27 6.35 111.27 6.19
L111.26 5.88
C111.26 5.73 111.33 5.59 111.46 5.48
C111.59 5.36 111.77 5.30 111.99 5.30
C112.28 5.30 112.50 5.39 112.65 5.57
C112.80 5.74 112.88 6.07 112.88 6.55
L112.88 6.74
C112.05 7.04 111.46 7.29 111.11 7.50
C110.76 7.71 110.51 7.93 110.36 8.17
C110.26 8.34 110.21 8.54 110.21 8.78
C110.21 9.15 110.32 9.44 110.53 9.67
C110.74 9.90 111.02 10.01 111.35 10.01
C111.56 10.01 111.76 9.97 111.95 9.88
C112.08 9.82 112.38 9.60 112.88 9.22
C112.88 9.51 112.93 9.71 113.03 9.83
C113.13 9.95 113.27 10.00 113.44 10.00
C113.80 10.00 114.17 9.74 114.56 9.22
L114.56 8.93
C114.35 9.14 114.21 9.26 114.14 9.31
C114.09 9.33 114.04 9.35 113.99 9.35
C113.94 9.35 113.89 9.33 113.85 9.29
C113.81 9.26 113.78 9.19 113.76 9.09
C113.75 8.98 113.74 8.70 113.74 8.25
L113.74 6.62
C113.74 6.16 113.71 5.85 113.64 5.70
C113.55 5.47 113.39 5.30 113.19 5.19
C112.92 5.05 112.57 4.98 112.14 4.98
Z
" fill="black" fill-rule="nonzero" />
<circle cx="126.19" cy="6.08" r="5.85" fill="white"/>
<circle cx="126.19" cy="6.08" r="5.85" fill="none" stroke="black" stroke-width="0.25px"/>
<path d="
M126.11 4.03
L127.16 6.88
L125.07 6.88
L126.11 4.03
Z
M125.31 2.24
L122.32 9.91
L123.96 9.91
L124.60 8.17
L127.66 8.17
L128.33 9.91
L130.01 9.91
L126.94 2.24
Z
" fill="black" fill-rule="nonzero" />
</g>
</g>
</svg>
