<?xml version="1.0" encoding="utf-8" standalone="no"?>
<!DOCTYPE svg PUBLIC "-//W3C//DTD SVG 1.0//EN" "http://www.w3.org/TR/SVG/DTD/svg11.dtd" >
<svg version="1.1" baseProfile="full"  width="319.13385" height="338.46454" viewBox="0 0 229.77638 243.69449" preserveAspectRatio="xMidYMid" xmlns="http://www.w3.org/2000/svg" >

<g lengthAdjust="spacingAndGlyphs" xml:space='preserve' >
<g  transform="translate(1.19,1.19)" >
<path d="
M0.0 0.0
L0.0 227.39
L227.39 227.39
L227.39 0.0
Z
" fill="none" fill-rule="nonzero" />
<line x1="6.54" y1="6.54" x2="6.54" y2="220.84" fill="none" stroke="black" stroke-width="0.87px" stroke-linecap="square" />
<line x1="18.45" y1="6.54" x2="18.45" y2="220.84" fill="none" stroke="black" stroke-width="0.25px" stroke-linecap="butt" />
<line x1="30.35" y1="6.54" x2="30.35" y2="220.84" fill="none" stroke="black" stroke-width="0.25px" stroke-linecap="butt" />
<line x1="42.26" y1="6.54" x2="42.26" y2="220.84" fill="none" stroke="black" stroke-width="0.25px" stroke-linecap="butt" />
<line x1="54.17" y1="6.54" x2="54.17" y2="220.84" fill="none" stroke="black" stroke-width="0.25px" stroke-linecap="butt" />
<line x1="66.07" y1="6.54" x2="66.07" y2="220.84" fill="none" stroke="black" stroke-width="0.25px" stroke-linecap="butt" />
<line x1="77.98" y1="6.54" x2="77.98" y2="220.84" fill="none" stroke="black" stroke-width="0.25px" stroke-linecap="butt" />
<line x1="89.88" y1="6.54" x2="89.88" y2="220.84" fill="none" stroke="black" stroke-width="0.25px" stroke-linecap="butt" />
<line x1="101.79" y1="6.54" x2="101.79" y2="220.84" fill="none" stroke="black" stroke-width="0.25px" stroke-linecap="butt" />
<line x1="113.69" y1="6.54" x2="113.69" y2="220.84" fill="none" stroke="black" stroke-width="0.25px" stroke-linecap="butt" />
<line x1="125.60" y1="6.54" x2="125.60" y2="220.84" fill="none" stroke="black" stroke-width="0.25px" stroke-linecap="butt" />
<line x1="137.50" y1="6.54" x2="137.50" y2="220.84" fill="none" stroke="black" stroke-width="0.25px" stroke-linecap="butt" />
<line x1="149.41" y1="6.54" x2="149.41" y2="220.84" fill="none" stroke="black" stroke-width="0.25px" stroke-linecap="butt" />
<line x1="161.31" y1="6.54" x2="161.31" y2="220.84" fill="none" stroke="black" stroke-width="0.25px" stroke-linecap="butt" />
<line x1="173.22" y1="6.54" x2="173.22" y2="220.84" fill="none" stroke="black" stroke-width="0.25px" stroke-linecap="butt" />
<line x1="185.13" y1="6.54" x2="185.13" y2="220.84" fill="none" stroke="black" stroke-width="0.25px" stroke-linecap="butt" />
<line x1="197.03" y1="6.54" x2="197.03" y2="220.84" fill="none" stroke="black" stroke-width="0.25px" stroke-linecap="butt" />
<line x1="208.94" y1="6.54" x2="208.94" y2="167.27" fill="none" stroke="black" stroke-width="0.25px" stroke-linecap="butt" />
<line x1="208.94" y1="191.08" x2="208.94" y2="220.84" fill="none" stroke="black" stroke-width="0.25px" stroke-linecap="butt" />
<line x1="220.84" y1="6.54" x2="220.84" y2="220.84" fill="none" stroke="black" stroke-width="0.87px" stroke-linecap="square" />
<line x1="6.54" y1="6.54" x2="220.84" y2="6.54" fill="none" stroke="black" stroke-width="0.87px" stroke-linecap="square" />
<line x1="6.54" y1="18.45" x2="220.84" y2="18.45" fill="none" stroke="black" stroke-width="0.25px" stroke-linecap="butt" />
<line x1="6.54" y1="30.35" x2="220.84" y2="30.35" fill="none" stroke="black" stroke-width="0.25px" stroke-linecap="butt" />
<line x1="6.54" y1="42.26" x2="220.84" y2="42.26" fill="none" stroke="black" stroke-width="0.25px" stroke-linecap="butt" />
<line x1="6.54" y1="54.17" x2="220.84" y2="54.17" fill="none" stroke="black" stroke-width="0.25px" stroke-linecap="butt" />
<line x1="6.54" y1="66.07" x2="220.84" y2="66.07" fill="none" stroke="black" stroke-width="0.25px" stroke-linecap="butt" />
<line x1="6.54" y1="77.98" x2="220.84" y2="77.98" fill="none" stroke="black" stroke-width="0.25px" stroke-linecap="butt" />
<line x1="6.54" y1="89.88" x2="220.84" y2="89.88" fill="none" stroke="black" stroke-width="0.25px" stroke-linecap="butt" />
<line x1="6.54" y1="101.79" x2="220.84" y2="101.79" fill="none" stroke="black" stroke-width="0.25px" stroke-linecap="butt" />
<line x1="6.54" y1="113.69" x2="220.84" y2="113.69" fill="none" stroke="black" stroke-width="0.25px" stroke-linecap="butt" />
<line x1="6.54" y1="125.60" x2="220.84" y2="125.60" fill="none" stroke="black" stroke-width="0.25px" stroke-linecap="butt" />
<line x1="6.54" y1="137.50" x2="220.84" y2="137.50" fill="none" stroke="black" stroke-width="0.25px" stroke-linecap="butt" />
<line x1="6.54" y1="149.41" x2="220.84" y2="149.41" fill="none" stroke="black" stroke-width="0.25px" stroke-linecap="butt" />
<line x1="6.54" y1="161.31" x2="220.84" y2="161.31" fill="none" stroke="black" stroke-width="0.25px" stroke-linecap="butt" />
<line x1="6.54" y1="173.22" x2="202.98" y2="173.22" fill="none" stroke="black" stroke-width="0.25px" stroke-linecap="butt" />
<line x1="214.89" y1="173.22" x2="220.84" y2="173.22" fill="none" stroke="black" stroke-width="0.25px" stroke-linecap="butt" />
<line x1="6.54" y1="185.13" x2="202.98" y2="185.13" fill="none" stroke="black" stroke-width="0.25px" stroke-linecap="butt" />
<line x1="214.89" y1="185.13" x2="220.84" y2="185.13" fill="none" stroke="black" stroke-width="0.25px" stroke-linecap="butt" />
<line x1="6.54" y1="197.03" x2="220.84" y2="197.03" fill="none" stroke="black" stroke-width="0.25px" stroke-linecap="butt" />
<line x1="6.54" y1="208.94" x2="220.84" y2="208.94" fill="none" stroke="black" stroke-width="0.25px" stroke-linecap="butt" />
<line x1="6.54" y1="220.84" x2="220.84" y2="220.84" fill="none" stroke="black" stroke-width="0.87px" stroke-linecap="square" />
<circle cx="30.35" cy="54.17" r="5.98" fill="black"/>
<circle cx="30.35" cy="89.88" r="5.85" fill="white"/>
<circle cx="30.35" cy="89.88" r="5.85" fill="none" stroke="black" stroke-width="0.25px"/>
<circle cx="30.35" cy="125.60" r="5.85" fill="white"/>
<circle cx="30.35" cy="125.60" r="5.85" fill="none" stroke="black" stroke-width="0.25px"/>
<circle cx="30.35" cy="161.31" r="5.85" fill="white"/>
<circle cx="30.35" cy="161.31" r="5.85" fill="none" stroke="black" stroke-width="0.25px"/>
<circle cx="42.26" cy="30.35" r="5.85" fill="white"/>
<circle cx="42.26" cy="30.35" r="5.85" fill="none" stroke="black" stroke-width="0.25px"/>
<circle cx="42.26" cy="42.26" r="1.27" fill="black"/>
<circle cx="42.26" cy="77.98" r="5.85" fill="white"/>
<circle cx="42.26" cy="77.98" r="5.85" fill="none" stroke="black" stroke-width="0.25px"/>
<circle cx="42.26" cy="89.88" r="5.98" fill="black"/>
<circle cx="42.26" cy="101.79" r="5.85" fill="white"/>
<circle cx="42.26" cy="101.79" r="5.85" fill="none" stroke="black" stroke-width="0.25px"/>
<circle cx="42.26" cy="113.69" r="1.27" fill="black"/>
<circle cx="42.26" cy="185.13" r="5.98" fill="black"/>
<circle cx="54.17" cy="66.07" r="5.98" fill="black"/>
<circle cx="54.17" cy="77.98" r="5.98" fill="black"/>
<circle cx="54.17" cy="89.88" r="5.98" fill="black"/>
<circle cx="66.07" cy="197.03" r="5.98" fill="black"/>
<circle cx="77.98" cy="30.35" r="5.85" fill="white"/>
<circle cx="77.98" cy="30.35" r="5.85" fill="none" stroke="black" stroke-width="0.25px"/>
<circle cx="113.69" cy="30.35" r="5.85" fill="white"/>
<circle cx="113.69" cy="30.35" r="5.85" fill="none" stroke="black" stroke-width="0.25px"/>
<circle cx="113.69" cy="42.26" r="1.27" fill="black"/>
<circle cx="113.69" cy="113.69" r="1.27" fill="black"/>
<circle cx="113.69" cy="185.13" r="1.27" fill="black"/>
<circle cx="149.41" cy="197.03" r="5.98" fill="black"/>
<circle cx="161.31" cy="125.60" r="5.85" fill="white"/>
<circle cx="161.31" cy="125.60" r="5.85" fill="none" stroke="black" stroke-width="0.25px"/>
<circle cx="161.31" cy="161.31" r="5.98" fill="black"/>
<circle cx="161.31" cy="185.13" r="5.98" fill="black"/>
<circle cx="173.22" cy="89.88" r="5.98" fill="black"/>
<circle cx="173.22" cy="113.69" r="5.85" fill="white"/>
<circle cx="173.22" cy="113.69" r="5.85" fill="none" stroke="black" stroke-width="0.25px"/>
<circle cx="173.22" cy="125.60" r="5.98" fill="black"/>
<circle cx="173.22" cy="149.41" r="5.85" fill="white"/>
<circle cx="173.22" cy="149.41" r="5.85" fill="none" stroke="black" stroke-width="0.25px"/>
<circle cx="173.22" cy="161.31" r="5.98" fill="black"/>
<circle cx="173.22" cy="173.22" r="5.85" fill="white"/>
<circle cx="173.22" cy="173.22" r="5.85" fill="none" stroke="black" stroke-width="0.25px"/>
<circle cx="173.22" cy="185.13" r="5.85" fill="white"/>
<circle cx="173.22" cy="185.13" r="5.85" fill="none" stroke="black" stroke-width="0.25px"/>
<circle cx="173.22" cy="197.03" r="5.98" fill="black"/>
<circle cx="185.13" cy="30.35" r="5.98" fill="black"/>
<circle cx="185.13" cy="42.26" r="5.98" fill="black"/>
<circle cx="185.13" cy="113.69" r="5.85" fill="white"/>
<circle cx="185.13" cy="113.69" r="5.85" fill="none" stroke="black" stroke-width="0.25px"/>
<circle cx="185.13" cy="125.60" r="5.98" fill="black"/>
<circle cx="185.13" cy="137.50" r="5.85" fill="white"/>
<circle cx="185.13" cy="137.50" r="5.85" fill="none" stroke="black" stroke-width="0.25px"/>
<circle cx="185.13" cy="149.41" r="5.85" fill="white"/>
<circle cx="185.13" cy="149.41" r="5.85" fill="none" stroke="black" stroke-width="0.25px"/>
<circle cx="185.13" cy="161.31" r="5.85" fill="white"/>
<circle cx="185.13" cy="161.31" r="5.85" fill="none" stroke="black" stroke-width="0.25px"/>
<circle cx="185.13" cy="173.22" r="5.98" fill="black"/>
<circle cx="185.13" cy="185.13" r="5.85" fill="white"/>
<circle cx="185.13" cy="185.13" r="5.85" fill="none" stroke="black" stroke-width="0.25px"/>
<circle cx="185.13" cy="197.03" r="5.85" fill="white"/>
<circle cx="185.13" cy="197.03" r="5.85" fill="none" stroke="black" stroke-width="0.25px"/>
<circle cx="185.13" cy="208.94" r="5.98" fill="black"/>
<circle cx="197.03" cy="89.88" r="5.98" fill="black"/>
<circle cx="197.03" cy="113.69" r="5.85" fill="white"/>
<circle cx="197.03" cy="113.69" r="5.85" fill="none" stroke="black" stroke-width="0.25px"/>
<circle cx="197.03" cy="125.60" r="5.85" fill="white"/>
<circle cx="197.03" cy="125.60" r="5.85" fill="none" stroke="black" stroke-width="0.25px"/>
<circle cx="197.03" cy="137.50" r="5.98" fill="black"/>
<circle cx="197.03" cy="149.41" r="5.85" fill="white"/>
<circle cx="197.03" cy="149.41" r="5.85" fill="none" stroke="black" stroke-width="0.25px"/>
<circle cx="197.03" cy="161.31" r="5.98" fill="black"/>
<circle cx="197.03" cy="173.22" r="5.98" fill="black"/>
<circle cx="197.03" cy="185.13" r="5.98" fill="black"/>
<circle cx="197.03" cy="197.03" r="5.98" fill="black"/>
<circle cx="197.03" cy="208.94" r="5.85" fill="white"/>
<circle cx="197.03" cy="208.94" r="5.85" fill="none" stroke="black" stroke-width="0.25px"/>
<circle cx="208.94" cy="113.69" r="5.85" fill="white"/>
<circle cx="208.94" cy="113.69" r="5.85" fill="none" stroke="black" stroke-width="0.25px"/>
<circle cx="208.94" cy="125.60" r="5.98" fill="black"/>
<circle cx="208.94" cy="137.50" r="5.98" fill="black"/>
<circle cx="208.94" cy="149.41" r="5.98" fill="black"/>
<circle cx="208.94" cy="197.03" r="5.85" fill="white"/>
<circle cx="208.94" cy="197.03" r="5.85" fill="none" stroke="black" stroke-width="0.25px"/>
<circle cx="208.94" cy="208.94" r="5.85" fill="white"/>
<circle cx="208.94" cy="208.94" r="5.85" fill="none" stroke="black" stroke-width="0.25px"/>
<circle cx="220.84" cy="161.31" r="5.98" fill="black"/>
<circle cx="220.84" cy="173.22" r="5.85" fill="white"/>
<circle cx="220.84" cy="173.22" r="5.85" fill="none" stroke="black" stroke-width="0.25px"/>
<circle cx="220.84" cy="185.13" r="5.85" fill="white"/>
<circle cx="220.84" cy="185.13" r="5.85" fill="none" stroke="black" stroke-width="0.25px"/>
<path d="
M159.51 121.96
C159.07 121.96 158.72 122.13 158.45 122.48
C158.18 122.82 158.03 123.34 157.99 124.02
L158.58 124.11
C158.58 123.65 158.66 123.30 158.84 123.05
C159.01 122.81 159.23 122.68 159.49 122.68
C159.74 122.68 159.95 122.80 160.12 123.03
C160.29 123.25 160.37 123.55 160.37 123.91
C160.37 124.23 160.29 124.57 160.13 124.93
C159.96 125.29 159.61 125.81 159.07 126.48
C158.61 127.05 158.30 127.55 158.13 127.97
C157.95 128.39 157.87 128.77 157.88 129.11
L160.97 129.11
L160.97 128.27
L158.68 128.27
C158.74 128.11 158.82 127.95 158.92 127.79
C159.02 127.64 159.24 127.34 159.58 126.90
C160.12 126.21 160.48 125.65 160.67 125.24
C160.87 124.82 160.96 124.39 160.96 123.93
C160.96 123.42 160.84 122.96 160.59 122.56
C160.35 122.16 159.99 121.96 159.51 121.96
Z
M163.05 121.96
C162.69 121.96 162.38 122.11 162.13 122.43
C161.87 122.74 161.71 123.20 161.64 123.81
L162.21 123.96
C162.25 123.53 162.35 123.21 162.50 123.00
C162.65 122.78 162.84 122.68 163.06 122.68
C163.27 122.68 163.45 122.78 163.60 122.98
C163.74 123.18 163.82 123.45 163.82 123.79
C163.82 124.15 163.73 124.44 163.55 124.66
C163.38 124.87 163.15 124.98 162.87 124.98
L162.78 124.97
L162.71 125.74
C162.87 125.67 163.01 125.64 163.11 125.64
C163.37 125.64 163.59 125.77 163.76 126.02
C163.94 126.27 164.03 126.61 164.03 127.02
C164.03 127.46 163.93 127.82 163.74 128.10
C163.55 128.37 163.32 128.51 163.06 128.51
C162.58 128.51 162.27 128.05 162.15 127.11
L161.58 127.23
C161.62 127.84 161.78 128.33 162.05 128.69
C162.33 129.06 162.67 129.24 163.07 129.24
C163.50 129.24 163.87 129.03 164.18 128.61
C164.48 128.20 164.64 127.66 164.64 127.01
C164.64 126.70 164.60 126.42 164.53 126.17
C164.45 125.92 164.35 125.72 164.23 125.57
C164.11 125.42 163.95 125.32 163.77 125.25
C163.97 125.11 164.13 124.91 164.24 124.67
C164.35 124.42 164.41 124.13 164.41 123.81
C164.41 123.27 164.28 122.83 164.01 122.48
C163.75 122.13 163.43 121.96 163.05 121.96
Z
" fill="black" fill-rule="nonzero" />
<path d="
M159.51 157.60
C159.03 157.60 158.64 157.79 158.34 158.17
C158.05 158.54 157.89 159.08 157.85 159.79
L157.84 159.92
L157.97 159.94
L158.56 160.03
L158.72 160.06
L158.72 159.89
C158.72 159.46 158.80 159.13 158.95 158.91
C159.09 158.71 159.27 158.60 159.49 158.60
C159.49 158.60 159.49 158.60 159.49 158.60
C159.49 158.60 159.49 158.60 159.50 158.60
C159.70 158.60 159.87 158.70 160.01 158.89
C160.16 159.09 160.23 159.36 160.23 159.69
C160.23 159.99 160.15 160.31 160.00 160.65
C159.84 161.00 159.49 161.51 158.96 162.17
C158.49 162.75 158.17 163.26 157.99 163.70
C157.81 164.13 157.73 164.53 157.74 164.89
L157.74 165.03
L161.11 165.03
L161.11 164.89
L161.11 164.05
L161.11 163.91
L158.89 163.91
C158.94 163.82 158.98 163.74 159.04 163.65
C159.14 163.49 159.35 163.20 159.69 162.77
C160.24 162.07 160.61 161.50 160.80 161.08
C161.00 160.64 161.10 160.19 161.10 159.71
C161.10 159.17 160.97 158.69 160.71 158.27
C160.44 157.82 160.04 157.60 159.51 157.60
Z
M163.14 157.60
C162.66 157.60 162.27 157.79 161.97 158.17
C161.68 158.54 161.52 159.08 161.48 159.79
L161.47 159.92
L161.60 159.94
L162.19 160.03
L162.35 160.06
L162.35 159.89
C162.35 159.46 162.43 159.13 162.58 158.91
C162.72 158.71 162.90 158.60 163.12 158.60
C163.12 158.60 163.12 158.60 163.12 158.60
C163.12 158.60 163.12 158.60 163.13 158.60
C163.33 158.60 163.50 158.70 163.64 158.89
C163.79 159.09 163.86 159.36 163.86 159.69
C163.86 159.99 163.78 160.31 163.63 160.65
C163.47 161.00 163.12 161.51 162.59 162.17
C162.12 162.75 161.80 163.26 161.62 163.70
C161.44 164.13 161.36 164.53 161.37 164.89
L161.37 165.03
L164.74 165.03
L164.74 164.89
L164.74 164.05
L164.74 163.91
L162.52 163.91
C162.57 163.82 162.61 163.74 162.67 163.65
C162.77 163.49 162.98 163.20 163.32 162.77
C163.87 162.07 164.24 161.50 164.43 161.08
C164.63 160.64 164.73 160.19 164.73 159.71
C164.73 159.17 164.60 158.69 164.34 158.27
C164.07 157.82 163.67 157.60 163.14 157.60
Z
" fill="white" fill-rule="nonzero" />
<path d="
M163.27 183.64
L163.27 186.05
L162.17 186.05
L163.27 183.64
Z
M159.51 181.41
C159.03 181.41 158.64 181.60 158.34 181.98
C158.05 182.35 157.89 182.89 157.85 183.60
L157.84 183.73
L157.97 183.75
L158.56 183.84
L158.72 183.87
L158.72 183.70
C158.72 183.27 158.80 182.95 158.95 182.72
C159.09 182.52 159.27 182.42 159.49 182.42
C159.49 182.42 159.49 182.42 159.49 182.42
C159.49 182.42 159.49 182.42 159.50 182.42
C159.70 182.42 159.87 182.51 160.01 182.70
C160.16 182.90 160.23 183.17 160.23 183.50
C160.23 183.80 160.15 184.12 160.00 184.46
C159.84 184.82 159.49 185.32 158.96 185.98
C158.49 186.56 158.17 187.07 157.99 187.51
C157.81 187.95 157.73 188.34 157.74 188.70
L157.74 188.84
L161.11 188.84
L161.11 188.70
L161.11 187.86
L161.11 187.72
L158.89 187.72
C158.94 187.63 158.98 187.55 159.04 187.46
C159.14 187.31 159.35 187.01 159.69 186.58
C160.24 185.88 160.61 185.31 160.80 184.89
C161.00 184.45 161.10 184.00 161.10 183.52
C161.10 182.98 160.97 182.50 160.71 182.08
C160.44 181.63 160.04 181.41 159.51 181.41
Z
M163.43 181.44
L163.39 181.52
L161.26 186.14
L161.25 186.16
L161.25 186.19
L161.25 187.00
L161.25 187.14
L163.27 187.14
L163.27 188.70
L163.27 188.84
L164.13 188.84
L164.13 188.70
L164.13 187.14
L164.76 187.14
L164.76 187.00
L164.76 186.19
L164.76 186.05
L164.13 186.05
L164.13 181.58
L164.13 181.44
Z
" fill="white" fill-rule="nonzero" />
<path d="
M171.64 110.12
C171.54 110.43 171.37 110.75 171.13 111.07
C170.89 111.40 170.61 111.68 170.29 111.90
L170.29 112.75
C170.48 112.65 170.68 112.49 170.90 112.29
C171.13 112.09 171.30 111.89 171.44 111.70
L171.44 117.27
L172.01 117.27
L172.01 110.12
Z
M175.27 110.12
C175.17 110.43 175.00 110.75 174.76 111.07
C174.52 111.40 174.24 111.68 173.92 111.90
L173.92 112.75
C174.11 112.65 174.31 112.49 174.53 112.29
C174.76 112.09 174.93 111.89 175.07 111.70
L175.07 117.27
L175.64 117.27
L175.64 110.12
Z
" fill="black" fill-rule="nonzero" />
<path d="
M174.98 122.83
C174.98 122.83 174.98 122.83 174.98 122.83
C174.98 122.83 174.98 122.83 174.98 122.83
C175.09 122.83 175.19 122.87 175.27 122.94
C175.37 123.02 175.46 123.16 175.54 123.33
C175.71 123.71 175.80 124.46 175.80 125.60
C175.80 126.73 175.71 127.48 175.54 127.86
C175.46 128.04 175.38 128.18 175.28 128.26
C175.20 128.34 175.11 128.37 175.02 128.37
C175.02 128.37 175.02 128.37 175.02 128.37
C175.02 128.37 175.01 128.37 175.01 128.37
C174.91 128.37 174.82 128.34 174.73 128.26
C174.63 128.18 174.54 128.04 174.46 127.87
C174.29 127.49 174.21 126.74 174.21 125.60
C174.21 124.47 174.29 123.72 174.46 123.34
C174.54 123.16 174.63 123.03 174.72 122.94
C174.80 122.86 174.89 122.83 174.98 122.83
Z
M171.53 121.82
L171.50 121.92
C171.41 122.21 171.25 122.52 171.01 122.83
C170.78 123.15 170.51 123.42 170.21 123.63
L170.15 123.68
L170.15 123.75
L170.15 124.59
L170.15 124.84
L170.36 124.72
C170.55 124.61 170.77 124.45 171.00 124.24
C171.11 124.14 171.21 124.04 171.29 123.95
L171.29 123.95
L171.29 129.11
L171.29 129.25
L172.15 129.25
L172.15 129.11
L172.15 121.96
L172.15 121.82
Z
M175.01 121.82
C174.72 121.82 174.47 121.91 174.26 122.08
C174.05 122.25 173.87 122.50 173.74 122.83
C173.47 123.46 173.34 124.39 173.34 125.60
C173.34 126.96 173.49 127.92 173.78 128.48
C173.93 128.78 174.11 129.00 174.31 129.14
C174.52 129.30 174.75 129.38 175.00 129.38
C175.29 129.38 175.54 129.29 175.75 129.11
C175.96 128.94 176.14 128.69 176.27 128.36
C176.54 127.73 176.67 126.81 176.67 125.60
C176.67 124.25 176.51 123.27 176.19 122.64
C176.05 122.38 175.88 122.17 175.69 122.03
C175.49 121.89 175.26 121.82 175.01 121.82
Z
" fill="white" fill-rule="nonzero" />
<path d="
M171.42 145.83
C170.98 145.83 170.63 146.01 170.36 146.35
C170.09 146.70 169.93 147.21 169.89 147.89
L170.48 147.99
C170.48 147.53 170.57 147.17 170.74 146.93
C170.91 146.68 171.13 146.56 171.40 146.56
C171.65 146.56 171.86 146.67 172.03 146.90
C172.19 147.13 172.28 147.42 172.28 147.79
C172.28 148.10 172.20 148.44 172.03 148.80
C171.87 149.17 171.51 149.68 170.98 150.35
C170.52 150.93 170.20 151.42 170.03 151.84
C169.86 152.26 169.78 152.64 169.78 152.98
L172.87 152.98
L172.87 152.14
L170.58 152.14
C170.64 151.99 170.72 151.83 170.82 151.67
C170.92 151.51 171.14 151.21 171.49 150.77
C172.02 150.08 172.39 149.53 172.58 149.11
C172.77 148.69 172.87 148.26 172.87 147.81
C172.87 147.29 172.74 146.84 172.50 146.44
C172.25 146.03 171.89 145.83 171.42 145.83
Z
M175.27 145.83
C175.17 146.14 175.00 146.46 174.76 146.79
C174.52 147.12 174.24 147.39 173.92 147.62
L173.92 148.47
C174.11 148.36 174.31 148.21 174.53 148.01
C174.76 147.81 174.93 147.61 175.07 147.41
L175.07 152.98
L175.64 152.98
L175.64 145.83
Z
" fill="black" fill-rule="nonzero" />
<path d="
M174.98 158.54
C174.98 158.54 174.98 158.54 174.98 158.54
C174.98 158.54 174.98 158.54 174.98 158.54
C175.09 158.54 175.19 158.58 175.27 158.66
C175.37 158.74 175.46 158.87 175.54 159.05
C175.71 159.42 175.80 160.18 175.80 161.32
C175.80 162.44 175.71 163.20 175.54 163.58
C175.46 163.76 175.38 163.89 175.28 163.98
C175.20 164.05 175.11 164.09 175.02 164.09
C175.02 164.09 175.02 164.09 175.02 164.09
C175.02 164.09 175.01 164.09 175.01 164.09
C174.91 164.09 174.82 164.05 174.73 163.98
C174.63 163.89 174.54 163.76 174.46 163.58
C174.29 163.21 174.21 162.45 174.21 161.32
C174.21 160.19 174.29 159.44 174.46 159.06
C174.54 158.88 174.63 158.74 174.72 158.66
C174.80 158.58 174.89 158.54 174.98 158.54
Z
M171.42 157.54
C170.93 157.54 170.54 157.73 170.25 158.11
C169.96 158.48 169.80 159.02 169.75 159.73
L169.74 159.86
L169.87 159.88
L170.46 159.97
L170.63 160.00
L170.63 159.83
C170.63 159.40 170.70 159.07 170.86 158.85
C171.00 158.65 171.18 158.54 171.39 158.54
C171.39 158.54 171.40 158.54 171.40 158.54
C171.40 158.54 171.40 158.54 171.40 158.54
C171.60 158.54 171.77 158.64 171.91 158.83
C172.06 159.03 172.14 159.30 172.14 159.63
C172.14 159.93 172.06 160.24 171.90 160.59
C171.74 160.94 171.40 161.45 170.87 162.11
C170.40 162.69 170.08 163.20 169.90 163.63
C169.72 164.07 169.63 164.47 169.64 164.83
L169.65 164.97
L173.02 164.97
L173.02 164.83
L173.02 163.99
L173.02 163.85
L170.80 163.85
C170.84 163.76 170.89 163.67 170.94 163.59
C171.04 163.43 171.26 163.14 171.60 162.71
C172.14 162.00 172.51 161.44 172.71 161.01
C172.91 160.58 173.01 160.12 173.01 159.65
C173.01 159.11 172.88 158.63 172.62 158.21
C172.35 157.76 171.95 157.54 171.42 157.54
Z
M175.01 157.54
C174.72 157.54 174.47 157.62 174.26 157.80
C174.05 157.97 173.87 158.22 173.74 158.55
C173.47 159.18 173.34 160.10 173.34 161.32
C173.34 162.67 173.49 163.64 173.78 164.20
C173.93 164.49 174.11 164.71 174.31 164.86
C174.52 165.02 174.75 165.09 175.00 165.09
C175.29 165.09 175.54 165.00 175.75 164.83
C175.96 164.66 176.14 164.41 176.27 164.08
C176.54 163.45 176.67 162.52 176.67 161.32
C176.67 159.97 176.51 158.98 176.19 158.36
C176.05 158.09 175.88 157.89 175.69 157.75
C175.49 157.61 175.26 157.54 175.01 157.54
Z
" fill="white" fill-rule="nonzero" />
<path d="
M175.02 170.31
C175.26 170.31 175.46 170.45 175.65 170.74
C175.83 171.04 175.92 171.44 175.92 171.94
C175.92 172.46 175.83 172.85 175.65 173.13
C175.48 173.41 175.26 173.55 175.01 173.55
C174.75 173.55 174.53 173.41 174.35 173.13
C174.16 172.86 174.07 172.48 174.07 172.02
C174.07 171.50 174.17 171.08 174.36 170.77
C174.55 170.46 174.77 170.31 175.02 170.31
Z
M171.64 169.58
C171.54 169.89 171.37 170.21 171.13 170.54
C170.89 170.87 170.61 171.14 170.29 171.37
L170.29 172.22
C170.48 172.11 170.68 171.96 170.90 171.76
C171.13 171.56 171.30 171.36 171.44 171.16
L171.44 176.74
L172.01 176.74
L172.01 169.58
Z
M174.95 169.58
C174.54 169.58 174.20 169.80 173.91 170.23
C173.62 170.66 173.48 171.24 173.48 171.99
C173.48 172.71 173.62 173.28 173.89 173.70
C174.17 174.11 174.50 174.32 174.88 174.32
C175.09 174.32 175.30 174.24 175.50 174.07
C175.70 173.90 175.86 173.67 175.98 173.38
L175.98 173.56
C175.98 174.12 175.93 174.60 175.82 175.02
C175.71 175.44 175.57 175.73 175.42 175.89
C175.26 176.06 175.09 176.14 174.90 176.14
C174.47 176.14 174.21 175.76 174.12 175.01
L173.57 175.09
C173.61 175.66 173.76 176.10 173.99 176.40
C174.23 176.71 174.53 176.86 174.88 176.86
C175.20 176.86 175.48 176.73 175.73 176.48
C175.99 176.23 176.19 175.84 176.33 175.30
C176.48 174.76 176.56 174.00 176.56 173.02
C176.56 172.14 176.49 171.47 176.35 171.00
C176.21 170.54 176.02 170.18 175.77 169.94
C175.51 169.70 175.24 169.58 174.95 169.58
Z
" fill="black" fill-rule="nonzero" />
<path d="
M175.05 196.84
C175.25 196.84 175.42 196.96 175.57 197.19
C175.73 197.45 175.81 197.81 175.81 198.29
C175.81 198.78 175.73 199.16 175.56 199.43
C175.42 199.68 175.26 199.81 175.09 199.81
C175.08 199.81 175.08 199.81 175.08 199.81
C175.08 199.81 175.08 199.81 175.08 199.81
C174.88 199.81 174.69 199.67 174.53 199.40
C174.35 199.12 174.26 198.73 174.26 198.24
C174.26 197.79 174.34 197.45 174.51 197.19
C174.67 196.96 174.84 196.84 175.04 196.84
C175.04 196.84 175.04 196.84 175.04 196.84
C175.04 196.84 175.05 196.84 175.05 196.84
Z
M171.53 193.25
L171.50 193.35
C171.41 193.65 171.25 193.95 171.01 194.27
C170.78 194.58 170.51 194.85 170.21 195.07
L170.15 195.11
L170.15 195.18
L170.15 196.03
L170.15 196.27
L170.36 196.15
C170.55 196.04 170.77 195.88 171.00 195.67
C171.11 195.57 171.21 195.48 171.29 195.38
L171.29 195.38
L171.29 200.55
L171.29 200.69
L172.15 200.69
L172.15 200.55
L172.15 193.39
L172.15 193.25
Z
M175.13 193.25
C174.85 193.25 174.60 193.34 174.38 193.50
C174.16 193.66 173.97 193.89 173.80 194.20
C173.47 194.81 173.31 195.81 173.31 197.21
C173.31 198.48 173.47 199.39 173.79 199.94
C173.95 200.23 174.14 200.44 174.35 200.59
C174.57 200.73 174.81 200.81 175.08 200.81
C175.37 200.81 175.64 200.71 175.89 200.50
C176.13 200.30 176.32 199.99 176.46 199.58
C176.61 199.18 176.68 198.73 176.68 198.24
C176.68 197.51 176.54 196.92 176.24 196.48
C175.94 196.02 175.58 195.79 175.16 195.78
C174.90 195.78 174.66 195.88 174.43 196.06
C174.34 196.13 174.26 196.22 174.18 196.32
L174.18 196.32
C174.21 195.73 174.29 195.27 174.42 194.94
C174.51 194.70 174.62 194.53 174.74 194.41
C174.85 194.31 174.96 194.26 175.09 194.26
C175.09 194.26 175.09 194.26 175.09 194.26
C175.09 194.26 175.10 194.26 175.10 194.26
C175.26 194.26 175.40 194.35 175.53 194.53
C175.62 194.67 175.70 194.91 175.75 195.26
L175.77 195.39
L175.90 195.38
L176.47 195.31
L176.61 195.29
L176.60 195.16
C176.54 194.55 176.39 194.09 176.13 193.76
C175.86 193.42 175.53 193.25 175.13 193.25
Z
" fill="white" fill-rule="nonzero" />
<path d="
M185.11 110.82
C185.40 110.82 185.66 110.96 185.88 111.25
C186.10 111.54 186.22 111.93 186.22 112.43
C186.22 112.94 186.11 113.33 185.89 113.60
C185.67 113.88 185.41 114.02 185.09 114.02
C184.78 114.02 184.50 113.88 184.28 113.61
C184.05 113.33 183.94 112.97 183.94 112.50
C183.94 111.99 184.05 111.58 184.29 111.28
C184.53 110.97 184.80 110.82 185.11 110.82
Z
M185.03 110.10
C184.52 110.10 184.09 110.31 183.74 110.74
C183.38 111.16 183.21 111.74 183.21 112.48
C183.21 113.19 183.38 113.75 183.72 114.16
C184.06 114.57 184.46 114.78 184.93 114.78
C185.19 114.78 185.45 114.70 185.70 114.53
C185.95 114.36 186.15 114.14 186.29 113.85
L186.29 114.03
C186.29 114.58 186.23 115.06 186.09 115.47
C185.96 115.88 185.79 116.17 185.60 116.33
C185.41 116.49 185.19 116.57 184.95 116.57
C184.42 116.57 184.10 116.20 183.99 115.46
L183.31 115.54
C183.37 116.10 183.55 116.54 183.84 116.84
C184.13 117.14 184.50 117.29 184.94 117.29
C185.33 117.29 185.68 117.16 185.99 116.92
C186.30 116.67 186.55 116.28 186.73 115.74
C186.91 115.21 187.00 114.46 187.00 113.49
C187.00 112.63 186.92 111.96 186.75 111.50
C186.58 111.04 186.34 110.69 186.03 110.46
C185.72 110.22 185.38 110.10 185.03 110.10
Z
" fill="black" fill-rule="nonzero" />
<path d="
M185.09 122.86
C185.10 122.86 185.10 122.86 185.10 122.86
C185.10 122.86 185.10 122.86 185.10 122.86
C185.31 122.86 185.50 122.95 185.66 123.12
C185.82 123.31 185.90 123.55 185.90 123.84
C185.90 124.12 185.82 124.35 185.66 124.53
C185.51 124.70 185.33 124.78 185.11 124.78
C185.11 124.78 185.11 124.78 185.11 124.78
C185.11 124.78 185.10 124.78 185.10 124.78
C184.88 124.78 184.69 124.70 184.54 124.52
C184.38 124.34 184.30 124.10 184.30 123.79
C184.30 123.52 184.38 123.30 184.54 123.12
C184.70 122.94 184.88 122.86 185.09 122.86
Z
M185.08 125.77
C185.09 125.77 185.09 125.77 185.09 125.77
C185.09 125.77 185.09 125.77 185.09 125.77
C185.37 125.77 185.62 125.89 185.82 126.12
C186.03 126.36 186.14 126.67 186.14 127.07
C186.14 127.46 186.03 127.77 185.83 128.00
C185.63 128.23 185.39 128.34 185.11 128.34
C185.11 128.34 185.11 128.34 185.11 128.34
C185.11 128.34 185.11 128.34 185.10 128.34
C184.82 128.34 184.58 128.22 184.38 127.99
C184.17 127.75 184.07 127.44 184.07 127.04
C184.07 126.66 184.17 126.35 184.37 126.12
C184.57 125.89 184.81 125.77 185.08 125.77
Z
M185.09 121.86
C184.58 121.86 184.14 122.05 183.80 122.41
C183.46 122.78 183.29 123.24 183.29 123.82
C183.29 124.20 183.37 124.52 183.53 124.78
C183.64 124.96 183.79 125.11 183.97 125.24
L183.97 125.24
C183.73 125.37 183.53 125.55 183.37 125.80
C183.16 126.13 183.06 126.54 183.06 127.04
C183.06 127.72 183.25 128.27 183.64 128.69
C184.03 129.12 184.52 129.33 185.11 129.33
C185.69 129.33 186.17 129.12 186.56 128.69
C186.95 128.27 187.14 127.73 187.14 127.06
C187.14 126.58 187.04 126.18 186.84 125.85
C186.69 125.59 186.48 125.39 186.23 125.25
L186.23 125.25
C186.42 125.12 186.57 124.96 186.68 124.78
C186.83 124.52 186.91 124.21 186.91 123.84
C186.91 123.27 186.74 122.79 186.39 122.42
C186.05 122.05 185.61 121.86 185.09 121.86
Z
" fill="white" fill-rule="nonzero" />
<path d="
M185.03 145.81
C184.58 145.81 184.20 145.97 183.89 146.27
C183.57 146.58 183.37 147.04 183.28 147.64
L183.99 147.79
C184.04 147.37 184.16 147.05 184.35 146.84
C184.53 146.63 184.76 146.52 185.03 146.52
C185.30 146.52 185.52 146.62 185.70 146.82
C185.88 147.02 185.98 147.29 185.98 147.62
C185.98 147.98 185.87 148.26 185.65 148.48
C185.43 148.69 185.15 148.80 184.80 148.80
L184.69 148.79
L184.61 149.55
C184.81 149.48 184.97 149.45 185.11 149.45
C185.42 149.45 185.69 149.58 185.91 149.83
C186.13 150.08 186.23 150.41 186.23 150.82
C186.23 151.25 186.12 151.61 185.88 151.88
C185.64 152.15 185.36 152.29 185.04 152.29
C184.44 152.29 184.07 151.83 183.92 150.91
L183.21 151.02
C183.26 151.63 183.45 152.11 183.80 152.47
C184.14 152.83 184.56 153.00 185.05 153.00
C185.58 153.00 186.04 152.80 186.42 152.39
C186.80 151.98 186.99 151.45 186.99 150.80
C186.99 150.50 186.94 150.22 186.85 149.98
C186.76 149.73 186.63 149.53 186.48 149.39
C186.33 149.24 186.14 149.13 185.91 149.07
C186.16 148.93 186.36 148.73 186.50 148.49
C186.64 148.24 186.71 147.96 186.71 147.64
C186.71 147.11 186.54 146.68 186.22 146.33
C185.89 145.99 185.49 145.81 185.03 145.81
Z
" fill="black" fill-rule="nonzero" />
<path d="
M186.91 170.44
C186.92 170.44 186.92 170.44 186.92 170.44
C186.92 170.44 186.92 170.44 186.92 170.44
C187.08 170.44 187.22 170.53 187.34 170.70
C187.47 170.89 187.54 171.14 187.54 171.44
C187.54 171.73 187.48 171.97 187.35 172.15
C187.23 172.31 187.09 172.40 186.93 172.40
C186.93 172.40 186.93 172.40 186.93 172.40
C186.92 172.40 186.92 172.40 186.92 172.40
C186.76 172.40 186.61 172.31 186.50 172.14
C186.37 171.96 186.30 171.71 186.30 171.39
C186.30 171.11 186.37 170.88 186.50 170.70
C186.62 170.53 186.76 170.44 186.91 170.44
Z
M186.91 173.39
C186.91 173.39 186.91 173.39 186.91 173.39
C186.91 173.39 186.91 173.39 186.91 173.39
C187.13 173.39 187.31 173.51 187.47 173.73
C187.65 173.98 187.73 174.30 187.73 174.71
C187.73 175.11 187.65 175.43 187.48 175.67
C187.33 175.89 187.14 176.00 186.93 176.00
C186.93 176.00 186.93 176.00 186.93 176.00
C186.92 176.00 186.92 176.00 186.92 176.00
C186.71 176.00 186.53 175.88 186.37 175.66
C186.20 175.41 186.11 175.09 186.11 174.68
C186.11 174.29 186.19 173.97 186.36 173.73
C186.51 173.51 186.70 173.39 186.91 173.39
Z
M183.44 169.44
L183.41 169.54
C183.32 169.84 183.15 170.14 182.92 170.46
C182.69 170.77 182.42 171.04 182.11 171.26
L182.05 171.30
L182.05 171.37
L182.05 172.22
L182.05 172.46
L182.26 172.34
C182.46 172.23 182.67 172.07 182.90 171.86
C183.01 171.76 183.11 171.67 183.20 171.57
L183.20 171.57
L183.20 176.74
L183.20 176.88
L184.06 176.88
L184.06 176.74
L184.06 169.58
L184.06 169.44
Z
M186.91 169.44
C186.48 169.44 186.12 169.63 185.84 170.01
C185.56 170.37 185.43 170.84 185.43 171.42
C185.43 171.80 185.49 172.12 185.62 172.38
C185.71 172.57 185.84 172.73 185.99 172.86
L185.99 172.86
C185.79 172.99 185.62 173.18 185.49 173.44
C185.32 173.77 185.24 174.18 185.24 174.68
C185.24 175.36 185.40 175.92 185.71 176.34
C186.03 176.78 186.44 177.00 186.93 177.00
C187.41 177.00 187.81 176.78 188.13 176.34
C188.45 175.92 188.60 175.37 188.60 174.70
C188.60 174.22 188.52 173.82 188.36 173.49
C188.23 173.22 188.06 173.02 187.84 172.86
L187.84 172.86
C188.01 172.73 188.13 172.57 188.23 172.38
C188.35 172.12 188.41 171.81 188.41 171.44
C188.41 170.87 188.27 170.39 188.00 170.02
C187.71 169.64 187.35 169.44 186.91 169.44
Z
" fill="white" fill-rule="nonzero" />
<path d="
M183.54 181.55
C183.45 181.86 183.28 182.18 183.03 182.51
C182.79 182.83 182.51 183.11 182.20 183.34
L182.20 184.18
C182.38 184.08 182.59 183.93 182.81 183.72
C183.03 183.52 183.21 183.32 183.34 183.13
L183.34 188.70
L183.92 188.70
L183.92 181.55
Z
M185.42 181.67
L185.42 182.51
L187.71 182.51
C187.42 183.02 187.15 183.63 186.90 184.35
C186.65 185.07 186.45 185.82 186.31 186.62
C186.16 187.41 186.09 188.11 186.08 188.70
L186.67 188.70
C186.72 187.55 186.92 186.38 187.26 185.21
C187.60 184.04 188.00 183.08 188.45 182.35
L188.45 181.67
Z
" fill="black" fill-rule="nonzero" />
<path d="
M187.08 207.45
L187.08 209.86
L185.98 209.86
L187.08 207.45
Z
M183.44 205.22
L183.41 205.32
C183.32 205.61 183.15 205.92 182.92 206.23
C182.69 206.55 182.42 206.82 182.11 207.03
L182.05 207.08
L182.05 207.15
L182.05 207.99
L182.05 208.24
L182.26 208.12
C182.46 208.01 182.67 207.85 182.90 207.64
C183.01 207.54 183.11 207.44 183.20 207.35
L183.20 207.35
L183.20 212.51
L183.20 212.65
L184.06 212.65
L184.06 212.51
L184.06 205.36
L184.06 205.22
Z
M187.24 205.25
L187.20 205.33
L185.07 209.95
L185.06 209.97
L185.06 210.01
L185.06 210.81
L185.06 210.95
L187.08 210.95
L187.08 212.51
L187.08 212.65
L187.94 212.65
L187.94 212.51
L187.94 210.95
L188.58 210.95
L188.58 210.81
L188.58 210.01
L188.58 209.86
L187.94 209.86
L187.94 205.39
L187.94 205.25
Z
" fill="white" fill-rule="nonzero" />
<path d="
M197.05 157.64
C196.47 157.64 196.00 157.83 195.64 158.19
C195.28 158.56 195.08 159.10 195.02 159.81
L195.01 159.94
L195.15 159.96
L195.88 160.05
L196.04 160.07
L196.04 159.91
C196.04 159.49 196.13 159.17 196.32 158.95
C196.50 158.74 196.73 158.64 197.02 158.64
C197.02 158.64 197.02 158.64 197.02 158.64
C197.02 158.64 197.02 158.64 197.02 158.64
C197.29 158.64 197.51 158.74 197.69 158.93
C197.88 159.13 197.97 159.39 197.97 159.71
C197.97 160.00 197.87 160.31 197.68 160.65
C197.48 161.00 197.06 161.50 196.40 162.15
C195.83 162.72 195.43 163.23 195.21 163.65
C194.98 164.09 194.88 164.49 194.89 164.85
L194.89 164.99
L198.99 164.99
L198.99 164.85
L198.99 164.02
L198.99 163.88
L196.26 163.88
C196.31 163.80 196.36 163.71 196.43 163.63
C196.55 163.48 196.81 163.19 197.23 162.76
C197.90 162.07 198.36 161.51 198.60 161.09
C198.85 160.66 198.98 160.20 198.98 159.73
C198.98 159.19 198.82 158.71 198.50 158.29
C198.16 157.86 197.68 157.64 197.05 157.64
Z
" fill="white" fill-rule="nonzero" />
<path d="
M197.04 184.94
C197.31 184.94 197.54 185.06 197.73 185.30
C197.92 185.55 198.02 185.90 198.02 186.37
C198.02 186.85 197.92 187.22 197.72 187.49
C197.53 187.74 197.32 187.87 197.09 187.87
C197.09 187.87 197.09 187.87 197.09 187.87
C197.09 187.87 197.09 187.87 197.09 187.87
C196.82 187.87 196.58 187.73 196.37 187.46
C196.15 187.17 196.04 186.79 196.04 186.32
C196.04 185.89 196.14 185.55 196.35 185.30
C196.55 185.06 196.78 184.94 197.04 184.94
C197.04 184.94 197.04 184.94 197.04 184.94
C197.04 184.94 197.04 184.94 197.04 184.94
Z
M197.15 181.39
C196.49 181.39 195.96 181.70 195.54 182.32
C195.14 182.92 194.94 183.92 194.94 185.31
C194.94 186.56 195.13 187.46 195.53 188.01
C195.94 188.58 196.45 188.86 197.08 188.86
C197.44 188.86 197.76 188.76 198.05 188.56
C198.34 188.36 198.58 188.06 198.76 187.66
C198.94 187.25 199.03 186.81 199.03 186.32
C199.03 185.59 198.85 185.01 198.49 184.57
C198.12 184.12 197.68 183.89 197.18 183.89
C196.88 183.89 196.59 183.98 196.32 184.15
C196.18 184.24 196.05 184.35 195.94 184.49
L195.94 184.49
C195.97 183.88 196.07 183.41 196.24 183.07
C196.35 182.84 196.48 182.66 196.63 182.55
C196.77 182.44 196.93 182.39 197.10 182.39
C197.10 182.39 197.10 182.39 197.10 182.39
C197.10 182.39 197.11 182.39 197.11 182.39
C197.33 182.39 197.52 182.48 197.68 182.67
C197.79 182.81 197.88 183.04 197.94 183.38
L197.97 183.51
L198.10 183.49
L198.80 183.43
L198.95 183.41
L198.93 183.27
C198.86 182.67 198.67 182.20 198.35 181.88
C198.03 181.56 197.62 181.39 197.15 181.39
Z
" fill="white" fill-rule="nonzero" />
<path d="
M195.35 193.31
L195.31 193.41
C195.22 193.71 195.06 194.01 194.82 194.33
C194.59 194.64 194.32 194.91 194.02 195.13
L193.96 195.17
L193.96 195.24
L193.96 196.09
L193.96 196.33
L194.17 196.21
C194.37 196.10 194.58 195.94 194.81 195.73
C194.92 195.64 195.02 195.54 195.11 195.44
L195.11 195.44
L195.11 200.61
L195.11 200.75
L195.96 200.75
L195.96 200.61
L195.96 193.46
L195.96 193.31
Z
M198.86 193.31
C198.37 193.31 197.98 193.51 197.69 193.89
C197.40 194.25 197.24 194.79 197.19 195.51
L197.19 195.64
L197.31 195.66
L197.90 195.75
L198.07 195.77
L198.07 195.61
C198.07 195.18 198.14 194.85 198.30 194.63
C198.44 194.42 198.62 194.32 198.83 194.32
C198.84 194.32 198.84 194.32 198.84 194.32
C198.84 194.32 198.84 194.32 198.84 194.32
C199.04 194.32 199.21 194.42 199.35 194.61
C199.50 194.81 199.58 195.08 199.58 195.41
C199.58 195.70 199.50 196.02 199.34 196.37
C199.18 196.72 198.84 197.23 198.31 197.88
C197.84 198.47 197.52 198.98 197.34 199.41
C197.16 199.85 197.08 200.25 197.08 200.61
L197.09 200.75
L200.46 200.75
L200.46 200.61
L200.46 199.77
L200.46 199.62
L198.24 199.62
C198.28 199.54 198.33 199.45 198.39 199.37
C198.48 199.21 198.70 198.92 199.04 198.48
C199.58 197.78 199.95 197.22 200.15 196.79
C200.35 196.36 200.45 195.90 200.45 195.43
C200.45 194.89 200.32 194.41 200.06 193.98
C199.79 193.54 199.39 193.32 198.86 193.31
Z
" fill="white" fill-rule="nonzero" />
<path d="
M195.45 205.30
C195.35 205.61 195.18 205.93 194.94 206.25
C194.70 206.58 194.42 206.86 194.10 207.09
L194.10 207.93
C194.29 207.83 194.49 207.67 194.71 207.47
C194.94 207.27 195.12 207.07 195.25 206.88
L195.25 212.45
L195.82 212.45
L195.82 205.30
Z
M198.76 205.30
C198.40 205.30 198.10 205.45 197.84 205.76
C197.59 206.08 197.43 206.54 197.35 207.14
L197.93 207.30
C197.97 206.87 198.06 206.55 198.21 206.34
C198.37 206.12 198.55 206.02 198.77 206.02
C198.98 206.02 199.17 206.12 199.31 206.32
C199.46 206.52 199.53 206.79 199.53 207.12
C199.53 207.49 199.45 207.78 199.27 207.99
C199.09 208.21 198.86 208.32 198.58 208.32
L198.49 208.31
L198.43 209.08
C198.59 209.01 198.72 208.98 198.83 208.98
C199.09 208.98 199.30 209.11 199.48 209.36
C199.66 209.61 199.74 209.95 199.74 210.36
C199.74 210.80 199.65 211.16 199.46 211.44
C199.26 211.71 199.04 211.85 198.78 211.85
C198.29 211.85 197.99 211.39 197.87 210.45
L197.30 210.57
C197.33 211.18 197.49 211.67 197.77 212.03
C198.05 212.39 198.39 212.58 198.78 212.58
C199.21 212.58 199.58 212.37 199.89 211.95
C200.20 211.54 200.35 211.00 200.35 210.35
C200.35 210.04 200.32 209.76 200.24 209.51
C200.17 209.26 200.07 209.06 199.95 208.91
C199.82 208.76 199.67 208.66 199.48 208.59
C199.69 208.45 199.84 208.25 199.96 208.00
C200.07 207.75 200.13 207.47 200.13 207.14
C200.13 206.61 199.99 206.17 199.73 205.82
C199.46 205.47 199.14 205.30 198.76 205.30
Z
" fill="black" fill-rule="nonzero" />
<path d="
M208.85 171.18
L209.91 174.02
L207.82 174.02
L208.85 171.18
Z
M208.05 169.39
L205.07 177.05
L206.71 177.05
L207.34 175.31
L210.41 175.31
L211.08 177.05
L212.76 177.05
L209.69 169.39
Z
" fill="black" fill-rule="nonzero" />
<path d="
M208.29 182.57
C209.02 182.57 209.46 182.58 209.61 182.59
C209.87 182.63 210.06 182.72 210.20 182.86
C210.33 183.01 210.39 183.20 210.39 183.44
C210.39 183.69 210.32 183.89 210.16 184.04
C210.01 184.19 209.80 184.28 209.54 184.32
C209.39 184.33 209.02 184.34 208.41 184.34
L207.40 184.34
L207.40 182.57
Z
M208.65 185.62
C209.35 185.62 209.81 185.65 210.02 185.73
C210.23 185.80 210.40 185.92 210.51 186.08
C210.62 186.24 210.67 186.43 210.67 186.66
C210.67 186.94 210.60 187.15 210.46 187.31
C210.31 187.48 210.12 187.58 209.89 187.62
C209.74 187.65 209.39 187.67 208.83 187.67
L207.40 187.67
L207.40 185.62
Z
M205.85 181.29
L205.85 188.96
L208.46 188.96
C209.45 188.95 210.07 188.93 210.33 188.91
C210.74 188.86 211.09 188.74 211.37 188.54
C211.65 188.35 211.87 188.08 212.03 187.75
C212.19 187.42 212.27 187.09 212.27 186.74
C212.27 186.29 212.15 185.91 211.90 185.58
C211.65 185.25 211.29 185.02 210.82 184.89
C211.15 184.74 211.41 184.51 211.61 184.21
C211.80 183.91 211.90 183.58 211.90 183.22
C211.90 182.89 211.82 182.59 211.66 182.33
C211.51 182.06 211.31 181.85 211.07 181.68
C210.84 181.52 210.57 181.42 210.27 181.37
C209.98 181.32 209.52 181.29 208.92 181.29
Z
" fill="black" fill-rule="nonzero" />
<path d="
M209.23 193.50
C209.10 193.81 208.89 194.12 208.59 194.44
C208.29 194.77 207.95 195.04 207.56 195.26
L207.56 196.10
C207.79 196.00 208.04 195.85 208.32 195.65
C208.59 195.45 208.81 195.25 208.98 195.06
L208.98 200.56
L209.69 200.56
L209.69 193.50
Z
" fill="black" fill-rule="nonzero" />
<path d="
M207.35 205.30
C207.26 205.61 207.09 205.93 206.84 206.26
C206.60 206.58 206.32 206.86 206.01 207.09
L206.01 207.93
C206.19 207.83 206.40 207.68 206.62 207.47
C206.84 207.27 207.02 207.07 207.15 206.88
L207.15 212.45
L207.73 212.45
L207.73 205.30
Z
M209.75 205.43
L209.30 209.08
L209.84 209.19
C209.93 208.97 210.05 208.81 210.20 208.68
C210.35 208.56 210.51 208.50 210.69 208.50
C210.97 208.50 211.21 208.64 211.40 208.92
C211.59 209.20 211.69 209.60 211.69 210.11
C211.69 210.65 211.59 211.07 211.39 211.39
C211.20 211.70 210.96 211.85 210.69 211.85
C210.47 211.85 210.28 211.74 210.12 211.52
C209.95 211.30 209.85 210.96 209.80 210.51
L209.20 210.59
C209.24 211.21 209.39 211.69 209.67 212.05
C209.95 212.40 210.29 212.57 210.70 212.57
C211.18 212.57 211.57 212.32 211.86 211.83
C212.15 211.33 212.29 210.73 212.29 210.04
C212.29 209.33 212.15 208.77 211.86 208.35
C211.57 207.94 211.23 207.73 210.84 207.73
C210.53 207.73 210.24 207.88 209.96 208.18
L210.21 206.26
L212.07 206.26
L212.07 205.43
Z
" fill="black" fill-rule="nonzero" />
<path d="
M221.05 159.72
L221.05 162.21
L219.63 162.21
L221.05 159.72
Z
M221.25 157.65
L221.20 157.73
L218.57 162.29
L218.55 162.32
L218.55 162.36
L218.55 163.15
L218.55 163.29
L221.05 163.29
L221.05 164.83
L221.05 164.97
L222.05 164.97
L222.05 164.83
L222.05 163.29
L222.83 163.29
L222.83 163.15
L222.83 162.36
L222.83 162.21
L222.05 162.21
L222.05 157.80
L222.05 157.65
Z
" fill="white" fill-rule="nonzero" />
<path d="
M218.97 169.75
L218.97 170.58
L221.79 170.58
C221.43 171.08 221.10 171.68 220.79 172.39
C220.48 173.10 220.24 173.85 220.06 174.63
C219.88 175.42 219.79 176.10 219.78 176.69
L220.51 176.69
C220.57 175.55 220.81 174.40 221.24 173.24
C221.66 172.08 222.15 171.14 222.70 170.42
L222.70 169.75
Z
" fill="black" fill-rule="nonzero" />
<path d="
M219.61 181.60
L219.05 185.21
L219.71 185.32
C219.82 185.10 219.97 184.93 220.16 184.81
C220.35 184.69 220.55 184.63 220.76 184.63
C221.12 184.63 221.41 184.77 221.65 185.05
C221.88 185.33 222.00 185.72 222.00 186.22
C222.00 186.75 221.88 187.17 221.63 187.48
C221.39 187.79 221.10 187.95 220.77 187.95
C220.50 187.95 220.26 187.84 220.06 187.62
C219.85 187.40 219.72 187.06 219.67 186.62
L218.92 186.69
C218.97 187.31 219.17 187.79 219.51 188.14
C219.85 188.48 220.28 188.66 220.78 188.66
C221.38 188.66 221.86 188.41 222.21 187.92
C222.57 187.43 222.75 186.84 222.75 186.15
C222.75 185.45 222.57 184.90 222.21 184.49
C221.86 184.08 221.44 183.87 220.95 183.87
C220.57 183.87 220.21 184.02 219.86 184.31
L220.18 182.42
L222.47 182.42
L222.47 181.60
Z
" fill="black" fill-rule="nonzero" />
</g>
<g  transform="translate(1.19,228.58)" >
<path d="
M106.49 2.94
C106.33 2.94 106.19 3.00 106.07 3.11
C105.96 3.23 105.90 3.37 105.90 3.53
C105.90 3.69 105.96 3.83 106.08 3.95
C106.19 4.07 106.33 4.12 106.49 4.12
C106.66 4.12 106.80 4.07 106.91 3.95
C107.02 3.83 107.08 3.69 107.08 3.53
C107.08 3.37 107.02 3.23 106.91 3.11
C106.80 3.00 106.66 2.94 106.49 2.94
Z
M111.46 8.04
L111.46 10.07
C110.98 10.46 110.60 10.65 110.30 10.65
C110.08 10.65 109.89 10.56 109.73 10.37
C109.56 10.19 109.48 9.96 109.48 9.68
C109.48 9.46 109.54 9.25 109.67 9.07
C109.81 8.88 110.02 8.70 110.33 8.53
C110.50 8.44 110.88 8.27 111.46 8.04
Z
M99.82 3.77
C100.75 3.77 101.51 4.08 102.10 4.71
C102.69 5.34 102.99 6.20 102.99 7.29
C102.99 8.37 102.69 9.23 102.10 9.86
C101.51 10.49 100.76 10.81 99.86 10.81
C99.53 10.81 99.12 10.75 98.62 10.64
L98.62 3.94
C99.07 3.83 99.47 3.77 99.82 3.77
Z
M96.37 3.33
L96.37 3.54
L96.67 3.54
C96.97 3.54 97.19 3.63 97.34 3.80
C97.45 3.92 97.51 4.23 97.51 4.72
L97.51 9.82
C97.51 10.26 97.46 10.55 97.38 10.68
C97.24 10.89 97.00 11.00 96.67 11.00
L96.37 11.00
L96.37 11.21
L99.90 11.21
C101.43 11.21 102.57 10.80 103.32 9.98
C103.98 9.24 104.32 8.33 104.32 7.23
C104.32 6.41 104.13 5.69 103.76 5.07
C103.38 4.44 102.89 4.00 102.27 3.73
C101.66 3.46 100.76 3.33 99.58 3.33
Z
M106.72 5.73
L105.12 6.38
L105.20 6.59
C105.35 6.53 105.48 6.50 105.59 6.50
C105.69 6.50 105.77 6.53 105.83 6.58
C105.89 6.62 105.93 6.71 105.96 6.83
C105.99 7.00 106.01 7.38 106.01 7.96
L106.01 10.01
C106.01 10.34 105.98 10.56 105.93 10.68
C105.88 10.79 105.81 10.88 105.72 10.93
C105.63 10.98 105.46 11.00 105.20 11.00
L105.20 11.21
L107.78 11.21
L107.78 11.00
C107.53 11.00 107.36 10.98 107.26 10.92
C107.17 10.87 107.10 10.79 107.05 10.68
C107.00 10.56 106.98 10.34 106.98 10.01
L106.98 5.73
Z
M122.63 3.16
L120.71 4.10
L120.79 4.28
C121.05 4.16 121.25 4.10 121.39 4.10
C121.49 4.10 121.58 4.13 121.65 4.19
C121.72 4.25 121.77 4.34 121.80 4.46
C121.84 4.62 121.86 4.99 121.86 5.57
L121.86 9.82
C121.86 10.30 121.84 10.58 121.79 10.67
C121.75 10.77 121.68 10.85 121.57 10.90
C121.46 10.96 121.22 10.99 120.85 11.00
L120.85 11.21
L123.81 11.21
L123.81 11.00
C123.46 10.99 123.22 10.96 123.10 10.90
C122.99 10.84 122.91 10.76 122.87 10.65
C122.84 10.54 122.82 10.27 122.82 9.82
L122.82 3.16
Z
M128.00 3.16
C127.40 3.16 126.89 3.36 126.49 3.74
C126.09 4.12 125.84 4.67 125.75 5.39
L125.96 5.39
C126.11 4.95 126.34 4.62 126.64 4.39
C126.95 4.17 127.30 4.05 127.69 4.05
C128.12 4.05 128.48 4.22 128.79 4.54
C129.09 4.86 129.25 5.27 129.25 5.77
C129.25 6.42 128.97 7.15 128.41 7.94
C127.85 8.73 126.89 9.75 125.52 11.00
L125.52 11.21
L130.17 11.21
L130.72 9.70
L130.51 9.70
C130.41 9.87 130.29 10.00 130.15 10.10
C130.02 10.19 129.87 10.26 129.70 10.29
C129.53 10.32 129.24 10.33 128.82 10.33
L126.76 10.33
C127.00 10.12 127.60 9.48 128.57 8.43
C129.21 7.73 129.68 7.06 129.96 6.43
C130.15 6.03 130.24 5.63 130.24 5.23
C130.24 4.68 130.03 4.19 129.60 3.78
C129.17 3.37 128.64 3.16 128.00 3.16
Z
M110.65 5.73
C110.03 5.73 109.56 5.87 109.21 6.15
C108.87 6.43 108.70 6.73 108.70 7.07
C108.70 7.24 108.75 7.38 108.84 7.48
C108.93 7.58 109.05 7.63 109.19 7.63
C109.34 7.63 109.46 7.58 109.55 7.49
C109.64 7.39 109.69 7.25 109.69 7.07
L109.67 6.74
C109.67 6.56 109.75 6.41 109.89 6.28
C110.04 6.15 110.23 6.08 110.48 6.08
C110.80 6.08 111.04 6.18 111.21 6.38
C111.38 6.58 111.46 6.94 111.46 7.47
L111.46 7.68
C110.55 8.02 109.90 8.30 109.50 8.53
C109.11 8.76 108.83 9.01 108.67 9.28
C108.56 9.47 108.50 9.69 108.50 9.95
C108.50 10.36 108.62 10.69 108.86 10.95
C109.09 11.20 109.40 11.32 109.77 11.32
C110.00 11.32 110.23 11.27 110.44 11.18
C110.57 11.11 110.92 10.87 111.46 10.45
C111.47 10.76 111.53 10.99 111.64 11.12
C111.75 11.25 111.90 11.32 112.09 11.32
C112.49 11.32 112.90 11.03 113.34 10.45
L113.34 10.12
C113.10 10.35 112.95 10.49 112.87 10.54
C112.82 10.57 112.77 10.58 112.70 10.58
C112.65 10.58 112.59 10.57 112.55 10.53
C112.50 10.49 112.47 10.41 112.45 10.30
C112.43 10.18 112.42 9.87 112.42 9.36
L112.42 7.55
C112.42 7.04 112.39 6.70 112.32 6.53
C112.21 6.28 112.04 6.09 111.81 5.97
C111.51 5.81 111.12 5.73 110.65 5.73
Z
M114.85 10.08
C114.67 10.08 114.52 10.15 114.39 10.27
C114.26 10.39 114.20 10.55 114.20 10.73
C114.20 10.91 114.26 11.06 114.39 11.19
C114.52 11.31 114.67 11.38 114.85 11.38
C115.03 11.38 115.18 11.31 115.30 11.19
C115.43 11.06 115.49 10.91 115.49 10.73
C115.49 10.55 115.43 10.40 115.31 10.27
C115.18 10.15 115.03 10.08 114.85 10.08
Z
" fill="black" fill-rule="nonzero" />
</g>
</g>
</svg>
