<?xml version="1.0" encoding="utf-8" standalone="no"?>
<!DOCTYPE svg PUBLIC "-//W3C//DTD SVG 1.0//EN" "http://www.w3.org/TR/SVG/DTD/svg11.dtd" >
<svg version="1.1" baseProfile="full"  width="319.13385" height="338.46454" viewBox="0 0 229.77638 243.69449" preserveAspectRatio="xMidYMid" xmlns="http://www.w3.org/2000/svg" >

<g lengthAdjust="spacingAndGlyphs" xml:space='preserve' >
<g  transform="translate(1.19,1.19)" >
<path d="
M0.0 0.0
L0.0 227.39
L227.39 227.39
L227.39 0.0
Z
" fill="none" fill-rule="nonzero" />
<line x1="6.54" y1="6.54" x2="6.54" y2="220.84" fill="none" stroke="black" stroke-width="0.87px" stroke-linecap="square" />
<line x1="18.45" y1="6.54" x2="18.45" y2="220.84" fill="none" stroke="black" stroke-width="0.25px" stroke-linecap="butt" />
<line x1="30.35" y1="6.54" x2="30.35" y2="220.84" fill="none" stroke="black" stroke-width="0.25px" stroke-linecap="butt" />
<line x1="42.26" y1="6.54" x2="42.26" y2="220.84" fill="none" stroke="black" stroke-width="0.25px" stroke-linecap="butt" />
<line x1="54.17" y1="6.54" x2="54.17" y2="220.84" fill="none" stroke="black" stroke-width="0.25px" stroke-linecap="butt" />
<line x1="66.07" y1="6.54" x2="66.07" y2="220.84" fill="none" stroke="black" stroke-width="0.25px" stroke-linecap="butt" />
<line x1="77.98" y1="6.54" x2="77.98" y2="220.84" fill="none" stroke="black" stroke-width="0.25px" stroke-linecap="butt" />
<line x1="89.88" y1="6.54" x2="89.88" y2="220.84" fill="none" stroke="black" stroke-width="0.25px" stroke-linecap="butt" />
<line x1="101.79" y1="6.54" x2="101.79" y2="220.84" fill="none" stroke="black" stroke-width="0.25px" stroke-linecap="butt" />
<line x1="113.69" y1="6.54" x2="113.69" y2="220.84" fill="none" stroke="black" stroke-width="0.25px" stroke-linecap="butt" />
<line x1="125.60" y1="6.54" x2="125.60" y2="220.84" fill="none" stroke="black" stroke-width="0.25px" stroke-linecap="butt" />
<line x1="137.50" y1="6.54" x2="137.50" y2="220.84" fill="none" stroke="black" stroke-width="0.25px" stroke-linecap="butt" />
<line x1="149.41" y1="6.54" x2="149.41" y2="220.84" fill="none" stroke="black" stroke-width="0.25px" stroke-linecap="butt" />
<line x1="161.31" y1="6.54" x2="161.31" y2="220.84" fill="none" stroke="black" stroke-width="0.25px" stroke-linecap="butt" />
<line x1="173.22" y1="6.54" x2="173.22" y2="220.84" fill="none" stroke="black" stroke-width="0.25px" stroke-linecap="butt" />
<line x1="185.13" y1="6.54" x2="185.13" y2="220.84" fill="none" stroke="black" stroke-width="0.25px" stroke-linecap="butt" />
<line x1="197.03" y1="6.54" x2="197.03" y2="220.84" fill="none" stroke="black" stroke-width="0.25px" stroke-linecap="butt" />
<line x1="208.94" y1="6.54" x2="208.94" y2="220.84" fill="none" stroke="black" stroke-width="0.25px" stroke-linecap="butt" />
<line x1="220.84" y1="6.54" x2="220.84" y2="220.84" fill="none" stroke="black" stroke-width="0.87px" stroke-linecap="square" />
<line x1="6.54" y1="6.54" x2="220.84" y2="6.54" fill="none" stroke="black" stroke-width="0.87px" stroke-linecap="square" />
<line x1="6.54" y1="18.45" x2="220.84" y2="18.45" fill="none" stroke="black" stroke-width="0.25px" stroke-linecap="butt" />
<line x1="6.54" y1="30.35" x2="220.84" y2="30.35" fill="none" stroke="black" stroke-width="0.25px" stroke-linecap="butt" />
<line x1="6.54" y1="42.26" x2="220.84" y2="42.26" fill="none" stroke="black" stroke-width="0.25px" stroke-linecap="butt" />
<line x1="6.54" y1="54.17" x2="220.84" y2="54.17" fill="none" stroke="black" stroke-width="0.25px" stroke-linecap="butt" />
<line x1="6.54" y1="66.07" x2="220.84" y2="66.07" fill="none" stroke="black" stroke-width="0.25px" stroke-linecap="butt" />
<line x1="6.54" y1="77.98" x2="220.84" y2="77.98" fill="none" stroke="black" stroke-width="0.25px" stroke-linecap="butt" />
<line x1="6.54" y1="89.88" x2="220.84" y2="89.88" fill="none" stroke="black" stroke-width="0.25px" stroke-linecap="butt" />
<line x1="6.54" y1="101.79" x2="220.84" y2="101.79" fill="none" stroke="black" stroke-width="0.25px" stroke-linecap="butt" />
<line x1="6.54" y1="113.69" x2="220.84" y2="113.69" fill="none" stroke="black" stroke-width="0.25px" stroke-linecap="butt" />
<line x1="6.54" y1="125.60" x2="220.84" y2="125.60" fill="none" stroke="black" stroke-width="0.25px" stroke-linecap="butt" />
<line x1="6.54" y1="137.50" x2="220.84" y2="137.50" fill="none" stroke="black" stroke-width="0.25px" stroke-linecap="butt" />
<line x1="6.54" y1="149.41" x2="220.84" y2="149.41" fill="none" stroke="black" stroke-width="0.25px" stroke-linecap="butt" />
<line x1="6.54" y1="161.31" x2="220.84" y2="161.31" fill="none" stroke="black" stroke-width="0.25px" stroke-linecap="butt" />
<line x1="6.54" y1="173.22" x2="220.84" y2="173.22" fill="none" stroke="black" stroke-width="0.25px" stroke-linecap="butt" />
<line x1="6.54" y1="185.13" x2="220.84" y2="185.13" fill="none" stroke="black" stroke-width="0.25px" stroke-linecap="butt" />
<line x1="6.54" y1="197.03" x2="220.84" y2="197.03" fill="none" stroke="black" stroke-width="0.25px" stroke-linecap="butt" />
<line x1="6.54" y1="208.94" x2="220.84" y2="208.94" fill="none" stroke="black" stroke-width="0.25px" stroke-linecap="butt" />
<line x1="6.54" y1="220.84" x2="220.84" y2="220.84" fill="none" stroke="black" stroke-width="0.87px" stroke-linecap="square" />
<circle cx="30.35" cy="54.17" r="5.98" fill="black"/>
<circle cx="30.35" cy="77.98" r="5.85" fill="white"/>
<circle cx="30.35" cy="77.98" r="5.85" fill="none" stroke="black" stroke-width="0.25px"/>
<circle cx="30.35" cy="89.88" r="5.85" fill="white"/>
<circle cx="30.35" cy="89.88" r="5.85" fill="none" stroke="black" stroke-width="0.25px"/>
<circle cx="30.35" cy="125.60" r="5.85" fill="white"/>
<circle cx="30.35" cy="125.60" r="5.85" fill="none" stroke="black" stroke-width="0.25px"/>
<circle cx="30.35" cy="161.31" r="5.85" fill="white"/>
<circle cx="30.35" cy="161.31" r="5.85" fill="none" stroke="black" stroke-width="0.25px"/>
<circle cx="30.35" cy="173.22" r="5.85" fill="white"/>
<circle cx="30.35" cy="173.22" r="5.85" fill="none" stroke="black" stroke-width="0.25px"/>
<circle cx="30.35" cy="185.13" r="5.98" fill="black"/>
<circle cx="42.26" cy="30.35" r="5.85" fill="white"/>
<circle cx="42.26" cy="30.35" r="5.85" fill="none" stroke="black" stroke-width="0.25px"/>
<circle cx="42.26" cy="42.26" r="1.27" fill="black"/>
<circle cx="42.26" cy="77.98" r="5.85" fill="white"/>
<circle cx="42.26" cy="77.98" r="5.85" fill="none" stroke="black" stroke-width="0.25px"/>
<circle cx="42.26" cy="89.88" r="5.98" fill="black"/>
<circle cx="42.26" cy="101.79" r="5.85" fill="white"/>
<circle cx="42.26" cy="101.79" r="5.85" fill="none" stroke="black" stroke-width="0.25px"/>
<circle cx="42.26" cy="113.69" r="5.85" fill="white"/>
<circle cx="42.26" cy="113.69" r="5.85" fill="none" stroke="black" stroke-width="0.25px"/>
<circle cx="42.26" cy="149.41" r="5.85" fill="white"/>
<circle cx="42.26" cy="149.41" r="5.85" fill="none" stroke="black" stroke-width="0.25px"/>
<circle cx="42.26" cy="161.31" r="5.98" fill="black"/>
<circle cx="42.26" cy="185.13" r="5.98" fill="black"/>
<circle cx="54.17" cy="66.07" r="5.98" fill="black"/>
<circle cx="54.17" cy="77.98" r="5.98" fill="black"/>
<circle cx="54.17" cy="89.88" r="5.98" fill="black"/>
<circle cx="54.17" cy="101.79" r="5.98" fill="black"/>
<circle cx="54.17" cy="161.31" r="5.98" fill="black"/>
<circle cx="66.07" cy="125.60" r="5.98" fill="black"/>
<circle cx="66.07" cy="137.50" r="5.98" fill="black"/>
<circle cx="66.07" cy="197.03" r="5.98" fill="black"/>
<circle cx="77.98" cy="30.35" r="5.85" fill="white"/>
<circle cx="77.98" cy="30.35" r="5.85" fill="none" stroke="black" stroke-width="0.25px"/>
<circle cx="77.98" cy="113.69" r="5.85" fill="white"/>
<circle cx="77.98" cy="113.69" r="5.85" fill="none" stroke="black" stroke-width="0.25px"/>
<circle cx="77.98" cy="125.60" r="5.85" fill="white"/>
<circle cx="77.98" cy="125.60" r="5.85" fill="none" stroke="black" stroke-width="0.25px"/>
<circle cx="77.98" cy="137.50" r="5.98" fill="black"/>
<circle cx="89.88" cy="101.79" r="5.98" fill="black"/>
<circle cx="89.88" cy="113.69" r="5.98" fill="black"/>
<circle cx="89.88" cy="125.60" r="5.98" fill="black"/>
<circle cx="89.88" cy="137.50" r="5.85" fill="white"/>
<circle cx="89.88" cy="137.50" r="5.85" fill="none" stroke="black" stroke-width="0.25px"/>
<circle cx="89.88" cy="149.41" r="5.85" fill="white"/>
<circle cx="89.88" cy="149.41" r="5.85" fill="none" stroke="black" stroke-width="0.25px"/>
<circle cx="89.88" cy="161.31" r="5.85" fill="white"/>
<circle cx="89.88" cy="161.31" r="5.85" fill="none" stroke="black" stroke-width="0.25px"/>
<circle cx="89.88" cy="185.13" r="5.85" fill="white"/>
<circle cx="89.88" cy="185.13" r="5.85" fill="none" stroke="black" stroke-width="0.25px"/>
<circle cx="101.79" cy="101.79" r="5.98" fill="black"/>
<circle cx="101.79" cy="113.69" r="5.85" fill="white"/>
<circle cx="101.79" cy="113.69" r="5.85" fill="none" stroke="black" stroke-width="0.25px"/>
<circle cx="101.79" cy="125.60" r="5.85" fill="white"/>
<circle cx="101.79" cy="125.60" r="5.85" fill="none" stroke="black" stroke-width="0.25px"/>
<circle cx="101.79" cy="137.50" r="5.98" fill="black"/>
<circle cx="101.79" cy="149.41" r="5.98" fill="black"/>
<circle cx="101.79" cy="185.13" r="5.85" fill="white"/>
<circle cx="101.79" cy="185.13" r="5.85" fill="none" stroke="black" stroke-width="0.25px"/>
<circle cx="101.79" cy="197.03" r="5.98" fill="black"/>
<circle cx="113.69" cy="30.35" r="5.85" fill="white"/>
<circle cx="113.69" cy="30.35" r="5.85" fill="none" stroke="black" stroke-width="0.25px"/>
<circle cx="113.69" cy="42.26" r="1.27" fill="black"/>
<circle cx="113.69" cy="54.17" r="5.85" fill="white"/>
<circle cx="113.69" cy="54.17" r="5.85" fill="none" stroke="black" stroke-width="0.25px"/>
<circle cx="113.69" cy="77.98" r="5.98" fill="black"/>
<circle cx="113.69" cy="113.69" r="5.85" fill="white"/>
<circle cx="113.69" cy="113.69" r="5.85" fill="none" stroke="black" stroke-width="0.25px"/>
<circle cx="113.69" cy="137.50" r="5.85" fill="white"/>
<circle cx="113.69" cy="137.50" r="5.85" fill="none" stroke="black" stroke-width="0.25px"/>
<circle cx="113.69" cy="149.41" r="5.98" fill="black"/>
<circle cx="113.69" cy="161.31" r="5.98" fill="black"/>
<circle cx="113.69" cy="185.13" r="1.27" fill="black"/>
<circle cx="113.69" cy="208.94" r="5.98" fill="black"/>
<circle cx="125.60" cy="66.07" r="5.85" fill="white"/>
<circle cx="125.60" cy="66.07" r="5.85" fill="none" stroke="black" stroke-width="0.25px"/>
<circle cx="125.60" cy="113.69" r="5.85" fill="white"/>
<circle cx="125.60" cy="113.69" r="5.85" fill="none" stroke="black" stroke-width="0.25px"/>
<circle cx="125.60" cy="137.50" r="5.85" fill="white"/>
<circle cx="125.60" cy="137.50" r="5.85" fill="none" stroke="black" stroke-width="0.25px"/>
<circle cx="125.60" cy="149.41" r="5.98" fill="black"/>
<circle cx="125.60" cy="197.03" r="5.85" fill="white"/>
<circle cx="125.60" cy="197.03" r="5.85" fill="none" stroke="black" stroke-width="0.25px"/>
<circle cx="125.60" cy="208.94" r="5.85" fill="white"/>
<circle cx="125.60" cy="208.94" r="5.85" fill="none" stroke="black" stroke-width="0.25px"/>
<circle cx="137.50" cy="30.35" r="5.98" fill="black"/>
<circle cx="137.50" cy="54.17" r="5.98" fill="black"/>
<circle cx="137.50" cy="77.98" r="5.85" fill="white"/>
<circle cx="137.50" cy="77.98" r="5.85" fill="none" stroke="black" stroke-width="0.25px"/>
<circle cx="137.50" cy="89.88" r="5.85" fill="white"/>
<circle cx="137.50" cy="89.88" r="5.85" fill="none" stroke="black" stroke-width="0.25px"/>
<circle cx="137.50" cy="137.50" r="5.98" fill="black"/>
<circle cx="137.50" cy="185.13" r="5.85" fill="white"/>
<circle cx="137.50" cy="185.13" r="5.85" fill="none" stroke="black" stroke-width="0.25px"/>
<circle cx="149.41" cy="77.98" r="5.98" fill="black"/>
<circle cx="149.41" cy="89.88" r="5.98" fill="black"/>
<circle cx="149.41" cy="113.69" r="5.85" fill="white"/>
<circle cx="149.41" cy="113.69" r="5.85" fill="none" stroke="black" stroke-width="0.25px"/>
<circle cx="149.41" cy="149.41" r="5.98" fill="black"/>
<circle cx="149.41" cy="173.22" r="5.85" fill="white"/>
<circle cx="149.41" cy="173.22" r="5.85" fill="none" stroke="black" stroke-width="0.25px"/>
<circle cx="149.41" cy="197.03" r="5.98" fill="black"/>
<circle cx="161.31" cy="125.60" r="5.98" fill="black"/>
<circle cx="173.22" cy="89.88" r="5.98" fill="black"/>
<circle cx="173.22" cy="113.69" r="5.98" fill="black"/>
<circle cx="173.22" cy="185.13" r="5.85" fill="white"/>
<circle cx="173.22" cy="185.13" r="5.85" fill="none" stroke="black" stroke-width="0.25px"/>
<circle cx="185.13" cy="30.35" r="5.98" fill="black"/>
<circle cx="185.13" cy="42.26" r="5.98" fill="black"/>
<circle cx="185.13" cy="113.69" r="1.27" fill="black"/>
<circle cx="185.13" cy="161.31" r="5.85" fill="white"/>
<circle cx="185.13" cy="161.31" r="5.85" fill="none" stroke="black" stroke-width="0.25px"/>
<circle cx="185.13" cy="185.13" r="1.27" fill="black"/>
<circle cx="185.13" cy="197.03" r="5.85" fill="white"/>
<circle cx="185.13" cy="197.03" r="5.85" fill="none" stroke="black" stroke-width="0.25px"/>
<circle cx="197.03" cy="89.88" r="5.98" fill="black"/>
<circle cx="197.03" cy="113.69" r="5.85" fill="white"/>
<circle cx="197.03" cy="113.69" r="5.85" fill="none" stroke="black" stroke-width="0.25px"/>
<circle cx="197.03" cy="125.60" r="5.85" fill="white"/>
<circle cx="197.03" cy="125.60" r="5.85" fill="none" stroke="black" stroke-width="0.25px"/>
<circle cx="197.03" cy="137.50" r="5.85" fill="white"/>
<circle cx="197.03" cy="137.50" r="5.85" fill="none" stroke="black" stroke-width="0.25px"/>
<circle cx="197.03" cy="149.41" r="5.85" fill="white"/>
<circle cx="197.03" cy="149.41" r="5.85" fill="none" stroke="black" stroke-width="0.25px"/>
<circle cx="197.03" cy="173.22" r="5.98" fill="black"/>
<circle cx="208.94" cy="113.69" r="5.98" fill="black"/>
<circle cx="208.94" cy="125.60" r="5.98" fill="black"/>
<circle cx="208.94" cy="137.50" r="5.98" fill="black"/>
<circle cx="208.94" cy="149.41" r="5.85" fill="white"/>
<circle cx="208.94" cy="149.41" r="5.85" fill="none" stroke="black" stroke-width="0.25px"/>
<path d="
M66.04 134.76
C66.04 134.76 66.04 134.76 66.04 134.76
C66.04 134.76 66.04 134.76 66.04 134.76
C66.26 134.76 66.44 134.85 66.60 135.03
C66.76 135.21 66.85 135.45 66.85 135.74
C66.85 136.03 66.77 136.26 66.61 136.43
C66.46 136.60 66.27 136.69 66.05 136.69
C66.05 136.69 66.05 136.69 66.05 136.69
C66.05 136.69 66.05 136.69 66.05 136.69
C65.83 136.69 65.64 136.60 65.49 136.43
C65.33 136.25 65.25 136.01 65.25 135.70
C65.25 135.43 65.33 135.20 65.49 135.02
C65.64 134.85 65.83 134.76 66.04 134.76
Z
M66.03 137.68
C66.03 137.68 66.03 137.68 66.03 137.68
C66.03 137.68 66.03 137.68 66.04 137.68
C66.32 137.68 66.56 137.79 66.77 138.02
C66.98 138.26 67.08 138.58 67.08 138.97
C67.08 139.37 66.98 139.68 66.78 139.91
C66.58 140.13 66.34 140.24 66.05 140.24
C66.05 140.24 66.05 140.24 66.05 140.24
C66.05 140.24 66.05 140.24 66.05 140.24
C65.77 140.24 65.53 140.13 65.33 139.90
C65.12 139.66 65.01 139.34 65.01 138.95
C65.01 138.56 65.11 138.26 65.32 138.02
C65.51 137.79 65.75 137.68 66.03 137.68
Z
M66.04 133.77
C65.52 133.77 65.09 133.95 64.75 134.32
C64.41 134.68 64.24 135.15 64.23 135.72
C64.23 136.10 64.31 136.42 64.47 136.68
C64.59 136.87 64.73 137.02 64.92 137.14
L64.92 137.14
C64.67 137.27 64.47 137.46 64.32 137.71
C64.11 138.03 64.00 138.45 64.00 138.95
C64.00 139.63 64.20 140.18 64.59 140.60
C64.98 141.02 65.47 141.24 66.05 141.24
C66.63 141.24 67.12 141.02 67.51 140.60
C67.89 140.18 68.09 139.63 68.09 138.97
C68.09 138.49 67.99 138.08 67.79 137.75
C67.63 137.50 67.43 137.30 67.17 137.15
L67.17 137.15
C67.36 137.03 67.51 136.87 67.62 136.68
C67.78 136.43 67.85 136.11 67.85 135.75
C67.85 135.17 67.68 134.70 67.34 134.33
C66.99 133.96 66.56 133.77 66.04 133.77
Z
" fill="white" fill-rule="nonzero" />
<path d="
M76.74 110.16
L76.18 113.78
L76.85 113.88
C76.96 113.67 77.11 113.50 77.29 113.38
C77.48 113.26 77.68 113.20 77.89 113.20
C78.25 113.20 78.55 113.34 78.78 113.62
C79.02 113.89 79.13 114.28 79.13 114.78
C79.13 115.32 79.01 115.74 78.77 116.05
C78.53 116.36 78.24 116.51 77.90 116.51
C77.63 116.51 77.39 116.40 77.19 116.18
C76.99 115.96 76.86 115.63 76.80 115.18
L76.06 115.26
C76.10 115.87 76.30 116.35 76.64 116.70
C76.99 117.05 77.41 117.22 77.91 117.22
C78.51 117.22 78.99 116.98 79.35 116.49
C79.70 115.99 79.88 115.41 79.88 114.72
C79.88 114.02 79.70 113.47 79.35 113.05
C78.99 112.64 78.57 112.44 78.09 112.44
C77.70 112.44 77.34 112.58 77.00 112.88
L77.31 110.99
L79.61 110.99
L79.61 110.16
Z
" fill="black" fill-rule="nonzero" />
<path d="
M77.88 122.00
C77.43 122.00 77.05 122.16 76.74 122.46
C76.42 122.77 76.22 123.23 76.13 123.83
L76.84 123.98
C76.89 123.56 77.01 123.24 77.20 123.03
C77.38 122.82 77.61 122.71 77.89 122.71
C78.15 122.71 78.37 122.81 78.55 123.01
C78.73 123.21 78.83 123.48 78.83 123.81
C78.83 124.17 78.72 124.45 78.50 124.67
C78.28 124.88 78.00 124.99 77.65 124.99
L77.54 124.98
L77.46 125.74
C77.66 125.67 77.82 125.64 77.96 125.64
C78.27 125.64 78.54 125.77 78.76 126.02
C78.98 126.27 79.09 126.59 79.09 127.00
C79.09 127.44 78.97 127.79 78.73 128.07
C78.49 128.34 78.21 128.48 77.89 128.48
C77.29 128.48 76.92 128.02 76.77 127.10
L76.06 127.21
C76.11 127.82 76.30 128.30 76.65 128.66
C76.99 129.01 77.41 129.19 77.90 129.19
C78.43 129.19 78.89 128.99 79.27 128.58
C79.65 128.17 79.84 127.64 79.84 126.99
C79.84 126.69 79.79 126.41 79.70 126.16
C79.61 125.92 79.49 125.72 79.33 125.57
C79.18 125.43 78.99 125.32 78.76 125.26
C79.01 125.12 79.21 124.92 79.35 124.68
C79.49 124.43 79.56 124.15 79.56 123.83
C79.56 123.30 79.39 122.87 79.07 122.52
C78.74 122.18 78.34 122.00 77.88 122.00
Z
" fill="black" fill-rule="nonzero" />
<path d="
M77.99 137.32
C78.26 137.32 78.48 137.44 78.67 137.68
C78.87 137.92 78.97 138.28 78.97 138.75
C78.97 139.23 78.87 139.60 78.67 139.86
C78.48 140.12 78.27 140.24 78.04 140.24
C78.04 140.24 78.03 140.24 78.03 140.24
C78.03 140.24 78.03 140.24 78.03 140.24
C77.76 140.24 77.52 140.11 77.31 139.84
C77.09 139.55 76.98 139.17 76.98 138.70
C76.98 138.26 77.08 137.92 77.29 137.68
C77.49 137.44 77.72 137.32 77.98 137.32
C77.98 137.32 77.99 137.32 77.99 137.32
C77.99 137.32 77.99 137.32 77.99 137.32
Z
M78.09 133.77
C77.44 133.77 76.90 134.08 76.49 134.70
C76.08 135.30 75.88 136.29 75.88 137.68
C75.88 138.94 76.08 139.84 76.47 140.39
C76.88 140.95 77.40 141.24 78.03 141.24
C78.38 141.24 78.70 141.14 79.00 140.94
C79.29 140.74 79.52 140.44 79.71 140.03
C79.89 139.63 79.98 139.19 79.98 138.70
C79.98 137.97 79.79 137.38 79.43 136.94
C79.06 136.50 78.63 136.27 78.13 136.27
C77.82 136.27 77.54 136.36 77.27 136.53
C77.13 136.62 77.00 136.73 76.88 136.86
L76.88 136.86
C76.92 136.26 77.02 135.79 77.18 135.45
C77.30 135.22 77.43 135.04 77.58 134.93
C77.72 134.82 77.87 134.76 78.05 134.76
C78.05 134.76 78.05 134.76 78.05 134.76
C78.05 134.76 78.05 134.76 78.05 134.76
C78.27 134.76 78.46 134.86 78.62 135.05
C78.74 135.18 78.83 135.42 78.89 135.76
L78.91 135.88
L79.04 135.87
L79.75 135.80
L79.89 135.79
L79.87 135.65
C79.81 135.05 79.61 134.58 79.29 134.26
C78.97 133.93 78.57 133.77 78.09 133.77
Z
" fill="white" fill-rule="nonzero" />
<path d="
M91.84 100.30
L91.84 102.71
L90.74 102.71
L91.84 100.30
Z
M88.20 98.07
L88.16 98.17
C88.07 98.46 87.91 98.77 87.67 99.08
C87.44 99.40 87.17 99.67 86.87 99.88
L86.81 99.93
L86.81 100.00
L86.81 100.84
L86.81 101.09
L87.02 100.97
C87.22 100.86 87.43 100.70 87.66 100.49
C87.77 100.39 87.87 100.29 87.96 100.20
L87.96 100.20
L87.96 105.36
L87.96 105.50
L88.81 105.50
L88.81 105.36
L88.81 98.21
L88.81 98.07
Z
M92.00 98.10
L91.96 98.18
L89.83 102.80
L89.81 102.82
L89.81 102.86
L89.81 103.66
L89.81 103.80
L91.84 103.80
L91.84 105.36
L91.84 105.50
L92.70 105.50
L92.70 105.36
L92.70 103.80
L93.33 103.80
L93.33 103.66
L93.33 102.86
L93.33 102.71
L92.70 102.71
L92.70 98.24
L92.70 98.10
Z
" fill="white" fill-rule="nonzero" />
<path d="
M91.64 110.92
C91.64 110.92 91.64 110.92 91.64 110.92
C91.64 110.92 91.64 110.92 91.64 110.92
C91.75 110.92 91.85 110.96 91.93 111.03
C92.03 111.12 92.12 111.25 92.20 111.43
C92.37 111.80 92.46 112.56 92.46 113.70
C92.46 114.82 92.37 115.57 92.20 115.96
C92.12 116.14 92.04 116.27 91.94 116.36
C91.86 116.43 91.77 116.47 91.68 116.47
C91.68 116.47 91.68 116.47 91.68 116.47
C91.68 116.47 91.68 116.47 91.68 116.47
C91.57 116.47 91.48 116.43 91.39 116.36
C91.29 116.27 91.20 116.14 91.12 115.96
C90.96 115.59 90.87 114.83 90.87 113.70
C90.87 112.57 90.95 111.81 91.12 111.43
C91.20 111.25 91.29 111.12 91.38 111.03
C91.46 110.96 91.55 110.92 91.64 110.92
Z
M88.20 109.91
L88.16 110.01
C88.07 110.31 87.91 110.61 87.67 110.93
C87.44 111.24 87.17 111.51 86.87 111.73
L86.81 111.77
L86.81 111.84
L86.81 112.69
L86.81 112.93
L87.02 112.81
C87.22 112.70 87.43 112.54 87.66 112.34
C87.77 112.24 87.87 112.14 87.96 112.04
L87.96 112.04
L87.96 117.21
L87.96 117.35
L88.81 117.35
L88.81 117.21
L88.81 110.06
L88.81 109.91
Z
M91.67 109.91
C91.38 109.91 91.13 110.00 90.92 110.18
C90.71 110.35 90.54 110.59 90.40 110.92
C90.13 111.56 90.00 112.48 90.00 113.70
C90.00 115.05 90.15 116.01 90.44 116.58
C90.59 116.87 90.77 117.09 90.97 117.24
C91.18 117.39 91.41 117.47 91.66 117.47
C91.95 117.47 92.20 117.38 92.42 117.21
C92.62 117.04 92.80 116.79 92.94 116.46
C93.20 115.82 93.33 114.90 93.33 113.70
C93.33 112.35 93.17 111.36 92.85 110.74
C92.71 110.47 92.54 110.27 92.35 110.13
C92.15 109.99 91.92 109.91 91.67 109.91
Z
" fill="white" fill-rule="nonzero" />
<path d="
M90.09 124.00
L90.09 126.50
L88.67 126.50
L90.09 124.00
Z
M90.28 121.94
L90.24 122.01
L87.61 126.57
L87.59 126.60
L87.59 126.64
L87.59 127.43
L87.59 127.57
L90.09 127.57
L90.09 129.12
L90.09 129.26
L91.08 129.26
L91.08 129.12
L91.08 127.57
L91.87 127.57
L91.87 127.43
L91.87 126.64
L91.87 126.50
L91.08 126.50
L91.08 122.08
L91.08 121.94
Z
" fill="white" fill-rule="nonzero" />
<path d="
M88.01 134.03
L88.01 134.86
L90.83 134.86
C90.47 135.36 90.14 135.97 89.83 136.68
C89.52 137.39 89.27 138.13 89.10 138.92
C88.92 139.70 88.83 140.39 88.82 140.98
L89.55 140.98
C89.61 139.84 89.85 138.69 90.28 137.53
C90.70 136.37 91.19 135.43 91.74 134.70
L91.74 134.03
Z
" fill="black" fill-rule="nonzero" />
<path d="
M90.17 145.88
C90.05 146.18 89.84 146.50 89.54 146.82
C89.24 147.15 88.89 147.42 88.50 147.64
L88.50 148.48
C88.73 148.38 88.99 148.22 89.26 148.02
C89.54 147.82 89.76 147.63 89.92 147.44
L89.92 152.94
L90.63 152.94
L90.63 145.88
Z
" fill="black" fill-rule="nonzero" />
<path d="
M88.30 157.68
C88.20 157.99 88.03 158.31 87.79 158.64
C87.55 158.96 87.27 159.24 86.95 159.47
L86.95 160.31
C87.14 160.21 87.34 160.05 87.57 159.85
C87.79 159.65 87.97 159.45 88.10 159.26
L88.10 164.83
L88.67 164.83
L88.67 157.68
Z
M90.70 157.80
L90.24 161.46
L90.78 161.57
C90.87 161.35 90.99 161.18 91.14 161.06
C91.29 160.94 91.46 160.88 91.63 160.88
C91.92 160.88 92.16 161.02 92.35 161.30
C92.54 161.58 92.63 161.97 92.63 162.48
C92.63 163.02 92.54 163.45 92.34 163.76
C92.14 164.08 91.91 164.23 91.63 164.23
C91.42 164.23 91.23 164.12 91.06 163.90
C90.90 163.68 90.79 163.34 90.74 162.89
L90.14 162.96
C90.18 163.59 90.34 164.07 90.62 164.42
C90.90 164.78 91.24 164.95 91.64 164.95
C92.13 164.95 92.52 164.70 92.81 164.21
C93.10 163.71 93.24 163.11 93.24 162.42
C93.24 161.71 93.10 161.15 92.81 160.73
C92.52 160.32 92.18 160.11 91.79 160.11
C91.48 160.11 91.18 160.26 90.90 160.55
L91.16 158.64
L93.02 158.64
L93.02 157.80
Z
" fill="black" fill-rule="nonzero" />
<path d="
M99.98 98.07
C99.50 98.07 99.11 98.26 98.81 98.64
C98.53 99.01 98.36 99.55 98.32 100.26
L98.31 100.39
L98.44 100.41
L99.03 100.50
L99.19 100.53
L99.19 100.36
C99.19 99.93 99.27 99.61 99.42 99.39
C99.57 99.18 99.74 99.08 99.96 99.08
C99.96 99.08 99.96 99.08 99.96 99.08
C99.97 99.08 99.97 99.08 99.97 99.08
C100.17 99.08 100.34 99.17 100.48 99.36
C100.63 99.57 100.71 99.83 100.71 100.16
C100.71 100.46 100.63 100.78 100.47 101.12
C100.31 101.48 99.96 101.98 99.43 102.64
C98.97 103.22 98.64 103.73 98.47 104.17
C98.29 104.61 98.20 105.01 98.21 105.37
L98.21 105.50
L101.58 105.50
L101.58 105.36
L101.58 104.52
L101.58 104.38
L99.37 104.38
C99.41 104.29 99.46 104.21 99.51 104.12
C99.61 103.97 99.83 103.67 100.17 103.24
C100.71 102.54 101.08 101.97 101.27 101.55
C101.48 101.11 101.58 100.66 101.58 100.18
C101.58 99.65 101.45 99.16 101.19 98.74
C100.91 98.29 100.51 98.07 99.98 98.07
Z
M103.61 98.07
C103.13 98.07 102.74 98.26 102.44 98.64
C102.16 99.01 101.99 99.55 101.95 100.26
L101.94 100.39
L102.07 100.41
L102.66 100.50
L102.82 100.53
L102.82 100.36
C102.82 99.93 102.90 99.61 103.05 99.39
C103.20 99.18 103.37 99.08 103.59 99.08
C103.59 99.08 103.59 99.08 103.59 99.08
C103.60 99.08 103.60 99.08 103.60 99.08
C103.80 99.08 103.97 99.17 104.11 99.36
C104.26 99.57 104.34 99.83 104.34 100.16
C104.34 100.46 104.26 100.78 104.10 101.12
C103.94 101.48 103.59 101.98 103.06 102.64
C102.60 103.22 102.27 103.73 102.10 104.17
C101.92 104.61 101.83 105.01 101.84 105.37
L101.84 105.50
L105.21 105.50
L105.21 105.36
L105.21 104.52
L105.21 104.38
L103.00 104.38
C103.04 104.29 103.09 104.21 103.14 104.12
C103.24 103.97 103.46 103.67 103.80 103.24
C104.34 102.54 104.71 101.97 104.90 101.55
C105.11 101.11 105.21 100.66 105.21 100.18
C105.21 99.65 105.08 99.16 104.82 98.74
C104.54 98.29 104.14 98.07 103.61 98.07
Z
" fill="white" fill-rule="nonzero" />
<path d="
M100.21 110.05
C100.11 110.36 99.94 110.68 99.69 111.01
C99.45 111.34 99.17 111.61 98.86 111.84
L98.86 112.69
C99.04 112.58 99.25 112.43 99.47 112.23
C99.69 112.03 99.87 111.83 100.00 111.63
L100.00 117.21
L100.58 117.21
L100.58 110.05
Z
M103.52 110.05
C103.16 110.05 102.85 110.21 102.60 110.52
C102.35 110.83 102.18 111.29 102.11 111.90
L102.68 112.06
C102.72 111.62 102.82 111.30 102.97 111.09
C103.12 110.88 103.31 110.77 103.53 110.77
C103.74 110.77 103.92 110.87 104.07 111.08
C104.22 111.28 104.29 111.55 104.29 111.88
C104.29 112.24 104.20 112.53 104.03 112.75
C103.85 112.97 103.62 113.08 103.34 113.08
L103.25 113.07
L103.18 113.83
C103.34 113.77 103.48 113.74 103.59 113.74
C103.84 113.74 104.06 113.86 104.24 114.12
C104.41 114.37 104.50 114.70 104.50 115.12
C104.50 115.56 104.40 115.92 104.21 116.19
C104.02 116.47 103.79 116.61 103.53 116.61
C103.05 116.61 102.75 116.14 102.63 115.21
L102.05 115.33
C102.09 115.94 102.25 116.42 102.53 116.79
C102.80 117.15 103.14 117.33 103.54 117.33
C103.97 117.33 104.34 117.12 104.65 116.71
C104.96 116.29 105.11 115.76 105.11 115.10
C105.11 114.79 105.07 114.52 105.00 114.27
C104.92 114.02 104.82 113.82 104.70 113.67
C104.58 113.52 104.43 113.41 104.24 113.35
C104.44 113.21 104.60 113.01 104.71 112.76
C104.82 112.51 104.88 112.22 104.88 111.90
C104.88 111.37 104.75 110.93 104.48 110.58
C104.22 110.23 103.90 110.05 103.52 110.05
Z
" fill="black" fill-rule="nonzero" />
<path d="
M101.77 122.72
C102.06 122.72 102.32 122.86 102.54 123.15
C102.76 123.44 102.88 123.84 102.88 124.34
C102.88 124.84 102.77 125.23 102.55 125.51
C102.33 125.78 102.07 125.92 101.75 125.92
C101.44 125.92 101.16 125.79 100.94 125.51
C100.71 125.24 100.60 124.87 100.60 124.41
C100.60 123.90 100.72 123.49 100.95 123.18
C101.19 122.87 101.46 122.72 101.77 122.72
Z
M101.69 122.01
C101.18 122.01 100.75 122.22 100.40 122.64
C100.04 123.07 99.87 123.65 99.87 124.38
C99.87 125.09 100.04 125.66 100.38 126.07
C100.72 126.48 101.13 126.69 101.60 126.69
C101.85 126.69 102.11 126.60 102.36 126.44
C102.61 126.27 102.81 126.04 102.95 125.76
L102.95 125.93
C102.95 126.48 102.89 126.96 102.75 127.38
C102.62 127.79 102.45 128.08 102.26 128.24
C102.07 128.40 101.85 128.48 101.61 128.48
C101.08 128.48 100.76 128.11 100.65 127.37
L99.97 127.44
C100.03 128.01 100.21 128.44 100.50 128.74
C100.80 129.04 101.16 129.19 101.60 129.19
C101.99 129.19 102.34 129.07 102.65 128.82
C102.96 128.57 103.21 128.18 103.39 127.65
C103.57 127.12 103.66 126.37 103.66 125.40
C103.66 124.53 103.58 123.87 103.41 123.41
C103.24 122.95 103.00 122.60 102.69 122.36
C102.38 122.12 102.05 122.01 101.69 122.01
Z
" fill="black" fill-rule="nonzero" />
<path d="
M101.80 133.83
C101.22 133.83 100.75 134.01 100.39 134.38
C100.04 134.75 99.83 135.29 99.78 136.00
L99.77 136.13
L99.90 136.15
L100.63 136.24
L100.79 136.26
L100.79 136.10
C100.79 135.68 100.89 135.36 101.07 135.14
C101.26 134.93 101.49 134.83 101.77 134.83
C101.78 134.83 101.78 134.83 101.78 134.83
C101.78 134.83 101.78 134.83 101.78 134.83
C102.05 134.83 102.27 134.93 102.45 135.12
C102.63 135.32 102.73 135.58 102.73 135.90
C102.73 136.19 102.63 136.50 102.44 136.84
C102.24 137.18 101.81 137.68 101.16 138.33
C100.58 138.91 100.18 139.41 99.96 139.84
C99.74 140.28 99.63 140.68 99.64 141.04
L99.65 141.18
L103.74 141.18
L103.74 141.04
L103.74 140.21
L103.74 140.06
L101.01 140.06
C101.06 139.98 101.12 139.90 101.18 139.82
C101.30 139.67 101.57 139.38 101.99 138.95
C102.66 138.26 103.12 137.70 103.36 137.28
C103.61 136.85 103.73 136.39 103.73 135.92
C103.73 135.38 103.57 134.90 103.25 134.48
C102.92 134.05 102.44 133.83 101.80 133.83
Z
" fill="white" fill-rule="nonzero" />
<path d="
M100.10 145.69
L100.07 145.79
C99.98 146.09 99.81 146.39 99.58 146.71
C99.35 147.02 99.08 147.29 98.77 147.51
L98.72 147.55
L98.72 147.62
L98.72 148.47
L98.71 148.71
L98.93 148.59
C99.12 148.48 99.34 148.32 99.57 148.11
C99.67 148.01 99.77 147.92 99.86 147.82
L99.86 147.82
L99.86 152.98
L99.86 153.13
L100.72 153.13
L100.72 152.98
L100.72 145.83
L100.72 145.69
Z
M103.61 145.69
C103.13 145.69 102.74 145.88 102.44 146.26
C102.16 146.63 101.99 147.17 101.95 147.88
L101.94 148.01
L102.07 148.03
L102.66 148.13
L102.82 148.15
L102.82 147.99
C102.82 147.56 102.90 147.23 103.05 147.01
C103.20 146.80 103.37 146.70 103.59 146.70
C103.59 146.70 103.59 146.70 103.59 146.70
C103.60 146.70 103.60 146.70 103.60 146.70
C103.80 146.70 103.97 146.79 104.11 146.98
C104.26 147.19 104.34 147.45 104.34 147.79
C104.34 148.08 104.26 148.40 104.10 148.75
C103.94 149.10 103.59 149.61 103.06 150.26
C102.60 150.85 102.27 151.36 102.10 151.79
C101.92 152.23 101.83 152.63 101.84 152.99
L101.84 153.13
L105.21 153.13
L105.21 152.98
L105.21 152.14
L105.21 152.00
L103.00 152.00
C103.04 151.92 103.09 151.83 103.14 151.74
C103.24 151.59 103.46 151.30 103.80 150.86
C104.34 150.16 104.71 149.60 104.90 149.17
C105.11 148.73 105.21 148.28 105.21 147.81
C105.21 147.27 105.08 146.79 104.82 146.36
C104.54 145.92 104.14 145.69 103.61 145.69
Z
" fill="white" fill-rule="nonzero" />
<path d="
M111.89 110.05
C111.45 110.05 111.10 110.23 110.83 110.57
C110.56 110.92 110.41 111.43 110.37 112.11
L110.96 112.21
C110.96 111.75 111.04 111.39 111.21 111.15
C111.38 110.90 111.60 110.78 111.87 110.78
C112.12 110.78 112.33 110.89 112.50 111.12
C112.67 111.35 112.75 111.64 112.75 112.01
C112.75 112.32 112.67 112.66 112.50 113.02
C112.34 113.39 111.99 113.90 111.45 114.57
C110.99 115.15 110.68 115.64 110.50 116.06
C110.33 116.48 110.25 116.87 110.26 117.21
L113.35 117.21
L113.35 116.36
L111.05 116.36
C111.12 116.21 111.20 116.05 111.30 115.89
C111.40 115.73 111.62 115.43 111.96 114.99
C112.50 114.30 112.86 113.75 113.05 113.33
C113.24 112.91 113.34 112.48 113.34 112.03
C113.34 111.51 113.22 111.06 112.97 110.66
C112.73 110.25 112.37 110.05 111.89 110.05
Z
M115.43 110.05
C115.07 110.05 114.76 110.21 114.50 110.52
C114.25 110.83 114.09 111.29 114.02 111.90
L114.59 112.06
C114.63 111.62 114.72 111.30 114.88 111.09
C115.03 110.88 115.21 110.77 115.43 110.77
C115.65 110.77 115.83 110.87 115.97 111.08
C116.12 111.28 116.20 111.55 116.20 111.88
C116.20 112.24 116.11 112.53 115.93 112.75
C115.76 112.97 115.53 113.08 115.24 113.08
L115.15 113.07
L115.09 113.83
C115.25 113.77 115.38 113.74 115.49 113.74
C115.75 113.74 115.97 113.86 116.14 114.12
C116.32 114.37 116.41 114.70 116.41 115.12
C116.41 115.56 116.31 115.92 116.12 116.19
C115.93 116.47 115.70 116.61 115.44 116.61
C114.95 116.61 114.65 116.14 114.53 115.21
L113.96 115.33
C114.00 115.94 114.15 116.42 114.43 116.79
C114.71 117.15 115.05 117.33 115.45 117.33
C115.88 117.33 116.24 117.12 116.55 116.71
C116.86 116.29 117.02 115.76 117.02 115.10
C117.02 114.79 116.98 114.52 116.90 114.27
C116.83 114.02 116.73 113.82 116.61 113.67
C116.49 113.52 116.33 113.41 116.15 113.35
C116.35 113.21 116.50 113.01 116.62 112.76
C116.73 112.51 116.79 112.22 116.79 111.90
C116.79 111.37 116.65 110.93 116.39 110.58
C116.13 110.23 115.80 110.05 115.43 110.05
Z
" fill="black" fill-rule="nonzero" />
<path d="
M112.11 133.93
C112.01 134.24 111.84 134.56 111.60 134.88
C111.36 135.21 111.08 135.49 110.76 135.72
L110.76 136.56
C110.95 136.46 111.15 136.30 111.38 136.10
C111.60 135.90 111.78 135.70 111.91 135.51
L111.91 141.08
L112.48 141.08
L112.48 133.93
Z
M115.74 133.93
C115.64 134.24 115.47 134.56 115.23 134.88
C114.99 135.21 114.71 135.49 114.39 135.72
L114.39 136.56
C114.58 136.46 114.78 136.30 115.01 136.10
C115.23 135.90 115.41 135.70 115.54 135.51
L115.54 141.08
L116.11 141.08
L116.11 133.93
Z
" fill="black" fill-rule="nonzero" />
<path d="
M115.45 146.64
C115.45 146.64 115.45 146.64 115.45 146.64
C115.45 146.64 115.45 146.64 115.45 146.64
C115.56 146.64 115.66 146.68 115.75 146.75
C115.84 146.84 115.93 146.97 116.01 147.14
C116.18 147.52 116.27 148.27 116.27 149.41
C116.27 150.54 116.18 151.29 116.02 151.67
C115.94 151.85 115.85 151.99 115.75 152.07
C115.67 152.15 115.58 152.18 115.49 152.18
C115.49 152.18 115.49 152.18 115.49 152.18
C115.49 152.18 115.49 152.18 115.49 152.18
C115.38 152.18 115.29 152.15 115.20 152.07
C115.10 151.99 115.02 151.86 114.94 151.68
C114.77 151.30 114.68 150.55 114.68 149.41
C114.68 148.28 114.77 147.53 114.93 147.15
C115.01 146.97 115.10 146.84 115.19 146.75
C115.27 146.68 115.36 146.64 115.45 146.64
Z
M111.89 145.63
C111.41 145.63 111.02 145.82 110.72 146.20
C110.43 146.57 110.27 147.11 110.22 147.82
L110.22 147.95
L110.34 147.97
L110.93 148.07
L111.10 148.09
L111.10 147.93
C111.10 147.49 111.18 147.17 111.33 146.95
C111.47 146.74 111.65 146.64 111.87 146.64
C111.87 146.64 111.87 146.64 111.87 146.64
C111.87 146.64 111.87 146.64 111.87 146.64
C112.07 146.64 112.24 146.73 112.38 146.92
C112.54 147.13 112.61 147.39 112.61 147.73
C112.61 148.02 112.53 148.34 112.37 148.69
C112.21 149.04 111.87 149.54 111.34 150.20
C110.87 150.79 110.55 151.30 110.37 151.73
C110.19 152.17 110.11 152.57 110.12 152.93
L110.12 153.07
L113.49 153.07
L113.49 152.92
L113.49 152.08
L113.49 151.94
L111.27 151.94
C111.31 151.86 111.36 151.77 111.42 151.68
C111.51 151.53 111.73 151.23 112.07 150.80
C112.61 150.10 112.98 149.54 113.18 149.11
C113.38 148.67 113.48 148.22 113.48 147.75
C113.48 147.21 113.35 146.73 113.09 146.30
C112.82 145.86 112.42 145.63 111.89 145.63
Z
M115.48 145.63
C115.20 145.63 114.95 145.72 114.73 145.89
C114.52 146.06 114.35 146.31 114.21 146.64
C113.94 147.27 113.81 148.20 113.81 149.41
C113.81 150.77 113.96 151.73 114.25 152.29
C114.40 152.59 114.58 152.81 114.78 152.96
C114.99 153.11 115.22 153.19 115.47 153.19
C115.76 153.19 116.01 153.10 116.23 152.92
C116.44 152.76 116.61 152.51 116.75 152.17
C117.01 151.54 117.14 150.62 117.14 149.41
C117.14 148.06 116.98 147.08 116.66 146.46
C116.52 146.19 116.35 145.98 116.16 145.84
C115.96 145.70 115.73 145.63 115.48 145.63
Z
" fill="white" fill-rule="nonzero" />
<path d="
M123.79 62.49
C123.36 62.49 123.00 62.67 122.74 63.01
C122.47 63.36 122.31 63.87 122.27 64.55
L122.86 64.65
C122.86 64.19 122.95 63.83 123.12 63.59
C123.29 63.34 123.51 63.22 123.78 63.22
C124.02 63.22 124.23 63.33 124.40 63.56
C124.57 63.79 124.66 64.09 124.66 64.45
C124.66 64.76 124.57 65.10 124.41 65.47
C124.24 65.83 123.89 66.35 123.36 67.01
C122.90 67.59 122.58 68.08 122.41 68.50
C122.24 68.93 122.15 69.31 122.16 69.65
L125.25 69.65
L125.25 68.81
L122.96 68.81
C123.02 68.65 123.10 68.49 123.20 68.33
C123.30 68.17 123.52 67.87 123.86 67.44
C124.40 66.74 124.77 66.19 124.96 65.77
C125.15 65.36 125.24 64.92 125.24 64.47
C125.24 63.96 125.12 63.50 124.88 63.10
C124.63 62.70 124.27 62.49 123.79 62.49
Z
M125.90 62.62
L125.90 63.46
L128.18 63.46
C127.89 63.96 127.62 64.57 127.37 65.29
C127.12 66.01 126.92 66.77 126.78 67.56
C126.63 68.36 126.56 69.05 126.55 69.65
L127.14 69.65
C127.19 68.49 127.39 67.33 127.73 66.16
C128.07 64.98 128.47 64.03 128.92 63.30
L128.92 62.62
Z
" fill="black" fill-rule="nonzero" />
<path d="
M127.40 110.78
C127.63 110.78 127.84 110.93 128.02 111.22
C128.20 111.51 128.30 111.91 128.30 112.42
C128.30 112.93 128.21 113.32 128.03 113.60
C127.85 113.88 127.64 114.02 127.39 114.02
C127.13 114.02 126.91 113.88 126.73 113.61
C126.54 113.33 126.45 112.96 126.45 112.49
C126.45 111.97 126.55 111.56 126.74 111.25
C126.93 110.94 127.15 110.78 127.40 110.78
Z
M124.02 110.06
C123.92 110.37 123.75 110.69 123.51 111.01
C123.26 111.34 122.98 111.62 122.67 111.84
L122.67 112.69
C122.85 112.59 123.06 112.43 123.28 112.23
C123.50 112.03 123.68 111.83 123.81 111.64
L123.81 117.21
L124.39 117.21
L124.39 110.06
Z
M127.33 110.06
C126.92 110.06 126.57 110.27 126.29 110.70
C126.00 111.13 125.86 111.72 125.86 112.46
C125.86 113.18 126.00 113.75 126.27 114.17
C126.55 114.58 126.88 114.79 127.26 114.79
C127.47 114.79 127.67 114.71 127.88 114.54
C128.08 114.37 128.24 114.14 128.36 113.86
L128.36 114.03
C128.36 114.59 128.30 115.07 128.19 115.49
C128.09 115.91 127.95 116.20 127.80 116.36
C127.64 116.53 127.47 116.61 127.27 116.61
C126.84 116.61 126.58 116.23 126.50 115.48
L125.94 115.56
C125.99 116.13 126.13 116.57 126.37 116.87
C126.61 117.18 126.91 117.33 127.26 117.33
C127.58 117.33 127.86 117.20 128.11 116.96
C128.36 116.71 128.56 116.31 128.71 115.77
C128.86 115.23 128.93 114.47 128.93 113.49
C128.93 112.61 128.86 111.94 128.73 111.47
C128.59 111.01 128.40 110.66 128.14 110.42
C127.89 110.18 127.62 110.06 127.33 110.06
Z
" fill="black" fill-rule="nonzero" />
<path d="
M124.02 133.93
C123.92 134.24 123.75 134.56 123.51 134.88
C123.26 135.21 122.98 135.49 122.67 135.72
L122.67 136.56
C122.85 136.46 123.06 136.30 123.28 136.10
C123.50 135.90 123.68 135.70 123.81 135.51
L123.81 141.08
L124.39 141.08
L124.39 133.93
Z
M125.90 134.05
L125.90 134.89
L128.18 134.89
C127.89 135.40 127.62 136.01 127.37 136.73
C127.12 137.45 126.92 138.20 126.78 139.00
C126.63 139.79 126.56 140.48 126.55 141.08
L127.14 141.08
C127.19 139.93 127.39 138.76 127.73 137.59
C128.07 136.41 128.47 135.46 128.92 134.73
L128.92 134.05
Z
" fill="black" fill-rule="nonzero" />
<path d="
M127.42 149.22
C127.63 149.22 127.80 149.34 127.95 149.57
C128.11 149.83 128.19 150.19 128.19 150.67
C128.19 151.16 128.11 151.54 127.94 151.81
C127.79 152.06 127.63 152.18 127.46 152.18
C127.46 152.18 127.46 152.18 127.46 152.18
C127.46 152.18 127.46 152.18 127.46 152.18
C127.25 152.18 127.07 152.05 126.90 151.78
C126.72 151.49 126.63 151.10 126.63 150.62
C126.63 150.17 126.72 149.82 126.89 149.57
C127.04 149.34 127.22 149.22 127.42 149.22
C127.42 149.22 127.42 149.22 127.42 149.22
C127.42 149.22 127.42 149.22 127.42 149.22
Z
M123.91 145.63
L123.88 145.73
C123.79 146.03 123.62 146.33 123.39 146.65
C123.16 146.96 122.89 147.23 122.59 147.45
L122.53 147.49
L122.53 147.56
L122.53 148.41
L122.53 148.65
L122.74 148.53
C122.93 148.42 123.15 148.26 123.38 148.05
C123.49 147.95 123.58 147.85 123.67 147.76
L123.67 147.76
L123.67 152.92
L123.67 153.07
L124.53 153.07
L124.53 152.92
L124.53 145.77
L124.53 145.63
Z
M127.51 145.63
C127.23 145.63 126.98 145.71 126.75 145.88
C126.54 146.04 126.34 146.27 126.18 146.58
C125.85 147.19 125.69 148.19 125.69 149.59
C125.69 150.86 125.85 151.77 126.17 152.32
C126.33 152.60 126.52 152.82 126.73 152.96
C126.95 153.11 127.19 153.19 127.46 153.19
C127.75 153.19 128.02 153.08 128.27 152.88
C128.50 152.68 128.70 152.37 128.84 151.96
C128.99 151.56 129.06 151.11 129.06 150.62
C129.06 149.89 128.91 149.30 128.62 148.86
C128.32 148.39 127.95 148.16 127.53 148.16
C127.28 148.16 127.04 148.25 126.81 148.43
C126.72 148.51 126.64 148.59 126.56 148.69
L126.56 148.69
C126.59 148.11 126.67 147.65 126.80 147.32
C126.89 147.08 127.00 146.90 127.12 146.79
C127.22 146.68 127.34 146.63 127.47 146.63
C127.47 146.63 127.47 146.63 127.47 146.63
C127.47 146.63 127.47 146.63 127.47 146.63
C127.64 146.63 127.78 146.73 127.91 146.91
C128.00 147.05 128.07 147.29 128.12 147.63
L128.14 147.77
L128.28 147.75
L128.85 147.69
L128.99 147.67
L128.98 147.53
C128.92 146.93 128.77 146.46 128.51 146.14
C128.24 145.80 127.91 145.63 127.51 145.63
Z
" fill="white" fill-rule="nonzero" />
<path d="
M139.33 53.97
C139.53 53.97 139.71 54.09 139.85 54.33
C140.01 54.58 140.09 54.95 140.09 55.43
C140.09 55.91 140.01 56.29 139.85 56.57
C139.70 56.82 139.54 56.94 139.37 56.94
C139.37 56.94 139.37 56.94 139.37 56.94
C139.36 56.94 139.36 56.94 139.36 56.94
C139.16 56.94 138.97 56.81 138.81 56.54
C138.63 56.25 138.54 55.86 138.54 55.37
C138.54 54.93 138.62 54.58 138.79 54.33
C138.95 54.09 139.13 53.97 139.32 53.97
C139.32 53.97 139.33 53.97 139.33 53.97
C139.33 53.97 139.33 53.97 139.33 53.97
Z
M135.70 50.39
C135.22 50.39 134.83 50.58 134.53 50.96
C134.24 51.33 134.08 51.87 134.04 52.58
L134.03 52.71
L134.15 52.73
L134.75 52.82
L134.91 52.85
L134.91 52.68
C134.91 52.25 134.99 51.92 135.14 51.70
C135.28 51.50 135.46 51.39 135.68 51.39
C135.68 51.39 135.68 51.39 135.68 51.39
C135.68 51.39 135.68 51.39 135.68 51.39
C135.88 51.39 136.05 51.49 136.19 51.68
C136.35 51.88 136.42 52.15 136.42 52.48
C136.42 52.78 136.34 53.10 136.19 53.44
C136.02 53.79 135.68 54.30 135.15 54.96
C134.68 55.54 134.36 56.05 134.18 56.48
C134.00 56.92 133.92 57.32 133.93 57.68
L133.93 57.82
L137.30 57.82
L137.30 57.68
L137.30 56.84
L137.30 56.70
L135.08 56.70
C135.12 56.61 135.17 56.53 135.23 56.44
C135.32 56.28 135.54 55.99 135.88 55.56
C136.43 54.85 136.79 54.29 136.99 53.86
C137.19 53.43 137.29 52.98 137.29 52.50
C137.29 51.96 137.16 51.48 136.90 51.06
C136.63 50.61 136.23 50.39 135.70 50.39
Z
M139.41 50.39
C139.14 50.39 138.89 50.47 138.66 50.63
C138.44 50.79 138.25 51.03 138.08 51.34
C137.76 51.94 137.60 52.95 137.60 54.35
C137.60 55.61 137.75 56.52 138.07 57.08
C138.24 57.36 138.42 57.57 138.64 57.72
C138.85 57.87 139.10 57.94 139.36 57.94
C139.66 57.94 139.93 57.84 140.17 57.63
C140.41 57.43 140.60 57.13 140.75 56.71
C140.89 56.31 140.96 55.86 140.96 55.37
C140.96 54.64 140.82 54.05 140.53 53.61
C140.22 53.15 139.86 52.92 139.44 52.92
C139.18 52.92 138.94 53.01 138.72 53.19
C138.63 53.26 138.54 53.35 138.46 53.45
L138.46 53.45
C138.50 52.87 138.58 52.41 138.70 52.08
C138.80 51.84 138.90 51.66 139.02 51.54
C139.13 51.44 139.25 51.39 139.38 51.39
C139.38 51.39 139.38 51.39 139.38 51.39
C139.38 51.39 139.38 51.39 139.38 51.39
C139.54 51.39 139.69 51.48 139.81 51.67
C139.91 51.81 139.98 52.05 140.03 52.39
L140.05 52.53
L140.19 52.51
L140.76 52.44
L140.89 52.43
L140.88 52.29
C140.83 51.68 140.67 51.22 140.42 50.90
C140.15 50.56 139.81 50.39 139.41 50.39
Z
" fill="white" fill-rule="nonzero" />
<path d="
M135.70 74.34
C135.26 74.34 134.91 74.51 134.64 74.86
C134.37 75.20 134.22 75.72 134.18 76.40
L134.77 76.49
C134.77 76.03 134.85 75.68 135.02 75.43
C135.20 75.19 135.41 75.06 135.68 75.06
C135.93 75.06 136.14 75.18 136.31 75.41
C136.48 75.63 136.56 75.93 136.56 76.29
C136.56 76.61 136.48 76.95 136.31 77.31
C136.15 77.67 135.80 78.19 135.26 78.86
C134.80 79.43 134.49 79.93 134.31 80.35
C134.14 80.77 134.06 81.15 134.07 81.49
L137.16 81.49
L137.16 80.65
L134.86 80.65
C134.93 80.49 135.01 80.33 135.11 80.17
C135.21 80.02 135.43 79.72 135.77 79.28
C136.31 78.59 136.67 78.03 136.86 77.62
C137.05 77.20 137.15 76.77 137.15 76.31
C137.15 75.80 137.03 75.34 136.78 74.94
C136.54 74.54 136.18 74.34 135.70 74.34
Z
M138.32 74.47
L137.87 78.12
L138.41 78.23
C138.49 78.01 138.61 77.84 138.76 77.72
C138.92 77.60 139.08 77.54 139.25 77.54
C139.54 77.54 139.78 77.68 139.97 77.96
C140.16 78.24 140.26 78.64 140.26 79.14
C140.26 79.69 140.16 80.11 139.96 80.42
C139.76 80.74 139.53 80.89 139.26 80.89
C139.04 80.89 138.85 80.78 138.68 80.56
C138.52 80.34 138.41 80.00 138.37 79.55
L137.76 79.63
C137.80 80.25 137.96 80.73 138.24 81.09
C138.52 81.44 138.86 81.61 139.26 81.61
C139.75 81.61 140.14 81.36 140.43 80.87
C140.72 80.37 140.86 79.77 140.86 79.08
C140.86 78.37 140.72 77.81 140.43 77.39
C140.14 76.98 139.80 76.77 139.41 76.77
C139.10 76.77 138.80 76.92 138.53 77.22
L138.78 75.30
L140.64 75.30
L140.64 74.47
Z
" fill="black" fill-rule="nonzero" />
<path d="
M139.30 86.97
C139.54 86.97 139.75 87.11 139.93 87.41
C140.11 87.70 140.20 88.10 140.20 88.61
C140.20 89.12 140.11 89.51 139.94 89.79
C139.76 90.07 139.55 90.21 139.29 90.21
C139.04 90.21 138.81 90.07 138.63 89.79
C138.45 89.52 138.35 89.15 138.35 88.68
C138.35 88.16 138.45 87.75 138.64 87.44
C138.84 87.12 139.06 86.97 139.30 86.97
Z
M135.70 86.25
C135.26 86.25 134.91 86.42 134.64 86.76
C134.37 87.11 134.22 87.62 134.18 88.31
L134.77 88.40
C134.77 87.94 134.85 87.58 135.02 87.34
C135.20 87.09 135.41 86.97 135.68 86.97
C135.93 86.97 136.14 87.08 136.31 87.31
C136.48 87.54 136.56 87.84 136.56 88.20
C136.56 88.51 136.48 88.85 136.31 89.22
C136.15 89.58 135.80 90.10 135.26 90.76
C134.80 91.34 134.49 91.83 134.31 92.25
C134.14 92.68 134.06 93.06 134.07 93.40
L137.16 93.40
L137.16 92.56
L134.86 92.56
C134.93 92.40 135.01 92.24 135.11 92.08
C135.21 91.92 135.43 91.62 135.77 91.19
C136.31 90.49 136.67 89.94 136.86 89.52
C137.05 89.11 137.15 88.67 137.15 88.22
C137.15 87.71 137.03 87.25 136.78 86.85
C136.54 86.45 136.18 86.25 135.70 86.25
Z
M139.24 86.25
C138.83 86.25 138.48 86.46 138.19 86.89
C137.91 87.32 137.76 87.91 137.76 88.65
C137.76 89.37 137.90 89.94 138.18 90.36
C138.45 90.77 138.78 90.98 139.16 90.98
C139.37 90.98 139.58 90.90 139.78 90.73
C139.98 90.56 140.14 90.33 140.26 90.04
L140.26 90.22
C140.26 90.78 140.21 91.26 140.10 91.68
C139.99 92.10 139.86 92.39 139.70 92.55
C139.54 92.72 139.37 92.80 139.18 92.80
C138.75 92.80 138.49 92.42 138.40 91.67
L137.85 91.75
C137.90 92.32 138.04 92.76 138.28 93.06
C138.52 93.37 138.81 93.52 139.17 93.52
C139.48 93.52 139.76 93.39 140.02 93.14
C140.27 92.89 140.47 92.50 140.62 91.96
C140.76 91.42 140.84 90.66 140.84 89.68
C140.84 88.80 140.77 88.13 140.63 87.66
C140.50 87.20 140.30 86.84 140.05 86.60
C139.80 86.36 139.53 86.25 139.24 86.25
Z
" fill="black" fill-rule="nonzero" />
<path d="
M139.29 134.73
C139.29 134.73 139.29 134.73 139.30 134.73
C139.30 134.73 139.30 134.73 139.30 134.73
C139.46 134.73 139.60 134.81 139.72 134.99
C139.85 135.17 139.92 135.42 139.92 135.72
C139.92 136.02 139.85 136.25 139.72 136.43
C139.61 136.60 139.47 136.68 139.31 136.68
C139.31 136.68 139.30 136.68 139.30 136.68
C139.30 136.68 139.30 136.68 139.30 136.68
C139.13 136.68 138.99 136.60 138.87 136.43
C138.74 136.25 138.68 135.99 138.68 135.67
C138.68 135.39 138.74 135.16 138.88 134.98
C139.00 134.81 139.13 134.73 139.29 134.73
Z
M139.28 137.68
C139.29 137.68 139.29 137.68 139.29 137.68
C139.29 137.68 139.29 137.68 139.29 137.68
C139.51 137.68 139.69 137.79 139.85 138.02
C140.02 138.26 140.11 138.59 140.11 138.99
C140.11 139.40 140.03 139.72 139.86 139.95
C139.71 140.17 139.52 140.28 139.31 140.28
C139.31 140.28 139.30 140.28 139.30 140.28
C139.30 140.28 139.30 140.28 139.30 140.28
C139.09 140.28 138.90 140.17 138.74 139.94
C138.57 139.70 138.49 139.37 138.49 138.96
C138.49 138.57 138.57 138.26 138.74 138.01
C138.89 137.79 139.07 137.68 139.28 137.68
Z
M135.82 133.73
L135.79 133.82
C135.69 134.12 135.53 134.43 135.30 134.74
C135.06 135.06 134.79 135.32 134.49 135.54
L134.43 135.58
L134.43 135.65
L134.43 136.50
L134.43 136.74
L134.64 136.62
C134.84 136.52 135.05 136.36 135.28 136.15
C135.39 136.05 135.49 135.95 135.58 135.85
L135.58 135.85
L135.58 141.02
L135.58 141.16
L136.44 141.16
L136.44 141.02
L136.44 133.87
L136.44 133.73
Z
M139.29 133.73
C138.86 133.73 138.50 133.92 138.22 134.29
C137.94 134.66 137.81 135.13 137.81 135.70
C137.81 136.08 137.87 136.40 138.00 136.66
C138.09 136.85 138.21 137.01 138.37 137.14
L138.37 137.14
C138.17 137.27 138.00 137.47 137.87 137.72
C137.70 138.05 137.62 138.46 137.62 138.96
C137.62 139.65 137.77 140.20 138.09 140.62
C138.41 141.06 138.82 141.28 139.30 141.28
C139.79 141.28 140.19 141.06 140.51 140.62
C140.82 140.20 140.98 139.65 140.98 138.99
C140.98 138.51 140.90 138.10 140.74 137.77
C140.61 137.51 140.44 137.30 140.22 137.15
L140.22 137.15
C140.38 137.02 140.51 136.85 140.60 136.66
C140.73 136.40 140.79 136.09 140.79 135.73
C140.79 135.15 140.65 134.67 140.38 134.30
C140.09 133.92 139.73 133.73 139.29 133.73
Z
" fill="white" fill-rule="nonzero" />
<path d="
M151.17 75.20
C151.17 75.20 151.17 75.20 151.17 75.20
C151.17 75.20 151.17 75.20 151.17 75.20
C151.28 75.20 151.37 75.24 151.46 75.32
C151.56 75.40 151.65 75.53 151.73 75.71
C151.90 76.08 151.98 76.84 151.98 77.98
C151.98 79.10 151.90 79.86 151.73 80.24
C151.65 80.42 151.56 80.55 151.47 80.64
C151.39 80.71 151.30 80.75 151.21 80.75
C151.21 80.75 151.21 80.75 151.20 80.75
C151.20 80.75 151.20 80.75 151.20 80.75
C151.10 80.75 151.01 80.71 150.92 80.64
C150.82 80.55 150.73 80.42 150.65 80.24
C150.48 79.87 150.40 79.11 150.40 77.98
C150.40 76.85 150.48 76.10 150.65 75.72
C150.73 75.53 150.81 75.40 150.91 75.31
C150.99 75.24 151.08 75.20 151.17 75.20
Z
M151.20 74.20
C150.91 74.20 150.66 74.28 150.45 74.46
C150.24 74.63 150.06 74.88 149.93 75.21
C149.66 75.84 149.53 76.76 149.53 77.98
C149.53 79.33 149.68 80.29 149.97 80.86
C150.12 81.15 150.30 81.37 150.50 81.52
C150.70 81.67 150.94 81.75 151.19 81.75
C151.48 81.75 151.73 81.66 151.94 81.49
C152.15 81.32 152.33 81.07 152.46 80.74
C152.73 80.10 152.86 79.18 152.86 77.98
C152.86 76.63 152.70 75.64 152.38 75.02
C152.24 74.75 152.07 74.55 151.88 74.41
C151.68 74.27 151.45 74.20 151.20 74.20
Z
M147.51 74.20
C147.11 74.20 146.76 74.37 146.48 74.71
C146.21 75.05 146.04 75.53 145.96 76.17
L145.95 76.29
L146.06 76.32
L146.64 76.48
L146.80 76.52
L146.81 76.35
C146.85 75.95 146.94 75.65 147.08 75.46
C147.20 75.28 147.35 75.20 147.52 75.20
C147.52 75.20 147.52 75.20 147.52 75.20
C147.52 75.20 147.52 75.20 147.52 75.20
C147.69 75.20 147.83 75.28 147.95 75.44
C148.08 75.62 148.14 75.86 148.14 76.16
C148.14 76.49 148.06 76.75 147.91 76.94
C147.76 77.13 147.57 77.22 147.34 77.22
L147.34 77.22
L147.26 77.21
L147.11 77.19
L147.10 77.34
L147.03 78.10
L147.01 78.33
L147.23 78.25
C147.37 78.19 147.49 78.16 147.58 78.16
C147.58 78.16 147.58 78.16 147.58 78.16
C147.58 78.16 147.58 78.16 147.58 78.16
C147.79 78.16 147.97 78.27 148.11 78.48
C148.27 78.71 148.35 79.01 148.35 79.40
C148.35 79.81 148.26 80.14 148.09 80.39
C147.93 80.63 147.74 80.75 147.53 80.75
C147.53 80.75 147.53 80.75 147.52 80.75
C147.52 80.75 147.52 80.75 147.52 80.75
C147.33 80.75 147.17 80.65 147.05 80.46
C146.91 80.25 146.82 79.92 146.76 79.47
L146.74 79.32
L146.59 79.35
L146.02 79.47
L145.89 79.49
L145.90 79.62
C145.94 80.26 146.11 80.77 146.41 81.16
C146.71 81.56 147.09 81.76 147.53 81.76
C148.01 81.76 148.42 81.53 148.75 81.08
C149.08 80.63 149.24 80.07 149.24 79.39
C149.24 79.06 149.20 78.77 149.13 78.51
C149.04 78.24 148.94 78.03 148.80 77.86
C148.72 77.75 148.61 77.67 148.49 77.60
L148.49 77.60
C148.63 77.46 148.75 77.30 148.83 77.10
C148.95 76.83 149.01 76.53 149.01 76.18
C149.01 75.62 148.87 75.15 148.59 74.78
C148.30 74.39 147.94 74.20 147.51 74.20
Z
" fill="white" fill-rule="nonzero" />
<path d="
M151.20 87.11
C151.20 87.11 151.20 87.11 151.20 87.11
C151.20 87.11 151.20 87.11 151.20 87.11
C151.36 87.11 151.50 87.19 151.62 87.36
C151.76 87.55 151.83 87.80 151.82 88.10
C151.83 88.39 151.76 88.63 151.63 88.81
C151.51 88.97 151.37 89.06 151.21 89.06
C151.21 89.06 151.21 89.06 151.21 89.06
C151.21 89.06 151.21 89.06 151.21 89.06
C151.04 89.06 150.90 88.97 150.78 88.81
C150.65 88.62 150.58 88.37 150.58 88.05
C150.58 87.77 150.65 87.54 150.78 87.36
C150.90 87.19 151.04 87.11 151.20 87.11
Z
M151.19 90.05
C151.19 90.05 151.19 90.05 151.19 90.05
C151.19 90.05 151.20 90.05 151.20 90.05
C151.41 90.05 151.60 90.17 151.76 90.40
C151.93 90.64 152.02 90.96 152.02 91.37
C152.02 91.77 151.93 92.09 151.77 92.33
C151.61 92.55 151.43 92.66 151.21 92.66
C151.21 92.66 151.21 92.66 151.21 92.66
C151.21 92.66 151.21 92.66 151.21 92.66
C150.99 92.66 150.81 92.54 150.65 92.32
C150.48 92.07 150.39 91.75 150.39 91.34
C150.39 90.95 150.48 90.63 150.64 90.39
C150.80 90.17 150.98 90.05 151.19 90.05
Z
M147.61 86.10
C147.12 86.10 146.73 86.30 146.43 86.68
C146.15 87.04 145.98 87.58 145.94 88.30
L145.93 88.43
L146.06 88.45
L146.65 88.54
L146.81 88.56
L146.81 88.40
C146.81 87.97 146.89 87.64 147.05 87.42
C147.19 87.21 147.37 87.11 147.58 87.11
C147.58 87.11 147.59 87.11 147.59 87.11
C147.59 87.11 147.59 87.11 147.59 87.11
C147.79 87.11 147.96 87.21 148.10 87.40
C148.25 87.60 148.33 87.87 148.33 88.20
C148.33 88.49 148.25 88.81 148.09 89.16
C147.93 89.51 147.59 90.02 147.06 90.67
C146.59 91.26 146.27 91.77 146.09 92.20
C145.91 92.64 145.82 93.04 145.83 93.40
L145.83 93.54
L149.21 93.54
L149.21 93.40
L149.21 92.56
L149.21 92.41
L146.99 92.41
C147.03 92.33 147.08 92.24 147.13 92.16
C147.23 92.00 147.45 91.71 147.79 91.27
C148.33 90.57 148.70 90.01 148.90 89.58
C149.10 89.15 149.20 88.69 149.20 88.22
C149.20 87.68 149.07 87.20 148.81 86.77
C148.54 86.33 148.13 86.10 147.61 86.10
Z
M151.20 86.10
C150.76 86.10 150.41 86.29 150.12 86.67
C149.85 87.04 149.71 87.50 149.71 88.08
C149.71 88.46 149.77 88.78 149.90 89.04
C149.99 89.23 150.12 89.39 150.28 89.52
L150.28 89.52
C150.07 89.65 149.90 89.85 149.77 90.10
C149.61 90.43 149.52 90.84 149.52 91.34
C149.52 92.02 149.68 92.58 149.99 93.00
C150.32 93.44 150.72 93.66 151.21 93.66
C151.69 93.66 152.09 93.44 152.42 93.00
C152.73 92.58 152.89 92.03 152.89 91.37
C152.89 90.88 152.81 90.48 152.64 90.15
C152.52 89.88 152.34 89.68 152.13 89.53
L152.13 89.53
C152.29 89.39 152.42 89.23 152.51 89.04
C152.63 88.78 152.70 88.47 152.70 88.11
C152.70 87.53 152.56 87.05 152.28 86.68
C151.99 86.30 151.63 86.10 151.20 86.10
Z
" fill="white" fill-rule="nonzero" />
<path d="
M147.61 110.12
C147.17 110.12 146.81 110.29 146.55 110.63
C146.28 110.98 146.12 111.49 146.08 112.18
L146.67 112.27
C146.67 111.81 146.76 111.46 146.93 111.21
C147.10 110.96 147.32 110.84 147.59 110.84
C147.84 110.84 148.04 110.95 148.21 111.18
C148.38 111.41 148.47 111.71 148.47 112.07
C148.47 112.38 148.39 112.72 148.22 113.09
C148.05 113.45 147.70 113.97 147.17 114.64
C146.71 115.21 146.39 115.71 146.22 116.13
C146.05 116.55 145.97 116.93 145.97 117.27
L149.06 117.27
L149.06 116.43
L146.77 116.43
C146.83 116.27 146.91 116.11 147.01 115.95
C147.11 115.79 147.33 115.50 147.68 115.06
C148.21 114.36 148.58 113.81 148.77 113.39
C148.96 112.98 149.06 112.54 149.06 112.09
C149.06 111.58 148.93 111.12 148.69 110.72
C148.44 110.32 148.08 110.12 147.61 110.12
Z
M151.46 110.12
C151.36 110.43 151.19 110.75 150.95 111.07
C150.70 111.40 150.42 111.68 150.11 111.90
L150.11 112.75
C150.30 112.65 150.50 112.49 150.72 112.29
C150.95 112.09 151.12 111.89 151.26 111.70
L151.26 117.27
L151.83 117.27
L151.83 110.12
Z
" fill="black" fill-rule="nonzero" />
<path d="
M163.27 124.11
L163.27 126.53
L162.17 126.53
L163.27 124.11
Z
M159.51 121.88
C159.03 121.88 158.64 122.07 158.34 122.45
C158.05 122.82 157.89 123.36 157.85 124.07
L157.84 124.20
L157.97 124.22
L158.56 124.31
L158.72 124.34
L158.72 124.17
C158.72 123.74 158.80 123.42 158.95 123.20
C159.09 122.99 159.27 122.89 159.49 122.89
C159.49 122.89 159.49 122.89 159.49 122.89
C159.49 122.89 159.49 122.89 159.50 122.89
C159.70 122.89 159.87 122.98 160.01 123.17
C160.16 123.38 160.23 123.64 160.23 123.98
C160.23 124.27 160.15 124.59 160.00 124.93
C159.84 125.29 159.49 125.79 158.96 126.45
C158.49 127.04 158.17 127.54 157.99 127.98
C157.81 128.42 157.73 128.82 157.74 129.18
L157.74 129.32
L161.11 129.32
L161.11 129.17
L161.11 128.33
L161.11 128.19
L158.89 128.19
C158.94 128.11 158.98 128.02 159.04 127.93
C159.14 127.78 159.35 127.48 159.69 127.05
C160.24 126.35 160.61 125.78 160.80 125.36
C161.00 124.92 161.10 124.47 161.10 123.99
C161.10 123.46 160.97 122.98 160.71 122.55
C160.44 122.11 160.04 121.88 159.51 121.88
Z
M163.43 121.91
L163.39 121.99
L161.26 126.61
L161.25 126.64
L161.25 126.67
L161.25 127.47
L161.25 127.61
L163.27 127.61
L163.27 129.17
L163.27 129.32
L164.13 129.32
L164.13 129.17
L164.13 127.61
L164.76 127.61
L164.76 127.47
L164.76 126.67
L164.76 126.53
L164.13 126.53
L164.13 122.05
L164.13 121.91
Z
" fill="white" fill-rule="nonzero" />
</g>
<g  transform="translate(1.19,228.58)" >
<path d="
M106.49 2.94
C106.33 2.94 106.19 3.00 106.07 3.11
C105.96 3.23 105.90 3.37 105.90 3.53
C105.90 3.69 105.96 3.83 106.08 3.95
C106.19 4.07 106.33 4.12 106.49 4.12
C106.66 4.12 106.80 4.07 106.91 3.95
C107.02 3.83 107.08 3.69 107.08 3.53
C107.08 3.37 107.02 3.23 106.91 3.11
C106.80 3.00 106.66 2.94 106.49 2.94
Z
M111.46 8.04
L111.46 10.07
C110.98 10.46 110.60 10.65 110.30 10.65
C110.08 10.65 109.89 10.56 109.73 10.37
C109.56 10.19 109.48 9.96 109.48 9.68
C109.48 9.46 109.54 9.25 109.67 9.07
C109.81 8.88 110.02 8.70 110.33 8.53
C110.50 8.44 110.88 8.27 111.46 8.04
Z
M99.82 3.77
C100.75 3.77 101.51 4.08 102.10 4.71
C102.69 5.34 102.99 6.20 102.99 7.29
C102.99 8.37 102.69 9.23 102.10 9.86
C101.51 10.49 100.76 10.81 99.86 10.81
C99.53 10.81 99.12 10.75 98.62 10.64
L98.62 3.94
C99.07 3.83 99.47 3.77 99.82 3.77
Z
M128.26 3.55
C128.48 3.55 128.68 3.61 128.83 3.74
C129.06 3.93 129.24 4.24 129.38 4.69
C129.56 5.29 129.65 6.04 129.65 6.94
C129.65 8.15 129.57 9.09 129.39 9.76
C129.27 10.20 129.10 10.52 128.88 10.70
C128.65 10.89 128.43 10.99 128.22 10.99
C127.79 10.99 127.46 10.70 127.24 10.12
C126.97 9.43 126.83 8.55 126.83 7.46
C126.83 6.79 126.88 6.11 126.99 5.42
C127.09 4.73 127.28 4.22 127.55 3.90
C127.76 3.67 128.00 3.55 128.26 3.55
Z
M96.37 3.33
L96.37 3.54
L96.67 3.54
C96.97 3.54 97.19 3.63 97.34 3.80
C97.45 3.92 97.51 4.23 97.51 4.72
L97.51 9.82
C97.51 10.26 97.46 10.55 97.38 10.68
C97.24 10.89 97.00 11.00 96.67 11.00
L96.37 11.00
L96.37 11.21
L99.90 11.21
C101.43 11.21 102.57 10.80 103.32 9.98
C103.98 9.24 104.32 8.33 104.32 7.23
C104.32 6.41 104.13 5.69 103.76 5.07
C103.38 4.44 102.89 4.00 102.27 3.73
C101.66 3.46 100.76 3.33 99.58 3.33
Z
M106.72 5.73
L105.12 6.38
L105.20 6.59
C105.35 6.53 105.48 6.50 105.59 6.50
C105.69 6.50 105.77 6.53 105.83 6.58
C105.89 6.62 105.93 6.71 105.96 6.83
C105.99 7.00 106.01 7.38 106.01 7.96
L106.01 10.01
C106.01 10.34 105.98 10.56 105.93 10.68
C105.88 10.79 105.81 10.88 105.72 10.93
C105.63 10.98 105.46 11.00 105.20 11.00
L105.20 11.21
L107.78 11.21
L107.78 11.00
C107.53 11.00 107.36 10.98 107.26 10.92
C107.17 10.87 107.10 10.79 107.05 10.68
C107.00 10.56 106.98 10.34 106.98 10.01
L106.98 5.73
Z
M122.04 3.16
C121.44 3.16 120.94 3.36 120.54 3.74
C120.14 4.12 119.89 4.67 119.79 5.39
L120.01 5.39
C120.16 4.95 120.38 4.62 120.69 4.39
C121.00 4.17 121.35 4.05 121.74 4.05
C122.16 4.05 122.53 4.22 122.84 4.54
C123.14 4.86 123.29 5.27 123.29 5.77
C123.29 6.42 123.02 7.15 122.46 7.94
C121.90 8.73 120.94 9.75 119.57 11.00
L119.57 11.21
L124.22 11.21
L124.77 9.70
L124.56 9.70
C124.46 9.87 124.34 10.00 124.20 10.10
C124.07 10.19 123.91 10.26 123.75 10.29
C123.58 10.32 123.28 10.33 122.86 10.33
L120.81 10.33
C121.05 10.12 121.65 9.48 122.61 8.43
C123.26 7.73 123.72 7.06 124.01 6.43
C124.20 6.03 124.29 5.63 124.29 5.23
C124.29 4.68 124.07 4.19 123.65 3.78
C123.22 3.37 122.68 3.16 122.04 3.16
Z
M110.65 5.73
C110.03 5.73 109.56 5.87 109.21 6.15
C108.87 6.43 108.70 6.73 108.70 7.07
C108.70 7.24 108.75 7.38 108.84 7.48
C108.93 7.58 109.05 7.63 109.19 7.63
C109.34 7.63 109.46 7.58 109.55 7.49
C109.64 7.39 109.69 7.25 109.69 7.07
L109.67 6.74
C109.67 6.56 109.75 6.41 109.89 6.28
C110.04 6.15 110.23 6.08 110.48 6.08
C110.80 6.08 111.04 6.18 111.21 6.38
C111.38 6.58 111.46 6.94 111.46 7.47
L111.46 7.68
C110.55 8.02 109.90 8.30 109.50 8.53
C109.11 8.76 108.83 9.01 108.67 9.28
C108.56 9.47 108.50 9.69 108.50 9.95
C108.50 10.36 108.62 10.69 108.86 10.95
C109.09 11.20 109.40 11.32 109.77 11.32
C110.00 11.32 110.23 11.27 110.44 11.18
C110.57 11.11 110.92 10.87 111.46 10.45
C111.47 10.76 111.53 10.99 111.64 11.12
C111.75 11.25 111.90 11.32 112.09 11.32
C112.49 11.32 112.90 11.03 113.34 10.45
L113.34 10.12
C113.10 10.35 112.95 10.49 112.87 10.54
C112.82 10.57 112.77 10.58 112.70 10.58
C112.65 10.58 112.59 10.57 112.55 10.53
C112.50 10.49 112.47 10.41 112.45 10.30
C112.43 10.18 112.42 9.87 112.42 9.36
L112.42 7.55
C112.42 7.04 112.39 6.70 112.32 6.53
C112.21 6.28 112.04 6.09 111.81 5.97
C111.51 5.81 111.12 5.73 110.65 5.73
Z
M128.26 3.16
C127.89 3.16 127.53 3.29 127.18 3.54
C126.73 3.86 126.37 4.34 126.10 4.99
C125.83 5.64 125.69 6.42 125.69 7.32
C125.69 8.37 125.91 9.27 126.33 10.02
C126.83 10.91 127.45 11.35 128.21 11.35
C128.59 11.35 128.98 11.21 129.39 10.92
C129.80 10.63 130.14 10.17 130.40 9.53
C130.66 8.89 130.79 8.11 130.79 7.19
C130.79 5.89 130.49 4.85 129.89 4.09
C129.41 3.47 128.87 3.16 128.26 3.16
Z
M114.85 10.08
C114.67 10.08 114.52 10.15 114.39 10.27
C114.26 10.39 114.20 10.55 114.20 10.73
C114.20 10.91 114.26 11.06 114.39 11.19
C114.52 11.31 114.67 11.38 114.85 11.38
C115.03 11.38 115.18 11.31 115.30 11.19
C115.43 11.06 115.49 10.91 115.49 10.73
C115.49 10.55 115.43 10.40 115.31 10.27
C115.18 10.15 115.03 10.08 114.85 10.08
Z
" fill="black" fill-rule="nonzero" />
</g>
</g>
</svg>
