<?xml version="1.0" encoding="utf-8" standalone="no"?>
<!DOCTYPE svg PUBLIC "-//W3C//DTD SVG 1.0//EN" "http://www.w3.org/TR/SVG/DTD/svg11.dtd" >
<svg version="1.1" baseProfile="full"  width="319.13385" height="338.46454" viewBox="0 0 229.77638 243.69449" preserveAspectRatio="xMidYMid" xmlns="http://www.w3.org/2000/svg" >

<g lengthAdjust="spacingAndGlyphs" xml:space='preserve' >
<g  transform="translate(1.19,1.19)" >
<path d="
M0.0 0.0
L0.0 227.39
L227.39 227.39
L227.39 0.0
Z
" fill="none" fill-rule="nonzero" />
<line x1="6.54" y1="6.54" x2="6.54" y2="220.84" fill="none" stroke="black" stroke-width="0.87px" stroke-linecap="square" />
<line x1="18.45" y1="6.54" x2="18.45" y2="220.84" fill="none" stroke="black" stroke-width="0.25px" stroke-linecap="butt" />
<line x1="30.35" y1="6.54" x2="30.35" y2="220.84" fill="none" stroke="black" stroke-width="0.25px" stroke-linecap="butt" />
<line x1="42.26" y1="6.54" x2="42.26" y2="220.84" fill="none" stroke="black" stroke-width="0.25px" stroke-linecap="butt" />
<line x1="54.17" y1="6.54" x2="54.17" y2="220.84" fill="none" stroke="black" stroke-width="0.25px" stroke-linecap="butt" />
<line x1="66.07" y1="6.54" x2="66.07" y2="220.84" fill="none" stroke="black" stroke-width="0.25px" stroke-linecap="butt" />
<line x1="77.98" y1="6.54" x2="77.98" y2="220.84" fill="none" stroke="black" stroke-width="0.25px" stroke-linecap="butt" />
<line x1="89.88" y1="6.54" x2="89.88" y2="220.84" fill="none" stroke="black" stroke-width="0.25px" stroke-linecap="butt" />
<line x1="101.79" y1="6.54" x2="101.79" y2="220.84" fill="none" stroke="black" stroke-width="0.25px" stroke-linecap="butt" />
<line x1="113.69" y1="6.54" x2="113.69" y2="220.84" fill="none" stroke="black" stroke-width="0.25px" stroke-linecap="butt" />
<line x1="125.60" y1="6.54" x2="125.60" y2="220.84" fill="none" stroke="black" stroke-width="0.25px" stroke-linecap="butt" />
<line x1="137.50" y1="6.54" x2="137.50" y2="220.84" fill="none" stroke="black" stroke-width="0.25px" stroke-linecap="butt" />
<line x1="149.41" y1="6.54" x2="149.41" y2="220.84" fill="none" stroke="black" stroke-width="0.25px" stroke-linecap="butt" />
<line x1="161.31" y1="6.54" x2="161.31" y2="220.84" fill="none" stroke="black" stroke-width="0.25px" stroke-linecap="butt" />
<line x1="173.22" y1="6.54" x2="173.22" y2="220.84" fill="none" stroke="black" stroke-width="0.25px" stroke-linecap="butt" />
<line x1="185.13" y1="6.54" x2="185.13" y2="220.84" fill="none" stroke="black" stroke-width="0.25px" stroke-linecap="butt" />
<line x1="197.03" y1="6.54" x2="197.03" y2="220.84" fill="none" stroke="black" stroke-width="0.25px" stroke-linecap="butt" />
<line x1="208.94" y1="6.54" x2="208.94" y2="220.84" fill="none" stroke="black" stroke-width="0.25px" stroke-linecap="butt" />
<line x1="220.84" y1="6.54" x2="220.84" y2="220.84" fill="none" stroke="black" stroke-width="0.87px" stroke-linecap="square" />
<line x1="6.54" y1="6.54" x2="220.84" y2="6.54" fill="none" stroke="black" stroke-width="0.87px" stroke-linecap="square" />
<line x1="6.54" y1="18.45" x2="220.84" y2="18.45" fill="none" stroke="black" stroke-width="0.25px" stroke-linecap="butt" />
<line x1="6.54" y1="30.35" x2="220.84" y2="30.35" fill="none" stroke="black" stroke-width="0.25px" stroke-linecap="butt" />
<line x1="6.54" y1="42.26" x2="220.84" y2="42.26" fill="none" stroke="black" stroke-width="0.25px" stroke-linecap="butt" />
<line x1="6.54" y1="54.17" x2="220.84" y2="54.17" fill="none" stroke="black" stroke-width="0.25px" stroke-linecap="butt" />
<line x1="6.54" y1="66.07" x2="220.84" y2="66.07" fill="none" stroke="black" stroke-width="0.25px" stroke-linecap="butt" />
<line x1="6.54" y1="77.98" x2="220.84" y2="77.98" fill="none" stroke="black" stroke-width="0.25px" stroke-linecap="butt" />
<line x1="6.54" y1="89.88" x2="220.84" y2="89.88" fill="none" stroke="black" stroke-width="0.25px" stroke-linecap="butt" />
<line x1="6.54" y1="101.79" x2="220.84" y2="101.79" fill="none" stroke="black" stroke-width="0.25px" stroke-linecap="butt" />
<line x1="6.54" y1="113.69" x2="220.84" y2="113.69" fill="none" stroke="black" stroke-width="0.25px" stroke-linecap="butt" />
<line x1="6.54" y1="125.60" x2="220.84" y2="125.60" fill="none" stroke="black" stroke-width="0.25px" stroke-linecap="butt" />
<line x1="6.54" y1="137.50" x2="220.84" y2="137.50" fill="none" stroke="black" stroke-width="0.25px" stroke-linecap="butt" />
<line x1="6.54" y1="149.41" x2="220.84" y2="149.41" fill="none" stroke="black" stroke-width="0.25px" stroke-linecap="butt" />
<line x1="6.54" y1="161.31" x2="220.84" y2="161.31" fill="none" stroke="black" stroke-width="0.25px" stroke-linecap="butt" />
<line x1="6.54" y1="173.22" x2="220.84" y2="173.22" fill="none" stroke="black" stroke-width="0.25px" stroke-linecap="butt" />
<line x1="6.54" y1="185.13" x2="220.84" y2="185.13" fill="none" stroke="black" stroke-width="0.25px" stroke-linecap="butt" />
<line x1="6.54" y1="197.03" x2="220.84" y2="197.03" fill="none" stroke="black" stroke-width="0.25px" stroke-linecap="butt" />
<line x1="6.54" y1="208.94" x2="220.84" y2="208.94" fill="none" stroke="black" stroke-width="0.25px" stroke-linecap="butt" />
<line x1="6.54" y1="220.84" x2="220.84" y2="220.84" fill="none" stroke="black" stroke-width="0.87px" stroke-linecap="square" />
<circle cx="30.35" cy="54.17" r="5.98" fill="black"/>
<circle cx="30.35" cy="89.88" r="5.85" fill="white"/>
<circle cx="30.35" cy="89.88" r="5.85" fill="none" stroke="black" stroke-width="0.25px"/>
<circle cx="30.35" cy="125.60" r="5.85" fill="white"/>
<circle cx="30.35" cy="125.60" r="5.85" fill="none" stroke="black" stroke-width="0.25px"/>
<circle cx="30.35" cy="161.31" r="5.85" fill="white"/>
<circle cx="30.35" cy="161.31" r="5.85" fill="none" stroke="black" stroke-width="0.25px"/>
<circle cx="42.26" cy="30.35" r="5.85" fill="white"/>
<circle cx="42.26" cy="30.35" r="5.85" fill="none" stroke="black" stroke-width="0.25px"/>
<circle cx="42.26" cy="42.26" r="1.27" fill="black"/>
<circle cx="42.26" cy="77.98" r="5.85" fill="white"/>
<circle cx="42.26" cy="77.98" r="5.85" fill="none" stroke="black" stroke-width="0.25px"/>
<circle cx="42.26" cy="89.88" r="5.98" fill="black"/>
<circle cx="42.26" cy="101.79" r="5.85" fill="white"/>
<circle cx="42.26" cy="101.79" r="5.85" fill="none" stroke="black" stroke-width="0.25px"/>
<circle cx="42.26" cy="113.69" r="1.27" fill="black"/>
<circle cx="42.26" cy="185.13" r="5.98" fill="black"/>
<circle cx="54.17" cy="66.07" r="5.98" fill="black"/>
<circle cx="54.17" cy="77.98" r="5.98" fill="black"/>
<circle cx="54.17" cy="89.88" r="5.98" fill="black"/>
<circle cx="66.07" cy="197.03" r="5.98" fill="black"/>
<circle cx="77.98" cy="30.35" r="5.85" fill="white"/>
<circle cx="77.98" cy="30.35" r="5.85" fill="none" stroke="black" stroke-width="0.25px"/>
<circle cx="101.79" cy="197.03" r="5.98" fill="black"/>
<circle cx="113.69" cy="30.35" r="5.85" fill="white"/>
<circle cx="113.69" cy="30.35" r="5.85" fill="none" stroke="black" stroke-width="0.25px"/>
<circle cx="113.69" cy="42.26" r="1.27" fill="black"/>
<circle cx="113.69" cy="113.69" r="1.27" fill="black"/>
<circle cx="113.69" cy="185.13" r="1.27" fill="black"/>
<circle cx="113.69" cy="197.03" r="5.85" fill="white"/>
<circle cx="113.69" cy="197.03" r="5.85" fill="none" stroke="black" stroke-width="0.25px"/>
<circle cx="113.69" cy="208.94" r="5.85" fill="white"/>
<circle cx="113.69" cy="208.94" r="5.85" fill="none" stroke="black" stroke-width="0.25px"/>
<circle cx="125.60" cy="173.22" r="5.85" fill="white"/>
<circle cx="125.60" cy="173.22" r="5.85" fill="none" stroke="black" stroke-width="0.25px"/>
<circle cx="125.60" cy="185.13" r="5.85" fill="white"/>
<circle cx="125.60" cy="185.13" r="5.85" fill="none" stroke="black" stroke-width="0.25px"/>
<circle cx="125.60" cy="197.03" r="5.85" fill="white"/>
<circle cx="125.60" cy="197.03" r="5.85" fill="none" stroke="black" stroke-width="0.25px"/>
<circle cx="125.60" cy="208.94" r="5.98" fill="black"/>
<circle cx="137.50" cy="149.41" r="5.85" fill="white"/>
<circle cx="137.50" cy="149.41" r="5.85" fill="none" stroke="black" stroke-width="0.25px"/>
<circle cx="137.50" cy="161.31" r="5.85" fill="white"/>
<circle cx="137.50" cy="161.31" r="5.85" fill="none" stroke="black" stroke-width="0.25px"/>
<circle cx="137.50" cy="173.22" r="5.98" fill="black"/>
<circle cx="137.50" cy="185.13" r="5.98" fill="black"/>
<circle cx="137.50" cy="208.94" r="5.98" fill="black"/>
<circle cx="149.41" cy="149.41" r="5.85" fill="white"/>
<circle cx="149.41" cy="149.41" r="5.85" fill="none" stroke="black" stroke-width="0.25px"/>
<circle cx="149.41" cy="161.31" r="5.98" fill="black"/>
<circle cx="149.41" cy="173.22" r="5.85" fill="white"/>
<circle cx="149.41" cy="173.22" r="5.85" fill="none" stroke="black" stroke-width="0.25px"/>
<circle cx="149.41" cy="185.13" r="5.98" fill="black"/>
<circle cx="149.41" cy="197.03" r="5.98" fill="black"/>
<circle cx="149.41" cy="220.84" r="5.85" fill="white"/>
<circle cx="149.41" cy="220.84" r="5.85" fill="none" stroke="black" stroke-width="0.25px"/>
<circle cx="161.31" cy="161.31" r="5.85" fill="white"/>
<circle cx="161.31" cy="161.31" r="5.85" fill="none" stroke="black" stroke-width="0.25px"/>
<circle cx="161.31" cy="173.22" r="5.98" fill="black"/>
<circle cx="161.31" cy="185.13" r="5.98" fill="black"/>
<circle cx="161.31" cy="208.94" r="5.98" fill="black"/>
<circle cx="173.22" cy="89.88" r="5.98" fill="black"/>
<circle cx="173.22" cy="149.41" r="5.98" fill="black"/>
<circle cx="173.22" cy="185.13" r="5.85" fill="white"/>
<circle cx="173.22" cy="185.13" r="5.85" fill="none" stroke="black" stroke-width="0.25px"/>
<circle cx="173.22" cy="197.03" r="5.98" fill="black"/>
<circle cx="173.22" cy="208.94" r="5.98" fill="black"/>
<circle cx="185.13" cy="30.35" r="5.98" fill="black"/>
<circle cx="185.13" cy="42.26" r="5.98" fill="black"/>
<circle cx="185.13" cy="113.69" r="1.27" fill="black"/>
<circle cx="185.13" cy="149.41" r="5.85" fill="white"/>
<circle cx="185.13" cy="149.41" r="5.85" fill="none" stroke="black" stroke-width="0.25px"/>
<circle cx="185.13" cy="161.31" r="5.85" fill="white"/>
<circle cx="185.13" cy="161.31" r="5.85" fill="none" stroke="black" stroke-width="0.25px"/>
<circle cx="185.13" cy="185.13" r="1.27" fill="black"/>
<circle cx="185.13" cy="197.03" r="5.85" fill="white"/>
<circle cx="185.13" cy="197.03" r="5.85" fill="none" stroke="black" stroke-width="0.25px"/>
<circle cx="185.13" cy="208.94" r="5.85" fill="white"/>
<circle cx="185.13" cy="208.94" r="5.85" fill="none" stroke="black" stroke-width="0.25px"/>
<circle cx="197.03" cy="89.88" r="5.98" fill="black"/>
<circle cx="197.03" cy="113.69" r="5.85" fill="white"/>
<circle cx="197.03" cy="113.69" r="5.85" fill="none" stroke="black" stroke-width="0.25px"/>
<circle cx="197.03" cy="125.60" r="5.85" fill="white"/>
<circle cx="197.03" cy="125.60" r="5.85" fill="none" stroke="black" stroke-width="0.25px"/>
<circle cx="197.03" cy="149.41" r="5.85" fill="white"/>
<circle cx="197.03" cy="149.41" r="5.85" fill="none" stroke="black" stroke-width="0.25px"/>
<circle cx="197.03" cy="173.22" r="5.98" fill="black"/>
<circle cx="208.94" cy="113.69" r="5.98" fill="black"/>
<circle cx="208.94" cy="125.60" r="5.98" fill="black"/>
<circle cx="208.94" cy="137.50" r="5.98" fill="black"/>
<circle cx="208.94" cy="149.41" r="5.85" fill="white"/>
<circle cx="208.94" cy="149.41" r="5.85" fill="none" stroke="black" stroke-width="0.25px"/>
<path d="
M112.11 193.46
C112.01 193.77 111.84 194.09 111.60 194.41
C111.36 194.74 111.08 195.02 110.76 195.24
L110.76 196.09
C110.95 195.99 111.15 195.83 111.38 195.63
C111.60 195.43 111.78 195.23 111.91 195.03
L111.91 200.61
L112.48 200.61
L112.48 193.46
Z
M115.74 193.46
C115.64 193.77 115.47 194.09 115.23 194.41
C114.99 194.74 114.71 195.02 114.39 195.24
L114.39 196.09
C114.58 195.99 114.78 195.83 115.01 195.63
C115.23 195.43 115.41 195.23 115.54 195.03
L115.54 200.61
L116.11 200.61
L116.11 193.46
Z
" fill="black" fill-rule="nonzero" />
<path d="
M111.82 205.46
L111.82 206.29
L114.64 206.29
C114.28 206.79 113.95 207.40 113.64 208.11
C113.33 208.82 113.09 209.57 112.91 210.35
C112.73 211.13 112.64 211.82 112.63 212.41
L113.36 212.41
C113.42 211.27 113.66 210.12 114.09 208.96
C114.51 207.80 115.00 206.86 115.56 206.14
L115.56 205.46
Z
" fill="black" fill-rule="nonzero" />
<path d="
M125.89 169.69
C125.76 169.99 125.55 170.31 125.26 170.63
C124.96 170.96 124.61 171.23 124.22 171.45
L124.22 172.29
C124.45 172.19 124.70 172.04 124.98 171.84
C125.25 171.64 125.47 171.44 125.64 171.25
L125.64 176.75
L126.35 176.75
L126.35 169.69
Z
" fill="black" fill-rule="nonzero" />
<path d="
M125.58 182.25
C125.87 182.25 126.13 182.39 126.35 182.68
C126.58 182.97 126.69 183.36 126.69 183.87
C126.69 184.37 126.58 184.76 126.36 185.04
C126.14 185.31 125.88 185.45 125.56 185.45
C125.25 185.45 124.98 185.31 124.75 185.04
C124.52 184.77 124.41 184.40 124.41 183.94
C124.41 183.43 124.53 183.02 124.77 182.71
C125.00 182.40 125.28 182.25 125.58 182.25
Z
M125.50 181.53
C124.99 181.53 124.56 181.75 124.21 182.17
C123.86 182.59 123.68 183.17 123.68 183.91
C123.68 184.62 123.85 185.18 124.19 185.60
C124.53 186.01 124.94 186.21 125.41 186.21
C125.67 186.21 125.92 186.13 126.17 185.96
C126.42 185.80 126.62 185.57 126.76 185.29
L126.76 185.46
C126.76 186.01 126.70 186.49 126.56 186.90
C126.43 187.32 126.26 187.60 126.07 187.77
C125.88 187.93 125.66 188.01 125.43 188.01
C124.89 188.01 124.57 187.64 124.47 186.89
L123.78 186.97
C123.84 187.54 124.02 187.97 124.31 188.27
C124.61 188.57 124.97 188.72 125.41 188.72
C125.80 188.72 126.15 188.60 126.46 188.35
C126.77 188.10 127.02 187.71 127.20 187.18
C127.38 186.64 127.48 185.89 127.48 184.93
C127.48 184.06 127.39 183.40 127.22 182.93
C127.05 182.47 126.81 182.12 126.50 181.89
C126.19 181.65 125.86 181.53 125.50 181.53
Z
" fill="black" fill-rule="nonzero" />
<path d="
M125.61 208.75
C125.88 208.75 126.11 208.87 126.29 209.11
C126.49 209.36 126.59 209.72 126.59 210.18
C126.59 210.66 126.49 211.03 126.29 211.30
C126.10 211.55 125.89 211.68 125.66 211.68
C125.66 211.68 125.66 211.68 125.66 211.68
C125.66 211.68 125.65 211.68 125.65 211.68
C125.38 211.68 125.14 211.54 124.93 211.27
C124.71 210.99 124.60 210.61 124.60 210.13
C124.60 209.70 124.71 209.36 124.91 209.11
C125.11 208.87 125.34 208.75 125.61 208.75
C125.61 208.75 125.61 208.75 125.61 208.75
C125.61 208.75 125.61 208.75 125.61 208.75
Z
M125.71 205.20
C125.06 205.20 124.52 205.51 124.11 206.13
C123.70 206.73 123.50 207.73 123.50 209.12
C123.50 210.37 123.70 211.28 124.10 211.83
C124.50 212.39 125.02 212.67 125.65 212.67
C126.00 212.67 126.33 212.57 126.62 212.37
C126.91 212.18 127.15 211.87 127.33 211.47
C127.51 211.07 127.60 210.62 127.60 210.13
C127.60 209.40 127.42 208.82 127.05 208.38
C126.68 207.93 126.25 207.70 125.75 207.70
C125.44 207.70 125.16 207.79 124.89 207.96
C124.75 208.05 124.62 208.16 124.51 208.30
L124.51 208.30
C124.54 207.69 124.64 207.22 124.80 206.88
C124.92 206.65 125.05 206.47 125.20 206.36
C125.34 206.25 125.50 206.20 125.67 206.20
C125.67 206.20 125.67 206.20 125.67 206.20
C125.67 206.20 125.67 206.20 125.67 206.20
C125.89 206.20 126.08 206.29 126.24 206.48
C126.36 206.62 126.45 206.85 126.51 207.19
L126.53 207.32
L126.66 207.30
L127.37 207.24
L127.51 207.22
L127.50 207.08
C127.43 206.48 127.23 206.02 126.92 205.69
C126.59 205.37 126.19 205.20 125.71 205.20
Z
" fill="white" fill-rule="nonzero" />
<path d="
M135.92 145.83
C135.82 146.14 135.65 146.46 135.41 146.79
C135.17 147.12 134.89 147.39 134.57 147.62
L134.57 148.47
C134.76 148.36 134.96 148.21 135.19 148.01
C135.41 147.81 135.59 147.61 135.72 147.41
L135.72 152.98
L136.30 152.98
L136.30 145.83
Z
M137.80 145.95
L137.80 146.80
L140.09 146.80
C139.80 147.30 139.53 147.91 139.28 148.63
C139.02 149.35 138.83 150.11 138.68 150.90
C138.54 151.69 138.46 152.39 138.46 152.98
L139.05 152.98
C139.10 151.83 139.30 150.67 139.64 149.49
C139.98 148.32 140.38 147.37 140.83 146.63
L140.83 145.95
Z
" fill="black" fill-rule="nonzero" />
<path d="
M135.92 157.68
C135.82 157.99 135.65 158.31 135.41 158.63
C135.17 158.96 134.89 159.24 134.57 159.46
L134.57 160.31
C134.76 160.21 134.96 160.05 135.19 159.85
C135.41 159.65 135.59 159.45 135.72 159.25
L135.72 164.83
L136.30 164.83
L136.30 157.68
Z
M139.24 157.68
C138.88 157.68 138.57 157.83 138.32 158.14
C138.06 158.45 137.90 158.91 137.83 159.52
L138.40 159.68
C138.44 159.25 138.54 158.93 138.69 158.71
C138.84 158.50 139.02 158.39 139.24 158.39
C139.46 158.39 139.64 158.50 139.79 158.70
C139.93 158.90 140.01 159.17 140.01 159.50
C140.01 159.87 139.92 160.16 139.74 160.37
C139.57 160.59 139.34 160.70 139.05 160.70
L138.97 160.69
L138.90 161.46
C139.06 161.39 139.19 161.36 139.30 161.36
C139.56 161.36 139.78 161.48 139.95 161.74
C140.13 161.99 140.22 162.32 140.22 162.74
C140.22 163.18 140.12 163.54 139.93 163.81
C139.74 164.09 139.51 164.23 139.25 164.23
C138.76 164.23 138.46 163.76 138.34 162.83
L137.77 162.95
C137.81 163.56 137.96 164.05 138.24 164.41
C138.52 164.77 138.86 164.95 139.26 164.95
C139.69 164.95 140.06 164.75 140.36 164.33
C140.67 163.91 140.83 163.38 140.83 162.72
C140.83 162.42 140.79 162.14 140.71 161.89
C140.64 161.64 140.54 161.44 140.42 161.29
C140.30 161.14 140.14 161.03 139.96 160.97
C140.16 160.83 140.32 160.63 140.43 160.38
C140.54 160.13 140.60 159.85 140.60 159.52
C140.60 158.99 140.47 158.55 140.20 158.20
C139.94 157.85 139.62 157.68 139.24 157.68
Z
" fill="black" fill-rule="nonzero" />
<path d="
M135.82 169.50
L135.79 169.60
C135.69 169.90 135.53 170.20 135.30 170.52
C135.06 170.83 134.79 171.10 134.49 171.32
L134.43 171.36
L134.43 171.43
L134.43 172.28
L134.43 172.52
L134.64 172.40
C134.84 172.29 135.05 172.13 135.28 171.92
C135.39 171.82 135.49 171.73 135.58 171.63
L135.58 171.63
L135.58 176.80
L135.58 176.94
L136.44 176.94
L136.44 176.80
L136.44 169.64
L136.44 169.50
Z
M139.33 169.50
C138.85 169.50 138.46 169.69 138.16 170.07
C137.87 170.44 137.71 170.98 137.67 171.70
L137.66 171.82
L137.78 171.84
L138.38 171.94
L138.54 171.96
L138.54 171.80
C138.54 171.37 138.62 171.04 138.77 170.82
C138.91 170.61 139.09 170.51 139.31 170.51
C139.31 170.51 139.31 170.51 139.31 170.51
C139.31 170.51 139.31 170.51 139.31 170.51
C139.51 170.51 139.68 170.61 139.83 170.80
C139.98 171.00 140.05 171.27 140.05 171.60
C140.05 171.89 139.97 172.21 139.82 172.56
C139.65 172.91 139.31 173.42 138.78 174.07
C138.31 174.66 137.99 175.17 137.81 175.60
C137.63 176.04 137.55 176.44 137.56 176.80
L137.56 176.94
L140.93 176.94
L140.93 176.80
L140.93 175.96
L140.93 175.81
L138.71 175.81
C138.75 175.73 138.80 175.64 138.86 175.55
C138.95 175.40 139.17 175.11 139.51 174.67
C140.06 173.97 140.42 173.41 140.62 172.98
C140.82 172.55 140.92 172.09 140.92 171.62
C140.92 171.08 140.79 170.60 140.53 170.17
C140.26 169.73 139.86 169.50 139.33 169.50
Z
" fill="white" fill-rule="nonzero" />
<path d="
M137.47 182.39
C137.47 182.39 137.47 182.39 137.48 182.39
C137.48 182.39 137.48 182.39 137.48 182.39
C137.69 182.39 137.88 182.47 138.03 182.65
C138.20 182.83 138.28 183.07 138.28 183.37
C138.28 183.65 138.20 183.88 138.04 184.05
C137.89 184.22 137.70 184.31 137.49 184.31
C137.49 184.31 137.49 184.31 137.48 184.31
C137.48 184.31 137.48 184.31 137.48 184.31
C137.26 184.31 137.07 184.22 136.92 184.05
C136.76 183.87 136.68 183.63 136.68 183.32
C136.68 183.05 136.76 182.82 136.92 182.65
C137.08 182.47 137.26 182.39 137.47 182.39
Z
M137.46 185.30
C137.46 185.30 137.46 185.30 137.47 185.30
C137.47 185.30 137.47 185.30 137.47 185.30
C137.75 185.30 137.99 185.41 138.20 185.65
C138.41 185.88 138.51 186.20 138.51 186.60
C138.51 186.99 138.41 187.30 138.21 187.53
C138.01 187.75 137.77 187.87 137.49 187.87
C137.49 187.87 137.49 187.87 137.48 187.87
C137.48 187.87 137.48 187.87 137.48 187.87
C137.20 187.87 136.96 187.75 136.76 187.52
C136.55 187.28 136.45 186.96 136.45 186.57
C136.45 186.19 136.55 185.88 136.75 185.64
C136.95 185.41 137.18 185.30 137.46 185.30
Z
M137.47 181.39
C136.95 181.39 136.52 181.57 136.18 181.94
C135.84 182.30 135.67 182.77 135.67 183.34
C135.67 183.72 135.75 184.05 135.91 184.31
C136.02 184.49 136.17 184.64 136.35 184.77
L136.35 184.77
C136.11 184.89 135.91 185.08 135.75 185.33
C135.54 185.66 135.44 186.07 135.44 186.57
C135.44 187.25 135.63 187.80 136.02 188.22
C136.41 188.65 136.90 188.86 137.48 188.86
C138.06 188.86 138.55 188.65 138.94 188.22
C139.33 187.80 139.52 187.26 139.52 186.59
C139.52 186.11 139.42 185.71 139.22 185.38
C139.07 185.12 138.86 184.92 138.60 184.77
L138.60 184.77
C138.79 184.65 138.94 184.49 139.06 184.31
C139.21 184.05 139.29 183.74 139.29 183.37
C139.29 182.79 139.11 182.32 138.77 181.95
C138.42 181.58 137.99 181.39 137.47 181.39
Z
" fill="white" fill-rule="nonzero" />
<path d="
M139.26 206.17
C139.26 206.17 139.26 206.17 139.26 206.17
C139.26 206.17 139.27 206.17 139.27 206.17
C139.37 206.17 139.47 206.20 139.56 206.28
C139.66 206.36 139.75 206.49 139.83 206.67
C139.99 207.04 140.08 207.80 140.08 208.94
C140.08 210.07 139.99 210.82 139.83 211.20
C139.75 211.38 139.66 211.51 139.56 211.60
C139.48 211.67 139.39 211.71 139.30 211.71
C139.30 211.71 139.30 211.71 139.30 211.71
C139.30 211.71 139.30 211.71 139.30 211.71
C139.19 211.71 139.10 211.67 139.01 211.60
C138.92 211.51 138.83 211.38 138.75 211.21
C138.58 210.83 138.49 210.08 138.49 208.94
C138.49 207.81 138.58 207.06 138.74 206.68
C138.82 206.50 138.91 206.36 139.00 206.28
C139.08 206.20 139.17 206.17 139.26 206.17
Z
M135.82 205.16
L135.79 205.26
C135.69 205.55 135.53 205.86 135.30 206.17
C135.06 206.49 134.79 206.75 134.49 206.97
L134.43 207.02
L134.43 207.09
L134.43 207.93
L134.43 208.17
L134.64 208.06
C134.84 207.95 135.05 207.79 135.28 207.58
C135.39 207.48 135.49 207.38 135.58 207.29
L135.58 207.29
L135.58 212.45
L135.58 212.59
L136.44 212.59
L136.44 212.45
L136.44 205.30
L136.44 205.16
Z
M139.29 205.16
C139.01 205.16 138.76 205.25 138.54 205.42
C138.33 205.59 138.16 205.84 138.02 206.17
C137.76 206.80 137.62 207.72 137.62 208.94
C137.62 210.30 137.77 211.26 138.06 211.82
C138.22 212.11 138.39 212.33 138.59 212.48
C138.80 212.64 139.03 212.71 139.28 212.71
C139.57 212.71 139.82 212.63 140.04 212.45
C140.25 212.28 140.42 212.03 140.56 211.70
C140.82 211.07 140.95 210.15 140.95 208.94
C140.95 207.59 140.79 206.61 140.47 205.98
C140.33 205.71 140.17 205.51 139.97 205.37
C139.77 205.23 139.54 205.16 139.29 205.16
Z
" fill="white" fill-rule="nonzero" />
<path d="
M147.83 145.77
C147.73 146.08 147.56 146.40 147.32 146.73
C147.07 147.06 146.79 147.33 146.48 147.56
L146.48 148.41
C146.67 148.30 146.87 148.15 147.09 147.95
C147.32 147.74 147.49 147.55 147.63 147.35
L147.63 152.92
L148.20 152.92
L148.20 145.77
Z
M150.23 145.90
L149.77 149.56
L150.31 149.66
C150.40 149.45 150.52 149.28 150.67 149.16
C150.82 149.04 150.98 148.97 151.16 148.97
C151.45 148.97 151.68 149.11 151.88 149.39
C152.07 149.67 152.16 150.07 152.16 150.58
C152.16 151.12 152.06 151.55 151.87 151.86
C151.67 152.17 151.43 152.33 151.16 152.33
C150.94 152.33 150.75 152.22 150.59 151.99
C150.42 151.77 150.32 151.43 150.27 150.98
L149.67 151.06
C149.71 151.68 149.87 152.17 150.15 152.52
C150.42 152.87 150.77 153.05 151.17 153.05
C151.66 153.05 152.05 152.80 152.33 152.30
C152.62 151.80 152.77 151.21 152.77 150.51
C152.77 149.80 152.62 149.24 152.33 148.83
C152.05 148.41 151.70 148.20 151.31 148.20
C151.00 148.20 150.71 148.35 150.43 148.65
L150.68 146.73
L152.55 146.73
L152.55 145.90
Z
" fill="black" fill-rule="nonzero" />
<path d="
M149.62 159.72
L149.62 162.21
L148.20 162.21
L149.62 159.72
Z
M149.81 157.65
L149.77 157.73
L147.14 162.29
L147.12 162.32
L147.12 162.36
L147.12 163.15
L147.12 163.29
L149.62 163.29
L149.62 164.83
L149.62 164.97
L150.61 164.97
L150.61 164.83
L150.61 163.29
L151.39 163.29
L151.39 163.15
L151.39 162.36
L151.39 162.21
L150.61 162.21
L150.61 157.80
L150.61 157.65
Z
" fill="white" fill-rule="nonzero" />
<path d="
M148.18 169.69
L147.61 173.30
L148.28 173.41
C148.39 173.20 148.54 173.03 148.73 172.91
C148.91 172.79 149.11 172.73 149.33 172.73
C149.68 172.73 149.98 172.87 150.21 173.14
C150.45 173.42 150.57 173.81 150.57 174.31
C150.57 174.85 150.44 175.27 150.20 175.58
C149.96 175.89 149.67 176.04 149.33 176.04
C149.06 176.04 148.83 175.93 148.62 175.71
C148.42 175.49 148.29 175.16 148.23 174.71
L147.49 174.79
C147.54 175.40 147.73 175.88 148.08 176.23
C148.42 176.58 148.84 176.75 149.34 176.75
C149.94 176.75 150.42 176.50 150.78 176.01
C151.14 175.52 151.31 174.93 151.31 174.24
C151.31 173.55 151.14 172.99 150.78 172.58
C150.42 172.17 150.00 171.96 149.52 171.96
C149.14 171.96 148.77 172.11 148.43 172.41
L148.74 170.52
L151.04 170.52
L151.04 169.69
Z
" fill="black" fill-rule="nonzero" />
<path d="
M151.24 184.93
C151.44 184.93 151.61 185.05 151.76 185.29
C151.92 185.54 152.00 185.91 152.00 186.39
C152.00 186.88 151.92 187.26 151.75 187.53
C151.61 187.78 151.45 187.90 151.27 187.90
C151.27 187.90 151.27 187.90 151.27 187.90
C151.27 187.90 151.27 187.90 151.27 187.90
C151.06 187.90 150.88 187.77 150.71 187.50
C150.53 187.21 150.44 186.82 150.44 186.33
C150.44 185.89 150.53 185.54 150.70 185.29
C150.85 185.05 151.03 184.93 151.23 184.93
C151.23 184.93 151.23 184.93 151.23 184.93
C151.23 184.93 151.23 184.93 151.24 184.93
Z
M147.72 181.35
L147.69 181.45
C147.60 181.74 147.44 182.05 147.20 182.36
C146.97 182.68 146.70 182.94 146.40 183.16
L146.34 183.20
L146.34 183.28
L146.34 184.12
L146.34 184.36
L146.55 184.25
C146.74 184.14 146.96 183.98 147.19 183.77
C147.30 183.67 147.40 183.57 147.48 183.47
L147.48 183.47
L147.48 188.64
L147.48 188.78
L148.34 188.78
L148.34 188.64
L148.34 181.49
L148.34 181.35
Z
M151.32 181.35
C151.04 181.35 150.79 181.43 150.57 181.59
C150.35 181.75 150.15 181.99 149.99 182.30
C149.66 182.90 149.50 183.91 149.50 185.31
C149.50 186.57 149.66 187.48 149.98 188.04
C150.14 188.32 150.33 188.53 150.54 188.68
C150.76 188.83 151.00 188.90 151.27 188.90
C151.56 188.90 151.83 188.80 152.08 188.59
C152.31 188.39 152.51 188.09 152.65 187.68
C152.80 187.27 152.87 186.83 152.87 186.33
C152.87 185.60 152.72 185.01 152.43 184.57
C152.13 184.11 151.77 183.88 151.34 183.88
C151.09 183.88 150.85 183.97 150.62 184.15
C150.53 184.22 150.45 184.31 150.37 184.41
L150.37 184.41
C150.40 183.83 150.48 183.37 150.61 183.04
C150.70 182.80 150.81 182.62 150.93 182.50
C151.04 182.40 151.15 182.35 151.28 182.35
C151.28 182.35 151.28 182.35 151.28 182.35
C151.28 182.35 151.28 182.35 151.29 182.35
C151.45 182.35 151.59 182.44 151.72 182.63
C151.81 182.77 151.88 183.01 151.94 183.35
L151.96 183.49
L152.09 183.47
L152.66 183.40
L152.80 183.39
L152.79 183.25
C152.73 182.65 152.58 182.18 152.32 181.86
C152.05 181.52 151.72 181.35 151.32 181.35
Z
" fill="white" fill-rule="nonzero" />
<path d="
M147.61 217.27
C147.17 217.27 146.81 217.44 146.55 217.78
C146.28 218.13 146.12 218.64 146.08 219.33
L146.67 219.42
C146.67 218.96 146.76 218.61 146.93 218.36
C147.10 218.11 147.32 217.99 147.59 217.99
C147.84 217.99 148.04 218.10 148.21 218.33
C148.38 218.56 148.47 218.86 148.47 219.22
C148.47 219.53 148.39 219.87 148.22 220.24
C148.05 220.60 147.70 221.12 147.17 221.78
C146.71 222.36 146.39 222.86 146.22 223.28
C146.05 223.70 145.97 224.08 145.97 224.42
L149.06 224.42
L149.06 223.58
L146.77 223.58
C146.83 223.42 146.91 223.26 147.01 223.10
C147.11 222.94 147.33 222.64 147.68 222.21
C148.21 221.51 148.58 220.96 148.77 220.54
C148.96 220.13 149.06 219.69 149.06 219.24
C149.06 218.73 148.93 218.27 148.69 217.87
C148.44 217.47 148.08 217.27 147.61 217.27
Z
M151.46 217.27
C151.36 217.58 151.19 217.90 150.95 218.22
C150.70 218.55 150.42 218.83 150.11 219.05
L150.11 219.90
C150.30 219.80 150.50 219.64 150.72 219.44
C150.95 219.24 151.12 219.04 151.26 218.85
L151.26 224.42
L151.83 224.42
L151.83 217.27
Z
" fill="black" fill-rule="nonzero" />
<path d="
M159.51 157.68
C159.07 157.68 158.72 157.85 158.45 158.19
C158.18 158.54 158.03 159.05 157.99 159.74
L158.58 159.83
C158.58 159.37 158.66 159.02 158.84 158.77
C159.01 158.52 159.23 158.40 159.49 158.40
C159.74 158.40 159.95 158.51 160.12 158.74
C160.29 158.97 160.37 159.27 160.37 159.63
C160.37 159.94 160.29 160.28 160.13 160.65
C159.96 161.01 159.61 161.53 159.07 162.19
C158.61 162.77 158.30 163.26 158.13 163.69
C157.95 164.11 157.87 164.49 157.88 164.83
L160.97 164.83
L160.97 163.99
L158.68 163.99
C158.74 163.83 158.82 163.67 158.92 163.51
C159.02 163.35 159.24 163.05 159.58 162.62
C160.12 161.92 160.48 161.37 160.67 160.95
C160.87 160.54 160.96 160.10 160.96 159.65
C160.96 159.14 160.84 158.68 160.59 158.28
C160.35 157.88 159.99 157.68 159.51 157.68
Z
M163.05 157.68
C162.69 157.68 162.38 157.83 162.13 158.14
C161.87 158.45 161.71 158.91 161.64 159.52
L162.21 159.68
C162.25 159.25 162.35 158.93 162.50 158.71
C162.65 158.50 162.84 158.39 163.06 158.39
C163.27 158.39 163.45 158.50 163.60 158.70
C163.74 158.90 163.82 159.17 163.82 159.50
C163.82 159.87 163.73 160.16 163.55 160.37
C163.38 160.59 163.15 160.70 162.87 160.70
L162.78 160.69
L162.71 161.46
C162.87 161.39 163.01 161.36 163.11 161.36
C163.37 161.36 163.59 161.48 163.76 161.74
C163.94 161.99 164.03 162.32 164.03 162.74
C164.03 163.18 163.93 163.54 163.74 163.81
C163.55 164.09 163.32 164.23 163.06 164.23
C162.58 164.23 162.27 163.76 162.15 162.83
L161.58 162.95
C161.62 163.56 161.78 164.05 162.05 164.41
C162.33 164.77 162.67 164.95 163.07 164.95
C163.50 164.95 163.87 164.75 164.18 164.33
C164.48 163.91 164.64 163.38 164.64 162.72
C164.64 162.42 164.60 162.14 164.53 161.89
C164.45 161.64 164.35 161.44 164.23 161.29
C164.11 161.14 163.95 161.03 163.77 160.97
C163.97 160.83 164.13 160.63 164.24 160.38
C164.35 160.13 164.41 159.85 164.41 159.52
C164.41 158.99 164.28 158.55 164.01 158.20
C163.75 157.85 163.43 157.68 163.05 157.68
Z
" fill="black" fill-rule="nonzero" />
<path d="
M163.27 171.73
L163.27 174.15
L162.17 174.15
L163.27 171.73
Z
M159.63 169.50
L159.60 169.60
C159.50 169.90 159.34 170.20 159.11 170.52
C158.87 170.83 158.61 171.10 158.30 171.32
L158.24 171.36
L158.24 171.43
L158.24 172.28
L158.24 172.52
L158.45 172.40
C158.65 172.29 158.86 172.13 159.09 171.92
C159.20 171.82 159.30 171.73 159.39 171.63
L159.39 171.63
L159.39 176.80
L159.39 176.94
L160.25 176.94
L160.25 176.80
L160.25 169.64
L160.25 169.50
Z
M163.43 169.53
L163.39 169.61
L161.26 174.23
L161.25 174.26
L161.25 174.29
L161.25 175.09
L161.25 175.23
L163.27 175.23
L163.27 176.80
L163.27 176.94
L164.13 176.94
L164.13 176.80
L164.13 175.23
L164.76 175.23
L164.76 175.09
L164.76 174.29
L164.76 174.15
L164.13 174.15
L164.13 169.67
L164.13 169.53
Z
" fill="white" fill-rule="nonzero" />
<path d="
M159.51 181.41
C159.03 181.41 158.64 181.60 158.34 181.98
C158.05 182.35 157.89 182.89 157.85 183.60
L157.84 183.73
L157.97 183.75
L158.56 183.84
L158.72 183.87
L158.72 183.70
C158.72 183.27 158.80 182.95 158.95 182.72
C159.09 182.52 159.27 182.42 159.49 182.42
C159.49 182.42 159.49 182.42 159.49 182.42
C159.49 182.42 159.49 182.42 159.50 182.42
C159.70 182.42 159.87 182.51 160.01 182.70
C160.16 182.90 160.23 183.17 160.23 183.50
C160.23 183.80 160.15 184.12 160.00 184.46
C159.84 184.82 159.49 185.32 158.96 185.98
C158.49 186.56 158.17 187.07 157.99 187.51
C157.81 187.95 157.73 188.34 157.74 188.70
L157.74 188.84
L161.11 188.84
L161.11 188.70
L161.11 187.86
L161.11 187.72
L158.89 187.72
C158.94 187.63 158.98 187.55 159.04 187.46
C159.14 187.31 159.35 187.01 159.69 186.58
C160.24 185.88 160.61 185.31 160.80 184.89
C161.00 184.45 161.10 184.00 161.10 183.52
C161.10 182.98 160.97 182.50 160.71 182.08
C160.44 181.63 160.04 181.41 159.51 181.41
Z
M163.14 181.41
C162.66 181.41 162.27 181.60 161.97 181.98
C161.68 182.35 161.52 182.89 161.48 183.60
L161.47 183.73
L161.60 183.75
L162.19 183.84
L162.35 183.87
L162.35 183.70
C162.35 183.27 162.43 182.95 162.58 182.72
C162.72 182.52 162.90 182.42 163.12 182.42
C163.12 182.42 163.12 182.42 163.12 182.42
C163.12 182.42 163.12 182.42 163.13 182.42
C163.33 182.42 163.50 182.51 163.64 182.70
C163.79 182.90 163.86 183.17 163.86 183.50
C163.86 183.80 163.78 184.12 163.63 184.46
C163.47 184.82 163.12 185.32 162.59 185.98
C162.12 186.56 161.80 187.07 161.62 187.51
C161.44 187.95 161.36 188.34 161.37 188.70
L161.37 188.84
L164.74 188.84
L164.74 188.70
L164.74 187.86
L164.74 187.72
L162.52 187.72
C162.57 187.63 162.61 187.55 162.67 187.46
C162.77 187.31 162.98 187.01 163.32 186.58
C163.87 185.88 164.24 185.31 164.43 184.89
C164.63 184.45 164.73 184.00 164.73 183.52
C164.73 182.98 164.60 182.50 164.34 182.08
C164.07 181.63 163.67 181.41 163.14 181.41
Z
" fill="white" fill-rule="nonzero" />
<path d="
M163.07 206.17
C163.07 206.17 163.07 206.17 163.08 206.17
C163.08 206.17 163.08 206.17 163.08 206.17
C163.18 206.17 163.28 206.20 163.37 206.28
C163.47 206.36 163.56 206.49 163.64 206.67
C163.81 207.04 163.89 207.80 163.89 208.94
C163.89 210.07 163.81 210.82 163.64 211.20
C163.56 211.38 163.47 211.51 163.38 211.60
C163.29 211.67 163.21 211.71 163.11 211.71
C163.11 211.71 163.11 211.71 163.11 211.71
C163.11 211.71 163.11 211.71 163.11 211.71
C163.01 211.71 162.91 211.67 162.82 211.60
C162.73 211.51 162.64 211.38 162.56 211.21
C162.39 210.83 162.30 210.08 162.30 208.94
C162.30 207.81 162.39 207.06 162.55 206.68
C162.63 206.50 162.72 206.36 162.81 206.28
C162.89 206.20 162.98 206.17 163.07 206.17
Z
M159.51 205.16
C159.03 205.16 158.64 205.35 158.34 205.73
C158.05 206.10 157.89 206.64 157.85 207.35
L157.84 207.48
L157.97 207.50
L158.56 207.59
L158.72 207.62
L158.72 207.45
C158.72 207.02 158.80 206.70 158.95 206.47
C159.09 206.27 159.27 206.17 159.49 206.17
C159.49 206.17 159.49 206.17 159.49 206.17
C159.49 206.17 159.49 206.17 159.50 206.17
C159.70 206.17 159.87 206.26 160.01 206.45
C160.16 206.65 160.23 206.92 160.23 207.25
C160.23 207.55 160.15 207.87 160.00 208.21
C159.84 208.57 159.49 209.07 158.96 209.73
C158.49 210.31 158.17 210.82 157.99 211.26
C157.81 211.70 157.73 212.10 157.74 212.46
L157.74 212.59
L161.11 212.59
L161.11 212.45
L161.11 211.61
L161.11 211.47
L158.89 211.47
C158.94 211.38 158.98 211.30 159.04 211.21
C159.14 211.06 159.35 210.76 159.69 210.33
C160.24 209.63 160.61 209.06 160.80 208.64
C161.00 208.20 161.10 207.75 161.10 207.27
C161.10 206.73 160.97 206.25 160.71 205.83
C160.44 205.38 160.04 205.16 159.51 205.16
Z
M163.10 205.16
C162.82 205.16 162.57 205.25 162.35 205.42
C162.14 205.59 161.97 205.84 161.83 206.17
C161.57 206.80 161.43 207.72 161.43 208.94
C161.43 210.30 161.58 211.26 161.88 211.82
C162.03 212.11 162.20 212.33 162.40 212.48
C162.61 212.64 162.84 212.71 163.09 212.71
C163.38 212.71 163.63 212.63 163.85 212.45
C164.06 212.28 164.23 212.03 164.37 211.70
C164.63 211.07 164.76 210.15 164.76 208.94
C164.76 207.59 164.60 206.61 164.28 205.98
C164.14 205.71 163.98 205.51 163.78 205.37
C163.58 205.23 163.36 205.16 163.10 205.16
Z
" fill="white" fill-rule="nonzero" />
<path d="
M173.23 145.73
C172.65 145.74 172.18 145.92 171.83 146.29
C171.47 146.65 171.27 147.19 171.21 147.90
L171.20 148.04
L171.34 148.05
L172.07 148.14
L172.22 148.16
L172.22 148.00
C172.22 147.58 172.32 147.27 172.51 147.05
C172.69 146.84 172.92 146.73 173.21 146.73
C173.21 146.73 173.21 146.73 173.21 146.73
C173.21 146.73 173.21 146.73 173.21 146.73
C173.48 146.73 173.70 146.83 173.88 147.03
C174.07 147.22 174.16 147.48 174.16 147.81
C174.16 148.09 174.06 148.40 173.87 148.74
C173.67 149.09 173.25 149.59 172.59 150.24
C172.02 150.82 171.62 151.32 171.40 151.75
C171.17 152.19 171.07 152.59 171.08 152.95
L171.08 153.08
L175.18 153.08
L175.18 152.94
L175.18 152.11
L175.18 151.97
L172.44 151.97
C172.49 151.89 172.55 151.81 172.61 151.73
C172.73 151.58 173.00 151.29 173.42 150.86
C174.09 150.16 174.55 149.61 174.79 149.18
C175.04 148.75 175.17 148.30 175.17 147.83
C175.17 147.29 175.01 146.81 174.68 146.39
C174.35 145.95 173.87 145.74 173.23 145.73
Z
" fill="white" fill-rule="nonzero" />
<path d="
M175.18 195.54
L175.18 197.96
L174.08 197.96
L175.18 195.54
Z
M171.42 193.31
C170.93 193.31 170.54 193.51 170.25 193.89
C169.96 194.25 169.80 194.79 169.75 195.51
L169.74 195.64
L169.87 195.66
L170.46 195.75
L170.63 195.77
L170.63 195.61
C170.63 195.18 170.70 194.85 170.86 194.63
C171.00 194.42 171.18 194.32 171.39 194.32
C171.39 194.32 171.40 194.32 171.40 194.32
C171.40 194.32 171.40 194.32 171.40 194.32
C171.60 194.32 171.77 194.42 171.91 194.61
C172.06 194.81 172.14 195.08 172.14 195.41
C172.14 195.70 172.06 196.02 171.90 196.37
C171.74 196.72 171.40 197.23 170.87 197.88
C170.40 198.47 170.08 198.98 169.90 199.41
C169.72 199.85 169.63 200.25 169.64 200.61
L169.65 200.75
L173.02 200.75
L173.02 200.61
L173.02 199.77
L173.02 199.62
L170.80 199.62
C170.84 199.54 170.89 199.45 170.94 199.37
C171.04 199.21 171.26 198.92 171.60 198.48
C172.14 197.78 172.51 197.22 172.71 196.79
C172.91 196.36 173.01 195.90 173.01 195.43
C173.01 194.89 172.88 194.41 172.62 193.98
C172.35 193.54 171.95 193.32 171.42 193.31
Z
M175.34 193.34
L175.30 193.43
L173.17 198.04
L173.15 198.07
L173.15 198.10
L173.15 198.90
L173.15 199.04
L175.18 199.04
L175.18 200.61
L175.18 200.75
L176.04 200.75
L176.04 200.61
L176.04 199.04
L176.67 199.04
L176.67 198.90
L176.67 198.10
L176.67 197.96
L176.04 197.96
L176.04 193.48
L176.04 193.34
Z
" fill="white" fill-rule="nonzero" />
<path d="
M175.01 206.16
C175.01 206.16 175.01 206.16 175.01 206.16
C175.01 206.16 175.01 206.16 175.01 206.16
C175.17 206.16 175.31 206.25 175.44 206.42
C175.57 206.61 175.64 206.85 175.64 207.16
C175.64 207.45 175.57 207.69 175.44 207.87
C175.32 208.03 175.18 208.11 175.02 208.11
C175.02 208.11 175.02 208.11 175.02 208.11
C175.02 208.11 175.02 208.11 175.02 208.11
C174.85 208.11 174.71 208.03 174.59 207.86
C174.46 207.68 174.40 207.43 174.40 207.11
C174.40 206.83 174.46 206.60 174.59 206.41
C174.71 206.25 174.85 206.16 175.01 206.16
Z
M175.00 209.11
C175.00 209.11 175.00 209.11 175.00 209.11
C175.01 209.11 175.01 209.11 175.01 209.11
C175.22 209.11 175.41 209.22 175.57 209.45
C175.74 209.69 175.83 210.02 175.83 210.43
C175.83 210.83 175.74 211.15 175.58 211.38
C175.42 211.60 175.24 211.71 175.02 211.71
C175.02 211.71 175.02 211.71 175.02 211.71
C175.02 211.71 175.02 211.71 175.02 211.71
C174.80 211.71 174.62 211.60 174.46 211.37
C174.29 211.13 174.21 210.80 174.21 210.40
C174.21 210.00 174.29 209.69 174.45 209.45
C174.61 209.22 174.79 209.11 175.00 209.11
Z
M171.53 205.16
L171.50 205.26
C171.41 205.55 171.25 205.86 171.01 206.17
C170.78 206.49 170.51 206.75 170.21 206.97
L170.15 207.02
L170.15 207.09
L170.15 207.93
L170.15 208.17
L170.36 208.06
C170.55 207.95 170.77 207.79 171.00 207.58
C171.11 207.48 171.21 207.38 171.29 207.29
L171.29 207.29
L171.29 212.45
L171.29 212.59
L172.15 212.59
L172.15 212.45
L172.15 205.30
L172.15 205.16
Z
M175.01 205.16
C174.58 205.16 174.22 205.35 173.93 205.73
C173.66 206.09 173.52 206.56 173.52 207.13
C173.52 207.51 173.59 207.83 173.71 208.10
C173.81 208.29 173.93 208.44 174.09 208.57
L174.09 208.57
C173.88 208.71 173.71 208.90 173.59 209.15
C173.42 209.48 173.34 209.90 173.34 210.40
C173.34 211.08 173.49 211.63 173.80 212.06
C174.13 212.49 174.53 212.71 175.02 212.71
C175.50 212.71 175.91 212.49 176.23 212.06
C176.54 211.63 176.70 211.09 176.70 210.42
C176.70 209.94 176.62 209.53 176.45 209.20
C176.33 208.94 176.15 208.73 175.94 208.58
L175.94 208.58
C176.10 208.45 176.23 208.29 176.32 208.09
C176.44 207.84 176.51 207.53 176.51 207.16
C176.51 206.58 176.37 206.11 176.09 205.74
C175.80 205.35 175.44 205.16 175.01 205.16
Z
" fill="white" fill-rule="nonzero" />
<path d="
M185.03 145.81
C184.58 145.81 184.20 145.97 183.89 146.27
C183.57 146.58 183.37 147.04 183.28 147.64
L183.99 147.79
C184.04 147.37 184.16 147.05 184.35 146.84
C184.53 146.63 184.76 146.52 185.03 146.52
C185.30 146.52 185.52 146.62 185.70 146.82
C185.88 147.02 185.98 147.29 185.98 147.62
C185.98 147.98 185.87 148.26 185.65 148.48
C185.43 148.69 185.15 148.80 184.80 148.80
L184.69 148.79
L184.61 149.55
C184.81 149.48 184.97 149.45 185.11 149.45
C185.42 149.45 185.69 149.58 185.91 149.83
C186.13 150.08 186.23 150.41 186.23 150.82
C186.23 151.25 186.12 151.61 185.88 151.88
C185.64 152.15 185.36 152.29 185.04 152.29
C184.44 152.29 184.07 151.83 183.92 150.91
L183.21 151.02
C183.26 151.63 183.45 152.11 183.80 152.47
C184.14 152.83 184.56 153.00 185.05 153.00
C185.58 153.00 186.04 152.80 186.42 152.39
C186.80 151.98 186.99 151.45 186.99 150.80
C186.99 150.50 186.94 150.22 186.85 149.98
C186.76 149.73 186.63 149.53 186.48 149.39
C186.33 149.24 186.14 149.13 185.91 149.07
C186.16 148.93 186.36 148.73 186.50 148.49
C186.64 148.24 186.71 147.96 186.71 147.64
C186.71 147.11 186.54 146.68 186.22 146.33
C185.89 145.99 185.49 145.81 185.03 145.81
Z
" fill="black" fill-rule="nonzero" />
<path d="
M186.93 206.02
C187.16 206.02 187.37 206.17 187.55 206.46
C187.73 206.75 187.82 207.15 187.82 207.66
C187.82 208.17 187.73 208.57 187.56 208.85
C187.38 209.13 187.17 209.26 186.91 209.26
C186.66 209.26 186.44 209.13 186.25 208.85
C186.07 208.57 185.98 208.20 185.98 207.73
C185.98 207.22 186.07 206.80 186.27 206.49
C186.46 206.18 186.68 206.02 186.93 206.02
Z
M183.54 205.30
C183.45 205.61 183.28 205.93 183.03 206.26
C182.79 206.58 182.51 206.86 182.20 207.09
L182.20 207.93
C182.38 207.83 182.59 207.68 182.81 207.47
C183.03 207.27 183.21 207.07 183.34 206.88
L183.34 212.45
L183.92 212.45
L183.92 205.30
Z
M186.86 205.30
C186.45 205.30 186.10 205.51 185.82 205.94
C185.53 206.37 185.39 206.96 185.39 207.71
C185.39 208.43 185.52 209.00 185.80 209.41
C186.08 209.83 186.40 210.04 186.79 210.04
C187.00 210.04 187.20 209.95 187.40 209.78
C187.61 209.62 187.77 209.39 187.89 209.10
L187.89 209.27
C187.89 209.83 187.83 210.32 187.72 210.74
C187.61 211.15 187.48 211.45 187.32 211.61
C187.17 211.77 186.99 211.85 186.80 211.85
C186.37 211.85 186.11 211.48 186.02 210.73
L185.47 210.80
C185.52 211.38 185.66 211.82 185.90 212.12
C186.14 212.42 186.43 212.57 186.79 212.57
C187.10 212.57 187.39 212.45 187.64 212.20
C187.89 211.95 188.09 211.55 188.24 211.01
C188.39 210.47 188.46 209.71 188.46 208.74
C188.46 207.86 188.39 207.19 188.25 206.72
C188.12 206.25 187.92 205.90 187.67 205.66
C187.42 205.42 187.15 205.30 186.86 205.30
Z
" fill="black" fill-rule="nonzero" />
</g>
<g  transform="translate(1.19,228.58)" >
<path d="
M106.49 2.94
C106.33 2.94 106.19 3.00 106.07 3.11
C105.96 3.23 105.90 3.37 105.90 3.53
C105.90 3.69 105.96 3.83 106.08 3.95
C106.19 4.07 106.33 4.12 106.49 4.12
C106.66 4.12 106.80 4.07 106.91 3.95
C107.02 3.83 107.08 3.69 107.08 3.53
C107.08 3.37 107.02 3.23 106.91 3.11
C106.80 3.00 106.66 2.94 106.49 2.94
Z
M128.79 4.39
L128.79 8.31
L126.02 8.31
L128.79 4.39
Z
M111.46 8.04
L111.46 10.07
C110.98 10.46 110.60 10.65 110.30 10.65
C110.08 10.65 109.89 10.56 109.73 10.37
C109.56 10.19 109.48 9.96 109.48 9.68
C109.48 9.46 109.54 9.25 109.67 9.07
C109.81 8.88 110.02 8.70 110.33 8.53
C110.50 8.44 110.88 8.27 111.46 8.04
Z
M99.82 3.77
C100.75 3.77 101.51 4.08 102.10 4.71
C102.69 5.34 102.99 6.20 102.99 7.29
C102.99 8.37 102.69 9.23 102.10 9.86
C101.51 10.49 100.76 10.81 99.86 10.81
C99.53 10.81 99.12 10.75 98.62 10.64
L98.62 3.94
C99.07 3.83 99.47 3.77 99.82 3.77
Z
M96.37 3.33
L96.37 3.54
L96.67 3.54
C96.97 3.54 97.19 3.63 97.34 3.80
C97.45 3.92 97.51 4.23 97.51 4.72
L97.51 9.82
C97.51 10.26 97.46 10.55 97.38 10.68
C97.24 10.89 97.00 11.00 96.67 11.00
L96.37 11.00
L96.37 11.21
L99.90 11.21
C101.43 11.21 102.57 10.80 103.32 9.98
C103.98 9.24 104.32 8.33 104.32 7.23
C104.32 6.41 104.13 5.69 103.76 5.07
C103.38 4.44 102.89 4.00 102.27 3.73
C101.66 3.46 100.76 3.33 99.58 3.33
Z
M106.72 5.73
L105.12 6.38
L105.20 6.59
C105.35 6.53 105.48 6.50 105.59 6.50
C105.69 6.50 105.77 6.53 105.83 6.58
C105.89 6.62 105.93 6.71 105.96 6.83
C105.99 7.00 106.01 7.38 106.01 7.96
L106.01 10.01
C106.01 10.34 105.98 10.56 105.93 10.68
C105.88 10.79 105.81 10.88 105.72 10.93
C105.63 10.98 105.46 11.00 105.20 11.00
L105.20 11.21
L107.78 11.21
L107.78 11.00
C107.53 11.00 107.36 10.98 107.26 10.92
C107.17 10.87 107.10 10.79 107.05 10.68
C107.00 10.56 106.98 10.34 106.98 10.01
L106.98 5.73
Z
M122.63 3.16
L120.71 4.10
L120.79 4.28
C121.05 4.16 121.25 4.10 121.39 4.10
C121.49 4.10 121.58 4.13 121.65 4.19
C121.72 4.25 121.77 4.34 121.80 4.46
C121.84 4.62 121.86 4.99 121.86 5.57
L121.86 9.82
C121.86 10.30 121.84 10.58 121.79 10.67
C121.75 10.77 121.68 10.85 121.57 10.90
C121.46 10.96 121.22 10.99 120.85 11.00
L120.85 11.21
L123.81 11.21
L123.81 11.00
C123.46 10.99 123.22 10.96 123.10 10.90
C122.99 10.84 122.91 10.76 122.87 10.65
C122.84 10.54 122.82 10.27 122.82 9.82
L122.82 3.16
Z
M129.11 3.16
L125.45 8.39
L125.45 9.13
L128.79 9.13
L128.79 11.21
L129.75 11.21
L129.75 9.13
L130.81 9.13
L130.81 8.31
L129.75 8.31
L129.75 3.16
Z
M110.65 5.73
C110.03 5.73 109.56 5.87 109.21 6.15
C108.87 6.43 108.70 6.73 108.70 7.07
C108.70 7.24 108.75 7.38 108.84 7.48
C108.93 7.58 109.05 7.63 109.19 7.63
C109.34 7.63 109.46 7.58 109.55 7.49
C109.64 7.39 109.69 7.25 109.69 7.07
L109.67 6.74
C109.67 6.56 109.75 6.41 109.89 6.28
C110.04 6.15 110.23 6.08 110.48 6.08
C110.80 6.08 111.04 6.18 111.21 6.38
C111.38 6.58 111.46 6.94 111.46 7.47
L111.46 7.68
C110.55 8.02 109.90 8.30 109.50 8.53
C109.11 8.76 108.83 9.01 108.67 9.28
C108.56 9.47 108.50 9.69 108.50 9.95
C108.50 10.36 108.62 10.69 108.86 10.95
C109.09 11.20 109.40 11.32 109.77 11.32
C110.00 11.32 110.23 11.27 110.44 11.18
C110.57 11.11 110.92 10.87 111.46 10.45
C111.47 10.76 111.53 10.99 111.64 11.12
C111.75 11.25 111.90 11.32 112.09 11.32
C112.49 11.32 112.90 11.03 113.34 10.45
L113.34 10.12
C113.10 10.35 112.95 10.49 112.87 10.54
C112.82 10.57 112.77 10.58 112.70 10.58
C112.65 10.58 112.59 10.57 112.55 10.53
C112.50 10.49 112.47 10.41 112.45 10.30
C112.43 10.18 112.42 9.87 112.42 9.36
L112.42 7.55
C112.42 7.04 112.39 6.70 112.32 6.53
C112.21 6.28 112.04 6.09 111.81 5.97
C111.51 5.81 111.12 5.73 110.65 5.73
Z
M114.85 10.08
C114.67 10.08 114.52 10.15 114.39 10.27
C114.26 10.39 114.20 10.55 114.20 10.73
C114.20 10.91 114.26 11.06 114.39 11.19
C114.52 11.31 114.67 11.38 114.85 11.38
C115.03 11.38 115.18 11.31 115.30 11.19
C115.43 11.06 115.49 10.91 115.49 10.73
C115.49 10.55 115.43 10.40 115.31 10.27
C115.18 10.15 115.03 10.08 114.85 10.08
Z
" fill="black" fill-rule="nonzero" />
</g>
</g>
</svg>
