<?xml version="1.0" encoding="utf-8" standalone="no"?>
<!DOCTYPE svg PUBLIC "-//W3C//DTD SVG 1.0//EN" "http://www.w3.org/TR/SVG/DTD/svg11.dtd" >
<svg version="1.1" baseProfile="full"  width="319.13385" height="338.46454" viewBox="0 0 229.77638 243.69449" preserveAspectRatio="xMidYMid" xmlns="http://www.w3.org/2000/svg" >

<g lengthAdjust="spacingAndGlyphs" xml:space='preserve' >
<g  transform="translate(1.19,1.19)" >
<path d="
M0.0 0.0
L0.0 227.39
L227.39 227.39
L227.39 0.0
Z
" fill="none" fill-rule="nonzero" />
<line x1="6.54" y1="6.54" x2="6.54" y2="220.84" fill="none" stroke="black" stroke-width="0.87px" stroke-linecap="square" />
<line x1="18.45" y1="6.54" x2="18.45" y2="220.84" fill="none" stroke="black" stroke-width="0.25px" stroke-linecap="butt" />
<line x1="30.35" y1="6.54" x2="30.35" y2="220.84" fill="none" stroke="black" stroke-width="0.25px" stroke-linecap="butt" />
<line x1="42.26" y1="6.54" x2="42.26" y2="220.84" fill="none" stroke="black" stroke-width="0.25px" stroke-linecap="butt" />
<line x1="54.17" y1="6.54" x2="54.17" y2="220.84" fill="none" stroke="black" stroke-width="0.25px" stroke-linecap="butt" />
<line x1="66.07" y1="6.54" x2="66.07" y2="220.84" fill="none" stroke="black" stroke-width="0.25px" stroke-linecap="butt" />
<line x1="77.98" y1="6.54" x2="77.98" y2="220.84" fill="none" stroke="black" stroke-width="0.25px" stroke-linecap="butt" />
<line x1="89.88" y1="6.54" x2="89.88" y2="220.84" fill="none" stroke="black" stroke-width="0.25px" stroke-linecap="butt" />
<line x1="101.79" y1="6.54" x2="101.79" y2="220.84" fill="none" stroke="black" stroke-width="0.25px" stroke-linecap="butt" />
<line x1="113.69" y1="6.54" x2="113.69" y2="220.84" fill="none" stroke="black" stroke-width="0.25px" stroke-linecap="butt" />
<line x1="125.60" y1="6.54" x2="125.60" y2="220.84" fill="none" stroke="black" stroke-width="0.25px" stroke-linecap="butt" />
<line x1="137.50" y1="6.54" x2="137.50" y2="220.84" fill="none" stroke="black" stroke-width="0.25px" stroke-linecap="butt" />
<line x1="149.41" y1="6.54" x2="149.41" y2="220.84" fill="none" stroke="black" stroke-width="0.25px" stroke-linecap="butt" />
<line x1="161.31" y1="6.54" x2="161.31" y2="220.84" fill="none" stroke="black" stroke-width="0.25px" stroke-linecap="butt" />
<line x1="173.22" y1="6.54" x2="173.22" y2="220.84" fill="none" stroke="black" stroke-width="0.25px" stroke-linecap="butt" />
<line x1="185.13" y1="6.54" x2="185.13" y2="220.84" fill="none" stroke="black" stroke-width="0.25px" stroke-linecap="butt" />
<line x1="197.03" y1="6.54" x2="197.03" y2="220.84" fill="none" stroke="black" stroke-width="0.25px" stroke-linecap="butt" />
<line x1="208.94" y1="6.54" x2="208.94" y2="220.84" fill="none" stroke="black" stroke-width="0.25px" stroke-linecap="butt" />
<line x1="220.84" y1="6.54" x2="220.84" y2="220.84" fill="none" stroke="black" stroke-width="0.87px" stroke-linecap="square" />
<line x1="6.54" y1="6.54" x2="220.84" y2="6.54" fill="none" stroke="black" stroke-width="0.87px" stroke-linecap="square" />
<line x1="6.54" y1="18.45" x2="220.84" y2="18.45" fill="none" stroke="black" stroke-width="0.25px" stroke-linecap="butt" />
<line x1="6.54" y1="30.35" x2="220.84" y2="30.35" fill="none" stroke="black" stroke-width="0.25px" stroke-linecap="butt" />
<line x1="6.54" y1="42.26" x2="220.84" y2="42.26" fill="none" stroke="black" stroke-width="0.25px" stroke-linecap="butt" />
<line x1="6.54" y1="54.17" x2="220.84" y2="54.17" fill="none" stroke="black" stroke-width="0.25px" stroke-linecap="butt" />
<line x1="6.54" y1="66.07" x2="220.84" y2="66.07" fill="none" stroke="black" stroke-width="0.25px" stroke-linecap="butt" />
<line x1="6.54" y1="77.98" x2="220.84" y2="77.98" fill="none" stroke="black" stroke-width="0.25px" stroke-linecap="butt" />
<line x1="6.54" y1="89.88" x2="220.84" y2="89.88" fill="none" stroke="black" stroke-width="0.25px" stroke-linecap="butt" />
<line x1="6.54" y1="101.79" x2="220.84" y2="101.79" fill="none" stroke="black" stroke-width="0.25px" stroke-linecap="butt" />
<line x1="6.54" y1="113.69" x2="220.84" y2="113.69" fill="none" stroke="black" stroke-width="0.25px" stroke-linecap="butt" />
<line x1="6.54" y1="125.60" x2="220.84" y2="125.60" fill="none" stroke="black" stroke-width="0.25px" stroke-linecap="butt" />
<line x1="6.54" y1="137.50" x2="220.84" y2="137.50" fill="none" stroke="black" stroke-width="0.25px" stroke-linecap="butt" />
<line x1="6.54" y1="149.41" x2="220.84" y2="149.41" fill="none" stroke="black" stroke-width="0.25px" stroke-linecap="butt" />
<line x1="6.54" y1="161.31" x2="220.84" y2="161.31" fill="none" stroke="black" stroke-width="0.25px" stroke-linecap="butt" />
<line x1="6.54" y1="173.22" x2="220.84" y2="173.22" fill="none" stroke="black" stroke-width="0.25px" stroke-linecap="butt" />
<line x1="6.54" y1="185.13" x2="220.84" y2="185.13" fill="none" stroke="black" stroke-width="0.25px" stroke-linecap="butt" />
<line x1="6.54" y1="197.03" x2="220.84" y2="197.03" fill="none" stroke="black" stroke-width="0.25px" stroke-linecap="butt" />
<line x1="6.54" y1="208.94" x2="220.84" y2="208.94" fill="none" stroke="black" stroke-width="0.25px" stroke-linecap="butt" />
<line x1="6.54" y1="220.84" x2="220.84" y2="220.84" fill="none" stroke="black" stroke-width="0.87px" stroke-linecap="square" />
<circle cx="30.35" cy="54.17" r="5.98" fill="black"/>
<circle cx="30.35" cy="77.98" r="5.85" fill="white"/>
<circle cx="30.35" cy="77.98" r="5.85" fill="none" stroke="black" stroke-width="0.25px"/>
<circle cx="30.35" cy="89.88" r="5.85" fill="white"/>
<circle cx="30.35" cy="89.88" r="5.85" fill="none" stroke="black" stroke-width="0.25px"/>
<circle cx="30.35" cy="125.60" r="5.85" fill="white"/>
<circle cx="30.35" cy="125.60" r="5.85" fill="none" stroke="black" stroke-width="0.25px"/>
<circle cx="30.35" cy="161.31" r="5.85" fill="white"/>
<circle cx="30.35" cy="161.31" r="5.85" fill="none" stroke="black" stroke-width="0.25px"/>
<circle cx="30.35" cy="173.22" r="5.85" fill="white"/>
<circle cx="30.35" cy="173.22" r="5.85" fill="none" stroke="black" stroke-width="0.25px"/>
<circle cx="30.35" cy="185.13" r="5.98" fill="black"/>
<circle cx="42.26" cy="30.35" r="5.85" fill="white"/>
<circle cx="42.26" cy="30.35" r="5.85" fill="none" stroke="black" stroke-width="0.25px"/>
<circle cx="42.26" cy="42.26" r="1.27" fill="black"/>
<circle cx="42.26" cy="77.98" r="5.85" fill="white"/>
<circle cx="42.26" cy="77.98" r="5.85" fill="none" stroke="black" stroke-width="0.25px"/>
<circle cx="42.26" cy="89.88" r="5.98" fill="black"/>
<circle cx="42.26" cy="101.79" r="5.85" fill="white"/>
<circle cx="42.26" cy="101.79" r="5.85" fill="none" stroke="black" stroke-width="0.25px"/>
<circle cx="42.26" cy="113.69" r="5.85" fill="white"/>
<circle cx="42.26" cy="113.69" r="5.85" fill="none" stroke="black" stroke-width="0.25px"/>
<circle cx="42.26" cy="149.41" r="5.85" fill="white"/>
<circle cx="42.26" cy="149.41" r="5.85" fill="none" stroke="black" stroke-width="0.25px"/>
<circle cx="42.26" cy="161.31" r="5.98" fill="black"/>
<circle cx="42.26" cy="185.13" r="5.98" fill="black"/>
<circle cx="54.17" cy="66.07" r="5.98" fill="black"/>
<circle cx="54.17" cy="77.98" r="5.98" fill="black"/>
<circle cx="54.17" cy="89.88" r="5.98" fill="black"/>
<circle cx="54.17" cy="101.79" r="5.98" fill="black"/>
<circle cx="54.17" cy="161.31" r="5.98" fill="black"/>
<circle cx="66.07" cy="125.60" r="5.98" fill="black"/>
<circle cx="66.07" cy="137.50" r="5.98" fill="black"/>
<circle cx="66.07" cy="197.03" r="5.98" fill="black"/>
<circle cx="77.98" cy="30.35" r="5.85" fill="white"/>
<circle cx="77.98" cy="30.35" r="5.85" fill="none" stroke="black" stroke-width="0.25px"/>
<circle cx="77.98" cy="113.69" r="5.85" fill="white"/>
<circle cx="77.98" cy="113.69" r="5.85" fill="none" stroke="black" stroke-width="0.25px"/>
<circle cx="77.98" cy="125.60" r="5.85" fill="white"/>
<circle cx="77.98" cy="125.60" r="5.85" fill="none" stroke="black" stroke-width="0.25px"/>
<circle cx="77.98" cy="137.50" r="5.98" fill="black"/>
<circle cx="89.88" cy="113.69" r="5.98" fill="black"/>
<circle cx="89.88" cy="125.60" r="5.98" fill="black"/>
<circle cx="89.88" cy="137.50" r="5.85" fill="white"/>
<circle cx="89.88" cy="137.50" r="5.85" fill="none" stroke="black" stroke-width="0.25px"/>
<circle cx="89.88" cy="149.41" r="5.85" fill="white"/>
<circle cx="89.88" cy="149.41" r="5.85" fill="none" stroke="black" stroke-width="0.25px"/>
<circle cx="89.88" cy="161.31" r="5.98" fill="black"/>
<circle cx="89.88" cy="185.13" r="5.85" fill="white"/>
<circle cx="89.88" cy="185.13" r="5.85" fill="none" stroke="black" stroke-width="0.25px"/>
<circle cx="101.79" cy="125.60" r="5.85" fill="white"/>
<circle cx="101.79" cy="125.60" r="5.85" fill="none" stroke="black" stroke-width="0.25px"/>
<circle cx="101.79" cy="137.50" r="5.98" fill="black"/>
<circle cx="101.79" cy="161.31" r="5.98" fill="black"/>
<circle cx="101.79" cy="185.13" r="5.85" fill="white"/>
<circle cx="101.79" cy="185.13" r="5.85" fill="none" stroke="black" stroke-width="0.25px"/>
<circle cx="101.79" cy="197.03" r="5.98" fill="black"/>
<circle cx="101.79" cy="208.94" r="5.98" fill="black"/>
<circle cx="113.69" cy="30.35" r="5.85" fill="white"/>
<circle cx="113.69" cy="30.35" r="5.85" fill="none" stroke="black" stroke-width="0.25px"/>
<circle cx="113.69" cy="42.26" r="1.27" fill="black"/>
<circle cx="113.69" cy="54.17" r="5.85" fill="white"/>
<circle cx="113.69" cy="54.17" r="5.85" fill="none" stroke="black" stroke-width="0.25px"/>
<circle cx="113.69" cy="77.98" r="5.98" fill="black"/>
<circle cx="113.69" cy="113.69" r="1.27" fill="black"/>
<circle cx="113.69" cy="125.60" r="5.85" fill="white"/>
<circle cx="113.69" cy="125.60" r="5.85" fill="none" stroke="black" stroke-width="0.25px"/>
<circle cx="113.69" cy="137.50" r="5.98" fill="black"/>
<circle cx="113.69" cy="161.31" r="5.98" fill="black"/>
<circle cx="113.69" cy="185.13" r="5.98" fill="black"/>
<circle cx="113.69" cy="197.03" r="5.85" fill="white"/>
<circle cx="113.69" cy="197.03" r="5.85" fill="none" stroke="black" stroke-width="0.25px"/>
<circle cx="113.69" cy="208.94" r="5.98" fill="black"/>
<circle cx="125.60" cy="125.60" r="5.85" fill="white"/>
<circle cx="125.60" cy="125.60" r="5.85" fill="none" stroke="black" stroke-width="0.25px"/>
<circle cx="125.60" cy="137.50" r="5.85" fill="white"/>
<circle cx="125.60" cy="137.50" r="5.85" fill="none" stroke="black" stroke-width="0.25px"/>
<circle cx="125.60" cy="149.41" r="5.85" fill="white"/>
<circle cx="125.60" cy="149.41" r="5.85" fill="none" stroke="black" stroke-width="0.25px"/>
<circle cx="125.60" cy="161.31" r="5.85" fill="white"/>
<circle cx="125.60" cy="161.31" r="5.85" fill="none" stroke="black" stroke-width="0.25px"/>
<circle cx="125.60" cy="173.22" r="5.98" fill="black"/>
<circle cx="125.60" cy="197.03" r="5.85" fill="white"/>
<circle cx="125.60" cy="197.03" r="5.85" fill="none" stroke="black" stroke-width="0.25px"/>
<circle cx="125.60" cy="208.94" r="5.85" fill="white"/>
<circle cx="125.60" cy="208.94" r="5.85" fill="none" stroke="black" stroke-width="0.25px"/>
<circle cx="137.50" cy="30.35" r="5.98" fill="black"/>
<circle cx="137.50" cy="161.31" r="5.98" fill="black"/>
<circle cx="137.50" cy="173.22" r="5.85" fill="white"/>
<circle cx="137.50" cy="173.22" r="5.85" fill="none" stroke="black" stroke-width="0.25px"/>
<circle cx="137.50" cy="185.13" r="5.85" fill="white"/>
<circle cx="137.50" cy="185.13" r="5.85" fill="none" stroke="black" stroke-width="0.25px"/>
<circle cx="149.41" cy="149.41" r="5.98" fill="black"/>
<circle cx="149.41" cy="173.22" r="5.85" fill="white"/>
<circle cx="149.41" cy="173.22" r="5.85" fill="none" stroke="black" stroke-width="0.25px"/>
<circle cx="149.41" cy="197.03" r="5.98" fill="black"/>
<circle cx="173.22" cy="89.88" r="5.98" fill="black"/>
<circle cx="173.22" cy="113.69" r="5.98" fill="black"/>
<circle cx="173.22" cy="185.13" r="5.85" fill="white"/>
<circle cx="173.22" cy="185.13" r="5.85" fill="none" stroke="black" stroke-width="0.25px"/>
<circle cx="185.13" cy="30.35" r="5.98" fill="black"/>
<circle cx="185.13" cy="42.26" r="5.98" fill="black"/>
<circle cx="185.13" cy="113.69" r="1.27" fill="black"/>
<circle cx="185.13" cy="161.31" r="5.85" fill="white"/>
<circle cx="185.13" cy="161.31" r="5.85" fill="none" stroke="black" stroke-width="0.25px"/>
<circle cx="185.13" cy="185.13" r="1.27" fill="black"/>
<circle cx="185.13" cy="197.03" r="5.85" fill="white"/>
<circle cx="185.13" cy="197.03" r="5.85" fill="none" stroke="black" stroke-width="0.25px"/>
<circle cx="197.03" cy="89.88" r="5.98" fill="black"/>
<circle cx="197.03" cy="113.69" r="5.85" fill="white"/>
<circle cx="197.03" cy="113.69" r="5.85" fill="none" stroke="black" stroke-width="0.25px"/>
<circle cx="197.03" cy="125.60" r="5.85" fill="white"/>
<circle cx="197.03" cy="125.60" r="5.85" fill="none" stroke="black" stroke-width="0.25px"/>
<circle cx="197.03" cy="137.50" r="5.85" fill="white"/>
<circle cx="197.03" cy="137.50" r="5.85" fill="none" stroke="black" stroke-width="0.25px"/>
<circle cx="197.03" cy="149.41" r="5.85" fill="white"/>
<circle cx="197.03" cy="149.41" r="5.85" fill="none" stroke="black" stroke-width="0.25px"/>
<circle cx="197.03" cy="173.22" r="5.98" fill="black"/>
<circle cx="208.94" cy="113.69" r="5.98" fill="black"/>
<circle cx="208.94" cy="125.60" r="5.98" fill="black"/>
<circle cx="208.94" cy="137.50" r="5.98" fill="black"/>
<circle cx="208.94" cy="149.41" r="5.85" fill="white"/>
<circle cx="208.94" cy="149.41" r="5.85" fill="none" stroke="black" stroke-width="0.25px"/>
<path d="
M66.04 134.76
C66.04 134.76 66.04 134.76 66.04 134.76
C66.04 134.76 66.04 134.76 66.04 134.76
C66.26 134.76 66.44 134.85 66.60 135.03
C66.76 135.21 66.85 135.45 66.85 135.74
C66.85 136.03 66.77 136.26 66.61 136.43
C66.46 136.60 66.27 136.69 66.05 136.69
C66.05 136.69 66.05 136.69 66.05 136.69
C66.05 136.69 66.05 136.69 66.05 136.69
C65.83 136.69 65.64 136.60 65.49 136.43
C65.33 136.25 65.25 136.01 65.25 135.70
C65.25 135.43 65.33 135.20 65.49 135.02
C65.64 134.85 65.83 134.76 66.04 134.76
Z
M66.03 137.68
C66.03 137.68 66.03 137.68 66.03 137.68
C66.03 137.68 66.03 137.68 66.04 137.68
C66.32 137.68 66.56 137.79 66.77 138.02
C66.98 138.26 67.08 138.58 67.08 138.97
C67.08 139.37 66.98 139.68 66.78 139.91
C66.58 140.13 66.34 140.24 66.05 140.24
C66.05 140.24 66.05 140.24 66.05 140.24
C66.05 140.24 66.05 140.24 66.05 140.24
C65.77 140.24 65.53 140.13 65.33 139.90
C65.12 139.66 65.01 139.34 65.01 138.95
C65.01 138.56 65.11 138.26 65.32 138.02
C65.51 137.79 65.75 137.68 66.03 137.68
Z
M66.04 133.77
C65.52 133.77 65.09 133.95 64.75 134.32
C64.41 134.68 64.24 135.15 64.23 135.72
C64.23 136.10 64.31 136.42 64.47 136.68
C64.59 136.87 64.73 137.02 64.92 137.14
L64.92 137.14
C64.67 137.27 64.47 137.46 64.32 137.71
C64.11 138.03 64.00 138.45 64.00 138.95
C64.00 139.63 64.20 140.18 64.59 140.60
C64.98 141.02 65.47 141.24 66.05 141.24
C66.63 141.24 67.12 141.02 67.51 140.60
C67.89 140.18 68.09 139.63 68.09 138.97
C68.09 138.49 67.99 138.08 67.79 137.75
C67.63 137.50 67.43 137.30 67.17 137.15
L67.17 137.15
C67.36 137.03 67.51 136.87 67.62 136.68
C67.78 136.43 67.85 136.11 67.85 135.75
C67.85 135.17 67.68 134.70 67.34 134.33
C66.99 133.96 66.56 133.77 66.04 133.77
Z
" fill="white" fill-rule="nonzero" />
<path d="
M76.74 110.16
L76.18 113.78
L76.85 113.88
C76.96 113.67 77.11 113.50 77.29 113.38
C77.48 113.26 77.68 113.20 77.89 113.20
C78.25 113.20 78.55 113.34 78.78 113.62
C79.02 113.89 79.13 114.28 79.13 114.78
C79.13 115.32 79.01 115.74 78.77 116.05
C78.53 116.36 78.24 116.51 77.90 116.51
C77.63 116.51 77.39 116.40 77.19 116.18
C76.99 115.96 76.86 115.63 76.80 115.18
L76.06 115.26
C76.10 115.87 76.30 116.35 76.64 116.70
C76.99 117.05 77.41 117.22 77.91 117.22
C78.51 117.22 78.99 116.98 79.35 116.49
C79.70 115.99 79.88 115.41 79.88 114.72
C79.88 114.02 79.70 113.47 79.35 113.05
C78.99 112.64 78.57 112.44 78.09 112.44
C77.70 112.44 77.34 112.58 77.00 112.88
L77.31 110.99
L79.61 110.99
L79.61 110.16
Z
" fill="black" fill-rule="nonzero" />
<path d="
M77.88 122.00
C77.43 122.00 77.05 122.16 76.74 122.46
C76.42 122.77 76.22 123.23 76.13 123.83
L76.84 123.98
C76.89 123.56 77.01 123.24 77.20 123.03
C77.38 122.82 77.61 122.71 77.89 122.71
C78.15 122.71 78.37 122.81 78.55 123.01
C78.73 123.21 78.83 123.48 78.83 123.81
C78.83 124.17 78.72 124.45 78.50 124.67
C78.28 124.88 78.00 124.99 77.65 124.99
L77.54 124.98
L77.46 125.74
C77.66 125.67 77.82 125.64 77.96 125.64
C78.27 125.64 78.54 125.77 78.76 126.02
C78.98 126.27 79.09 126.59 79.09 127.00
C79.09 127.44 78.97 127.79 78.73 128.07
C78.49 128.34 78.21 128.48 77.89 128.48
C77.29 128.48 76.92 128.02 76.77 127.10
L76.06 127.21
C76.11 127.82 76.30 128.30 76.65 128.66
C76.99 129.01 77.41 129.19 77.90 129.19
C78.43 129.19 78.89 128.99 79.27 128.58
C79.65 128.17 79.84 127.64 79.84 126.99
C79.84 126.69 79.79 126.41 79.70 126.16
C79.61 125.92 79.49 125.72 79.33 125.57
C79.18 125.43 78.99 125.32 78.76 125.26
C79.01 125.12 79.21 124.92 79.35 124.68
C79.49 124.43 79.56 124.15 79.56 123.83
C79.56 123.30 79.39 122.87 79.07 122.52
C78.74 122.18 78.34 122.00 77.88 122.00
Z
" fill="black" fill-rule="nonzero" />
<path d="
M77.99 137.32
C78.26 137.32 78.48 137.44 78.67 137.68
C78.87 137.92 78.97 138.28 78.97 138.75
C78.97 139.23 78.87 139.60 78.67 139.86
C78.48 140.12 78.27 140.24 78.04 140.24
C78.04 140.24 78.03 140.24 78.03 140.24
C78.03 140.24 78.03 140.24 78.03 140.24
C77.76 140.24 77.52 140.11 77.31 139.84
C77.09 139.55 76.98 139.17 76.98 138.70
C76.98 138.26 77.08 137.92 77.29 137.68
C77.49 137.44 77.72 137.32 77.98 137.32
C77.98 137.32 77.99 137.32 77.99 137.32
C77.99 137.32 77.99 137.32 77.99 137.32
Z
M78.09 133.77
C77.44 133.77 76.90 134.08 76.49 134.70
C76.08 135.30 75.88 136.29 75.88 137.68
C75.88 138.94 76.08 139.84 76.47 140.39
C76.88 140.95 77.40 141.24 78.03 141.24
C78.38 141.24 78.70 141.14 79.00 140.94
C79.29 140.74 79.52 140.44 79.71 140.03
C79.89 139.63 79.98 139.19 79.98 138.70
C79.98 137.97 79.79 137.38 79.43 136.94
C79.06 136.50 78.63 136.27 78.13 136.27
C77.82 136.27 77.54 136.36 77.27 136.53
C77.13 136.62 77.00 136.73 76.88 136.86
L76.88 136.86
C76.92 136.26 77.02 135.79 77.18 135.45
C77.30 135.22 77.43 135.04 77.58 134.93
C77.72 134.82 77.87 134.76 78.05 134.76
C78.05 134.76 78.05 134.76 78.05 134.76
C78.05 134.76 78.05 134.76 78.05 134.76
C78.27 134.76 78.46 134.86 78.62 135.05
C78.74 135.18 78.83 135.42 78.89 135.76
L78.91 135.88
L79.04 135.87
L79.75 135.80
L79.89 135.79
L79.87 135.65
C79.81 135.05 79.61 134.58 79.29 134.26
C78.97 133.93 78.57 133.77 78.09 133.77
Z
" fill="white" fill-rule="nonzero" />
<path d="
M91.64 110.92
C91.64 110.92 91.64 110.92 91.64 110.92
C91.64 110.92 91.64 110.92 91.64 110.92
C91.75 110.92 91.85 110.96 91.93 111.03
C92.03 111.12 92.12 111.25 92.20 111.43
C92.37 111.80 92.46 112.56 92.46 113.70
C92.46 114.82 92.37 115.57 92.20 115.96
C92.12 116.14 92.04 116.27 91.94 116.36
C91.86 116.43 91.77 116.47 91.68 116.47
C91.68 116.47 91.68 116.47 91.68 116.47
C91.68 116.47 91.68 116.47 91.68 116.47
C91.57 116.47 91.48 116.43 91.39 116.36
C91.29 116.27 91.20 116.14 91.12 115.96
C90.96 115.59 90.87 114.83 90.87 113.70
C90.87 112.57 90.95 111.81 91.12 111.43
C91.20 111.25 91.29 111.12 91.38 111.03
C91.46 110.96 91.55 110.92 91.64 110.92
Z
M88.20 109.91
L88.16 110.01
C88.07 110.31 87.91 110.61 87.67 110.93
C87.44 111.24 87.17 111.51 86.87 111.73
L86.81 111.77
L86.81 111.84
L86.81 112.69
L86.81 112.93
L87.02 112.81
C87.22 112.70 87.43 112.54 87.66 112.34
C87.77 112.24 87.87 112.14 87.96 112.04
L87.96 112.04
L87.96 117.21
L87.96 117.35
L88.81 117.35
L88.81 117.21
L88.81 110.06
L88.81 109.91
Z
M91.67 109.91
C91.38 109.91 91.13 110.00 90.92 110.18
C90.71 110.35 90.54 110.59 90.40 110.92
C90.13 111.56 90.00 112.48 90.00 113.70
C90.00 115.05 90.15 116.01 90.44 116.58
C90.59 116.87 90.77 117.09 90.97 117.24
C91.18 117.39 91.41 117.47 91.66 117.47
C91.95 117.47 92.20 117.38 92.42 117.21
C92.62 117.04 92.80 116.79 92.94 116.46
C93.20 115.82 93.33 114.90 93.33 113.70
C93.33 112.35 93.17 111.36 92.85 110.74
C92.71 110.47 92.54 110.27 92.35 110.13
C92.15 109.99 91.92 109.91 91.67 109.91
Z
" fill="white" fill-rule="nonzero" />
<path d="
M90.09 124.00
L90.09 126.50
L88.67 126.50
L90.09 124.00
Z
M90.28 121.94
L90.24 122.01
L87.61 126.57
L87.59 126.60
L87.59 126.64
L87.59 127.43
L87.59 127.57
L90.09 127.57
L90.09 129.12
L90.09 129.26
L91.08 129.26
L91.08 129.12
L91.08 127.57
L91.87 127.57
L91.87 127.43
L91.87 126.64
L91.87 126.50
L91.08 126.50
L91.08 122.08
L91.08 121.94
Z
" fill="white" fill-rule="nonzero" />
<path d="
M88.01 134.03
L88.01 134.86
L90.83 134.86
C90.47 135.36 90.14 135.97 89.83 136.68
C89.52 137.39 89.27 138.13 89.10 138.92
C88.92 139.70 88.83 140.39 88.82 140.98
L89.55 140.98
C89.61 139.84 89.85 138.69 90.28 137.53
C90.70 136.37 91.19 135.43 91.74 134.70
L91.74 134.03
Z
" fill="black" fill-rule="nonzero" />
<path d="
M90.17 145.88
C90.05 146.18 89.84 146.50 89.54 146.82
C89.24 147.15 88.89 147.42 88.50 147.64
L88.50 148.48
C88.73 148.38 88.99 148.22 89.26 148.02
C89.54 147.82 89.76 147.63 89.92 147.44
L89.92 152.94
L90.63 152.94
L90.63 145.88
Z
" fill="black" fill-rule="nonzero" />
<path d="
M91.71 161.12
C91.91 161.12 92.08 161.24 92.23 161.48
C92.39 161.73 92.47 162.10 92.47 162.58
C92.47 163.06 92.39 163.44 92.23 163.72
C92.08 163.97 91.92 164.09 91.75 164.09
C91.75 164.09 91.74 164.09 91.74 164.09
C91.74 164.09 91.74 164.09 91.74 164.09
C91.54 164.09 91.35 163.96 91.19 163.69
C91.01 163.40 90.92 163.01 90.92 162.52
C90.92 162.08 91.00 161.73 91.17 161.48
C91.33 161.24 91.50 161.12 91.70 161.12
C91.70 161.12 91.70 161.12 91.70 161.12
C91.71 161.12 91.71 161.12 91.71 161.12
Z
M88.20 157.54
L88.16 157.64
C88.07 157.93 87.91 158.24 87.67 158.55
C87.44 158.87 87.17 159.13 86.87 159.35
L86.81 159.39
L86.81 159.47
L86.81 160.31
L86.81 160.55
L87.02 160.44
C87.22 160.33 87.43 160.17 87.66 159.96
C87.77 159.86 87.87 159.76 87.96 159.66
L87.96 159.66
L87.96 164.83
L87.96 164.97
L88.81 164.97
L88.81 164.83
L88.81 157.68
L88.81 157.54
Z
M91.79 157.54
C91.51 157.54 91.26 157.62 91.04 157.78
C90.82 157.94 90.63 158.18 90.46 158.49
C90.14 159.09 89.97 160.10 89.97 161.50
C89.97 162.76 90.13 163.67 90.45 164.23
C90.61 164.51 90.80 164.72 91.01 164.87
C91.23 165.02 91.47 165.09 91.74 165.09
C92.04 165.09 92.31 164.99 92.55 164.78
C92.79 164.58 92.98 164.28 93.13 163.86
C93.27 163.46 93.34 163.01 93.34 162.52
C93.34 161.79 93.20 161.20 92.91 160.76
C92.60 160.30 92.24 160.07 91.82 160.07
C91.56 160.07 91.32 160.16 91.09 160.34
C91.00 160.41 90.92 160.50 90.84 160.60
L90.84 160.60
C90.87 160.02 90.95 159.56 91.08 159.23
C91.18 158.99 91.28 158.81 91.40 158.69
C91.51 158.59 91.62 158.54 91.75 158.54
C91.75 158.54 91.75 158.54 91.76 158.54
C91.76 158.54 91.76 158.54 91.76 158.54
C91.92 158.54 92.07 158.63 92.19 158.82
C92.28 158.95 92.36 159.20 92.41 159.54
L92.43 159.68
L92.56 159.66
L93.14 159.59
L93.27 159.58
L93.26 159.44
C93.21 158.83 93.05 158.37 92.79 158.04
C92.52 157.71 92.19 157.54 91.79 157.54
Z
" fill="white" fill-rule="nonzero" />
<path d="
M101.77 122.72
C102.06 122.72 102.32 122.86 102.54 123.15
C102.76 123.44 102.88 123.84 102.88 124.34
C102.88 124.84 102.77 125.23 102.55 125.51
C102.33 125.78 102.07 125.92 101.75 125.92
C101.44 125.92 101.16 125.79 100.94 125.51
C100.71 125.24 100.60 124.87 100.60 124.41
C100.60 123.90 100.72 123.49 100.95 123.18
C101.19 122.87 101.46 122.72 101.77 122.72
Z
M101.69 122.01
C101.18 122.01 100.75 122.22 100.40 122.64
C100.04 123.07 99.87 123.65 99.87 124.38
C99.87 125.09 100.04 125.66 100.38 126.07
C100.72 126.48 101.13 126.69 101.60 126.69
C101.85 126.69 102.11 126.60 102.36 126.44
C102.61 126.27 102.81 126.04 102.95 125.76
L102.95 125.93
C102.95 126.48 102.89 126.96 102.75 127.38
C102.62 127.79 102.45 128.08 102.26 128.24
C102.07 128.40 101.85 128.48 101.61 128.48
C101.08 128.48 100.76 128.11 100.65 127.37
L99.97 127.44
C100.03 128.01 100.21 128.44 100.50 128.74
C100.80 129.04 101.16 129.19 101.60 129.19
C101.99 129.19 102.34 129.07 102.65 128.82
C102.96 128.57 103.21 128.18 103.39 127.65
C103.57 127.12 103.66 126.37 103.66 125.40
C103.66 124.53 103.58 123.87 103.41 123.41
C103.24 122.95 103.00 122.60 102.69 122.36
C102.38 122.12 102.05 122.01 101.69 122.01
Z
" fill="black" fill-rule="nonzero" />
<path d="
M101.80 133.83
C101.22 133.83 100.75 134.01 100.39 134.38
C100.04 134.75 99.83 135.29 99.78 136.00
L99.77 136.13
L99.90 136.15
L100.63 136.24
L100.79 136.26
L100.79 136.10
C100.79 135.68 100.89 135.36 101.07 135.14
C101.26 134.93 101.49 134.83 101.77 134.83
C101.78 134.83 101.78 134.83 101.78 134.83
C101.78 134.83 101.78 134.83 101.78 134.83
C102.05 134.83 102.27 134.93 102.45 135.12
C102.63 135.32 102.73 135.58 102.73 135.90
C102.73 136.19 102.63 136.50 102.44 136.84
C102.24 137.18 101.81 137.68 101.16 138.33
C100.58 138.91 100.18 139.41 99.96 139.84
C99.74 140.28 99.63 140.68 99.64 141.04
L99.65 141.18
L103.74 141.18
L103.74 141.04
L103.74 140.21
L103.74 140.06
L101.01 140.06
C101.06 139.98 101.12 139.90 101.18 139.82
C101.30 139.67 101.57 139.38 101.99 138.95
C102.66 138.26 103.12 137.70 103.36 137.28
C103.61 136.85 103.73 136.39 103.73 135.92
C103.73 135.38 103.57 134.90 103.25 134.48
C102.92 134.05 102.44 133.83 101.80 133.83
Z
" fill="white" fill-rule="nonzero" />
<path d="
M103.74 159.83
L103.74 162.24
L102.64 162.24
L103.74 159.83
Z
M100.10 157.60
L100.07 157.70
C99.98 157.99 99.81 158.30 99.58 158.61
C99.35 158.93 99.08 159.19 98.77 159.41
L98.72 159.45
L98.72 159.53
L98.72 160.37
L98.71 160.61
L98.93 160.50
C99.12 160.39 99.34 160.23 99.57 160.02
C99.67 159.92 99.77 159.82 99.86 159.72
L99.86 159.72
L99.86 164.89
L99.86 165.03
L100.72 165.03
L100.72 164.89
L100.72 157.74
L100.72 157.60
Z
M103.90 157.63
L103.87 157.71
L101.73 162.32
L101.72 162.35
L101.72 162.38
L101.72 163.19
L101.72 163.33
L103.74 163.33
L103.74 164.89
L103.74 165.03
L104.60 165.03
L104.60 164.89
L104.60 163.33
L105.24 163.33
L105.24 163.19
L105.24 162.38
L105.24 162.24
L104.60 162.24
L104.60 157.77
L104.60 157.63
Z
" fill="white" fill-rule="nonzero" />
<path d="
M103.74 207.45
L103.74 209.86
L102.64 209.86
L103.74 207.45
Z
M99.98 205.22
C99.50 205.22 99.11 205.41 98.81 205.79
C98.53 206.16 98.36 206.70 98.32 207.41
L98.31 207.54
L98.44 207.56
L99.03 207.65
L99.19 207.68
L99.19 207.51
C99.19 207.08 99.27 206.76 99.42 206.53
C99.57 206.33 99.74 206.23 99.96 206.23
C99.96 206.23 99.96 206.23 99.96 206.23
C99.97 206.23 99.97 206.23 99.97 206.23
C100.17 206.23 100.34 206.32 100.48 206.51
C100.63 206.72 100.71 206.98 100.71 207.31
C100.71 207.61 100.63 207.93 100.47 208.27
C100.31 208.63 99.96 209.13 99.43 209.79
C98.97 210.37 98.64 210.88 98.47 211.32
C98.29 211.76 98.20 212.16 98.21 212.52
L98.21 212.65
L101.58 212.65
L101.58 212.51
L101.58 211.67
L101.58 211.53
L99.37 211.53
C99.41 211.44 99.46 211.36 99.51 211.27
C99.61 211.12 99.83 210.82 100.17 210.39
C100.71 209.69 101.08 209.12 101.27 208.70
C101.48 208.26 101.58 207.81 101.58 207.33
C101.58 206.80 101.45 206.31 101.19 205.89
C100.91 205.44 100.51 205.22 99.98 205.22
Z
M103.90 205.25
L103.87 205.33
L101.73 209.95
L101.72 209.97
L101.72 210.01
L101.72 210.81
L101.72 210.95
L103.74 210.95
L103.74 212.51
L103.74 212.65
L104.60 212.65
L104.60 212.51
L104.60 210.95
L105.24 210.95
L105.24 210.81
L105.24 210.01
L105.24 209.86
L104.60 209.86
L104.60 205.39
L104.60 205.25
Z
" fill="white" fill-rule="nonzero" />
<path d="
M112.11 122.02
C112.01 122.33 111.84 122.65 111.60 122.98
C111.36 123.31 111.08 123.58 110.76 123.81
L110.76 124.66
C110.95 124.55 111.15 124.40 111.38 124.20
C111.60 123.99 111.78 123.80 111.91 123.60
L111.91 129.17
L112.48 129.17
L112.48 122.02
Z
M115.74 122.02
C115.64 122.33 115.47 122.65 115.23 122.98
C114.99 123.31 114.71 123.58 114.39 123.81
L114.39 124.66
C114.58 124.55 114.78 124.40 115.01 124.20
C115.23 123.99 115.41 123.80 115.54 123.60
L115.54 129.17
L116.11 129.17
L116.11 122.02
Z
" fill="black" fill-rule="nonzero" />
<path d="
M112.01 133.79
L111.98 133.89
C111.88 134.18 111.72 134.49 111.49 134.80
C111.25 135.12 110.98 135.38 110.68 135.60
L110.62 135.64
L110.62 135.72
L110.62 136.56
L110.62 136.80
L110.83 136.69
C111.03 136.58 111.24 136.42 111.47 136.21
C111.58 136.11 111.68 136.01 111.77 135.91
L111.77 135.91
L111.77 141.08
L111.77 141.22
L112.63 141.22
L112.63 141.08
L112.63 133.93
L112.63 133.79
Z
M115.52 133.79
C115.04 133.79 114.65 133.98 114.35 134.36
C114.06 134.73 113.90 135.27 113.85 135.98
L113.85 136.11
L113.97 136.13
L114.56 136.22
L114.73 136.25
L114.73 136.08
C114.73 135.65 114.81 135.32 114.96 135.10
C115.10 134.90 115.28 134.79 115.50 134.79
C115.50 134.79 115.50 134.79 115.50 134.79
C115.50 134.79 115.50 134.79 115.50 134.79
C115.70 134.79 115.87 134.89 116.01 135.08
C116.17 135.28 116.24 135.55 116.24 135.88
C116.24 136.17 116.16 136.49 116.00 136.84
C115.84 137.19 115.50 137.70 114.97 138.36
C114.50 138.94 114.18 139.45 114.00 139.88
C113.82 140.32 113.74 140.72 113.75 141.08
L113.75 141.22
L117.12 141.22
L117.12 141.08
L117.12 140.24
L117.12 140.10
L114.90 140.10
C114.94 140.01 114.99 139.92 115.05 139.84
C115.14 139.68 115.36 139.39 115.70 138.96
C116.24 138.25 116.61 137.69 116.81 137.26
C117.01 136.83 117.11 136.37 117.11 135.90
C117.11 135.36 116.98 134.88 116.72 134.46
C116.45 134.01 116.05 133.79 115.52 133.79
Z
" fill="white" fill-rule="nonzero" />
<path d="
M115.45 182.35
C115.45 182.35 115.45 182.35 115.45 182.35
C115.45 182.35 115.45 182.35 115.45 182.35
C115.56 182.35 115.66 182.39 115.75 182.47
C115.84 182.55 115.93 182.68 116.01 182.86
C116.18 183.23 116.27 183.99 116.27 185.13
C116.27 186.25 116.18 187.01 116.02 187.39
C115.94 187.57 115.85 187.70 115.75 187.79
C115.67 187.86 115.58 187.90 115.49 187.90
C115.49 187.90 115.49 187.90 115.49 187.90
C115.49 187.90 115.49 187.90 115.49 187.90
C115.38 187.90 115.29 187.86 115.20 187.79
C115.10 187.70 115.02 187.57 114.94 187.39
C114.77 187.02 114.68 186.26 114.68 185.13
C114.68 184.00 114.77 183.25 114.93 182.87
C115.01 182.69 115.10 182.55 115.19 182.47
C115.27 182.39 115.36 182.35 115.45 182.35
Z
M111.89 181.35
C111.41 181.35 111.02 181.54 110.72 181.92
C110.43 182.29 110.27 182.83 110.22 183.54
L110.22 183.67
L110.34 183.69
L110.93 183.78
L111.10 183.81
L111.10 183.64
C111.10 183.21 111.18 182.88 111.33 182.66
C111.47 182.46 111.65 182.35 111.87 182.35
C111.87 182.35 111.87 182.35 111.87 182.35
C111.87 182.35 111.87 182.35 111.87 182.35
C112.07 182.35 112.24 182.45 112.38 182.64
C112.54 182.84 112.61 183.11 112.61 183.44
C112.61 183.74 112.53 184.06 112.37 184.40
C112.21 184.76 111.87 185.26 111.34 185.92
C110.87 186.50 110.55 187.01 110.37 187.45
C110.19 187.88 110.11 188.28 110.12 188.64
L110.12 188.78
L113.49 188.78
L113.49 188.64
L113.49 187.80
L113.49 187.66
L111.27 187.66
C111.31 187.57 111.36 187.49 111.42 187.40
C111.51 187.24 111.73 186.95 112.07 186.52
C112.61 185.82 112.98 185.25 113.18 184.83
C113.38 184.39 113.48 183.94 113.48 183.46
C113.48 182.92 113.35 182.44 113.09 182.02
C112.82 181.57 112.42 181.35 111.89 181.35
Z
M115.48 181.35
C115.20 181.35 114.95 181.44 114.73 181.61
C114.52 181.78 114.35 182.03 114.21 182.36
C113.94 182.99 113.81 183.91 113.81 185.13
C113.81 186.49 113.96 187.45 114.25 188.01
C114.40 188.30 114.58 188.52 114.78 188.67
C114.99 188.83 115.22 188.90 115.47 188.90
C115.76 188.90 116.01 188.82 116.23 188.64
C116.44 188.47 116.61 188.22 116.75 187.89
C117.01 187.26 117.14 186.34 117.14 185.13
C117.14 183.78 116.98 182.80 116.66 182.17
C116.52 181.90 116.35 181.70 116.16 181.56
C115.96 181.42 115.73 181.35 115.48 181.35
Z
" fill="white" fill-rule="nonzero" />
<path d="
M111.89 193.46
C111.45 193.46 111.10 193.63 110.83 193.97
C110.56 194.32 110.41 194.83 110.37 195.52
L110.96 195.61
C110.96 195.15 111.04 194.79 111.21 194.55
C111.38 194.30 111.60 194.18 111.87 194.18
C112.12 194.18 112.33 194.29 112.50 194.52
C112.67 194.75 112.75 195.05 112.75 195.41
C112.75 195.72 112.67 196.06 112.50 196.43
C112.34 196.79 111.99 197.31 111.45 197.97
C110.99 198.55 110.68 199.04 110.50 199.47
C110.33 199.89 110.25 200.27 110.26 200.61
L113.35 200.61
L113.35 199.77
L111.05 199.77
C111.12 199.61 111.20 199.45 111.30 199.29
C111.40 199.13 111.62 198.83 111.96 198.40
C112.50 197.70 112.86 197.15 113.05 196.73
C113.24 196.32 113.34 195.88 113.34 195.43
C113.34 194.92 113.22 194.46 112.97 194.06
C112.73 193.66 112.37 193.46 111.89 193.46
Z
M115.74 193.46
C115.64 193.77 115.47 194.09 115.23 194.41
C114.99 194.74 114.71 195.02 114.39 195.24
L114.39 196.09
C114.58 195.99 114.78 195.83 115.01 195.63
C115.23 195.43 115.41 195.23 115.54 195.03
L115.54 200.61
L116.11 200.61
L116.11 193.46
Z
" fill="black" fill-rule="nonzero" />
<path d="
M124.02 121.96
C123.92 122.27 123.75 122.59 123.51 122.92
C123.26 123.25 122.98 123.52 122.67 123.75
L122.67 124.59
C122.85 124.49 123.06 124.34 123.28 124.14
C123.50 123.93 123.68 123.73 123.81 123.54
L123.81 129.11
L124.39 129.11
L124.39 121.96
Z
M126.41 122.09
L125.96 125.75
L126.50 125.85
C126.59 125.64 126.71 125.47 126.86 125.35
C127.01 125.22 127.17 125.16 127.35 125.16
C127.63 125.16 127.87 125.30 128.06 125.58
C128.25 125.86 128.35 126.26 128.35 126.77
C128.35 127.31 128.25 127.73 128.05 128.05
C127.86 128.36 127.62 128.52 127.35 128.52
C127.13 128.52 126.94 128.40 126.78 128.18
C126.61 127.96 126.51 127.62 126.46 127.17
L125.86 127.25
C125.90 127.87 126.06 128.36 126.33 128.71
C126.61 129.06 126.95 129.23 127.36 129.23
C127.85 129.23 128.23 128.99 128.52 128.49
C128.81 127.99 128.96 127.39 128.96 126.70
C128.96 125.99 128.81 125.43 128.52 125.02
C128.23 124.60 127.89 124.39 127.50 124.39
C127.19 124.39 126.90 124.54 126.62 124.84
L126.87 122.92
L128.73 122.92
L128.73 122.09
Z
" fill="black" fill-rule="nonzero" />
<path d="
M124.02 133.86
C123.92 134.18 123.75 134.49 123.51 134.82
C123.26 135.15 122.98 135.43 122.67 135.65
L122.67 136.50
C122.85 136.39 123.06 136.24 123.28 136.04
C123.50 135.84 123.68 135.64 123.81 135.44
L123.81 141.02
L124.39 141.02
L124.39 133.86
Z
M127.33 133.86
C126.97 133.86 126.66 134.02 126.41 134.33
C126.16 134.64 125.99 135.10 125.92 135.71
L126.49 135.87
C126.53 135.44 126.63 135.11 126.78 134.90
C126.93 134.69 127.12 134.58 127.34 134.58
C127.55 134.58 127.73 134.69 127.88 134.89
C128.03 135.09 128.10 135.36 128.10 135.69
C128.10 136.05 128.01 136.34 127.84 136.56
C127.66 136.78 127.43 136.89 127.15 136.89
L127.06 136.88
L126.99 137.64
C127.15 137.58 127.29 137.55 127.40 137.55
C127.65 137.55 127.87 137.67 128.05 137.93
C128.22 138.18 128.31 138.51 128.31 138.93
C128.31 139.37 128.22 139.73 128.02 140.00
C127.83 140.28 127.60 140.42 127.34 140.42
C126.86 140.42 126.56 139.95 126.44 139.02
L125.86 139.14
C125.90 139.75 126.06 140.24 126.34 140.60
C126.61 140.96 126.95 141.14 127.35 141.14
C127.78 141.14 128.15 140.93 128.46 140.52
C128.77 140.10 128.92 139.57 128.92 138.91
C128.92 138.60 128.88 138.33 128.81 138.08
C128.73 137.83 128.63 137.63 128.51 137.48
C128.39 137.33 128.24 137.22 128.05 137.16
C128.25 137.02 128.41 136.82 128.52 136.57
C128.64 136.32 128.69 136.03 128.69 135.71
C128.69 135.18 128.56 134.74 128.30 134.39
C128.03 134.04 127.71 133.86 127.33 133.86
Z
" fill="black" fill-rule="nonzero" />
<path d="
M127.40 146.50
C127.63 146.50 127.84 146.64 128.02 146.93
C128.20 147.23 128.30 147.63 128.30 148.13
C128.30 148.65 128.21 149.04 128.03 149.32
C127.85 149.60 127.64 149.74 127.39 149.74
C127.13 149.74 126.91 149.60 126.73 149.32
C126.54 149.04 126.45 148.67 126.45 148.21
C126.45 147.69 126.55 147.27 126.74 146.96
C126.93 146.65 127.15 146.50 127.40 146.50
Z
M124.02 145.77
C123.92 146.08 123.75 146.40 123.51 146.73
C123.26 147.06 122.98 147.33 122.67 147.56
L122.67 148.41
C122.85 148.30 123.06 148.15 123.28 147.95
C123.50 147.74 123.68 147.55 123.81 147.35
L123.81 152.92
L124.39 152.92
L124.39 145.77
Z
M127.33 145.77
C126.92 145.77 126.57 145.99 126.29 146.42
C126.00 146.85 125.86 147.43 125.86 148.18
C125.86 148.90 126.00 149.47 126.27 149.89
C126.55 150.30 126.88 150.51 127.26 150.51
C127.47 150.51 127.67 150.43 127.88 150.26
C128.08 150.09 128.24 149.86 128.36 149.57
L128.36 149.75
C128.36 150.30 128.30 150.79 128.19 151.21
C128.09 151.63 127.95 151.92 127.80 152.08
C127.64 152.24 127.47 152.33 127.27 152.33
C126.84 152.33 126.58 151.95 126.50 151.20
L125.94 151.28
C125.99 151.85 126.13 152.29 126.37 152.59
C126.61 152.89 126.91 153.05 127.26 153.05
C127.58 153.05 127.86 152.92 128.11 152.67
C128.36 152.42 128.56 152.03 128.71 151.49
C128.86 150.95 128.93 150.19 128.93 149.21
C128.93 148.33 128.86 147.66 128.73 147.19
C128.59 146.72 128.40 146.37 128.14 146.13
C127.89 145.89 127.62 145.77 127.33 145.77
Z
" fill="black" fill-rule="nonzero" />
<path d="
M124.02 157.74
C123.92 158.05 123.75 158.37 123.51 158.70
C123.26 159.02 122.98 159.30 122.67 159.53
L122.67 160.37
C122.85 160.27 123.06 160.12 123.28 159.91
C123.50 159.71 123.68 159.51 123.81 159.32
L123.81 164.89
L124.39 164.89
L124.39 157.74
Z
M125.90 157.86
L125.90 158.70
L128.18 158.70
C127.89 159.21 127.62 159.82 127.37 160.54
C127.12 161.26 126.92 162.01 126.78 162.81
C126.63 163.60 126.56 164.29 126.55 164.89
L127.14 164.89
C127.19 163.74 127.39 162.57 127.73 161.40
C128.07 160.23 128.47 159.27 128.92 158.54
L128.92 157.86
Z
" fill="black" fill-rule="nonzero" />
<path d="
M123.79 169.50
C123.31 169.50 122.92 169.69 122.62 170.07
C122.34 170.44 122.17 170.98 122.13 171.70
L122.12 171.82
L122.25 171.84
L122.84 171.94
L123.00 171.96
L123.00 171.80
C123.00 171.37 123.08 171.04 123.23 170.82
C123.38 170.61 123.56 170.51 123.77 170.51
C123.77 170.51 123.77 170.51 123.78 170.51
C123.78 170.51 123.78 170.51 123.78 170.51
C123.98 170.51 124.15 170.61 124.29 170.80
C124.44 171.00 124.52 171.27 124.52 171.60
C124.52 171.89 124.44 172.21 124.28 172.56
C124.12 172.91 123.77 173.42 123.25 174.07
C122.78 174.66 122.46 175.17 122.28 175.60
C122.10 176.04 122.01 176.44 122.02 176.80
L122.02 176.94
L125.39 176.94
L125.39 176.80
L125.39 175.96
L125.39 175.81
L123.18 175.81
C123.22 175.73 123.27 175.64 123.32 175.55
C123.42 175.40 123.64 175.11 123.98 174.67
C124.52 173.97 124.89 173.41 125.09 172.98
C125.29 172.55 125.39 172.09 125.39 171.62
C125.39 171.08 125.26 170.60 125.00 170.17
C124.73 169.73 124.32 169.50 123.79 169.50
Z
M127.42 169.50
C126.94 169.50 126.55 169.69 126.25 170.07
C125.97 170.44 125.80 170.98 125.76 171.70
L125.75 171.82
L125.88 171.84
L126.47 171.94
L126.63 171.96
L126.63 171.80
C126.63 171.37 126.71 171.04 126.86 170.82
C127.01 170.61 127.19 170.51 127.40 170.51
C127.40 170.51 127.40 170.51 127.41 170.51
C127.41 170.51 127.41 170.51 127.41 170.51
C127.61 170.51 127.78 170.61 127.92 170.80
C128.07 171.00 128.15 171.27 128.15 171.60
C128.15 171.89 128.07 172.21 127.91 172.56
C127.75 172.91 127.40 173.42 126.88 174.07
C126.41 174.66 126.09 175.17 125.91 175.60
C125.73 176.04 125.64 176.44 125.65 176.80
L125.65 176.94
L129.02 176.94
L129.02 176.80
L129.02 175.96
L129.02 175.81
L126.81 175.81
C126.85 175.73 126.90 175.64 126.95 175.55
C127.05 175.40 127.27 175.11 127.61 174.67
C128.15 173.97 128.52 173.41 128.72 172.98
C128.92 172.55 129.02 172.09 129.02 171.62
C129.02 171.08 128.89 170.60 128.63 170.17
C128.36 169.73 127.95 169.50 127.42 169.50
Z
" fill="white" fill-rule="nonzero" />
<path d="
M139.29 158.54
C139.29 158.54 139.29 158.54 139.30 158.54
C139.30 158.54 139.30 158.54 139.30 158.54
C139.46 158.54 139.60 158.63 139.72 158.80
C139.85 158.99 139.92 159.23 139.92 159.53
C139.92 159.83 139.85 160.06 139.72 160.24
C139.61 160.41 139.47 160.49 139.31 160.49
C139.31 160.49 139.30 160.49 139.30 160.49
C139.30 160.49 139.30 160.49 139.30 160.49
C139.13 160.49 138.99 160.41 138.87 160.24
C138.74 160.06 138.68 159.81 138.68 159.49
C138.68 159.20 138.74 158.97 138.88 158.79
C139.00 158.62 139.13 158.54 139.29 158.54
Z
M139.28 161.49
C139.29 161.49 139.29 161.49 139.29 161.49
C139.29 161.49 139.29 161.49 139.29 161.49
C139.51 161.49 139.69 161.60 139.85 161.83
C140.02 162.07 140.11 162.40 140.11 162.80
C140.11 163.21 140.03 163.53 139.86 163.76
C139.71 163.98 139.52 164.09 139.31 164.09
C139.31 164.09 139.30 164.09 139.30 164.09
C139.30 164.09 139.30 164.09 139.30 164.09
C139.09 164.09 138.90 163.98 138.74 163.75
C138.57 163.51 138.49 163.18 138.49 162.77
C138.49 162.38 138.57 162.07 138.74 161.83
C138.89 161.60 139.07 161.49 139.28 161.49
Z
M135.82 157.54
L135.79 157.64
C135.69 157.93 135.53 158.24 135.30 158.55
C135.06 158.87 134.79 159.13 134.49 159.35
L134.43 159.39
L134.43 159.47
L134.43 160.31
L134.43 160.55
L134.64 160.44
C134.84 160.33 135.05 160.17 135.28 159.96
C135.39 159.86 135.49 159.76 135.58 159.66
L135.58 159.66
L135.58 164.83
L135.58 164.97
L136.44 164.97
L136.44 164.83
L136.44 157.68
L136.44 157.54
Z
M139.29 157.54
C138.86 157.54 138.50 157.73 138.22 158.10
C137.94 158.47 137.81 158.94 137.81 159.51
C137.81 159.89 137.87 160.21 138.00 160.47
C138.09 160.66 138.21 160.82 138.37 160.95
L138.37 160.95
C138.17 161.08 138.00 161.28 137.87 161.53
C137.70 161.86 137.62 162.28 137.62 162.77
C137.62 163.46 137.77 164.01 138.09 164.44
C138.41 164.87 138.82 165.09 139.30 165.09
C139.79 165.09 140.19 164.87 140.51 164.44
C140.82 164.01 140.98 163.46 140.98 162.80
C140.98 162.32 140.90 161.91 140.74 161.58
C140.61 161.32 140.44 161.11 140.22 160.96
L140.22 160.96
C140.38 160.83 140.51 160.67 140.60 160.47
C140.73 160.21 140.79 159.90 140.79 159.54
C140.79 158.96 140.65 158.49 140.38 158.11
C140.09 157.73 139.73 157.54 139.29 157.54
Z
" fill="white" fill-rule="nonzero" />
<path d="
M135.70 169.58
C135.26 169.58 134.91 169.75 134.64 170.10
C134.37 170.44 134.22 170.96 134.18 171.64
L134.77 171.73
C134.77 171.27 134.85 170.92 135.02 170.67
C135.20 170.43 135.41 170.31 135.68 170.31
C135.93 170.31 136.14 170.42 136.31 170.65
C136.48 170.88 136.56 171.17 136.56 171.53
C136.56 171.85 136.48 172.19 136.31 172.55
C136.15 172.92 135.80 173.43 135.26 174.10
C134.80 174.67 134.49 175.17 134.31 175.59
C134.14 176.01 134.06 176.39 134.07 176.73
L137.16 176.73
L137.16 175.89
L134.86 175.89
C134.93 175.73 135.01 175.57 135.11 175.42
C135.21 175.26 135.43 174.96 135.77 174.52
C136.31 173.83 136.67 173.27 136.86 172.86
C137.05 172.44 137.15 172.01 137.15 171.55
C137.15 171.04 137.03 170.59 136.78 170.18
C136.54 169.78 136.18 169.58 135.70 169.58
Z
M139.24 169.58
C138.88 169.58 138.57 169.74 138.32 170.05
C138.06 170.36 137.90 170.82 137.83 171.43
L138.40 171.58
C138.44 171.15 138.54 170.83 138.69 170.62
C138.84 170.41 139.02 170.30 139.24 170.30
C139.46 170.30 139.64 170.40 139.79 170.60
C139.93 170.81 140.01 171.07 140.01 171.41
C140.01 171.77 139.92 172.06 139.74 172.28
C139.57 172.49 139.34 172.60 139.05 172.60
L138.97 172.59
L138.90 173.36
C139.06 173.30 139.19 173.26 139.30 173.26
C139.56 173.26 139.78 173.39 139.95 173.64
C140.13 173.90 140.22 174.23 140.22 174.64
C140.22 175.08 140.12 175.44 139.93 175.72
C139.74 176.00 139.51 176.14 139.25 176.14
C138.76 176.14 138.46 175.67 138.34 174.74
L137.77 174.85
C137.81 175.46 137.96 175.95 138.24 176.31
C138.52 176.68 138.86 176.86 139.26 176.86
C139.69 176.86 140.06 176.65 140.36 176.23
C140.67 175.82 140.83 175.28 140.83 174.63
C140.83 174.32 140.79 174.04 140.71 173.79
C140.64 173.54 140.54 173.34 140.42 173.20
C140.30 173.05 140.14 172.94 139.96 172.88
C140.16 172.73 140.32 172.54 140.43 172.29
C140.54 172.04 140.60 171.75 140.60 171.43
C140.60 170.90 140.47 170.46 140.20 170.11
C139.94 169.76 139.62 169.58 139.24 169.58
Z
" fill="black" fill-rule="nonzero" />
</g>
<g  transform="translate(1.19,228.58)" >
<path d="
M106.49 2.94
C106.33 2.94 106.19 3.00 106.07 3.11
C105.96 3.23 105.90 3.37 105.90 3.53
C105.90 3.69 105.96 3.83 106.08 3.95
C106.19 4.07 106.33 4.12 106.49 4.12
C106.66 4.12 106.80 4.07 106.91 3.95
C107.02 3.83 107.08 3.69 107.08 3.53
C107.08 3.37 107.02 3.23 106.91 3.11
C106.80 3.00 106.66 2.94 106.49 2.94
Z
M111.46 8.04
L111.46 10.07
C110.98 10.46 110.60 10.65 110.30 10.65
C110.08 10.65 109.89 10.56 109.73 10.37
C109.56 10.19 109.48 9.96 109.48 9.68
C109.48 9.46 109.54 9.25 109.67 9.07
C109.81 8.88 110.02 8.70 110.33 8.53
C110.50 8.44 110.88 8.27 111.46 8.04
Z
M99.82 3.77
C100.75 3.77 101.51 4.08 102.10 4.71
C102.69 5.34 102.99 6.20 102.99 7.29
C102.99 8.37 102.69 9.23 102.10 9.86
C101.51 10.49 100.76 10.81 99.86 10.81
C99.53 10.81 99.12 10.75 98.62 10.64
L98.62 3.94
C99.07 3.83 99.47 3.77 99.82 3.77
Z
M96.37 3.33
L96.37 3.54
L96.67 3.54
C96.97 3.54 97.19 3.63 97.34 3.80
C97.45 3.92 97.51 4.23 97.51 4.72
L97.51 9.82
C97.51 10.26 97.46 10.55 97.38 10.68
C97.24 10.89 97.00 11.00 96.67 11.00
L96.37 11.00
L96.37 11.21
L99.90 11.21
C101.43 11.21 102.57 10.80 103.32 9.98
C103.98 9.24 104.32 8.33 104.32 7.23
C104.32 6.41 104.13 5.69 103.76 5.07
C103.38 4.44 102.89 4.00 102.27 3.73
C101.66 3.46 100.76 3.33 99.58 3.33
Z
M106.72 5.73
L105.12 6.38
L105.20 6.59
C105.35 6.53 105.48 6.50 105.59 6.50
C105.69 6.50 105.77 6.53 105.83 6.58
C105.89 6.62 105.93 6.71 105.96 6.83
C105.99 7.00 106.01 7.38 106.01 7.96
L106.01 10.01
C106.01 10.34 105.98 10.56 105.93 10.68
C105.88 10.79 105.81 10.88 105.72 10.93
C105.63 10.98 105.46 11.00 105.20 11.00
L105.20 11.21
L107.78 11.21
L107.78 11.00
C107.53 11.00 107.36 10.98 107.26 10.92
C107.17 10.87 107.10 10.79 107.05 10.68
C107.00 10.56 106.98 10.34 106.98 10.01
L106.98 5.73
Z
M122.04 3.16
C121.44 3.16 120.94 3.36 120.54 3.74
C120.14 4.12 119.89 4.67 119.79 5.39
L120.01 5.39
C120.16 4.95 120.38 4.62 120.69 4.39
C121.00 4.17 121.35 4.05 121.74 4.05
C122.16 4.05 122.53 4.22 122.84 4.54
C123.14 4.86 123.29 5.27 123.29 5.77
C123.29 6.42 123.02 7.15 122.46 7.94
C121.90 8.73 120.94 9.75 119.57 11.00
L119.57 11.21
L124.22 11.21
L124.77 9.70
L124.56 9.70
C124.46 9.87 124.34 10.00 124.20 10.10
C124.07 10.19 123.91 10.26 123.75 10.29
C123.58 10.32 123.28 10.33 122.86 10.33
L120.81 10.33
C121.05 10.12 121.65 9.48 122.61 8.43
C123.26 7.73 123.72 7.06 124.01 6.43
C124.20 6.03 124.29 5.63 124.29 5.23
C124.29 4.68 124.07 4.19 123.65 3.78
C123.22 3.37 122.68 3.16 122.04 3.16
Z
M128.58 3.16
L126.66 4.10
L126.75 4.28
C127.00 4.16 127.20 4.10 127.35 4.10
C127.45 4.10 127.53 4.13 127.60 4.19
C127.68 4.25 127.73 4.34 127.75 4.46
C127.79 4.62 127.81 4.99 127.81 5.57
L127.81 9.82
C127.81 10.30 127.79 10.58 127.75 10.67
C127.70 10.77 127.63 10.85 127.52 10.90
C127.41 10.96 127.17 10.99 126.80 11.00
L126.80 11.21
L129.76 11.21
L129.76 11.00
C129.41 10.99 129.17 10.96 129.06 10.90
C128.94 10.84 128.86 10.76 128.83 10.65
C128.79 10.54 128.77 10.27 128.77 9.82
L128.77 3.16
Z
M110.65 5.73
C110.03 5.73 109.56 5.87 109.21 6.15
C108.87 6.43 108.70 6.73 108.70 7.07
C108.70 7.24 108.75 7.38 108.84 7.48
C108.93 7.58 109.05 7.63 109.19 7.63
C109.34 7.63 109.46 7.58 109.55 7.49
C109.64 7.39 109.69 7.25 109.69 7.07
L109.67 6.74
C109.67 6.56 109.75 6.41 109.89 6.28
C110.04 6.15 110.23 6.08 110.48 6.08
C110.80 6.08 111.04 6.18 111.21 6.38
C111.38 6.58 111.46 6.94 111.46 7.47
L111.46 7.68
C110.55 8.02 109.90 8.30 109.50 8.53
C109.11 8.76 108.83 9.01 108.67 9.28
C108.56 9.47 108.50 9.69 108.50 9.95
C108.50 10.36 108.62 10.69 108.86 10.95
C109.09 11.20 109.40 11.32 109.77 11.32
C110.00 11.32 110.23 11.27 110.44 11.18
C110.57 11.11 110.92 10.87 111.46 10.45
C111.47 10.76 111.53 10.99 111.64 11.12
C111.75 11.25 111.90 11.32 112.09 11.32
C112.49 11.32 112.90 11.03 113.34 10.45
L113.34 10.12
C113.10 10.35 112.95 10.49 112.87 10.54
C112.82 10.57 112.77 10.58 112.70 10.58
C112.65 10.58 112.59 10.57 112.55 10.53
C112.50 10.49 112.47 10.41 112.45 10.30
C112.43 10.18 112.42 9.87 112.42 9.36
L112.42 7.55
C112.42 7.04 112.39 6.70 112.32 6.53
C112.21 6.28 112.04 6.09 111.81 5.97
C111.51 5.81 111.12 5.73 110.65 5.73
Z
M114.85 10.08
C114.67 10.08 114.52 10.15 114.39 10.27
C114.26 10.39 114.20 10.55 114.20 10.73
C114.20 10.91 114.26 11.06 114.39 11.19
C114.52 11.31 114.67 11.38 114.85 11.38
C115.03 11.38 115.18 11.31 115.30 11.19
C115.43 11.06 115.49 10.91 115.49 10.73
C115.49 10.55 115.43 10.40 115.31 10.27
C115.18 10.15 115.03 10.08 114.85 10.08
Z
" fill="black" fill-rule="nonzero" />
</g>
</g>
</svg>
