<?xml version="1.0" encoding="utf-8" standalone="no"?>
<!DOCTYPE svg PUBLIC "-//W3C//DTD SVG 1.0//EN" "http://www.w3.org/TR/SVG/DTD/svg11.dtd" >
<svg version="1.1" baseProfile="full"  width="319.13385" height="338.46454" viewBox="0 0 229.77638 243.69449" preserveAspectRatio="xMidYMid" xmlns="http://www.w3.org/2000/svg" >

<g lengthAdjust="spacingAndGlyphs" xml:space='preserve' >
<g  transform="translate(1.19,1.19)" >
<path d="
M0.0 0.0
L0.0 227.39
L227.39 227.39
L227.39 0.0
Z
" fill="none" fill-rule="nonzero" />
<line x1="6.54" y1="6.54" x2="6.54" y2="220.84" fill="none" stroke="black" stroke-width="0.87px" stroke-linecap="square" />
<line x1="18.45" y1="6.54" x2="18.45" y2="220.84" fill="none" stroke="black" stroke-width="0.25px" stroke-linecap="butt" />
<line x1="30.35" y1="6.54" x2="30.35" y2="220.84" fill="none" stroke="black" stroke-width="0.25px" stroke-linecap="butt" />
<line x1="42.26" y1="6.54" x2="42.26" y2="220.84" fill="none" stroke="black" stroke-width="0.25px" stroke-linecap="butt" />
<line x1="54.17" y1="6.54" x2="54.17" y2="220.84" fill="none" stroke="black" stroke-width="0.25px" stroke-linecap="butt" />
<line x1="66.07" y1="6.54" x2="66.07" y2="220.84" fill="none" stroke="black" stroke-width="0.25px" stroke-linecap="butt" />
<line x1="77.98" y1="6.54" x2="77.98" y2="220.84" fill="none" stroke="black" stroke-width="0.25px" stroke-linecap="butt" />
<line x1="89.88" y1="6.54" x2="89.88" y2="220.84" fill="none" stroke="black" stroke-width="0.25px" stroke-linecap="butt" />
<line x1="101.79" y1="6.54" x2="101.79" y2="220.84" fill="none" stroke="black" stroke-width="0.25px" stroke-linecap="butt" />
<line x1="113.69" y1="6.54" x2="113.69" y2="220.84" fill="none" stroke="black" stroke-width="0.25px" stroke-linecap="butt" />
<line x1="125.60" y1="6.54" x2="125.60" y2="220.84" fill="none" stroke="black" stroke-width="0.25px" stroke-linecap="butt" />
<line x1="137.50" y1="6.54" x2="137.50" y2="220.84" fill="none" stroke="black" stroke-width="0.25px" stroke-linecap="butt" />
<line x1="149.41" y1="6.54" x2="149.41" y2="220.84" fill="none" stroke="black" stroke-width="0.25px" stroke-linecap="butt" />
<line x1="161.31" y1="6.54" x2="161.31" y2="220.84" fill="none" stroke="black" stroke-width="0.25px" stroke-linecap="butt" />
<line x1="173.22" y1="6.54" x2="173.22" y2="220.84" fill="none" stroke="black" stroke-width="0.25px" stroke-linecap="butt" />
<line x1="185.13" y1="6.54" x2="185.13" y2="220.84" fill="none" stroke="black" stroke-width="0.25px" stroke-linecap="butt" />
<line x1="197.03" y1="6.54" x2="197.03" y2="220.84" fill="none" stroke="black" stroke-width="0.25px" stroke-linecap="butt" />
<line x1="208.94" y1="6.54" x2="208.94" y2="220.84" fill="none" stroke="black" stroke-width="0.25px" stroke-linecap="butt" />
<line x1="220.84" y1="6.54" x2="220.84" y2="220.84" fill="none" stroke="black" stroke-width="0.87px" stroke-linecap="square" />
<line x1="6.54" y1="6.54" x2="220.84" y2="6.54" fill="none" stroke="black" stroke-width="0.87px" stroke-linecap="square" />
<line x1="6.54" y1="18.45" x2="220.84" y2="18.45" fill="none" stroke="black" stroke-width="0.25px" stroke-linecap="butt" />
<line x1="6.54" y1="30.35" x2="220.84" y2="30.35" fill="none" stroke="black" stroke-width="0.25px" stroke-linecap="butt" />
<line x1="6.54" y1="42.26" x2="220.84" y2="42.26" fill="none" stroke="black" stroke-width="0.25px" stroke-linecap="butt" />
<line x1="6.54" y1="54.17" x2="220.84" y2="54.17" fill="none" stroke="black" stroke-width="0.25px" stroke-linecap="butt" />
<line x1="6.54" y1="66.07" x2="220.84" y2="66.07" fill="none" stroke="black" stroke-width="0.25px" stroke-linecap="butt" />
<line x1="6.54" y1="77.98" x2="220.84" y2="77.98" fill="none" stroke="black" stroke-width="0.25px" stroke-linecap="butt" />
<line x1="6.54" y1="89.88" x2="220.84" y2="89.88" fill="none" stroke="black" stroke-width="0.25px" stroke-linecap="butt" />
<line x1="6.54" y1="101.79" x2="220.84" y2="101.79" fill="none" stroke="black" stroke-width="0.25px" stroke-linecap="butt" />
<line x1="6.54" y1="113.69" x2="220.84" y2="113.69" fill="none" stroke="black" stroke-width="0.25px" stroke-linecap="butt" />
<line x1="6.54" y1="125.60" x2="220.84" y2="125.60" fill="none" stroke="black" stroke-width="0.25px" stroke-linecap="butt" />
<line x1="6.54" y1="137.50" x2="220.84" y2="137.50" fill="none" stroke="black" stroke-width="0.25px" stroke-linecap="butt" />
<line x1="6.54" y1="149.41" x2="220.84" y2="149.41" fill="none" stroke="black" stroke-width="0.25px" stroke-linecap="butt" />
<line x1="6.54" y1="161.31" x2="220.84" y2="161.31" fill="none" stroke="black" stroke-width="0.25px" stroke-linecap="butt" />
<line x1="6.54" y1="173.22" x2="220.84" y2="173.22" fill="none" stroke="black" stroke-width="0.25px" stroke-linecap="butt" />
<line x1="6.54" y1="185.13" x2="220.84" y2="185.13" fill="none" stroke="black" stroke-width="0.25px" stroke-linecap="butt" />
<line x1="6.54" y1="197.03" x2="220.84" y2="197.03" fill="none" stroke="black" stroke-width="0.25px" stroke-linecap="butt" />
<line x1="6.54" y1="208.94" x2="220.84" y2="208.94" fill="none" stroke="black" stroke-width="0.25px" stroke-linecap="butt" />
<line x1="6.54" y1="220.84" x2="220.84" y2="220.84" fill="none" stroke="black" stroke-width="0.87px" stroke-linecap="square" />
<circle cx="30.35" cy="54.17" r="5.98" fill="black"/>
<circle cx="30.35" cy="77.98" r="5.85" fill="white"/>
<circle cx="30.35" cy="77.98" r="5.85" fill="none" stroke="black" stroke-width="0.25px"/>
<circle cx="30.35" cy="89.88" r="5.85" fill="white"/>
<circle cx="30.35" cy="89.88" r="5.85" fill="none" stroke="black" stroke-width="0.25px"/>
<circle cx="30.35" cy="125.60" r="5.85" fill="white"/>
<circle cx="30.35" cy="125.60" r="5.85" fill="none" stroke="black" stroke-width="0.25px"/>
<circle cx="30.35" cy="161.31" r="5.85" fill="white"/>
<circle cx="30.35" cy="161.31" r="5.85" fill="none" stroke="black" stroke-width="0.25px"/>
<circle cx="30.35" cy="173.22" r="5.85" fill="white"/>
<circle cx="30.35" cy="173.22" r="5.85" fill="none" stroke="black" stroke-width="0.25px"/>
<circle cx="30.35" cy="185.13" r="5.98" fill="black"/>
<circle cx="42.26" cy="30.35" r="5.85" fill="white"/>
<circle cx="42.26" cy="30.35" r="5.85" fill="none" stroke="black" stroke-width="0.25px"/>
<circle cx="42.26" cy="42.26" r="1.27" fill="black"/>
<circle cx="42.26" cy="77.98" r="5.85" fill="white"/>
<circle cx="42.26" cy="77.98" r="5.85" fill="none" stroke="black" stroke-width="0.25px"/>
<circle cx="42.26" cy="89.88" r="5.98" fill="black"/>
<circle cx="42.26" cy="101.79" r="5.85" fill="white"/>
<circle cx="42.26" cy="101.79" r="5.85" fill="none" stroke="black" stroke-width="0.25px"/>
<circle cx="42.26" cy="113.69" r="5.85" fill="white"/>
<circle cx="42.26" cy="113.69" r="5.85" fill="none" stroke="black" stroke-width="0.25px"/>
<circle cx="42.26" cy="149.41" r="5.85" fill="white"/>
<circle cx="42.26" cy="149.41" r="5.85" fill="none" stroke="black" stroke-width="0.25px"/>
<circle cx="42.26" cy="161.31" r="5.98" fill="black"/>
<circle cx="42.26" cy="185.13" r="5.98" fill="black"/>
<circle cx="54.17" cy="66.07" r="5.98" fill="black"/>
<circle cx="54.17" cy="77.98" r="5.98" fill="black"/>
<circle cx="54.17" cy="89.88" r="5.98" fill="black"/>
<circle cx="54.17" cy="101.79" r="5.98" fill="black"/>
<circle cx="54.17" cy="161.31" r="5.98" fill="black"/>
<circle cx="66.07" cy="125.60" r="5.98" fill="black"/>
<circle cx="66.07" cy="197.03" r="5.98" fill="black"/>
<circle cx="77.98" cy="30.35" r="5.85" fill="white"/>
<circle cx="77.98" cy="30.35" r="5.85" fill="none" stroke="black" stroke-width="0.25px"/>
<circle cx="77.98" cy="101.79" r="5.98" fill="black"/>
<circle cx="77.98" cy="113.69" r="5.85" fill="white"/>
<circle cx="77.98" cy="113.69" r="5.85" fill="none" stroke="black" stroke-width="0.25px"/>
<circle cx="77.98" cy="125.60" r="5.85" fill="white"/>
<circle cx="77.98" cy="125.60" r="5.85" fill="none" stroke="black" stroke-width="0.25px"/>
<circle cx="77.98" cy="137.50" r="5.98" fill="black"/>
<circle cx="77.98" cy="149.41" r="5.98" fill="black"/>
<circle cx="89.88" cy="18.45" r="5.85" fill="white"/>
<circle cx="89.88" cy="18.45" r="5.85" fill="none" stroke="black" stroke-width="0.25px"/>
<circle cx="89.88" cy="77.98" r="5.85" fill="white"/>
<circle cx="89.88" cy="77.98" r="5.85" fill="none" stroke="black" stroke-width="0.25px"/>
<circle cx="89.88" cy="101.79" r="5.98" fill="black"/>
<circle cx="89.88" cy="113.69" r="5.98" fill="black"/>
<circle cx="89.88" cy="125.60" r="5.98" fill="black"/>
<circle cx="89.88" cy="137.50" r="5.85" fill="white"/>
<circle cx="89.88" cy="137.50" r="5.85" fill="none" stroke="black" stroke-width="0.25px"/>
<circle cx="89.88" cy="149.41" r="5.85" fill="white"/>
<circle cx="89.88" cy="149.41" r="5.85" fill="none" stroke="black" stroke-width="0.25px"/>
<circle cx="89.88" cy="161.31" r="5.85" fill="white"/>
<circle cx="89.88" cy="161.31" r="5.85" fill="none" stroke="black" stroke-width="0.25px"/>
<circle cx="89.88" cy="185.13" r="5.85" fill="white"/>
<circle cx="89.88" cy="185.13" r="5.85" fill="none" stroke="black" stroke-width="0.25px"/>
<circle cx="101.79" cy="18.45" r="5.98" fill="black"/>
<circle cx="101.79" cy="30.35" r="5.85" fill="white"/>
<circle cx="101.79" cy="30.35" r="5.85" fill="none" stroke="black" stroke-width="0.25px"/>
<circle cx="101.79" cy="42.26" r="5.98" fill="black"/>
<circle cx="101.79" cy="89.88" r="5.85" fill="white"/>
<circle cx="101.79" cy="89.88" r="5.85" fill="none" stroke="black" stroke-width="0.25px"/>
<circle cx="101.79" cy="113.69" r="5.85" fill="white"/>
<circle cx="101.79" cy="113.69" r="5.85" fill="none" stroke="black" stroke-width="0.25px"/>
<circle cx="101.79" cy="125.60" r="5.85" fill="white"/>
<circle cx="101.79" cy="125.60" r="5.85" fill="none" stroke="black" stroke-width="0.25px"/>
<circle cx="101.79" cy="137.50" r="5.98" fill="black"/>
<circle cx="101.79" cy="149.41" r="5.98" fill="black"/>
<circle cx="101.79" cy="185.13" r="5.85" fill="white"/>
<circle cx="101.79" cy="185.13" r="5.85" fill="none" stroke="black" stroke-width="0.25px"/>
<circle cx="101.79" cy="197.03" r="5.98" fill="black"/>
<circle cx="113.69" cy="18.45" r="5.98" fill="black"/>
<circle cx="113.69" cy="30.35" r="5.85" fill="white"/>
<circle cx="113.69" cy="30.35" r="5.85" fill="none" stroke="black" stroke-width="0.25px"/>
<circle cx="113.69" cy="42.26" r="5.85" fill="white"/>
<circle cx="113.69" cy="42.26" r="5.85" fill="none" stroke="black" stroke-width="0.25px"/>
<circle cx="113.69" cy="54.17" r="5.85" fill="white"/>
<circle cx="113.69" cy="54.17" r="5.85" fill="none" stroke="black" stroke-width="0.25px"/>
<circle cx="113.69" cy="77.98" r="5.98" fill="black"/>
<circle cx="113.69" cy="113.69" r="5.85" fill="white"/>
<circle cx="113.69" cy="113.69" r="5.85" fill="none" stroke="black" stroke-width="0.25px"/>
<circle cx="113.69" cy="125.60" r="5.98" fill="black"/>
<circle cx="113.69" cy="137.50" r="5.85" fill="white"/>
<circle cx="113.69" cy="137.50" r="5.85" fill="none" stroke="black" stroke-width="0.25px"/>
<circle cx="113.69" cy="161.31" r="5.98" fill="black"/>
<circle cx="113.69" cy="185.13" r="1.27" fill="black"/>
<circle cx="113.69" cy="208.94" r="5.98" fill="black"/>
<circle cx="125.60" cy="30.35" r="5.98" fill="black"/>
<circle cx="125.60" cy="66.07" r="5.85" fill="white"/>
<circle cx="125.60" cy="66.07" r="5.85" fill="none" stroke="black" stroke-width="0.25px"/>
<circle cx="125.60" cy="113.69" r="5.85" fill="white"/>
<circle cx="125.60" cy="113.69" r="5.85" fill="none" stroke="black" stroke-width="0.25px"/>
<circle cx="125.60" cy="125.60" r="5.98" fill="black"/>
<circle cx="125.60" cy="197.03" r="5.85" fill="white"/>
<circle cx="125.60" cy="197.03" r="5.85" fill="none" stroke="black" stroke-width="0.25px"/>
<circle cx="125.60" cy="208.94" r="5.85" fill="white"/>
<circle cx="125.60" cy="208.94" r="5.85" fill="none" stroke="black" stroke-width="0.25px"/>
<circle cx="137.50" cy="30.35" r="5.98" fill="black"/>
<circle cx="137.50" cy="54.17" r="5.98" fill="black"/>
<circle cx="137.50" cy="77.98" r="5.85" fill="white"/>
<circle cx="137.50" cy="77.98" r="5.85" fill="none" stroke="black" stroke-width="0.25px"/>
<circle cx="137.50" cy="89.88" r="5.85" fill="white"/>
<circle cx="137.50" cy="89.88" r="5.85" fill="none" stroke="black" stroke-width="0.25px"/>
<circle cx="137.50" cy="113.69" r="5.85" fill="white"/>
<circle cx="137.50" cy="113.69" r="5.85" fill="none" stroke="black" stroke-width="0.25px"/>
<circle cx="137.50" cy="125.60" r="5.98" fill="black"/>
<circle cx="137.50" cy="185.13" r="5.85" fill="white"/>
<circle cx="137.50" cy="185.13" r="5.85" fill="none" stroke="black" stroke-width="0.25px"/>
<circle cx="149.41" cy="77.98" r="5.98" fill="black"/>
<circle cx="149.41" cy="89.88" r="5.98" fill="black"/>
<circle cx="149.41" cy="113.69" r="5.85" fill="white"/>
<circle cx="149.41" cy="113.69" r="5.85" fill="none" stroke="black" stroke-width="0.25px"/>
<circle cx="149.41" cy="125.60" r="5.98" fill="black"/>
<circle cx="149.41" cy="149.41" r="5.98" fill="black"/>
<circle cx="149.41" cy="173.22" r="5.85" fill="white"/>
<circle cx="149.41" cy="173.22" r="5.85" fill="none" stroke="black" stroke-width="0.25px"/>
<circle cx="149.41" cy="197.03" r="5.98" fill="black"/>
<circle cx="161.31" cy="113.69" r="5.98" fill="black"/>
<circle cx="173.22" cy="89.88" r="5.98" fill="black"/>
<circle cx="173.22" cy="113.69" r="5.98" fill="black"/>
<circle cx="173.22" cy="185.13" r="5.85" fill="white"/>
<circle cx="173.22" cy="185.13" r="5.85" fill="none" stroke="black" stroke-width="0.25px"/>
<circle cx="185.13" cy="30.35" r="5.98" fill="black"/>
<circle cx="185.13" cy="42.26" r="5.98" fill="black"/>
<circle cx="185.13" cy="113.69" r="1.27" fill="black"/>
<circle cx="185.13" cy="161.31" r="5.85" fill="white"/>
<circle cx="185.13" cy="161.31" r="5.85" fill="none" stroke="black" stroke-width="0.25px"/>
<circle cx="185.13" cy="185.13" r="1.27" fill="black"/>
<circle cx="185.13" cy="197.03" r="5.85" fill="white"/>
<circle cx="185.13" cy="197.03" r="5.85" fill="none" stroke="black" stroke-width="0.25px"/>
<circle cx="197.03" cy="89.88" r="5.98" fill="black"/>
<circle cx="197.03" cy="113.69" r="5.85" fill="white"/>
<circle cx="197.03" cy="113.69" r="5.85" fill="none" stroke="black" stroke-width="0.25px"/>
<circle cx="197.03" cy="125.60" r="5.85" fill="white"/>
<circle cx="197.03" cy="125.60" r="5.85" fill="none" stroke="black" stroke-width="0.25px"/>
<circle cx="197.03" cy="137.50" r="5.85" fill="white"/>
<circle cx="197.03" cy="137.50" r="5.85" fill="none" stroke="black" stroke-width="0.25px"/>
<circle cx="197.03" cy="149.41" r="5.85" fill="white"/>
<circle cx="197.03" cy="149.41" r="5.85" fill="none" stroke="black" stroke-width="0.25px"/>
<circle cx="197.03" cy="173.22" r="5.98" fill="black"/>
<circle cx="208.94" cy="113.69" r="5.98" fill="black"/>
<circle cx="208.94" cy="125.60" r="5.98" fill="black"/>
<circle cx="208.94" cy="137.50" r="5.98" fill="black"/>
<circle cx="208.94" cy="149.41" r="5.85" fill="white"/>
<circle cx="208.94" cy="149.41" r="5.85" fill="none" stroke="black" stroke-width="0.25px"/>
<path d="
M79.92 98.01
L79.89 98.11
C79.80 98.40 79.63 98.71 79.40 99.02
C79.17 99.34 78.90 99.60 78.59 99.82
L78.53 99.86
L78.53 99.94
L78.53 100.78
L78.53 101.02
L78.74 100.91
C78.94 100.80 79.15 100.64 79.39 100.43
C79.49 100.33 79.59 100.23 79.68 100.13
L79.68 100.13
L79.68 105.30
L79.68 105.44
L80.54 105.44
L80.54 105.30
L80.54 98.15
L80.54 98.01
Z
M76.08 98.01
C75.67 98.01 75.33 98.18 75.05 98.53
C74.78 98.86 74.60 99.34 74.53 99.98
L74.51 100.10
L74.63 100.13
L75.20 100.29
L75.36 100.33
L75.38 100.16
C75.42 99.76 75.51 99.46 75.64 99.27
C75.77 99.10 75.91 99.01 76.08 99.01
C76.09 99.01 76.09 99.01 76.09 99.01
C76.09 99.01 76.09 99.01 76.09 99.01
C76.25 99.01 76.40 99.09 76.51 99.25
C76.64 99.43 76.71 99.67 76.71 99.97
C76.71 100.30 76.63 100.56 76.47 100.76
C76.33 100.94 76.14 101.03 75.90 101.03
L75.90 101.03
L75.82 101.02
L75.68 101.00
L75.67 101.15
L75.60 101.92
L75.58 102.15
L75.79 102.06
C75.94 102.00 76.05 101.97 76.15 101.97
C76.15 101.97 76.15 101.97 76.15 101.97
C76.15 101.97 76.15 101.97 76.15 101.97
C76.36 101.97 76.53 102.08 76.68 102.29
C76.84 102.52 76.92 102.83 76.92 103.21
C76.92 103.62 76.83 103.95 76.65 104.21
C76.49 104.44 76.31 104.56 76.09 104.56
C76.09 104.56 76.09 104.56 76.09 104.56
C76.09 104.56 76.09 104.56 76.09 104.56
C75.90 104.56 75.74 104.47 75.62 104.28
C75.48 104.06 75.38 103.73 75.33 103.28
L75.31 103.13
L75.16 103.16
L74.58 103.28
L74.46 103.31
L74.47 103.43
C74.51 104.07 74.68 104.58 74.97 104.97
C75.28 105.37 75.65 105.57 76.10 105.57
C76.58 105.57 76.98 105.34 77.32 104.89
C77.65 104.44 77.81 103.88 77.81 103.20
C77.81 102.87 77.77 102.58 77.69 102.32
C77.61 102.05 77.50 101.84 77.37 101.67
C77.28 101.56 77.18 101.48 77.06 101.41
L77.06 101.41
C77.20 101.27 77.31 101.11 77.40 100.91
C77.52 100.64 77.58 100.34 77.58 99.99
C77.58 99.43 77.44 98.96 77.16 98.59
C76.86 98.20 76.50 98.01 76.08 98.01
Z
" fill="white" fill-rule="nonzero" />
<path d="
M78.17 145.73
L78.13 145.82
C78.02 146.12 77.82 146.42 77.53 146.73
C77.24 147.04 76.91 147.30 76.53 147.52
L76.46 147.56
L76.46 147.64
L76.46 148.48
L76.46 148.70
L76.66 148.61
C76.90 148.50 77.16 148.35 77.44 148.14
C77.60 148.02 77.75 147.90 77.87 147.79
L77.87 147.79
L77.87 152.94
L77.87 153.08
L78.87 153.08
L78.87 152.94
L78.87 145.88
L78.87 145.73
Z
" fill="white" fill-rule="nonzero" />
<path d="
M91.67 15.53
C91.88 15.53 92.06 15.64 92.21 15.85
C92.36 16.06 92.44 16.33 92.44 16.67
C92.44 16.99 92.37 17.26 92.22 17.46
C92.07 17.66 91.89 17.77 91.68 17.77
C91.47 17.77 91.28 17.66 91.14 17.46
C90.99 17.25 90.92 16.97 90.92 16.62
C90.92 16.31 90.99 16.05 91.14 15.84
C91.29 15.63 91.47 15.53 91.67 15.53
Z
M91.67 18.48
C91.93 18.48 92.16 18.61 92.35 18.88
C92.54 19.15 92.63 19.50 92.63 19.94
C92.63 20.37 92.54 20.72 92.35 20.98
C92.17 21.24 91.95 21.37 91.68 21.37
C91.42 21.37 91.19 21.23 91.01 20.97
C90.82 20.70 90.73 20.35 90.73 19.91
C90.73 19.49 90.82 19.14 91.00 18.88
C91.18 18.61 91.40 18.48 91.67 18.48
Z
M88.08 14.81
C87.64 14.81 87.29 14.98 87.02 15.33
C86.75 15.67 86.60 16.19 86.55 16.87
L87.15 16.96
C87.15 16.50 87.23 16.15 87.40 15.91
C87.57 15.66 87.79 15.54 88.06 15.54
C88.31 15.54 88.52 15.65 88.69 15.88
C88.86 16.11 88.94 16.40 88.94 16.77
C88.94 17.08 88.86 17.42 88.69 17.78
C88.53 18.15 88.18 18.66 87.64 19.33
C87.18 19.90 86.87 20.40 86.69 20.82
C86.52 21.24 86.44 21.62 86.45 21.96
L89.54 21.96
L89.54 21.12
L87.24 21.12
C87.30 20.96 87.39 20.81 87.49 20.65
C87.59 20.49 87.81 20.19 88.15 19.75
C88.68 19.06 89.05 18.51 89.24 18.09
C89.43 17.67 89.53 17.24 89.53 16.78
C89.53 16.27 89.41 15.82 89.16 15.41
C88.92 15.01 88.56 14.81 88.08 14.81
Z
M91.67 14.81
C91.28 14.81 90.96 14.98 90.71 15.32
C90.45 15.66 90.32 16.10 90.32 16.64
C90.32 17.00 90.38 17.30 90.50 17.54
C90.62 17.79 90.79 17.97 91.02 18.10
C90.75 18.21 90.53 18.42 90.37 18.73
C90.22 19.04 90.14 19.43 90.14 19.91
C90.14 20.56 90.29 21.09 90.58 21.49
C90.87 21.89 91.24 22.09 91.68 22.09
C92.12 22.09 92.48 21.89 92.78 21.49
C93.07 21.09 93.22 20.57 93.22 19.93
C93.22 19.47 93.14 19.09 92.99 18.78
C92.84 18.47 92.62 18.24 92.34 18.10
C92.57 17.97 92.74 17.78 92.85 17.54
C92.97 17.31 93.03 17.02 93.03 16.67
C93.03 16.13 92.90 15.68 92.64 15.33
C92.38 14.99 92.06 14.81 91.67 14.81
Z
" fill="black" fill-rule="nonzero" />
<path d="
M91.64 75.06
C91.92 75.06 92.15 75.26 92.33 75.65
C92.51 76.04 92.60 76.82 92.60 77.98
C92.60 79.12 92.51 79.90 92.33 80.29
C92.16 80.69 91.94 80.89 91.68 80.89
C91.40 80.89 91.17 80.69 91.00 80.30
C90.82 79.91 90.73 79.13 90.73 77.98
C90.73 76.83 90.82 76.06 90.99 75.66
C91.17 75.26 91.38 75.06 91.64 75.06
Z
M91.67 74.34
C91.17 74.34 90.79 74.64 90.53 75.26
C90.27 75.88 90.14 76.78 90.14 77.98
C90.14 79.31 90.28 80.25 90.57 80.79
C90.85 81.34 91.22 81.61 91.66 81.61
C92.17 81.61 92.55 81.30 92.80 80.68
C93.06 80.07 93.19 79.16 93.19 77.98
C93.19 76.65 93.03 75.69 92.72 75.09
C92.47 74.59 92.12 74.34 91.67 74.34
Z
M87.98 74.34
C87.62 74.34 87.32 74.49 87.06 74.80
C86.81 75.11 86.65 75.57 86.57 76.18
L87.15 76.34
C87.19 75.91 87.28 75.59 87.44 75.37
C87.59 75.16 87.77 75.06 87.99 75.06
C88.21 75.06 88.39 75.16 88.53 75.36
C88.68 75.56 88.75 75.83 88.75 76.16
C88.75 76.53 88.67 76.82 88.49 77.03
C88.31 77.25 88.08 77.36 87.80 77.36
L87.71 77.35
L87.65 78.12
C87.81 78.05 87.94 78.02 88.05 78.02
C88.31 78.02 88.52 78.15 88.70 78.40
C88.88 78.65 88.96 78.99 88.96 79.40
C88.96 79.84 88.87 80.20 88.68 80.48
C88.49 80.75 88.26 80.89 88.00 80.89
C87.51 80.89 87.21 80.42 87.09 79.49
L86.52 79.61
C86.55 80.22 86.71 80.71 86.99 81.07
C87.27 81.43 87.61 81.62 88.00 81.62
C88.43 81.62 88.80 81.41 89.11 80.99
C89.42 80.57 89.57 80.04 89.57 79.39
C89.57 79.08 89.54 78.80 89.46 78.55
C89.39 78.30 89.29 78.10 89.17 77.95
C89.04 77.80 88.89 77.70 88.70 77.63
C88.91 77.49 89.06 77.29 89.18 77.04
C89.29 76.79 89.35 76.51 89.35 76.18
C89.35 75.65 89.21 75.21 88.95 74.86
C88.68 74.51 88.36 74.34 87.98 74.34
Z
" fill="black" fill-rule="nonzero" />
<path d="
M89.86 99.05
C89.86 99.05 89.86 99.05 89.86 99.05
C89.86 99.05 89.86 99.05 89.87 99.05
C90.11 99.05 90.33 99.18 90.52 99.43
C90.73 99.69 90.83 100.06 90.83 100.53
C90.83 101.00 90.73 101.36 90.53 101.61
C90.35 101.85 90.12 101.97 89.85 101.97
C89.85 101.97 89.85 101.97 89.85 101.97
C89.85 101.97 89.85 101.97 89.85 101.97
C89.57 101.97 89.34 101.85 89.14 101.61
C88.94 101.36 88.83 101.03 88.83 100.60
C88.83 100.12 88.94 99.74 89.16 99.46
C89.37 99.19 89.60 99.05 89.86 99.05
Z
M89.78 98.05
C89.23 98.05 88.77 98.28 88.38 98.74
C88.01 99.19 87.82 99.80 87.82 100.57
C87.82 101.32 88.00 101.91 88.36 102.35
C88.73 102.79 89.18 103.02 89.69 103.02
C89.98 103.02 90.26 102.92 90.53 102.74
C90.67 102.65 90.79 102.54 90.90 102.42
L90.90 102.42
C90.88 102.83 90.82 103.20 90.71 103.52
C90.59 103.91 90.44 104.17 90.26 104.32
C90.10 104.46 89.91 104.53 89.71 104.53
C89.71 104.53 89.71 104.53 89.71 104.53
C89.71 104.53 89.71 104.53 89.71 104.53
C89.48 104.53 89.31 104.45 89.18 104.30
C89.04 104.13 88.94 103.88 88.89 103.54
L88.87 103.40
L88.73 103.42
L88.05 103.49
L87.91 103.51
L87.93 103.65
C87.99 104.25 88.18 104.71 88.49 105.03
C88.82 105.36 89.22 105.52 89.69 105.52
C90.11 105.52 90.49 105.39 90.83 105.12
C91.17 104.86 91.43 104.45 91.62 103.88
C91.81 103.34 91.90 102.57 91.90 101.59
C91.90 100.70 91.81 100.02 91.64 99.55
C91.46 99.06 91.20 98.69 90.87 98.44
C90.53 98.18 90.17 98.05 89.78 98.05
Z
" fill="white" fill-rule="nonzero" />
<path d="
M89.78 109.96
C89.30 109.96 88.89 110.12 88.54 110.46
C88.21 110.79 87.99 111.27 87.90 111.90
L87.88 112.03
L88.01 112.06
L88.71 112.21
L88.87 112.25
L88.89 112.09
C88.93 111.70 89.04 111.40 89.21 111.22
C89.37 111.04 89.56 110.95 89.79 110.95
C89.79 110.95 89.79 110.95 89.79 110.95
C89.79 110.95 89.79 110.95 89.79 110.95
C90.01 110.95 90.20 111.03 90.35 111.20
C90.51 111.38 90.59 111.61 90.59 111.90
C90.59 112.22 90.50 112.47 90.31 112.66
C90.12 112.85 89.87 112.94 89.56 112.94
L89.56 112.94
L89.46 112.93
L89.32 112.92
L89.30 113.06
L89.22 113.82
L89.20 114.03
L89.41 113.97
C89.59 113.91 89.74 113.88 89.86 113.88
C89.86 113.88 89.86 113.88 89.86 113.88
C89.86 113.88 89.86 113.88 89.87 113.88
C90.14 113.88 90.37 113.99 90.56 114.20
C90.75 114.43 90.85 114.72 90.85 115.10
C90.85 115.50 90.74 115.82 90.53 116.07
C90.32 116.31 90.08 116.43 89.80 116.43
C89.80 116.43 89.80 116.43 89.80 116.43
C89.79 116.43 89.79 116.43 89.79 116.43
C89.54 116.43 89.33 116.33 89.18 116.14
C89.01 115.93 88.89 115.60 88.82 115.17
L88.79 115.03
L88.65 115.05
L87.94 115.17
L87.82 115.19
L87.83 115.32
C87.88 115.95 88.08 116.47 88.45 116.85
C88.82 117.24 89.27 117.43 89.81 117.43
C90.38 117.43 90.87 117.21 91.28 116.77
C91.68 116.33 91.89 115.77 91.89 115.08
C91.89 114.76 91.84 114.47 91.74 114.21
C91.64 113.94 91.50 113.73 91.34 113.57
C91.23 113.47 91.11 113.38 90.98 113.31
L90.98 113.31
C91.14 113.18 91.27 113.03 91.38 112.84
C91.53 112.57 91.60 112.27 91.60 111.92
C91.60 111.36 91.43 110.89 91.07 110.52
C90.72 110.14 90.29 109.96 89.78 109.96
Z
" fill="white" fill-rule="nonzero" />
<path d="
M89.89 160.99
C90.21 160.99 90.47 161.12 90.69 161.40
C90.91 161.67 91.01 162.06 91.01 162.56
C91.01 163.07 90.91 163.47 90.69 163.76
C90.47 164.05 90.22 164.20 89.94 164.20
C89.62 164.20 89.34 164.04 89.10 163.73
C88.86 163.43 88.74 163.02 88.74 162.51
C88.74 162.04 88.86 161.67 89.09 161.40
C89.32 161.12 89.58 160.99 89.89 160.99
Z
M90.00 157.72
C89.39 157.72 88.90 158.01 88.51 158.59
C88.12 159.17 87.93 160.13 87.93 161.49
C87.93 162.72 88.12 163.60 88.49 164.12
C88.87 164.64 89.35 164.91 89.93 164.91
C90.26 164.91 90.55 164.82 90.82 164.63
C91.09 164.45 91.31 164.17 91.48 163.79
C91.65 163.40 91.74 162.98 91.74 162.51
C91.74 161.81 91.57 161.26 91.23 160.84
C90.89 160.43 90.49 160.22 90.03 160.22
C89.76 160.22 89.49 160.30 89.25 160.46
C89.00 160.62 88.80 160.85 88.63 161.16
C88.64 160.29 88.75 159.64 88.96 159.20
C89.21 158.69 89.54 158.43 89.95 158.43
C90.22 158.43 90.45 158.54 90.64 158.77
C90.77 158.92 90.87 159.18 90.93 159.54
L91.64 159.47
C91.57 158.90 91.39 158.47 91.10 158.17
C90.80 157.87 90.44 157.72 90.00 157.72
Z
" fill="black" fill-rule="nonzero" />
<path d="
M103.00 17.33
L103.00 17.33
L103.00 17.33
C103.00 17.33 103.00 17.33 103.00 17.33
Z
M99.98 14.67
C99.50 14.67 99.11 14.86 98.81 15.24
C98.53 15.61 98.36 16.15 98.32 16.86
L98.31 16.99
L98.44 17.01
L99.03 17.10
L99.19 17.13
L99.19 16.96
C99.19 16.53 99.27 16.21 99.42 15.99
C99.57 15.78 99.74 15.68 99.96 15.68
C99.96 15.68 99.96 15.68 99.96 15.68
C99.97 15.68 99.97 15.68 99.97 15.68
C100.17 15.68 100.34 15.77 100.48 15.96
C100.63 16.17 100.71 16.43 100.71 16.77
C100.71 17.06 100.63 17.38 100.47 17.72
C100.31 18.08 99.96 18.58 99.43 19.24
C98.97 19.83 98.64 20.33 98.47 20.77
C98.29 21.21 98.20 21.61 98.21 21.97
L98.21 22.11
L101.58 22.11
L101.58 21.96
L101.58 21.12
L101.58 20.98
L99.37 20.98
C99.41 20.90 99.46 20.81 99.51 20.72
C99.61 20.57 99.83 20.27 100.17 19.84
C100.71 19.14 101.08 18.57 101.27 18.15
C101.48 17.71 101.58 17.26 101.58 16.78
C101.58 16.25 101.45 15.77 101.19 15.34
C100.91 14.90 100.51 14.67 99.98 14.67
Z
M102.48 14.80
L102.46 14.92
L102.01 18.58
L101.99 18.71
L102.12 18.74
L102.66 18.84
L102.78 18.87
L102.82 18.76
C102.90 18.56 103.00 18.41 103.14 18.31
C103.26 18.21 103.39 18.16 103.53 18.16
C103.54 18.16 103.54 18.16 103.54 18.16
C103.54 18.16 103.54 18.16 103.54 18.16
C103.78 18.16 103.98 18.27 104.14 18.51
C104.31 18.77 104.40 19.14 104.40 19.62
C104.40 20.13 104.31 20.53 104.12 20.82
C103.96 21.09 103.76 21.22 103.54 21.22
C103.54 21.22 103.54 21.22 103.54 21.22
C103.54 21.22 103.54 21.22 103.54 21.22
C103.37 21.22 103.22 21.13 103.08 20.95
C102.93 20.75 102.83 20.43 102.79 20.01
L102.78 19.86
L102.63 19.88
L102.03 19.96
L101.90 19.97
L101.91 20.11
C101.95 20.76 102.12 21.27 102.41 21.65
C102.72 22.03 103.10 22.23 103.55 22.23
C104.09 22.23 104.52 21.95 104.83 21.41
C105.14 20.89 105.29 20.27 105.29 19.55
C105.29 18.81 105.13 18.23 104.83 17.78
C104.51 17.33 104.13 17.10 103.69 17.10
C103.45 17.10 103.22 17.18 103.00 17.33
L103.00 17.33
L103.19 15.92
L105.07 15.92
L105.07 15.77
L105.07 14.94
L105.07 14.80
Z
" fill="white" fill-rule="nonzero" />
<path d="
M103.61 30.02
C103.86 30.02 104.08 30.16 104.26 30.44
C104.43 30.72 104.52 31.11 104.52 31.61
C104.52 32.13 104.43 32.53 104.25 32.83
C104.08 33.12 103.87 33.27 103.65 33.27
C103.39 33.27 103.17 33.12 102.97 32.80
C102.78 32.49 102.68 32.08 102.68 31.56
C102.68 31.09 102.77 30.71 102.96 30.44
C103.14 30.16 103.36 30.02 103.61 30.02
Z
M99.98 26.72
C99.55 26.72 99.19 26.89 98.92 27.23
C98.66 27.58 98.50 28.09 98.46 28.78
L99.05 28.87
C99.05 28.41 99.14 28.06 99.31 27.81
C99.48 27.56 99.70 27.44 99.96 27.44
C100.21 27.44 100.42 27.56 100.59 27.78
C100.76 28.01 100.85 28.31 100.85 28.67
C100.85 28.98 100.76 29.32 100.60 29.69
C100.43 30.05 100.08 30.57 99.54 31.24
C99.09 31.81 98.77 32.31 98.60 32.73
C98.43 33.15 98.34 33.53 98.35 33.87
L101.44 33.87
L101.44 33.03
L99.15 33.03
C99.21 32.87 99.29 32.71 99.39 32.55
C99.49 32.39 99.71 32.10 100.05 31.66
C100.59 30.97 100.95 30.41 101.15 29.99
C101.34 29.58 101.43 29.14 101.43 28.69
C101.43 28.18 101.31 27.72 101.07 27.32
C100.82 26.92 100.46 26.72 99.98 26.72
Z
M103.70 26.72
C103.21 26.72 102.80 27.01 102.49 27.59
C102.18 28.18 102.02 29.16 102.02 30.54
C102.02 31.78 102.17 32.66 102.48 33.19
C102.78 33.72 103.17 33.99 103.64 33.99
C103.91 33.99 104.15 33.90 104.36 33.71
C104.58 33.53 104.76 33.24 104.90 32.86
C105.04 32.47 105.11 32.04 105.11 31.56
C105.11 30.86 104.97 30.30 104.69 29.88
C104.42 29.46 104.09 29.25 103.72 29.25
C103.50 29.25 103.29 29.33 103.09 29.49
C102.89 29.65 102.72 29.89 102.59 30.20
C102.59 29.32 102.68 28.66 102.86 28.21
C103.06 27.70 103.33 27.44 103.66 27.44
C103.88 27.44 104.06 27.55 104.21 27.78
C104.32 27.93 104.40 28.19 104.45 28.56
L105.02 28.49
C104.97 27.91 104.83 27.47 104.59 27.17
C104.35 26.87 104.05 26.72 103.70 26.72
Z
" fill="black" fill-rule="nonzero" />
<path d="
M99.98 38.48
C99.50 38.48 99.11 38.67 98.81 39.05
C98.53 39.42 98.36 39.96 98.32 40.67
L98.31 40.80
L98.44 40.82
L99.03 40.91
L99.19 40.94
L99.19 40.77
C99.19 40.34 99.27 40.02 99.42 39.79
C99.57 39.59 99.74 39.49 99.96 39.49
C99.96 39.49 99.96 39.49 99.96 39.49
C99.97 39.49 99.97 39.49 99.97 39.49
C100.17 39.49 100.34 39.58 100.48 39.77
C100.63 39.97 100.71 40.24 100.71 40.57
C100.71 40.87 100.63 41.19 100.47 41.53
C100.31 41.89 99.96 42.39 99.43 43.05
C98.97 43.63 98.64 44.14 98.47 44.58
C98.29 45.02 98.20 45.42 98.21 45.78
L98.21 45.91
L101.58 45.91
L101.58 45.77
L101.58 44.93
L101.58 44.79
L99.37 44.79
C99.41 44.70 99.46 44.62 99.51 44.53
C99.61 44.38 99.83 44.08 100.17 43.65
C100.71 42.95 101.08 42.38 101.27 41.96
C101.48 41.52 101.58 41.07 101.58 40.59
C101.58 40.05 101.45 39.57 101.19 39.15
C100.91 38.70 100.51 38.48 99.98 38.48
Z
M103.52 38.48
C103.12 38.48 102.77 38.65 102.49 39.00
C102.22 39.33 102.04 39.81 101.97 40.45
L101.95 40.57
L102.07 40.60
L102.64 40.76
L102.81 40.80
L102.82 40.64
C102.86 40.23 102.95 39.93 103.09 39.74
C103.21 39.57 103.35 39.48 103.52 39.48
C103.53 39.48 103.53 39.48 103.53 39.48
C103.53 39.48 103.53 39.48 103.53 39.48
C103.70 39.48 103.84 39.56 103.95 39.73
C104.08 39.90 104.15 40.14 104.15 40.45
C104.15 40.78 104.07 41.04 103.92 41.23
C103.77 41.41 103.58 41.50 103.35 41.50
L103.35 41.50
L103.26 41.49
L103.12 41.48
L103.11 41.62
L103.04 42.39
L103.02 42.62
L103.02 42.62
L103.24 42.53
C103.38 42.47 103.50 42.45 103.59 42.45
C103.59 42.45 103.59 42.45 103.59 42.45
C103.59 42.45 103.59 42.45 103.59 42.45
C103.80 42.45 103.97 42.55 104.12 42.76
C104.28 42.99 104.36 43.30 104.36 43.68
C104.36 44.09 104.27 44.43 104.10 44.68
C103.93 44.91 103.75 45.03 103.54 45.03
C103.53 45.03 103.53 45.03 103.53 45.03
C103.53 45.03 103.53 45.03 103.53 45.03
C103.34 45.03 103.18 44.94 103.06 44.75
C102.92 44.53 102.82 44.20 102.77 43.76
L102.75 43.61
L102.60 43.64
L102.02 43.75
L101.90 43.78
L101.91 43.90
C101.95 44.54 102.12 45.05 102.41 45.44
C102.72 45.84 103.09 46.04 103.54 46.04
C104.02 46.04 104.42 45.81 104.76 45.36
C105.09 44.92 105.25 44.35 105.25 43.67
C105.25 43.35 105.21 43.05 105.13 42.79
C105.05 42.52 104.95 42.31 104.81 42.15
C104.72 42.04 104.62 41.95 104.50 41.88
L104.50 41.88
C104.64 41.74 104.75 41.58 104.84 41.39
C104.96 41.12 105.02 40.81 105.02 40.47
C105.02 39.90 104.88 39.44 104.60 39.06
C104.30 38.67 103.95 38.48 103.52 38.48
Z
" fill="white" fill-rule="nonzero" />
<path d="
M103.61 86.24
C103.18 86.24 102.82 86.42 102.55 86.76
C102.29 87.11 102.13 87.62 102.09 88.30
L102.68 88.40
C102.68 87.94 102.77 87.58 102.94 87.34
C103.11 87.09 103.33 86.97 103.59 86.97
C103.84 86.97 104.05 87.08 104.22 87.31
C104.39 87.54 104.48 87.83 104.48 88.20
C104.48 88.51 104.39 88.85 104.23 89.21
C104.06 89.58 103.71 90.09 103.17 90.76
C102.72 91.33 102.40 91.83 102.23 92.25
C102.06 92.67 101.97 93.05 101.98 93.39
L105.07 93.39
L105.07 92.55
L102.78 92.55
C102.84 92.40 102.92 92.24 103.02 92.08
C103.12 91.92 103.34 91.62 103.68 91.18
C104.22 90.49 104.58 89.94 104.78 89.52
C104.97 89.10 105.06 88.67 105.06 88.22
C105.06 87.70 104.94 87.25 104.70 86.85
C104.45 86.44 104.09 86.24 103.61 86.24
Z
M99.89 86.24
C99.53 86.24 99.22 86.40 98.97 86.71
C98.72 87.02 98.55 87.48 98.48 88.09
L99.05 88.24
C99.09 87.81 99.19 87.49 99.34 87.28
C99.49 87.07 99.68 86.96 99.90 86.96
C100.11 86.96 100.29 87.06 100.44 87.27
C100.59 87.47 100.66 87.74 100.66 88.07
C100.66 88.43 100.57 88.72 100.40 88.94
C100.22 89.16 99.99 89.26 99.71 89.26
L99.62 89.25
L99.55 90.02
C99.71 89.96 99.85 89.93 99.96 89.93
C100.21 89.93 100.43 90.05 100.61 90.30
C100.78 90.56 100.87 90.89 100.87 91.31
C100.87 91.75 100.77 92.10 100.58 92.38
C100.39 92.66 100.16 92.80 99.90 92.80
C99.42 92.80 99.12 92.33 99.00 91.40
L98.42 91.51
C98.46 92.13 98.62 92.61 98.90 92.98
C99.17 93.34 99.51 93.52 99.91 93.52
C100.34 93.52 100.71 93.31 101.02 92.90
C101.33 92.48 101.48 91.94 101.48 91.29
C101.48 90.98 101.44 90.70 101.37 90.45
C101.29 90.21 101.19 90.01 101.07 89.86
C100.95 89.71 100.80 89.60 100.61 89.54
C100.81 89.39 100.97 89.20 101.08 88.95
C101.19 88.70 101.25 88.41 101.25 88.09
C101.25 87.56 101.12 87.12 100.85 86.77
C100.59 86.42 100.27 86.24 99.89 86.24
Z
" fill="black" fill-rule="nonzero" />
<path d="
M101.76 110.81
C102.01 110.81 102.24 110.92 102.42 111.12
C102.61 111.33 102.70 111.60 102.70 111.93
C102.70 112.25 102.61 112.51 102.43 112.72
C102.25 112.92 102.03 113.02 101.77 113.02
C101.50 113.02 101.28 112.92 101.10 112.71
C100.91 112.51 100.82 112.23 100.82 111.89
C100.82 111.58 100.91 111.32 101.10 111.12
C101.28 110.91 101.50 110.81 101.76 110.81
Z
M101.75 113.72
C102.08 113.72 102.36 113.86 102.59 114.12
C102.82 114.38 102.94 114.73 102.94 115.16
C102.94 115.59 102.83 115.94 102.60 116.19
C102.37 116.45 102.09 116.57 101.77 116.57
C101.45 116.57 101.17 116.44 100.94 116.18
C100.70 115.91 100.59 115.57 100.59 115.13
C100.59 114.72 100.70 114.38 100.93 114.12
C101.15 113.86 101.43 113.72 101.75 113.72
Z
M101.75 110.10
C101.28 110.10 100.88 110.27 100.57 110.60
C100.25 110.94 100.09 111.38 100.09 111.91
C100.09 112.26 100.17 112.56 100.31 112.80
C100.46 113.04 100.67 113.22 100.96 113.35
C100.61 113.46 100.35 113.67 100.15 113.97
C99.96 114.28 99.86 114.66 99.86 115.13
C99.86 115.78 100.04 116.30 100.41 116.69
C100.77 117.09 101.22 117.29 101.77 117.29
C102.31 117.29 102.76 117.09 103.12 116.69
C103.48 116.30 103.66 115.79 103.66 115.16
C103.66 114.70 103.57 114.32 103.38 114.02
C103.20 113.71 102.93 113.49 102.58 113.35
C102.86 113.22 103.08 113.04 103.22 112.80
C103.36 112.56 103.43 112.28 103.43 111.94
C103.43 111.40 103.27 110.96 102.95 110.61
C102.63 110.27 102.23 110.10 101.75 110.10
Z
" fill="black" fill-rule="nonzero" />
<path d="
M101.80 122.07
C101.26 122.07 100.83 122.24 100.49 122.58
C100.16 122.92 99.97 123.43 99.92 124.10
L100.65 124.19
C100.65 123.74 100.76 123.39 100.97 123.15
C101.18 122.90 101.45 122.78 101.78 122.78
C102.08 122.78 102.34 122.89 102.55 123.12
C102.76 123.34 102.87 123.64 102.87 124.00
C102.87 124.31 102.76 124.64 102.56 125.00
C102.36 125.36 101.92 125.87 101.26 126.53
C100.69 127.10 100.30 127.59 100.09 128.00
C99.88 128.42 99.78 128.79 99.79 129.13
L103.60 129.13
L103.60 128.30
L100.77 128.30
C100.85 128.14 100.95 127.99 101.07 127.83
C101.19 127.67 101.47 127.38 101.89 126.95
C102.55 126.26 103.00 125.71 103.24 125.30
C103.47 124.89 103.59 124.46 103.59 124.01
C103.59 123.51 103.44 123.06 103.14 122.66
C102.84 122.26 102.39 122.07 101.80 122.07
Z
" fill="black" fill-rule="nonzero" />
<path d="
M101.00 148.28
L101.00 148.28
L101.00 148.28
C101.00 148.28 101.00 148.28 101.00 148.28
Z
M100.43 145.74
L100.41 145.86
L99.85 149.47
L99.83 149.61
L99.97 149.63
L100.64 149.74
L100.74 149.75
L100.79 149.66
C100.88 149.47 101.01 149.32 101.18 149.22
C101.34 149.11 101.52 149.06 101.70 149.06
C101.71 149.06 101.71 149.06 101.71 149.06
C101.71 149.06 101.71 149.06 101.71 149.06
C102.02 149.06 102.28 149.18 102.48 149.42
C102.70 149.67 102.80 150.03 102.80 150.50
C102.80 151.00 102.69 151.40 102.47 151.68
C102.25 151.95 102.00 152.09 101.71 152.09
C101.71 152.09 101.71 152.09 101.71 152.09
C101.71 152.09 101.71 152.09 101.71 152.09
C101.48 152.09 101.28 151.99 101.11 151.80
C100.92 151.61 100.81 151.30 100.75 150.88
L100.73 150.74
L100.60 150.76
L99.85 150.84
L99.72 150.85
L99.73 150.99
C99.78 151.64 99.99 152.15 100.35 152.52
C100.73 152.89 101.18 153.08 101.72 153.08
C102.37 153.08 102.89 152.81 103.27 152.29
C103.65 151.77 103.83 151.15 103.83 150.43
C103.83 149.70 103.64 149.12 103.26 148.68
C102.88 148.23 102.42 148.01 101.90 148.01
C101.59 148.01 101.29 148.10 101.00 148.28
L101.00 148.28
L101.24 146.85
L103.56 146.85
L103.56 146.70
L103.56 145.88
L103.56 145.74
Z
" fill="white" fill-rule="nonzero" />
<path d="
M111.89 14.73
C111.41 14.73 111.02 14.92 110.72 15.30
C110.43 15.67 110.27 16.21 110.22 16.92
L110.22 17.05
L110.34 17.07
L110.93 17.17
L111.10 17.19
L111.10 17.03
C111.10 16.59 111.18 16.27 111.33 16.05
C111.47 15.84 111.65 15.74 111.87 15.74
C111.87 15.74 111.87 15.74 111.87 15.74
C111.87 15.74 111.87 15.74 111.87 15.74
C112.07 15.74 112.24 15.83 112.38 16.02
C112.54 16.23 112.61 16.49 112.61 16.83
C112.61 17.12 112.53 17.44 112.37 17.79
C112.21 18.14 111.87 18.64 111.34 19.30
C110.87 19.89 110.55 20.40 110.37 20.83
C110.19 21.27 110.11 21.67 110.12 22.03
L110.12 22.17
L113.49 22.17
L113.49 22.02
L113.49 21.18
L113.49 21.04
L111.27 21.04
C111.31 20.96 111.36 20.87 111.42 20.78
C111.51 20.63 111.73 20.33 112.07 19.90
C112.61 19.20 112.98 18.64 113.18 18.21
C113.38 17.77 113.48 17.32 113.48 16.85
C113.48 16.31 113.35 15.83 113.09 15.40
C112.82 14.96 112.42 14.73 111.89 14.73
Z
M113.85 14.85
L113.85 14.99
L113.85 15.83
L113.85 15.98
L116.04 15.98
C115.79 16.45 115.55 16.99 115.33 17.62
C115.08 18.35 114.88 19.11 114.73 19.91
C114.59 20.72 114.51 21.42 114.50 22.02
L114.50 22.17
L115.24 22.17
L115.37 22.17
L115.38 22.03
C115.43 20.89 115.62 19.74 115.96 18.57
C116.30 17.41 116.69 16.47 117.14 15.75
L117.16 15.71
L117.16 15.67
L117.16 14.99
L117.16 14.85
Z
" fill="white" fill-rule="nonzero" />
<path d="
M115.79 40.12
L115.79 43.33
L114.33 43.33
L115.79 40.12
Z
M111.89 38.68
C111.45 38.68 111.10 38.86 110.83 39.20
C110.56 39.55 110.41 40.06 110.37 40.74
L110.96 40.84
C110.96 40.38 111.04 40.02 111.21 39.78
C111.38 39.53 111.60 39.41 111.87 39.41
C112.12 39.41 112.33 39.52 112.50 39.75
C112.67 39.98 112.75 40.27 112.75 40.64
C112.75 40.95 112.67 41.29 112.50 41.65
C112.34 42.02 111.99 42.53 111.45 43.20
C110.99 43.78 110.68 44.27 110.50 44.69
C110.33 45.11 110.25 45.50 110.26 45.84
L113.35 45.84
L113.35 44.99
L111.05 44.99
C111.12 44.84 111.20 44.68 111.30 44.52
C111.40 44.36 111.62 44.06 111.96 43.62
C112.50 42.93 112.86 42.38 113.05 41.96
C113.24 41.54 113.34 41.11 113.34 40.66
C113.34 40.14 113.22 39.69 112.97 39.29
C112.73 38.88 112.37 38.68 111.89 38.68
Z
M115.90 38.71
L113.77 43.33
L113.77 44.13
L115.79 44.13
L115.79 45.84
L116.37 45.84
L116.37 44.13
L117.00 44.13
L117.00 43.33
L116.37 43.33
L116.37 38.71
Z
" fill="black" fill-rule="nonzero" />
<path d="
M115.45 110.78
C115.74 110.78 115.97 110.98 116.14 111.37
C116.32 111.76 116.41 112.54 116.41 113.70
C116.41 114.84 116.32 115.61 116.15 116.01
C115.97 116.41 115.75 116.61 115.49 116.61
C115.21 116.61 114.98 116.41 114.81 116.02
C114.63 115.63 114.54 114.85 114.54 113.70
C114.54 112.55 114.63 111.78 114.80 111.38
C114.98 110.98 115.19 110.78 115.45 110.78
Z
M112.11 110.06
C112.01 110.37 111.84 110.69 111.60 111.01
C111.36 111.34 111.08 111.62 110.76 111.84
L110.76 112.69
C110.95 112.59 111.15 112.43 111.38 112.23
C111.60 112.03 111.78 111.83 111.91 111.64
L111.91 117.21
L112.48 117.21
L112.48 110.06
Z
M115.48 110.06
C114.98 110.06 114.60 110.36 114.34 110.98
C114.08 111.59 113.95 112.50 113.95 113.70
C113.95 115.03 114.09 115.97 114.38 116.51
C114.66 117.06 115.03 117.33 115.47 117.33
C115.98 117.33 116.36 117.02 116.62 116.40
C116.87 115.79 117.00 114.88 117.00 113.70
C117.00 112.37 116.84 111.41 116.53 110.80
C116.28 110.31 115.93 110.06 115.48 110.06
Z
" fill="black" fill-rule="nonzero" />
<path d="
M111.68 121.98
L111.68 122.13
L111.68 122.96
L111.68 123.10
L114.37 123.10
C114.07 123.56 113.78 124.10 113.51 124.71
C113.20 125.43 112.95 126.19 112.77 126.98
C112.59 127.77 112.50 128.47 112.49 129.07
L112.48 129.21
L113.36 129.21
L113.49 129.21
L113.50 129.08
C113.56 127.95 113.80 126.82 114.22 125.67
C114.64 124.52 115.12 123.60 115.67 122.88
L115.70 122.85
L115.70 122.80
L115.70 122.13
L115.70 121.98
Z
" fill="white" fill-rule="nonzero" />
<path d="
M114.04 135.37
L114.04 138.55
L112.24 138.55
L114.04 135.37
Z
M114.18 133.99
L111.54 138.55
L111.54 139.34
L114.04 139.34
L114.04 141.02
L114.75 141.02
L114.75 139.34
L115.54 139.34
L115.54 138.55
L114.75 138.55
L114.75 133.99
Z
" fill="black" fill-rule="nonzero" />
<path d="
M127.39 27.58
C127.40 27.58 127.40 27.58 127.40 27.58
C127.40 27.58 127.40 27.58 127.40 27.58
C127.58 27.58 127.75 27.71 127.90 27.95
C128.07 28.22 128.15 28.60 128.15 29.08
C128.15 29.56 128.07 29.93 127.91 30.19
C127.76 30.42 127.59 30.54 127.39 30.54
C127.39 30.54 127.39 30.54 127.39 30.54
C127.38 30.54 127.38 30.54 127.38 30.54
C127.18 30.54 127.00 30.42 126.84 30.19
C126.68 29.94 126.59 29.59 126.59 29.15
C126.59 28.66 126.68 28.27 126.86 27.98
C127.02 27.72 127.20 27.58 127.39 27.58
Z
M123.79 26.58
C123.31 26.58 122.92 26.77 122.62 27.15
C122.34 27.52 122.17 28.06 122.13 28.77
L122.12 28.90
L122.25 28.92
L122.84 29.01
L123.00 29.04
L123.00 28.87
C123.00 28.44 123.08 28.11 123.23 27.89
C123.38 27.69 123.56 27.58 123.77 27.58
C123.77 27.58 123.77 27.58 123.78 27.58
C123.78 27.58 123.78 27.58 123.78 27.58
C123.98 27.58 124.15 27.68 124.29 27.87
C124.44 28.07 124.52 28.34 124.52 28.67
C124.52 28.96 124.44 29.28 124.28 29.63
C124.12 29.98 123.77 30.49 123.25 31.15
C122.78 31.73 122.46 32.24 122.28 32.67
C122.10 33.11 122.01 33.51 122.02 33.87
L122.02 34.01
L125.39 34.01
L125.39 33.87
L125.39 33.03
L125.39 32.89
L123.18 32.89
C123.22 32.80 123.27 32.71 123.32 32.63
C123.42 32.47 123.64 32.18 123.98 31.75
C124.52 31.04 124.89 30.48 125.09 30.05
C125.29 29.62 125.39 29.16 125.39 28.69
C125.39 28.15 125.26 27.67 125.00 27.25
C124.73 26.80 124.32 26.58 123.79 26.58
Z
M127.33 26.58
C126.87 26.58 126.49 26.81 126.17 27.28
C125.87 27.74 125.72 28.35 125.72 29.12
C125.72 29.87 125.86 30.47 126.15 30.91
C126.46 31.37 126.83 31.59 127.26 31.60
C127.50 31.60 127.74 31.50 127.97 31.31
C128.05 31.24 128.13 31.15 128.21 31.06
L128.21 31.06
C128.19 31.45 128.14 31.81 128.06 32.12
C127.95 32.51 127.83 32.78 127.69 32.93
C127.57 33.06 127.43 33.13 127.28 33.13
C127.27 33.13 127.27 33.13 127.27 33.13
C127.27 33.13 127.27 33.13 127.27 33.13
C127.11 33.13 126.97 33.06 126.87 32.91
C126.76 32.74 126.68 32.48 126.64 32.13
L126.62 31.98
L126.48 32.00
L125.92 32.08
L125.79 32.10
L125.80 32.23
C125.85 32.84 126.00 33.30 126.26 33.62
C126.53 33.96 126.86 34.13 127.26 34.13
C127.61 34.13 127.93 33.99 128.21 33.72
C128.48 33.45 128.69 33.03 128.85 32.47
C129.00 31.92 129.07 31.14 129.07 30.15
C129.07 29.26 129.00 28.58 128.86 28.10
C128.72 27.61 128.51 27.23 128.24 26.97
C127.96 26.71 127.66 26.58 127.33 26.58
Z
" fill="white" fill-rule="nonzero" />
<path d="
M123.79 62.49
C123.36 62.49 123.00 62.67 122.74 63.01
C122.47 63.36 122.31 63.87 122.27 64.55
L122.86 64.65
C122.86 64.19 122.95 63.83 123.12 63.59
C123.29 63.34 123.51 63.22 123.78 63.22
C124.02 63.22 124.23 63.33 124.40 63.56
C124.57 63.79 124.66 64.09 124.66 64.45
C124.66 64.76 124.57 65.10 124.41 65.47
C124.24 65.83 123.89 66.35 123.36 67.01
C122.90 67.59 122.58 68.08 122.41 68.50
C122.24 68.93 122.15 69.31 122.16 69.65
L125.25 69.65
L125.25 68.81
L122.96 68.81
C123.02 68.65 123.10 68.49 123.20 68.33
C123.30 68.17 123.52 67.87 123.86 67.44
C124.40 66.74 124.77 66.19 124.96 65.77
C125.15 65.36 125.24 64.92 125.24 64.47
C125.24 63.96 125.12 63.50 124.88 63.10
C124.63 62.70 124.27 62.49 123.79 62.49
Z
M127.42 62.49
C126.99 62.49 126.63 62.67 126.37 63.01
C126.10 63.36 125.94 63.87 125.90 64.55
L126.49 64.65
C126.49 64.19 126.58 63.83 126.75 63.59
C126.92 63.34 127.14 63.22 127.41 63.22
C127.65 63.22 127.86 63.33 128.03 63.56
C128.20 63.79 128.29 64.09 128.29 64.45
C128.29 64.76 128.20 65.10 128.04 65.47
C127.87 65.83 127.52 66.35 126.99 67.01
C126.53 67.59 126.21 68.08 126.04 68.50
C125.87 68.93 125.78 69.31 125.79 69.65
L128.88 69.65
L128.88 68.81
L126.59 68.81
C126.65 68.65 126.73 68.49 126.83 68.33
C126.93 68.17 127.15 67.87 127.49 67.44
C128.03 66.74 128.40 66.19 128.59 65.77
C128.78 65.36 128.87 64.92 128.87 64.47
C128.87 63.96 128.75 63.50 128.51 63.10
C128.26 62.70 127.90 62.49 127.42 62.49
Z
" fill="black" fill-rule="nonzero" />
<path d="
M124.02 110.12
C123.92 110.43 123.75 110.75 123.51 111.07
C123.26 111.40 122.98 111.68 122.67 111.90
L122.67 112.75
C122.85 112.65 123.06 112.49 123.28 112.29
C123.50 112.09 123.68 111.89 123.81 111.70
L123.81 117.27
L124.39 117.27
L124.39 110.12
Z
M127.42 110.12
C126.99 110.12 126.63 110.29 126.37 110.63
C126.10 110.98 125.94 111.49 125.90 112.18
L126.49 112.27
C126.49 111.81 126.58 111.46 126.75 111.21
C126.92 110.96 127.14 110.84 127.41 110.84
C127.65 110.84 127.86 110.95 128.03 111.18
C128.20 111.41 128.29 111.71 128.29 112.07
C128.29 112.38 128.20 112.72 128.04 113.09
C127.87 113.45 127.52 113.97 126.99 114.64
C126.53 115.21 126.21 115.71 126.04 116.13
C125.87 116.55 125.78 116.93 125.79 117.27
L128.88 117.27
L128.88 116.43
L126.59 116.43
C126.65 116.27 126.73 116.11 126.83 115.95
C126.93 115.79 127.15 115.50 127.49 115.06
C128.03 114.36 128.40 113.81 128.59 113.39
C128.78 112.98 128.87 112.54 128.87 112.09
C128.87 111.58 128.75 111.12 128.51 110.72
C128.26 110.32 127.90 110.12 127.42 110.12
Z
" fill="black" fill-rule="nonzero" />
<path d="
M123.91 121.88
L123.88 121.98
C123.79 122.28 123.62 122.58 123.39 122.90
C123.16 123.21 122.89 123.48 122.59 123.69
L122.53 123.74
L122.53 123.81
L122.53 124.66
L122.53 124.90
L122.74 124.78
C122.93 124.67 123.15 124.51 123.38 124.30
C123.49 124.20 123.58 124.10 123.67 124.01
L123.67 124.01
L123.67 129.17
L123.67 129.32
L124.53 129.32
L124.53 129.17
L124.53 122.02
L124.53 121.88
Z
M127.54 121.88
L127.51 121.98
C127.42 122.28 127.25 122.58 127.02 122.90
C126.79 123.21 126.52 123.48 126.22 123.69
L126.16 123.74
L126.16 123.81
L126.16 124.66
L126.16 124.90
L126.37 124.78
C126.56 124.67 126.78 124.51 127.01 124.30
C127.12 124.20 127.21 124.10 127.30 124.01
L127.30 124.01
L127.30 129.17
L127.30 129.32
L128.16 129.32
L128.16 129.17
L128.16 122.02
L128.16 121.88
Z
" fill="white" fill-rule="nonzero" />
<path d="
M139.30 51.39
C139.30 51.39 139.30 51.39 139.30 51.39
C139.30 51.39 139.31 51.39 139.31 51.39
C139.49 51.39 139.66 51.52 139.81 51.76
C139.98 52.03 140.06 52.41 140.06 52.89
C140.06 53.37 139.98 53.74 139.82 54.00
C139.67 54.23 139.50 54.35 139.30 54.35
C139.29 54.35 139.29 54.35 139.29 54.35
C139.29 54.35 139.29 54.35 139.29 54.35
C139.08 54.35 138.90 54.23 138.75 54.00
C138.58 53.75 138.50 53.40 138.50 52.96
C138.50 52.47 138.59 52.08 138.76 51.79
C138.93 51.53 139.11 51.39 139.30 51.39
Z
M135.82 50.39
L135.79 50.49
C135.69 50.78 135.53 51.09 135.30 51.40
C135.06 51.72 134.79 51.98 134.49 52.20
L134.43 52.24
L134.43 52.32
L134.43 53.16
L134.43 53.40
L134.64 53.29
C134.84 53.18 135.05 53.02 135.28 52.81
C135.39 52.71 135.49 52.61 135.58 52.51
L135.58 52.51
L135.58 57.68
L135.58 57.82
L136.44 57.82
L136.44 57.68
L136.44 50.53
L136.44 50.39
Z
M139.24 50.39
C138.78 50.39 138.39 50.62 138.08 51.09
C137.77 51.55 137.62 52.16 137.62 52.93
C137.62 53.68 137.77 54.28 138.06 54.72
C138.36 55.18 138.73 55.41 139.16 55.41
C139.41 55.41 139.64 55.31 139.87 55.12
C139.96 55.05 140.04 54.97 140.11 54.87
L140.11 54.87
C140.09 55.27 140.04 55.62 139.96 55.93
C139.86 56.32 139.74 56.59 139.60 56.74
C139.47 56.87 139.33 56.94 139.18 56.94
C139.18 56.94 139.18 56.94 139.18 56.94
C139.18 56.94 139.18 56.94 139.17 56.94
C139.01 56.94 138.88 56.87 138.78 56.72
C138.66 56.55 138.58 56.29 138.54 55.94
L138.53 55.79
L138.38 55.82
L137.83 55.89
L137.70 55.91
L137.71 56.04
C137.76 56.65 137.91 57.11 138.17 57.44
C138.43 57.77 138.77 57.94 139.17 57.94
C139.52 57.94 139.84 57.80 140.12 57.53
C140.39 57.26 140.60 56.84 140.75 56.28
C140.90 55.73 140.98 54.95 140.98 53.96
C140.98 53.07 140.91 52.39 140.77 51.91
C140.62 51.42 140.42 51.04 140.15 50.79
C139.87 50.52 139.56 50.39 139.24 50.39
Z
" fill="white" fill-rule="nonzero" />
<path d="
M139.33 77.64
C139.58 77.64 139.80 77.78 139.97 78.06
C140.15 78.34 140.24 78.73 140.24 79.24
C140.24 79.75 140.15 80.16 139.97 80.45
C139.79 80.75 139.59 80.89 139.37 80.89
C139.11 80.89 138.88 80.74 138.69 80.42
C138.49 80.11 138.40 79.70 138.40 79.18
C138.40 78.71 138.49 78.34 138.68 78.06
C138.86 77.78 139.08 77.64 139.33 77.64
Z
M135.92 74.34
C135.82 74.65 135.65 74.97 135.41 75.30
C135.17 75.62 134.89 75.90 134.57 76.13
L134.57 76.97
C134.76 76.87 134.96 76.72 135.19 76.51
C135.41 76.31 135.59 76.11 135.72 75.92
L135.72 81.49
L136.30 81.49
L136.30 74.34
Z
M139.41 74.34
C138.92 74.34 138.52 74.63 138.21 75.22
C137.89 75.80 137.74 76.78 137.74 78.16
C137.74 79.40 137.89 80.28 138.20 80.82
C138.50 81.35 138.89 81.61 139.36 81.61
C139.62 81.61 139.86 81.52 140.08 81.34
C140.30 81.15 140.48 80.87 140.61 80.48
C140.75 80.09 140.82 79.66 140.82 79.18
C140.82 78.48 140.68 77.92 140.41 77.50
C140.13 77.08 139.81 76.87 139.44 76.87
C139.22 76.87 139.01 76.95 138.81 77.11
C138.61 77.27 138.44 77.51 138.31 77.82
C138.31 76.94 138.40 76.28 138.57 75.84
C138.77 75.32 139.04 75.06 139.38 75.06
C139.59 75.06 139.78 75.17 139.93 75.40
C140.04 75.55 140.12 75.81 140.17 76.18
L140.74 76.11
C140.69 75.54 140.54 75.10 140.30 74.79
C140.06 74.49 139.77 74.34 139.41 74.34
Z
" fill="black" fill-rule="nonzero" />
<path d="
M139.30 86.96
C139.50 86.96 139.68 87.07 139.83 87.28
C139.99 87.49 140.06 87.77 140.06 88.10
C140.06 88.42 139.99 88.69 139.84 88.89
C139.69 89.10 139.51 89.20 139.30 89.20
C139.09 89.20 138.91 89.10 138.76 88.89
C138.61 88.68 138.54 88.40 138.54 88.05
C138.54 87.74 138.61 87.48 138.76 87.28
C138.91 87.07 139.09 86.96 139.30 86.96
Z
M139.29 89.91
C139.55 89.91 139.78 90.05 139.97 90.31
C140.16 90.58 140.25 90.93 140.25 91.37
C140.25 91.80 140.16 92.15 139.98 92.41
C139.79 92.67 139.57 92.80 139.30 92.80
C139.04 92.80 138.82 92.67 138.63 92.40
C138.44 92.13 138.35 91.78 138.35 91.34
C138.35 90.92 138.44 90.58 138.62 90.31
C138.80 90.05 139.03 89.91 139.29 89.91
Z
M135.92 86.25
C135.82 86.56 135.65 86.88 135.41 87.20
C135.17 87.53 134.89 87.81 134.57 88.03
L134.57 88.88
C134.76 88.77 134.96 88.62 135.19 88.42
C135.41 88.22 135.59 88.02 135.72 87.82
L135.72 93.40
L136.30 93.40
L136.30 86.25
Z
M139.29 86.25
C138.91 86.25 138.58 86.42 138.33 86.76
C138.07 87.10 137.95 87.54 137.95 88.08
C137.95 88.44 138.01 88.74 138.12 88.98
C138.24 89.22 138.42 89.40 138.65 89.53
C138.37 89.64 138.15 89.85 138.00 90.16
C137.84 90.47 137.76 90.87 137.76 91.34
C137.76 91.99 137.91 92.52 138.20 92.92
C138.50 93.32 138.86 93.52 139.30 93.52
C139.74 93.52 140.10 93.32 140.40 92.92
C140.69 92.52 140.84 92.00 140.84 91.37
C140.84 90.91 140.76 90.52 140.61 90.21
C140.46 89.90 140.24 89.67 139.96 89.53
C140.19 89.40 140.36 89.22 140.48 88.98
C140.59 88.74 140.65 88.45 140.65 88.11
C140.65 87.56 140.52 87.11 140.26 86.76
C140.00 86.42 139.68 86.25 139.29 86.25
Z
" fill="black" fill-rule="nonzero" />
<path d="
M139.60 111.55
L139.60 114.76
L138.14 114.76
L139.60 111.55
Z
M135.92 110.12
C135.82 110.43 135.65 110.75 135.41 111.07
C135.17 111.40 134.89 111.68 134.57 111.90
L134.57 112.75
C134.76 112.65 134.96 112.49 135.19 112.29
C135.41 112.09 135.59 111.89 135.72 111.70
L135.72 117.27
L136.30 117.27
L136.30 110.12
Z
M139.71 110.15
L137.58 114.76
L137.58 115.56
L139.60 115.56
L139.60 117.27
L140.18 117.27
L140.18 115.56
L140.81 115.56
L140.81 114.76
L140.18 114.76
L140.18 110.15
Z
" fill="black" fill-rule="nonzero" />
<path d="
M135.82 121.82
L135.79 121.92
C135.69 122.21 135.53 122.52 135.30 122.83
C135.06 123.15 134.79 123.41 134.49 123.63
L134.43 123.67
L134.43 123.75
L134.43 124.59
L134.43 124.83
L134.64 124.72
C134.84 124.61 135.05 124.45 135.28 124.24
C135.39 124.14 135.49 124.04 135.58 123.94
L135.58 123.94
L135.58 129.11
L135.58 129.25
L136.44 129.25
L136.44 129.11
L136.44 121.96
L136.44 121.82
Z
M139.24 121.82
C138.83 121.82 138.49 121.99 138.21 122.34
C137.94 122.67 137.76 123.15 137.69 123.79
L137.67 123.91
L137.79 123.94
L138.36 124.10
L138.52 124.14
L138.54 123.97
C138.58 123.57 138.67 123.27 138.80 123.08
C138.92 122.91 139.07 122.82 139.24 122.82
C139.24 122.82 139.24 122.82 139.24 122.82
C139.25 122.82 139.25 122.82 139.25 122.82
C139.41 122.82 139.55 122.90 139.67 123.07
C139.80 123.24 139.87 123.48 139.87 123.79
C139.87 124.12 139.79 124.38 139.63 124.57
C139.49 124.75 139.30 124.84 139.06 124.84
L139.06 124.84
L138.98 124.83
L138.84 124.81
L138.82 124.96
L138.76 125.73
L138.74 125.96
L138.95 125.87
C139.10 125.81 139.21 125.78 139.30 125.78
C139.30 125.78 139.30 125.78 139.30 125.78
C139.30 125.78 139.31 125.78 139.31 125.78
C139.51 125.78 139.69 125.89 139.84 126.10
C140.00 126.33 140.08 126.64 140.07 127.02
C140.08 127.43 139.99 127.76 139.81 128.02
C139.65 128.25 139.46 128.37 139.25 128.37
C139.25 128.37 139.25 128.37 139.25 128.37
C139.25 128.37 139.25 128.37 139.24 128.37
C139.05 128.37 138.90 128.28 138.78 128.09
C138.64 127.87 138.54 127.54 138.48 127.10
L138.46 126.94
L138.31 126.98
L137.74 127.09
L137.62 127.12
L137.63 127.24
C137.67 127.88 137.84 128.39 138.13 128.78
C138.44 129.18 138.81 129.38 139.26 129.38
C139.73 129.38 140.14 129.15 140.48 128.70
C140.80 128.26 140.97 127.69 140.97 127.01
C140.97 126.69 140.93 126.39 140.85 126.13
C140.77 125.86 140.66 125.65 140.53 125.48
C140.44 125.38 140.34 125.29 140.22 125.22
L140.22 125.22
C140.36 125.08 140.47 124.92 140.56 124.72
C140.68 124.46 140.74 124.15 140.74 123.81
C140.74 123.24 140.60 122.77 140.31 122.40
C140.02 122.01 139.66 121.82 139.24 121.82
Z
" fill="white" fill-rule="nonzero" />
<path d="
M147.51 74.20
C147.11 74.20 146.76 74.37 146.48 74.71
C146.21 75.05 146.04 75.53 145.96 76.17
L145.95 76.29
L146.06 76.32
L146.64 76.48
L146.80 76.52
L146.81 76.35
C146.85 75.95 146.94 75.65 147.08 75.46
C147.20 75.28 147.35 75.20 147.52 75.20
C147.52 75.20 147.52 75.20 147.52 75.20
C147.52 75.20 147.52 75.20 147.52 75.20
C147.69 75.20 147.83 75.28 147.95 75.44
C148.08 75.62 148.14 75.86 148.14 76.16
C148.14 76.49 148.06 76.75 147.91 76.94
C147.76 77.13 147.57 77.22 147.34 77.22
L147.34 77.22
L147.26 77.21
L147.11 77.19
L147.10 77.34
L147.03 78.10
L147.01 78.33
L147.23 78.25
C147.37 78.19 147.49 78.16 147.58 78.16
C147.58 78.16 147.58 78.16 147.58 78.16
C147.58 78.16 147.58 78.16 147.58 78.16
C147.79 78.16 147.97 78.27 148.11 78.48
C148.27 78.71 148.35 79.01 148.35 79.40
C148.35 79.81 148.26 80.14 148.09 80.39
C147.93 80.63 147.74 80.75 147.53 80.75
C147.53 80.75 147.53 80.75 147.52 80.75
C147.52 80.75 147.52 80.75 147.52 80.75
C147.33 80.75 147.17 80.65 147.05 80.46
C146.91 80.25 146.82 79.92 146.76 79.47
L146.74 79.32
L146.59 79.35
L146.02 79.47
L145.89 79.49
L145.90 79.62
C145.94 80.26 146.11 80.77 146.41 81.16
C146.71 81.56 147.09 81.76 147.53 81.76
C148.01 81.76 148.42 81.53 148.75 81.08
C149.08 80.63 149.24 80.07 149.24 79.39
C149.24 79.06 149.20 78.77 149.13 78.51
C149.04 78.24 148.94 78.03 148.80 77.86
C148.72 77.75 148.61 77.67 148.49 77.60
L148.49 77.60
C148.63 77.46 148.75 77.30 148.83 77.10
C148.95 76.83 149.01 76.53 149.01 76.18
C149.01 75.62 148.87 75.15 148.59 74.78
C148.30 74.39 147.94 74.20 147.51 74.20
Z
M151.14 74.20
C150.74 74.20 150.39 74.37 150.11 74.71
C149.84 75.05 149.67 75.53 149.59 76.17
L149.58 76.29
L149.69 76.32
L150.27 76.48
L150.43 76.52
L150.44 76.35
C150.48 75.95 150.57 75.65 150.71 75.46
C150.83 75.28 150.98 75.20 151.15 75.20
C151.15 75.20 151.15 75.20 151.15 75.20
C151.15 75.20 151.15 75.20 151.15 75.20
C151.32 75.20 151.46 75.28 151.58 75.44
C151.71 75.62 151.77 75.86 151.77 76.16
C151.77 76.49 151.69 76.75 151.54 76.94
C151.39 77.13 151.20 77.22 150.97 77.22
L150.97 77.22
L150.89 77.21
L150.74 77.19
L150.73 77.34
L150.66 78.10
L150.64 78.33
L150.86 78.25
C151.00 78.19 151.12 78.16 151.21 78.16
C151.21 78.16 151.21 78.16 151.21 78.16
C151.21 78.16 151.21 78.16 151.21 78.16
C151.42 78.16 151.60 78.27 151.74 78.48
C151.90 78.71 151.98 79.01 151.98 79.40
C151.98 79.81 151.89 80.14 151.72 80.39
C151.56 80.63 151.37 80.75 151.16 80.75
C151.16 80.75 151.16 80.75 151.15 80.75
C151.15 80.75 151.15 80.75 151.15 80.75
C150.96 80.75 150.80 80.65 150.68 80.46
C150.54 80.25 150.45 79.92 150.39 79.47
L150.37 79.32
L150.22 79.35
L149.65 79.47
L149.52 79.49
L149.53 79.62
C149.57 80.26 149.74 80.77 150.04 81.16
C150.34 81.56 150.72 81.76 151.16 81.76
C151.64 81.76 152.05 81.53 152.38 81.08
C152.71 80.63 152.87 80.07 152.87 79.39
C152.87 79.06 152.83 78.77 152.76 78.51
C152.67 78.24 152.57 78.03 152.43 77.86
C152.35 77.75 152.24 77.67 152.12 77.60
L152.12 77.60
C152.26 77.46 152.38 77.30 152.46 77.10
C152.58 76.83 152.64 76.53 152.64 76.18
C152.64 75.62 152.50 75.15 152.22 74.78
C151.93 74.39 151.57 74.20 151.14 74.20
Z
" fill="white" fill-rule="nonzero" />
<path d="
M147.72 86.16
L147.69 86.26
C147.60 86.56 147.44 86.86 147.20 87.18
C146.97 87.49 146.70 87.76 146.40 87.98
L146.34 88.02
L146.34 88.09
L146.34 88.94
L146.34 89.18
L146.55 89.06
C146.74 88.95 146.96 88.79 147.19 88.58
C147.30 88.49 147.40 88.39 147.48 88.29
L147.48 88.29
L147.48 93.46
L147.48 93.60
L148.34 93.60
L148.34 93.46
L148.34 86.31
L148.34 86.16
Z
M149.57 86.29
L149.57 86.43
L149.57 87.27
L149.57 87.41
L151.75 87.41
C151.50 87.88 151.27 88.43 151.05 89.06
C150.79 89.78 150.59 90.55 150.45 91.35
C150.30 92.15 150.23 92.85 150.22 93.46
L150.22 93.60
L150.95 93.60
L151.09 93.60
L151.09 93.46
C151.15 92.32 151.34 91.17 151.68 90.01
C152.02 88.84 152.41 87.90 152.85 87.18
L152.87 87.15
L152.87 87.11
L152.87 86.43
L152.87 86.29
Z
" fill="white" fill-rule="nonzero" />
<path d="
M151.17 110.78
C151.45 110.78 151.68 110.98 151.86 111.37
C152.04 111.76 152.13 112.54 152.13 113.70
C152.13 114.84 152.04 115.61 151.86 116.01
C151.69 116.41 151.47 116.61 151.20 116.61
C150.93 116.61 150.70 116.41 150.52 116.02
C150.35 115.63 150.26 114.85 150.26 113.70
C150.26 112.55 150.34 111.78 150.52 111.38
C150.69 110.98 150.91 110.78 151.17 110.78
Z
M147.61 110.06
C147.17 110.06 146.81 110.23 146.55 110.57
C146.28 110.92 146.12 111.43 146.08 112.12
L146.67 112.21
C146.67 111.75 146.76 111.40 146.93 111.15
C147.10 110.90 147.32 110.78 147.59 110.78
C147.84 110.78 148.04 110.89 148.21 111.12
C148.38 111.35 148.47 111.65 148.47 112.01
C148.47 112.32 148.39 112.66 148.22 113.03
C148.05 113.39 147.70 113.91 147.17 114.57
C146.71 115.15 146.39 115.64 146.22 116.07
C146.05 116.49 145.97 116.87 145.97 117.21
L149.06 117.21
L149.06 116.37
L146.77 116.37
C146.83 116.21 146.91 116.05 147.01 115.89
C147.11 115.73 147.33 115.43 147.68 115.00
C148.21 114.30 148.58 113.75 148.77 113.33
C148.96 112.92 149.06 112.48 149.06 112.03
C149.06 111.52 148.93 111.06 148.69 110.66
C148.44 110.26 148.08 110.06 147.61 110.06
Z
M151.20 110.06
C150.69 110.06 150.31 110.36 150.06 110.98
C149.80 111.59 149.67 112.50 149.67 113.70
C149.67 115.03 149.81 115.97 150.10 116.51
C150.38 117.06 150.74 117.33 151.19 117.33
C151.69 117.33 152.08 117.02 152.33 116.40
C152.59 115.79 152.72 114.88 152.72 113.70
C152.72 112.37 152.56 111.41 152.25 110.80
C151.99 110.31 151.64 110.06 151.20 110.06
Z
" fill="black" fill-rule="nonzero" />
<path d="
M150.62 124.48
L150.62 124.48
L150.62 124.48
C150.62 124.48 150.62 124.48 150.62 124.48
Z
M147.72 121.82
L147.69 121.92
C147.60 122.21 147.44 122.52 147.20 122.83
C146.97 123.15 146.70 123.42 146.40 123.63
L146.34 123.68
L146.34 123.75
L146.34 124.59
L146.34 124.84
L146.55 124.72
C146.74 124.61 146.96 124.45 147.19 124.24
C147.30 124.14 147.40 124.04 147.48 123.95
L147.48 123.95
L147.48 129.11
L147.48 129.25
L148.34 129.25
L148.34 129.11
L148.34 121.96
L148.34 121.82
Z
M150.10 121.95
L150.08 122.07
L149.63 125.73
L149.61 125.86
L149.74 125.89
L150.28 125.99
L150.40 126.02
L150.44 125.91
C150.52 125.71 150.63 125.56 150.76 125.46
C150.88 125.36 151.02 125.31 151.16 125.31
C151.16 125.31 151.16 125.31 151.16 125.31
C151.16 125.31 151.16 125.31 151.16 125.31
C151.40 125.31 151.60 125.42 151.76 125.66
C151.93 125.92 152.02 126.29 152.02 126.77
C152.02 127.28 151.93 127.68 151.75 127.97
C151.58 128.24 151.38 128.37 151.17 128.37
C151.16 128.37 151.16 128.37 151.16 128.37
C151.16 128.37 151.16 128.37 151.16 128.37
C150.99 128.37 150.84 128.28 150.70 128.10
C150.55 127.90 150.46 127.58 150.41 127.16
L150.40 127.01
L150.25 127.03
L149.65 127.11
L149.52 127.12
L149.53 127.26
C149.57 127.91 149.74 128.42 150.03 128.80
C150.34 129.18 150.72 129.38 151.17 129.38
C151.71 129.37 152.14 129.10 152.46 128.56
C152.76 128.04 152.91 127.42 152.91 126.70
C152.91 125.96 152.76 125.37 152.45 124.93
C152.13 124.48 151.75 124.25 151.31 124.25
C151.07 124.25 150.84 124.33 150.62 124.48
L150.62 124.48
L150.81 123.07
L152.69 123.07
L152.69 122.92
L152.69 122.09
L152.69 121.95
Z
" fill="white" fill-rule="nonzero" />
<path d="
M159.51 109.98
C159.03 109.98 158.64 110.17 158.34 110.55
C158.05 110.92 157.89 111.46 157.85 112.17
L157.84 112.30
L157.97 112.32
L158.56 112.41
L158.72 112.44
L158.72 112.27
C158.72 111.84 158.80 111.51 158.95 111.29
C159.09 111.09 159.27 110.98 159.49 110.98
C159.49 110.98 159.49 110.98 159.49 110.98
C159.49 110.98 159.49 110.98 159.50 110.98
C159.70 110.98 159.87 111.08 160.01 111.27
C160.16 111.47 160.23 111.74 160.23 112.07
C160.23 112.36 160.15 112.68 160.00 113.03
C159.84 113.38 159.49 113.89 158.96 114.55
C158.49 115.13 158.17 115.64 157.99 116.07
C157.81 116.51 157.73 116.91 157.74 117.27
L157.74 117.41
L161.11 117.41
L161.11 117.27
L161.11 116.43
L161.11 116.29
L158.89 116.29
C158.94 116.20 158.98 116.11 159.04 116.03
C159.14 115.87 159.35 115.58 159.69 115.15
C160.24 114.44 160.61 113.88 160.80 113.45
C161.00 113.02 161.10 112.56 161.10 112.09
C161.10 111.55 160.97 111.07 160.71 110.65
C160.44 110.20 160.04 109.98 159.51 109.98
Z
M163.26 109.98
L163.23 110.07
C163.13 110.37 162.97 110.68 162.74 110.99
C162.50 111.30 162.24 111.57 161.93 111.79
L161.87 111.83
L161.87 111.90
L161.87 112.75
L161.87 112.99
L162.08 112.87
C162.28 112.77 162.49 112.61 162.72 112.40
C162.83 112.30 162.93 112.20 163.02 112.10
L163.02 112.10
L163.02 117.27
L163.02 117.41
L163.88 117.41
L163.88 117.27
L163.88 110.12
L163.88 109.98
Z
" fill="white" fill-rule="nonzero" />
</g>
<g  transform="translate(1.19,228.58)" >
<path d="
M106.49 2.94
C106.33 2.94 106.19 3.00 106.07 3.11
C105.96 3.23 105.90 3.37 105.90 3.53
C105.90 3.69 105.96 3.83 106.08 3.95
C106.19 4.07 106.33 4.12 106.49 4.12
C106.66 4.12 106.80 4.07 106.91 3.95
C107.02 3.83 107.08 3.69 107.08 3.53
C107.08 3.37 107.02 3.23 106.91 3.11
C106.80 3.00 106.66 2.94 106.49 2.94
Z
M128.79 4.39
L128.79 8.31
L126.02 8.31
L128.79 4.39
Z
M111.46 8.04
L111.46 10.07
C110.98 10.46 110.60 10.65 110.30 10.65
C110.08 10.65 109.89 10.56 109.73 10.37
C109.56 10.19 109.48 9.96 109.48 9.68
C109.48 9.46 109.54 9.25 109.67 9.07
C109.81 8.88 110.02 8.70 110.33 8.53
C110.50 8.44 110.88 8.27 111.46 8.04
Z
M99.82 3.77
C100.75 3.77 101.51 4.08 102.10 4.71
C102.69 5.34 102.99 6.20 102.99 7.29
C102.99 8.37 102.69 9.23 102.10 9.86
C101.51 10.49 100.76 10.81 99.86 10.81
C99.53 10.81 99.12 10.75 98.62 10.64
L98.62 3.94
C99.07 3.83 99.47 3.77 99.82 3.77
Z
M96.37 3.33
L96.37 3.54
L96.67 3.54
C96.97 3.54 97.19 3.63 97.34 3.80
C97.45 3.92 97.51 4.23 97.51 4.72
L97.51 9.82
C97.51 10.26 97.46 10.55 97.38 10.68
C97.24 10.89 97.00 11.00 96.67 11.00
L96.37 11.00
L96.37 11.21
L99.90 11.21
C101.43 11.21 102.57 10.80 103.32 9.98
C103.98 9.24 104.32 8.33 104.32 7.23
C104.32 6.41 104.13 5.69 103.76 5.07
C103.38 4.44 102.89 4.00 102.27 3.73
C101.66 3.46 100.76 3.33 99.58 3.33
Z
M106.72 5.73
L105.12 6.38
L105.20 6.59
C105.35 6.53 105.48 6.50 105.59 6.50
C105.69 6.50 105.77 6.53 105.83 6.58
C105.89 6.62 105.93 6.71 105.96 6.83
C105.99 7.00 106.01 7.38 106.01 7.96
L106.01 10.01
C106.01 10.34 105.98 10.56 105.93 10.68
C105.88 10.79 105.81 10.88 105.72 10.93
C105.63 10.98 105.46 11.00 105.20 11.00
L105.20 11.21
L107.78 11.21
L107.78 11.00
C107.53 11.00 107.36 10.98 107.26 10.92
C107.17 10.87 107.10 10.79 107.05 10.68
C107.00 10.56 106.98 10.34 106.98 10.01
L106.98 5.73
Z
M122.04 3.16
C121.44 3.16 120.94 3.36 120.54 3.74
C120.14 4.12 119.89 4.67 119.79 5.39
L120.01 5.39
C120.16 4.95 120.38 4.62 120.69 4.39
C121.00 4.17 121.35 4.05 121.74 4.05
C122.16 4.05 122.53 4.22 122.84 4.54
C123.14 4.86 123.29 5.27 123.29 5.77
C123.29 6.42 123.02 7.15 122.46 7.94
C121.90 8.73 120.94 9.75 119.57 11.00
L119.57 11.21
L124.22 11.21
L124.77 9.70
L124.56 9.70
C124.46 9.87 124.34 10.00 124.20 10.10
C124.07 10.19 123.91 10.26 123.75 10.29
C123.58 10.32 123.28 10.33 122.86 10.33
L120.81 10.33
C121.05 10.12 121.65 9.48 122.61 8.43
C123.26 7.73 123.72 7.06 124.01 6.43
C124.20 6.03 124.29 5.63 124.29 5.23
C124.29 4.68 124.07 4.19 123.65 3.78
C123.22 3.37 122.68 3.16 122.04 3.16
Z
M129.11 3.16
L125.45 8.39
L125.45 9.13
L128.79 9.13
L128.79 11.21
L129.75 11.21
L129.75 9.13
L130.81 9.13
L130.81 8.31
L129.75 8.31
L129.75 3.16
Z
M110.65 5.73
C110.03 5.73 109.56 5.87 109.21 6.15
C108.87 6.43 108.70 6.73 108.70 7.07
C108.70 7.24 108.75 7.38 108.84 7.48
C108.93 7.58 109.05 7.63 109.19 7.63
C109.34 7.63 109.46 7.58 109.55 7.49
C109.64 7.39 109.69 7.25 109.69 7.07
L109.67 6.74
C109.67 6.56 109.75 6.41 109.89 6.28
C110.04 6.15 110.23 6.08 110.48 6.08
C110.80 6.08 111.04 6.18 111.21 6.38
C111.38 6.58 111.46 6.94 111.46 7.47
L111.46 7.68
C110.55 8.02 109.90 8.30 109.50 8.53
C109.11 8.76 108.83 9.01 108.67 9.28
C108.56 9.47 108.50 9.69 108.50 9.95
C108.50 10.36 108.62 10.69 108.86 10.95
C109.09 11.20 109.40 11.32 109.77 11.32
C110.00 11.32 110.23 11.27 110.44 11.18
C110.57 11.11 110.92 10.87 111.46 10.45
C111.47 10.76 111.53 10.99 111.64 11.12
C111.75 11.25 111.90 11.32 112.09 11.32
C112.49 11.32 112.90 11.03 113.34 10.45
L113.34 10.12
C113.10 10.35 112.95 10.49 112.87 10.54
C112.82 10.57 112.77 10.58 112.70 10.58
C112.65 10.58 112.59 10.57 112.55 10.53
C112.50 10.49 112.47 10.41 112.45 10.30
C112.43 10.18 112.42 9.87 112.42 9.36
L112.42 7.55
C112.42 7.04 112.39 6.70 112.32 6.53
C112.21 6.28 112.04 6.09 111.81 5.97
C111.51 5.81 111.12 5.73 110.65 5.73
Z
M114.85 10.08
C114.67 10.08 114.52 10.15 114.39 10.27
C114.26 10.39 114.20 10.55 114.20 10.73
C114.20 10.91 114.26 11.06 114.39 11.19
C114.52 11.31 114.67 11.38 114.85 11.38
C115.03 11.38 115.18 11.31 115.30 11.19
C115.43 11.06 115.49 10.91 115.49 10.73
C115.49 10.55 115.43 10.40 115.31 10.27
C115.18 10.15 115.03 10.08 114.85 10.08
Z
" fill="black" fill-rule="nonzero" />
</g>
</g>
</svg>
