<?xml version="1.0" encoding="utf-8" standalone="no"?>
<!DOCTYPE svg PUBLIC "-//W3C//DTD SVG 1.0//EN" "http://www.w3.org/TR/SVG/DTD/svg11.dtd" >
<svg version="1.1" baseProfile="full"  width="319.13385" height="338.46454" viewBox="0 0 229.77638 243.69449" preserveAspectRatio="xMidYMid" xmlns="http://www.w3.org/2000/svg" >

<g lengthAdjust="spacingAndGlyphs" xml:space='preserve' >
<g  transform="translate(1.19,1.19)" >
<path d="
M0.0 0.0
L0.0 227.39
L227.39 227.39
L227.39 0.0
Z
" fill="none" fill-rule="nonzero" />
<line x1="6.54" y1="6.54" x2="6.54" y2="220.84" fill="none" stroke="black" stroke-width="0.87px" stroke-linecap="square" />
<line x1="18.45" y1="6.54" x2="18.45" y2="220.84" fill="none" stroke="black" stroke-width="0.25px" stroke-linecap="butt" />
<line x1="30.35" y1="6.54" x2="30.35" y2="220.84" fill="none" stroke="black" stroke-width="0.25px" stroke-linecap="butt" />
<line x1="42.26" y1="6.54" x2="42.26" y2="220.84" fill="none" stroke="black" stroke-width="0.25px" stroke-linecap="butt" />
<line x1="54.17" y1="6.54" x2="54.17" y2="220.84" fill="none" stroke="black" stroke-width="0.25px" stroke-linecap="butt" />
<line x1="66.07" y1="6.54" x2="66.07" y2="220.84" fill="none" stroke="black" stroke-width="0.25px" stroke-linecap="butt" />
<line x1="77.98" y1="6.54" x2="77.98" y2="220.84" fill="none" stroke="black" stroke-width="0.25px" stroke-linecap="butt" />
<line x1="89.88" y1="6.54" x2="89.88" y2="220.84" fill="none" stroke="black" stroke-width="0.25px" stroke-linecap="butt" />
<line x1="101.79" y1="6.54" x2="101.79" y2="220.84" fill="none" stroke="black" stroke-width="0.25px" stroke-linecap="butt" />
<line x1="113.69" y1="6.54" x2="113.69" y2="220.84" fill="none" stroke="black" stroke-width="0.25px" stroke-linecap="butt" />
<line x1="125.60" y1="6.54" x2="125.60" y2="220.84" fill="none" stroke="black" stroke-width="0.25px" stroke-linecap="butt" />
<line x1="137.50" y1="6.54" x2="137.50" y2="220.84" fill="none" stroke="black" stroke-width="0.25px" stroke-linecap="butt" />
<line x1="149.41" y1="6.54" x2="149.41" y2="220.84" fill="none" stroke="black" stroke-width="0.25px" stroke-linecap="butt" />
<line x1="161.31" y1="6.54" x2="161.31" y2="220.84" fill="none" stroke="black" stroke-width="0.25px" stroke-linecap="butt" />
<line x1="173.22" y1="6.54" x2="173.22" y2="220.84" fill="none" stroke="black" stroke-width="0.25px" stroke-linecap="butt" />
<line x1="185.13" y1="6.54" x2="185.13" y2="220.84" fill="none" stroke="black" stroke-width="0.25px" stroke-linecap="butt" />
<line x1="197.03" y1="6.54" x2="197.03" y2="220.84" fill="none" stroke="black" stroke-width="0.25px" stroke-linecap="butt" />
<line x1="208.94" y1="6.54" x2="208.94" y2="220.84" fill="none" stroke="black" stroke-width="0.25px" stroke-linecap="butt" />
<line x1="220.84" y1="6.54" x2="220.84" y2="220.84" fill="none" stroke="black" stroke-width="0.87px" stroke-linecap="square" />
<line x1="6.54" y1="6.54" x2="220.84" y2="6.54" fill="none" stroke="black" stroke-width="0.87px" stroke-linecap="square" />
<line x1="6.54" y1="18.45" x2="220.84" y2="18.45" fill="none" stroke="black" stroke-width="0.25px" stroke-linecap="butt" />
<line x1="6.54" y1="30.35" x2="220.84" y2="30.35" fill="none" stroke="black" stroke-width="0.25px" stroke-linecap="butt" />
<line x1="6.54" y1="42.26" x2="220.84" y2="42.26" fill="none" stroke="black" stroke-width="0.25px" stroke-linecap="butt" />
<line x1="6.54" y1="54.17" x2="220.84" y2="54.17" fill="none" stroke="black" stroke-width="0.25px" stroke-linecap="butt" />
<line x1="6.54" y1="66.07" x2="220.84" y2="66.07" fill="none" stroke="black" stroke-width="0.25px" stroke-linecap="butt" />
<line x1="6.54" y1="77.98" x2="220.84" y2="77.98" fill="none" stroke="black" stroke-width="0.25px" stroke-linecap="butt" />
<line x1="6.54" y1="89.88" x2="220.84" y2="89.88" fill="none" stroke="black" stroke-width="0.25px" stroke-linecap="butt" />
<line x1="6.54" y1="101.79" x2="220.84" y2="101.79" fill="none" stroke="black" stroke-width="0.25px" stroke-linecap="butt" />
<line x1="6.54" y1="113.69" x2="220.84" y2="113.69" fill="none" stroke="black" stroke-width="0.25px" stroke-linecap="butt" />
<line x1="6.54" y1="125.60" x2="220.84" y2="125.60" fill="none" stroke="black" stroke-width="0.25px" stroke-linecap="butt" />
<line x1="6.54" y1="137.50" x2="220.84" y2="137.50" fill="none" stroke="black" stroke-width="0.25px" stroke-linecap="butt" />
<line x1="6.54" y1="149.41" x2="220.84" y2="149.41" fill="none" stroke="black" stroke-width="0.25px" stroke-linecap="butt" />
<line x1="6.54" y1="161.31" x2="220.84" y2="161.31" fill="none" stroke="black" stroke-width="0.25px" stroke-linecap="butt" />
<line x1="6.54" y1="173.22" x2="220.84" y2="173.22" fill="none" stroke="black" stroke-width="0.25px" stroke-linecap="butt" />
<line x1="6.54" y1="185.13" x2="220.84" y2="185.13" fill="none" stroke="black" stroke-width="0.25px" stroke-linecap="butt" />
<line x1="6.54" y1="197.03" x2="220.84" y2="197.03" fill="none" stroke="black" stroke-width="0.25px" stroke-linecap="butt" />
<line x1="6.54" y1="208.94" x2="220.84" y2="208.94" fill="none" stroke="black" stroke-width="0.25px" stroke-linecap="butt" />
<line x1="6.54" y1="220.84" x2="220.84" y2="220.84" fill="none" stroke="black" stroke-width="0.87px" stroke-linecap="square" />
<circle cx="30.35" cy="54.17" r="5.98" fill="black"/>
<circle cx="30.35" cy="77.98" r="5.85" fill="white"/>
<circle cx="30.35" cy="77.98" r="5.85" fill="none" stroke="black" stroke-width="0.25px"/>
<circle cx="30.35" cy="89.88" r="5.85" fill="white"/>
<circle cx="30.35" cy="89.88" r="5.85" fill="none" stroke="black" stroke-width="0.25px"/>
<circle cx="30.35" cy="125.60" r="5.85" fill="white"/>
<circle cx="30.35" cy="125.60" r="5.85" fill="none" stroke="black" stroke-width="0.25px"/>
<circle cx="30.35" cy="161.31" r="5.85" fill="white"/>
<circle cx="30.35" cy="161.31" r="5.85" fill="none" stroke="black" stroke-width="0.25px"/>
<circle cx="30.35" cy="173.22" r="5.85" fill="white"/>
<circle cx="30.35" cy="173.22" r="5.85" fill="none" stroke="black" stroke-width="0.25px"/>
<circle cx="30.35" cy="185.13" r="5.98" fill="black"/>
<circle cx="42.26" cy="30.35" r="5.85" fill="white"/>
<circle cx="42.26" cy="30.35" r="5.85" fill="none" stroke="black" stroke-width="0.25px"/>
<circle cx="42.26" cy="42.26" r="1.27" fill="black"/>
<circle cx="42.26" cy="77.98" r="5.85" fill="white"/>
<circle cx="42.26" cy="77.98" r="5.85" fill="none" stroke="black" stroke-width="0.25px"/>
<circle cx="42.26" cy="89.88" r="5.98" fill="black"/>
<circle cx="42.26" cy="101.79" r="5.85" fill="white"/>
<circle cx="42.26" cy="101.79" r="5.85" fill="none" stroke="black" stroke-width="0.25px"/>
<circle cx="42.26" cy="113.69" r="5.85" fill="white"/>
<circle cx="42.26" cy="113.69" r="5.85" fill="none" stroke="black" stroke-width="0.25px"/>
<circle cx="42.26" cy="149.41" r="5.85" fill="white"/>
<circle cx="42.26" cy="149.41" r="5.85" fill="none" stroke="black" stroke-width="0.25px"/>
<circle cx="42.26" cy="161.31" r="5.98" fill="black"/>
<circle cx="42.26" cy="185.13" r="5.98" fill="black"/>
<circle cx="54.17" cy="66.07" r="5.98" fill="black"/>
<circle cx="54.17" cy="77.98" r="5.98" fill="black"/>
<circle cx="54.17" cy="89.88" r="5.98" fill="black"/>
<circle cx="54.17" cy="101.79" r="5.98" fill="black"/>
<circle cx="54.17" cy="161.31" r="5.98" fill="black"/>
<circle cx="66.07" cy="125.60" r="5.98" fill="black"/>
<circle cx="66.07" cy="137.50" r="5.98" fill="black"/>
<circle cx="66.07" cy="197.03" r="5.98" fill="black"/>
<circle cx="77.98" cy="30.35" r="5.85" fill="white"/>
<circle cx="77.98" cy="30.35" r="5.85" fill="none" stroke="black" stroke-width="0.25px"/>
<circle cx="77.98" cy="113.69" r="5.85" fill="white"/>
<circle cx="77.98" cy="113.69" r="5.85" fill="none" stroke="black" stroke-width="0.25px"/>
<circle cx="77.98" cy="125.60" r="5.85" fill="white"/>
<circle cx="77.98" cy="125.60" r="5.85" fill="none" stroke="black" stroke-width="0.25px"/>
<circle cx="77.98" cy="137.50" r="5.98" fill="black"/>
<circle cx="89.88" cy="113.69" r="5.98" fill="black"/>
<circle cx="89.88" cy="125.60" r="5.98" fill="black"/>
<circle cx="89.88" cy="137.50" r="5.85" fill="white"/>
<circle cx="89.88" cy="137.50" r="5.85" fill="none" stroke="black" stroke-width="0.25px"/>
<circle cx="89.88" cy="149.41" r="5.85" fill="white"/>
<circle cx="89.88" cy="149.41" r="5.85" fill="none" stroke="black" stroke-width="0.25px"/>
<circle cx="89.88" cy="185.13" r="5.85" fill="white"/>
<circle cx="89.88" cy="185.13" r="5.85" fill="none" stroke="black" stroke-width="0.25px"/>
<circle cx="101.79" cy="125.60" r="5.85" fill="white"/>
<circle cx="101.79" cy="125.60" r="5.85" fill="none" stroke="black" stroke-width="0.25px"/>
<circle cx="101.79" cy="137.50" r="5.98" fill="black"/>
<circle cx="101.79" cy="185.13" r="5.85" fill="white"/>
<circle cx="101.79" cy="185.13" r="5.85" fill="none" stroke="black" stroke-width="0.25px"/>
<circle cx="101.79" cy="197.03" r="5.98" fill="black"/>
<circle cx="113.69" cy="30.35" r="5.85" fill="white"/>
<circle cx="113.69" cy="30.35" r="5.85" fill="none" stroke="black" stroke-width="0.25px"/>
<circle cx="113.69" cy="42.26" r="1.27" fill="black"/>
<circle cx="113.69" cy="54.17" r="5.85" fill="white"/>
<circle cx="113.69" cy="54.17" r="5.85" fill="none" stroke="black" stroke-width="0.25px"/>
<circle cx="113.69" cy="77.98" r="5.98" fill="black"/>
<circle cx="113.69" cy="113.69" r="1.27" fill="black"/>
<circle cx="113.69" cy="125.60" r="5.85" fill="white"/>
<circle cx="113.69" cy="125.60" r="5.85" fill="none" stroke="black" stroke-width="0.25px"/>
<circle cx="113.69" cy="137.50" r="5.98" fill="black"/>
<circle cx="113.69" cy="161.31" r="5.98" fill="black"/>
<circle cx="113.69" cy="185.13" r="1.27" fill="black"/>
<circle cx="113.69" cy="208.94" r="5.98" fill="black"/>
<circle cx="125.60" cy="125.60" r="5.85" fill="white"/>
<circle cx="125.60" cy="125.60" r="5.85" fill="none" stroke="black" stroke-width="0.25px"/>
<circle cx="125.60" cy="137.50" r="5.98" fill="black"/>
<circle cx="125.60" cy="197.03" r="5.85" fill="white"/>
<circle cx="125.60" cy="197.03" r="5.85" fill="none" stroke="black" stroke-width="0.25px"/>
<circle cx="125.60" cy="208.94" r="5.85" fill="white"/>
<circle cx="125.60" cy="208.94" r="5.85" fill="none" stroke="black" stroke-width="0.25px"/>
<circle cx="137.50" cy="30.35" r="5.98" fill="black"/>
<circle cx="137.50" cy="125.60" r="5.85" fill="white"/>
<circle cx="137.50" cy="125.60" r="5.85" fill="none" stroke="black" stroke-width="0.25px"/>
<circle cx="137.50" cy="185.13" r="5.85" fill="white"/>
<circle cx="137.50" cy="185.13" r="5.85" fill="none" stroke="black" stroke-width="0.25px"/>
<circle cx="149.41" cy="149.41" r="5.98" fill="black"/>
<circle cx="149.41" cy="173.22" r="5.85" fill="white"/>
<circle cx="149.41" cy="173.22" r="5.85" fill="none" stroke="black" stroke-width="0.25px"/>
<circle cx="149.41" cy="197.03" r="5.98" fill="black"/>
<circle cx="161.31" cy="137.50" r="5.98" fill="black"/>
<circle cx="173.22" cy="89.88" r="5.98" fill="black"/>
<circle cx="173.22" cy="113.69" r="5.98" fill="black"/>
<circle cx="173.22" cy="185.13" r="5.85" fill="white"/>
<circle cx="173.22" cy="185.13" r="5.85" fill="none" stroke="black" stroke-width="0.25px"/>
<circle cx="185.13" cy="30.35" r="5.98" fill="black"/>
<circle cx="185.13" cy="42.26" r="5.98" fill="black"/>
<circle cx="185.13" cy="113.69" r="1.27" fill="black"/>
<circle cx="185.13" cy="161.31" r="5.85" fill="white"/>
<circle cx="185.13" cy="161.31" r="5.85" fill="none" stroke="black" stroke-width="0.25px"/>
<circle cx="185.13" cy="185.13" r="1.27" fill="black"/>
<circle cx="185.13" cy="197.03" r="5.85" fill="white"/>
<circle cx="185.13" cy="197.03" r="5.85" fill="none" stroke="black" stroke-width="0.25px"/>
<circle cx="197.03" cy="89.88" r="5.98" fill="black"/>
<circle cx="197.03" cy="113.69" r="5.85" fill="white"/>
<circle cx="197.03" cy="113.69" r="5.85" fill="none" stroke="black" stroke-width="0.25px"/>
<circle cx="197.03" cy="125.60" r="5.85" fill="white"/>
<circle cx="197.03" cy="125.60" r="5.85" fill="none" stroke="black" stroke-width="0.25px"/>
<circle cx="197.03" cy="137.50" r="5.85" fill="white"/>
<circle cx="197.03" cy="137.50" r="5.85" fill="none" stroke="black" stroke-width="0.25px"/>
<circle cx="197.03" cy="149.41" r="5.85" fill="white"/>
<circle cx="197.03" cy="149.41" r="5.85" fill="none" stroke="black" stroke-width="0.25px"/>
<circle cx="197.03" cy="173.22" r="5.98" fill="black"/>
<circle cx="208.94" cy="113.69" r="5.98" fill="black"/>
<circle cx="208.94" cy="125.60" r="5.98" fill="black"/>
<circle cx="208.94" cy="137.50" r="5.98" fill="black"/>
<circle cx="208.94" cy="149.41" r="5.85" fill="white"/>
<circle cx="208.94" cy="149.41" r="5.85" fill="none" stroke="black" stroke-width="0.25px"/>
<path d="
M66.04 134.76
C66.04 134.76 66.04 134.76 66.04 134.76
C66.04 134.76 66.04 134.76 66.04 134.76
C66.26 134.76 66.44 134.85 66.60 135.03
C66.76 135.21 66.85 135.45 66.85 135.74
C66.85 136.03 66.77 136.26 66.61 136.43
C66.46 136.60 66.27 136.69 66.05 136.69
C66.05 136.69 66.05 136.69 66.05 136.69
C66.05 136.69 66.05 136.69 66.05 136.69
C65.83 136.69 65.64 136.60 65.49 136.43
C65.33 136.25 65.25 136.01 65.25 135.70
C65.25 135.43 65.33 135.20 65.49 135.02
C65.64 134.85 65.83 134.76 66.04 134.76
Z
M66.03 137.68
C66.03 137.68 66.03 137.68 66.03 137.68
C66.03 137.68 66.03 137.68 66.04 137.68
C66.32 137.68 66.56 137.79 66.77 138.02
C66.98 138.26 67.08 138.58 67.08 138.97
C67.08 139.37 66.98 139.68 66.78 139.91
C66.58 140.13 66.34 140.24 66.05 140.24
C66.05 140.24 66.05 140.24 66.05 140.24
C66.05 140.24 66.05 140.24 66.05 140.24
C65.77 140.24 65.53 140.13 65.33 139.90
C65.12 139.66 65.01 139.34 65.01 138.95
C65.01 138.56 65.11 138.26 65.32 138.02
C65.51 137.79 65.75 137.68 66.03 137.68
Z
M66.04 133.77
C65.52 133.77 65.09 133.95 64.75 134.32
C64.41 134.68 64.24 135.15 64.23 135.72
C64.23 136.10 64.31 136.42 64.47 136.68
C64.59 136.87 64.73 137.02 64.92 137.14
L64.92 137.14
C64.67 137.27 64.47 137.46 64.32 137.71
C64.11 138.03 64.00 138.45 64.00 138.95
C64.00 139.63 64.20 140.18 64.59 140.60
C64.98 141.02 65.47 141.24 66.05 141.24
C66.63 141.24 67.12 141.02 67.51 140.60
C67.89 140.18 68.09 139.63 68.09 138.97
C68.09 138.49 67.99 138.08 67.79 137.75
C67.63 137.50 67.43 137.30 67.17 137.15
L67.17 137.15
C67.36 137.03 67.51 136.87 67.62 136.68
C67.78 136.43 67.85 136.11 67.85 135.75
C67.85 135.17 67.68 134.70 67.34 134.33
C66.99 133.96 66.56 133.77 66.04 133.77
Z
" fill="white" fill-rule="nonzero" />
<path d="
M76.74 110.16
L76.18 113.78
L76.85 113.88
C76.96 113.67 77.11 113.50 77.29 113.38
C77.48 113.26 77.68 113.20 77.89 113.20
C78.25 113.20 78.55 113.34 78.78 113.62
C79.02 113.89 79.13 114.28 79.13 114.78
C79.13 115.32 79.01 115.74 78.77 116.05
C78.53 116.36 78.24 116.51 77.90 116.51
C77.63 116.51 77.39 116.40 77.19 116.18
C76.99 115.96 76.86 115.63 76.80 115.18
L76.06 115.26
C76.10 115.87 76.30 116.35 76.64 116.70
C76.99 117.05 77.41 117.22 77.91 117.22
C78.51 117.22 78.99 116.98 79.35 116.49
C79.70 115.99 79.88 115.41 79.88 114.72
C79.88 114.02 79.70 113.47 79.35 113.05
C78.99 112.64 78.57 112.44 78.09 112.44
C77.70 112.44 77.34 112.58 77.00 112.88
L77.31 110.99
L79.61 110.99
L79.61 110.16
Z
" fill="black" fill-rule="nonzero" />
<path d="
M77.88 122.00
C77.43 122.00 77.05 122.16 76.74 122.46
C76.42 122.77 76.22 123.23 76.13 123.83
L76.84 123.98
C76.89 123.56 77.01 123.24 77.20 123.03
C77.38 122.82 77.61 122.71 77.89 122.71
C78.15 122.71 78.37 122.81 78.55 123.01
C78.73 123.21 78.83 123.48 78.83 123.81
C78.83 124.17 78.72 124.45 78.50 124.67
C78.28 124.88 78.00 124.99 77.65 124.99
L77.54 124.98
L77.46 125.74
C77.66 125.67 77.82 125.64 77.96 125.64
C78.27 125.64 78.54 125.77 78.76 126.02
C78.98 126.27 79.09 126.59 79.09 127.00
C79.09 127.44 78.97 127.79 78.73 128.07
C78.49 128.34 78.21 128.48 77.89 128.48
C77.29 128.48 76.92 128.02 76.77 127.10
L76.06 127.21
C76.11 127.82 76.30 128.30 76.65 128.66
C76.99 129.01 77.41 129.19 77.90 129.19
C78.43 129.19 78.89 128.99 79.27 128.58
C79.65 128.17 79.84 127.64 79.84 126.99
C79.84 126.69 79.79 126.41 79.70 126.16
C79.61 125.92 79.49 125.72 79.33 125.57
C79.18 125.43 78.99 125.32 78.76 125.26
C79.01 125.12 79.21 124.92 79.35 124.68
C79.49 124.43 79.56 124.15 79.56 123.83
C79.56 123.30 79.39 122.87 79.07 122.52
C78.74 122.18 78.34 122.00 77.88 122.00
Z
" fill="black" fill-rule="nonzero" />
<path d="
M77.99 137.32
C78.26 137.32 78.48 137.44 78.67 137.68
C78.87 137.92 78.97 138.28 78.97 138.75
C78.97 139.23 78.87 139.60 78.67 139.86
C78.48 140.12 78.27 140.24 78.04 140.24
C78.04 140.24 78.03 140.24 78.03 140.24
C78.03 140.24 78.03 140.24 78.03 140.24
C77.76 140.24 77.52 140.11 77.31 139.84
C77.09 139.55 76.98 139.17 76.98 138.70
C76.98 138.26 77.08 137.92 77.29 137.68
C77.49 137.44 77.72 137.32 77.98 137.32
C77.98 137.32 77.99 137.32 77.99 137.32
C77.99 137.32 77.99 137.32 77.99 137.32
Z
M78.09 133.77
C77.44 133.77 76.90 134.08 76.49 134.70
C76.08 135.30 75.88 136.29 75.88 137.68
C75.88 138.94 76.08 139.84 76.47 140.39
C76.88 140.95 77.40 141.24 78.03 141.24
C78.38 141.24 78.70 141.14 79.00 140.94
C79.29 140.74 79.52 140.44 79.71 140.03
C79.89 139.63 79.98 139.19 79.98 138.70
C79.98 137.97 79.79 137.38 79.43 136.94
C79.06 136.50 78.63 136.27 78.13 136.27
C77.82 136.27 77.54 136.36 77.27 136.53
C77.13 136.62 77.00 136.73 76.88 136.86
L76.88 136.86
C76.92 136.26 77.02 135.79 77.18 135.45
C77.30 135.22 77.43 135.04 77.58 134.93
C77.72 134.82 77.87 134.76 78.05 134.76
C78.05 134.76 78.05 134.76 78.05 134.76
C78.05 134.76 78.05 134.76 78.05 134.76
C78.27 134.76 78.46 134.86 78.62 135.05
C78.74 135.18 78.83 135.42 78.89 135.76
L78.91 135.88
L79.04 135.87
L79.75 135.80
L79.89 135.79
L79.87 135.65
C79.81 135.05 79.61 134.58 79.29 134.26
C78.97 133.93 78.57 133.77 78.09 133.77
Z
" fill="white" fill-rule="nonzero" />
<path d="
M91.64 110.92
C91.64 110.92 91.64 110.92 91.64 110.92
C91.64 110.92 91.64 110.92 91.64 110.92
C91.75 110.92 91.85 110.96 91.93 111.03
C92.03 111.12 92.12 111.25 92.20 111.43
C92.37 111.80 92.46 112.56 92.46 113.70
C92.46 114.82 92.37 115.57 92.20 115.96
C92.12 116.14 92.04 116.27 91.94 116.36
C91.86 116.43 91.77 116.47 91.68 116.47
C91.68 116.47 91.68 116.47 91.68 116.47
C91.68 116.47 91.68 116.47 91.68 116.47
C91.57 116.47 91.48 116.43 91.39 116.36
C91.29 116.27 91.20 116.14 91.12 115.96
C90.96 115.59 90.87 114.83 90.87 113.70
C90.87 112.57 90.95 111.81 91.12 111.43
C91.20 111.25 91.29 111.12 91.38 111.03
C91.46 110.96 91.55 110.92 91.64 110.92
Z
M88.20 109.91
L88.16 110.01
C88.07 110.31 87.91 110.61 87.67 110.93
C87.44 111.24 87.17 111.51 86.87 111.73
L86.81 111.77
L86.81 111.84
L86.81 112.69
L86.81 112.93
L87.02 112.81
C87.22 112.70 87.43 112.54 87.66 112.34
C87.77 112.24 87.87 112.14 87.96 112.04
L87.96 112.04
L87.96 117.21
L87.96 117.35
L88.81 117.35
L88.81 117.21
L88.81 110.06
L88.81 109.91
Z
M91.67 109.91
C91.38 109.91 91.13 110.00 90.92 110.18
C90.71 110.35 90.54 110.59 90.40 110.92
C90.13 111.56 90.00 112.48 90.00 113.70
C90.00 115.05 90.15 116.01 90.44 116.58
C90.59 116.87 90.77 117.09 90.97 117.24
C91.18 117.39 91.41 117.47 91.66 117.47
C91.95 117.47 92.20 117.38 92.42 117.21
C92.62 117.04 92.80 116.79 92.94 116.46
C93.20 115.82 93.33 114.90 93.33 113.70
C93.33 112.35 93.17 111.36 92.85 110.74
C92.71 110.47 92.54 110.27 92.35 110.13
C92.15 109.99 91.92 109.91 91.67 109.91
Z
" fill="white" fill-rule="nonzero" />
<path d="
M90.09 124.00
L90.09 126.50
L88.67 126.50
L90.09 124.00
Z
M90.28 121.94
L90.24 122.01
L87.61 126.57
L87.59 126.60
L87.59 126.64
L87.59 127.43
L87.59 127.57
L90.09 127.57
L90.09 129.12
L90.09 129.26
L91.08 129.26
L91.08 129.12
L91.08 127.57
L91.87 127.57
L91.87 127.43
L91.87 126.64
L91.87 126.50
L91.08 126.50
L91.08 122.08
L91.08 121.94
Z
" fill="white" fill-rule="nonzero" />
<path d="
M88.01 134.03
L88.01 134.86
L90.83 134.86
C90.47 135.36 90.14 135.97 89.83 136.68
C89.52 137.39 89.27 138.13 89.10 138.92
C88.92 139.70 88.83 140.39 88.82 140.98
L89.55 140.98
C89.61 139.84 89.85 138.69 90.28 137.53
C90.70 136.37 91.19 135.43 91.74 134.70
L91.74 134.03
Z
" fill="black" fill-rule="nonzero" />
<path d="
M90.17 145.88
C90.05 146.18 89.84 146.50 89.54 146.82
C89.24 147.15 88.89 147.42 88.50 147.64
L88.50 148.48
C88.73 148.38 88.99 148.22 89.26 148.02
C89.54 147.82 89.76 147.63 89.92 147.44
L89.92 152.94
L90.63 152.94
L90.63 145.88
Z
" fill="black" fill-rule="nonzero" />
<path d="
M101.77 122.72
C102.06 122.72 102.32 122.86 102.54 123.15
C102.76 123.44 102.88 123.84 102.88 124.34
C102.88 124.84 102.77 125.23 102.55 125.51
C102.33 125.78 102.07 125.92 101.75 125.92
C101.44 125.92 101.16 125.79 100.94 125.51
C100.71 125.24 100.60 124.87 100.60 124.41
C100.60 123.90 100.72 123.49 100.95 123.18
C101.19 122.87 101.46 122.72 101.77 122.72
Z
M101.69 122.01
C101.18 122.01 100.75 122.22 100.40 122.64
C100.04 123.07 99.87 123.65 99.87 124.38
C99.87 125.09 100.04 125.66 100.38 126.07
C100.72 126.48 101.13 126.69 101.60 126.69
C101.85 126.69 102.11 126.60 102.36 126.44
C102.61 126.27 102.81 126.04 102.95 125.76
L102.95 125.93
C102.95 126.48 102.89 126.96 102.75 127.38
C102.62 127.79 102.45 128.08 102.26 128.24
C102.07 128.40 101.85 128.48 101.61 128.48
C101.08 128.48 100.76 128.11 100.65 127.37
L99.97 127.44
C100.03 128.01 100.21 128.44 100.50 128.74
C100.80 129.04 101.16 129.19 101.60 129.19
C101.99 129.19 102.34 129.07 102.65 128.82
C102.96 128.57 103.21 128.18 103.39 127.65
C103.57 127.12 103.66 126.37 103.66 125.40
C103.66 124.53 103.58 123.87 103.41 123.41
C103.24 122.95 103.00 122.60 102.69 122.36
C102.38 122.12 102.05 122.01 101.69 122.01
Z
" fill="black" fill-rule="nonzero" />
<path d="
M101.80 133.83
C101.22 133.83 100.75 134.01 100.39 134.38
C100.04 134.75 99.83 135.29 99.78 136.00
L99.77 136.13
L99.90 136.15
L100.63 136.24
L100.79 136.26
L100.79 136.10
C100.79 135.68 100.89 135.36 101.07 135.14
C101.26 134.93 101.49 134.83 101.77 134.83
C101.78 134.83 101.78 134.83 101.78 134.83
C101.78 134.83 101.78 134.83 101.78 134.83
C102.05 134.83 102.27 134.93 102.45 135.12
C102.63 135.32 102.73 135.58 102.73 135.90
C102.73 136.19 102.63 136.50 102.44 136.84
C102.24 137.18 101.81 137.68 101.16 138.33
C100.58 138.91 100.18 139.41 99.96 139.84
C99.74 140.28 99.63 140.68 99.64 141.04
L99.65 141.18
L103.74 141.18
L103.74 141.04
L103.74 140.21
L103.74 140.06
L101.01 140.06
C101.06 139.98 101.12 139.90 101.18 139.82
C101.30 139.67 101.57 139.38 101.99 138.95
C102.66 138.26 103.12 137.70 103.36 137.28
C103.61 136.85 103.73 136.39 103.73 135.92
C103.73 135.38 103.57 134.90 103.25 134.48
C102.92 134.05 102.44 133.83 101.80 133.83
Z
" fill="white" fill-rule="nonzero" />
<path d="
M112.11 122.02
C112.01 122.33 111.84 122.65 111.60 122.98
C111.36 123.31 111.08 123.58 110.76 123.81
L110.76 124.66
C110.95 124.55 111.15 124.40 111.38 124.20
C111.60 123.99 111.78 123.80 111.91 123.60
L111.91 129.17
L112.48 129.17
L112.48 122.02
Z
M115.74 122.02
C115.64 122.33 115.47 122.65 115.23 122.98
C114.99 123.31 114.71 123.58 114.39 123.81
L114.39 124.66
C114.58 124.55 114.78 124.40 115.01 124.20
C115.23 123.99 115.41 123.80 115.54 123.60
L115.54 129.17
L116.11 129.17
L116.11 122.02
Z
" fill="black" fill-rule="nonzero" />
<path d="
M112.01 133.79
L111.98 133.89
C111.88 134.18 111.72 134.49 111.49 134.80
C111.25 135.12 110.98 135.38 110.68 135.60
L110.62 135.64
L110.62 135.72
L110.62 136.56
L110.62 136.80
L110.83 136.69
C111.03 136.58 111.24 136.42 111.47 136.21
C111.58 136.11 111.68 136.01 111.77 135.91
L111.77 135.91
L111.77 141.08
L111.77 141.22
L112.63 141.22
L112.63 141.08
L112.63 133.93
L112.63 133.79
Z
M115.52 133.79
C115.04 133.79 114.65 133.98 114.35 134.36
C114.06 134.73 113.90 135.27 113.85 135.98
L113.85 136.11
L113.97 136.13
L114.56 136.22
L114.73 136.25
L114.73 136.08
C114.73 135.65 114.81 135.32 114.96 135.10
C115.10 134.90 115.28 134.79 115.50 134.79
C115.50 134.79 115.50 134.79 115.50 134.79
C115.50 134.79 115.50 134.79 115.50 134.79
C115.70 134.79 115.87 134.89 116.01 135.08
C116.17 135.28 116.24 135.55 116.24 135.88
C116.24 136.17 116.16 136.49 116.00 136.84
C115.84 137.19 115.50 137.70 114.97 138.36
C114.50 138.94 114.18 139.45 114.00 139.88
C113.82 140.32 113.74 140.72 113.75 141.08
L113.75 141.22
L117.12 141.22
L117.12 141.08
L117.12 140.24
L117.12 140.10
L114.90 140.10
C114.94 140.01 114.99 139.92 115.05 139.84
C115.14 139.68 115.36 139.39 115.70 138.96
C116.24 138.25 116.61 137.69 116.81 137.26
C117.01 136.83 117.11 136.37 117.11 135.90
C117.11 135.36 116.98 134.88 116.72 134.46
C116.45 134.01 116.05 133.79 115.52 133.79
Z
" fill="white" fill-rule="nonzero" />
<path d="
M124.02 121.96
C123.92 122.27 123.75 122.59 123.51 122.92
C123.26 123.24 122.98 123.52 122.67 123.75
L122.67 124.59
C122.85 124.49 123.06 124.34 123.28 124.13
C123.50 123.93 123.68 123.73 123.81 123.54
L123.81 129.11
L124.39 129.11
L124.39 121.96
Z
M127.33 121.96
C126.97 121.96 126.66 122.11 126.41 122.43
C126.16 122.74 125.99 123.20 125.92 123.81
L126.49 123.96
C126.53 123.53 126.63 123.21 126.78 123.00
C126.93 122.78 127.12 122.68 127.34 122.68
C127.55 122.68 127.73 122.78 127.88 122.98
C128.03 123.18 128.10 123.45 128.10 123.79
C128.10 124.15 128.01 124.44 127.84 124.66
C127.66 124.87 127.43 124.98 127.15 124.98
L127.06 124.97
L126.99 125.74
C127.15 125.67 127.29 125.64 127.40 125.64
C127.65 125.64 127.87 125.77 128.05 126.02
C128.22 126.27 128.31 126.61 128.31 127.02
C128.31 127.46 128.22 127.82 128.02 128.10
C127.83 128.37 127.60 128.51 127.34 128.51
C126.86 128.51 126.56 128.05 126.44 127.11
L125.86 127.23
C125.90 127.84 126.06 128.33 126.34 128.69
C126.61 129.06 126.95 129.24 127.35 129.24
C127.78 129.24 128.15 129.03 128.46 128.61
C128.77 128.20 128.92 127.66 128.92 127.01
C128.92 126.70 128.88 126.42 128.81 126.17
C128.73 125.92 128.63 125.72 128.51 125.57
C128.39 125.42 128.24 125.32 128.05 125.25
C128.25 125.11 128.41 124.91 128.52 124.67
C128.64 124.42 128.69 124.13 128.69 123.81
C128.69 123.27 128.56 122.83 128.30 122.48
C128.03 122.13 127.71 121.96 127.33 121.96
Z
" fill="black" fill-rule="nonzero" />
<path d="
M127.56 136.01
L127.56 138.43
L126.46 138.43
L127.56 136.01
Z
M123.91 133.79
L123.88 133.89
C123.79 134.18 123.62 134.49 123.39 134.80
C123.16 135.12 122.89 135.38 122.59 135.60
L122.53 135.64
L122.53 135.72
L122.53 136.56
L122.53 136.80
L122.74 136.69
C122.93 136.58 123.15 136.42 123.38 136.21
C123.49 136.11 123.58 136.01 123.67 135.91
L123.67 135.91
L123.67 141.08
L123.67 141.22
L124.53 141.22
L124.53 141.08
L124.53 133.93
L124.53 133.79
Z
M127.72 133.82
L127.68 133.90
L125.54 138.51
L125.53 138.54
L125.53 138.57
L125.53 139.37
L125.53 139.52
L127.56 139.52
L127.56 141.08
L127.56 141.22
L128.41 141.22
L128.41 141.08
L128.41 139.52
L129.05 139.52
L129.05 139.37
L129.05 138.57
L129.05 138.43
L128.41 138.43
L128.41 133.96
L128.41 133.82
Z
" fill="white" fill-rule="nonzero" />
<path d="
M135.92 121.96
C135.82 122.27 135.65 122.59 135.41 122.92
C135.17 123.25 134.89 123.52 134.57 123.75
L134.57 124.59
C134.76 124.49 134.96 124.34 135.19 124.14
C135.41 123.93 135.59 123.73 135.72 123.54
L135.72 129.11
L136.30 129.11
L136.30 121.96
Z
M138.32 122.09
L137.87 125.75
L138.41 125.85
C138.49 125.64 138.61 125.47 138.76 125.35
C138.92 125.22 139.08 125.16 139.25 125.16
C139.54 125.16 139.78 125.30 139.97 125.58
C140.16 125.86 140.26 126.26 140.26 126.77
C140.26 127.31 140.16 127.73 139.96 128.05
C139.76 128.36 139.53 128.52 139.26 128.52
C139.04 128.52 138.85 128.40 138.68 128.18
C138.52 127.96 138.41 127.62 138.37 127.17
L137.76 127.25
C137.80 127.87 137.96 128.36 138.24 128.71
C138.52 129.06 138.86 129.23 139.26 129.23
C139.75 129.23 140.14 128.99 140.43 128.49
C140.72 127.99 140.86 127.39 140.86 126.70
C140.86 125.99 140.72 125.43 140.43 125.02
C140.14 124.60 139.80 124.39 139.41 124.39
C139.10 124.39 138.80 124.54 138.53 124.84
L138.78 122.92
L140.64 122.92
L140.64 122.09
Z
" fill="black" fill-rule="nonzero" />
<path d="
M163.14 137.31
C163.34 137.31 163.52 137.43 163.66 137.66
C163.82 137.92 163.91 138.29 163.91 138.76
C163.91 139.25 163.82 139.63 163.66 139.91
C163.51 140.15 163.35 140.28 163.18 140.28
C163.18 140.28 163.18 140.28 163.18 140.28
C163.18 140.28 163.17 140.28 163.17 140.28
C162.97 140.28 162.79 140.15 162.62 139.88
C162.44 139.59 162.35 139.20 162.35 138.71
C162.35 138.27 162.43 137.92 162.60 137.67
C162.76 137.43 162.94 137.31 163.13 137.31
C163.14 137.31 163.14 137.31 163.14 137.31
C163.14 137.31 163.14 137.31 163.14 137.31
Z
M159.63 133.73
L159.60 133.82
C159.50 134.12 159.34 134.43 159.11 134.74
C158.87 135.06 158.61 135.32 158.30 135.54
L158.24 135.58
L158.24 135.65
L158.24 136.50
L158.24 136.74
L158.45 136.62
C158.65 136.52 158.86 136.36 159.09 136.15
C159.20 136.05 159.30 135.95 159.39 135.85
L159.39 135.85
L159.39 141.02
L159.39 141.16
L160.25 141.16
L160.25 141.02
L160.25 133.87
L160.25 133.73
Z
M163.22 133.73
C162.95 133.73 162.70 133.81 162.47 133.97
C162.25 134.13 162.06 134.37 161.89 134.68
C161.57 135.28 161.41 136.29 161.41 137.69
C161.41 138.95 161.57 139.86 161.88 140.41
C162.05 140.70 162.24 140.91 162.45 141.06
C162.67 141.21 162.91 141.28 163.17 141.28
C163.47 141.28 163.74 141.18 163.98 140.97
C164.22 140.77 164.41 140.46 164.56 140.05
C164.70 139.65 164.78 139.20 164.78 138.71
C164.78 137.98 164.63 137.39 164.34 136.95
C164.03 136.49 163.67 136.26 163.25 136.26
C162.99 136.26 162.75 136.35 162.53 136.53
C162.44 136.60 162.35 136.69 162.28 136.79
L162.28 136.79
C162.31 136.20 162.39 135.75 162.52 135.41
C162.61 135.18 162.72 135.00 162.83 134.88
C162.94 134.78 163.06 134.73 163.19 134.73
C163.19 134.73 163.19 134.73 163.19 134.73
C163.19 134.73 163.19 134.73 163.19 134.73
C163.36 134.73 163.50 134.82 163.62 135.01
C163.72 135.14 163.79 135.38 163.84 135.73
L163.86 135.87
L164.00 135.85
L164.57 135.78
L164.71 135.77
L164.69 135.63
C164.64 135.02 164.48 134.56 164.23 134.23
C163.96 133.90 163.62 133.73 163.22 133.73
Z
" fill="white" fill-rule="nonzero" />
</g>
<g  transform="translate(1.19,228.58)" >
<path d="
M106.49 2.94
C106.33 2.94 106.19 3.00 106.07 3.11
C105.96 3.23 105.90 3.37 105.90 3.53
C105.90 3.69 105.96 3.83 106.08 3.95
C106.19 4.07 106.33 4.12 106.49 4.12
C106.66 4.12 106.80 4.07 106.91 3.95
C107.02 3.83 107.08 3.69 107.08 3.53
C107.08 3.37 107.02 3.23 106.91 3.11
C106.80 3.00 106.66 2.94 106.49 2.94
Z
M128.07 3.54
C128.37 3.54 128.63 3.66 128.87 3.89
C129.10 4.12 129.28 4.46 129.41 4.89
C129.54 5.33 129.60 5.74 129.60 6.11
C129.60 6.42 129.57 6.82 129.50 7.32
C129.31 7.48 129.10 7.60 128.85 7.68
C128.61 7.77 128.40 7.81 128.22 7.81
C127.85 7.81 127.54 7.64 127.29 7.31
C126.94 6.85 126.77 6.21 126.77 5.39
C126.77 4.78 126.90 4.32 127.16 4.01
C127.42 3.70 127.72 3.54 128.07 3.54
Z
M111.46 8.04
L111.46 10.07
C110.98 10.46 110.60 10.65 110.30 10.65
C110.08 10.65 109.89 10.56 109.73 10.37
C109.56 10.19 109.48 9.96 109.48 9.68
C109.48 9.46 109.54 9.25 109.67 9.07
C109.81 8.88 110.02 8.70 110.33 8.53
C110.50 8.44 110.88 8.27 111.46 8.04
Z
M99.82 3.77
C100.75 3.77 101.51 4.08 102.10 4.71
C102.69 5.34 102.99 6.20 102.99 7.29
C102.99 8.37 102.69 9.23 102.10 9.86
C101.51 10.49 100.76 10.81 99.86 10.81
C99.53 10.81 99.12 10.75 98.62 10.64
L98.62 3.94
C99.07 3.83 99.47 3.77 99.82 3.77
Z
M96.37 3.33
L96.37 3.54
L96.67 3.54
C96.97 3.54 97.19 3.63 97.34 3.80
C97.45 3.92 97.51 4.23 97.51 4.72
L97.51 9.82
C97.51 10.26 97.46 10.55 97.38 10.68
C97.24 10.89 97.00 11.00 96.67 11.00
L96.37 11.00
L96.37 11.21
L99.90 11.21
C101.43 11.21 102.57 10.80 103.32 9.98
C103.98 9.24 104.32 8.33 104.32 7.23
C104.32 6.41 104.13 5.69 103.76 5.07
C103.38 4.44 102.89 4.00 102.27 3.73
C101.66 3.46 100.76 3.33 99.58 3.33
Z
M106.72 5.73
L105.12 6.38
L105.20 6.59
C105.35 6.53 105.48 6.50 105.59 6.50
C105.69 6.50 105.77 6.53 105.83 6.58
C105.89 6.62 105.93 6.71 105.96 6.83
C105.99 7.00 106.01 7.38 106.01 7.96
L106.01 10.01
C106.01 10.34 105.98 10.56 105.93 10.68
C105.88 10.79 105.81 10.88 105.72 10.93
C105.63 10.98 105.46 11.00 105.20 11.00
L105.20 11.21
L107.78 11.21
L107.78 11.00
C107.53 11.00 107.36 10.98 107.26 10.92
C107.17 10.87 107.10 10.79 107.05 10.68
C107.00 10.56 106.98 10.34 106.98 10.01
L106.98 5.73
Z
M122.63 3.16
L120.71 4.10
L120.79 4.28
C121.05 4.16 121.25 4.10 121.39 4.10
C121.49 4.10 121.58 4.13 121.65 4.19
C121.72 4.25 121.77 4.34 121.80 4.46
C121.84 4.62 121.86 4.99 121.86 5.57
L121.86 9.82
C121.86 10.30 121.84 10.58 121.79 10.67
C121.75 10.77 121.68 10.85 121.57 10.90
C121.46 10.96 121.22 10.99 120.85 11.00
L120.85 11.21
L123.81 11.21
L123.81 11.00
C123.46 10.99 123.22 10.96 123.10 10.90
C122.99 10.84 122.91 10.76 122.87 10.65
C122.84 10.54 122.82 10.27 122.82 9.82
L122.82 3.16
Z
M110.65 5.73
C110.03 5.73 109.56 5.87 109.21 6.15
C108.87 6.43 108.70 6.73 108.70 7.07
C108.70 7.24 108.75 7.38 108.84 7.48
C108.93 7.58 109.05 7.63 109.19 7.63
C109.34 7.63 109.46 7.58 109.55 7.49
C109.64 7.39 109.69 7.25 109.69 7.07
L109.67 6.74
C109.67 6.56 109.75 6.41 109.89 6.28
C110.04 6.15 110.23 6.08 110.48 6.08
C110.80 6.08 111.04 6.18 111.21 6.38
C111.38 6.58 111.46 6.94 111.46 7.47
L111.46 7.68
C110.55 8.02 109.90 8.30 109.50 8.53
C109.11 8.76 108.83 9.01 108.67 9.28
C108.56 9.47 108.50 9.69 108.50 9.95
C108.50 10.36 108.62 10.69 108.86 10.95
C109.09 11.20 109.40 11.32 109.77 11.32
C110.00 11.32 110.23 11.27 110.44 11.18
C110.57 11.11 110.92 10.87 111.46 10.45
C111.47 10.76 111.53 10.99 111.64 11.12
C111.75 11.25 111.90 11.32 112.09 11.32
C112.49 11.32 112.90 11.03 113.34 10.45
L113.34 10.12
C113.10 10.35 112.95 10.49 112.87 10.54
C112.82 10.57 112.77 10.58 112.70 10.58
C112.65 10.58 112.59 10.57 112.55 10.53
C112.50 10.49 112.47 10.41 112.45 10.30
C112.43 10.18 112.42 9.87 112.42 9.36
L112.42 7.55
C112.42 7.04 112.39 6.70 112.32 6.53
C112.21 6.28 112.04 6.09 111.81 5.97
C111.51 5.81 111.12 5.73 110.65 5.73
Z
M114.85 10.08
C114.67 10.08 114.52 10.15 114.39 10.27
C114.26 10.39 114.20 10.55 114.20 10.73
C114.20 10.91 114.26 11.06 114.39 11.19
C114.52 11.31 114.67 11.38 114.85 11.38
C115.03 11.38 115.18 11.31 115.30 11.19
C115.43 11.06 115.49 10.91 115.49 10.73
C115.49 10.55 115.43 10.40 115.31 10.27
C115.18 10.15 115.03 10.08 114.85 10.08
Z
M128.19 3.16
C127.43 3.16 126.80 3.49 126.33 4.15
C125.93 4.69 125.73 5.30 125.73 5.99
C125.73 6.70 125.93 7.27 126.33 7.70
C126.72 8.13 127.20 8.34 127.75 8.34
C128.25 8.34 128.80 8.14 129.40 7.75
L129.40 7.75
C129.25 8.43 128.96 9.05 128.56 9.62
C128.15 10.19 127.73 10.58 127.30 10.81
C126.86 11.04 126.40 11.15 125.89 11.16
L125.89 11.38
L126.22 11.38
C126.96 11.38 127.64 11.17 128.26 10.76
C129.03 10.26 129.63 9.63 130.06 8.87
C130.49 8.11 130.71 7.30 130.71 6.42
C130.71 5.45 130.42 4.63 129.86 3.97
C129.40 3.43 128.84 3.16 128.19 3.16
Z
" fill="black" fill-rule="nonzero" />
</g>
</g>
</svg>
