<?xml version="1.0" encoding="utf-8" standalone="no"?>
<!DOCTYPE svg PUBLIC "-//W3C//DTD SVG 1.0//EN" "http://www.w3.org/TR/SVG/DTD/svg11.dtd" >
<svg version="1.1" baseProfile="full"  width="319.13385" height="338.46454" viewBox="0 0 229.77638 243.69449" preserveAspectRatio="xMidYMid" xmlns="http://www.w3.org/2000/svg" >

<g lengthAdjust="spacingAndGlyphs" xml:space='preserve' >
<g  transform="translate(1.19,1.19)" >
<path d="
M0.0 0.0
L0.0 227.39
L227.39 227.39
L227.39 0.0
Z
" fill="none" fill-rule="nonzero" />
<line x1="6.54" y1="6.54" x2="6.54" y2="220.84" fill="none" stroke="black" stroke-width="0.87px" stroke-linecap="square" />
<line x1="18.45" y1="6.54" x2="18.45" y2="220.84" fill="none" stroke="black" stroke-width="0.25px" stroke-linecap="butt" />
<line x1="30.35" y1="6.54" x2="30.35" y2="220.84" fill="none" stroke="black" stroke-width="0.25px" stroke-linecap="butt" />
<line x1="42.26" y1="6.54" x2="42.26" y2="220.84" fill="none" stroke="black" stroke-width="0.25px" stroke-linecap="butt" />
<line x1="54.17" y1="6.54" x2="54.17" y2="220.84" fill="none" stroke="black" stroke-width="0.25px" stroke-linecap="butt" />
<line x1="66.07" y1="6.54" x2="66.07" y2="220.84" fill="none" stroke="black" stroke-width="0.25px" stroke-linecap="butt" />
<line x1="77.98" y1="6.54" x2="77.98" y2="220.84" fill="none" stroke="black" stroke-width="0.25px" stroke-linecap="butt" />
<line x1="89.88" y1="6.54" x2="89.88" y2="220.84" fill="none" stroke="black" stroke-width="0.25px" stroke-linecap="butt" />
<line x1="101.79" y1="6.54" x2="101.79" y2="220.84" fill="none" stroke="black" stroke-width="0.25px" stroke-linecap="butt" />
<line x1="113.69" y1="6.54" x2="113.69" y2="220.84" fill="none" stroke="black" stroke-width="0.25px" stroke-linecap="butt" />
<line x1="125.60" y1="6.54" x2="125.60" y2="220.84" fill="none" stroke="black" stroke-width="0.25px" stroke-linecap="butt" />
<line x1="137.50" y1="6.54" x2="137.50" y2="220.84" fill="none" stroke="black" stroke-width="0.25px" stroke-linecap="butt" />
<line x1="149.41" y1="6.54" x2="149.41" y2="220.84" fill="none" stroke="black" stroke-width="0.25px" stroke-linecap="butt" />
<line x1="161.31" y1="6.54" x2="161.31" y2="220.84" fill="none" stroke="black" stroke-width="0.25px" stroke-linecap="butt" />
<line x1="173.22" y1="6.54" x2="173.22" y2="220.84" fill="none" stroke="black" stroke-width="0.25px" stroke-linecap="butt" />
<line x1="185.13" y1="6.54" x2="185.13" y2="220.84" fill="none" stroke="black" stroke-width="0.25px" stroke-linecap="butt" />
<line x1="197.03" y1="6.54" x2="197.03" y2="220.84" fill="none" stroke="black" stroke-width="0.25px" stroke-linecap="butt" />
<line x1="208.94" y1="6.54" x2="208.94" y2="220.84" fill="none" stroke="black" stroke-width="0.25px" stroke-linecap="butt" />
<line x1="220.84" y1="6.54" x2="220.84" y2="220.84" fill="none" stroke="black" stroke-width="0.87px" stroke-linecap="square" />
<line x1="6.54" y1="6.54" x2="220.84" y2="6.54" fill="none" stroke="black" stroke-width="0.87px" stroke-linecap="square" />
<line x1="6.54" y1="18.45" x2="220.84" y2="18.45" fill="none" stroke="black" stroke-width="0.25px" stroke-linecap="butt" />
<line x1="6.54" y1="30.35" x2="220.84" y2="30.35" fill="none" stroke="black" stroke-width="0.25px" stroke-linecap="butt" />
<line x1="6.54" y1="42.26" x2="220.84" y2="42.26" fill="none" stroke="black" stroke-width="0.25px" stroke-linecap="butt" />
<line x1="6.54" y1="54.17" x2="220.84" y2="54.17" fill="none" stroke="black" stroke-width="0.25px" stroke-linecap="butt" />
<line x1="6.54" y1="66.07" x2="220.84" y2="66.07" fill="none" stroke="black" stroke-width="0.25px" stroke-linecap="butt" />
<line x1="6.54" y1="77.98" x2="220.84" y2="77.98" fill="none" stroke="black" stroke-width="0.25px" stroke-linecap="butt" />
<line x1="6.54" y1="89.88" x2="220.84" y2="89.88" fill="none" stroke="black" stroke-width="0.25px" stroke-linecap="butt" />
<line x1="6.54" y1="101.79" x2="220.84" y2="101.79" fill="none" stroke="black" stroke-width="0.25px" stroke-linecap="butt" />
<line x1="6.54" y1="113.69" x2="220.84" y2="113.69" fill="none" stroke="black" stroke-width="0.25px" stroke-linecap="butt" />
<line x1="6.54" y1="125.60" x2="220.84" y2="125.60" fill="none" stroke="black" stroke-width="0.25px" stroke-linecap="butt" />
<line x1="6.54" y1="137.50" x2="220.84" y2="137.50" fill="none" stroke="black" stroke-width="0.25px" stroke-linecap="butt" />
<line x1="6.54" y1="149.41" x2="220.84" y2="149.41" fill="none" stroke="black" stroke-width="0.25px" stroke-linecap="butt" />
<line x1="6.54" y1="161.31" x2="220.84" y2="161.31" fill="none" stroke="black" stroke-width="0.25px" stroke-linecap="butt" />
<line x1="6.54" y1="173.22" x2="220.84" y2="173.22" fill="none" stroke="black" stroke-width="0.25px" stroke-linecap="butt" />
<line x1="6.54" y1="185.13" x2="220.84" y2="185.13" fill="none" stroke="black" stroke-width="0.25px" stroke-linecap="butt" />
<line x1="6.54" y1="197.03" x2="220.84" y2="197.03" fill="none" stroke="black" stroke-width="0.25px" stroke-linecap="butt" />
<line x1="6.54" y1="208.94" x2="220.84" y2="208.94" fill="none" stroke="black" stroke-width="0.25px" stroke-linecap="butt" />
<line x1="6.54" y1="220.84" x2="220.84" y2="220.84" fill="none" stroke="black" stroke-width="0.87px" stroke-linecap="square" />
<circle cx="30.35" cy="54.17" r="5.98" fill="black"/>
<circle cx="30.35" cy="77.98" r="5.85" fill="white"/>
<circle cx="30.35" cy="77.98" r="5.85" fill="none" stroke="black" stroke-width="0.25px"/>
<circle cx="30.35" cy="89.88" r="5.85" fill="white"/>
<circle cx="30.35" cy="89.88" r="5.85" fill="none" stroke="black" stroke-width="0.25px"/>
<circle cx="30.35" cy="125.60" r="5.85" fill="white"/>
<circle cx="30.35" cy="125.60" r="5.85" fill="none" stroke="black" stroke-width="0.25px"/>
<circle cx="30.35" cy="161.31" r="5.85" fill="white"/>
<circle cx="30.35" cy="161.31" r="5.85" fill="none" stroke="black" stroke-width="0.25px"/>
<circle cx="30.35" cy="173.22" r="5.85" fill="white"/>
<circle cx="30.35" cy="173.22" r="5.85" fill="none" stroke="black" stroke-width="0.25px"/>
<circle cx="30.35" cy="185.13" r="5.98" fill="black"/>
<circle cx="42.26" cy="30.35" r="5.85" fill="white"/>
<circle cx="42.26" cy="30.35" r="5.85" fill="none" stroke="black" stroke-width="0.25px"/>
<circle cx="42.26" cy="42.26" r="1.27" fill="black"/>
<circle cx="42.26" cy="77.98" r="5.85" fill="white"/>
<circle cx="42.26" cy="77.98" r="5.85" fill="none" stroke="black" stroke-width="0.25px"/>
<circle cx="42.26" cy="89.88" r="5.98" fill="black"/>
<circle cx="42.26" cy="101.79" r="5.85" fill="white"/>
<circle cx="42.26" cy="101.79" r="5.85" fill="none" stroke="black" stroke-width="0.25px"/>
<circle cx="42.26" cy="113.69" r="5.85" fill="white"/>
<circle cx="42.26" cy="113.69" r="5.85" fill="none" stroke="black" stroke-width="0.25px"/>
<circle cx="42.26" cy="149.41" r="5.85" fill="white"/>
<circle cx="42.26" cy="149.41" r="5.85" fill="none" stroke="black" stroke-width="0.25px"/>
<circle cx="42.26" cy="161.31" r="5.98" fill="black"/>
<circle cx="42.26" cy="185.13" r="5.98" fill="black"/>
<circle cx="54.17" cy="66.07" r="5.98" fill="black"/>
<circle cx="54.17" cy="77.98" r="5.98" fill="black"/>
<circle cx="54.17" cy="89.88" r="5.98" fill="black"/>
<circle cx="54.17" cy="101.79" r="5.98" fill="black"/>
<circle cx="54.17" cy="161.31" r="5.98" fill="black"/>
<circle cx="66.07" cy="125.60" r="5.98" fill="black"/>
<circle cx="66.07" cy="197.03" r="5.98" fill="black"/>
<circle cx="77.98" cy="30.35" r="5.85" fill="white"/>
<circle cx="77.98" cy="30.35" r="5.85" fill="none" stroke="black" stroke-width="0.25px"/>
<circle cx="77.98" cy="101.79" r="5.98" fill="black"/>
<circle cx="77.98" cy="113.69" r="5.85" fill="white"/>
<circle cx="77.98" cy="113.69" r="5.85" fill="none" stroke="black" stroke-width="0.25px"/>
<circle cx="77.98" cy="125.60" r="5.85" fill="white"/>
<circle cx="77.98" cy="125.60" r="5.85" fill="none" stroke="black" stroke-width="0.25px"/>
<circle cx="77.98" cy="137.50" r="5.98" fill="black"/>
<circle cx="77.98" cy="149.41" r="5.98" fill="black"/>
<circle cx="89.88" cy="66.07" r="5.85" fill="white"/>
<circle cx="89.88" cy="66.07" r="5.85" fill="none" stroke="black" stroke-width="0.25px"/>
<circle cx="89.88" cy="77.98" r="5.85" fill="white"/>
<circle cx="89.88" cy="77.98" r="5.85" fill="none" stroke="black" stroke-width="0.25px"/>
<circle cx="89.88" cy="89.88" r="5.85" fill="white"/>
<circle cx="89.88" cy="89.88" r="5.85" fill="none" stroke="black" stroke-width="0.25px"/>
<circle cx="89.88" cy="101.79" r="5.98" fill="black"/>
<circle cx="89.88" cy="113.69" r="5.98" fill="black"/>
<circle cx="89.88" cy="125.60" r="5.98" fill="black"/>
<circle cx="89.88" cy="137.50" r="5.85" fill="white"/>
<circle cx="89.88" cy="137.50" r="5.85" fill="none" stroke="black" stroke-width="0.25px"/>
<circle cx="89.88" cy="149.41" r="5.85" fill="white"/>
<circle cx="89.88" cy="149.41" r="5.85" fill="none" stroke="black" stroke-width="0.25px"/>
<circle cx="89.88" cy="161.31" r="5.85" fill="white"/>
<circle cx="89.88" cy="161.31" r="5.85" fill="none" stroke="black" stroke-width="0.25px"/>
<circle cx="89.88" cy="185.13" r="5.85" fill="white"/>
<circle cx="89.88" cy="185.13" r="5.85" fill="none" stroke="black" stroke-width="0.25px"/>
<circle cx="101.79" cy="77.98" r="5.98" fill="black"/>
<circle cx="101.79" cy="89.88" r="5.85" fill="white"/>
<circle cx="101.79" cy="89.88" r="5.85" fill="none" stroke="black" stroke-width="0.25px"/>
<circle cx="101.79" cy="101.79" r="5.98" fill="black"/>
<circle cx="101.79" cy="113.69" r="5.85" fill="white"/>
<circle cx="101.79" cy="113.69" r="5.85" fill="none" stroke="black" stroke-width="0.25px"/>
<circle cx="101.79" cy="125.60" r="5.85" fill="white"/>
<circle cx="101.79" cy="125.60" r="5.85" fill="none" stroke="black" stroke-width="0.25px"/>
<circle cx="101.79" cy="137.50" r="5.98" fill="black"/>
<circle cx="101.79" cy="149.41" r="5.98" fill="black"/>
<circle cx="101.79" cy="185.13" r="5.85" fill="white"/>
<circle cx="101.79" cy="185.13" r="5.85" fill="none" stroke="black" stroke-width="0.25px"/>
<circle cx="101.79" cy="197.03" r="5.98" fill="black"/>
<circle cx="113.69" cy="30.35" r="5.85" fill="white"/>
<circle cx="113.69" cy="30.35" r="5.85" fill="none" stroke="black" stroke-width="0.25px"/>
<circle cx="113.69" cy="42.26" r="1.27" fill="black"/>
<circle cx="113.69" cy="54.17" r="5.85" fill="white"/>
<circle cx="113.69" cy="54.17" r="5.85" fill="none" stroke="black" stroke-width="0.25px"/>
<circle cx="113.69" cy="77.98" r="5.98" fill="black"/>
<circle cx="113.69" cy="89.88" r="5.85" fill="white"/>
<circle cx="113.69" cy="89.88" r="5.85" fill="none" stroke="black" stroke-width="0.25px"/>
<circle cx="113.69" cy="101.79" r="5.85" fill="white"/>
<circle cx="113.69" cy="101.79" r="5.85" fill="none" stroke="black" stroke-width="0.25px"/>
<circle cx="113.69" cy="113.69" r="5.85" fill="white"/>
<circle cx="113.69" cy="113.69" r="5.85" fill="none" stroke="black" stroke-width="0.25px"/>
<circle cx="113.69" cy="125.60" r="5.98" fill="black"/>
<circle cx="113.69" cy="137.50" r="5.85" fill="white"/>
<circle cx="113.69" cy="137.50" r="5.85" fill="none" stroke="black" stroke-width="0.25px"/>
<circle cx="113.69" cy="161.31" r="5.98" fill="black"/>
<circle cx="113.69" cy="185.13" r="1.27" fill="black"/>
<circle cx="113.69" cy="208.94" r="5.98" fill="black"/>
<circle cx="125.60" cy="89.88" r="5.98" fill="black"/>
<circle cx="125.60" cy="113.69" r="5.85" fill="white"/>
<circle cx="125.60" cy="113.69" r="5.85" fill="none" stroke="black" stroke-width="0.25px"/>
<circle cx="125.60" cy="125.60" r="5.98" fill="black"/>
<circle cx="125.60" cy="197.03" r="5.85" fill="white"/>
<circle cx="125.60" cy="197.03" r="5.85" fill="none" stroke="black" stroke-width="0.25px"/>
<circle cx="125.60" cy="208.94" r="5.85" fill="white"/>
<circle cx="125.60" cy="208.94" r="5.85" fill="none" stroke="black" stroke-width="0.25px"/>
<circle cx="137.50" cy="30.35" r="5.98" fill="black"/>
<circle cx="137.50" cy="54.17" r="5.98" fill="black"/>
<circle cx="137.50" cy="77.98" r="5.98" fill="black"/>
<circle cx="137.50" cy="89.88" r="5.85" fill="white"/>
<circle cx="137.50" cy="89.88" r="5.85" fill="none" stroke="black" stroke-width="0.25px"/>
<circle cx="137.50" cy="113.69" r="5.85" fill="white"/>
<circle cx="137.50" cy="113.69" r="5.85" fill="none" stroke="black" stroke-width="0.25px"/>
<circle cx="137.50" cy="125.60" r="5.98" fill="black"/>
<circle cx="137.50" cy="185.13" r="5.85" fill="white"/>
<circle cx="137.50" cy="185.13" r="5.85" fill="none" stroke="black" stroke-width="0.25px"/>
<circle cx="149.41" cy="89.88" r="5.98" fill="black"/>
<circle cx="149.41" cy="125.60" r="5.98" fill="black"/>
<circle cx="149.41" cy="149.41" r="5.98" fill="black"/>
<circle cx="149.41" cy="173.22" r="5.85" fill="white"/>
<circle cx="149.41" cy="173.22" r="5.85" fill="none" stroke="black" stroke-width="0.25px"/>
<circle cx="149.41" cy="197.03" r="5.98" fill="black"/>
<circle cx="173.22" cy="89.88" r="5.98" fill="black"/>
<circle cx="173.22" cy="113.69" r="5.98" fill="black"/>
<circle cx="173.22" cy="185.13" r="5.85" fill="white"/>
<circle cx="173.22" cy="185.13" r="5.85" fill="none" stroke="black" stroke-width="0.25px"/>
<circle cx="185.13" cy="30.35" r="5.98" fill="black"/>
<circle cx="185.13" cy="42.26" r="5.98" fill="black"/>
<circle cx="185.13" cy="113.69" r="1.27" fill="black"/>
<circle cx="185.13" cy="161.31" r="5.85" fill="white"/>
<circle cx="185.13" cy="161.31" r="5.85" fill="none" stroke="black" stroke-width="0.25px"/>
<circle cx="185.13" cy="185.13" r="1.27" fill="black"/>
<circle cx="185.13" cy="197.03" r="5.85" fill="white"/>
<circle cx="185.13" cy="197.03" r="5.85" fill="none" stroke="black" stroke-width="0.25px"/>
<circle cx="197.03" cy="89.88" r="5.98" fill="black"/>
<circle cx="197.03" cy="113.69" r="5.85" fill="white"/>
<circle cx="197.03" cy="113.69" r="5.85" fill="none" stroke="black" stroke-width="0.25px"/>
<circle cx="197.03" cy="125.60" r="5.85" fill="white"/>
<circle cx="197.03" cy="125.60" r="5.85" fill="none" stroke="black" stroke-width="0.25px"/>
<circle cx="197.03" cy="137.50" r="5.85" fill="white"/>
<circle cx="197.03" cy="137.50" r="5.85" fill="none" stroke="black" stroke-width="0.25px"/>
<circle cx="197.03" cy="149.41" r="5.85" fill="white"/>
<circle cx="197.03" cy="149.41" r="5.85" fill="none" stroke="black" stroke-width="0.25px"/>
<circle cx="197.03" cy="173.22" r="5.98" fill="black"/>
<circle cx="208.94" cy="113.69" r="5.98" fill="black"/>
<circle cx="208.94" cy="125.60" r="5.98" fill="black"/>
<circle cx="208.94" cy="137.50" r="5.98" fill="black"/>
<circle cx="208.94" cy="149.41" r="5.85" fill="white"/>
<circle cx="208.94" cy="149.41" r="5.85" fill="none" stroke="black" stroke-width="0.25px"/>
<path d="
M76.17 98.07
C75.69 98.07 75.30 98.26 75.00 98.64
C74.72 99.01 74.55 99.55 74.51 100.26
L74.50 100.39
L74.63 100.41
L75.22 100.50
L75.38 100.53
L75.38 100.36
C75.38 99.93 75.46 99.61 75.61 99.39
C75.75 99.18 75.93 99.08 76.15 99.08
C76.15 99.08 76.15 99.08 76.15 99.08
C76.15 99.08 76.16 99.08 76.16 99.08
C76.36 99.08 76.53 99.17 76.67 99.36
C76.82 99.57 76.89 99.83 76.89 100.16
C76.89 100.46 76.82 100.78 76.66 101.12
C76.50 101.48 76.15 101.98 75.62 102.64
C75.16 103.22 74.83 103.73 74.66 104.17
C74.48 104.61 74.39 105.01 74.40 105.37
L74.40 105.50
L77.77 105.50
L77.77 105.36
L77.77 104.52
L77.77 104.38
L75.55 104.38
C75.60 104.29 75.65 104.21 75.70 104.12
C75.80 103.97 76.02 103.67 76.35 103.24
C76.90 102.54 77.27 101.97 77.46 101.55
C77.66 101.11 77.76 100.66 77.76 100.18
C77.76 99.65 77.63 99.16 77.38 98.74
C77.10 98.29 76.70 98.07 76.17 98.07
Z
M79.92 98.07
L79.89 98.17
C79.80 98.46 79.63 98.77 79.40 99.08
C79.17 99.40 78.90 99.67 78.59 99.88
L78.53 99.93
L78.53 100.00
L78.53 100.84
L78.53 101.09
L78.74 100.97
C78.94 100.86 79.15 100.70 79.39 100.49
C79.49 100.39 79.59 100.29 79.68 100.20
L79.68 100.20
L79.68 105.36
L79.68 105.50
L80.54 105.50
L80.54 105.36
L80.54 98.21
L80.54 98.07
Z
" fill="white" fill-rule="nonzero" />
<path d="
M78.17 145.73
L78.13 145.82
C78.02 146.12 77.82 146.42 77.53 146.73
C77.24 147.04 76.91 147.30 76.53 147.52
L76.46 147.56
L76.46 147.64
L76.46 148.48
L76.46 148.70
L76.66 148.61
C76.90 148.50 77.16 148.35 77.44 148.14
C77.60 148.02 77.75 147.90 77.87 147.79
L77.87 147.79
L77.87 152.94
L77.87 153.08
L78.87 153.08
L78.87 152.94
L78.87 145.88
L78.87 145.73
Z
" fill="white" fill-rule="nonzero" />
<path d="
M91.67 63.15
C91.88 63.15 92.06 63.26 92.21 63.47
C92.36 63.68 92.44 63.96 92.44 64.29
C92.44 64.61 92.37 64.88 92.22 65.08
C92.07 65.29 91.89 65.39 91.68 65.39
C91.47 65.39 91.28 65.28 91.14 65.08
C90.99 64.87 90.92 64.59 90.92 64.24
C90.92 63.93 90.99 63.67 91.14 63.46
C91.29 63.26 91.47 63.15 91.67 63.15
Z
M91.67 66.10
C91.93 66.10 92.16 66.24 92.35 66.50
C92.54 66.77 92.63 67.12 92.63 67.56
C92.63 67.99 92.54 68.34 92.35 68.60
C92.17 68.86 91.95 68.99 91.68 68.99
C91.42 68.99 91.19 68.85 91.01 68.59
C90.82 68.32 90.73 67.97 90.73 67.53
C90.73 67.11 90.82 66.77 91.00 66.50
C91.18 66.24 91.40 66.10 91.67 66.10
Z
M88.08 62.43
C87.64 62.43 87.29 62.61 87.02 62.95
C86.75 63.30 86.60 63.81 86.55 64.49
L87.15 64.59
C87.15 64.13 87.23 63.77 87.40 63.53
C87.57 63.28 87.79 63.16 88.06 63.16
C88.31 63.16 88.52 63.27 88.69 63.50
C88.86 63.73 88.94 64.02 88.94 64.39
C88.94 64.70 88.86 65.04 88.69 65.41
C88.53 65.77 88.18 66.29 87.64 66.95
C87.18 67.53 86.87 68.02 86.69 68.44
C86.52 68.86 86.44 69.25 86.45 69.59
L89.54 69.59
L89.54 68.75
L87.24 68.75
C87.30 68.59 87.39 68.43 87.49 68.27
C87.59 68.11 87.81 67.81 88.15 67.38
C88.68 66.68 89.05 66.13 89.24 65.71
C89.43 65.29 89.53 64.86 89.53 64.41
C89.53 63.89 89.41 63.44 89.16 63.04
C88.92 62.63 88.56 62.43 88.08 62.43
Z
M91.67 62.43
C91.28 62.43 90.96 62.60 90.71 62.94
C90.45 63.28 90.32 63.72 90.32 64.27
C90.32 64.63 90.38 64.93 90.50 65.17
C90.62 65.41 90.79 65.59 91.02 65.72
C90.75 65.83 90.53 66.04 90.37 66.35
C90.22 66.66 90.14 67.05 90.14 67.53
C90.14 68.18 90.29 68.71 90.58 69.11
C90.87 69.51 91.24 69.71 91.68 69.71
C92.12 69.71 92.48 69.51 92.78 69.11
C93.07 68.71 93.22 68.19 93.22 67.55
C93.22 67.09 93.14 66.71 92.99 66.40
C92.84 66.09 92.62 65.86 92.34 65.72
C92.57 65.59 92.74 65.41 92.85 65.17
C92.97 64.93 93.03 64.64 93.03 64.29
C93.03 63.75 92.90 63.30 92.64 62.95
C92.38 62.61 92.06 62.43 91.67 62.43
Z
" fill="black" fill-rule="nonzero" />
<path d="
M88.08 74.40
C87.64 74.40 87.29 74.57 87.02 74.92
C86.75 75.26 86.60 75.78 86.55 76.46
L87.15 76.55
C87.15 76.09 87.23 75.74 87.40 75.49
C87.57 75.25 87.79 75.12 88.06 75.12
C88.31 75.12 88.52 75.24 88.69 75.47
C88.86 75.70 88.94 75.99 88.94 76.35
C88.94 76.67 88.86 77.01 88.69 77.37
C88.53 77.74 88.18 78.25 87.64 78.92
C87.18 79.49 86.87 79.99 86.69 80.41
C86.52 80.83 86.44 81.21 86.45 81.55
L89.54 81.55
L89.54 80.71
L87.24 80.71
C87.30 80.55 87.39 80.39 87.49 80.24
C87.59 80.08 87.81 79.78 88.15 79.34
C88.68 78.65 89.05 78.09 89.24 77.68
C89.43 77.26 89.53 76.83 89.53 76.37
C89.53 75.86 89.41 75.40 89.16 75.00
C88.92 74.60 88.56 74.40 88.08 74.40
Z
M91.71 74.40
C91.27 74.40 90.92 74.57 90.65 74.92
C90.38 75.26 90.23 75.78 90.18 76.46
L90.78 76.55
C90.78 76.09 90.86 75.74 91.03 75.49
C91.20 75.25 91.42 75.12 91.69 75.12
C91.94 75.12 92.15 75.24 92.32 75.47
C92.49 75.70 92.57 75.99 92.57 76.35
C92.57 76.67 92.49 77.01 92.32 77.37
C92.16 77.74 91.81 78.25 91.27 78.92
C90.81 79.49 90.50 79.99 90.32 80.41
C90.15 80.83 90.07 81.21 90.08 81.55
L93.17 81.55
L93.17 80.71
L90.87 80.71
C90.93 80.55 91.02 80.39 91.12 80.24
C91.22 80.08 91.44 79.78 91.78 79.34
C92.31 78.65 92.68 78.09 92.87 77.68
C93.06 77.26 93.16 76.83 93.16 76.37
C93.16 75.86 93.04 75.40 92.79 75.00
C92.55 74.60 92.19 74.40 91.71 74.40
Z
" fill="black" fill-rule="nonzero" />
<path d="
M91.64 86.97
C91.92 86.97 92.15 87.16 92.33 87.56
C92.51 87.95 92.60 88.72 92.60 89.88
C92.60 91.03 92.51 91.80 92.33 92.20
C92.16 92.60 91.94 92.80 91.68 92.80
C91.40 92.80 91.17 92.60 91.00 92.21
C90.82 91.82 90.73 91.04 90.73 89.88
C90.73 88.74 90.82 87.97 90.99 87.57
C91.17 87.17 91.38 86.97 91.64 86.97
Z
M88.08 86.25
C87.64 86.25 87.29 86.42 87.02 86.76
C86.75 87.11 86.60 87.62 86.55 88.31
L87.15 88.40
C87.15 87.94 87.23 87.58 87.40 87.34
C87.57 87.09 87.79 86.97 88.06 86.97
C88.31 86.97 88.52 87.08 88.69 87.31
C88.86 87.54 88.94 87.84 88.94 88.20
C88.94 88.51 88.86 88.85 88.69 89.22
C88.53 89.58 88.18 90.10 87.64 90.76
C87.18 91.34 86.87 91.83 86.69 92.25
C86.52 92.68 86.44 93.06 86.45 93.40
L89.54 93.40
L89.54 92.56
L87.24 92.56
C87.30 92.40 87.39 92.24 87.49 92.08
C87.59 91.92 87.81 91.62 88.15 91.19
C88.68 90.49 89.05 89.94 89.24 89.52
C89.43 89.11 89.53 88.67 89.53 88.22
C89.53 87.71 89.41 87.25 89.16 86.85
C88.92 86.45 88.56 86.25 88.08 86.25
Z
M91.67 86.25
C91.17 86.25 90.79 86.55 90.53 87.17
C90.27 87.78 90.14 88.69 90.14 89.88
C90.14 91.22 90.28 92.16 90.57 92.70
C90.85 93.25 91.22 93.52 91.66 93.52
C92.17 93.52 92.55 93.21 92.80 92.59
C93.06 91.98 93.19 91.07 93.19 89.88
C93.19 88.56 93.03 87.60 92.72 86.99
C92.47 86.49 92.12 86.25 91.67 86.25
Z
" fill="black" fill-rule="nonzero" />
<path d="
M89.86 99.05
C89.86 99.05 89.86 99.05 89.86 99.05
C89.86 99.05 89.86 99.05 89.87 99.05
C90.11 99.05 90.33 99.18 90.52 99.43
C90.73 99.69 90.83 100.06 90.83 100.53
C90.83 101.00 90.73 101.36 90.53 101.61
C90.35 101.85 90.12 101.97 89.85 101.97
C89.85 101.97 89.85 101.97 89.85 101.97
C89.85 101.97 89.85 101.97 89.85 101.97
C89.57 101.97 89.34 101.85 89.14 101.61
C88.94 101.36 88.83 101.03 88.83 100.60
C88.83 100.12 88.94 99.74 89.16 99.46
C89.37 99.19 89.60 99.05 89.86 99.05
Z
M89.78 98.05
C89.23 98.05 88.77 98.28 88.38 98.74
C88.01 99.19 87.82 99.80 87.82 100.57
C87.82 101.32 88.00 101.91 88.36 102.35
C88.73 102.79 89.18 103.02 89.69 103.02
C89.98 103.02 90.26 102.92 90.53 102.74
C90.67 102.65 90.79 102.54 90.90 102.42
L90.90 102.42
C90.88 102.83 90.82 103.20 90.71 103.52
C90.59 103.91 90.44 104.17 90.26 104.32
C90.10 104.46 89.91 104.53 89.71 104.53
C89.71 104.53 89.71 104.53 89.71 104.53
C89.71 104.53 89.71 104.53 89.71 104.53
C89.48 104.53 89.31 104.45 89.18 104.30
C89.04 104.13 88.94 103.88 88.89 103.54
L88.87 103.40
L88.73 103.42
L88.05 103.49
L87.91 103.51
L87.93 103.65
C87.99 104.25 88.18 104.71 88.49 105.03
C88.82 105.36 89.22 105.52 89.69 105.52
C90.11 105.52 90.49 105.39 90.83 105.12
C91.17 104.86 91.43 104.45 91.62 103.88
C91.81 103.34 91.90 102.57 91.90 101.59
C91.90 100.70 91.81 100.02 91.64 99.55
C91.46 99.06 91.20 98.69 90.87 98.44
C90.53 98.18 90.17 98.05 89.78 98.05
Z
" fill="white" fill-rule="nonzero" />
<path d="
M89.78 109.96
C89.30 109.96 88.89 110.12 88.54 110.46
C88.21 110.79 87.99 111.27 87.90 111.90
L87.88 112.03
L88.01 112.06
L88.71 112.21
L88.87 112.25
L88.89 112.09
C88.93 111.70 89.04 111.40 89.21 111.22
C89.37 111.04 89.56 110.95 89.79 110.95
C89.79 110.95 89.79 110.95 89.79 110.95
C89.79 110.95 89.79 110.95 89.79 110.95
C90.01 110.95 90.20 111.03 90.35 111.20
C90.51 111.38 90.59 111.61 90.59 111.90
C90.59 112.22 90.50 112.47 90.31 112.66
C90.12 112.85 89.87 112.94 89.56 112.94
L89.56 112.94
L89.46 112.93
L89.32 112.92
L89.30 113.06
L89.22 113.82
L89.20 114.03
L89.41 113.97
C89.59 113.91 89.74 113.88 89.86 113.88
C89.86 113.88 89.86 113.88 89.86 113.88
C89.86 113.88 89.86 113.88 89.87 113.88
C90.14 113.88 90.37 113.99 90.56 114.20
C90.75 114.43 90.85 114.72 90.85 115.10
C90.85 115.50 90.74 115.82 90.53 116.07
C90.32 116.31 90.08 116.43 89.80 116.43
C89.80 116.43 89.80 116.43 89.80 116.43
C89.79 116.43 89.79 116.43 89.79 116.43
C89.54 116.43 89.33 116.33 89.18 116.14
C89.01 115.93 88.89 115.60 88.82 115.17
L88.79 115.03
L88.65 115.05
L87.94 115.17
L87.82 115.19
L87.83 115.32
C87.88 115.95 88.08 116.47 88.45 116.85
C88.82 117.24 89.27 117.43 89.81 117.43
C90.38 117.43 90.87 117.21 91.28 116.77
C91.68 116.33 91.89 115.77 91.89 115.08
C91.89 114.76 91.84 114.47 91.74 114.21
C91.64 113.94 91.50 113.73 91.34 113.57
C91.23 113.47 91.11 113.38 90.98 113.31
L90.98 113.31
C91.14 113.18 91.27 113.03 91.38 112.84
C91.53 112.57 91.60 112.27 91.60 111.92
C91.60 111.36 91.43 110.89 91.07 110.52
C90.72 110.14 90.29 109.96 89.78 109.96
Z
" fill="white" fill-rule="nonzero" />
<path d="
M89.89 160.99
C90.21 160.99 90.47 161.12 90.69 161.40
C90.91 161.67 91.01 162.06 91.01 162.56
C91.01 163.07 90.91 163.47 90.69 163.76
C90.47 164.05 90.22 164.20 89.94 164.20
C89.62 164.20 89.34 164.04 89.10 163.73
C88.86 163.43 88.74 163.02 88.74 162.51
C88.74 162.04 88.86 161.67 89.09 161.40
C89.32 161.12 89.58 160.99 89.89 160.99
Z
M90.00 157.72
C89.39 157.72 88.90 158.01 88.51 158.59
C88.12 159.17 87.93 160.13 87.93 161.49
C87.93 162.72 88.12 163.60 88.49 164.12
C88.87 164.64 89.35 164.91 89.93 164.91
C90.26 164.91 90.55 164.82 90.82 164.63
C91.09 164.45 91.31 164.17 91.48 163.79
C91.65 163.40 91.74 162.98 91.74 162.51
C91.74 161.81 91.57 161.26 91.23 160.84
C90.89 160.43 90.49 160.22 90.03 160.22
C89.76 160.22 89.49 160.30 89.25 160.46
C89.00 160.62 88.80 160.85 88.63 161.16
C88.64 160.29 88.75 159.64 88.96 159.20
C89.21 158.69 89.54 158.43 89.95 158.43
C90.22 158.43 90.45 158.54 90.64 158.77
C90.77 158.92 90.87 159.18 90.93 159.54
L91.64 159.47
C91.57 158.90 91.39 158.47 91.10 158.17
C90.80 157.87 90.44 157.72 90.00 157.72
Z
" fill="black" fill-rule="nonzero" />
<path d="
M103.58 75.21
C103.58 75.21 103.59 75.21 103.59 75.21
C103.59 75.21 103.59 75.21 103.59 75.21
C103.77 75.21 103.94 75.33 104.09 75.58
C104.26 75.84 104.34 76.22 104.34 76.70
C104.34 77.19 104.26 77.55 104.10 77.81
C103.95 78.04 103.78 78.16 103.58 78.16
C103.58 78.16 103.58 78.16 103.58 78.16
C103.57 78.16 103.57 78.16 103.57 78.16
C103.37 78.16 103.19 78.04 103.03 77.81
C102.86 77.56 102.78 77.21 102.78 76.77
C102.78 76.28 102.87 75.89 103.05 75.60
C103.21 75.34 103.39 75.21 103.58 75.21
Z
M100.10 74.20
L100.07 74.30
C99.98 74.59 99.81 74.90 99.58 75.21
C99.35 75.53 99.08 75.79 98.77 76.01
L98.72 76.05
L98.72 76.13
L98.72 76.97
L98.71 77.21
L98.93 77.10
C99.12 76.99 99.34 76.83 99.57 76.62
C99.67 76.52 99.77 76.42 99.86 76.32
L99.86 76.32
L99.86 81.49
L99.86 81.63
L100.72 81.63
L100.72 81.49
L100.72 74.34
L100.72 74.20
Z
M103.52 74.20
C103.06 74.20 102.67 74.43 102.36 74.90
C102.06 75.36 101.91 75.97 101.91 76.74
C101.91 77.50 102.05 78.09 102.34 78.53
C102.65 78.99 103.02 79.22 103.45 79.22
C103.69 79.22 103.93 79.12 104.16 78.93
C104.24 78.86 104.32 78.78 104.40 78.68
L104.40 78.68
C104.38 79.08 104.33 79.43 104.25 79.74
C104.14 80.13 104.02 80.40 103.88 80.55
C103.75 80.68 103.62 80.75 103.46 80.75
C103.46 80.75 103.46 80.75 103.46 80.75
C103.46 80.75 103.46 80.75 103.46 80.75
C103.29 80.75 103.16 80.68 103.06 80.53
C102.95 80.36 102.87 80.10 102.83 79.75
L102.81 79.61
L102.67 79.63
L102.11 79.70
L101.98 79.72
L101.99 79.86
C102.04 80.46 102.19 80.92 102.45 81.25
C102.72 81.58 103.05 81.75 103.45 81.75
C103.80 81.75 104.12 81.62 104.40 81.34
C104.67 81.07 104.88 80.66 105.04 80.09
C105.19 79.54 105.26 78.77 105.26 77.77
C105.26 76.88 105.19 76.20 105.05 75.72
C104.91 75.23 104.70 74.85 104.43 74.60
C104.15 74.33 103.85 74.20 103.52 74.20
Z
" fill="white" fill-rule="nonzero" />
<path d="
M103.58 86.96
C103.79 86.96 103.97 87.07 104.12 87.28
C104.27 87.49 104.34 87.77 104.34 88.10
C104.34 88.42 104.27 88.69 104.12 88.89
C103.98 89.10 103.80 89.20 103.59 89.20
C103.37 89.20 103.19 89.10 103.04 88.89
C102.89 88.68 102.82 88.40 102.82 88.05
C102.82 87.74 102.90 87.48 103.04 87.28
C103.19 87.07 103.37 86.96 103.58 86.96
Z
M103.57 89.91
C103.84 89.91 104.06 90.05 104.25 90.31
C104.44 90.58 104.54 90.93 104.54 91.37
C104.54 91.80 104.44 92.15 104.26 92.41
C104.08 92.67 103.85 92.80 103.59 92.80
C103.32 92.80 103.10 92.67 102.91 92.40
C102.72 92.13 102.63 91.78 102.63 91.34
C102.63 90.92 102.72 90.58 102.90 90.31
C103.09 90.05 103.31 89.91 103.57 89.91
Z
M100.21 86.25
C100.11 86.56 99.94 86.88 99.69 87.20
C99.45 87.53 99.17 87.81 98.86 88.03
L98.86 88.88
C99.04 88.77 99.25 88.62 99.47 88.42
C99.69 88.22 99.87 88.02 100.00 87.82
L100.00 93.40
L100.58 93.40
L100.58 86.25
Z
M103.58 86.25
C103.19 86.25 102.87 86.42 102.61 86.76
C102.36 87.10 102.23 87.54 102.23 88.08
C102.23 88.44 102.29 88.74 102.41 88.98
C102.52 89.22 102.70 89.40 102.93 89.53
C102.65 89.64 102.44 89.85 102.28 90.16
C102.12 90.47 102.04 90.87 102.04 91.34
C102.04 91.99 102.19 92.52 102.48 92.92
C102.78 93.32 103.15 93.52 103.59 93.52
C104.02 93.52 104.39 93.32 104.68 92.92
C104.97 92.52 105.12 92.00 105.12 91.37
C105.12 90.91 105.05 90.52 104.89 90.21
C104.74 89.90 104.53 89.67 104.24 89.53
C104.47 89.40 104.65 89.22 104.76 88.98
C104.87 88.74 104.93 88.45 104.93 88.11
C104.93 87.56 104.80 87.11 104.54 86.76
C104.29 86.42 103.96 86.25 103.58 86.25
Z
" fill="black" fill-rule="nonzero" />
<path d="
M99.98 98.01
C99.50 98.01 99.11 98.20 98.81 98.58
C98.53 98.95 98.36 99.49 98.32 100.20
L98.31 100.33
L98.44 100.35
L99.03 100.44
L99.19 100.47
L99.19 100.30
C99.19 99.87 99.27 99.54 99.42 99.32
C99.57 99.12 99.74 99.01 99.96 99.01
C99.96 99.01 99.96 99.01 99.96 99.01
C99.97 99.01 99.97 99.01 99.97 99.01
C100.17 99.01 100.34 99.11 100.48 99.30
C100.63 99.50 100.71 99.77 100.71 100.10
C100.71 100.40 100.63 100.71 100.47 101.06
C100.31 101.41 99.96 101.92 99.43 102.58
C98.97 103.16 98.64 103.67 98.47 104.10
C98.29 104.54 98.20 104.94 98.21 105.30
L98.21 105.44
L101.58 105.44
L101.58 105.30
L101.58 104.46
L101.58 104.32
L99.37 104.32
C99.41 104.23 99.46 104.15 99.51 104.06
C99.61 103.90 99.83 103.61 100.17 103.18
C100.71 102.47 101.08 101.91 101.27 101.48
C101.48 101.05 101.58 100.59 101.58 100.12
C101.58 99.58 101.45 99.10 101.19 98.68
C100.91 98.23 100.51 98.01 99.98 98.01
Z
M103.52 98.01
C103.12 98.01 102.77 98.18 102.49 98.53
C102.22 98.86 102.04 99.34 101.97 99.98
L101.95 100.10
L102.07 100.13
L102.64 100.29
L102.81 100.33
L102.82 100.16
C102.86 99.76 102.95 99.46 103.09 99.27
C103.21 99.10 103.35 99.01 103.52 99.01
C103.53 99.01 103.53 99.01 103.53 99.01
C103.53 99.01 103.53 99.01 103.53 99.01
C103.70 99.01 103.84 99.09 103.95 99.25
C104.08 99.43 104.15 99.67 104.15 99.97
C104.15 100.30 104.07 100.56 103.92 100.76
C103.77 100.94 103.58 101.03 103.35 101.03
L103.35 101.03
L103.26 101.02
L103.12 101.00
L103.11 101.15
L103.04 101.92
L103.02 102.15
L103.24 102.06
C103.38 102.00 103.50 101.97 103.59 101.97
C103.59 101.97 103.59 101.97 103.59 101.97
C103.59 101.97 103.59 101.97 103.59 101.97
C103.80 101.97 103.97 102.08 104.12 102.29
C104.28 102.52 104.36 102.83 104.36 103.21
C104.36 103.62 104.27 103.95 104.10 104.21
C103.93 104.44 103.75 104.56 103.54 104.56
C103.53 104.56 103.53 104.56 103.53 104.56
C103.53 104.56 103.53 104.56 103.53 104.56
C103.34 104.56 103.18 104.47 103.06 104.28
C102.92 104.06 102.82 103.73 102.77 103.28
L102.75 103.13
L102.60 103.16
L102.02 103.28
L101.90 103.31
L101.91 103.43
C101.95 104.07 102.12 104.58 102.41 104.97
C102.72 105.37 103.09 105.57 103.54 105.57
C104.02 105.57 104.42 105.34 104.76 104.89
C105.09 104.44 105.25 103.88 105.25 103.20
C105.25 102.87 105.21 102.58 105.13 102.32
C105.05 102.05 104.95 101.84 104.81 101.67
C104.72 101.56 104.62 101.48 104.50 101.41
L104.50 101.41
C104.64 101.27 104.75 101.11 104.84 100.91
C104.96 100.64 105.02 100.34 105.02 99.99
C105.02 99.43 104.88 98.96 104.60 98.59
C104.30 98.20 103.95 98.01 103.52 98.01
Z
" fill="white" fill-rule="nonzero" />
<path d="
M101.76 110.81
C102.01 110.81 102.24 110.92 102.42 111.12
C102.61 111.33 102.70 111.60 102.70 111.93
C102.70 112.25 102.61 112.51 102.43 112.72
C102.25 112.92 102.03 113.02 101.77 113.02
C101.50 113.02 101.28 112.92 101.10 112.71
C100.91 112.51 100.82 112.23 100.82 111.89
C100.82 111.58 100.91 111.32 101.10 111.12
C101.28 110.91 101.50 110.81 101.76 110.81
Z
M101.75 113.72
C102.08 113.72 102.36 113.86 102.59 114.12
C102.82 114.38 102.94 114.73 102.94 115.16
C102.94 115.59 102.83 115.94 102.60 116.19
C102.37 116.45 102.09 116.57 101.77 116.57
C101.45 116.57 101.17 116.44 100.94 116.18
C100.70 115.91 100.59 115.57 100.59 115.13
C100.59 114.72 100.70 114.38 100.93 114.12
C101.15 113.86 101.43 113.72 101.75 113.72
Z
M101.75 110.10
C101.28 110.10 100.88 110.27 100.57 110.60
C100.25 110.94 100.09 111.38 100.09 111.91
C100.09 112.26 100.17 112.56 100.31 112.80
C100.46 113.04 100.67 113.22 100.96 113.35
C100.61 113.46 100.35 113.67 100.15 113.97
C99.96 114.28 99.86 114.66 99.86 115.13
C99.86 115.78 100.04 116.30 100.41 116.69
C100.77 117.09 101.22 117.29 101.77 117.29
C102.31 117.29 102.76 117.09 103.12 116.69
C103.48 116.30 103.66 115.79 103.66 115.16
C103.66 114.70 103.57 114.32 103.38 114.02
C103.20 113.71 102.93 113.49 102.58 113.35
C102.86 113.22 103.08 113.04 103.22 112.80
C103.36 112.56 103.43 112.28 103.43 111.94
C103.43 111.40 103.27 110.96 102.95 110.61
C102.63 110.27 102.23 110.10 101.75 110.10
Z
" fill="black" fill-rule="nonzero" />
<path d="
M101.80 122.07
C101.26 122.07 100.83 122.24 100.49 122.58
C100.16 122.92 99.97 123.43 99.92 124.10
L100.65 124.19
C100.65 123.74 100.76 123.39 100.97 123.15
C101.18 122.90 101.45 122.78 101.78 122.78
C102.08 122.78 102.34 122.89 102.55 123.12
C102.76 123.34 102.87 123.64 102.87 124.00
C102.87 124.31 102.76 124.64 102.56 125.00
C102.36 125.36 101.92 125.87 101.26 126.53
C100.69 127.10 100.30 127.59 100.09 128.00
C99.88 128.42 99.78 128.79 99.79 129.13
L103.60 129.13
L103.60 128.30
L100.77 128.30
C100.85 128.14 100.95 127.99 101.07 127.83
C101.19 127.67 101.47 127.38 101.89 126.95
C102.55 126.26 103.00 125.71 103.24 125.30
C103.47 124.89 103.59 124.46 103.59 124.01
C103.59 123.51 103.44 123.06 103.14 122.66
C102.84 122.26 102.39 122.07 101.80 122.07
Z
" fill="black" fill-rule="nonzero" />
<path d="
M101.00 148.28
L101.00 148.28
L101.00 148.28
C101.00 148.28 101.00 148.28 101.00 148.28
Z
M100.43 145.74
L100.41 145.86
L99.85 149.47
L99.83 149.61
L99.97 149.63
L100.64 149.74
L100.74 149.75
L100.79 149.66
C100.88 149.47 101.01 149.32 101.18 149.22
C101.34 149.11 101.52 149.06 101.70 149.06
C101.71 149.06 101.71 149.06 101.71 149.06
C101.71 149.06 101.71 149.06 101.71 149.06
C102.02 149.06 102.28 149.18 102.48 149.42
C102.70 149.67 102.80 150.03 102.80 150.50
C102.80 151.00 102.69 151.40 102.47 151.68
C102.25 151.95 102.00 152.09 101.71 152.09
C101.71 152.09 101.71 152.09 101.71 152.09
C101.71 152.09 101.71 152.09 101.71 152.09
C101.48 152.09 101.28 151.99 101.11 151.80
C100.92 151.61 100.81 151.30 100.75 150.88
L100.73 150.74
L100.60 150.76
L99.85 150.84
L99.72 150.85
L99.73 150.99
C99.78 151.64 99.99 152.15 100.35 152.52
C100.73 152.89 101.18 153.08 101.72 153.08
C102.37 153.08 102.89 152.81 103.27 152.29
C103.65 151.77 103.83 151.15 103.83 150.43
C103.83 149.70 103.64 149.12 103.26 148.68
C102.88 148.23 102.42 148.01 101.90 148.01
C101.59 148.01 101.29 148.10 101.00 148.28
L101.00 148.28
L101.24 146.85
L103.56 146.85
L103.56 146.70
L103.56 145.88
L103.56 145.74
Z
" fill="white" fill-rule="nonzero" />
<path d="
M115.79 87.74
L115.79 90.95
L114.33 90.95
L115.79 87.74
Z
M111.89 86.31
C111.45 86.31 111.10 86.48 110.83 86.82
C110.56 87.17 110.41 87.68 110.37 88.37
L110.96 88.46
C110.96 88.00 111.04 87.65 111.21 87.40
C111.38 87.15 111.60 87.03 111.87 87.03
C112.12 87.03 112.33 87.14 112.50 87.37
C112.67 87.60 112.75 87.90 112.75 88.26
C112.75 88.57 112.67 88.91 112.50 89.28
C112.34 89.64 111.99 90.16 111.45 90.82
C110.99 91.40 110.68 91.89 110.50 92.32
C110.33 92.74 110.25 93.12 110.26 93.46
L113.35 93.46
L113.35 92.62
L111.05 92.62
C111.12 92.46 111.20 92.30 111.30 92.14
C111.40 91.98 111.62 91.68 111.96 91.25
C112.50 90.55 112.86 90.00 113.05 89.58
C113.24 89.17 113.34 88.73 113.34 88.28
C113.34 87.77 113.22 87.31 112.97 86.91
C112.73 86.51 112.37 86.31 111.89 86.31
Z
M115.90 86.34
L113.77 90.95
L113.77 91.75
L115.79 91.75
L115.79 93.46
L116.37 93.46
L116.37 91.75
L117.00 91.75
L117.00 90.95
L116.37 90.95
L116.37 86.34
Z
" fill="black" fill-rule="nonzero" />
<path d="
M115.52 101.45
C115.77 101.45 115.98 101.59 116.16 101.87
C116.34 102.15 116.42 102.54 116.42 103.05
C116.42 103.56 116.34 103.97 116.16 104.26
C115.98 104.56 115.78 104.70 115.55 104.70
C115.30 104.70 115.07 104.55 114.88 104.24
C114.68 103.92 114.59 103.51 114.59 102.99
C114.59 102.52 114.68 102.15 114.86 101.87
C115.05 101.59 115.27 101.45 115.52 101.45
Z
M111.89 98.15
C111.45 98.15 111.10 98.32 110.83 98.67
C110.56 99.01 110.41 99.53 110.37 100.21
L110.96 100.30
C110.96 99.84 111.04 99.49 111.21 99.24
C111.38 99.00 111.60 98.87 111.87 98.87
C112.12 98.87 112.33 98.99 112.50 99.22
C112.67 99.45 112.75 99.74 112.75 100.10
C112.75 100.42 112.67 100.76 112.50 101.12
C112.34 101.49 111.99 102.00 111.45 102.67
C110.99 103.24 110.68 103.74 110.50 104.16
C110.33 104.58 110.25 104.96 110.26 105.30
L113.35 105.30
L113.35 104.46
L111.05 104.46
C111.12 104.30 111.20 104.14 111.30 103.99
C111.40 103.83 111.62 103.53 111.96 103.09
C112.50 102.40 112.86 101.84 113.05 101.43
C113.24 101.01 113.34 100.58 113.34 100.12
C113.34 99.61 113.22 99.15 112.97 98.75
C112.73 98.35 112.37 98.15 111.89 98.15
Z
M115.60 98.15
C115.11 98.15 114.71 98.44 114.40 99.03
C114.08 99.61 113.93 100.59 113.93 101.97
C113.93 103.21 114.08 104.10 114.38 104.63
C114.69 105.16 115.08 105.42 115.55 105.42
C115.81 105.42 116.05 105.33 116.27 105.15
C116.49 104.96 116.67 104.68 116.80 104.29
C116.94 103.90 117.01 103.47 117.01 102.99
C117.01 102.29 116.87 101.73 116.60 101.31
C116.32 100.89 116.00 100.68 115.63 100.68
C115.41 100.68 115.19 100.76 114.99 100.92
C114.80 101.08 114.63 101.32 114.50 101.63
C114.50 100.75 114.59 100.09 114.76 99.65
C114.96 99.13 115.23 98.87 115.57 98.87
C115.78 98.87 115.97 98.98 116.12 99.21
C116.22 99.37 116.30 99.63 116.36 99.99
L116.93 99.92
C116.88 99.35 116.73 98.91 116.49 98.60
C116.25 98.30 115.96 98.15 115.60 98.15
Z
" fill="black" fill-rule="nonzero" />
<path d="
M115.45 110.78
C115.74 110.78 115.97 110.98 116.14 111.37
C116.32 111.76 116.41 112.54 116.41 113.70
C116.41 114.84 116.32 115.61 116.15 116.01
C115.97 116.41 115.75 116.61 115.49 116.61
C115.21 116.61 114.98 116.41 114.81 116.02
C114.63 115.63 114.54 114.85 114.54 113.70
C114.54 112.55 114.63 111.78 114.80 111.38
C114.98 110.98 115.19 110.78 115.45 110.78
Z
M112.11 110.06
C112.01 110.37 111.84 110.69 111.60 111.01
C111.36 111.34 111.08 111.62 110.76 111.84
L110.76 112.69
C110.95 112.59 111.15 112.43 111.38 112.23
C111.60 112.03 111.78 111.83 111.91 111.64
L111.91 117.21
L112.48 117.21
L112.48 110.06
Z
M115.48 110.06
C114.98 110.06 114.60 110.36 114.34 110.98
C114.08 111.59 113.95 112.50 113.95 113.70
C113.95 115.03 114.09 115.97 114.38 116.51
C114.66 117.06 115.03 117.33 115.47 117.33
C115.98 117.33 116.36 117.02 116.62 116.40
C116.87 115.79 117.00 114.88 117.00 113.70
C117.00 112.37 116.84 111.41 116.53 110.80
C116.28 110.31 115.93 110.06 115.48 110.06
Z
" fill="black" fill-rule="nonzero" />
<path d="
M111.68 121.98
L111.68 122.13
L111.68 122.96
L111.68 123.10
L114.37 123.10
C114.07 123.56 113.78 124.10 113.51 124.71
C113.20 125.43 112.95 126.19 112.77 126.98
C112.59 127.77 112.50 128.47 112.49 129.07
L112.48 129.21
L113.36 129.21
L113.49 129.21
L113.50 129.08
C113.56 127.95 113.80 126.82 114.22 125.67
C114.64 124.52 115.12 123.60 115.67 122.88
L115.70 122.85
L115.70 122.80
L115.70 122.13
L115.70 121.98
Z
" fill="white" fill-rule="nonzero" />
<path d="
M114.04 135.37
L114.04 138.55
L112.24 138.55
L114.04 135.37
Z
M114.18 133.99
L111.54 138.55
L111.54 139.34
L114.04 139.34
L114.04 141.02
L114.75 141.02
L114.75 139.34
L115.54 139.34
L115.54 138.55
L114.75 138.55
L114.75 133.99
Z
" fill="black" fill-rule="nonzero" />
<path d="
M126.81 88.77
L126.81 88.77
L126.81 88.77
C126.81 88.77 126.81 88.77 126.81 88.77
Z
M123.79 86.10
C123.31 86.10 122.92 86.30 122.62 86.68
C122.34 87.04 122.17 87.58 122.13 88.30
L122.12 88.43
L122.25 88.45
L122.84 88.54
L123.00 88.56
L123.00 88.40
C123.00 87.97 123.08 87.64 123.23 87.42
C123.38 87.21 123.56 87.11 123.77 87.11
C123.77 87.11 123.77 87.11 123.78 87.11
C123.78 87.11 123.78 87.11 123.78 87.11
C123.98 87.11 124.15 87.21 124.29 87.40
C124.44 87.60 124.52 87.87 124.52 88.20
C124.52 88.49 124.44 88.81 124.28 89.16
C124.12 89.51 123.77 90.02 123.25 90.67
C122.78 91.26 122.46 91.77 122.28 92.20
C122.10 92.64 122.01 93.04 122.02 93.40
L122.02 93.54
L125.39 93.54
L125.39 93.40
L125.39 92.56
L125.39 92.41
L123.18 92.41
C123.22 92.33 123.27 92.24 123.32 92.16
C123.42 92.00 123.64 91.71 123.98 91.27
C124.52 90.57 124.89 90.01 125.09 89.58
C125.29 89.15 125.39 88.69 125.39 88.22
C125.39 87.68 125.26 87.20 125.00 86.77
C124.73 86.33 124.32 86.10 123.79 86.10
Z
M126.29 86.23
L126.27 86.35
L125.82 90.01
L125.80 90.14
L125.93 90.17
L126.47 90.28
L126.59 90.30
L126.63 90.19
C126.71 90.00 126.82 89.85 126.95 89.74
C127.07 89.64 127.21 89.59 127.35 89.59
C127.35 89.59 127.35 89.59 127.35 89.59
C127.35 89.59 127.35 89.59 127.35 89.59
C127.59 89.59 127.79 89.71 127.95 89.95
C128.12 90.20 128.21 90.57 128.21 91.05
C128.21 91.56 128.12 91.97 127.93 92.25
C127.77 92.52 127.57 92.66 127.35 92.66
C127.35 92.66 127.35 92.66 127.35 92.66
C127.35 92.66 127.35 92.66 127.35 92.66
C127.18 92.66 127.03 92.57 126.89 92.38
C126.74 92.18 126.65 91.87 126.60 91.44
L126.59 91.29
L126.44 91.31
L125.84 91.39
L125.71 91.41
L125.72 91.54
C125.76 92.19 125.93 92.70 126.22 93.08
C126.53 93.47 126.91 93.66 127.36 93.66
C127.90 93.66 128.33 93.39 128.65 92.84
C128.95 92.32 129.10 91.70 129.10 90.98
C129.10 90.25 128.94 89.66 128.64 89.22
C128.32 88.76 127.94 88.53 127.50 88.53
C127.26 88.53 127.03 88.61 126.81 88.77
L126.81 88.77
L127.00 87.35
L128.88 87.35
L128.88 87.21
L128.88 86.37
L128.88 86.23
Z
" fill="white" fill-rule="nonzero" />
<path d="
M124.02 110.12
C123.92 110.43 123.75 110.75 123.51 111.07
C123.26 111.40 122.98 111.68 122.67 111.90
L122.67 112.75
C122.85 112.65 123.06 112.49 123.28 112.29
C123.50 112.09 123.68 111.89 123.81 111.70
L123.81 117.27
L124.39 117.27
L124.39 110.12
Z
M127.42 110.12
C126.99 110.12 126.63 110.29 126.37 110.63
C126.10 110.98 125.94 111.49 125.90 112.18
L126.49 112.27
C126.49 111.81 126.58 111.46 126.75 111.21
C126.92 110.96 127.14 110.84 127.41 110.84
C127.65 110.84 127.86 110.95 128.03 111.18
C128.20 111.41 128.29 111.71 128.29 112.07
C128.29 112.38 128.20 112.72 128.04 113.09
C127.87 113.45 127.52 113.97 126.99 114.64
C126.53 115.21 126.21 115.71 126.04 116.13
C125.87 116.55 125.78 116.93 125.79 117.27
L128.88 117.27
L128.88 116.43
L126.59 116.43
C126.65 116.27 126.73 116.11 126.83 115.95
C126.93 115.79 127.15 115.50 127.49 115.06
C128.03 114.36 128.40 113.81 128.59 113.39
C128.78 112.98 128.87 112.54 128.87 112.09
C128.87 111.58 128.75 111.12 128.51 110.72
C128.26 110.32 127.90 110.12 127.42 110.12
Z
" fill="black" fill-rule="nonzero" />
<path d="
M123.91 121.88
L123.88 121.98
C123.79 122.28 123.62 122.58 123.39 122.90
C123.16 123.21 122.89 123.48 122.59 123.69
L122.53 123.74
L122.53 123.81
L122.53 124.66
L122.53 124.90
L122.74 124.78
C122.93 124.67 123.15 124.51 123.38 124.30
C123.49 124.20 123.58 124.10 123.67 124.01
L123.67 124.01
L123.67 129.17
L123.67 129.32
L124.53 129.32
L124.53 129.17
L124.53 122.02
L124.53 121.88
Z
M127.54 121.88
L127.51 121.98
C127.42 122.28 127.25 122.58 127.02 122.90
C126.79 123.21 126.52 123.48 126.22 123.69
L126.16 123.74
L126.16 123.81
L126.16 124.66
L126.16 124.90
L126.37 124.78
C126.56 124.67 126.78 124.51 127.01 124.30
C127.12 124.20 127.21 124.10 127.30 124.01
L127.30 124.01
L127.30 129.17
L127.30 129.32
L128.16 129.32
L128.16 129.17
L128.16 122.02
L128.16 121.88
Z
" fill="white" fill-rule="nonzero" />
<path d="
M139.30 51.39
C139.30 51.39 139.30 51.39 139.30 51.39
C139.30 51.39 139.31 51.39 139.31 51.39
C139.49 51.39 139.66 51.52 139.81 51.76
C139.98 52.03 140.06 52.41 140.06 52.89
C140.06 53.37 139.98 53.74 139.82 54.00
C139.67 54.23 139.50 54.35 139.30 54.35
C139.29 54.35 139.29 54.35 139.29 54.35
C139.29 54.35 139.29 54.35 139.29 54.35
C139.08 54.35 138.90 54.23 138.75 54.00
C138.58 53.75 138.50 53.40 138.50 52.96
C138.50 52.47 138.59 52.08 138.76 51.79
C138.93 51.53 139.11 51.39 139.30 51.39
Z
M135.70 50.39
C135.22 50.39 134.83 50.58 134.53 50.96
C134.24 51.33 134.08 51.87 134.04 52.58
L134.03 52.71
L134.15 52.73
L134.75 52.82
L134.91 52.85
L134.91 52.68
C134.91 52.25 134.99 51.92 135.14 51.70
C135.28 51.50 135.46 51.39 135.68 51.39
C135.68 51.39 135.68 51.39 135.68 51.39
C135.68 51.39 135.68 51.39 135.68 51.39
C135.88 51.39 136.05 51.49 136.19 51.68
C136.35 51.88 136.42 52.15 136.42 52.48
C136.42 52.78 136.34 53.10 136.19 53.44
C136.02 53.79 135.68 54.30 135.15 54.96
C134.68 55.54 134.36 56.05 134.18 56.48
C134.00 56.92 133.92 57.32 133.93 57.68
L133.93 57.82
L137.30 57.82
L137.30 57.68
L137.30 56.84
L137.30 56.70
L135.08 56.70
C135.12 56.61 135.17 56.53 135.23 56.44
C135.32 56.28 135.54 55.99 135.88 55.56
C136.43 54.85 136.79 54.29 136.99 53.86
C137.19 53.43 137.29 52.98 137.29 52.50
C137.29 51.96 137.16 51.48 136.90 51.06
C136.63 50.61 136.23 50.39 135.70 50.39
Z
M139.24 50.39
C138.78 50.39 138.39 50.62 138.08 51.09
C137.77 51.55 137.62 52.16 137.62 52.93
C137.62 53.68 137.77 54.28 138.06 54.72
C138.36 55.18 138.73 55.41 139.16 55.41
C139.41 55.41 139.64 55.31 139.87 55.12
C139.96 55.05 140.04 54.97 140.11 54.87
L140.11 54.87
C140.09 55.27 140.04 55.62 139.96 55.93
C139.86 56.32 139.74 56.59 139.60 56.74
C139.47 56.87 139.33 56.94 139.18 56.94
C139.18 56.94 139.18 56.94 139.18 56.94
C139.18 56.94 139.18 56.94 139.17 56.94
C139.01 56.94 138.88 56.87 138.78 56.72
C138.66 56.55 138.58 56.29 138.54 55.94
L138.53 55.79
L138.38 55.82
L137.83 55.89
L137.70 55.91
L137.71 56.04
C137.76 56.65 137.91 57.11 138.17 57.44
C138.43 57.77 138.77 57.94 139.17 57.94
C139.52 57.94 139.84 57.80 140.12 57.53
C140.39 57.26 140.60 56.84 140.75 56.28
C140.90 55.73 140.98 54.95 140.98 53.96
C140.98 53.07 140.91 52.39 140.77 51.91
C140.62 51.42 140.42 51.04 140.15 50.79
C139.87 50.52 139.56 50.39 139.24 50.39
Z
" fill="white" fill-rule="nonzero" />
<path d="
M135.82 74.26
L135.79 74.36
C135.69 74.65 135.53 74.96 135.30 75.27
C135.06 75.59 134.79 75.85 134.49 76.07
L134.43 76.12
L134.43 76.19
L134.43 77.03
L134.43 77.27
L134.64 77.16
C134.84 77.05 135.05 76.89 135.28 76.68
C135.39 76.58 135.49 76.48 135.58 76.39
L135.58 76.39
L135.58 81.55
L135.58 81.69
L136.44 81.69
L136.44 81.55
L136.44 74.40
L136.44 74.26
Z
M137.66 74.38
L137.66 74.52
L137.66 75.36
L137.66 75.50
L139.85 75.50
C139.60 75.97 139.36 76.52 139.14 77.15
C138.89 77.88 138.69 78.64 138.54 79.44
C138.40 80.24 138.32 80.95 138.31 81.55
L138.31 81.69
L139.05 81.69
L139.18 81.69
L139.19 81.56
C139.24 80.42 139.43 79.26 139.77 78.10
C140.11 76.94 140.50 76.00 140.95 75.28
L140.97 75.24
L140.97 75.20
L140.97 74.52
L140.97 74.38
Z
" fill="white" fill-rule="nonzero" />
<path d="
M139.33 89.55
C139.58 89.55 139.80 89.69 139.97 89.97
C140.15 90.25 140.24 90.64 140.24 91.14
C140.24 91.66 140.15 92.06 139.97 92.36
C139.79 92.65 139.59 92.80 139.37 92.80
C139.11 92.80 138.88 92.64 138.69 92.33
C138.49 92.02 138.40 91.60 138.40 91.09
C138.40 90.62 138.49 90.24 138.68 89.96
C138.86 89.69 139.08 89.55 139.33 89.55
Z
M135.92 86.25
C135.82 86.56 135.65 86.88 135.41 87.20
C135.17 87.53 134.89 87.81 134.57 88.03
L134.57 88.88
C134.76 88.77 134.96 88.62 135.19 88.42
C135.41 88.22 135.59 88.02 135.72 87.82
L135.72 93.40
L136.30 93.40
L136.30 86.25
Z
M139.41 86.25
C138.92 86.25 138.52 86.54 138.21 87.12
C137.89 87.71 137.74 88.69 137.74 90.06
C137.74 91.30 137.89 92.19 138.20 92.72
C138.50 93.25 138.89 93.52 139.36 93.52
C139.62 93.52 139.86 93.43 140.08 93.24
C140.30 93.06 140.48 92.77 140.61 92.38
C140.75 92.00 140.82 91.57 140.82 91.09
C140.82 90.39 140.68 89.82 140.41 89.41
C140.13 88.99 139.81 88.78 139.44 88.78
C139.22 88.78 139.01 88.86 138.81 89.02
C138.61 89.18 138.44 89.41 138.31 89.72
C138.31 88.85 138.40 88.19 138.57 87.74
C138.77 87.22 139.04 86.96 139.38 86.96
C139.59 86.96 139.78 87.08 139.93 87.30
C140.04 87.46 140.12 87.72 140.17 88.09
L140.74 88.02
C140.69 87.44 140.54 87.00 140.30 86.70
C140.06 86.40 139.77 86.25 139.41 86.25
Z
" fill="black" fill-rule="nonzero" />
<path d="
M139.60 111.55
L139.60 114.76
L138.14 114.76
L139.60 111.55
Z
M135.92 110.12
C135.82 110.43 135.65 110.75 135.41 111.07
C135.17 111.40 134.89 111.68 134.57 111.90
L134.57 112.75
C134.76 112.65 134.96 112.49 135.19 112.29
C135.41 112.09 135.59 111.89 135.72 111.70
L135.72 117.27
L136.30 117.27
L136.30 110.12
Z
M139.71 110.15
L137.58 114.76
L137.58 115.56
L139.60 115.56
L139.60 117.27
L140.18 117.27
L140.18 115.56
L140.81 115.56
L140.81 114.76
L140.18 114.76
L140.18 110.15
Z
" fill="black" fill-rule="nonzero" />
<path d="
M135.82 121.82
L135.79 121.92
C135.69 122.21 135.53 122.52 135.30 122.83
C135.06 123.15 134.79 123.41 134.49 123.63
L134.43 123.67
L134.43 123.75
L134.43 124.59
L134.43 124.83
L134.64 124.72
C134.84 124.61 135.05 124.45 135.28 124.24
C135.39 124.14 135.49 124.04 135.58 123.94
L135.58 123.94
L135.58 129.11
L135.58 129.25
L136.44 129.25
L136.44 129.11
L136.44 121.96
L136.44 121.82
Z
M139.24 121.82
C138.83 121.82 138.49 121.99 138.21 122.34
C137.94 122.67 137.76 123.15 137.69 123.79
L137.67 123.91
L137.79 123.94
L138.36 124.10
L138.52 124.14
L138.54 123.97
C138.58 123.57 138.67 123.27 138.80 123.08
C138.92 122.91 139.07 122.82 139.24 122.82
C139.24 122.82 139.24 122.82 139.24 122.82
C139.25 122.82 139.25 122.82 139.25 122.82
C139.41 122.82 139.55 122.90 139.67 123.07
C139.80 123.24 139.87 123.48 139.87 123.79
C139.87 124.12 139.79 124.38 139.63 124.57
C139.49 124.75 139.30 124.84 139.06 124.84
L139.06 124.84
L138.98 124.83
L138.84 124.81
L138.82 124.96
L138.76 125.73
L138.74 125.96
L138.95 125.87
C139.10 125.81 139.21 125.78 139.30 125.78
C139.30 125.78 139.30 125.78 139.30 125.78
C139.30 125.78 139.31 125.78 139.31 125.78
C139.51 125.78 139.69 125.89 139.84 126.10
C140.00 126.33 140.08 126.64 140.07 127.02
C140.08 127.43 139.99 127.76 139.81 128.02
C139.65 128.25 139.46 128.37 139.25 128.37
C139.25 128.37 139.25 128.37 139.25 128.37
C139.25 128.37 139.25 128.37 139.24 128.37
C139.05 128.37 138.90 128.28 138.78 128.09
C138.64 127.87 138.54 127.54 138.48 127.10
L138.46 126.94
L138.31 126.98
L137.74 127.09
L137.62 127.12
L137.63 127.24
C137.67 127.88 137.84 128.39 138.13 128.78
C138.44 129.18 138.81 129.38 139.26 129.38
C139.73 129.38 140.14 129.15 140.48 128.70
C140.80 128.26 140.97 127.69 140.97 127.01
C140.97 126.69 140.93 126.39 140.85 126.13
C140.77 125.86 140.66 125.65 140.53 125.48
C140.44 125.38 140.34 125.29 140.22 125.22
L140.22 125.22
C140.36 125.08 140.47 124.92 140.56 124.72
C140.68 124.46 140.74 124.15 140.74 123.81
C140.74 123.24 140.60 122.77 140.31 122.40
C140.02 122.01 139.66 121.82 139.24 121.82
Z
" fill="white" fill-rule="nonzero" />
<path d="
M147.61 86.16
C147.12 86.17 146.73 86.36 146.43 86.74
C146.15 87.10 145.98 87.64 145.94 88.36
L145.93 88.49
L146.06 88.51
L146.65 88.60
L146.81 88.62
L146.81 88.46
C146.81 88.03 146.89 87.70 147.05 87.48
C147.19 87.27 147.37 87.17 147.58 87.17
C147.58 87.17 147.59 87.17 147.59 87.17
C147.59 87.17 147.59 87.17 147.59 87.17
C147.79 87.17 147.96 87.27 148.10 87.46
C148.25 87.66 148.33 87.93 148.33 88.26
C148.33 88.55 148.25 88.87 148.09 89.22
C147.93 89.57 147.59 90.08 147.06 90.74
C146.59 91.32 146.27 91.83 146.09 92.26
C145.91 92.70 145.82 93.10 145.83 93.46
L145.83 93.60
L149.21 93.60
L149.21 93.46
L149.21 92.62
L149.21 92.48
L146.99 92.48
C147.03 92.39 147.08 92.30 147.13 92.22
C147.23 92.06 147.45 91.77 147.79 91.33
C148.33 90.63 148.70 90.07 148.90 89.64
C149.10 89.21 149.20 88.75 149.20 88.28
C149.20 87.74 149.07 87.26 148.81 86.83
C148.54 86.39 148.13 86.17 147.61 86.16
Z
M149.57 86.29
L149.57 86.43
L149.57 87.27
L149.57 87.41
L151.75 87.41
C151.50 87.88 151.27 88.43 151.05 89.06
C150.79 89.78 150.59 90.55 150.45 91.35
C150.30 92.15 150.23 92.85 150.22 93.46
L150.22 93.60
L150.95 93.60
L151.09 93.60
L151.09 93.46
C151.15 92.32 151.34 91.17 151.68 90.01
C152.02 88.84 152.41 87.90 152.85 87.18
L152.87 87.15
L152.87 87.11
L152.87 86.43
L152.87 86.29
Z
" fill="white" fill-rule="nonzero" />
<path d="
M150.62 124.48
L150.62 124.48
L150.62 124.48
C150.62 124.48 150.62 124.48 150.62 124.48
Z
M147.72 121.82
L147.69 121.92
C147.60 122.21 147.44 122.52 147.20 122.83
C146.97 123.15 146.70 123.42 146.40 123.63
L146.34 123.68
L146.34 123.75
L146.34 124.59
L146.34 124.84
L146.55 124.72
C146.74 124.61 146.96 124.45 147.19 124.24
C147.30 124.14 147.40 124.04 147.48 123.95
L147.48 123.95
L147.48 129.11
L147.48 129.25
L148.34 129.25
L148.34 129.11
L148.34 121.96
L148.34 121.82
Z
M150.10 121.95
L150.08 122.07
L149.63 125.73
L149.61 125.86
L149.74 125.89
L150.28 125.99
L150.40 126.02
L150.44 125.91
C150.52 125.71 150.63 125.56 150.76 125.46
C150.88 125.36 151.02 125.31 151.16 125.31
C151.16 125.31 151.16 125.31 151.16 125.31
C151.16 125.31 151.16 125.31 151.16 125.31
C151.40 125.31 151.60 125.42 151.76 125.66
C151.93 125.92 152.02 126.29 152.02 126.77
C152.02 127.28 151.93 127.68 151.75 127.97
C151.58 128.24 151.38 128.37 151.17 128.37
C151.16 128.37 151.16 128.37 151.16 128.37
C151.16 128.37 151.16 128.37 151.16 128.37
C150.99 128.37 150.84 128.28 150.70 128.10
C150.55 127.90 150.46 127.58 150.41 127.16
L150.40 127.01
L150.25 127.03
L149.65 127.11
L149.52 127.12
L149.53 127.26
C149.57 127.91 149.74 128.42 150.03 128.80
C150.34 129.18 150.72 129.38 151.17 129.38
C151.71 129.37 152.14 129.10 152.46 128.56
C152.76 128.04 152.91 127.42 152.91 126.70
C152.91 125.96 152.76 125.37 152.45 124.93
C152.13 124.48 151.75 124.25 151.31 124.25
C151.07 124.25 150.84 124.33 150.62 124.48
L150.62 124.48
L150.81 123.07
L152.69 123.07
L152.69 122.92
L152.69 122.09
L152.69 121.95
Z
" fill="white" fill-rule="nonzero" />
</g>
<g  transform="translate(1.19,228.58)" >
<path d="
M106.49 2.94
C106.33 2.94 106.19 3.00 106.07 3.11
C105.96 3.23 105.90 3.37 105.90 3.53
C105.90 3.69 105.96 3.83 106.08 3.95
C106.19 4.07 106.33 4.12 106.49 4.12
C106.66 4.12 106.80 4.07 106.91 3.95
C107.02 3.83 107.08 3.69 107.08 3.53
C107.08 3.37 107.02 3.23 106.91 3.11
C106.80 3.00 106.66 2.94 106.49 2.94
Z
M111.46 8.04
L111.46 10.07
C110.98 10.46 110.60 10.65 110.30 10.65
C110.08 10.65 109.89 10.56 109.73 10.37
C109.56 10.19 109.48 9.96 109.48 9.68
C109.48 9.46 109.54 9.25 109.67 9.07
C109.81 8.88 110.02 8.70 110.33 8.53
C110.50 8.44 110.88 8.27 111.46 8.04
Z
M99.82 3.77
C100.75 3.77 101.51 4.08 102.10 4.71
C102.69 5.34 102.99 6.20 102.99 7.29
C102.99 8.37 102.69 9.23 102.10 9.86
C101.51 10.49 100.76 10.81 99.86 10.81
C99.53 10.81 99.12 10.75 98.62 10.64
L98.62 3.94
C99.07 3.83 99.47 3.77 99.82 3.77
Z
M96.37 3.33
L96.37 3.54
L96.67 3.54
C96.97 3.54 97.19 3.63 97.34 3.80
C97.45 3.92 97.51 4.23 97.51 4.72
L97.51 9.82
C97.51 10.26 97.46 10.55 97.38 10.68
C97.24 10.89 97.00 11.00 96.67 11.00
L96.37 11.00
L96.37 11.21
L99.90 11.21
C101.43 11.21 102.57 10.80 103.32 9.98
C103.98 9.24 104.32 8.33 104.32 7.23
C104.32 6.41 104.13 5.69 103.76 5.07
C103.38 4.44 102.89 4.00 102.27 3.73
C101.66 3.46 100.76 3.33 99.58 3.33
Z
M106.72 5.73
L105.12 6.38
L105.20 6.59
C105.35 6.53 105.48 6.50 105.59 6.50
C105.69 6.50 105.77 6.53 105.83 6.58
C105.89 6.62 105.93 6.71 105.96 6.83
C105.99 7.00 106.01 7.38 106.01 7.96
L106.01 10.01
C106.01 10.34 105.98 10.56 105.93 10.68
C105.88 10.79 105.81 10.88 105.72 10.93
C105.63 10.98 105.46 11.00 105.20 11.00
L105.20 11.21
L107.78 11.21
L107.78 11.00
C107.53 11.00 107.36 10.98 107.26 10.92
C107.17 10.87 107.10 10.79 107.05 10.68
C107.00 10.56 106.98 10.34 106.98 10.01
L106.98 5.73
Z
M122.04 3.16
C121.44 3.16 120.94 3.36 120.54 3.74
C120.14 4.12 119.89 4.67 119.79 5.39
L120.01 5.39
C120.16 4.95 120.38 4.62 120.69 4.39
C121.00 4.17 121.35 4.05 121.74 4.05
C122.16 4.05 122.53 4.22 122.84 4.54
C123.14 4.86 123.29 5.27 123.29 5.77
C123.29 6.42 123.02 7.15 122.46 7.94
C121.90 8.73 120.94 9.75 119.57 11.00
L119.57 11.21
L124.22 11.21
L124.77 9.70
L124.56 9.70
C124.46 9.87 124.34 10.00 124.20 10.10
C124.07 10.19 123.91 10.26 123.75 10.29
C123.58 10.32 123.28 10.33 122.86 10.33
L120.81 10.33
C121.05 10.12 121.65 9.48 122.61 8.43
C123.26 7.73 123.72 7.06 124.01 6.43
C124.20 6.03 124.29 5.63 124.29 5.23
C124.29 4.68 124.07 4.19 123.65 3.78
C123.22 3.37 122.68 3.16 122.04 3.16
Z
M110.65 5.73
C110.03 5.73 109.56 5.87 109.21 6.15
C108.87 6.43 108.70 6.73 108.70 7.07
C108.70 7.24 108.75 7.38 108.84 7.48
C108.93 7.58 109.05 7.63 109.19 7.63
C109.34 7.63 109.46 7.58 109.55 7.49
C109.64 7.39 109.69 7.25 109.69 7.07
L109.67 6.74
C109.67 6.56 109.75 6.41 109.89 6.28
C110.04 6.15 110.23 6.08 110.48 6.08
C110.80 6.08 111.04 6.18 111.21 6.38
C111.38 6.58 111.46 6.94 111.46 7.47
L111.46 7.68
C110.55 8.02 109.90 8.30 109.50 8.53
C109.11 8.76 108.83 9.01 108.67 9.28
C108.56 9.47 108.50 9.69 108.50 9.95
C108.50 10.36 108.62 10.69 108.86 10.95
C109.09 11.20 109.40 11.32 109.77 11.32
C110.00 11.32 110.23 11.27 110.44 11.18
C110.57 11.11 110.92 10.87 111.46 10.45
C111.47 10.76 111.53 10.99 111.64 11.12
C111.75 11.25 111.90 11.32 112.09 11.32
C112.49 11.32 112.90 11.03 113.34 10.45
L113.34 10.12
C113.10 10.35 112.95 10.49 112.87 10.54
C112.82 10.57 112.77 10.58 112.70 10.58
C112.65 10.58 112.59 10.57 112.55 10.53
C112.50 10.49 112.47 10.41 112.45 10.30
C112.43 10.18 112.42 9.87 112.42 9.36
L112.42 7.55
C112.42 7.04 112.39 6.70 112.32 6.53
C112.21 6.28 112.04 6.09 111.81 5.97
C111.51 5.81 111.12 5.73 110.65 5.73
Z
M128.00 3.16
C127.49 3.16 127.06 3.31 126.72 3.60
C126.38 3.89 126.09 4.30 125.87 4.83
L126.06 4.92
C126.46 4.28 126.97 3.96 127.57 3.96
C127.94 3.96 128.25 4.08 128.50 4.32
C128.75 4.57 128.88 4.89 128.88 5.29
C128.88 5.60 128.81 5.88 128.67 6.14
C128.53 6.39 128.30 6.61 127.99 6.79
C127.69 6.98 127.38 7.09 127.07 7.12
L127.07 7.30
L127.26 7.30
C127.56 7.30 127.86 7.36 128.15 7.49
C128.44 7.61 128.67 7.75 128.83 7.91
C128.95 8.02 129.07 8.19 129.17 8.40
C129.30 8.69 129.37 8.99 129.37 9.30
C129.37 9.72 129.22 10.08 128.93 10.39
C128.64 10.69 128.29 10.85 127.90 10.85
C127.74 10.85 127.58 10.83 127.44 10.78
C127.35 10.76 127.19 10.69 126.96 10.56
C126.72 10.44 126.57 10.37 126.51 10.35
C126.41 10.32 126.31 10.31 126.21 10.31
C126.08 10.31 125.97 10.35 125.88 10.43
C125.79 10.52 125.75 10.62 125.75 10.73
C125.75 10.88 125.84 11.02 126.03 11.15
C126.23 11.29 126.59 11.35 127.12 11.35
C128.19 11.35 129.01 11.03 129.58 10.38
C130.01 9.88 130.23 9.28 130.23 8.60
C130.23 8.12 130.11 7.71 129.86 7.36
C129.61 7.00 129.24 6.73 128.76 6.54
C129.48 5.93 129.84 5.34 129.84 4.76
C129.84 4.41 129.71 4.09 129.46 3.78
C129.12 3.37 128.63 3.16 128.00 3.16
Z
M114.85 10.08
C114.67 10.08 114.52 10.15 114.39 10.27
C114.26 10.39 114.20 10.55 114.20 10.73
C114.20 10.91 114.26 11.06 114.39 11.19
C114.52 11.31 114.67 11.38 114.85 11.38
C115.03 11.38 115.18 11.31 115.30 11.19
C115.43 11.06 115.49 10.91 115.49 10.73
C115.49 10.55 115.43 10.40 115.31 10.27
C115.18 10.15 115.03 10.08 114.85 10.08
Z
" fill="black" fill-rule="nonzero" />
</g>
</g>
</svg>
