<?xml version="1.0" encoding="utf-8" standalone="no"?>
<!DOCTYPE svg PUBLIC "-//W3C//DTD SVG 1.0//EN" "http://www.w3.org/TR/SVG/DTD/svg11.dtd" >
<svg version="1.1" baseProfile="full"  width="319.13385" height="338.46454" viewBox="0 0 229.77638 243.69449" preserveAspectRatio="xMidYMid" xmlns="http://www.w3.org/2000/svg" >

<g lengthAdjust="spacingAndGlyphs" xml:space='preserve' >
<g  transform="translate(1.19,1.19)" >
<path d="
M0.0 0.0
L0.0 227.39
L227.39 227.39
L227.39 0.0
Z
" fill="none" fill-rule="nonzero" />
<line x1="6.54" y1="6.54" x2="6.54" y2="220.84" fill="none" stroke="black" stroke-width="0.87px" stroke-linecap="square" />
<line x1="18.45" y1="6.54" x2="18.45" y2="220.84" fill="none" stroke="black" stroke-width="0.25px" stroke-linecap="butt" />
<line x1="30.35" y1="6.54" x2="30.35" y2="220.84" fill="none" stroke="black" stroke-width="0.25px" stroke-linecap="butt" />
<line x1="42.26" y1="6.54" x2="42.26" y2="220.84" fill="none" stroke="black" stroke-width="0.25px" stroke-linecap="butt" />
<line x1="54.17" y1="6.54" x2="54.17" y2="220.84" fill="none" stroke="black" stroke-width="0.25px" stroke-linecap="butt" />
<line x1="66.07" y1="6.54" x2="66.07" y2="220.84" fill="none" stroke="black" stroke-width="0.25px" stroke-linecap="butt" />
<line x1="77.98" y1="6.54" x2="77.98" y2="220.84" fill="none" stroke="black" stroke-width="0.25px" stroke-linecap="butt" />
<line x1="89.88" y1="6.54" x2="89.88" y2="220.84" fill="none" stroke="black" stroke-width="0.25px" stroke-linecap="butt" />
<line x1="101.79" y1="6.54" x2="101.79" y2="220.84" fill="none" stroke="black" stroke-width="0.25px" stroke-linecap="butt" />
<line x1="113.69" y1="6.54" x2="113.69" y2="220.84" fill="none" stroke="black" stroke-width="0.25px" stroke-linecap="butt" />
<line x1="125.60" y1="6.54" x2="125.60" y2="220.84" fill="none" stroke="black" stroke-width="0.25px" stroke-linecap="butt" />
<line x1="137.50" y1="6.54" x2="137.50" y2="220.84" fill="none" stroke="black" stroke-width="0.25px" stroke-linecap="butt" />
<line x1="149.41" y1="6.54" x2="149.41" y2="220.84" fill="none" stroke="black" stroke-width="0.25px" stroke-linecap="butt" />
<line x1="161.31" y1="6.54" x2="161.31" y2="220.84" fill="none" stroke="black" stroke-width="0.25px" stroke-linecap="butt" />
<line x1="173.22" y1="6.54" x2="173.22" y2="220.84" fill="none" stroke="black" stroke-width="0.25px" stroke-linecap="butt" />
<line x1="185.13" y1="6.54" x2="185.13" y2="220.84" fill="none" stroke="black" stroke-width="0.25px" stroke-linecap="butt" />
<line x1="197.03" y1="6.54" x2="197.03" y2="220.84" fill="none" stroke="black" stroke-width="0.25px" stroke-linecap="butt" />
<line x1="208.94" y1="6.54" x2="208.94" y2="220.84" fill="none" stroke="black" stroke-width="0.25px" stroke-linecap="butt" />
<line x1="220.84" y1="6.54" x2="220.84" y2="220.84" fill="none" stroke="black" stroke-width="0.87px" stroke-linecap="square" />
<line x1="6.54" y1="6.54" x2="220.84" y2="6.54" fill="none" stroke="black" stroke-width="0.87px" stroke-linecap="square" />
<line x1="6.54" y1="18.45" x2="220.84" y2="18.45" fill="none" stroke="black" stroke-width="0.25px" stroke-linecap="butt" />
<line x1="6.54" y1="30.35" x2="220.84" y2="30.35" fill="none" stroke="black" stroke-width="0.25px" stroke-linecap="butt" />
<line x1="6.54" y1="42.26" x2="220.84" y2="42.26" fill="none" stroke="black" stroke-width="0.25px" stroke-linecap="butt" />
<line x1="6.54" y1="54.17" x2="220.84" y2="54.17" fill="none" stroke="black" stroke-width="0.25px" stroke-linecap="butt" />
<line x1="6.54" y1="66.07" x2="220.84" y2="66.07" fill="none" stroke="black" stroke-width="0.25px" stroke-linecap="butt" />
<line x1="6.54" y1="77.98" x2="220.84" y2="77.98" fill="none" stroke="black" stroke-width="0.25px" stroke-linecap="butt" />
<line x1="6.54" y1="89.88" x2="220.84" y2="89.88" fill="none" stroke="black" stroke-width="0.25px" stroke-linecap="butt" />
<line x1="6.54" y1="101.79" x2="220.84" y2="101.79" fill="none" stroke="black" stroke-width="0.25px" stroke-linecap="butt" />
<line x1="6.54" y1="113.69" x2="220.84" y2="113.69" fill="none" stroke="black" stroke-width="0.25px" stroke-linecap="butt" />
<line x1="6.54" y1="125.60" x2="220.84" y2="125.60" fill="none" stroke="black" stroke-width="0.25px" stroke-linecap="butt" />
<line x1="6.54" y1="137.50" x2="220.84" y2="137.50" fill="none" stroke="black" stroke-width="0.25px" stroke-linecap="butt" />
<line x1="6.54" y1="149.41" x2="220.84" y2="149.41" fill="none" stroke="black" stroke-width="0.25px" stroke-linecap="butt" />
<line x1="6.54" y1="161.31" x2="220.84" y2="161.31" fill="none" stroke="black" stroke-width="0.25px" stroke-linecap="butt" />
<line x1="6.54" y1="173.22" x2="220.84" y2="173.22" fill="none" stroke="black" stroke-width="0.25px" stroke-linecap="butt" />
<line x1="6.54" y1="185.13" x2="220.84" y2="185.13" fill="none" stroke="black" stroke-width="0.25px" stroke-linecap="butt" />
<line x1="6.54" y1="197.03" x2="220.84" y2="197.03" fill="none" stroke="black" stroke-width="0.25px" stroke-linecap="butt" />
<line x1="6.54" y1="208.94" x2="220.84" y2="208.94" fill="none" stroke="black" stroke-width="0.25px" stroke-linecap="butt" />
<line x1="6.54" y1="220.84" x2="220.84" y2="220.84" fill="none" stroke="black" stroke-width="0.87px" stroke-linecap="square" />
<circle cx="18.45" cy="149.41" r="5.85" fill="white"/>
<circle cx="18.45" cy="149.41" r="5.85" fill="none" stroke="black" stroke-width="0.25px"/>
<circle cx="18.45" cy="173.22" r="5.85" fill="white"/>
<circle cx="18.45" cy="173.22" r="5.85" fill="none" stroke="black" stroke-width="0.25px"/>
<circle cx="18.45" cy="185.13" r="5.85" fill="white"/>
<circle cx="18.45" cy="185.13" r="5.85" fill="none" stroke="black" stroke-width="0.25px"/>
<circle cx="30.35" cy="54.17" r="5.98" fill="black"/>
<circle cx="30.35" cy="89.88" r="5.85" fill="white"/>
<circle cx="30.35" cy="89.88" r="5.85" fill="none" stroke="black" stroke-width="0.25px"/>
<circle cx="30.35" cy="125.60" r="5.85" fill="white"/>
<circle cx="30.35" cy="125.60" r="5.85" fill="none" stroke="black" stroke-width="0.25px"/>
<circle cx="30.35" cy="161.31" r="5.85" fill="white"/>
<circle cx="30.35" cy="161.31" r="5.85" fill="none" stroke="black" stroke-width="0.25px"/>
<circle cx="30.35" cy="173.22" r="5.98" fill="black"/>
<circle cx="30.35" cy="185.13" r="5.85" fill="white"/>
<circle cx="30.35" cy="185.13" r="5.85" fill="none" stroke="black" stroke-width="0.25px"/>
<circle cx="30.35" cy="197.03" r="5.98" fill="black"/>
<circle cx="42.26" cy="30.35" r="5.85" fill="white"/>
<circle cx="42.26" cy="30.35" r="5.85" fill="none" stroke="black" stroke-width="0.25px"/>
<circle cx="42.26" cy="42.26" r="1.27" fill="black"/>
<circle cx="42.26" cy="77.98" r="5.85" fill="white"/>
<circle cx="42.26" cy="77.98" r="5.85" fill="none" stroke="black" stroke-width="0.25px"/>
<circle cx="42.26" cy="89.88" r="5.98" fill="black"/>
<circle cx="42.26" cy="101.79" r="5.85" fill="white"/>
<circle cx="42.26" cy="101.79" r="5.85" fill="none" stroke="black" stroke-width="0.25px"/>
<circle cx="42.26" cy="113.69" r="1.27" fill="black"/>
<circle cx="42.26" cy="137.50" r="5.85" fill="white"/>
<circle cx="42.26" cy="137.50" r="5.85" fill="none" stroke="black" stroke-width="0.25px"/>
<circle cx="42.26" cy="149.41" r="5.85" fill="white"/>
<circle cx="42.26" cy="149.41" r="5.85" fill="none" stroke="black" stroke-width="0.25px"/>
<circle cx="42.26" cy="161.31" r="5.98" fill="black"/>
<circle cx="42.26" cy="173.22" r="5.98" fill="black"/>
<circle cx="42.26" cy="185.13" r="5.98" fill="black"/>
<circle cx="54.17" cy="66.07" r="5.98" fill="black"/>
<circle cx="54.17" cy="77.98" r="5.98" fill="black"/>
<circle cx="54.17" cy="89.88" r="5.98" fill="black"/>
<circle cx="54.17" cy="149.41" r="5.98" fill="black"/>
<circle cx="54.17" cy="161.31" r="5.98" fill="black"/>
<circle cx="66.07" cy="197.03" r="5.98" fill="black"/>
<circle cx="77.98" cy="30.35" r="5.85" fill="white"/>
<circle cx="77.98" cy="30.35" r="5.85" fill="none" stroke="black" stroke-width="0.25px"/>
<circle cx="101.79" cy="173.22" r="5.98" fill="black"/>
<circle cx="101.79" cy="197.03" r="5.98" fill="black"/>
<circle cx="113.69" cy="30.35" r="5.85" fill="white"/>
<circle cx="113.69" cy="30.35" r="5.85" fill="none" stroke="black" stroke-width="0.25px"/>
<circle cx="113.69" cy="42.26" r="1.27" fill="black"/>
<circle cx="113.69" cy="54.17" r="5.85" fill="white"/>
<circle cx="113.69" cy="54.17" r="5.85" fill="none" stroke="black" stroke-width="0.25px"/>
<circle cx="113.69" cy="113.69" r="1.27" fill="black"/>
<circle cx="113.69" cy="185.13" r="1.27" fill="black"/>
<circle cx="113.69" cy="208.94" r="5.98" fill="black"/>
<circle cx="125.60" cy="197.03" r="5.85" fill="white"/>
<circle cx="125.60" cy="197.03" r="5.85" fill="none" stroke="black" stroke-width="0.25px"/>
<circle cx="125.60" cy="208.94" r="5.85" fill="white"/>
<circle cx="125.60" cy="208.94" r="5.85" fill="none" stroke="black" stroke-width="0.25px"/>
<circle cx="137.50" cy="30.35" r="5.98" fill="black"/>
<circle cx="137.50" cy="185.13" r="5.85" fill="white"/>
<circle cx="137.50" cy="185.13" r="5.85" fill="none" stroke="black" stroke-width="0.25px"/>
<circle cx="149.41" cy="149.41" r="5.98" fill="black"/>
<circle cx="149.41" cy="173.22" r="5.85" fill="white"/>
<circle cx="149.41" cy="173.22" r="5.85" fill="none" stroke="black" stroke-width="0.25px"/>
<circle cx="149.41" cy="197.03" r="5.98" fill="black"/>
<circle cx="173.22" cy="89.88" r="5.98" fill="black"/>
<circle cx="173.22" cy="185.13" r="5.85" fill="white"/>
<circle cx="173.22" cy="185.13" r="5.85" fill="none" stroke="black" stroke-width="0.25px"/>
<circle cx="185.13" cy="30.35" r="5.98" fill="black"/>
<circle cx="185.13" cy="42.26" r="5.98" fill="black"/>
<circle cx="185.13" cy="113.69" r="1.27" fill="black"/>
<circle cx="185.13" cy="161.31" r="5.85" fill="white"/>
<circle cx="185.13" cy="161.31" r="5.85" fill="none" stroke="black" stroke-width="0.25px"/>
<circle cx="185.13" cy="185.13" r="1.27" fill="black"/>
<circle cx="185.13" cy="197.03" r="5.85" fill="white"/>
<circle cx="185.13" cy="197.03" r="5.85" fill="none" stroke="black" stroke-width="0.25px"/>
<circle cx="197.03" cy="89.88" r="5.98" fill="black"/>
<circle cx="197.03" cy="113.69" r="5.85" fill="white"/>
<circle cx="197.03" cy="113.69" r="5.85" fill="none" stroke="black" stroke-width="0.25px"/>
<circle cx="197.03" cy="125.60" r="5.85" fill="white"/>
<circle cx="197.03" cy="125.60" r="5.85" fill="none" stroke="black" stroke-width="0.25px"/>
<circle cx="197.03" cy="149.41" r="5.85" fill="white"/>
<circle cx="197.03" cy="149.41" r="5.85" fill="none" stroke="black" stroke-width="0.25px"/>
<circle cx="197.03" cy="173.22" r="5.98" fill="black"/>
<circle cx="208.94" cy="113.69" r="5.98" fill="black"/>
<circle cx="208.94" cy="125.60" r="5.98" fill="black"/>
<circle cx="208.94" cy="137.50" r="5.98" fill="black"/>
<circle cx="208.94" cy="149.41" r="5.85" fill="white"/>
<circle cx="208.94" cy="149.41" r="5.85" fill="none" stroke="black" stroke-width="0.25px"/>
<path d="
M17.22 145.88
L16.65 149.49
L17.32 149.60
C17.43 149.38 17.58 149.22 17.76 149.10
C17.95 148.98 18.15 148.92 18.37 148.92
C18.72 148.92 19.02 149.06 19.25 149.33
C19.49 149.61 19.61 150.00 19.61 150.50
C19.61 151.04 19.48 151.46 19.24 151.77
C19.00 152.07 18.71 152.23 18.37 152.23
C18.10 152.23 17.87 152.12 17.66 151.90
C17.46 151.68 17.33 151.35 17.27 150.90
L16.53 150.98
C16.58 151.59 16.77 152.07 17.12 152.42
C17.46 152.77 17.88 152.94 18.38 152.94
C18.98 152.94 19.46 152.69 19.82 152.20
C20.18 151.71 20.35 151.12 20.35 150.43
C20.35 149.74 20.18 149.18 19.82 148.77
C19.46 148.36 19.04 148.15 18.56 148.15
C18.18 148.15 17.81 148.30 17.47 148.60
L17.78 146.70
L20.08 146.70
L20.08 145.88
Z
" fill="black" fill-rule="nonzero" />
<path d="
M18.74 169.69
C18.62 169.99 18.40 170.31 18.11 170.63
C17.81 170.96 17.46 171.23 17.07 171.45
L17.07 172.29
C17.30 172.19 17.55 172.04 17.83 171.84
C18.10 171.64 18.32 171.44 18.49 171.25
L18.49 176.75
L19.20 176.75
L19.20 169.69
Z
" fill="black" fill-rule="nonzero" />
<path d="
M16.58 181.65
L16.58 182.48
L19.40 182.48
C19.04 182.98 18.71 183.59 18.40 184.30
C18.09 185.01 17.84 185.76 17.66 186.54
C17.49 187.32 17.39 188.01 17.38 188.60
L18.11 188.60
C18.18 187.46 18.42 186.31 18.84 185.15
C19.26 183.99 19.75 183.05 20.31 182.33
L20.31 181.65
Z
" fill="black" fill-rule="nonzero" />
<path d="
M30.37 169.55
C29.79 169.55 29.32 169.73 28.96 170.10
C28.60 170.47 28.40 171.00 28.35 171.71
L28.34 171.85
L28.47 171.86
L29.20 171.95
L29.36 171.97
L29.36 171.81
C29.36 171.39 29.45 171.08 29.64 170.86
C29.82 170.65 30.06 170.54 30.34 170.54
C30.34 170.54 30.34 170.54 30.34 170.54
C30.35 170.54 30.35 170.54 30.35 170.54
C30.61 170.54 30.84 170.64 31.02 170.84
C31.20 171.04 31.29 171.30 31.29 171.62
C31.29 171.90 31.20 172.21 31.00 172.55
C30.81 172.90 30.38 173.40 29.73 174.05
C29.15 174.63 28.75 175.13 28.53 175.56
C28.31 176.00 28.20 176.40 28.21 176.76
L28.21 176.89
L32.31 176.89
L32.31 176.75
L32.31 175.92
L32.31 175.78
L29.58 175.78
C29.63 175.70 29.69 175.62 29.75 175.54
C29.87 175.39 30.14 175.10 30.56 174.67
C31.23 173.97 31.68 173.42 31.93 173.00
C32.18 172.56 32.30 172.11 32.30 171.64
C32.30 171.10 32.14 170.62 31.82 170.20
C31.49 169.76 31.00 169.55 30.37 169.55
Z
" fill="white" fill-rule="nonzero" />
<path d="
M30.25 181.53
C29.81 181.53 29.43 181.68 29.12 181.99
C28.80 182.30 28.60 182.75 28.51 183.35
L29.22 183.51
C29.27 183.08 29.39 182.77 29.57 182.56
C29.76 182.35 29.99 182.24 30.26 182.24
C30.53 182.24 30.75 182.34 30.93 182.54
C31.11 182.74 31.20 183.01 31.20 183.34
C31.20 183.69 31.10 183.98 30.88 184.19
C30.66 184.41 30.38 184.52 30.03 184.52
L29.92 184.51
L29.84 185.26
C30.03 185.20 30.20 185.17 30.34 185.17
C30.65 185.17 30.92 185.29 31.14 185.54
C31.35 185.79 31.46 186.12 31.46 186.53
C31.46 186.97 31.34 187.32 31.11 187.60
C30.87 187.87 30.59 188.01 30.27 188.01
C29.67 188.01 29.30 187.54 29.15 186.62
L28.44 186.74
C28.49 187.34 28.68 187.82 29.02 188.18
C29.37 188.54 29.78 188.72 30.28 188.72
C30.81 188.72 31.26 188.52 31.65 188.10
C32.03 187.69 32.22 187.16 32.22 186.52
C32.22 186.21 32.17 185.94 32.08 185.69
C31.98 185.45 31.86 185.25 31.71 185.10
C31.56 184.95 31.37 184.85 31.14 184.78
C31.39 184.64 31.59 184.45 31.72 184.20
C31.86 183.96 31.93 183.67 31.93 183.35
C31.93 182.83 31.77 182.39 31.44 182.05
C31.12 181.70 30.72 181.53 30.25 181.53
Z
" fill="black" fill-rule="nonzero" />
<path d="
M29.26 196.39
L29.26 196.39
C29.26 196.39 29.26 196.39 29.26 196.39
L29.26 196.39
C29.26 196.39 29.26 196.39 29.26 196.39
Z
M30.37 196.84
C30.63 196.84 30.86 196.96 31.05 197.20
C31.25 197.45 31.35 197.81 31.35 198.28
C31.35 198.75 31.25 199.13 31.05 199.39
C30.86 199.65 30.65 199.77 30.41 199.77
C30.41 199.77 30.41 199.77 30.41 199.77
C30.41 199.77 30.41 199.77 30.41 199.77
C30.14 199.77 29.90 199.64 29.69 199.36
C29.47 199.08 29.36 198.70 29.36 198.22
C29.36 197.79 29.46 197.45 29.67 197.20
C29.87 196.96 30.10 196.84 30.36 196.84
C30.36 196.84 30.36 196.84 30.36 196.84
C30.36 196.84 30.37 196.84 30.37 196.84
Z
M30.47 193.30
C29.82 193.30 29.28 193.61 28.86 194.23
C28.46 194.83 28.26 195.82 28.26 197.21
C28.26 198.47 28.46 199.37 28.85 199.92
C29.26 200.48 29.78 200.76 30.41 200.77
C30.76 200.77 31.08 200.67 31.37 200.47
C31.67 200.27 31.90 199.97 32.08 199.56
C32.26 199.16 32.35 198.71 32.35 198.22
C32.35 197.50 32.17 196.91 31.81 196.47
C31.44 196.02 31.01 195.80 30.50 195.80
C30.20 195.80 29.91 195.88 29.64 196.06
C29.50 196.15 29.38 196.26 29.26 196.39
L29.26 196.39
C29.30 195.79 29.40 195.32 29.56 194.98
C29.68 194.74 29.81 194.57 29.96 194.45
C30.09 194.34 30.25 194.29 30.42 194.29
C30.43 194.29 30.43 194.29 30.43 194.29
C30.43 194.29 30.43 194.29 30.43 194.29
C30.65 194.29 30.84 194.39 31.00 194.58
C31.11 194.71 31.20 194.95 31.27 195.28
L31.29 195.41
L31.42 195.40
L32.12 195.33
L32.27 195.32
L32.25 195.17
C32.18 194.57 31.99 194.11 31.67 193.79
C31.35 193.46 30.95 193.30 30.47 193.30
Z
" fill="white" fill-rule="nonzero" />
<path d="
M42.24 134.63
C42.53 134.63 42.79 134.77 43.01 135.06
C43.24 135.35 43.35 135.74 43.35 136.24
C43.35 136.75 43.24 137.14 43.02 137.41
C42.81 137.69 42.54 137.83 42.23 137.83
C41.91 137.83 41.64 137.69 41.41 137.42
C41.18 137.14 41.07 136.78 41.07 136.32
C41.07 135.80 41.19 135.39 41.43 135.09
C41.67 134.78 41.94 134.63 42.24 134.63
Z
M42.16 133.91
C41.65 133.91 41.22 134.12 40.87 134.55
C40.52 134.97 40.34 135.55 40.34 136.29
C40.34 137.00 40.51 137.56 40.85 137.97
C41.19 138.39 41.60 138.59 42.07 138.59
C42.33 138.59 42.58 138.51 42.83 138.34
C43.08 138.17 43.28 137.95 43.43 137.66
L43.43 137.84
C43.43 138.39 43.36 138.87 43.22 139.28
C43.09 139.69 42.93 139.98 42.73 140.14
C42.54 140.31 42.32 140.39 42.09 140.39
C41.56 140.39 41.24 140.01 41.13 139.27
L40.45 139.35
C40.50 139.92 40.68 140.35 40.97 140.65
C41.27 140.95 41.63 141.10 42.07 141.10
C42.46 141.10 42.81 140.97 43.12 140.73
C43.43 140.48 43.68 140.09 43.86 139.56
C44.05 139.02 44.14 138.27 44.14 137.30
C44.14 136.44 44.05 135.77 43.88 135.31
C43.71 134.85 43.47 134.50 43.16 134.27
C42.85 134.03 42.52 133.91 42.16 133.91
Z
" fill="black" fill-rule="nonzero" />
<path d="
M42.47 171.62
L42.47 174.12
L41.05 174.12
L42.47 171.62
Z
M42.66 169.56
L42.62 169.63
L39.99 174.19
L39.97 174.22
L39.97 174.26
L39.97 175.05
L39.97 175.20
L42.47 175.20
L42.47 176.74
L42.47 176.88
L43.46 176.88
L43.46 176.74
L43.46 175.20
L44.24 175.20
L44.24 175.05
L44.24 174.26
L44.24 174.12
L43.46 174.12
L43.46 169.70
L43.46 169.56
Z
" fill="white" fill-rule="nonzero" />
<path d="
M54.13 146.67
C54.13 146.67 54.14 146.67 54.14 146.67
C54.14 146.67 54.14 146.67 54.14 146.67
C54.35 146.67 54.54 146.76 54.70 146.94
C54.86 147.12 54.94 147.36 54.94 147.65
C54.94 147.93 54.86 148.16 54.70 148.34
C54.55 148.51 54.37 148.59 54.15 148.59
C54.15 148.59 54.15 148.59 54.15 148.59
C54.15 148.59 54.14 148.59 54.14 148.59
C53.92 148.59 53.73 148.51 53.58 148.33
C53.42 148.16 53.34 147.91 53.34 147.60
C53.34 147.33 53.42 147.11 53.58 146.93
C53.74 146.76 53.92 146.67 54.13 146.67
Z
M54.12 149.58
C54.13 149.58 54.13 149.58 54.13 149.58
C54.13 149.58 54.13 149.58 54.13 149.58
C54.41 149.58 54.66 149.70 54.86 149.93
C55.07 150.17 55.18 150.48 55.18 150.88
C55.18 151.27 55.07 151.58 54.87 151.81
C54.67 152.04 54.43 152.15 54.15 152.15
C54.15 152.15 54.15 152.15 54.15 152.15
C54.15 152.15 54.14 152.15 54.14 152.15
C53.86 152.15 53.62 152.03 53.42 151.80
C53.21 151.56 53.11 151.25 53.11 150.85
C53.11 150.47 53.21 150.16 53.41 149.93
C53.61 149.70 53.85 149.58 54.12 149.58
Z
M54.13 145.67
C53.61 145.68 53.18 145.86 52.84 146.22
C52.50 146.59 52.33 147.05 52.33 147.63
C52.33 148.01 52.41 148.33 52.57 148.59
C52.68 148.77 52.83 148.93 53.01 149.05
L53.01 149.05
C52.77 149.18 52.57 149.37 52.41 149.61
C52.20 149.94 52.10 150.35 52.10 150.85
C52.10 151.53 52.29 152.08 52.68 152.50
C53.07 152.93 53.56 153.14 54.15 153.14
C54.73 153.14 55.21 152.93 55.60 152.50
C55.99 152.08 56.18 151.54 56.18 150.88
C56.18 150.39 56.08 149.99 55.88 149.66
C55.73 149.40 55.52 149.20 55.27 149.06
L55.27 149.06
C55.46 148.93 55.61 148.77 55.72 148.59
C55.87 148.33 55.95 148.02 55.95 147.65
C55.95 147.08 55.78 146.60 55.43 146.23
C55.09 145.86 54.65 145.68 54.13 145.67
Z
" fill="white" fill-rule="nonzero" />
<path d="
M103.55 170.45
C103.55 170.45 103.55 170.45 103.55 170.45
C103.55 170.45 103.55 170.45 103.55 170.45
C103.66 170.45 103.75 170.49 103.84 170.56
C103.94 170.65 104.03 170.78 104.11 170.95
C104.28 171.33 104.36 172.08 104.36 173.22
C104.36 174.35 104.28 175.10 104.11 175.48
C104.03 175.66 103.94 175.80 103.85 175.88
C103.77 175.96 103.68 176.00 103.58 176.00
C103.58 176.00 103.58 176.00 103.58 176.00
C103.58 176.00 103.58 176.00 103.58 176.00
C103.48 176.00 103.38 175.96 103.30 175.88
C103.20 175.80 103.11 175.67 103.03 175.49
C102.86 175.11 102.78 174.36 102.78 173.22
C102.78 172.10 102.86 171.34 103.03 170.96
C103.11 170.78 103.19 170.65 103.29 170.56
C103.37 170.49 103.45 170.45 103.55 170.45
Z
M100.10 169.44
L100.07 169.54
C99.98 169.84 99.81 170.14 99.58 170.46
C99.35 170.77 99.08 171.04 98.77 171.26
L98.72 171.30
L98.72 171.37
L98.72 172.22
L98.71 172.46
L98.93 172.34
C99.12 172.23 99.34 172.07 99.57 171.86
C99.67 171.76 99.77 171.67 99.86 171.57
L99.86 171.57
L99.86 176.74
L99.86 176.88
L100.72 176.88
L100.72 176.74
L100.72 169.58
L100.72 169.44
Z
M103.58 169.44
C103.29 169.44 103.04 169.53 102.82 169.70
C102.62 169.87 102.44 170.12 102.30 170.45
C102.04 171.08 101.91 172.01 101.91 173.22
C101.91 174.58 102.05 175.54 102.35 176.11
C102.50 176.40 102.67 176.62 102.87 176.77
C103.08 176.92 103.31 177.00 103.57 177.00
C103.85 177.00 104.10 176.91 104.32 176.74
C104.53 176.57 104.70 176.32 104.84 175.99
C105.10 175.35 105.24 174.43 105.24 173.22
C105.24 171.88 105.08 170.89 104.75 170.27
C104.62 170.00 104.45 169.79 104.25 169.66
C104.05 169.51 103.83 169.44 103.58 169.44
Z
" fill="white" fill-rule="nonzero" />
</g>
<g  transform="translate(1.19,228.58)" >
<path d="
M106.49 2.94
C106.33 2.94 106.19 3.00 106.07 3.11
C105.96 3.23 105.90 3.37 105.90 3.53
C105.90 3.69 105.96 3.83 106.08 3.95
C106.19 4.07 106.33 4.12 106.49 4.12
C106.66 4.12 106.80 4.07 106.91 3.95
C107.02 3.83 107.08 3.69 107.08 3.53
C107.08 3.37 107.02 3.23 106.91 3.11
C106.80 3.00 106.66 2.94 106.49 2.94
Z
M111.46 8.04
L111.46 10.07
C110.98 10.46 110.60 10.65 110.30 10.65
C110.08 10.65 109.89 10.56 109.73 10.37
C109.56 10.19 109.48 9.96 109.48 9.68
C109.48 9.46 109.54 9.25 109.67 9.07
C109.81 8.88 110.02 8.70 110.33 8.53
C110.50 8.44 110.88 8.27 111.46 8.04
Z
M99.82 3.77
C100.75 3.77 101.51 4.08 102.10 4.71
C102.69 5.34 102.99 6.20 102.99 7.29
C102.99 8.37 102.69 9.23 102.10 9.86
C101.51 10.49 100.76 10.81 99.86 10.81
C99.53 10.81 99.12 10.75 98.62 10.64
L98.62 3.94
C99.07 3.83 99.47 3.77 99.82 3.77
Z
M96.37 3.33
L96.37 3.54
L96.67 3.54
C96.97 3.54 97.19 3.63 97.34 3.80
C97.45 3.92 97.51 4.23 97.51 4.72
L97.51 9.82
C97.51 10.26 97.46 10.55 97.38 10.68
C97.24 10.89 97.00 11.00 96.67 11.00
L96.37 11.00
L96.37 11.21
L99.90 11.21
C101.43 11.21 102.57 10.80 103.32 9.98
C103.98 9.24 104.32 8.33 104.32 7.23
C104.32 6.41 104.13 5.69 103.76 5.07
C103.38 4.44 102.89 4.00 102.27 3.73
C101.66 3.46 100.76 3.33 99.58 3.33
Z
M106.72 5.73
L105.12 6.38
L105.20 6.59
C105.35 6.53 105.48 6.50 105.59 6.50
C105.69 6.50 105.77 6.53 105.83 6.58
C105.89 6.62 105.93 6.71 105.96 6.83
C105.99 7.00 106.01 7.38 106.01 7.96
L106.01 10.01
C106.01 10.34 105.98 10.56 105.93 10.68
C105.88 10.79 105.81 10.88 105.72 10.93
C105.63 10.98 105.46 11.00 105.20 11.00
L105.20 11.21
L107.78 11.21
L107.78 11.00
C107.53 11.00 107.36 10.98 107.26 10.92
C107.17 10.87 107.10 10.79 107.05 10.68
C107.00 10.56 106.98 10.34 106.98 10.01
L106.98 5.73
Z
M122.63 3.16
L120.71 4.10
L120.79 4.28
C121.05 4.16 121.25 4.10 121.39 4.10
C121.49 4.10 121.58 4.13 121.65 4.19
C121.72 4.25 121.77 4.34 121.80 4.46
C121.84 4.62 121.86 4.99 121.86 5.57
L121.86 9.82
C121.86 10.30 121.84 10.58 121.79 10.67
C121.75 10.77 121.68 10.85 121.57 10.90
C121.46 10.96 121.22 10.99 120.85 11.00
L120.85 11.21
L123.81 11.21
L123.81 11.00
C123.46 10.99 123.22 10.96 123.10 10.90
C122.99 10.84 122.91 10.76 122.87 10.65
C122.84 10.54 122.82 10.27 122.82 9.82
L122.82 3.16
Z
M110.65 5.73
C110.03 5.73 109.56 5.87 109.21 6.15
C108.87 6.43 108.70 6.73 108.70 7.07
C108.70 7.24 108.75 7.38 108.84 7.48
C108.93 7.58 109.05 7.63 109.19 7.63
C109.34 7.63 109.46 7.58 109.55 7.49
C109.64 7.39 109.69 7.25 109.69 7.07
L109.67 6.74
C109.67 6.56 109.75 6.41 109.89 6.28
C110.04 6.15 110.23 6.08 110.48 6.08
C110.80 6.08 111.04 6.18 111.21 6.38
C111.38 6.58 111.46 6.94 111.46 7.47
L111.46 7.68
C110.55 8.02 109.90 8.30 109.50 8.53
C109.11 8.76 108.83 9.01 108.67 9.28
C108.56 9.47 108.50 9.69 108.50 9.95
C108.50 10.36 108.62 10.69 108.86 10.95
C109.09 11.20 109.40 11.32 109.77 11.32
C110.00 11.32 110.23 11.27 110.44 11.18
C110.57 11.11 110.92 10.87 111.46 10.45
C111.47 10.76 111.53 10.99 111.64 11.12
C111.75 11.25 111.90 11.32 112.09 11.32
C112.49 11.32 112.90 11.03 113.34 10.45
L113.34 10.12
C113.10 10.35 112.95 10.49 112.87 10.54
C112.82 10.57 112.77 10.58 112.70 10.58
C112.65 10.58 112.59 10.57 112.55 10.53
C112.50 10.49 112.47 10.41 112.45 10.30
C112.43 10.18 112.42 9.87 112.42 9.36
L112.42 7.55
C112.42 7.04 112.39 6.70 112.32 6.53
C112.21 6.28 112.04 6.09 111.81 5.97
C111.51 5.81 111.12 5.73 110.65 5.73
Z
M114.85 10.08
C114.67 10.08 114.52 10.15 114.39 10.27
C114.26 10.39 114.20 10.55 114.20 10.73
C114.20 10.91 114.26 11.06 114.39 11.19
C114.52 11.31 114.67 11.38 114.85 11.38
C115.03 11.38 115.18 11.31 115.30 11.19
C115.43 11.06 115.49 10.91 115.49 10.73
C115.49 10.55 115.43 10.40 115.31 10.27
C115.18 10.15 115.03 10.08 114.85 10.08
Z
M126.46 3.33
L125.71 5.19
L125.87 5.26
C126.07 4.89 126.33 4.61 126.66 4.43
C126.85 4.33 127.16 4.28 127.60 4.28
L129.76 4.28
L127.41 11.38
L128.06 11.38
L130.69 3.55
L130.69 3.33
Z
" fill="black" fill-rule="nonzero" />
</g>
</g>
</svg>
