<?xml version="1.0" encoding="utf-8" standalone="no"?>
<!DOCTYPE svg PUBLIC "-//W3C//DTD SVG 1.0//EN" "http://www.w3.org/TR/SVG/DTD/svg11.dtd" >
<svg version="1.1" baseProfile="full"  width="319.13385" height="356.88123" viewBox="0 0 229.77638 256.95447" preserveAspectRatio="xMidYMid" xmlns="http://www.w3.org/2000/svg" >

<g lengthAdjust="spacingAndGlyphs" xml:space='preserve' >
<g  transform="translate(1.19,1.19)" >
<path d="
M0.0 0.0
L0.0 227.39
L227.39 227.39
L227.39 0.0
Z
" fill="none" fill-rule="nonzero" />
<line x1="6.54" y1="6.54" x2="6.54" y2="220.84" fill="none" stroke="black" stroke-width="0.87px" stroke-linecap="square" />
<line x1="18.45" y1="6.54" x2="18.45" y2="220.84" fill="none" stroke="black" stroke-width="0.25px" stroke-linecap="butt" />
<line x1="30.35" y1="6.54" x2="30.35" y2="220.84" fill="none" stroke="black" stroke-width="0.25px" stroke-linecap="butt" />
<line x1="42.26" y1="6.54" x2="42.26" y2="220.84" fill="none" stroke="black" stroke-width="0.25px" stroke-linecap="butt" />
<line x1="54.17" y1="6.54" x2="54.17" y2="220.84" fill="none" stroke="black" stroke-width="0.25px" stroke-linecap="butt" />
<line x1="66.07" y1="6.54" x2="66.07" y2="220.84" fill="none" stroke="black" stroke-width="0.25px" stroke-linecap="butt" />
<line x1="77.98" y1="6.54" x2="77.98" y2="220.84" fill="none" stroke="black" stroke-width="0.25px" stroke-linecap="butt" />
<line x1="89.88" y1="6.54" x2="89.88" y2="220.84" fill="none" stroke="black" stroke-width="0.25px" stroke-linecap="butt" />
<line x1="101.79" y1="6.54" x2="101.79" y2="220.84" fill="none" stroke="black" stroke-width="0.25px" stroke-linecap="butt" />
<line x1="113.69" y1="6.54" x2="113.69" y2="220.84" fill="none" stroke="black" stroke-width="0.25px" stroke-linecap="butt" />
<line x1="125.60" y1="6.54" x2="125.60" y2="220.84" fill="none" stroke="black" stroke-width="0.25px" stroke-linecap="butt" />
<line x1="137.50" y1="6.54" x2="137.50" y2="220.84" fill="none" stroke="black" stroke-width="0.25px" stroke-linecap="butt" />
<line x1="149.41" y1="6.54" x2="149.41" y2="220.84" fill="none" stroke="black" stroke-width="0.25px" stroke-linecap="butt" />
<line x1="161.31" y1="6.54" x2="161.31" y2="220.84" fill="none" stroke="black" stroke-width="0.25px" stroke-linecap="butt" />
<line x1="173.22" y1="6.54" x2="173.22" y2="220.84" fill="none" stroke="black" stroke-width="0.25px" stroke-linecap="butt" />
<line x1="185.13" y1="6.54" x2="185.13" y2="220.84" fill="none" stroke="black" stroke-width="0.25px" stroke-linecap="butt" />
<line x1="197.03" y1="6.54" x2="197.03" y2="220.84" fill="none" stroke="black" stroke-width="0.25px" stroke-linecap="butt" />
<line x1="208.94" y1="6.54" x2="208.94" y2="220.84" fill="none" stroke="black" stroke-width="0.25px" stroke-linecap="butt" />
<line x1="220.84" y1="6.54" x2="220.84" y2="220.84" fill="none" stroke="black" stroke-width="0.87px" stroke-linecap="square" />
<line x1="6.54" y1="6.54" x2="220.84" y2="6.54" fill="none" stroke="black" stroke-width="0.87px" stroke-linecap="square" />
<line x1="6.54" y1="18.45" x2="220.84" y2="18.45" fill="none" stroke="black" stroke-width="0.25px" stroke-linecap="butt" />
<line x1="6.54" y1="30.35" x2="220.84" y2="30.35" fill="none" stroke="black" stroke-width="0.25px" stroke-linecap="butt" />
<line x1="6.54" y1="42.26" x2="220.84" y2="42.26" fill="none" stroke="black" stroke-width="0.25px" stroke-linecap="butt" />
<line x1="6.54" y1="54.17" x2="220.84" y2="54.17" fill="none" stroke="black" stroke-width="0.25px" stroke-linecap="butt" />
<line x1="6.54" y1="66.07" x2="220.84" y2="66.07" fill="none" stroke="black" stroke-width="0.25px" stroke-linecap="butt" />
<line x1="6.54" y1="77.98" x2="220.84" y2="77.98" fill="none" stroke="black" stroke-width="0.25px" stroke-linecap="butt" />
<line x1="6.54" y1="89.88" x2="220.84" y2="89.88" fill="none" stroke="black" stroke-width="0.25px" stroke-linecap="butt" />
<line x1="6.54" y1="101.79" x2="220.84" y2="101.79" fill="none" stroke="black" stroke-width="0.25px" stroke-linecap="butt" />
<line x1="6.54" y1="113.69" x2="220.84" y2="113.69" fill="none" stroke="black" stroke-width="0.25px" stroke-linecap="butt" />
<line x1="6.54" y1="125.60" x2="220.84" y2="125.60" fill="none" stroke="black" stroke-width="0.25px" stroke-linecap="butt" />
<line x1="6.54" y1="137.50" x2="220.84" y2="137.50" fill="none" stroke="black" stroke-width="0.25px" stroke-linecap="butt" />
<line x1="6.54" y1="149.41" x2="220.84" y2="149.41" fill="none" stroke="black" stroke-width="0.25px" stroke-linecap="butt" />
<line x1="6.54" y1="161.31" x2="220.84" y2="161.31" fill="none" stroke="black" stroke-width="0.25px" stroke-linecap="butt" />
<line x1="6.54" y1="173.22" x2="220.84" y2="173.22" fill="none" stroke="black" stroke-width="0.25px" stroke-linecap="butt" />
<line x1="6.54" y1="185.13" x2="220.84" y2="185.13" fill="none" stroke="black" stroke-width="0.25px" stroke-linecap="butt" />
<line x1="6.54" y1="197.03" x2="220.84" y2="197.03" fill="none" stroke="black" stroke-width="0.25px" stroke-linecap="butt" />
<line x1="6.54" y1="208.94" x2="220.84" y2="208.94" fill="none" stroke="black" stroke-width="0.25px" stroke-linecap="butt" />
<line x1="6.54" y1="220.84" x2="220.84" y2="220.84" fill="none" stroke="black" stroke-width="0.87px" stroke-linecap="square" />
<circle cx="30.35" cy="54.17" r="5.98" fill="black"/>
<circle cx="30.35" cy="89.88" r="5.85" fill="white"/>
<circle cx="30.35" cy="89.88" r="5.85" fill="none" stroke="black" stroke-width="0.25px"/>
<circle cx="30.35" cy="125.60" r="5.85" fill="white"/>
<circle cx="30.35" cy="125.60" r="5.85" fill="none" stroke="black" stroke-width="0.25px"/>
<circle cx="30.35" cy="161.31" r="5.85" fill="white"/>
<circle cx="30.35" cy="161.31" r="5.85" fill="none" stroke="black" stroke-width="0.25px"/>
<circle cx="42.26" cy="30.35" r="5.85" fill="white"/>
<circle cx="42.26" cy="30.35" r="5.85" fill="none" stroke="black" stroke-width="0.25px"/>
<circle cx="42.26" cy="42.26" r="1.27" fill="black"/>
<circle cx="42.26" cy="77.98" r="5.85" fill="white"/>
<circle cx="42.26" cy="77.98" r="5.85" fill="none" stroke="black" stroke-width="0.25px"/>
<circle cx="42.26" cy="89.88" r="5.98" fill="black"/>
<circle cx="42.26" cy="101.79" r="5.85" fill="white"/>
<circle cx="42.26" cy="101.79" r="5.85" fill="none" stroke="black" stroke-width="0.25px"/>
<circle cx="42.26" cy="113.69" r="1.27" fill="black"/>
<circle cx="42.26" cy="185.13" r="5.98" fill="black"/>
<circle cx="54.17" cy="66.07" r="5.98" fill="black"/>
<circle cx="54.17" cy="77.98" r="5.98" fill="black"/>
<circle cx="54.17" cy="89.88" r="5.98" fill="black"/>
<circle cx="66.07" cy="197.03" r="5.98" fill="black"/>
<circle cx="77.98" cy="30.35" r="5.85" fill="white"/>
<circle cx="77.98" cy="30.35" r="5.85" fill="none" stroke="black" stroke-width="0.25px"/>
<circle cx="101.79" cy="185.13" r="5.85" fill="white"/>
<circle cx="101.79" cy="185.13" r="5.85" fill="none" stroke="black" stroke-width="0.25px"/>
<circle cx="101.79" cy="197.03" r="5.98" fill="black"/>
<circle cx="101.79" cy="208.94" r="5.98" fill="black"/>
<circle cx="113.69" cy="30.35" r="5.85" fill="white"/>
<circle cx="113.69" cy="30.35" r="5.85" fill="none" stroke="black" stroke-width="0.25px"/>
<circle cx="113.69" cy="42.26" r="1.27" fill="black"/>
<circle cx="113.69" cy="113.69" r="1.27" fill="black"/>
<circle cx="113.69" cy="185.13" r="1.27" fill="black"/>
<circle cx="113.69" cy="197.03" r="5.85" fill="white"/>
<circle cx="113.69" cy="197.03" r="5.85" fill="none" stroke="black" stroke-width="0.25px"/>
<circle cx="113.69" cy="208.94" r="5.85" fill="white"/>
<circle cx="113.69" cy="208.94" r="5.85" fill="none" stroke="black" stroke-width="0.25px"/>
<circle cx="113.69" cy="220.84" r="5.85" fill="white"/>
<circle cx="113.69" cy="220.84" r="5.85" fill="none" stroke="black" stroke-width="0.25px"/>
<circle cx="125.60" cy="137.50" r="5.85" fill="white"/>
<circle cx="125.60" cy="137.50" r="5.85" fill="none" stroke="black" stroke-width="0.25px"/>
<circle cx="125.60" cy="149.41" r="5.98" fill="black"/>
<circle cx="125.60" cy="161.31" r="5.98" fill="black"/>
<circle cx="125.60" cy="173.22" r="5.85" fill="white"/>
<circle cx="125.60" cy="173.22" r="5.85" fill="none" stroke="black" stroke-width="0.25px"/>
<circle cx="125.60" cy="185.13" r="5.85" fill="white"/>
<circle cx="125.60" cy="185.13" r="5.85" fill="none" stroke="black" stroke-width="0.25px"/>
<circle cx="125.60" cy="197.03" r="5.85" fill="white"/>
<circle cx="125.60" cy="197.03" r="5.85" fill="none" stroke="black" stroke-width="0.25px"/>
<circle cx="125.60" cy="208.94" r="5.98" fill="black"/>
<circle cx="137.50" cy="125.60" r="5.85" fill="white"/>
<circle cx="137.50" cy="125.60" r="5.85" fill="none" stroke="black" stroke-width="0.25px"/>
<circle cx="137.50" cy="137.50" r="5.98" fill="black"/>
<circle cx="137.50" cy="149.41" r="5.85" fill="white"/>
<circle cx="137.50" cy="149.41" r="5.85" fill="none" stroke="black" stroke-width="0.25px"/>
<circle cx="137.50" cy="161.31" r="5.85" fill="white"/>
<circle cx="137.50" cy="161.31" r="5.85" fill="none" stroke="black" stroke-width="0.25px"/>
<circle cx="137.50" cy="173.22" r="5.98" fill="black"/>
<circle cx="137.50" cy="185.13" r="5.98" fill="black"/>
<circle cx="137.50" cy="197.03" r="5.98" fill="black"/>
<circle cx="137.50" cy="208.94" r="5.98" fill="black"/>
<circle cx="149.41" cy="125.60" r="5.98" fill="black"/>
<circle cx="149.41" cy="137.50" r="5.85" fill="white"/>
<circle cx="149.41" cy="137.50" r="5.85" fill="none" stroke="black" stroke-width="0.25px"/>
<circle cx="149.41" cy="149.41" r="5.85" fill="white"/>
<circle cx="149.41" cy="149.41" r="5.85" fill="none" stroke="black" stroke-width="0.25px"/>
<circle cx="149.41" cy="161.31" r="5.98" fill="black"/>
<circle cx="149.41" cy="173.22" r="5.85" fill="white"/>
<circle cx="149.41" cy="173.22" r="5.85" fill="none" stroke="black" stroke-width="0.25px"/>
<circle cx="149.41" cy="185.13" r="5.85" fill="white"/>
<circle cx="149.41" cy="185.13" r="5.85" fill="none" stroke="black" stroke-width="0.25px"/>
<circle cx="149.41" cy="197.03" r="5.98" fill="black"/>
<circle cx="149.41" cy="220.84" r="5.85" fill="white"/>
<circle cx="149.41" cy="220.84" r="5.85" fill="none" stroke="black" stroke-width="0.25px"/>
<circle cx="161.31" cy="137.50" r="5.98" fill="black"/>
<circle cx="161.31" cy="149.41" r="5.98" fill="black"/>
<circle cx="161.31" cy="161.31" r="5.98" fill="black"/>
<circle cx="161.31" cy="185.13" r="5.98" fill="black"/>
<circle cx="161.31" cy="208.94" r="5.98" fill="black"/>
<circle cx="173.22" cy="89.88" r="5.98" fill="black"/>
<circle cx="173.22" cy="149.41" r="5.98" fill="black"/>
<circle cx="173.22" cy="185.13" r="5.85" fill="white"/>
<circle cx="173.22" cy="185.13" r="5.85" fill="none" stroke="black" stroke-width="0.25px"/>
<circle cx="173.22" cy="208.94" r="5.98" fill="black"/>
<circle cx="185.13" cy="30.35" r="5.98" fill="black"/>
<circle cx="185.13" cy="42.26" r="5.98" fill="black"/>
<circle cx="185.13" cy="113.69" r="1.27" fill="black"/>
<circle cx="185.13" cy="149.41" r="5.85" fill="white"/>
<circle cx="185.13" cy="149.41" r="5.85" fill="none" stroke="black" stroke-width="0.25px"/>
<circle cx="185.13" cy="161.31" r="5.85" fill="white"/>
<circle cx="185.13" cy="161.31" r="5.85" fill="none" stroke="black" stroke-width="0.25px"/>
<circle cx="185.13" cy="185.13" r="1.27" fill="black"/>
<circle cx="185.13" cy="197.03" r="5.85" fill="white"/>
<circle cx="185.13" cy="197.03" r="5.85" fill="none" stroke="black" stroke-width="0.25px"/>
<circle cx="185.13" cy="208.94" r="5.85" fill="white"/>
<circle cx="185.13" cy="208.94" r="5.85" fill="none" stroke="black" stroke-width="0.25px"/>
<circle cx="197.03" cy="89.88" r="5.98" fill="black"/>
<circle cx="197.03" cy="113.69" r="5.85" fill="white"/>
<circle cx="197.03" cy="113.69" r="5.85" fill="none" stroke="black" stroke-width="0.25px"/>
<circle cx="197.03" cy="125.60" r="5.85" fill="white"/>
<circle cx="197.03" cy="125.60" r="5.85" fill="none" stroke="black" stroke-width="0.25px"/>
<circle cx="197.03" cy="149.41" r="5.85" fill="white"/>
<circle cx="197.03" cy="149.41" r="5.85" fill="none" stroke="black" stroke-width="0.25px"/>
<circle cx="197.03" cy="173.22" r="5.98" fill="black"/>
<circle cx="208.94" cy="113.69" r="5.98" fill="black"/>
<circle cx="208.94" cy="125.60" r="5.98" fill="black"/>
<circle cx="208.94" cy="137.50" r="5.98" fill="black"/>
<circle cx="208.94" cy="149.41" r="5.85" fill="white"/>
<circle cx="208.94" cy="149.41" r="5.85" fill="none" stroke="black" stroke-width="0.25px"/>
<path d="
M99.98 181.49
C99.55 181.49 99.19 181.66 98.92 182.01
C98.66 182.35 98.50 182.87 98.46 183.55
L99.05 183.64
C99.05 183.18 99.14 182.83 99.31 182.58
C99.48 182.34 99.70 182.21 99.96 182.21
C100.21 182.21 100.42 182.33 100.59 182.56
C100.76 182.78 100.85 183.08 100.85 183.44
C100.85 183.76 100.76 184.10 100.60 184.46
C100.43 184.82 100.08 185.34 99.54 186.01
C99.09 186.58 98.77 187.08 98.60 187.50
C98.43 187.92 98.34 188.30 98.35 188.64
L101.44 188.64
L101.44 187.80
L99.15 187.80
C99.21 187.64 99.29 187.48 99.39 187.32
C99.49 187.17 99.71 186.87 100.05 186.43
C100.59 185.74 100.95 185.18 101.15 184.77
C101.34 184.35 101.43 183.92 101.43 183.46
C101.43 182.95 101.31 182.49 101.07 182.09
C100.82 181.69 100.46 181.49 99.98 181.49
Z
M102.60 181.62
L102.15 185.27
L102.69 185.38
C102.78 185.16 102.90 184.99 103.05 184.87
C103.20 184.75 103.36 184.69 103.54 184.69
C103.82 184.69 104.06 184.83 104.25 185.11
C104.44 185.39 104.54 185.79 104.54 186.29
C104.54 186.84 104.44 187.26 104.24 187.57
C104.05 187.89 103.81 188.04 103.54 188.04
C103.32 188.04 103.13 187.93 102.97 187.71
C102.80 187.49 102.70 187.15 102.65 186.70
L102.05 186.78
C102.09 187.40 102.25 187.88 102.52 188.24
C102.80 188.59 103.14 188.76 103.55 188.76
C104.03 188.76 104.42 188.51 104.71 188.02
C105.00 187.52 105.15 186.92 105.15 186.23
C105.15 185.52 105.00 184.96 104.71 184.54
C104.42 184.13 104.08 183.92 103.69 183.92
C103.38 183.92 103.09 184.07 102.81 184.37
L103.06 182.45
L104.92 182.45
L104.92 181.62
Z
" fill="black" fill-rule="nonzero" />
<path d="
M99.98 205.22
C99.50 205.22 99.11 205.41 98.81 205.79
C98.53 206.16 98.36 206.70 98.32 207.41
L98.31 207.54
L98.44 207.56
L99.03 207.65
L99.19 207.68
L99.19 207.51
C99.19 207.08 99.27 206.76 99.42 206.53
C99.57 206.33 99.74 206.23 99.96 206.23
C99.96 206.23 99.96 206.23 99.96 206.23
C99.97 206.23 99.97 206.23 99.97 206.23
C100.17 206.23 100.34 206.32 100.48 206.51
C100.63 206.72 100.71 206.98 100.71 207.31
C100.71 207.61 100.63 207.93 100.47 208.27
C100.31 208.63 99.96 209.13 99.43 209.79
C98.97 210.37 98.64 210.88 98.47 211.32
C98.29 211.76 98.20 212.16 98.21 212.52
L98.21 212.65
L101.58 212.65
L101.58 212.51
L101.58 211.67
L101.58 211.53
L99.37 211.53
C99.41 211.44 99.46 211.36 99.51 211.27
C99.61 211.12 99.83 210.82 100.17 210.39
C100.71 209.69 101.08 209.12 101.27 208.70
C101.48 208.26 101.58 207.81 101.58 207.33
C101.58 206.80 101.45 206.31 101.19 205.89
C100.91 205.44 100.51 205.22 99.98 205.22
Z
M103.61 205.22
C103.13 205.22 102.74 205.41 102.44 205.79
C102.16 206.16 101.99 206.70 101.95 207.41
L101.94 207.54
L102.07 207.56
L102.66 207.65
L102.82 207.68
L102.82 207.51
C102.82 207.08 102.90 206.76 103.05 206.53
C103.20 206.33 103.37 206.23 103.59 206.23
C103.59 206.23 103.59 206.23 103.59 206.23
C103.60 206.23 103.60 206.23 103.60 206.23
C103.80 206.23 103.97 206.32 104.11 206.51
C104.26 206.72 104.34 206.98 104.34 207.31
C104.34 207.61 104.26 207.93 104.10 208.27
C103.94 208.63 103.59 209.13 103.06 209.79
C102.60 210.37 102.27 210.88 102.10 211.32
C101.92 211.76 101.83 212.16 101.84 212.52
L101.84 212.65
L105.21 212.65
L105.21 212.51
L105.21 211.67
L105.21 211.53
L103.00 211.53
C103.04 211.44 103.09 211.36 103.14 211.27
C103.24 211.12 103.46 210.82 103.80 210.39
C104.34 209.69 104.71 209.12 104.90 208.70
C105.11 208.26 105.21 207.81 105.21 207.33
C105.21 206.80 105.08 206.31 104.82 205.89
C104.54 205.44 104.14 205.22 103.61 205.22
Z
" fill="white" fill-rule="nonzero" />
<path d="
M112.11 193.46
C112.01 193.77 111.84 194.09 111.60 194.41
C111.36 194.74 111.08 195.02 110.76 195.24
L110.76 196.09
C110.95 195.99 111.15 195.83 111.38 195.63
C111.60 195.43 111.78 195.23 111.91 195.03
L111.91 200.61
L112.48 200.61
L112.48 193.46
Z
M115.74 193.46
C115.64 193.77 115.47 194.09 115.23 194.41
C114.99 194.74 114.71 195.02 114.39 195.24
L114.39 196.09
C114.58 195.99 114.78 195.83 115.01 195.63
C115.23 195.43 115.41 195.23 115.54 195.03
L115.54 200.61
L116.11 200.61
L116.11 193.46
Z
" fill="black" fill-rule="nonzero" />
<path d="
M111.82 205.46
L111.82 206.29
L114.64 206.29
C114.28 206.79 113.95 207.40 113.64 208.11
C113.33 208.82 113.09 209.57 112.91 210.35
C112.73 211.13 112.64 211.82 112.63 212.41
L113.36 212.41
C113.42 211.27 113.66 210.12 114.09 208.96
C114.51 207.80 115.00 206.86 115.56 206.14
L115.56 205.46
Z
" fill="black" fill-rule="nonzero" />
<path d="
M111.89 217.20
C111.45 217.20 111.10 217.38 110.83 217.72
C110.56 218.07 110.41 218.58 110.37 219.26
L110.96 219.36
C110.96 218.90 111.04 218.54 111.21 218.30
C111.38 218.05 111.60 217.93 111.87 217.93
C112.12 217.93 112.33 218.04 112.50 218.27
C112.67 218.50 112.75 218.79 112.75 219.16
C112.75 219.47 112.67 219.81 112.50 220.17
C112.34 220.54 111.99 221.05 111.45 221.72
C110.99 222.29 110.68 222.79 110.50 223.21
C110.33 223.63 110.25 224.01 110.26 224.35
L113.35 224.35
L113.35 223.51
L111.05 223.51
C111.12 223.36 111.20 223.20 111.30 223.04
C111.40 222.88 111.62 222.58 111.96 222.14
C112.50 221.45 112.86 220.90 113.05 220.48
C113.24 220.06 113.34 219.63 113.34 219.18
C113.34 218.66 113.22 218.21 112.97 217.81
C112.73 217.40 112.37 217.20 111.89 217.20
Z
M115.43 217.20
C115.07 217.20 114.76 217.36 114.50 217.67
C114.25 217.98 114.09 218.44 114.02 219.05
L114.59 219.21
C114.63 218.77 114.72 218.45 114.88 218.24
C115.03 218.03 115.21 217.92 115.43 217.92
C115.65 217.92 115.83 218.02 115.97 218.23
C116.12 218.43 116.20 218.70 116.20 219.03
C116.20 219.39 116.11 219.68 115.93 219.90
C115.76 220.12 115.53 220.23 115.24 220.23
L115.15 220.22
L115.09 220.98
C115.25 220.92 115.38 220.89 115.49 220.89
C115.75 220.89 115.97 221.01 116.14 221.26
C116.32 221.52 116.41 221.85 116.41 222.27
C116.41 222.71 116.31 223.06 116.12 223.34
C115.93 223.62 115.70 223.76 115.44 223.76
C114.95 223.76 114.65 223.29 114.53 222.36
L113.96 222.47
C114.00 223.09 114.15 223.57 114.43 223.94
C114.71 224.30 115.05 224.48 115.45 224.48
C115.88 224.48 116.24 224.27 116.55 223.86
C116.86 223.44 117.02 222.91 117.02 222.25
C117.02 221.94 116.98 221.66 116.90 221.42
C116.83 221.17 116.73 220.97 116.61 220.82
C116.49 220.67 116.33 220.56 116.15 220.50
C116.35 220.35 116.50 220.16 116.62 219.91
C116.73 219.66 116.79 219.37 116.79 219.05
C116.79 218.52 116.65 218.08 116.39 217.73
C116.13 217.38 115.80 217.20 115.43 217.20
Z
" fill="black" fill-rule="nonzero" />
<path d="
M123.70 133.86
C123.34 133.86 123.03 134.02 122.78 134.33
C122.53 134.64 122.36 135.10 122.29 135.71
L122.86 135.87
C122.90 135.44 123.00 135.11 123.15 134.90
C123.30 134.69 123.49 134.58 123.71 134.58
C123.92 134.58 124.10 134.69 124.25 134.89
C124.40 135.09 124.47 135.36 124.47 135.69
C124.47 136.05 124.38 136.34 124.21 136.56
C124.03 136.78 123.80 136.89 123.52 136.89
L123.43 136.88
L123.36 137.64
C123.52 137.58 123.66 137.55 123.77 137.55
C124.02 137.55 124.24 137.67 124.42 137.93
C124.59 138.18 124.68 138.51 124.68 138.93
C124.68 139.37 124.59 139.73 124.39 140.00
C124.20 140.28 123.97 140.42 123.71 140.42
C123.23 140.42 122.93 139.95 122.81 139.02
L122.23 139.14
C122.27 139.75 122.43 140.24 122.71 140.60
C122.98 140.96 123.32 141.14 123.72 141.14
C124.15 141.14 124.52 140.93 124.83 140.52
C125.14 140.10 125.29 139.57 125.29 138.91
C125.29 138.60 125.25 138.33 125.18 138.08
C125.10 137.83 125.00 137.63 124.88 137.48
C124.76 137.33 124.61 137.22 124.42 137.16
C124.62 137.02 124.78 136.82 124.89 136.57
C125.01 136.32 125.06 136.03 125.06 135.71
C125.06 135.18 124.93 134.74 124.67 134.39
C124.40 134.04 124.08 133.86 123.70 133.86
Z
M127.33 133.86
C126.97 133.86 126.66 134.02 126.41 134.33
C126.16 134.64 125.99 135.10 125.92 135.71
L126.49 135.87
C126.53 135.44 126.63 135.11 126.78 134.90
C126.93 134.69 127.12 134.58 127.34 134.58
C127.55 134.58 127.73 134.69 127.88 134.89
C128.03 135.09 128.10 135.36 128.10 135.69
C128.10 136.05 128.01 136.34 127.84 136.56
C127.66 136.78 127.43 136.89 127.15 136.89
L127.06 136.88
L126.99 137.64
C127.15 137.58 127.29 137.55 127.40 137.55
C127.65 137.55 127.87 137.67 128.05 137.93
C128.22 138.18 128.31 138.51 128.31 138.93
C128.31 139.37 128.22 139.73 128.02 140.00
C127.83 140.28 127.60 140.42 127.34 140.42
C126.86 140.42 126.56 139.95 126.44 139.02
L125.86 139.14
C125.90 139.75 126.06 140.24 126.34 140.60
C126.61 140.96 126.95 141.14 127.35 141.14
C127.78 141.14 128.15 140.93 128.46 140.52
C128.77 140.10 128.92 139.57 128.92 138.91
C128.92 138.60 128.88 138.33 128.81 138.08
C128.73 137.83 128.63 137.63 128.51 137.48
C128.39 137.33 128.24 137.22 128.05 137.16
C128.25 137.02 128.41 136.82 128.52 136.57
C128.64 136.32 128.69 136.03 128.69 135.71
C128.69 135.18 128.56 134.74 128.30 134.39
C128.03 134.04 127.71 133.86 127.33 133.86
Z
" fill="black" fill-rule="nonzero" />
<path d="
M127.56 147.92
L127.56 150.34
L126.46 150.34
L127.56 147.92
Z
M123.79 145.69
C123.31 145.69 122.92 145.88 122.62 146.26
C122.34 146.63 122.17 147.17 122.13 147.88
L122.12 148.01
L122.25 148.03
L122.84 148.13
L123.00 148.15
L123.00 147.99
C123.00 147.56 123.08 147.23 123.23 147.01
C123.38 146.80 123.56 146.70 123.77 146.70
C123.77 146.70 123.77 146.70 123.78 146.70
C123.78 146.70 123.78 146.70 123.78 146.70
C123.98 146.70 124.15 146.79 124.29 146.98
C124.44 147.19 124.52 147.45 124.52 147.79
C124.52 148.08 124.44 148.40 124.28 148.75
C124.12 149.10 123.77 149.61 123.25 150.26
C122.78 150.85 122.46 151.36 122.28 151.79
C122.10 152.23 122.01 152.63 122.02 152.99
L122.02 153.13
L125.39 153.13
L125.39 152.98
L125.39 152.14
L125.39 152.00
L123.18 152.00
C123.22 151.92 123.27 151.83 123.32 151.74
C123.42 151.59 123.64 151.30 123.98 150.86
C124.52 150.16 124.89 149.60 125.09 149.17
C125.29 148.73 125.39 148.28 125.39 147.81
C125.39 147.27 125.26 146.79 125.00 146.36
C124.73 145.92 124.32 145.69 123.79 145.69
Z
M127.72 145.72
L127.68 145.80
L125.54 150.42
L125.53 150.45
L125.53 150.48
L125.53 151.28
L125.53 151.42
L127.56 151.42
L127.56 152.98
L127.56 153.13
L128.41 153.13
L128.41 152.98
L128.41 151.42
L129.05 151.42
L129.05 151.28
L129.05 150.48
L129.05 150.34
L128.41 150.34
L128.41 145.86
L128.41 145.72
Z
" fill="white" fill-rule="nonzero" />
<path d="
M127.42 161.12
C127.63 161.12 127.80 161.24 127.95 161.48
C128.11 161.73 128.19 162.10 128.19 162.58
C128.19 163.06 128.11 163.44 127.94 163.72
C127.79 163.97 127.63 164.09 127.46 164.09
C127.46 164.09 127.46 164.09 127.46 164.09
C127.46 164.09 127.46 164.09 127.46 164.09
C127.25 164.09 127.07 163.96 126.90 163.69
C126.72 163.40 126.63 163.01 126.63 162.52
C126.63 162.08 126.72 161.73 126.89 161.48
C127.04 161.24 127.22 161.12 127.42 161.12
C127.42 161.12 127.42 161.12 127.42 161.12
C127.42 161.12 127.42 161.12 127.42 161.12
Z
M123.91 157.54
L123.88 157.64
C123.79 157.93 123.62 158.24 123.39 158.55
C123.16 158.87 122.89 159.13 122.59 159.35
L122.53 159.39
L122.53 159.47
L122.53 160.31
L122.53 160.55
L122.74 160.44
C122.93 160.33 123.15 160.17 123.38 159.96
C123.49 159.86 123.58 159.76 123.67 159.66
L123.67 159.66
L123.67 164.83
L123.67 164.97
L124.53 164.97
L124.53 164.83
L124.53 157.68
L124.53 157.54
Z
M127.51 157.54
C127.23 157.54 126.98 157.62 126.75 157.78
C126.54 157.94 126.34 158.18 126.18 158.49
C125.85 159.09 125.69 160.10 125.69 161.50
C125.69 162.76 125.85 163.67 126.17 164.23
C126.33 164.51 126.52 164.72 126.73 164.87
C126.95 165.02 127.19 165.09 127.46 165.09
C127.75 165.09 128.02 164.99 128.27 164.78
C128.50 164.58 128.70 164.28 128.84 163.86
C128.99 163.46 129.06 163.01 129.06 162.52
C129.06 161.79 128.91 161.20 128.62 160.76
C128.32 160.30 127.95 160.07 127.53 160.07
C127.28 160.07 127.04 160.16 126.81 160.34
C126.72 160.41 126.64 160.50 126.56 160.60
L126.56 160.60
C126.59 160.02 126.67 159.56 126.80 159.23
C126.89 158.99 127.00 158.81 127.12 158.69
C127.22 158.59 127.34 158.54 127.47 158.54
C127.47 158.54 127.47 158.54 127.47 158.54
C127.47 158.54 127.47 158.54 127.47 158.54
C127.64 158.54 127.78 158.63 127.91 158.82
C128.00 158.95 128.07 159.20 128.12 159.54
L128.14 159.68
L128.28 159.66
L128.85 159.59
L128.99 159.58
L128.98 159.44
C128.92 158.83 128.77 158.37 128.51 158.04
C128.24 157.71 127.91 157.54 127.51 157.54
Z
" fill="white" fill-rule="nonzero" />
<path d="
M125.89 169.69
C125.76 169.99 125.55 170.31 125.26 170.63
C124.96 170.96 124.61 171.23 124.22 171.45
L124.22 172.29
C124.45 172.19 124.70 172.04 124.98 171.84
C125.25 171.64 125.47 171.44 125.64 171.25
L125.64 176.75
L126.35 176.75
L126.35 169.69
Z
" fill="black" fill-rule="nonzero" />
<path d="
M125.58 182.25
C125.87 182.25 126.13 182.39 126.35 182.68
C126.58 182.97 126.69 183.36 126.69 183.87
C126.69 184.37 126.58 184.76 126.36 185.04
C126.14 185.31 125.88 185.45 125.56 185.45
C125.25 185.45 124.98 185.31 124.75 185.04
C124.52 184.77 124.41 184.40 124.41 183.94
C124.41 183.43 124.53 183.02 124.77 182.71
C125.00 182.40 125.28 182.25 125.58 182.25
Z
M125.50 181.53
C124.99 181.53 124.56 181.75 124.21 182.17
C123.86 182.59 123.68 183.17 123.68 183.91
C123.68 184.62 123.85 185.18 124.19 185.60
C124.53 186.01 124.94 186.21 125.41 186.21
C125.67 186.21 125.92 186.13 126.17 185.96
C126.42 185.80 126.62 185.57 126.76 185.29
L126.76 185.46
C126.76 186.01 126.70 186.49 126.56 186.90
C126.43 187.32 126.26 187.60 126.07 187.77
C125.88 187.93 125.66 188.01 125.43 188.01
C124.89 188.01 124.57 187.64 124.47 186.89
L123.78 186.97
C123.84 187.54 124.02 187.97 124.31 188.27
C124.61 188.57 124.97 188.72 125.41 188.72
C125.80 188.72 126.15 188.60 126.46 188.35
C126.77 188.10 127.02 187.71 127.20 187.18
C127.38 186.64 127.48 185.89 127.48 184.93
C127.48 184.06 127.39 183.40 127.22 182.93
C127.05 182.47 126.81 182.12 126.50 181.89
C126.19 181.65 125.86 181.53 125.50 181.53
Z
" fill="black" fill-rule="nonzero" />
<path d="
M125.61 208.75
C125.88 208.75 126.11 208.87 126.29 209.11
C126.49 209.36 126.59 209.72 126.59 210.18
C126.59 210.66 126.49 211.03 126.29 211.30
C126.10 211.55 125.89 211.68 125.66 211.68
C125.66 211.68 125.66 211.68 125.66 211.68
C125.66 211.68 125.65 211.68 125.65 211.68
C125.38 211.68 125.14 211.54 124.93 211.27
C124.71 210.99 124.60 210.61 124.60 210.13
C124.60 209.70 124.71 209.36 124.91 209.11
C125.11 208.87 125.34 208.75 125.61 208.75
C125.61 208.75 125.61 208.75 125.61 208.75
C125.61 208.75 125.61 208.75 125.61 208.75
Z
M125.71 205.20
C125.06 205.20 124.52 205.51 124.11 206.13
C123.70 206.73 123.50 207.73 123.50 209.12
C123.50 210.37 123.70 211.28 124.10 211.83
C124.50 212.39 125.02 212.67 125.65 212.67
C126.00 212.67 126.33 212.57 126.62 212.37
C126.91 212.18 127.15 211.87 127.33 211.47
C127.51 211.07 127.60 210.62 127.60 210.13
C127.60 209.40 127.42 208.82 127.05 208.38
C126.68 207.93 126.25 207.70 125.75 207.70
C125.44 207.70 125.16 207.79 124.89 207.96
C124.75 208.05 124.62 208.16 124.51 208.30
L124.51 208.30
C124.54 207.69 124.64 207.22 124.80 206.88
C124.92 206.65 125.05 206.47 125.20 206.36
C125.34 206.25 125.50 206.20 125.67 206.20
C125.67 206.20 125.67 206.20 125.67 206.20
C125.67 206.20 125.67 206.20 125.67 206.20
C125.89 206.20 126.08 206.29 126.24 206.48
C126.36 206.62 126.45 206.85 126.51 207.19
L126.53 207.32
L126.66 207.30
L127.37 207.24
L127.51 207.22
L127.50 207.08
C127.43 206.48 127.23 206.02 126.92 205.69
C126.59 205.37 126.19 205.20 125.71 205.20
Z
" fill="white" fill-rule="nonzero" />
<path d="
M139.55 121.96
C139.45 122.27 139.28 122.59 139.04 122.92
C138.80 123.24 138.52 123.52 138.20 123.75
L138.20 124.59
C138.39 124.49 138.59 124.34 138.82 124.13
C139.04 123.93 139.22 123.73 139.35 123.54
L139.35 129.11
L139.93 129.11
L139.93 121.96
Z
M135.61 121.96
C135.25 121.96 134.94 122.11 134.69 122.43
C134.43 122.74 134.27 123.20 134.20 123.81
L134.77 123.96
C134.81 123.53 134.91 123.21 135.06 123.00
C135.21 122.78 135.39 122.68 135.61 122.68
C135.83 122.68 136.01 122.78 136.16 122.98
C136.30 123.18 136.38 123.45 136.38 123.79
C136.38 124.15 136.29 124.44 136.11 124.66
C135.94 124.87 135.71 124.98 135.42 124.98
L135.34 124.97
L135.27 125.74
C135.43 125.67 135.56 125.64 135.67 125.64
C135.93 125.64 136.15 125.77 136.32 126.02
C136.50 126.27 136.59 126.61 136.59 127.02
C136.59 127.46 136.49 127.82 136.30 128.10
C136.11 128.37 135.88 128.51 135.62 128.51
C135.13 128.51 134.83 128.05 134.71 127.11
L134.14 127.23
C134.18 127.84 134.33 128.33 134.61 128.69
C134.89 129.06 135.23 129.24 135.63 129.24
C136.06 129.24 136.43 129.03 136.73 128.61
C137.04 128.20 137.20 127.66 137.20 127.01
C137.20 126.70 137.16 126.42 137.08 126.17
C137.01 125.92 136.91 125.72 136.79 125.57
C136.67 125.42 136.51 125.32 136.33 125.25
C136.53 125.11 136.69 124.91 136.80 124.67
C136.91 124.42 136.97 124.13 136.97 123.81
C136.97 123.27 136.84 122.83 136.57 122.48
C136.31 122.13 135.99 121.96 135.61 121.96
Z
" fill="black" fill-rule="nonzero" />
<path d="
M139.33 137.31
C139.53 137.31 139.71 137.43 139.85 137.66
C140.01 137.92 140.09 138.29 140.09 138.76
C140.09 139.25 140.01 139.63 139.85 139.91
C139.70 140.15 139.54 140.28 139.37 140.28
C139.37 140.28 139.37 140.28 139.37 140.28
C139.36 140.28 139.36 140.28 139.36 140.28
C139.16 140.28 138.97 140.15 138.81 139.88
C138.63 139.59 138.54 139.20 138.54 138.71
C138.54 138.27 138.62 137.92 138.79 137.67
C138.95 137.43 139.13 137.31 139.32 137.31
C139.32 137.31 139.33 137.31 139.33 137.31
C139.33 137.31 139.33 137.31 139.33 137.31
Z
M135.70 133.73
C135.22 133.73 134.83 133.92 134.53 134.30
C134.24 134.67 134.08 135.21 134.04 135.92
L134.03 136.05
L134.15 136.07
L134.75 136.16
L134.91 136.19
L134.91 136.02
C134.91 135.59 134.99 135.26 135.14 135.04
C135.28 134.84 135.46 134.73 135.68 134.73
C135.68 134.73 135.68 134.73 135.68 134.73
C135.68 134.73 135.68 134.73 135.68 134.73
C135.88 134.73 136.05 134.83 136.19 135.02
C136.35 135.22 136.42 135.49 136.42 135.82
C136.42 136.11 136.34 136.43 136.19 136.78
C136.02 137.13 135.68 137.64 135.15 138.30
C134.68 138.88 134.36 139.39 134.18 139.82
C134.00 140.26 133.92 140.66 133.93 141.02
L133.93 141.16
L137.30 141.16
L137.30 141.02
L137.30 140.18
L137.30 140.04
L135.08 140.04
C135.12 139.95 135.17 139.86 135.23 139.78
C135.32 139.62 135.54 139.33 135.88 138.90
C136.43 138.19 136.79 137.63 136.99 137.20
C137.19 136.77 137.29 136.31 137.29 135.84
C137.29 135.30 137.16 134.82 136.90 134.40
C136.63 133.95 136.23 133.73 135.70 133.73
Z
M139.41 133.73
C139.14 133.73 138.89 133.81 138.66 133.97
C138.44 134.13 138.25 134.37 138.08 134.68
C137.76 135.28 137.60 136.29 137.60 137.69
C137.60 138.95 137.75 139.86 138.07 140.41
C138.24 140.70 138.42 140.91 138.64 141.06
C138.85 141.21 139.10 141.28 139.36 141.28
C139.66 141.28 139.93 141.18 140.17 140.97
C140.41 140.77 140.60 140.46 140.75 140.05
C140.89 139.65 140.96 139.20 140.96 138.71
C140.96 137.98 140.82 137.39 140.53 136.95
C140.22 136.49 139.86 136.26 139.44 136.26
C139.18 136.26 138.94 136.35 138.72 136.53
C138.63 136.60 138.54 136.69 138.46 136.79
C138.50 136.20 138.58 135.75 138.70 135.41
C138.80 135.18 138.90 135.00 139.02 134.88
C139.13 134.78 139.25 134.73 139.38 134.73
C139.38 134.73 139.38 134.73 139.38 134.73
C139.38 134.73 139.38 134.73 139.38 134.73
C139.54 134.73 139.69 134.82 139.81 135.01
C139.91 135.14 139.98 135.38 140.03 135.73
L140.05 135.87
L140.19 135.85
L140.76 135.78
L140.89 135.77
L140.88 135.63
C140.83 135.02 140.67 134.56 140.42 134.23
C140.15 133.90 139.81 133.73 139.41 133.73
Z
" fill="white" fill-rule="nonzero" />
<path d="
M135.92 145.83
C135.82 146.14 135.65 146.46 135.41 146.79
C135.17 147.12 134.89 147.39 134.57 147.62
L134.57 148.47
C134.76 148.36 134.96 148.21 135.19 148.01
C135.41 147.81 135.59 147.61 135.72 147.41
L135.72 152.98
L136.30 152.98
L136.30 145.83
Z
M137.80 145.95
L137.80 146.80
L140.09 146.80
C139.80 147.30 139.53 147.91 139.28 148.63
C139.02 149.35 138.83 150.11 138.68 150.90
C138.54 151.69 138.46 152.39 138.46 152.98
L139.05 152.98
C139.10 151.83 139.30 150.67 139.64 149.49
C139.98 148.32 140.38 147.37 140.83 146.63
L140.83 145.95
Z
" fill="black" fill-rule="nonzero" />
<path d="
M135.92 157.68
C135.82 157.99 135.65 158.31 135.41 158.64
C135.17 158.96 134.89 159.24 134.57 159.47
L134.57 160.31
C134.76 160.21 134.96 160.05 135.19 159.85
C135.41 159.65 135.59 159.45 135.72 159.26
L135.72 164.83
L136.30 164.83
L136.30 157.68
Z
M138.32 157.80
L137.87 161.46
L138.41 161.57
C138.49 161.35 138.61 161.18 138.76 161.06
C138.92 160.94 139.08 160.88 139.25 160.88
C139.54 160.88 139.78 161.02 139.97 161.30
C140.16 161.58 140.26 161.97 140.26 162.48
C140.26 163.02 140.16 163.45 139.96 163.76
C139.76 164.08 139.53 164.23 139.26 164.23
C139.04 164.23 138.85 164.12 138.68 163.90
C138.52 163.68 138.41 163.34 138.37 162.89
L137.76 162.96
C137.80 163.59 137.96 164.07 138.24 164.42
C138.52 164.78 138.86 164.95 139.26 164.95
C139.75 164.95 140.14 164.70 140.43 164.21
C140.72 163.71 140.86 163.11 140.86 162.42
C140.86 161.71 140.72 161.15 140.43 160.73
C140.14 160.32 139.80 160.11 139.41 160.11
C139.10 160.11 138.80 160.26 138.53 160.55
L138.78 158.64
L140.64 158.64
L140.64 157.80
Z
" fill="black" fill-rule="nonzero" />
<path d="
M135.82 169.50
L135.79 169.60
C135.69 169.90 135.53 170.20 135.30 170.52
C135.06 170.83 134.79 171.10 134.49 171.32
L134.43 171.36
L134.43 171.43
L134.43 172.28
L134.43 172.52
L134.64 172.40
C134.84 172.29 135.05 172.13 135.28 171.92
C135.39 171.82 135.49 171.73 135.58 171.63
L135.58 171.63
L135.58 176.80
L135.58 176.94
L136.44 176.94
L136.44 176.80
L136.44 169.64
L136.44 169.50
Z
M139.33 169.50
C138.85 169.50 138.46 169.69 138.16 170.07
C137.87 170.44 137.71 170.98 137.67 171.70
L137.66 171.82
L137.78 171.84
L138.38 171.94
L138.54 171.96
L138.54 171.80
C138.54 171.37 138.62 171.04 138.77 170.82
C138.91 170.61 139.09 170.51 139.31 170.51
C139.31 170.51 139.31 170.51 139.31 170.51
C139.31 170.51 139.31 170.51 139.31 170.51
C139.51 170.51 139.68 170.61 139.83 170.80
C139.98 171.00 140.05 171.27 140.05 171.60
C140.05 171.89 139.97 172.21 139.82 172.56
C139.65 172.91 139.31 173.42 138.78 174.07
C138.31 174.66 137.99 175.17 137.81 175.60
C137.63 176.04 137.55 176.44 137.56 176.80
L137.56 176.94
L140.93 176.94
L140.93 176.80
L140.93 175.96
L140.93 175.81
L138.71 175.81
C138.75 175.73 138.80 175.64 138.86 175.55
C138.95 175.40 139.17 175.11 139.51 174.67
C140.06 173.97 140.42 173.41 140.62 172.98
C140.82 172.55 140.92 172.09 140.92 171.62
C140.92 171.08 140.79 170.60 140.53 170.17
C140.26 169.73 139.86 169.50 139.33 169.50
Z
" fill="white" fill-rule="nonzero" />
<path d="
M137.47 182.39
C137.47 182.39 137.47 182.39 137.48 182.39
C137.48 182.39 137.48 182.39 137.48 182.39
C137.69 182.39 137.88 182.47 138.03 182.65
C138.20 182.83 138.28 183.07 138.28 183.37
C138.28 183.65 138.20 183.88 138.04 184.05
C137.89 184.22 137.70 184.31 137.49 184.31
C137.49 184.31 137.49 184.31 137.48 184.31
C137.48 184.31 137.48 184.31 137.48 184.31
C137.26 184.31 137.07 184.22 136.92 184.05
C136.76 183.87 136.68 183.63 136.68 183.32
C136.68 183.05 136.76 182.82 136.92 182.65
C137.08 182.47 137.26 182.39 137.47 182.39
Z
M137.46 185.30
C137.46 185.30 137.46 185.30 137.47 185.30
C137.47 185.30 137.47 185.30 137.47 185.30
C137.75 185.30 137.99 185.41 138.20 185.65
C138.41 185.88 138.51 186.20 138.51 186.60
C138.51 186.99 138.41 187.30 138.21 187.53
C138.01 187.75 137.77 187.87 137.49 187.87
C137.49 187.87 137.49 187.87 137.48 187.87
C137.48 187.87 137.48 187.87 137.48 187.87
C137.20 187.87 136.96 187.75 136.76 187.52
C136.55 187.28 136.45 186.96 136.45 186.57
C136.45 186.19 136.55 185.88 136.75 185.64
C136.95 185.41 137.18 185.30 137.46 185.30
Z
M137.47 181.39
C136.95 181.39 136.52 181.57 136.18 181.94
C135.84 182.30 135.67 182.77 135.67 183.34
C135.67 183.72 135.75 184.05 135.91 184.31
C136.02 184.49 136.17 184.64 136.35 184.77
L136.35 184.77
C136.11 184.89 135.91 185.08 135.75 185.33
C135.54 185.66 135.44 186.07 135.44 186.57
C135.44 187.25 135.63 187.80 136.02 188.22
C136.41 188.65 136.90 188.86 137.48 188.86
C138.06 188.86 138.55 188.65 138.94 188.22
C139.33 187.80 139.52 187.26 139.52 186.59
C139.52 186.11 139.42 185.71 139.22 185.38
C139.07 185.12 138.86 184.92 138.60 184.77
L138.60 184.77
C138.79 184.65 138.94 184.49 139.06 184.31
C139.21 184.05 139.29 183.74 139.29 183.37
C139.29 182.79 139.11 182.32 138.77 181.95
C138.42 181.58 137.99 181.39 137.47 181.39
Z
" fill="white" fill-rule="nonzero" />
<path d="
M139.46 195.54
L139.46 197.96
L138.36 197.96
L139.46 195.54
Z
M135.82 193.31
L135.79 193.41
C135.69 193.71 135.53 194.01 135.30 194.33
C135.06 194.64 134.79 194.91 134.49 195.13
L134.43 195.17
L134.43 195.24
L134.43 196.09
L134.43 196.33
L134.64 196.21
C134.84 196.10 135.05 195.94 135.28 195.73
C135.39 195.64 135.49 195.54 135.58 195.44
L135.58 195.44
L135.58 200.61
L135.58 200.75
L136.44 200.75
L136.44 200.61
L136.44 193.46
L136.44 193.31
Z
M139.62 193.34
L139.58 193.43
L137.45 198.04
L137.44 198.07
L137.44 198.10
L137.44 198.90
L137.44 199.04
L139.46 199.04
L139.46 200.61
L139.46 200.75
L140.32 200.75
L140.32 200.61
L140.32 199.04
L140.95 199.04
L140.95 198.90
L140.95 198.10
L140.95 197.96
L140.32 197.96
L140.32 193.48
L140.32 193.34
Z
" fill="white" fill-rule="nonzero" />
<path d="
M139.26 206.17
C139.26 206.17 139.26 206.17 139.26 206.17
C139.26 206.17 139.27 206.17 139.27 206.17
C139.37 206.17 139.47 206.20 139.56 206.28
C139.66 206.36 139.75 206.49 139.83 206.67
C139.99 207.04 140.08 207.80 140.08 208.94
C140.08 210.07 139.99 210.82 139.83 211.20
C139.75 211.38 139.66 211.51 139.56 211.60
C139.48 211.67 139.39 211.71 139.30 211.71
C139.30 211.71 139.30 211.71 139.30 211.71
C139.30 211.71 139.30 211.71 139.30 211.71
C139.19 211.71 139.10 211.67 139.01 211.60
C138.92 211.51 138.83 211.38 138.75 211.21
C138.58 210.83 138.49 210.08 138.49 208.94
C138.49 207.81 138.58 207.06 138.74 206.68
C138.82 206.50 138.91 206.36 139.00 206.28
C139.08 206.20 139.17 206.17 139.26 206.17
Z
M135.82 205.16
L135.79 205.26
C135.69 205.55 135.53 205.86 135.30 206.17
C135.06 206.49 134.79 206.75 134.49 206.97
L134.43 207.02
L134.43 207.09
L134.43 207.93
L134.43 208.17
L134.64 208.06
C134.84 207.95 135.05 207.79 135.28 207.58
C135.39 207.48 135.49 207.38 135.58 207.29
L135.58 207.29
L135.58 212.45
L135.58 212.59
L136.44 212.59
L136.44 212.45
L136.44 205.30
L136.44 205.16
Z
M139.29 205.16
C139.01 205.16 138.76 205.25 138.54 205.42
C138.33 205.59 138.16 205.84 138.02 206.17
C137.76 206.80 137.62 207.72 137.62 208.94
C137.62 210.30 137.77 211.26 138.06 211.82
C138.22 212.11 138.39 212.33 138.59 212.48
C138.80 212.64 139.03 212.71 139.28 212.71
C139.57 212.71 139.82 212.63 140.04 212.45
C140.25 212.28 140.42 212.03 140.56 211.70
C140.82 211.07 140.95 210.15 140.95 208.94
C140.95 207.59 140.79 206.61 140.47 205.98
C140.33 205.71 140.17 205.51 139.97 205.37
C139.77 205.23 139.54 205.16 139.29 205.16
Z
" fill="white" fill-rule="nonzero" />
<path d="
M151.17 122.82
C151.17 122.82 151.17 122.82 151.17 122.82
C151.17 122.82 151.17 122.82 151.17 122.82
C151.28 122.82 151.37 122.86 151.46 122.94
C151.56 123.02 151.65 123.15 151.73 123.33
C151.90 123.70 151.98 124.46 151.98 125.60
C151.98 126.72 151.90 127.48 151.73 127.86
C151.65 128.04 151.56 128.17 151.47 128.26
C151.39 128.33 151.30 128.37 151.21 128.37
C151.21 128.37 151.21 128.37 151.20 128.37
C151.20 128.37 151.20 128.37 151.20 128.37
C151.10 128.37 151.01 128.33 150.92 128.26
C150.82 128.17 150.73 128.04 150.65 127.86
C150.48 127.49 150.40 126.73 150.40 125.60
C150.40 124.47 150.48 123.72 150.65 123.34
C150.73 123.16 150.81 123.02 150.91 122.94
C150.99 122.86 151.08 122.82 151.17 122.82
Z
M151.20 121.82
C150.91 121.82 150.66 121.91 150.45 122.08
C150.24 122.25 150.06 122.50 149.93 122.83
C149.66 123.46 149.53 124.38 149.53 125.60
C149.53 126.96 149.68 127.92 149.97 128.48
C150.12 128.77 150.30 128.99 150.50 129.14
C150.70 129.30 150.94 129.37 151.19 129.37
C151.48 129.37 151.73 129.29 151.94 129.11
C152.15 128.94 152.33 128.69 152.46 128.36
C152.73 127.73 152.86 126.81 152.86 125.60
C152.86 124.25 152.70 123.27 152.38 122.64
C152.24 122.37 152.07 122.17 151.88 122.03
C151.68 121.89 151.45 121.82 151.20 121.82
Z
M147.51 121.82
C147.11 121.82 146.76 121.99 146.48 122.34
C146.21 122.67 146.04 123.15 145.96 123.79
L145.95 123.91
L146.06 123.94
L146.64 124.10
L146.80 124.14
L146.81 123.97
C146.85 123.57 146.94 123.27 147.08 123.08
C147.20 122.91 147.35 122.82 147.52 122.82
C147.52 122.82 147.52 122.82 147.52 122.82
C147.52 122.82 147.52 122.82 147.52 122.82
C147.69 122.82 147.83 122.90 147.95 123.07
C148.08 123.24 148.14 123.48 148.14 123.79
C148.14 124.12 148.06 124.38 147.91 124.57
C147.76 124.75 147.57 124.84 147.34 124.84
L147.34 124.84
L147.26 124.83
L147.11 124.81
L147.10 124.96
L147.03 125.73
L147.01 125.96
L147.23 125.87
C147.37 125.81 147.49 125.78 147.58 125.78
C147.58 125.78 147.58 125.78 147.58 125.78
C147.58 125.78 147.58 125.78 147.58 125.78
C147.79 125.78 147.97 125.89 148.11 126.10
C148.27 126.33 148.35 126.64 148.35 127.02
C148.35 127.43 148.26 127.76 148.09 128.02
C147.93 128.25 147.74 128.37 147.53 128.37
C147.53 128.37 147.53 128.37 147.52 128.37
C147.52 128.37 147.52 128.37 147.52 128.37
C147.33 128.37 147.17 128.28 147.05 128.09
C146.91 127.87 146.82 127.54 146.76 127.10
L146.74 126.94
L146.59 126.98
L146.02 127.09
L145.89 127.12
L145.90 127.24
C145.94 127.88 146.11 128.39 146.41 128.78
C146.71 129.18 147.09 129.38 147.53 129.38
C148.01 129.38 148.42 129.15 148.75 128.70
C149.08 128.26 149.24 127.69 149.24 127.01
C149.24 126.69 149.20 126.39 149.13 126.13
C149.04 125.86 148.94 125.65 148.80 125.48
C148.72 125.38 148.61 125.29 148.49 125.22
L148.49 125.22
C148.63 125.08 148.75 124.92 148.83 124.72
C148.95 124.46 149.01 124.15 149.01 123.81
C149.01 123.24 148.87 122.77 148.59 122.40
C148.30 122.01 147.94 121.82 147.51 121.82
Z
" fill="white" fill-rule="nonzero" />
<path d="
M151.21 134.59
C151.44 134.59 151.65 134.74 151.83 135.03
C152.02 135.32 152.11 135.72 152.11 136.23
C152.11 136.74 152.02 137.14 151.84 137.41
C151.67 137.69 151.45 137.83 151.20 137.83
C150.94 137.83 150.72 137.69 150.54 137.42
C150.35 137.14 150.26 136.77 150.26 136.30
C150.26 135.78 150.36 135.37 150.55 135.06
C150.74 134.75 150.96 134.59 151.21 134.59
Z
M147.61 133.87
C147.17 133.87 146.81 134.04 146.55 134.38
C146.28 134.73 146.12 135.24 146.08 135.93
L146.67 136.02
C146.67 135.56 146.76 135.21 146.93 134.96
C147.10 134.71 147.32 134.59 147.59 134.59
C147.84 134.59 148.04 134.71 148.21 134.93
C148.38 135.16 148.47 135.46 148.47 135.82
C148.47 136.13 148.39 136.47 148.22 136.84
C148.05 137.20 147.70 137.72 147.17 138.39
C146.71 138.96 146.39 139.46 146.22 139.88
C146.05 140.30 145.97 140.68 145.97 141.02
L149.06 141.02
L149.06 140.18
L146.77 140.18
C146.83 140.02 146.91 139.86 147.01 139.70
C147.11 139.54 147.33 139.25 147.68 138.81
C148.21 138.11 148.58 137.56 148.77 137.14
C148.96 136.73 149.06 136.29 149.06 135.84
C149.06 135.33 148.93 134.87 148.69 134.47
C148.44 134.07 148.08 133.87 147.61 133.87
Z
M151.14 133.87
C150.73 133.87 150.39 134.08 150.10 134.51
C149.81 134.94 149.67 135.53 149.67 136.27
C149.67 136.99 149.81 137.56 150.08 137.98
C150.36 138.40 150.69 138.60 151.07 138.60
C151.28 138.60 151.48 138.52 151.69 138.35
C151.89 138.18 152.05 137.95 152.17 137.67
L152.17 137.84
C152.17 138.40 152.11 138.89 152.01 139.30
C151.90 139.72 151.76 140.01 151.61 140.18
C151.45 140.34 151.28 140.42 151.08 140.42
C150.65 140.42 150.40 140.05 150.31 139.29
L149.76 139.37
C149.80 139.95 149.94 140.38 150.18 140.69
C150.42 140.99 150.72 141.14 151.07 141.14
C151.39 141.14 151.67 141.02 151.92 140.77
C152.17 140.52 152.37 140.12 152.52 139.58
C152.67 139.04 152.74 138.28 152.74 137.30
C152.74 136.42 152.68 135.75 152.54 135.29
C152.40 134.82 152.21 134.47 151.95 134.23
C151.70 133.99 151.43 133.87 151.14 133.87
Z
" fill="black" fill-rule="nonzero" />
<path d="
M147.61 145.83
C147.17 145.83 146.81 146.01 146.55 146.35
C146.28 146.70 146.12 147.21 146.08 147.89
L146.67 147.99
C146.67 147.53 146.76 147.17 146.93 146.93
C147.10 146.68 147.32 146.56 147.59 146.56
C147.84 146.56 148.04 146.67 148.21 146.90
C148.38 147.13 148.47 147.42 148.47 147.79
C148.47 148.10 148.39 148.44 148.22 148.80
C148.05 149.17 147.70 149.68 147.17 150.35
C146.71 150.93 146.39 151.42 146.22 151.84
C146.05 152.26 145.97 152.64 145.97 152.98
L149.06 152.98
L149.06 152.14
L146.77 152.14
C146.83 151.99 146.91 151.83 147.01 151.67
C147.11 151.51 147.33 151.21 147.68 150.77
C148.21 150.08 148.58 149.53 148.77 149.11
C148.96 148.69 149.06 148.26 149.06 147.81
C149.06 147.29 148.93 146.84 148.69 146.44
C148.44 146.03 148.08 145.83 147.61 145.83
Z
M149.71 145.95
L149.71 146.80
L151.99 146.80
C151.70 147.30 151.43 147.91 151.18 148.63
C150.93 149.35 150.73 150.11 150.59 150.90
C150.44 151.69 150.37 152.39 150.36 152.98
L150.95 152.98
C151.00 151.83 151.20 150.67 151.54 149.49
C151.89 148.32 152.28 147.37 152.73 146.63
L152.73 145.95
Z
" fill="black" fill-rule="nonzero" />
<path d="
M149.62 159.72
L149.62 162.21
L148.20 162.21
L149.62 159.72
Z
M149.81 157.65
L149.77 157.73
L147.14 162.29
L147.12 162.32
L147.12 162.36
L147.12 163.15
L147.12 163.29
L149.62 163.29
L149.62 164.83
L149.62 164.97
L150.61 164.97
L150.61 164.83
L150.61 163.29
L151.39 163.29
L151.39 163.15
L151.39 162.36
L151.39 162.21
L150.61 162.21
L150.61 157.80
L150.61 157.65
Z
" fill="white" fill-rule="nonzero" />
<path d="
M148.18 169.69
L147.61 173.30
L148.28 173.41
C148.39 173.20 148.54 173.03 148.73 172.91
C148.91 172.79 149.11 172.73 149.33 172.73
C149.68 172.73 149.98 172.87 150.21 173.14
C150.45 173.42 150.57 173.81 150.57 174.31
C150.57 174.85 150.44 175.27 150.20 175.58
C149.96 175.89 149.67 176.04 149.33 176.04
C149.06 176.04 148.83 175.93 148.62 175.71
C148.42 175.49 148.29 175.16 148.23 174.71
L147.49 174.79
C147.54 175.40 147.73 175.88 148.08 176.23
C148.42 176.58 148.84 176.75 149.34 176.75
C149.94 176.75 150.42 176.50 150.78 176.01
C151.14 175.52 151.31 174.93 151.31 174.24
C151.31 173.55 151.14 172.99 150.78 172.58
C150.42 172.17 150.00 171.96 149.52 171.96
C149.14 171.96 148.77 172.11 148.43 172.41
L148.74 170.52
L151.04 170.52
L151.04 169.69
Z
" fill="black" fill-rule="nonzero" />
<path d="
M147.83 181.49
C147.73 181.80 147.56 182.12 147.32 182.44
C147.07 182.77 146.79 183.05 146.48 183.27
L146.48 184.12
C146.67 184.02 146.87 183.86 147.09 183.66
C147.32 183.46 147.49 183.26 147.63 183.07
L147.63 188.64
L148.20 188.64
L148.20 181.49
Z
M151.14 181.49
C150.78 181.49 150.48 181.64 150.22 181.95
C149.97 182.26 149.80 182.72 149.73 183.33
L150.30 183.49
C150.34 183.06 150.44 182.74 150.59 182.52
C150.74 182.31 150.93 182.21 151.15 182.21
C151.36 182.21 151.54 182.31 151.69 182.51
C151.84 182.71 151.91 182.98 151.91 183.31
C151.91 183.68 151.82 183.97 151.65 184.18
C151.47 184.40 151.24 184.51 150.96 184.51
L150.87 184.50
L150.80 185.27
C150.97 185.20 151.10 185.17 151.21 185.17
C151.47 185.17 151.68 185.30 151.86 185.55
C152.03 185.80 152.12 186.13 152.12 186.55
C152.12 186.99 152.03 187.35 151.83 187.63
C151.64 187.90 151.42 188.04 151.15 188.04
C150.67 188.04 150.37 187.57 150.25 186.64
L149.67 186.76
C149.71 187.37 149.87 187.86 150.15 188.22
C150.42 188.58 150.76 188.76 151.16 188.76
C151.59 188.76 151.96 188.56 152.27 188.14
C152.58 187.72 152.73 187.19 152.73 186.53
C152.73 186.23 152.69 185.95 152.62 185.70
C152.54 185.45 152.45 185.25 152.32 185.10
C152.20 184.95 152.05 184.85 151.86 184.78
C152.06 184.64 152.22 184.44 152.33 184.19
C152.45 183.94 152.50 183.66 152.50 183.33
C152.50 182.80 152.37 182.36 152.11 182.01
C151.84 181.66 151.52 181.49 151.14 181.49
Z
" fill="black" fill-rule="nonzero" />
<path d="
M147.61 217.27
C147.17 217.27 146.81 217.44 146.55 217.78
C146.28 218.13 146.12 218.64 146.08 219.33
L146.67 219.42
C146.67 218.96 146.76 218.61 146.93 218.36
C147.10 218.11 147.32 217.99 147.59 217.99
C147.84 217.99 148.04 218.10 148.21 218.33
C148.38 218.56 148.47 218.86 148.47 219.22
C148.47 219.53 148.39 219.87 148.22 220.24
C148.05 220.60 147.70 221.12 147.17 221.78
C146.71 222.36 146.39 222.86 146.22 223.28
C146.05 223.70 145.97 224.08 145.97 224.42
L149.06 224.42
L149.06 223.58
L146.77 223.58
C146.83 223.42 146.91 223.26 147.01 223.10
C147.11 222.94 147.33 222.64 147.68 222.21
C148.21 221.51 148.58 220.96 148.77 220.54
C148.96 220.13 149.06 219.69 149.06 219.24
C149.06 218.73 148.93 218.27 148.69 217.87
C148.44 217.47 148.08 217.27 147.61 217.27
Z
M151.46 217.27
C151.36 217.58 151.19 217.90 150.95 218.22
C150.70 218.55 150.42 218.83 150.11 219.05
L150.11 219.90
C150.30 219.80 150.50 219.64 150.72 219.44
C150.95 219.24 151.12 219.04 151.26 218.85
L151.26 224.42
L151.83 224.42
L151.83 217.27
Z
" fill="black" fill-rule="nonzero" />
<path d="
M163.14 133.72
C162.66 133.72 162.27 133.91 161.97 134.30
C161.68 134.66 161.52 135.20 161.48 135.92
L161.47 136.04
L161.60 136.06
L162.19 136.16
L162.35 136.18
L162.35 136.02
C162.35 135.59 162.43 135.26 162.58 135.04
C162.72 134.83 162.90 134.73 163.12 134.73
C163.12 134.73 163.12 134.73 163.12 134.73
C163.12 134.73 163.12 134.73 163.13 134.73
C163.33 134.73 163.50 134.83 163.64 135.02
C163.79 135.22 163.86 135.49 163.86 135.82
C163.86 136.11 163.78 136.43 163.63 136.78
C163.47 137.13 163.12 137.64 162.59 138.29
C162.12 138.88 161.80 139.39 161.62 139.82
C161.44 140.26 161.36 140.66 161.37 141.02
L161.37 141.16
L164.74 141.16
L164.74 141.02
L164.74 140.18
L164.74 140.03
L162.52 140.03
C162.57 139.95 162.61 139.86 162.67 139.78
C162.77 139.62 162.98 139.33 163.32 138.89
C163.87 138.19 164.24 137.63 164.43 137.20
C164.63 136.77 164.73 136.31 164.73 135.84
C164.73 135.30 164.60 134.82 164.34 134.39
C164.07 133.95 163.67 133.72 163.14 133.72
Z
M159.42 133.72
C159.01 133.72 158.67 133.90 158.39 134.24
C158.12 134.57 157.94 135.06 157.87 135.69
L157.85 135.82
L157.97 135.85
L158.54 136.00
L158.70 136.05
L158.72 135.88
C158.76 135.47 158.85 135.18 158.98 134.98
C159.11 134.81 159.25 134.73 159.42 134.73
C159.42 134.73 159.42 134.73 159.43 134.73
C159.43 134.73 159.43 134.73 159.43 134.73
C159.59 134.73 159.73 134.81 159.85 134.97
C159.98 135.15 160.05 135.39 160.05 135.69
C160.05 136.02 159.97 136.28 159.81 136.47
C159.67 136.65 159.48 136.74 159.24 136.74
L159.24 136.74
L159.16 136.74
L159.02 136.72
L159.00 136.86
L158.94 137.63
L158.92 137.86
L159.13 137.78
C159.28 137.72 159.39 137.69 159.48 137.69
C159.48 137.69 159.48 137.69 159.48 137.69
C159.49 137.69 159.49 137.69 159.49 137.69
C159.69 137.69 159.87 137.80 160.02 138.01
C160.18 138.24 160.26 138.54 160.26 138.93
C160.26 139.34 160.17 139.67 159.99 139.92
C159.83 140.16 159.64 140.28 159.43 140.28
C159.43 140.28 159.43 140.28 159.43 140.28
C159.43 140.28 159.43 140.28 159.43 140.28
C159.24 140.28 159.08 140.18 158.96 139.99
C158.82 139.78 158.72 139.45 158.66 139.00
L158.65 138.85
L158.50 138.88
L157.92 139.00
L157.80 139.02
L157.81 139.15
C157.85 139.79 158.02 140.30 158.31 140.68
C158.62 141.08 158.99 141.28 159.44 141.28
C159.91 141.28 160.32 141.06 160.66 140.60
C160.99 140.16 161.15 139.60 161.15 138.91
C161.15 138.59 161.11 138.30 161.03 138.04
C160.95 137.77 160.84 137.55 160.71 137.39
C160.62 137.28 160.52 137.19 160.40 137.12
L160.40 137.12
C160.54 136.99 160.65 136.82 160.74 136.63
C160.86 136.36 160.92 136.06 160.92 135.71
C160.92 135.15 160.78 134.68 160.50 134.30
C160.20 133.92 159.84 133.72 159.42 133.72
Z
" fill="white" fill-rule="nonzero" />
<path d="
M163.27 147.86
L163.27 150.27
L162.17 150.27
L163.27 147.86
Z
M163.43 145.66
L163.39 145.74
L161.26 150.36
L161.25 150.38
L161.25 150.41
L161.25 151.22
L161.25 151.36
L163.27 151.36
L163.27 152.92
L163.27 153.06
L164.13 153.06
L164.13 152.92
L164.13 151.36
L164.76 151.36
L164.76 151.22
L164.76 150.41
L164.76 150.27
L164.13 150.27
L164.13 145.80
L164.13 145.66
Z
M159.42 145.63
C159.01 145.63 158.67 145.80 158.39 146.15
C158.12 146.48 157.94 146.96 157.87 147.60
L157.85 147.72
L157.97 147.75
L158.54 147.91
L158.70 147.95
L158.72 147.79
C158.76 147.38 158.85 147.08 158.98 146.89
C159.11 146.72 159.25 146.63 159.42 146.63
C159.42 146.63 159.42 146.63 159.43 146.63
C159.43 146.63 159.43 146.63 159.43 146.63
C159.59 146.63 159.73 146.71 159.85 146.88
C159.98 147.05 160.05 147.29 160.05 147.60
C160.05 147.93 159.97 148.19 159.81 148.38
C159.67 148.56 159.48 148.65 159.24 148.65
L159.24 148.65
L159.16 148.64
L159.02 148.63
L159.00 148.77
L158.94 149.54
L158.92 149.77
L159.13 149.68
C159.28 149.62 159.39 149.59 159.48 149.59
C159.48 149.59 159.48 149.59 159.48 149.59
C159.49 149.59 159.49 149.59 159.49 149.59
C159.69 149.59 159.87 149.70 160.02 149.91
C160.18 150.14 160.26 150.45 160.26 150.83
C160.26 151.24 160.17 151.58 159.99 151.83
C159.83 152.06 159.64 152.18 159.43 152.18
C159.43 152.18 159.43 152.18 159.43 152.18
C159.43 152.18 159.43 152.18 159.43 152.18
C159.24 152.18 159.08 152.09 158.96 151.90
C158.82 151.68 158.72 151.35 158.66 150.91
L158.65 150.76
L158.50 150.79
L157.92 150.90
L157.80 150.93
L157.81 151.05
C157.85 151.69 158.02 152.20 158.31 152.59
C158.62 152.99 158.99 153.19 159.44 153.19
C159.91 153.19 160.32 152.96 160.66 152.51
C160.99 152.07 161.15 151.50 161.15 150.82
C161.15 150.50 161.11 150.20 161.03 149.94
C160.95 149.67 160.84 149.46 160.71 149.30
C160.62 149.19 160.52 149.10 160.40 149.03
L160.40 149.03
C160.54 148.89 160.65 148.73 160.74 148.53
C160.86 148.27 160.92 147.96 160.92 147.62
C160.92 147.05 160.78 146.58 160.50 146.21
C160.20 145.82 159.84 145.63 159.42 145.63
Z
" fill="white" fill-rule="nonzero" />
<path d="
M163.10 158.54
C163.10 158.54 163.11 158.54 163.11 158.54
C163.11 158.54 163.11 158.54 163.11 158.54
C163.27 158.54 163.41 158.63 163.53 158.80
C163.66 158.99 163.73 159.23 163.73 159.53
C163.73 159.83 163.67 160.06 163.54 160.24
C163.42 160.41 163.28 160.49 163.12 160.49
C163.12 160.49 163.12 160.49 163.11 160.49
C163.11 160.49 163.11 160.49 163.11 160.49
C162.95 160.49 162.80 160.41 162.69 160.24
C162.56 160.06 162.49 159.81 162.49 159.49
C162.49 159.20 162.56 158.97 162.69 158.79
C162.81 158.62 162.95 158.54 163.10 158.54
Z
M163.10 161.49
C163.10 161.49 163.10 161.49 163.10 161.49
C163.10 161.49 163.10 161.49 163.10 161.49
C163.32 161.49 163.50 161.60 163.66 161.83
C163.84 162.07 163.92 162.40 163.92 162.80
C163.92 163.21 163.84 163.53 163.67 163.76
C163.52 163.98 163.33 164.09 163.12 164.09
C163.12 164.09 163.12 164.09 163.11 164.09
C163.11 164.09 163.11 164.09 163.11 164.09
C162.90 164.09 162.71 163.98 162.56 163.75
C162.38 163.51 162.30 163.18 162.30 162.77
C162.30 162.38 162.38 162.07 162.55 161.83
C162.70 161.60 162.88 161.49 163.10 161.49
Z
M159.51 157.54
C159.03 157.54 158.64 157.73 158.34 158.11
C158.05 158.48 157.89 159.02 157.85 159.73
L157.84 159.86
L157.97 159.88
L158.56 159.97
L158.72 160.00
L158.72 159.83
C158.72 159.40 158.80 159.07 158.95 158.85
C159.09 158.65 159.27 158.54 159.49 158.54
C159.49 158.54 159.49 158.54 159.49 158.54
C159.49 158.54 159.49 158.54 159.50 158.54
C159.70 158.54 159.87 158.64 160.01 158.83
C160.16 159.03 160.23 159.30 160.23 159.63
C160.23 159.93 160.15 160.24 160.00 160.59
C159.84 160.94 159.49 161.45 158.96 162.11
C158.49 162.69 158.17 163.20 157.99 163.63
C157.81 164.07 157.73 164.47 157.74 164.83
L157.74 164.97
L161.11 164.97
L161.11 164.83
L161.11 163.99
L161.11 163.85
L158.89 163.85
C158.94 163.76 158.98 163.67 159.04 163.59
C159.14 163.43 159.35 163.14 159.69 162.71
C160.24 162.00 160.61 161.44 160.80 161.01
C161.00 160.58 161.10 160.12 161.10 159.65
C161.10 159.11 160.97 158.63 160.71 158.21
C160.44 157.76 160.04 157.54 159.51 157.54
Z
M163.10 157.54
C162.67 157.54 162.31 157.73 162.03 158.10
C161.75 158.47 161.62 158.94 161.62 159.51
C161.62 159.89 161.68 160.21 161.81 160.47
C161.90 160.66 162.03 160.82 162.18 160.95
L162.18 160.95
C161.98 161.08 161.81 161.28 161.68 161.53
C161.51 161.86 161.43 162.28 161.43 162.77
C161.43 163.46 161.59 164.01 161.90 164.44
C162.22 164.87 162.63 165.09 163.11 165.09
C163.60 165.09 164.00 164.87 164.32 164.44
C164.63 164.01 164.79 163.46 164.79 162.80
C164.79 162.32 164.71 161.91 164.55 161.58
C164.42 161.32 164.25 161.11 164.03 160.96
L164.03 160.96
C164.20 160.83 164.32 160.67 164.42 160.47
C164.54 160.21 164.60 159.90 164.60 159.54
C164.60 158.96 164.46 158.49 164.19 158.11
C163.90 157.73 163.54 157.54 163.10 157.54
Z
" fill="white" fill-rule="nonzero" />
<path d="
M163.14 184.93
C163.34 184.93 163.52 185.05 163.66 185.28
C163.82 185.54 163.91 185.91 163.91 186.38
C163.91 186.87 163.82 187.25 163.66 187.53
C163.51 187.77 163.35 187.90 163.18 187.90
C163.18 187.90 163.18 187.90 163.18 187.90
C163.18 187.90 163.17 187.90 163.17 187.90
C162.97 187.90 162.79 187.76 162.62 187.50
C162.44 187.21 162.35 186.82 162.35 186.33
C162.35 185.89 162.43 185.54 162.60 185.28
C162.76 185.05 162.94 184.93 163.13 184.93
C163.14 184.93 163.14 184.93 163.14 184.93
C163.14 184.93 163.14 184.93 163.14 184.93
Z
M163.22 181.35
C162.95 181.35 162.70 181.43 162.47 181.59
C162.25 181.75 162.06 181.99 161.89 182.30
C161.57 182.90 161.41 183.91 161.41 185.31
C161.41 186.57 161.57 187.48 161.88 188.03
C162.05 188.32 162.24 188.53 162.45 188.68
C162.67 188.83 162.91 188.90 163.17 188.90
C163.47 188.90 163.74 188.80 163.98 188.59
C164.22 188.39 164.41 188.08 164.56 187.67
C164.70 187.27 164.78 186.82 164.78 186.33
C164.78 185.60 164.63 185.01 164.34 184.57
C164.03 184.11 163.67 183.88 163.25 183.88
C162.99 183.88 162.75 183.97 162.53 184.15
C162.44 184.22 162.35 184.31 162.28 184.41
C162.31 183.82 162.39 183.37 162.52 183.03
C162.61 182.79 162.72 182.62 162.83 182.50
C162.94 182.40 163.06 182.35 163.19 182.35
C163.19 182.35 163.19 182.35 163.19 182.35
C163.19 182.35 163.19 182.35 163.19 182.35
C163.36 182.35 163.50 182.44 163.62 182.63
C163.72 182.76 163.79 183.00 163.84 183.35
L163.86 183.49
L164.00 183.47
L164.57 183.40
L164.71 183.38
L164.69 183.25
C164.64 182.64 164.48 182.18 164.23 181.85
C163.96 181.52 163.62 181.35 163.22 181.35
Z
M159.42 181.35
C159.01 181.35 158.67 181.52 158.39 181.86
C158.12 182.20 157.94 182.68 157.87 183.32
L157.85 183.44
L157.97 183.47
L158.54 183.63
L158.70 183.67
L158.72 183.50
C158.76 183.10 158.85 182.80 158.98 182.61
C159.11 182.43 159.25 182.35 159.42 182.35
C159.42 182.35 159.42 182.35 159.43 182.35
C159.43 182.35 159.43 182.35 159.43 182.35
C159.59 182.35 159.73 182.43 159.85 182.59
C159.98 182.77 160.05 183.01 160.05 183.31
C160.05 183.64 159.97 183.90 159.81 184.09
C159.67 184.27 159.48 184.37 159.24 184.37
L159.24 184.37
L159.16 184.36
L159.02 184.34
L159.00 184.49
L158.94 185.25
L158.92 185.48
L159.13 185.40
C159.28 185.34 159.39 185.31 159.48 185.31
C159.48 185.31 159.48 185.31 159.48 185.31
C159.49 185.31 159.49 185.31 159.49 185.31
C159.69 185.31 159.87 185.42 160.02 185.63
C160.18 185.86 160.26 186.16 160.26 186.55
C160.26 186.96 160.17 187.29 159.99 187.54
C159.83 187.78 159.64 187.90 159.43 187.90
C159.43 187.90 159.43 187.90 159.43 187.90
C159.43 187.90 159.43 187.90 159.43 187.90
C159.24 187.90 159.08 187.80 158.96 187.61
C158.82 187.40 158.72 187.07 158.66 186.62
L158.65 186.47
L158.50 186.50
L157.92 186.62
L157.80 186.64
L157.81 186.77
C157.85 187.41 158.02 187.92 158.31 188.31
C158.62 188.71 158.99 188.91 159.44 188.91
C159.91 188.91 160.32 188.68 160.66 188.22
C160.99 187.78 161.15 187.22 161.15 186.53
C161.15 186.21 161.11 185.92 161.03 185.66
C160.95 185.39 160.84 185.18 160.71 185.01
C160.62 184.90 160.52 184.81 160.40 184.75
L160.40 184.75
C160.54 184.61 160.65 184.45 160.74 184.25
C160.86 183.98 160.92 183.68 160.92 183.33
C160.92 182.77 160.78 182.30 160.50 181.93
C160.20 181.54 159.84 181.35 159.42 181.35
Z
" fill="white" fill-rule="nonzero" />
<path d="
M163.07 206.17
C163.07 206.17 163.07 206.17 163.08 206.17
C163.08 206.17 163.08 206.17 163.08 206.17
C163.18 206.17 163.28 206.20 163.37 206.28
C163.47 206.36 163.56 206.49 163.64 206.67
C163.81 207.04 163.89 207.80 163.89 208.94
C163.89 210.07 163.81 210.82 163.64 211.20
C163.56 211.38 163.47 211.51 163.38 211.60
C163.29 211.67 163.21 211.71 163.11 211.71
C163.11 211.71 163.11 211.71 163.11 211.71
C163.11 211.71 163.11 211.71 163.11 211.71
C163.01 211.71 162.91 211.67 162.82 211.60
C162.73 211.51 162.64 211.38 162.56 211.21
C162.39 210.83 162.30 210.08 162.30 208.94
C162.30 207.81 162.39 207.06 162.55 206.68
C162.63 206.50 162.72 206.36 162.81 206.28
C162.89 206.20 162.98 206.17 163.07 206.17
Z
M159.51 205.16
C159.03 205.16 158.64 205.35 158.34 205.73
C158.05 206.10 157.89 206.64 157.85 207.35
L157.84 207.48
L157.97 207.50
L158.56 207.59
L158.72 207.62
L158.72 207.45
C158.72 207.02 158.80 206.70 158.95 206.47
C159.09 206.27 159.27 206.17 159.49 206.17
C159.49 206.17 159.49 206.17 159.49 206.17
C159.49 206.17 159.49 206.17 159.50 206.17
C159.70 206.17 159.87 206.26 160.01 206.45
C160.16 206.65 160.23 206.92 160.23 207.25
C160.23 207.55 160.15 207.87 160.00 208.21
C159.84 208.57 159.49 209.07 158.96 209.73
C158.49 210.31 158.17 210.82 157.99 211.26
C157.81 211.70 157.73 212.10 157.74 212.46
L157.74 212.59
L161.11 212.59
L161.11 212.45
L161.11 211.61
L161.11 211.47
L158.89 211.47
C158.94 211.38 158.98 211.30 159.04 211.21
C159.14 211.06 159.35 210.76 159.69 210.33
C160.24 209.63 160.61 209.06 160.80 208.64
C161.00 208.20 161.10 207.75 161.10 207.27
C161.10 206.73 160.97 206.25 160.71 205.83
C160.44 205.38 160.04 205.16 159.51 205.16
Z
M163.10 205.16
C162.82 205.16 162.57 205.25 162.35 205.42
C162.14 205.59 161.97 205.84 161.83 206.17
C161.57 206.80 161.43 207.72 161.43 208.94
C161.43 210.30 161.58 211.26 161.88 211.82
C162.03 212.11 162.20 212.33 162.40 212.48
C162.61 212.64 162.84 212.71 163.09 212.71
C163.38 212.71 163.63 212.63 163.85 212.45
C164.06 212.28 164.23 212.03 164.37 211.70
C164.63 211.07 164.76 210.15 164.76 208.94
C164.76 207.59 164.60 206.61 164.28 205.98
C164.14 205.71 163.98 205.51 163.78 205.37
C163.58 205.23 163.36 205.16 163.10 205.16
Z
" fill="white" fill-rule="nonzero" />
<path d="
M173.23 145.73
C172.65 145.74 172.18 145.92 171.83 146.29
C171.47 146.65 171.27 147.19 171.21 147.90
L171.20 148.04
L171.34 148.05
L172.07 148.14
L172.22 148.16
L172.22 148.00
C172.22 147.58 172.32 147.27 172.51 147.05
C172.69 146.84 172.92 146.73 173.21 146.73
C173.21 146.73 173.21 146.73 173.21 146.73
C173.21 146.73 173.21 146.73 173.21 146.73
C173.48 146.73 173.70 146.83 173.88 147.03
C174.07 147.22 174.16 147.48 174.16 147.81
C174.16 148.09 174.06 148.40 173.87 148.74
C173.67 149.09 173.25 149.59 172.59 150.24
C172.02 150.82 171.62 151.32 171.40 151.75
C171.17 152.19 171.07 152.59 171.08 152.95
L171.08 153.08
L175.18 153.08
L175.18 152.94
L175.18 152.11
L175.18 151.97
L172.44 151.97
C172.49 151.89 172.55 151.81 172.61 151.73
C172.73 151.58 173.00 151.29 173.42 150.86
C174.09 150.16 174.55 149.61 174.79 149.18
C175.04 148.75 175.17 148.30 175.17 147.83
C175.17 147.29 175.01 146.81 174.68 146.39
C174.35 145.95 173.87 145.74 173.23 145.73
Z
" fill="white" fill-rule="nonzero" />
<path d="
M175.01 206.16
C175.01 206.16 175.01 206.16 175.01 206.16
C175.01 206.16 175.01 206.16 175.01 206.16
C175.17 206.16 175.31 206.25 175.44 206.42
C175.57 206.61 175.64 206.85 175.64 207.16
C175.64 207.45 175.57 207.69 175.44 207.87
C175.32 208.03 175.18 208.11 175.02 208.11
C175.02 208.11 175.02 208.11 175.02 208.11
C175.02 208.11 175.02 208.11 175.02 208.11
C174.85 208.11 174.71 208.03 174.59 207.86
C174.46 207.68 174.40 207.43 174.40 207.11
C174.40 206.83 174.46 206.60 174.59 206.41
C174.71 206.25 174.85 206.16 175.01 206.16
Z
M175.00 209.11
C175.00 209.11 175.00 209.11 175.00 209.11
C175.01 209.11 175.01 209.11 175.01 209.11
C175.22 209.11 175.41 209.22 175.57 209.45
C175.74 209.69 175.83 210.02 175.83 210.43
C175.83 210.83 175.74 211.15 175.58 211.38
C175.42 211.60 175.24 211.71 175.02 211.71
C175.02 211.71 175.02 211.71 175.02 211.71
C175.02 211.71 175.02 211.71 175.02 211.71
C174.80 211.71 174.62 211.60 174.46 211.37
C174.29 211.13 174.21 210.80 174.21 210.40
C174.21 210.00 174.29 209.69 174.45 209.45
C174.61 209.22 174.79 209.11 175.00 209.11
Z
M171.53 205.16
L171.50 205.26
C171.41 205.55 171.25 205.86 171.01 206.17
C170.78 206.49 170.51 206.75 170.21 206.97
L170.15 207.02
L170.15 207.09
L170.15 207.93
L170.15 208.17
L170.36 208.06
C170.55 207.95 170.77 207.79 171.00 207.58
C171.11 207.48 171.21 207.38 171.29 207.29
L171.29 207.29
L171.29 212.45
L171.29 212.59
L172.15 212.59
L172.15 212.45
L172.15 205.30
L172.15 205.16
Z
M175.01 205.16
C174.58 205.16 174.22 205.35 173.93 205.73
C173.66 206.09 173.52 206.56 173.52 207.13
C173.52 207.51 173.59 207.83 173.71 208.10
C173.81 208.29 173.93 208.44 174.09 208.57
L174.09 208.57
C173.88 208.71 173.71 208.90 173.59 209.15
C173.42 209.48 173.34 209.90 173.34 210.40
C173.34 211.08 173.49 211.63 173.80 212.06
C174.13 212.49 174.53 212.71 175.02 212.71
C175.50 212.71 175.91 212.49 176.23 212.06
C176.54 211.63 176.70 211.09 176.70 210.42
C176.70 209.94 176.62 209.53 176.45 209.20
C176.33 208.94 176.15 208.73 175.94 208.58
L175.94 208.58
C176.10 208.45 176.23 208.29 176.32 208.09
C176.44 207.84 176.51 207.53 176.51 207.16
C176.51 206.58 176.37 206.11 176.09 205.74
C175.80 205.35 175.44 205.16 175.01 205.16
Z
" fill="white" fill-rule="nonzero" />
<path d="
M185.03 145.81
C184.58 145.81 184.20 145.97 183.89 146.27
C183.57 146.58 183.37 147.04 183.28 147.64
L183.99 147.79
C184.04 147.37 184.16 147.05 184.35 146.84
C184.53 146.63 184.76 146.52 185.03 146.52
C185.30 146.52 185.52 146.62 185.70 146.82
C185.88 147.02 185.98 147.29 185.98 147.62
C185.98 147.98 185.87 148.26 185.65 148.48
C185.43 148.69 185.15 148.80 184.80 148.80
L184.69 148.79
L184.61 149.55
C184.81 149.48 184.97 149.45 185.11 149.45
C185.42 149.45 185.69 149.58 185.91 149.83
C186.13 150.08 186.23 150.41 186.23 150.82
C186.23 151.25 186.12 151.61 185.88 151.88
C185.64 152.15 185.36 152.29 185.04 152.29
C184.44 152.29 184.07 151.83 183.92 150.91
L183.21 151.02
C183.26 151.63 183.45 152.11 183.80 152.47
C184.14 152.83 184.56 153.00 185.05 153.00
C185.58 153.00 186.04 152.80 186.42 152.39
C186.80 151.98 186.99 151.45 186.99 150.80
C186.99 150.50 186.94 150.22 186.85 149.98
C186.76 149.73 186.63 149.53 186.48 149.39
C186.33 149.24 186.14 149.13 185.91 149.07
C186.16 148.93 186.36 148.73 186.50 148.49
C186.64 148.24 186.71 147.96 186.71 147.64
C186.71 147.11 186.54 146.68 186.22 146.33
C185.89 145.99 185.49 145.81 185.03 145.81
Z
" fill="black" fill-rule="nonzero" />
<path d="
M186.93 206.02
C187.16 206.02 187.37 206.17 187.55 206.46
C187.73 206.75 187.82 207.15 187.82 207.66
C187.82 208.17 187.73 208.57 187.56 208.85
C187.38 209.13 187.17 209.26 186.91 209.26
C186.66 209.26 186.44 209.13 186.25 208.85
C186.07 208.57 185.98 208.20 185.98 207.73
C185.98 207.22 186.07 206.80 186.27 206.49
C186.46 206.18 186.68 206.02 186.93 206.02
Z
M183.54 205.30
C183.45 205.61 183.28 205.93 183.03 206.26
C182.79 206.58 182.51 206.86 182.20 207.09
L182.20 207.93
C182.38 207.83 182.59 207.68 182.81 207.47
C183.03 207.27 183.21 207.07 183.34 206.88
L183.34 212.45
L183.92 212.45
L183.92 205.30
Z
M186.86 205.30
C186.45 205.30 186.10 205.51 185.82 205.94
C185.53 206.37 185.39 206.96 185.39 207.71
C185.39 208.43 185.52 209.00 185.80 209.41
C186.08 209.83 186.40 210.04 186.79 210.04
C187.00 210.04 187.20 209.95 187.40 209.78
C187.61 209.62 187.77 209.39 187.89 209.10
L187.89 209.27
C187.89 209.83 187.83 210.32 187.72 210.74
C187.61 211.15 187.48 211.45 187.32 211.61
C187.17 211.77 186.99 211.85 186.80 211.85
C186.37 211.85 186.11 211.48 186.02 210.73
L185.47 210.80
C185.52 211.38 185.66 211.82 185.90 212.12
C186.14 212.42 186.43 212.57 186.79 212.57
C187.10 212.57 187.39 212.45 187.64 212.20
C187.89 211.95 188.09 211.55 188.24 211.01
C188.39 210.47 188.46 209.71 188.46 208.74
C188.46 207.86 188.39 207.19 188.25 206.72
C188.12 206.25 187.92 205.90 187.67 205.66
C187.42 205.42 187.15 205.30 186.86 205.30
Z
" fill="black" fill-rule="nonzero" />
</g>
<g  transform="translate(1.19,228.58)" >
<path d="
M106.49 2.94
C106.33 2.94 106.19 3.00 106.07 3.11
C105.96 3.23 105.90 3.37 105.90 3.53
C105.90 3.69 105.96 3.83 106.08 3.95
C106.19 4.07 106.33 4.12 106.49 4.12
C106.66 4.12 106.80 4.07 106.91 3.95
C107.02 3.83 107.08 3.69 107.08 3.53
C107.08 3.37 107.02 3.23 106.91 3.11
C106.80 3.00 106.66 2.94 106.49 2.94
Z
M111.46 8.04
L111.46 10.07
C110.98 10.46 110.60 10.65 110.30 10.65
C110.08 10.65 109.89 10.56 109.73 10.37
C109.56 10.19 109.48 9.96 109.48 9.68
C109.48 9.46 109.54 9.25 109.67 9.07
C109.81 8.88 110.02 8.70 110.33 8.53
C110.50 8.44 110.88 8.27 111.46 8.04
Z
M99.82 3.77
C100.75 3.77 101.51 4.08 102.10 4.71
C102.69 5.34 102.99 6.20 102.99 7.29
C102.99 8.37 102.69 9.23 102.10 9.86
C101.51 10.49 100.76 10.81 99.86 10.81
C99.53 10.81 99.12 10.75 98.62 10.64
L98.62 3.94
C99.07 3.83 99.47 3.77 99.82 3.77
Z
M96.37 3.33
L96.37 3.54
L96.67 3.54
C96.97 3.54 97.19 3.63 97.34 3.80
C97.45 3.92 97.51 4.23 97.51 4.72
L97.51 9.82
C97.51 10.26 97.46 10.55 97.38 10.68
C97.24 10.89 97.00 11.00 96.67 11.00
L96.37 11.00
L96.37 11.21
L99.90 11.21
C101.43 11.21 102.57 10.80 103.32 9.98
C103.98 9.24 104.32 8.33 104.32 7.23
C104.32 6.41 104.13 5.69 103.76 5.07
C103.38 4.44 102.89 4.00 102.27 3.73
C101.66 3.46 100.76 3.33 99.58 3.33
Z
M106.72 5.73
L105.12 6.38
L105.20 6.59
C105.35 6.53 105.48 6.50 105.59 6.50
C105.69 6.50 105.77 6.53 105.83 6.58
C105.89 6.62 105.93 6.71 105.96 6.83
C105.99 7.00 106.01 7.38 106.01 7.96
L106.01 10.01
C106.01 10.34 105.98 10.56 105.93 10.68
C105.88 10.79 105.81 10.88 105.72 10.93
C105.63 10.98 105.46 11.00 105.20 11.00
L105.20 11.21
L107.78 11.21
L107.78 11.00
C107.53 11.00 107.36 10.98 107.26 10.92
C107.17 10.87 107.10 10.79 107.05 10.68
C107.00 10.56 106.98 10.34 106.98 10.01
L106.98 5.73
Z
M122.63 3.16
L120.71 4.10
L120.79 4.28
C121.05 4.16 121.25 4.10 121.39 4.10
C121.49 4.10 121.58 4.13 121.65 4.19
C121.72 4.25 121.77 4.34 121.80 4.46
C121.84 4.62 121.86 4.99 121.86 5.57
L121.86 9.82
C121.86 10.30 121.84 10.58 121.79 10.67
C121.75 10.77 121.68 10.85 121.57 10.90
C121.46 10.96 121.22 10.99 120.85 11.00
L120.85 11.21
L123.81 11.21
L123.81 11.00
C123.46 10.99 123.22 10.96 123.10 10.90
C122.99 10.84 122.91 10.76 122.87 10.65
C122.84 10.54 122.82 10.27 122.82 9.82
L122.82 3.16
Z
M110.65 5.73
C110.03 5.73 109.56 5.87 109.21 6.15
C108.87 6.43 108.70 6.73 108.70 7.07
C108.70 7.24 108.75 7.38 108.84 7.48
C108.93 7.58 109.05 7.63 109.19 7.63
C109.34 7.63 109.46 7.58 109.55 7.49
C109.64 7.39 109.69 7.25 109.69 7.07
L109.67 6.74
C109.67 6.56 109.75 6.41 109.89 6.28
C110.04 6.15 110.23 6.08 110.48 6.08
C110.80 6.08 111.04 6.18 111.21 6.38
C111.38 6.58 111.46 6.94 111.46 7.47
L111.46 7.68
C110.55 8.02 109.90 8.30 109.50 8.53
C109.11 8.76 108.83 9.01 108.67 9.28
C108.56 9.47 108.50 9.69 108.50 9.95
C108.50 10.36 108.62 10.69 108.86 10.95
C109.09 11.20 109.40 11.32 109.77 11.32
C110.00 11.32 110.23 11.27 110.44 11.18
C110.57 11.11 110.92 10.87 111.46 10.45
C111.47 10.76 111.53 10.99 111.64 11.12
C111.75 11.25 111.90 11.32 112.09 11.32
C112.49 11.32 112.90 11.03 113.34 10.45
L113.34 10.12
C113.10 10.35 112.95 10.49 112.87 10.54
C112.82 10.57 112.77 10.58 112.70 10.58
C112.65 10.58 112.59 10.57 112.55 10.53
C112.50 10.49 112.47 10.41 112.45 10.30
C112.43 10.18 112.42 9.87 112.42 9.36
L112.42 7.55
C112.42 7.04 112.39 6.70 112.32 6.53
C112.21 6.28 112.04 6.09 111.81 5.97
C111.51 5.81 111.12 5.73 110.65 5.73
Z
M127.61 3.33
L126.10 6.39
C126.82 6.42 127.40 6.52 127.82 6.69
C128.36 6.92 128.78 7.24 129.09 7.65
C129.40 8.06 129.55 8.51 129.55 8.99
C129.55 9.48 129.38 9.90 129.04 10.24
C128.69 10.58 128.29 10.75 127.84 10.75
C127.54 10.75 127.25 10.65 126.96 10.45
C126.77 10.32 126.64 10.24 126.57 10.21
C126.49 10.18 126.41 10.17 126.30 10.17
C126.17 10.17 126.06 10.21 125.97 10.29
C125.88 10.37 125.83 10.47 125.83 10.58
C125.83 10.77 125.94 10.95 126.16 11.11
C126.37 11.27 126.72 11.35 127.19 11.35
C127.66 11.35 128.12 11.25 128.56 11.03
C128.88 10.88 129.16 10.68 129.42 10.43
C129.67 10.19 129.88 9.89 130.05 9.53
C130.22 9.18 130.31 8.80 130.31 8.38
C130.31 7.67 130.05 7.05 129.53 6.52
C128.93 5.91 128.12 5.53 127.09 5.37
L127.61 4.32
L129.98 4.32
L130.43 3.33
Z
M114.85 10.08
C114.67 10.08 114.52 10.15 114.39 10.27
C114.26 10.39 114.20 10.55 114.20 10.73
C114.20 10.91 114.26 11.06 114.39 11.19
C114.52 11.31 114.67 11.38 114.85 11.38
C115.03 11.38 115.18 11.31 115.30 11.19
C115.43 11.06 115.49 10.91 115.49 10.73
C115.49 10.55 115.43 10.40 115.31 10.27
C115.18 10.15 115.03 10.08 114.85 10.08
Z
" fill="black" fill-rule="nonzero" />
</g>
<g  transform="translate(1.19,242.50)" >
<circle cx="101.19" cy="6.08" r="5.85" fill="white"/>
<circle cx="101.19" cy="6.08" r="5.85" fill="none" stroke="black" stroke-width="0.25px"/>
<path d="
M102.01 2.57
L101.56 6.22
L102.10 6.33
C102.18 6.11 102.30 5.94 102.46 5.82
C102.61 5.70 102.77 5.64 102.94 5.64
C103.23 5.64 103.47 5.78 103.66 6.06
C103.85 6.34 103.95 6.74 103.95 7.24
C103.95 7.78 103.85 8.21 103.65 8.52
C103.45 8.84 103.22 8.99 102.95 8.99
C102.73 8.99 102.54 8.88 102.37 8.66
C102.21 8.44 102.10 8.10 102.06 7.65
L101.46 7.72
C101.49 8.35 101.65 8.83 101.93 9.18
C102.21 9.54 102.55 9.71 102.96 9.71
C103.44 9.71 103.83 9.46 104.12 8.97
C104.41 8.47 104.55 7.87 104.55 7.18
C104.55 6.47 104.41 5.91 104.12 5.49
C103.83 5.08 103.49 4.87 103.10 4.87
C102.79 4.87 102.49 5.02 102.22 5.31
L102.47 3.40
L104.33 3.40
L104.33 2.57
Z
M99.30 2.44
C98.94 2.44 98.63 2.59 98.38 2.91
C98.12 3.22 97.96 3.68 97.89 4.29
L98.46 4.44
C98.50 4.01 98.60 3.69 98.75 3.48
C98.90 3.26 99.09 3.16 99.31 3.16
C99.52 3.16 99.70 3.26 99.85 3.46
C99.99 3.66 100.07 3.93 100.07 4.27
C100.07 4.63 99.98 4.92 99.80 5.14
C99.63 5.35 99.40 5.46 99.12 5.46
L99.03 5.45
L98.96 6.22
C99.12 6.15 99.26 6.12 99.36 6.12
C99.62 6.12 99.84 6.25 100.01 6.50
C100.19 6.75 100.28 7.09 100.28 7.50
C100.28 7.94 100.18 8.30 99.99 8.58
C99.80 8.85 99.57 8.99 99.31 8.99
C98.83 8.99 98.52 8.53 98.40 7.59
L97.83 7.71
C97.87 8.32 98.03 8.81 98.30 9.17
C98.58 9.54 98.92 9.72 99.32 9.72
C99.75 9.72 100.12 9.51 100.43 9.09
C100.73 8.68 100.89 8.14 100.89 7.49
C100.89 7.18 100.85 6.90 100.78 6.65
C100.70 6.40 100.60 6.20 100.48 6.05
C100.36 5.90 100.20 5.80 100.02 5.73
C100.22 5.59 100.38 5.39 100.49 5.14
C100.60 4.90 100.66 4.61 100.66 4.29
C100.66 3.75 100.53 3.31 100.26 2.96
C100.00 2.61 99.68 2.44 99.30 2.44
Z
" fill="black" fill-rule="nonzero" />
<path d="
M112.88 7.06
L112.88 8.88
C112.44 9.23 112.09 9.40 111.83 9.40
C111.63 9.40 111.46 9.32 111.31 9.16
C111.16 8.99 111.09 8.78 111.09 8.53
C111.09 8.33 111.15 8.15 111.26 7.98
C111.38 7.81 111.58 7.65 111.86 7.50
C112.01 7.41 112.35 7.26 112.88 7.06
Z
M116.15 3.55
C116.00 3.90 115.89 4.14 115.81 4.27
C115.65 4.52 115.48 4.74 115.27 4.92
C115.07 5.11 114.88 5.24 114.69 5.31
L114.69 5.49
L115.44 5.49
L115.44 8.71
C115.44 9.05 115.48 9.31 115.55 9.47
C115.63 9.64 115.74 9.77 115.89 9.86
C116.05 9.94 116.20 9.99 116.37 9.99
C116.60 9.99 116.83 9.90 117.06 9.73
C117.28 9.56 117.45 9.30 117.57 8.96
L117.37 8.96
C117.31 9.10 117.23 9.20 117.12 9.28
C117.01 9.35 116.90 9.38 116.78 9.38
C116.64 9.38 116.53 9.33 116.44 9.22
C116.35 9.11 116.31 8.90 116.31 8.59
L116.31 5.49
L117.43 5.49
L117.43 5.12
L116.31 5.12
L116.31 3.55
Z
M112.14 4.98
C111.59 4.98 111.16 5.10 110.85 5.36
C110.54 5.61 110.39 5.88 110.39 6.18
C110.39 6.34 110.43 6.46 110.51 6.55
C110.60 6.64 110.70 6.69 110.83 6.69
C110.96 6.69 111.07 6.65 111.15 6.56
C111.23 6.47 111.27 6.35 111.27 6.19
L111.26 5.88
C111.26 5.73 111.33 5.59 111.46 5.48
C111.59 5.36 111.77 5.30 111.99 5.30
C112.28 5.30 112.50 5.39 112.65 5.57
C112.80 5.74 112.88 6.07 112.88 6.55
L112.88 6.74
C112.05 7.04 111.46 7.29 111.11 7.50
C110.76 7.71 110.51 7.93 110.36 8.17
C110.26 8.34 110.21 8.54 110.21 8.78
C110.21 9.15 110.32 9.44 110.53 9.67
C110.74 9.90 111.02 10.01 111.35 10.01
C111.56 10.01 111.76 9.97 111.95 9.88
C112.08 9.82 112.38 9.60 112.88 9.22
C112.88 9.51 112.93 9.71 113.03 9.83
C113.13 9.95 113.27 10.00 113.44 10.00
C113.80 10.00 114.17 9.74 114.56 9.22
L114.56 8.93
C114.35 9.14 114.21 9.26 114.14 9.31
C114.09 9.33 114.04 9.35 113.99 9.35
C113.94 9.35 113.89 9.33 113.85 9.29
C113.81 9.26 113.78 9.19 113.76 9.09
C113.75 8.98 113.74 8.70 113.74 8.25
L113.74 6.62
C113.74 6.16 113.71 5.85 113.64 5.70
C113.55 5.47 113.39 5.30 113.19 5.19
C112.92 5.05 112.57 4.98 112.14 4.98
Z
" fill="black" fill-rule="nonzero" />
<circle cx="126.19" cy="6.08" r="5.98" fill="black"/>
<path d="
M128.02 5.89
C128.22 5.89 128.39 6.00 128.54 6.24
C128.70 6.49 128.78 6.86 128.78 7.34
C128.78 7.83 128.70 8.21 128.54 8.48
C128.39 8.73 128.23 8.85 128.06 8.85
C128.05 8.85 128.05 8.85 128.05 8.85
C128.05 8.85 128.05 8.85 128.05 8.85
C127.85 8.85 127.66 8.72 127.50 8.45
C127.32 8.16 127.23 7.77 127.23 7.29
C127.23 6.84 127.31 6.49 127.48 6.24
C127.64 6.00 127.81 5.89 128.01 5.89
C128.01 5.89 128.01 5.89 128.01 5.89
C128.01 5.89 128.02 5.89 128.02 5.89
Z
M124.39 2.30
C123.90 2.30 123.51 2.49 123.22 2.87
C122.93 3.24 122.77 3.78 122.72 4.49
L122.71 4.62
L122.84 4.64
L123.43 4.73
L123.60 4.76
L123.60 4.59
C123.60 4.16 123.67 3.84 123.83 3.62
C123.97 3.41 124.15 3.31 124.36 3.31
C124.37 3.31 124.37 3.31 124.37 3.31
C124.37 3.31 124.37 3.31 124.37 3.31
C124.57 3.31 124.74 3.40 124.88 3.59
C125.03 3.80 125.11 4.06 125.11 4.39
C125.11 4.69 125.03 5.01 124.87 5.35
C124.71 5.71 124.37 6.21 123.84 6.87
C123.37 7.45 123.05 7.96 122.87 8.40
C122.69 8.84 122.60 9.24 122.61 9.60
L122.62 9.73
L125.99 9.73
L125.99 9.59
L125.99 8.75
L125.99 8.61
L123.77 8.61
C123.81 8.52 123.86 8.44 123.91 8.35
C124.01 8.20 124.23 7.90 124.57 7.47
C125.11 6.77 125.48 6.20 125.68 5.78
C125.88 5.34 125.98 4.89 125.98 4.41
C125.98 3.88 125.85 3.39 125.59 2.97
C125.32 2.52 124.92 2.30 124.39 2.30
Z
M128.10 2.30
C127.82 2.30 127.57 2.38 127.35 2.55
C127.13 2.70 126.94 2.94 126.77 3.25
C126.44 3.86 126.28 4.86 126.28 6.26
C126.28 7.53 126.44 8.44 126.76 8.99
C126.92 9.27 127.11 9.49 127.32 9.63
C127.54 9.78 127.78 9.86 128.05 9.86
C128.34 9.86 128.61 9.75 128.86 9.55
C129.10 9.34 129.29 9.04 129.44 8.63
C129.58 8.23 129.65 7.78 129.65 7.29
C129.65 6.55 129.51 5.97 129.21 5.52
C128.91 5.06 128.55 4.83 128.13 4.83
C127.87 4.83 127.63 4.92 127.40 5.10
C127.31 5.18 127.23 5.26 127.15 5.36
L127.15 5.36
C127.18 4.78 127.26 4.32 127.39 3.99
C127.48 3.75 127.59 3.57 127.71 3.46
C127.82 3.35 127.93 3.30 128.06 3.30
C128.06 3.30 128.06 3.30 128.06 3.30
C128.06 3.30 128.07 3.30 128.07 3.30
C128.23 3.30 128.37 3.39 128.50 3.58
C128.59 3.72 128.67 3.96 128.72 4.30
L128.74 4.44
L128.87 4.42
L129.44 4.36
L129.58 4.34
L129.57 4.20
C129.51 3.60 129.36 3.13 129.10 2.81
C128.83 2.47 128.50 2.30 128.10 2.30
Z
" fill="white" fill-rule="nonzero" />
</g>
</g>
</svg>
