<?xml version="1.0" encoding="utf-8" standalone="no"?>
<!DOCTYPE svg PUBLIC "-//W3C//DTD SVG 1.0//EN" "http://www.w3.org/TR/SVG/DTD/svg11.dtd" >
<svg version="1.1" baseProfile="full"  width="319.13385" height="338.46454" viewBox="0 0 229.77638 243.69449" preserveAspectRatio="xMidYMid" xmlns="http://www.w3.org/2000/svg" >

<g lengthAdjust="spacingAndGlyphs" xml:space='preserve' >
<g  transform="translate(1.19,1.19)" >
<path d="
M0.0 0.0
L0.0 227.39
L227.39 227.39
L227.39 0.0
Z
" fill="none" fill-rule="nonzero" />
<line x1="6.54" y1="6.54" x2="6.54" y2="220.84" fill="none" stroke="black" stroke-width="0.87px" stroke-linecap="square" />
<line x1="18.45" y1="6.54" x2="18.45" y2="220.84" fill="none" stroke="black" stroke-width="0.25px" stroke-linecap="butt" />
<line x1="30.35" y1="6.54" x2="30.35" y2="220.84" fill="none" stroke="black" stroke-width="0.25px" stroke-linecap="butt" />
<line x1="42.26" y1="6.54" x2="42.26" y2="220.84" fill="none" stroke="black" stroke-width="0.25px" stroke-linecap="butt" />
<line x1="54.17" y1="6.54" x2="54.17" y2="220.84" fill="none" stroke="black" stroke-width="0.25px" stroke-linecap="butt" />
<line x1="66.07" y1="6.54" x2="66.07" y2="220.84" fill="none" stroke="black" stroke-width="0.25px" stroke-linecap="butt" />
<line x1="77.98" y1="6.54" x2="77.98" y2="220.84" fill="none" stroke="black" stroke-width="0.25px" stroke-linecap="butt" />
<line x1="89.88" y1="6.54" x2="89.88" y2="220.84" fill="none" stroke="black" stroke-width="0.25px" stroke-linecap="butt" />
<line x1="101.79" y1="6.54" x2="101.79" y2="220.84" fill="none" stroke="black" stroke-width="0.25px" stroke-linecap="butt" />
<line x1="113.69" y1="6.54" x2="113.69" y2="220.84" fill="none" stroke="black" stroke-width="0.25px" stroke-linecap="butt" />
<line x1="125.60" y1="6.54" x2="125.60" y2="220.84" fill="none" stroke="black" stroke-width="0.25px" stroke-linecap="butt" />
<line x1="137.50" y1="6.54" x2="137.50" y2="220.84" fill="none" stroke="black" stroke-width="0.25px" stroke-linecap="butt" />
<line x1="149.41" y1="6.54" x2="149.41" y2="220.84" fill="none" stroke="black" stroke-width="0.25px" stroke-linecap="butt" />
<line x1="161.31" y1="6.54" x2="161.31" y2="220.84" fill="none" stroke="black" stroke-width="0.25px" stroke-linecap="butt" />
<line x1="173.22" y1="6.54" x2="173.22" y2="220.84" fill="none" stroke="black" stroke-width="0.25px" stroke-linecap="butt" />
<line x1="185.13" y1="6.54" x2="185.13" y2="220.84" fill="none" stroke="black" stroke-width="0.25px" stroke-linecap="butt" />
<line x1="197.03" y1="6.54" x2="197.03" y2="220.84" fill="none" stroke="black" stroke-width="0.25px" stroke-linecap="butt" />
<line x1="208.94" y1="6.54" x2="208.94" y2="220.84" fill="none" stroke="black" stroke-width="0.25px" stroke-linecap="butt" />
<line x1="220.84" y1="6.54" x2="220.84" y2="220.84" fill="none" stroke="black" stroke-width="0.87px" stroke-linecap="square" />
<line x1="6.54" y1="6.54" x2="220.84" y2="6.54" fill="none" stroke="black" stroke-width="0.87px" stroke-linecap="square" />
<line x1="6.54" y1="18.45" x2="220.84" y2="18.45" fill="none" stroke="black" stroke-width="0.25px" stroke-linecap="butt" />
<line x1="6.54" y1="30.35" x2="220.84" y2="30.35" fill="none" stroke="black" stroke-width="0.25px" stroke-linecap="butt" />
<line x1="6.54" y1="42.26" x2="220.84" y2="42.26" fill="none" stroke="black" stroke-width="0.25px" stroke-linecap="butt" />
<line x1="6.54" y1="54.17" x2="220.84" y2="54.17" fill="none" stroke="black" stroke-width="0.25px" stroke-linecap="butt" />
<line x1="6.54" y1="66.07" x2="220.84" y2="66.07" fill="none" stroke="black" stroke-width="0.25px" stroke-linecap="butt" />
<line x1="6.54" y1="77.98" x2="220.84" y2="77.98" fill="none" stroke="black" stroke-width="0.25px" stroke-linecap="butt" />
<line x1="6.54" y1="89.88" x2="220.84" y2="89.88" fill="none" stroke="black" stroke-width="0.25px" stroke-linecap="butt" />
<line x1="6.54" y1="101.79" x2="220.84" y2="101.79" fill="none" stroke="black" stroke-width="0.25px" stroke-linecap="butt" />
<line x1="6.54" y1="113.69" x2="220.84" y2="113.69" fill="none" stroke="black" stroke-width="0.25px" stroke-linecap="butt" />
<line x1="6.54" y1="125.60" x2="220.84" y2="125.60" fill="none" stroke="black" stroke-width="0.25px" stroke-linecap="butt" />
<line x1="6.54" y1="137.50" x2="220.84" y2="137.50" fill="none" stroke="black" stroke-width="0.25px" stroke-linecap="butt" />
<line x1="6.54" y1="149.41" x2="220.84" y2="149.41" fill="none" stroke="black" stroke-width="0.25px" stroke-linecap="butt" />
<line x1="6.54" y1="161.31" x2="220.84" y2="161.31" fill="none" stroke="black" stroke-width="0.25px" stroke-linecap="butt" />
<line x1="6.54" y1="173.22" x2="220.84" y2="173.22" fill="none" stroke="black" stroke-width="0.25px" stroke-linecap="butt" />
<line x1="6.54" y1="185.13" x2="220.84" y2="185.13" fill="none" stroke="black" stroke-width="0.25px" stroke-linecap="butt" />
<line x1="6.54" y1="197.03" x2="220.84" y2="197.03" fill="none" stroke="black" stroke-width="0.25px" stroke-linecap="butt" />
<line x1="6.54" y1="208.94" x2="220.84" y2="208.94" fill="none" stroke="black" stroke-width="0.25px" stroke-linecap="butt" />
<line x1="6.54" y1="220.84" x2="220.84" y2="220.84" fill="none" stroke="black" stroke-width="0.87px" stroke-linecap="square" />
<circle cx="30.35" cy="54.17" r="5.98" fill="black"/>
<circle cx="30.35" cy="77.98" r="5.85" fill="white"/>
<circle cx="30.35" cy="77.98" r="5.85" fill="none" stroke="black" stroke-width="0.25px"/>
<circle cx="30.35" cy="89.88" r="5.85" fill="white"/>
<circle cx="30.35" cy="89.88" r="5.85" fill="none" stroke="black" stroke-width="0.25px"/>
<circle cx="30.35" cy="125.60" r="5.85" fill="white"/>
<circle cx="30.35" cy="125.60" r="5.85" fill="none" stroke="black" stroke-width="0.25px"/>
<circle cx="30.35" cy="161.31" r="5.85" fill="white"/>
<circle cx="30.35" cy="161.31" r="5.85" fill="none" stroke="black" stroke-width="0.25px"/>
<circle cx="30.35" cy="173.22" r="5.85" fill="white"/>
<circle cx="30.35" cy="173.22" r="5.85" fill="none" stroke="black" stroke-width="0.25px"/>
<circle cx="30.35" cy="185.13" r="5.98" fill="black"/>
<circle cx="42.26" cy="30.35" r="5.85" fill="white"/>
<circle cx="42.26" cy="30.35" r="5.85" fill="none" stroke="black" stroke-width="0.25px"/>
<circle cx="42.26" cy="42.26" r="1.27" fill="black"/>
<circle cx="42.26" cy="77.98" r="5.85" fill="white"/>
<circle cx="42.26" cy="77.98" r="5.85" fill="none" stroke="black" stroke-width="0.25px"/>
<circle cx="42.26" cy="89.88" r="5.98" fill="black"/>
<circle cx="42.26" cy="101.79" r="5.85" fill="white"/>
<circle cx="42.26" cy="101.79" r="5.85" fill="none" stroke="black" stroke-width="0.25px"/>
<circle cx="42.26" cy="113.69" r="5.85" fill="white"/>
<circle cx="42.26" cy="113.69" r="5.85" fill="none" stroke="black" stroke-width="0.25px"/>
<circle cx="42.26" cy="149.41" r="5.85" fill="white"/>
<circle cx="42.26" cy="149.41" r="5.85" fill="none" stroke="black" stroke-width="0.25px"/>
<circle cx="42.26" cy="161.31" r="5.98" fill="black"/>
<circle cx="42.26" cy="185.13" r="5.98" fill="black"/>
<circle cx="54.17" cy="66.07" r="5.98" fill="black"/>
<circle cx="54.17" cy="77.98" r="5.98" fill="black"/>
<circle cx="54.17" cy="89.88" r="5.98" fill="black"/>
<circle cx="54.17" cy="101.79" r="5.98" fill="black"/>
<circle cx="54.17" cy="161.31" r="5.98" fill="black"/>
<circle cx="66.07" cy="125.60" r="5.98" fill="black"/>
<circle cx="66.07" cy="197.03" r="5.98" fill="black"/>
<circle cx="77.98" cy="30.35" r="5.85" fill="white"/>
<circle cx="77.98" cy="30.35" r="5.85" fill="none" stroke="black" stroke-width="0.25px"/>
<circle cx="77.98" cy="113.69" r="5.85" fill="white"/>
<circle cx="77.98" cy="113.69" r="5.85" fill="none" stroke="black" stroke-width="0.25px"/>
<circle cx="77.98" cy="125.60" r="5.85" fill="white"/>
<circle cx="77.98" cy="125.60" r="5.85" fill="none" stroke="black" stroke-width="0.25px"/>
<circle cx="77.98" cy="137.50" r="5.98" fill="black"/>
<circle cx="77.98" cy="149.41" r="5.98" fill="black"/>
<circle cx="89.88" cy="101.79" r="5.98" fill="black"/>
<circle cx="89.88" cy="113.69" r="5.98" fill="black"/>
<circle cx="89.88" cy="125.60" r="5.98" fill="black"/>
<circle cx="89.88" cy="137.50" r="5.85" fill="white"/>
<circle cx="89.88" cy="137.50" r="5.85" fill="none" stroke="black" stroke-width="0.25px"/>
<circle cx="89.88" cy="149.41" r="5.85" fill="white"/>
<circle cx="89.88" cy="149.41" r="5.85" fill="none" stroke="black" stroke-width="0.25px"/>
<circle cx="89.88" cy="161.31" r="5.85" fill="white"/>
<circle cx="89.88" cy="161.31" r="5.85" fill="none" stroke="black" stroke-width="0.25px"/>
<circle cx="89.88" cy="185.13" r="5.85" fill="white"/>
<circle cx="89.88" cy="185.13" r="5.85" fill="none" stroke="black" stroke-width="0.25px"/>
<circle cx="101.79" cy="113.69" r="5.85" fill="white"/>
<circle cx="101.79" cy="113.69" r="5.85" fill="none" stroke="black" stroke-width="0.25px"/>
<circle cx="101.79" cy="125.60" r="5.85" fill="white"/>
<circle cx="101.79" cy="125.60" r="5.85" fill="none" stroke="black" stroke-width="0.25px"/>
<circle cx="101.79" cy="137.50" r="5.98" fill="black"/>
<circle cx="101.79" cy="149.41" r="5.98" fill="black"/>
<circle cx="101.79" cy="185.13" r="5.85" fill="white"/>
<circle cx="101.79" cy="185.13" r="5.85" fill="none" stroke="black" stroke-width="0.25px"/>
<circle cx="101.79" cy="197.03" r="5.98" fill="black"/>
<circle cx="113.69" cy="30.35" r="5.85" fill="white"/>
<circle cx="113.69" cy="30.35" r="5.85" fill="none" stroke="black" stroke-width="0.25px"/>
<circle cx="113.69" cy="42.26" r="1.27" fill="black"/>
<circle cx="113.69" cy="54.17" r="5.85" fill="white"/>
<circle cx="113.69" cy="54.17" r="5.85" fill="none" stroke="black" stroke-width="0.25px"/>
<circle cx="113.69" cy="77.98" r="5.98" fill="black"/>
<circle cx="113.69" cy="113.69" r="5.85" fill="white"/>
<circle cx="113.69" cy="113.69" r="5.85" fill="none" stroke="black" stroke-width="0.25px"/>
<circle cx="113.69" cy="125.60" r="5.98" fill="black"/>
<circle cx="113.69" cy="137.50" r="5.85" fill="white"/>
<circle cx="113.69" cy="137.50" r="5.85" fill="none" stroke="black" stroke-width="0.25px"/>
<circle cx="113.69" cy="161.31" r="5.98" fill="black"/>
<circle cx="113.69" cy="185.13" r="1.27" fill="black"/>
<circle cx="113.69" cy="208.94" r="5.98" fill="black"/>
<circle cx="125.60" cy="89.88" r="5.98" fill="black"/>
<circle cx="125.60" cy="113.69" r="5.85" fill="white"/>
<circle cx="125.60" cy="113.69" r="5.85" fill="none" stroke="black" stroke-width="0.25px"/>
<circle cx="125.60" cy="125.60" r="5.98" fill="black"/>
<circle cx="125.60" cy="197.03" r="5.85" fill="white"/>
<circle cx="125.60" cy="197.03" r="5.85" fill="none" stroke="black" stroke-width="0.25px"/>
<circle cx="125.60" cy="208.94" r="5.85" fill="white"/>
<circle cx="125.60" cy="208.94" r="5.85" fill="none" stroke="black" stroke-width="0.25px"/>
<circle cx="137.50" cy="30.35" r="5.98" fill="black"/>
<circle cx="137.50" cy="66.07" r="5.98" fill="black"/>
<circle cx="137.50" cy="77.98" r="5.98" fill="black"/>
<circle cx="137.50" cy="89.88" r="5.85" fill="white"/>
<circle cx="137.50" cy="89.88" r="5.85" fill="none" stroke="black" stroke-width="0.25px"/>
<circle cx="137.50" cy="113.69" r="5.85" fill="white"/>
<circle cx="137.50" cy="113.69" r="5.85" fill="none" stroke="black" stroke-width="0.25px"/>
<circle cx="137.50" cy="125.60" r="5.98" fill="black"/>
<circle cx="137.50" cy="185.13" r="5.85" fill="white"/>
<circle cx="137.50" cy="185.13" r="5.85" fill="none" stroke="black" stroke-width="0.25px"/>
<circle cx="149.41" cy="77.98" r="5.85" fill="white"/>
<circle cx="149.41" cy="77.98" r="5.85" fill="none" stroke="black" stroke-width="0.25px"/>
<circle cx="149.41" cy="125.60" r="5.98" fill="black"/>
<circle cx="149.41" cy="149.41" r="5.98" fill="black"/>
<circle cx="149.41" cy="173.22" r="5.85" fill="white"/>
<circle cx="149.41" cy="173.22" r="5.85" fill="none" stroke="black" stroke-width="0.25px"/>
<circle cx="149.41" cy="197.03" r="5.98" fill="black"/>
<circle cx="161.31" cy="101.79" r="5.85" fill="white"/>
<circle cx="161.31" cy="101.79" r="5.85" fill="none" stroke="black" stroke-width="0.25px"/>
<circle cx="161.31" cy="113.69" r="5.85" fill="white"/>
<circle cx="161.31" cy="113.69" r="5.85" fill="none" stroke="black" stroke-width="0.25px"/>
<circle cx="161.31" cy="125.60" r="5.98" fill="black"/>
<circle cx="173.22" cy="89.88" r="5.98" fill="black"/>
<circle cx="173.22" cy="101.79" r="5.98" fill="black"/>
<circle cx="173.22" cy="113.69" r="5.98" fill="black"/>
<circle cx="173.22" cy="125.60" r="5.85" fill="white"/>
<circle cx="173.22" cy="125.60" r="5.85" fill="none" stroke="black" stroke-width="0.25px"/>
<circle cx="173.22" cy="137.50" r="5.98" fill="black"/>
<circle cx="173.22" cy="185.13" r="5.85" fill="white"/>
<circle cx="173.22" cy="185.13" r="5.85" fill="none" stroke="black" stroke-width="0.25px"/>
<circle cx="185.13" cy="30.35" r="5.98" fill="black"/>
<circle cx="185.13" cy="42.26" r="5.98" fill="black"/>
<circle cx="185.13" cy="113.69" r="1.27" fill="black"/>
<circle cx="185.13" cy="125.60" r="5.85" fill="white"/>
<circle cx="185.13" cy="125.60" r="5.85" fill="none" stroke="black" stroke-width="0.25px"/>
<circle cx="185.13" cy="161.31" r="5.85" fill="white"/>
<circle cx="185.13" cy="161.31" r="5.85" fill="none" stroke="black" stroke-width="0.25px"/>
<circle cx="185.13" cy="185.13" r="1.27" fill="black"/>
<circle cx="185.13" cy="197.03" r="5.85" fill="white"/>
<circle cx="185.13" cy="197.03" r="5.85" fill="none" stroke="black" stroke-width="0.25px"/>
<circle cx="197.03" cy="89.88" r="5.98" fill="black"/>
<circle cx="197.03" cy="113.69" r="5.85" fill="white"/>
<circle cx="197.03" cy="113.69" r="5.85" fill="none" stroke="black" stroke-width="0.25px"/>
<circle cx="197.03" cy="125.60" r="5.85" fill="white"/>
<circle cx="197.03" cy="125.60" r="5.85" fill="none" stroke="black" stroke-width="0.25px"/>
<circle cx="197.03" cy="137.50" r="5.85" fill="white"/>
<circle cx="197.03" cy="137.50" r="5.85" fill="none" stroke="black" stroke-width="0.25px"/>
<circle cx="197.03" cy="149.41" r="5.85" fill="white"/>
<circle cx="197.03" cy="149.41" r="5.85" fill="none" stroke="black" stroke-width="0.25px"/>
<circle cx="197.03" cy="173.22" r="5.98" fill="black"/>
<circle cx="208.94" cy="113.69" r="5.98" fill="black"/>
<circle cx="208.94" cy="125.60" r="5.98" fill="black"/>
<circle cx="208.94" cy="137.50" r="5.98" fill="black"/>
<circle cx="208.94" cy="149.41" r="5.85" fill="white"/>
<circle cx="208.94" cy="149.41" r="5.85" fill="none" stroke="black" stroke-width="0.25px"/>
<path d="
M78.17 145.73
L78.13 145.82
C78.02 146.12 77.82 146.42 77.53 146.73
C77.24 147.04 76.91 147.30 76.53 147.52
L76.46 147.56
L76.46 147.64
L76.46 148.48
L76.46 148.70
L76.66 148.61
C76.90 148.50 77.16 148.35 77.44 148.14
C77.60 148.02 77.75 147.90 77.87 147.79
L77.87 147.79
L77.87 152.94
L77.87 153.08
L78.87 153.08
L78.87 152.94
L78.87 145.88
L78.87 145.73
Z
" fill="white" fill-rule="nonzero" />
<path d="
M89.86 99.05
C89.86 99.05 89.86 99.05 89.86 99.05
C89.86 99.05 89.86 99.05 89.87 99.05
C90.11 99.05 90.33 99.18 90.52 99.43
C90.73 99.69 90.83 100.06 90.83 100.53
C90.83 101.00 90.73 101.36 90.53 101.61
C90.35 101.85 90.12 101.97 89.85 101.97
C89.85 101.97 89.85 101.97 89.85 101.97
C89.85 101.97 89.85 101.97 89.85 101.97
C89.57 101.97 89.34 101.85 89.14 101.61
C88.94 101.36 88.83 101.03 88.83 100.60
C88.83 100.12 88.94 99.74 89.16 99.46
C89.37 99.19 89.60 99.05 89.86 99.05
Z
M89.78 98.05
C89.23 98.05 88.77 98.28 88.38 98.74
C88.01 99.19 87.82 99.80 87.82 100.57
C87.82 101.32 88.00 101.91 88.36 102.35
C88.73 102.79 89.18 103.02 89.69 103.02
C89.98 103.02 90.26 102.92 90.53 102.74
C90.67 102.65 90.79 102.54 90.90 102.42
L90.90 102.42
C90.88 102.83 90.82 103.20 90.71 103.52
C90.59 103.91 90.44 104.17 90.26 104.32
C90.10 104.46 89.91 104.53 89.71 104.53
C89.71 104.53 89.71 104.53 89.71 104.53
C89.71 104.53 89.71 104.53 89.71 104.53
C89.48 104.53 89.31 104.45 89.18 104.30
C89.04 104.13 88.94 103.88 88.89 103.54
L88.87 103.40
L88.73 103.42
L88.05 103.49
L87.91 103.51
L87.93 103.65
C87.99 104.25 88.18 104.71 88.49 105.03
C88.82 105.36 89.22 105.52 89.69 105.52
C90.11 105.52 90.49 105.39 90.83 105.12
C91.17 104.86 91.43 104.45 91.62 103.88
C91.81 103.34 91.90 102.57 91.90 101.59
C91.90 100.70 91.81 100.02 91.64 99.55
C91.46 99.06 91.20 98.69 90.87 98.44
C90.53 98.18 90.17 98.05 89.78 98.05
Z
" fill="white" fill-rule="nonzero" />
<path d="
M89.78 109.96
C89.30 109.96 88.89 110.12 88.54 110.46
C88.21 110.79 87.99 111.27 87.90 111.90
L87.88 112.03
L88.01 112.06
L88.71 112.21
L88.87 112.25
L88.89 112.09
C88.93 111.70 89.04 111.40 89.21 111.22
C89.37 111.04 89.56 110.95 89.79 110.95
C89.79 110.95 89.79 110.95 89.79 110.95
C89.79 110.95 89.79 110.95 89.79 110.95
C90.01 110.95 90.20 111.03 90.35 111.20
C90.51 111.38 90.59 111.61 90.59 111.90
C90.59 112.22 90.50 112.47 90.31 112.66
C90.12 112.85 89.87 112.94 89.56 112.94
L89.56 112.94
L89.46 112.93
L89.32 112.92
L89.30 113.06
L89.22 113.82
L89.20 114.03
L89.41 113.97
C89.59 113.91 89.74 113.88 89.86 113.88
C89.86 113.88 89.86 113.88 89.86 113.88
C89.86 113.88 89.86 113.88 89.87 113.88
C90.14 113.88 90.37 113.99 90.56 114.20
C90.75 114.43 90.85 114.72 90.85 115.10
C90.85 115.50 90.74 115.82 90.53 116.07
C90.32 116.31 90.08 116.43 89.80 116.43
C89.80 116.43 89.80 116.43 89.80 116.43
C89.79 116.43 89.79 116.43 89.79 116.43
C89.54 116.43 89.33 116.33 89.18 116.14
C89.01 115.93 88.89 115.60 88.82 115.17
L88.79 115.03
L88.65 115.05
L87.94 115.17
L87.82 115.19
L87.83 115.32
C87.88 115.95 88.08 116.47 88.45 116.85
C88.82 117.24 89.27 117.43 89.81 117.43
C90.38 117.43 90.87 117.21 91.28 116.77
C91.68 116.33 91.89 115.77 91.89 115.08
C91.89 114.76 91.84 114.47 91.74 114.21
C91.64 113.94 91.50 113.73 91.34 113.57
C91.23 113.47 91.11 113.38 90.98 113.31
L90.98 113.31
C91.14 113.18 91.27 113.03 91.38 112.84
C91.53 112.57 91.60 112.27 91.60 111.92
C91.60 111.36 91.43 110.89 91.07 110.52
C90.72 110.14 90.29 109.96 89.78 109.96
Z
" fill="white" fill-rule="nonzero" />
<path d="
M89.89 160.99
C90.21 160.99 90.47 161.12 90.69 161.40
C90.91 161.67 91.01 162.06 91.01 162.56
C91.01 163.07 90.91 163.47 90.69 163.76
C90.47 164.05 90.22 164.20 89.94 164.20
C89.62 164.20 89.34 164.04 89.10 163.73
C88.86 163.43 88.74 163.02 88.74 162.51
C88.74 162.04 88.86 161.67 89.09 161.40
C89.32 161.12 89.58 160.99 89.89 160.99
Z
M90.00 157.72
C89.39 157.72 88.90 158.01 88.51 158.59
C88.12 159.17 87.93 160.13 87.93 161.49
C87.93 162.72 88.12 163.60 88.49 164.12
C88.87 164.64 89.35 164.91 89.93 164.91
C90.26 164.91 90.55 164.82 90.82 164.63
C91.09 164.45 91.31 164.17 91.48 163.79
C91.65 163.40 91.74 162.98 91.74 162.51
C91.74 161.81 91.57 161.26 91.23 160.84
C90.89 160.43 90.49 160.22 90.03 160.22
C89.76 160.22 89.49 160.30 89.25 160.46
C89.00 160.62 88.80 160.85 88.63 161.16
C88.64 160.29 88.75 159.64 88.96 159.20
C89.21 158.69 89.54 158.43 89.95 158.43
C90.22 158.43 90.45 158.54 90.64 158.77
C90.77 158.92 90.87 159.18 90.93 159.54
L91.64 159.47
C91.57 158.90 91.39 158.47 91.10 158.17
C90.80 157.87 90.44 157.72 90.00 157.72
Z
" fill="black" fill-rule="nonzero" />
<path d="
M101.76 110.81
C102.01 110.81 102.24 110.92 102.42 111.12
C102.61 111.33 102.70 111.60 102.70 111.93
C102.70 112.25 102.61 112.51 102.43 112.72
C102.25 112.92 102.03 113.02 101.77 113.02
C101.50 113.02 101.28 112.92 101.10 112.71
C100.91 112.51 100.82 112.23 100.82 111.89
C100.82 111.58 100.91 111.32 101.10 111.12
C101.28 110.91 101.50 110.81 101.76 110.81
Z
M101.75 113.72
C102.08 113.72 102.36 113.86 102.59 114.12
C102.82 114.38 102.94 114.73 102.94 115.16
C102.94 115.59 102.83 115.94 102.60 116.19
C102.37 116.45 102.09 116.57 101.77 116.57
C101.45 116.57 101.17 116.44 100.94 116.18
C100.70 115.91 100.59 115.57 100.59 115.13
C100.59 114.72 100.70 114.38 100.93 114.12
C101.15 113.86 101.43 113.72 101.75 113.72
Z
M101.75 110.10
C101.28 110.10 100.88 110.27 100.57 110.60
C100.25 110.94 100.09 111.38 100.09 111.91
C100.09 112.26 100.17 112.56 100.31 112.80
C100.46 113.04 100.67 113.22 100.96 113.35
C100.61 113.46 100.35 113.67 100.15 113.97
C99.96 114.28 99.86 114.66 99.86 115.13
C99.86 115.78 100.04 116.30 100.41 116.69
C100.77 117.09 101.22 117.29 101.77 117.29
C102.31 117.29 102.76 117.09 103.12 116.69
C103.48 116.30 103.66 115.79 103.66 115.16
C103.66 114.70 103.57 114.32 103.38 114.02
C103.20 113.71 102.93 113.49 102.58 113.35
C102.86 113.22 103.08 113.04 103.22 112.80
C103.36 112.56 103.43 112.28 103.43 111.94
C103.43 111.40 103.27 110.96 102.95 110.61
C102.63 110.27 102.23 110.10 101.75 110.10
Z
" fill="black" fill-rule="nonzero" />
<path d="
M101.80 122.07
C101.26 122.07 100.83 122.24 100.49 122.58
C100.16 122.92 99.97 123.43 99.92 124.10
L100.65 124.19
C100.65 123.74 100.76 123.39 100.97 123.15
C101.18 122.90 101.45 122.78 101.78 122.78
C102.08 122.78 102.34 122.89 102.55 123.12
C102.76 123.34 102.87 123.64 102.87 124.00
C102.87 124.31 102.76 124.64 102.56 125.00
C102.36 125.36 101.92 125.87 101.26 126.53
C100.69 127.10 100.30 127.59 100.09 128.00
C99.88 128.42 99.78 128.79 99.79 129.13
L103.60 129.13
L103.60 128.30
L100.77 128.30
C100.85 128.14 100.95 127.99 101.07 127.83
C101.19 127.67 101.47 127.38 101.89 126.95
C102.55 126.26 103.00 125.71 103.24 125.30
C103.47 124.89 103.59 124.46 103.59 124.01
C103.59 123.51 103.44 123.06 103.14 122.66
C102.84 122.26 102.39 122.07 101.80 122.07
Z
" fill="black" fill-rule="nonzero" />
<path d="
M101.00 148.28
L101.00 148.28
L101.00 148.28
C101.00 148.28 101.00 148.28 101.00 148.28
Z
M100.43 145.74
L100.41 145.86
L99.85 149.47
L99.83 149.61
L99.97 149.63
L100.64 149.74
L100.74 149.75
L100.79 149.66
C100.88 149.47 101.01 149.32 101.18 149.22
C101.34 149.11 101.52 149.06 101.70 149.06
C101.71 149.06 101.71 149.06 101.71 149.06
C101.71 149.06 101.71 149.06 101.71 149.06
C102.02 149.06 102.28 149.18 102.48 149.42
C102.70 149.67 102.80 150.03 102.80 150.50
C102.80 151.00 102.69 151.40 102.47 151.68
C102.25 151.95 102.00 152.09 101.71 152.09
C101.71 152.09 101.71 152.09 101.71 152.09
C101.71 152.09 101.71 152.09 101.71 152.09
C101.48 152.09 101.28 151.99 101.11 151.80
C100.92 151.61 100.81 151.30 100.75 150.88
L100.73 150.74
L100.60 150.76
L99.85 150.84
L99.72 150.85
L99.73 150.99
C99.78 151.64 99.99 152.15 100.35 152.52
C100.73 152.89 101.18 153.08 101.72 153.08
C102.37 153.08 102.89 152.81 103.27 152.29
C103.65 151.77 103.83 151.15 103.83 150.43
C103.83 149.70 103.64 149.12 103.26 148.68
C102.88 148.23 102.42 148.01 101.90 148.01
C101.59 148.01 101.29 148.10 101.00 148.28
L101.00 148.28
L101.24 146.85
L103.56 146.85
L103.56 146.70
L103.56 145.88
L103.56 145.74
Z
" fill="white" fill-rule="nonzero" />
<path d="
M115.45 110.78
C115.74 110.78 115.97 110.98 116.14 111.37
C116.32 111.76 116.41 112.54 116.41 113.70
C116.41 114.84 116.32 115.61 116.15 116.01
C115.97 116.41 115.75 116.61 115.49 116.61
C115.21 116.61 114.98 116.41 114.81 116.02
C114.63 115.63 114.54 114.85 114.54 113.70
C114.54 112.55 114.63 111.78 114.80 111.38
C114.98 110.98 115.19 110.78 115.45 110.78
Z
M112.11 110.06
C112.01 110.37 111.84 110.69 111.60 111.01
C111.36 111.34 111.08 111.62 110.76 111.84
L110.76 112.69
C110.95 112.59 111.15 112.43 111.38 112.23
C111.60 112.03 111.78 111.83 111.91 111.64
L111.91 117.21
L112.48 117.21
L112.48 110.06
Z
M115.48 110.06
C114.98 110.06 114.60 110.36 114.34 110.98
C114.08 111.59 113.95 112.50 113.95 113.70
C113.95 115.03 114.09 115.97 114.38 116.51
C114.66 117.06 115.03 117.33 115.47 117.33
C115.98 117.33 116.36 117.02 116.62 116.40
C116.87 115.79 117.00 114.88 117.00 113.70
C117.00 112.37 116.84 111.41 116.53 110.80
C116.28 110.31 115.93 110.06 115.48 110.06
Z
" fill="black" fill-rule="nonzero" />
<path d="
M111.68 121.98
L111.68 122.13
L111.68 122.96
L111.68 123.10
L114.37 123.10
C114.07 123.56 113.78 124.10 113.51 124.71
C113.20 125.43 112.95 126.19 112.77 126.98
C112.59 127.77 112.50 128.47 112.49 129.07
L112.48 129.21
L113.36 129.21
L113.49 129.21
L113.50 129.08
C113.56 127.95 113.80 126.82 114.22 125.67
C114.64 124.52 115.12 123.60 115.67 122.88
L115.70 122.85
L115.70 122.80
L115.70 122.13
L115.70 121.98
Z
" fill="white" fill-rule="nonzero" />
<path d="
M114.04 135.37
L114.04 138.55
L112.24 138.55
L114.04 135.37
Z
M114.18 133.99
L111.54 138.55
L111.54 139.34
L114.04 139.34
L114.04 141.02
L114.75 141.02
L114.75 139.34
L115.54 139.34
L115.54 138.55
L114.75 138.55
L114.75 133.99
Z
" fill="black" fill-rule="nonzero" />
<path d="
M123.79 86.16
C123.31 86.17 122.92 86.36 122.62 86.74
C122.34 87.10 122.17 87.64 122.13 88.36
L122.12 88.49
L122.25 88.51
L122.84 88.60
L123.00 88.62
L123.00 88.46
C123.00 88.03 123.08 87.70 123.23 87.48
C123.38 87.27 123.56 87.17 123.77 87.17
C123.77 87.17 123.77 87.17 123.78 87.17
C123.78 87.17 123.78 87.17 123.78 87.17
C123.98 87.17 124.15 87.27 124.29 87.46
C124.44 87.66 124.52 87.93 124.52 88.26
C124.52 88.55 124.44 88.87 124.28 89.22
C124.12 89.57 123.77 90.08 123.25 90.74
C122.78 91.32 122.46 91.83 122.28 92.26
C122.10 92.70 122.01 93.10 122.02 93.46
L122.02 93.60
L125.39 93.60
L125.39 93.46
L125.39 92.62
L125.39 92.48
L123.18 92.48
C123.22 92.39 123.27 92.30 123.32 92.22
C123.42 92.06 123.64 91.77 123.98 91.33
C124.52 90.63 124.89 90.07 125.09 89.64
C125.29 89.21 125.39 88.75 125.39 88.28
C125.39 87.74 125.26 87.26 125.00 86.83
C124.73 86.39 124.32 86.17 123.79 86.16
Z
M125.76 86.29
L125.76 86.43
L125.76 87.27
L125.76 87.41
L127.94 87.41
C127.69 87.88 127.46 88.43 127.24 89.06
C126.98 89.78 126.78 90.55 126.64 91.35
C126.49 92.15 126.42 92.85 126.41 93.46
L126.41 93.60
L127.14 93.60
L127.28 93.60
L127.28 93.46
C127.33 92.32 127.53 91.17 127.87 90.01
C128.21 88.84 128.60 87.90 129.04 87.18
L129.06 87.15
L129.06 87.11
L129.06 86.43
L129.06 86.29
Z
" fill="white" fill-rule="nonzero" />
<path d="
M124.02 110.12
C123.92 110.43 123.75 110.75 123.51 111.07
C123.26 111.40 122.98 111.68 122.67 111.90
L122.67 112.75
C122.85 112.65 123.06 112.49 123.28 112.29
C123.50 112.09 123.68 111.89 123.81 111.70
L123.81 117.27
L124.39 117.27
L124.39 110.12
Z
M127.42 110.12
C126.99 110.12 126.63 110.29 126.37 110.63
C126.10 110.98 125.94 111.49 125.90 112.18
L126.49 112.27
C126.49 111.81 126.58 111.46 126.75 111.21
C126.92 110.96 127.14 110.84 127.41 110.84
C127.65 110.84 127.86 110.95 128.03 111.18
C128.20 111.41 128.29 111.71 128.29 112.07
C128.29 112.38 128.20 112.72 128.04 113.09
C127.87 113.45 127.52 113.97 126.99 114.64
C126.53 115.21 126.21 115.71 126.04 116.13
C125.87 116.55 125.78 116.93 125.79 117.27
L128.88 117.27
L128.88 116.43
L126.59 116.43
C126.65 116.27 126.73 116.11 126.83 115.95
C126.93 115.79 127.15 115.50 127.49 115.06
C128.03 114.36 128.40 113.81 128.59 113.39
C128.78 112.98 128.87 112.54 128.87 112.09
C128.87 111.58 128.75 111.12 128.51 110.72
C128.26 110.32 127.90 110.12 127.42 110.12
Z
" fill="black" fill-rule="nonzero" />
<path d="
M123.91 121.88
L123.88 121.98
C123.79 122.28 123.62 122.58 123.39 122.90
C123.16 123.21 122.89 123.48 122.59 123.69
L122.53 123.74
L122.53 123.81
L122.53 124.66
L122.53 124.90
L122.74 124.78
C122.93 124.67 123.15 124.51 123.38 124.30
C123.49 124.20 123.58 124.10 123.67 124.01
L123.67 124.01
L123.67 129.17
L123.67 129.32
L124.53 129.32
L124.53 129.17
L124.53 122.02
L124.53 121.88
Z
M127.54 121.88
L127.51 121.98
C127.42 122.28 127.25 122.58 127.02 122.90
C126.79 123.21 126.52 123.48 126.22 123.69
L126.16 123.74
L126.16 123.81
L126.16 124.66
L126.16 124.90
L126.37 124.78
C126.56 124.67 126.78 124.51 127.01 124.30
C127.12 124.20 127.21 124.10 127.30 124.01
L127.30 124.01
L127.30 129.17
L127.30 129.32
L128.16 129.32
L128.16 129.17
L128.16 122.02
L128.16 121.88
Z
" fill="white" fill-rule="nonzero" />
<path d="
M139.30 63.30
C139.30 63.30 139.30 63.30 139.30 63.30
C139.30 63.30 139.31 63.30 139.31 63.30
C139.49 63.30 139.66 63.42 139.81 63.67
C139.98 63.94 140.06 64.31 140.06 64.80
C140.06 65.28 139.98 65.65 139.82 65.90
C139.67 66.14 139.50 66.26 139.30 66.26
C139.29 66.26 139.29 66.26 139.29 66.26
C139.29 66.26 139.29 66.26 139.29 66.26
C139.08 66.26 138.90 66.14 138.75 65.90
C138.58 65.65 138.50 65.31 138.50 64.87
C138.50 64.38 138.59 63.99 138.76 63.70
C138.93 63.43 139.11 63.30 139.30 63.30
Z
M135.82 62.29
L135.79 62.39
C135.69 62.69 135.53 62.99 135.30 63.31
C135.06 63.62 134.79 63.89 134.49 64.11
L134.43 64.15
L134.43 64.22
L134.43 65.07
L134.43 65.31
L134.64 65.19
C134.84 65.08 135.05 64.92 135.28 64.71
C135.39 64.61 135.49 64.52 135.58 64.42
L135.58 64.42
L135.58 69.59
L135.58 69.73
L136.44 69.73
L136.44 69.59
L136.44 62.43
L136.44 62.29
Z
M139.24 62.29
C138.78 62.29 138.39 62.53 138.08 63.00
C137.77 63.45 137.62 64.07 137.62 64.84
C137.62 65.59 137.77 66.19 138.06 66.63
C138.36 67.08 138.73 67.31 139.16 67.31
C139.41 67.31 139.64 67.22 139.87 67.03
C139.96 66.95 140.04 66.87 140.11 66.78
L140.11 66.78
C140.09 67.17 140.04 67.52 139.96 67.83
C139.86 68.23 139.74 68.50 139.60 68.64
C139.47 68.78 139.33 68.85 139.18 68.85
C139.18 68.85 139.18 68.85 139.18 68.85
C139.18 68.85 139.18 68.85 139.17 68.85
C139.01 68.85 138.88 68.77 138.78 68.63
C138.66 68.46 138.58 68.20 138.54 67.84
L138.53 67.70
L138.38 67.72
L137.83 67.80
L137.70 67.82
L137.71 67.95
C137.76 68.55 137.91 69.02 138.17 69.34
C138.43 69.68 138.77 69.85 139.17 69.85
C139.52 69.85 139.84 69.71 140.12 69.43
C140.39 69.17 140.60 68.75 140.75 68.19
C140.90 67.63 140.98 66.86 140.98 65.87
C140.98 64.98 140.91 64.29 140.77 63.81
C140.62 63.32 140.42 62.95 140.15 62.69
C139.87 62.43 139.56 62.29 139.24 62.29
Z
" fill="white" fill-rule="nonzero" />
<path d="
M135.82 74.26
L135.79 74.36
C135.69 74.65 135.53 74.96 135.30 75.27
C135.06 75.59 134.79 75.85 134.49 76.07
L134.43 76.12
L134.43 76.19
L134.43 77.03
L134.43 77.27
L134.64 77.16
C134.84 77.05 135.05 76.89 135.28 76.68
C135.39 76.58 135.49 76.48 135.58 76.39
L135.58 76.39
L135.58 81.55
L135.58 81.69
L136.44 81.69
L136.44 81.55
L136.44 74.40
L136.44 74.26
Z
M137.66 74.38
L137.66 74.52
L137.66 75.36
L137.66 75.50
L139.85 75.50
C139.60 75.97 139.36 76.52 139.14 77.15
C138.89 77.88 138.69 78.64 138.54 79.44
C138.40 80.24 138.32 80.95 138.31 81.55
L138.31 81.69
L139.05 81.69
L139.18 81.69
L139.19 81.56
C139.24 80.42 139.43 79.26 139.77 78.10
C140.11 76.94 140.50 76.00 140.95 75.28
L140.97 75.24
L140.97 75.20
L140.97 74.52
L140.97 74.38
Z
" fill="white" fill-rule="nonzero" />
<path d="
M139.33 89.55
C139.58 89.55 139.80 89.69 139.97 89.97
C140.15 90.25 140.24 90.64 140.24 91.14
C140.24 91.66 140.15 92.06 139.97 92.36
C139.79 92.65 139.59 92.80 139.37 92.80
C139.11 92.80 138.88 92.64 138.69 92.33
C138.49 92.02 138.40 91.60 138.40 91.09
C138.40 90.62 138.49 90.24 138.68 89.96
C138.86 89.69 139.08 89.55 139.33 89.55
Z
M135.92 86.25
C135.82 86.56 135.65 86.88 135.41 87.20
C135.17 87.53 134.89 87.81 134.57 88.03
L134.57 88.88
C134.76 88.77 134.96 88.62 135.19 88.42
C135.41 88.22 135.59 88.02 135.72 87.82
L135.72 93.40
L136.30 93.40
L136.30 86.25
Z
M139.41 86.25
C138.92 86.25 138.52 86.54 138.21 87.12
C137.89 87.71 137.74 88.69 137.74 90.06
C137.74 91.30 137.89 92.19 138.20 92.72
C138.50 93.25 138.89 93.52 139.36 93.52
C139.62 93.52 139.86 93.43 140.08 93.24
C140.30 93.06 140.48 92.77 140.61 92.38
C140.75 92.00 140.82 91.57 140.82 91.09
C140.82 90.39 140.68 89.82 140.41 89.41
C140.13 88.99 139.81 88.78 139.44 88.78
C139.22 88.78 139.01 88.86 138.81 89.02
C138.61 89.18 138.44 89.41 138.31 89.72
C138.31 88.85 138.40 88.19 138.57 87.74
C138.77 87.22 139.04 86.96 139.38 86.96
C139.59 86.96 139.78 87.08 139.93 87.30
C140.04 87.46 140.12 87.72 140.17 88.09
L140.74 88.02
C140.69 87.44 140.54 87.00 140.30 86.70
C140.06 86.40 139.77 86.25 139.41 86.25
Z
" fill="black" fill-rule="nonzero" />
<path d="
M139.60 111.55
L139.60 114.76
L138.14 114.76
L139.60 111.55
Z
M135.92 110.12
C135.82 110.43 135.65 110.75 135.41 111.07
C135.17 111.40 134.89 111.68 134.57 111.90
L134.57 112.75
C134.76 112.65 134.96 112.49 135.19 112.29
C135.41 112.09 135.59 111.89 135.72 111.70
L135.72 117.27
L136.30 117.27
L136.30 110.12
Z
M139.71 110.15
L137.58 114.76
L137.58 115.56
L139.60 115.56
L139.60 117.27
L140.18 117.27
L140.18 115.56
L140.81 115.56
L140.81 114.76
L140.18 114.76
L140.18 110.15
Z
" fill="black" fill-rule="nonzero" />
<path d="
M135.82 121.82
L135.79 121.92
C135.69 122.21 135.53 122.52 135.30 122.83
C135.06 123.15 134.79 123.41 134.49 123.63
L134.43 123.67
L134.43 123.75
L134.43 124.59
L134.43 124.83
L134.64 124.72
C134.84 124.61 135.05 124.45 135.28 124.24
C135.39 124.14 135.49 124.04 135.58 123.94
L135.58 123.94
L135.58 129.11
L135.58 129.25
L136.44 129.25
L136.44 129.11
L136.44 121.96
L136.44 121.82
Z
M139.24 121.82
C138.83 121.82 138.49 121.99 138.21 122.34
C137.94 122.67 137.76 123.15 137.69 123.79
L137.67 123.91
L137.79 123.94
L138.36 124.10
L138.52 124.14
L138.54 123.97
C138.58 123.57 138.67 123.27 138.80 123.08
C138.92 122.91 139.07 122.82 139.24 122.82
C139.24 122.82 139.24 122.82 139.24 122.82
C139.25 122.82 139.25 122.82 139.25 122.82
C139.41 122.82 139.55 122.90 139.67 123.07
C139.80 123.24 139.87 123.48 139.87 123.79
C139.87 124.12 139.79 124.38 139.63 124.57
C139.49 124.75 139.30 124.84 139.06 124.84
L139.06 124.84
L138.98 124.83
L138.84 124.81
L138.82 124.96
L138.76 125.73
L138.74 125.96
L138.95 125.87
C139.10 125.81 139.21 125.78 139.30 125.78
C139.30 125.78 139.30 125.78 139.30 125.78
C139.30 125.78 139.31 125.78 139.31 125.78
C139.51 125.78 139.69 125.89 139.84 126.10
C140.00 126.33 140.08 126.64 140.07 127.02
C140.08 127.43 139.99 127.76 139.81 128.02
C139.65 128.25 139.46 128.37 139.25 128.37
C139.25 128.37 139.25 128.37 139.25 128.37
C139.25 128.37 139.25 128.37 139.24 128.37
C139.05 128.37 138.90 128.28 138.78 128.09
C138.64 127.87 138.54 127.54 138.48 127.10
L138.46 126.94
L138.31 126.98
L137.74 127.09
L137.62 127.12
L137.63 127.24
C137.67 127.88 137.84 128.39 138.13 128.78
C138.44 129.18 138.81 129.38 139.26 129.38
C139.73 129.38 140.14 129.15 140.48 128.70
C140.80 128.26 140.97 127.69 140.97 127.01
C140.97 126.69 140.93 126.39 140.85 126.13
C140.77 125.86 140.66 125.65 140.53 125.48
C140.44 125.38 140.34 125.29 140.22 125.22
L140.22 125.22
C140.36 125.08 140.47 124.92 140.56 124.72
C140.68 124.46 140.74 124.15 140.74 123.81
C140.74 123.24 140.60 122.77 140.31 122.40
C140.02 122.01 139.66 121.82 139.24 121.82
Z
" fill="white" fill-rule="nonzero" />
<path d="
M151.20 75.06
C151.41 75.06 151.59 75.16 151.74 75.38
C151.89 75.59 151.97 75.86 151.97 76.20
C151.97 76.52 151.89 76.78 151.75 76.99
C151.60 77.19 151.42 77.29 151.21 77.29
C150.99 77.29 150.81 77.19 150.66 76.98
C150.52 76.78 150.44 76.50 150.44 76.15
C150.44 75.84 150.52 75.58 150.67 75.37
C150.82 75.16 150.99 75.06 151.20 75.06
Z
M151.19 78.01
C151.46 78.01 151.68 78.14 151.87 78.41
C152.06 78.68 152.16 79.03 152.16 79.47
C152.16 79.90 152.07 80.25 151.88 80.50
C151.70 80.76 151.47 80.89 151.21 80.89
C150.95 80.89 150.72 80.76 150.53 80.49
C150.35 80.23 150.25 79.87 150.25 79.44
C150.25 79.01 150.34 78.67 150.53 78.41
C150.71 78.14 150.93 78.01 151.19 78.01
Z
M147.83 74.34
C147.73 74.65 147.56 74.97 147.32 75.30
C147.07 75.62 146.79 75.90 146.48 76.13
L146.48 76.97
C146.67 76.87 146.87 76.72 147.09 76.51
C147.32 76.31 147.49 76.11 147.63 75.92
L147.63 81.49
L148.20 81.49
L148.20 74.34
Z
M151.20 74.34
C150.81 74.34 150.49 74.51 150.24 74.85
C149.98 75.19 149.85 75.63 149.85 76.17
C149.85 76.53 149.91 76.83 150.03 77.07
C150.15 77.31 150.32 77.50 150.55 77.63
C150.27 77.74 150.06 77.95 149.90 78.26
C149.74 78.57 149.67 78.96 149.67 79.44
C149.67 80.09 149.81 80.61 150.11 81.01
C150.40 81.41 150.77 81.61 151.21 81.61
C151.64 81.61 152.01 81.41 152.30 81.01
C152.60 80.61 152.74 80.10 152.74 79.46
C152.74 79.00 152.67 78.61 152.52 78.30
C152.36 77.99 152.15 77.77 151.87 77.63
C152.10 77.50 152.27 77.31 152.38 77.07
C152.50 76.83 152.55 76.54 152.55 76.20
C152.55 75.65 152.42 75.21 152.17 74.86
C151.91 74.51 151.59 74.34 151.20 74.34
Z
" fill="black" fill-rule="nonzero" />
<path d="
M150.62 124.48
L150.62 124.48
L150.62 124.48
C150.62 124.48 150.62 124.48 150.62 124.48
Z
M147.72 121.82
L147.69 121.92
C147.60 122.21 147.44 122.52 147.20 122.83
C146.97 123.15 146.70 123.42 146.40 123.63
L146.34 123.68
L146.34 123.75
L146.34 124.59
L146.34 124.84
L146.55 124.72
C146.74 124.61 146.96 124.45 147.19 124.24
C147.30 124.14 147.40 124.04 147.48 123.95
L147.48 123.95
L147.48 129.11
L147.48 129.25
L148.34 129.25
L148.34 129.11
L148.34 121.96
L148.34 121.82
Z
M150.10 121.95
L150.08 122.07
L149.63 125.73
L149.61 125.86
L149.74 125.89
L150.28 125.99
L150.40 126.02
L150.44 125.91
C150.52 125.71 150.63 125.56 150.76 125.46
C150.88 125.36 151.02 125.31 151.16 125.31
C151.16 125.31 151.16 125.31 151.16 125.31
C151.16 125.31 151.16 125.31 151.16 125.31
C151.40 125.31 151.60 125.42 151.76 125.66
C151.93 125.92 152.02 126.29 152.02 126.77
C152.02 127.28 151.93 127.68 151.75 127.97
C151.58 128.24 151.38 128.37 151.17 128.37
C151.16 128.37 151.16 128.37 151.16 128.37
C151.16 128.37 151.16 128.37 151.16 128.37
C150.99 128.37 150.84 128.28 150.70 128.10
C150.55 127.90 150.46 127.58 150.41 127.16
L150.40 127.01
L150.25 127.03
L149.65 127.11
L149.52 127.12
L149.53 127.26
C149.57 127.91 149.74 128.42 150.03 128.80
C150.34 129.18 150.72 129.38 151.17 129.38
C151.71 129.37 152.14 129.10 152.46 128.56
C152.76 128.04 152.91 127.42 152.91 126.70
C152.91 125.96 152.76 125.37 152.45 124.93
C152.13 124.48 151.75 124.25 151.31 124.25
C151.07 124.25 150.84 124.33 150.62 124.48
L150.62 124.48
L150.81 123.07
L152.69 123.07
L152.69 122.92
L152.69 122.09
L152.69 121.95
Z
" fill="white" fill-rule="nonzero" />
<path d="
M163.08 98.87
C163.36 98.87 163.59 99.07 163.77 99.46
C163.94 99.85 164.03 100.63 164.03 101.79
C164.03 102.94 163.94 103.71 163.77 104.11
C163.59 104.51 163.37 104.70 163.11 104.70
C162.83 104.70 162.61 104.51 162.43 104.11
C162.25 103.72 162.16 102.95 162.16 101.79
C162.16 100.64 162.25 99.87 162.42 99.47
C162.60 99.07 162.82 98.87 163.08 98.87
Z
M159.51 98.15
C159.07 98.15 158.72 98.32 158.45 98.67
C158.18 99.01 158.03 99.53 157.99 100.21
L158.58 100.30
C158.58 99.84 158.66 99.49 158.84 99.24
C159.01 99.00 159.23 98.87 159.49 98.87
C159.74 98.87 159.95 98.99 160.12 99.22
C160.29 99.45 160.37 99.74 160.37 100.10
C160.37 100.42 160.29 100.76 160.13 101.12
C159.96 101.49 159.61 102.00 159.07 102.67
C158.61 103.24 158.30 103.74 158.13 104.16
C157.95 104.58 157.87 104.96 157.88 105.30
L160.97 105.30
L160.97 104.46
L158.68 104.46
C158.74 104.30 158.82 104.14 158.92 103.99
C159.02 103.83 159.24 103.53 159.58 103.09
C160.12 102.40 160.48 101.84 160.67 101.43
C160.87 101.01 160.96 100.58 160.96 100.12
C160.96 99.61 160.84 99.15 160.59 98.75
C160.35 98.35 159.99 98.15 159.51 98.15
Z
M163.10 98.15
C162.60 98.15 162.22 98.46 161.96 99.07
C161.70 99.69 161.58 100.59 161.58 101.79
C161.58 103.12 161.72 104.06 162.00 104.61
C162.28 105.15 162.65 105.42 163.09 105.42
C163.60 105.42 163.98 105.12 164.24 104.50
C164.49 103.88 164.62 102.98 164.62 101.79
C164.62 100.46 164.47 99.50 164.16 98.90
C163.90 98.40 163.55 98.15 163.10 98.15
Z
" fill="black" fill-rule="nonzero" />
<path d="
M159.51 110.12
C159.07 110.12 158.72 110.29 158.45 110.63
C158.18 110.98 158.03 111.49 157.99 112.18
L158.58 112.27
C158.58 111.81 158.66 111.46 158.84 111.21
C159.01 110.96 159.23 110.84 159.49 110.84
C159.74 110.84 159.95 110.95 160.12 111.18
C160.29 111.41 160.37 111.71 160.37 112.07
C160.37 112.38 160.29 112.72 160.13 113.09
C159.96 113.45 159.61 113.97 159.07 114.64
C158.61 115.21 158.30 115.71 158.13 116.13
C157.95 116.55 157.87 116.93 157.88 117.27
L160.97 117.27
L160.97 116.43
L158.68 116.43
C158.74 116.27 158.82 116.11 158.92 115.95
C159.02 115.79 159.24 115.50 159.58 115.06
C160.12 114.36 160.48 113.81 160.67 113.39
C160.87 112.98 160.96 112.54 160.96 112.09
C160.96 111.58 160.84 111.12 160.59 110.72
C160.35 110.32 159.99 110.12 159.51 110.12
Z
M163.14 110.12
C162.70 110.12 162.35 110.29 162.08 110.63
C161.81 110.98 161.66 111.49 161.62 112.18
L162.21 112.27
C162.21 111.81 162.29 111.46 162.47 111.21
C162.64 110.96 162.86 110.84 163.12 110.84
C163.37 110.84 163.58 110.95 163.75 111.18
C163.92 111.41 164.00 111.71 164.00 112.07
C164.00 112.38 163.92 112.72 163.76 113.09
C163.59 113.45 163.24 113.97 162.70 114.64
C162.24 115.21 161.93 115.71 161.76 116.13
C161.58 116.55 161.50 116.93 161.51 117.27
L164.60 117.27
L164.60 116.43
L162.31 116.43
C162.37 116.27 162.45 116.11 162.55 115.95
C162.65 115.79 162.87 115.50 163.21 115.06
C163.75 114.36 164.11 113.81 164.30 113.39
C164.50 112.98 164.59 112.54 164.59 112.09
C164.59 111.58 164.47 111.12 164.22 110.72
C163.98 110.32 163.62 110.12 163.14 110.12
Z
" fill="black" fill-rule="nonzero" />
<path d="
M159.51 121.82
C159.03 121.82 158.64 122.01 158.34 122.39
C158.05 122.76 157.89 123.30 157.85 124.01
L157.84 124.14
L157.97 124.16
L158.56 124.25
L158.72 124.28
L158.72 124.11
C158.72 123.68 158.80 123.36 158.95 123.13
C159.09 122.93 159.27 122.82 159.49 122.82
C159.49 122.82 159.49 122.82 159.49 122.82
C159.49 122.82 159.49 122.82 159.50 122.82
C159.70 122.82 159.87 122.92 160.01 123.11
C160.16 123.31 160.23 123.58 160.23 123.91
C160.23 124.21 160.15 124.53 160.00 124.87
C159.84 125.23 159.49 125.73 158.96 126.39
C158.49 126.97 158.17 127.48 157.99 127.92
C157.81 128.35 157.73 128.75 157.74 129.11
L157.74 129.25
L161.11 129.25
L161.11 129.11
L161.11 128.27
L161.11 128.13
L158.89 128.13
C158.94 128.04 158.98 127.96 159.04 127.87
C159.14 127.71 159.35 127.42 159.69 126.99
C160.24 126.29 160.61 125.72 160.80 125.30
C161.00 124.86 161.10 124.41 161.10 123.93
C161.10 123.39 160.97 122.91 160.71 122.49
C160.44 122.04 160.04 121.82 159.51 121.82
Z
M163.05 121.82
C162.64 121.82 162.30 121.99 162.02 122.34
C161.75 122.67 161.57 123.15 161.50 123.79
L161.48 123.91
L161.60 123.94
L162.17 124.10
L162.33 124.14
L162.35 123.97
C162.39 123.57 162.48 123.27 162.61 123.08
C162.74 122.91 162.88 122.82 163.05 122.82
C163.05 122.82 163.05 122.82 163.06 122.82
C163.06 122.82 163.06 122.82 163.06 122.82
C163.22 122.82 163.36 122.90 163.48 123.07
C163.61 123.24 163.68 123.48 163.68 123.79
C163.68 124.12 163.60 124.38 163.44 124.57
C163.30 124.75 163.11 124.84 162.87 124.84
L162.87 124.84
L162.79 124.83
L162.65 124.81
L162.63 124.96
L162.57 125.73
L162.55 125.96
L162.76 125.87
C162.91 125.81 163.02 125.78 163.11 125.78
C163.11 125.78 163.11 125.78 163.11 125.78
C163.12 125.78 163.12 125.78 163.12 125.78
C163.32 125.78 163.50 125.89 163.65 126.10
C163.81 126.33 163.89 126.64 163.89 127.02
C163.89 127.43 163.80 127.76 163.62 128.02
C163.46 128.25 163.27 128.37 163.06 128.37
C163.06 128.37 163.06 128.37 163.06 128.37
C163.06 128.37 163.06 128.37 163.06 128.37
C162.87 128.37 162.71 128.28 162.59 128.09
C162.45 127.87 162.35 127.54 162.29 127.10
L162.28 126.94
L162.13 126.98
L161.55 127.09
L161.43 127.12
L161.44 127.24
C161.48 127.88 161.65 128.39 161.94 128.78
C162.25 129.18 162.62 129.38 163.07 129.38
C163.54 129.38 163.95 129.15 164.29 128.70
C164.62 128.26 164.78 127.69 164.78 127.01
C164.78 126.69 164.74 126.39 164.66 126.13
C164.58 125.86 164.47 125.65 164.34 125.48
C164.25 125.38 164.15 125.29 164.03 125.22
L164.03 125.22
C164.17 125.08 164.28 124.92 164.37 124.72
C164.49 124.46 164.55 124.15 164.55 123.81
C164.55 123.24 164.41 122.77 164.13 122.40
C163.83 122.01 163.47 121.82 163.05 121.82
Z
" fill="white" fill-rule="nonzero" />
<path d="
M171.42 98.07
C170.93 98.07 170.54 98.26 170.25 98.64
C169.96 99.01 169.80 99.55 169.75 100.26
L169.74 100.39
L169.87 100.41
L170.46 100.50
L170.63 100.53
L170.63 100.36
C170.63 99.93 170.70 99.61 170.86 99.39
C171.00 99.18 171.18 99.08 171.39 99.08
C171.39 99.08 171.40 99.08 171.40 99.08
C171.40 99.08 171.40 99.08 171.40 99.08
C171.60 99.08 171.77 99.17 171.91 99.36
C172.06 99.57 172.14 99.83 172.14 100.16
C172.14 100.46 172.06 100.78 171.90 101.12
C171.74 101.48 171.40 101.98 170.87 102.64
C170.40 103.22 170.08 103.73 169.90 104.17
C169.72 104.61 169.63 105.01 169.64 105.37
L169.65 105.50
L173.02 105.50
L173.02 105.36
L173.02 104.52
L173.02 104.38
L170.80 104.38
C170.84 104.29 170.89 104.21 170.94 104.12
C171.04 103.97 171.26 103.67 171.60 103.24
C172.14 102.54 172.51 101.97 172.71 101.55
C172.91 101.11 173.01 100.66 173.01 100.18
C173.01 99.65 172.88 99.16 172.62 98.74
C172.35 98.29 171.95 98.07 171.42 98.07
Z
M175.16 98.07
L175.13 98.17
C175.04 98.46 174.88 98.77 174.64 99.08
C174.41 99.40 174.14 99.67 173.84 99.88
L173.78 99.93
L173.78 100.00
L173.78 100.84
L173.78 101.09
L173.99 100.97
C174.18 100.86 174.40 100.70 174.63 100.49
C174.74 100.39 174.84 100.29 174.92 100.20
L174.92 100.20
L174.92 105.36
L174.92 105.50
L175.78 105.50
L175.78 105.36
L175.78 98.21
L175.78 98.07
Z
" fill="white" fill-rule="nonzero" />
<path d="
M175.32 123.46
L175.32 126.67
L173.86 126.67
L175.32 123.46
Z
M171.42 122.02
C170.98 122.02 170.63 122.19 170.36 122.54
C170.09 122.88 169.93 123.40 169.89 124.08
L170.48 124.17
C170.48 123.71 170.57 123.36 170.74 123.12
C170.91 122.87 171.13 122.75 171.40 122.75
C171.65 122.75 171.86 122.86 172.03 123.09
C172.19 123.32 172.28 123.61 172.28 123.98
C172.28 124.29 172.20 124.63 172.03 124.99
C171.87 125.36 171.51 125.87 170.98 126.54
C170.52 127.11 170.20 127.61 170.03 128.03
C169.86 128.45 169.78 128.83 169.78 129.17
L172.87 129.17
L172.87 128.33
L170.58 128.33
C170.64 128.17 170.72 128.02 170.82 127.86
C170.92 127.70 171.14 127.40 171.49 126.96
C172.02 126.27 172.39 125.72 172.58 125.30
C172.77 124.88 172.87 124.45 172.87 123.99
C172.87 123.48 172.74 123.03 172.50 122.62
C172.25 122.22 171.89 122.02 171.42 122.02
Z
M175.43 122.05
L173.29 126.67
L173.29 127.47
L175.32 127.47
L175.32 129.17
L175.89 129.17
L175.89 127.47
L176.53 127.47
L176.53 126.67
L175.89 126.67
L175.89 122.05
Z
" fill="black" fill-rule="nonzero" />
<path d="
M174.43 136.39
L174.43 136.39
L174.43 136.39
C174.43 136.39 174.43 136.39 174.43 136.39
Z
M171.42 133.73
C170.93 133.73 170.54 133.92 170.25 134.30
C169.96 134.67 169.80 135.21 169.75 135.92
L169.74 136.05
L169.87 136.07
L170.46 136.16
L170.63 136.19
L170.63 136.02
C170.63 135.59 170.70 135.26 170.86 135.04
C171.00 134.84 171.18 134.73 171.39 134.73
C171.39 134.73 171.40 134.73 171.40 134.73
C171.40 134.73 171.40 134.73 171.40 134.73
C171.60 134.73 171.77 134.83 171.91 135.02
C172.06 135.22 172.14 135.49 172.14 135.82
C172.14 136.11 172.06 136.43 171.90 136.78
C171.74 137.13 171.40 137.64 170.87 138.30
C170.40 138.88 170.08 139.39 169.90 139.82
C169.72 140.26 169.63 140.66 169.64 141.02
L169.65 141.16
L173.02 141.16
L173.02 141.02
L173.02 140.18
L173.02 140.04
L170.80 140.04
C170.84 139.95 170.89 139.86 170.94 139.78
C171.04 139.62 171.26 139.33 171.60 138.90
C172.14 138.19 172.51 137.63 172.71 137.20
C172.91 136.77 173.01 136.31 173.01 135.84
C173.01 135.30 172.88 134.82 172.62 134.40
C172.35 133.95 171.95 133.73 171.42 133.73
Z
M173.91 133.85
L173.90 133.98
L173.44 137.63
L173.42 137.77
L173.55 137.79
L174.09 137.90
L174.21 137.92
L174.25 137.81
C174.33 137.62 174.44 137.47 174.57 137.36
C174.70 137.26 174.83 137.21 174.97 137.21
C174.97 137.21 174.97 137.21 174.97 137.21
C174.97 137.21 174.97 137.21 174.97 137.21
C175.21 137.21 175.41 137.33 175.57 137.57
C175.74 137.82 175.83 138.19 175.83 138.67
C175.83 139.19 175.74 139.59 175.56 139.88
C175.39 140.15 175.20 140.28 174.98 140.28
C174.98 140.28 174.97 140.28 174.97 140.28
C174.97 140.28 174.97 140.28 174.97 140.28
C174.80 140.28 174.65 140.19 174.51 140.00
C174.36 139.80 174.27 139.49 174.22 139.06
L174.21 138.92
L174.06 138.93
L173.46 139.01
L173.33 139.03
L173.34 139.16
C173.38 139.81 173.55 140.33 173.85 140.70
C174.15 141.09 174.53 141.28 174.98 141.28
C175.52 141.28 175.95 141.01 176.27 140.47
C176.57 139.95 176.72 139.33 176.72 138.60
C176.72 137.87 176.57 137.28 176.26 136.84
C175.94 136.38 175.56 136.16 175.12 136.15
C174.88 136.16 174.65 136.23 174.43 136.39
L174.43 136.39
L174.62 134.97
L176.50 134.97
L176.50 134.83
L176.50 133.99
L176.50 133.85
Z
" fill="white" fill-rule="nonzero" />
<path d="
M186.95 125.27
C187.20 125.27 187.42 125.40 187.59 125.68
C187.77 125.96 187.86 126.35 187.86 126.86
C187.86 127.37 187.77 127.78 187.59 128.07
C187.41 128.37 187.21 128.52 186.99 128.52
C186.73 128.52 186.51 128.36 186.31 128.05
C186.12 127.73 186.02 127.32 186.02 126.81
C186.02 126.33 186.11 125.96 186.30 125.68
C186.48 125.40 186.70 125.27 186.95 125.27
Z
M183.32 121.96
C182.88 121.96 182.53 122.13 182.26 122.48
C182.00 122.82 181.84 123.34 181.80 124.02
L182.39 124.11
C182.39 123.65 182.48 123.30 182.65 123.05
C182.82 122.81 183.04 122.69 183.30 122.69
C183.55 122.69 183.76 122.80 183.93 123.03
C184.10 123.26 184.19 123.55 184.19 123.91
C184.19 124.23 184.10 124.57 183.94 124.93
C183.77 125.30 183.42 125.81 182.88 126.48
C182.42 127.05 182.11 127.55 181.94 127.97
C181.76 128.39 181.68 128.77 181.69 129.11
L184.78 129.11
L184.78 128.27
L182.49 128.27
C182.55 128.11 182.63 127.96 182.73 127.80
C182.83 127.64 183.05 127.34 183.39 126.90
C183.93 126.21 184.29 125.65 184.48 125.24
C184.68 124.82 184.77 124.39 184.77 123.93
C184.77 123.42 184.65 122.97 184.40 122.56
C184.16 122.16 183.80 121.96 183.32 121.96
Z
M187.03 121.96
C186.54 121.96 186.14 122.25 185.83 122.84
C185.52 123.42 185.36 124.40 185.36 125.78
C185.36 127.02 185.51 127.91 185.82 128.44
C186.12 128.97 186.51 129.23 186.98 129.23
C187.25 129.23 187.49 129.14 187.70 128.96
C187.92 128.77 188.10 128.49 188.24 128.10
C188.38 127.71 188.44 127.28 188.44 126.81
C188.44 126.10 188.31 125.54 188.03 125.12
C187.76 124.70 187.43 124.49 187.06 124.49
C186.84 124.49 186.63 124.57 186.43 124.73
C186.23 124.89 186.06 125.13 185.93 125.44
C185.93 124.57 186.02 123.91 186.19 123.46
C186.40 122.94 186.66 122.68 187.00 122.68
C187.21 122.68 187.40 122.79 187.55 123.02
C187.66 123.18 187.74 123.44 187.79 123.80
L188.36 123.73
C188.31 123.16 188.17 122.72 187.93 122.42
C187.69 122.11 187.39 121.96 187.03 121.96
Z
" fill="black" fill-rule="nonzero" />
</g>
<g  transform="translate(1.19,228.58)" >
<path d="
M106.49 2.94
C106.33 2.94 106.19 3.00 106.07 3.11
C105.96 3.23 105.90 3.37 105.90 3.53
C105.90 3.69 105.96 3.83 106.08 3.95
C106.19 4.07 106.33 4.12 106.49 4.12
C106.66 4.12 106.80 4.07 106.91 3.95
C107.02 3.83 107.08 3.69 107.08 3.53
C107.08 3.37 107.02 3.23 106.91 3.11
C106.80 3.00 106.66 2.94 106.49 2.94
Z
M111.46 8.04
L111.46 10.07
C110.98 10.46 110.60 10.65 110.30 10.65
C110.08 10.65 109.89 10.56 109.73 10.37
C109.56 10.19 109.48 9.96 109.48 9.68
C109.48 9.46 109.54 9.25 109.67 9.07
C109.81 8.88 110.02 8.70 110.33 8.53
C110.50 8.44 110.88 8.27 111.46 8.04
Z
M99.82 3.77
C100.75 3.77 101.51 4.08 102.10 4.71
C102.69 5.34 102.99 6.20 102.99 7.29
C102.99 8.37 102.69 9.23 102.10 9.86
C101.51 10.49 100.76 10.81 99.86 10.81
C99.53 10.81 99.12 10.75 98.62 10.64
L98.62 3.94
C99.07 3.83 99.47 3.77 99.82 3.77
Z
M96.37 3.33
L96.37 3.54
L96.67 3.54
C96.97 3.54 97.19 3.63 97.34 3.80
C97.45 3.92 97.51 4.23 97.51 4.72
L97.51 9.82
C97.51 10.26 97.46 10.55 97.38 10.68
C97.24 10.89 97.00 11.00 96.67 11.00
L96.37 11.00
L96.37 11.21
L99.90 11.21
C101.43 11.21 102.57 10.80 103.32 9.98
C103.98 9.24 104.32 8.33 104.32 7.23
C104.32 6.41 104.13 5.69 103.76 5.07
C103.38 4.44 102.89 4.00 102.27 3.73
C101.66 3.46 100.76 3.33 99.58 3.33
Z
M106.72 5.73
L105.12 6.38
L105.20 6.59
C105.35 6.53 105.48 6.50 105.59 6.50
C105.69 6.50 105.77 6.53 105.83 6.58
C105.89 6.62 105.93 6.71 105.96 6.83
C105.99 7.00 106.01 7.38 106.01 7.96
L106.01 10.01
C106.01 10.34 105.98 10.56 105.93 10.68
C105.88 10.79 105.81 10.88 105.72 10.93
C105.63 10.98 105.46 11.00 105.20 11.00
L105.20 11.21
L107.78 11.21
L107.78 11.00
C107.53 11.00 107.36 10.98 107.26 10.92
C107.17 10.87 107.10 10.79 107.05 10.68
C107.00 10.56 106.98 10.34 106.98 10.01
L106.98 5.73
Z
M122.04 3.16
C121.44 3.16 120.94 3.36 120.54 3.74
C120.14 4.12 119.89 4.67 119.79 5.39
L120.01 5.39
C120.16 4.95 120.38 4.62 120.69 4.39
C121.00 4.17 121.35 4.05 121.74 4.05
C122.16 4.05 122.53 4.22 122.84 4.54
C123.14 4.86 123.29 5.27 123.29 5.77
C123.29 6.42 123.02 7.15 122.46 7.94
C121.90 8.73 120.94 9.75 119.57 11.00
L119.57 11.21
L124.22 11.21
L124.77 9.70
L124.56 9.70
C124.46 9.87 124.34 10.00 124.20 10.10
C124.07 10.19 123.91 10.26 123.75 10.29
C123.58 10.32 123.28 10.33 122.86 10.33
L120.81 10.33
C121.05 10.12 121.65 9.48 122.61 8.43
C123.26 7.73 123.72 7.06 124.01 6.43
C124.20 6.03 124.29 5.63 124.29 5.23
C124.29 4.68 124.07 4.19 123.65 3.78
C123.22 3.37 122.68 3.16 122.04 3.16
Z
M128.00 3.16
C127.40 3.16 126.89 3.36 126.49 3.74
C126.09 4.12 125.84 4.67 125.75 5.39
L125.96 5.39
C126.11 4.95 126.34 4.62 126.64 4.39
C126.95 4.17 127.30 4.05 127.69 4.05
C128.12 4.05 128.48 4.22 128.79 4.54
C129.09 4.86 129.25 5.27 129.25 5.77
C129.25 6.42 128.97 7.15 128.41 7.94
C127.85 8.73 126.89 9.75 125.52 11.00
L125.52 11.21
L130.17 11.21
L130.72 9.70
L130.51 9.70
C130.41 9.87 130.29 10.00 130.15 10.10
C130.02 10.19 129.87 10.26 129.70 10.29
C129.53 10.32 129.24 10.33 128.82 10.33
L126.76 10.33
C127.00 10.12 127.60 9.48 128.57 8.43
C129.21 7.73 129.68 7.06 129.96 6.43
C130.15 6.03 130.24 5.63 130.24 5.23
C130.24 4.68 130.03 4.19 129.60 3.78
C129.17 3.37 128.64 3.16 128.00 3.16
Z
M110.65 5.73
C110.03 5.73 109.56 5.87 109.21 6.15
C108.87 6.43 108.70 6.73 108.70 7.07
C108.70 7.24 108.75 7.38 108.84 7.48
C108.93 7.58 109.05 7.63 109.19 7.63
C109.34 7.63 109.46 7.58 109.55 7.49
C109.64 7.39 109.69 7.25 109.69 7.07
L109.67 6.74
C109.67 6.56 109.75 6.41 109.89 6.28
C110.04 6.15 110.23 6.08 110.48 6.08
C110.80 6.08 111.04 6.18 111.21 6.38
C111.38 6.58 111.46 6.94 111.46 7.47
L111.46 7.68
C110.55 8.02 109.90 8.30 109.50 8.53
C109.11 8.76 108.83 9.01 108.67 9.28
C108.56 9.47 108.50 9.69 108.50 9.95
C108.50 10.36 108.62 10.69 108.86 10.95
C109.09 11.20 109.40 11.32 109.77 11.32
C110.00 11.32 110.23 11.27 110.44 11.18
C110.57 11.11 110.92 10.87 111.46 10.45
C111.47 10.76 111.53 10.99 111.64 11.12
C111.75 11.25 111.90 11.32 112.09 11.32
C112.49 11.32 112.90 11.03 113.34 10.45
L113.34 10.12
C113.10 10.35 112.95 10.49 112.87 10.54
C112.82 10.57 112.77 10.58 112.70 10.58
C112.65 10.58 112.59 10.57 112.55 10.53
C112.50 10.49 112.47 10.41 112.45 10.30
C112.43 10.18 112.42 9.87 112.42 9.36
L112.42 7.55
C112.42 7.04 112.39 6.70 112.32 6.53
C112.21 6.28 112.04 6.09 111.81 5.97
C111.51 5.81 111.12 5.73 110.65 5.73
Z
M114.85 10.08
C114.67 10.08 114.52 10.15 114.39 10.27
C114.26 10.39 114.20 10.55 114.20 10.73
C114.20 10.91 114.26 11.06 114.39 11.19
C114.52 11.31 114.67 11.38 114.85 11.38
C115.03 11.38 115.18 11.31 115.30 11.19
C115.43 11.06 115.49 10.91 115.49 10.73
C115.49 10.55 115.43 10.40 115.31 10.27
C115.18 10.15 115.03 10.08 114.85 10.08
Z
" fill="black" fill-rule="nonzero" />
</g>
</g>
</svg>
