<?xml version="1.0" encoding="utf-8" standalone="no"?>
<!DOCTYPE svg PUBLIC "-//W3C//DTD SVG 1.0//EN" "http://www.w3.org/TR/SVG/DTD/svg11.dtd" >
<svg version="1.1" baseProfile="full"  width="319.13385" height="338.46454" viewBox="0 0 229.77638 243.69449" preserveAspectRatio="xMidYMid" xmlns="http://www.w3.org/2000/svg" >

<g lengthAdjust="spacingAndGlyphs" xml:space='preserve' >
<g  transform="translate(1.19,1.19)" >
<path d="
M0.0 0.0
L0.0 227.39
L227.39 227.39
L227.39 0.0
Z
" fill="none" fill-rule="nonzero" />
<line x1="6.54" y1="6.54" x2="6.54" y2="220.84" fill="none" stroke="black" stroke-width="0.87px" stroke-linecap="square" />
<line x1="18.45" y1="6.54" x2="18.45" y2="220.84" fill="none" stroke="black" stroke-width="0.25px" stroke-linecap="butt" />
<line x1="30.35" y1="6.54" x2="30.35" y2="220.84" fill="none" stroke="black" stroke-width="0.25px" stroke-linecap="butt" />
<line x1="42.26" y1="6.54" x2="42.26" y2="220.84" fill="none" stroke="black" stroke-width="0.25px" stroke-linecap="butt" />
<line x1="54.17" y1="6.54" x2="54.17" y2="220.84" fill="none" stroke="black" stroke-width="0.25px" stroke-linecap="butt" />
<line x1="66.07" y1="6.54" x2="66.07" y2="220.84" fill="none" stroke="black" stroke-width="0.25px" stroke-linecap="butt" />
<line x1="77.98" y1="6.54" x2="77.98" y2="220.84" fill="none" stroke="black" stroke-width="0.25px" stroke-linecap="butt" />
<line x1="89.88" y1="6.54" x2="89.88" y2="220.84" fill="none" stroke="black" stroke-width="0.25px" stroke-linecap="butt" />
<line x1="101.79" y1="6.54" x2="101.79" y2="220.84" fill="none" stroke="black" stroke-width="0.25px" stroke-linecap="butt" />
<line x1="113.69" y1="6.54" x2="113.69" y2="220.84" fill="none" stroke="black" stroke-width="0.25px" stroke-linecap="butt" />
<line x1="125.60" y1="6.54" x2="125.60" y2="220.84" fill="none" stroke="black" stroke-width="0.25px" stroke-linecap="butt" />
<line x1="137.50" y1="6.54" x2="137.50" y2="220.84" fill="none" stroke="black" stroke-width="0.25px" stroke-linecap="butt" />
<line x1="149.41" y1="6.54" x2="149.41" y2="220.84" fill="none" stroke="black" stroke-width="0.25px" stroke-linecap="butt" />
<line x1="161.31" y1="6.54" x2="161.31" y2="220.84" fill="none" stroke="black" stroke-width="0.25px" stroke-linecap="butt" />
<line x1="173.22" y1="6.54" x2="173.22" y2="220.84" fill="none" stroke="black" stroke-width="0.25px" stroke-linecap="butt" />
<line x1="185.13" y1="6.54" x2="185.13" y2="220.84" fill="none" stroke="black" stroke-width="0.25px" stroke-linecap="butt" />
<line x1="197.03" y1="6.54" x2="197.03" y2="220.84" fill="none" stroke="black" stroke-width="0.25px" stroke-linecap="butt" />
<line x1="208.94" y1="6.54" x2="208.94" y2="220.84" fill="none" stroke="black" stroke-width="0.25px" stroke-linecap="butt" />
<line x1="220.84" y1="6.54" x2="220.84" y2="220.84" fill="none" stroke="black" stroke-width="0.87px" stroke-linecap="square" />
<line x1="6.54" y1="6.54" x2="220.84" y2="6.54" fill="none" stroke="black" stroke-width="0.87px" stroke-linecap="square" />
<line x1="6.54" y1="18.45" x2="220.84" y2="18.45" fill="none" stroke="black" stroke-width="0.25px" stroke-linecap="butt" />
<line x1="6.54" y1="30.35" x2="220.84" y2="30.35" fill="none" stroke="black" stroke-width="0.25px" stroke-linecap="butt" />
<line x1="6.54" y1="42.26" x2="220.84" y2="42.26" fill="none" stroke="black" stroke-width="0.25px" stroke-linecap="butt" />
<line x1="6.54" y1="54.17" x2="220.84" y2="54.17" fill="none" stroke="black" stroke-width="0.25px" stroke-linecap="butt" />
<line x1="6.54" y1="66.07" x2="220.84" y2="66.07" fill="none" stroke="black" stroke-width="0.25px" stroke-linecap="butt" />
<line x1="6.54" y1="77.98" x2="220.84" y2="77.98" fill="none" stroke="black" stroke-width="0.25px" stroke-linecap="butt" />
<line x1="6.54" y1="89.88" x2="220.84" y2="89.88" fill="none" stroke="black" stroke-width="0.25px" stroke-linecap="butt" />
<line x1="6.54" y1="101.79" x2="220.84" y2="101.79" fill="none" stroke="black" stroke-width="0.25px" stroke-linecap="butt" />
<line x1="6.54" y1="113.69" x2="220.84" y2="113.69" fill="none" stroke="black" stroke-width="0.25px" stroke-linecap="butt" />
<line x1="6.54" y1="125.60" x2="220.84" y2="125.60" fill="none" stroke="black" stroke-width="0.25px" stroke-linecap="butt" />
<line x1="6.54" y1="137.50" x2="220.84" y2="137.50" fill="none" stroke="black" stroke-width="0.25px" stroke-linecap="butt" />
<line x1="6.54" y1="149.41" x2="220.84" y2="149.41" fill="none" stroke="black" stroke-width="0.25px" stroke-linecap="butt" />
<line x1="6.54" y1="161.31" x2="220.84" y2="161.31" fill="none" stroke="black" stroke-width="0.25px" stroke-linecap="butt" />
<line x1="6.54" y1="173.22" x2="220.84" y2="173.22" fill="none" stroke="black" stroke-width="0.25px" stroke-linecap="butt" />
<line x1="6.54" y1="185.13" x2="220.84" y2="185.13" fill="none" stroke="black" stroke-width="0.25px" stroke-linecap="butt" />
<line x1="6.54" y1="197.03" x2="220.84" y2="197.03" fill="none" stroke="black" stroke-width="0.25px" stroke-linecap="butt" />
<line x1="6.54" y1="208.94" x2="220.84" y2="208.94" fill="none" stroke="black" stroke-width="0.25px" stroke-linecap="butt" />
<line x1="6.54" y1="220.84" x2="220.84" y2="220.84" fill="none" stroke="black" stroke-width="0.87px" stroke-linecap="square" />
<circle cx="18.45" cy="185.13" r="5.85" fill="white"/>
<circle cx="18.45" cy="185.13" r="5.85" fill="none" stroke="black" stroke-width="0.25px"/>
<circle cx="18.45" cy="197.03" r="5.85" fill="white"/>
<circle cx="18.45" cy="197.03" r="5.85" fill="none" stroke="black" stroke-width="0.25px"/>
<circle cx="18.45" cy="208.94" r="5.85" fill="white"/>
<circle cx="18.45" cy="208.94" r="5.85" fill="none" stroke="black" stroke-width="0.25px"/>
<circle cx="30.35" cy="54.17" r="5.98" fill="black"/>
<circle cx="30.35" cy="89.88" r="5.85" fill="white"/>
<circle cx="30.35" cy="89.88" r="5.85" fill="none" stroke="black" stroke-width="0.25px"/>
<circle cx="30.35" cy="125.60" r="5.85" fill="white"/>
<circle cx="30.35" cy="125.60" r="5.85" fill="none" stroke="black" stroke-width="0.25px"/>
<circle cx="30.35" cy="161.31" r="5.85" fill="white"/>
<circle cx="30.35" cy="161.31" r="5.85" fill="none" stroke="black" stroke-width="0.25px"/>
<circle cx="30.35" cy="185.13" r="5.98" fill="black"/>
<circle cx="30.35" cy="197.03" r="5.85" fill="white"/>
<circle cx="30.35" cy="197.03" r="5.85" fill="none" stroke="black" stroke-width="0.25px"/>
<circle cx="30.35" cy="208.94" r="5.98" fill="black"/>
<circle cx="42.26" cy="30.35" r="5.85" fill="white"/>
<circle cx="42.26" cy="30.35" r="5.85" fill="none" stroke="black" stroke-width="0.25px"/>
<circle cx="42.26" cy="42.26" r="1.27" fill="black"/>
<circle cx="42.26" cy="77.98" r="5.85" fill="white"/>
<circle cx="42.26" cy="77.98" r="5.85" fill="none" stroke="black" stroke-width="0.25px"/>
<circle cx="42.26" cy="89.88" r="5.98" fill="black"/>
<circle cx="42.26" cy="101.79" r="5.85" fill="white"/>
<circle cx="42.26" cy="101.79" r="5.85" fill="none" stroke="black" stroke-width="0.25px"/>
<circle cx="42.26" cy="113.69" r="1.27" fill="black"/>
<circle cx="42.26" cy="185.13" r="5.98" fill="black"/>
<circle cx="42.26" cy="197.03" r="5.98" fill="black"/>
<circle cx="54.17" cy="66.07" r="5.98" fill="black"/>
<circle cx="54.17" cy="77.98" r="5.98" fill="black"/>
<circle cx="54.17" cy="89.88" r="5.98" fill="black"/>
<circle cx="66.07" cy="197.03" r="5.98" fill="black"/>
<circle cx="77.98" cy="30.35" r="5.85" fill="white"/>
<circle cx="77.98" cy="30.35" r="5.85" fill="none" stroke="black" stroke-width="0.25px"/>
<circle cx="101.79" cy="197.03" r="5.98" fill="black"/>
<circle cx="113.69" cy="30.35" r="5.85" fill="white"/>
<circle cx="113.69" cy="30.35" r="5.85" fill="none" stroke="black" stroke-width="0.25px"/>
<circle cx="113.69" cy="42.26" r="1.27" fill="black"/>
<circle cx="113.69" cy="113.69" r="1.27" fill="black"/>
<circle cx="113.69" cy="161.31" r="5.98" fill="black"/>
<circle cx="113.69" cy="185.13" r="5.98" fill="black"/>
<circle cx="125.60" cy="173.22" r="5.85" fill="white"/>
<circle cx="125.60" cy="173.22" r="5.85" fill="none" stroke="black" stroke-width="0.25px"/>
<circle cx="125.60" cy="185.13" r="5.85" fill="white"/>
<circle cx="125.60" cy="185.13" r="5.85" fill="none" stroke="black" stroke-width="0.25px"/>
<circle cx="125.60" cy="197.03" r="5.85" fill="white"/>
<circle cx="125.60" cy="197.03" r="5.85" fill="none" stroke="black" stroke-width="0.25px"/>
<circle cx="137.50" cy="161.31" r="5.98" fill="black"/>
<circle cx="137.50" cy="173.22" r="5.98" fill="black"/>
<circle cx="137.50" cy="185.13" r="5.85" fill="white"/>
<circle cx="137.50" cy="185.13" r="5.85" fill="none" stroke="black" stroke-width="0.25px"/>
<circle cx="149.41" cy="149.41" r="5.98" fill="black"/>
<circle cx="149.41" cy="173.22" r="5.85" fill="white"/>
<circle cx="149.41" cy="173.22" r="5.85" fill="none" stroke="black" stroke-width="0.25px"/>
<circle cx="149.41" cy="185.13" r="5.98" fill="black"/>
<circle cx="149.41" cy="197.03" r="5.98" fill="black"/>
<circle cx="161.31" cy="173.22" r="5.85" fill="white"/>
<circle cx="161.31" cy="173.22" r="5.85" fill="none" stroke="black" stroke-width="0.25px"/>
<circle cx="173.22" cy="89.88" r="5.98" fill="black"/>
<circle cx="173.22" cy="185.13" r="5.85" fill="white"/>
<circle cx="173.22" cy="185.13" r="5.85" fill="none" stroke="black" stroke-width="0.25px"/>
<circle cx="185.13" cy="30.35" r="5.98" fill="black"/>
<circle cx="185.13" cy="42.26" r="5.98" fill="black"/>
<circle cx="185.13" cy="113.69" r="1.27" fill="black"/>
<circle cx="185.13" cy="161.31" r="5.85" fill="white"/>
<circle cx="185.13" cy="161.31" r="5.85" fill="none" stroke="black" stroke-width="0.25px"/>
<circle cx="185.13" cy="185.13" r="1.27" fill="black"/>
<circle cx="185.13" cy="197.03" r="5.85" fill="white"/>
<circle cx="185.13" cy="197.03" r="5.85" fill="none" stroke="black" stroke-width="0.25px"/>
<circle cx="197.03" cy="89.88" r="5.98" fill="black"/>
<circle cx="197.03" cy="113.69" r="5.85" fill="white"/>
<circle cx="197.03" cy="113.69" r="5.85" fill="none" stroke="black" stroke-width="0.25px"/>
<circle cx="197.03" cy="125.60" r="5.85" fill="white"/>
<circle cx="197.03" cy="125.60" r="5.85" fill="none" stroke="black" stroke-width="0.25px"/>
<circle cx="197.03" cy="149.41" r="5.85" fill="white"/>
<circle cx="197.03" cy="149.41" r="5.85" fill="none" stroke="black" stroke-width="0.25px"/>
<circle cx="197.03" cy="173.22" r="5.98" fill="black"/>
<circle cx="208.94" cy="113.69" r="5.98" fill="black"/>
<circle cx="208.94" cy="125.60" r="5.98" fill="black"/>
<circle cx="208.94" cy="137.50" r="5.98" fill="black"/>
<circle cx="208.94" cy="149.41" r="5.85" fill="white"/>
<circle cx="208.94" cy="149.41" r="5.85" fill="none" stroke="black" stroke-width="0.25px"/>
<path d="
M18.35 181.53
C17.90 181.53 17.52 181.68 17.21 181.99
C16.90 182.30 16.70 182.75 16.61 183.35
L17.31 183.51
C17.36 183.08 17.48 182.77 17.67 182.56
C17.86 182.35 18.09 182.24 18.36 182.24
C18.62 182.24 18.84 182.34 19.02 182.54
C19.21 182.74 19.30 183.01 19.30 183.34
C19.30 183.69 19.19 183.98 18.97 184.19
C18.75 184.41 18.47 184.52 18.12 184.52
L18.01 184.51
L17.93 185.26
C18.13 185.20 18.30 185.17 18.43 185.17
C18.75 185.17 19.01 185.29 19.23 185.54
C19.45 185.79 19.56 186.12 19.56 186.53
C19.56 186.97 19.44 187.32 19.20 187.60
C18.97 187.87 18.69 188.01 18.36 188.01
C17.76 188.01 17.39 187.54 17.24 186.62
L16.53 186.74
C16.58 187.34 16.78 187.82 17.12 188.18
C17.46 188.54 17.88 188.72 18.37 188.72
C18.90 188.72 19.36 188.52 19.74 188.10
C20.12 187.69 20.31 187.16 20.31 186.52
C20.31 186.21 20.26 185.94 20.17 185.69
C20.08 185.45 19.96 185.25 19.81 185.10
C19.66 184.95 19.47 184.85 19.24 184.78
C19.49 184.64 19.68 184.45 19.82 184.20
C19.96 183.96 20.03 183.67 20.03 183.35
C20.03 182.83 19.86 182.39 19.54 182.05
C19.21 181.70 18.82 181.53 18.35 181.53
Z
" fill="black" fill-rule="nonzero" />
<path d="
M16.58 193.56
L16.58 194.39
L19.40 194.39
C19.04 194.89 18.71 195.49 18.40 196.20
C18.09 196.91 17.84 197.66 17.66 198.44
C17.49 199.23 17.39 199.92 17.38 200.50
L18.11 200.50
C18.18 199.36 18.42 198.22 18.84 197.06
C19.26 195.90 19.75 194.95 20.31 194.23
L20.31 193.56
Z
" fill="black" fill-rule="nonzero" />
<path d="
M17.22 205.41
L16.65 209.02
L17.32 209.13
C17.43 208.91 17.58 208.74 17.76 208.62
C17.95 208.50 18.15 208.44 18.37 208.44
C18.72 208.44 19.02 208.58 19.25 208.86
C19.49 209.14 19.61 209.53 19.61 210.03
C19.61 210.56 19.48 210.98 19.24 211.29
C19.00 211.60 18.71 211.76 18.37 211.76
C18.10 211.76 17.87 211.65 17.66 211.43
C17.46 211.21 17.33 210.87 17.27 210.43
L16.53 210.50
C16.58 211.12 16.77 211.60 17.12 211.95
C17.46 212.29 17.88 212.47 18.38 212.47
C18.98 212.47 19.46 212.22 19.82 211.73
C20.18 211.24 20.35 210.65 20.35 209.96
C20.35 209.26 20.18 208.71 19.82 208.30
C19.46 207.89 19.04 207.68 18.56 207.68
C18.18 207.68 17.81 207.83 17.47 208.12
L17.78 206.23
L20.08 206.23
L20.08 205.41
Z
" fill="black" fill-rule="nonzero" />
<path d="
M30.37 181.45
C29.79 181.45 29.32 181.64 28.96 182.01
C28.60 182.37 28.40 182.91 28.35 183.62
L28.34 183.75
L28.47 183.77
L29.20 183.86
L29.36 183.88
L29.36 183.72
C29.36 183.30 29.45 182.98 29.64 182.77
C29.82 182.56 30.06 182.45 30.34 182.45
C30.34 182.45 30.34 182.45 30.34 182.45
C30.35 182.45 30.35 182.45 30.35 182.45
C30.61 182.45 30.84 182.55 31.02 182.74
C31.20 182.94 31.29 183.20 31.29 183.52
C31.29 183.81 31.20 184.12 31.00 184.46
C30.81 184.81 30.38 185.31 29.73 185.96
C29.15 186.53 28.75 187.04 28.53 187.47
C28.31 187.90 28.20 188.30 28.21 188.66
L28.21 188.80
L32.31 188.80
L32.31 188.66
L32.31 187.83
L32.31 187.69
L29.58 187.69
C29.63 187.61 29.69 187.53 29.75 187.45
C29.87 187.29 30.14 187.00 30.56 186.57
C31.23 185.88 31.68 185.32 31.93 184.90
C32.18 184.47 32.30 184.02 32.30 183.54
C32.30 183.00 32.14 182.52 31.82 182.10
C31.49 181.67 31.00 181.45 30.37 181.45
Z
" fill="white" fill-rule="nonzero" />
<path d="
M30.64 193.50
C30.52 193.81 30.31 194.12 30.01 194.44
C29.71 194.77 29.37 195.04 28.98 195.26
L28.98 196.10
C29.21 196.00 29.46 195.85 29.74 195.65
C30.01 195.45 30.23 195.25 30.39 195.06
L30.39 200.56
L31.10 200.56
L31.10 193.50
Z
" fill="black" fill-rule="nonzero" />
<path d="
M29.26 208.30
L29.26 208.30
C29.26 208.30 29.26 208.30 29.26 208.30
L29.26 208.30
C29.26 208.30 29.26 208.30 29.26 208.30
Z
M30.37 208.75
C30.63 208.75 30.86 208.87 31.05 209.11
C31.25 209.36 31.35 209.72 31.35 210.18
C31.35 210.66 31.25 211.03 31.05 211.30
C30.86 211.55 30.65 211.68 30.41 211.68
C30.41 211.68 30.41 211.68 30.41 211.68
C30.41 211.68 30.41 211.68 30.41 211.68
C30.14 211.68 29.90 211.54 29.69 211.27
C29.47 210.99 29.36 210.61 29.36 210.13
C29.36 209.70 29.46 209.36 29.67 209.11
C29.87 208.87 30.10 208.75 30.36 208.75
C30.36 208.75 30.36 208.75 30.36 208.75
C30.36 208.75 30.37 208.75 30.37 208.75
Z
M30.47 205.20
C29.82 205.20 29.28 205.51 28.86 206.13
C28.46 206.73 28.26 207.73 28.26 209.12
C28.26 210.37 28.46 211.28 28.85 211.83
C29.26 212.39 29.78 212.67 30.41 212.67
C30.76 212.67 31.08 212.57 31.37 212.37
C31.67 212.18 31.90 211.87 32.08 211.47
C32.26 211.07 32.35 210.62 32.35 210.13
C32.35 209.40 32.17 208.82 31.81 208.38
C31.44 207.93 31.01 207.70 30.50 207.70
C30.20 207.70 29.91 207.79 29.64 207.96
C29.50 208.05 29.38 208.16 29.26 208.30
L29.26 208.30
C29.30 207.69 29.40 207.22 29.56 206.88
C29.68 206.65 29.81 206.47 29.96 206.36
C30.09 206.25 30.25 206.20 30.42 206.20
C30.43 206.20 30.43 206.20 30.43 206.20
C30.43 206.20 30.43 206.20 30.43 206.20
C30.65 206.20 30.84 206.29 31.00 206.48
C31.11 206.62 31.20 206.85 31.27 207.19
L31.29 207.32
L31.42 207.30
L32.12 207.24
L32.27 207.22
L32.25 207.08
C32.18 206.48 31.99 206.02 31.67 205.69
C31.35 205.37 30.95 205.20 30.47 205.20
Z
" fill="white" fill-rule="nonzero" />
<path d="
M42.47 195.44
L42.47 197.93
L41.05 197.93
L42.47 195.44
Z
M42.66 193.37
L42.62 193.44
L39.99 198.00
L39.97 198.03
L39.97 198.07
L39.97 198.86
L39.97 199.01
L42.47 199.01
L42.47 200.55
L42.47 200.69
L43.46 200.69
L43.46 200.55
L43.46 199.01
L44.24 199.01
L44.24 198.86
L44.24 198.07
L44.24 197.93
L43.46 197.93
L43.46 193.51
L43.46 193.37
Z
" fill="white" fill-rule="nonzero" />
<path d="
M115.52 161.12
C115.72 161.12 115.89 161.24 116.04 161.48
C116.20 161.73 116.28 162.10 116.28 162.58
C116.28 163.06 116.20 163.44 116.04 163.72
C115.89 163.97 115.73 164.09 115.56 164.09
C115.56 164.09 115.56 164.09 115.55 164.09
C115.55 164.09 115.55 164.09 115.55 164.09
C115.35 164.09 115.16 163.96 115.00 163.69
C114.82 163.40 114.73 163.01 114.73 162.52
C114.73 162.08 114.81 161.73 114.98 161.48
C115.14 161.24 115.31 161.12 115.51 161.12
C115.51 161.12 115.51 161.12 115.52 161.12
C115.52 161.12 115.52 161.12 115.52 161.12
Z
M112.01 157.54
L111.98 157.64
C111.88 157.93 111.72 158.24 111.49 158.55
C111.25 158.87 110.98 159.13 110.68 159.35
L110.62 159.39
L110.62 159.47
L110.62 160.31
L110.62 160.55
L110.83 160.44
C111.03 160.33 111.24 160.17 111.47 159.96
C111.58 159.86 111.68 159.76 111.77 159.66
L111.77 159.66
L111.77 164.83
L111.77 164.97
L112.63 164.97
L112.63 164.83
L112.63 157.68
L112.63 157.54
Z
M115.60 157.54
C115.33 157.54 115.07 157.62 114.85 157.78
C114.63 157.94 114.44 158.18 114.27 158.49
C113.95 159.09 113.78 160.10 113.78 161.50
C113.78 162.76 113.94 163.67 114.26 164.23
C114.43 164.51 114.61 164.72 114.83 164.87
C115.04 165.02 115.29 165.09 115.55 165.09
C115.85 165.09 116.12 164.99 116.36 164.78
C116.60 164.58 116.79 164.28 116.94 163.86
C117.08 163.46 117.15 163.01 117.15 162.52
C117.15 161.79 117.01 161.20 116.72 160.76
C116.41 160.30 116.05 160.07 115.63 160.07
C115.37 160.07 115.13 160.16 114.91 160.34
C114.82 160.41 114.73 160.50 114.65 160.60
L114.65 160.60
C114.68 160.02 114.76 159.56 114.89 159.23
C114.99 158.99 115.09 158.81 115.21 158.69
C115.32 158.59 115.44 158.54 115.56 158.54
C115.56 158.54 115.57 158.54 115.57 158.54
C115.57 158.54 115.57 158.54 115.57 158.54
C115.73 158.54 115.88 158.63 116.00 158.82
C116.09 158.95 116.17 159.20 116.22 159.54
L116.24 159.68
L116.38 159.66
L116.95 159.59
L117.08 159.58
L117.07 159.44
C117.02 158.83 116.86 158.37 116.60 158.04
C116.34 157.71 116.00 157.54 115.60 157.54
Z
" fill="white" fill-rule="nonzero" />
<path d="
M115.65 183.64
L115.65 186.05
L114.55 186.05
L115.65 183.64
Z
M112.01 181.41
L111.98 181.51
C111.88 181.80 111.72 182.11 111.49 182.42
C111.25 182.74 110.98 183.00 110.68 183.22
L110.62 183.26
L110.62 183.34
L110.62 184.18
L110.62 184.42
L110.83 184.31
C111.03 184.20 111.24 184.04 111.47 183.83
C111.58 183.73 111.68 183.63 111.77 183.53
L111.77 183.53
L111.77 188.70
L111.77 188.84
L112.63 188.84
L112.63 188.70
L112.63 181.55
L112.63 181.41
Z
M115.81 181.44
L115.77 181.52
L113.64 186.14
L113.62 186.16
L113.62 186.19
L113.62 187.00
L113.62 187.14
L115.65 187.14
L115.65 188.70
L115.65 188.84
L116.51 188.84
L116.51 188.70
L116.51 187.14
L117.14 187.14
L117.14 187.00
L117.14 186.19
L117.14 186.05
L116.51 186.05
L116.51 181.58
L116.51 181.44
Z
" fill="white" fill-rule="nonzero" />
<path d="
M124.02 169.64
C123.92 169.96 123.75 170.27 123.51 170.60
C123.26 170.93 122.98 171.21 122.67 171.43
L122.67 172.28
C122.85 172.17 123.06 172.02 123.28 171.82
C123.50 171.62 123.68 171.42 123.81 171.22
L123.81 176.80
L124.39 176.80
L124.39 169.64
Z
M127.65 169.64
C127.55 169.96 127.38 170.27 127.14 170.60
C126.89 170.93 126.61 171.21 126.30 171.43
L126.30 172.28
C126.48 172.17 126.69 172.02 126.91 171.82
C127.13 171.62 127.31 171.42 127.44 171.22
L127.44 176.80
L128.02 176.80
L128.02 169.64
Z
" fill="black" fill-rule="nonzero" />
<path d="
M124.02 181.49
C123.92 181.80 123.75 182.12 123.51 182.45
C123.26 182.77 122.98 183.05 122.67 183.28
L122.67 184.12
C122.85 184.02 123.06 183.87 123.28 183.66
C123.50 183.46 123.68 183.26 123.81 183.07
L123.81 188.64
L124.39 188.64
L124.39 181.49
Z
M126.41 181.62
L125.96 185.27
L126.50 185.38
C126.59 185.16 126.71 184.99 126.86 184.87
C127.01 184.75 127.17 184.69 127.35 184.69
C127.63 184.69 127.87 184.83 128.06 185.11
C128.25 185.39 128.35 185.79 128.35 186.29
C128.35 186.84 128.25 187.26 128.05 187.57
C127.86 187.89 127.62 188.04 127.35 188.04
C127.13 188.04 126.94 187.93 126.78 187.71
C126.61 187.49 126.51 187.15 126.46 186.70
L125.86 186.78
C125.90 187.40 126.06 187.88 126.33 188.24
C126.61 188.59 126.95 188.76 127.36 188.76
C127.85 188.76 128.23 188.51 128.52 188.02
C128.81 187.52 128.96 186.92 128.96 186.23
C128.96 185.52 128.81 184.96 128.52 184.54
C128.23 184.13 127.89 183.92 127.50 183.92
C127.19 183.92 126.90 184.07 126.62 184.37
L126.87 182.45
L128.73 182.45
L128.73 181.62
Z
" fill="black" fill-rule="nonzero" />
<path d="
M135.82 157.60
L135.79 157.70
C135.69 157.99 135.53 158.30 135.30 158.61
C135.06 158.93 134.79 159.19 134.49 159.41
L134.43 159.45
L134.43 159.53
L134.43 160.37
L134.43 160.61
L134.64 160.50
C134.84 160.39 135.05 160.23 135.28 160.02
C135.39 159.92 135.49 159.82 135.58 159.72
L135.58 159.72
L135.58 164.89
L135.58 165.03
L136.44 165.03
L136.44 164.89
L136.44 157.74
L136.44 157.60
Z
M139.33 157.60
C138.85 157.60 138.46 157.79 138.16 158.17
C137.87 158.54 137.71 159.08 137.67 159.79
L137.66 159.92
L137.78 159.94
L138.38 160.03
L138.54 160.06
L138.54 159.89
C138.54 159.46 138.62 159.13 138.77 158.91
C138.91 158.71 139.09 158.60 139.31 158.60
C139.31 158.60 139.31 158.60 139.31 158.60
C139.31 158.60 139.31 158.60 139.31 158.60
C139.51 158.60 139.68 158.70 139.83 158.89
C139.98 159.09 140.05 159.36 140.05 159.69
C140.05 159.99 139.97 160.31 139.82 160.65
C139.65 161.00 139.31 161.51 138.78 162.17
C138.31 162.75 137.99 163.26 137.81 163.70
C137.63 164.13 137.55 164.53 137.56 164.89
L137.56 165.03
L140.93 165.03
L140.93 164.89
L140.93 164.05
L140.93 163.91
L138.71 163.91
C138.75 163.82 138.80 163.74 138.86 163.65
C138.95 163.49 139.17 163.20 139.51 162.77
C140.06 162.07 140.42 161.50 140.62 161.08
C140.82 160.64 140.92 160.19 140.92 159.71
C140.92 159.17 140.79 158.69 140.53 158.27
C140.26 157.82 139.86 157.60 139.33 157.60
Z
" fill="white" fill-rule="nonzero" />
<path d="
M139.26 170.45
C139.26 170.45 139.26 170.45 139.26 170.45
C139.26 170.45 139.27 170.45 139.27 170.45
C139.37 170.45 139.47 170.49 139.56 170.56
C139.66 170.65 139.75 170.78 139.83 170.95
C139.99 171.33 140.08 172.08 140.08 173.22
C140.08 174.35 139.99 175.10 139.83 175.48
C139.75 175.66 139.66 175.80 139.56 175.88
C139.48 175.96 139.39 176.00 139.30 176.00
C139.30 176.00 139.30 176.00 139.30 176.00
C139.30 176.00 139.30 176.00 139.30 176.00
C139.19 176.00 139.10 175.96 139.01 175.88
C138.92 175.80 138.83 175.67 138.75 175.49
C138.58 175.11 138.49 174.36 138.49 173.22
C138.49 172.10 138.58 171.34 138.74 170.96
C138.82 170.78 138.91 170.65 139.00 170.56
C139.08 170.49 139.17 170.45 139.26 170.45
Z
M135.82 169.44
L135.79 169.54
C135.69 169.84 135.53 170.14 135.30 170.46
C135.06 170.77 134.79 171.04 134.49 171.26
L134.43 171.30
L134.43 171.37
L134.43 172.22
L134.43 172.46
L134.64 172.34
C134.84 172.23 135.05 172.07 135.28 171.86
C135.39 171.76 135.49 171.67 135.58 171.57
L135.58 171.57
L135.58 176.74
L135.58 176.88
L136.44 176.88
L136.44 176.74
L136.44 169.58
L136.44 169.44
Z
M139.29 169.44
C139.01 169.44 138.76 169.53 138.54 169.70
C138.33 169.87 138.16 170.12 138.02 170.45
C137.76 171.08 137.62 172.01 137.62 173.22
C137.62 174.58 137.77 175.54 138.06 176.11
C138.22 176.40 138.39 176.62 138.59 176.77
C138.80 176.92 139.03 177.00 139.28 177.00
C139.57 177.00 139.82 176.91 140.04 176.74
C140.25 176.57 140.42 176.32 140.56 175.99
C140.82 175.35 140.95 174.43 140.95 173.22
C140.95 171.88 140.79 170.89 140.47 170.27
C140.33 170.00 140.17 169.79 139.97 169.66
C139.77 169.51 139.54 169.44 139.29 169.44
Z
" fill="white" fill-rule="nonzero" />
<path d="
M149.39 170.34
C149.68 170.34 149.94 170.49 150.16 170.77
C150.39 171.06 150.50 171.46 150.50 171.96
C150.50 172.47 150.39 172.86 150.17 173.13
C149.96 173.41 149.69 173.54 149.38 173.54
C149.06 173.54 148.79 173.41 148.56 173.13
C148.33 172.86 148.22 172.49 148.22 172.03
C148.22 171.52 148.34 171.11 148.58 170.80
C148.82 170.50 149.09 170.34 149.39 170.34
Z
M149.31 169.63
C148.80 169.63 148.37 169.84 148.02 170.26
C147.67 170.69 147.49 171.27 147.49 172.00
C147.49 172.72 147.66 173.28 148.00 173.69
C148.34 174.10 148.75 174.31 149.22 174.31
C149.48 174.31 149.73 174.22 149.98 174.06
C150.23 173.89 150.43 173.67 150.58 173.38
L150.58 173.55
C150.58 174.10 150.51 174.59 150.37 175.00
C150.24 175.41 150.08 175.70 149.88 175.86
C149.69 176.02 149.47 176.10 149.24 176.10
C148.71 176.10 148.39 175.73 148.28 174.99
L147.60 175.07
C147.65 175.63 147.83 176.06 148.12 176.36
C148.42 176.66 148.78 176.81 149.22 176.81
C149.61 176.81 149.96 176.69 150.27 176.44
C150.58 176.20 150.83 175.81 151.01 175.27
C151.20 174.74 151.29 173.99 151.29 173.02
C151.29 172.15 151.20 171.49 151.03 171.03
C150.86 170.57 150.62 170.22 150.31 169.98
C150.00 169.75 149.67 169.63 149.31 169.63
Z
" fill="black" fill-rule="nonzero" />
<path d="
M149.38 182.39
C149.38 182.39 149.38 182.39 149.38 182.39
C149.38 182.39 149.38 182.39 149.38 182.39
C149.60 182.39 149.78 182.47 149.94 182.65
C150.10 182.83 150.18 183.07 150.18 183.37
C150.18 183.65 150.11 183.88 149.95 184.05
C149.79 184.22 149.61 184.31 149.39 184.31
C149.39 184.31 149.39 184.31 149.39 184.31
C149.39 184.31 149.39 184.31 149.39 184.31
C149.17 184.31 148.98 184.22 148.82 184.05
C148.67 183.87 148.59 183.63 148.59 183.32
C148.59 183.05 148.67 182.82 148.83 182.65
C148.98 182.47 149.17 182.39 149.38 182.39
Z
M149.37 185.30
C149.37 185.30 149.37 185.30 149.37 185.30
C149.37 185.30 149.37 185.30 149.37 185.30
C149.66 185.30 149.90 185.41 150.10 185.65
C150.32 185.88 150.42 186.20 150.42 186.60
C150.42 186.99 150.32 187.30 150.11 187.53
C149.92 187.75 149.68 187.87 149.39 187.87
C149.39 187.87 149.39 187.87 149.39 187.87
C149.39 187.87 149.39 187.87 149.39 187.87
C149.11 187.87 148.87 187.75 148.66 187.52
C148.46 187.28 148.35 186.96 148.35 186.57
C148.35 186.19 148.45 185.88 148.66 185.64
C148.85 185.41 149.09 185.30 149.37 185.30
Z
M149.38 181.39
C148.86 181.39 148.43 181.57 148.08 181.94
C147.74 182.30 147.57 182.77 147.57 183.34
C147.57 183.72 147.65 184.05 147.81 184.31
C147.92 184.49 148.07 184.64 148.26 184.77
L148.26 184.77
C148.01 184.89 147.81 185.08 147.66 185.33
C147.45 185.66 147.34 186.07 147.34 186.57
C147.34 187.25 147.54 187.80 147.93 188.22
C148.32 188.65 148.81 188.86 149.39 188.86
C149.97 188.86 150.45 188.65 150.85 188.22
C151.23 187.80 151.43 187.26 151.43 186.59
C151.43 186.11 151.33 185.71 151.13 185.38
C150.97 185.12 150.77 184.92 150.51 184.77
L150.51 184.77
C150.70 184.65 150.85 184.49 150.96 184.31
C151.12 184.05 151.19 183.74 151.19 183.37
C151.19 182.79 151.02 182.32 150.68 181.95
C150.33 181.58 149.90 181.39 149.38 181.39
Z
" fill="white" fill-rule="nonzero" />
<path d="
M159.73 169.58
C159.63 169.89 159.46 170.21 159.22 170.54
C158.98 170.87 158.70 171.14 158.38 171.37
L158.38 172.21
C158.57 172.11 158.78 171.96 159.00 171.76
C159.22 171.55 159.40 171.35 159.53 171.16
L159.53 176.73
L160.11 176.73
L160.11 169.58
Z
M163.05 169.58
C162.69 169.58 162.38 169.74 162.13 170.05
C161.87 170.36 161.71 170.82 161.64 171.43
L162.21 171.58
C162.25 171.15 162.35 170.83 162.50 170.62
C162.65 170.41 162.84 170.30 163.06 170.30
C163.27 170.30 163.45 170.40 163.60 170.60
C163.74 170.81 163.82 171.07 163.82 171.41
C163.82 171.77 163.73 172.06 163.55 172.28
C163.38 172.49 163.15 172.60 162.87 172.60
L162.78 172.59
L162.71 173.36
C162.87 173.30 163.01 173.26 163.11 173.26
C163.37 173.26 163.59 173.39 163.76 173.64
C163.94 173.90 164.03 174.23 164.03 174.64
C164.03 175.08 163.93 175.44 163.74 175.72
C163.55 176.00 163.32 176.14 163.06 176.14
C162.58 176.14 162.27 175.67 162.15 174.74
L161.58 174.85
C161.62 175.46 161.78 175.95 162.05 176.31
C162.33 176.68 162.67 176.86 163.07 176.86
C163.50 176.86 163.87 176.65 164.18 176.23
C164.48 175.82 164.64 175.28 164.64 174.63
C164.64 174.32 164.60 174.04 164.53 173.79
C164.45 173.54 164.35 173.34 164.23 173.20
C164.11 173.05 163.95 172.94 163.77 172.88
C163.97 172.73 164.13 172.54 164.24 172.29
C164.35 172.04 164.41 171.75 164.41 171.43
C164.41 170.90 164.28 170.46 164.01 170.11
C163.75 169.76 163.43 169.58 163.05 169.58
Z
" fill="black" fill-rule="nonzero" />
</g>
<g  transform="translate(1.19,228.58)" >
<path d="
M106.49 2.94
C106.33 2.94 106.19 3.00 106.07 3.11
C105.96 3.23 105.90 3.37 105.90 3.53
C105.90 3.69 105.96 3.83 106.08 3.95
C106.19 4.07 106.33 4.12 106.49 4.12
C106.66 4.12 106.80 4.07 106.91 3.95
C107.02 3.83 107.08 3.69 107.08 3.53
C107.08 3.37 107.02 3.23 106.91 3.11
C106.80 3.00 106.66 2.94 106.49 2.94
Z
M111.46 8.04
L111.46 10.07
C110.98 10.46 110.60 10.65 110.30 10.65
C110.08 10.65 109.89 10.56 109.73 10.37
C109.56 10.19 109.48 9.96 109.48 9.68
C109.48 9.46 109.54 9.25 109.67 9.07
C109.81 8.88 110.02 8.70 110.33 8.53
C110.50 8.44 110.88 8.27 111.46 8.04
Z
M99.82 3.77
C100.75 3.77 101.51 4.08 102.10 4.71
C102.69 5.34 102.99 6.20 102.99 7.29
C102.99 8.37 102.69 9.23 102.10 9.86
C101.51 10.49 100.76 10.81 99.86 10.81
C99.53 10.81 99.12 10.75 98.62 10.64
L98.62 3.94
C99.07 3.83 99.47 3.77 99.82 3.77
Z
M128.21 6.74
C128.69 6.74 129.07 6.98 129.33 7.47
C129.59 7.95 129.72 8.53 129.72 9.19
C129.72 9.78 129.59 10.23 129.33 10.55
C129.06 10.87 128.76 11.03 128.42 11.03
C128.14 11.03 127.90 10.94 127.70 10.75
C127.43 10.50 127.22 10.15 127.09 9.72
C126.95 9.28 126.88 8.88 126.88 8.50
C126.88 8.18 126.92 7.76 126.99 7.24
C127.31 7.03 127.56 6.90 127.73 6.83
C127.90 6.77 128.06 6.74 128.21 6.74
Z
M96.37 3.33
L96.37 3.54
L96.67 3.54
C96.97 3.54 97.19 3.63 97.34 3.80
C97.45 3.92 97.51 4.23 97.51 4.72
L97.51 9.82
C97.51 10.26 97.46 10.55 97.38 10.68
C97.24 10.89 97.00 11.00 96.67 11.00
L96.37 11.00
L96.37 11.21
L99.90 11.21
C101.43 11.21 102.57 10.80 103.32 9.98
C103.98 9.24 104.32 8.33 104.32 7.23
C104.32 6.41 104.13 5.69 103.76 5.07
C103.38 4.44 102.89 4.00 102.27 3.73
C101.66 3.46 100.76 3.33 99.58 3.33
Z
M106.72 5.73
L105.12 6.38
L105.20 6.59
C105.35 6.53 105.48 6.50 105.59 6.50
C105.69 6.50 105.77 6.53 105.83 6.58
C105.89 6.62 105.93 6.71 105.96 6.83
C105.99 7.00 106.01 7.38 106.01 7.96
L106.01 10.01
C106.01 10.34 105.98 10.56 105.93 10.68
C105.88 10.79 105.81 10.88 105.72 10.93
C105.63 10.98 105.46 11.00 105.20 11.00
L105.20 11.21
L107.78 11.21
L107.78 11.00
C107.53 11.00 107.36 10.98 107.26 10.92
C107.17 10.87 107.10 10.79 107.05 10.68
C107.00 10.56 106.98 10.34 106.98 10.01
L106.98 5.73
Z
M122.63 3.16
L120.71 4.10
L120.79 4.28
C121.05 4.16 121.25 4.10 121.39 4.10
C121.49 4.10 121.58 4.13 121.65 4.19
C121.72 4.25 121.77 4.34 121.80 4.46
C121.84 4.62 121.86 4.99 121.86 5.57
L121.86 9.82
C121.86 10.30 121.84 10.58 121.79 10.67
C121.75 10.77 121.68 10.85 121.57 10.90
C121.46 10.96 121.22 10.99 120.85 11.00
L120.85 11.21
L123.81 11.21
L123.81 11.00
C123.46 10.99 123.22 10.96 123.10 10.90
C122.99 10.84 122.91 10.76 122.87 10.65
C122.84 10.54 122.82 10.27 122.82 9.82
L122.82 3.16
Z
M110.65 5.73
C110.03 5.73 109.56 5.87 109.21 6.15
C108.87 6.43 108.70 6.73 108.70 7.07
C108.70 7.24 108.75 7.38 108.84 7.48
C108.93 7.58 109.05 7.63 109.19 7.63
C109.34 7.63 109.46 7.58 109.55 7.49
C109.64 7.39 109.69 7.25 109.69 7.07
L109.67 6.74
C109.67 6.56 109.75 6.41 109.89 6.28
C110.04 6.15 110.23 6.08 110.48 6.08
C110.80 6.08 111.04 6.18 111.21 6.38
C111.38 6.58 111.46 6.94 111.46 7.47
L111.46 7.68
C110.55 8.02 109.90 8.30 109.50 8.53
C109.11 8.76 108.83 9.01 108.67 9.28
C108.56 9.47 108.50 9.69 108.50 9.95
C108.50 10.36 108.62 10.69 108.86 10.95
C109.09 11.20 109.40 11.32 109.77 11.32
C110.00 11.32 110.23 11.27 110.44 11.18
C110.57 11.11 110.92 10.87 111.46 10.45
C111.47 10.76 111.53 10.99 111.64 11.12
C111.75 11.25 111.90 11.32 112.09 11.32
C112.49 11.32 112.90 11.03 113.34 10.45
L113.34 10.12
C113.10 10.35 112.95 10.49 112.87 10.54
C112.82 10.57 112.77 10.58 112.70 10.58
C112.65 10.58 112.59 10.57 112.55 10.53
C112.50 10.49 112.47 10.41 112.45 10.30
C112.43 10.18 112.42 9.87 112.42 9.36
L112.42 7.55
C112.42 7.04 112.39 6.70 112.32 6.53
C112.21 6.28 112.04 6.09 111.81 5.97
C111.51 5.81 111.12 5.73 110.65 5.73
Z
M130.26 3.16
C129.85 3.16 129.40 3.25 128.92 3.42
C128.44 3.59 127.94 3.92 127.41 4.41
C126.89 4.91 126.48 5.47 126.20 6.11
C125.92 6.74 125.78 7.41 125.78 8.12
C125.78 9.22 126.14 10.12 126.88 10.82
C127.26 11.17 127.71 11.35 128.25 11.35
C129.04 11.35 129.68 11.02 130.16 10.36
C130.56 9.82 130.76 9.22 130.76 8.56
C130.76 7.88 130.56 7.32 130.17 6.89
C129.77 6.45 129.30 6.23 128.76 6.23
C128.20 6.23 127.64 6.43 127.08 6.81
C127.22 6.28 127.40 5.82 127.60 5.44
C127.81 5.05 128.07 4.70 128.39 4.39
C128.71 4.07 129.03 3.84 129.35 3.68
C129.67 3.53 130.09 3.43 130.60 3.38
L130.60 3.16
Z
M114.85 10.08
C114.67 10.08 114.52 10.15 114.39 10.27
C114.26 10.39 114.20 10.55 114.20 10.73
C114.20 10.91 114.26 11.06 114.39 11.19
C114.52 11.31 114.67 11.38 114.85 11.38
C115.03 11.38 115.18 11.31 115.30 11.19
C115.43 11.06 115.49 10.91 115.49 10.73
C115.49 10.55 115.43 10.40 115.31 10.27
C115.18 10.15 115.03 10.08 114.85 10.08
Z
" fill="black" fill-rule="nonzero" />
</g>
</g>
</svg>
