<?xml version="1.0" encoding="utf-8" standalone="no"?>
<!DOCTYPE svg PUBLIC "-//W3C//DTD SVG 1.0//EN" "http://www.w3.org/TR/SVG/DTD/svg11.dtd" >
<svg version="1.1" baseProfile="full"  width="319.13385" height="338.46454" viewBox="0 0 229.77638 243.69449" preserveAspectRatio="xMidYMid" xmlns="http://www.w3.org/2000/svg" >

<g lengthAdjust="spacingAndGlyphs" xml:space='preserve' >
<g  transform="translate(1.19,1.19)" >
<path d="
M0.0 0.0
L0.0 227.39
L227.39 227.39
L227.39 0.0
Z
" fill="none" fill-rule="nonzero" />
<line x1="6.54" y1="6.54" x2="6.54" y2="220.84" fill="none" stroke="black" stroke-width="0.87px" stroke-linecap="square" />
<line x1="18.45" y1="6.54" x2="18.45" y2="220.84" fill="none" stroke="black" stroke-width="0.25px" stroke-linecap="butt" />
<line x1="30.35" y1="6.54" x2="30.35" y2="220.84" fill="none" stroke="black" stroke-width="0.25px" stroke-linecap="butt" />
<line x1="42.26" y1="6.54" x2="42.26" y2="220.84" fill="none" stroke="black" stroke-width="0.25px" stroke-linecap="butt" />
<line x1="54.17" y1="6.54" x2="54.17" y2="220.84" fill="none" stroke="black" stroke-width="0.25px" stroke-linecap="butt" />
<line x1="66.07" y1="6.54" x2="66.07" y2="220.84" fill="none" stroke="black" stroke-width="0.25px" stroke-linecap="butt" />
<line x1="77.98" y1="6.54" x2="77.98" y2="220.84" fill="none" stroke="black" stroke-width="0.25px" stroke-linecap="butt" />
<line x1="89.88" y1="6.54" x2="89.88" y2="220.84" fill="none" stroke="black" stroke-width="0.25px" stroke-linecap="butt" />
<line x1="101.79" y1="6.54" x2="101.79" y2="220.84" fill="none" stroke="black" stroke-width="0.25px" stroke-linecap="butt" />
<line x1="113.69" y1="6.54" x2="113.69" y2="220.84" fill="none" stroke="black" stroke-width="0.25px" stroke-linecap="butt" />
<line x1="125.60" y1="6.54" x2="125.60" y2="220.84" fill="none" stroke="black" stroke-width="0.25px" stroke-linecap="butt" />
<line x1="137.50" y1="6.54" x2="137.50" y2="220.84" fill="none" stroke="black" stroke-width="0.25px" stroke-linecap="butt" />
<line x1="149.41" y1="6.54" x2="149.41" y2="220.84" fill="none" stroke="black" stroke-width="0.25px" stroke-linecap="butt" />
<line x1="161.31" y1="6.54" x2="161.31" y2="220.84" fill="none" stroke="black" stroke-width="0.25px" stroke-linecap="butt" />
<line x1="173.22" y1="6.54" x2="173.22" y2="220.84" fill="none" stroke="black" stroke-width="0.25px" stroke-linecap="butt" />
<line x1="185.13" y1="6.54" x2="185.13" y2="220.84" fill="none" stroke="black" stroke-width="0.25px" stroke-linecap="butt" />
<line x1="197.03" y1="6.54" x2="197.03" y2="220.84" fill="none" stroke="black" stroke-width="0.25px" stroke-linecap="butt" />
<line x1="208.94" y1="6.54" x2="208.94" y2="220.84" fill="none" stroke="black" stroke-width="0.25px" stroke-linecap="butt" />
<line x1="220.84" y1="6.54" x2="220.84" y2="220.84" fill="none" stroke="black" stroke-width="0.87px" stroke-linecap="square" />
<line x1="6.54" y1="6.54" x2="220.84" y2="6.54" fill="none" stroke="black" stroke-width="0.87px" stroke-linecap="square" />
<line x1="6.54" y1="18.45" x2="220.84" y2="18.45" fill="none" stroke="black" stroke-width="0.25px" stroke-linecap="butt" />
<line x1="6.54" y1="30.35" x2="220.84" y2="30.35" fill="none" stroke="black" stroke-width="0.25px" stroke-linecap="butt" />
<line x1="6.54" y1="42.26" x2="220.84" y2="42.26" fill="none" stroke="black" stroke-width="0.25px" stroke-linecap="butt" />
<line x1="6.54" y1="54.17" x2="220.84" y2="54.17" fill="none" stroke="black" stroke-width="0.25px" stroke-linecap="butt" />
<line x1="6.54" y1="66.07" x2="220.84" y2="66.07" fill="none" stroke="black" stroke-width="0.25px" stroke-linecap="butt" />
<line x1="6.54" y1="77.98" x2="220.84" y2="77.98" fill="none" stroke="black" stroke-width="0.25px" stroke-linecap="butt" />
<line x1="6.54" y1="89.88" x2="220.84" y2="89.88" fill="none" stroke="black" stroke-width="0.25px" stroke-linecap="butt" />
<line x1="6.54" y1="101.79" x2="220.84" y2="101.79" fill="none" stroke="black" stroke-width="0.25px" stroke-linecap="butt" />
<line x1="6.54" y1="113.69" x2="220.84" y2="113.69" fill="none" stroke="black" stroke-width="0.25px" stroke-linecap="butt" />
<line x1="6.54" y1="125.60" x2="220.84" y2="125.60" fill="none" stroke="black" stroke-width="0.25px" stroke-linecap="butt" />
<line x1="6.54" y1="137.50" x2="220.84" y2="137.50" fill="none" stroke="black" stroke-width="0.25px" stroke-linecap="butt" />
<line x1="6.54" y1="149.41" x2="220.84" y2="149.41" fill="none" stroke="black" stroke-width="0.25px" stroke-linecap="butt" />
<line x1="6.54" y1="161.31" x2="220.84" y2="161.31" fill="none" stroke="black" stroke-width="0.25px" stroke-linecap="butt" />
<line x1="6.54" y1="173.22" x2="220.84" y2="173.22" fill="none" stroke="black" stroke-width="0.25px" stroke-linecap="butt" />
<line x1="6.54" y1="185.13" x2="220.84" y2="185.13" fill="none" stroke="black" stroke-width="0.25px" stroke-linecap="butt" />
<line x1="6.54" y1="197.03" x2="220.84" y2="197.03" fill="none" stroke="black" stroke-width="0.25px" stroke-linecap="butt" />
<line x1="6.54" y1="208.94" x2="220.84" y2="208.94" fill="none" stroke="black" stroke-width="0.25px" stroke-linecap="butt" />
<line x1="6.54" y1="220.84" x2="220.84" y2="220.84" fill="none" stroke="black" stroke-width="0.87px" stroke-linecap="square" />
<circle cx="30.35" cy="54.17" r="5.98" fill="black"/>
<circle cx="30.35" cy="77.98" r="5.85" fill="white"/>
<circle cx="30.35" cy="77.98" r="5.85" fill="none" stroke="black" stroke-width="0.25px"/>
<circle cx="30.35" cy="89.88" r="5.85" fill="white"/>
<circle cx="30.35" cy="89.88" r="5.85" fill="none" stroke="black" stroke-width="0.25px"/>
<circle cx="30.35" cy="125.60" r="5.85" fill="white"/>
<circle cx="30.35" cy="125.60" r="5.85" fill="none" stroke="black" stroke-width="0.25px"/>
<circle cx="30.35" cy="161.31" r="5.85" fill="white"/>
<circle cx="30.35" cy="161.31" r="5.85" fill="none" stroke="black" stroke-width="0.25px"/>
<circle cx="30.35" cy="173.22" r="5.85" fill="white"/>
<circle cx="30.35" cy="173.22" r="5.85" fill="none" stroke="black" stroke-width="0.25px"/>
<circle cx="30.35" cy="185.13" r="5.98" fill="black"/>
<circle cx="42.26" cy="30.35" r="5.85" fill="white"/>
<circle cx="42.26" cy="30.35" r="5.85" fill="none" stroke="black" stroke-width="0.25px"/>
<circle cx="42.26" cy="42.26" r="1.27" fill="black"/>
<circle cx="42.26" cy="77.98" r="5.85" fill="white"/>
<circle cx="42.26" cy="77.98" r="5.85" fill="none" stroke="black" stroke-width="0.25px"/>
<circle cx="42.26" cy="89.88" r="5.98" fill="black"/>
<circle cx="42.26" cy="101.79" r="5.85" fill="white"/>
<circle cx="42.26" cy="101.79" r="5.85" fill="none" stroke="black" stroke-width="0.25px"/>
<circle cx="42.26" cy="113.69" r="5.85" fill="white"/>
<circle cx="42.26" cy="113.69" r="5.85" fill="none" stroke="black" stroke-width="0.25px"/>
<circle cx="42.26" cy="149.41" r="5.85" fill="white"/>
<circle cx="42.26" cy="149.41" r="5.85" fill="none" stroke="black" stroke-width="0.25px"/>
<circle cx="42.26" cy="161.31" r="5.98" fill="black"/>
<circle cx="42.26" cy="185.13" r="5.98" fill="black"/>
<circle cx="54.17" cy="66.07" r="5.98" fill="black"/>
<circle cx="54.17" cy="77.98" r="5.98" fill="black"/>
<circle cx="54.17" cy="89.88" r="5.98" fill="black"/>
<circle cx="54.17" cy="101.79" r="5.98" fill="black"/>
<circle cx="54.17" cy="161.31" r="5.98" fill="black"/>
<circle cx="66.07" cy="125.60" r="5.98" fill="black"/>
<circle cx="66.07" cy="137.50" r="5.98" fill="black"/>
<circle cx="66.07" cy="197.03" r="5.98" fill="black"/>
<circle cx="77.98" cy="30.35" r="5.85" fill="white"/>
<circle cx="77.98" cy="30.35" r="5.85" fill="none" stroke="black" stroke-width="0.25px"/>
<circle cx="77.98" cy="113.69" r="5.85" fill="white"/>
<circle cx="77.98" cy="113.69" r="5.85" fill="none" stroke="black" stroke-width="0.25px"/>
<circle cx="77.98" cy="125.60" r="5.85" fill="white"/>
<circle cx="77.98" cy="125.60" r="5.85" fill="none" stroke="black" stroke-width="0.25px"/>
<circle cx="77.98" cy="137.50" r="5.98" fill="black"/>
<circle cx="89.88" cy="101.79" r="5.98" fill="black"/>
<circle cx="89.88" cy="113.69" r="5.98" fill="black"/>
<circle cx="89.88" cy="125.60" r="5.98" fill="black"/>
<circle cx="89.88" cy="137.50" r="5.85" fill="white"/>
<circle cx="89.88" cy="137.50" r="5.85" fill="none" stroke="black" stroke-width="0.25px"/>
<circle cx="89.88" cy="149.41" r="5.85" fill="white"/>
<circle cx="89.88" cy="149.41" r="5.85" fill="none" stroke="black" stroke-width="0.25px"/>
<circle cx="89.88" cy="161.31" r="5.98" fill="black"/>
<circle cx="89.88" cy="185.13" r="5.85" fill="white"/>
<circle cx="89.88" cy="185.13" r="5.85" fill="none" stroke="black" stroke-width="0.25px"/>
<circle cx="101.79" cy="42.26" r="5.98" fill="black"/>
<circle cx="101.79" cy="113.69" r="5.85" fill="white"/>
<circle cx="101.79" cy="113.69" r="5.85" fill="none" stroke="black" stroke-width="0.25px"/>
<circle cx="101.79" cy="125.60" r="5.85" fill="white"/>
<circle cx="101.79" cy="125.60" r="5.85" fill="none" stroke="black" stroke-width="0.25px"/>
<circle cx="101.79" cy="137.50" r="5.98" fill="black"/>
<circle cx="101.79" cy="149.41" r="5.98" fill="black"/>
<circle cx="101.79" cy="185.13" r="5.85" fill="white"/>
<circle cx="101.79" cy="185.13" r="5.85" fill="none" stroke="black" stroke-width="0.25px"/>
<circle cx="101.79" cy="197.03" r="5.98" fill="black"/>
<circle cx="113.69" cy="30.35" r="5.85" fill="white"/>
<circle cx="113.69" cy="30.35" r="5.85" fill="none" stroke="black" stroke-width="0.25px"/>
<circle cx="113.69" cy="42.26" r="5.85" fill="white"/>
<circle cx="113.69" cy="42.26" r="5.85" fill="none" stroke="black" stroke-width="0.25px"/>
<circle cx="113.69" cy="54.17" r="5.85" fill="white"/>
<circle cx="113.69" cy="54.17" r="5.85" fill="none" stroke="black" stroke-width="0.25px"/>
<circle cx="113.69" cy="77.98" r="5.98" fill="black"/>
<circle cx="113.69" cy="113.69" r="1.27" fill="black"/>
<circle cx="113.69" cy="137.50" r="5.85" fill="white"/>
<circle cx="113.69" cy="137.50" r="5.85" fill="none" stroke="black" stroke-width="0.25px"/>
<circle cx="113.69" cy="161.31" r="5.98" fill="black"/>
<circle cx="113.69" cy="185.13" r="1.27" fill="black"/>
<circle cx="113.69" cy="208.94" r="5.98" fill="black"/>
<circle cx="125.60" cy="18.45" r="5.85" fill="white"/>
<circle cx="125.60" cy="18.45" r="5.85" fill="none" stroke="black" stroke-width="0.25px"/>
<circle cx="125.60" cy="66.07" r="5.85" fill="white"/>
<circle cx="125.60" cy="66.07" r="5.85" fill="none" stroke="black" stroke-width="0.25px"/>
<circle cx="125.60" cy="77.98" r="5.98" fill="black"/>
<circle cx="125.60" cy="113.69" r="5.98" fill="black"/>
<circle cx="125.60" cy="149.41" r="5.85" fill="white"/>
<circle cx="125.60" cy="149.41" r="5.85" fill="none" stroke="black" stroke-width="0.25px"/>
<circle cx="125.60" cy="161.31" r="5.85" fill="white"/>
<circle cx="125.60" cy="161.31" r="5.85" fill="none" stroke="black" stroke-width="0.25px"/>
<circle cx="125.60" cy="197.03" r="5.85" fill="white"/>
<circle cx="125.60" cy="197.03" r="5.85" fill="none" stroke="black" stroke-width="0.25px"/>
<circle cx="125.60" cy="208.94" r="5.85" fill="white"/>
<circle cx="125.60" cy="208.94" r="5.85" fill="none" stroke="black" stroke-width="0.25px"/>
<circle cx="137.50" cy="18.45" r="5.98" fill="black"/>
<circle cx="137.50" cy="30.35" r="5.98" fill="black"/>
<circle cx="137.50" cy="54.17" r="5.98" fill="black"/>
<circle cx="137.50" cy="66.07" r="5.98" fill="black"/>
<circle cx="137.50" cy="77.98" r="5.85" fill="white"/>
<circle cx="137.50" cy="77.98" r="5.85" fill="none" stroke="black" stroke-width="0.25px"/>
<circle cx="137.50" cy="113.69" r="5.98" fill="black"/>
<circle cx="137.50" cy="125.60" r="5.85" fill="white"/>
<circle cx="137.50" cy="125.60" r="5.85" fill="none" stroke="black" stroke-width="0.25px"/>
<circle cx="137.50" cy="185.13" r="5.85" fill="white"/>
<circle cx="137.50" cy="185.13" r="5.85" fill="none" stroke="black" stroke-width="0.25px"/>
<circle cx="149.41" cy="77.98" r="5.85" fill="white"/>
<circle cx="149.41" cy="77.98" r="5.85" fill="none" stroke="black" stroke-width="0.25px"/>
<circle cx="149.41" cy="101.79" r="5.85" fill="white"/>
<circle cx="149.41" cy="101.79" r="5.85" fill="none" stroke="black" stroke-width="0.25px"/>
<circle cx="149.41" cy="113.69" r="5.98" fill="black"/>
<circle cx="149.41" cy="125.60" r="5.98" fill="black"/>
<circle cx="149.41" cy="149.41" r="5.98" fill="black"/>
<circle cx="149.41" cy="173.22" r="5.85" fill="white"/>
<circle cx="149.41" cy="173.22" r="5.85" fill="none" stroke="black" stroke-width="0.25px"/>
<circle cx="149.41" cy="197.03" r="5.98" fill="black"/>
<circle cx="161.31" cy="125.60" r="5.85" fill="white"/>
<circle cx="161.31" cy="125.60" r="5.85" fill="none" stroke="black" stroke-width="0.25px"/>
<circle cx="173.22" cy="89.88" r="5.98" fill="black"/>
<circle cx="173.22" cy="113.69" r="5.98" fill="black"/>
<circle cx="173.22" cy="185.13" r="5.85" fill="white"/>
<circle cx="173.22" cy="185.13" r="5.85" fill="none" stroke="black" stroke-width="0.25px"/>
<circle cx="185.13" cy="30.35" r="5.98" fill="black"/>
<circle cx="185.13" cy="42.26" r="5.98" fill="black"/>
<circle cx="185.13" cy="113.69" r="1.27" fill="black"/>
<circle cx="185.13" cy="161.31" r="5.85" fill="white"/>
<circle cx="185.13" cy="161.31" r="5.85" fill="none" stroke="black" stroke-width="0.25px"/>
<circle cx="185.13" cy="185.13" r="1.27" fill="black"/>
<circle cx="185.13" cy="197.03" r="5.85" fill="white"/>
<circle cx="185.13" cy="197.03" r="5.85" fill="none" stroke="black" stroke-width="0.25px"/>
<circle cx="197.03" cy="89.88" r="5.98" fill="black"/>
<circle cx="197.03" cy="113.69" r="5.85" fill="white"/>
<circle cx="197.03" cy="113.69" r="5.85" fill="none" stroke="black" stroke-width="0.25px"/>
<circle cx="197.03" cy="125.60" r="5.85" fill="white"/>
<circle cx="197.03" cy="125.60" r="5.85" fill="none" stroke="black" stroke-width="0.25px"/>
<circle cx="197.03" cy="137.50" r="5.85" fill="white"/>
<circle cx="197.03" cy="137.50" r="5.85" fill="none" stroke="black" stroke-width="0.25px"/>
<circle cx="197.03" cy="149.41" r="5.85" fill="white"/>
<circle cx="197.03" cy="149.41" r="5.85" fill="none" stroke="black" stroke-width="0.25px"/>
<circle cx="197.03" cy="173.22" r="5.98" fill="black"/>
<circle cx="208.94" cy="113.69" r="5.98" fill="black"/>
<circle cx="208.94" cy="125.60" r="5.98" fill="black"/>
<circle cx="208.94" cy="137.50" r="5.98" fill="black"/>
<circle cx="208.94" cy="149.41" r="5.85" fill="white"/>
<circle cx="208.94" cy="149.41" r="5.85" fill="none" stroke="black" stroke-width="0.25px"/>
<path d="
M125.81 76.38
L125.81 78.88
L124.39 78.88
L125.81 76.38
Z
M126.00 74.32
L125.96 74.39
L123.33 78.95
L123.31 78.98
L123.31 79.02
L123.31 79.81
L123.31 79.95
L125.81 79.95
L125.81 81.49
L125.81 81.64
L126.80 81.64
L126.80 81.49
L126.80 79.95
L127.58 79.95
L127.58 79.81
L127.58 79.02
L127.58 78.88
L126.80 78.88
L126.80 74.46
L126.80 74.32
Z
" fill="white" fill-rule="nonzero" />
<path d="
M137.52 62.40
C136.94 62.40 136.47 62.58 136.11 62.95
C135.75 63.32 135.55 63.85 135.50 64.56
L135.48 64.70
L135.62 64.71
L136.35 64.80
L136.51 64.82
L136.51 64.66
C136.51 64.24 136.60 63.93 136.79 63.71
C136.97 63.50 137.21 63.39 137.49 63.39
C137.49 63.39 137.49 63.39 137.49 63.39
C137.50 63.39 137.50 63.39 137.50 63.39
C137.76 63.39 137.98 63.49 138.17 63.69
C138.35 63.89 138.44 64.15 138.44 64.47
C138.44 64.75 138.35 65.06 138.15 65.40
C137.95 65.75 137.53 66.25 136.88 66.90
C136.30 67.48 135.90 67.98 135.68 68.41
C135.46 68.85 135.35 69.25 135.36 69.61
L135.36 69.74
L139.46 69.74
L139.46 69.60
L139.46 68.77
L139.46 68.63
L136.73 68.63
C136.78 68.55 136.83 68.47 136.90 68.39
C137.02 68.24 137.29 67.95 137.71 67.52
C138.38 66.82 138.83 66.27 139.08 65.85
C139.33 65.41 139.45 64.96 139.45 64.49
C139.45 63.95 139.29 63.47 138.97 63.05
C138.64 62.61 138.15 62.40 137.52 62.40
Z
" fill="white" fill-rule="nonzero" />
<path d="
M137.40 74.38
C136.96 74.38 136.58 74.53 136.27 74.84
C135.95 75.15 135.75 75.60 135.66 76.20
L136.37 76.36
C136.42 75.93 136.54 75.62 136.72 75.41
C136.91 75.20 137.14 75.09 137.41 75.09
C137.68 75.09 137.90 75.19 138.08 75.39
C138.26 75.59 138.35 75.86 138.35 76.19
C138.35 76.54 138.24 76.83 138.03 77.04
C137.81 77.26 137.53 77.37 137.18 77.37
L137.07 77.36
L136.99 78.12
C137.18 78.05 137.35 78.02 137.48 78.02
C137.80 78.02 138.07 78.14 138.29 78.39
C138.50 78.64 138.61 78.97 138.61 79.38
C138.61 79.82 138.49 80.17 138.26 80.45
C138.02 80.72 137.74 80.86 137.42 80.86
C136.82 80.86 136.45 80.40 136.30 79.47
L135.59 79.59
C135.64 80.19 135.83 80.68 136.17 81.03
C136.52 81.39 136.93 81.57 137.43 81.57
C137.96 81.57 138.41 81.37 138.80 80.95
C139.18 80.54 139.37 80.01 139.37 79.37
C139.37 79.06 139.32 78.79 139.23 78.54
C139.13 78.30 139.01 78.10 138.86 77.95
C138.71 77.80 138.52 77.70 138.29 77.64
C138.54 77.49 138.74 77.30 138.87 77.05
C139.01 76.81 139.08 76.52 139.08 76.20
C139.08 75.68 138.92 75.24 138.59 74.90
C138.27 74.55 137.87 74.38 137.40 74.38
Z
" fill="black" fill-rule="nonzero" />
<path d="
M137.47 110.95
C137.47 110.95 137.47 110.95 137.48 110.95
C137.48 110.95 137.48 110.95 137.48 110.95
C137.69 110.95 137.88 111.04 138.03 111.22
C138.20 111.40 138.28 111.64 138.28 111.93
C138.28 112.22 138.20 112.45 138.04 112.62
C137.89 112.79 137.70 112.88 137.49 112.88
C137.49 112.88 137.49 112.88 137.48 112.88
C137.48 112.88 137.48 112.88 137.48 112.88
C137.26 112.88 137.07 112.79 136.92 112.62
C136.76 112.44 136.68 112.20 136.68 111.89
C136.68 111.61 136.76 111.39 136.92 111.21
C137.08 111.04 137.26 110.95 137.47 110.95
Z
M137.46 113.87
C137.46 113.87 137.46 113.87 137.47 113.87
C137.47 113.87 137.47 113.87 137.47 113.87
C137.75 113.87 137.99 113.98 138.20 114.21
C138.41 114.45 138.51 114.77 138.51 115.16
C138.51 115.56 138.41 115.87 138.21 116.10
C138.01 116.32 137.77 116.43 137.49 116.43
C137.49 116.43 137.49 116.43 137.48 116.43
C137.48 116.43 137.48 116.43 137.48 116.43
C137.20 116.43 136.96 116.32 136.76 116.09
C136.55 115.85 136.45 115.53 136.45 115.13
C136.45 114.75 136.55 114.45 136.75 114.21
C136.95 113.98 137.18 113.87 137.46 113.87
Z
M137.47 109.96
C136.95 109.96 136.52 110.14 136.18 110.51
C135.84 110.87 135.67 111.34 135.67 111.91
C135.67 112.29 135.75 112.61 135.91 112.87
C136.02 113.06 136.17 113.21 136.35 113.33
L136.35 113.33
C136.11 113.46 135.91 113.65 135.75 113.90
C135.54 114.22 135.44 114.64 135.44 115.13
C135.44 115.81 135.63 116.37 136.02 116.79
C136.41 117.21 136.90 117.43 137.48 117.43
C138.06 117.43 138.55 117.21 138.94 116.79
C139.33 116.37 139.52 115.82 139.52 115.16
C139.52 114.68 139.42 114.27 139.22 113.94
C139.07 113.69 138.86 113.49 138.60 113.34
L138.60 113.34
C138.79 113.21 138.94 113.06 139.06 112.87
C139.21 112.62 139.29 112.30 139.29 111.94
C139.29 111.36 139.11 110.89 138.77 110.52
C138.42 110.15 137.99 109.96 137.47 109.96
Z
" fill="white" fill-rule="nonzero" />
<path d="
M135.63 122.13
L135.63 122.96
L138.45 122.96
C138.10 123.45 137.76 124.06 137.45 124.77
C137.14 125.48 136.90 126.23 136.72 127.01
C136.54 127.80 136.45 128.48 136.44 129.07
L137.17 129.07
C137.23 127.93 137.48 126.78 137.90 125.62
C138.32 124.46 138.81 123.52 139.37 122.80
L139.37 122.13
Z
" fill="black" fill-rule="nonzero" />
<path d="
M149.70 74.44
C149.58 74.75 149.37 75.07 149.07 75.39
C148.77 75.71 148.42 75.99 148.03 76.21
L148.03 77.05
C148.26 76.94 148.52 76.79 148.79 76.59
C149.07 76.39 149.28 76.20 149.45 76.00
L149.45 81.51
L150.16 81.51
L150.16 74.44
Z
" fill="black" fill-rule="nonzero" />
<path d="
M148.18 98.26
L147.61 101.87
L148.28 101.98
C148.39 101.76 148.54 101.60 148.73 101.48
C148.91 101.36 149.11 101.30 149.33 101.30
C149.68 101.30 149.98 101.43 150.21 101.71
C150.45 101.99 150.57 102.38 150.57 102.88
C150.57 103.41 150.44 103.84 150.20 104.14
C149.96 104.45 149.67 104.61 149.33 104.61
C149.06 104.61 148.83 104.50 148.62 104.28
C148.42 104.06 148.29 103.73 148.23 103.28
L147.49 103.35
C147.54 103.97 147.73 104.45 148.08 104.80
C148.42 105.14 148.84 105.32 149.34 105.32
C149.94 105.32 150.42 105.07 150.78 104.58
C151.14 104.09 151.31 103.50 151.31 102.81
C151.31 102.11 151.14 101.56 150.78 101.15
C150.42 100.74 150.00 100.53 149.52 100.53
C149.14 100.53 148.77 100.68 148.43 100.97
L148.74 99.08
L151.04 99.08
L151.04 98.26
Z
" fill="black" fill-rule="nonzero" />
<path d="
M151.17 110.92
C151.17 110.92 151.17 110.92 151.17 110.92
C151.17 110.92 151.17 110.92 151.17 110.92
C151.28 110.92 151.37 110.96 151.46 111.03
C151.56 111.12 151.65 111.25 151.73 111.43
C151.90 111.80 151.98 112.56 151.98 113.70
C151.98 114.82 151.90 115.57 151.73 115.96
C151.65 116.14 151.56 116.27 151.47 116.36
C151.39 116.43 151.30 116.47 151.21 116.47
C151.21 116.47 151.21 116.47 151.20 116.47
C151.20 116.47 151.20 116.47 151.20 116.47
C151.10 116.47 151.01 116.43 150.92 116.36
C150.82 116.27 150.73 116.14 150.65 115.96
C150.48 115.59 150.40 114.83 150.40 113.70
C150.40 112.57 150.48 111.81 150.65 111.43
C150.73 111.25 150.81 111.12 150.91 111.03
C150.99 110.96 151.08 110.92 151.17 110.92
Z
M147.72 109.91
L147.69 110.01
C147.60 110.31 147.44 110.61 147.20 110.93
C146.97 111.24 146.70 111.51 146.40 111.73
L146.34 111.77
L146.34 111.84
L146.34 112.69
L146.34 112.93
L146.55 112.81
C146.74 112.70 146.96 112.54 147.19 112.34
C147.30 112.24 147.40 112.14 147.48 112.04
L147.48 112.04
L147.48 117.21
L147.48 117.35
L148.34 117.35
L148.34 117.21
L148.34 110.06
L148.34 109.91
Z
M151.20 109.91
C150.91 109.91 150.66 110.00 150.45 110.18
C150.24 110.35 150.06 110.59 149.93 110.92
C149.66 111.56 149.53 112.48 149.53 113.70
C149.53 115.05 149.68 116.01 149.97 116.58
C150.12 116.87 150.30 117.09 150.50 117.24
C150.70 117.39 150.94 117.47 151.19 117.47
C151.48 117.47 151.73 117.38 151.94 117.21
C152.15 117.04 152.33 116.79 152.46 116.46
C152.73 115.82 152.86 114.90 152.86 113.70
C152.86 112.35 152.70 111.36 152.38 110.74
C152.24 110.47 152.07 110.27 151.88 110.13
C151.68 109.99 151.45 109.91 151.20 109.91
Z
" fill="white" fill-rule="nonzero" />
<path d="
M149.42 125.41
C149.69 125.41 149.92 125.53 150.10 125.77
C150.30 126.02 150.40 126.38 150.40 126.84
C150.40 127.32 150.30 127.69 150.10 127.96
C149.91 128.21 149.70 128.34 149.47 128.34
C149.47 128.34 149.47 128.34 149.47 128.34
C149.47 128.34 149.47 128.34 149.46 128.34
C149.19 128.34 148.95 128.20 148.74 127.93
C148.52 127.65 148.41 127.27 148.41 126.79
C148.41 126.36 148.52 126.02 148.72 125.77
C148.92 125.53 149.15 125.41 149.42 125.41
C149.42 125.41 149.42 125.41 149.42 125.41
C149.42 125.41 149.42 125.41 149.42 125.41
Z
M149.52 121.86
C148.87 121.87 148.33 122.17 147.92 122.79
C147.52 123.39 147.31 124.39 147.31 125.78
C147.31 127.03 147.51 127.94 147.91 128.49
C148.31 129.05 148.83 129.33 149.46 129.33
C149.81 129.33 150.14 129.23 150.43 129.03
C150.72 128.84 150.96 128.53 151.14 128.13
C151.32 127.73 151.41 127.28 151.41 126.79
C151.41 126.06 151.23 125.48 150.87 125.04
C150.50 124.59 150.06 124.37 149.56 124.36
C149.26 124.36 148.97 124.45 148.70 124.62
C148.56 124.71 148.43 124.83 148.32 124.96
L148.32 124.96
C148.35 124.35 148.45 123.88 148.62 123.55
C148.73 123.31 148.86 123.13 149.01 123.02
C149.15 122.91 149.31 122.86 149.48 122.86
C149.48 122.86 149.48 122.86 149.48 122.86
C149.48 122.86 149.48 122.86 149.48 122.86
C149.71 122.86 149.90 122.95 150.05 123.14
C150.17 123.28 150.26 123.51 150.32 123.85
L150.35 123.98
L150.47 123.97
L151.18 123.90
L151.32 123.88
L151.31 123.74
C151.24 123.14 151.05 122.68 150.73 122.35
C150.40 122.03 150.00 121.86 149.52 121.86
Z
" fill="white" fill-rule="nonzero" />
<path d="
M161.30 122.72
C161.59 122.72 161.84 122.86 162.07 123.15
C162.29 123.44 162.40 123.84 162.40 124.34
C162.40 124.84 162.30 125.23 162.08 125.51
C161.86 125.78 161.59 125.92 161.28 125.92
C160.96 125.92 160.69 125.79 160.47 125.51
C160.24 125.24 160.12 124.87 160.12 124.41
C160.12 123.90 160.24 123.49 160.48 123.18
C160.72 122.87 160.99 122.72 161.30 122.72
Z
M161.21 122.01
C160.71 122.01 160.28 122.22 159.93 122.64
C159.57 123.07 159.40 123.65 159.40 124.38
C159.40 125.09 159.57 125.66 159.91 126.07
C160.25 126.48 160.65 126.69 161.12 126.69
C161.38 126.69 161.64 126.60 161.89 126.44
C162.14 126.27 162.33 126.04 162.48 125.76
L162.48 125.93
C162.48 126.48 162.41 126.96 162.28 127.38
C162.15 127.79 161.98 128.08 161.79 128.24
C161.59 128.40 161.38 128.48 161.14 128.48
C160.61 128.48 160.29 128.11 160.18 127.37
L159.50 127.44
C159.56 128.01 159.73 128.44 160.03 128.74
C160.32 129.04 160.69 129.19 161.13 129.19
C161.52 129.19 161.86 129.07 162.18 128.82
C162.49 128.57 162.74 128.18 162.92 127.65
C163.10 127.12 163.19 126.37 163.19 125.40
C163.19 124.53 163.11 123.87 162.94 123.41
C162.77 122.95 162.53 122.60 162.22 122.36
C161.91 122.12 161.57 122.01 161.21 122.01
Z
" fill="black" fill-rule="nonzero" />
</g>
<g  transform="translate(1.19,228.58)" >
<path d="
M106.49 2.94
C106.33 2.94 106.19 3.00 106.07 3.11
C105.96 3.23 105.90 3.37 105.90 3.53
C105.90 3.69 105.96 3.83 106.08 3.95
C106.19 4.07 106.33 4.12 106.49 4.12
C106.66 4.12 106.80 4.07 106.91 3.95
C107.02 3.83 107.08 3.69 107.08 3.53
C107.08 3.37 107.02 3.23 106.91 3.11
C106.80 3.00 106.66 2.94 106.49 2.94
Z
M111.46 8.04
L111.46 10.07
C110.98 10.46 110.60 10.65 110.30 10.65
C110.08 10.65 109.89 10.56 109.73 10.37
C109.56 10.19 109.48 9.96 109.48 9.68
C109.48 9.46 109.54 9.25 109.67 9.07
C109.81 8.88 110.02 8.70 110.33 8.53
C110.50 8.44 110.88 8.27 111.46 8.04
Z
M99.82 3.77
C100.75 3.77 101.51 4.08 102.10 4.71
C102.69 5.34 102.99 6.20 102.99 7.29
C102.99 8.37 102.69 9.23 102.10 9.86
C101.51 10.49 100.76 10.81 99.86 10.81
C99.53 10.81 99.12 10.75 98.62 10.64
L98.62 3.94
C99.07 3.83 99.47 3.77 99.82 3.77
Z
M96.37 3.33
L96.37 3.54
L96.67 3.54
C96.97 3.54 97.19 3.63 97.34 3.80
C97.45 3.92 97.51 4.23 97.51 4.72
L97.51 9.82
C97.51 10.26 97.46 10.55 97.38 10.68
C97.24 10.89 97.00 11.00 96.67 11.00
L96.37 11.00
L96.37 11.21
L99.90 11.21
C101.43 11.21 102.57 10.80 103.32 9.98
C103.98 9.24 104.32 8.33 104.32 7.23
C104.32 6.41 104.13 5.69 103.76 5.07
C103.38 4.44 102.89 4.00 102.27 3.73
C101.66 3.46 100.76 3.33 99.58 3.33
Z
M106.72 5.73
L105.12 6.38
L105.20 6.59
C105.35 6.53 105.48 6.50 105.59 6.50
C105.69 6.50 105.77 6.53 105.83 6.58
C105.89 6.62 105.93 6.71 105.96 6.83
C105.99 7.00 106.01 7.38 106.01 7.96
L106.01 10.01
C106.01 10.34 105.98 10.56 105.93 10.68
C105.88 10.79 105.81 10.88 105.72 10.93
C105.63 10.98 105.46 11.00 105.20 11.00
L105.20 11.21
L107.78 11.21
L107.78 11.00
C107.53 11.00 107.36 10.98 107.26 10.92
C107.17 10.87 107.10 10.79 107.05 10.68
C107.00 10.56 106.98 10.34 106.98 10.01
L106.98 5.73
Z
M122.04 3.16
C121.44 3.16 120.94 3.36 120.54 3.74
C120.14 4.12 119.89 4.67 119.79 5.39
L120.01 5.39
C120.16 4.95 120.38 4.62 120.69 4.39
C121.00 4.17 121.35 4.05 121.74 4.05
C122.16 4.05 122.53 4.22 122.84 4.54
C123.14 4.86 123.29 5.27 123.29 5.77
C123.29 6.42 123.02 7.15 122.46 7.94
C121.90 8.73 120.94 9.75 119.57 11.00
L119.57 11.21
L124.22 11.21
L124.77 9.70
L124.56 9.70
C124.46 9.87 124.34 10.00 124.20 10.10
C124.07 10.19 123.91 10.26 123.75 10.29
C123.58 10.32 123.28 10.33 122.86 10.33
L120.81 10.33
C121.05 10.12 121.65 9.48 122.61 8.43
C123.26 7.73 123.72 7.06 124.01 6.43
C124.20 6.03 124.29 5.63 124.29 5.23
C124.29 4.68 124.07 4.19 123.65 3.78
C123.22 3.37 122.68 3.16 122.04 3.16
Z
M110.65 5.73
C110.03 5.73 109.56 5.87 109.21 6.15
C108.87 6.43 108.70 6.73 108.70 7.07
C108.70 7.24 108.75 7.38 108.84 7.48
C108.93 7.58 109.05 7.63 109.19 7.63
C109.34 7.63 109.46 7.58 109.55 7.49
C109.64 7.39 109.69 7.25 109.69 7.07
L109.67 6.74
C109.67 6.56 109.75 6.41 109.89 6.28
C110.04 6.15 110.23 6.08 110.48 6.08
C110.80 6.08 111.04 6.18 111.21 6.38
C111.38 6.58 111.46 6.94 111.46 7.47
L111.46 7.68
C110.55 8.02 109.90 8.30 109.50 8.53
C109.11 8.76 108.83 9.01 108.67 9.28
C108.56 9.47 108.50 9.69 108.50 9.95
C108.50 10.36 108.62 10.69 108.86 10.95
C109.09 11.20 109.40 11.32 109.77 11.32
C110.00 11.32 110.23 11.27 110.44 11.18
C110.57 11.11 110.92 10.87 111.46 10.45
C111.47 10.76 111.53 10.99 111.64 11.12
C111.75 11.25 111.90 11.32 112.09 11.32
C112.49 11.32 112.90 11.03 113.34 10.45
L113.34 10.12
C113.10 10.35 112.95 10.49 112.87 10.54
C112.82 10.57 112.77 10.58 112.70 10.58
C112.65 10.58 112.59 10.57 112.55 10.53
C112.50 10.49 112.47 10.41 112.45 10.30
C112.43 10.18 112.42 9.87 112.42 9.36
L112.42 7.55
C112.42 7.04 112.39 6.70 112.32 6.53
C112.21 6.28 112.04 6.09 111.81 5.97
C111.51 5.81 111.12 5.73 110.65 5.73
Z
M127.61 3.33
L126.10 6.39
C126.82 6.42 127.40 6.52 127.82 6.69
C128.36 6.92 128.78 7.24 129.09 7.65
C129.40 8.06 129.55 8.51 129.55 8.99
C129.55 9.48 129.38 9.90 129.04 10.24
C128.69 10.58 128.29 10.75 127.84 10.75
C127.54 10.75 127.25 10.65 126.96 10.45
C126.77 10.32 126.64 10.24 126.57 10.21
C126.49 10.18 126.41 10.17 126.30 10.17
C126.17 10.17 126.06 10.21 125.97 10.29
C125.88 10.37 125.83 10.47 125.83 10.58
C125.83 10.77 125.94 10.95 126.16 11.11
C126.37 11.27 126.72 11.35 127.19 11.35
C127.66 11.35 128.12 11.25 128.56 11.03
C128.88 10.88 129.16 10.68 129.42 10.43
C129.67 10.19 129.88 9.89 130.05 9.53
C130.22 9.18 130.31 8.80 130.31 8.38
C130.31 7.67 130.05 7.05 129.53 6.52
C128.93 5.91 128.12 5.53 127.09 5.37
L127.61 4.32
L129.98 4.32
L130.43 3.33
Z
M114.85 10.08
C114.67 10.08 114.52 10.15 114.39 10.27
C114.26 10.39 114.20 10.55 114.20 10.73
C114.20 10.91 114.26 11.06 114.39 11.19
C114.52 11.31 114.67 11.38 114.85 11.38
C115.03 11.38 115.18 11.31 115.30 11.19
C115.43 11.06 115.49 10.91 115.49 10.73
C115.49 10.55 115.43 10.40 115.31 10.27
C115.18 10.15 115.03 10.08 114.85 10.08
Z
" fill="black" fill-rule="nonzero" />
</g>
</g>
</svg>
