<?xml version="1.0" encoding="utf-8" standalone="no"?>
<!DOCTYPE svg PUBLIC "-//W3C//DTD SVG 1.0//EN" "http://www.w3.org/TR/SVG/DTD/svg11.dtd" >
<svg version="1.1" baseProfile="full"  width="319.13385" height="338.51422" viewBox="0 0 229.77638 243.73024" preserveAspectRatio="xMidYMid" xmlns="http://www.w3.org/2000/svg" >

<g lengthAdjust="spacingAndGlyphs" xml:space='preserve' >
<g  transform="translate(1.19,1.19)" >
<path d="
M0.0 0.0
L0.0 227.39
L227.39 227.39
L227.39 0.0
Z
" fill="none" fill-rule="nonzero" />
<line x1="6.54" y1="6.54" x2="6.54" y2="220.84" fill="none" stroke="black" stroke-width="0.87px" stroke-linecap="square" />
<line x1="18.45" y1="6.54" x2="18.45" y2="220.84" fill="none" stroke="black" stroke-width="0.25px" stroke-linecap="butt" />
<line x1="30.35" y1="6.54" x2="30.35" y2="220.84" fill="none" stroke="black" stroke-width="0.25px" stroke-linecap="butt" />
<line x1="42.26" y1="6.54" x2="42.26" y2="220.84" fill="none" stroke="black" stroke-width="0.25px" stroke-linecap="butt" />
<line x1="54.17" y1="6.54" x2="54.17" y2="220.84" fill="none" stroke="black" stroke-width="0.25px" stroke-linecap="butt" />
<line x1="66.07" y1="6.54" x2="66.07" y2="220.84" fill="none" stroke="black" stroke-width="0.25px" stroke-linecap="butt" />
<line x1="77.98" y1="6.54" x2="77.98" y2="220.84" fill="none" stroke="black" stroke-width="0.25px" stroke-linecap="butt" />
<line x1="89.88" y1="6.54" x2="89.88" y2="220.84" fill="none" stroke="black" stroke-width="0.25px" stroke-linecap="butt" />
<line x1="101.79" y1="6.54" x2="101.79" y2="220.84" fill="none" stroke="black" stroke-width="0.25px" stroke-linecap="butt" />
<line x1="113.69" y1="6.54" x2="113.69" y2="220.84" fill="none" stroke="black" stroke-width="0.25px" stroke-linecap="butt" />
<line x1="125.60" y1="6.54" x2="125.60" y2="220.84" fill="none" stroke="black" stroke-width="0.25px" stroke-linecap="butt" />
<line x1="137.50" y1="6.54" x2="137.50" y2="220.84" fill="none" stroke="black" stroke-width="0.25px" stroke-linecap="butt" />
<line x1="149.41" y1="6.54" x2="149.41" y2="220.84" fill="none" stroke="black" stroke-width="0.25px" stroke-linecap="butt" />
<line x1="161.31" y1="6.54" x2="161.31" y2="220.84" fill="none" stroke="black" stroke-width="0.25px" stroke-linecap="butt" />
<line x1="173.22" y1="6.54" x2="173.22" y2="220.84" fill="none" stroke="black" stroke-width="0.25px" stroke-linecap="butt" />
<line x1="185.13" y1="6.54" x2="185.13" y2="220.84" fill="none" stroke="black" stroke-width="0.25px" stroke-linecap="butt" />
<line x1="197.03" y1="6.54" x2="197.03" y2="48.21" fill="none" stroke="black" stroke-width="0.25px" stroke-linecap="butt" />
<line x1="197.03" y1="60.12" x2="197.03" y2="220.84" fill="none" stroke="black" stroke-width="0.25px" stroke-linecap="butt" />
<line x1="208.94" y1="6.54" x2="208.94" y2="220.84" fill="none" stroke="black" stroke-width="0.25px" stroke-linecap="butt" />
<line x1="220.84" y1="6.54" x2="220.84" y2="220.84" fill="none" stroke="black" stroke-width="0.87px" stroke-linecap="square" />
<line x1="6.54" y1="6.54" x2="220.84" y2="6.54" fill="none" stroke="black" stroke-width="0.87px" stroke-linecap="square" />
<line x1="6.54" y1="18.45" x2="220.84" y2="18.45" fill="none" stroke="black" stroke-width="0.25px" stroke-linecap="butt" />
<line x1="6.54" y1="30.35" x2="220.84" y2="30.35" fill="none" stroke="black" stroke-width="0.25px" stroke-linecap="butt" />
<line x1="6.54" y1="42.26" x2="220.84" y2="42.26" fill="none" stroke="black" stroke-width="0.25px" stroke-linecap="butt" />
<line x1="6.54" y1="54.17" x2="191.08" y2="54.17" fill="none" stroke="black" stroke-width="0.25px" stroke-linecap="butt" />
<line x1="202.98" y1="54.17" x2="220.84" y2="54.17" fill="none" stroke="black" stroke-width="0.25px" stroke-linecap="butt" />
<line x1="6.54" y1="66.07" x2="220.84" y2="66.07" fill="none" stroke="black" stroke-width="0.25px" stroke-linecap="butt" />
<line x1="6.54" y1="77.98" x2="220.84" y2="77.98" fill="none" stroke="black" stroke-width="0.25px" stroke-linecap="butt" />
<line x1="6.54" y1="89.88" x2="220.84" y2="89.88" fill="none" stroke="black" stroke-width="0.25px" stroke-linecap="butt" />
<line x1="6.54" y1="101.79" x2="220.84" y2="101.79" fill="none" stroke="black" stroke-width="0.25px" stroke-linecap="butt" />
<line x1="6.54" y1="113.69" x2="220.84" y2="113.69" fill="none" stroke="black" stroke-width="0.25px" stroke-linecap="butt" />
<line x1="6.54" y1="125.60" x2="220.84" y2="125.60" fill="none" stroke="black" stroke-width="0.25px" stroke-linecap="butt" />
<line x1="6.54" y1="137.50" x2="220.84" y2="137.50" fill="none" stroke="black" stroke-width="0.25px" stroke-linecap="butt" />
<line x1="6.54" y1="149.41" x2="220.84" y2="149.41" fill="none" stroke="black" stroke-width="0.25px" stroke-linecap="butt" />
<line x1="6.54" y1="161.31" x2="220.84" y2="161.31" fill="none" stroke="black" stroke-width="0.25px" stroke-linecap="butt" />
<line x1="6.54" y1="173.22" x2="220.84" y2="173.22" fill="none" stroke="black" stroke-width="0.25px" stroke-linecap="butt" />
<line x1="6.54" y1="185.13" x2="220.84" y2="185.13" fill="none" stroke="black" stroke-width="0.25px" stroke-linecap="butt" />
<line x1="6.54" y1="197.03" x2="220.84" y2="197.03" fill="none" stroke="black" stroke-width="0.25px" stroke-linecap="butt" />
<line x1="6.54" y1="208.94" x2="220.84" y2="208.94" fill="none" stroke="black" stroke-width="0.25px" stroke-linecap="butt" />
<line x1="6.54" y1="220.84" x2="220.84" y2="220.84" fill="none" stroke="black" stroke-width="0.87px" stroke-linecap="square" />
<circle cx="30.35" cy="42.26" r="5.89" fill="white"/>
<circle cx="30.35" cy="42.26" r="5.89" fill="none" stroke="black" stroke-width="0.25px"/>
<circle cx="30.35" cy="54.17" r="6.01" fill="black"/>
<circle cx="42.26" cy="30.35" r="5.89" fill="white"/>
<circle cx="42.26" cy="30.35" r="5.89" fill="none" stroke="black" stroke-width="0.25px"/>
<circle cx="42.26" cy="42.26" r="1.27" fill="black"/>
<circle cx="42.26" cy="77.98" r="5.89" fill="white"/>
<circle cx="42.26" cy="77.98" r="5.89" fill="none" stroke="black" stroke-width="0.25px"/>
<circle cx="42.26" cy="89.88" r="6.01" fill="black"/>
<circle cx="42.26" cy="113.69" r="1.27" fill="black"/>
<circle cx="42.26" cy="185.13" r="6.01" fill="black"/>
<circle cx="54.17" cy="42.26" r="5.89" fill="white"/>
<circle cx="54.17" cy="42.26" r="5.89" fill="none" stroke="black" stroke-width="0.25px"/>
<circle cx="54.17" cy="66.07" r="6.01" fill="black"/>
<circle cx="54.17" cy="77.98" r="6.01" fill="black"/>
<circle cx="113.69" cy="42.26" r="1.27" fill="black"/>
<circle cx="113.69" cy="113.69" r="1.27" fill="black"/>
<circle cx="113.69" cy="185.13" r="1.27" fill="black"/>
<circle cx="137.50" cy="185.13" r="5.89" fill="white"/>
<circle cx="137.50" cy="185.13" r="5.89" fill="none" stroke="black" stroke-width="0.25px"/>
<circle cx="149.41" cy="30.35" r="6.01" fill="black"/>
<circle cx="161.31" cy="161.31" r="6.01" fill="black"/>
<circle cx="161.31" cy="185.13" r="5.89" fill="white"/>
<circle cx="161.31" cy="185.13" r="5.89" fill="none" stroke="black" stroke-width="0.25px"/>
<circle cx="173.22" cy="113.69" r="5.89" fill="white"/>
<circle cx="173.22" cy="113.69" r="5.89" fill="none" stroke="black" stroke-width="0.25px"/>
<circle cx="185.13" cy="42.26" r="6.01" fill="black"/>
<circle cx="185.13" cy="113.69" r="1.27" fill="black"/>
<circle cx="185.13" cy="173.22" r="6.01" fill="black"/>
<circle cx="185.13" cy="185.13" r="1.27" fill="black"/>
<circle cx="185.13" cy="197.03" r="5.89" fill="white"/>
<circle cx="185.13" cy="197.03" r="5.89" fill="none" stroke="black" stroke-width="0.25px"/>
<circle cx="197.03" cy="77.98" r="5.89" fill="white"/>
<circle cx="197.03" cy="77.98" r="5.89" fill="none" stroke="black" stroke-width="0.25px"/>
<circle cx="197.03" cy="113.69" r="5.89" fill="white"/>
<circle cx="197.03" cy="113.69" r="5.89" fill="none" stroke="black" stroke-width="0.25px"/>
<circle cx="197.03" cy="137.50" r="6.01" fill="black"/>
<circle cx="197.03" cy="173.22" r="6.01" fill="black"/>
<circle cx="197.03" cy="185.13" r="5.89" fill="white"/>
<circle cx="197.03" cy="185.13" r="5.89" fill="none" stroke="black" stroke-width="0.25px"/>
<path d="
M28.77 38.68
C28.67 38.99 28.50 39.31 28.26 39.64
C28.02 39.97 27.74 40.24 27.42 40.47
L27.42 41.32
C27.61 41.21 27.81 41.06 28.04 40.86
C28.26 40.66 28.44 40.46 28.57 40.26
L28.57 45.84
L29.15 45.84
L29.15 38.68
Z
M32.18 38.68
C31.74 38.68 31.39 38.86 31.12 39.20
C30.85 39.55 30.70 40.06 30.66 40.74
L31.25 40.84
C31.25 40.38 31.33 40.02 31.50 39.78
C31.68 39.53 31.89 39.41 32.16 39.41
C32.41 39.41 32.62 39.52 32.79 39.75
C32.96 39.98 33.04 40.27 33.04 40.64
C33.04 40.95 32.96 41.29 32.79 41.65
C32.63 42.02 32.28 42.53 31.74 43.20
C31.28 43.78 30.97 44.27 30.80 44.69
C30.62 45.11 30.54 45.50 30.55 45.84
L33.64 45.84
L33.64 44.99
L31.35 44.99
C31.41 44.84 31.49 44.68 31.59 44.52
C31.69 44.36 31.91 44.06 32.25 43.62
C32.79 42.93 33.15 42.38 33.34 41.96
C33.53 41.54 33.63 41.11 33.63 40.66
C33.63 40.14 33.51 39.69 33.26 39.29
C33.02 38.88 32.66 38.68 32.18 38.68
Z
" fill="black" fill-rule="nonzero" />
<path d="
M28.34 50.55
L28.34 50.69
L28.34 51.52
L28.34 51.66
L31.03 51.66
C30.73 52.13 30.44 52.66 30.17 53.28
C29.86 54.00 29.61 54.75 29.43 55.55
C29.25 56.34 29.16 57.04 29.15 57.63
L29.14 57.78
L30.02 57.78
L30.15 57.78
L30.16 57.65
C30.22 56.52 30.46 55.38 30.88 54.24
C31.30 53.09 31.78 52.16 32.33 51.45
L32.36 51.41
L32.36 51.36
L32.36 50.69
L32.36 50.55
Z
" fill="white" fill-rule="nonzero" />
<path d="
M42.27 26.82
C41.73 26.82 41.30 26.99 40.97 27.33
C40.64 27.67 40.44 28.18 40.39 28.86
L41.12 28.95
C41.12 28.49 41.23 28.14 41.44 27.90
C41.65 27.66 41.92 27.54 42.25 27.54
C42.56 27.54 42.82 27.65 43.03 27.88
C43.23 28.10 43.34 28.39 43.34 28.75
C43.34 29.06 43.24 29.40 43.03 29.76
C42.83 30.12 42.39 30.63 41.73 31.29
C41.17 31.85 40.78 32.34 40.56 32.76
C40.35 33.17 40.25 33.55 40.26 33.89
L44.07 33.89
L44.07 33.06
L41.24 33.06
C41.32 32.90 41.42 32.74 41.54 32.59
C41.67 32.43 41.94 32.13 42.36 31.70
C43.02 31.02 43.47 30.47 43.71 30.06
C43.95 29.65 44.06 29.22 44.06 28.77
C44.06 28.26 43.91 27.81 43.61 27.42
C43.31 27.02 42.86 26.82 42.27 26.82
Z
" fill="black" fill-rule="nonzero" />
<path d="
M42.23 75.09
C42.49 75.09 42.71 75.20 42.90 75.41
C43.08 75.62 43.18 75.89 43.18 76.22
C43.18 76.54 43.09 76.80 42.90 77.00
C42.72 77.20 42.50 77.30 42.24 77.30
C41.97 77.30 41.75 77.20 41.57 76.99
C41.39 76.79 41.29 76.51 41.29 76.17
C41.29 75.86 41.39 75.61 41.57 75.40
C41.75 75.20 41.97 75.09 42.23 75.09
Z
M42.22 78.01
C42.55 78.01 42.83 78.14 43.06 78.40
C43.29 78.67 43.41 79.02 43.41 79.45
C43.41 79.88 43.30 80.22 43.07 80.47
C42.84 80.73 42.57 80.86 42.24 80.86
C41.92 80.86 41.64 80.73 41.41 80.46
C41.18 80.20 41.06 79.85 41.06 79.42
C41.06 79.00 41.17 78.66 41.40 78.40
C41.62 78.14 41.90 78.01 42.22 78.01
Z
M42.23 74.38
C41.75 74.38 41.35 74.55 41.04 74.89
C40.72 75.22 40.57 75.66 40.57 76.19
C40.57 76.55 40.64 76.85 40.78 77.08
C40.93 77.32 41.14 77.50 41.43 77.63
C41.09 77.74 40.82 77.95 40.63 78.25
C40.43 78.56 40.34 78.95 40.34 79.42
C40.34 80.06 40.52 80.58 40.88 80.98
C41.24 81.37 41.70 81.57 42.24 81.57
C42.78 81.57 43.23 81.37 43.59 80.98
C43.95 80.58 44.14 80.07 44.14 79.44
C44.14 78.99 44.04 78.61 43.86 78.30
C43.67 77.99 43.40 77.77 43.05 77.63
C43.34 77.50 43.55 77.32 43.69 77.08
C43.83 76.85 43.90 76.56 43.90 76.22
C43.90 75.68 43.74 75.24 43.42 74.90
C43.11 74.56 42.71 74.38 42.23 74.38
Z
" fill="black" fill-rule="nonzero" />
<path d="
M40.57 86.10
L40.54 86.20
C40.45 86.50 40.29 86.80 40.05 87.12
C39.82 87.43 39.55 87.70 39.25 87.92
L39.19 87.96
L39.19 88.03
L39.19 88.88
L39.19 89.12
L39.19 89.12
L39.40 89.00
C39.59 88.89 39.81 88.73 40.04 88.52
C40.15 88.42 40.25 88.32 40.33 88.23
L40.33 88.23
L40.33 93.39
L40.33 93.54
L41.19 93.54
L41.19 93.39
L41.19 86.24
L41.19 86.10
Z
M43.99 86.10
C43.59 86.10 43.24 86.27 42.96 86.62
C42.69 86.95 42.52 87.44 42.44 88.07
L42.43 88.19
L42.54 88.23
L43.12 88.38
L43.28 88.43
L43.29 88.26
C43.33 87.85 43.42 87.55 43.56 87.36
C43.68 87.19 43.83 87.10 44.00 87.10
C44.00 87.10 44.00 87.10 44.00 87.10
C44.00 87.10 44.00 87.10 44.00 87.10
C44.17 87.10 44.31 87.19 44.43 87.35
C44.56 87.53 44.62 87.77 44.62 88.07
C44.62 88.40 44.54 88.66 44.39 88.85
C44.24 89.03 44.05 89.12 43.82 89.12
L43.82 89.12
L43.74 89.11
L43.59 89.10
L43.58 89.24
L43.51 90.01
L43.49 90.24
L43.71 90.15
C43.85 90.10 43.97 90.07 44.06 90.07
C44.06 90.07 44.06 90.07 44.06 90.07
C44.06 90.07 44.06 90.07 44.06 90.07
C44.27 90.07 44.45 90.17 44.59 90.39
C44.75 90.61 44.83 90.92 44.83 91.31
C44.83 91.72 44.74 92.05 44.57 92.30
C44.41 92.54 44.22 92.65 44.01 92.65
C44.01 92.65 44.01 92.65 44.00 92.65
C44.00 92.65 44.00 92.65 44.00 92.65
C43.81 92.65 43.66 92.56 43.53 92.37
C43.39 92.15 43.30 91.82 43.24 91.38
L43.22 91.23
L43.07 91.26
L42.50 91.38
L42.37 91.40
L42.38 91.52
C42.42 92.16 42.59 92.68 42.89 93.06
C43.19 93.46 43.57 93.66 44.01 93.66
C44.49 93.66 44.90 93.43 45.23 92.98
C45.56 92.54 45.72 91.98 45.72 91.29
C45.72 90.97 45.68 90.68 45.61 90.41
C45.53 90.15 45.42 89.93 45.28 89.77
C45.20 89.66 45.09 89.57 44.97 89.50
L44.97 89.50
C45.11 89.37 45.23 89.20 45.31 89.01
C45.43 88.74 45.50 88.43 45.50 88.09
C45.49 87.53 45.35 87.06 45.07 86.68
C44.78 86.30 44.42 86.10 43.99 86.10
Z
" fill="white" fill-rule="nonzero" />
<path d="
M42.16 181.39
C41.68 181.39 41.26 181.56 40.92 181.89
C40.59 182.22 40.37 182.70 40.28 183.33
L40.26 183.46
L40.39 183.49
L41.09 183.65
L41.24 183.68
L41.26 183.53
C41.31 183.13 41.42 182.84 41.59 182.65
C41.74 182.47 41.94 182.38 42.17 182.38
C42.17 182.38 42.17 182.38 42.17 182.38
C42.17 182.38 42.17 182.38 42.17 182.38
C42.39 182.38 42.58 182.47 42.73 182.64
C42.89 182.81 42.97 183.04 42.97 183.34
C42.97 183.65 42.87 183.91 42.68 184.09
C42.49 184.28 42.25 184.37 41.94 184.37
L41.94 184.37
L41.84 184.37
L41.70 184.35
L41.68 184.49
L41.60 185.25
L41.58 185.47
L41.58 185.47
L41.78 185.40
C41.97 185.34 42.12 185.31 42.24 185.31
C42.24 185.31 42.24 185.31 42.24 185.31
C42.24 185.31 42.24 185.31 42.24 185.31
C42.52 185.31 42.75 185.42 42.94 185.64
C43.13 185.86 43.23 186.16 43.23 186.53
C43.23 186.93 43.12 187.26 42.91 187.50
C42.70 187.74 42.45 187.86 42.18 187.86
C42.17 187.86 42.17 187.86 42.17 187.86
C42.17 187.86 42.17 187.86 42.17 187.86
C41.92 187.86 41.71 187.77 41.56 187.57
C41.38 187.36 41.26 187.04 41.19 186.60
L41.17 186.46
L41.03 186.48
L40.32 186.60
L40.19 186.62
L40.20 186.75
C40.25 187.39 40.46 187.90 40.83 188.28
C41.20 188.67 41.65 188.86 42.18 188.86
C42.75 188.86 43.25 188.64 43.65 188.20
C44.06 187.76 44.26 187.20 44.26 186.52
C44.26 186.20 44.21 185.90 44.12 185.64
C44.01 185.38 43.88 185.16 43.72 185.00
C43.61 184.90 43.49 184.81 43.35 184.75
L43.35 184.75
C43.51 184.62 43.65 184.46 43.75 184.27
C43.90 184.01 43.98 183.70 43.98 183.35
C43.98 182.79 43.80 182.33 43.45 181.95
C43.10 181.58 42.67 181.39 42.16 181.39
Z
" fill="white" fill-rule="nonzero" />
<path d="
M55.93 39.35
C56.21 39.35 56.44 39.54 56.62 39.93
C56.79 40.33 56.88 41.10 56.88 42.26
C56.88 43.41 56.79 44.18 56.62 44.58
C56.44 44.98 56.22 45.18 55.96 45.18
C55.68 45.18 55.46 44.98 55.28 44.59
C55.10 44.19 55.01 43.42 55.01 42.26
C55.01 41.12 55.10 40.34 55.27 39.94
C55.45 39.55 55.67 39.35 55.93 39.35
Z
M52.58 38.62
C52.48 38.93 52.31 39.25 52.07 39.58
C51.83 39.91 51.55 40.18 51.23 40.41
L51.23 41.26
C51.42 41.15 51.63 41.00 51.85 40.80
C52.07 40.59 52.25 40.40 52.38 40.20
L52.38 45.77
L52.96 45.77
L52.96 38.62
Z
M55.95 38.62
C55.45 38.62 55.07 38.93 54.81 39.55
C54.55 40.16 54.43 41.07 54.43 42.26
C54.43 43.60 54.57 44.54 54.85 45.08
C55.13 45.62 55.50 45.90 55.95 45.90
C56.45 45.90 56.83 45.59 57.09 44.97
C57.34 44.35 57.47 43.45 57.47 42.26
C57.47 40.94 57.32 39.97 57.01 39.37
C56.75 38.87 56.40 38.62 55.95 38.62
Z
" fill="black" fill-rule="nonzero" />
<path d="
M54.14 63.34
C54.14 63.34 54.14 63.34 54.15 63.34
C54.15 63.34 54.15 63.34 54.15 63.34
C54.39 63.34 54.61 63.46 54.81 63.71
C55.01 63.97 55.11 64.34 55.11 64.81
C55.11 65.28 55.01 65.64 54.82 65.89
C54.63 66.13 54.40 66.25 54.13 66.25
C54.13 66.25 54.13 66.25 54.13 66.25
C54.13 66.25 54.13 66.25 54.13 66.25
C53.86 66.25 53.62 66.13 53.42 65.89
C53.22 65.65 53.12 65.31 53.12 64.88
C53.12 64.40 53.23 64.02 53.44 63.74
C53.65 63.47 53.89 63.34 54.14 63.34
Z
M54.06 62.34
C53.51 62.34 53.05 62.57 52.67 63.02
C52.29 63.47 52.10 64.08 52.10 64.85
C52.10 65.60 52.29 66.19 52.65 66.63
C53.02 67.08 53.46 67.30 53.97 67.30
C54.26 67.30 54.54 67.21 54.81 67.03
C54.95 66.93 55.07 66.83 55.18 66.70
L55.18 66.70
C55.16 67.12 55.10 67.48 54.99 67.80
C54.87 68.19 54.72 68.46 54.55 68.60
C54.38 68.74 54.20 68.81 53.99 68.81
C53.99 68.81 53.99 68.81 53.99 68.81
C53.99 68.81 53.99 68.81 53.99 68.81
C53.77 68.81 53.59 68.73 53.46 68.58
C53.32 68.42 53.22 68.16 53.17 67.82
L53.15 67.68
L53.02 67.70
L52.34 67.78
L52.20 67.79
L52.21 67.93
C52.27 68.53 52.46 68.99 52.78 69.31
C53.10 69.64 53.50 69.80 53.98 69.80
C54.40 69.80 54.78 69.67 55.11 69.40
C55.45 69.14 55.71 68.73 55.90 68.17
C56.09 67.62 56.18 66.85 56.18 65.87
C56.18 64.99 56.10 64.31 55.92 63.83
C55.74 63.34 55.49 62.97 55.15 62.72
C54.82 62.46 54.45 62.34 54.06 62.34
Z
" fill="white" fill-rule="nonzero" />
<path d="
M52.48 74.26
L52.45 74.36
C52.35 74.65 52.19 74.96 51.96 75.27
C51.72 75.59 51.46 75.85 51.15 76.07
L51.09 76.12
L51.09 76.19
L51.09 77.03
L51.09 77.27
L51.30 77.16
C51.50 77.05 51.71 76.89 51.94 76.68
C52.05 76.58 52.15 76.48 52.24 76.39
L52.24 76.39
L52.24 81.55
L52.24 81.69
L53.10 81.69
L53.10 81.55
L53.10 74.40
L53.10 74.26
Z
M56.11 74.26
L56.08 74.36
C55.98 74.65 55.82 74.96 55.59 75.27
C55.35 75.59 55.09 75.85 54.78 76.07
L54.72 76.12
L54.72 76.19
L54.72 77.03
L54.72 77.27
L54.93 77.16
C55.13 77.05 55.34 76.89 55.57 76.68
C55.68 76.58 55.78 76.48 55.87 76.39
L55.87 76.39
L55.87 81.55
L55.87 81.69
L56.73 81.69
L56.73 81.55
L56.73 74.40
L56.73 74.26
Z
" fill="white" fill-rule="nonzero" />
<path d="
M135.70 181.55
C135.26 181.55 134.91 181.72 134.64 182.07
C134.37 182.41 134.22 182.93 134.18 183.61
L134.77 183.70
C134.77 183.24 134.85 182.89 135.02 182.64
C135.19 182.40 135.41 182.27 135.68 182.27
C135.93 182.27 136.14 182.39 136.31 182.62
C136.48 182.84 136.56 183.14 136.56 183.50
C136.56 183.82 136.48 184.16 136.31 184.52
C136.15 184.89 135.80 185.40 135.26 186.07
C134.80 186.64 134.49 187.14 134.31 187.56
C134.14 187.98 134.06 188.36 134.07 188.70
L137.16 188.70
L137.16 187.86
L134.86 187.86
C134.93 187.70 135.01 187.54 135.11 187.38
C135.21 187.23 135.43 186.93 135.77 186.49
C136.31 185.80 136.67 185.24 136.86 184.83
C137.05 184.41 137.15 183.98 137.15 183.52
C137.15 183.01 137.03 182.55 136.78 182.15
C136.54 181.75 136.18 181.55 135.70 181.55
Z
M139.33 181.55
C138.89 181.55 138.54 181.72 138.27 182.07
C138.00 182.41 137.85 182.93 137.81 183.61
L138.40 183.70
C138.40 183.24 138.48 182.89 138.65 182.64
C138.83 182.40 139.04 182.27 139.31 182.27
C139.56 182.27 139.77 182.39 139.94 182.62
C140.11 182.84 140.19 183.14 140.19 183.50
C140.19 183.82 140.11 184.16 139.94 184.52
C139.78 184.89 139.43 185.40 138.89 186.07
C138.43 186.64 138.12 187.14 137.94 187.56
C137.77 187.98 137.69 188.36 137.70 188.70
L140.79 188.70
L140.79 187.86
L138.49 187.86
C138.56 187.70 138.64 187.54 138.74 187.38
C138.84 187.23 139.06 186.93 139.40 186.49
C139.94 185.80 140.30 185.24 140.49 184.83
C140.68 184.41 140.78 183.98 140.78 183.52
C140.78 183.01 140.66 182.55 140.41 182.15
C140.17 181.75 139.81 181.55 139.33 181.55
Z
" fill="black" fill-rule="nonzero" />
<path d="
M151.21 27.58
C151.21 27.58 151.21 27.58 151.21 27.58
C151.21 27.58 151.21 27.58 151.21 27.58
C151.39 27.58 151.56 27.71 151.71 27.95
C151.88 28.22 151.96 28.60 151.96 29.08
C151.96 29.56 151.88 29.93 151.72 30.19
C151.58 30.42 151.40 30.54 151.20 30.54
C151.20 30.54 151.20 30.54 151.20 30.54
C151.20 30.54 151.19 30.54 151.19 30.54
C150.99 30.54 150.81 30.42 150.65 30.19
C150.49 29.94 150.40 29.59 150.40 29.15
C150.40 28.66 150.49 28.27 150.67 27.98
C150.83 27.72 151.01 27.58 151.21 27.58
Z
M147.72 26.58
L147.69 26.67
C147.60 26.97 147.44 27.28 147.20 27.59
C146.97 27.91 146.70 28.17 146.40 28.39
L146.34 28.43
L146.34 28.51
L146.34 29.35
L146.34 29.59
L146.55 29.47
C146.74 29.37 146.96 29.21 147.19 29.00
C147.30 28.90 147.40 28.80 147.48 28.70
L147.48 28.70
L147.48 33.87
L147.48 34.01
L148.34 34.01
L148.34 33.87
L148.34 26.72
L148.34 26.58
Z
M151.14 26.58
C150.68 26.58 150.30 26.81 149.98 27.28
C149.68 27.74 149.53 28.35 149.53 29.12
C149.53 29.87 149.67 30.47 149.97 30.91
C150.27 31.37 150.64 31.59 151.07 31.60
C151.31 31.60 151.55 31.50 151.78 31.31
C151.87 31.24 151.95 31.15 152.02 31.06
L152.02 31.06
C152.00 31.45 151.95 31.81 151.87 32.12
C151.77 32.51 151.64 32.78 151.50 32.93
C151.38 33.06 151.24 33.13 151.09 33.13
C151.09 33.13 151.09 33.13 151.08 33.13
C151.08 33.13 151.08 33.13 151.08 33.13
C150.92 33.13 150.78 33.06 150.68 32.91
C150.57 32.74 150.49 32.48 150.45 32.13
L150.43 31.98
L150.29 32.00
L149.74 32.08
L149.60 32.10
L149.61 32.23
C149.66 32.84 149.82 33.30 150.07 33.62
C150.34 33.96 150.67 34.13 151.07 34.13
C151.42 34.13 151.74 33.99 152.02 33.72
C152.29 33.45 152.50 33.03 152.66 32.47
C152.81 31.92 152.89 31.14 152.89 30.15
C152.89 29.26 152.82 28.58 152.67 28.10
C152.53 27.61 152.32 27.23 152.05 26.97
C151.77 26.71 151.47 26.58 151.14 26.58
Z
" fill="white" fill-rule="nonzero" />
<path d="
M159.51 157.60
C159.03 157.60 158.64 157.79 158.34 158.17
C158.05 158.54 157.89 159.08 157.85 159.79
L157.84 159.92
L157.97 159.94
L158.56 160.03
L158.72 160.06
L158.72 159.89
C158.72 159.46 158.80 159.13 158.95 158.91
C159.09 158.71 159.27 158.60 159.49 158.60
C159.49 158.60 159.49 158.60 159.49 158.60
C159.49 158.60 159.49 158.60 159.50 158.60
C159.70 158.60 159.87 158.70 160.01 158.89
C160.16 159.09 160.23 159.36 160.23 159.69
C160.23 159.99 160.15 160.31 160.00 160.65
C159.84 161.00 159.49 161.51 158.96 162.17
C158.49 162.75 158.17 163.26 157.99 163.70
C157.81 164.13 157.73 164.53 157.74 164.89
L157.74 165.03
L161.11 165.03
L161.11 164.89
L161.11 164.05
L161.11 163.91
L158.89 163.91
C158.94 163.82 158.98 163.74 159.04 163.65
C159.14 163.49 159.35 163.20 159.69 162.77
C160.24 162.07 160.61 161.50 160.80 161.08
C161.00 160.64 161.10 160.19 161.10 159.71
C161.10 159.17 160.97 158.69 160.71 158.27
C160.44 157.82 160.04 157.60 159.51 157.60
Z
M163.26 157.60
L163.23 157.70
C163.13 157.99 162.97 158.30 162.74 158.61
C162.50 158.93 162.24 159.19 161.93 159.41
L161.87 159.45
L161.87 159.53
L161.87 160.37
L161.87 160.61
L162.08 160.50
C162.28 160.39 162.49 160.23 162.72 160.02
C162.83 159.92 162.93 159.82 163.02 159.72
L163.02 159.72
L163.02 164.89
L163.02 165.03
L163.88 165.03
L163.88 164.89
L163.88 157.74
L163.88 157.60
Z
" fill="white" fill-rule="nonzero" />
<path d="
M163.14 184.79
C163.39 184.79 163.61 184.93 163.78 185.21
C163.96 185.49 164.05 185.88 164.05 186.39
C164.05 186.90 163.96 187.31 163.78 187.60
C163.60 187.90 163.40 188.04 163.18 188.04
C162.92 188.04 162.69 187.89 162.50 187.57
C162.31 187.26 162.21 186.85 162.21 186.33
C162.21 185.86 162.30 185.49 162.49 185.21
C162.67 184.93 162.89 184.79 163.14 184.79
Z
M159.73 181.49
C159.63 181.80 159.46 182.12 159.22 182.45
C158.98 182.77 158.70 183.05 158.38 183.28
L158.38 184.12
C158.57 184.02 158.78 183.87 159.00 183.66
C159.22 183.46 159.40 183.26 159.53 183.07
L159.53 188.64
L160.11 188.64
L160.11 181.49
Z
M163.22 181.49
C162.73 181.49 162.33 181.78 162.02 182.37
C161.70 182.95 161.55 183.93 161.55 185.31
C161.55 186.55 161.70 187.43 162.01 187.97
C162.31 188.50 162.70 188.76 163.17 188.76
C163.43 188.76 163.67 188.67 163.89 188.49
C164.11 188.30 164.29 188.01 164.43 187.63
C164.56 187.24 164.63 186.81 164.63 186.33
C164.63 185.63 164.50 185.07 164.22 184.65
C163.94 184.23 163.62 184.02 163.25 184.02
C163.03 184.02 162.82 184.10 162.62 184.26
C162.42 184.42 162.25 184.66 162.12 184.97
C162.12 184.09 162.21 183.43 162.38 182.99
C162.59 182.47 162.85 182.21 163.19 182.21
C163.40 182.21 163.59 182.32 163.74 182.55
C163.85 182.70 163.93 182.96 163.98 183.33
L164.55 183.26
C164.50 182.69 164.35 182.25 164.12 181.94
C163.88 181.64 163.58 181.49 163.22 181.49
Z
" fill="black" fill-rule="nonzero" />
<path d="
M174.98 110.78
C175.26 110.78 175.49 110.98 175.67 111.37
C175.85 111.76 175.94 112.54 175.94 113.70
C175.94 114.84 175.85 115.61 175.67 116.01
C175.50 116.41 175.28 116.61 175.02 116.61
C174.74 116.61 174.51 116.41 174.33 116.02
C174.16 115.63 174.07 114.85 174.07 113.70
C174.07 112.55 174.15 111.78 174.33 111.38
C174.50 110.98 174.72 110.78 174.98 110.78
Z
M171.42 110.06
C170.98 110.06 170.63 110.23 170.36 110.57
C170.09 110.92 169.93 111.43 169.89 112.12
L170.48 112.21
C170.48 111.75 170.57 111.40 170.74 111.15
C170.91 110.90 171.13 110.78 171.40 110.78
C171.65 110.78 171.86 110.89 172.03 111.12
C172.19 111.35 172.28 111.65 172.28 112.01
C172.28 112.32 172.20 112.66 172.03 113.03
C171.87 113.39 171.51 113.91 170.98 114.57
C170.52 115.15 170.20 115.64 170.03 116.07
C169.86 116.49 169.78 116.87 169.78 117.21
L172.87 117.21
L172.87 116.37
L170.58 116.37
C170.64 116.21 170.72 116.05 170.82 115.89
C170.92 115.73 171.14 115.43 171.49 115.00
C172.02 114.30 172.39 113.75 172.58 113.33
C172.77 112.92 172.87 112.48 172.87 112.03
C172.87 111.52 172.74 111.06 172.50 110.66
C172.25 110.26 171.89 110.06 171.42 110.06
Z
M175.01 110.06
C174.51 110.06 174.13 110.36 173.87 110.98
C173.61 111.59 173.48 112.50 173.48 113.70
C173.48 115.03 173.62 115.97 173.91 116.51
C174.19 117.06 174.55 117.33 175.00 117.33
C175.51 117.33 175.89 117.02 176.14 116.40
C176.40 115.79 176.53 114.88 176.53 113.70
C176.53 112.37 176.37 111.41 176.06 110.80
C175.80 110.31 175.45 110.06 175.01 110.06
Z
" fill="black" fill-rule="nonzero" />
<path d="
M185.32 38.59
L185.28 38.68
C185.17 38.97 184.97 39.27 184.68 39.58
C184.39 39.89 184.06 40.15 183.68 40.37
L183.61 40.41
L183.61 40.49
L183.61 41.33
L183.61 41.55
L183.81 41.46
C184.05 41.35 184.31 41.20 184.59 40.99
C184.75 40.87 184.90 40.75 185.02 40.64
L185.02 40.64
L185.02 45.79
L185.02 45.93
L186.02 45.93
L186.02 45.79
L186.02 38.73
L186.02 38.59
Z
" fill="white" fill-rule="nonzero" />
<path d="
M186.34 172.10
L186.34 172.10
L186.34 172.10
C186.34 172.10 186.34 172.10 186.34 172.10
Z
M183.44 169.44
L183.41 169.54
C183.31 169.84 183.15 170.14 182.92 170.46
C182.69 170.77 182.42 171.04 182.11 171.26
L182.05 171.30
L182.05 171.37
L182.05 172.22
L182.05 172.46
L182.26 172.34
C182.46 172.23 182.67 172.07 182.90 171.86
C183.01 171.76 183.11 171.67 183.20 171.57
L183.20 171.57
L183.20 176.74
L183.20 176.88
L184.06 176.88
L184.06 176.74
L184.06 169.58
L184.06 169.44
Z
M185.82 169.57
L185.80 169.69
L185.35 173.35
L185.33 173.48
L185.46 173.51
L186.00 173.61
L186.11 173.64
L186.16 173.53
C186.24 173.33 186.34 173.18 186.48 173.08
C186.60 172.98 186.73 172.93 186.87 172.93
C186.87 172.93 186.87 172.93 186.87 172.93
C186.88 172.93 186.88 172.93 186.88 172.93
C187.12 172.93 187.31 173.05 187.47 173.29
C187.65 173.54 187.74 173.91 187.74 174.39
C187.74 174.90 187.64 175.30 187.46 175.59
C187.29 175.86 187.10 176.00 186.88 176.00
C186.88 176.00 186.88 176.00 186.88 176.00
C186.88 176.00 186.88 176.00 186.88 176.00
C186.71 176.00 186.55 175.90 186.42 175.72
C186.27 175.52 186.17 175.20 186.13 174.78
L186.11 174.63
L185.97 174.65
L185.37 174.73
L185.24 174.75
L185.24 174.88
C185.29 175.53 185.45 176.04 185.75 176.42
C186.06 176.80 186.44 177.00 186.89 177.00
C187.43 177.00 187.86 176.72 188.17 176.18
C188.47 175.66 188.63 175.04 188.63 174.32
C188.63 173.58 188.47 173.00 188.17 172.56
C187.85 172.10 187.47 171.87 187.03 171.87
C186.79 171.87 186.56 171.95 186.34 172.10
L186.34 172.10
L186.52 170.69
L188.40 170.69
L188.40 170.55
L188.40 169.71
L188.40 169.57
Z
" fill="white" fill-rule="nonzero" />
<path d="
M185.48 194.90
L185.48 198.07
L183.67 198.07
L185.48 194.90
Z
M185.61 193.51
L182.98 198.07
L182.98 198.86
L185.48 198.86
L185.48 200.55
L186.19 200.55
L186.19 198.86
L186.97 198.86
L186.97 198.07
L186.19 198.07
L186.19 193.51
Z
" fill="black" fill-rule="nonzero" />
<path d="
M196.95 52.12
L198.01 54.97
L195.91 54.97
L196.95 52.12
Z
M196.15 50.33
L193.16 58.00
L194.81 58.00
L195.44 56.26
L198.50 56.26
L199.17 58.00
L200.86 58.00
L197.79 50.33
Z
" fill="black" fill-rule="nonzero" />
<path d="
M198.82 75.06
C199.03 75.06 199.21 75.16 199.36 75.38
C199.51 75.59 199.59 75.86 199.59 76.20
C199.59 76.52 199.51 76.78 199.37 76.99
C199.22 77.19 199.04 77.29 198.83 77.29
C198.62 77.29 198.43 77.19 198.29 76.98
C198.14 76.78 198.07 76.50 198.07 76.15
C198.07 75.84 198.14 75.58 198.29 75.37
C198.44 75.16 198.62 75.06 198.82 75.06
Z
M198.82 78.01
C199.08 78.01 199.31 78.14 199.50 78.41
C199.68 78.68 199.78 79.03 199.78 79.47
C199.78 79.90 199.69 80.25 199.50 80.50
C199.32 80.76 199.10 80.89 198.83 80.89
C198.57 80.89 198.34 80.76 198.16 80.49
C197.97 80.23 197.87 79.87 197.87 79.44
C197.87 79.01 197.97 78.67 198.15 78.41
C198.33 78.14 198.55 78.01 198.82 78.01
Z
M195.45 74.34
C195.35 74.65 195.18 74.97 194.94 75.30
C194.70 75.62 194.42 75.90 194.10 76.13
L194.10 76.97
C194.29 76.87 194.49 76.72 194.71 76.51
C194.94 76.31 195.12 76.11 195.25 75.92
L195.25 81.49
L195.82 81.49
L195.82 74.34
Z
M198.82 74.34
C198.43 74.34 198.11 74.51 197.86 74.85
C197.60 75.19 197.47 75.63 197.47 76.17
C197.47 76.53 197.53 76.83 197.65 77.07
C197.77 77.31 197.94 77.50 198.17 77.63
C197.90 77.74 197.68 77.95 197.52 78.26
C197.37 78.57 197.29 78.96 197.29 79.44
C197.29 80.09 197.43 80.61 197.73 81.01
C198.02 81.41 198.39 81.61 198.83 81.61
C199.27 81.61 199.63 81.41 199.92 81.01
C200.22 80.61 200.37 80.10 200.37 79.46
C200.37 79.00 200.29 78.61 200.14 78.30
C199.99 77.99 199.77 77.77 199.49 77.63
C199.72 77.50 199.89 77.31 200.00 77.07
C200.12 76.83 200.18 76.54 200.18 76.20
C200.18 75.65 200.05 75.21 199.79 74.86
C199.53 74.51 199.21 74.34 198.82 74.34
Z
" fill="black" fill-rule="nonzero" />
<path d="
M197.04 113.36
C197.35 113.36 197.62 113.50 197.84 113.78
C198.06 114.05 198.16 114.44 198.16 114.94
C198.16 115.45 198.05 115.85 197.84 116.14
C197.62 116.43 197.37 116.57 197.09 116.57
C196.77 116.57 196.49 116.42 196.25 116.11
C196.01 115.80 195.89 115.39 195.89 114.89
C195.89 114.42 196.01 114.05 196.24 113.77
C196.47 113.50 196.73 113.36 197.04 113.36
Z
M197.15 110.10
C196.54 110.10 196.05 110.39 195.66 110.97
C195.27 111.54 195.08 112.51 195.08 113.87
C195.08 115.10 195.27 115.97 195.64 116.50
C196.02 117.02 196.50 117.28 197.08 117.28
C197.41 117.28 197.70 117.19 197.97 117.01
C198.24 116.83 198.46 116.55 198.63 116.16
C198.80 115.78 198.89 115.36 198.89 114.89
C198.89 114.19 198.72 113.64 198.38 113.22
C198.04 112.81 197.64 112.60 197.18 112.60
C196.90 112.60 196.64 112.68 196.40 112.84
C196.15 113.00 195.95 113.23 195.78 113.54
C195.79 112.67 195.90 112.02 196.11 111.58
C196.36 111.07 196.69 110.81 197.10 110.81
C197.37 110.81 197.60 110.92 197.78 111.15
C197.92 111.30 198.02 111.56 198.08 111.92
L198.79 111.85
C198.72 111.28 198.54 110.85 198.25 110.55
C197.95 110.25 197.58 110.10 197.15 110.10
Z
" fill="black" fill-rule="nonzero" />
<path d="
M195.35 133.79
L195.31 133.89
C195.22 134.18 195.06 134.49 194.82 134.80
C194.59 135.12 194.32 135.38 194.02 135.60
L193.96 135.64
L193.96 135.72
L193.96 136.56
L193.96 136.80
L194.17 136.69
C194.37 136.58 194.58 136.42 194.81 136.21
C194.92 136.11 195.02 136.01 195.11 135.91
L195.11 135.91
L195.11 141.08
L195.11 141.22
L195.96 141.22
L195.96 141.08
L195.96 133.93
L195.96 133.79
Z
M197.19 133.91
L197.19 134.05
L197.19 134.89
L197.19 135.03
L199.38 135.03
C199.13 135.50 198.89 136.05 198.67 136.68
C198.42 137.41 198.22 138.17 198.07 138.97
C197.93 139.77 197.85 140.47 197.84 141.08
L197.84 141.22
L198.57 141.22
L198.71 141.22
L198.72 141.09
C198.77 139.94 198.96 138.79 199.30 137.63
C199.64 136.47 200.03 135.52 200.47 134.80
L200.50 134.77
L200.50 134.73
L200.50 134.05
L200.50 133.91
Z
" fill="white" fill-rule="nonzero" />
<path d="
M196.25 172.09
L196.25 172.09
L196.25 172.09
C196.25 172.09 196.25 172.09 196.25 172.09
Z
M195.68 169.55
L195.66 169.67
L195.10 173.28
L195.07 173.42
L195.21 173.44
L195.88 173.55
L195.98 173.57
L196.03 173.47
C196.13 173.28 196.26 173.13 196.42 173.03
C196.59 172.92 196.76 172.87 196.95 172.87
C196.95 172.87 196.95 172.87 196.95 172.87
C196.95 172.87 196.95 172.87 196.95 172.87
C197.26 172.87 197.52 172.99 197.73 173.24
C197.94 173.49 198.05 173.84 198.05 174.31
C198.05 174.81 197.93 175.21 197.71 175.49
C197.50 175.76 197.25 175.90 196.96 175.90
C196.96 175.90 196.96 175.90 196.95 175.90
C196.95 175.90 196.95 175.90 196.95 175.90
C196.73 175.90 196.52 175.80 196.35 175.61
C196.17 175.42 196.05 175.11 196.00 174.69
L195.98 174.56
L195.84 174.57
L195.10 174.65
L194.96 174.66
L194.97 174.80
C195.02 175.45 195.23 175.96 195.60 176.33
C195.97 176.70 196.43 176.89 196.96 176.89
C197.61 176.89 198.13 176.63 198.52 176.10
C198.89 175.58 199.08 174.96 199.08 174.24
C199.08 173.51 198.89 172.93 198.51 172.49
C198.12 172.05 197.67 171.82 197.14 171.82
C196.83 171.82 196.53 171.91 196.25 172.09
L196.25 172.09
L196.48 170.66
L198.80 170.66
L198.80 170.52
L198.80 169.69
L198.80 169.55
Z
" fill="white" fill-rule="nonzero" />
<path d="
M199.13 182.98
L199.13 186.19
L197.67 186.19
L199.13 182.98
Z
M195.45 181.55
C195.35 181.86 195.18 182.18 194.94 182.51
C194.70 182.83 194.42 183.11 194.10 183.34
L194.10 184.18
C194.29 184.08 194.49 183.93 194.71 183.72
C194.94 183.52 195.12 183.32 195.25 183.13
L195.25 188.70
L195.82 188.70
L195.82 181.55
Z
M199.24 181.58
L197.11 186.19
L197.11 187.00
L199.13 187.00
L199.13 188.70
L199.71 188.70
L199.71 187.00
L200.34 187.00
L200.34 186.19
L199.71 186.19
L199.71 181.58
Z
" fill="black" fill-rule="nonzero" />
</g>
<g  transform="translate(1.19,228.58)" >
<path d="
M109.47 2.72
C109.30 2.72 109.16 2.78 109.05 2.89
C108.93 3.01 108.88 3.15 108.88 3.31
C108.88 3.47 108.93 3.61 109.05 3.73
C109.17 3.84 109.31 3.90 109.47 3.90
C109.63 3.90 109.77 3.84 109.88 3.73
C110.00 3.61 110.06 3.47 110.06 3.31
C110.06 3.15 110.00 3.01 109.88 2.89
C109.77 2.78 109.63 2.72 109.47 2.72
Z
M114.44 7.81
L114.44 9.84
C113.96 10.23 113.57 10.42 113.28 10.42
C113.06 10.42 112.87 10.33 112.70 10.15
C112.53 9.96 112.45 9.73 112.45 9.45
C112.45 9.23 112.52 9.03 112.65 8.84
C112.78 8.66 113.00 8.48 113.31 8.31
C113.48 8.21 113.85 8.05 114.44 7.81
Z
M102.79 3.55
C103.72 3.55 104.48 3.86 105.07 4.49
C105.67 5.12 105.96 5.98 105.96 7.06
C105.96 8.15 105.67 9.00 105.07 9.63
C104.48 10.27 103.74 10.58 102.84 10.58
C102.50 10.58 102.09 10.53 101.60 10.42
L101.60 3.72
C102.04 3.60 102.44 3.55 102.79 3.55
Z
M99.35 3.11
L99.35 3.32
L99.64 3.32
C99.94 3.32 100.17 3.41 100.32 3.58
C100.43 3.70 100.48 4.01 100.48 4.50
L100.48 9.59
C100.48 10.04 100.44 10.33 100.35 10.45
C100.21 10.67 99.98 10.77 99.64 10.77
L99.35 10.77
L99.35 10.99
L102.87 10.99
C104.40 10.99 105.54 10.58 106.29 9.76
C106.96 9.02 107.29 8.10 107.29 7.01
C107.29 6.19 107.10 5.47 106.73 4.84
C106.35 4.22 105.86 3.77 105.25 3.51
C104.63 3.24 103.74 3.11 102.56 3.11
Z
M109.70 5.51
L108.09 6.16
L108.17 6.37
C108.33 6.31 108.46 6.28 108.57 6.28
C108.67 6.28 108.75 6.30 108.81 6.35
C108.86 6.40 108.91 6.49 108.93 6.61
C108.97 6.78 108.99 7.16 108.99 7.73
L108.99 9.79
C108.99 10.11 108.96 10.34 108.91 10.45
C108.86 10.57 108.79 10.65 108.70 10.70
C108.61 10.75 108.43 10.78 108.17 10.78
L108.17 10.99
L110.76 10.99
L110.76 10.78
C110.51 10.78 110.33 10.75 110.24 10.70
C110.14 10.64 110.07 10.56 110.02 10.45
C109.98 10.34 109.95 10.12 109.95 9.79
L109.95 5.51
Z
M125.60 2.94
L123.68 3.88
L123.77 4.06
C124.03 3.94 124.23 3.88 124.37 3.88
C124.47 3.88 124.56 3.91 124.63 3.97
C124.70 4.02 124.75 4.12 124.78 4.24
C124.81 4.40 124.83 4.77 124.83 5.34
L124.83 9.60
C124.83 10.07 124.81 10.36 124.77 10.45
C124.73 10.55 124.65 10.62 124.54 10.68
C124.43 10.73 124.19 10.77 123.82 10.77
L123.82 10.99
L126.79 10.99
L126.79 10.77
C126.43 10.77 126.19 10.73 126.08 10.67
C125.96 10.62 125.88 10.53 125.85 10.42
C125.81 10.32 125.79 10.04 125.79 9.60
L125.79 2.94
Z
M113.63 5.51
C113.01 5.51 112.53 5.65 112.19 5.93
C111.85 6.20 111.68 6.51 111.68 6.84
C111.68 7.02 111.72 7.16 111.81 7.26
C111.91 7.36 112.02 7.41 112.17 7.41
C112.31 7.41 112.43 7.36 112.52 7.26
C112.62 7.17 112.66 7.03 112.66 6.85
L112.65 6.51
C112.65 6.34 112.72 6.19 112.87 6.06
C113.01 5.93 113.21 5.86 113.45 5.86
C113.77 5.86 114.02 5.96 114.19 6.16
C114.36 6.36 114.44 6.72 114.44 7.25
L114.44 7.46
C113.53 7.79 112.87 8.08 112.48 8.31
C112.08 8.54 111.81 8.79 111.65 9.05
C111.53 9.24 111.47 9.47 111.47 9.73
C111.47 10.14 111.59 10.47 111.83 10.72
C112.07 10.97 112.37 11.10 112.74 11.10
C112.98 11.10 113.20 11.05 113.41 10.95
C113.55 10.89 113.89 10.64 114.44 10.22
C114.44 10.54 114.50 10.76 114.61 10.90
C114.73 11.03 114.88 11.09 115.07 11.09
C115.46 11.09 115.88 10.80 116.31 10.22
L116.31 9.90
C116.08 10.13 115.92 10.27 115.84 10.32
C115.79 10.35 115.74 10.36 115.68 10.36
C115.62 10.36 115.57 10.34 115.52 10.30
C115.48 10.26 115.45 10.19 115.43 10.07
C115.41 9.96 115.40 9.65 115.40 9.14
L115.40 7.33
C115.40 6.82 115.36 6.48 115.29 6.31
C115.19 6.05 115.02 5.87 114.79 5.75
C114.49 5.59 114.10 5.51 113.63 5.51
Z
M117.82 9.86
C117.64 9.86 117.49 9.92 117.37 10.05
C117.24 10.17 117.18 10.32 117.18 10.51
C117.18 10.68 117.24 10.84 117.37 10.96
C117.49 11.09 117.64 11.15 117.82 11.15
C118.00 11.15 118.15 11.09 118.28 10.96
C118.41 10.84 118.47 10.68 118.47 10.51
C118.47 10.33 118.41 10.18 118.28 10.05
C118.16 9.92 118.01 9.86 117.82 9.86
Z
" fill="black" fill-rule="nonzero" />
</g>
</g>
</svg>
