<?xml version="1.0" encoding="utf-8" standalone="no"?>
<!DOCTYPE svg PUBLIC "-//W3C//DTD SVG 1.0//EN" "http://www.w3.org/TR/SVG/DTD/svg11.dtd" >
<svg version="1.1" baseProfile="full"  width="319.13385" height="338.51422" viewBox="0 0 229.77638 243.73024" preserveAspectRatio="xMidYMid" xmlns="http://www.w3.org/2000/svg" >

<g lengthAdjust="spacingAndGlyphs" xml:space='preserve' >
<g  transform="translate(1.19,1.19)" >
<path d="
M0.0 0.0
L0.0 227.39
L227.39 227.39
L227.39 0.0
Z
" fill="none" fill-rule="nonzero" />
<line x1="6.54" y1="6.54" x2="6.54" y2="220.84" fill="none" stroke="black" stroke-width="0.87px" stroke-linecap="square" />
<line x1="18.45" y1="6.54" x2="18.45" y2="220.84" fill="none" stroke="black" stroke-width="0.25px" stroke-linecap="butt" />
<line x1="30.35" y1="6.54" x2="30.35" y2="220.84" fill="none" stroke="black" stroke-width="0.25px" stroke-linecap="butt" />
<line x1="42.26" y1="6.54" x2="42.26" y2="220.84" fill="none" stroke="black" stroke-width="0.25px" stroke-linecap="butt" />
<line x1="54.17" y1="6.54" x2="54.17" y2="220.84" fill="none" stroke="black" stroke-width="0.25px" stroke-linecap="butt" />
<line x1="66.07" y1="6.54" x2="66.07" y2="220.84" fill="none" stroke="black" stroke-width="0.25px" stroke-linecap="butt" />
<line x1="77.98" y1="6.54" x2="77.98" y2="220.84" fill="none" stroke="black" stroke-width="0.25px" stroke-linecap="butt" />
<line x1="89.88" y1="6.54" x2="89.88" y2="220.84" fill="none" stroke="black" stroke-width="0.25px" stroke-linecap="butt" />
<line x1="101.79" y1="6.54" x2="101.79" y2="220.84" fill="none" stroke="black" stroke-width="0.25px" stroke-linecap="butt" />
<line x1="113.69" y1="6.54" x2="113.69" y2="220.84" fill="none" stroke="black" stroke-width="0.25px" stroke-linecap="butt" />
<line x1="125.60" y1="6.54" x2="125.60" y2="220.84" fill="none" stroke="black" stroke-width="0.25px" stroke-linecap="butt" />
<line x1="137.50" y1="6.54" x2="137.50" y2="220.84" fill="none" stroke="black" stroke-width="0.25px" stroke-linecap="butt" />
<line x1="149.41" y1="6.54" x2="149.41" y2="220.84" fill="none" stroke="black" stroke-width="0.25px" stroke-linecap="butt" />
<line x1="161.31" y1="6.54" x2="161.31" y2="220.84" fill="none" stroke="black" stroke-width="0.25px" stroke-linecap="butt" />
<line x1="173.22" y1="6.54" x2="173.22" y2="220.84" fill="none" stroke="black" stroke-width="0.25px" stroke-linecap="butt" />
<line x1="185.13" y1="6.54" x2="185.13" y2="220.84" fill="none" stroke="black" stroke-width="0.25px" stroke-linecap="butt" />
<line x1="197.03" y1="6.54" x2="197.03" y2="220.84" fill="none" stroke="black" stroke-width="0.25px" stroke-linecap="butt" />
<line x1="208.94" y1="6.54" x2="208.94" y2="220.84" fill="none" stroke="black" stroke-width="0.25px" stroke-linecap="butt" />
<line x1="220.84" y1="6.54" x2="220.84" y2="220.84" fill="none" stroke="black" stroke-width="0.87px" stroke-linecap="square" />
<line x1="6.54" y1="6.54" x2="220.84" y2="6.54" fill="none" stroke="black" stroke-width="0.87px" stroke-linecap="square" />
<line x1="6.54" y1="18.45" x2="220.84" y2="18.45" fill="none" stroke="black" stroke-width="0.25px" stroke-linecap="butt" />
<line x1="6.54" y1="30.35" x2="220.84" y2="30.35" fill="none" stroke="black" stroke-width="0.25px" stroke-linecap="butt" />
<line x1="6.54" y1="42.26" x2="220.84" y2="42.26" fill="none" stroke="black" stroke-width="0.25px" stroke-linecap="butt" />
<line x1="6.54" y1="54.17" x2="220.84" y2="54.17" fill="none" stroke="black" stroke-width="0.25px" stroke-linecap="butt" />
<line x1="6.54" y1="66.07" x2="220.84" y2="66.07" fill="none" stroke="black" stroke-width="0.25px" stroke-linecap="butt" />
<line x1="6.54" y1="77.98" x2="220.84" y2="77.98" fill="none" stroke="black" stroke-width="0.25px" stroke-linecap="butt" />
<line x1="6.54" y1="89.88" x2="220.84" y2="89.88" fill="none" stroke="black" stroke-width="0.25px" stroke-linecap="butt" />
<line x1="6.54" y1="101.79" x2="220.84" y2="101.79" fill="none" stroke="black" stroke-width="0.25px" stroke-linecap="butt" />
<line x1="6.54" y1="113.69" x2="220.84" y2="113.69" fill="none" stroke="black" stroke-width="0.25px" stroke-linecap="butt" />
<line x1="6.54" y1="125.60" x2="220.84" y2="125.60" fill="none" stroke="black" stroke-width="0.25px" stroke-linecap="butt" />
<line x1="6.54" y1="137.50" x2="220.84" y2="137.50" fill="none" stroke="black" stroke-width="0.25px" stroke-linecap="butt" />
<line x1="6.54" y1="149.41" x2="220.84" y2="149.41" fill="none" stroke="black" stroke-width="0.25px" stroke-linecap="butt" />
<line x1="6.54" y1="161.31" x2="220.84" y2="161.31" fill="none" stroke="black" stroke-width="0.25px" stroke-linecap="butt" />
<line x1="6.54" y1="173.22" x2="220.84" y2="173.22" fill="none" stroke="black" stroke-width="0.25px" stroke-linecap="butt" />
<line x1="6.54" y1="185.13" x2="220.84" y2="185.13" fill="none" stroke="black" stroke-width="0.25px" stroke-linecap="butt" />
<line x1="6.54" y1="197.03" x2="220.84" y2="197.03" fill="none" stroke="black" stroke-width="0.25px" stroke-linecap="butt" />
<line x1="6.54" y1="208.94" x2="220.84" y2="208.94" fill="none" stroke="black" stroke-width="0.25px" stroke-linecap="butt" />
<line x1="6.54" y1="220.84" x2="220.84" y2="220.84" fill="none" stroke="black" stroke-width="0.87px" stroke-linecap="square" />
<circle cx="42.26" cy="30.35" r="5.89" fill="white"/>
<circle cx="42.26" cy="30.35" r="5.89" fill="none" stroke="black" stroke-width="0.25px"/>
<circle cx="42.26" cy="42.26" r="1.27" fill="black"/>
<circle cx="42.26" cy="113.69" r="1.27" fill="black"/>
<circle cx="42.26" cy="185.13" r="6.01" fill="black"/>
<circle cx="113.69" cy="42.26" r="1.27" fill="black"/>
<circle cx="113.69" cy="113.69" r="1.27" fill="black"/>
<circle cx="113.69" cy="185.13" r="1.27" fill="black"/>
<circle cx="149.41" cy="185.13" r="5.89" fill="white"/>
<circle cx="149.41" cy="185.13" r="5.89" fill="none" stroke="black" stroke-width="0.25px"/>
<circle cx="161.31" cy="185.13" r="5.89" fill="white"/>
<circle cx="161.31" cy="185.13" r="5.89" fill="none" stroke="black" stroke-width="0.25px"/>
<circle cx="173.22" cy="185.13" r="6.01" fill="black"/>
<circle cx="173.22" cy="197.03" r="5.89" fill="white"/>
<circle cx="173.22" cy="197.03" r="5.89" fill="none" stroke="black" stroke-width="0.25px"/>
<circle cx="185.13" cy="42.26" r="6.01" fill="black"/>
<circle cx="185.13" cy="113.69" r="1.27" fill="black"/>
<circle cx="185.13" cy="185.13" r="6.01" fill="black"/>
<circle cx="185.13" cy="197.03" r="5.89" fill="white"/>
<circle cx="185.13" cy="197.03" r="5.89" fill="none" stroke="black" stroke-width="0.25px"/>
<circle cx="197.03" cy="137.50" r="5.89" fill="white"/>
<circle cx="197.03" cy="137.50" r="5.89" fill="none" stroke="black" stroke-width="0.25px"/>
<circle cx="197.03" cy="173.22" r="6.01" fill="black"/>
<circle cx="197.03" cy="197.03" r="6.01" fill="black"/>
<circle cx="197.03" cy="208.94" r="5.89" fill="white"/>
<circle cx="197.03" cy="208.94" r="5.89" fill="none" stroke="black" stroke-width="0.25px"/>
<circle cx="208.94" cy="197.03" r="6.01" fill="black"/>
<circle cx="208.94" cy="208.94" r="6.01" fill="black"/>
<path d="
M42.27 26.82
C41.73 26.82 41.30 26.99 40.97 27.33
C40.64 27.67 40.44 28.18 40.39 28.86
L41.12 28.95
C41.12 28.49 41.23 28.14 41.44 27.90
C41.65 27.66 41.92 27.54 42.25 27.54
C42.56 27.54 42.82 27.65 43.03 27.88
C43.23 28.10 43.34 28.39 43.34 28.75
C43.34 29.06 43.24 29.40 43.03 29.76
C42.83 30.12 42.39 30.63 41.73 31.29
C41.17 31.85 40.78 32.34 40.56 32.76
C40.35 33.17 40.25 33.55 40.26 33.89
L44.07 33.89
L44.07 33.06
L41.24 33.06
C41.32 32.90 41.42 32.74 41.54 32.59
C41.67 32.43 41.94 32.13 42.36 31.70
C43.02 31.02 43.47 30.47 43.71 30.06
C43.95 29.65 44.06 29.22 44.06 28.77
C44.06 28.26 43.91 27.81 43.61 27.42
C43.31 27.02 42.86 26.82 42.27 26.82
Z
" fill="black" fill-rule="nonzero" />
<path d="
M42.16 181.39
C41.68 181.39 41.26 181.56 40.92 181.89
C40.59 182.22 40.37 182.70 40.28 183.33
L40.26 183.46
L40.39 183.49
L41.09 183.65
L41.24 183.68
L41.26 183.53
C41.31 183.13 41.42 182.84 41.59 182.65
C41.74 182.47 41.94 182.38 42.17 182.38
C42.17 182.38 42.17 182.38 42.17 182.38
C42.17 182.38 42.17 182.38 42.17 182.38
C42.39 182.38 42.58 182.47 42.73 182.64
C42.89 182.81 42.97 183.04 42.97 183.34
C42.97 183.65 42.87 183.91 42.68 184.09
C42.49 184.28 42.25 184.37 41.94 184.37
L41.94 184.37
L41.84 184.37
L41.70 184.35
L41.68 184.49
L41.60 185.25
L41.58 185.47
L41.58 185.47
L41.78 185.40
C41.97 185.34 42.12 185.31 42.24 185.31
C42.24 185.31 42.24 185.31 42.24 185.31
C42.24 185.31 42.24 185.31 42.24 185.31
C42.52 185.31 42.75 185.42 42.94 185.64
C43.13 185.86 43.23 186.16 43.23 186.53
C43.23 186.93 43.12 187.26 42.91 187.50
C42.70 187.74 42.45 187.86 42.18 187.86
C42.17 187.86 42.17 187.86 42.17 187.86
C42.17 187.86 42.17 187.86 42.17 187.86
C41.92 187.86 41.71 187.77 41.56 187.57
C41.38 187.36 41.26 187.04 41.19 186.60
L41.17 186.46
L41.03 186.48
L40.32 186.60
L40.19 186.62
L40.20 186.75
C40.25 187.39 40.46 187.90 40.83 188.28
C41.20 188.67 41.65 188.86 42.18 188.86
C42.75 188.86 43.25 188.64 43.65 188.20
C44.06 187.76 44.26 187.20 44.26 186.52
C44.26 186.20 44.21 185.90 44.12 185.64
C44.01 185.38 43.88 185.16 43.72 185.00
C43.61 184.90 43.49 184.81 43.35 184.75
L43.35 184.75
C43.51 184.62 43.65 184.46 43.75 184.27
C43.90 184.01 43.98 183.70 43.98 183.35
C43.98 182.79 43.80 182.33 43.45 181.95
C43.10 181.58 42.67 181.39 42.16 181.39
Z
" fill="white" fill-rule="nonzero" />
<path d="
M147.83 181.55
C147.73 181.86 147.56 182.18 147.32 182.51
C147.07 182.83 146.79 183.11 146.48 183.34
L146.48 184.18
C146.67 184.08 146.87 183.93 147.09 183.72
C147.32 183.52 147.49 183.32 147.63 183.13
L147.63 188.70
L148.20 188.70
L148.20 181.55
Z
M151.24 181.55
C150.80 181.55 150.44 181.72 150.18 182.07
C149.91 182.41 149.75 182.93 149.71 183.61
L150.30 183.70
C150.30 183.24 150.39 182.89 150.56 182.64
C150.73 182.40 150.95 182.27 151.22 182.27
C151.47 182.27 151.67 182.39 151.84 182.62
C152.01 182.84 152.10 183.14 152.10 183.50
C152.10 183.82 152.02 184.16 151.85 184.52
C151.68 184.89 151.33 185.40 150.80 186.07
C150.34 186.64 150.02 187.14 149.85 187.56
C149.68 187.98 149.60 188.36 149.60 188.70
L152.69 188.70
L152.69 187.86
L150.40 187.86
C150.46 187.70 150.54 187.54 150.64 187.38
C150.74 187.23 150.96 186.93 151.31 186.49
C151.84 185.80 152.21 185.24 152.40 184.83
C152.59 184.41 152.69 183.98 152.69 183.52
C152.69 183.01 152.56 182.55 152.32 182.15
C152.07 181.75 151.71 181.55 151.24 181.55
Z
" fill="black" fill-rule="nonzero" />
<path d="
M163.41 182.98
L163.41 186.19
L161.95 186.19
L163.41 182.98
Z
M159.73 181.55
C159.63 181.86 159.46 182.18 159.22 182.51
C158.98 182.83 158.70 183.11 158.38 183.34
L158.38 184.18
C158.57 184.08 158.78 183.93 159.00 183.72
C159.22 183.52 159.40 183.32 159.53 183.13
L159.53 188.70
L160.11 188.70
L160.11 181.55
Z
M163.52 181.58
L161.39 186.19
L161.39 187.00
L163.41 187.00
L163.41 188.70
L163.99 188.70
L163.99 187.00
L164.62 187.00
L164.62 186.19
L163.99 186.19
L163.99 181.58
Z
" fill="black" fill-rule="nonzero" />
<path d="
M171.53 181.35
L171.50 181.44
C171.41 181.74 171.25 182.05 171.01 182.36
C170.78 182.67 170.51 182.94 170.21 183.16
L170.15 183.20
L170.15 183.27
L170.15 184.12
L170.15 184.36
L170.36 184.24
C170.55 184.13 170.77 183.98 171.00 183.77
C171.11 183.67 171.21 183.57 171.29 183.47
L171.29 183.47
L171.29 188.64
L171.29 188.78
L172.15 188.78
L172.15 188.64
L172.15 181.49
L172.15 181.35
Z
M174.95 181.35
C174.55 181.35 174.21 181.52 173.92 181.86
C173.65 182.20 173.48 182.68 173.40 183.32
L173.39 183.44
L173.51 183.47
L174.08 183.63
L174.24 183.67
L174.26 183.50
C174.29 183.10 174.38 182.80 174.52 182.61
C174.64 182.43 174.79 182.35 174.96 182.35
C174.96 182.35 174.96 182.35 174.96 182.35
C174.96 182.35 174.96 182.35 174.96 182.35
C175.13 182.35 175.27 182.43 175.39 182.59
C175.52 182.77 175.58 183.01 175.58 183.31
C175.58 183.64 175.50 183.90 175.35 184.09
C175.20 184.27 175.01 184.37 174.78 184.37
L174.78 184.37
L174.70 184.36
L174.55 184.34
L174.54 184.49
L174.47 185.25
L174.45 185.48
L174.67 185.40
C174.81 185.34 174.93 185.31 175.02 185.31
C175.02 185.31 175.02 185.31 175.02 185.31
C175.02 185.31 175.02 185.31 175.02 185.31
C175.23 185.31 175.41 185.42 175.55 185.63
C175.71 185.86 175.79 186.16 175.79 186.55
C175.79 186.96 175.70 187.29 175.53 187.54
C175.37 187.78 175.18 187.90 174.97 187.90
C174.97 187.90 174.97 187.90 174.97 187.90
C174.96 187.90 174.96 187.90 174.96 187.90
C174.77 187.90 174.62 187.80 174.49 187.61
C174.36 187.40 174.26 187.07 174.20 186.62
L174.18 186.47
L174.03 186.50
L173.46 186.62
L173.34 186.64
L173.34 186.77
C173.38 187.41 173.55 187.92 173.85 188.31
C174.15 188.71 174.53 188.91 174.97 188.91
C175.45 188.91 175.86 188.68 176.19 188.22
C176.52 187.78 176.68 187.22 176.69 186.53
C176.69 186.21 176.65 185.92 176.57 185.66
C176.49 185.39 176.38 185.18 176.24 185.01
C176.16 184.90 176.05 184.81 175.94 184.75
L175.94 184.75
C176.07 184.61 176.19 184.45 176.27 184.25
C176.40 183.98 176.46 183.68 176.46 183.33
C176.46 182.77 176.31 182.30 176.03 181.93
C175.74 181.54 175.38 181.35 174.95 181.35
Z
" fill="white" fill-rule="nonzero" />
<path d="
M174.98 194.12
C175.26 194.12 175.49 194.31 175.67 194.71
C175.85 195.10 175.94 195.87 175.94 197.03
C175.94 198.18 175.85 198.95 175.67 199.35
C175.50 199.75 175.28 199.95 175.02 199.95
C174.74 199.95 174.51 199.75 174.33 199.36
C174.16 198.96 174.07 198.19 174.07 197.03
C174.07 195.89 174.15 195.11 174.33 194.72
C174.50 194.32 174.72 194.12 174.98 194.12
Z
M171.64 193.39
C171.54 193.71 171.37 194.02 171.13 194.35
C170.88 194.68 170.61 194.96 170.29 195.18
L170.29 196.03
C170.48 195.92 170.68 195.77 170.90 195.57
C171.13 195.37 171.30 195.17 171.44 194.97
L171.44 200.55
L172.01 200.55
L172.01 193.39
Z
M175.01 193.39
C174.51 193.39 174.13 193.70 173.87 194.32
C173.61 194.93 173.48 195.84 173.48 197.03
C173.48 198.37 173.62 199.31 173.91 199.85
C174.19 200.40 174.55 200.67 175.00 200.67
C175.51 200.67 175.89 200.36 176.14 199.74
C176.40 199.13 176.53 198.22 176.53 197.03
C176.53 195.71 176.37 194.75 176.06 194.14
C175.80 193.64 175.45 193.39 175.01 193.39
Z
" fill="black" fill-rule="nonzero" />
<path d="
M185.32 38.59
L185.28 38.68
C185.17 38.97 184.97 39.27 184.68 39.58
C184.39 39.89 184.06 40.15 183.68 40.37
L183.61 40.41
L183.61 40.49
L183.61 41.33
L183.61 41.55
L183.81 41.46
C184.05 41.35 184.31 41.20 184.59 40.99
C184.75 40.87 184.90 40.75 185.02 40.64
L185.02 40.64
L185.02 45.79
L185.02 45.93
L186.02 45.93
L186.02 45.79
L186.02 38.73
L186.02 38.59
Z
" fill="white" fill-rule="nonzero" />
<path d="
M185.10 182.39
C185.10 182.39 185.11 182.39 185.11 182.39
C185.11 182.39 185.11 182.39 185.11 182.39
C185.35 182.39 185.57 182.52 185.77 182.77
C185.97 183.03 186.07 183.40 186.07 183.87
C186.07 184.34 185.98 184.70 185.78 184.95
C185.59 185.19 185.36 185.31 185.10 185.31
C185.09 185.31 185.09 185.31 185.09 185.31
C185.09 185.31 185.09 185.31 185.09 185.31
C184.82 185.31 184.58 185.19 184.39 184.95
C184.18 184.70 184.08 184.36 184.08 183.94
C184.08 183.46 184.19 183.08 184.41 182.80
C184.61 182.53 184.85 182.39 185.10 182.39
Z
M185.02 181.39
C184.48 181.39 184.01 181.62 183.63 182.08
C183.25 182.53 183.06 183.14 183.06 183.91
C183.06 184.66 183.25 185.25 183.61 185.69
C183.98 186.13 184.42 186.35 184.93 186.35
C185.22 186.35 185.50 186.26 185.78 186.08
C185.91 185.99 186.03 185.88 186.14 185.76
L186.14 185.76
C186.12 186.17 186.06 186.54 185.96 186.86
C185.83 187.25 185.68 187.51 185.51 187.66
C185.34 187.80 185.16 187.87 184.95 187.87
C184.95 187.87 184.95 187.87 184.95 187.87
C184.95 187.87 184.95 187.87 184.95 187.87
C184.73 187.87 184.55 187.79 184.42 187.64
C184.28 187.47 184.18 187.22 184.13 186.87
L184.11 186.74
L183.98 186.75
L183.30 186.83
L183.16 186.85
L183.17 186.99
C183.23 187.58 183.42 188.05 183.74 188.37
C184.06 188.70 184.46 188.86 184.94 188.86
C185.36 188.86 185.74 188.73 186.08 188.46
C186.41 188.20 186.67 187.78 186.86 187.22
C187.05 186.67 187.14 185.91 187.14 184.93
C187.14 184.04 187.06 183.36 186.88 182.89
C186.70 182.40 186.45 182.03 186.11 181.78
C185.78 181.52 185.42 181.39 185.02 181.39
Z
" fill="white" fill-rule="nonzero" />
<path d="
M185.48 194.90
L185.48 198.07
L183.67 198.07
L185.48 194.90
Z
M185.61 193.51
L182.98 198.07
L182.98 198.86
L185.48 198.86
L185.48 200.55
L186.19 200.55
L186.19 198.86
L186.97 198.86
L186.97 198.07
L186.19 198.07
L186.19 193.51
Z
" fill="black" fill-rule="nonzero" />
<path d="
M197.04 137.17
C197.35 137.17 197.62 137.31 197.84 137.59
C198.06 137.86 198.16 138.25 198.16 138.75
C198.16 139.26 198.05 139.66 197.84 139.95
C197.62 140.24 197.37 140.39 197.09 140.39
C196.77 140.39 196.49 140.23 196.25 139.92
C196.01 139.61 195.89 139.21 195.89 138.70
C195.89 138.23 196.01 137.86 196.24 137.59
C196.47 137.31 196.73 137.17 197.04 137.17
Z
M197.15 133.91
C196.54 133.91 196.05 134.20 195.66 134.78
C195.27 135.36 195.08 136.32 195.08 137.68
C195.08 138.91 195.27 139.78 195.64 140.31
C196.02 140.83 196.50 141.10 197.08 141.10
C197.41 141.10 197.70 141.00 197.97 140.82
C198.24 140.64 198.46 140.36 198.63 139.98
C198.80 139.59 198.89 139.17 198.89 138.70
C198.89 138.00 198.72 137.45 198.38 137.03
C198.04 136.62 197.64 136.41 197.18 136.41
C196.90 136.41 196.64 136.49 196.40 136.65
C196.15 136.81 195.95 137.04 195.78 137.35
C195.79 136.48 195.90 135.83 196.11 135.39
C196.36 134.88 196.69 134.62 197.10 134.62
C197.37 134.62 197.60 134.73 197.78 134.96
C197.92 135.11 198.02 135.37 198.08 135.73
L198.79 135.66
C198.72 135.09 198.54 134.66 198.25 134.36
C197.95 134.06 197.58 133.91 197.15 133.91
Z
" fill="black" fill-rule="nonzero" />
<path d="
M196.25 172.09
L196.25 172.09
L196.25 172.09
C196.25 172.09 196.25 172.09 196.25 172.09
Z
M195.68 169.55
L195.66 169.67
L195.10 173.28
L195.07 173.42
L195.21 173.44
L195.88 173.55
L195.98 173.57
L196.03 173.47
C196.13 173.28 196.26 173.13 196.42 173.03
C196.59 172.92 196.76 172.87 196.95 172.87
C196.95 172.87 196.95 172.87 196.95 172.87
C196.95 172.87 196.95 172.87 196.95 172.87
C197.26 172.87 197.52 172.99 197.73 173.24
C197.94 173.49 198.05 173.84 198.05 174.31
C198.05 174.81 197.93 175.21 197.71 175.49
C197.50 175.76 197.25 175.90 196.96 175.90
C196.96 175.90 196.96 175.90 196.95 175.90
C196.95 175.90 196.95 175.90 196.95 175.90
C196.73 175.90 196.52 175.80 196.35 175.61
C196.17 175.42 196.05 175.11 196.00 174.69
L195.98 174.56
L195.84 174.57
L195.10 174.65
L194.96 174.66
L194.97 174.80
C195.02 175.45 195.23 175.96 195.60 176.33
C195.97 176.70 196.43 176.89 196.96 176.89
C197.61 176.89 198.13 176.63 198.52 176.10
C198.89 175.58 199.08 174.96 199.08 174.24
C199.08 173.51 198.89 172.93 198.51 172.49
C198.12 172.05 197.67 171.82 197.14 171.82
C196.83 171.82 196.53 171.91 196.25 172.09
L196.25 172.09
L196.48 170.66
L198.80 170.66
L198.80 170.52
L198.80 169.69
L198.80 169.55
Z
" fill="white" fill-rule="nonzero" />
<path d="
M195.02 193.42
L195.02 193.56
L195.02 194.39
L195.02 194.53
L197.71 194.53
C197.41 194.99 197.12 195.53 196.85 196.15
C196.53 196.87 196.29 197.62 196.11 198.41
C195.93 199.21 195.83 199.90 195.82 200.50
L195.82 200.65
L196.70 200.65
L196.83 200.65
L196.84 200.51
C196.90 199.39 197.14 198.25 197.56 197.10
C197.98 195.96 198.46 195.03 199.01 194.32
L199.04 194.28
L199.04 194.23
L199.04 193.56
L199.04 193.42
Z
" fill="white" fill-rule="nonzero" />
<path d="
M197.00 206.05
C197.26 206.05 197.48 206.16 197.67 206.37
C197.85 206.58 197.95 206.85 197.95 207.18
C197.95 207.50 197.86 207.76 197.67 207.96
C197.49 208.16 197.27 208.26 197.01 208.26
C196.75 208.26 196.52 208.16 196.34 207.96
C196.16 207.75 196.07 207.48 196.07 207.13
C196.07 206.82 196.16 206.57 196.34 206.36
C196.53 206.16 196.75 206.05 197.00 206.05
Z
M196.99 208.97
C197.32 208.97 197.60 209.10 197.83 209.36
C198.07 209.63 198.18 209.98 198.18 210.41
C198.18 210.84 198.07 211.18 197.84 211.43
C197.62 211.69 197.34 211.82 197.01 211.82
C196.69 211.82 196.41 211.69 196.18 211.42
C195.95 211.16 195.83 210.81 195.83 210.38
C195.83 209.96 195.94 209.62 196.17 209.36
C196.40 209.10 196.67 208.97 196.99 208.97
Z
M197.00 205.34
C196.52 205.34 196.12 205.51 195.81 205.85
C195.49 206.18 195.34 206.62 195.34 207.15
C195.34 207.51 195.41 207.81 195.56 208.04
C195.70 208.28 195.92 208.47 196.20 208.59
C195.86 208.70 195.59 208.91 195.40 209.22
C195.20 209.52 195.11 209.91 195.11 210.38
C195.11 211.02 195.29 211.54 195.65 211.94
C196.01 212.33 196.47 212.53 197.01 212.53
C197.55 212.53 198.00 212.33 198.36 211.94
C198.73 211.54 198.91 211.03 198.91 210.40
C198.91 209.95 198.81 209.57 198.63 209.26
C198.44 208.95 198.17 208.73 197.82 208.59
C198.11 208.46 198.32 208.28 198.46 208.04
C198.60 207.81 198.67 207.52 198.67 207.18
C198.67 206.64 198.51 206.20 198.20 205.86
C197.88 205.52 197.48 205.34 197.00 205.34
Z
" fill="black" fill-rule="nonzero" />
<path d="
M207.25 193.31
L207.22 193.41
C207.13 193.71 206.96 194.01 206.73 194.33
C206.50 194.64 206.23 194.91 205.92 195.13
L205.86 195.17
L205.86 195.24
L205.86 196.09
L205.86 196.33
L206.08 196.21
C206.27 196.10 206.48 195.94 206.72 195.73
C206.82 195.64 206.92 195.54 207.01 195.44
L207.01 195.44
L207.01 200.61
L207.01 200.75
L207.87 200.75
L207.87 200.61
L207.87 193.46
L207.87 193.31
Z
M210.88 193.31
L210.85 193.41
C210.76 193.71 210.59 194.01 210.36 194.33
C210.13 194.64 209.86 194.91 209.55 195.13
L209.49 195.17
L209.49 195.24
L209.49 196.09
L209.49 196.33
L209.71 196.21
C209.90 196.10 210.11 195.94 210.35 195.73
C210.45 195.64 210.55 195.54 210.64 195.44
L210.64 195.44
L210.64 200.61
L210.64 200.75
L211.50 200.75
L211.50 200.61
L211.50 193.46
L211.50 193.31
Z
" fill="white" fill-rule="nonzero" />
<path d="
M210.15 207.82
L210.15 207.82
L210.15 207.82
C210.15 207.82 210.15 207.82 210.15 207.82
Z
M207.25 205.16
L207.22 205.26
C207.13 205.55 206.96 205.86 206.73 206.17
C206.50 206.49 206.23 206.75 205.92 206.97
L205.86 207.02
L205.86 207.09
L205.86 207.93
L205.86 208.17
L206.08 208.06
C206.27 207.95 206.48 207.79 206.72 207.58
C206.82 207.48 206.92 207.38 207.01 207.29
L207.01 207.29
L207.01 212.45
L207.01 212.59
L207.87 212.59
L207.87 212.45
L207.87 205.30
L207.87 205.16
Z
M209.63 205.28
L209.61 205.41
L209.16 209.07
L209.14 209.20
L209.27 209.22
L209.81 209.33
L209.93 209.35
L209.97 209.25
C210.05 209.05 210.15 208.90 210.29 208.79
C210.41 208.69 210.54 208.64 210.68 208.64
C210.68 208.64 210.69 208.64 210.69 208.64
C210.69 208.64 210.69 208.64 210.69 208.64
C210.93 208.64 211.12 208.76 211.29 209.00
C211.46 209.26 211.55 209.63 211.55 210.11
C211.55 210.62 211.46 211.02 211.27 211.31
C211.11 211.58 210.91 211.71 210.69 211.71
C210.69 211.71 210.69 211.71 210.69 211.71
C210.69 211.71 210.69 211.71 210.69 211.71
C210.52 211.71 210.37 211.62 210.23 211.44
C210.08 211.24 209.98 210.92 209.94 210.49
L209.93 210.35
L209.78 210.37
L209.18 210.45
L209.05 210.46
L209.06 210.60
C209.10 211.25 209.27 211.76 209.56 212.13
C209.87 212.52 210.25 212.71 210.70 212.71
C211.24 212.71 211.67 212.44 211.98 211.90
C212.29 211.38 212.44 210.76 212.44 210.04
C212.44 209.30 212.28 208.71 211.98 208.27
C211.66 207.82 211.28 207.59 210.84 207.59
C210.60 207.59 210.37 207.67 210.15 207.82
L210.15 207.82
L210.34 206.40
L212.22 206.40
L212.22 206.26
L212.22 205.43
L212.22 205.28
Z
" fill="white" fill-rule="nonzero" />
</g>
<g  transform="translate(1.19,228.58)" >
<path d="
M106.49 2.72
C106.33 2.72 106.19 2.78 106.07 2.89
C105.96 3.01 105.90 3.15 105.90 3.31
C105.90 3.47 105.96 3.61 106.07 3.73
C106.19 3.84 106.33 3.90 106.49 3.90
C106.66 3.90 106.79 3.84 106.91 3.73
C107.02 3.61 107.08 3.47 107.08 3.31
C107.08 3.15 107.02 3.01 106.91 2.89
C106.79 2.78 106.66 2.72 106.49 2.72
Z
M111.46 7.81
L111.46 9.84
C110.98 10.23 110.60 10.42 110.30 10.42
C110.08 10.42 109.89 10.33 109.73 10.15
C109.56 9.96 109.48 9.73 109.48 9.45
C109.48 9.23 109.54 9.03 109.67 8.84
C109.80 8.66 110.02 8.48 110.33 8.31
C110.50 8.21 110.88 8.05 111.46 7.81
Z
M99.81 3.55
C100.74 3.55 101.51 3.86 102.10 4.49
C102.69 5.12 102.99 5.98 102.99 7.06
C102.99 8.15 102.69 9.00 102.10 9.63
C101.51 10.27 100.76 10.58 99.86 10.58
C99.53 10.58 99.11 10.53 98.62 10.42
L98.62 3.72
C99.07 3.60 99.46 3.55 99.81 3.55
Z
M96.37 3.11
L96.37 3.32
L96.67 3.32
C96.97 3.32 97.19 3.41 97.34 3.58
C97.45 3.70 97.51 4.01 97.51 4.50
L97.51 9.59
C97.51 10.04 97.46 10.33 97.38 10.45
C97.24 10.67 97.00 10.77 96.67 10.77
L96.37 10.77
L96.37 10.99
L99.89 10.99
C101.43 10.99 102.57 10.58 103.31 9.76
C103.98 9.02 104.31 8.10 104.31 7.01
C104.31 6.19 104.13 5.47 103.75 4.84
C103.38 4.22 102.88 3.77 102.27 3.51
C101.66 3.24 100.76 3.11 99.58 3.11
Z
M106.72 5.51
L105.12 6.16
L105.20 6.37
C105.35 6.31 105.48 6.28 105.59 6.28
C105.69 6.28 105.77 6.30 105.83 6.35
C105.89 6.40 105.93 6.49 105.96 6.61
C105.99 6.78 106.01 7.16 106.01 7.73
L106.01 9.79
C106.01 10.11 105.98 10.34 105.93 10.45
C105.88 10.57 105.81 10.65 105.72 10.70
C105.63 10.75 105.46 10.78 105.20 10.78
L105.20 10.99
L107.78 10.99
L107.78 10.78
C107.53 10.78 107.36 10.75 107.26 10.70
C107.17 10.64 107.10 10.56 107.05 10.45
C107.00 10.34 106.98 10.12 106.98 9.79
L106.98 5.51
Z
M122.62 2.94
L120.71 3.88
L120.79 4.06
C121.05 3.94 121.25 3.88 121.39 3.88
C121.49 3.88 121.58 3.91 121.65 3.97
C121.72 4.02 121.77 4.12 121.80 4.24
C121.84 4.40 121.86 4.77 121.86 5.34
L121.86 9.60
C121.86 10.07 121.84 10.36 121.79 10.45
C121.75 10.55 121.68 10.62 121.57 10.68
C121.46 10.73 121.22 10.77 120.85 10.77
L120.85 10.99
L123.81 10.99
L123.81 10.77
C123.45 10.77 123.22 10.73 123.10 10.67
C122.99 10.62 122.91 10.53 122.87 10.42
C122.83 10.32 122.82 10.04 122.82 9.60
L122.82 2.94
Z
M110.65 5.51
C110.03 5.51 109.55 5.65 109.21 5.93
C108.87 6.20 108.70 6.51 108.70 6.84
C108.70 7.02 108.75 7.16 108.84 7.26
C108.93 7.36 109.05 7.41 109.19 7.41
C109.34 7.41 109.46 7.36 109.55 7.26
C109.64 7.17 109.68 7.03 109.68 6.85
L109.67 6.51
C109.67 6.34 109.75 6.19 109.89 6.06
C110.04 5.93 110.23 5.86 110.48 5.86
C110.80 5.86 111.04 5.96 111.21 6.16
C111.38 6.36 111.46 6.72 111.46 7.25
L111.46 7.46
C110.55 7.79 109.89 8.08 109.50 8.31
C109.11 8.54 108.83 8.79 108.67 9.05
C108.56 9.24 108.50 9.47 108.50 9.73
C108.50 10.14 108.62 10.47 108.86 10.72
C109.09 10.97 109.40 11.10 109.77 11.10
C110.00 11.10 110.23 11.05 110.43 10.95
C110.57 10.89 110.92 10.64 111.46 10.22
C111.47 10.54 111.53 10.76 111.64 10.90
C111.75 11.03 111.90 11.09 112.09 11.09
C112.49 11.09 112.90 10.80 113.34 10.22
L113.34 9.90
C113.10 10.13 112.95 10.27 112.86 10.32
C112.82 10.35 112.76 10.36 112.70 10.36
C112.64 10.36 112.59 10.34 112.55 10.30
C112.50 10.26 112.47 10.19 112.45 10.07
C112.43 9.96 112.42 9.65 112.42 9.14
L112.42 7.33
C112.42 6.82 112.39 6.48 112.32 6.31
C112.21 6.05 112.04 5.87 111.81 5.75
C111.51 5.59 111.12 5.51 110.65 5.51
Z
M127.61 3.11
L126.10 6.17
C126.82 6.20 127.40 6.30 127.82 6.47
C128.36 6.70 128.78 7.02 129.09 7.43
C129.40 7.84 129.55 8.29 129.55 8.76
C129.55 9.25 129.38 9.67 129.03 10.02
C128.69 10.36 128.29 10.53 127.84 10.53
C127.54 10.53 127.25 10.43 126.96 10.23
C126.77 10.10 126.64 10.02 126.57 9.99
C126.49 9.96 126.41 9.94 126.30 9.94
C126.17 9.94 126.06 9.98 125.97 10.07
C125.88 10.15 125.83 10.25 125.83 10.36
C125.83 10.55 125.94 10.73 126.16 10.89
C126.37 11.05 126.72 11.13 127.19 11.13
C127.66 11.13 128.11 11.02 128.56 10.81
C128.87 10.66 129.16 10.46 129.41 10.21
C129.67 9.96 129.88 9.66 130.05 9.31
C130.22 8.96 130.30 8.57 130.30 8.16
C130.30 7.44 130.05 6.82 129.53 6.30
C128.93 5.69 128.12 5.30 127.09 5.15
L127.61 4.09
L129.98 4.09
L130.43 3.11
Z
M114.85 9.86
C114.67 9.86 114.52 9.92 114.39 10.05
C114.26 10.17 114.20 10.32 114.20 10.51
C114.20 10.68 114.26 10.84 114.39 10.96
C114.52 11.09 114.67 11.15 114.85 11.15
C115.02 11.15 115.18 11.09 115.30 10.96
C115.43 10.84 115.49 10.68 115.49 10.51
C115.49 10.33 115.43 10.18 115.31 10.05
C115.18 9.92 115.03 9.86 114.85 9.86
Z
" fill="black" fill-rule="nonzero" />
</g>
</g>
</svg>
