<?xml version="1.0" encoding="utf-8" standalone="no"?>
<!DOCTYPE svg PUBLIC "-//W3C//DTD SVG 1.0//EN" "http://www.w3.org/TR/SVG/DTD/svg11.dtd" >
<svg version="1.1" baseProfile="full"  width="319.13385" height="338.51422" viewBox="0 0 229.77638 243.73024" preserveAspectRatio="xMidYMid" xmlns="http://www.w3.org/2000/svg" >

<g lengthAdjust="spacingAndGlyphs" xml:space='preserve' >
<g  transform="translate(1.19,1.19)" >
<path d="
M0.0 0.0
L0.0 227.39
L227.39 227.39
L227.39 0.0
Z
" fill="none" fill-rule="nonzero" />
<line x1="6.54" y1="6.54" x2="6.54" y2="220.84" fill="none" stroke="black" stroke-width="0.87px" stroke-linecap="square" />
<line x1="18.45" y1="6.54" x2="18.45" y2="220.84" fill="none" stroke="black" stroke-width="0.25px" stroke-linecap="butt" />
<line x1="30.35" y1="6.54" x2="30.35" y2="220.84" fill="none" stroke="black" stroke-width="0.25px" stroke-linecap="butt" />
<line x1="42.26" y1="6.54" x2="42.26" y2="220.84" fill="none" stroke="black" stroke-width="0.25px" stroke-linecap="butt" />
<line x1="54.17" y1="6.54" x2="54.17" y2="220.84" fill="none" stroke="black" stroke-width="0.25px" stroke-linecap="butt" />
<line x1="66.07" y1="6.54" x2="66.07" y2="220.84" fill="none" stroke="black" stroke-width="0.25px" stroke-linecap="butt" />
<line x1="77.98" y1="6.54" x2="77.98" y2="220.84" fill="none" stroke="black" stroke-width="0.25px" stroke-linecap="butt" />
<line x1="89.88" y1="6.54" x2="89.88" y2="220.84" fill="none" stroke="black" stroke-width="0.25px" stroke-linecap="butt" />
<line x1="101.79" y1="6.54" x2="101.79" y2="220.84" fill="none" stroke="black" stroke-width="0.25px" stroke-linecap="butt" />
<line x1="113.69" y1="6.54" x2="113.69" y2="220.84" fill="none" stroke="black" stroke-width="0.25px" stroke-linecap="butt" />
<line x1="125.60" y1="6.54" x2="125.60" y2="131.55" fill="none" stroke="black" stroke-width="0.25px" stroke-linecap="butt" />
<line x1="125.60" y1="143.46" x2="125.60" y2="220.84" fill="none" stroke="black" stroke-width="0.25px" stroke-linecap="butt" />
<line x1="137.50" y1="6.54" x2="137.50" y2="220.84" fill="none" stroke="black" stroke-width="0.25px" stroke-linecap="butt" />
<line x1="149.41" y1="6.54" x2="149.41" y2="220.84" fill="none" stroke="black" stroke-width="0.25px" stroke-linecap="butt" />
<line x1="161.31" y1="6.54" x2="161.31" y2="220.84" fill="none" stroke="black" stroke-width="0.25px" stroke-linecap="butt" />
<line x1="173.22" y1="6.54" x2="173.22" y2="220.84" fill="none" stroke="black" stroke-width="0.25px" stroke-linecap="butt" />
<line x1="185.13" y1="6.54" x2="185.13" y2="220.84" fill="none" stroke="black" stroke-width="0.25px" stroke-linecap="butt" />
<line x1="197.03" y1="6.54" x2="197.03" y2="220.84" fill="none" stroke="black" stroke-width="0.25px" stroke-linecap="butt" />
<line x1="208.94" y1="6.54" x2="208.94" y2="220.84" fill="none" stroke="black" stroke-width="0.25px" stroke-linecap="butt" />
<line x1="220.84" y1="6.54" x2="220.84" y2="220.84" fill="none" stroke="black" stroke-width="0.87px" stroke-linecap="square" />
<line x1="6.54" y1="6.54" x2="220.84" y2="6.54" fill="none" stroke="black" stroke-width="0.87px" stroke-linecap="square" />
<line x1="6.54" y1="18.45" x2="220.84" y2="18.45" fill="none" stroke="black" stroke-width="0.25px" stroke-linecap="butt" />
<line x1="6.54" y1="30.35" x2="220.84" y2="30.35" fill="none" stroke="black" stroke-width="0.25px" stroke-linecap="butt" />
<line x1="6.54" y1="42.26" x2="220.84" y2="42.26" fill="none" stroke="black" stroke-width="0.25px" stroke-linecap="butt" />
<line x1="6.54" y1="54.17" x2="220.84" y2="54.17" fill="none" stroke="black" stroke-width="0.25px" stroke-linecap="butt" />
<line x1="6.54" y1="66.07" x2="220.84" y2="66.07" fill="none" stroke="black" stroke-width="0.25px" stroke-linecap="butt" />
<line x1="6.54" y1="77.98" x2="220.84" y2="77.98" fill="none" stroke="black" stroke-width="0.25px" stroke-linecap="butt" />
<line x1="6.54" y1="89.88" x2="220.84" y2="89.88" fill="none" stroke="black" stroke-width="0.25px" stroke-linecap="butt" />
<line x1="6.54" y1="101.79" x2="220.84" y2="101.79" fill="none" stroke="black" stroke-width="0.25px" stroke-linecap="butt" />
<line x1="6.54" y1="113.69" x2="220.84" y2="113.69" fill="none" stroke="black" stroke-width="0.25px" stroke-linecap="butt" />
<line x1="6.54" y1="125.60" x2="220.84" y2="125.60" fill="none" stroke="black" stroke-width="0.25px" stroke-linecap="butt" />
<line x1="6.54" y1="137.50" x2="119.65" y2="137.50" fill="none" stroke="black" stroke-width="0.25px" stroke-linecap="butt" />
<line x1="131.55" y1="137.50" x2="220.84" y2="137.50" fill="none" stroke="black" stroke-width="0.25px" stroke-linecap="butt" />
<line x1="6.54" y1="149.41" x2="220.84" y2="149.41" fill="none" stroke="black" stroke-width="0.25px" stroke-linecap="butt" />
<line x1="6.54" y1="161.31" x2="220.84" y2="161.31" fill="none" stroke="black" stroke-width="0.25px" stroke-linecap="butt" />
<line x1="6.54" y1="173.22" x2="220.84" y2="173.22" fill="none" stroke="black" stroke-width="0.25px" stroke-linecap="butt" />
<line x1="6.54" y1="185.13" x2="220.84" y2="185.13" fill="none" stroke="black" stroke-width="0.25px" stroke-linecap="butt" />
<line x1="6.54" y1="197.03" x2="220.84" y2="197.03" fill="none" stroke="black" stroke-width="0.25px" stroke-linecap="butt" />
<line x1="6.54" y1="208.94" x2="220.84" y2="208.94" fill="none" stroke="black" stroke-width="0.25px" stroke-linecap="butt" />
<line x1="6.54" y1="220.84" x2="220.84" y2="220.84" fill="none" stroke="black" stroke-width="0.87px" stroke-linecap="square" />
<circle cx="42.26" cy="30.35" r="5.89" fill="white"/>
<circle cx="42.26" cy="30.35" r="5.89" fill="none" stroke="black" stroke-width="0.25px"/>
<circle cx="42.26" cy="42.26" r="1.27" fill="black"/>
<circle cx="42.26" cy="113.69" r="1.27" fill="black"/>
<circle cx="42.26" cy="185.13" r="6.01" fill="black"/>
<circle cx="113.69" cy="42.26" r="1.27" fill="black"/>
<circle cx="113.69" cy="113.69" r="1.27" fill="black"/>
<circle cx="113.69" cy="185.13" r="5.89" fill="white"/>
<circle cx="113.69" cy="185.13" r="5.89" fill="none" stroke="black" stroke-width="0.25px"/>
<circle cx="125.60" cy="173.22" r="6.01" fill="black"/>
<circle cx="125.60" cy="185.13" r="5.89" fill="white"/>
<circle cx="125.60" cy="185.13" r="5.89" fill="none" stroke="black" stroke-width="0.25px"/>
<circle cx="137.50" cy="161.31" r="5.89" fill="white"/>
<circle cx="137.50" cy="161.31" r="5.89" fill="none" stroke="black" stroke-width="0.25px"/>
<circle cx="137.50" cy="173.22" r="6.01" fill="black"/>
<circle cx="137.50" cy="185.13" r="6.01" fill="black"/>
<circle cx="137.50" cy="197.03" r="5.89" fill="white"/>
<circle cx="137.50" cy="197.03" r="5.89" fill="none" stroke="black" stroke-width="0.25px"/>
<circle cx="149.41" cy="113.69" r="6.01" fill="black"/>
<circle cx="149.41" cy="137.50" r="5.89" fill="white"/>
<circle cx="149.41" cy="137.50" r="5.89" fill="none" stroke="black" stroke-width="0.25px"/>
<circle cx="149.41" cy="185.13" r="6.01" fill="black"/>
<circle cx="149.41" cy="197.03" r="5.89" fill="white"/>
<circle cx="149.41" cy="197.03" r="5.89" fill="none" stroke="black" stroke-width="0.25px"/>
<circle cx="161.31" cy="161.31" r="5.89" fill="white"/>
<circle cx="161.31" cy="161.31" r="5.89" fill="none" stroke="black" stroke-width="0.25px"/>
<circle cx="161.31" cy="185.13" r="6.01" fill="black"/>
<circle cx="173.22" cy="113.69" r="6.01" fill="black"/>
<circle cx="173.22" cy="137.50" r="5.89" fill="white"/>
<circle cx="173.22" cy="137.50" r="5.89" fill="none" stroke="black" stroke-width="0.25px"/>
<circle cx="173.22" cy="185.13" r="6.01" fill="black"/>
<circle cx="173.22" cy="197.03" r="5.89" fill="white"/>
<circle cx="173.22" cy="197.03" r="5.89" fill="none" stroke="black" stroke-width="0.25px"/>
<circle cx="185.13" cy="42.26" r="6.01" fill="black"/>
<circle cx="185.13" cy="113.69" r="1.27" fill="black"/>
<circle cx="185.13" cy="185.13" r="6.01" fill="black"/>
<circle cx="185.13" cy="197.03" r="5.89" fill="white"/>
<circle cx="185.13" cy="197.03" r="5.89" fill="none" stroke="black" stroke-width="0.25px"/>
<circle cx="197.03" cy="113.69" r="6.01" fill="black"/>
<circle cx="197.03" cy="137.50" r="5.89" fill="white"/>
<circle cx="197.03" cy="137.50" r="5.89" fill="none" stroke="black" stroke-width="0.25px"/>
<circle cx="197.03" cy="173.22" r="6.01" fill="black"/>
<circle cx="197.03" cy="197.03" r="5.89" fill="white"/>
<circle cx="197.03" cy="197.03" r="5.89" fill="none" stroke="black" stroke-width="0.25px"/>
<path d="
M42.27 26.82
C41.73 26.82 41.30 26.99 40.97 27.33
C40.64 27.67 40.44 28.18 40.39 28.86
L41.12 28.95
C41.12 28.49 41.23 28.14 41.44 27.90
C41.65 27.66 41.92 27.54 42.25 27.54
C42.56 27.54 42.82 27.65 43.03 27.88
C43.23 28.10 43.34 28.39 43.34 28.75
C43.34 29.06 43.24 29.40 43.03 29.76
C42.83 30.12 42.39 30.63 41.73 31.29
C41.17 31.85 40.78 32.34 40.56 32.76
C40.35 33.17 40.25 33.55 40.26 33.89
L44.07 33.89
L44.07 33.06
L41.24 33.06
C41.32 32.90 41.42 32.74 41.54 32.59
C41.67 32.43 41.94 32.13 42.36 31.70
C43.02 31.02 43.47 30.47 43.71 30.06
C43.95 29.65 44.06 29.22 44.06 28.77
C44.06 28.26 43.91 27.81 43.61 27.42
C43.31 27.02 42.86 26.82 42.27 26.82
Z
" fill="black" fill-rule="nonzero" />
<path d="
M42.16 181.39
C41.68 181.39 41.26 181.56 40.92 181.89
C40.59 182.22 40.37 182.70 40.28 183.33
L40.26 183.46
L40.39 183.49
L41.09 183.65
L41.24 183.68
L41.26 183.53
C41.31 183.13 41.42 182.84 41.59 182.65
C41.74 182.47 41.94 182.38 42.17 182.38
C42.17 182.38 42.17 182.38 42.17 182.38
C42.17 182.38 42.17 182.38 42.17 182.38
C42.39 182.38 42.58 182.47 42.73 182.64
C42.89 182.81 42.97 183.04 42.97 183.34
C42.97 183.65 42.87 183.91 42.68 184.09
C42.49 184.28 42.25 184.37 41.94 184.37
L41.94 184.37
L41.84 184.37
L41.70 184.35
L41.68 184.49
L41.60 185.25
L41.58 185.47
L41.58 185.47
L41.78 185.40
C41.97 185.34 42.12 185.31 42.24 185.31
C42.24 185.31 42.24 185.31 42.24 185.31
C42.24 185.31 42.24 185.31 42.24 185.31
C42.52 185.31 42.75 185.42 42.94 185.64
C43.13 185.86 43.23 186.16 43.23 186.53
C43.23 186.93 43.12 187.26 42.91 187.50
C42.70 187.74 42.45 187.86 42.18 187.86
C42.17 187.86 42.17 187.86 42.17 187.86
C42.17 187.86 42.17 187.86 42.17 187.86
C41.92 187.86 41.71 187.77 41.56 187.57
C41.38 187.36 41.26 187.04 41.19 186.60
L41.17 186.46
L41.03 186.48
L40.32 186.60
L40.19 186.62
L40.20 186.75
C40.25 187.39 40.46 187.90 40.83 188.28
C41.20 188.67 41.65 188.86 42.18 188.86
C42.75 188.86 43.25 188.64 43.65 188.20
C44.06 187.76 44.26 187.20 44.26 186.52
C44.26 186.20 44.21 185.90 44.12 185.64
C44.01 185.38 43.88 185.16 43.72 185.00
C43.61 184.90 43.49 184.81 43.35 184.75
L43.35 184.75
C43.51 184.62 43.65 184.46 43.75 184.27
C43.90 184.01 43.98 183.70 43.98 183.35
C43.98 182.79 43.80 182.33 43.45 181.95
C43.10 181.58 42.67 181.39 42.16 181.39
Z
" fill="white" fill-rule="nonzero" />
<path d="
M115.52 184.79
C115.77 184.79 115.98 184.93 116.16 185.21
C116.34 185.49 116.42 185.88 116.42 186.39
C116.42 186.90 116.34 187.31 116.16 187.60
C115.98 187.90 115.78 188.04 115.55 188.04
C115.30 188.04 115.07 187.89 114.88 187.57
C114.68 187.26 114.59 186.85 114.59 186.33
C114.59 185.86 114.68 185.49 114.86 185.21
C115.05 184.93 115.27 184.79 115.52 184.79
Z
M112.11 181.49
C112.01 181.80 111.84 182.12 111.60 182.45
C111.36 182.77 111.08 183.05 110.76 183.28
L110.76 184.12
C110.95 184.02 111.15 183.87 111.38 183.66
C111.60 183.46 111.78 183.26 111.91 183.07
L111.91 188.64
L112.48 188.64
L112.48 181.49
Z
M115.60 181.49
C115.11 181.49 114.71 181.78 114.40 182.37
C114.08 182.95 113.93 183.93 113.93 185.31
C113.93 186.55 114.08 187.43 114.38 187.97
C114.69 188.50 115.08 188.76 115.55 188.76
C115.81 188.76 116.05 188.67 116.27 188.49
C116.49 188.30 116.67 188.01 116.80 187.63
C116.94 187.24 117.01 186.81 117.01 186.33
C117.01 185.63 116.87 185.07 116.60 184.65
C116.32 184.23 116.00 184.02 115.63 184.02
C115.41 184.02 115.19 184.10 114.99 184.26
C114.80 184.42 114.63 184.66 114.50 184.97
C114.50 184.09 114.59 183.43 114.76 182.99
C114.96 182.47 115.23 182.21 115.57 182.21
C115.78 182.21 115.97 182.32 116.12 182.55
C116.22 182.70 116.30 182.96 116.36 183.33
L116.93 183.26
C116.88 182.69 116.73 182.25 116.49 181.94
C116.25 181.64 115.96 181.49 115.60 181.49
Z
" fill="black" fill-rule="nonzero" />
<path d="
M125.52 135.46
L126.57 138.30
L124.48 138.30
L125.52 135.46
Z
M124.72 133.67
L121.73 141.34
L123.37 141.34
L124.01 139.60
L127.07 139.60
L127.74 141.34
L129.43 141.34
L126.35 133.67
Z
" fill="black" fill-rule="nonzero" />
<path d="
M126.81 172.10
L126.81 172.10
L126.81 172.10
C126.81 172.10 126.81 172.10 126.81 172.10
Z
M123.91 169.44
L123.88 169.54
C123.79 169.84 123.62 170.14 123.39 170.46
C123.16 170.77 122.89 171.04 122.59 171.26
L122.53 171.30
L122.53 171.37
L122.53 172.22
L122.53 172.46
L122.74 172.34
C122.93 172.23 123.15 172.07 123.38 171.86
C123.49 171.76 123.58 171.67 123.67 171.57
L123.67 171.57
L123.67 176.74
L123.67 176.88
L124.53 176.88
L124.53 176.74
L124.53 169.58
L124.53 169.44
Z
M126.29 169.57
L126.27 169.69
L125.82 173.35
L125.80 173.48
L125.93 173.51
L126.47 173.61
L126.59 173.64
L126.63 173.53
C126.71 173.33 126.82 173.18 126.95 173.08
C127.07 172.98 127.21 172.93 127.35 172.93
C127.35 172.93 127.35 172.93 127.35 172.93
C127.35 172.93 127.35 172.93 127.35 172.93
C127.59 172.93 127.79 173.05 127.95 173.29
C128.12 173.54 128.21 173.91 128.21 174.39
C128.21 174.90 128.12 175.30 127.93 175.59
C127.77 175.86 127.57 176.00 127.35 176.00
C127.35 176.00 127.35 176.00 127.35 176.00
C127.35 176.00 127.35 176.00 127.35 176.00
C127.18 176.00 127.03 175.90 126.89 175.72
C126.74 175.52 126.65 175.20 126.60 174.78
L126.59 174.63
L126.44 174.65
L125.84 174.73
L125.71 174.75
L125.72 174.88
C125.76 175.53 125.93 176.04 126.22 176.42
C126.53 176.80 126.91 177.00 127.36 177.00
C127.90 177.00 128.33 176.72 128.65 176.18
C128.95 175.66 129.10 175.04 129.10 174.32
C129.10 173.58 128.94 173.00 128.64 172.56
C128.32 172.10 127.94 171.87 127.50 171.87
C127.26 171.87 127.03 171.95 126.81 172.10
L126.81 172.10
L127.00 170.69
L128.88 170.69
L128.88 170.55
L128.88 169.71
L128.88 169.57
Z
" fill="white" fill-rule="nonzero" />
<path d="
M127.70 182.98
L127.70 186.19
L126.24 186.19
L127.70 182.98
Z
M124.02 181.55
C123.92 181.86 123.75 182.18 123.51 182.51
C123.26 182.83 122.98 183.11 122.67 183.34
L122.67 184.18
C122.85 184.08 123.06 183.93 123.28 183.72
C123.50 183.52 123.68 183.32 123.81 183.13
L123.81 188.70
L124.39 188.70
L124.39 181.55
Z
M127.81 181.58
L125.67 186.19
L125.67 187.00
L127.70 187.00
L127.70 188.70
L128.27 188.70
L128.27 187.00
L128.91 187.00
L128.91 186.19
L128.27 186.19
L128.27 181.58
Z
" fill="black" fill-rule="nonzero" />
<path d="
M135.70 157.74
C135.26 157.74 134.91 157.91 134.64 158.26
C134.37 158.60 134.22 159.12 134.18 159.80
L134.77 159.89
C134.77 159.43 134.85 159.08 135.02 158.83
C135.19 158.59 135.41 158.46 135.68 158.46
C135.93 158.46 136.14 158.58 136.31 158.81
C136.48 159.03 136.56 159.33 136.56 159.69
C136.56 160.01 136.48 160.35 136.31 160.71
C136.15 161.07 135.80 161.59 135.26 162.26
C134.80 162.83 134.49 163.33 134.31 163.75
C134.14 164.17 134.06 164.55 134.07 164.89
L137.16 164.89
L137.16 164.05
L134.86 164.05
C134.93 163.89 135.01 163.73 135.11 163.57
C135.21 163.42 135.43 163.12 135.77 162.68
C136.31 161.99 136.67 161.43 136.86 161.02
C137.05 160.60 137.15 160.16 137.15 159.71
C137.15 159.20 137.03 158.74 136.78 158.34
C136.54 157.94 136.18 157.74 135.70 157.74
Z
M139.33 157.74
C138.89 157.74 138.54 157.91 138.27 158.26
C138.00 158.60 137.85 159.12 137.81 159.80
L138.40 159.89
C138.40 159.43 138.48 159.08 138.65 158.83
C138.83 158.59 139.04 158.46 139.31 158.46
C139.56 158.46 139.77 158.58 139.94 158.81
C140.11 159.03 140.19 159.33 140.19 159.69
C140.19 160.01 140.11 160.35 139.94 160.71
C139.78 161.07 139.43 161.59 138.89 162.26
C138.43 162.83 138.12 163.33 137.94 163.75
C137.77 164.17 137.69 164.55 137.70 164.89
L140.79 164.89
L140.79 164.05
L138.49 164.05
C138.56 163.89 138.64 163.73 138.74 163.57
C138.84 163.42 139.06 163.12 139.40 162.68
C139.94 161.99 140.30 161.43 140.49 161.02
C140.68 160.60 140.78 160.16 140.78 159.71
C140.78 159.20 140.66 158.74 140.41 158.34
C140.17 157.94 139.81 157.74 139.33 157.74
Z
" fill="black" fill-rule="nonzero" />
<path d="
M135.70 169.44
C135.22 169.44 134.83 169.63 134.53 170.01
C134.24 170.38 134.08 170.92 134.04 171.63
L134.03 171.76
L134.15 171.78
L134.75 171.87
L134.91 171.90
L134.91 171.73
C134.91 171.30 134.99 170.98 135.14 170.76
C135.28 170.55 135.46 170.45 135.68 170.45
C135.68 170.45 135.68 170.45 135.68 170.45
C135.68 170.45 135.68 170.45 135.68 170.45
C135.88 170.45 136.05 170.54 136.19 170.73
C136.35 170.94 136.42 171.20 136.42 171.53
C136.42 171.83 136.34 172.15 136.19 172.49
C136.02 172.85 135.68 173.35 135.15 174.01
C134.68 174.59 134.36 175.10 134.18 175.54
C134.00 175.98 133.92 176.38 133.93 176.74
L133.93 176.87
L137.30 176.87
L137.30 176.73
L137.30 175.89
L137.30 175.75
L135.08 175.75
C135.12 175.66 135.17 175.58 135.23 175.49
C135.32 175.34 135.54 175.04 135.88 174.61
C136.43 173.91 136.79 173.34 136.99 172.92
C137.19 172.48 137.29 172.03 137.29 171.55
C137.29 171.02 137.16 170.53 136.90 170.11
C136.63 169.66 136.23 169.44 135.70 169.44
Z
M139.24 169.44
C138.83 169.44 138.49 169.61 138.21 169.96
C137.94 170.29 137.76 170.77 137.69 171.41
L137.67 171.53
L137.79 171.56
L138.36 171.72
L138.52 171.76
L138.54 171.60
C138.58 171.19 138.67 170.89 138.80 170.70
C138.92 170.53 139.07 170.44 139.24 170.44
C139.24 170.44 139.24 170.44 139.24 170.44
C139.25 170.44 139.25 170.44 139.25 170.44
C139.41 170.44 139.55 170.52 139.67 170.69
C139.80 170.87 139.87 171.11 139.86 171.41
C139.87 171.74 139.79 172.00 139.63 172.19
C139.49 172.37 139.30 172.46 139.06 172.46
L139.06 172.46
L138.98 172.45
L138.84 172.44
L138.82 172.58
L138.76 173.35
L138.74 173.58
L138.95 173.49
C139.10 173.43 139.21 173.41 139.30 173.41
C139.30 173.41 139.30 173.41 139.30 173.41
C139.30 173.41 139.31 173.41 139.31 173.41
C139.51 173.41 139.69 173.51 139.84 173.72
C140.00 173.95 140.08 174.26 140.07 174.64
C140.07 175.05 139.99 175.39 139.81 175.64
C139.65 175.88 139.46 175.99 139.25 175.99
C139.25 175.99 139.25 175.99 139.25 175.99
C139.25 175.99 139.25 175.99 139.24 175.99
C139.05 175.99 138.90 175.90 138.78 175.71
C138.64 175.49 138.54 175.16 138.48 174.72
L138.46 174.57
L138.31 174.60
L137.74 174.71
L137.62 174.74
L137.63 174.86
C137.67 175.50 137.83 176.02 138.13 176.40
C138.44 176.80 138.81 177.00 139.26 177.00
C139.73 177.00 140.14 176.77 140.48 176.32
C140.80 175.88 140.97 175.31 140.97 174.63
C140.97 174.31 140.93 174.02 140.85 173.75
C140.77 173.49 140.66 173.27 140.53 173.11
C140.44 173.00 140.34 172.91 140.22 172.84
L140.22 172.84
C140.36 172.70 140.47 172.54 140.56 172.35
C140.68 172.08 140.74 171.77 140.74 171.43
C140.74 170.86 140.60 170.40 140.31 170.02
C140.02 169.63 139.66 169.44 139.24 169.44
Z
" fill="white" fill-rule="nonzero" />
<path d="
M135.82 181.35
L135.79 181.44
C135.69 181.74 135.53 182.05 135.30 182.36
C135.06 182.67 134.79 182.94 134.49 183.16
L134.43 183.20
L134.43 183.27
L134.43 184.12
L134.43 184.36
L134.64 184.24
C134.84 184.13 135.05 183.98 135.28 183.77
C135.39 183.67 135.49 183.57 135.58 183.47
L135.58 183.47
L135.58 188.64
L135.58 188.78
L136.44 188.78
L136.44 188.64
L136.44 181.49
L136.44 181.35
Z
M139.24 181.35
C138.83 181.35 138.49 181.52 138.21 181.86
C137.94 182.20 137.76 182.68 137.69 183.32
L137.67 183.44
L137.79 183.47
L138.36 183.63
L138.52 183.67
L138.54 183.50
C138.58 183.10 138.67 182.80 138.80 182.61
C138.92 182.43 139.07 182.35 139.24 182.35
C139.24 182.35 139.24 182.35 139.24 182.35
C139.25 182.35 139.25 182.35 139.25 182.35
C139.41 182.35 139.55 182.43 139.67 182.59
C139.80 182.77 139.87 183.01 139.86 183.31
C139.87 183.64 139.79 183.90 139.63 184.09
C139.49 184.27 139.30 184.37 139.06 184.37
L139.06 184.37
L138.98 184.36
L138.84 184.34
L138.82 184.49
L138.76 185.25
L138.74 185.48
L138.95 185.40
C139.10 185.34 139.21 185.31 139.30 185.31
C139.30 185.31 139.30 185.31 139.30 185.31
C139.30 185.31 139.31 185.31 139.31 185.31
C139.51 185.31 139.69 185.42 139.84 185.63
C140.00 185.86 140.08 186.16 140.07 186.55
C140.07 186.96 139.99 187.29 139.81 187.54
C139.65 187.78 139.46 187.90 139.25 187.90
C139.25 187.90 139.25 187.90 139.25 187.90
C139.25 187.90 139.25 187.90 139.24 187.90
C139.05 187.90 138.90 187.80 138.78 187.61
C138.64 187.40 138.54 187.07 138.48 186.62
L138.46 186.47
L138.31 186.50
L137.74 186.62
L137.62 186.64
L137.63 186.77
C137.67 187.41 137.83 187.92 138.13 188.31
C138.44 188.71 138.81 188.91 139.26 188.91
C139.73 188.91 140.14 188.68 140.48 188.22
C140.80 187.78 140.97 187.22 140.97 186.53
C140.97 186.21 140.93 185.92 140.85 185.66
C140.77 185.39 140.66 185.18 140.53 185.01
C140.44 184.90 140.34 184.81 140.22 184.75
L140.22 184.75
C140.36 184.61 140.47 184.45 140.56 184.25
C140.68 183.98 140.74 183.68 140.74 183.33
C140.74 182.77 140.60 182.30 140.31 181.93
C140.02 181.54 139.66 181.35 139.24 181.35
Z
" fill="white" fill-rule="nonzero" />
<path d="
M135.92 193.46
C135.82 193.77 135.65 194.09 135.41 194.41
C135.17 194.74 134.89 195.02 134.57 195.24
L134.57 196.09
C134.76 195.99 134.96 195.83 135.19 195.63
C135.41 195.43 135.59 195.23 135.72 195.03
L135.72 200.61
L136.29 200.61
L136.29 193.46
Z
M139.33 193.46
C138.89 193.46 138.54 193.63 138.27 193.97
C138.00 194.32 137.85 194.83 137.81 195.52
L138.40 195.61
C138.40 195.15 138.48 194.79 138.65 194.55
C138.83 194.30 139.04 194.18 139.31 194.18
C139.56 194.18 139.77 194.29 139.94 194.52
C140.11 194.75 140.19 195.05 140.19 195.41
C140.19 195.72 140.11 196.06 139.94 196.43
C139.78 196.79 139.43 197.31 138.89 197.97
C138.43 198.55 138.12 199.04 137.94 199.47
C137.77 199.89 137.69 200.27 137.70 200.61
L140.79 200.61
L140.79 199.77
L138.49 199.77
C138.56 199.61 138.64 199.45 138.74 199.29
C138.84 199.13 139.06 198.83 139.40 198.40
C139.94 197.70 140.30 197.15 140.49 196.73
C140.68 196.32 140.78 195.88 140.78 195.43
C140.78 194.92 140.66 194.46 140.41 194.06
C140.17 193.66 139.81 193.46 139.33 193.46
Z
" fill="black" fill-rule="nonzero" />
<path d="
M147.61 109.98
C147.12 109.98 146.73 110.17 146.43 110.55
C146.15 110.92 145.98 111.46 145.94 112.17
L145.93 112.30
L146.06 112.32
L146.65 112.41
L146.81 112.43
L146.81 112.27
C146.81 111.84 146.89 111.51 147.05 111.29
C147.19 111.09 147.37 110.98 147.58 110.98
C147.58 110.98 147.59 110.98 147.59 110.98
C147.59 110.98 147.59 110.98 147.59 110.98
C147.79 110.98 147.96 111.08 148.10 111.27
C148.25 111.47 148.33 111.74 148.33 112.07
C148.33 112.36 148.25 112.68 148.09 113.03
C147.93 113.38 147.58 113.89 147.06 114.55
C146.59 115.13 146.27 115.64 146.09 116.07
C145.91 116.51 145.82 116.91 145.83 117.27
L145.83 117.41
L149.20 117.41
L149.20 117.27
L149.20 116.43
L149.20 116.29
L146.99 116.29
C147.03 116.20 147.08 116.11 147.13 116.03
C147.23 115.87 147.45 115.58 147.79 115.15
C148.33 114.44 148.70 113.88 148.90 113.45
C149.10 113.02 149.20 112.56 149.20 112.09
C149.20 111.55 149.07 111.07 148.81 110.65
C148.54 110.20 148.13 109.98 147.61 109.98
Z
M151.35 109.98
L151.32 110.07
C151.23 110.37 151.07 110.68 150.83 110.99
C150.60 111.30 150.33 111.57 150.03 111.79
L149.97 111.83
L149.97 111.90
L149.97 112.75
L149.97 112.99
L150.18 112.87
C150.37 112.77 150.59 112.61 150.82 112.40
C150.93 112.30 151.03 112.20 151.11 112.10
L151.11 112.10
L151.11 117.27
L151.11 117.41
L151.97 117.41
L151.97 117.27
L151.97 110.12
L151.97 109.98
Z
" fill="white" fill-rule="nonzero" />
<path d="
M151.17 134.59
C151.45 134.59 151.68 134.79 151.86 135.18
C152.04 135.57 152.13 136.35 152.13 137.51
C152.13 138.65 152.04 139.43 151.86 139.82
C151.69 140.22 151.47 140.42 151.20 140.42
C150.93 140.42 150.70 140.22 150.52 139.83
C150.35 139.44 150.26 138.66 150.26 137.51
C150.26 136.36 150.34 135.59 150.52 135.19
C150.69 134.79 150.91 134.59 151.17 134.59
Z
M147.61 133.87
C147.17 133.87 146.81 134.04 146.55 134.38
C146.28 134.73 146.12 135.24 146.08 135.93
L146.67 136.02
C146.67 135.56 146.76 135.21 146.93 134.96
C147.10 134.71 147.32 134.59 147.59 134.59
C147.84 134.59 148.04 134.71 148.21 134.93
C148.38 135.16 148.47 135.46 148.47 135.82
C148.47 136.13 148.39 136.47 148.22 136.84
C148.05 137.20 147.70 137.72 147.17 138.39
C146.71 138.96 146.39 139.46 146.22 139.88
C146.05 140.30 145.97 140.68 145.97 141.02
L149.06 141.02
L149.06 140.18
L146.77 140.18
C146.83 140.02 146.91 139.86 147.01 139.70
C147.11 139.54 147.33 139.25 147.68 138.81
C148.21 138.11 148.58 137.56 148.77 137.14
C148.96 136.73 149.06 136.29 149.06 135.84
C149.06 135.33 148.93 134.87 148.69 134.47
C148.44 134.07 148.08 133.87 147.61 133.87
Z
M151.20 133.87
C150.69 133.87 150.31 134.17 150.06 134.79
C149.80 135.41 149.67 136.31 149.67 137.51
C149.67 138.84 149.81 139.78 150.10 140.32
C150.38 140.87 150.74 141.14 151.19 141.14
C151.69 141.14 152.08 140.83 152.33 140.21
C152.59 139.60 152.72 138.69 152.72 137.51
C152.72 136.18 152.56 135.22 152.25 134.62
C151.99 134.12 151.64 133.87 151.20 133.87
Z
" fill="black" fill-rule="nonzero" />
<path d="
M147.72 181.41
L147.69 181.51
C147.60 181.80 147.44 182.11 147.20 182.42
C146.97 182.74 146.70 183.00 146.40 183.22
L146.34 183.26
L146.34 183.34
L146.34 184.18
L146.34 184.42
L146.55 184.31
C146.74 184.20 146.96 184.04 147.19 183.83
C147.30 183.73 147.40 183.63 147.48 183.53
L147.48 183.53
L147.48 188.70
L147.48 188.84
L148.34 188.84
L148.34 188.70
L148.34 181.55
L148.34 181.41
Z
M151.35 181.41
L151.32 181.51
C151.23 181.80 151.07 182.11 150.83 182.42
C150.60 182.74 150.33 183.00 150.03 183.22
L149.97 183.26
L149.97 183.34
L149.97 184.18
L149.97 184.42
L150.18 184.31
C150.37 184.20 150.59 184.04 150.82 183.83
C150.93 183.73 151.03 183.63 151.11 183.53
L151.11 183.53
L151.11 188.70
L151.11 188.84
L151.97 188.84
L151.97 188.70
L151.97 181.55
L151.97 181.41
Z
" fill="white" fill-rule="nonzero" />
<path d="
M151.17 194.12
C151.45 194.12 151.68 194.31 151.86 194.71
C152.04 195.10 152.13 195.87 152.13 197.03
C152.13 198.18 152.04 198.95 151.86 199.35
C151.69 199.75 151.47 199.95 151.20 199.95
C150.93 199.95 150.70 199.75 150.52 199.36
C150.35 198.96 150.26 198.19 150.26 197.03
C150.26 195.89 150.34 195.11 150.52 194.72
C150.69 194.32 150.91 194.12 151.17 194.12
Z
M147.83 193.39
C147.73 193.71 147.56 194.02 147.32 194.35
C147.07 194.68 146.79 194.96 146.48 195.18
L146.48 196.03
C146.67 195.92 146.87 195.77 147.09 195.57
C147.32 195.37 147.49 195.17 147.63 194.97
L147.63 200.55
L148.20 200.55
L148.20 193.39
Z
M151.20 193.39
C150.69 193.39 150.31 193.70 150.06 194.32
C149.80 194.93 149.67 195.84 149.67 197.03
C149.67 198.37 149.81 199.31 150.10 199.85
C150.38 200.40 150.74 200.67 151.19 200.67
C151.69 200.67 152.08 200.36 152.33 199.74
C152.59 199.13 152.72 198.22 152.72 197.03
C152.72 195.71 152.56 194.75 152.25 194.14
C151.99 193.64 151.64 193.39 151.20 193.39
Z
" fill="black" fill-rule="nonzero" />
<path d="
M163.41 159.17
L163.41 162.38
L161.95 162.38
L163.41 159.17
Z
M159.51 157.74
C159.07 157.74 158.72 157.91 158.45 158.26
C158.18 158.60 158.03 159.12 157.99 159.80
L158.58 159.89
C158.58 159.43 158.66 159.08 158.83 158.83
C159.01 158.59 159.22 158.46 159.49 158.46
C159.74 158.46 159.95 158.58 160.12 158.81
C160.29 159.03 160.37 159.33 160.37 159.69
C160.37 160.01 160.29 160.35 160.13 160.71
C159.96 161.07 159.61 161.59 159.07 162.26
C158.61 162.83 158.30 163.33 158.13 163.75
C157.95 164.17 157.87 164.55 157.88 164.89
L160.97 164.89
L160.97 164.05
L158.68 164.05
C158.74 163.89 158.82 163.73 158.92 163.57
C159.02 163.42 159.24 163.12 159.58 162.68
C160.12 161.99 160.48 161.43 160.67 161.02
C160.87 160.60 160.96 160.16 160.96 159.71
C160.96 159.20 160.84 158.74 160.59 158.34
C160.35 157.94 159.99 157.74 159.51 157.74
Z
M163.52 157.77
L161.39 162.38
L161.39 163.19
L163.41 163.19
L163.41 164.89
L163.99 164.89
L163.99 163.19
L164.62 163.19
L164.62 162.38
L163.99 162.38
L163.99 157.77
Z
" fill="black" fill-rule="nonzero" />
<path d="
M161.29 182.39
C161.29 182.39 161.29 182.39 161.30 182.39
C161.30 182.39 161.30 182.39 161.30 182.39
C161.54 182.39 161.76 182.52 161.96 182.77
C162.16 183.03 162.26 183.40 162.26 183.87
C162.26 184.34 162.16 184.70 161.97 184.95
C161.78 185.19 161.55 185.31 161.28 185.31
C161.28 185.31 161.28 185.31 161.28 185.31
C161.28 185.31 161.28 185.31 161.28 185.31
C161.01 185.31 160.77 185.19 160.57 184.95
C160.37 184.70 160.27 184.36 160.27 183.94
C160.27 183.46 160.38 183.08 160.59 182.80
C160.80 182.53 161.04 182.39 161.29 182.39
Z
M161.21 181.39
C160.66 181.39 160.20 181.62 159.82 182.08
C159.44 182.53 159.25 183.14 159.25 183.91
C159.25 184.66 159.43 185.25 159.80 185.69
C160.17 186.13 160.61 186.35 161.12 186.35
C161.41 186.35 161.69 186.26 161.96 186.08
C162.10 185.99 162.22 185.88 162.33 185.76
L162.33 185.76
C162.31 186.17 162.25 186.54 162.14 186.86
C162.02 187.25 161.87 187.51 161.70 187.66
C161.53 187.80 161.35 187.87 161.14 187.87
C161.14 187.87 161.14 187.87 161.14 187.87
C161.14 187.87 161.14 187.87 161.14 187.87
C160.92 187.87 160.74 187.79 160.61 187.64
C160.47 187.47 160.37 187.22 160.32 186.87
L160.30 186.74
L160.17 186.75
L159.48 186.83
L159.35 186.85
L159.36 186.99
C159.42 187.58 159.61 188.05 159.93 188.37
C160.25 188.70 160.65 188.86 161.13 188.86
C161.55 188.86 161.93 188.73 162.26 188.46
C162.60 188.20 162.86 187.78 163.05 187.22
C163.24 186.67 163.33 185.91 163.33 184.93
C163.33 184.04 163.25 183.36 163.07 182.89
C162.89 182.40 162.64 182.03 162.30 181.78
C161.97 181.52 161.60 181.39 161.21 181.39
Z
" fill="white" fill-rule="nonzero" />
<path d="
M175.02 110.92
C175.02 110.92 175.02 110.92 175.02 110.92
C175.02 110.92 175.02 110.92 175.02 110.92
C175.21 110.92 175.37 111.05 175.53 111.29
C175.69 111.56 175.78 111.94 175.78 112.42
C175.78 112.90 175.70 113.27 175.53 113.53
C175.39 113.76 175.21 113.88 175.01 113.88
C175.01 113.88 175.01 113.88 175.01 113.88
C175.01 113.88 175.01 113.88 175.00 113.88
C174.80 113.88 174.62 113.76 174.47 113.53
C174.30 113.27 174.21 112.93 174.21 112.49
C174.21 112.00 174.30 111.61 174.48 111.32
C174.64 111.05 174.82 110.92 175.02 110.92
Z
M171.53 109.91
L171.50 110.01
C171.41 110.31 171.25 110.61 171.01 110.93
C170.78 111.24 170.51 111.51 170.21 111.73
L170.15 111.77
L170.15 111.84
L170.15 112.69
L170.15 112.93
L170.36 112.81
C170.55 112.70 170.77 112.54 171.00 112.34
C171.11 112.24 171.21 112.14 171.29 112.04
L171.29 112.04
L171.29 117.21
L171.29 117.35
L172.15 117.35
L172.15 117.21
L172.15 110.06
L172.15 109.91
Z
M174.95 109.91
C174.49 109.92 174.11 110.15 173.79 110.62
C173.49 111.07 173.34 111.69 173.34 112.46
C173.34 113.21 173.48 113.81 173.78 114.25
C174.08 114.70 174.45 114.93 174.88 114.93
C175.12 114.93 175.36 114.84 175.59 114.65
C175.68 114.58 175.76 114.49 175.83 114.40
L175.83 114.40
C175.81 114.79 175.76 115.15 175.68 115.46
C175.58 115.85 175.46 116.12 175.32 116.27
C175.19 116.40 175.05 116.47 174.90 116.47
C174.90 116.47 174.90 116.47 174.90 116.47
C174.89 116.47 174.89 116.47 174.89 116.47
C174.73 116.47 174.60 116.39 174.50 116.25
C174.38 116.08 174.30 115.82 174.26 115.47
L174.24 115.32
L174.10 115.34
L173.55 115.42
L173.41 115.44
L173.42 115.57
C173.47 116.17 173.63 116.64 173.88 116.96
C174.15 117.30 174.48 117.47 174.88 117.47
C175.24 117.47 175.55 117.33 175.83 117.06
C176.10 116.79 176.32 116.37 176.47 115.81
C176.62 115.25 176.70 114.48 176.70 113.49
C176.70 112.60 176.63 111.91 176.48 111.43
C176.34 110.94 176.13 110.57 175.86 110.31
C175.58 110.05 175.28 109.91 174.95 109.91
Z
" fill="white" fill-rule="nonzero" />
<path d="
M175.01 134.59
C175.22 134.59 175.40 134.69 175.55 134.90
C175.70 135.12 175.78 135.39 175.78 135.72
C175.78 136.05 175.70 136.31 175.56 136.51
C175.41 136.72 175.23 136.82 175.02 136.82
C174.80 136.82 174.62 136.72 174.48 136.51
C174.33 136.30 174.25 136.02 174.25 135.67
C174.25 135.36 174.33 135.10 174.48 134.90
C174.63 134.69 174.80 134.59 175.01 134.59
Z
M175.00 137.54
C175.27 137.54 175.50 137.67 175.68 137.94
C175.87 138.20 175.97 138.56 175.97 138.99
C175.97 139.43 175.88 139.77 175.69 140.03
C175.51 140.29 175.28 140.42 175.02 140.42
C174.76 140.42 174.53 140.29 174.35 140.02
C174.16 139.75 174.06 139.40 174.06 138.96
C174.06 138.54 174.15 138.20 174.34 137.93
C174.52 137.67 174.74 137.54 175.00 137.54
Z
M171.64 133.87
C171.54 134.18 171.37 134.50 171.13 134.82
C170.88 135.15 170.61 135.43 170.29 135.66
L170.29 136.50
C170.48 136.40 170.68 136.24 170.90 136.04
C171.13 135.84 171.30 135.64 171.44 135.45
L171.44 141.02
L172.01 141.02
L172.01 133.87
Z
M175.01 133.87
C174.62 133.87 174.30 134.04 174.05 134.38
C173.79 134.72 173.66 135.16 173.66 135.70
C173.66 136.06 173.72 136.36 173.84 136.60
C173.96 136.84 174.13 137.03 174.36 137.16
C174.09 137.27 173.87 137.48 173.71 137.79
C173.56 138.09 173.48 138.49 173.48 138.96
C173.48 139.61 173.62 140.14 173.92 140.54
C174.21 140.94 174.58 141.14 175.02 141.14
C175.46 141.14 175.82 140.94 176.11 140.54
C176.41 140.14 176.55 139.62 176.55 138.99
C176.55 138.53 176.48 138.14 176.33 137.83
C176.18 137.52 175.96 137.30 175.68 137.16
C175.91 137.02 176.08 136.84 176.19 136.60
C176.31 136.36 176.36 136.07 176.36 135.73
C176.36 135.18 176.24 134.73 175.98 134.39
C175.72 134.04 175.40 133.87 175.01 133.87
Z
" fill="black" fill-rule="nonzero" />
<path d="
M171.21 181.51
L171.21 181.65
L171.21 182.48
L171.21 182.63
L173.90 182.63
C173.59 183.09 173.31 183.62 173.04 184.24
C172.72 184.96 172.48 185.72 172.30 186.51
C172.12 187.30 172.02 188.00 172.01 188.60
L172.01 188.74
L172.88 188.74
L173.02 188.74
L173.03 188.61
C173.09 187.48 173.33 186.34 173.75 185.20
C174.16 184.05 174.65 183.12 175.19 182.41
L175.22 182.37
L175.22 182.33
L175.22 181.65
L175.22 181.51
Z
" fill="white" fill-rule="nonzero" />
<path d="
M173.19 194.15
C173.45 194.15 173.67 194.25 173.86 194.46
C174.04 194.67 174.14 194.94 174.14 195.27
C174.14 195.59 174.05 195.85 173.86 196.05
C173.68 196.26 173.46 196.36 173.20 196.36
C172.94 196.36 172.71 196.25 172.53 196.05
C172.35 195.85 172.26 195.57 172.26 195.22
C172.26 194.92 172.35 194.66 172.53 194.46
C172.72 194.25 172.94 194.15 173.19 194.15
Z
M173.18 197.06
C173.51 197.06 173.79 197.19 174.02 197.46
C174.26 197.72 174.37 198.07 174.37 198.50
C174.37 198.93 174.26 199.27 174.03 199.53
C173.80 199.79 173.53 199.91 173.20 199.91
C172.88 199.91 172.60 199.78 172.37 199.52
C172.14 199.25 172.02 198.91 172.02 198.47
C172.02 198.06 172.13 197.72 172.36 197.46
C172.58 197.19 172.86 197.06 173.18 197.06
Z
M173.19 193.44
C172.71 193.44 172.31 193.61 172.00 193.94
C171.68 194.28 171.53 194.71 171.53 195.25
C171.53 195.60 171.60 195.90 171.74 196.14
C171.89 196.38 172.11 196.56 172.39 196.69
C172.05 196.80 171.78 197.00 171.59 197.31
C171.39 197.62 171.30 198.00 171.30 198.47
C171.30 199.12 171.48 199.64 171.84 200.03
C172.20 200.43 172.66 200.62 173.20 200.62
C173.74 200.62 174.19 200.43 174.55 200.03
C174.92 199.64 175.10 199.12 175.10 198.50
C175.10 198.04 175.00 197.66 174.82 197.36
C174.63 197.05 174.36 196.83 174.01 196.69
C174.30 196.56 174.51 196.37 174.65 196.14
C174.79 195.90 174.86 195.62 174.86 195.28
C174.86 194.74 174.70 194.29 174.38 193.95
C174.07 193.61 173.67 193.44 173.19 193.44
Z
" fill="black" fill-rule="nonzero" />
<path d="
M185.32 38.59
L185.28 38.68
C185.17 38.97 184.97 39.27 184.68 39.58
C184.39 39.89 184.06 40.15 183.68 40.37
L183.61 40.41
L183.61 40.49
L183.61 41.33
L183.61 41.55
L183.81 41.46
C184.05 41.35 184.31 41.20 184.59 40.99
C184.75 40.87 184.90 40.75 185.02 40.64
L185.02 40.64
L185.02 45.79
L185.02 45.93
L186.02 45.93
L186.02 45.79
L186.02 38.73
L186.02 38.59
Z
" fill="white" fill-rule="nonzero" />
<path d="
M186.34 184.01
L186.34 184.01
L186.34 184.01
C186.34 184.01 186.34 184.01 186.34 184.01
Z
M183.32 181.35
C182.84 181.35 182.45 181.54 182.15 181.92
C181.87 182.29 181.70 182.83 181.66 183.54
L181.65 183.67
L181.78 183.69
L182.37 183.78
L182.53 183.81
L182.53 183.64
C182.53 183.21 182.61 182.89 182.76 182.66
C182.90 182.46 183.08 182.35 183.30 182.35
C183.30 182.35 183.30 182.35 183.30 182.35
C183.30 182.35 183.30 182.35 183.31 182.35
C183.51 182.35 183.68 182.45 183.82 182.64
C183.97 182.84 184.04 183.11 184.04 183.44
C184.04 183.74 183.96 184.06 183.81 184.40
C183.65 184.76 183.30 185.26 182.77 185.92
C182.31 186.50 181.98 187.01 181.81 187.45
C181.63 187.88 181.54 188.28 181.55 188.64
L181.55 188.78
L184.92 188.78
L184.92 188.64
L184.92 187.80
L184.92 187.66
L182.70 187.66
C182.75 187.57 182.80 187.49 182.85 187.40
C182.95 187.24 183.16 186.95 183.50 186.52
C184.05 185.82 184.42 185.25 184.61 184.83
C184.81 184.39 184.91 183.94 184.91 183.46
C184.91 182.92 184.78 182.44 184.53 182.02
C184.25 181.57 183.85 181.35 183.32 181.35
Z
M185.82 181.47
L185.80 181.60
L185.35 185.26
L185.33 185.39
L185.46 185.41
L186.00 185.52
L186.11 185.54
L186.16 185.43
C186.24 185.24 186.34 185.09 186.48 184.98
C186.60 184.88 186.73 184.83 186.87 184.83
C186.87 184.83 186.87 184.83 186.87 184.83
C186.88 184.83 186.88 184.83 186.88 184.83
C187.12 184.83 187.31 184.95 187.47 185.19
C187.65 185.45 187.74 185.81 187.74 186.29
C187.74 186.81 187.64 187.21 187.46 187.50
C187.29 187.77 187.10 187.90 186.88 187.90
C186.88 187.90 186.88 187.90 186.88 187.90
C186.88 187.90 186.88 187.90 186.88 187.90
C186.71 187.90 186.55 187.81 186.42 187.63
C186.27 187.42 186.17 187.11 186.13 186.68
L186.11 186.54
L185.97 186.56
L185.37 186.63
L185.24 186.65
L185.24 186.78
C185.29 187.44 185.45 187.95 185.75 188.32
C186.06 188.71 186.44 188.90 186.89 188.90
C187.43 188.90 187.86 188.63 188.17 188.09
C188.47 187.57 188.63 186.95 188.63 186.23
C188.63 185.49 188.47 184.90 188.17 184.46
C187.85 184.01 187.47 183.78 187.03 183.78
C186.79 183.78 186.56 183.85 186.34 184.01
L186.34 184.01
L186.52 182.59
L188.40 182.59
L188.40 182.45
L188.40 181.62
L188.40 181.47
Z
" fill="white" fill-rule="nonzero" />
<path d="
M185.48 194.90
L185.48 198.07
L183.67 198.07
L185.48 194.90
Z
M185.61 193.51
L182.98 198.07
L182.98 198.86
L185.48 198.86
L185.48 200.55
L186.19 200.55
L186.19 198.86
L186.97 198.86
L186.97 198.07
L186.19 198.07
L186.19 193.51
Z
" fill="black" fill-rule="nonzero" />
<path d="
M195.35 109.98
L195.31 110.07
C195.22 110.37 195.06 110.68 194.82 110.99
C194.59 111.30 194.32 111.57 194.02 111.79
L193.96 111.83
L193.96 111.90
L193.96 112.75
L193.96 112.99
L194.17 112.87
C194.37 112.77 194.58 112.61 194.81 112.40
C194.92 112.30 195.02 112.20 195.11 112.10
L195.11 112.10
L195.11 117.27
L195.11 117.41
L195.96 117.41
L195.96 117.27
L195.96 110.12
L195.96 109.98
Z
M197.19 110.10
L197.19 110.24
L197.19 111.08
L197.19 111.22
L199.38 111.22
C199.13 111.69 198.89 112.24 198.67 112.87
C198.42 113.59 198.22 114.36 198.07 115.16
C197.93 115.96 197.85 116.66 197.84 117.27
L197.84 117.41
L198.57 117.41
L198.71 117.41
L198.72 117.27
C198.77 116.13 198.96 114.98 199.30 113.82
C199.64 112.66 200.03 111.71 200.47 110.99
L200.50 110.96
L200.50 110.92
L200.50 110.24
L200.50 110.10
Z
" fill="white" fill-rule="nonzero" />
<path d="
M197.04 137.17
C197.35 137.17 197.62 137.31 197.84 137.59
C198.06 137.86 198.16 138.25 198.16 138.75
C198.16 139.26 198.05 139.66 197.84 139.95
C197.62 140.24 197.37 140.39 197.09 140.39
C196.77 140.39 196.49 140.23 196.25 139.92
C196.01 139.61 195.89 139.21 195.89 138.70
C195.89 138.23 196.01 137.86 196.24 137.59
C196.47 137.31 196.73 137.17 197.04 137.17
Z
M197.15 133.91
C196.54 133.91 196.05 134.20 195.66 134.78
C195.27 135.36 195.08 136.32 195.08 137.68
C195.08 138.91 195.27 139.78 195.64 140.31
C196.02 140.83 196.50 141.10 197.08 141.10
C197.41 141.10 197.70 141.00 197.97 140.82
C198.24 140.64 198.46 140.36 198.63 139.98
C198.80 139.59 198.89 139.17 198.89 138.70
C198.89 138.00 198.72 137.45 198.38 137.03
C198.04 136.62 197.64 136.41 197.18 136.41
C196.90 136.41 196.64 136.49 196.40 136.65
C196.15 136.81 195.95 137.04 195.78 137.35
C195.79 136.48 195.90 135.83 196.11 135.39
C196.36 134.88 196.69 134.62 197.10 134.62
C197.37 134.62 197.60 134.73 197.78 134.96
C197.92 135.11 198.02 135.37 198.08 135.73
L198.79 135.66
C198.72 135.09 198.54 134.66 198.25 134.36
C197.95 134.06 197.58 133.91 197.15 133.91
Z
" fill="black" fill-rule="nonzero" />
<path d="
M196.25 172.09
L196.25 172.09
L196.25 172.09
C196.25 172.09 196.25 172.09 196.25 172.09
Z
M195.68 169.55
L195.66 169.67
L195.10 173.28
L195.07 173.42
L195.21 173.44
L195.88 173.55
L195.98 173.57
L196.03 173.47
C196.13 173.28 196.26 173.13 196.42 173.03
C196.59 172.92 196.76 172.87 196.95 172.87
C196.95 172.87 196.95 172.87 196.95 172.87
C196.95 172.87 196.95 172.87 196.95 172.87
C197.26 172.87 197.52 172.99 197.73 173.24
C197.94 173.49 198.05 173.84 198.05 174.31
C198.05 174.81 197.93 175.21 197.71 175.49
C197.50 175.76 197.25 175.90 196.96 175.90
C196.96 175.90 196.96 175.90 196.95 175.90
C196.95 175.90 196.95 175.90 196.95 175.90
C196.73 175.90 196.52 175.80 196.35 175.61
C196.17 175.42 196.05 175.11 196.00 174.69
L195.98 174.56
L195.84 174.57
L195.10 174.65
L194.96 174.66
L194.97 174.80
C195.02 175.45 195.23 175.96 195.60 176.33
C195.97 176.70 196.43 176.89 196.96 176.89
C197.61 176.89 198.13 176.63 198.52 176.10
C198.89 175.58 199.08 174.96 199.08 174.24
C199.08 173.51 198.89 172.93 198.51 172.49
C198.12 172.05 197.67 171.82 197.14 171.82
C196.83 171.82 196.53 171.91 196.25 172.09
L196.25 172.09
L196.48 170.66
L198.80 170.66
L198.80 170.52
L198.80 169.69
L198.80 169.55
Z
" fill="white" fill-rule="nonzero" />
<path d="
M198.85 196.70
C199.11 196.70 199.32 196.84 199.50 197.12
C199.68 197.39 199.76 197.79 199.76 198.29
C199.76 198.81 199.67 199.21 199.50 199.51
C199.32 199.80 199.12 199.95 198.89 199.95
C198.64 199.95 198.41 199.79 198.22 199.48
C198.02 199.17 197.93 198.75 197.93 198.24
C197.93 197.77 198.02 197.39 198.20 197.11
C198.39 196.84 198.61 196.70 198.85 196.70
Z
M195.23 193.39
C194.79 193.39 194.44 193.57 194.17 193.91
C193.90 194.26 193.75 194.77 193.70 195.45
L194.29 195.55
C194.29 195.09 194.38 194.73 194.55 194.49
C194.72 194.24 194.94 194.12 195.21 194.12
C195.46 194.12 195.67 194.23 195.84 194.46
C196.01 194.69 196.09 194.99 196.09 195.35
C196.09 195.66 196.01 196.00 195.84 196.37
C195.68 196.73 195.32 197.25 194.79 197.91
C194.33 198.49 194.01 198.98 193.84 199.40
C193.67 199.83 193.59 200.21 193.60 200.55
L196.69 200.55
L196.69 199.71
L194.39 199.71
C194.45 199.55 194.54 199.39 194.64 199.23
C194.73 199.07 194.96 198.77 195.30 198.34
C195.83 197.64 196.20 197.09 196.39 196.67
C196.58 196.26 196.68 195.82 196.68 195.37
C196.68 194.86 196.56 194.40 196.31 194.00
C196.07 193.60 195.70 193.39 195.23 193.39
Z
M198.94 193.39
C198.45 193.39 198.05 193.69 197.73 194.27
C197.42 194.86 197.26 195.84 197.26 197.21
C197.26 198.45 197.42 199.34 197.72 199.87
C198.03 200.40 198.42 200.67 198.89 200.67
C199.15 200.67 199.39 200.58 199.61 200.39
C199.83 200.21 200.00 199.92 200.14 199.53
C200.28 199.15 200.35 198.71 200.35 198.24
C200.35 197.54 200.21 196.97 199.94 196.56
C199.66 196.14 199.34 195.93 198.97 195.93
C198.74 195.93 198.53 196.01 198.33 196.17
C198.13 196.33 197.97 196.56 197.84 196.87
C197.84 196.00 197.93 195.34 198.10 194.89
C198.30 194.37 198.57 194.11 198.90 194.11
C199.12 194.11 199.30 194.23 199.46 194.45
C199.56 194.61 199.64 194.87 199.70 195.24
L200.27 195.17
C200.22 194.59 200.07 194.15 199.83 193.85
C199.59 193.55 199.29 193.39 198.94 193.39
Z
" fill="black" fill-rule="nonzero" />
</g>
<g  transform="translate(1.19,228.58)" >
<path d="
M106.49 2.72
C106.33 2.72 106.19 2.78 106.07 2.89
C105.96 3.01 105.90 3.15 105.90 3.31
C105.90 3.47 105.96 3.61 106.07 3.73
C106.19 3.84 106.33 3.90 106.49 3.90
C106.66 3.90 106.79 3.84 106.91 3.73
C107.02 3.61 107.08 3.47 107.08 3.31
C107.08 3.15 107.02 3.01 106.91 2.89
C106.79 2.78 106.66 2.72 106.49 2.72
Z
M128.79 4.17
L128.79 8.08
L126.02 8.08
L128.79 4.17
Z
M111.46 7.81
L111.46 9.84
C110.98 10.23 110.60 10.42 110.30 10.42
C110.08 10.42 109.89 10.33 109.73 10.15
C109.56 9.96 109.48 9.73 109.48 9.45
C109.48 9.23 109.54 9.03 109.67 8.84
C109.80 8.66 110.02 8.48 110.33 8.31
C110.50 8.21 110.88 8.05 111.46 7.81
Z
M99.81 3.55
C100.74 3.55 101.51 3.86 102.10 4.49
C102.69 5.12 102.99 5.98 102.99 7.06
C102.99 8.15 102.69 9.00 102.10 9.63
C101.51 10.27 100.76 10.58 99.86 10.58
C99.53 10.58 99.11 10.53 98.62 10.42
L98.62 3.72
C99.07 3.60 99.46 3.55 99.81 3.55
Z
M96.37 3.11
L96.37 3.32
L96.67 3.32
C96.97 3.32 97.19 3.41 97.34 3.58
C97.45 3.70 97.51 4.01 97.51 4.50
L97.51 9.59
C97.51 10.04 97.46 10.33 97.38 10.45
C97.24 10.67 97.00 10.77 96.67 10.77
L96.37 10.77
L96.37 10.99
L99.89 10.99
C101.43 10.99 102.57 10.58 103.31 9.76
C103.98 9.02 104.31 8.10 104.31 7.01
C104.31 6.19 104.13 5.47 103.75 4.84
C103.38 4.22 102.88 3.77 102.27 3.51
C101.66 3.24 100.76 3.11 99.58 3.11
Z
M106.72 5.51
L105.12 6.16
L105.20 6.37
C105.35 6.31 105.48 6.28 105.59 6.28
C105.69 6.28 105.77 6.30 105.83 6.35
C105.89 6.40 105.93 6.49 105.96 6.61
C105.99 6.78 106.01 7.16 106.01 7.73
L106.01 9.79
C106.01 10.11 105.98 10.34 105.93 10.45
C105.88 10.57 105.81 10.65 105.72 10.70
C105.63 10.75 105.46 10.78 105.20 10.78
L105.20 10.99
L107.78 10.99
L107.78 10.78
C107.53 10.78 107.36 10.75 107.26 10.70
C107.17 10.64 107.10 10.56 107.05 10.45
C107.00 10.34 106.98 10.12 106.98 9.79
L106.98 5.51
Z
M122.62 2.94
L120.71 3.88
L120.79 4.06
C121.05 3.94 121.25 3.88 121.39 3.88
C121.49 3.88 121.58 3.91 121.65 3.97
C121.72 4.02 121.77 4.12 121.80 4.24
C121.84 4.40 121.86 4.77 121.86 5.34
L121.86 9.60
C121.86 10.07 121.84 10.36 121.79 10.45
C121.75 10.55 121.68 10.62 121.57 10.68
C121.46 10.73 121.22 10.77 120.85 10.77
L120.85 10.99
L123.81 10.99
L123.81 10.77
C123.45 10.77 123.22 10.73 123.10 10.67
C122.99 10.62 122.91 10.53 122.87 10.42
C122.83 10.32 122.82 10.04 122.82 9.60
L122.82 2.94
Z
M129.11 2.94
L125.45 8.16
L125.45 8.91
L128.79 8.91
L128.79 10.99
L129.75 10.99
L129.75 8.91
L130.80 8.91
L130.80 8.08
L129.75 8.08
L129.75 2.94
Z
M110.65 5.51
C110.03 5.51 109.55 5.65 109.21 5.93
C108.87 6.20 108.70 6.51 108.70 6.84
C108.70 7.02 108.75 7.16 108.84 7.26
C108.93 7.36 109.05 7.41 109.19 7.41
C109.34 7.41 109.46 7.36 109.55 7.26
C109.64 7.17 109.68 7.03 109.68 6.85
L109.67 6.51
C109.67 6.34 109.75 6.19 109.89 6.06
C110.04 5.93 110.23 5.86 110.48 5.86
C110.80 5.86 111.04 5.96 111.21 6.16
C111.38 6.36 111.46 6.72 111.46 7.25
L111.46 7.46
C110.55 7.79 109.89 8.08 109.50 8.31
C109.11 8.54 108.83 8.79 108.67 9.05
C108.56 9.24 108.50 9.47 108.50 9.73
C108.50 10.14 108.62 10.47 108.86 10.72
C109.09 10.97 109.40 11.10 109.77 11.10
C110.00 11.10 110.23 11.05 110.43 10.95
C110.57 10.89 110.92 10.64 111.46 10.22
C111.47 10.54 111.53 10.76 111.64 10.90
C111.75 11.03 111.90 11.09 112.09 11.09
C112.49 11.09 112.90 10.80 113.34 10.22
L113.34 9.90
C113.10 10.13 112.95 10.27 112.86 10.32
C112.82 10.35 112.76 10.36 112.70 10.36
C112.64 10.36 112.59 10.34 112.55 10.30
C112.50 10.26 112.47 10.19 112.45 10.07
C112.43 9.96 112.42 9.65 112.42 9.14
L112.42 7.33
C112.42 6.82 112.39 6.48 112.32 6.31
C112.21 6.05 112.04 5.87 111.81 5.75
C111.51 5.59 111.12 5.51 110.65 5.51
Z
M114.85 9.86
C114.67 9.86 114.52 9.92 114.39 10.05
C114.26 10.17 114.20 10.32 114.20 10.51
C114.20 10.68 114.26 10.84 114.39 10.96
C114.52 11.09 114.67 11.15 114.85 11.15
C115.02 11.15 115.18 11.09 115.30 10.96
C115.43 10.84 115.49 10.68 115.49 10.51
C115.49 10.33 115.43 10.18 115.31 10.05
C115.18 9.92 115.03 9.86 114.85 9.86
Z
" fill="black" fill-rule="nonzero" />
</g>
</g>
</svg>
