<?xml version="1.0" encoding="utf-8" standalone="no"?>
<!DOCTYPE svg PUBLIC "-//W3C//DTD SVG 1.0//EN" "http://www.w3.org/TR/SVG/DTD/svg11.dtd" >
<svg version="1.1" baseProfile="full"  width="319.13385" height="338.51422" viewBox="0 0 229.77638 243.73024" preserveAspectRatio="xMidYMid" xmlns="http://www.w3.org/2000/svg" >

<g lengthAdjust="spacingAndGlyphs" xml:space='preserve' >
<g  transform="translate(1.19,1.19)" >
<path d="
M0.0 0.0
L0.0 227.39
L227.39 227.39
L227.39 0.0
Z
" fill="none" fill-rule="nonzero" />
<line x1="6.54" y1="6.54" x2="6.54" y2="220.84" fill="none" stroke="black" stroke-width="0.87px" stroke-linecap="square" />
<line x1="18.45" y1="6.54" x2="18.45" y2="220.84" fill="none" stroke="black" stroke-width="0.25px" stroke-linecap="butt" />
<line x1="30.35" y1="6.54" x2="30.35" y2="36.31" fill="none" stroke="black" stroke-width="0.25px" stroke-linecap="butt" />
<line x1="30.35" y1="48.21" x2="30.35" y2="107.74" fill="none" stroke="black" stroke-width="0.25px" stroke-linecap="butt" />
<line x1="30.35" y1="119.65" x2="30.35" y2="220.84" fill="none" stroke="black" stroke-width="0.25px" stroke-linecap="butt" />
<line x1="42.26" y1="6.54" x2="42.26" y2="48.21" fill="none" stroke="black" stroke-width="0.25px" stroke-linecap="butt" />
<line x1="42.26" y1="60.12" x2="42.26" y2="220.84" fill="none" stroke="black" stroke-width="0.25px" stroke-linecap="butt" />
<line x1="54.17" y1="6.54" x2="54.17" y2="36.31" fill="none" stroke="black" stroke-width="0.25px" stroke-linecap="butt" />
<line x1="54.17" y1="48.21" x2="54.17" y2="220.84" fill="none" stroke="black" stroke-width="0.25px" stroke-linecap="butt" />
<line x1="66.07" y1="6.54" x2="66.07" y2="220.84" fill="none" stroke="black" stroke-width="0.25px" stroke-linecap="butt" />
<line x1="77.98" y1="6.54" x2="77.98" y2="220.84" fill="none" stroke="black" stroke-width="0.25px" stroke-linecap="butt" />
<line x1="89.88" y1="6.54" x2="89.88" y2="220.84" fill="none" stroke="black" stroke-width="0.25px" stroke-linecap="butt" />
<line x1="101.79" y1="6.54" x2="101.79" y2="220.84" fill="none" stroke="black" stroke-width="0.25px" stroke-linecap="butt" />
<line x1="113.69" y1="6.54" x2="113.69" y2="220.84" fill="none" stroke="black" stroke-width="0.25px" stroke-linecap="butt" />
<line x1="125.60" y1="6.54" x2="125.60" y2="220.84" fill="none" stroke="black" stroke-width="0.25px" stroke-linecap="butt" />
<line x1="137.50" y1="6.54" x2="137.50" y2="220.84" fill="none" stroke="black" stroke-width="0.25px" stroke-linecap="butt" />
<line x1="149.41" y1="6.54" x2="149.41" y2="220.84" fill="none" stroke="black" stroke-width="0.25px" stroke-linecap="butt" />
<line x1="161.31" y1="6.54" x2="161.31" y2="220.84" fill="none" stroke="black" stroke-width="0.25px" stroke-linecap="butt" />
<line x1="173.22" y1="6.54" x2="173.22" y2="220.84" fill="none" stroke="black" stroke-width="0.25px" stroke-linecap="butt" />
<line x1="185.13" y1="6.54" x2="185.13" y2="220.84" fill="none" stroke="black" stroke-width="0.25px" stroke-linecap="butt" />
<line x1="197.03" y1="6.54" x2="197.03" y2="131.55" fill="none" stroke="black" stroke-width="0.25px" stroke-linecap="butt" />
<line x1="197.03" y1="143.46" x2="197.03" y2="220.84" fill="none" stroke="black" stroke-width="0.25px" stroke-linecap="butt" />
<line x1="208.94" y1="6.54" x2="208.94" y2="220.84" fill="none" stroke="black" stroke-width="0.25px" stroke-linecap="butt" />
<line x1="220.84" y1="6.54" x2="220.84" y2="220.84" fill="none" stroke="black" stroke-width="0.87px" stroke-linecap="square" />
<line x1="6.54" y1="6.54" x2="220.84" y2="6.54" fill="none" stroke="black" stroke-width="0.87px" stroke-linecap="square" />
<line x1="6.54" y1="18.45" x2="220.84" y2="18.45" fill="none" stroke="black" stroke-width="0.25px" stroke-linecap="butt" />
<line x1="6.54" y1="30.35" x2="220.84" y2="30.35" fill="none" stroke="black" stroke-width="0.25px" stroke-linecap="butt" />
<line x1="6.54" y1="42.26" x2="24.40" y2="42.26" fill="none" stroke="black" stroke-width="0.25px" stroke-linecap="butt" />
<line x1="36.31" y1="42.26" x2="48.21" y2="42.26" fill="none" stroke="black" stroke-width="0.25px" stroke-linecap="butt" />
<line x1="60.12" y1="42.26" x2="220.84" y2="42.26" fill="none" stroke="black" stroke-width="0.25px" stroke-linecap="butt" />
<line x1="6.54" y1="54.17" x2="36.31" y2="54.17" fill="none" stroke="black" stroke-width="0.25px" stroke-linecap="butt" />
<line x1="48.21" y1="54.17" x2="220.84" y2="54.17" fill="none" stroke="black" stroke-width="0.25px" stroke-linecap="butt" />
<line x1="6.54" y1="66.07" x2="220.84" y2="66.07" fill="none" stroke="black" stroke-width="0.25px" stroke-linecap="butt" />
<line x1="6.54" y1="77.98" x2="220.84" y2="77.98" fill="none" stroke="black" stroke-width="0.25px" stroke-linecap="butt" />
<line x1="6.54" y1="89.88" x2="220.84" y2="89.88" fill="none" stroke="black" stroke-width="0.25px" stroke-linecap="butt" />
<line x1="6.54" y1="101.79" x2="220.84" y2="101.79" fill="none" stroke="black" stroke-width="0.25px" stroke-linecap="butt" />
<line x1="6.54" y1="113.69" x2="24.40" y2="113.69" fill="none" stroke="black" stroke-width="0.25px" stroke-linecap="butt" />
<line x1="36.31" y1="113.69" x2="220.84" y2="113.69" fill="none" stroke="black" stroke-width="0.25px" stroke-linecap="butt" />
<line x1="6.54" y1="125.60" x2="220.84" y2="125.60" fill="none" stroke="black" stroke-width="0.25px" stroke-linecap="butt" />
<line x1="6.54" y1="137.50" x2="191.08" y2="137.50" fill="none" stroke="black" stroke-width="0.25px" stroke-linecap="butt" />
<line x1="202.98" y1="137.50" x2="220.84" y2="137.50" fill="none" stroke="black" stroke-width="0.25px" stroke-linecap="butt" />
<line x1="6.54" y1="149.41" x2="220.84" y2="149.41" fill="none" stroke="black" stroke-width="0.25px" stroke-linecap="butt" />
<line x1="6.54" y1="161.31" x2="220.84" y2="161.31" fill="none" stroke="black" stroke-width="0.25px" stroke-linecap="butt" />
<line x1="6.54" y1="173.22" x2="220.84" y2="173.22" fill="none" stroke="black" stroke-width="0.25px" stroke-linecap="butt" />
<line x1="6.54" y1="185.13" x2="220.84" y2="185.13" fill="none" stroke="black" stroke-width="0.25px" stroke-linecap="butt" />
<line x1="6.54" y1="197.03" x2="220.84" y2="197.03" fill="none" stroke="black" stroke-width="0.25px" stroke-linecap="butt" />
<line x1="6.54" y1="208.94" x2="220.84" y2="208.94" fill="none" stroke="black" stroke-width="0.25px" stroke-linecap="butt" />
<line x1="6.54" y1="220.84" x2="220.84" y2="220.84" fill="none" stroke="black" stroke-width="0.87px" stroke-linecap="square" />
<circle cx="30.35" cy="54.17" r="6.01" fill="black"/>
<circle cx="30.35" cy="89.88" r="5.89" fill="white"/>
<circle cx="30.35" cy="89.88" r="5.89" fill="none" stroke="black" stroke-width="0.25px"/>
<circle cx="30.35" cy="125.60" r="5.89" fill="white"/>
<circle cx="30.35" cy="125.60" r="5.89" fill="none" stroke="black" stroke-width="0.25px"/>
<circle cx="30.35" cy="161.31" r="5.89" fill="white"/>
<circle cx="30.35" cy="161.31" r="5.89" fill="none" stroke="black" stroke-width="0.25px"/>
<circle cx="42.26" cy="30.35" r="5.89" fill="white"/>
<circle cx="42.26" cy="30.35" r="5.89" fill="none" stroke="black" stroke-width="0.25px"/>
<circle cx="42.26" cy="42.26" r="1.27" fill="black"/>
<circle cx="42.26" cy="77.98" r="5.89" fill="white"/>
<circle cx="42.26" cy="77.98" r="5.89" fill="none" stroke="black" stroke-width="0.25px"/>
<circle cx="42.26" cy="89.88" r="6.01" fill="black"/>
<circle cx="42.26" cy="101.79" r="5.89" fill="white"/>
<circle cx="42.26" cy="101.79" r="5.89" fill="none" stroke="black" stroke-width="0.25px"/>
<circle cx="42.26" cy="113.69" r="1.27" fill="black"/>
<circle cx="42.26" cy="185.13" r="6.01" fill="black"/>
<circle cx="54.17" cy="66.07" r="6.01" fill="black"/>
<circle cx="54.17" cy="77.98" r="6.01" fill="black"/>
<circle cx="54.17" cy="89.88" r="6.01" fill="black"/>
<circle cx="66.07" cy="197.03" r="6.01" fill="black"/>
<circle cx="77.98" cy="30.35" r="5.89" fill="white"/>
<circle cx="77.98" cy="30.35" r="5.89" fill="none" stroke="black" stroke-width="0.25px"/>
<circle cx="113.69" cy="42.26" r="1.27" fill="black"/>
<circle cx="113.69" cy="113.69" r="1.27" fill="black"/>
<circle cx="113.69" cy="185.13" r="1.27" fill="black"/>
<circle cx="185.13" cy="42.26" r="6.01" fill="black"/>
<circle cx="185.13" cy="113.69" r="1.27" fill="black"/>
<circle cx="185.13" cy="185.13" r="1.27" fill="black"/>
<circle cx="185.13" cy="197.03" r="5.89" fill="white"/>
<circle cx="185.13" cy="197.03" r="5.89" fill="none" stroke="black" stroke-width="0.25px"/>
<circle cx="197.03" cy="113.69" r="5.89" fill="white"/>
<circle cx="197.03" cy="113.69" r="5.89" fill="none" stroke="black" stroke-width="0.25px"/>
<circle cx="197.03" cy="173.22" r="6.01" fill="black"/>
<path d="
M29.50 39.72
C30.14 39.72 30.56 39.75 30.78 39.80
C31.06 39.86 31.30 39.98 31.49 40.16
C31.68 40.33 31.83 40.58 31.93 40.90
C32.04 41.22 32.09 41.67 32.09 42.26
C32.09 42.86 32.04 43.33 31.93 43.67
C31.83 44.01 31.69 44.26 31.53 44.41
C31.36 44.56 31.15 44.67 30.90 44.73
C30.71 44.78 30.40 44.80 29.96 44.80
L28.81 44.80
L28.81 39.72
Z
M27.26 38.42
L27.26 46.09
L30.17 46.09
C30.75 46.09 31.20 46.04 31.54 45.93
C32.00 45.79 32.36 45.58 32.63 45.32
C32.99 44.97 33.26 44.52 33.45 43.97
C33.61 43.51 33.69 42.96 33.69 42.33
C33.69 41.61 33.61 41.01 33.44 40.52
C33.27 40.03 33.03 39.62 32.71 39.28
C32.38 38.94 32.00 38.70 31.55 38.57
C31.21 38.47 30.73 38.42 30.09 38.42
Z
" fill="black" fill-rule="nonzero" />
<path d="
M28.34 50.55
L28.34 50.69
L28.34 51.52
L28.34 51.66
L31.03 51.66
C30.73 52.13 30.44 52.66 30.17 53.28
C29.86 54.00 29.61 54.75 29.43 55.55
C29.25 56.34 29.16 57.04 29.15 57.63
L29.14 57.78
L30.02 57.78
L30.15 57.78
L30.16 57.65
C30.22 56.52 30.46 55.38 30.88 54.24
C31.30 53.09 31.78 52.16 32.33 51.45
L32.36 51.41
L32.36 51.36
L32.36 50.69
L32.36 50.55
Z
" fill="white" fill-rule="nonzero" />
<path d="
M32.18 89.55
C32.43 89.55 32.65 89.69 32.82 89.97
C33.00 90.25 33.09 90.64 33.09 91.14
C33.09 91.66 33.00 92.06 32.82 92.36
C32.64 92.65 32.44 92.80 32.22 92.80
C31.96 92.80 31.73 92.64 31.54 92.33
C31.35 92.02 31.25 91.60 31.25 91.09
C31.25 90.62 31.34 90.24 31.53 89.96
C31.71 89.69 31.93 89.55 32.18 89.55
Z
M28.77 86.25
C28.67 86.56 28.50 86.88 28.26 87.20
C28.02 87.53 27.74 87.81 27.42 88.03
L27.42 88.88
C27.61 88.77 27.81 88.62 28.04 88.42
C28.26 88.22 28.44 88.02 28.57 87.82
L28.57 93.40
L29.15 93.40
L29.15 86.25
Z
M32.26 86.25
C31.77 86.25 31.37 86.54 31.06 87.12
C30.74 87.71 30.59 88.69 30.59 90.06
C30.59 91.30 30.74 92.19 31.05 92.72
C31.35 93.25 31.74 93.52 32.21 93.52
C32.47 93.52 32.71 93.43 32.93 93.24
C33.15 93.06 33.33 92.77 33.47 92.38
C33.60 92.00 33.67 91.57 33.67 91.09
C33.67 90.39 33.54 89.82 33.26 89.41
C32.98 88.99 32.66 88.78 32.29 88.78
C32.07 88.78 31.86 88.86 31.66 89.02
C31.46 89.18 31.29 89.41 31.16 89.72
C31.16 88.85 31.25 88.19 31.42 87.74
C31.63 87.22 31.89 86.96 32.23 86.96
C32.44 86.96 32.63 87.08 32.78 87.30
C32.89 87.46 32.97 87.72 33.02 88.09
L33.59 88.02
C33.54 87.44 33.39 87.00 33.15 86.70
C32.91 86.40 32.62 86.25 32.26 86.25
Z
" fill="black" fill-rule="nonzero" />
<path d="
M27.56 109.86
L27.56 117.53
L33.39 117.53
L33.39 116.24
L29.11 116.24
L29.11 114.15
L32.96 114.15
L32.96 112.86
L29.11 112.86
L29.11 111.16
L33.25 111.16
L33.25 109.86
Z
" fill="black" fill-rule="nonzero" />
<path d="
M32.15 122.68
C32.35 122.68 32.53 122.79 32.68 123.00
C32.84 123.21 32.91 123.48 32.91 123.82
C32.91 124.14 32.84 124.41 32.69 124.61
C32.54 124.81 32.36 124.92 32.15 124.92
C31.94 124.92 31.76 124.81 31.61 124.60
C31.46 124.40 31.39 124.12 31.39 123.77
C31.39 123.46 31.46 123.20 31.61 122.99
C31.76 122.78 31.94 122.68 32.15 122.68
Z
M32.14 125.63
C32.40 125.63 32.63 125.76 32.82 126.03
C33.01 126.30 33.10 126.65 33.10 127.09
C33.10 127.52 33.01 127.87 32.83 128.13
C32.64 128.39 32.42 128.52 32.15 128.52
C31.89 128.52 31.67 128.38 31.48 128.11
C31.29 127.85 31.20 127.50 31.20 127.06
C31.20 126.64 31.29 126.29 31.47 126.03
C31.65 125.76 31.88 125.63 32.14 125.63
Z
M28.77 121.96
C28.67 122.27 28.50 122.59 28.26 122.92
C28.02 123.25 27.74 123.52 27.42 123.75
L27.42 124.59
C27.61 124.49 27.81 124.34 28.04 124.14
C28.26 123.93 28.44 123.73 28.57 123.54
L28.57 129.11
L29.15 129.11
L29.15 121.96
Z
M32.14 121.96
C31.76 121.96 31.44 122.13 31.18 122.47
C30.92 122.81 30.80 123.25 30.80 123.79
C30.80 124.15 30.86 124.45 30.97 124.69
C31.09 124.94 31.27 125.12 31.50 125.25
C31.22 125.36 31.00 125.57 30.85 125.88
C30.69 126.19 30.61 126.58 30.61 127.06
C30.61 127.71 30.76 128.23 31.05 128.63
C31.35 129.03 31.71 129.23 32.15 129.23
C32.59 129.23 32.95 129.03 33.25 128.63
C33.54 128.23 33.69 127.72 33.69 127.08
C33.69 126.62 33.61 126.24 33.46 125.93
C33.31 125.62 33.09 125.39 32.81 125.25
C33.04 125.12 33.21 124.93 33.33 124.69
C33.44 124.46 33.50 124.17 33.50 123.82
C33.50 123.28 33.37 122.83 33.11 122.48
C32.85 122.13 32.53 121.96 32.14 121.96
Z
" fill="black" fill-rule="nonzero" />
<path d="
M32.45 159.17
L32.45 162.38
L30.99 162.38
L32.45 159.17
Z
M28.77 157.74
C28.67 158.05 28.50 158.37 28.26 158.70
C28.02 159.02 27.74 159.30 27.42 159.53
L27.42 160.37
C27.61 160.27 27.81 160.12 28.04 159.91
C28.26 159.71 28.44 159.51 28.57 159.32
L28.57 164.89
L29.15 164.89
L29.15 157.74
Z
M32.56 157.77
L30.43 162.38
L30.43 163.19
L32.45 163.19
L32.45 164.89
L33.03 164.89
L33.03 163.19
L33.66 163.19
L33.66 162.38
L33.03 162.38
L33.03 157.77
Z
" fill="black" fill-rule="nonzero" />
<path d="
M42.27 26.82
C41.73 26.82 41.30 26.99 40.97 27.33
C40.64 27.67 40.44 28.18 40.39 28.86
L41.12 28.95
C41.12 28.49 41.23 28.14 41.44 27.90
C41.65 27.66 41.92 27.54 42.25 27.54
C42.56 27.54 42.82 27.65 43.03 27.88
C43.23 28.10 43.34 28.39 43.34 28.75
C43.34 29.06 43.24 29.40 43.03 29.76
C42.83 30.12 42.39 30.63 41.73 31.29
C41.17 31.85 40.78 32.34 40.56 32.76
C40.35 33.17 40.25 33.55 40.26 33.89
L44.07 33.89
L44.07 33.06
L41.24 33.06
C41.32 32.90 41.42 32.74 41.54 32.59
C41.67 32.43 41.94 32.13 42.36 31.70
C43.02 31.02 43.47 30.47 43.71 30.06
C43.95 29.65 44.06 29.22 44.06 28.77
C44.06 28.26 43.91 27.81 43.61 27.42
C43.31 27.02 42.86 26.82 42.27 26.82
Z
" fill="black" fill-rule="nonzero" />
<path d="
M41.61 51.61
C42.34 51.61 42.78 51.62 42.94 51.63
C43.20 51.66 43.39 51.75 43.52 51.90
C43.65 52.05 43.72 52.24 43.72 52.48
C43.72 52.73 43.64 52.93 43.49 53.08
C43.34 53.23 43.13 53.32 42.86 53.35
C42.72 53.37 42.34 53.38 41.74 53.38
L40.72 53.38
L40.72 51.61
Z
M41.97 54.66
C42.68 54.66 43.14 54.69 43.35 54.77
C43.56 54.84 43.72 54.96 43.83 55.12
C43.94 55.28 44.00 55.47 44.00 55.70
C44.00 55.98 43.93 56.19 43.78 56.35
C43.64 56.52 43.45 56.62 43.22 56.66
C43.07 56.69 42.72 56.71 42.16 56.71
L40.72 56.71
L40.72 54.66
Z
M39.18 50.33
L39.18 58.00
L41.79 58.00
C42.77 57.99 43.40 57.98 43.65 57.95
C44.07 57.90 44.41 57.78 44.69 57.58
C44.97 57.39 45.19 57.12 45.36 56.79
C45.52 56.46 45.60 56.13 45.60 55.78
C45.60 55.33 45.47 54.95 45.22 54.62
C44.97 54.29 44.61 54.06 44.15 53.92
C44.48 53.77 44.74 53.55 44.93 53.25
C45.13 52.95 45.22 52.62 45.22 52.26
C45.22 51.93 45.14 51.63 44.99 51.36
C44.83 51.10 44.63 50.88 44.40 50.72
C44.16 50.56 43.90 50.46 43.60 50.41
C43.30 50.36 42.85 50.33 42.24 50.33
Z
" fill="black" fill-rule="nonzero" />
<path d="
M42.23 75.09
C42.49 75.09 42.71 75.20 42.90 75.41
C43.08 75.62 43.18 75.89 43.18 76.22
C43.18 76.54 43.09 76.80 42.90 77.00
C42.72 77.20 42.50 77.30 42.24 77.30
C41.97 77.30 41.75 77.20 41.57 76.99
C41.39 76.79 41.29 76.51 41.29 76.17
C41.29 75.86 41.39 75.61 41.57 75.40
C41.75 75.20 41.97 75.09 42.23 75.09
Z
M42.22 78.01
C42.55 78.01 42.83 78.14 43.06 78.40
C43.29 78.67 43.41 79.02 43.41 79.45
C43.41 79.88 43.30 80.22 43.07 80.47
C42.84 80.73 42.57 80.86 42.24 80.86
C41.92 80.86 41.64 80.73 41.41 80.46
C41.18 80.20 41.06 79.85 41.06 79.42
C41.06 79.00 41.17 78.66 41.40 78.40
C41.62 78.14 41.90 78.01 42.22 78.01
Z
M42.23 74.38
C41.75 74.38 41.35 74.55 41.04 74.89
C40.72 75.22 40.57 75.66 40.57 76.19
C40.57 76.55 40.64 76.85 40.78 77.08
C40.93 77.32 41.14 77.50 41.43 77.63
C41.09 77.74 40.82 77.95 40.63 78.25
C40.43 78.56 40.34 78.95 40.34 79.42
C40.34 80.06 40.52 80.58 40.88 80.98
C41.24 81.37 41.70 81.57 42.24 81.57
C42.78 81.57 43.23 81.37 43.59 80.98
C43.95 80.58 44.14 80.07 44.14 79.44
C44.14 78.99 44.04 78.61 43.86 78.30
C43.67 77.99 43.40 77.77 43.05 77.63
C43.34 77.50 43.55 77.32 43.69 77.08
C43.83 76.85 43.90 76.56 43.90 76.22
C43.90 75.68 43.74 75.24 43.42 74.90
C43.11 74.56 42.71 74.38 42.23 74.38
Z
" fill="black" fill-rule="nonzero" />
<path d="
M40.57 86.10
L40.54 86.20
C40.45 86.50 40.29 86.80 40.05 87.12
C39.82 87.43 39.55 87.70 39.25 87.92
L39.19 87.96
L39.19 88.03
L39.19 88.88
L39.19 89.12
L39.19 89.12
L39.40 89.00
C39.59 88.89 39.81 88.73 40.04 88.52
C40.15 88.42 40.25 88.32 40.33 88.23
L40.33 88.23
L40.33 93.39
L40.33 93.54
L41.19 93.54
L41.19 93.39
L41.19 86.24
L41.19 86.10
Z
M43.99 86.10
C43.59 86.10 43.24 86.27 42.96 86.62
C42.69 86.95 42.52 87.44 42.44 88.07
L42.43 88.19
L42.54 88.23
L43.12 88.38
L43.28 88.43
L43.29 88.26
C43.33 87.85 43.42 87.55 43.56 87.36
C43.68 87.19 43.83 87.10 44.00 87.10
C44.00 87.10 44.00 87.10 44.00 87.10
C44.00 87.10 44.00 87.10 44.00 87.10
C44.17 87.10 44.31 87.19 44.43 87.35
C44.56 87.53 44.62 87.77 44.62 88.07
C44.62 88.40 44.54 88.66 44.39 88.85
C44.24 89.03 44.05 89.12 43.82 89.12
L43.82 89.12
L43.74 89.11
L43.59 89.10
L43.58 89.24
L43.51 90.01
L43.49 90.24
L43.71 90.15
C43.85 90.10 43.97 90.07 44.06 90.07
C44.06 90.07 44.06 90.07 44.06 90.07
C44.06 90.07 44.06 90.07 44.06 90.07
C44.27 90.07 44.45 90.17 44.59 90.39
C44.75 90.61 44.83 90.92 44.83 91.31
C44.83 91.72 44.74 92.05 44.57 92.30
C44.41 92.54 44.22 92.65 44.01 92.65
C44.01 92.65 44.01 92.65 44.00 92.65
C44.00 92.65 44.00 92.65 44.00 92.65
C43.81 92.65 43.66 92.56 43.53 92.37
C43.39 92.15 43.30 91.82 43.24 91.38
L43.22 91.23
L43.07 91.26
L42.50 91.38
L42.37 91.40
L42.38 91.52
C42.42 92.16 42.59 92.68 42.89 93.06
C43.19 93.46 43.57 93.66 44.01 93.66
C44.49 93.66 44.90 93.43 45.23 92.98
C45.56 92.54 45.72 91.98 45.72 91.29
C45.72 90.97 45.68 90.68 45.61 90.41
C45.53 90.15 45.42 89.93 45.28 89.77
C45.20 89.66 45.09 89.57 44.97 89.50
L44.97 89.50
C45.11 89.37 45.23 89.20 45.31 89.01
C45.43 88.74 45.50 88.43 45.50 88.09
C45.49 87.53 45.35 87.06 45.07 86.68
C44.78 86.30 44.42 86.10 43.99 86.10
Z
" fill="white" fill-rule="nonzero" />
<path d="
M40.68 98.21
C40.58 98.52 40.41 98.84 40.17 99.17
C39.92 99.50 39.65 99.77 39.33 100.00
L39.33 100.84
C39.52 100.74 39.72 100.59 39.94 100.39
C40.17 100.18 40.34 99.98 40.48 99.79
L40.48 105.36
L41.05 105.36
L41.05 98.21
Z
M44.09 98.21
C43.65 98.21 43.30 98.38 43.03 98.73
C42.76 99.07 42.60 99.59 42.56 100.27
L43.15 100.36
C43.15 99.90 43.24 99.55 43.41 99.30
C43.58 99.06 43.80 98.94 44.07 98.94
C44.32 98.94 44.52 99.05 44.69 99.28
C44.86 99.51 44.95 99.80 44.95 100.16
C44.95 100.48 44.87 100.82 44.70 101.18
C44.53 101.55 44.18 102.06 43.65 102.73
C43.19 103.30 42.87 103.80 42.70 104.22
C42.53 104.64 42.45 105.02 42.45 105.36
L45.54 105.36
L45.54 104.52
L43.25 104.52
C43.31 104.36 43.39 104.20 43.49 104.05
C43.59 103.89 43.81 103.59 44.16 103.15
C44.69 102.46 45.06 101.90 45.25 101.49
C45.44 101.07 45.54 100.64 45.54 100.18
C45.54 99.67 45.41 99.22 45.17 98.81
C44.92 98.41 44.56 98.21 44.09 98.21
Z
" fill="black" fill-rule="nonzero" />
<path d="
M42.16 181.39
C41.68 181.39 41.26 181.56 40.92 181.89
C40.59 182.22 40.37 182.70 40.28 183.33
L40.26 183.46
L40.39 183.49
L41.09 183.65
L41.24 183.68
L41.26 183.53
C41.31 183.13 41.42 182.84 41.59 182.65
C41.74 182.47 41.94 182.38 42.17 182.38
C42.17 182.38 42.17 182.38 42.17 182.38
C42.17 182.38 42.17 182.38 42.17 182.38
C42.39 182.38 42.58 182.47 42.73 182.64
C42.89 182.81 42.97 183.04 42.97 183.34
C42.97 183.65 42.87 183.91 42.68 184.09
C42.49 184.28 42.25 184.37 41.94 184.37
L41.94 184.37
L41.84 184.37
L41.70 184.35
L41.68 184.49
L41.60 185.25
L41.58 185.47
L41.58 185.47
L41.78 185.40
C41.97 185.34 42.12 185.31 42.24 185.31
C42.24 185.31 42.24 185.31 42.24 185.31
C42.24 185.31 42.24 185.31 42.24 185.31
C42.52 185.31 42.75 185.42 42.94 185.64
C43.13 185.86 43.23 186.16 43.23 186.53
C43.23 186.93 43.12 187.26 42.91 187.50
C42.70 187.74 42.45 187.86 42.18 187.86
C42.17 187.86 42.17 187.86 42.17 187.86
C42.17 187.86 42.17 187.86 42.17 187.86
C41.92 187.86 41.71 187.77 41.56 187.57
C41.38 187.36 41.26 187.04 41.19 186.60
L41.17 186.46
L41.03 186.48
L40.32 186.60
L40.19 186.62
L40.20 186.75
C40.25 187.39 40.46 187.90 40.83 188.28
C41.20 188.67 41.65 188.86 42.18 188.86
C42.75 188.86 43.25 188.64 43.65 188.20
C44.06 187.76 44.26 187.20 44.26 186.52
C44.26 186.20 44.21 185.90 44.12 185.64
C44.01 185.38 43.88 185.16 43.72 185.00
C43.61 184.90 43.49 184.81 43.35 184.75
L43.35 184.75
C43.51 184.62 43.65 184.46 43.75 184.27
C43.90 184.01 43.98 183.70 43.98 183.35
C43.98 182.79 43.80 182.33 43.45 181.95
C43.10 181.58 42.67 181.39 42.16 181.39
Z
" fill="white" fill-rule="nonzero" />
<path d="
M54.39 38.29
C53.32 38.29 52.45 38.65 51.79 39.35
C51.13 40.06 50.80 41.05 50.80 42.33
C50.80 43.53 51.13 44.49 51.79 45.18
C52.44 45.88 53.28 46.23 54.30 46.23
C55.12 46.23 55.80 46.02 56.34 45.62
C56.87 45.21 57.25 44.59 57.48 43.75
L55.98 43.27
C55.85 43.84 55.64 44.25 55.34 44.51
C55.05 44.77 54.69 44.90 54.28 44.90
C53.72 44.90 53.27 44.70 52.92 44.28
C52.57 43.87 52.40 43.18 52.40 42.21
C52.40 41.30 52.58 40.64 52.93 40.23
C53.28 39.82 53.75 39.62 54.31 39.62
C54.73 39.62 55.08 39.73 55.36 39.96
C55.65 40.19 55.84 40.51 55.93 40.90
L57.46 40.54
C57.29 39.92 57.03 39.45 56.68 39.13
C56.09 38.57 55.33 38.29 54.39 38.29
Z
" fill="black" fill-rule="nonzero" />
<path d="
M54.14 63.34
C54.14 63.34 54.14 63.34 54.15 63.34
C54.15 63.34 54.15 63.34 54.15 63.34
C54.39 63.34 54.61 63.46 54.81 63.71
C55.01 63.97 55.11 64.34 55.11 64.81
C55.11 65.28 55.01 65.64 54.82 65.89
C54.63 66.13 54.40 66.25 54.13 66.25
C54.13 66.25 54.13 66.25 54.13 66.25
C54.13 66.25 54.13 66.25 54.13 66.25
C53.86 66.25 53.62 66.13 53.42 65.89
C53.22 65.65 53.12 65.31 53.12 64.88
C53.12 64.40 53.23 64.02 53.44 63.74
C53.65 63.47 53.89 63.34 54.14 63.34
Z
M54.06 62.34
C53.51 62.34 53.05 62.57 52.67 63.02
C52.29 63.47 52.10 64.08 52.10 64.85
C52.10 65.60 52.29 66.19 52.65 66.63
C53.02 67.08 53.46 67.30 53.97 67.30
C54.26 67.30 54.54 67.21 54.81 67.03
C54.95 66.93 55.07 66.83 55.18 66.70
L55.18 66.70
C55.16 67.12 55.10 67.48 54.99 67.80
C54.87 68.19 54.72 68.46 54.55 68.60
C54.38 68.74 54.20 68.81 53.99 68.81
C53.99 68.81 53.99 68.81 53.99 68.81
C53.99 68.81 53.99 68.81 53.99 68.81
C53.77 68.81 53.59 68.73 53.46 68.58
C53.32 68.42 53.22 68.16 53.17 67.82
L53.15 67.68
L53.02 67.70
L52.34 67.78
L52.20 67.79
L52.21 67.93
C52.27 68.53 52.46 68.99 52.78 69.31
C53.10 69.64 53.50 69.80 53.98 69.80
C54.40 69.80 54.78 69.67 55.11 69.40
C55.45 69.14 55.71 68.73 55.90 68.17
C56.09 67.62 56.18 66.85 56.18 65.87
C56.18 64.99 56.10 64.31 55.92 63.83
C55.74 63.34 55.49 62.97 55.15 62.72
C54.82 62.46 54.45 62.34 54.06 62.34
Z
" fill="white" fill-rule="nonzero" />
<path d="
M52.48 74.26
L52.45 74.36
C52.35 74.65 52.19 74.96 51.96 75.27
C51.72 75.59 51.46 75.85 51.15 76.07
L51.09 76.12
L51.09 76.19
L51.09 77.03
L51.09 77.27
L51.30 77.16
C51.50 77.05 51.71 76.89 51.94 76.68
C52.05 76.58 52.15 76.48 52.24 76.39
L52.24 76.39
L52.24 81.55
L52.24 81.69
L53.10 81.69
L53.10 81.55
L53.10 74.40
L53.10 74.26
Z
M56.11 74.26
L56.08 74.36
C55.98 74.65 55.82 74.96 55.59 75.27
C55.35 75.59 55.09 75.85 54.78 76.07
L54.72 76.12
L54.72 76.19
L54.72 77.03
L54.72 77.27
L54.93 77.16
C55.13 77.05 55.34 76.89 55.57 76.68
C55.68 76.58 55.78 76.48 55.87 76.39
L55.87 76.39
L55.87 81.55
L55.87 81.69
L56.73 81.69
L56.73 81.55
L56.73 74.40
L56.73 74.26
Z
" fill="white" fill-rule="nonzero" />
<path d="
M52.48 86.16
L52.45 86.26
C52.35 86.56 52.19 86.86 51.96 87.18
C51.72 87.49 51.46 87.76 51.15 87.98
L51.09 88.02
L51.09 88.09
L51.09 88.94
L51.09 89.18
L51.09 89.18
L51.30 89.06
C51.50 88.95 51.71 88.79 51.94 88.58
C52.05 88.49 52.15 88.39 52.24 88.29
L52.24 88.29
L52.24 93.46
L52.24 93.60
L53.10 93.60
L53.10 93.46
L53.10 86.31
L53.10 86.16
Z
M54.32 86.29
L54.32 86.43
L54.32 87.27
L54.32 87.41
L56.51 87.41
C56.26 87.88 56.02 88.43 55.80 89.06
C55.55 89.78 55.35 90.55 55.21 91.35
C55.06 92.15 54.98 92.85 54.98 93.46
L54.97 93.60
L55.71 93.60
L55.84 93.60
L55.85 93.46
C55.90 92.32 56.10 91.17 56.43 90.01
C56.77 88.84 57.16 87.90 57.61 87.18
L57.63 87.15
L57.63 87.11
L57.63 86.43
L57.63 86.29
Z
" fill="white" fill-rule="nonzero" />
<path d="
M67.28 195.91
L67.28 195.91
L67.28 195.91
C67.28 195.91 67.28 195.91 67.28 195.91
Z
M64.38 193.25
L64.35 193.35
C64.26 193.65 64.10 193.95 63.86 194.27
C63.63 194.58 63.36 194.85 63.06 195.07
L63.00 195.11
L63.00 195.18
L63.00 196.03
L63.00 196.27
L63.21 196.15
C63.41 196.04 63.62 195.88 63.85 195.67
C63.96 195.57 64.06 195.48 64.14 195.38
L64.14 195.38
L64.14 200.55
L64.14 200.69
L65.00 200.69
L65.00 200.55
L65.00 193.39
L65.00 193.25
Z
M66.76 193.38
L66.75 193.50
L66.29 197.16
L66.28 197.29
L66.40 197.32
L66.94 197.43
L67.06 197.45
L67.10 197.34
C67.18 197.15 67.29 197.00 67.42 196.89
C67.55 196.79 67.68 196.74 67.82 196.74
C67.82 196.74 67.82 196.74 67.82 196.74
C67.82 196.74 67.82 196.74 67.82 196.74
C68.06 196.74 68.26 196.86 68.42 197.10
C68.59 197.35 68.68 197.72 68.68 198.20
C68.68 198.71 68.59 199.11 68.41 199.40
C68.24 199.67 68.05 199.81 67.83 199.81
C67.83 199.81 67.82 199.81 67.82 199.81
C67.82 199.81 67.82 199.81 67.82 199.81
C67.65 199.81 67.50 199.72 67.36 199.53
C67.21 199.33 67.12 199.02 67.07 198.59
L67.06 198.44
L66.92 198.46
L66.31 198.54
L66.18 198.56
L66.19 198.69
C66.23 199.34 66.40 199.85 66.70 200.23
C67.00 200.61 67.38 200.81 67.83 200.81
C68.37 200.81 68.80 200.54 69.12 199.99
C69.42 199.47 69.57 198.85 69.57 198.13
C69.57 197.40 69.42 196.81 69.11 196.37
C68.79 195.91 68.42 195.68 67.98 195.68
C67.73 195.68 67.50 195.76 67.28 195.91
L67.28 195.91
L67.47 194.50
L69.35 194.50
L69.35 194.36
L69.35 193.52
L69.35 193.38
Z
" fill="white" fill-rule="nonzero" />
<path d="
M79.74 27.44
C80.02 27.44 80.25 27.64 80.43 28.03
C80.60 28.42 80.69 29.20 80.69 30.36
C80.69 31.50 80.60 32.28 80.43 32.67
C80.25 33.07 80.03 33.27 79.77 33.27
C79.49 33.27 79.27 33.07 79.09 32.68
C78.91 32.29 78.82 31.51 78.82 30.36
C78.82 29.21 78.91 28.44 79.09 28.04
C79.26 27.64 79.48 27.44 79.74 27.44
Z
M76.39 26.72
C76.30 27.03 76.13 27.35 75.88 27.67
C75.64 28.00 75.36 28.28 75.05 28.51
L75.05 29.35
C75.23 29.25 75.44 29.09 75.66 28.89
C75.88 28.69 76.06 28.49 76.19 28.30
L76.19 33.87
L76.77 33.87
L76.77 26.72
Z
M79.76 26.72
C79.26 26.72 78.88 27.03 78.62 27.64
C78.37 28.26 78.24 29.16 78.24 30.36
C78.24 31.69 78.38 32.63 78.66 33.17
C78.95 33.72 79.31 33.99 79.76 33.99
C80.26 33.99 80.64 33.68 80.90 33.07
C81.16 32.45 81.28 31.55 81.28 30.36
C81.28 29.03 81.13 28.07 80.82 27.47
C80.56 26.97 80.21 26.72 79.76 26.72
Z
" fill="black" fill-rule="nonzero" />
<path d="
M185.32 38.59
L185.28 38.68
C185.17 38.97 184.97 39.27 184.68 39.58
C184.39 39.89 184.06 40.15 183.68 40.37
L183.61 40.41
L183.61 40.49
L183.61 41.33
L183.61 41.55
L183.81 41.46
C184.05 41.35 184.31 41.20 184.59 40.99
C184.75 40.87 184.90 40.75 185.02 40.64
L185.02 40.64
L185.02 45.79
L185.02 45.93
L186.02 45.93
L186.02 45.79
L186.02 38.73
L186.02 38.59
Z
" fill="white" fill-rule="nonzero" />
<path d="
M185.48 194.90
L185.48 198.07
L183.67 198.07
L185.48 194.90
Z
M185.61 193.51
L182.98 198.07
L182.98 198.86
L185.48 198.86
L185.48 200.55
L186.19 200.55
L186.19 198.86
L186.97 198.86
L186.97 198.07
L186.19 198.07
L186.19 193.51
Z
" fill="black" fill-rule="nonzero" />
<path d="
M197.04 113.36
C197.35 113.36 197.62 113.50 197.84 113.78
C198.06 114.05 198.16 114.44 198.16 114.94
C198.16 115.45 198.05 115.85 197.84 116.14
C197.62 116.43 197.37 116.57 197.09 116.57
C196.77 116.57 196.49 116.42 196.25 116.11
C196.01 115.80 195.89 115.39 195.89 114.89
C195.89 114.42 196.01 114.05 196.24 113.77
C196.47 113.50 196.73 113.36 197.04 113.36
Z
M197.15 110.10
C196.54 110.10 196.05 110.39 195.66 110.97
C195.27 111.54 195.08 112.51 195.08 113.87
C195.08 115.10 195.27 115.97 195.64 116.50
C196.02 117.02 196.50 117.28 197.08 117.28
C197.41 117.28 197.70 117.19 197.97 117.01
C198.24 116.83 198.46 116.55 198.63 116.16
C198.80 115.78 198.89 115.36 198.89 114.89
C198.89 114.19 198.72 113.64 198.38 113.22
C198.04 112.81 197.64 112.60 197.18 112.60
C196.90 112.60 196.64 112.68 196.40 112.84
C196.15 113.00 195.95 113.23 195.78 113.54
C195.79 112.67 195.90 112.02 196.11 111.58
C196.36 111.07 196.69 110.81 197.10 110.81
C197.37 110.81 197.60 110.92 197.78 111.15
C197.92 111.30 198.02 111.56 198.08 111.92
L198.79 111.85
C198.72 111.28 198.54 110.85 198.25 110.55
C197.95 110.25 197.58 110.10 197.15 110.10
Z
" fill="black" fill-rule="nonzero" />
<path d="
M196.95 135.46
L198.01 138.30
L195.91 138.30
L196.95 135.46
Z
M196.15 133.67
L193.16 141.34
L194.81 141.34
L195.44 139.60
L198.50 139.60
L199.17 141.34
L200.86 141.34
L197.79 133.67
Z
" fill="black" fill-rule="nonzero" />
<path d="
M196.25 172.09
L196.25 172.09
L196.25 172.09
C196.25 172.09 196.25 172.09 196.25 172.09
Z
M195.68 169.55
L195.66 169.67
L195.10 173.28
L195.07 173.42
L195.21 173.44
L195.88 173.55
L195.98 173.57
L196.03 173.47
C196.13 173.28 196.26 173.13 196.42 173.03
C196.59 172.92 196.76 172.87 196.95 172.87
C196.95 172.87 196.95 172.87 196.95 172.87
C196.95 172.87 196.95 172.87 196.95 172.87
C197.26 172.87 197.52 172.99 197.73 173.24
C197.94 173.49 198.05 173.84 198.05 174.31
C198.05 174.81 197.93 175.21 197.71 175.49
C197.50 175.76 197.25 175.90 196.96 175.90
C196.96 175.90 196.96 175.90 196.95 175.90
C196.95 175.90 196.95 175.90 196.95 175.90
C196.73 175.90 196.52 175.80 196.35 175.61
C196.17 175.42 196.05 175.11 196.00 174.69
L195.98 174.56
L195.84 174.57
L195.10 174.65
L194.96 174.66
L194.97 174.80
C195.02 175.45 195.23 175.96 195.60 176.33
C195.97 176.70 196.43 176.89 196.96 176.89
C197.61 176.89 198.13 176.63 198.52 176.10
C198.89 175.58 199.08 174.96 199.08 174.24
C199.08 173.51 198.89 172.93 198.51 172.49
C198.12 172.05 197.67 171.82 197.14 171.82
C196.83 171.82 196.53 171.91 196.25 172.09
L196.25 172.09
L196.48 170.66
L198.80 170.66
L198.80 170.52
L198.80 169.69
L198.80 169.55
Z
" fill="white" fill-rule="nonzero" />
</g>
<g  transform="translate(1.19,228.58)" >
<path d="
M100.55 2.72
C100.38 2.72 100.24 2.78 100.13 2.89
C100.01 3.01 99.96 3.15 99.96 3.31
C99.96 3.47 100.01 3.61 100.13 3.73
C100.25 3.84 100.39 3.90 100.55 3.90
C100.71 3.90 100.85 3.84 100.96 3.73
C101.08 3.61 101.14 3.47 101.14 3.31
C101.14 3.15 101.08 3.01 100.96 2.89
C100.85 2.78 100.71 2.72 100.55 2.72
Z
M115.94 5.91
C116.15 5.91 116.35 5.98 116.54 6.10
C116.74 6.22 116.88 6.39 116.98 6.61
C117.04 6.75 117.08 6.99 117.10 7.33
L114.63 7.33
C114.68 6.89 114.83 6.54 115.08 6.29
C115.33 6.04 115.62 5.91 115.94 5.91
Z
M105.52 7.81
L105.52 9.84
C105.04 10.23 104.65 10.42 104.36 10.42
C104.14 10.42 103.95 10.33 103.78 10.15
C103.61 9.96 103.53 9.73 103.53 9.45
C103.53 9.23 103.60 9.03 103.73 8.84
C103.86 8.66 104.08 8.48 104.39 8.31
C104.56 8.21 104.93 8.05 105.52 7.81
Z
M135.27 7.81
L135.27 9.84
C134.79 10.23 134.40 10.42 134.10 10.42
C133.89 10.42 133.69 10.33 133.53 10.15
C133.36 9.96 133.28 9.73 133.28 9.45
C133.28 9.23 133.34 9.03 133.48 8.84
C133.61 8.66 133.83 8.48 134.13 8.31
C134.30 8.21 134.68 8.05 135.27 7.81
Z
M93.87 3.55
C94.80 3.55 95.56 3.86 96.15 4.49
C96.75 5.12 97.04 5.98 97.04 7.06
C97.04 8.15 96.75 9.00 96.15 9.63
C95.56 10.27 94.82 10.58 93.92 10.58
C93.58 10.58 93.17 10.53 92.68 10.42
L92.68 3.72
C93.12 3.60 93.52 3.55 93.87 3.55
Z
M90.43 3.11
L90.43 3.32
L90.72 3.32
C91.02 3.32 91.25 3.41 91.40 3.58
C91.51 3.70 91.56 4.01 91.56 4.50
L91.56 9.59
C91.56 10.04 91.52 10.33 91.43 10.45
C91.29 10.67 91.06 10.77 90.72 10.77
L90.43 10.77
L90.43 10.99
L93.95 10.99
C95.48 10.99 96.62 10.58 97.37 9.76
C98.04 9.02 98.37 8.10 98.37 7.01
C98.37 6.19 98.18 5.47 97.81 4.84
C97.43 4.22 96.94 3.77 96.33 3.51
C95.71 3.24 94.82 3.11 93.64 3.11
Z
M100.78 5.51
L99.17 6.16
L99.25 6.37
C99.41 6.31 99.54 6.28 99.65 6.28
C99.75 6.28 99.83 6.30 99.89 6.35
C99.94 6.40 99.99 6.49 100.01 6.61
C100.05 6.78 100.07 7.16 100.07 7.73
L100.07 9.79
C100.07 10.11 100.04 10.34 99.99 10.45
C99.94 10.57 99.86 10.65 99.78 10.70
C99.69 10.75 99.51 10.78 99.25 10.78
L99.25 10.99
L101.84 10.99
L101.84 10.78
C101.59 10.78 101.41 10.75 101.32 10.70
C101.22 10.64 101.15 10.56 101.10 10.45
C101.06 10.34 101.03 10.12 101.03 9.79
L101.03 5.51
Z
M118.81 5.66
L118.81 5.88
C119.04 5.88 119.24 5.93 119.40 6.04
C119.56 6.15 119.78 6.41 120.06 6.83
L121.08 8.29
L119.96 9.77
C119.61 10.24 119.36 10.52 119.22 10.63
C119.11 10.71 118.99 10.76 118.85 10.78
L118.85 10.99
L120.59 10.99
L120.59 10.78
C120.41 10.77 120.28 10.73 120.19 10.65
C120.11 10.58 120.06 10.49 120.06 10.40
C120.06 10.34 120.20 10.13 120.46 9.77
L121.31 8.63
L122.09 9.77
C122.34 10.13 122.46 10.36 122.46 10.45
C122.46 10.54 122.43 10.61 122.35 10.66
C122.26 10.74 122.12 10.78 121.95 10.78
L121.95 10.99
L124.46 10.99
L124.46 10.78
C124.24 10.77 124.06 10.71 123.92 10.62
C123.78 10.52 123.55 10.24 123.22 9.77
L121.90 7.87
L122.62 6.90
C122.95 6.45 123.21 6.17 123.40 6.04
C123.54 5.94 123.70 5.89 123.89 5.88
L123.89 5.66
L122.09 5.66
L122.09 5.88
C122.24 5.88 122.35 5.91 122.41 5.96
C122.48 6.02 122.51 6.09 122.51 6.17
C122.51 6.27 122.37 6.51 122.09 6.90
L121.66 7.50
L121.28 6.90
C121.19 6.76 121.13 6.67 121.09 6.61
C120.95 6.41 120.88 6.27 120.88 6.18
C120.88 6.09 120.92 6.01 120.98 5.96
C121.04 5.91 121.15 5.88 121.31 5.88
L121.31 5.66
Z
M129.60 5.51
L127.99 6.16
L128.05 6.37
C128.20 6.31 128.33 6.28 128.45 6.28
C128.55 6.28 128.64 6.31 128.71 6.36
C128.77 6.42 128.82 6.50 128.84 6.62
C128.87 6.74 128.88 7.11 128.88 7.73
L128.88 9.79
C128.88 10.10 128.87 10.29 128.85 10.36
C128.81 10.49 128.75 10.59 128.65 10.65
C128.52 10.74 128.32 10.78 128.05 10.78
L128.05 10.99
L130.77 10.99
L130.77 10.78
C130.53 10.78 130.35 10.74 130.22 10.67
C130.09 10.61 130.00 10.52 129.95 10.41
C129.88 10.26 129.84 10.04 129.84 9.74
L129.84 7.19
C130.03 6.83 130.21 6.57 130.38 6.41
C130.46 6.33 130.54 6.29 130.61 6.29
C130.69 6.29 130.82 6.36 130.98 6.49
C131.15 6.63 131.30 6.69 131.44 6.69
C131.58 6.69 131.70 6.64 131.80 6.54
C131.90 6.43 131.95 6.30 131.95 6.15
C131.95 5.98 131.88 5.83 131.74 5.70
C131.60 5.57 131.43 5.51 131.21 5.51
C130.74 5.51 130.29 5.91 129.84 6.70
L129.84 5.51
Z
M126.34 3.91
C126.18 4.31 126.06 4.57 125.97 4.72
C125.80 5.00 125.60 5.24 125.37 5.45
C125.15 5.65 124.93 5.79 124.72 5.88
L124.72 6.07
L125.56 6.07
L125.56 9.65
C125.56 10.04 125.60 10.32 125.69 10.50
C125.77 10.69 125.89 10.83 126.06 10.93
C126.23 11.03 126.41 11.08 126.59 11.08
C126.85 11.08 127.11 10.98 127.35 10.79
C127.60 10.60 127.79 10.31 127.93 9.93
L127.70 9.93
C127.64 10.09 127.54 10.20 127.42 10.28
C127.30 10.36 127.18 10.40 127.05 10.40
C126.90 10.40 126.77 10.34 126.67 10.22
C126.57 10.10 126.52 9.87 126.52 9.52
L126.52 6.07
L127.77 6.07
L127.77 5.66
L126.52 5.66
L126.52 3.91
Z
M104.71 5.51
C104.09 5.51 103.61 5.65 103.27 5.93
C102.93 6.20 102.76 6.51 102.76 6.84
C102.76 7.02 102.80 7.16 102.89 7.26
C102.99 7.36 103.10 7.41 103.25 7.41
C103.39 7.41 103.51 7.36 103.60 7.26
C103.69 7.17 103.74 7.03 103.74 6.85
L103.73 6.51
C103.73 6.34 103.80 6.19 103.95 6.06
C104.09 5.93 104.29 5.86 104.53 5.86
C104.85 5.86 105.10 5.96 105.27 6.16
C105.43 6.36 105.52 6.72 105.52 7.25
L105.52 7.46
C104.60 7.79 103.95 8.08 103.56 8.31
C103.16 8.54 102.89 8.79 102.73 9.05
C102.61 9.24 102.55 9.47 102.55 9.73
C102.55 10.14 102.67 10.47 102.91 10.72
C103.15 10.97 103.45 11.10 103.82 11.10
C104.06 11.10 104.28 11.05 104.49 10.95
C104.63 10.89 104.97 10.64 105.52 10.22
C105.52 10.54 105.58 10.76 105.69 10.90
C105.81 11.03 105.96 11.09 106.15 11.09
C106.54 11.09 106.96 10.80 107.39 10.22
L107.39 9.90
C107.16 10.13 107.00 10.27 106.92 10.32
C106.87 10.35 106.82 10.36 106.76 10.36
C106.70 10.36 106.65 10.34 106.60 10.30
C106.56 10.26 106.53 10.19 106.51 10.07
C106.49 9.96 106.48 9.65 106.48 9.14
L106.48 7.33
C106.48 6.82 106.44 6.48 106.37 6.31
C106.27 6.05 106.10 5.87 105.87 5.75
C105.57 5.59 105.18 5.51 104.71 5.51
Z
M134.45 5.51
C133.84 5.51 133.36 5.65 133.02 5.93
C132.67 6.20 132.50 6.51 132.50 6.84
C132.50 7.02 132.55 7.16 132.64 7.26
C132.73 7.36 132.85 7.41 132.99 7.41
C133.14 7.41 133.26 7.36 133.35 7.26
C133.44 7.17 133.49 7.03 133.49 6.85
L133.48 6.51
C133.48 6.34 133.55 6.19 133.70 6.06
C133.84 5.93 134.03 5.86 134.28 5.86
C134.60 5.86 134.84 5.96 135.01 6.16
C135.18 6.36 135.27 6.72 135.27 7.25
L135.27 7.46
C134.35 7.79 133.70 8.08 133.30 8.31
C132.91 8.54 132.63 8.79 132.48 9.05
C132.36 9.24 132.30 9.47 132.30 9.73
C132.30 10.14 132.42 10.47 132.66 10.72
C132.90 10.97 133.20 11.10 133.57 11.10
C133.80 11.10 134.03 11.05 134.24 10.95
C134.38 10.89 134.72 10.64 135.27 10.22
C135.27 10.54 135.33 10.76 135.44 10.90
C135.55 11.03 135.70 11.09 135.89 11.09
C136.29 11.09 136.70 10.80 137.14 10.22
L137.14 9.90
C136.90 10.13 136.75 10.27 136.67 10.32
C136.62 10.35 136.57 10.36 136.50 10.36
C136.45 10.36 136.39 10.34 136.35 10.30
C136.31 10.26 136.27 10.19 136.25 10.07
C136.23 9.96 136.22 9.65 136.22 9.14
L136.22 7.33
C136.22 6.82 136.19 6.48 136.12 6.31
C136.01 6.05 135.84 5.87 135.61 5.75
C135.31 5.59 134.92 5.51 134.45 5.51
Z
M108.90 9.86
C108.72 9.86 108.57 9.92 108.45 10.05
C108.32 10.17 108.26 10.32 108.26 10.51
C108.26 10.68 108.32 10.84 108.45 10.96
C108.57 11.09 108.72 11.15 108.90 11.15
C109.08 11.15 109.23 11.09 109.36 10.96
C109.48 10.84 109.55 10.68 109.55 10.51
C109.55 10.33 109.49 10.18 109.36 10.05
C109.24 9.92 109.08 9.86 108.90 9.86
Z
M116.27 5.50
C115.56 5.50 114.98 5.76 114.51 6.27
C114.04 6.78 113.81 7.49 113.81 8.40
C113.81 9.24 114.04 9.91 114.49 10.40
C114.95 10.90 115.49 11.15 116.13 11.15
C116.72 11.15 117.21 10.93 117.60 10.50
C118.00 10.06 118.23 9.58 118.31 9.05
L118.13 8.93
C117.96 9.40 117.74 9.72 117.49 9.92
C117.23 10.11 116.92 10.20 116.58 10.20
C116.05 10.20 115.60 9.98 115.21 9.53
C114.82 9.08 114.63 8.46 114.63 7.67
L118.31 7.67
C118.31 7.01 118.12 6.48 117.74 6.09
C117.35 5.70 116.86 5.50 116.27 5.50
Z
" fill="black" fill-rule="nonzero" />
</g>
</g>
</svg>
