<?xml version="1.0" encoding="utf-8" standalone="no"?>
<!DOCTYPE svg PUBLIC "-//W3C//DTD SVG 1.0//EN" "http://www.w3.org/TR/SVG/DTD/svg11.dtd" >
<svg version="1.1" baseProfile="full"  width="319.13385" height="338.46454" viewBox="0 0 229.77638 243.69449" preserveAspectRatio="xMidYMid" xmlns="http://www.w3.org/2000/svg" >

<g lengthAdjust="spacingAndGlyphs" xml:space='preserve' >
<g  transform="translate(1.19,1.19)" >
<path d="
M0.0 0.0
L0.0 227.39
L227.39 227.39
L227.39 0.0
Z
" fill="none" fill-rule="nonzero" />
<line x1="6.54" y1="6.54" x2="6.54" y2="220.84" fill="none" stroke="black" stroke-width="0.87px" stroke-linecap="square" />
<line x1="18.45" y1="6.54" x2="18.45" y2="220.84" fill="none" stroke="black" stroke-width="0.25px" stroke-linecap="butt" />
<line x1="30.35" y1="6.54" x2="30.35" y2="220.84" fill="none" stroke="black" stroke-width="0.25px" stroke-linecap="butt" />
<line x1="42.26" y1="6.54" x2="42.26" y2="220.84" fill="none" stroke="black" stroke-width="0.25px" stroke-linecap="butt" />
<line x1="54.17" y1="6.54" x2="54.17" y2="220.84" fill="none" stroke="black" stroke-width="0.25px" stroke-linecap="butt" />
<line x1="66.07" y1="6.54" x2="66.07" y2="220.84" fill="none" stroke="black" stroke-width="0.25px" stroke-linecap="butt" />
<line x1="77.98" y1="6.54" x2="77.98" y2="220.84" fill="none" stroke="black" stroke-width="0.25px" stroke-linecap="butt" />
<line x1="89.88" y1="6.54" x2="89.88" y2="220.84" fill="none" stroke="black" stroke-width="0.25px" stroke-linecap="butt" />
<line x1="101.79" y1="6.54" x2="101.79" y2="24.40" fill="none" stroke="black" stroke-width="0.25px" stroke-linecap="butt" />
<line x1="101.79" y1="36.31" x2="101.79" y2="220.84" fill="none" stroke="black" stroke-width="0.25px" stroke-linecap="butt" />
<line x1="113.69" y1="6.54" x2="113.69" y2="36.31" fill="none" stroke="black" stroke-width="0.25px" stroke-linecap="butt" />
<line x1="113.69" y1="48.21" x2="113.69" y2="220.84" fill="none" stroke="black" stroke-width="0.25px" stroke-linecap="butt" />
<line x1="125.60" y1="6.54" x2="125.60" y2="48.21" fill="none" stroke="black" stroke-width="0.25px" stroke-linecap="butt" />
<line x1="125.60" y1="60.12" x2="125.60" y2="167.27" fill="none" stroke="black" stroke-width="0.25px" stroke-linecap="butt" />
<line x1="125.60" y1="179.17" x2="125.60" y2="220.84" fill="none" stroke="black" stroke-width="0.25px" stroke-linecap="butt" />
<line x1="137.50" y1="6.54" x2="137.50" y2="220.84" fill="none" stroke="black" stroke-width="0.25px" stroke-linecap="butt" />
<line x1="149.41" y1="6.54" x2="149.41" y2="220.84" fill="none" stroke="black" stroke-width="0.25px" stroke-linecap="butt" />
<line x1="161.31" y1="6.54" x2="161.31" y2="220.84" fill="none" stroke="black" stroke-width="0.25px" stroke-linecap="butt" />
<line x1="173.22" y1="6.54" x2="173.22" y2="220.84" fill="none" stroke="black" stroke-width="0.25px" stroke-linecap="butt" />
<line x1="185.13" y1="6.54" x2="185.13" y2="167.27" fill="none" stroke="black" stroke-width="0.25px" stroke-linecap="butt" />
<line x1="185.13" y1="179.17" x2="185.13" y2="220.84" fill="none" stroke="black" stroke-width="0.25px" stroke-linecap="butt" />
<line x1="197.03" y1="6.54" x2="197.03" y2="220.84" fill="none" stroke="black" stroke-width="0.25px" stroke-linecap="butt" />
<line x1="208.94" y1="6.54" x2="208.94" y2="220.84" fill="none" stroke="black" stroke-width="0.25px" stroke-linecap="butt" />
<line x1="220.84" y1="6.54" x2="220.84" y2="220.84" fill="none" stroke="black" stroke-width="0.87px" stroke-linecap="square" />
<line x1="6.54" y1="6.54" x2="220.84" y2="6.54" fill="none" stroke="black" stroke-width="0.87px" stroke-linecap="square" />
<line x1="6.54" y1="18.45" x2="220.84" y2="18.45" fill="none" stroke="black" stroke-width="0.25px" stroke-linecap="butt" />
<line x1="6.54" y1="30.35" x2="95.83" y2="30.35" fill="none" stroke="black" stroke-width="0.25px" stroke-linecap="butt" />
<line x1="107.74" y1="30.35" x2="220.84" y2="30.35" fill="none" stroke="black" stroke-width="0.25px" stroke-linecap="butt" />
<line x1="6.54" y1="42.26" x2="107.74" y2="42.26" fill="none" stroke="black" stroke-width="0.25px" stroke-linecap="butt" />
<line x1="119.65" y1="42.26" x2="220.84" y2="42.26" fill="none" stroke="black" stroke-width="0.25px" stroke-linecap="butt" />
<line x1="6.54" y1="54.17" x2="119.65" y2="54.17" fill="none" stroke="black" stroke-width="0.25px" stroke-linecap="butt" />
<line x1="131.55" y1="54.17" x2="220.84" y2="54.17" fill="none" stroke="black" stroke-width="0.25px" stroke-linecap="butt" />
<line x1="6.54" y1="66.07" x2="220.84" y2="66.07" fill="none" stroke="black" stroke-width="0.25px" stroke-linecap="butt" />
<line x1="6.54" y1="77.98" x2="220.84" y2="77.98" fill="none" stroke="black" stroke-width="0.25px" stroke-linecap="butt" />
<line x1="6.54" y1="89.88" x2="220.84" y2="89.88" fill="none" stroke="black" stroke-width="0.25px" stroke-linecap="butt" />
<line x1="6.54" y1="101.79" x2="220.84" y2="101.79" fill="none" stroke="black" stroke-width="0.25px" stroke-linecap="butt" />
<line x1="6.54" y1="113.69" x2="220.84" y2="113.69" fill="none" stroke="black" stroke-width="0.25px" stroke-linecap="butt" />
<line x1="6.54" y1="125.60" x2="220.84" y2="125.60" fill="none" stroke="black" stroke-width="0.25px" stroke-linecap="butt" />
<line x1="6.54" y1="137.50" x2="220.84" y2="137.50" fill="none" stroke="black" stroke-width="0.25px" stroke-linecap="butt" />
<line x1="6.54" y1="149.41" x2="220.84" y2="149.41" fill="none" stroke="black" stroke-width="0.25px" stroke-linecap="butt" />
<line x1="6.54" y1="161.31" x2="220.84" y2="161.31" fill="none" stroke="black" stroke-width="0.25px" stroke-linecap="butt" />
<line x1="6.54" y1="173.22" x2="119.65" y2="173.22" fill="none" stroke="black" stroke-width="0.25px" stroke-linecap="butt" />
<line x1="131.55" y1="173.22" x2="179.17" y2="173.22" fill="none" stroke="black" stroke-width="0.25px" stroke-linecap="butt" />
<line x1="191.08" y1="173.22" x2="220.84" y2="173.22" fill="none" stroke="black" stroke-width="0.25px" stroke-linecap="butt" />
<line x1="6.54" y1="185.13" x2="220.84" y2="185.13" fill="none" stroke="black" stroke-width="0.25px" stroke-linecap="butt" />
<line x1="6.54" y1="197.03" x2="220.84" y2="197.03" fill="none" stroke="black" stroke-width="0.25px" stroke-linecap="butt" />
<line x1="6.54" y1="208.94" x2="220.84" y2="208.94" fill="none" stroke="black" stroke-width="0.25px" stroke-linecap="butt" />
<line x1="6.54" y1="220.84" x2="220.84" y2="220.84" fill="none" stroke="black" stroke-width="0.87px" stroke-linecap="square" />
<circle cx="30.35" cy="54.17" r="5.98" fill="black"/>
<circle cx="30.35" cy="89.88" r="5.85" fill="white"/>
<circle cx="30.35" cy="89.88" r="5.85" fill="none" stroke="black" stroke-width="0.25px"/>
<circle cx="30.35" cy="125.60" r="5.85" fill="white"/>
<circle cx="30.35" cy="125.60" r="5.85" fill="none" stroke="black" stroke-width="0.25px"/>
<circle cx="30.35" cy="161.31" r="5.85" fill="white"/>
<circle cx="30.35" cy="161.31" r="5.85" fill="none" stroke="black" stroke-width="0.25px"/>
<circle cx="42.26" cy="30.35" r="5.85" fill="white"/>
<circle cx="42.26" cy="30.35" r="5.85" fill="none" stroke="black" stroke-width="0.25px"/>
<circle cx="42.26" cy="42.26" r="1.27" fill="black"/>
<circle cx="42.26" cy="77.98" r="5.85" fill="white"/>
<circle cx="42.26" cy="77.98" r="5.85" fill="none" stroke="black" stroke-width="0.25px"/>
<circle cx="42.26" cy="89.88" r="5.98" fill="black"/>
<circle cx="42.26" cy="101.79" r="5.85" fill="white"/>
<circle cx="42.26" cy="101.79" r="5.85" fill="none" stroke="black" stroke-width="0.25px"/>
<circle cx="42.26" cy="113.69" r="1.27" fill="black"/>
<circle cx="42.26" cy="185.13" r="5.98" fill="black"/>
<circle cx="54.17" cy="66.07" r="5.98" fill="black"/>
<circle cx="54.17" cy="77.98" r="5.98" fill="black"/>
<circle cx="54.17" cy="89.88" r="5.98" fill="black"/>
<circle cx="66.07" cy="197.03" r="5.98" fill="black"/>
<circle cx="77.98" cy="30.35" r="5.85" fill="white"/>
<circle cx="77.98" cy="30.35" r="5.85" fill="none" stroke="black" stroke-width="0.25px"/>
<circle cx="101.79" cy="197.03" r="5.98" fill="black"/>
<circle cx="113.69" cy="30.35" r="5.85" fill="white"/>
<circle cx="113.69" cy="30.35" r="5.85" fill="none" stroke="black" stroke-width="0.25px"/>
<circle cx="113.69" cy="54.17" r="5.85" fill="white"/>
<circle cx="113.69" cy="54.17" r="5.85" fill="none" stroke="black" stroke-width="0.25px"/>
<circle cx="113.69" cy="113.69" r="1.27" fill="black"/>
<circle cx="113.69" cy="185.13" r="1.27" fill="black"/>
<circle cx="113.69" cy="208.94" r="5.98" fill="black"/>
<circle cx="125.60" cy="197.03" r="5.85" fill="white"/>
<circle cx="125.60" cy="197.03" r="5.85" fill="none" stroke="black" stroke-width="0.25px"/>
<circle cx="125.60" cy="208.94" r="5.85" fill="white"/>
<circle cx="125.60" cy="208.94" r="5.85" fill="none" stroke="black" stroke-width="0.25px"/>
<circle cx="137.50" cy="30.35" r="5.98" fill="black"/>
<circle cx="137.50" cy="185.13" r="5.85" fill="white"/>
<circle cx="137.50" cy="185.13" r="5.85" fill="none" stroke="black" stroke-width="0.25px"/>
<circle cx="149.41" cy="149.41" r="5.98" fill="black"/>
<circle cx="149.41" cy="173.22" r="5.85" fill="white"/>
<circle cx="149.41" cy="173.22" r="5.85" fill="none" stroke="black" stroke-width="0.25px"/>
<circle cx="149.41" cy="197.03" r="5.98" fill="black"/>
<circle cx="173.22" cy="89.88" r="5.98" fill="black"/>
<circle cx="173.22" cy="185.13" r="5.85" fill="white"/>
<circle cx="173.22" cy="185.13" r="5.85" fill="none" stroke="black" stroke-width="0.25px"/>
<circle cx="185.13" cy="30.35" r="5.98" fill="black"/>
<circle cx="185.13" cy="42.26" r="5.98" fill="black"/>
<circle cx="185.13" cy="113.69" r="1.27" fill="black"/>
<circle cx="185.13" cy="161.31" r="5.85" fill="white"/>
<circle cx="185.13" cy="161.31" r="5.85" fill="none" stroke="black" stroke-width="0.25px"/>
<circle cx="185.13" cy="185.13" r="1.27" fill="black"/>
<circle cx="185.13" cy="197.03" r="5.85" fill="white"/>
<circle cx="185.13" cy="197.03" r="5.85" fill="none" stroke="black" stroke-width="0.25px"/>
<circle cx="197.03" cy="89.88" r="5.98" fill="black"/>
<circle cx="197.03" cy="113.69" r="5.85" fill="white"/>
<circle cx="197.03" cy="113.69" r="5.85" fill="none" stroke="black" stroke-width="0.25px"/>
<circle cx="197.03" cy="125.60" r="5.85" fill="white"/>
<circle cx="197.03" cy="125.60" r="5.85" fill="none" stroke="black" stroke-width="0.25px"/>
<circle cx="197.03" cy="149.41" r="5.85" fill="white"/>
<circle cx="197.03" cy="149.41" r="5.85" fill="none" stroke="black" stroke-width="0.25px"/>
<circle cx="197.03" cy="173.22" r="5.98" fill="black"/>
<circle cx="208.94" cy="113.69" r="5.98" fill="black"/>
<circle cx="208.94" cy="125.60" r="5.98" fill="black"/>
<circle cx="208.94" cy="137.50" r="5.98" fill="black"/>
<circle cx="208.94" cy="149.41" r="5.85" fill="white"/>
<circle cx="208.94" cy="149.41" r="5.85" fill="none" stroke="black" stroke-width="0.25px"/>
<path d="
M101.14 27.80
C101.87 27.80 102.31 27.81 102.46 27.82
C102.72 27.85 102.91 27.94 103.05 28.09
C103.18 28.24 103.24 28.43 103.24 28.67
C103.24 28.92 103.17 29.12 103.01 29.27
C102.86 29.42 102.65 29.51 102.39 29.54
C102.24 29.56 101.87 29.57 101.27 29.57
L100.25 29.57
L100.25 27.80
Z
M101.50 30.85
C102.20 30.85 102.66 30.88 102.87 30.96
C103.08 31.03 103.25 31.15 103.36 31.31
C103.47 31.47 103.52 31.66 103.52 31.89
C103.52 32.16 103.45 32.38 103.31 32.54
C103.16 32.70 102.98 32.81 102.75 32.85
C102.60 32.88 102.24 32.90 101.68 32.90
L100.25 32.90
L100.25 30.85
Z
M98.70 26.52
L98.70 34.19
L101.31 34.19
C102.30 34.18 102.92 34.16 103.18 34.13
C103.59 34.09 103.94 33.97 104.22 33.77
C104.50 33.57 104.72 33.31 104.88 32.98
C105.04 32.65 105.12 32.31 105.12 31.96
C105.12 31.52 105.00 31.14 104.75 30.81
C104.50 30.48 104.14 30.25 103.67 30.11
C104.00 29.96 104.26 29.74 104.46 29.44
C104.65 29.14 104.75 28.81 104.75 28.45
C104.75 28.12 104.67 27.82 104.51 27.55
C104.36 27.29 104.16 27.07 103.92 26.91
C103.69 26.75 103.42 26.65 103.12 26.60
C102.83 26.55 102.37 26.52 101.77 26.52
Z
" fill="black" fill-rule="nonzero" />
<path d="
M99.89 193.25
C99.49 193.25 99.14 193.42 98.86 193.77
C98.59 194.10 98.41 194.59 98.34 195.22
L98.32 195.34
L98.44 195.38
L99.01 195.53
L99.18 195.57
L99.19 195.41
C99.23 195.00 99.32 194.70 99.46 194.51
C99.58 194.34 99.72 194.25 99.89 194.25
C99.90 194.25 99.90 194.25 99.90 194.25
C99.90 194.25 99.90 194.25 99.90 194.25
C100.07 194.25 100.21 194.33 100.32 194.50
C100.45 194.68 100.52 194.92 100.52 195.22
C100.52 195.55 100.44 195.81 100.29 196.00
C100.14 196.18 99.95 196.27 99.72 196.27
L99.72 196.27
L99.63 196.26
L99.49 196.25
L99.48 196.39
L99.41 197.16
L99.39 197.39
L99.61 197.30
C99.75 197.25 99.87 197.22 99.96 197.22
C99.96 197.22 99.96 197.22 99.96 197.22
C99.96 197.22 99.96 197.22 99.96 197.22
C100.17 197.22 100.34 197.32 100.49 197.54
C100.65 197.76 100.73 198.07 100.73 198.45
C100.73 198.87 100.64 199.20 100.47 199.45
C100.30 199.69 100.12 199.80 99.91 199.80
C99.90 199.80 99.90 199.80 99.90 199.80
C99.90 199.80 99.90 199.80 99.90 199.80
C99.71 199.80 99.55 199.71 99.43 199.52
C99.29 199.30 99.19 198.97 99.14 198.53
L99.12 198.38
L98.97 198.41
L98.39 198.52
L98.27 198.55
L98.28 198.67
C98.32 199.31 98.49 199.83 98.78 200.21
C99.09 200.61 99.46 200.81 99.91 200.81
C100.39 200.81 100.79 200.58 101.13 200.13
C101.46 199.69 101.62 199.13 101.62 198.44
C101.62 198.12 101.58 197.83 101.50 197.56
C101.42 197.30 101.32 197.08 101.18 196.92
C101.09 196.81 100.99 196.72 100.87 196.65
L100.87 196.65
C101.01 196.52 101.12 196.35 101.21 196.16
C101.33 195.89 101.39 195.58 101.39 195.24
C101.39 194.68 101.25 194.21 100.97 193.83
C100.67 193.45 100.32 193.25 99.89 193.25
Z
M103.52 193.25
C103.12 193.25 102.77 193.42 102.49 193.77
C102.22 194.10 102.04 194.59 101.97 195.22
L101.95 195.34
L102.07 195.38
L102.64 195.53
L102.81 195.57
L102.82 195.41
C102.86 195.00 102.95 194.70 103.09 194.51
C103.21 194.34 103.35 194.25 103.52 194.25
C103.53 194.25 103.53 194.25 103.53 194.25
C103.53 194.25 103.53 194.25 103.53 194.25
C103.70 194.25 103.84 194.33 103.95 194.50
C104.08 194.68 104.15 194.92 104.15 195.22
C104.15 195.55 104.07 195.81 103.92 196.00
C103.77 196.18 103.58 196.27 103.35 196.27
L103.35 196.27
L103.26 196.26
L103.12 196.25
L103.11 196.39
L103.04 197.16
L103.02 197.39
L103.24 197.30
C103.38 197.25 103.50 197.22 103.59 197.22
C103.59 197.22 103.59 197.22 103.59 197.22
C103.59 197.22 103.59 197.22 103.59 197.22
C103.80 197.22 103.97 197.32 104.12 197.54
C104.28 197.76 104.36 198.07 104.36 198.45
C104.36 198.87 104.27 199.20 104.10 199.45
C103.93 199.69 103.75 199.80 103.54 199.80
C103.53 199.80 103.53 199.80 103.53 199.80
C103.53 199.80 103.53 199.80 103.53 199.80
C103.34 199.80 103.18 199.71 103.06 199.52
C102.92 199.30 102.82 198.97 102.77 198.53
L102.75 198.38
L102.60 198.41
L102.02 198.52
L101.90 198.55
L101.91 198.67
C101.95 199.31 102.12 199.83 102.41 200.21
C102.72 200.61 103.09 200.81 103.54 200.81
C104.02 200.81 104.42 200.58 104.76 200.13
C105.09 199.69 105.25 199.13 105.25 198.44
C105.25 198.12 105.21 197.83 105.13 197.56
C105.05 197.30 104.95 197.08 104.81 196.92
C104.72 196.81 104.62 196.72 104.50 196.65
L104.50 196.65
C104.64 196.52 104.75 196.35 104.84 196.16
C104.96 195.89 105.02 195.58 105.02 195.24
C105.02 194.68 104.88 194.21 104.60 193.83
C104.30 193.45 103.95 193.25 103.52 193.25
Z
" fill="white" fill-rule="nonzero" />
<path d="
M115.52 30.02
C115.77 30.02 115.98 30.16 116.16 30.44
C116.34 30.72 116.42 31.11 116.42 31.61
C116.42 32.13 116.34 32.53 116.16 32.83
C115.98 33.12 115.78 33.27 115.55 33.27
C115.30 33.27 115.07 33.12 114.88 32.80
C114.68 32.49 114.59 32.08 114.59 31.56
C114.59 31.09 114.68 30.71 114.86 30.44
C115.05 30.16 115.27 30.02 115.52 30.02
Z
M111.89 26.72
C111.45 26.72 111.10 26.89 110.83 27.23
C110.56 27.58 110.41 28.09 110.37 28.78
L110.96 28.87
C110.96 28.41 111.04 28.06 111.21 27.81
C111.38 27.56 111.60 27.44 111.87 27.44
C112.12 27.44 112.33 27.56 112.50 27.78
C112.67 28.01 112.75 28.31 112.75 28.67
C112.75 28.98 112.67 29.32 112.50 29.69
C112.34 30.05 111.99 30.57 111.45 31.24
C110.99 31.81 110.68 32.31 110.50 32.73
C110.33 33.15 110.25 33.53 110.26 33.87
L113.35 33.87
L113.35 33.03
L111.05 33.03
C111.12 32.87 111.20 32.71 111.30 32.55
C111.40 32.39 111.62 32.10 111.96 31.66
C112.50 30.97 112.86 30.41 113.05 29.99
C113.24 29.58 113.34 29.14 113.34 28.69
C113.34 28.18 113.22 27.72 112.97 27.32
C112.73 26.92 112.37 26.72 111.89 26.72
Z
M115.60 26.72
C115.11 26.72 114.71 27.01 114.40 27.59
C114.08 28.18 113.93 29.16 113.93 30.54
C113.93 31.78 114.08 32.66 114.38 33.19
C114.69 33.72 115.08 33.99 115.55 33.99
C115.81 33.99 116.05 33.90 116.27 33.71
C116.49 33.53 116.67 33.24 116.80 32.86
C116.94 32.47 117.01 32.04 117.01 31.56
C117.01 30.86 116.87 30.30 116.60 29.88
C116.32 29.46 116.00 29.25 115.63 29.25
C115.41 29.25 115.19 29.33 114.99 29.49
C114.80 29.65 114.63 29.89 114.50 30.20
C114.50 29.32 114.59 28.66 114.76 28.21
C114.96 27.70 115.23 27.44 115.57 27.44
C115.78 27.44 115.97 27.55 116.12 27.78
C116.22 27.93 116.30 28.19 116.36 28.56
L116.93 28.49
C116.88 27.91 116.73 27.47 116.49 27.17
C116.25 26.87 115.96 26.72 115.60 26.72
Z
" fill="black" fill-rule="nonzero" />
<path d="
M113.92 38.30
C112.84 38.30 111.98 38.65 111.32 39.35
C110.66 40.06 110.33 41.05 110.33 42.33
C110.33 43.53 110.66 44.48 111.31 45.18
C111.97 45.88 112.81 46.22 113.82 46.22
C114.65 46.22 115.33 46.02 115.86 45.61
C116.40 45.21 116.78 44.59 117.01 43.75
L115.51 43.27
C115.38 43.84 115.17 44.25 114.87 44.51
C114.57 44.77 114.22 44.90 113.81 44.90
C113.25 44.90 112.80 44.69 112.45 44.28
C112.10 43.87 111.93 43.18 111.93 42.21
C111.93 41.30 112.10 40.64 112.46 40.23
C112.81 39.82 113.27 39.62 113.84 39.62
C114.25 39.62 114.60 39.73 114.89 39.96
C115.18 40.19 115.37 40.51 115.46 40.91
L116.99 40.54
C116.81 39.93 116.55 39.45 116.20 39.13
C115.62 38.57 114.86 38.30 113.92 38.30
Z
" fill="black" fill-rule="nonzero" />
<path d="
M112.16 51.96
L112.16 55.17
L110.70 55.17
L112.16 51.96
Z
M115.45 51.25
C115.74 51.25 115.97 51.45 116.14 51.84
C116.32 52.23 116.41 53.01 116.41 54.17
C116.41 55.31 116.32 56.09 116.15 56.48
C115.97 56.88 115.75 57.08 115.49 57.08
C115.21 57.08 114.98 56.89 114.81 56.49
C114.63 56.10 114.54 55.32 114.54 54.17
C114.54 53.02 114.63 52.25 114.80 51.85
C114.98 51.45 115.19 51.25 115.45 51.25
Z
M112.27 50.56
L110.14 55.17
L110.14 55.97
L112.16 55.97
L112.16 57.68
L112.74 57.68
L112.74 55.97
L113.37 55.97
L113.37 55.17
L112.74 55.17
L112.74 50.56
Z
M115.48 50.53
C114.98 50.53 114.60 50.84 114.34 51.45
C114.08 52.07 113.95 52.97 113.95 54.17
C113.95 55.50 114.09 56.44 114.38 56.99
C114.66 57.53 115.03 57.80 115.47 57.80
C115.98 57.80 116.36 57.49 116.62 56.88
C116.87 56.26 117.00 55.36 117.00 54.17
C117.00 52.84 116.84 51.88 116.53 51.28
C116.28 50.78 115.93 50.53 115.48 50.53
Z
" fill="black" fill-rule="nonzero" />
<path d="
M113.85 205.28
L113.85 205.42
L113.85 206.26
L113.85 206.40
L116.04 206.40
C115.79 206.87 115.55 207.42 115.33 208.05
C115.08 208.78 114.88 209.54 114.73 210.34
C114.59 211.14 114.51 211.84 114.50 212.45
L114.50 212.59
L115.24 212.59
L115.37 212.59
L115.38 212.46
C115.43 211.31 115.62 210.16 115.96 209.00
C116.30 207.84 116.69 206.89 117.14 206.17
L117.16 206.14
L117.16 206.10
L117.16 205.42
L117.16 205.28
Z
M111.80 205.16
C111.39 205.16 111.05 205.33 110.77 205.67
C110.49 206.01 110.32 206.49 110.24 207.13
L110.23 207.25
L110.35 207.28
L110.92 207.44
L111.08 207.48
L111.10 207.31
C111.14 206.91 111.22 206.61 111.36 206.42
C111.48 206.24 111.63 206.16 111.80 206.16
C111.80 206.16 111.80 206.16 111.80 206.16
C111.80 206.16 111.81 206.16 111.81 206.16
C111.97 206.16 112.11 206.24 112.23 206.40
C112.36 206.58 112.42 206.82 112.42 207.12
C112.42 207.45 112.35 207.71 112.19 207.90
C112.05 208.09 111.86 208.18 111.62 208.18
L111.62 208.18
L111.54 208.17
L111.40 208.15
L111.38 208.30
L111.32 209.07
L111.30 209.30
L111.51 209.21
C111.65 209.15 111.77 209.12 111.86 209.12
C111.86 209.12 111.86 209.12 111.86 209.12
C111.86 209.12 111.86 209.12 111.87 209.12
C112.07 209.12 112.25 209.23 112.40 209.44
C112.55 209.67 112.63 209.98 112.63 210.36
C112.63 210.77 112.55 211.10 112.37 211.36
C112.21 211.59 112.02 211.71 111.81 211.71
C111.81 211.71 111.81 211.71 111.81 211.71
C111.81 211.71 111.81 211.71 111.80 211.71
C111.61 211.71 111.46 211.61 111.34 211.42
C111.20 211.21 111.10 210.88 111.04 210.43
L111.02 210.28
L110.87 210.31
L110.30 210.43
L110.18 210.45
L110.19 210.58
C110.23 211.22 110.39 211.73 110.69 212.12
C110.99 212.52 111.37 212.72 111.82 212.72
C112.29 212.72 112.70 212.49 113.04 212.04
C113.36 211.59 113.53 211.03 113.53 210.35
C113.53 210.02 113.49 209.73 113.41 209.47
C113.33 209.20 113.22 208.99 113.09 208.82
C113.00 208.71 112.90 208.63 112.78 208.56
L112.78 208.56
C112.92 208.42 113.03 208.26 113.12 208.06
C113.24 207.79 113.30 207.49 113.30 207.14
C113.30 206.58 113.16 206.11 112.87 205.74
C112.58 205.35 112.22 205.16 111.80 205.16
Z
" fill="white" fill-rule="nonzero" />
<path d="
M122.80 50.33
L122.80 58.00
L128.63 58.00
L128.63 56.71
L124.35 56.71
L124.35 54.62
L128.20 54.62
L128.20 53.33
L124.35 53.33
L124.35 51.63
L128.49 51.63
L128.49 50.33
Z
" fill="black" fill-rule="nonzero" />
<path d="
M124.75 170.68
C125.38 170.68 125.80 170.71 126.02 170.76
C126.31 170.82 126.55 170.94 126.73 171.12
C126.92 171.30 127.07 171.54 127.17 171.86
C127.28 172.18 127.33 172.63 127.33 173.23
C127.33 173.82 127.28 174.29 127.17 174.63
C127.07 174.97 126.93 175.22 126.77 175.37
C126.60 175.52 126.39 175.63 126.14 175.69
C125.95 175.74 125.64 175.76 125.21 175.76
L124.05 175.76
L124.05 170.68
Z
M122.50 169.39
L122.50 177.05
L125.42 177.05
C125.99 177.05 126.44 177.00 126.79 176.89
C127.24 176.74 127.61 176.54 127.87 176.28
C128.23 175.93 128.50 175.48 128.69 174.92
C128.85 174.47 128.93 173.92 128.93 173.29
C128.93 172.58 128.85 171.97 128.68 171.48
C128.51 170.99 128.27 170.58 127.95 170.24
C127.63 169.90 127.24 169.67 126.79 169.53
C126.46 169.44 125.97 169.39 125.33 169.39
Z
" fill="black" fill-rule="nonzero" />
<path d="
M127.42 193.39
C126.99 193.39 126.63 193.56 126.37 193.91
C126.10 194.25 125.94 194.77 125.90 195.45
L126.49 195.54
C126.49 195.08 126.58 194.73 126.75 194.49
C126.92 194.24 127.14 194.12 127.41 194.12
C127.65 194.12 127.86 194.23 128.03 194.46
C128.20 194.69 128.29 194.98 128.29 195.35
C128.29 195.66 128.20 196.00 128.04 196.36
C127.87 196.73 127.52 197.24 126.99 197.91
C126.53 198.48 126.21 198.98 126.04 199.40
C125.87 199.82 125.78 200.20 125.79 200.54
L128.88 200.54
L128.88 199.70
L126.59 199.70
C126.65 199.54 126.73 199.39 126.83 199.23
C126.93 199.07 127.15 198.77 127.49 198.33
C128.03 197.64 128.40 197.09 128.59 196.67
C128.78 196.25 128.87 195.82 128.87 195.36
C128.87 194.85 128.75 194.40 128.51 193.99
C128.26 193.59 127.90 193.39 127.42 193.39
Z
M123.70 193.39
C123.34 193.39 123.03 193.55 122.78 193.86
C122.53 194.17 122.36 194.63 122.29 195.24
L122.86 195.39
C122.90 194.96 123.00 194.64 123.15 194.43
C123.30 194.22 123.49 194.11 123.71 194.11
C123.92 194.11 124.10 194.21 124.25 194.42
C124.40 194.62 124.47 194.89 124.47 195.22
C124.47 195.58 124.38 195.87 124.21 196.09
C124.03 196.31 123.80 196.41 123.52 196.41
L123.43 196.40
L123.36 197.17
C123.52 197.11 123.66 197.07 123.77 197.07
C124.02 197.07 124.24 197.20 124.42 197.45
C124.59 197.71 124.68 198.04 124.68 198.45
C124.68 198.90 124.59 199.25 124.39 199.53
C124.20 199.81 123.97 199.95 123.71 199.95
C123.23 199.95 122.93 199.48 122.81 198.55
L122.23 198.66
C122.27 199.28 122.43 199.76 122.71 200.13
C122.98 200.49 123.32 200.67 123.72 200.67
C124.15 200.67 124.52 200.46 124.83 200.05
C125.14 199.63 125.29 199.09 125.29 198.44
C125.29 198.13 125.25 197.85 125.18 197.60
C125.10 197.36 125.00 197.16 124.88 197.01
C124.76 196.86 124.61 196.75 124.42 196.69
C124.62 196.54 124.78 196.35 124.89 196.10
C125.01 195.85 125.06 195.56 125.06 195.24
C125.06 194.71 124.93 194.27 124.67 193.92
C124.40 193.57 124.08 193.39 123.70 193.39
Z
" fill="black" fill-rule="nonzero" />
<path d="
M127.39 206.02
C127.60 206.02 127.78 206.12 127.93 206.34
C128.08 206.55 128.16 206.82 128.16 207.15
C128.16 207.48 128.08 207.74 127.93 207.95
C127.79 208.15 127.61 208.25 127.40 208.25
C127.18 208.25 127.00 208.15 126.85 207.94
C126.71 207.73 126.63 207.45 126.63 207.11
C126.63 206.79 126.71 206.54 126.86 206.33
C127.00 206.12 127.18 206.02 127.39 206.02
Z
M127.38 208.97
C127.65 208.97 127.87 209.10 128.06 209.37
C128.25 209.63 128.35 209.99 128.35 210.42
C128.35 210.86 128.25 211.20 128.07 211.46
C127.89 211.72 127.66 211.85 127.40 211.85
C127.14 211.85 126.91 211.72 126.72 211.45
C126.54 211.18 126.44 210.83 126.44 210.39
C126.44 209.97 126.53 209.63 126.72 209.36
C126.90 209.10 127.12 208.97 127.38 208.97
Z
M127.39 205.30
C127.00 205.30 126.68 205.47 126.42 205.81
C126.17 206.15 126.04 206.59 126.04 207.13
C126.04 207.49 126.10 207.79 126.22 208.03
C126.34 208.27 126.51 208.46 126.74 208.59
C126.46 208.70 126.25 208.91 126.09 209.22
C125.93 209.53 125.85 209.92 125.85 210.39
C125.85 211.05 126.00 211.57 126.30 211.97
C126.59 212.37 126.96 212.57 127.40 212.57
C127.83 212.57 128.20 212.37 128.49 211.97
C128.79 211.57 128.93 211.05 128.93 210.42
C128.93 209.96 128.86 209.57 128.71 209.26
C128.55 208.95 128.34 208.73 128.05 208.59
C128.29 208.45 128.46 208.27 128.57 208.03
C128.69 207.79 128.74 207.50 128.74 207.16
C128.74 206.61 128.61 206.16 128.36 205.82
C128.10 205.47 127.77 205.30 127.39 205.30
Z
M123.70 205.30
C123.34 205.30 123.03 205.45 122.78 205.76
C122.53 206.08 122.36 206.54 122.29 207.14
L122.86 207.30
C122.90 206.87 123.00 206.55 123.15 206.34
C123.30 206.12 123.49 206.02 123.71 206.02
C123.92 206.02 124.10 206.12 124.25 206.32
C124.40 206.52 124.47 206.79 124.47 207.12
C124.47 207.49 124.38 207.78 124.21 207.99
C124.03 208.21 123.80 208.32 123.52 208.32
L123.43 208.31
L123.36 209.08
C123.52 209.01 123.66 208.98 123.77 208.98
C124.02 208.98 124.24 209.11 124.42 209.36
C124.59 209.61 124.68 209.95 124.68 210.36
C124.68 210.80 124.59 211.16 124.39 211.44
C124.20 211.71 123.97 211.85 123.71 211.85
C123.23 211.85 122.93 211.39 122.81 210.45
L122.23 210.57
C122.27 211.18 122.43 211.67 122.71 212.03
C122.98 212.39 123.32 212.58 123.72 212.58
C124.15 212.58 124.52 212.37 124.83 211.95
C125.14 211.54 125.29 211.00 125.29 210.35
C125.29 210.04 125.25 209.76 125.18 209.51
C125.10 209.26 125.00 209.06 124.88 208.91
C124.76 208.76 124.61 208.66 124.42 208.59
C124.62 208.45 124.78 208.25 124.89 208.00
C125.01 207.75 125.06 207.47 125.06 207.14
C125.06 206.61 124.93 206.17 124.67 205.82
C124.40 205.47 124.08 205.30 123.70 205.30
Z
" fill="black" fill-rule="nonzero" />
<path d="
M139.30 27.58
C139.30 27.58 139.30 27.58 139.30 27.58
C139.30 27.58 139.31 27.58 139.31 27.58
C139.49 27.58 139.66 27.70 139.81 27.95
C139.98 28.22 140.06 28.59 140.06 29.08
C140.06 29.56 139.98 29.93 139.82 30.19
C139.67 30.42 139.50 30.54 139.30 30.54
C139.29 30.54 139.29 30.54 139.29 30.54
C139.29 30.54 139.29 30.54 139.29 30.54
C139.08 30.54 138.90 30.42 138.75 30.19
C138.58 29.93 138.50 29.59 138.50 29.15
C138.50 28.66 138.59 28.27 138.76 27.98
C138.93 27.71 139.11 27.58 139.30 27.58
Z
M139.24 26.57
C138.78 26.57 138.39 26.81 138.08 27.28
C137.77 27.73 137.62 28.35 137.62 29.12
C137.62 29.87 137.77 30.47 138.06 30.91
C138.36 31.36 138.73 31.59 139.16 31.59
C139.41 31.59 139.64 31.50 139.87 31.31
C139.96 31.24 140.04 31.15 140.11 31.06
L140.11 31.06
C140.09 31.45 140.04 31.80 139.96 32.12
C139.86 32.51 139.74 32.78 139.60 32.93
C139.47 33.06 139.33 33.13 139.18 33.13
C139.18 33.13 139.18 33.13 139.18 33.13
C139.18 33.13 139.18 33.13 139.17 33.13
C139.01 33.13 138.88 33.05 138.78 32.91
C138.66 32.74 138.58 32.48 138.54 32.13
L138.53 31.98
L138.38 32.00
L137.83 32.08
L137.70 32.10
L137.71 32.23
C137.76 32.83 137.91 33.30 138.17 33.62
C138.43 33.96 138.77 34.13 139.17 34.13
C139.52 34.13 139.84 33.99 140.12 33.71
C140.39 33.45 140.60 33.03 140.75 32.47
C140.90 31.91 140.98 31.14 140.98 30.15
C140.98 29.26 140.91 28.57 140.77 28.09
C140.62 27.60 140.42 27.23 140.15 26.97
C139.87 26.71 139.56 26.57 139.24 26.57
Z
M135.61 26.57
C135.20 26.57 134.86 26.75 134.58 27.09
C134.30 27.42 134.13 27.91 134.06 28.54
L134.04 28.67
L134.16 28.70
L134.73 28.85
L134.89 28.90
L134.91 28.73
C134.95 28.32 135.04 28.03 135.17 27.83
C135.29 27.66 135.44 27.58 135.61 27.58
C135.61 27.58 135.61 27.58 135.61 27.58
C135.62 27.58 135.62 27.58 135.62 27.58
C135.78 27.58 135.92 27.66 136.04 27.82
C136.17 28.00 136.24 28.24 136.24 28.54
C136.24 28.87 136.16 29.13 136.00 29.32
C135.86 29.50 135.67 29.59 135.43 29.60
L135.43 29.60
L135.35 29.59
L135.21 29.57
L135.19 29.72
L135.13 30.48
L135.11 30.71
L135.32 30.63
C135.47 30.57 135.58 30.54 135.67 30.54
C135.67 30.54 135.67 30.54 135.67 30.54
C135.67 30.54 135.68 30.54 135.68 30.54
C135.88 30.54 136.06 30.65 136.21 30.86
C136.37 31.09 136.45 31.39 136.44 31.78
C136.44 32.19 136.36 32.52 136.18 32.77
C136.02 33.01 135.83 33.13 135.62 33.13
C135.62 33.13 135.62 33.13 135.62 33.13
C135.62 33.13 135.62 33.13 135.61 33.13
C135.42 33.13 135.27 33.03 135.15 32.84
C135.01 32.63 134.91 32.30 134.85 31.85
L134.83 31.70
L134.68 31.73
L134.11 31.85
L133.99 31.87
L134.00 32.00
C134.04 32.64 134.21 33.15 134.50 33.53
C134.81 33.93 135.18 34.13 135.63 34.13
C136.10 34.13 136.51 33.91 136.85 33.45
C137.17 33.01 137.34 32.45 137.34 31.76
C137.34 31.44 137.30 31.15 137.22 30.89
C137.14 30.62 137.03 30.40 136.90 30.24
C136.81 30.13 136.71 30.04 136.59 29.97
L136.59 29.97
C136.73 29.84 136.84 29.67 136.93 29.48
C137.05 29.21 137.11 28.91 137.11 28.56
C137.11 28.00 136.97 27.53 136.68 27.15
C136.39 26.77 136.03 26.57 135.61 26.57
Z
" fill="white" fill-rule="nonzero" />
<path d="
M139.60 182.92
L139.60 186.13
L138.14 186.13
L139.60 182.92
Z
M139.71 181.52
L137.58 186.13
L137.58 186.93
L139.60 186.93
L139.60 188.64
L140.18 188.64
L140.18 186.93
L140.81 186.93
L140.81 186.13
L140.18 186.13
L140.18 181.52
Z
M135.61 181.49
C135.25 181.49 134.94 181.64 134.69 181.95
C134.43 182.26 134.27 182.72 134.20 183.33
L134.77 183.49
C134.81 183.06 134.91 182.74 135.06 182.52
C135.21 182.31 135.39 182.21 135.61 182.21
C135.83 182.21 136.01 182.31 136.16 182.51
C136.30 182.71 136.38 182.98 136.38 183.31
C136.38 183.68 136.29 183.97 136.11 184.18
C135.94 184.40 135.71 184.51 135.42 184.51
L135.34 184.50
L135.27 185.27
C135.43 185.20 135.56 185.17 135.67 185.17
C135.93 185.17 136.15 185.30 136.32 185.55
C136.50 185.80 136.59 186.13 136.59 186.55
C136.59 186.99 136.49 187.35 136.30 187.63
C136.11 187.90 135.88 188.04 135.62 188.04
C135.13 188.04 134.83 187.57 134.71 186.64
L134.14 186.76
C134.18 187.37 134.33 187.86 134.61 188.22
C134.89 188.58 135.23 188.76 135.63 188.76
C136.06 188.76 136.43 188.56 136.73 188.14
C137.04 187.72 137.20 187.19 137.20 186.53
C137.20 186.23 137.16 185.95 137.08 185.70
C137.01 185.45 136.91 185.25 136.79 185.10
C136.67 184.95 136.51 184.85 136.33 184.78
C136.53 184.64 136.69 184.44 136.80 184.19
C136.91 183.94 136.97 183.66 136.97 183.33
C136.97 182.80 136.84 182.36 136.57 182.01
C136.31 181.66 135.99 181.49 135.61 181.49
Z
" fill="black" fill-rule="nonzero" />
<path d="
M150.62 148.29
L150.62 148.29
L150.62 148.29
C150.62 148.29 150.62 148.29 150.62 148.29
Z
M150.10 145.75
L150.08 145.88
L149.63 149.54
L149.61 149.67
L149.74 149.69
L150.28 149.80
L150.40 149.82
L150.44 149.72
C150.52 149.52 150.63 149.37 150.76 149.26
C150.88 149.16 151.02 149.11 151.16 149.11
C151.16 149.11 151.16 149.11 151.16 149.11
C151.16 149.11 151.16 149.11 151.16 149.11
C151.40 149.11 151.60 149.23 151.76 149.47
C151.93 149.73 152.02 150.10 152.02 150.58
C152.02 151.09 151.93 151.49 151.75 151.78
C151.58 152.05 151.38 152.18 151.17 152.18
C151.16 152.18 151.16 152.18 151.16 152.18
C151.16 152.18 151.16 152.18 151.16 152.18
C150.99 152.18 150.84 152.09 150.70 151.91
C150.55 151.71 150.46 151.39 150.41 150.96
L150.40 150.82
L150.25 150.84
L149.65 150.92
L149.52 150.93
L149.53 151.07
C149.57 151.72 149.74 152.23 150.03 152.60
C150.34 152.99 150.72 153.18 151.17 153.18
C151.71 153.18 152.14 152.91 152.46 152.37
C152.76 151.85 152.91 151.23 152.91 150.51
C152.91 149.77 152.76 149.18 152.45 148.74
C152.13 148.29 151.75 148.06 151.31 148.06
C151.07 148.06 150.84 148.14 150.62 148.29
L150.62 148.29
L150.81 146.87
L152.69 146.87
L152.69 146.73
L152.69 145.90
L152.69 145.75
Z
M147.51 145.63
C147.11 145.63 146.76 145.80 146.48 146.15
C146.21 146.48 146.04 146.96 145.96 147.60
L145.95 147.72
L146.06 147.75
L146.64 147.91
L146.80 147.95
L146.81 147.79
C146.85 147.38 146.94 147.08 147.08 146.89
C147.20 146.72 147.35 146.63 147.52 146.63
C147.52 146.63 147.52 146.63 147.52 146.63
C147.52 146.63 147.52 146.63 147.52 146.63
C147.69 146.63 147.83 146.71 147.95 146.88
C148.08 147.05 148.14 147.29 148.14 147.60
C148.14 147.93 148.06 148.19 147.91 148.38
C147.76 148.56 147.57 148.65 147.34 148.65
L147.34 148.65
L147.26 148.64
L147.11 148.63
L147.10 148.77
L147.03 149.54
L147.01 149.77
L147.23 149.68
C147.37 149.62 147.49 149.59 147.58 149.59
C147.58 149.59 147.58 149.59 147.58 149.59
C147.58 149.59 147.58 149.59 147.58 149.59
C147.79 149.59 147.97 149.70 148.11 149.91
C148.27 150.14 148.35 150.45 148.35 150.83
C148.35 151.24 148.26 151.58 148.09 151.83
C147.93 152.06 147.74 152.18 147.53 152.18
C147.53 152.18 147.53 152.18 147.52 152.18
C147.52 152.18 147.52 152.18 147.52 152.18
C147.33 152.18 147.17 152.09 147.05 151.90
C146.91 151.68 146.82 151.35 146.76 150.91
L146.74 150.76
L146.59 150.79
L146.02 150.90
L145.89 150.93
L145.90 151.05
C145.94 151.69 146.11 152.20 146.41 152.59
C146.71 152.99 147.09 153.19 147.53 153.19
C148.01 153.19 148.42 152.96 148.75 152.51
C149.08 152.07 149.24 151.50 149.24 150.82
C149.24 150.50 149.20 150.20 149.13 149.94
C149.04 149.67 148.94 149.46 148.80 149.30
C148.72 149.19 148.61 149.10 148.49 149.03
L148.49 149.03
C148.63 148.89 148.75 148.73 148.83 148.53
C148.95 148.27 149.01 147.96 149.01 147.62
C149.01 147.05 148.87 146.58 148.59 146.21
C148.30 145.82 147.94 145.63 147.51 145.63
Z
" fill="white" fill-rule="nonzero" />
<path d="
M151.23 172.89
C151.49 172.89 151.70 173.02 151.88 173.30
C152.05 173.58 152.14 173.97 152.14 174.48
C152.14 174.99 152.05 175.40 151.88 175.69
C151.70 175.99 151.50 176.14 151.27 176.14
C151.01 176.14 150.79 175.98 150.59 175.67
C150.40 175.35 150.30 174.94 150.30 174.43
C150.30 173.95 150.40 173.58 150.58 173.30
C150.77 173.02 150.98 172.89 151.23 172.89
Z
M151.32 169.58
C150.83 169.58 150.43 169.87 150.11 170.46
C149.80 171.04 149.64 172.02 149.64 173.40
C149.64 174.64 149.80 175.53 150.10 176.06
C150.41 176.59 150.80 176.85 151.27 176.85
C151.53 176.85 151.77 176.76 151.99 176.58
C152.20 176.39 152.38 176.11 152.52 175.72
C152.66 175.33 152.73 174.90 152.73 174.43
C152.73 173.72 152.59 173.16 152.31 172.74
C152.04 172.32 151.72 172.11 151.34 172.11
C151.12 172.11 150.91 172.19 150.71 172.35
C150.51 172.51 150.35 172.75 150.21 173.06
C150.22 172.19 150.30 171.52 150.48 171.08
C150.68 170.56 150.95 170.30 151.28 170.30
C151.50 170.30 151.68 170.41 151.83 170.64
C151.94 170.80 152.02 171.06 152.08 171.42
L152.65 171.35
C152.59 170.78 152.45 170.34 152.21 170.04
C151.97 169.73 151.67 169.58 151.32 169.58
Z
M147.51 169.58
C147.15 169.58 146.85 169.74 146.59 170.05
C146.34 170.36 146.17 170.82 146.10 171.43
L146.67 171.58
C146.71 171.15 146.81 170.83 146.96 170.62
C147.11 170.41 147.30 170.30 147.52 170.30
C147.73 170.30 147.91 170.40 148.06 170.60
C148.21 170.81 148.28 171.07 148.28 171.41
C148.28 171.77 148.19 172.06 148.02 172.28
C147.84 172.49 147.61 172.60 147.33 172.60
L147.24 172.59
L147.17 173.36
C147.34 173.30 147.47 173.26 147.58 173.26
C147.84 173.26 148.05 173.39 148.23 173.64
C148.40 173.90 148.49 174.23 148.49 174.64
C148.49 175.08 148.40 175.44 148.20 175.72
C148.01 176.00 147.79 176.14 147.52 176.14
C147.04 176.14 146.74 175.67 146.62 174.74
L146.04 174.85
C146.08 175.46 146.24 175.95 146.52 176.31
C146.79 176.68 147.13 176.86 147.53 176.86
C147.96 176.86 148.33 176.65 148.64 176.23
C148.95 175.82 149.10 175.28 149.10 174.63
C149.10 174.32 149.06 174.04 148.99 173.79
C148.91 173.54 148.82 173.34 148.69 173.20
C148.57 173.05 148.42 172.94 148.23 172.88
C148.43 172.73 148.59 172.54 148.70 172.29
C148.82 172.04 148.87 171.75 148.87 171.43
C148.87 170.90 148.74 170.46 148.48 170.11
C148.21 169.76 147.89 169.58 147.51 169.58
Z
" fill="black" fill-rule="nonzero" />
<path d="
M147.61 193.31
C147.12 193.31 146.73 193.51 146.43 193.89
C146.15 194.25 145.98 194.79 145.94 195.51
L145.93 195.64
L146.06 195.66
L146.65 195.75
L146.81 195.77
L146.81 195.61
C146.81 195.18 146.89 194.85 147.05 194.63
C147.19 194.42 147.37 194.32 147.58 194.32
C147.58 194.32 147.59 194.32 147.59 194.32
C147.59 194.32 147.59 194.32 147.59 194.32
C147.79 194.32 147.96 194.42 148.10 194.61
C148.25 194.81 148.33 195.08 148.33 195.41
C148.33 195.70 148.25 196.02 148.09 196.37
C147.93 196.72 147.59 197.23 147.06 197.88
C146.59 198.47 146.27 198.98 146.09 199.41
C145.91 199.85 145.82 200.25 145.83 200.61
L145.83 200.75
L149.21 200.75
L149.21 200.61
L149.21 199.77
L149.21 199.62
L146.99 199.62
C147.03 199.54 147.08 199.45 147.13 199.37
C147.23 199.21 147.45 198.92 147.79 198.48
C148.33 197.78 148.70 197.22 148.90 196.79
C149.10 196.36 149.20 195.90 149.20 195.43
C149.20 194.89 149.07 194.41 148.81 193.98
C148.54 193.54 148.13 193.32 147.61 193.31
Z
M151.35 193.31
L151.32 193.41
C151.23 193.71 151.07 194.01 150.83 194.33
C150.60 194.64 150.33 194.91 150.03 195.13
L149.97 195.17
L149.97 195.24
L149.97 196.09
L149.97 196.33
L150.18 196.21
C150.37 196.10 150.59 195.94 150.82 195.73
C150.93 195.64 151.03 195.54 151.11 195.44
L151.11 195.44
L151.11 200.61
L151.11 200.75
L151.97 200.75
L151.97 200.61
L151.97 193.46
L151.97 193.31
Z
" fill="white" fill-rule="nonzero" />
<path d="
M171.42 86.10
C170.93 86.10 170.54 86.29 170.25 86.67
C169.96 87.04 169.80 87.58 169.75 88.29
L169.74 88.42
L169.87 88.44
L170.46 88.54
L170.63 88.56
L170.63 88.40
C170.63 87.96 170.70 87.64 170.86 87.42
C171.00 87.21 171.18 87.11 171.39 87.11
C171.39 87.11 171.40 87.11 171.40 87.11
C171.40 87.11 171.40 87.11 171.40 87.11
C171.60 87.11 171.77 87.20 171.91 87.39
C172.06 87.60 172.14 87.86 172.14 88.20
C172.14 88.49 172.06 88.81 171.90 89.16
C171.74 89.51 171.40 90.01 170.87 90.67
C170.40 91.26 170.08 91.77 169.90 92.20
C169.72 92.64 169.63 93.04 169.64 93.40
L169.65 93.54
L173.02 93.54
L173.02 93.39
L173.02 92.55
L173.02 92.41
L170.80 92.41
C170.84 92.33 170.89 92.24 170.94 92.15
C171.04 92.00 171.26 91.70 171.60 91.27
C172.14 90.57 172.51 90.01 172.71 89.58
C172.91 89.14 173.01 88.69 173.01 88.22
C173.01 87.68 172.88 87.20 172.62 86.77
C172.35 86.33 171.95 86.10 171.42 86.10
Z
M174.95 86.10
C174.55 86.10 174.21 86.27 173.92 86.62
C173.65 86.95 173.48 87.44 173.40 88.07
L173.39 88.19
L173.51 88.23
L174.08 88.38
L174.24 88.43
L174.26 88.26
C174.29 87.85 174.38 87.55 174.52 87.36
C174.64 87.19 174.79 87.10 174.96 87.10
C174.96 87.10 174.96 87.10 174.96 87.10
C174.96 87.10 174.96 87.10 174.96 87.10
C175.13 87.10 175.27 87.19 175.39 87.35
C175.52 87.53 175.58 87.77 175.58 88.07
C175.58 88.40 175.50 88.66 175.35 88.85
C175.20 89.03 175.01 89.12 174.78 89.12
L174.78 89.12
L174.70 89.11
L174.55 89.10
L174.54 89.24
L174.47 90.01
L174.45 90.24
L174.67 90.15
C174.81 90.10 174.93 90.07 175.02 90.07
C175.02 90.07 175.02 90.07 175.02 90.07
C175.02 90.07 175.02 90.07 175.02 90.07
C175.23 90.07 175.41 90.17 175.55 90.39
C175.71 90.61 175.79 90.92 175.79 91.31
C175.79 91.72 175.70 92.05 175.53 92.30
C175.37 92.54 175.18 92.65 174.97 92.65
C174.97 92.65 174.97 92.65 174.97 92.65
C174.96 92.65 174.96 92.65 174.96 92.65
C174.77 92.65 174.62 92.56 174.49 92.37
C174.36 92.15 174.26 91.82 174.20 91.38
L174.18 91.23
L174.03 91.26
L173.46 91.38
L173.34 91.40
L173.34 91.52
C173.38 92.16 173.55 92.68 173.85 93.06
C174.15 93.46 174.53 93.66 174.97 93.66
C175.45 93.66 175.86 93.43 176.19 92.98
C176.52 92.54 176.68 91.98 176.69 91.29
C176.69 90.97 176.65 90.68 176.57 90.41
C176.49 90.15 176.38 89.93 176.24 89.77
C176.16 89.66 176.05 89.57 175.94 89.50
L175.94 89.50
C176.07 89.37 176.19 89.20 176.27 89.01
C176.40 88.74 176.46 88.43 176.46 88.09
C176.46 87.53 176.31 87.06 176.03 86.68
C175.74 86.30 175.38 86.10 174.95 86.10
Z
" fill="white" fill-rule="nonzero" />
<path d="
M171.42 181.55
C170.98 181.55 170.63 181.72 170.36 182.07
C170.09 182.41 169.93 182.93 169.89 183.61
L170.48 183.70
C170.48 183.24 170.57 182.89 170.74 182.64
C170.91 182.40 171.13 182.27 171.40 182.27
C171.65 182.27 171.86 182.39 172.03 182.62
C172.19 182.84 172.28 183.14 172.28 183.50
C172.28 183.82 172.20 184.16 172.03 184.52
C171.87 184.89 171.51 185.40 170.98 186.07
C170.52 186.64 170.20 187.14 170.03 187.56
C169.86 187.98 169.78 188.36 169.78 188.70
L172.87 188.70
L172.87 187.86
L170.58 187.86
C170.64 187.70 170.72 187.54 170.82 187.38
C170.92 187.23 171.14 186.93 171.49 186.49
C172.02 185.80 172.39 185.24 172.58 184.83
C172.77 184.41 172.87 183.98 172.87 183.52
C172.87 183.01 172.74 182.55 172.50 182.15
C172.25 181.75 171.89 181.55 171.42 181.55
Z
M175.05 181.55
C174.61 181.55 174.26 181.72 173.99 182.07
C173.72 182.41 173.56 182.93 173.52 183.61
L174.11 183.70
C174.11 183.24 174.20 182.89 174.37 182.64
C174.54 182.40 174.76 182.27 175.03 182.27
C175.28 182.27 175.49 182.39 175.66 182.62
C175.83 182.84 175.91 183.14 175.91 183.50
C175.91 183.82 175.83 184.16 175.66 184.52
C175.50 184.89 175.14 185.40 174.61 186.07
C174.15 186.64 173.83 187.14 173.66 187.56
C173.49 187.98 173.41 188.36 173.41 188.70
L176.50 188.70
L176.50 187.86
L174.21 187.86
C174.27 187.70 174.35 187.54 174.45 187.38
C174.55 187.23 174.77 186.93 175.12 186.49
C175.65 185.80 176.02 185.24 176.21 184.83
C176.40 184.41 176.50 183.98 176.50 183.52
C176.50 183.01 176.37 182.55 176.13 182.15
C175.88 181.75 175.52 181.55 175.05 181.55
Z
" fill="black" fill-rule="nonzero" />
<path d="
M186.34 29.24
L186.34 29.24
L186.34 29.24
C186.34 29.24 186.34 29.24 186.34 29.24
Z
M183.32 26.58
C182.84 26.58 182.45 26.77 182.15 27.15
C181.87 27.52 181.70 28.06 181.66 28.77
L181.65 28.90
L181.78 28.92
L182.37 29.01
L182.53 29.04
L182.53 28.87
C182.53 28.44 182.61 28.11 182.76 27.89
C182.90 27.69 183.08 27.58 183.30 27.58
C183.30 27.58 183.30 27.58 183.30 27.58
C183.30 27.58 183.31 27.58 183.31 27.58
C183.51 27.58 183.68 27.68 183.82 27.87
C183.97 28.07 184.04 28.34 184.04 28.67
C184.04 28.96 183.96 29.28 183.81 29.63
C183.65 29.98 183.30 30.49 182.77 31.15
C182.31 31.73 181.98 32.24 181.81 32.67
C181.63 33.11 181.54 33.51 181.55 33.87
L181.55 34.01
L184.92 34.01
L184.92 33.87
L184.92 33.03
L184.92 32.89
L182.70 32.89
C182.75 32.80 182.80 32.71 182.85 32.63
C182.95 32.47 183.17 32.18 183.50 31.75
C184.05 31.04 184.42 30.48 184.61 30.05
C184.81 29.62 184.91 29.16 184.91 28.69
C184.91 28.15 184.78 27.67 184.53 27.25
C184.25 26.80 183.85 26.58 183.32 26.58
Z
M185.82 26.70
L185.80 26.83
L185.35 30.48
L185.33 30.62
L185.46 30.64
L186.00 30.75
L186.11 30.77
L186.16 30.66
C186.24 30.47 186.34 30.32 186.48 30.21
C186.60 30.11 186.73 30.06 186.87 30.06
C186.87 30.06 186.87 30.06 186.87 30.06
C186.88 30.06 186.88 30.06 186.88 30.06
C187.12 30.06 187.31 30.18 187.47 30.42
C187.65 30.68 187.74 31.04 187.74 31.52
C187.74 32.04 187.64 32.44 187.46 32.73
C187.29 33.00 187.10 33.13 186.88 33.13
C186.88 33.13 186.88 33.13 186.88 33.13
C186.88 33.13 186.88 33.13 186.88 33.13
C186.71 33.13 186.55 33.04 186.42 32.85
C186.27 32.65 186.17 32.34 186.13 31.91
L186.11 31.77
L185.97 31.79
L185.37 31.86
L185.24 31.88
L185.24 32.01
C185.29 32.66 185.45 33.18 185.75 33.55
C186.06 33.94 186.44 34.13 186.89 34.13
C187.43 34.13 187.86 33.86 188.17 33.32
C188.47 32.80 188.63 32.18 188.63 31.45
C188.63 30.72 188.47 30.13 188.17 29.69
C187.85 29.23 187.47 29.01 187.03 29.01
C186.79 29.01 186.56 29.08 186.34 29.24
L186.34 29.24
L186.52 27.82
L188.40 27.82
L188.40 27.68
L188.40 26.84
L188.40 26.70
Z
" fill="white" fill-rule="nonzero" />
<path d="
M187.22 159.17
L187.22 162.38
L185.76 162.38
L187.22 159.17
Z
M183.32 157.74
C182.88 157.74 182.53 157.91 182.26 158.26
C182.00 158.60 181.84 159.12 181.80 159.80
L182.39 159.89
C182.39 159.43 182.48 159.08 182.65 158.83
C182.82 158.59 183.04 158.46 183.30 158.46
C183.55 158.46 183.76 158.58 183.93 158.81
C184.10 159.03 184.19 159.33 184.19 159.69
C184.19 160.01 184.10 160.35 183.94 160.71
C183.77 161.07 183.42 161.59 182.88 162.26
C182.42 162.83 182.11 163.33 181.94 163.75
C181.76 164.17 181.68 164.55 181.69 164.89
L184.78 164.89
L184.78 164.05
L182.49 164.05
C182.55 163.89 182.63 163.73 182.73 163.57
C182.83 163.42 183.05 163.12 183.39 162.68
C183.93 161.99 184.29 161.43 184.48 161.02
C184.68 160.60 184.77 160.16 184.77 159.71
C184.77 159.20 184.65 158.74 184.40 158.34
C184.16 157.94 183.80 157.74 183.32 157.74
Z
M187.33 157.77
L185.20 162.38
L185.20 163.19
L187.22 163.19
L187.22 164.89
L187.80 164.89
L187.80 163.19
L188.43 163.19
L188.43 162.38
L187.80 162.38
L187.80 157.77
Z
" fill="black" fill-rule="nonzero" />
<path d="
M185.04 171.18
L186.10 174.02
L184.01 174.02
L185.04 171.18
Z
M184.24 169.39
L181.26 177.05
L182.90 177.05
L183.53 175.31
L186.60 175.31
L187.27 177.05
L188.95 177.05
L185.88 169.39
Z
" fill="black" fill-rule="nonzero" />
<path d="
M198.83 87.11
C198.83 87.11 198.83 87.11 198.83 87.11
C198.83 87.11 198.83 87.11 198.83 87.11
C199.02 87.11 199.18 87.23 199.34 87.48
C199.50 87.75 199.59 88.12 199.59 88.61
C199.59 89.09 199.51 89.46 199.34 89.72
C199.20 89.95 199.02 90.07 198.82 90.07
C198.82 90.07 198.82 90.07 198.82 90.07
C198.82 90.07 198.82 90.07 198.82 90.07
C198.61 90.07 198.43 89.95 198.28 89.72
C198.11 89.46 198.02 89.12 198.02 88.68
C198.02 88.19 198.11 87.80 198.29 87.51
C198.46 87.24 198.63 87.11 198.83 87.11
Z
M195.35 86.10
L195.31 86.20
C195.22 86.50 195.06 86.80 194.82 87.12
C194.59 87.43 194.32 87.70 194.02 87.92
L193.96 87.96
L193.96 88.03
L193.96 88.88
L193.96 89.12
L194.17 89.00
C194.37 88.89 194.58 88.73 194.81 88.52
C194.92 88.43 195.02 88.33 195.11 88.23
L195.11 88.23
L195.11 93.40
L195.11 93.54
L195.96 93.54
L195.96 93.40
L195.96 86.25
L195.96 86.10
Z
M198.76 86.10
C198.31 86.10 197.92 86.34 197.60 86.81
C197.30 87.26 197.15 87.88 197.15 88.65
C197.15 89.40 197.30 90.00 197.59 90.44
C197.89 90.89 198.26 91.12 198.69 91.12
C198.93 91.12 199.17 91.03 199.40 90.84
C199.49 90.77 199.57 90.68 199.64 90.59
L199.64 90.59
C199.62 90.98 199.57 91.33 199.49 91.65
C199.39 92.04 199.27 92.31 199.13 92.46
C199.00 92.59 198.86 92.66 198.71 92.66
C198.71 92.66 198.71 92.66 198.71 92.66
C198.71 92.66 198.70 92.66 198.70 92.66
C198.54 92.66 198.41 92.58 198.31 92.44
C198.19 92.27 198.11 92.01 198.07 91.66
L198.05 91.51
L197.91 91.53
L197.36 91.61
L197.23 91.63
L197.24 91.76
C197.29 92.36 197.44 92.83 197.69 93.15
C197.96 93.49 198.29 93.66 198.69 93.66
C199.05 93.66 199.36 93.52 199.64 93.24
C199.91 92.98 200.13 92.56 200.28 92.00
C200.43 91.44 200.51 90.67 200.51 89.68
C200.51 88.79 200.44 88.10 200.30 87.62
C200.15 87.13 199.94 86.76 199.67 86.50
C199.40 86.24 199.09 86.10 198.76 86.10
Z
" fill="white" fill-rule="nonzero" />
<path d="
M198.82 122.68
C199.03 122.68 199.21 122.79 199.36 123.00
C199.51 123.21 199.59 123.48 199.59 123.82
C199.59 124.14 199.51 124.41 199.37 124.61
C199.22 124.81 199.04 124.92 198.83 124.92
C198.62 124.92 198.43 124.81 198.29 124.60
C198.14 124.40 198.07 124.12 198.07 123.77
C198.07 123.46 198.14 123.20 198.29 122.99
C198.44 122.78 198.62 122.68 198.82 122.68
Z
M198.82 125.63
C199.08 125.63 199.31 125.76 199.50 126.03
C199.68 126.30 199.78 126.65 199.78 127.09
C199.78 127.52 199.69 127.87 199.50 128.13
C199.32 128.39 199.10 128.52 198.83 128.52
C198.57 128.52 198.34 128.38 198.16 128.11
C197.97 127.85 197.87 127.50 197.87 127.06
C197.87 126.64 197.97 126.29 198.15 126.03
C198.33 125.76 198.55 125.63 198.82 125.63
Z
M195.23 121.96
C194.79 121.96 194.44 122.13 194.17 122.48
C193.90 122.82 193.75 123.34 193.70 124.02
L194.30 124.11
C194.30 123.65 194.38 123.30 194.55 123.05
C194.72 122.81 194.94 122.69 195.21 122.69
C195.46 122.69 195.67 122.80 195.84 123.03
C196.01 123.26 196.09 123.55 196.09 123.91
C196.09 124.23 196.01 124.57 195.84 124.93
C195.68 125.30 195.33 125.81 194.79 126.48
C194.33 127.05 194.01 127.55 193.84 127.97
C193.67 128.39 193.59 128.77 193.60 129.11
L196.69 129.11
L196.69 128.27
L194.39 128.27
C194.45 128.11 194.54 127.96 194.64 127.80
C194.74 127.64 194.96 127.34 195.30 126.90
C195.83 126.21 196.20 125.65 196.39 125.24
C196.58 124.82 196.68 124.39 196.68 123.93
C196.68 123.42 196.56 122.97 196.31 122.56
C196.07 122.16 195.70 121.96 195.23 121.96
Z
M198.82 121.96
C198.43 121.96 198.11 122.13 197.86 122.47
C197.60 122.81 197.47 123.25 197.47 123.79
C197.47 124.15 197.53 124.45 197.65 124.69
C197.77 124.94 197.94 125.12 198.17 125.25
C197.90 125.36 197.68 125.57 197.52 125.88
C197.37 126.19 197.29 126.58 197.29 127.06
C197.29 127.71 197.43 128.23 197.73 128.63
C198.02 129.03 198.39 129.23 198.83 129.23
C199.27 129.23 199.63 129.03 199.92 128.63
C200.22 128.23 200.37 127.72 200.37 127.08
C200.37 126.62 200.29 126.24 200.14 125.93
C199.99 125.62 199.77 125.39 199.49 125.25
C199.72 125.12 199.89 124.93 200.00 124.69
C200.12 124.46 200.18 124.17 200.18 123.82
C200.18 123.28 200.05 122.83 199.79 122.48
C199.53 122.13 199.21 121.96 198.82 121.96
Z
" fill="black" fill-rule="nonzero" />
<path d="
M198.79 146.50
C199.07 146.50 199.30 146.69 199.48 147.08
C199.66 147.48 199.75 148.25 199.75 149.41
C199.75 150.56 199.66 151.33 199.48 151.73
C199.31 152.13 199.09 152.33 198.83 152.33
C198.55 152.33 198.32 152.13 198.14 151.74
C197.97 151.34 197.88 150.57 197.88 149.41
C197.88 148.27 197.97 147.49 198.14 147.09
C198.32 146.70 198.53 146.50 198.79 146.50
Z
M195.23 145.77
C194.79 145.77 194.44 145.95 194.17 146.29
C193.90 146.64 193.75 147.15 193.70 147.83
L194.30 147.93
C194.30 147.47 194.38 147.11 194.55 146.87
C194.72 146.62 194.94 146.50 195.21 146.50
C195.46 146.50 195.67 146.61 195.84 146.84
C196.01 147.07 196.09 147.36 196.09 147.73
C196.09 148.04 196.01 148.38 195.84 148.74
C195.68 149.11 195.33 149.62 194.79 150.29
C194.33 150.86 194.01 151.36 193.84 151.78
C193.67 152.20 193.59 152.58 193.60 152.92
L196.69 152.92
L196.69 152.08
L194.39 152.08
C194.45 151.93 194.54 151.77 194.64 151.61
C194.74 151.45 194.96 151.15 195.30 150.71
C195.83 150.02 196.20 149.47 196.39 149.05
C196.58 148.63 196.68 148.20 196.68 147.75
C196.68 147.23 196.56 146.78 196.31 146.38
C196.07 145.97 195.70 145.77 195.23 145.77
Z
M198.82 145.77
C198.32 145.77 197.94 146.08 197.68 146.70
C197.42 147.31 197.29 148.22 197.29 149.41
C197.29 150.75 197.43 151.69 197.72 152.23
C198.00 152.77 198.37 153.05 198.81 153.05
C199.32 153.05 199.70 152.74 199.95 152.12
C200.21 151.50 200.34 150.60 200.34 149.41
C200.34 148.09 200.18 147.12 199.87 146.52
C199.62 146.02 199.26 145.77 198.82 145.77
Z
" fill="black" fill-rule="nonzero" />
<path d="
M210.88 109.91
L210.85 110.01
C210.76 110.31 210.59 110.61 210.36 110.93
C210.13 111.24 209.86 111.51 209.55 111.73
L209.49 111.77
L209.49 111.84
L209.49 112.69
L209.49 112.93
L209.71 112.81
C209.90 112.70 210.11 112.54 210.35 112.33
C210.45 112.23 210.55 112.14 210.64 112.04
L210.64 112.04
L210.64 117.21
L210.64 117.35
L211.50 117.35
L211.50 117.21
L211.50 110.05
L211.50 109.91
Z
M207.04 109.91
C206.64 109.91 206.29 110.09 206.01 110.43
C205.74 110.76 205.56 111.25 205.49 111.88
L205.47 112.00
L205.59 112.04
L206.16 112.19
L206.33 112.24
L206.34 112.07
C206.38 111.66 206.47 111.36 206.61 111.17
C206.73 111.00 206.87 110.91 207.04 110.91
C207.05 110.91 207.05 110.91 207.05 110.91
C207.05 110.91 207.05 110.91 207.05 110.91
C207.21 110.91 207.36 111.00 207.47 111.16
C207.60 111.34 207.67 111.58 207.67 111.88
C207.67 112.21 207.59 112.47 207.44 112.66
C207.29 112.84 207.10 112.93 206.87 112.93
L206.87 112.93
L206.78 112.93
L206.64 112.91
L206.63 113.05
L206.56 113.82
L206.54 114.05
L206.76 113.97
C206.90 113.91 207.02 113.88 207.11 113.88
C207.11 113.88 207.11 113.88 207.11 113.88
C207.11 113.88 207.11 113.88 207.11 113.88
C207.32 113.88 207.49 113.98 207.64 114.20
C207.80 114.42 207.88 114.73 207.88 115.12
C207.88 115.53 207.79 115.86 207.62 116.11
C207.45 116.35 207.27 116.47 207.06 116.47
C207.05 116.47 207.05 116.47 207.05 116.47
C207.05 116.47 207.05 116.47 207.05 116.47
C206.86 116.47 206.70 116.37 206.58 116.18
C206.44 115.97 206.34 115.64 206.29 115.19
L206.27 115.04
L206.12 115.07
L205.54 115.19
L205.42 115.21
L205.43 115.33
C205.47 115.97 205.64 116.49 205.93 116.87
C206.24 117.27 206.61 117.47 207.06 117.47
C207.54 117.47 207.94 117.25 208.28 116.79
C208.61 116.35 208.77 115.79 208.77 115.10
C208.77 114.78 208.73 114.49 208.65 114.22
C208.57 113.96 208.47 113.74 208.33 113.58
C208.24 113.47 208.14 113.38 208.02 113.31
L208.02 113.31
C208.16 113.18 208.27 113.01 208.36 112.82
C208.48 112.55 208.54 112.24 208.54 111.90
C208.54 111.34 208.40 110.87 208.12 110.49
C207.82 110.11 207.46 109.91 207.04 109.91
Z
" fill="white" fill-rule="nonzero" />
<path d="
M207.13 121.88
C206.65 121.88 206.26 122.07 205.96 122.45
C205.68 122.82 205.51 123.36 205.47 124.07
L205.46 124.20
L205.59 124.22
L206.18 124.31
L206.34 124.34
L206.34 124.17
C206.34 123.74 206.42 123.42 206.57 123.20
C206.71 122.99 206.89 122.89 207.11 122.89
C207.11 122.89 207.11 122.89 207.11 122.89
C207.12 122.89 207.12 122.89 207.12 122.89
C207.32 122.89 207.49 122.98 207.63 123.17
C207.78 123.38 207.85 123.64 207.85 123.98
C207.85 124.27 207.78 124.59 207.62 124.93
C207.46 125.29 207.11 125.79 206.58 126.45
C206.12 127.04 205.79 127.54 205.62 127.98
C205.44 128.42 205.35 128.82 205.36 129.18
L205.36 129.32
L208.73 129.32
L208.73 129.17
L208.73 128.33
L208.73 128.19
L206.52 128.19
C206.56 128.11 206.61 128.02 206.66 127.93
C206.76 127.78 206.98 127.48 207.31 127.05
C207.86 126.35 208.23 125.78 208.42 125.36
C208.62 124.92 208.72 124.47 208.72 123.99
C208.72 123.46 208.60 122.98 208.34 122.55
C208.06 122.11 207.66 121.88 207.13 121.88
Z
M209.09 122.00
L209.09 122.14
L209.09 122.98
L209.09 123.13
L211.28 123.13
C211.03 123.59 210.80 124.14 210.58 124.77
C210.32 125.50 210.12 126.26 209.98 127.06
C209.83 127.87 209.76 128.57 209.75 129.17
L209.75 129.32
L210.48 129.32
L210.62 129.32
L210.62 129.18
C210.67 128.04 210.87 126.89 211.21 125.72
C211.55 124.56 211.94 123.62 212.38 122.90
L212.40 122.86
L212.40 122.82
L212.40 122.14
L212.40 122.00
Z
" fill="white" fill-rule="nonzero" />
<path d="
M210.73 134.73
C210.73 134.73 210.74 134.73 210.74 134.73
C210.74 134.73 210.74 134.73 210.74 134.73
C210.92 134.73 211.09 134.86 211.24 135.10
C211.41 135.37 211.49 135.75 211.49 136.23
C211.49 136.71 211.41 137.08 211.25 137.34
C211.10 137.57 210.93 137.69 210.73 137.69
C210.73 137.69 210.73 137.69 210.72 137.69
C210.72 137.69 210.72 137.69 210.72 137.69
C210.52 137.69 210.34 137.57 210.18 137.34
C210.01 137.08 209.93 136.74 209.93 136.30
C209.93 135.81 210.02 135.42 210.20 135.13
C210.36 134.87 210.54 134.73 210.73 134.73
Z
M207.13 133.73
C206.65 133.73 206.26 133.92 205.96 134.30
C205.68 134.67 205.51 135.21 205.47 135.92
L205.46 136.05
L205.59 136.07
L206.18 136.16
L206.34 136.19
L206.34 136.02
C206.34 135.59 206.42 135.26 206.57 135.04
C206.71 134.84 206.89 134.73 207.11 134.73
C207.11 134.73 207.11 134.73 207.11 134.73
C207.12 134.73 207.12 134.73 207.12 134.73
C207.32 134.73 207.49 134.83 207.63 135.02
C207.78 135.22 207.85 135.49 207.85 135.82
C207.85 136.11 207.78 136.43 207.62 136.78
C207.46 137.13 207.11 137.64 206.58 138.30
C206.12 138.88 205.79 139.39 205.62 139.82
C205.44 140.26 205.35 140.66 205.36 141.02
L205.36 141.16
L208.73 141.16
L208.73 141.02
L208.73 140.18
L208.73 140.04
L206.52 140.04
C206.56 139.95 206.61 139.86 206.66 139.78
C206.76 139.62 206.98 139.33 207.31 138.90
C207.86 138.19 208.23 137.63 208.42 137.20
C208.62 136.77 208.72 136.31 208.72 135.84
C208.72 135.30 208.60 134.82 208.34 134.40
C208.06 133.95 207.66 133.73 207.13 133.73
Z
M210.67 133.73
C210.21 133.73 209.82 133.96 209.51 134.43
C209.21 134.89 209.06 135.50 209.06 136.27
C209.06 137.02 209.20 137.62 209.49 138.06
C209.80 138.52 210.17 138.74 210.60 138.75
C210.84 138.75 211.08 138.65 211.31 138.46
C211.39 138.39 211.47 138.30 211.55 138.21
L211.55 138.21
C211.53 138.60 211.48 138.96 211.40 139.27
C211.29 139.66 211.17 139.93 211.03 140.08
C210.90 140.21 210.76 140.28 210.61 140.28
C210.61 140.28 210.61 140.28 210.61 140.28
C210.61 140.28 210.61 140.28 210.61 140.28
C210.44 140.28 210.31 140.21 210.21 140.06
C210.10 139.89 210.02 139.63 209.98 139.28
L209.96 139.13
L209.81 139.15
L209.26 139.23
L209.13 139.25
L209.14 139.38
C209.19 139.98 209.34 140.45 209.60 140.77
C209.87 141.11 210.20 141.28 210.60 141.28
C210.95 141.28 211.27 141.14 211.55 140.87
C211.82 140.60 212.03 140.18 212.19 139.62
C212.34 139.06 212.41 138.29 212.41 137.30
C212.41 136.41 212.34 135.73 212.20 135.25
C212.06 134.76 211.85 134.38 211.58 134.12
C211.30 133.86 211.00 133.73 210.67 133.73
Z
" fill="white" fill-rule="nonzero" />
<path d="
M210.70 146.49
C210.98 146.49 211.21 146.69 211.39 147.08
C211.56 147.47 211.65 148.25 211.65 149.41
C211.65 150.56 211.57 151.33 211.39 151.73
C211.21 152.12 210.99 152.32 210.73 152.32
C210.46 152.32 210.23 152.13 210.05 151.73
C209.87 151.34 209.78 150.57 209.78 149.41
C209.78 148.26 209.87 147.49 210.05 147.09
C210.22 146.69 210.44 146.49 210.70 146.49
Z
M210.72 145.77
C210.22 145.77 209.84 146.08 209.58 146.69
C209.33 147.31 209.20 148.21 209.20 149.41
C209.20 150.74 209.34 151.68 209.62 152.23
C209.91 152.77 210.27 153.04 210.72 153.04
C211.22 153.04 211.60 152.73 211.86 152.12
C212.12 151.50 212.24 150.60 212.24 149.41
C212.24 148.08 212.09 147.12 211.78 146.52
C211.52 146.02 211.17 145.77 210.72 145.77
Z
M207.04 145.77
C206.68 145.77 206.37 145.93 206.12 146.24
C205.87 146.55 205.70 147.01 205.63 147.62
L206.20 147.77
C206.24 147.34 206.34 147.02 206.49 146.81
C206.64 146.60 206.83 146.49 207.05 146.49
C207.26 146.49 207.44 146.59 207.59 146.79
C207.74 147.00 207.81 147.26 207.81 147.60
C207.81 147.96 207.72 148.25 207.55 148.47
C207.37 148.68 207.14 148.79 206.86 148.79
L206.77 148.78
L206.70 149.55
C206.86 149.49 207.00 149.45 207.11 149.45
C207.36 149.45 207.58 149.58 207.76 149.83
C207.93 150.08 208.02 150.42 208.02 150.83
C208.02 151.27 207.92 151.63 207.73 151.91
C207.54 152.19 207.31 152.32 207.05 152.32
C206.57 152.32 206.27 151.86 206.15 150.92
L205.57 151.04
C205.61 151.65 205.77 152.14 206.05 152.50
C206.32 152.87 206.66 153.05 207.06 153.05
C207.49 153.05 207.86 152.84 208.17 152.42
C208.48 152.01 208.63 151.47 208.63 150.82
C208.63 150.51 208.59 150.23 208.52 149.98
C208.44 149.73 208.34 149.53 208.22 149.38
C208.10 149.24 207.95 149.13 207.76 149.06
C207.96 148.92 208.12 148.73 208.23 148.48
C208.34 148.23 208.40 147.94 208.40 147.62
C208.40 147.09 208.27 146.64 208.00 146.29
C207.74 145.95 207.42 145.77 207.04 145.77
Z
" fill="black" fill-rule="nonzero" />
</g>
<g  transform="translate(1.19,228.58)" >
<path d="
M88.81 2.94
C88.64 2.94 88.50 3.00 88.39 3.11
C88.27 3.23 88.21 3.37 88.21 3.53
C88.21 3.69 88.27 3.83 88.39 3.95
C88.50 4.07 88.64 4.12 88.81 4.12
C88.97 4.12 89.11 4.07 89.22 3.95
C89.34 3.83 89.39 3.69 89.39 3.53
C89.39 3.37 89.34 3.23 89.22 3.11
C89.11 3.00 88.97 2.94 88.81 2.94
Z
M123.94 3.54
C124.24 3.54 124.51 3.66 124.74 3.89
C124.98 4.12 125.16 4.46 125.29 4.89
C125.41 5.33 125.48 5.74 125.48 6.11
C125.48 6.42 125.44 6.82 125.37 7.32
C125.19 7.48 124.97 7.60 124.73 7.68
C124.48 7.77 124.27 7.81 124.09 7.81
C123.73 7.81 123.41 7.64 123.16 7.31
C122.82 6.85 122.65 6.21 122.65 5.39
C122.65 4.78 122.78 4.32 123.04 4.01
C123.29 3.70 123.60 3.54 123.94 3.54
Z
M134.58 4.39
L134.58 8.31
L131.81 8.31
L134.58 4.39
Z
M127.57 8.10
L127.57 8.98
L130.58 8.98
L130.58 8.10
Z
M93.20 6.01
C93.51 6.01 93.76 6.14 93.96 6.39
C94.23 6.74 94.36 7.22 94.36 7.84
C94.36 8.31 94.26 8.66 94.07 8.88
C93.88 9.10 93.64 9.21 93.35 9.21
C93.04 9.21 92.78 9.08 92.58 8.83
C92.32 8.49 92.18 8.02 92.18 7.40
C92.18 6.93 92.28 6.58 92.48 6.35
C92.67 6.12 92.91 6.01 93.20 6.01
Z
M140.00 3.55
C140.23 3.55 140.42 3.61 140.58 3.74
C140.80 3.93 140.98 4.24 141.12 4.69
C141.31 5.29 141.40 6.04 141.40 6.94
C141.40 8.15 141.31 9.09 141.13 9.76
C141.02 10.20 140.85 10.52 140.62 10.70
C140.40 10.89 140.18 10.99 139.97 10.99
C139.53 10.99 139.20 10.70 138.98 10.12
C138.71 9.43 138.58 8.55 138.58 7.46
C138.58 6.79 138.63 6.11 138.73 5.42
C138.83 4.73 139.02 4.22 139.30 3.90
C139.51 3.67 139.74 3.55 140.00 3.55
Z
M80.65 3.33
L80.65 3.54
L80.93 3.54
C81.12 3.54 81.30 3.59 81.47 3.68
C81.59 3.75 81.66 3.84 81.70 3.93
C81.75 4.06 81.78 4.32 81.78 4.72
L81.78 9.82
C81.78 10.29 81.73 10.59 81.64 10.71
C81.49 10.90 81.26 11.00 80.93 11.00
L80.65 11.00
L80.65 11.21
L84.04 11.21
L84.04 11.00
L83.75 11.00
C83.56 11.00 83.39 10.95 83.22 10.86
C83.09 10.79 83.01 10.71 82.97 10.61
C82.92 10.48 82.90 10.22 82.90 9.82
L82.90 7.34
L84.33 7.34
C84.60 7.34 84.79 7.38 84.93 7.45
C85.06 7.52 85.17 7.63 85.24 7.77
C85.32 7.91 85.36 8.14 85.36 8.44
L85.58 8.44
L85.58 5.78
L85.36 5.78
C85.31 6.21 85.21 6.49 85.06 6.64
C84.90 6.78 84.66 6.86 84.33 6.86
L82.90 6.86
L82.90 3.76
L84.63 3.76
C85.05 3.76 85.35 3.80 85.54 3.87
C85.74 3.95 85.91 4.08 86.04 4.25
C86.17 4.42 86.29 4.69 86.39 5.06
L86.59 5.06
L86.52 3.33
Z
M89.03 5.73
L87.43 6.38
L87.51 6.59
C87.67 6.53 87.80 6.50 87.91 6.50
C88.01 6.50 88.09 6.53 88.14 6.58
C88.20 6.62 88.25 6.71 88.27 6.83
C88.31 7.00 88.32 7.38 88.32 7.96
L88.32 10.01
C88.32 10.34 88.30 10.56 88.25 10.68
C88.19 10.79 88.12 10.88 88.03 10.93
C87.94 10.98 87.77 11.00 87.51 11.00
L87.51 11.21
L90.10 11.21
L90.10 11.00
C89.85 11.00 89.67 10.98 89.58 10.92
C89.48 10.87 89.41 10.79 89.36 10.68
C89.31 10.56 89.29 10.34 89.29 10.01
L89.29 5.73
Z
M105.03 3.16
C104.43 3.16 103.92 3.36 103.52 3.74
C103.12 4.12 102.87 4.67 102.78 5.39
L102.99 5.39
C103.14 4.95 103.37 4.62 103.67 4.39
C103.98 4.17 104.33 4.05 104.72 4.05
C105.14 4.05 105.51 4.22 105.82 4.54
C106.12 4.86 106.28 5.27 106.28 5.77
C106.28 6.42 106.00 7.15 105.44 7.94
C104.88 8.73 103.92 9.75 102.55 11.00
L102.55 11.21
L107.20 11.21
L107.75 9.70
L107.54 9.70
C107.44 9.87 107.32 10.00 107.18 10.10
C107.05 10.19 106.90 10.26 106.73 10.29
C106.56 10.32 106.26 10.33 105.85 10.33
L103.79 10.33
C104.03 10.12 104.63 9.48 105.60 8.43
C106.24 7.73 106.71 7.06 106.99 6.43
C107.18 6.03 107.27 5.63 107.27 5.23
C107.27 4.68 107.06 4.19 106.63 3.78
C106.20 3.37 105.67 3.16 105.03 3.16
Z
M118.50 3.16
L116.58 4.10
L116.67 4.28
C116.93 4.16 117.13 4.10 117.27 4.10
C117.37 4.10 117.46 4.13 117.53 4.19
C117.60 4.25 117.65 4.34 117.68 4.46
C117.71 4.62 117.73 4.99 117.73 5.57
L117.73 9.82
C117.73 10.30 117.71 10.58 117.67 10.67
C117.63 10.77 117.55 10.85 117.44 10.90
C117.33 10.96 117.09 10.99 116.72 11.00
L116.72 11.21
L119.69 11.21
L119.69 11.00
C119.33 10.99 119.09 10.96 118.98 10.90
C118.86 10.84 118.79 10.76 118.75 10.65
C118.71 10.54 118.69 10.27 118.69 9.82
L118.69 3.16
Z
M134.90 3.16
L131.24 8.39
L131.24 9.13
L134.58 9.13
L134.58 11.21
L135.54 11.21
L135.54 9.13
L136.60 9.13
L136.60 8.31
L135.54 8.31
L135.54 3.16
Z
M140.01 3.16
C139.64 3.16 139.28 3.29 138.93 3.54
C138.48 3.86 138.12 4.34 137.85 4.99
C137.58 5.64 137.44 6.42 137.44 7.32
C137.44 8.37 137.65 9.27 138.07 10.02
C138.57 10.91 139.20 11.35 139.95 11.35
C140.33 11.35 140.73 11.21 141.14 10.92
C141.54 10.63 141.88 10.17 142.14 9.53
C142.41 8.89 142.54 8.11 142.54 7.19
C142.54 5.89 142.24 4.85 141.64 4.09
C141.16 3.47 140.61 3.16 140.01 3.16
Z
M97.83 10.08
C97.65 10.08 97.50 10.15 97.37 10.27
C97.25 10.39 97.18 10.55 97.18 10.73
C97.18 10.91 97.25 11.06 97.37 11.19
C97.50 11.31 97.65 11.38 97.83 11.38
C98.01 11.38 98.16 11.31 98.29 11.19
C98.41 11.06 98.47 10.91 98.47 10.73
C98.47 10.55 98.41 10.40 98.29 10.27
C98.16 10.15 98.01 10.08 97.83 10.08
Z
M124.07 3.16
C123.30 3.16 122.68 3.49 122.20 4.15
C121.81 4.69 121.61 5.30 121.61 5.99
C121.61 6.70 121.81 7.27 122.20 7.70
C122.60 8.13 123.07 8.34 123.63 8.34
C124.12 8.34 124.67 8.14 125.28 7.75
L125.28 7.75
C125.12 8.43 124.84 9.05 124.43 9.62
C124.03 10.19 123.61 10.58 123.17 10.81
C122.74 11.04 122.27 11.15 121.77 11.16
L121.77 11.38
L122.10 11.38
C122.84 11.38 123.52 11.17 124.14 10.76
C124.91 10.26 125.51 9.63 125.94 8.87
C126.37 8.11 126.58 7.30 126.58 6.42
C126.58 5.45 126.30 4.63 125.73 3.97
C125.27 3.43 124.72 3.16 124.07 3.16
Z
M92.13 11.21
C92.60 11.28 93.27 11.32 94.14 11.35
C94.74 11.36 95.14 11.41 95.34 11.50
C95.53 11.58 95.63 11.73 95.63 11.93
C95.63 12.21 95.47 12.47 95.14 12.72
C94.80 12.96 94.29 13.09 93.59 13.09
C92.86 13.09 92.30 12.97 91.91 12.72
C91.69 12.59 91.57 12.42 91.57 12.24
C91.57 12.09 91.62 11.94 91.71 11.77
C91.81 11.59 91.94 11.41 92.13 11.21
Z
M114.92 2.94
C113.97 3.37 113.19 4.08 112.60 5.07
C112.01 6.06 111.71 7.16 111.71 8.36
C111.71 9.18 111.86 9.97 112.16 10.74
C112.47 11.50 112.90 12.16 113.46 12.72
C113.85 13.12 114.34 13.47 114.92 13.76
L114.92 13.54
C114.53 13.27 114.21 12.99 113.97 12.69
C113.73 12.39 113.53 12.08 113.39 11.76
C113.25 11.43 113.13 11.00 113.02 10.47
C112.90 9.79 112.83 9.04 112.83 8.21
C112.83 7.44 112.91 6.71 113.06 6.01
C113.21 5.31 113.44 4.73 113.75 4.27
C114.05 3.81 114.44 3.45 114.92 3.19
L114.92 2.94
Z
M143.23 2.94
L143.23 3.19
C143.62 3.46 143.94 3.74 144.18 4.04
C144.42 4.34 144.62 4.65 144.76 4.97
C144.91 5.29 145.03 5.72 145.13 6.26
C145.25 6.94 145.32 7.69 145.32 8.52
C145.32 9.28 145.24 10.02 145.09 10.72
C144.94 11.43 144.72 12.00 144.41 12.46
C144.10 12.92 143.71 13.28 143.23 13.54
L143.23 13.76
C144.19 13.33 144.96 12.63 145.55 11.63
C146.14 10.64 146.44 9.55 146.44 8.35
C146.44 7.52 146.29 6.73 145.99 5.96
C145.68 5.20 145.26 4.54 144.70 3.97
C144.31 3.58 143.82 3.23 143.23 2.94
Z
M93.30 5.73
C92.68 5.73 92.17 5.92 91.77 6.30
C91.37 6.68 91.17 7.13 91.17 7.66
C91.17 8.00 91.26 8.32 91.43 8.60
C91.61 8.89 91.86 9.11 92.18 9.27
C91.79 9.60 91.53 9.86 91.42 10.04
C91.31 10.23 91.25 10.39 91.25 10.52
C91.25 10.64 91.30 10.75 91.38 10.84
C91.46 10.94 91.61 11.05 91.81 11.17
C91.44 11.55 91.24 11.76 91.21 11.79
C91.01 12.05 90.87 12.25 90.81 12.39
C90.76 12.49 90.74 12.58 90.74 12.67
C90.74 12.88 90.89 13.08 91.18 13.28
C91.69 13.61 92.33 13.78 93.07 13.78
C94.05 13.78 94.84 13.50 95.44 12.93
C95.85 12.55 96.06 12.14 96.06 11.70
C96.06 11.38 95.95 11.12 95.74 10.90
C95.52 10.68 95.23 10.55 94.87 10.50
C94.63 10.46 94.12 10.44 93.32 10.42
C92.88 10.40 92.61 10.39 92.50 10.38
C92.32 10.35 92.19 10.30 92.13 10.24
C92.07 10.18 92.03 10.12 92.03 10.05
C92.03 9.97 92.06 9.88 92.12 9.77
C92.18 9.66 92.30 9.53 92.47 9.38
C92.74 9.46 93.01 9.50 93.28 9.50
C93.92 9.50 94.43 9.32 94.81 8.97
C95.19 8.62 95.38 8.19 95.38 7.69
C95.38 7.26 95.27 6.90 95.05 6.62
L95.74 6.62
C95.91 6.62 96.01 6.62 96.04 6.61
C96.07 6.60 96.09 6.58 96.10 6.56
C96.12 6.52 96.13 6.45 96.13 6.35
C96.13 6.26 96.12 6.20 96.09 6.17
C96.08 6.14 96.06 6.13 96.03 6.12
C96.01 6.11 95.91 6.10 95.74 6.10
L94.62 6.10
C94.24 5.85 93.80 5.73 93.30 5.73
Z
" fill="black" fill-rule="nonzero" />
</g>
</g>
</svg>
