<?xml version="1.0" encoding="utf-8" standalone="no"?>
<!DOCTYPE svg PUBLIC "-//W3C//DTD SVG 1.0//EN" "http://www.w3.org/TR/SVG/DTD/svg11.dtd" >
<svg version="1.1" baseProfile="full"  width="319.13385" height="319.13385" viewBox="0 0 229.77638 229.77638" preserveAspectRatio="xMidYMid" xmlns="http://www.w3.org/2000/svg" >

<g lengthAdjust="spacingAndGlyphs" xml:space='preserve' >
<g  transform="translate(1.19,1.19)" >
<path d="
M0.0 0.0
L0.0 227.39
L227.39 227.39
L227.39 0.0
Z
" fill="none" fill-rule="nonzero" />
<line x1="6.54" y1="6.54" x2="6.54" y2="220.84" fill="none" stroke="black" stroke-width="0.87px" stroke-linecap="square" />
<line x1="18.45" y1="6.54" x2="18.45" y2="167.27" fill="none" stroke="black" stroke-width="0.25px" stroke-linecap="butt" />
<line x1="18.45" y1="179.17" x2="18.45" y2="220.84" fill="none" stroke="black" stroke-width="0.25px" stroke-linecap="butt" />
<line x1="30.35" y1="6.54" x2="30.35" y2="220.84" fill="none" stroke="black" stroke-width="0.25px" stroke-linecap="butt" />
<line x1="42.26" y1="6.54" x2="42.26" y2="220.84" fill="none" stroke="black" stroke-width="0.25px" stroke-linecap="butt" />
<line x1="54.17" y1="6.54" x2="54.17" y2="220.84" fill="none" stroke="black" stroke-width="0.25px" stroke-linecap="butt" />
<line x1="66.07" y1="6.54" x2="66.07" y2="220.84" fill="none" stroke="black" stroke-width="0.25px" stroke-linecap="butt" />
<line x1="77.98" y1="6.54" x2="77.98" y2="220.84" fill="none" stroke="black" stroke-width="0.25px" stroke-linecap="butt" />
<line x1="89.88" y1="6.54" x2="89.88" y2="220.84" fill="none" stroke="black" stroke-width="0.25px" stroke-linecap="butt" />
<line x1="101.79" y1="6.54" x2="101.79" y2="220.84" fill="none" stroke="black" stroke-width="0.25px" stroke-linecap="butt" />
<line x1="113.69" y1="6.54" x2="113.69" y2="220.84" fill="none" stroke="black" stroke-width="0.25px" stroke-linecap="butt" />
<line x1="125.60" y1="6.54" x2="125.60" y2="220.84" fill="none" stroke="black" stroke-width="0.25px" stroke-linecap="butt" />
<line x1="137.50" y1="6.54" x2="137.50" y2="220.84" fill="none" stroke="black" stroke-width="0.25px" stroke-linecap="butt" />
<line x1="149.41" y1="6.54" x2="149.41" y2="220.84" fill="none" stroke="black" stroke-width="0.25px" stroke-linecap="butt" />
<line x1="161.31" y1="6.54" x2="161.31" y2="220.84" fill="none" stroke="black" stroke-width="0.25px" stroke-linecap="butt" />
<line x1="173.22" y1="6.54" x2="173.22" y2="220.84" fill="none" stroke="black" stroke-width="0.25px" stroke-linecap="butt" />
<line x1="185.13" y1="6.54" x2="185.13" y2="220.84" fill="none" stroke="black" stroke-width="0.25px" stroke-linecap="butt" />
<line x1="197.03" y1="6.54" x2="197.03" y2="220.84" fill="none" stroke="black" stroke-width="0.25px" stroke-linecap="butt" />
<line x1="208.94" y1="6.54" x2="208.94" y2="220.84" fill="none" stroke="black" stroke-width="0.25px" stroke-linecap="butt" />
<line x1="220.84" y1="6.54" x2="220.84" y2="220.84" fill="none" stroke="black" stroke-width="0.87px" stroke-linecap="square" />
<line x1="6.54" y1="6.54" x2="220.84" y2="6.54" fill="none" stroke="black" stroke-width="0.87px" stroke-linecap="square" />
<line x1="6.54" y1="18.45" x2="220.84" y2="18.45" fill="none" stroke="black" stroke-width="0.25px" stroke-linecap="butt" />
<line x1="6.54" y1="30.35" x2="220.84" y2="30.35" fill="none" stroke="black" stroke-width="0.25px" stroke-linecap="butt" />
<line x1="6.54" y1="42.26" x2="220.84" y2="42.26" fill="none" stroke="black" stroke-width="0.25px" stroke-linecap="butt" />
<line x1="6.54" y1="54.17" x2="220.84" y2="54.17" fill="none" stroke="black" stroke-width="0.25px" stroke-linecap="butt" />
<line x1="6.54" y1="66.07" x2="220.84" y2="66.07" fill="none" stroke="black" stroke-width="0.25px" stroke-linecap="butt" />
<line x1="6.54" y1="77.98" x2="220.84" y2="77.98" fill="none" stroke="black" stroke-width="0.25px" stroke-linecap="butt" />
<line x1="6.54" y1="89.88" x2="220.84" y2="89.88" fill="none" stroke="black" stroke-width="0.25px" stroke-linecap="butt" />
<line x1="6.54" y1="101.79" x2="220.84" y2="101.79" fill="none" stroke="black" stroke-width="0.25px" stroke-linecap="butt" />
<line x1="6.54" y1="113.69" x2="220.84" y2="113.69" fill="none" stroke="black" stroke-width="0.25px" stroke-linecap="butt" />
<line x1="6.54" y1="125.60" x2="220.84" y2="125.60" fill="none" stroke="black" stroke-width="0.25px" stroke-linecap="butt" />
<line x1="6.54" y1="137.50" x2="220.84" y2="137.50" fill="none" stroke="black" stroke-width="0.25px" stroke-linecap="butt" />
<line x1="6.54" y1="149.41" x2="220.84" y2="149.41" fill="none" stroke="black" stroke-width="0.25px" stroke-linecap="butt" />
<line x1="6.54" y1="161.31" x2="220.84" y2="161.31" fill="none" stroke="black" stroke-width="0.25px" stroke-linecap="butt" />
<line x1="6.54" y1="173.22" x2="12.50" y2="173.22" fill="none" stroke="black" stroke-width="0.25px" stroke-linecap="butt" />
<line x1="24.40" y1="173.22" x2="220.84" y2="173.22" fill="none" stroke="black" stroke-width="0.25px" stroke-linecap="butt" />
<line x1="6.54" y1="185.13" x2="220.84" y2="185.13" fill="none" stroke="black" stroke-width="0.25px" stroke-linecap="butt" />
<line x1="6.54" y1="197.03" x2="220.84" y2="197.03" fill="none" stroke="black" stroke-width="0.25px" stroke-linecap="butt" />
<line x1="6.54" y1="208.94" x2="220.84" y2="208.94" fill="none" stroke="black" stroke-width="0.25px" stroke-linecap="butt" />
<line x1="6.54" y1="220.84" x2="220.84" y2="220.84" fill="none" stroke="black" stroke-width="0.87px" stroke-linecap="square" />
<circle cx="30.35" cy="54.17" r="5.98" fill="black"/>
<circle cx="30.35" cy="77.98" r="5.85" fill="white"/>
<circle cx="30.35" cy="77.98" r="5.85" fill="none" stroke="black" stroke-width="0.25px"/>
<circle cx="30.35" cy="89.88" r="5.85" fill="white"/>
<circle cx="30.35" cy="89.88" r="5.85" fill="none" stroke="black" stroke-width="0.25px"/>
<circle cx="30.35" cy="125.60" r="5.85" fill="white"/>
<circle cx="30.35" cy="125.60" r="5.85" fill="none" stroke="black" stroke-width="0.25px"/>
<circle cx="30.35" cy="161.31" r="5.85" fill="white"/>
<circle cx="30.35" cy="161.31" r="5.85" fill="none" stroke="black" stroke-width="0.25px"/>
<circle cx="30.35" cy="173.22" r="5.85" fill="white"/>
<circle cx="30.35" cy="173.22" r="5.85" fill="none" stroke="black" stroke-width="0.25px"/>
<circle cx="30.35" cy="185.13" r="5.98" fill="black"/>
<circle cx="42.26" cy="30.35" r="5.85" fill="white"/>
<circle cx="42.26" cy="30.35" r="5.85" fill="none" stroke="black" stroke-width="0.25px"/>
<circle cx="42.26" cy="42.26" r="1.27" fill="black"/>
<circle cx="42.26" cy="77.98" r="5.85" fill="white"/>
<circle cx="42.26" cy="77.98" r="5.85" fill="none" stroke="black" stroke-width="0.25px"/>
<circle cx="42.26" cy="89.88" r="5.98" fill="black"/>
<circle cx="42.26" cy="101.79" r="5.85" fill="white"/>
<circle cx="42.26" cy="101.79" r="5.85" fill="none" stroke="black" stroke-width="0.25px"/>
<circle cx="42.26" cy="113.69" r="5.85" fill="white"/>
<circle cx="42.26" cy="113.69" r="5.85" fill="none" stroke="black" stroke-width="0.25px"/>
<circle cx="42.26" cy="149.41" r="5.85" fill="white"/>
<circle cx="42.26" cy="149.41" r="5.85" fill="none" stroke="black" stroke-width="0.25px"/>
<circle cx="42.26" cy="161.31" r="5.98" fill="black"/>
<circle cx="42.26" cy="185.13" r="5.98" fill="black"/>
<circle cx="54.17" cy="66.07" r="5.98" fill="black"/>
<circle cx="54.17" cy="77.98" r="5.98" fill="black"/>
<circle cx="54.17" cy="89.88" r="5.98" fill="black"/>
<circle cx="54.17" cy="101.79" r="5.98" fill="black"/>
<circle cx="54.17" cy="161.31" r="5.98" fill="black"/>
<circle cx="66.07" cy="125.60" r="5.98" fill="black"/>
<circle cx="66.07" cy="197.03" r="5.98" fill="black"/>
<circle cx="77.98" cy="30.35" r="5.85" fill="white"/>
<circle cx="77.98" cy="30.35" r="5.85" fill="none" stroke="black" stroke-width="0.25px"/>
<circle cx="89.88" cy="185.13" r="5.85" fill="white"/>
<circle cx="89.88" cy="185.13" r="5.85" fill="none" stroke="black" stroke-width="0.25px"/>
<circle cx="101.79" cy="185.13" r="5.85" fill="white"/>
<circle cx="101.79" cy="185.13" r="5.85" fill="none" stroke="black" stroke-width="0.25px"/>
<circle cx="101.79" cy="197.03" r="5.98" fill="black"/>
<circle cx="113.69" cy="30.35" r="5.85" fill="white"/>
<circle cx="113.69" cy="30.35" r="5.85" fill="none" stroke="black" stroke-width="0.25px"/>
<circle cx="113.69" cy="42.26" r="1.27" fill="black"/>
<circle cx="113.69" cy="54.17" r="5.85" fill="white"/>
<circle cx="113.69" cy="54.17" r="5.85" fill="none" stroke="black" stroke-width="0.25px"/>
<circle cx="113.69" cy="77.98" r="5.98" fill="black"/>
<circle cx="113.69" cy="113.69" r="1.27" fill="black"/>
<circle cx="113.69" cy="161.31" r="5.98" fill="black"/>
<circle cx="113.69" cy="185.13" r="1.27" fill="black"/>
<circle cx="113.69" cy="208.94" r="5.98" fill="black"/>
<circle cx="125.60" cy="197.03" r="5.85" fill="white"/>
<circle cx="125.60" cy="197.03" r="5.85" fill="none" stroke="black" stroke-width="0.25px"/>
<circle cx="125.60" cy="208.94" r="5.85" fill="white"/>
<circle cx="125.60" cy="208.94" r="5.85" fill="none" stroke="black" stroke-width="0.25px"/>
<circle cx="137.50" cy="30.35" r="5.98" fill="black"/>
<circle cx="137.50" cy="185.13" r="5.85" fill="white"/>
<circle cx="137.50" cy="185.13" r="5.85" fill="none" stroke="black" stroke-width="0.25px"/>
<circle cx="149.41" cy="149.41" r="5.98" fill="black"/>
<circle cx="149.41" cy="173.22" r="5.85" fill="white"/>
<circle cx="149.41" cy="173.22" r="5.85" fill="none" stroke="black" stroke-width="0.25px"/>
<circle cx="149.41" cy="197.03" r="5.98" fill="black"/>
<circle cx="173.22" cy="89.88" r="5.98" fill="black"/>
<circle cx="173.22" cy="113.69" r="5.98" fill="black"/>
<circle cx="173.22" cy="185.13" r="5.85" fill="white"/>
<circle cx="173.22" cy="185.13" r="5.85" fill="none" stroke="black" stroke-width="0.25px"/>
<circle cx="185.13" cy="30.35" r="5.98" fill="black"/>
<circle cx="185.13" cy="42.26" r="5.98" fill="black"/>
<circle cx="185.13" cy="113.69" r="1.27" fill="black"/>
<circle cx="185.13" cy="161.31" r="5.85" fill="white"/>
<circle cx="185.13" cy="161.31" r="5.85" fill="none" stroke="black" stroke-width="0.25px"/>
<circle cx="185.13" cy="185.13" r="1.27" fill="black"/>
<circle cx="185.13" cy="197.03" r="5.85" fill="white"/>
<circle cx="185.13" cy="197.03" r="5.85" fill="none" stroke="black" stroke-width="0.25px"/>
<circle cx="197.03" cy="89.88" r="5.98" fill="black"/>
<circle cx="197.03" cy="113.69" r="5.85" fill="white"/>
<circle cx="197.03" cy="113.69" r="5.85" fill="none" stroke="black" stroke-width="0.25px"/>
<circle cx="197.03" cy="125.60" r="5.85" fill="white"/>
<circle cx="197.03" cy="125.60" r="5.85" fill="none" stroke="black" stroke-width="0.25px"/>
<circle cx="197.03" cy="137.50" r="5.85" fill="white"/>
<circle cx="197.03" cy="137.50" r="5.85" fill="none" stroke="black" stroke-width="0.25px"/>
<circle cx="197.03" cy="149.41" r="5.85" fill="white"/>
<circle cx="197.03" cy="149.41" r="5.85" fill="none" stroke="black" stroke-width="0.25px"/>
<circle cx="197.03" cy="173.22" r="5.98" fill="black"/>
<circle cx="208.94" cy="113.69" r="5.98" fill="black"/>
<circle cx="208.94" cy="125.60" r="5.98" fill="black"/>
<circle cx="208.94" cy="137.50" r="5.98" fill="black"/>
<circle cx="208.94" cy="149.41" r="5.85" fill="white"/>
<circle cx="208.94" cy="149.41" r="5.85" fill="none" stroke="black" stroke-width="0.25px"/>
<path d="
M18.37 171.18
L19.42 174.02
L17.33 174.02
L18.37 171.18
Z
M17.57 169.39
L14.58 177.05
L16.22 177.05
L16.85 175.31
L19.92 175.31
L20.59 177.05
L22.27 177.05
L19.20 169.39
Z
" fill="black" fill-rule="nonzero" />
<path d="
M30.36 77.65
C30.68 77.65 30.94 77.78 31.16 78.06
C31.38 78.34 31.49 78.72 31.49 79.22
C31.49 79.73 31.38 80.13 31.16 80.42
C30.94 80.71 30.69 80.86 30.41 80.86
C30.10 80.86 29.82 80.70 29.58 80.40
C29.34 80.09 29.22 79.68 29.22 79.17
C29.22 78.70 29.33 78.33 29.56 78.06
C29.79 77.78 30.06 77.65 30.36 77.65
Z
M30.47 74.38
C29.86 74.38 29.37 74.67 28.98 75.25
C28.59 75.83 28.40 76.80 28.40 78.16
C28.40 79.38 28.59 80.26 28.97 80.78
C29.34 81.31 29.82 81.57 30.41 81.57
C30.73 81.57 31.03 81.48 31.30 81.30
C31.56 81.11 31.78 80.83 31.96 80.45
C32.13 80.07 32.21 79.64 32.21 79.17
C32.21 78.47 32.04 77.92 31.70 77.51
C31.36 77.09 30.96 76.88 30.50 76.88
C30.23 76.88 29.97 76.96 29.72 77.12
C29.47 77.28 29.27 77.51 29.11 77.82
C29.11 76.96 29.22 76.30 29.43 75.86
C29.68 75.35 30.01 75.09 30.43 75.09
C30.69 75.09 30.92 75.21 31.11 75.43
C31.24 75.58 31.34 75.84 31.41 76.20
L32.11 76.14
C32.05 75.57 31.87 75.13 31.57 74.83
C31.28 74.53 30.91 74.38 30.47 74.38
Z
" fill="black" fill-rule="nonzero" />
<path d="
M30.70 171.09
L30.70 174.26
L28.90 174.26
L30.70 171.09
Z
M30.84 169.70
L28.20 174.26
L28.20 175.05
L30.70 175.05
L30.70 176.74
L31.42 176.74
L31.42 175.05
L32.20 175.05
L32.20 174.26
L31.42 174.26
L31.42 169.70
Z
" fill="black" fill-rule="nonzero" />
<path d="
M29.57 183.99
L29.57 183.99
L29.57 183.99
C29.57 183.99 29.57 183.99 29.57 183.99
Z
M29.00 181.45
L28.98 181.57
L28.42 185.19
L28.40 185.33
L28.54 185.35
L29.20 185.46
L29.31 185.47
L29.35 185.38
C29.45 185.19 29.58 185.04 29.75 184.93
C29.91 184.83 30.09 184.78 30.27 184.78
C30.27 184.78 30.27 184.78 30.27 184.78
C30.27 184.78 30.27 184.78 30.28 184.78
C30.59 184.78 30.84 184.90 31.05 185.14
C31.26 185.39 31.37 185.75 31.37 186.22
C31.37 186.72 31.26 187.11 31.04 187.39
C30.82 187.67 30.57 187.80 30.28 187.80
C30.28 187.80 30.28 187.80 30.28 187.80
C30.28 187.80 30.28 187.80 30.28 187.80
C30.05 187.80 29.85 187.71 29.67 187.52
C29.49 187.32 29.37 187.02 29.32 186.60
L29.30 186.46
L29.16 186.47
L28.42 186.55
L28.28 186.57
L28.29 186.70
C28.34 187.35 28.55 187.86 28.92 188.23
C29.29 188.61 29.75 188.80 30.29 188.80
C30.94 188.80 31.45 188.53 31.84 188.00
C32.21 187.49 32.40 186.87 32.40 186.15
C32.40 185.42 32.21 184.83 31.83 184.39
C31.45 183.95 30.99 183.73 30.46 183.73
C30.15 183.73 29.86 183.82 29.57 183.99
L29.57 183.99
L29.81 182.56
L32.13 182.56
L32.13 182.42
L32.13 181.60
L32.13 181.45
Z
" fill="white" fill-rule="nonzero" />
<path d="
M42.23 110.81
C42.49 110.81 42.71 110.92 42.90 111.12
C43.08 111.33 43.18 111.60 43.18 111.93
C43.18 112.25 43.09 112.51 42.90 112.72
C42.72 112.92 42.50 113.02 42.24 113.02
C41.98 113.02 41.75 112.92 41.57 112.71
C41.39 112.51 41.30 112.23 41.30 111.89
C41.30 111.58 41.39 111.32 41.57 111.12
C41.76 110.91 41.98 110.81 42.23 110.81
Z
M42.22 113.72
C42.55 113.72 42.83 113.86 43.06 114.12
C43.29 114.38 43.41 114.73 43.41 115.16
C43.41 115.59 43.30 115.94 43.07 116.19
C42.84 116.45 42.57 116.57 42.24 116.57
C41.92 116.57 41.64 116.44 41.41 116.18
C41.18 115.91 41.06 115.57 41.06 115.13
C41.06 114.72 41.17 114.38 41.40 114.12
C41.62 113.86 41.90 113.72 42.22 113.72
Z
M42.23 110.10
C41.75 110.10 41.35 110.27 41.04 110.60
C40.72 110.94 40.57 111.38 40.57 111.91
C40.57 112.26 40.64 112.56 40.78 112.80
C40.93 113.04 41.14 113.22 41.43 113.35
C41.09 113.46 40.82 113.67 40.63 113.97
C40.43 114.28 40.34 114.66 40.34 115.13
C40.34 115.78 40.52 116.30 40.88 116.69
C41.24 117.09 41.70 117.29 42.24 117.29
C42.78 117.29 43.23 117.09 43.59 116.69
C43.96 116.30 44.14 115.79 44.14 115.16
C44.14 114.70 44.04 114.32 43.86 114.02
C43.67 113.71 43.40 113.49 43.05 113.35
C43.34 113.22 43.55 113.04 43.69 112.80
C43.83 112.56 43.90 112.28 43.90 111.94
C43.90 111.40 43.74 110.96 43.42 110.61
C43.11 110.27 42.71 110.10 42.23 110.10
Z
" fill="black" fill-rule="nonzero" />
<path d="
M42.27 145.88
C41.73 145.88 41.30 146.05 40.97 146.39
C40.64 146.73 40.44 147.24 40.39 147.91
L41.12 148.00
C41.12 147.55 41.23 147.20 41.44 146.96
C41.65 146.71 41.92 146.59 42.25 146.59
C42.56 146.59 42.82 146.70 43.03 146.93
C43.23 147.16 43.34 147.45 43.34 147.81
C43.34 148.12 43.24 148.45 43.03 148.81
C42.83 149.17 42.39 149.68 41.73 150.34
C41.17 150.91 40.78 151.40 40.56 151.81
C40.35 152.23 40.25 152.61 40.26 152.94
L44.07 152.94
L44.07 152.11
L41.24 152.11
C41.32 151.95 41.42 151.80 41.54 151.64
C41.67 151.48 41.94 151.19 42.36 150.76
C43.02 150.07 43.47 149.53 43.71 149.11
C43.95 148.70 44.06 148.27 44.06 147.83
C44.06 147.32 43.91 146.87 43.61 146.47
C43.31 146.07 42.86 145.88 42.27 145.88
Z
" fill="black" fill-rule="nonzero" />
<path d="
M42.45 157.64
L42.42 157.73
C42.30 158.02 42.10 158.32 41.81 158.63
C41.52 158.94 41.19 159.21 40.81 159.43
L40.74 159.47
L40.74 159.55
L40.74 160.38
L40.74 160.60
L40.94 160.51
C41.18 160.41 41.44 160.25 41.72 160.04
C41.89 159.93 42.03 159.81 42.16 159.69
L42.16 159.69
L42.16 164.85
L42.16 164.99
L43.15 164.99
L43.15 164.85
L43.15 157.78
L43.15 157.64
Z
" fill="white" fill-rule="nonzero" />
<path d="
M52.15 98.17
L52.15 98.31
L52.15 99.14
L52.15 99.29
L54.85 99.29
C54.54 99.75 54.25 100.29 53.98 100.90
C53.67 101.62 53.42 102.38 53.24 103.17
C53.06 103.96 52.97 104.66 52.96 105.26
L52.96 105.40
L53.83 105.40
L53.96 105.40
L53.97 105.27
C54.03 104.14 54.27 103.01 54.69 101.86
C55.11 100.71 55.59 99.78 56.14 99.07
L56.17 99.03
L56.17 98.99
L56.17 98.31
L56.17 98.17
Z
" fill="white" fill-rule="nonzero" />
<path d="
M54.06 157.58
C53.58 157.58 53.17 157.75 52.83 158.08
C52.49 158.41 52.28 158.89 52.18 159.52
L52.16 159.65
L52.29 159.68
L53.00 159.84
L53.15 159.87
L53.17 159.71
C53.22 159.32 53.32 159.03 53.49 158.84
C53.65 158.66 53.84 158.57 54.07 158.57
C54.07 158.57 54.07 158.57 54.07 158.57
C54.08 158.57 54.08 158.57 54.08 158.57
C54.30 158.57 54.48 158.66 54.64 158.83
C54.79 159.00 54.87 159.23 54.87 159.52
C54.87 159.84 54.78 160.10 54.59 160.28
C54.40 160.47 54.15 160.56 53.84 160.56
L53.84 160.56
L53.74 160.55
L53.60 160.54
L53.59 160.68
L53.51 161.44
L53.48 161.66
L53.69 161.59
C53.87 161.53 54.03 161.50 54.15 161.50
C54.15 161.50 54.15 161.50 54.15 161.50
C54.15 161.50 54.15 161.50 54.15 161.50
C54.42 161.50 54.65 161.61 54.84 161.83
C55.04 162.05 55.13 162.35 55.13 162.72
C55.13 163.12 55.03 163.44 54.81 163.69
C54.60 163.93 54.36 164.05 54.08 164.05
C54.08 164.05 54.08 164.05 54.08 164.05
C54.08 164.05 54.08 164.05 54.08 164.05
C53.82 164.05 53.62 163.96 53.46 163.76
C53.29 163.55 53.17 163.23 53.10 162.79
L53.08 162.65
L52.94 162.67
L52.23 162.79
L52.10 162.81
L52.11 162.94
C52.16 163.58 52.37 164.09 52.73 164.47
C53.10 164.86 53.56 165.05 54.09 165.05
C54.66 165.05 55.15 164.83 55.56 164.39
C55.97 163.95 56.17 163.39 56.17 162.71
C56.17 162.39 56.12 162.09 56.02 161.83
C55.92 161.57 55.79 161.35 55.62 161.19
C55.52 161.09 55.40 161.00 55.26 160.94
L55.26 160.94
C55.42 160.81 55.55 160.65 55.66 160.46
C55.81 160.19 55.89 159.89 55.89 159.54
C55.89 158.98 55.71 158.51 55.36 158.14
C55.00 157.77 54.57 157.58 54.06 157.58
Z
" fill="white" fill-rule="nonzero" />
<path d="
M66.05 122.86
C66.05 122.86 66.05 122.86 66.05 122.86
C66.05 122.86 66.05 122.86 66.05 122.86
C66.30 122.86 66.52 122.99 66.71 123.24
C66.92 123.50 67.02 123.87 67.02 124.34
C67.02 124.81 66.92 125.17 66.72 125.42
C66.53 125.66 66.31 125.78 66.04 125.78
C66.04 125.78 66.04 125.78 66.04 125.78
C66.04 125.78 66.04 125.78 66.03 125.78
C65.76 125.78 65.53 125.66 65.33 125.42
C65.12 125.17 65.02 124.84 65.02 124.41
C65.02 123.93 65.13 123.55 65.35 123.27
C65.56 123.00 65.79 122.86 66.05 122.86
Z
M65.97 121.86
C65.42 121.86 64.95 122.09 64.57 122.55
C64.20 123.00 64.01 123.61 64.01 124.38
C64.01 125.13 64.19 125.72 64.55 126.16
C64.92 126.60 65.36 126.83 65.88 126.83
C66.17 126.83 66.45 126.74 66.72 126.55
C66.86 126.46 66.98 126.35 67.09 126.23
L67.09 126.23
C67.07 126.64 67.01 127.01 66.90 127.33
C66.77 127.72 66.63 127.99 66.45 128.13
C66.29 128.27 66.10 128.34 65.90 128.34
C65.90 128.34 65.90 128.34 65.90 128.34
C65.90 128.34 65.90 128.34 65.89 128.34
C65.67 128.34 65.50 128.26 65.37 128.11
C65.22 127.94 65.13 127.69 65.08 127.35
L65.06 127.21
L64.92 127.23
L64.24 127.30
L64.10 127.32
L64.12 127.46
C64.18 128.06 64.37 128.52 64.68 128.84
C65.01 129.17 65.41 129.33 65.88 129.33
C66.30 129.33 66.68 129.20 67.02 128.93
C67.35 128.67 67.62 128.26 67.81 127.70
C68.00 127.15 68.09 126.38 68.09 125.40
C68.09 124.51 68.00 123.83 67.83 123.36
C67.65 122.87 67.39 122.50 67.06 122.25
C66.72 121.99 66.36 121.86 65.97 121.86
Z
" fill="white" fill-rule="nonzero" />
<path d="
M88.30 181.55
C88.20 181.86 88.03 182.18 87.79 182.51
C87.55 182.83 87.27 183.11 86.95 183.34
L86.95 184.18
C87.14 184.08 87.34 183.93 87.57 183.72
C87.79 183.52 87.97 183.32 88.10 183.13
L88.10 188.70
L88.67 188.70
L88.67 181.55
Z
M91.71 181.55
C91.27 181.55 90.92 181.72 90.65 182.07
C90.38 182.41 90.23 182.93 90.18 183.61
L90.78 183.70
C90.78 183.24 90.86 182.89 91.03 182.64
C91.20 182.40 91.42 182.27 91.69 182.27
C91.94 182.27 92.15 182.39 92.32 182.62
C92.49 182.84 92.57 183.14 92.57 183.50
C92.57 183.82 92.49 184.16 92.32 184.52
C92.16 184.89 91.81 185.40 91.27 186.07
C90.81 186.64 90.50 187.14 90.32 187.56
C90.15 187.98 90.07 188.36 90.08 188.70
L93.17 188.70
L93.17 187.86
L90.87 187.86
C90.93 187.70 91.02 187.54 91.12 187.38
C91.22 187.23 91.44 186.93 91.78 186.49
C92.31 185.80 92.68 185.24 92.87 184.83
C93.06 184.41 93.16 183.98 93.16 183.52
C93.16 183.01 93.04 182.55 92.79 182.15
C92.55 181.75 92.19 181.55 91.71 181.55
Z
" fill="black" fill-rule="nonzero" />
<path d="
M103.55 182.21
C103.83 182.21 104.06 182.41 104.24 182.80
C104.42 183.19 104.50 183.97 104.50 185.13
C104.50 186.27 104.42 187.05 104.24 187.45
C104.06 187.84 103.84 188.04 103.58 188.04
C103.31 188.04 103.08 187.85 102.90 187.45
C102.72 187.06 102.63 186.28 102.63 185.13
C102.63 183.98 102.72 183.21 102.90 182.81
C103.07 182.41 103.29 182.21 103.55 182.21
Z
M100.21 181.49
C100.11 181.80 99.94 182.12 99.69 182.45
C99.45 182.77 99.17 183.05 98.86 183.28
L98.86 184.12
C99.04 184.02 99.25 183.87 99.47 183.66
C99.69 183.46 99.87 183.26 100.00 183.07
L100.00 188.64
L100.58 188.64
L100.58 181.49
Z
M103.58 181.49
C103.07 181.49 102.69 181.80 102.43 182.41
C102.18 183.03 102.05 183.93 102.05 185.13
C102.05 186.46 102.19 187.40 102.47 187.95
C102.76 188.49 103.12 188.76 103.57 188.76
C104.07 188.76 104.45 188.45 104.71 187.84
C104.97 187.22 105.09 186.32 105.09 185.13
C105.09 183.80 104.94 182.84 104.63 182.24
C104.37 181.74 104.02 181.49 103.58 181.49
Z
" fill="black" fill-rule="nonzero" />
<path d="
M114.90 76.86
L114.90 76.86
L114.90 76.86
C114.90 76.86 114.90 76.86 114.90 76.86
Z
M112.01 74.20
L111.98 74.30
C111.88 74.59 111.72 74.90 111.49 75.21
C111.25 75.53 110.98 75.79 110.68 76.01
L110.62 76.05
L110.62 76.13
L110.62 76.97
L110.62 77.21
L110.83 77.10
C111.03 76.99 111.24 76.83 111.47 76.62
C111.58 76.52 111.68 76.42 111.77 76.32
L111.77 76.32
L111.77 81.49
L111.77 81.63
L112.63 81.63
L112.63 81.49
L112.63 74.34
L112.63 74.20
Z
M114.38 74.32
L114.37 74.45
L113.91 78.11
L113.90 78.24
L114.03 78.26
L114.57 78.37
L114.68 78.39
L114.73 78.28
C114.80 78.09 114.91 77.94 115.04 77.83
C115.17 77.73 115.30 77.68 115.44 77.68
C115.44 77.68 115.44 77.68 115.44 77.68
C115.44 77.68 115.44 77.68 115.45 77.68
C115.68 77.68 115.88 77.80 116.04 78.04
C116.22 78.30 116.30 78.67 116.30 79.14
C116.30 79.66 116.21 80.06 116.03 80.35
C115.86 80.62 115.67 80.75 115.45 80.75
C115.45 80.75 115.45 80.75 115.45 80.75
C115.44 80.75 115.44 80.75 115.44 80.75
C115.27 80.75 115.12 80.66 114.99 80.48
C114.84 80.28 114.74 79.96 114.70 79.53
L114.68 79.39
L114.54 79.41
L113.93 79.48
L113.80 79.50
L113.81 79.63
C113.85 80.29 114.02 80.80 114.32 81.17
C114.63 81.56 115.00 81.75 115.45 81.75
C115.99 81.75 116.42 81.48 116.74 80.94
C117.04 80.42 117.19 79.80 117.19 79.08
C117.19 78.34 117.04 77.75 116.73 77.31
C116.42 76.86 116.04 76.63 115.60 76.63
C115.36 76.63 115.12 76.71 114.90 76.86
L114.90 76.86
L115.09 75.44
L116.97 75.44
L116.97 75.30
L116.97 74.47
L116.97 74.32
Z
" fill="white" fill-rule="nonzero" />
<path d="
M112.01 157.60
L111.98 157.70
C111.88 157.99 111.72 158.30 111.49 158.61
C111.25 158.93 110.98 159.19 110.68 159.41
L110.62 159.45
L110.62 159.53
L110.62 160.37
L110.62 160.61
L110.83 160.50
C111.03 160.39 111.24 160.23 111.47 160.02
C111.58 159.92 111.68 159.82 111.77 159.72
L111.77 159.72
L111.77 164.89
L111.77 165.03
L112.63 165.03
L112.63 164.89
L112.63 157.74
L112.63 157.60
Z
M115.64 157.60
L115.61 157.70
C115.51 157.99 115.35 158.30 115.12 158.61
C114.88 158.93 114.61 159.19 114.31 159.41
L114.25 159.45
L114.25 159.53
L114.25 160.37
L114.25 160.61
L114.46 160.50
C114.66 160.39 114.87 160.23 115.10 160.02
C115.21 159.92 115.31 159.82 115.40 159.72
L115.40 159.72
L115.40 164.89
L115.40 165.03
L116.26 165.03
L116.26 164.89
L116.26 157.74
L116.26 157.60
Z
" fill="white" fill-rule="nonzero" />
<path d="
M171.53 109.91
L171.50 110.01
C171.41 110.31 171.25 110.61 171.01 110.93
C170.78 111.24 170.51 111.51 170.21 111.73
L170.15 111.77
L170.15 111.84
L170.15 112.69
L170.15 112.93
L170.36 112.81
C170.55 112.70 170.77 112.54 171.00 112.33
C171.11 112.23 171.21 112.14 171.29 112.04
L171.29 112.04
L171.29 117.21
L171.29 117.35
L172.15 117.35
L172.15 117.21
L172.15 110.05
L172.15 109.91
Z
M174.95 109.91
C174.55 109.91 174.21 110.09 173.92 110.43
C173.65 110.76 173.48 111.25 173.40 111.88
L173.39 112.00
L173.51 112.04
L174.08 112.19
L174.24 112.24
L174.26 112.07
C174.29 111.66 174.38 111.36 174.52 111.17
C174.64 111.00 174.79 110.91 174.96 110.91
C174.96 110.91 174.96 110.91 174.96 110.91
C174.96 110.91 174.96 110.91 174.96 110.91
C175.13 110.91 175.27 111.00 175.39 111.16
C175.52 111.34 175.58 111.58 175.58 111.88
C175.58 112.21 175.50 112.47 175.35 112.66
C175.20 112.84 175.01 112.93 174.78 112.93
L174.78 112.93
L174.70 112.93
L174.55 112.91
L174.54 113.05
L174.47 113.82
L174.45 114.05
L174.67 113.97
C174.81 113.91 174.93 113.88 175.02 113.88
C175.02 113.88 175.02 113.88 175.02 113.88
C175.02 113.88 175.02 113.88 175.02 113.88
C175.23 113.88 175.41 113.98 175.55 114.20
C175.71 114.42 175.79 114.73 175.79 115.12
C175.79 115.53 175.70 115.86 175.53 116.11
C175.37 116.35 175.18 116.47 174.97 116.47
C174.97 116.47 174.97 116.47 174.97 116.47
C174.96 116.47 174.96 116.47 174.96 116.47
C174.77 116.47 174.62 116.37 174.49 116.18
C174.36 115.97 174.26 115.64 174.20 115.19
L174.18 115.04
L174.03 115.07
L173.46 115.19
L173.34 115.21
L173.34 115.33
C173.38 115.97 173.55 116.49 173.85 116.87
C174.15 117.27 174.53 117.47 174.97 117.47
C175.45 117.47 175.86 117.25 176.19 116.79
C176.52 116.35 176.68 115.79 176.69 115.10
C176.69 114.78 176.65 114.49 176.57 114.22
C176.49 113.96 176.38 113.74 176.24 113.58
C176.16 113.47 176.05 113.38 175.94 113.31
L175.94 113.31
C176.07 113.18 176.19 113.01 176.27 112.82
C176.40 112.55 176.46 112.24 176.46 111.90
C176.46 111.34 176.31 110.87 176.03 110.49
C175.74 110.11 175.38 109.91 174.95 109.91
Z
" fill="white" fill-rule="nonzero" />
<path d="
M199.13 135.36
L199.13 138.57
L197.67 138.57
L199.13 135.36
Z
M195.45 133.93
C195.35 134.24 195.18 134.56 194.94 134.88
C194.70 135.21 194.42 135.49 194.10 135.72
L194.10 136.56
C194.29 136.46 194.49 136.30 194.71 136.10
C194.94 135.90 195.12 135.70 195.25 135.51
L195.25 141.08
L195.82 141.08
L195.82 133.93
Z
M199.24 133.96
L197.11 138.57
L197.11 139.37
L199.13 139.37
L199.13 141.08
L199.71 141.08
L199.71 139.37
L200.34 139.37
L200.34 138.57
L199.71 138.57
L199.71 133.96
Z
" fill="black" fill-rule="nonzero" />
</g>
</g>
</svg>
