<?xml version="1.0" encoding="utf-8" standalone="no"?>
<!DOCTYPE svg PUBLIC "-//W3C//DTD SVG 1.0//EN" "http://www.w3.org/TR/SVG/DTD/svg11.dtd" >
<svg version="1.1" baseProfile="full"  width="319.13385" height="338.51422" viewBox="0 0 229.77638 243.73024" preserveAspectRatio="xMidYMid" xmlns="http://www.w3.org/2000/svg" >

<g lengthAdjust="spacingAndGlyphs" xml:space='preserve' >
<g  transform="translate(1.19,1.19)" >
<path d="
M0.0 0.0
L0.0 227.39
L227.39 227.39
L227.39 0.0
Z
" fill="none" fill-rule="nonzero" />
<line x1="6.54" y1="6.54" x2="6.54" y2="220.84" fill="none" stroke="black" stroke-width="0.87px" stroke-linecap="square" />
<line x1="18.45" y1="6.54" x2="18.45" y2="220.84" fill="none" stroke="black" stroke-width="0.25px" stroke-linecap="butt" />
<line x1="30.35" y1="6.54" x2="30.35" y2="220.84" fill="none" stroke="black" stroke-width="0.25px" stroke-linecap="butt" />
<line x1="42.26" y1="6.54" x2="42.26" y2="220.84" fill="none" stroke="black" stroke-width="0.25px" stroke-linecap="butt" />
<line x1="54.17" y1="6.54" x2="54.17" y2="220.84" fill="none" stroke="black" stroke-width="0.25px" stroke-linecap="butt" />
<line x1="66.07" y1="6.54" x2="66.07" y2="220.84" fill="none" stroke="black" stroke-width="0.25px" stroke-linecap="butt" />
<line x1="77.98" y1="6.54" x2="77.98" y2="220.84" fill="none" stroke="black" stroke-width="0.25px" stroke-linecap="butt" />
<line x1="89.88" y1="6.54" x2="89.88" y2="220.84" fill="none" stroke="black" stroke-width="0.25px" stroke-linecap="butt" />
<line x1="101.79" y1="6.54" x2="101.79" y2="220.84" fill="none" stroke="black" stroke-width="0.25px" stroke-linecap="butt" />
<line x1="113.69" y1="6.54" x2="113.69" y2="220.84" fill="none" stroke="black" stroke-width="0.25px" stroke-linecap="butt" />
<line x1="125.60" y1="6.54" x2="125.60" y2="220.84" fill="none" stroke="black" stroke-width="0.25px" stroke-linecap="butt" />
<line x1="137.50" y1="6.54" x2="137.50" y2="220.84" fill="none" stroke="black" stroke-width="0.25px" stroke-linecap="butt" />
<line x1="149.41" y1="6.54" x2="149.41" y2="220.84" fill="none" stroke="black" stroke-width="0.25px" stroke-linecap="butt" />
<line x1="161.31" y1="6.54" x2="161.31" y2="167.27" fill="none" stroke="black" stroke-width="0.25px" stroke-linecap="butt" />
<line x1="161.31" y1="191.08" x2="161.31" y2="220.84" fill="none" stroke="black" stroke-width="0.25px" stroke-linecap="butt" />
<line x1="173.22" y1="6.54" x2="173.22" y2="167.27" fill="none" stroke="black" stroke-width="0.25px" stroke-linecap="butt" />
<line x1="173.22" y1="202.98" x2="173.22" y2="220.84" fill="none" stroke="black" stroke-width="0.25px" stroke-linecap="butt" />
<line x1="185.13" y1="6.54" x2="185.13" y2="220.84" fill="none" stroke="black" stroke-width="0.25px" stroke-linecap="butt" />
<line x1="197.03" y1="6.54" x2="197.03" y2="131.55" fill="none" stroke="black" stroke-width="0.25px" stroke-linecap="butt" />
<line x1="197.03" y1="143.46" x2="197.03" y2="220.84" fill="none" stroke="black" stroke-width="0.25px" stroke-linecap="butt" />
<line x1="208.94" y1="6.54" x2="208.94" y2="220.84" fill="none" stroke="black" stroke-width="0.25px" stroke-linecap="butt" />
<line x1="220.84" y1="6.54" x2="220.84" y2="220.84" fill="none" stroke="black" stroke-width="0.87px" stroke-linecap="square" />
<line x1="6.54" y1="6.54" x2="220.84" y2="6.54" fill="none" stroke="black" stroke-width="0.87px" stroke-linecap="square" />
<line x1="6.54" y1="18.45" x2="220.84" y2="18.45" fill="none" stroke="black" stroke-width="0.25px" stroke-linecap="butt" />
<line x1="6.54" y1="30.35" x2="220.84" y2="30.35" fill="none" stroke="black" stroke-width="0.25px" stroke-linecap="butt" />
<line x1="6.54" y1="42.26" x2="220.84" y2="42.26" fill="none" stroke="black" stroke-width="0.25px" stroke-linecap="butt" />
<line x1="6.54" y1="54.17" x2="220.84" y2="54.17" fill="none" stroke="black" stroke-width="0.25px" stroke-linecap="butt" />
<line x1="6.54" y1="66.07" x2="220.84" y2="66.07" fill="none" stroke="black" stroke-width="0.25px" stroke-linecap="butt" />
<line x1="6.54" y1="77.98" x2="220.84" y2="77.98" fill="none" stroke="black" stroke-width="0.25px" stroke-linecap="butt" />
<line x1="6.54" y1="89.88" x2="220.84" y2="89.88" fill="none" stroke="black" stroke-width="0.25px" stroke-linecap="butt" />
<line x1="6.54" y1="101.79" x2="220.84" y2="101.79" fill="none" stroke="black" stroke-width="0.25px" stroke-linecap="butt" />
<line x1="6.54" y1="113.69" x2="220.84" y2="113.69" fill="none" stroke="black" stroke-width="0.25px" stroke-linecap="butt" />
<line x1="6.54" y1="125.60" x2="220.84" y2="125.60" fill="none" stroke="black" stroke-width="0.25px" stroke-linecap="butt" />
<line x1="6.54" y1="137.50" x2="191.08" y2="137.50" fill="none" stroke="black" stroke-width="0.25px" stroke-linecap="butt" />
<line x1="202.98" y1="137.50" x2="220.84" y2="137.50" fill="none" stroke="black" stroke-width="0.25px" stroke-linecap="butt" />
<line x1="6.54" y1="149.41" x2="220.84" y2="149.41" fill="none" stroke="black" stroke-width="0.25px" stroke-linecap="butt" />
<line x1="6.54" y1="161.31" x2="220.84" y2="161.31" fill="none" stroke="black" stroke-width="0.25px" stroke-linecap="butt" />
<line x1="6.54" y1="173.22" x2="155.36" y2="173.22" fill="none" stroke="black" stroke-width="0.25px" stroke-linecap="butt" />
<line x1="179.17" y1="173.22" x2="220.84" y2="173.22" fill="none" stroke="black" stroke-width="0.25px" stroke-linecap="butt" />
<line x1="6.54" y1="185.13" x2="155.36" y2="185.13" fill="none" stroke="black" stroke-width="0.25px" stroke-linecap="butt" />
<line x1="179.17" y1="185.13" x2="220.84" y2="185.13" fill="none" stroke="black" stroke-width="0.25px" stroke-linecap="butt" />
<line x1="6.54" y1="197.03" x2="167.27" y2="197.03" fill="none" stroke="black" stroke-width="0.25px" stroke-linecap="butt" />
<line x1="179.17" y1="197.03" x2="220.84" y2="197.03" fill="none" stroke="black" stroke-width="0.25px" stroke-linecap="butt" />
<line x1="6.54" y1="208.94" x2="220.84" y2="208.94" fill="none" stroke="black" stroke-width="0.25px" stroke-linecap="butt" />
<line x1="6.54" y1="220.84" x2="220.84" y2="220.84" fill="none" stroke="black" stroke-width="0.87px" stroke-linecap="square" />
<circle cx="30.35" cy="54.17" r="6.01" fill="black"/>
<circle cx="30.35" cy="89.88" r="5.89" fill="white"/>
<circle cx="30.35" cy="89.88" r="5.89" fill="none" stroke="black" stroke-width="0.25px"/>
<circle cx="30.35" cy="125.60" r="5.89" fill="white"/>
<circle cx="30.35" cy="125.60" r="5.89" fill="none" stroke="black" stroke-width="0.25px"/>
<circle cx="30.35" cy="161.31" r="5.89" fill="white"/>
<circle cx="30.35" cy="161.31" r="5.89" fill="none" stroke="black" stroke-width="0.25px"/>
<circle cx="42.26" cy="30.35" r="5.89" fill="white"/>
<circle cx="42.26" cy="30.35" r="5.89" fill="none" stroke="black" stroke-width="0.25px"/>
<circle cx="42.26" cy="42.26" r="1.27" fill="black"/>
<circle cx="42.26" cy="77.98" r="5.89" fill="white"/>
<circle cx="42.26" cy="77.98" r="5.89" fill="none" stroke="black" stroke-width="0.25px"/>
<circle cx="42.26" cy="89.88" r="6.01" fill="black"/>
<circle cx="42.26" cy="101.79" r="5.89" fill="white"/>
<circle cx="42.26" cy="101.79" r="5.89" fill="none" stroke="black" stroke-width="0.25px"/>
<circle cx="42.26" cy="113.69" r="1.27" fill="black"/>
<circle cx="42.26" cy="185.13" r="6.01" fill="black"/>
<circle cx="54.17" cy="66.07" r="6.01" fill="black"/>
<circle cx="54.17" cy="77.98" r="6.01" fill="black"/>
<circle cx="54.17" cy="89.88" r="6.01" fill="black"/>
<circle cx="66.07" cy="197.03" r="6.01" fill="black"/>
<circle cx="77.98" cy="30.35" r="5.89" fill="white"/>
<circle cx="77.98" cy="30.35" r="5.89" fill="none" stroke="black" stroke-width="0.25px"/>
<circle cx="113.69" cy="42.26" r="1.27" fill="black"/>
<circle cx="113.69" cy="113.69" r="1.27" fill="black"/>
<circle cx="113.69" cy="185.13" r="1.27" fill="black"/>
<circle cx="185.13" cy="42.26" r="6.01" fill="black"/>
<circle cx="185.13" cy="113.69" r="1.27" fill="black"/>
<circle cx="185.13" cy="185.13" r="1.27" fill="black"/>
<circle cx="185.13" cy="197.03" r="5.89" fill="white"/>
<circle cx="185.13" cy="197.03" r="5.89" fill="none" stroke="black" stroke-width="0.25px"/>
<circle cx="197.03" cy="113.69" r="5.89" fill="white"/>
<circle cx="197.03" cy="113.69" r="5.89" fill="none" stroke="black" stroke-width="0.25px"/>
<circle cx="197.03" cy="173.22" r="6.01" fill="black"/>
<path d="
M28.34 50.55
L28.34 50.69
L28.34 51.52
L28.34 51.66
L31.03 51.66
C30.73 52.13 30.44 52.66 30.17 53.28
C29.86 54.00 29.61 54.75 29.43 55.55
C29.25 56.34 29.16 57.04 29.15 57.63
L29.14 57.78
L30.02 57.78
L30.15 57.78
L30.16 57.65
C30.22 56.52 30.46 55.38 30.88 54.24
C31.30 53.09 31.78 52.16 32.33 51.45
L32.36 51.41
L32.36 51.36
L32.36 50.69
L32.36 50.55
Z
" fill="white" fill-rule="nonzero" />
<path d="
M32.18 89.55
C32.43 89.55 32.65 89.69 32.82 89.97
C33.00 90.25 33.09 90.64 33.09 91.14
C33.09 91.66 33.00 92.06 32.82 92.36
C32.64 92.65 32.44 92.80 32.22 92.80
C31.96 92.80 31.73 92.64 31.54 92.33
C31.35 92.02 31.25 91.60 31.25 91.09
C31.25 90.62 31.34 90.24 31.53 89.96
C31.71 89.69 31.93 89.55 32.18 89.55
Z
M28.77 86.25
C28.67 86.56 28.50 86.88 28.26 87.20
C28.02 87.53 27.74 87.81 27.42 88.03
L27.42 88.88
C27.61 88.77 27.81 88.62 28.04 88.42
C28.26 88.22 28.44 88.02 28.57 87.82
L28.57 93.40
L29.15 93.40
L29.15 86.25
Z
M32.26 86.25
C31.77 86.25 31.37 86.54 31.06 87.12
C30.74 87.71 30.59 88.69 30.59 90.06
C30.59 91.30 30.74 92.19 31.05 92.72
C31.35 93.25 31.74 93.52 32.21 93.52
C32.47 93.52 32.71 93.43 32.93 93.24
C33.15 93.06 33.33 92.77 33.47 92.38
C33.60 92.00 33.67 91.57 33.67 91.09
C33.67 90.39 33.54 89.82 33.26 89.41
C32.98 88.99 32.66 88.78 32.29 88.78
C32.07 88.78 31.86 88.86 31.66 89.02
C31.46 89.18 31.29 89.41 31.16 89.72
C31.16 88.85 31.25 88.19 31.42 87.74
C31.63 87.22 31.89 86.96 32.23 86.96
C32.44 86.96 32.63 87.08 32.78 87.30
C32.89 87.46 32.97 87.72 33.02 88.09
L33.59 88.02
C33.54 87.44 33.39 87.00 33.15 86.70
C32.91 86.40 32.62 86.25 32.26 86.25
Z
" fill="black" fill-rule="nonzero" />
<path d="
M32.15 122.68
C32.35 122.68 32.53 122.79 32.68 123.00
C32.84 123.21 32.91 123.48 32.91 123.82
C32.91 124.14 32.84 124.41 32.69 124.61
C32.54 124.81 32.36 124.92 32.15 124.92
C31.94 124.92 31.76 124.81 31.61 124.60
C31.46 124.40 31.39 124.12 31.39 123.77
C31.39 123.46 31.46 123.20 31.61 122.99
C31.76 122.78 31.94 122.68 32.15 122.68
Z
M32.14 125.63
C32.40 125.63 32.63 125.76 32.82 126.03
C33.01 126.30 33.10 126.65 33.10 127.09
C33.10 127.52 33.01 127.87 32.83 128.13
C32.64 128.39 32.42 128.52 32.15 128.52
C31.89 128.52 31.67 128.38 31.48 128.11
C31.29 127.85 31.20 127.50 31.20 127.06
C31.20 126.64 31.29 126.29 31.47 126.03
C31.65 125.76 31.88 125.63 32.14 125.63
Z
M28.77 121.96
C28.67 122.27 28.50 122.59 28.26 122.92
C28.02 123.25 27.74 123.52 27.42 123.75
L27.42 124.59
C27.61 124.49 27.81 124.34 28.04 124.14
C28.26 123.93 28.44 123.73 28.57 123.54
L28.57 129.11
L29.15 129.11
L29.15 121.96
Z
M32.14 121.96
C31.76 121.96 31.44 122.13 31.18 122.47
C30.92 122.81 30.80 123.25 30.80 123.79
C30.80 124.15 30.86 124.45 30.97 124.69
C31.09 124.94 31.27 125.12 31.50 125.25
C31.22 125.36 31.00 125.57 30.85 125.88
C30.69 126.19 30.61 126.58 30.61 127.06
C30.61 127.71 30.76 128.23 31.05 128.63
C31.35 129.03 31.71 129.23 32.15 129.23
C32.59 129.23 32.95 129.03 33.25 128.63
C33.54 128.23 33.69 127.72 33.69 127.08
C33.69 126.62 33.61 126.24 33.46 125.93
C33.31 125.62 33.09 125.39 32.81 125.25
C33.04 125.12 33.21 124.93 33.33 124.69
C33.44 124.46 33.50 124.17 33.50 123.82
C33.50 123.28 33.37 122.83 33.11 122.48
C32.85 122.13 32.53 121.96 32.14 121.96
Z
" fill="black" fill-rule="nonzero" />
<path d="
M32.45 159.17
L32.45 162.38
L30.99 162.38
L32.45 159.17
Z
M28.77 157.74
C28.67 158.05 28.50 158.37 28.26 158.70
C28.02 159.02 27.74 159.30 27.42 159.53
L27.42 160.37
C27.61 160.27 27.81 160.12 28.04 159.91
C28.26 159.71 28.44 159.51 28.57 159.32
L28.57 164.89
L29.15 164.89
L29.15 157.74
Z
M32.56 157.77
L30.43 162.38
L30.43 163.19
L32.45 163.19
L32.45 164.89
L33.03 164.89
L33.03 163.19
L33.66 163.19
L33.66 162.38
L33.03 162.38
L33.03 157.77
Z
" fill="black" fill-rule="nonzero" />
<path d="
M42.27 26.82
C41.73 26.82 41.30 26.99 40.97 27.33
C40.64 27.67 40.44 28.18 40.39 28.86
L41.12 28.95
C41.12 28.49 41.23 28.14 41.44 27.90
C41.65 27.66 41.92 27.54 42.25 27.54
C42.56 27.54 42.82 27.65 43.03 27.88
C43.23 28.10 43.34 28.39 43.34 28.75
C43.34 29.06 43.24 29.40 43.03 29.76
C42.83 30.12 42.39 30.63 41.73 31.29
C41.17 31.85 40.78 32.34 40.56 32.76
C40.35 33.17 40.25 33.55 40.26 33.89
L44.07 33.89
L44.07 33.06
L41.24 33.06
C41.32 32.90 41.42 32.74 41.54 32.59
C41.67 32.43 41.94 32.13 42.36 31.70
C43.02 31.02 43.47 30.47 43.71 30.06
C43.95 29.65 44.06 29.22 44.06 28.77
C44.06 28.26 43.91 27.81 43.61 27.42
C43.31 27.02 42.86 26.82 42.27 26.82
Z
" fill="black" fill-rule="nonzero" />
<path d="
M42.23 75.09
C42.49 75.09 42.71 75.20 42.90 75.41
C43.08 75.62 43.18 75.89 43.18 76.22
C43.18 76.54 43.09 76.80 42.90 77.00
C42.72 77.20 42.50 77.30 42.24 77.30
C41.97 77.30 41.75 77.20 41.57 76.99
C41.39 76.79 41.29 76.51 41.29 76.17
C41.29 75.86 41.39 75.61 41.57 75.40
C41.75 75.20 41.97 75.09 42.23 75.09
Z
M42.22 78.01
C42.55 78.01 42.83 78.14 43.06 78.40
C43.29 78.67 43.41 79.02 43.41 79.45
C43.41 79.88 43.30 80.22 43.07 80.47
C42.84 80.73 42.57 80.86 42.24 80.86
C41.92 80.86 41.64 80.73 41.41 80.46
C41.18 80.20 41.06 79.85 41.06 79.42
C41.06 79.00 41.17 78.66 41.40 78.40
C41.62 78.14 41.90 78.01 42.22 78.01
Z
M42.23 74.38
C41.75 74.38 41.35 74.55 41.04 74.89
C40.72 75.22 40.57 75.66 40.57 76.19
C40.57 76.55 40.64 76.85 40.78 77.08
C40.93 77.32 41.14 77.50 41.43 77.63
C41.09 77.74 40.82 77.95 40.63 78.25
C40.43 78.56 40.34 78.95 40.34 79.42
C40.34 80.06 40.52 80.58 40.88 80.98
C41.24 81.37 41.70 81.57 42.24 81.57
C42.78 81.57 43.23 81.37 43.59 80.98
C43.95 80.58 44.14 80.07 44.14 79.44
C44.14 78.99 44.04 78.61 43.86 78.30
C43.67 77.99 43.40 77.77 43.05 77.63
C43.34 77.50 43.55 77.32 43.69 77.08
C43.83 76.85 43.90 76.56 43.90 76.22
C43.90 75.68 43.74 75.24 43.42 74.90
C43.11 74.56 42.71 74.38 42.23 74.38
Z
" fill="black" fill-rule="nonzero" />
<path d="
M40.57 86.10
L40.54 86.20
C40.45 86.50 40.29 86.80 40.05 87.12
C39.82 87.43 39.55 87.70 39.25 87.92
L39.19 87.96
L39.19 88.03
L39.19 88.88
L39.19 89.12
L39.19 89.12
L39.40 89.00
C39.59 88.89 39.81 88.73 40.04 88.52
C40.15 88.42 40.25 88.32 40.33 88.23
L40.33 88.23
L40.33 93.39
L40.33 93.54
L41.19 93.54
L41.19 93.39
L41.19 86.24
L41.19 86.10
Z
M43.99 86.10
C43.59 86.10 43.24 86.27 42.96 86.62
C42.69 86.95 42.52 87.44 42.44 88.07
L42.43 88.19
L42.54 88.23
L43.12 88.38
L43.28 88.43
L43.29 88.26
C43.33 87.85 43.42 87.55 43.56 87.36
C43.68 87.19 43.83 87.10 44.00 87.10
C44.00 87.10 44.00 87.10 44.00 87.10
C44.00 87.10 44.00 87.10 44.00 87.10
C44.17 87.10 44.31 87.19 44.43 87.35
C44.56 87.53 44.62 87.77 44.62 88.07
C44.62 88.40 44.54 88.66 44.39 88.85
C44.24 89.03 44.05 89.12 43.82 89.12
L43.82 89.12
L43.74 89.11
L43.59 89.10
L43.58 89.24
L43.51 90.01
L43.49 90.24
L43.71 90.15
C43.85 90.10 43.97 90.07 44.06 90.07
C44.06 90.07 44.06 90.07 44.06 90.07
C44.06 90.07 44.06 90.07 44.06 90.07
C44.27 90.07 44.45 90.17 44.59 90.39
C44.75 90.61 44.83 90.92 44.83 91.31
C44.83 91.72 44.74 92.05 44.57 92.30
C44.41 92.54 44.22 92.65 44.01 92.65
C44.01 92.65 44.01 92.65 44.00 92.65
C44.00 92.65 44.00 92.65 44.00 92.65
C43.81 92.65 43.66 92.56 43.53 92.37
C43.39 92.15 43.30 91.82 43.24 91.38
L43.22 91.23
L43.07 91.26
L42.50 91.38
L42.37 91.40
L42.38 91.52
C42.42 92.16 42.59 92.68 42.89 93.06
C43.19 93.46 43.57 93.66 44.01 93.66
C44.49 93.66 44.90 93.43 45.23 92.98
C45.56 92.54 45.72 91.98 45.72 91.29
C45.72 90.97 45.68 90.68 45.61 90.41
C45.53 90.15 45.42 89.93 45.28 89.77
C45.20 89.66 45.09 89.57 44.97 89.50
L44.97 89.50
C45.11 89.37 45.23 89.20 45.31 89.01
C45.43 88.74 45.50 88.43 45.50 88.09
C45.49 87.53 45.35 87.06 45.07 86.68
C44.78 86.30 44.42 86.10 43.99 86.10
Z
" fill="white" fill-rule="nonzero" />
<path d="
M40.68 98.21
C40.58 98.52 40.41 98.84 40.17 99.17
C39.92 99.50 39.65 99.77 39.33 100.00
L39.33 100.84
C39.52 100.74 39.72 100.59 39.94 100.39
C40.17 100.18 40.34 99.98 40.48 99.79
L40.48 105.36
L41.05 105.36
L41.05 98.21
Z
M44.09 98.21
C43.65 98.21 43.30 98.38 43.03 98.73
C42.76 99.07 42.60 99.59 42.56 100.27
L43.15 100.36
C43.15 99.90 43.24 99.55 43.41 99.30
C43.58 99.06 43.80 98.94 44.07 98.94
C44.32 98.94 44.52 99.05 44.69 99.28
C44.86 99.51 44.95 99.80 44.95 100.16
C44.95 100.48 44.87 100.82 44.70 101.18
C44.53 101.55 44.18 102.06 43.65 102.73
C43.19 103.30 42.87 103.80 42.70 104.22
C42.53 104.64 42.45 105.02 42.45 105.36
L45.54 105.36
L45.54 104.52
L43.25 104.52
C43.31 104.36 43.39 104.20 43.49 104.05
C43.59 103.89 43.81 103.59 44.16 103.15
C44.69 102.46 45.06 101.90 45.25 101.49
C45.44 101.07 45.54 100.64 45.54 100.18
C45.54 99.67 45.41 99.22 45.17 98.81
C44.92 98.41 44.56 98.21 44.09 98.21
Z
" fill="black" fill-rule="nonzero" />
<path d="
M42.16 181.39
C41.68 181.39 41.26 181.56 40.92 181.89
C40.59 182.22 40.37 182.70 40.28 183.33
L40.26 183.46
L40.39 183.49
L41.09 183.65
L41.24 183.68
L41.26 183.53
C41.31 183.13 41.42 182.84 41.59 182.65
C41.74 182.47 41.94 182.38 42.17 182.38
C42.17 182.38 42.17 182.38 42.17 182.38
C42.17 182.38 42.17 182.38 42.17 182.38
C42.39 182.38 42.58 182.47 42.73 182.64
C42.89 182.81 42.97 183.04 42.97 183.34
C42.97 183.65 42.87 183.91 42.68 184.09
C42.49 184.28 42.25 184.37 41.94 184.37
L41.94 184.37
L41.84 184.37
L41.70 184.35
L41.68 184.49
L41.60 185.25
L41.58 185.47
L41.58 185.47
L41.78 185.40
C41.97 185.34 42.12 185.31 42.24 185.31
C42.24 185.31 42.24 185.31 42.24 185.31
C42.24 185.31 42.24 185.31 42.24 185.31
C42.52 185.31 42.75 185.42 42.94 185.64
C43.13 185.86 43.23 186.16 43.23 186.53
C43.23 186.93 43.12 187.26 42.91 187.50
C42.70 187.74 42.45 187.86 42.18 187.86
C42.17 187.86 42.17 187.86 42.17 187.86
C42.17 187.86 42.17 187.86 42.17 187.86
C41.92 187.86 41.71 187.77 41.56 187.57
C41.38 187.36 41.26 187.04 41.19 186.60
L41.17 186.46
L41.03 186.48
L40.32 186.60
L40.19 186.62
L40.20 186.75
C40.25 187.39 40.46 187.90 40.83 188.28
C41.20 188.67 41.65 188.86 42.18 188.86
C42.75 188.86 43.25 188.64 43.65 188.20
C44.06 187.76 44.26 187.20 44.26 186.52
C44.26 186.20 44.21 185.90 44.12 185.64
C44.01 185.38 43.88 185.16 43.72 185.00
C43.61 184.90 43.49 184.81 43.35 184.75
L43.35 184.75
C43.51 184.62 43.65 184.46 43.75 184.27
C43.90 184.01 43.98 183.70 43.98 183.35
C43.98 182.79 43.80 182.33 43.45 181.95
C43.10 181.58 42.67 181.39 42.16 181.39
Z
" fill="white" fill-rule="nonzero" />
<path d="
M54.14 63.34
C54.14 63.34 54.14 63.34 54.15 63.34
C54.15 63.34 54.15 63.34 54.15 63.34
C54.39 63.34 54.61 63.46 54.81 63.71
C55.01 63.97 55.11 64.34 55.11 64.81
C55.11 65.28 55.01 65.64 54.82 65.89
C54.63 66.13 54.40 66.25 54.13 66.25
C54.13 66.25 54.13 66.25 54.13 66.25
C54.13 66.25 54.13 66.25 54.13 66.25
C53.86 66.25 53.62 66.13 53.42 65.89
C53.22 65.65 53.12 65.31 53.12 64.88
C53.12 64.40 53.23 64.02 53.44 63.74
C53.65 63.47 53.89 63.34 54.14 63.34
Z
M54.06 62.34
C53.51 62.34 53.05 62.57 52.67 63.02
C52.29 63.47 52.10 64.08 52.10 64.85
C52.10 65.60 52.29 66.19 52.65 66.63
C53.02 67.08 53.46 67.30 53.97 67.30
C54.26 67.30 54.54 67.21 54.81 67.03
C54.95 66.93 55.07 66.83 55.18 66.70
L55.18 66.70
C55.16 67.12 55.10 67.48 54.99 67.80
C54.87 68.19 54.72 68.46 54.55 68.60
C54.38 68.74 54.20 68.81 53.99 68.81
C53.99 68.81 53.99 68.81 53.99 68.81
C53.99 68.81 53.99 68.81 53.99 68.81
C53.77 68.81 53.59 68.73 53.46 68.58
C53.32 68.42 53.22 68.16 53.17 67.82
L53.15 67.68
L53.02 67.70
L52.34 67.78
L52.20 67.79
L52.21 67.93
C52.27 68.53 52.46 68.99 52.78 69.31
C53.10 69.64 53.50 69.80 53.98 69.80
C54.40 69.80 54.78 69.67 55.11 69.40
C55.45 69.14 55.71 68.73 55.90 68.17
C56.09 67.62 56.18 66.85 56.18 65.87
C56.18 64.99 56.10 64.31 55.92 63.83
C55.74 63.34 55.49 62.97 55.15 62.72
C54.82 62.46 54.45 62.34 54.06 62.34
Z
" fill="white" fill-rule="nonzero" />
<path d="
M52.48 74.26
L52.45 74.36
C52.35 74.65 52.19 74.96 51.96 75.27
C51.72 75.59 51.46 75.85 51.15 76.07
L51.09 76.12
L51.09 76.19
L51.09 77.03
L51.09 77.27
L51.30 77.16
C51.50 77.05 51.71 76.89 51.94 76.68
C52.05 76.58 52.15 76.48 52.24 76.39
L52.24 76.39
L52.24 81.55
L52.24 81.69
L53.10 81.69
L53.10 81.55
L53.10 74.40
L53.10 74.26
Z
M56.11 74.26
L56.08 74.36
C55.98 74.65 55.82 74.96 55.59 75.27
C55.35 75.59 55.09 75.85 54.78 76.07
L54.72 76.12
L54.72 76.19
L54.72 77.03
L54.72 77.27
L54.93 77.16
C55.13 77.05 55.34 76.89 55.57 76.68
C55.68 76.58 55.78 76.48 55.87 76.39
L55.87 76.39
L55.87 81.55
L55.87 81.69
L56.73 81.69
L56.73 81.55
L56.73 74.40
L56.73 74.26
Z
" fill="white" fill-rule="nonzero" />
<path d="
M52.48 86.16
L52.45 86.26
C52.35 86.56 52.19 86.86 51.96 87.18
C51.72 87.49 51.46 87.76 51.15 87.98
L51.09 88.02
L51.09 88.09
L51.09 88.94
L51.09 89.18
L51.09 89.18
L51.30 89.06
C51.50 88.95 51.71 88.79 51.94 88.58
C52.05 88.49 52.15 88.39 52.24 88.29
L52.24 88.29
L52.24 93.46
L52.24 93.60
L53.10 93.60
L53.10 93.46
L53.10 86.31
L53.10 86.16
Z
M54.32 86.29
L54.32 86.43
L54.32 87.27
L54.32 87.41
L56.51 87.41
C56.26 87.88 56.02 88.43 55.80 89.06
C55.55 89.78 55.35 90.55 55.21 91.35
C55.06 92.15 54.98 92.85 54.98 93.46
L54.97 93.60
L55.71 93.60
L55.84 93.60
L55.85 93.46
C55.90 92.32 56.10 91.17 56.43 90.01
C56.77 88.84 57.16 87.90 57.61 87.18
L57.63 87.15
L57.63 87.11
L57.63 86.43
L57.63 86.29
Z
" fill="white" fill-rule="nonzero" />
<path d="
M67.28 195.91
L67.28 195.91
L67.28 195.91
C67.28 195.91 67.28 195.91 67.28 195.91
Z
M64.38 193.25
L64.35 193.35
C64.26 193.65 64.10 193.95 63.86 194.27
C63.63 194.58 63.36 194.85 63.06 195.07
L63.00 195.11
L63.00 195.18
L63.00 196.03
L63.00 196.27
L63.21 196.15
C63.41 196.04 63.62 195.88 63.85 195.67
C63.96 195.57 64.06 195.48 64.14 195.38
L64.14 195.38
L64.14 200.55
L64.14 200.69
L65.00 200.69
L65.00 200.55
L65.00 193.39
L65.00 193.25
Z
M66.76 193.38
L66.75 193.50
L66.29 197.16
L66.28 197.29
L66.40 197.32
L66.94 197.43
L67.06 197.45
L67.10 197.34
C67.18 197.15 67.29 197.00 67.42 196.89
C67.55 196.79 67.68 196.74 67.82 196.74
C67.82 196.74 67.82 196.74 67.82 196.74
C67.82 196.74 67.82 196.74 67.82 196.74
C68.06 196.74 68.26 196.86 68.42 197.10
C68.59 197.35 68.68 197.72 68.68 198.20
C68.68 198.71 68.59 199.11 68.41 199.40
C68.24 199.67 68.05 199.81 67.83 199.81
C67.83 199.81 67.82 199.81 67.82 199.81
C67.82 199.81 67.82 199.81 67.82 199.81
C67.65 199.81 67.50 199.72 67.36 199.53
C67.21 199.33 67.12 199.02 67.07 198.59
L67.06 198.44
L66.92 198.46
L66.31 198.54
L66.18 198.56
L66.19 198.69
C66.23 199.34 66.40 199.85 66.70 200.23
C67.00 200.61 67.38 200.81 67.83 200.81
C68.37 200.81 68.80 200.54 69.12 199.99
C69.42 199.47 69.57 198.85 69.57 198.13
C69.57 197.40 69.42 196.81 69.11 196.37
C68.79 195.91 68.42 195.68 67.98 195.68
C67.73 195.68 67.50 195.76 67.28 195.91
L67.28 195.91
L67.47 194.50
L69.35 194.50
L69.35 194.36
L69.35 193.52
L69.35 193.38
Z
" fill="white" fill-rule="nonzero" />
<path d="
M79.74 27.44
C80.02 27.44 80.25 27.64 80.43 28.03
C80.60 28.42 80.69 29.20 80.69 30.36
C80.69 31.50 80.60 32.28 80.43 32.67
C80.25 33.07 80.03 33.27 79.77 33.27
C79.49 33.27 79.27 33.07 79.09 32.68
C78.91 32.29 78.82 31.51 78.82 30.36
C78.82 29.21 78.91 28.44 79.09 28.04
C79.26 27.64 79.48 27.44 79.74 27.44
Z
M76.39 26.72
C76.30 27.03 76.13 27.35 75.88 27.67
C75.64 28.00 75.36 28.28 75.05 28.51
L75.05 29.35
C75.23 29.25 75.44 29.09 75.66 28.89
C75.88 28.69 76.06 28.49 76.19 28.30
L76.19 33.87
L76.77 33.87
L76.77 26.72
Z
M79.76 26.72
C79.26 26.72 78.88 27.03 78.62 27.64
C78.37 28.26 78.24 29.16 78.24 30.36
C78.24 31.69 78.38 32.63 78.66 33.17
C78.95 33.72 79.31 33.99 79.76 33.99
C80.26 33.99 80.64 33.68 80.90 33.07
C81.16 32.45 81.28 31.55 81.28 30.36
C81.28 29.03 81.13 28.07 80.82 27.47
C80.56 26.97 80.21 26.72 79.76 26.72
Z
" fill="black" fill-rule="nonzero" />
<path d="
M160.67 170.66
C161.40 170.66 161.84 170.67 161.99 170.69
C162.25 170.72 162.44 170.81 162.58 170.96
C162.71 171.11 162.77 171.30 162.77 171.54
C162.77 171.78 162.70 171.98 162.54 172.13
C162.39 172.29 162.18 172.38 161.92 172.41
C161.77 172.43 161.40 172.44 160.79 172.44
L159.78 172.44
L159.78 170.66
Z
M161.03 173.71
C161.73 173.71 162.19 173.75 162.40 173.82
C162.61 173.90 162.78 174.01 162.89 174.17
C163.00 174.33 163.05 174.53 163.05 174.76
C163.05 175.03 162.98 175.25 162.84 175.41
C162.69 175.57 162.50 175.67 162.27 175.72
C162.12 175.75 161.77 175.76 161.21 175.76
L159.78 175.76
L159.78 173.71
Z
M158.23 169.39
L158.23 177.06
L160.84 177.06
C161.83 177.05 162.45 177.03 162.71 177.00
C163.12 176.96 163.47 176.84 163.75 176.64
C164.03 176.44 164.25 176.18 164.41 175.85
C164.57 175.52 164.66 175.18 164.66 174.83
C164.66 174.39 164.53 174.00 164.28 173.68
C164.03 173.35 163.67 173.12 163.20 172.98
C163.53 172.83 163.79 172.60 163.99 172.30
C164.18 172.00 164.28 171.68 164.28 171.32
C164.28 170.98 164.20 170.69 164.04 170.42
C163.89 170.15 163.69 169.94 163.45 169.78
C163.22 169.62 162.95 169.51 162.65 169.46
C162.36 169.41 161.90 169.39 161.30 169.39
Z
" fill="black" fill-rule="nonzero" />
<path d="
M161.54 181.16
C160.47 181.16 159.60 181.51 158.94 182.22
C158.28 182.93 157.95 183.92 157.95 185.19
C157.95 186.40 158.28 187.35 158.94 188.05
C159.59 188.74 160.43 189.09 161.45 189.09
C162.27 189.09 162.95 188.89 163.49 188.48
C164.02 188.08 164.40 187.45 164.63 186.62
L163.13 186.14
C163.00 186.70 162.79 187.11 162.49 187.38
C162.20 187.64 161.84 187.77 161.43 187.77
C160.87 187.77 160.42 187.56 160.07 187.15
C159.72 186.74 159.55 186.05 159.55 185.08
C159.55 184.16 159.73 183.50 160.08 183.10
C160.43 182.69 160.90 182.48 161.46 182.48
C161.88 182.48 162.23 182.60 162.51 182.83
C162.80 183.06 162.99 183.37 163.08 183.77
L164.61 183.40
C164.44 182.79 164.18 182.32 163.83 181.99
C163.24 181.44 162.48 181.16 161.54 181.16
Z
" fill="black" fill-rule="nonzero" />
<path d="
M172.37 170.68
C173.00 170.68 173.43 170.71 173.64 170.76
C173.93 170.82 174.17 170.94 174.36 171.12
C174.55 171.29 174.69 171.54 174.80 171.86
C174.90 172.18 174.95 172.63 174.95 173.23
C174.95 173.82 174.90 174.29 174.80 174.63
C174.69 174.97 174.56 175.22 174.39 175.37
C174.23 175.52 174.02 175.63 173.77 175.69
C173.58 175.74 173.26 175.76 172.83 175.76
L171.67 175.76
L171.67 170.68
Z
M170.13 169.39
L170.13 177.06
L173.04 177.06
C173.61 177.06 174.07 177.00 174.41 176.89
C174.87 176.75 175.23 176.54 175.50 176.28
C175.85 175.94 176.13 175.48 176.32 174.93
C176.48 174.47 176.56 173.92 176.56 173.29
C176.56 172.57 176.47 171.97 176.30 171.48
C176.14 170.99 175.89 170.58 175.57 170.24
C175.25 169.90 174.87 169.66 174.42 169.53
C174.08 169.43 173.59 169.39 172.96 169.39
Z
" fill="black" fill-rule="nonzero" />
<path d="
M170.43 181.29
L170.43 188.96
L176.26 188.96
L176.26 187.67
L171.97 187.67
L171.97 185.58
L175.83 185.58
L175.83 184.29
L171.97 184.29
L171.97 182.59
L176.11 182.59
L176.11 181.29
Z
" fill="black" fill-rule="nonzero" />
<path d="
M170.74 193.20
L170.74 200.87
L172.29 200.87
L172.29 197.61
L175.49 197.61
L175.49 196.31
L172.29 196.31
L172.29 194.49
L176.00 194.49
L176.00 193.20
Z
" fill="black" fill-rule="nonzero" />
<path d="
M185.32 38.59
L185.28 38.68
C185.17 38.97 184.97 39.27 184.68 39.58
C184.39 39.89 184.06 40.15 183.68 40.37
L183.61 40.41
L183.61 40.49
L183.61 41.33
L183.61 41.55
L183.81 41.46
C184.05 41.35 184.31 41.20 184.59 40.99
C184.75 40.87 184.90 40.75 185.02 40.64
L185.02 40.64
L185.02 45.79
L185.02 45.93
L186.02 45.93
L186.02 45.79
L186.02 38.73
L186.02 38.59
Z
" fill="white" fill-rule="nonzero" />
<path d="
M185.48 194.90
L185.48 198.07
L183.67 198.07
L185.48 194.90
Z
M185.61 193.51
L182.98 198.07
L182.98 198.86
L185.48 198.86
L185.48 200.55
L186.19 200.55
L186.19 198.86
L186.97 198.86
L186.97 198.07
L186.19 198.07
L186.19 193.51
Z
" fill="black" fill-rule="nonzero" />
<path d="
M197.04 113.36
C197.35 113.36 197.62 113.50 197.84 113.78
C198.06 114.05 198.16 114.44 198.16 114.94
C198.16 115.45 198.05 115.85 197.84 116.14
C197.62 116.43 197.37 116.57 197.09 116.57
C196.77 116.57 196.49 116.42 196.25 116.11
C196.01 115.80 195.89 115.39 195.89 114.89
C195.89 114.42 196.01 114.05 196.24 113.77
C196.47 113.50 196.73 113.36 197.04 113.36
Z
M197.15 110.10
C196.54 110.10 196.05 110.39 195.66 110.97
C195.27 111.54 195.08 112.51 195.08 113.87
C195.08 115.10 195.27 115.97 195.64 116.50
C196.02 117.02 196.50 117.28 197.08 117.28
C197.41 117.28 197.70 117.19 197.97 117.01
C198.24 116.83 198.46 116.55 198.63 116.16
C198.80 115.78 198.89 115.36 198.89 114.89
C198.89 114.19 198.72 113.64 198.38 113.22
C198.04 112.81 197.64 112.60 197.18 112.60
C196.90 112.60 196.64 112.68 196.40 112.84
C196.15 113.00 195.95 113.23 195.78 113.54
C195.79 112.67 195.90 112.02 196.11 111.58
C196.36 111.07 196.69 110.81 197.10 110.81
C197.37 110.81 197.60 110.92 197.78 111.15
C197.92 111.30 198.02 111.56 198.08 111.92
L198.79 111.85
C198.72 111.28 198.54 110.85 198.25 110.55
C197.95 110.25 197.58 110.10 197.15 110.10
Z
" fill="black" fill-rule="nonzero" />
<path d="
M196.95 135.46
L198.01 138.30
L195.91 138.30
L196.95 135.46
Z
M196.15 133.67
L193.16 141.34
L194.81 141.34
L195.44 139.60
L198.50 139.60
L199.17 141.34
L200.86 141.34
L197.79 133.67
Z
" fill="black" fill-rule="nonzero" />
<path d="
M196.25 172.09
L196.25 172.09
L196.25 172.09
C196.25 172.09 196.25 172.09 196.25 172.09
Z
M195.68 169.55
L195.66 169.67
L195.10 173.28
L195.07 173.42
L195.21 173.44
L195.88 173.55
L195.98 173.57
L196.03 173.47
C196.13 173.28 196.26 173.13 196.42 173.03
C196.59 172.92 196.76 172.87 196.95 172.87
C196.95 172.87 196.95 172.87 196.95 172.87
C196.95 172.87 196.95 172.87 196.95 172.87
C197.26 172.87 197.52 172.99 197.73 173.24
C197.94 173.49 198.05 173.84 198.05 174.31
C198.05 174.81 197.93 175.21 197.71 175.49
C197.50 175.76 197.25 175.90 196.96 175.90
C196.96 175.90 196.96 175.90 196.95 175.90
C196.95 175.90 196.95 175.90 196.95 175.90
C196.73 175.90 196.52 175.80 196.35 175.61
C196.17 175.42 196.05 175.11 196.00 174.69
L195.98 174.56
L195.84 174.57
L195.10 174.65
L194.96 174.66
L194.97 174.80
C195.02 175.45 195.23 175.96 195.60 176.33
C195.97 176.70 196.43 176.89 196.96 176.89
C197.61 176.89 198.13 176.63 198.52 176.10
C198.89 175.58 199.08 174.96 199.08 174.24
C199.08 173.51 198.89 172.93 198.51 172.49
C198.12 172.05 197.67 171.82 197.14 171.82
C196.83 171.82 196.53 171.91 196.25 172.09
L196.25 172.09
L196.48 170.66
L198.80 170.66
L198.80 170.52
L198.80 169.69
L198.80 169.55
Z
" fill="white" fill-rule="nonzero" />
</g>
<g  transform="translate(1.19,228.58)" >
<path d="
M91.78 2.72
C91.62 2.72 91.48 2.78 91.36 2.89
C91.25 3.01 91.19 3.15 91.19 3.31
C91.19 3.47 91.25 3.61 91.36 3.73
C91.48 3.84 91.62 3.90 91.78 3.90
C91.95 3.90 92.08 3.84 92.20 3.73
C92.31 3.61 92.37 3.47 92.37 3.31
C92.37 3.15 92.31 3.01 92.20 2.89
C92.08 2.78 91.95 2.72 91.78 2.72
Z
M137.02 3.28
C137.42 3.28 137.73 3.40 137.96 3.63
C138.19 3.86 138.30 4.18 138.30 4.58
C138.30 4.89 138.24 5.16 138.11 5.41
C137.99 5.65 137.70 5.98 137.23 6.40
L136.28 5.61
C136.09 5.42 135.94 5.23 135.84 5.03
C135.74 4.83 135.68 4.63 135.68 4.43
C135.68 4.12 135.81 3.85 136.06 3.62
C136.30 3.39 136.63 3.28 137.02 3.28
Z
M124.60 7.88
L124.60 8.76
L127.60 8.76
L127.60 7.88
Z
M96.17 5.79
C96.48 5.79 96.74 5.91 96.93 6.17
C97.20 6.52 97.33 7.00 97.33 7.62
C97.33 8.09 97.24 8.44 97.05 8.66
C96.86 8.88 96.62 8.99 96.32 8.99
C96.01 8.99 95.76 8.86 95.56 8.61
C95.29 8.27 95.16 7.79 95.16 7.18
C95.16 6.71 95.26 6.36 95.45 6.13
C95.64 5.90 95.88 5.79 96.17 5.79
Z
M136.59 7.24
C137.43 7.90 137.98 8.44 138.26 8.85
C138.41 9.07 138.48 9.32 138.48 9.60
C138.48 9.94 138.35 10.22 138.10 10.46
C137.85 10.70 137.52 10.81 137.10 10.81
C136.67 10.81 136.33 10.66 136.05 10.36
C135.78 10.06 135.64 9.66 135.64 9.16
C135.64 8.79 135.72 8.45 135.88 8.13
C136.03 7.81 136.27 7.51 136.59 7.24
Z
M83.63 3.11
L83.63 3.32
L83.91 3.32
C84.10 3.32 84.27 3.37 84.44 3.46
C84.56 3.53 84.64 3.61 84.68 3.71
C84.73 3.84 84.75 4.10 84.75 4.50
L84.75 9.59
C84.75 10.07 84.71 10.36 84.61 10.49
C84.47 10.68 84.23 10.77 83.91 10.77
L83.63 10.77
L83.63 10.99
L87.01 10.99
L87.01 10.77
L86.73 10.77
C86.54 10.77 86.36 10.73 86.19 10.63
C86.07 10.56 85.98 10.48 85.95 10.38
C85.90 10.26 85.87 9.99 85.87 9.59
L85.87 7.12
L87.31 7.12
C87.57 7.12 87.77 7.15 87.90 7.22
C88.04 7.30 88.14 7.40 88.22 7.55
C88.29 7.69 88.33 7.92 88.34 8.22
L88.55 8.22
L88.55 5.55
L88.34 5.55
C88.28 5.98 88.18 6.27 88.03 6.42
C87.88 6.56 87.64 6.63 87.31 6.63
L85.87 6.63
L85.87 3.54
L87.61 3.54
C88.02 3.54 88.32 3.58 88.52 3.65
C88.71 3.73 88.88 3.86 89.01 4.03
C89.15 4.20 89.26 4.47 89.36 4.84
L89.57 4.84
L89.49 3.11
Z
M92.01 5.51
L90.40 6.16
L90.49 6.37
C90.64 6.31 90.77 6.28 90.88 6.28
C90.98 6.28 91.06 6.30 91.12 6.35
C91.18 6.40 91.22 6.49 91.25 6.61
C91.28 6.78 91.30 7.16 91.30 7.73
L91.30 9.79
C91.30 10.11 91.27 10.34 91.22 10.45
C91.17 10.57 91.10 10.65 91.01 10.70
C90.92 10.75 90.75 10.78 90.49 10.78
L90.49 10.99
L93.07 10.99
L93.07 10.78
C92.82 10.78 92.65 10.75 92.55 10.70
C92.46 10.64 92.39 10.56 92.34 10.45
C92.29 10.34 92.27 10.12 92.27 9.79
L92.27 5.51
Z
M108.58 2.94
L106.66 3.88
L106.75 4.06
C107.01 3.94 107.21 3.88 107.35 3.88
C107.45 3.88 107.54 3.91 107.61 3.97
C107.68 4.02 107.73 4.12 107.76 4.24
C107.80 4.40 107.82 4.77 107.82 5.34
L107.82 9.60
C107.82 10.07 107.79 10.36 107.75 10.45
C107.71 10.55 107.63 10.62 107.52 10.68
C107.42 10.73 107.18 10.77 106.80 10.77
L106.80 10.99
L109.77 10.99
L109.77 10.77
C109.41 10.77 109.18 10.73 109.06 10.67
C108.94 10.62 108.87 10.53 108.83 10.42
C108.79 10.32 108.77 10.04 108.77 9.60
L108.77 2.94
Z
M121.48 2.94
L119.56 3.88
L119.65 4.06
C119.90 3.94 120.10 3.88 120.24 3.88
C120.34 3.88 120.43 3.91 120.50 3.97
C120.57 4.02 120.62 4.12 120.65 4.24
C120.69 4.40 120.71 4.77 120.71 5.34
L120.71 9.60
C120.71 10.07 120.69 10.36 120.65 10.45
C120.60 10.55 120.53 10.62 120.42 10.68
C120.31 10.73 120.07 10.77 119.70 10.77
L119.70 10.99
L122.66 10.99
L122.66 10.77
C122.31 10.77 122.07 10.73 121.95 10.67
C121.84 10.62 121.76 10.53 121.72 10.42
C121.69 10.32 121.67 10.04 121.67 9.60
L121.67 2.94
Z
M131.39 2.94
L129.48 3.88
L129.56 4.06
C129.82 3.94 130.02 3.88 130.16 3.88
C130.26 3.88 130.35 3.91 130.42 3.97
C130.49 4.02 130.54 4.12 130.57 4.24
C130.61 4.40 130.63 4.77 130.63 5.34
L130.63 9.60
C130.63 10.07 130.61 10.36 130.56 10.45
C130.52 10.55 130.44 10.62 130.34 10.68
C130.23 10.73 129.99 10.77 129.62 10.77
L129.62 10.99
L132.58 10.99
L132.58 10.77
C132.22 10.77 131.99 10.73 131.87 10.67
C131.75 10.62 131.68 10.53 131.64 10.42
C131.60 10.32 131.59 10.04 131.59 9.60
L131.59 2.94
Z
M137.01 2.94
C136.35 2.94 135.83 3.13 135.43 3.50
C135.04 3.87 134.84 4.31 134.84 4.82
C134.84 5.15 134.93 5.48 135.11 5.79
C135.29 6.10 135.69 6.51 136.32 7.02
C135.74 7.43 135.34 7.81 135.11 8.15
C134.87 8.50 134.75 8.84 134.75 9.19
C134.75 9.64 134.92 10.05 135.25 10.42
C135.67 10.89 136.26 11.13 137.00 11.13
C137.69 11.13 138.24 10.93 138.67 10.54
C139.09 10.14 139.30 9.67 139.30 9.12
C139.30 8.68 139.15 8.26 138.86 7.87
C138.64 7.56 138.19 7.15 137.50 6.62
C138.17 6.21 138.60 5.85 138.81 5.54
C139.02 5.24 139.13 4.94 139.13 4.64
C139.13 4.20 138.93 3.81 138.54 3.46
C138.16 3.12 137.65 2.94 137.01 2.94
Z
M100.80 9.86
C100.63 9.86 100.47 9.92 100.35 10.05
C100.22 10.17 100.16 10.32 100.16 10.51
C100.16 10.68 100.22 10.84 100.35 10.96
C100.47 11.09 100.63 11.15 100.80 11.15
C100.98 11.15 101.14 11.09 101.26 10.96
C101.39 10.84 101.45 10.68 101.45 10.51
C101.45 10.33 101.39 10.18 101.26 10.05
C101.14 9.92 100.99 9.86 100.80 9.86
Z
M95.10 10.99
C95.57 11.05 96.24 11.10 97.11 11.12
C97.71 11.14 98.11 11.19 98.31 11.27
C98.51 11.36 98.61 11.50 98.61 11.70
C98.61 11.98 98.44 12.25 98.11 12.49
C97.78 12.74 97.26 12.86 96.57 12.86
C95.83 12.86 95.27 12.74 94.89 12.50
C94.66 12.36 94.55 12.20 94.55 12.01
C94.55 11.87 94.60 11.71 94.69 11.54
C94.78 11.37 94.92 11.19 95.10 10.99
Z
M117.90 2.72
C116.94 3.15 116.17 3.86 115.58 4.85
C114.98 5.84 114.69 6.93 114.69 8.13
C114.69 8.96 114.84 9.75 115.14 10.51
C115.44 11.28 115.87 11.94 116.43 12.50
C116.82 12.90 117.31 13.24 117.90 13.54
L117.90 13.32
C117.50 13.05 117.19 12.76 116.95 12.47
C116.70 12.17 116.51 11.86 116.37 11.53
C116.22 11.21 116.10 10.78 116.00 10.24
C115.87 9.57 115.81 8.81 115.81 7.98
C115.81 7.22 115.88 6.49 116.04 5.79
C116.19 5.08 116.42 4.51 116.72 4.05
C117.03 3.59 117.42 3.23 117.90 2.97
L117.90 2.72
Z
M140.25 2.72
L140.25 2.97
C140.65 3.24 140.97 3.52 141.21 3.82
C141.45 4.12 141.64 4.43 141.79 4.75
C141.93 5.07 142.05 5.50 142.15 6.04
C142.28 6.72 142.34 7.47 142.34 8.30
C142.34 9.06 142.27 9.79 142.12 10.50
C141.97 11.20 141.74 11.78 141.43 12.24
C141.12 12.69 140.73 13.05 140.25 13.32
L140.25 13.54
C141.21 13.11 141.98 12.40 142.58 11.41
C143.17 10.42 143.46 9.32 143.46 8.12
C143.46 7.30 143.31 6.50 143.01 5.74
C142.71 4.98 142.28 4.32 141.72 3.75
C141.33 3.36 140.84 3.01 140.25 2.72
Z
M96.27 5.51
C95.65 5.51 95.14 5.70 94.74 6.08
C94.35 6.46 94.15 6.91 94.15 7.44
C94.15 7.78 94.24 8.10 94.41 8.38
C94.58 8.67 94.83 8.89 95.16 9.05
C94.76 9.38 94.51 9.64 94.40 9.82
C94.29 10.00 94.23 10.16 94.23 10.30
C94.23 10.42 94.27 10.52 94.35 10.62
C94.44 10.71 94.58 10.82 94.78 10.94
C94.41 11.33 94.22 11.54 94.19 11.57
C93.98 11.83 93.85 12.03 93.78 12.17
C93.74 12.26 93.72 12.35 93.72 12.45
C93.72 12.66 93.86 12.86 94.15 13.05
C94.67 13.39 95.30 13.56 96.05 13.56
C97.02 13.56 97.81 13.28 98.42 12.71
C98.83 12.33 99.03 11.92 99.03 11.48
C99.03 11.16 98.92 10.89 98.71 10.67
C98.49 10.46 98.21 10.32 97.85 10.27
C97.61 10.24 97.09 10.21 96.29 10.19
C95.86 10.18 95.59 10.17 95.48 10.15
C95.29 10.12 95.17 10.08 95.10 10.02
C95.04 9.96 95.01 9.89 95.01 9.83
C95.01 9.75 95.04 9.65 95.10 9.54
C95.16 9.43 95.27 9.30 95.44 9.16
C95.72 9.24 95.99 9.27 96.25 9.27
C96.89 9.27 97.40 9.10 97.78 8.74
C98.16 8.39 98.35 7.97 98.35 7.47
C98.35 7.04 98.24 6.68 98.03 6.40
L98.72 6.40
C98.88 6.40 98.98 6.40 99.01 6.38
C99.04 6.37 99.06 6.36 99.07 6.34
C99.09 6.30 99.10 6.23 99.10 6.13
C99.10 6.04 99.09 5.98 99.07 5.94
C99.05 5.92 99.04 5.90 99.01 5.89
C98.98 5.88 98.88 5.88 98.72 5.88
L97.59 5.88
C97.22 5.63 96.78 5.51 96.27 5.51
Z
" fill="black" fill-rule="nonzero" />
</g>
</g>
</svg>
