<?xml version="1.0" encoding="utf-8" standalone="no"?>
<!DOCTYPE svg PUBLIC "-//W3C//DTD SVG 1.0//EN" "http://www.w3.org/TR/SVG/DTD/svg11.dtd" >
<svg version="1.1" baseProfile="full"  width="319.13385" height="338.46454" viewBox="0 0 229.77638 243.69449" preserveAspectRatio="xMidYMid" xmlns="http://www.w3.org/2000/svg" >

<g lengthAdjust="spacingAndGlyphs" xml:space='preserve' >
<g  transform="translate(1.19,1.19)" >
<path d="
M0.0 0.0
L0.0 227.39
L227.39 227.39
L227.39 0.0
Z
" fill="none" fill-rule="nonzero" />
<line x1="6.54" y1="6.54" x2="6.54" y2="220.84" fill="none" stroke="black" stroke-width="0.87px" stroke-linecap="square" />
<line x1="18.45" y1="6.54" x2="18.45" y2="220.84" fill="none" stroke="black" stroke-width="0.25px" stroke-linecap="butt" />
<line x1="30.35" y1="6.54" x2="30.35" y2="220.84" fill="none" stroke="black" stroke-width="0.25px" stroke-linecap="butt" />
<line x1="42.26" y1="6.54" x2="42.26" y2="220.84" fill="none" stroke="black" stroke-width="0.25px" stroke-linecap="butt" />
<line x1="54.17" y1="6.54" x2="54.17" y2="220.84" fill="none" stroke="black" stroke-width="0.25px" stroke-linecap="butt" />
<line x1="66.07" y1="6.54" x2="66.07" y2="220.84" fill="none" stroke="black" stroke-width="0.25px" stroke-linecap="butt" />
<line x1="77.98" y1="6.54" x2="77.98" y2="220.84" fill="none" stroke="black" stroke-width="0.25px" stroke-linecap="butt" />
<line x1="89.88" y1="6.54" x2="89.88" y2="220.84" fill="none" stroke="black" stroke-width="0.25px" stroke-linecap="butt" />
<line x1="101.79" y1="6.54" x2="101.79" y2="220.84" fill="none" stroke="black" stroke-width="0.25px" stroke-linecap="butt" />
<line x1="113.69" y1="6.54" x2="113.69" y2="220.84" fill="none" stroke="black" stroke-width="0.25px" stroke-linecap="butt" />
<line x1="125.60" y1="6.54" x2="125.60" y2="220.84" fill="none" stroke="black" stroke-width="0.25px" stroke-linecap="butt" />
<line x1="137.50" y1="6.54" x2="137.50" y2="220.84" fill="none" stroke="black" stroke-width="0.25px" stroke-linecap="butt" />
<line x1="149.41" y1="6.54" x2="149.41" y2="220.84" fill="none" stroke="black" stroke-width="0.25px" stroke-linecap="butt" />
<line x1="161.31" y1="6.54" x2="161.31" y2="220.84" fill="none" stroke="black" stroke-width="0.25px" stroke-linecap="butt" />
<line x1="173.22" y1="6.54" x2="173.22" y2="220.84" fill="none" stroke="black" stroke-width="0.25px" stroke-linecap="butt" />
<line x1="185.13" y1="6.54" x2="185.13" y2="95.83" fill="none" stroke="black" stroke-width="0.25px" stroke-linecap="butt" />
<line x1="185.13" y1="107.74" x2="185.13" y2="220.84" fill="none" stroke="black" stroke-width="0.25px" stroke-linecap="butt" />
<line x1="197.03" y1="6.54" x2="197.03" y2="220.84" fill="none" stroke="black" stroke-width="0.25px" stroke-linecap="butt" />
<line x1="208.94" y1="6.54" x2="208.94" y2="220.84" fill="none" stroke="black" stroke-width="0.25px" stroke-linecap="butt" />
<line x1="220.84" y1="6.54" x2="220.84" y2="220.84" fill="none" stroke="black" stroke-width="0.87px" stroke-linecap="square" />
<line x1="6.54" y1="6.54" x2="220.84" y2="6.54" fill="none" stroke="black" stroke-width="0.87px" stroke-linecap="square" />
<line x1="6.54" y1="18.45" x2="220.84" y2="18.45" fill="none" stroke="black" stroke-width="0.25px" stroke-linecap="butt" />
<line x1="6.54" y1="30.35" x2="220.84" y2="30.35" fill="none" stroke="black" stroke-width="0.25px" stroke-linecap="butt" />
<line x1="6.54" y1="42.26" x2="220.84" y2="42.26" fill="none" stroke="black" stroke-width="0.25px" stroke-linecap="butt" />
<line x1="6.54" y1="54.17" x2="220.84" y2="54.17" fill="none" stroke="black" stroke-width="0.25px" stroke-linecap="butt" />
<line x1="6.54" y1="66.07" x2="220.84" y2="66.07" fill="none" stroke="black" stroke-width="0.25px" stroke-linecap="butt" />
<line x1="6.54" y1="77.98" x2="220.84" y2="77.98" fill="none" stroke="black" stroke-width="0.25px" stroke-linecap="butt" />
<line x1="6.54" y1="89.88" x2="220.84" y2="89.88" fill="none" stroke="black" stroke-width="0.25px" stroke-linecap="butt" />
<line x1="6.54" y1="101.79" x2="179.17" y2="101.79" fill="none" stroke="black" stroke-width="0.25px" stroke-linecap="butt" />
<line x1="191.08" y1="101.79" x2="220.84" y2="101.79" fill="none" stroke="black" stroke-width="0.25px" stroke-linecap="butt" />
<line x1="6.54" y1="113.69" x2="220.84" y2="113.69" fill="none" stroke="black" stroke-width="0.25px" stroke-linecap="butt" />
<line x1="6.54" y1="125.60" x2="220.84" y2="125.60" fill="none" stroke="black" stroke-width="0.25px" stroke-linecap="butt" />
<line x1="6.54" y1="137.50" x2="220.84" y2="137.50" fill="none" stroke="black" stroke-width="0.25px" stroke-linecap="butt" />
<line x1="6.54" y1="149.41" x2="220.84" y2="149.41" fill="none" stroke="black" stroke-width="0.25px" stroke-linecap="butt" />
<line x1="6.54" y1="161.31" x2="220.84" y2="161.31" fill="none" stroke="black" stroke-width="0.25px" stroke-linecap="butt" />
<line x1="6.54" y1="173.22" x2="220.84" y2="173.22" fill="none" stroke="black" stroke-width="0.25px" stroke-linecap="butt" />
<line x1="6.54" y1="185.13" x2="220.84" y2="185.13" fill="none" stroke="black" stroke-width="0.25px" stroke-linecap="butt" />
<line x1="6.54" y1="197.03" x2="220.84" y2="197.03" fill="none" stroke="black" stroke-width="0.25px" stroke-linecap="butt" />
<line x1="6.54" y1="208.94" x2="220.84" y2="208.94" fill="none" stroke="black" stroke-width="0.25px" stroke-linecap="butt" />
<line x1="6.54" y1="220.84" x2="220.84" y2="220.84" fill="none" stroke="black" stroke-width="0.87px" stroke-linecap="square" />
<circle cx="30.35" cy="54.17" r="5.98" fill="black"/>
<circle cx="30.35" cy="77.98" r="5.85" fill="white"/>
<circle cx="30.35" cy="77.98" r="5.85" fill="none" stroke="black" stroke-width="0.25px"/>
<circle cx="30.35" cy="89.88" r="5.85" fill="white"/>
<circle cx="30.35" cy="89.88" r="5.85" fill="none" stroke="black" stroke-width="0.25px"/>
<circle cx="30.35" cy="125.60" r="5.85" fill="white"/>
<circle cx="30.35" cy="125.60" r="5.85" fill="none" stroke="black" stroke-width="0.25px"/>
<circle cx="30.35" cy="161.31" r="5.85" fill="white"/>
<circle cx="30.35" cy="161.31" r="5.85" fill="none" stroke="black" stroke-width="0.25px"/>
<circle cx="30.35" cy="173.22" r="5.85" fill="white"/>
<circle cx="30.35" cy="173.22" r="5.85" fill="none" stroke="black" stroke-width="0.25px"/>
<circle cx="30.35" cy="185.13" r="5.98" fill="black"/>
<circle cx="42.26" cy="30.35" r="5.85" fill="white"/>
<circle cx="42.26" cy="30.35" r="5.85" fill="none" stroke="black" stroke-width="0.25px"/>
<circle cx="42.26" cy="42.26" r="1.27" fill="black"/>
<circle cx="42.26" cy="77.98" r="5.85" fill="white"/>
<circle cx="42.26" cy="77.98" r="5.85" fill="none" stroke="black" stroke-width="0.25px"/>
<circle cx="42.26" cy="89.88" r="5.98" fill="black"/>
<circle cx="42.26" cy="101.79" r="5.85" fill="white"/>
<circle cx="42.26" cy="101.79" r="5.85" fill="none" stroke="black" stroke-width="0.25px"/>
<circle cx="42.26" cy="113.69" r="5.85" fill="white"/>
<circle cx="42.26" cy="113.69" r="5.85" fill="none" stroke="black" stroke-width="0.25px"/>
<circle cx="42.26" cy="149.41" r="5.85" fill="white"/>
<circle cx="42.26" cy="149.41" r="5.85" fill="none" stroke="black" stroke-width="0.25px"/>
<circle cx="42.26" cy="161.31" r="5.98" fill="black"/>
<circle cx="42.26" cy="185.13" r="5.98" fill="black"/>
<circle cx="54.17" cy="66.07" r="5.98" fill="black"/>
<circle cx="54.17" cy="77.98" r="5.98" fill="black"/>
<circle cx="54.17" cy="89.88" r="5.98" fill="black"/>
<circle cx="54.17" cy="101.79" r="5.98" fill="black"/>
<circle cx="54.17" cy="161.31" r="5.98" fill="black"/>
<circle cx="66.07" cy="125.60" r="5.98" fill="black"/>
<circle cx="66.07" cy="137.50" r="5.98" fill="black"/>
<circle cx="66.07" cy="197.03" r="5.98" fill="black"/>
<circle cx="77.98" cy="30.35" r="5.85" fill="white"/>
<circle cx="77.98" cy="30.35" r="5.85" fill="none" stroke="black" stroke-width="0.25px"/>
<circle cx="77.98" cy="113.69" r="5.85" fill="white"/>
<circle cx="77.98" cy="113.69" r="5.85" fill="none" stroke="black" stroke-width="0.25px"/>
<circle cx="77.98" cy="125.60" r="5.85" fill="white"/>
<circle cx="77.98" cy="125.60" r="5.85" fill="none" stroke="black" stroke-width="0.25px"/>
<circle cx="77.98" cy="137.50" r="5.98" fill="black"/>
<circle cx="89.88" cy="101.79" r="5.98" fill="black"/>
<circle cx="89.88" cy="113.69" r="5.98" fill="black"/>
<circle cx="89.88" cy="125.60" r="5.98" fill="black"/>
<circle cx="89.88" cy="137.50" r="5.85" fill="white"/>
<circle cx="89.88" cy="137.50" r="5.85" fill="none" stroke="black" stroke-width="0.25px"/>
<circle cx="89.88" cy="149.41" r="5.85" fill="white"/>
<circle cx="89.88" cy="149.41" r="5.85" fill="none" stroke="black" stroke-width="0.25px"/>
<circle cx="89.88" cy="161.31" r="5.98" fill="black"/>
<circle cx="89.88" cy="185.13" r="5.85" fill="white"/>
<circle cx="89.88" cy="185.13" r="5.85" fill="none" stroke="black" stroke-width="0.25px"/>
<circle cx="101.79" cy="42.26" r="5.98" fill="black"/>
<circle cx="101.79" cy="113.69" r="5.85" fill="white"/>
<circle cx="101.79" cy="113.69" r="5.85" fill="none" stroke="black" stroke-width="0.25px"/>
<circle cx="101.79" cy="125.60" r="5.85" fill="white"/>
<circle cx="101.79" cy="125.60" r="5.85" fill="none" stroke="black" stroke-width="0.25px"/>
<circle cx="101.79" cy="137.50" r="5.98" fill="black"/>
<circle cx="101.79" cy="149.41" r="5.98" fill="black"/>
<circle cx="101.79" cy="185.13" r="5.85" fill="white"/>
<circle cx="101.79" cy="185.13" r="5.85" fill="none" stroke="black" stroke-width="0.25px"/>
<circle cx="101.79" cy="197.03" r="5.98" fill="black"/>
<circle cx="113.69" cy="30.35" r="5.85" fill="white"/>
<circle cx="113.69" cy="30.35" r="5.85" fill="none" stroke="black" stroke-width="0.25px"/>
<circle cx="113.69" cy="42.26" r="5.85" fill="white"/>
<circle cx="113.69" cy="42.26" r="5.85" fill="none" stroke="black" stroke-width="0.25px"/>
<circle cx="113.69" cy="54.17" r="5.85" fill="white"/>
<circle cx="113.69" cy="54.17" r="5.85" fill="none" stroke="black" stroke-width="0.25px"/>
<circle cx="113.69" cy="77.98" r="5.98" fill="black"/>
<circle cx="113.69" cy="113.69" r="1.27" fill="black"/>
<circle cx="113.69" cy="137.50" r="5.85" fill="white"/>
<circle cx="113.69" cy="137.50" r="5.85" fill="none" stroke="black" stroke-width="0.25px"/>
<circle cx="113.69" cy="161.31" r="5.98" fill="black"/>
<circle cx="113.69" cy="185.13" r="1.27" fill="black"/>
<circle cx="113.69" cy="208.94" r="5.98" fill="black"/>
<circle cx="125.60" cy="18.45" r="5.85" fill="white"/>
<circle cx="125.60" cy="18.45" r="5.85" fill="none" stroke="black" stroke-width="0.25px"/>
<circle cx="125.60" cy="66.07" r="5.85" fill="white"/>
<circle cx="125.60" cy="66.07" r="5.85" fill="none" stroke="black" stroke-width="0.25px"/>
<circle cx="125.60" cy="113.69" r="5.98" fill="black"/>
<circle cx="125.60" cy="149.41" r="5.85" fill="white"/>
<circle cx="125.60" cy="149.41" r="5.85" fill="none" stroke="black" stroke-width="0.25px"/>
<circle cx="125.60" cy="161.31" r="5.85" fill="white"/>
<circle cx="125.60" cy="161.31" r="5.85" fill="none" stroke="black" stroke-width="0.25px"/>
<circle cx="125.60" cy="197.03" r="5.85" fill="white"/>
<circle cx="125.60" cy="197.03" r="5.85" fill="none" stroke="black" stroke-width="0.25px"/>
<circle cx="125.60" cy="208.94" r="5.85" fill="white"/>
<circle cx="125.60" cy="208.94" r="5.85" fill="none" stroke="black" stroke-width="0.25px"/>
<circle cx="137.50" cy="18.45" r="5.98" fill="black"/>
<circle cx="137.50" cy="30.35" r="5.98" fill="black"/>
<circle cx="137.50" cy="54.17" r="5.98" fill="black"/>
<circle cx="137.50" cy="185.13" r="5.85" fill="white"/>
<circle cx="137.50" cy="185.13" r="5.85" fill="none" stroke="black" stroke-width="0.25px"/>
<circle cx="149.41" cy="77.98" r="5.98" fill="black"/>
<circle cx="149.41" cy="113.69" r="5.85" fill="white"/>
<circle cx="149.41" cy="113.69" r="5.85" fill="none" stroke="black" stroke-width="0.25px"/>
<circle cx="149.41" cy="137.50" r="5.85" fill="white"/>
<circle cx="149.41" cy="137.50" r="5.85" fill="none" stroke="black" stroke-width="0.25px"/>
<circle cx="149.41" cy="149.41" r="5.98" fill="black"/>
<circle cx="149.41" cy="173.22" r="5.85" fill="white"/>
<circle cx="149.41" cy="173.22" r="5.85" fill="none" stroke="black" stroke-width="0.25px"/>
<circle cx="149.41" cy="197.03" r="5.98" fill="black"/>
<circle cx="173.22" cy="89.88" r="5.98" fill="black"/>
<circle cx="173.22" cy="113.69" r="5.98" fill="black"/>
<circle cx="173.22" cy="185.13" r="5.85" fill="white"/>
<circle cx="173.22" cy="185.13" r="5.85" fill="none" stroke="black" stroke-width="0.25px"/>
<circle cx="185.13" cy="30.35" r="5.98" fill="black"/>
<circle cx="185.13" cy="42.26" r="5.98" fill="black"/>
<circle cx="185.13" cy="113.69" r="1.27" fill="black"/>
<circle cx="185.13" cy="161.31" r="5.85" fill="white"/>
<circle cx="185.13" cy="161.31" r="5.85" fill="none" stroke="black" stroke-width="0.25px"/>
<circle cx="185.13" cy="185.13" r="1.27" fill="black"/>
<circle cx="185.13" cy="197.03" r="5.85" fill="white"/>
<circle cx="185.13" cy="197.03" r="5.85" fill="none" stroke="black" stroke-width="0.25px"/>
<circle cx="197.03" cy="89.88" r="5.98" fill="black"/>
<circle cx="197.03" cy="113.69" r="5.85" fill="white"/>
<circle cx="197.03" cy="113.69" r="5.85" fill="none" stroke="black" stroke-width="0.25px"/>
<circle cx="197.03" cy="125.60" r="5.85" fill="white"/>
<circle cx="197.03" cy="125.60" r="5.85" fill="none" stroke="black" stroke-width="0.25px"/>
<circle cx="197.03" cy="137.50" r="5.85" fill="white"/>
<circle cx="197.03" cy="137.50" r="5.85" fill="none" stroke="black" stroke-width="0.25px"/>
<circle cx="197.03" cy="149.41" r="5.85" fill="white"/>
<circle cx="197.03" cy="149.41" r="5.85" fill="none" stroke="black" stroke-width="0.25px"/>
<circle cx="197.03" cy="173.22" r="5.98" fill="black"/>
<circle cx="208.94" cy="113.69" r="5.98" fill="black"/>
<circle cx="208.94" cy="125.60" r="5.98" fill="black"/>
<circle cx="208.94" cy="137.50" r="5.98" fill="black"/>
<circle cx="208.94" cy="149.41" r="5.85" fill="white"/>
<circle cx="208.94" cy="149.41" r="5.85" fill="none" stroke="black" stroke-width="0.25px"/>
<path d="
M64.27 137.31
C64.47 137.31 64.64 137.43 64.79 137.66
C64.95 137.92 65.03 138.28 65.03 138.76
C65.03 139.25 64.95 139.63 64.79 139.90
C64.64 140.15 64.48 140.28 64.31 140.28
C64.30 140.28 64.30 140.28 64.30 140.28
C64.30 140.28 64.30 140.28 64.30 140.28
C64.10 140.28 63.91 140.14 63.75 139.87
C63.57 139.59 63.48 139.20 63.48 138.71
C63.48 138.26 63.56 137.92 63.73 137.66
C63.89 137.43 64.06 137.31 64.26 137.31
C64.26 137.31 64.26 137.31 64.26 137.31
C64.26 137.31 64.27 137.31 64.27 137.31
Z
M64.35 133.72
C64.07 133.72 63.82 133.81 63.60 133.97
C63.38 134.13 63.19 134.36 63.02 134.67
C62.69 135.28 62.53 136.28 62.53 137.68
C62.53 138.95 62.69 139.86 63.01 140.41
C63.17 140.70 63.36 140.91 63.57 141.06
C63.79 141.20 64.03 141.28 64.30 141.28
C64.59 141.28 64.86 141.18 65.11 140.97
C65.35 140.77 65.54 140.46 65.69 140.05
C65.83 139.65 65.90 139.20 65.90 138.71
C65.90 137.98 65.76 137.39 65.46 136.95
C65.16 136.49 64.80 136.26 64.38 136.25
C64.12 136.25 63.88 136.35 63.65 136.53
C63.56 136.60 63.48 136.69 63.40 136.79
C63.43 136.20 63.51 135.74 63.64 135.41
C63.74 135.17 63.84 135.00 63.96 134.88
C64.07 134.78 64.18 134.73 64.31 134.73
C64.31 134.73 64.31 134.73 64.31 134.73
C64.32 134.73 64.32 134.73 64.32 134.73
C64.48 134.73 64.63 134.82 64.75 135.00
C64.84 135.14 64.92 135.38 64.97 135.73
L64.99 135.86
L65.12 135.85
L65.69 135.78
L65.83 135.76
L65.82 135.63
C65.76 135.02 65.61 134.56 65.35 134.23
C65.08 133.89 64.75 133.72 64.35 133.72
Z
M67.80 133.72
C67.40 133.72 67.06 133.90 66.77 134.24
C66.50 134.57 66.33 135.06 66.25 135.69
L66.24 135.82
L66.36 135.85
L66.93 136.00
L67.09 136.05
L67.11 135.88
C67.14 135.47 67.23 135.18 67.37 134.98
C67.49 134.81 67.64 134.73 67.81 134.73
C67.81 134.73 67.81 134.73 67.81 134.73
C67.81 134.73 67.81 134.73 67.81 134.73
C67.98 134.73 68.12 134.81 68.24 134.97
C68.37 135.15 68.43 135.39 68.43 135.69
C68.43 136.02 68.35 136.28 68.20 136.47
C68.05 136.65 67.86 136.74 67.63 136.74
L67.63 136.74
L67.55 136.74
L67.40 136.72
L67.39 136.86
L67.32 137.63
L67.30 137.86
L67.52 137.78
C67.66 137.72 67.78 137.69 67.87 137.69
C67.87 137.69 67.87 137.69 67.87 137.69
C67.87 137.69 67.87 137.69 67.87 137.69
C68.08 137.69 68.26 137.80 68.40 138.01
C68.56 138.24 68.64 138.54 68.64 138.93
C68.64 139.34 68.55 139.67 68.38 139.92
C68.22 140.16 68.03 140.28 67.82 140.28
C67.82 140.28 67.82 140.28 67.82 140.28
C67.81 140.28 67.81 140.28 67.81 140.28
C67.62 140.28 67.47 140.18 67.34 139.99
C67.21 139.78 67.11 139.45 67.05 139.00
L67.03 138.85
L66.88 138.88
L66.31 139.00
L66.19 139.02
L66.19 139.15
C66.23 139.79 66.40 140.30 66.70 140.68
C67.00 141.08 67.38 141.28 67.82 141.28
C68.30 141.28 68.71 141.06 69.05 140.60
C69.37 140.16 69.54 139.60 69.54 138.91
C69.54 138.59 69.50 138.30 69.42 138.04
C69.34 137.77 69.23 137.55 69.10 137.39
C69.01 137.28 68.90 137.19 68.79 137.12
L68.79 137.12
C68.92 136.99 69.04 136.82 69.12 136.63
C69.25 136.36 69.31 136.06 69.31 135.71
C69.31 135.15 69.16 134.68 68.88 134.30
C68.59 133.92 68.23 133.72 67.80 133.72
Z
" fill="white" fill-rule="nonzero" />
<path d="
M76.17 113.36
C76.42 113.36 76.64 113.50 76.81 113.78
C76.99 114.06 77.08 114.45 77.08 114.95
C77.08 115.47 76.99 115.87 76.81 116.17
C76.63 116.46 76.43 116.61 76.21 116.61
C75.95 116.61 75.73 116.45 75.53 116.14
C75.34 115.83 75.24 115.41 75.24 114.90
C75.24 114.43 75.33 114.05 75.52 113.78
C75.70 113.50 75.92 113.36 76.17 113.36
Z
M79.74 110.78
C80.02 110.78 80.25 110.98 80.43 111.37
C80.60 111.76 80.69 112.54 80.69 113.70
C80.69 114.84 80.60 115.61 80.43 116.01
C80.25 116.41 80.03 116.61 79.77 116.61
C79.49 116.61 79.27 116.41 79.09 116.02
C78.91 115.63 78.82 114.85 78.82 113.70
C78.82 112.55 78.91 111.78 79.09 111.38
C79.26 110.98 79.48 110.78 79.74 110.78
Z
M76.25 110.06
C75.76 110.06 75.36 110.35 75.05 110.93
C74.74 111.52 74.58 112.50 74.58 113.87
C74.58 115.12 74.73 116.00 75.04 116.53
C75.34 117.06 75.73 117.33 76.20 117.33
C76.47 117.33 76.71 117.24 76.92 117.05
C77.14 116.87 77.32 116.58 77.46 116.19
C77.60 115.81 77.67 115.38 77.67 114.90
C77.67 114.20 77.53 113.64 77.25 113.22
C76.98 112.80 76.65 112.59 76.28 112.59
C76.06 112.59 75.85 112.67 75.65 112.83
C75.45 112.99 75.28 113.22 75.15 113.53
C75.15 112.66 75.24 112.00 75.41 111.55
C75.62 111.03 75.89 110.78 76.22 110.78
C76.43 110.78 76.62 110.89 76.77 111.12
C76.88 111.27 76.96 111.53 77.01 111.90
L77.58 111.83
C77.53 111.25 77.39 110.81 77.15 110.51
C76.91 110.21 76.61 110.06 76.25 110.06
Z
M79.76 110.06
C79.26 110.06 78.88 110.36 78.62 110.98
C78.37 111.59 78.24 112.50 78.24 113.70
C78.24 115.03 78.38 115.97 78.66 116.51
C78.95 117.06 79.31 117.33 79.76 117.33
C80.26 117.33 80.64 117.02 80.90 116.40
C81.16 115.79 81.28 114.88 81.28 113.70
C81.28 112.37 81.13 111.41 80.82 110.80
C80.56 110.31 80.21 110.06 79.76 110.06
Z
" fill="black" fill-rule="nonzero" />
<path d="
M79.77 122.68
C79.98 122.68 80.15 122.79 80.31 123.00
C80.46 123.21 80.53 123.48 80.53 123.82
C80.53 124.14 80.46 124.41 80.31 124.61
C80.16 124.81 79.99 124.92 79.78 124.92
C79.56 124.92 79.38 124.81 79.23 124.60
C79.08 124.40 79.01 124.12 79.01 123.77
C79.01 123.46 79.08 123.20 79.23 122.99
C79.38 122.78 79.56 122.68 79.77 122.68
Z
M79.76 125.63
C80.02 125.63 80.25 125.76 80.44 126.03
C80.63 126.30 80.72 126.65 80.72 127.09
C80.72 127.52 80.63 127.87 80.45 128.13
C80.26 128.39 80.04 128.52 79.78 128.52
C79.51 128.52 79.29 128.38 79.10 128.11
C78.91 127.85 78.82 127.50 78.82 127.06
C78.82 126.64 78.91 126.29 79.09 126.03
C79.28 125.76 79.50 125.63 79.76 125.63
Z
M75.16 122.09
L74.71 125.75
L75.25 125.85
C75.34 125.64 75.46 125.47 75.61 125.35
C75.76 125.22 75.92 125.16 76.10 125.16
C76.38 125.16 76.62 125.30 76.81 125.58
C77.00 125.86 77.10 126.26 77.10 126.77
C77.10 127.31 77.00 127.73 76.80 128.05
C76.61 128.36 76.37 128.52 76.10 128.52
C75.88 128.52 75.69 128.40 75.53 128.18
C75.36 127.96 75.26 127.62 75.21 127.17
L74.61 127.25
C74.65 127.87 74.80 128.36 75.08 128.71
C75.36 129.06 75.70 129.23 76.11 129.23
C76.59 129.23 76.98 128.99 77.27 128.49
C77.56 127.99 77.70 127.39 77.70 126.70
C77.70 125.99 77.56 125.43 77.27 125.02
C76.98 124.60 76.64 124.39 76.25 124.39
C75.94 124.39 75.65 124.54 75.37 124.84
L75.62 122.92
L77.48 122.92
L77.48 122.09
Z
M79.76 121.96
C79.38 121.96 79.06 122.13 78.80 122.47
C78.55 122.81 78.42 123.25 78.42 123.79
C78.42 124.15 78.48 124.45 78.60 124.69
C78.71 124.94 78.89 125.12 79.12 125.25
C78.84 125.36 78.62 125.57 78.47 125.88
C78.31 126.19 78.23 126.58 78.23 127.06
C78.23 127.71 78.38 128.23 78.67 128.63
C78.97 129.03 79.34 129.23 79.78 129.23
C80.21 129.23 80.58 129.03 80.87 128.63
C81.16 128.23 81.31 127.72 81.31 127.08
C81.31 126.62 81.24 126.24 81.08 125.93
C80.93 125.62 80.71 125.39 80.43 125.25
C80.66 125.12 80.84 124.93 80.95 124.69
C81.06 124.46 81.12 124.17 81.12 123.82
C81.12 123.28 80.99 122.83 80.73 122.48
C80.48 122.13 80.15 121.96 79.76 121.96
Z
" fill="black" fill-rule="nonzero" />
<path d="
M76.17 137.31
C76.37 137.31 76.55 137.43 76.69 137.66
C76.86 137.92 76.94 138.29 76.94 138.76
C76.94 139.25 76.85 139.63 76.69 139.91
C76.54 140.15 76.38 140.28 76.21 140.28
C76.21 140.28 76.21 140.28 76.21 140.28
C76.21 140.28 76.21 140.28 76.20 140.28
C76.00 140.28 75.82 140.15 75.65 139.88
C75.47 139.59 75.38 139.20 75.38 138.71
C75.38 138.27 75.47 137.92 75.64 137.67
C75.79 137.43 75.97 137.31 76.17 137.31
C76.17 137.31 76.17 137.31 76.17 137.31
C76.17 137.31 76.17 137.31 76.17 137.31
Z
M79.92 133.73
L79.89 133.82
C79.80 134.12 79.63 134.43 79.40 134.74
C79.17 135.06 78.90 135.32 78.59 135.54
L78.53 135.58
L78.53 135.65
L78.53 136.50
L78.53 136.74
L78.74 136.62
C78.94 136.52 79.15 136.36 79.39 136.15
C79.49 136.05 79.59 135.95 79.68 135.85
L79.68 135.85
L79.68 141.02
L79.68 141.16
L80.54 141.16
L80.54 141.02
L80.54 133.87
L80.54 133.73
Z
M76.25 133.73
C75.98 133.73 75.73 133.81 75.50 133.97
C75.28 134.13 75.09 134.37 74.92 134.68
C74.60 135.28 74.44 136.29 74.44 137.69
C74.44 138.95 74.60 139.86 74.92 140.41
C75.08 140.70 75.27 140.91 75.48 141.06
C75.70 141.21 75.94 141.28 76.20 141.28
C76.50 141.28 76.77 141.18 77.01 140.97
C77.25 140.77 77.44 140.46 77.59 140.05
C77.73 139.65 77.81 139.20 77.81 138.71
C77.81 137.98 77.66 137.39 77.37 136.95
C77.07 136.49 76.70 136.26 76.28 136.26
C76.03 136.26 75.79 136.35 75.56 136.53
C75.47 136.60 75.38 136.69 75.31 136.79
L75.31 136.79
C75.34 136.20 75.42 135.75 75.55 135.41
C75.64 135.18 75.75 135.00 75.87 134.88
C75.97 134.78 76.09 134.73 76.22 134.73
C76.22 134.73 76.22 134.73 76.22 134.73
C76.22 134.73 76.22 134.73 76.22 134.73
C76.39 134.73 76.53 134.82 76.65 135.01
C76.75 135.14 76.82 135.38 76.87 135.73
L76.89 135.87
L77.03 135.85
L77.60 135.78
L77.74 135.77
L77.72 135.63
C77.67 135.02 77.51 134.56 77.26 134.23
C76.99 133.90 76.65 133.73 76.25 133.73
Z
" fill="white" fill-rule="nonzero" />
<path d="
M91.68 99.02
C91.68 99.02 91.68 99.02 91.68 99.02
C91.68 99.02 91.68 99.02 91.68 99.02
C91.87 99.02 92.03 99.14 92.19 99.39
C92.35 99.66 92.44 100.03 92.44 100.51
C92.44 101.00 92.36 101.37 92.19 101.62
C92.05 101.86 91.87 101.97 91.67 101.97
C91.67 101.97 91.67 101.97 91.67 101.97
C91.67 101.97 91.67 101.97 91.67 101.97
C91.46 101.97 91.28 101.86 91.13 101.62
C90.96 101.37 90.87 101.02 90.87 100.58
C90.87 100.09 90.96 99.70 91.14 99.42
C91.31 99.15 91.48 99.02 91.68 99.02
Z
M88.08 101.60
C88.28 101.60 88.45 101.71 88.60 101.95
C88.76 102.20 88.84 102.57 88.84 103.05
C88.84 103.54 88.76 103.92 88.60 104.19
C88.45 104.44 88.29 104.56 88.12 104.56
C88.12 104.56 88.11 104.56 88.11 104.56
C88.11 104.56 88.11 104.56 88.11 104.56
C87.91 104.56 87.72 104.43 87.56 104.16
C87.38 103.87 87.29 103.48 87.29 102.99
C87.29 102.55 87.37 102.20 87.54 101.95
C87.70 101.71 87.87 101.60 88.07 101.60
C88.07 101.60 88.07 101.60 88.07 101.60
C88.08 101.60 88.08 101.60 88.08 101.60
Z
M88.16 98.01
C87.88 98.01 87.63 98.09 87.41 98.26
C87.19 98.41 87.00 98.65 86.83 98.96
C86.51 99.57 86.34 100.57 86.34 101.97
C86.34 103.24 86.50 104.14 86.82 104.70
C86.98 104.98 87.17 105.20 87.38 105.34
C87.60 105.49 87.84 105.57 88.11 105.57
C88.41 105.56 88.68 105.46 88.92 105.25
C89.16 105.05 89.35 104.75 89.50 104.34
C89.64 103.93 89.71 103.49 89.71 102.99
C89.71 102.26 89.57 101.68 89.28 101.23
C88.97 100.77 88.61 100.54 88.19 100.54
C87.93 100.54 87.69 100.63 87.46 100.81
C87.37 100.88 87.29 100.97 87.21 101.07
L87.21 101.07
C87.24 100.49 87.32 100.03 87.45 99.70
C87.55 99.46 87.65 99.28 87.77 99.17
C87.88 99.06 87.99 99.01 88.12 99.01
C88.12 99.01 88.12 99.01 88.12 99.01
C88.13 99.01 88.13 99.01 88.13 99.01
C88.29 99.01 88.44 99.10 88.56 99.29
C88.65 99.43 88.73 99.67 88.78 100.01
L88.80 100.15
L88.93 100.13
L89.51 100.06
L89.64 100.05
L89.63 99.91
C89.58 99.31 89.42 98.84 89.16 98.52
C88.89 98.18 88.56 98.01 88.16 98.01
Z
M91.62 98.01
C91.16 98.01 90.77 98.25 90.45 98.72
C90.15 99.17 90.00 99.78 90.00 100.56
C90.00 101.31 90.15 101.90 90.44 102.34
C90.74 102.80 91.11 103.03 91.54 103.03
C91.79 103.03 92.02 102.93 92.25 102.74
C92.34 102.67 92.42 102.59 92.49 102.49
L92.49 102.49
C92.47 102.89 92.42 103.24 92.34 103.55
C92.24 103.95 92.12 104.22 91.98 104.36
C91.85 104.50 91.71 104.56 91.56 104.56
C91.56 104.56 91.56 104.56 91.56 104.56
C91.56 104.56 91.55 104.56 91.55 104.56
C91.39 104.56 91.26 104.49 91.16 104.34
C91.04 104.17 90.96 103.91 90.92 103.56
L90.90 103.42
L90.76 103.44
L90.21 103.51
L90.08 103.53
L90.09 103.67
C90.14 104.27 90.29 104.73 90.54 105.06
C90.81 105.39 91.14 105.56 91.55 105.57
C91.90 105.56 92.21 105.43 92.49 105.15
C92.76 104.88 92.98 104.47 93.13 103.90
C93.28 103.35 93.36 102.58 93.36 101.59
C93.36 100.69 93.29 100.01 93.15 99.53
C93.00 99.04 92.79 98.66 92.53 98.41
C92.25 98.14 91.94 98.01 91.62 98.01
Z
" fill="white" fill-rule="nonzero" />
<path d="
M91.09 112.58
L91.09 112.58
L91.09 112.58
C91.09 112.58 91.09 112.58 91.09 112.58
Z
M88.08 113.50
C88.28 113.50 88.45 113.62 88.60 113.85
C88.76 114.11 88.84 114.48 88.84 114.95
C88.84 115.44 88.76 115.82 88.60 116.09
C88.45 116.34 88.29 116.47 88.12 116.47
C88.12 116.47 88.11 116.47 88.11 116.47
C88.11 116.47 88.11 116.47 88.11 116.47
C87.91 116.47 87.72 116.33 87.56 116.07
C87.38 115.78 87.29 115.39 87.29 114.90
C87.29 114.46 87.37 114.11 87.54 113.85
C87.70 113.62 87.87 113.50 88.07 113.50
C88.07 113.50 88.07 113.50 88.07 113.50
C88.08 113.50 88.08 113.50 88.08 113.50
Z
M88.16 109.91
C87.88 109.91 87.63 110.00 87.41 110.16
C87.19 110.32 87.00 110.55 86.83 110.87
C86.51 111.47 86.34 112.47 86.34 113.87
C86.34 115.14 86.50 116.05 86.82 116.60
C86.98 116.89 87.17 117.10 87.38 117.25
C87.60 117.40 87.84 117.47 88.11 117.47
C88.41 117.47 88.68 117.37 88.92 117.16
C89.16 116.96 89.35 116.65 89.50 116.24
C89.64 115.84 89.71 115.39 89.71 114.90
C89.71 114.17 89.57 113.58 89.28 113.14
C88.97 112.68 88.61 112.45 88.19 112.45
C87.93 112.45 87.69 112.54 87.46 112.72
C87.37 112.79 87.29 112.88 87.21 112.98
L87.21 112.98
C87.24 112.39 87.32 111.94 87.45 111.60
C87.55 111.36 87.65 111.19 87.77 111.07
C87.88 110.97 87.99 110.92 88.12 110.92
C88.12 110.92 88.12 110.92 88.12 110.92
C88.13 110.92 88.13 110.92 88.13 110.92
C88.29 110.92 88.44 111.01 88.56 111.19
C88.65 111.33 88.73 111.57 88.78 111.92
L88.80 112.05
L88.93 112.04
L89.51 111.97
L89.64 111.95
L89.63 111.82
C89.58 111.21 89.42 110.75 89.16 110.42
C88.89 110.08 88.56 109.92 88.16 109.91
Z
M90.57 110.04
L90.56 110.17
L90.10 113.82
L90.09 113.95
L90.22 113.98
L90.76 114.09
L90.87 114.11
L90.91 114.00
C90.99 113.81 91.10 113.66 91.23 113.55
C91.36 113.45 91.49 113.40 91.63 113.40
C91.63 113.40 91.63 113.40 91.63 113.40
C91.63 113.40 91.63 113.40 91.63 113.40
C91.87 113.40 92.07 113.52 92.23 113.76
C92.40 114.01 92.49 114.38 92.49 114.86
C92.49 115.37 92.40 115.78 92.22 116.07
C92.05 116.33 91.86 116.47 91.64 116.47
C91.64 116.47 91.64 116.47 91.63 116.47
C91.63 116.47 91.63 116.47 91.63 116.47
C91.46 116.47 91.31 116.38 91.18 116.19
C91.03 115.99 90.93 115.68 90.89 115.25
L90.87 115.11
L90.73 115.12
L90.12 115.20
L89.99 115.22
L90.00 115.35
C90.04 116.00 90.21 116.52 90.51 116.89
C90.81 117.28 91.19 117.47 91.64 117.47
C92.18 117.47 92.61 117.20 92.93 116.65
C93.23 116.14 93.38 115.51 93.38 114.79
C93.38 114.06 93.23 113.47 92.92 113.03
C92.61 112.57 92.23 112.34 91.79 112.34
C91.54 112.34 91.31 112.42 91.09 112.58
L91.09 112.58
L91.28 111.16
L93.16 111.16
L93.16 111.02
L93.16 110.18
L93.16 110.04
Z
" fill="white" fill-rule="nonzero" />
<path d="
M87.46 124.48
L87.46 124.48
L87.46 124.48
C87.46 124.48 87.46 124.48 87.46 124.48
Z
M91.68 122.83
C91.68 122.83 91.68 122.83 91.68 122.83
C91.68 122.83 91.68 122.83 91.68 122.83
C91.87 122.83 92.03 122.95 92.19 123.20
C92.35 123.47 92.44 123.84 92.44 124.32
C92.44 124.81 92.36 125.18 92.19 125.43
C92.05 125.67 91.87 125.78 91.67 125.78
C91.67 125.78 91.67 125.78 91.67 125.78
C91.67 125.78 91.67 125.78 91.67 125.78
C91.46 125.78 91.28 125.67 91.13 125.43
C90.96 125.18 90.87 124.83 90.87 124.40
C90.87 123.90 90.96 123.51 91.14 123.23
C91.31 122.96 91.48 122.83 91.68 122.83
Z
M86.94 121.95
L86.93 122.07
L86.47 125.73
L86.46 125.86
L86.59 125.89
L87.13 125.99
L87.24 126.02
L87.28 125.91
C87.36 125.71 87.47 125.56 87.60 125.46
C87.73 125.36 87.86 125.31 88.00 125.31
C88.00 125.31 88.00 125.31 88.00 125.31
C88.00 125.31 88.00 125.31 88.00 125.31
C88.24 125.31 88.44 125.42 88.60 125.66
C88.77 125.92 88.86 126.29 88.86 126.77
C88.86 127.28 88.77 127.68 88.59 127.97
C88.42 128.24 88.23 128.37 88.01 128.37
C88.01 128.37 88.01 128.37 88.00 128.37
C88.00 128.37 88.00 128.37 88.00 128.37
C87.83 128.37 87.68 128.28 87.55 128.10
C87.40 127.90 87.30 127.58 87.26 127.16
L87.24 127.01
L87.10 127.03
L86.49 127.11
L86.36 127.12
L86.37 127.26
C86.41 127.91 86.58 128.42 86.88 128.80
C87.18 129.18 87.56 129.38 88.01 129.38
C88.55 129.37 88.98 129.10 89.30 128.56
C89.60 128.04 89.75 127.42 89.75 126.70
C89.75 125.96 89.60 125.37 89.29 124.93
C88.97 124.48 88.60 124.25 88.16 124.25
C87.91 124.25 87.68 124.33 87.46 124.48
L87.46 124.48
L87.65 123.07
L89.53 123.07
L89.53 122.92
L89.53 122.09
L89.53 121.95
Z
M91.62 121.82
C91.16 121.82 90.77 122.06 90.45 122.53
C90.15 122.98 90.00 123.59 90.00 124.37
C90.00 125.12 90.15 125.71 90.44 126.15
C90.74 126.61 91.11 126.84 91.54 126.84
C91.79 126.84 92.02 126.74 92.25 126.55
C92.34 126.48 92.42 126.40 92.49 126.31
L92.49 126.31
C92.47 126.70 92.42 127.05 92.34 127.36
C92.24 127.76 92.12 128.03 91.98 128.17
C91.85 128.31 91.71 128.37 91.56 128.37
C91.56 128.37 91.56 128.37 91.56 128.37
C91.56 128.37 91.55 128.37 91.55 128.37
C91.39 128.37 91.26 128.30 91.16 128.15
C91.04 127.98 90.96 127.72 90.92 127.37
L90.90 127.23
L90.76 127.25
L90.21 127.33
L90.08 127.34
L90.09 127.48
C90.14 128.08 90.29 128.54 90.54 128.87
C90.81 129.21 91.14 129.38 91.55 129.38
C91.90 129.38 92.21 129.24 92.49 128.96
C92.76 128.69 92.98 128.28 93.13 127.71
C93.28 127.16 93.36 126.39 93.36 125.40
C93.36 124.51 93.29 123.82 93.15 123.34
C93.00 122.85 92.79 122.48 92.53 122.22
C92.25 121.95 91.94 121.82 91.62 121.82
Z
" fill="white" fill-rule="nonzero" />
<path d="
M88.07 137.17
C88.33 137.17 88.54 137.31 88.72 137.59
C88.90 137.87 88.98 138.26 88.98 138.76
C88.98 139.28 88.90 139.68 88.72 139.98
C88.54 140.27 88.34 140.42 88.11 140.42
C87.86 140.42 87.63 140.26 87.44 139.95
C87.24 139.64 87.15 139.23 87.15 138.71
C87.15 138.24 87.24 137.86 87.42 137.59
C87.61 137.31 87.83 137.17 88.07 137.17
Z
M91.71 133.87
C91.27 133.87 90.92 134.04 90.65 134.38
C90.38 134.73 90.23 135.24 90.18 135.93
L90.78 136.02
C90.78 135.56 90.86 135.21 91.03 134.96
C91.20 134.71 91.42 134.59 91.69 134.59
C91.94 134.59 92.15 134.71 92.32 134.93
C92.49 135.16 92.57 135.46 92.57 135.82
C92.57 136.13 92.49 136.47 92.32 136.84
C92.16 137.20 91.81 137.72 91.27 138.39
C90.81 138.96 90.50 139.46 90.32 139.88
C90.15 140.30 90.07 140.68 90.08 141.02
L93.17 141.02
L93.17 140.18
L90.87 140.18
C90.93 140.02 91.02 139.86 91.12 139.70
C91.22 139.54 91.44 139.25 91.78 138.81
C92.31 138.11 92.68 137.56 92.87 137.14
C93.06 136.73 93.16 136.29 93.16 135.84
C93.16 135.33 93.04 134.87 92.79 134.47
C92.55 134.07 92.19 133.87 91.71 133.87
Z
M88.16 133.87
C87.67 133.87 87.27 134.16 86.96 134.74
C86.64 135.33 86.48 136.31 86.48 137.69
C86.48 138.93 86.64 139.81 86.94 140.34
C87.25 140.87 87.64 141.14 88.11 141.14
C88.37 141.14 88.61 141.05 88.83 140.86
C89.05 140.68 89.22 140.39 89.36 140.01
C89.50 139.62 89.57 139.19 89.57 138.71
C89.57 138.01 89.43 137.45 89.16 137.03
C88.88 136.61 88.56 136.40 88.19 136.40
C87.96 136.40 87.75 136.48 87.55 136.64
C87.35 136.80 87.19 137.03 87.06 137.35
C87.06 136.47 87.15 135.81 87.32 135.36
C87.52 134.85 87.79 134.59 88.12 134.59
C88.34 134.59 88.52 134.70 88.68 134.93
C88.78 135.08 88.86 135.34 88.92 135.71
L89.49 135.64
C89.44 135.06 89.29 134.62 89.05 134.32
C88.81 134.02 88.52 133.87 88.16 133.87
Z
" fill="black" fill-rule="nonzero" />
<path d="
M91.70 149.08
C91.96 149.08 92.17 149.22 92.35 149.49
C92.53 149.77 92.61 150.16 92.61 150.67
C92.61 151.18 92.53 151.59 92.35 151.88
C92.17 152.18 91.97 152.33 91.74 152.33
C91.49 152.33 91.26 152.17 91.07 151.86
C90.87 151.55 90.78 151.13 90.78 150.62
C90.78 150.14 90.87 149.77 91.05 149.49
C91.24 149.21 91.46 149.08 91.70 149.08
Z
M87.07 145.90
L86.61 149.56
L87.15 149.66
C87.24 149.45 87.36 149.28 87.51 149.16
C87.66 149.04 87.83 148.97 88.00 148.97
C88.29 148.97 88.53 149.11 88.72 149.39
C88.91 149.67 89.00 150.07 89.00 150.58
C89.00 151.12 88.90 151.55 88.71 151.86
C88.51 152.17 88.28 152.33 88.00 152.33
C87.79 152.33 87.60 152.22 87.43 151.99
C87.27 151.77 87.16 151.43 87.11 150.98
L86.51 151.06
C86.55 151.68 86.71 152.17 86.99 152.52
C87.27 152.87 87.61 153.05 88.01 153.05
C88.50 153.05 88.89 152.80 89.18 152.30
C89.47 151.80 89.61 151.21 89.61 150.51
C89.61 149.80 89.47 149.24 89.18 148.83
C88.89 148.41 88.55 148.20 88.16 148.20
C87.85 148.20 87.55 148.35 87.27 148.65
L87.53 146.73
L89.39 146.73
L89.39 145.90
Z
M91.79 145.77
C91.30 145.77 90.90 146.06 90.59 146.65
C90.27 147.23 90.11 148.21 90.11 149.59
C90.11 150.83 90.27 151.72 90.57 152.25
C90.88 152.78 91.27 153.05 91.74 153.05
C92.00 153.05 92.24 152.95 92.46 152.77
C92.68 152.58 92.85 152.30 92.99 151.91
C93.13 151.52 93.20 151.09 93.20 150.62
C93.20 149.91 93.06 149.35 92.79 148.93
C92.51 148.51 92.19 148.30 91.82 148.30
C91.59 148.30 91.38 148.38 91.18 148.54
C90.98 148.70 90.82 148.94 90.69 149.25
C90.69 148.38 90.78 147.72 90.95 147.27
C91.15 146.75 91.42 146.49 91.76 146.49
C91.97 146.49 92.15 146.61 92.31 146.83
C92.41 146.99 92.49 147.25 92.55 147.61
L93.12 147.55
C93.07 146.97 92.92 146.53 92.68 146.23
C92.44 145.92 92.15 145.77 91.79 145.77
Z
" fill="black" fill-rule="nonzero" />
<path d="
M91.83 157.60
L91.79 157.70
C91.70 157.99 91.54 158.30 91.30 158.61
C91.07 158.93 90.80 159.19 90.50 159.41
L90.44 159.45
L90.44 159.53
L90.44 160.37
L90.44 160.61
L90.65 160.50
C90.85 160.39 91.06 160.23 91.29 160.02
C91.40 159.92 91.50 159.82 91.59 159.72
L91.59 159.72
L91.59 164.89
L91.59 165.03
L92.44 165.03
L92.44 164.89
L92.44 157.74
L92.44 157.60
Z
M86.41 157.72
L86.41 157.86
L86.41 158.70
L86.41 158.84
L88.60 158.84
C88.35 159.31 88.11 159.86 87.89 160.49
C87.64 161.22 87.44 161.98 87.29 162.78
C87.15 163.58 87.07 164.28 87.06 164.89
L87.06 165.03
L87.79 165.03
L87.93 165.03
L87.94 164.90
C87.99 163.76 88.18 162.60 88.52 161.44
C88.86 160.28 89.25 159.34 89.70 158.61
L89.72 158.58
L89.72 158.54
L89.72 157.86
L89.72 157.72
Z
" fill="white" fill-rule="nonzero" />
<path d="
M98.31 38.60
L98.31 38.74
L98.31 39.59
L98.31 39.73
L100.50 39.73
C100.25 40.20 100.02 40.75 99.80 41.37
C99.54 42.10 99.34 42.86 99.20 43.67
C99.05 44.47 98.98 45.17 98.97 45.77
L98.97 45.92
L99.70 45.92
L99.84 45.92
L99.84 45.78
C99.89 44.64 100.09 43.49 100.43 42.32
C100.77 41.16 101.16 40.22 101.60 39.50
L101.62 39.46
L101.62 39.42
L101.62 38.74
L101.62 38.60
Z
M101.94 38.60
L101.94 38.74
L101.94 39.59
L101.94 39.73
L104.13 39.73
C103.88 40.20 103.65 40.75 103.43 41.37
C103.17 42.10 102.97 42.86 102.83 43.67
C102.68 44.47 102.61 45.17 102.60 45.77
L102.60 45.92
L103.33 45.92
L103.47 45.92
L103.47 45.78
C103.52 44.64 103.72 43.49 104.06 42.32
C104.40 41.16 104.79 40.22 105.23 39.50
L105.25 39.46
L105.25 39.42
L105.25 38.74
L105.25 38.60
Z
" fill="white" fill-rule="nonzero" />
<path d="
M103.58 110.78
C103.79 110.78 103.97 110.88 104.12 111.09
C104.27 111.31 104.34 111.58 104.34 111.91
C104.34 112.24 104.27 112.50 104.12 112.70
C103.98 112.91 103.80 113.01 103.59 113.01
C103.37 113.01 103.19 112.91 103.04 112.70
C102.89 112.49 102.82 112.21 102.82 111.86
C102.82 111.55 102.90 111.29 103.04 111.09
C103.19 110.88 103.37 110.78 103.58 110.78
Z
M99.98 113.36
C100.23 113.36 100.45 113.50 100.63 113.78
C100.80 114.06 100.89 114.45 100.89 114.95
C100.89 115.47 100.80 115.87 100.62 116.17
C100.45 116.46 100.24 116.61 100.02 116.61
C99.76 116.61 99.54 116.45 99.34 116.14
C99.15 115.83 99.05 115.41 99.05 114.90
C99.05 114.43 99.14 114.05 99.33 113.78
C99.51 113.50 99.73 113.36 99.98 113.36
Z
M103.57 113.72
C103.84 113.72 104.06 113.86 104.25 114.13
C104.44 114.39 104.54 114.74 104.54 115.18
C104.54 115.62 104.44 115.96 104.26 116.22
C104.08 116.48 103.85 116.61 103.59 116.61
C103.32 116.61 103.10 116.48 102.91 116.21
C102.72 115.94 102.63 115.59 102.63 115.15
C102.63 114.73 102.72 114.39 102.90 114.12
C103.09 113.86 103.31 113.72 103.57 113.72
Z
M100.07 110.06
C99.58 110.06 99.17 110.35 98.86 110.93
C98.55 111.52 98.39 112.50 98.39 113.87
C98.39 115.12 98.54 116.00 98.85 116.53
C99.15 117.06 99.54 117.33 100.01 117.33
C100.28 117.33 100.52 117.24 100.73 117.05
C100.95 116.87 101.13 116.58 101.27 116.19
C101.41 115.81 101.48 115.38 101.48 114.90
C101.48 114.20 101.34 113.64 101.06 113.22
C100.79 112.80 100.46 112.59 100.09 112.59
C99.87 112.59 99.66 112.67 99.46 112.83
C99.26 112.99 99.09 113.22 98.96 113.53
C98.96 112.66 99.05 112.00 99.23 111.55
C99.43 111.03 99.70 110.78 100.03 110.78
C100.25 110.78 100.43 110.89 100.58 111.12
C100.69 111.27 100.77 111.53 100.82 111.90
L101.39 111.83
C101.34 111.25 101.20 110.81 100.96 110.51
C100.72 110.21 100.42 110.06 100.07 110.06
Z
M103.58 110.06
C103.19 110.06 102.87 110.23 102.61 110.57
C102.36 110.91 102.23 111.35 102.23 111.89
C102.23 112.25 102.29 112.55 102.41 112.79
C102.52 113.03 102.70 113.22 102.93 113.35
C102.65 113.46 102.44 113.67 102.28 113.97
C102.12 114.28 102.04 114.68 102.04 115.15
C102.04 115.80 102.19 116.33 102.48 116.73
C102.78 117.13 103.15 117.33 103.59 117.33
C104.02 117.33 104.39 117.13 104.68 116.73
C104.97 116.33 105.12 115.81 105.12 115.18
C105.12 114.72 105.05 114.33 104.89 114.02
C104.74 113.71 104.53 113.48 104.24 113.35
C104.47 113.21 104.65 113.03 104.76 112.79
C104.87 112.55 104.93 112.26 104.93 111.92
C104.93 111.37 104.80 110.92 104.54 110.58
C104.29 110.23 103.96 110.06 103.58 110.06
Z
" fill="black" fill-rule="nonzero" />
<path d="
M103.89 123.39
L103.89 126.61
L102.42 126.61
L103.89 123.39
Z
M99.98 125.27
C100.23 125.27 100.45 125.40 100.63 125.68
C100.80 125.96 100.89 126.35 100.89 126.86
C100.89 127.37 100.80 127.78 100.62 128.07
C100.45 128.37 100.24 128.52 100.02 128.52
C99.76 128.52 99.54 128.36 99.34 128.05
C99.15 127.73 99.05 127.32 99.05 126.81
C99.05 126.33 99.14 125.96 99.33 125.68
C99.51 125.40 99.73 125.27 99.98 125.27
Z
M103.99 121.99
L101.86 126.61
L101.86 127.41
L103.89 127.41
L103.89 129.11
L104.46 129.11
L104.46 127.41
L105.09 127.41
L105.09 126.61
L104.46 126.61
L104.46 121.99
Z
M100.07 121.96
C99.58 121.96 99.17 122.25 98.86 122.84
C98.55 123.42 98.39 124.40 98.39 125.78
C98.39 127.02 98.54 127.91 98.85 128.44
C99.15 128.97 99.54 129.23 100.01 129.23
C100.28 129.23 100.52 129.14 100.73 128.96
C100.95 128.77 101.13 128.49 101.27 128.10
C101.41 127.71 101.48 127.28 101.48 126.81
C101.48 126.10 101.34 125.54 101.06 125.12
C100.79 124.70 100.46 124.49 100.09 124.49
C99.87 124.49 99.66 124.57 99.46 124.73
C99.26 124.89 99.09 125.13 98.96 125.44
C98.96 124.57 99.05 123.91 99.23 123.46
C99.43 122.94 99.70 122.68 100.03 122.68
C100.25 122.68 100.43 122.79 100.58 123.02
C100.69 123.18 100.77 123.44 100.82 123.80
L101.39 123.73
C101.34 123.16 101.20 122.72 100.96 122.42
C100.72 122.11 100.42 121.96 100.07 121.96
Z
" fill="black" fill-rule="nonzero" />
<path d="
M99.37 136.33
L99.37 136.33
L99.37 136.33
C99.37 136.33 99.37 136.33 99.37 136.33
Z
M101.94 133.79
L101.94 133.93
L101.94 134.77
L101.94 134.91
L104.13 134.91
C103.88 135.38 103.65 135.93 103.43 136.56
C103.17 137.28 102.97 138.05 102.83 138.85
C102.68 139.65 102.61 140.35 102.60 140.96
L102.60 141.10
L103.33 141.10
L103.47 141.10
L103.47 140.96
C103.52 139.82 103.72 138.67 104.06 137.51
C104.40 136.35 104.79 135.40 105.23 134.68
L105.25 134.65
L105.25 134.61
L105.25 133.93
L105.25 133.79
Z
M98.85 133.79
L98.83 133.92
L98.38 137.57
L98.36 137.70
L98.49 137.73
L99.03 137.84
L99.15 137.86
L99.19 137.75
C99.27 137.56 99.37 137.41 99.51 137.30
C99.63 137.20 99.76 137.15 99.90 137.15
C99.91 137.15 99.91 137.15 99.91 137.15
C99.91 137.15 99.91 137.15 99.91 137.15
C100.15 137.15 100.35 137.27 100.51 137.51
C100.68 137.76 100.77 138.13 100.77 138.61
C100.77 139.13 100.68 139.53 100.49 139.82
C100.33 140.08 100.13 140.22 99.91 140.22
C99.91 140.22 99.91 140.22 99.91 140.22
C99.91 140.22 99.91 140.22 99.91 140.22
C99.74 140.22 99.59 140.13 99.45 139.94
C99.30 139.74 99.20 139.43 99.16 139.00
L99.15 138.86
L99.00 138.87
L98.40 138.95
L98.27 138.97
L98.28 139.10
C98.32 139.75 98.49 140.27 98.78 140.64
C99.09 141.03 99.47 141.22 99.92 141.22
C100.46 141.22 100.89 140.95 101.20 140.40
C101.51 139.89 101.66 139.27 101.66 138.54
C101.66 137.81 101.50 137.22 101.20 136.78
C100.88 136.32 100.50 136.10 100.06 136.09
C99.82 136.09 99.59 136.17 99.37 136.33
L99.37 136.33
L99.56 134.91
L101.44 134.91
L101.44 134.77
L101.44 133.93
L101.44 133.79
Z
" fill="white" fill-rule="nonzero" />
<path d="
M99.98 149.22
C100.18 149.22 100.36 149.34 100.51 149.57
C100.67 149.83 100.75 150.19 100.75 150.67
C100.75 151.16 100.67 151.54 100.50 151.81
C100.35 152.06 100.19 152.18 100.02 152.18
C100.02 152.18 100.02 152.18 100.02 152.18
C100.02 152.18 100.02 152.18 100.02 152.18
C99.81 152.18 99.63 152.05 99.46 151.78
C99.28 151.49 99.19 151.10 99.19 150.62
C99.19 150.17 99.28 149.82 99.45 149.57
C99.60 149.34 99.78 149.22 99.98 149.22
C99.98 149.22 99.98 149.22 99.98 149.22
C99.98 149.22 99.98 149.22 99.98 149.22
Z
M101.94 145.75
L101.94 145.89
L101.94 146.73
L101.94 146.88
L104.13 146.88
C103.88 147.35 103.65 147.89 103.43 148.52
C103.17 149.25 102.97 150.01 102.83 150.81
C102.68 151.62 102.61 152.32 102.60 152.92
L102.60 153.07
L103.33 153.07
L103.47 153.07
L103.47 152.93
C103.52 151.79 103.72 150.64 104.06 149.47
C104.40 148.31 104.79 147.37 105.23 146.65
L105.25 146.61
L105.25 146.57
L105.25 145.89
L105.25 145.75
Z
M100.07 145.63
C99.79 145.63 99.54 145.71 99.31 145.88
C99.10 146.04 98.90 146.27 98.74 146.58
C98.41 147.19 98.25 148.19 98.25 149.59
C98.25 150.86 98.41 151.77 98.73 152.32
C98.89 152.60 99.08 152.82 99.29 152.96
C99.51 153.11 99.75 153.19 100.01 153.19
C100.31 153.19 100.58 153.08 100.83 152.88
C101.06 152.68 101.25 152.37 101.40 151.96
C101.55 151.56 101.62 151.11 101.62 150.62
C101.62 149.89 101.47 149.30 101.18 148.86
C100.88 148.39 100.51 148.16 100.09 148.16
C99.84 148.16 99.60 148.25 99.37 148.43
C99.28 148.51 99.20 148.59 99.12 148.69
L99.12 148.69
C99.15 148.11 99.23 147.65 99.36 147.32
C99.45 147.08 99.56 146.90 99.68 146.79
C99.78 146.68 99.90 146.63 100.03 146.63
C100.03 146.63 100.03 146.63 100.03 146.63
C100.03 146.63 100.03 146.63 100.03 146.63
C100.20 146.63 100.34 146.73 100.46 146.91
C100.56 147.05 100.63 147.29 100.68 147.63
L100.70 147.77
L100.84 147.75
L101.41 147.69
L101.55 147.67
L101.54 147.53
C101.48 146.93 101.33 146.46 101.07 146.14
C100.80 145.80 100.47 145.63 100.07 145.63
Z
" fill="white" fill-rule="nonzero" />
<path d="
M115.48 39.34
C115.69 39.34 115.87 39.45 116.02 39.66
C116.17 39.87 116.25 40.15 116.25 40.48
C116.25 40.80 116.18 41.07 116.03 41.27
C115.88 41.47 115.70 41.58 115.49 41.58
C115.28 41.58 115.10 41.47 114.95 41.27
C114.80 41.06 114.73 40.78 114.73 40.43
C114.73 40.12 114.80 39.86 114.95 39.65
C115.10 39.45 115.28 39.34 115.48 39.34
Z
M115.48 42.29
C115.74 42.29 115.97 42.42 116.16 42.69
C116.35 42.96 116.44 43.31 116.44 43.75
C116.44 44.18 116.35 44.53 116.16 44.79
C115.98 45.05 115.76 45.18 115.49 45.18
C115.23 45.18 115.01 45.04 114.82 44.78
C114.63 44.51 114.54 44.16 114.54 43.72
C114.54 43.30 114.63 42.96 114.81 42.69
C114.99 42.42 115.21 42.29 115.48 42.29
Z
M110.36 38.74
L110.36 39.59
L112.65 39.59
C112.36 40.09 112.09 40.70 111.83 41.42
C111.58 42.14 111.39 42.90 111.24 43.69
C111.10 44.48 111.02 45.18 111.01 45.77
L111.61 45.77
C111.66 44.62 111.85 43.46 112.20 42.28
C112.54 41.11 112.93 40.16 113.39 39.42
L113.39 38.74
Z
M115.48 38.62
C115.09 38.62 114.77 38.79 114.52 39.13
C114.26 39.47 114.14 39.91 114.14 40.45
C114.14 40.81 114.19 41.11 114.31 41.36
C114.43 41.60 114.60 41.78 114.84 41.91
C114.56 42.02 114.34 42.23 114.18 42.54
C114.03 42.85 113.95 43.24 113.95 43.72
C113.95 44.37 114.10 44.90 114.39 45.30
C114.68 45.70 115.05 45.90 115.49 45.90
C115.93 45.90 116.29 45.70 116.59 45.30
C116.88 44.90 117.03 44.38 117.03 43.74
C117.03 43.28 116.95 42.90 116.80 42.59
C116.65 42.28 116.43 42.05 116.15 41.91
C116.38 41.78 116.55 41.59 116.67 41.36
C116.78 41.12 116.84 40.83 116.84 40.48
C116.84 39.94 116.71 39.49 116.45 39.14
C116.19 38.80 115.87 38.62 115.48 38.62
Z
" fill="black" fill-rule="nonzero" />
<path d="
M111.89 137.17
C112.14 137.17 112.35 137.31 112.53 137.59
C112.71 137.87 112.79 138.26 112.79 138.76
C112.79 139.28 112.71 139.68 112.53 139.98
C112.35 140.27 112.15 140.42 111.92 140.42
C111.67 140.42 111.44 140.26 111.25 139.95
C111.05 139.64 110.96 139.23 110.96 138.71
C110.96 138.24 111.05 137.86 111.23 137.59
C111.42 137.31 111.64 137.17 111.89 137.17
Z
M115.52 137.17
C115.77 137.17 115.98 137.31 116.16 137.59
C116.34 137.87 116.42 138.26 116.42 138.76
C116.42 139.28 116.34 139.68 116.16 139.98
C115.98 140.27 115.78 140.42 115.55 140.42
C115.30 140.42 115.07 140.26 114.88 139.95
C114.68 139.64 114.59 139.23 114.59 138.71
C114.59 138.24 114.68 137.86 114.86 137.59
C115.05 137.31 115.27 137.17 115.52 137.17
Z
M111.97 133.87
C111.48 133.87 111.08 134.16 110.77 134.74
C110.45 135.33 110.30 136.31 110.30 137.69
C110.30 138.93 110.45 139.81 110.75 140.34
C111.06 140.87 111.45 141.14 111.92 141.14
C112.18 141.14 112.42 141.05 112.64 140.86
C112.86 140.68 113.04 140.39 113.17 140.01
C113.31 139.62 113.38 139.19 113.38 138.71
C113.38 138.01 113.24 137.45 112.97 137.03
C112.69 136.61 112.37 136.40 112.00 136.40
C111.78 136.40 111.56 136.48 111.36 136.64
C111.17 136.80 111.00 137.03 110.87 137.35
C110.87 136.47 110.96 135.81 111.13 135.36
C111.33 134.85 111.60 134.59 111.94 134.59
C112.15 134.59 112.33 134.70 112.49 134.93
C112.59 135.08 112.67 135.34 112.73 135.71
L113.30 135.64
C113.25 135.06 113.10 134.62 112.86 134.32
C112.62 134.02 112.33 133.87 111.97 133.87
Z
M115.60 133.87
C115.11 133.87 114.71 134.16 114.40 134.74
C114.08 135.33 113.93 136.31 113.93 137.69
C113.93 138.93 114.08 139.81 114.38 140.34
C114.69 140.87 115.08 141.14 115.55 141.14
C115.81 141.14 116.05 141.05 116.27 140.86
C116.49 140.68 116.67 140.39 116.80 140.01
C116.94 139.62 117.01 139.19 117.01 138.71
C117.01 138.01 116.87 137.45 116.60 137.03
C116.32 136.61 116.00 136.40 115.63 136.40
C115.41 136.40 115.19 136.48 114.99 136.64
C114.80 136.80 114.63 137.03 114.50 137.35
C114.50 136.47 114.59 135.81 114.76 135.36
C114.96 134.85 115.23 134.59 115.57 134.59
C115.78 134.59 115.97 134.70 116.12 134.93
C116.22 135.08 116.30 135.34 116.36 135.71
L116.93 135.64
C116.88 135.06 116.73 134.62 116.49 134.32
C116.25 134.02 115.96 133.87 115.60 133.87
Z
" fill="black" fill-rule="nonzero" />
<path d="
M127.70 16.29
L127.70 19.50
L126.24 19.50
L127.70 16.29
Z
M122.27 14.98
L122.27 15.82
L124.55 15.82
C124.26 16.33 123.99 16.94 123.74 17.66
C123.49 18.38 123.29 19.13 123.15 19.93
C123.00 20.72 122.93 21.41 122.92 22.01
L123.51 22.01
C123.56 20.86 123.76 19.69 124.10 18.52
C124.44 17.34 124.84 16.39 125.29 15.66
L125.29 14.98
Z
M127.81 14.89
L125.67 19.50
L125.67 20.30
L127.70 20.30
L127.70 22.01
L128.27 22.01
L128.27 20.30
L128.91 20.30
L128.91 19.50
L128.27 19.50
L128.27 14.89
Z
" fill="black" fill-rule="nonzero" />
<path d="
M127.42 65.74
C127.67 65.74 127.89 65.88 128.07 66.16
C128.24 66.43 128.33 66.83 128.33 67.33
C128.33 67.85 128.24 68.25 128.06 68.55
C127.89 68.84 127.69 68.99 127.46 68.99
C127.20 68.99 126.98 68.83 126.78 68.52
C126.59 68.21 126.49 67.79 126.49 67.28
C126.49 66.81 126.58 66.43 126.77 66.15
C126.96 65.88 127.17 65.74 127.42 65.74
Z
M122.27 62.56
L122.27 63.40
L124.55 63.40
C124.26 63.90 123.99 64.51 123.74 65.23
C123.49 65.95 123.29 66.71 123.15 67.50
C123.00 68.29 122.93 68.99 122.92 69.59
L123.51 69.59
C123.56 68.43 123.76 67.27 124.10 66.09
C124.44 64.92 124.84 63.97 125.29 63.24
L125.29 62.56
Z
M127.51 62.43
C127.02 62.43 126.62 62.73 126.30 63.31
C125.99 63.90 125.83 64.88 125.83 66.25
C125.83 67.49 125.98 68.38 126.29 68.91
C126.60 69.44 126.98 69.71 127.46 69.71
C127.72 69.71 127.96 69.61 128.18 69.43
C128.39 69.25 128.57 68.96 128.71 68.57
C128.85 68.19 128.92 67.75 128.92 67.28
C128.92 66.58 128.78 66.01 128.50 65.59
C128.23 65.18 127.90 64.97 127.53 64.97
C127.31 64.97 127.10 65.05 126.90 65.21
C126.70 65.37 126.53 65.60 126.40 65.91
C126.41 65.04 126.49 64.38 126.67 63.93
C126.87 63.41 127.14 63.15 127.47 63.15
C127.69 63.15 127.87 63.27 128.02 63.49
C128.13 63.65 128.21 63.91 128.26 64.28
L128.84 64.21
C128.78 63.63 128.64 63.19 128.40 62.89
C128.16 62.59 127.86 62.43 127.51 62.43
Z
" fill="black" fill-rule="nonzero" />
<path d="
M127.39 110.92
C127.40 110.92 127.40 110.92 127.40 110.92
C127.40 110.92 127.40 110.92 127.40 110.92
C127.58 110.92 127.75 111.05 127.90 111.29
C128.07 111.56 128.15 111.94 128.15 112.42
C128.15 112.90 128.07 113.27 127.91 113.53
C127.76 113.76 127.59 113.88 127.39 113.88
C127.39 113.88 127.39 113.88 127.39 113.88
C127.38 113.88 127.38 113.88 127.38 113.88
C127.18 113.88 127.00 113.76 126.84 113.53
C126.68 113.27 126.59 112.93 126.59 112.49
C126.59 112.00 126.68 111.61 126.86 111.32
C127.02 111.05 127.20 110.92 127.39 110.92
Z
M122.13 110.04
L122.13 110.18
L122.13 111.02
L122.13 111.16
L124.31 111.16
C124.06 111.63 123.83 112.18 123.61 112.81
C123.35 113.53 123.15 114.30 123.01 115.10
C122.86 115.90 122.79 116.60 122.78 117.21
L122.78 117.35
L123.51 117.35
L123.65 117.35
L123.65 117.21
C123.70 116.07 123.90 114.92 124.24 113.76
C124.58 112.59 124.97 111.65 125.41 110.93
L125.43 110.90
L125.43 110.86
L125.43 110.18
L125.43 110.04
Z
M127.33 109.91
C126.87 109.92 126.49 110.15 126.17 110.62
C125.87 111.07 125.72 111.69 125.72 112.46
C125.72 113.21 125.86 113.81 126.15 114.25
C126.46 114.70 126.83 114.93 127.26 114.93
C127.50 114.93 127.74 114.84 127.97 114.65
C128.05 114.58 128.13 114.49 128.21 114.40
L128.21 114.40
C128.19 114.79 128.14 115.15 128.06 115.46
C127.95 115.85 127.83 116.12 127.69 116.27
C127.57 116.40 127.43 116.47 127.28 116.47
C127.27 116.47 127.27 116.47 127.27 116.47
C127.27 116.47 127.27 116.47 127.27 116.47
C127.11 116.47 126.97 116.39 126.87 116.25
C126.76 116.08 126.68 115.82 126.64 115.47
L126.62 115.32
L126.48 115.34
L125.92 115.42
L125.79 115.44
L125.80 115.57
C125.85 116.17 126.00 116.64 126.26 116.96
C126.53 117.30 126.86 117.47 127.26 117.47
C127.61 117.47 127.93 117.33 128.21 117.06
C128.48 116.79 128.69 116.37 128.85 115.81
C129.00 115.25 129.07 114.48 129.07 113.49
C129.07 112.60 129.00 111.91 128.86 111.43
C128.72 110.94 128.51 110.57 128.24 110.31
C127.96 110.05 127.66 109.91 127.33 109.91
Z
" fill="white" fill-rule="nonzero" />
<path d="
M122.27 145.95
L122.27 146.80
L124.55 146.80
C124.26 147.30 123.99 147.91 123.74 148.63
C123.49 149.35 123.29 150.11 123.15 150.90
C123.00 151.69 122.93 152.39 122.92 152.98
L123.51 152.98
C123.56 151.83 123.76 150.67 124.10 149.49
C124.44 148.32 124.84 147.37 125.29 146.63
L125.29 145.95
Z
M127.42 145.83
C126.99 145.83 126.63 146.01 126.37 146.35
C126.10 146.70 125.94 147.21 125.90 147.89
L126.49 147.99
C126.49 147.53 126.58 147.17 126.75 146.93
C126.92 146.68 127.14 146.56 127.41 146.56
C127.65 146.56 127.86 146.67 128.03 146.90
C128.20 147.13 128.29 147.42 128.29 147.79
C128.29 148.10 128.20 148.44 128.04 148.80
C127.87 149.17 127.52 149.68 126.99 150.35
C126.53 150.93 126.21 151.42 126.04 151.84
C125.87 152.26 125.78 152.64 125.79 152.98
L128.88 152.98
L128.88 152.14
L126.59 152.14
C126.65 151.99 126.73 151.83 126.83 151.67
C126.93 151.51 127.15 151.21 127.49 150.77
C128.03 150.08 128.40 149.53 128.59 149.11
C128.78 148.69 128.87 148.26 128.87 147.81
C128.87 147.29 128.75 146.84 128.51 146.44
C128.26 146.03 127.90 145.83 127.42 145.83
Z
" fill="black" fill-rule="nonzero" />
<path d="
M127.36 158.40
C127.64 158.40 127.87 158.60 128.05 158.99
C128.23 159.38 128.32 160.16 128.32 161.32
C128.32 162.46 128.23 163.24 128.05 163.63
C127.87 164.03 127.66 164.23 127.39 164.23
C127.12 164.23 126.89 164.04 126.71 163.64
C126.53 163.25 126.45 162.47 126.45 161.32
C126.45 160.17 126.53 159.40 126.71 159.00
C126.88 158.60 127.10 158.40 127.36 158.40
Z
M122.27 157.80
L122.27 158.64
L124.55 158.64
C124.26 159.15 123.99 159.76 123.74 160.48
C123.49 161.20 123.29 161.95 123.15 162.75
C123.00 163.54 122.93 164.23 122.92 164.83
L123.51 164.83
C123.56 163.68 123.76 162.51 124.10 161.34
C124.44 160.16 124.84 159.21 125.29 158.48
L125.29 157.80
Z
M127.39 157.68
C126.88 157.68 126.50 157.99 126.25 158.60
C125.99 159.22 125.86 160.12 125.86 161.32
C125.86 162.65 126.00 163.59 126.28 164.13
C126.57 164.68 126.93 164.95 127.38 164.95
C127.88 164.95 128.26 164.64 128.52 164.03
C128.78 163.41 128.91 162.51 128.91 161.32
C128.91 159.99 128.75 159.03 128.44 158.43
C128.18 157.93 127.83 157.68 127.39 157.68
Z
" fill="black" fill-rule="nonzero" />
<path d="
M138.72 17.27
L138.72 17.27
L138.72 17.27
C138.72 17.27 138.72 17.27 138.72 17.27
Z
M134.03 14.73
L134.03 14.87
L134.03 15.71
L134.03 15.86
L136.22 15.86
C135.97 16.32 135.73 16.87 135.51 17.50
C135.26 18.23 135.06 18.99 134.91 19.79
C134.77 20.59 134.69 21.30 134.68 21.90
L134.68 22.04
L135.42 22.04
L135.55 22.04
L135.56 21.91
C135.61 20.77 135.80 19.62 136.14 18.45
C136.48 17.29 136.87 16.35 137.32 15.63
L137.34 15.59
L137.34 15.55
L137.34 14.87
L137.34 14.73
Z
M138.19 14.74
L138.18 14.86
L137.72 18.52
L137.71 18.65
L137.84 18.68
L138.38 18.78
L138.49 18.80
L138.54 18.70
C138.62 18.50 138.72 18.35 138.85 18.25
C138.98 18.15 139.11 18.09 139.25 18.09
C139.25 18.09 139.25 18.09 139.25 18.09
C139.25 18.09 139.26 18.09 139.26 18.09
C139.49 18.09 139.69 18.21 139.85 18.45
C140.03 18.71 140.11 19.08 140.11 19.56
C140.11 20.07 140.02 20.47 139.84 20.76
C139.67 21.03 139.48 21.16 139.26 21.16
C139.26 21.16 139.26 21.16 139.26 21.16
C139.26 21.16 139.25 21.16 139.25 21.16
C139.08 21.16 138.93 21.07 138.80 20.89
C138.65 20.69 138.55 20.37 138.51 19.94
L138.49 19.80
L138.35 19.82
L137.75 19.90
L137.61 19.91
L137.62 20.05
C137.66 20.70 137.83 21.21 138.13 21.59
C138.44 21.97 138.81 22.17 139.26 22.17
C139.80 22.16 140.23 21.89 140.55 21.35
C140.85 20.83 141.00 20.21 141.00 19.49
C141.00 18.75 140.85 18.16 140.54 17.72
C140.23 17.27 139.85 17.04 139.41 17.04
C139.17 17.04 138.94 17.12 138.72 17.27
L138.72 17.27
L138.90 15.86
L140.78 15.86
L140.78 15.71
L140.78 14.88
L140.78 14.74
Z
" fill="white" fill-rule="nonzero" />
<path d="
M134.03 50.51
L134.03 50.65
L134.03 51.49
L134.03 51.63
L136.22 51.63
C135.97 52.10 135.73 52.65 135.51 53.28
C135.26 54.00 135.06 54.77 134.91 55.57
C134.77 56.37 134.69 57.07 134.68 57.68
L134.68 57.82
L135.42 57.82
L135.55 57.82
L135.56 57.68
C135.61 56.54 135.80 55.39 136.14 54.23
C136.48 53.06 136.87 52.12 137.32 51.40
L137.34 51.37
L137.34 51.33
L137.34 50.65
L137.34 50.51
Z
M139.24 50.38
C138.83 50.39 138.49 50.56 138.21 50.90
C137.94 51.24 137.76 51.72 137.69 52.36
L137.67 52.48
L137.79 52.51
L138.36 52.66
L138.52 52.71
L138.54 52.54
C138.58 52.14 138.67 51.84 138.80 51.65
C138.92 51.47 139.07 51.39 139.24 51.39
C139.24 51.39 139.24 51.39 139.24 51.39
C139.25 51.39 139.25 51.39 139.25 51.39
C139.41 51.39 139.55 51.47 139.67 51.63
C139.80 51.81 139.87 52.05 139.87 52.35
C139.87 52.68 139.79 52.94 139.63 53.13
C139.49 53.31 139.30 53.41 139.06 53.41
L139.06 53.41
L138.98 53.40
L138.84 53.38
L138.82 53.53
L138.76 54.29
L138.74 54.52
L138.95 54.44
C139.10 54.38 139.21 54.35 139.30 54.35
C139.30 54.35 139.30 54.35 139.30 54.35
C139.30 54.35 139.31 54.35 139.31 54.35
C139.51 54.35 139.69 54.46 139.84 54.67
C140.00 54.90 140.08 55.20 140.07 55.59
C140.08 56.00 139.99 56.33 139.81 56.58
C139.65 56.82 139.46 56.94 139.25 56.94
C139.25 56.94 139.25 56.94 139.25 56.94
C139.25 56.94 139.25 56.94 139.24 56.94
C139.05 56.94 138.90 56.84 138.78 56.65
C138.64 56.44 138.54 56.11 138.48 55.66
L138.46 55.51
L138.31 55.54
L137.74 55.66
L137.62 55.68
L137.63 55.81
C137.67 56.45 137.84 56.96 138.13 57.35
C138.44 57.74 138.81 57.94 139.26 57.95
C139.73 57.94 140.14 57.72 140.48 57.26
C140.80 56.82 140.97 56.26 140.97 55.57
C140.97 55.25 140.93 54.96 140.85 54.70
C140.77 54.43 140.66 54.21 140.53 54.05
C140.44 53.94 140.34 53.85 140.22 53.79
L140.22 53.79
C140.36 53.65 140.47 53.48 140.56 53.29
C140.68 53.02 140.74 52.72 140.74 52.37
C140.74 51.81 140.60 51.34 140.31 50.97
C140.02 50.58 139.66 50.39 139.24 50.38
Z
" fill="white" fill-rule="nonzero" />
<path d="
M147.57 75.20
C147.57 75.20 147.57 75.20 147.57 75.20
C147.57 75.20 147.57 75.20 147.57 75.20
C147.73 75.20 147.87 75.29 147.99 75.46
C148.13 75.65 148.20 75.89 148.19 76.20
C148.20 76.49 148.13 76.73 148.00 76.90
C147.88 77.07 147.74 77.15 147.58 77.15
C147.58 77.15 147.58 77.15 147.58 77.15
C147.58 77.15 147.58 77.15 147.58 77.15
C147.41 77.15 147.27 77.07 147.15 76.90
C147.02 76.72 146.95 76.47 146.95 76.15
C146.95 75.87 147.02 75.63 147.15 75.45
C147.27 75.28 147.41 75.20 147.57 75.20
Z
M147.56 78.15
C147.56 78.15 147.56 78.15 147.56 78.15
C147.56 78.15 147.57 78.15 147.57 78.15
C147.78 78.15 147.97 78.26 148.13 78.49
C148.30 78.73 148.39 79.06 148.39 79.47
C148.39 79.87 148.30 80.19 148.14 80.42
C147.98 80.64 147.80 80.75 147.58 80.75
C147.58 80.75 147.58 80.75 147.58 80.75
C147.58 80.75 147.58 80.75 147.58 80.75
C147.36 80.75 147.18 80.64 147.02 80.41
C146.85 80.17 146.76 79.84 146.76 79.44
C146.76 79.04 146.85 78.73 147.01 78.49
C147.17 78.26 147.35 78.15 147.56 78.15
Z
M151.35 74.20
L151.32 74.30
C151.23 74.59 151.07 74.90 150.83 75.21
C150.60 75.53 150.33 75.79 150.03 76.01
L149.97 76.05
L149.97 76.13
L149.97 76.97
L149.97 77.21
L150.18 77.10
C150.37 76.99 150.59 76.83 150.82 76.62
C150.93 76.52 151.03 76.42 151.11 76.32
L151.11 76.32
L151.11 81.49
L151.11 81.63
L151.97 81.63
L151.97 81.49
L151.97 74.34
L151.97 74.20
Z
M147.57 74.20
C147.13 74.20 146.78 74.39 146.49 74.76
C146.22 75.13 146.08 75.60 146.08 76.17
C146.08 76.55 146.14 76.87 146.27 77.13
C146.36 77.33 146.49 77.48 146.65 77.61
L146.65 77.61
C146.44 77.75 146.27 77.94 146.14 78.19
C145.98 78.52 145.89 78.94 145.89 79.44
C145.89 80.12 146.05 80.67 146.36 81.10
C146.69 81.53 147.09 81.75 147.58 81.75
C148.06 81.75 148.46 81.53 148.79 81.10
C149.10 80.67 149.26 80.13 149.26 79.46
C149.26 78.98 149.18 78.57 149.01 78.24
C148.89 77.98 148.71 77.77 148.50 77.62
L148.50 77.62
C148.66 77.49 148.79 77.33 148.88 77.13
C149.00 76.88 149.07 76.57 149.07 76.20
C149.07 75.62 148.93 75.15 148.65 74.77
C148.36 74.39 148.00 74.20 147.57 74.20
Z
" fill="white" fill-rule="nonzero" />
<path d="
M147.57 110.78
C147.78 110.78 147.96 110.88 148.11 111.09
C148.26 111.31 148.34 111.58 148.34 111.91
C148.34 112.24 148.26 112.50 148.12 112.70
C147.97 112.91 147.79 113.01 147.58 113.01
C147.36 113.01 147.18 112.91 147.03 112.70
C146.89 112.49 146.81 112.21 146.81 111.86
C146.81 111.55 146.89 111.29 147.04 111.09
C147.19 110.88 147.36 110.78 147.57 110.78
Z
M147.56 113.72
C147.83 113.72 148.05 113.86 148.24 114.13
C148.43 114.39 148.53 114.74 148.53 115.18
C148.53 115.62 148.44 115.96 148.25 116.22
C148.07 116.48 147.84 116.61 147.58 116.61
C147.32 116.61 147.09 116.48 146.90 116.21
C146.72 115.94 146.62 115.59 146.62 115.15
C146.62 114.73 146.71 114.39 146.90 114.12
C147.08 113.86 147.30 113.72 147.56 113.72
Z
M151.17 110.78
C151.45 110.78 151.68 110.98 151.86 111.37
C152.04 111.76 152.13 112.54 152.13 113.70
C152.13 114.84 152.04 115.61 151.86 116.01
C151.69 116.41 151.47 116.61 151.20 116.61
C150.93 116.61 150.70 116.41 150.52 116.02
C150.35 115.63 150.26 114.85 150.26 113.70
C150.26 112.55 150.34 111.78 150.52 111.38
C150.69 110.98 150.91 110.78 151.17 110.78
Z
M147.57 110.06
C147.18 110.06 146.86 110.23 146.61 110.57
C146.35 110.91 146.22 111.35 146.22 111.89
C146.22 112.25 146.28 112.55 146.40 112.79
C146.52 113.03 146.69 113.22 146.92 113.35
C146.64 113.46 146.43 113.67 146.27 113.97
C146.11 114.28 146.04 114.68 146.04 115.15
C146.04 115.80 146.18 116.33 146.48 116.73
C146.77 117.13 147.14 117.33 147.58 117.33
C148.01 117.33 148.38 117.13 148.67 116.73
C148.97 116.33 149.11 115.81 149.11 115.18
C149.11 114.72 149.04 114.33 148.89 114.02
C148.73 113.71 148.52 113.48 148.24 113.35
C148.47 113.21 148.64 113.03 148.75 112.79
C148.87 112.55 148.92 112.26 148.92 111.92
C148.92 111.37 148.79 110.92 148.54 110.58
C148.28 110.23 147.96 110.06 147.57 110.06
Z
M151.20 110.06
C150.69 110.06 150.31 110.36 150.06 110.98
C149.80 111.59 149.67 112.50 149.67 113.70
C149.67 115.03 149.81 115.97 150.10 116.51
C150.38 117.06 150.74 117.33 151.19 117.33
C151.69 117.33 152.08 117.02 152.33 116.40
C152.59 115.79 152.72 114.88 152.72 113.70
C152.72 112.37 152.56 111.41 152.25 110.80
C151.99 110.31 151.64 110.06 151.20 110.06
Z
" fill="black" fill-rule="nonzero" />
<path d="
M147.57 134.59
C147.78 134.59 147.96 134.69 148.11 134.90
C148.26 135.12 148.34 135.39 148.34 135.72
C148.34 136.05 148.26 136.31 148.12 136.51
C147.97 136.72 147.79 136.82 147.58 136.82
C147.36 136.82 147.18 136.72 147.03 136.51
C146.89 136.30 146.81 136.02 146.81 135.67
C146.81 135.36 146.89 135.10 147.04 134.90
C147.19 134.69 147.36 134.59 147.57 134.59
Z
M147.56 137.54
C147.83 137.54 148.05 137.67 148.24 137.94
C148.43 138.20 148.53 138.56 148.53 138.99
C148.53 139.43 148.44 139.77 148.25 140.03
C148.07 140.29 147.84 140.42 147.58 140.42
C147.32 140.42 147.09 140.29 146.90 140.02
C146.72 139.75 146.62 139.40 146.62 138.96
C146.62 138.54 146.71 138.20 146.90 137.93
C147.08 137.67 147.30 137.54 147.56 137.54
Z
M151.24 133.87
C150.80 133.87 150.44 134.04 150.18 134.38
C149.91 134.73 149.75 135.24 149.71 135.93
L150.30 136.02
C150.30 135.56 150.39 135.21 150.56 134.96
C150.73 134.71 150.95 134.59 151.22 134.59
C151.47 134.59 151.67 134.71 151.84 134.93
C152.01 135.16 152.10 135.46 152.10 135.82
C152.10 136.13 152.02 136.47 151.85 136.84
C151.68 137.20 151.33 137.72 150.80 138.39
C150.34 138.96 150.02 139.46 149.85 139.88
C149.68 140.30 149.60 140.68 149.60 141.02
L152.69 141.02
L152.69 140.18
L150.40 140.18
C150.46 140.02 150.54 139.86 150.64 139.70
C150.74 139.54 150.96 139.25 151.31 138.81
C151.84 138.11 152.21 137.56 152.40 137.14
C152.59 136.73 152.69 136.29 152.69 135.84
C152.69 135.33 152.56 134.87 152.32 134.47
C152.07 134.07 151.71 133.87 151.24 133.87
Z
M147.57 133.87
C147.18 133.87 146.86 134.04 146.61 134.38
C146.35 134.72 146.22 135.16 146.22 135.70
C146.22 136.06 146.28 136.36 146.40 136.60
C146.52 136.84 146.69 137.03 146.92 137.16
C146.64 137.27 146.43 137.48 146.27 137.79
C146.11 138.09 146.04 138.49 146.04 138.96
C146.04 139.61 146.18 140.14 146.48 140.54
C146.77 140.94 147.14 141.14 147.58 141.14
C148.01 141.14 148.38 140.94 148.67 140.54
C148.97 140.14 149.11 139.62 149.11 138.99
C149.11 138.53 149.04 138.14 148.89 137.83
C148.73 137.52 148.52 137.30 148.24 137.16
C148.47 137.02 148.64 136.84 148.75 136.60
C148.87 136.36 148.92 136.07 148.92 135.73
C148.92 135.18 148.79 134.73 148.54 134.39
C148.28 134.04 147.96 133.87 147.57 133.87
Z
" fill="black" fill-rule="nonzero" />
<path d="
M185.04 99.74
L186.10 102.59
L184.01 102.59
L185.04 99.74
Z
M184.24 97.95
L181.26 105.62
L182.90 105.62
L183.53 103.88
L186.60 103.88
L187.27 105.62
L188.95 105.62
L185.88 97.95
Z
" fill="black" fill-rule="nonzero" />
</g>
<g  transform="translate(1.19,228.58)" >
<path d="
M88.81 2.94
C88.64 2.94 88.50 3.00 88.39 3.11
C88.27 3.23 88.21 3.37 88.21 3.53
C88.21 3.69 88.27 3.83 88.39 3.95
C88.50 4.07 88.64 4.12 88.81 4.12
C88.97 4.12 89.11 4.07 89.22 3.95
C89.34 3.83 89.39 3.69 89.39 3.53
C89.39 3.37 89.34 3.23 89.22 3.11
C89.11 3.00 88.97 2.94 88.81 2.94
Z
M134.05 3.50
C134.44 3.50 134.75 3.62 134.98 3.85
C135.21 4.08 135.33 4.40 135.33 4.80
C135.33 5.11 135.26 5.38 135.14 5.63
C135.01 5.87 134.72 6.20 134.25 6.62
L133.30 5.83
C133.11 5.65 132.96 5.45 132.86 5.25
C132.76 5.05 132.71 4.85 132.71 4.65
C132.71 4.34 132.83 4.07 133.08 3.84
C133.33 3.62 133.65 3.50 134.05 3.50
Z
M105.82 4.39
L105.82 8.31
L103.05 8.31
L105.82 4.39
Z
M127.57 8.10
L127.57 8.98
L130.58 8.98
L130.58 8.10
Z
M93.20 6.01
C93.51 6.01 93.76 6.14 93.96 6.39
C94.23 6.74 94.36 7.22 94.36 7.84
C94.36 8.31 94.26 8.66 94.07 8.88
C93.88 9.10 93.64 9.21 93.35 9.21
C93.04 9.21 92.78 9.08 92.58 8.83
C92.32 8.49 92.18 8.02 92.18 7.40
C92.18 6.93 92.28 6.58 92.48 6.35
C92.67 6.12 92.91 6.01 93.20 6.01
Z
M124.08 6.74
C124.57 6.74 124.94 6.98 125.20 7.47
C125.47 7.95 125.60 8.53 125.60 9.19
C125.60 9.78 125.47 10.23 125.20 10.55
C124.94 10.87 124.63 11.03 124.30 11.03
C124.01 11.03 123.77 10.94 123.58 10.75
C123.30 10.50 123.10 10.15 122.96 9.72
C122.82 9.28 122.76 8.88 122.76 8.50
C122.76 8.18 122.79 7.76 122.86 7.24
C123.19 7.03 123.44 6.90 123.61 6.83
C123.78 6.77 123.93 6.74 124.08 6.74
Z
M133.62 7.46
C134.45 8.12 135.01 8.66 135.28 9.07
C135.43 9.29 135.51 9.54 135.51 9.82
C135.51 10.16 135.38 10.45 135.13 10.68
C134.88 10.92 134.54 11.04 134.12 11.04
C133.70 11.04 133.35 10.89 133.08 10.59
C132.80 10.29 132.67 9.89 132.67 9.39
C132.67 9.01 132.74 8.67 132.90 8.35
C133.06 8.03 133.29 7.73 133.62 7.46
Z
M80.65 3.33
L80.65 3.54
L80.93 3.54
C81.12 3.54 81.30 3.59 81.47 3.68
C81.59 3.75 81.66 3.84 81.70 3.93
C81.75 4.06 81.78 4.32 81.78 4.72
L81.78 9.82
C81.78 10.29 81.73 10.59 81.64 10.71
C81.49 10.90 81.26 11.00 80.93 11.00
L80.65 11.00
L80.65 11.21
L84.04 11.21
L84.04 11.00
L83.75 11.00
C83.56 11.00 83.39 10.95 83.22 10.86
C83.09 10.79 83.01 10.71 82.97 10.61
C82.92 10.48 82.90 10.22 82.90 9.82
L82.90 7.34
L84.33 7.34
C84.60 7.34 84.79 7.38 84.93 7.45
C85.06 7.52 85.17 7.63 85.24 7.77
C85.32 7.91 85.36 8.14 85.36 8.44
L85.58 8.44
L85.58 5.78
L85.36 5.78
C85.31 6.21 85.21 6.49 85.06 6.64
C84.90 6.78 84.66 6.86 84.33 6.86
L82.90 6.86
L82.90 3.76
L84.63 3.76
C85.05 3.76 85.35 3.80 85.54 3.87
C85.74 3.95 85.91 4.08 86.04 4.25
C86.17 4.42 86.29 4.69 86.39 5.06
L86.59 5.06
L86.52 3.33
Z
M89.03 5.73
L87.43 6.38
L87.51 6.59
C87.67 6.53 87.80 6.50 87.91 6.50
C88.01 6.50 88.09 6.53 88.14 6.58
C88.20 6.62 88.25 6.71 88.27 6.83
C88.31 7.00 88.32 7.38 88.32 7.96
L88.32 10.01
C88.32 10.34 88.30 10.56 88.25 10.68
C88.19 10.79 88.12 10.88 88.03 10.93
C87.94 10.98 87.77 11.00 87.51 11.00
L87.51 11.21
L90.10 11.21
L90.10 11.00
C89.85 11.00 89.67 10.98 89.58 10.92
C89.48 10.87 89.41 10.79 89.36 10.68
C89.31 10.56 89.29 10.34 89.29 10.01
L89.29 5.73
Z
M106.14 3.16
L102.48 8.39
L102.48 9.13
L105.82 9.13
L105.82 11.21
L106.78 11.21
L106.78 9.13
L107.84 9.13
L107.84 8.31
L106.78 8.31
L106.78 3.16
Z
M139.74 3.16
C139.14 3.16 138.64 3.36 138.24 3.74
C137.84 4.12 137.59 4.67 137.49 5.39
L137.71 5.39
C137.85 4.95 138.08 4.62 138.39 4.39
C138.70 4.17 139.05 4.05 139.43 4.05
C139.86 4.05 140.23 4.22 140.53 4.54
C140.84 4.86 140.99 5.27 140.99 5.77
C140.99 6.42 140.71 7.15 140.16 7.94
C139.60 8.73 138.63 9.75 137.27 11.00
L137.27 11.21
L141.92 11.21
L142.47 9.70
L142.25 9.70
C142.15 9.87 142.04 10.00 141.90 10.10
C141.76 10.19 141.61 10.26 141.44 10.29
C141.27 10.32 140.98 10.33 140.56 10.33
L138.50 10.33
C138.74 10.12 139.35 9.48 140.31 8.43
C140.96 7.73 141.42 7.06 141.71 6.43
C141.89 6.03 141.99 5.63 141.99 5.23
C141.99 4.68 141.77 4.19 141.34 3.78
C140.92 3.37 140.38 3.16 139.74 3.16
Z
M117.53 3.33
L116.02 6.39
C116.75 6.42 117.32 6.52 117.75 6.69
C118.28 6.92 118.71 7.24 119.01 7.65
C119.32 8.06 119.47 8.51 119.47 8.99
C119.47 9.48 119.30 9.90 118.96 10.24
C118.61 10.58 118.22 10.75 117.76 10.75
C117.46 10.75 117.17 10.65 116.88 10.45
C116.70 10.32 116.57 10.24 116.49 10.21
C116.42 10.18 116.33 10.17 116.23 10.17
C116.09 10.17 115.98 10.21 115.89 10.29
C115.80 10.37 115.76 10.47 115.76 10.58
C115.76 10.77 115.86 10.95 116.08 11.11
C116.29 11.27 116.64 11.35 117.11 11.35
C117.58 11.35 118.04 11.25 118.48 11.03
C118.80 10.88 119.08 10.68 119.34 10.43
C119.59 10.19 119.81 9.89 119.98 9.53
C120.14 9.18 120.23 8.80 120.23 8.38
C120.23 7.67 119.97 7.05 119.46 6.52
C118.85 5.91 118.04 5.53 117.01 5.37
L117.53 4.32
L119.90 4.32
L120.36 3.33
Z
M126.14 3.16
C125.73 3.16 125.28 3.25 124.80 3.42
C124.32 3.59 123.81 3.92 123.29 4.41
C122.76 4.91 122.36 5.47 122.08 6.11
C121.79 6.74 121.65 7.41 121.65 8.12
C121.65 9.22 122.02 10.12 122.76 10.82
C123.13 11.17 123.59 11.35 124.13 11.35
C124.92 11.35 125.56 11.02 126.04 10.36
C126.44 9.82 126.63 9.22 126.63 8.56
C126.63 7.88 126.44 7.32 126.04 6.89
C125.65 6.45 125.18 6.23 124.64 6.23
C124.08 6.23 123.52 6.43 122.96 6.81
C123.10 6.28 123.27 5.82 123.48 5.44
C123.69 5.05 123.95 4.70 124.27 4.39
C124.58 4.07 124.90 3.84 125.22 3.68
C125.55 3.53 125.97 3.43 126.48 3.38
L126.48 3.16
Z
M134.03 3.16
C133.38 3.16 132.85 3.35 132.46 3.72
C132.06 4.09 131.86 4.53 131.86 5.04
C131.86 5.38 131.95 5.70 132.14 6.01
C132.32 6.32 132.72 6.73 133.34 7.24
C132.77 7.66 132.36 8.03 132.13 8.38
C131.89 8.72 131.78 9.07 131.78 9.42
C131.78 9.86 131.94 10.27 132.28 10.65
C132.70 11.12 133.28 11.35 134.03 11.35
C134.71 11.35 135.27 11.16 135.69 10.76
C136.11 10.37 136.33 9.89 136.33 9.34
C136.33 8.90 136.18 8.49 135.88 8.09
C135.66 7.79 135.21 7.37 134.53 6.85
C135.19 6.43 135.63 6.07 135.84 5.76
C136.05 5.46 136.15 5.16 136.15 4.86
C136.15 4.42 135.96 4.03 135.57 3.68
C135.18 3.34 134.67 3.16 134.03 3.16
Z
M97.83 10.08
C97.65 10.08 97.50 10.15 97.37 10.27
C97.25 10.39 97.18 10.55 97.18 10.73
C97.18 10.91 97.25 11.06 97.37 11.19
C97.50 11.31 97.65 11.38 97.83 11.38
C98.01 11.38 98.16 11.31 98.29 11.19
C98.41 11.06 98.47 10.91 98.47 10.73
C98.47 10.55 98.41 10.40 98.29 10.27
C98.16 10.15 98.01 10.08 97.83 10.08
Z
M92.13 11.21
C92.60 11.28 93.27 11.32 94.14 11.35
C94.74 11.36 95.14 11.41 95.34 11.50
C95.53 11.58 95.63 11.73 95.63 11.93
C95.63 12.21 95.47 12.47 95.14 12.72
C94.80 12.96 94.29 13.09 93.59 13.09
C92.86 13.09 92.30 12.97 91.91 12.72
C91.69 12.59 91.57 12.42 91.57 12.24
C91.57 12.09 91.62 11.94 91.71 11.77
C91.81 11.59 91.94 11.41 92.13 11.21
Z
M114.92 2.94
C113.97 3.37 113.19 4.08 112.60 5.07
C112.01 6.06 111.71 7.16 111.71 8.36
C111.71 9.18 111.86 9.97 112.16 10.74
C112.47 11.50 112.90 12.16 113.46 12.72
C113.85 13.12 114.34 13.47 114.92 13.76
L114.92 13.54
C114.53 13.27 114.21 12.99 113.97 12.69
C113.73 12.39 113.53 12.08 113.39 11.76
C113.25 11.43 113.13 11.00 113.02 10.47
C112.90 9.79 112.83 9.04 112.83 8.21
C112.83 7.44 112.91 6.71 113.06 6.01
C113.21 5.31 113.44 4.73 113.75 4.27
C114.05 3.81 114.44 3.45 114.92 3.19
L114.92 2.94
Z
M143.23 2.94
L143.23 3.19
C143.62 3.46 143.94 3.74 144.18 4.04
C144.42 4.34 144.62 4.65 144.76 4.97
C144.91 5.29 145.03 5.72 145.13 6.26
C145.25 6.94 145.32 7.69 145.32 8.52
C145.32 9.28 145.24 10.02 145.09 10.72
C144.94 11.43 144.72 12.00 144.41 12.46
C144.10 12.92 143.71 13.28 143.23 13.54
L143.23 13.76
C144.19 13.33 144.96 12.63 145.55 11.63
C146.14 10.64 146.44 9.55 146.44 8.35
C146.44 7.52 146.29 6.73 145.99 5.96
C145.68 5.20 145.26 4.54 144.70 3.97
C144.31 3.58 143.82 3.23 143.23 2.94
Z
M93.30 5.73
C92.68 5.73 92.17 5.92 91.77 6.30
C91.37 6.68 91.17 7.13 91.17 7.66
C91.17 8.00 91.26 8.32 91.43 8.60
C91.61 8.89 91.86 9.11 92.18 9.27
C91.79 9.60 91.53 9.86 91.42 10.04
C91.31 10.23 91.25 10.39 91.25 10.52
C91.25 10.64 91.30 10.75 91.38 10.84
C91.46 10.94 91.61 11.05 91.81 11.17
C91.44 11.55 91.24 11.76 91.21 11.79
C91.01 12.05 90.87 12.25 90.81 12.39
C90.76 12.49 90.74 12.58 90.74 12.67
C90.74 12.88 90.89 13.08 91.18 13.28
C91.69 13.61 92.33 13.78 93.07 13.78
C94.05 13.78 94.84 13.50 95.44 12.93
C95.85 12.55 96.06 12.14 96.06 11.70
C96.06 11.38 95.95 11.12 95.74 10.90
C95.52 10.68 95.23 10.55 94.87 10.50
C94.63 10.46 94.12 10.44 93.32 10.42
C92.88 10.40 92.61 10.39 92.50 10.38
C92.32 10.35 92.19 10.30 92.13 10.24
C92.07 10.18 92.03 10.12 92.03 10.05
C92.03 9.97 92.06 9.88 92.12 9.77
C92.18 9.66 92.30 9.53 92.47 9.38
C92.74 9.46 93.01 9.50 93.28 9.50
C93.92 9.50 94.43 9.32 94.81 8.97
C95.19 8.62 95.38 8.19 95.38 7.69
C95.38 7.26 95.27 6.90 95.05 6.62
L95.74 6.62
C95.91 6.62 96.01 6.62 96.04 6.61
C96.07 6.60 96.09 6.58 96.10 6.56
C96.12 6.52 96.13 6.45 96.13 6.35
C96.13 6.26 96.12 6.20 96.09 6.17
C96.08 6.14 96.06 6.13 96.03 6.12
C96.01 6.11 95.91 6.10 95.74 6.10
L94.62 6.10
C94.24 5.85 93.80 5.73 93.30 5.73
Z
" fill="black" fill-rule="nonzero" />
</g>
</g>
</svg>
