<?xml version="1.0" encoding="utf-8" standalone="no"?>
<!DOCTYPE svg PUBLIC "-//W3C//DTD SVG 1.0//EN" "http://www.w3.org/TR/SVG/DTD/svg11.dtd" >
<svg version="1.1" baseProfile="full"  width="319.13385" height="338.46454" viewBox="0 0 229.77638 243.69449" preserveAspectRatio="xMidYMid" xmlns="http://www.w3.org/2000/svg" >

<g lengthAdjust="spacingAndGlyphs" xml:space='preserve' >
<g  transform="translate(1.19,1.19)" >
<path d="
M0.0 0.0
L0.0 227.39
L227.39 227.39
L227.39 0.0
Z
" fill="none" fill-rule="nonzero" />
<line x1="6.54" y1="6.54" x2="6.54" y2="220.84" fill="none" stroke="black" stroke-width="0.87px" stroke-linecap="square" />
<line x1="18.45" y1="6.54" x2="18.45" y2="167.27" fill="none" stroke="black" stroke-width="0.25px" stroke-linecap="butt" />
<line x1="18.45" y1="179.17" x2="18.45" y2="220.84" fill="none" stroke="black" stroke-width="0.25px" stroke-linecap="butt" />
<line x1="30.35" y1="6.54" x2="30.35" y2="220.84" fill="none" stroke="black" stroke-width="0.25px" stroke-linecap="butt" />
<line x1="42.26" y1="6.54" x2="42.26" y2="220.84" fill="none" stroke="black" stroke-width="0.25px" stroke-linecap="butt" />
<line x1="54.17" y1="6.54" x2="54.17" y2="220.84" fill="none" stroke="black" stroke-width="0.25px" stroke-linecap="butt" />
<line x1="66.07" y1="6.54" x2="66.07" y2="220.84" fill="none" stroke="black" stroke-width="0.25px" stroke-linecap="butt" />
<line x1="77.98" y1="6.54" x2="77.98" y2="220.84" fill="none" stroke="black" stroke-width="0.25px" stroke-linecap="butt" />
<line x1="89.88" y1="6.54" x2="89.88" y2="220.84" fill="none" stroke="black" stroke-width="0.25px" stroke-linecap="butt" />
<line x1="101.79" y1="6.54" x2="101.79" y2="220.84" fill="none" stroke="black" stroke-width="0.25px" stroke-linecap="butt" />
<line x1="113.69" y1="6.54" x2="113.69" y2="220.84" fill="none" stroke="black" stroke-width="0.25px" stroke-linecap="butt" />
<line x1="125.60" y1="6.54" x2="125.60" y2="220.84" fill="none" stroke="black" stroke-width="0.25px" stroke-linecap="butt" />
<line x1="137.50" y1="6.54" x2="137.50" y2="220.84" fill="none" stroke="black" stroke-width="0.25px" stroke-linecap="butt" />
<line x1="149.41" y1="6.54" x2="149.41" y2="220.84" fill="none" stroke="black" stroke-width="0.25px" stroke-linecap="butt" />
<line x1="161.31" y1="6.54" x2="161.31" y2="220.84" fill="none" stroke="black" stroke-width="0.25px" stroke-linecap="butt" />
<line x1="173.22" y1="6.54" x2="173.22" y2="220.84" fill="none" stroke="black" stroke-width="0.25px" stroke-linecap="butt" />
<line x1="185.13" y1="6.54" x2="185.13" y2="220.84" fill="none" stroke="black" stroke-width="0.25px" stroke-linecap="butt" />
<line x1="197.03" y1="6.54" x2="197.03" y2="220.84" fill="none" stroke="black" stroke-width="0.25px" stroke-linecap="butt" />
<line x1="208.94" y1="6.54" x2="208.94" y2="220.84" fill="none" stroke="black" stroke-width="0.25px" stroke-linecap="butt" />
<line x1="220.84" y1="6.54" x2="220.84" y2="220.84" fill="none" stroke="black" stroke-width="0.87px" stroke-linecap="square" />
<line x1="6.54" y1="6.54" x2="220.84" y2="6.54" fill="none" stroke="black" stroke-width="0.87px" stroke-linecap="square" />
<line x1="6.54" y1="18.45" x2="220.84" y2="18.45" fill="none" stroke="black" stroke-width="0.25px" stroke-linecap="butt" />
<line x1="6.54" y1="30.35" x2="220.84" y2="30.35" fill="none" stroke="black" stroke-width="0.25px" stroke-linecap="butt" />
<line x1="6.54" y1="42.26" x2="220.84" y2="42.26" fill="none" stroke="black" stroke-width="0.25px" stroke-linecap="butt" />
<line x1="6.54" y1="54.17" x2="220.84" y2="54.17" fill="none" stroke="black" stroke-width="0.25px" stroke-linecap="butt" />
<line x1="6.54" y1="66.07" x2="220.84" y2="66.07" fill="none" stroke="black" stroke-width="0.25px" stroke-linecap="butt" />
<line x1="6.54" y1="77.98" x2="220.84" y2="77.98" fill="none" stroke="black" stroke-width="0.25px" stroke-linecap="butt" />
<line x1="6.54" y1="89.88" x2="220.84" y2="89.88" fill="none" stroke="black" stroke-width="0.25px" stroke-linecap="butt" />
<line x1="6.54" y1="101.79" x2="220.84" y2="101.79" fill="none" stroke="black" stroke-width="0.25px" stroke-linecap="butt" />
<line x1="6.54" y1="113.69" x2="220.84" y2="113.69" fill="none" stroke="black" stroke-width="0.25px" stroke-linecap="butt" />
<line x1="6.54" y1="125.60" x2="220.84" y2="125.60" fill="none" stroke="black" stroke-width="0.25px" stroke-linecap="butt" />
<line x1="6.54" y1="137.50" x2="220.84" y2="137.50" fill="none" stroke="black" stroke-width="0.25px" stroke-linecap="butt" />
<line x1="6.54" y1="149.41" x2="220.84" y2="149.41" fill="none" stroke="black" stroke-width="0.25px" stroke-linecap="butt" />
<line x1="6.54" y1="161.31" x2="220.84" y2="161.31" fill="none" stroke="black" stroke-width="0.25px" stroke-linecap="butt" />
<line x1="6.54" y1="173.22" x2="12.50" y2="173.22" fill="none" stroke="black" stroke-width="0.25px" stroke-linecap="butt" />
<line x1="24.40" y1="173.22" x2="220.84" y2="173.22" fill="none" stroke="black" stroke-width="0.25px" stroke-linecap="butt" />
<line x1="6.54" y1="185.13" x2="220.84" y2="185.13" fill="none" stroke="black" stroke-width="0.25px" stroke-linecap="butt" />
<line x1="6.54" y1="197.03" x2="220.84" y2="197.03" fill="none" stroke="black" stroke-width="0.25px" stroke-linecap="butt" />
<line x1="6.54" y1="208.94" x2="220.84" y2="208.94" fill="none" stroke="black" stroke-width="0.25px" stroke-linecap="butt" />
<line x1="6.54" y1="220.84" x2="220.84" y2="220.84" fill="none" stroke="black" stroke-width="0.87px" stroke-linecap="square" />
<circle cx="30.35" cy="54.17" r="5.98" fill="black"/>
<circle cx="30.35" cy="77.98" r="5.85" fill="white"/>
<circle cx="30.35" cy="77.98" r="5.85" fill="none" stroke="black" stroke-width="0.25px"/>
<circle cx="30.35" cy="89.88" r="5.85" fill="white"/>
<circle cx="30.35" cy="89.88" r="5.85" fill="none" stroke="black" stroke-width="0.25px"/>
<circle cx="30.35" cy="125.60" r="5.85" fill="white"/>
<circle cx="30.35" cy="125.60" r="5.85" fill="none" stroke="black" stroke-width="0.25px"/>
<circle cx="30.35" cy="161.31" r="5.85" fill="white"/>
<circle cx="30.35" cy="161.31" r="5.85" fill="none" stroke="black" stroke-width="0.25px"/>
<circle cx="30.35" cy="173.22" r="5.85" fill="white"/>
<circle cx="30.35" cy="173.22" r="5.85" fill="none" stroke="black" stroke-width="0.25px"/>
<circle cx="30.35" cy="185.13" r="5.98" fill="black"/>
<circle cx="42.26" cy="30.35" r="5.85" fill="white"/>
<circle cx="42.26" cy="30.35" r="5.85" fill="none" stroke="black" stroke-width="0.25px"/>
<circle cx="42.26" cy="42.26" r="1.27" fill="black"/>
<circle cx="42.26" cy="77.98" r="5.85" fill="white"/>
<circle cx="42.26" cy="77.98" r="5.85" fill="none" stroke="black" stroke-width="0.25px"/>
<circle cx="42.26" cy="89.88" r="5.98" fill="black"/>
<circle cx="42.26" cy="101.79" r="5.85" fill="white"/>
<circle cx="42.26" cy="101.79" r="5.85" fill="none" stroke="black" stroke-width="0.25px"/>
<circle cx="42.26" cy="113.69" r="5.85" fill="white"/>
<circle cx="42.26" cy="113.69" r="5.85" fill="none" stroke="black" stroke-width="0.25px"/>
<circle cx="42.26" cy="149.41" r="5.85" fill="white"/>
<circle cx="42.26" cy="149.41" r="5.85" fill="none" stroke="black" stroke-width="0.25px"/>
<circle cx="42.26" cy="161.31" r="5.98" fill="black"/>
<circle cx="42.26" cy="185.13" r="5.98" fill="black"/>
<circle cx="54.17" cy="66.07" r="5.98" fill="black"/>
<circle cx="54.17" cy="77.98" r="5.98" fill="black"/>
<circle cx="54.17" cy="89.88" r="5.98" fill="black"/>
<circle cx="54.17" cy="101.79" r="5.98" fill="black"/>
<circle cx="54.17" cy="161.31" r="5.98" fill="black"/>
<circle cx="66.07" cy="125.60" r="5.98" fill="black"/>
<circle cx="66.07" cy="197.03" r="5.98" fill="black"/>
<circle cx="77.98" cy="30.35" r="5.85" fill="white"/>
<circle cx="77.98" cy="30.35" r="5.85" fill="none" stroke="black" stroke-width="0.25px"/>
<circle cx="89.88" cy="185.13" r="5.85" fill="white"/>
<circle cx="89.88" cy="185.13" r="5.85" fill="none" stroke="black" stroke-width="0.25px"/>
<circle cx="101.79" cy="185.13" r="5.85" fill="white"/>
<circle cx="101.79" cy="185.13" r="5.85" fill="none" stroke="black" stroke-width="0.25px"/>
<circle cx="101.79" cy="197.03" r="5.98" fill="black"/>
<circle cx="113.69" cy="30.35" r="5.85" fill="white"/>
<circle cx="113.69" cy="30.35" r="5.85" fill="none" stroke="black" stroke-width="0.25px"/>
<circle cx="113.69" cy="42.26" r="1.27" fill="black"/>
<circle cx="113.69" cy="54.17" r="5.85" fill="white"/>
<circle cx="113.69" cy="54.17" r="5.85" fill="none" stroke="black" stroke-width="0.25px"/>
<circle cx="113.69" cy="77.98" r="5.98" fill="black"/>
<circle cx="113.69" cy="113.69" r="1.27" fill="black"/>
<circle cx="113.69" cy="161.31" r="5.98" fill="black"/>
<circle cx="113.69" cy="185.13" r="1.27" fill="black"/>
<circle cx="113.69" cy="208.94" r="5.98" fill="black"/>
<circle cx="125.60" cy="197.03" r="5.85" fill="white"/>
<circle cx="125.60" cy="197.03" r="5.85" fill="none" stroke="black" stroke-width="0.25px"/>
<circle cx="125.60" cy="208.94" r="5.85" fill="white"/>
<circle cx="125.60" cy="208.94" r="5.85" fill="none" stroke="black" stroke-width="0.25px"/>
<circle cx="137.50" cy="30.35" r="5.98" fill="black"/>
<circle cx="137.50" cy="185.13" r="5.85" fill="white"/>
<circle cx="137.50" cy="185.13" r="5.85" fill="none" stroke="black" stroke-width="0.25px"/>
<circle cx="149.41" cy="149.41" r="5.98" fill="black"/>
<circle cx="149.41" cy="173.22" r="5.85" fill="white"/>
<circle cx="149.41" cy="173.22" r="5.85" fill="none" stroke="black" stroke-width="0.25px"/>
<circle cx="149.41" cy="197.03" r="5.98" fill="black"/>
<circle cx="173.22" cy="89.88" r="5.98" fill="black"/>
<circle cx="173.22" cy="113.69" r="5.98" fill="black"/>
<circle cx="173.22" cy="185.13" r="5.85" fill="white"/>
<circle cx="173.22" cy="185.13" r="5.85" fill="none" stroke="black" stroke-width="0.25px"/>
<circle cx="185.13" cy="30.35" r="5.98" fill="black"/>
<circle cx="185.13" cy="42.26" r="5.98" fill="black"/>
<circle cx="185.13" cy="113.69" r="1.27" fill="black"/>
<circle cx="185.13" cy="161.31" r="5.85" fill="white"/>
<circle cx="185.13" cy="161.31" r="5.85" fill="none" stroke="black" stroke-width="0.25px"/>
<circle cx="185.13" cy="185.13" r="1.27" fill="black"/>
<circle cx="185.13" cy="197.03" r="5.85" fill="white"/>
<circle cx="185.13" cy="197.03" r="5.85" fill="none" stroke="black" stroke-width="0.25px"/>
<circle cx="197.03" cy="89.88" r="5.98" fill="black"/>
<circle cx="197.03" cy="113.69" r="5.85" fill="white"/>
<circle cx="197.03" cy="113.69" r="5.85" fill="none" stroke="black" stroke-width="0.25px"/>
<circle cx="197.03" cy="125.60" r="5.85" fill="white"/>
<circle cx="197.03" cy="125.60" r="5.85" fill="none" stroke="black" stroke-width="0.25px"/>
<circle cx="197.03" cy="137.50" r="5.85" fill="white"/>
<circle cx="197.03" cy="137.50" r="5.85" fill="none" stroke="black" stroke-width="0.25px"/>
<circle cx="197.03" cy="149.41" r="5.85" fill="white"/>
<circle cx="197.03" cy="149.41" r="5.85" fill="none" stroke="black" stroke-width="0.25px"/>
<circle cx="197.03" cy="173.22" r="5.98" fill="black"/>
<circle cx="208.94" cy="113.69" r="5.98" fill="black"/>
<circle cx="208.94" cy="125.60" r="5.98" fill="black"/>
<circle cx="208.94" cy="137.50" r="5.98" fill="black"/>
<circle cx="208.94" cy="149.41" r="5.85" fill="white"/>
<circle cx="208.94" cy="149.41" r="5.85" fill="none" stroke="black" stroke-width="0.25px"/>
<path d="
M18.37 171.18
L19.42 174.02
L17.33 174.02
L18.37 171.18
Z
M17.57 169.39
L14.58 177.05
L16.22 177.05
L16.85 175.31
L19.92 175.31
L20.59 177.05
L22.27 177.05
L19.20 169.39
Z
" fill="black" fill-rule="nonzero" />
<path d="
M28.82 75.77
L28.82 78.98
L27.36 78.98
L28.82 75.77
Z
M32.18 77.64
C32.43 77.64 32.65 77.78 32.82 78.06
C33.00 78.34 33.09 78.73 33.09 79.24
C33.09 79.75 33.00 80.16 32.82 80.45
C32.64 80.75 32.44 80.89 32.22 80.89
C31.96 80.89 31.73 80.74 31.54 80.42
C31.35 80.11 31.25 79.70 31.25 79.18
C31.25 78.71 31.34 78.34 31.53 78.06
C31.71 77.78 31.93 77.64 32.18 77.64
Z
M28.93 74.37
L26.80 78.98
L26.80 79.79
L28.82 79.79
L28.82 81.49
L29.40 81.49
L29.40 79.79
L30.03 79.79
L30.03 78.98
L29.40 78.98
L29.40 74.37
Z
M32.26 74.34
C31.77 74.34 31.37 74.63 31.06 75.22
C30.74 75.80 30.59 76.78 30.59 78.16
C30.59 79.40 30.74 80.28 31.05 80.82
C31.35 81.35 31.74 81.61 32.21 81.61
C32.47 81.61 32.71 81.52 32.93 81.34
C33.15 81.15 33.33 80.87 33.47 80.48
C33.60 80.09 33.67 79.66 33.67 79.18
C33.67 78.48 33.54 77.92 33.26 77.50
C32.98 77.08 32.66 76.87 32.29 76.87
C32.07 76.87 31.86 76.95 31.66 77.11
C31.46 77.27 31.29 77.51 31.16 77.82
C31.16 76.94 31.25 76.28 31.42 75.84
C31.63 75.32 31.89 75.06 32.23 75.06
C32.44 75.06 32.63 75.17 32.78 75.40
C32.89 75.55 32.97 75.81 33.02 76.18
L33.59 76.11
C33.54 75.54 33.39 75.10 33.15 74.79
C32.91 74.49 32.62 74.34 32.26 74.34
Z
" fill="black" fill-rule="nonzero" />
<path d="
M28.82 171.06
L28.82 174.27
L27.36 174.27
L28.82 171.06
Z
M32.45 171.06
L32.45 174.27
L30.99 174.27
L32.45 171.06
Z
M28.93 169.66
L26.80 174.27
L26.80 175.08
L28.82 175.08
L28.82 176.78
L29.40 176.78
L29.40 175.08
L30.03 175.08
L30.03 174.27
L29.40 174.27
L29.40 169.66
Z
M32.56 169.66
L30.43 174.27
L30.43 175.08
L32.45 175.08
L32.45 176.78
L33.03 176.78
L33.03 175.08
L33.66 175.08
L33.66 174.27
L33.03 174.27
L33.03 169.66
Z
" fill="black" fill-rule="nonzero" />
<path d="
M31.57 183.99
L31.57 183.99
L31.57 183.99
C31.57 183.99 31.57 183.99 31.57 183.99
Z
M28.68 183.56
L28.68 185.98
L27.58 185.98
L28.68 183.56
Z
M28.84 181.36
L28.80 181.44
L26.67 186.06
L26.66 186.09
L26.66 186.12
L26.66 186.92
L26.66 187.06
L28.68 187.06
L28.68 188.63
L28.68 188.77
L29.54 188.77
L29.54 188.63
L29.54 187.06
L30.17 187.06
L30.17 186.92
L30.17 186.12
L30.17 185.98
L29.54 185.98
L29.54 181.50
L29.54 181.36
Z
M31.04 181.46
L31.03 181.58
L30.57 185.24
L30.56 185.37
L30.69 185.40
L31.23 185.51
L31.34 185.53
L31.39 185.42
C31.47 185.23 31.57 185.08 31.70 184.97
C31.83 184.87 31.96 184.82 32.10 184.82
C32.10 184.82 32.10 184.82 32.10 184.82
C32.10 184.82 32.11 184.82 32.11 184.82
C32.34 184.82 32.54 184.94 32.70 185.18
C32.88 185.43 32.96 185.80 32.96 186.28
C32.96 186.79 32.87 187.19 32.69 187.48
C32.52 187.75 32.33 187.89 32.11 187.89
C32.11 187.89 32.11 187.89 32.11 187.89
C32.11 187.89 32.11 187.89 32.10 187.89
C31.93 187.89 31.78 187.79 31.65 187.61
C31.50 187.41 31.40 187.10 31.36 186.67
L31.34 186.52
L31.20 186.54
L30.60 186.62
L30.46 186.64
L30.47 186.77
C30.51 187.42 30.68 187.93 30.98 188.31
C31.29 188.69 31.67 188.89 32.11 188.89
C32.66 188.89 33.08 188.62 33.40 188.07
C33.70 187.55 33.85 186.93 33.85 186.21
C33.85 185.48 33.70 184.89 33.40 184.45
C33.08 183.99 32.70 183.76 32.26 183.76
C32.02 183.76 31.79 183.84 31.57 183.99
L31.57 183.99
L31.75 182.58
L33.63 182.58
L33.63 182.44
L33.63 181.60
L33.63 181.46
Z
" fill="white" fill-rule="nonzero" />
<path d="
M44.05 110.78
C44.26 110.78 44.44 110.88 44.59 111.09
C44.74 111.31 44.82 111.58 44.82 111.91
C44.82 112.24 44.74 112.50 44.60 112.70
C44.45 112.91 44.27 113.01 44.06 113.01
C43.84 113.01 43.66 112.91 43.52 112.70
C43.37 112.49 43.29 112.21 43.29 111.86
C43.29 111.55 43.37 111.29 43.52 111.09
C43.67 110.88 43.84 110.78 44.05 110.78
Z
M40.73 111.49
L40.73 114.70
L39.27 114.70
L40.73 111.49
Z
M44.04 113.72
C44.31 113.72 44.53 113.86 44.72 114.13
C44.91 114.39 45.01 114.74 45.01 115.18
C45.01 115.62 44.92 115.96 44.73 116.22
C44.55 116.48 44.32 116.61 44.06 116.61
C43.80 116.61 43.57 116.48 43.38 116.21
C43.20 115.94 43.10 115.59 43.10 115.15
C43.10 114.73 43.19 114.39 43.38 114.12
C43.56 113.86 43.78 113.72 44.04 113.72
Z
M40.84 110.09
L38.70 114.70
L38.70 115.50
L40.73 115.50
L40.73 117.21
L41.30 117.21
L41.30 115.50
L41.94 115.50
L41.94 114.70
L41.30 114.70
L41.30 110.09
Z
M44.05 110.06
C43.66 110.06 43.34 110.23 43.09 110.57
C42.83 110.91 42.70 111.35 42.70 111.89
C42.70 112.25 42.76 112.55 42.88 112.79
C43.00 113.03 43.17 113.22 43.40 113.35
C43.13 113.46 42.91 113.67 42.75 113.97
C42.59 114.28 42.52 114.68 42.52 115.15
C42.52 115.80 42.66 116.33 42.96 116.73
C43.25 117.13 43.62 117.33 44.06 117.33
C44.49 117.33 44.86 117.13 45.15 116.73
C45.45 116.33 45.59 115.81 45.59 115.18
C45.59 114.72 45.52 114.33 45.37 114.02
C45.22 113.71 45.00 113.48 44.72 113.35
C44.95 113.21 45.12 113.03 45.23 112.79
C45.35 112.55 45.40 112.26 45.40 111.92
C45.40 111.37 45.28 110.92 45.02 110.58
C44.76 110.23 44.44 110.06 44.05 110.06
Z
" fill="black" fill-rule="nonzero" />
<path d="
M40.73 147.27
L40.73 150.48
L39.27 150.48
L40.73 147.27
Z
M40.84 145.86
L38.70 150.48
L38.70 151.28
L40.73 151.28
L40.73 152.98
L41.30 152.98
L41.30 151.28
L41.94 151.28
L41.94 150.48
L41.30 150.48
L41.30 145.86
Z
M44.09 145.83
C43.65 145.83 43.30 146.01 43.03 146.35
C42.76 146.70 42.60 147.21 42.56 147.89
L43.15 147.99
C43.15 147.53 43.24 147.17 43.41 146.93
C43.58 146.68 43.80 146.56 44.07 146.56
C44.32 146.56 44.52 146.67 44.69 146.90
C44.86 147.13 44.95 147.42 44.95 147.79
C44.95 148.10 44.87 148.44 44.70 148.80
C44.53 149.17 44.18 149.68 43.65 150.35
C43.19 150.93 42.87 151.42 42.70 151.84
C42.53 152.26 42.45 152.64 42.45 152.98
L45.54 152.98
L45.54 152.14
L43.25 152.14
C43.31 151.99 43.39 151.83 43.49 151.67
C43.59 151.51 43.81 151.21 44.16 150.77
C44.69 150.08 45.06 149.53 45.25 149.11
C45.44 148.69 45.54 148.26 45.54 147.81
C45.54 147.29 45.41 146.84 45.17 146.44
C44.92 146.03 44.56 145.83 44.09 145.83
Z
" fill="black" fill-rule="nonzero" />
<path d="
M40.59 159.83
L40.59 159.83
L40.59 159.83
L40.59 162.24
L39.49 162.24
L40.59 159.83
L40.59 159.83
L40.59 159.83
Z
M40.75 157.63
L40.71 157.71
L38.57 162.32
L38.56 162.35
L38.56 162.38
L38.56 163.19
L38.56 163.33
L40.59 163.33
L40.59 164.89
L40.59 165.03
L41.45 165.03
L41.45 164.89
L41.45 163.33
L42.08 163.33
L42.08 163.19
L42.08 162.38
L42.08 162.24
L41.45 162.24
L41.45 157.77
L41.45 157.63
Z
M44.20 157.60
L44.17 157.70
C44.08 157.99 43.92 158.30 43.68 158.61
C43.45 158.93 43.18 159.19 42.88 159.41
L42.82 159.45
L42.82 159.53
L42.82 160.37
L42.82 160.61
L43.03 160.50
C43.22 160.39 43.44 160.23 43.67 160.02
C43.78 159.92 43.88 159.82 43.96 159.72
L43.96 159.72
L43.96 164.89
L43.96 165.03
L44.82 165.03
L44.82 164.89
L44.82 157.74
L44.82 157.60
Z
" fill="white" fill-rule="nonzero" />
<path d="
M52.49 100.28
L52.49 102.70
L51.39 102.70
L52.49 100.28
Z
M52.65 98.08
L52.61 98.17
L50.48 102.78
L50.47 102.81
L50.47 102.84
L50.47 103.64
L50.47 103.78
L52.49 103.78
L52.49 105.35
L52.49 105.49
L53.35 105.49
L53.35 105.35
L53.35 103.78
L53.98 103.78
L53.98 103.64
L53.98 102.84
L53.98 102.70
L53.35 102.70
L53.35 98.23
L53.35 98.08
Z
M54.32 98.18
L54.32 98.32
L54.32 99.16
L54.32 99.30
L56.51 99.30
C56.26 99.77 56.02 100.32 55.80 100.95
C55.55 101.67 55.35 102.44 55.21 103.24
C55.06 104.04 54.98 104.74 54.98 105.35
L54.97 105.49
L55.71 105.49
L55.84 105.49
L55.85 105.35
C55.90 104.21 56.10 103.06 56.43 101.90
C56.77 100.74 57.16 99.79 57.61 99.07
L57.63 99.04
L57.63 99.00
L57.63 98.32
L57.63 98.18
Z
" fill="white" fill-rule="nonzero" />
<path d="
M52.49 159.76
L52.49 159.76
L52.49 159.76
L52.49 162.18
L51.39 162.18
L52.49 159.76
L52.49 159.76
L52.49 159.76
Z
M52.65 157.56
L52.61 157.65
L50.48 162.26
L50.47 162.29
L50.47 162.32
L50.47 163.12
L50.47 163.26
L52.49 163.26
L52.49 164.83
L52.49 164.97
L53.35 164.97
L53.35 164.83
L53.35 163.26
L53.98 163.26
L53.98 163.12
L53.98 162.32
L53.98 162.18
L53.35 162.18
L53.35 157.70
L53.35 157.56
Z
M55.90 157.53
C55.49 157.53 55.15 157.71 54.87 158.05
C54.60 158.38 54.42 158.87 54.35 159.51
L54.33 159.63
L54.45 159.66
L55.02 159.81
L55.18 159.86
L55.20 159.69
C55.24 159.29 55.33 158.99 55.46 158.80
C55.59 158.62 55.73 158.54 55.90 158.54
C55.90 158.54 55.91 158.54 55.91 158.54
C55.91 158.54 55.91 158.54 55.91 158.54
C56.07 158.54 56.21 158.62 56.33 158.78
C56.46 158.96 56.53 159.20 56.53 159.50
C56.53 159.83 56.45 160.09 56.29 160.28
C56.15 160.46 55.96 160.55 55.72 160.56
L55.72 160.56
L55.64 160.55
L55.50 160.53
L55.49 160.68
L55.42 161.44
L55.40 161.67
L55.61 161.59
C55.76 161.53 55.87 161.50 55.96 161.50
C55.96 161.50 55.96 161.50 55.96 161.50
C55.97 161.50 55.97 161.50 55.97 161.50
C56.17 161.50 56.35 161.61 56.50 161.82
C56.66 162.05 56.74 162.35 56.74 162.74
C56.74 163.15 56.65 163.48 56.47 163.73
C56.31 163.97 56.12 164.09 55.91 164.09
C55.91 164.09 55.91 164.09 55.91 164.09
C55.91 164.09 55.91 164.09 55.91 164.09
C55.72 164.09 55.56 163.99 55.44 163.80
C55.30 163.59 55.20 163.26 55.15 162.81
L55.13 162.66
L54.98 162.69
L54.40 162.81
L54.28 162.83
L54.29 162.96
C54.33 163.60 54.50 164.11 54.79 164.50
C55.10 164.89 55.47 165.09 55.92 165.10
C56.40 165.09 56.80 164.87 57.14 164.41
C57.47 163.97 57.63 163.41 57.63 162.72
C57.63 162.40 57.59 162.11 57.51 161.85
C57.43 161.58 57.32 161.36 57.19 161.20
C57.10 161.09 57.00 161.00 56.88 160.93
L56.88 160.93
C57.02 160.80 57.13 160.63 57.22 160.44
C57.34 160.17 57.40 159.87 57.40 159.52
C57.40 158.96 57.26 158.49 56.98 158.11
C56.68 157.73 56.32 157.54 55.90 157.53
Z
" fill="white" fill-rule="nonzero" />
<path d="
M67.87 122.83
C67.87 122.83 67.87 122.83 67.87 122.83
C67.87 122.83 67.87 122.83 67.87 122.83
C68.06 122.83 68.22 122.95 68.38 123.20
C68.54 123.47 68.63 123.84 68.63 124.32
C68.63 124.81 68.55 125.18 68.38 125.43
C68.24 125.67 68.06 125.78 67.86 125.78
C67.86 125.78 67.86 125.78 67.86 125.78
C67.86 125.78 67.86 125.78 67.86 125.78
C67.65 125.78 67.47 125.67 67.32 125.43
C67.15 125.18 67.06 124.83 67.06 124.40
C67.06 123.90 67.15 123.51 67.33 123.23
C67.50 122.96 67.67 122.83 67.87 122.83
Z
M64.40 124.05
L64.40 126.46
L63.30 126.46
L64.40 124.05
Z
M64.56 121.85
L64.52 121.93
L62.39 126.55
L62.37 126.58
L62.37 126.61
L62.37 127.41
L62.37 127.55
L64.40 127.55
L64.40 129.11
L64.40 129.25
L65.26 129.25
L65.26 129.11
L65.26 127.55
L65.89 127.55
L65.89 127.41
L65.89 126.61
L65.89 126.46
L65.26 126.46
L65.26 121.99
L65.26 121.85
Z
M67.80 121.82
C67.34 121.82 66.96 122.06 66.64 122.53
C66.34 122.98 66.19 123.59 66.19 124.37
C66.19 125.12 66.34 125.71 66.63 126.15
C66.93 126.61 67.30 126.84 67.73 126.84
C67.97 126.84 68.21 126.74 68.44 126.55
C68.53 126.48 68.61 126.40 68.68 126.31
L68.68 126.31
C68.66 126.70 68.61 127.05 68.53 127.36
C68.43 127.76 68.31 128.03 68.17 128.17
C68.04 128.31 67.90 128.37 67.75 128.37
C67.75 128.37 67.75 128.37 67.75 128.37
C67.74 128.37 67.74 128.37 67.74 128.37
C67.58 128.37 67.45 128.30 67.35 128.15
C67.23 127.98 67.15 127.72 67.11 127.37
L67.09 127.23
L66.95 127.25
L66.40 127.33
L66.26 127.34
L66.28 127.48
C66.32 128.08 66.48 128.54 66.73 128.87
C67.00 129.21 67.33 129.38 67.73 129.38
C68.09 129.38 68.40 129.24 68.68 128.96
C68.95 128.69 69.17 128.28 69.32 127.71
C69.47 127.16 69.55 126.39 69.55 125.40
C69.55 124.51 69.48 123.82 69.34 123.34
C69.19 122.85 68.98 122.48 68.71 122.22
C68.44 121.95 68.13 121.82 67.80 121.82
Z
" fill="white" fill-rule="nonzero" />
<path d="
M91.71 181.49
C91.27 181.49 90.92 181.66 90.65 182.01
C90.38 182.35 90.23 182.87 90.18 183.55
L90.78 183.64
C90.78 183.18 90.86 182.83 91.03 182.58
C91.20 182.34 91.42 182.21 91.69 182.21
C91.94 182.21 92.15 182.33 92.32 182.56
C92.49 182.78 92.57 183.08 92.57 183.44
C92.57 183.76 92.49 184.10 92.32 184.46
C92.16 184.82 91.81 185.34 91.27 186.01
C90.81 186.58 90.50 187.08 90.32 187.50
C90.15 187.92 90.07 188.30 90.08 188.64
L93.17 188.64
L93.17 187.80
L90.87 187.80
C90.93 187.64 91.02 187.48 91.12 187.32
C91.22 187.17 91.44 186.87 91.78 186.43
C92.31 185.74 92.68 185.18 92.87 184.77
C93.06 184.35 93.16 183.92 93.16 183.46
C93.16 182.95 93.04 182.49 92.79 182.09
C92.55 181.69 92.19 181.49 91.71 181.49
Z
M87.07 181.62
L86.61 185.27
L87.15 185.38
C87.24 185.16 87.36 184.99 87.51 184.87
C87.66 184.75 87.83 184.69 88.00 184.69
C88.29 184.69 88.53 184.83 88.72 185.11
C88.91 185.39 89.00 185.79 89.00 186.29
C89.00 186.84 88.90 187.26 88.71 187.57
C88.51 187.89 88.28 188.04 88.00 188.04
C87.79 188.04 87.60 187.93 87.43 187.71
C87.27 187.49 87.16 187.15 87.11 186.70
L86.51 186.78
C86.55 187.40 86.71 187.88 86.99 188.24
C87.27 188.59 87.61 188.76 88.01 188.76
C88.50 188.76 88.89 188.51 89.18 188.02
C89.47 187.52 89.61 186.92 89.61 186.23
C89.61 185.52 89.47 184.96 89.18 184.54
C88.89 184.13 88.55 183.92 88.16 183.92
C87.85 183.92 87.55 184.07 87.27 184.37
L87.53 182.45
L89.39 182.45
L89.39 181.62
Z
" fill="black" fill-rule="nonzero" />
<path d="
M103.55 182.21
C103.83 182.21 104.06 182.41 104.24 182.80
C104.42 183.19 104.50 183.97 104.50 185.13
C104.50 186.27 104.42 187.05 104.24 187.45
C104.06 187.84 103.84 188.04 103.58 188.04
C103.31 188.04 103.08 187.85 102.90 187.45
C102.72 187.06 102.63 186.28 102.63 185.13
C102.63 183.98 102.72 183.21 102.90 182.81
C103.07 182.41 103.29 182.21 103.55 182.21
Z
M98.97 181.62
L98.52 185.27
L99.06 185.38
C99.15 185.16 99.27 184.99 99.42 184.87
C99.57 184.75 99.73 184.69 99.91 184.69
C100.19 184.69 100.43 184.83 100.62 185.11
C100.81 185.39 100.91 185.79 100.91 186.29
C100.91 186.84 100.81 187.26 100.61 187.57
C100.42 187.89 100.18 188.04 99.91 188.04
C99.69 188.04 99.50 187.93 99.34 187.71
C99.17 187.49 99.07 187.15 99.02 186.70
L98.42 186.78
C98.46 187.40 98.62 187.88 98.89 188.24
C99.17 188.59 99.51 188.76 99.92 188.76
C100.40 188.76 100.79 188.51 101.08 188.02
C101.37 187.52 101.52 186.92 101.52 186.23
C101.52 185.52 101.37 184.96 101.08 184.54
C100.79 184.13 100.45 183.92 100.06 183.92
C99.75 183.92 99.46 184.07 99.18 184.37
L99.43 182.45
L101.29 182.45
L101.29 181.62
Z
M103.58 181.49
C103.07 181.49 102.69 181.80 102.43 182.41
C102.18 183.03 102.05 183.93 102.05 185.13
C102.05 186.46 102.19 187.40 102.47 187.95
C102.76 188.49 103.12 188.76 103.57 188.76
C104.07 188.76 104.45 188.45 104.71 187.84
C104.97 187.22 105.09 186.32 105.09 185.13
C105.09 183.80 104.94 182.84 104.63 182.24
C104.37 181.74 104.02 181.49 103.58 181.49
Z
" fill="black" fill-rule="nonzero" />
<path d="
M111.27 76.80
L111.27 76.80
L111.27 76.80
C111.27 76.80 111.27 76.80 111.27 76.80
Z
M110.75 74.26
L110.74 74.39
L110.28 78.04
L110.27 78.17
L110.40 78.20
L110.94 78.31
L111.05 78.33
L111.10 78.22
C111.17 78.03 111.28 77.88 111.41 77.77
C111.54 77.67 111.67 77.62 111.81 77.62
C111.81 77.62 111.81 77.62 111.81 77.62
C111.81 77.62 111.81 77.62 111.82 77.62
C112.05 77.62 112.25 77.74 112.41 77.98
C112.59 78.23 112.67 78.60 112.67 79.08
C112.67 79.60 112.58 80.00 112.40 80.29
C112.23 80.55 112.04 80.69 111.82 80.69
C111.82 80.69 111.82 80.69 111.82 80.69
C111.81 80.69 111.81 80.69 111.81 80.69
C111.64 80.69 111.49 80.60 111.36 80.41
C111.21 80.21 111.11 79.90 111.07 79.47
L111.05 79.33
L110.91 79.34
L110.30 79.42
L110.17 79.44
L110.18 79.57
C110.22 80.22 110.39 80.74 110.69 81.11
C111.00 81.50 111.37 81.69 111.82 81.69
C112.36 81.69 112.79 81.42 113.11 80.87
C113.41 80.36 113.56 79.74 113.56 79.01
C113.56 78.28 113.41 77.69 113.10 77.25
C112.79 76.79 112.41 76.57 111.97 76.56
C111.73 76.56 111.49 76.64 111.27 76.80
L111.27 76.80
L111.46 75.38
L113.34 75.38
L113.34 75.24
L113.34 74.40
L113.34 74.26
Z
M114.38 74.26
L114.37 74.39
L113.91 78.04
L113.90 78.17
L114.03 78.20
L114.57 78.31
L114.68 78.33
L114.73 78.22
C114.80 78.03 114.91 77.88 115.04 77.77
C115.17 77.67 115.30 77.62 115.44 77.62
C115.44 77.62 115.44 77.62 115.44 77.62
C115.44 77.62 115.44 77.62 115.45 77.62
C115.68 77.62 115.88 77.74 116.04 77.98
C116.22 78.23 116.30 78.60 116.30 79.08
C116.30 79.60 116.21 80.00 116.03 80.29
C115.86 80.55 115.67 80.69 115.45 80.69
C115.45 80.69 115.45 80.69 115.45 80.69
C115.44 80.69 115.44 80.69 115.44 80.69
C115.27 80.69 115.12 80.60 114.99 80.41
C114.84 80.21 114.74 79.90 114.70 79.47
L114.68 79.33
L114.54 79.34
L113.93 79.42
L113.80 79.44
L113.81 79.57
C113.85 80.22 114.02 80.74 114.32 81.11
C114.63 81.50 115.00 81.69 115.45 81.69
C115.99 81.69 116.42 81.42 116.74 80.87
C117.04 80.36 117.19 79.74 117.19 79.01
C117.19 78.28 117.04 77.69 116.73 77.25
C116.42 76.79 116.04 76.57 115.60 76.56
C115.36 76.56 115.12 76.64 114.90 76.80
L114.90 76.80
L115.09 75.38
L116.97 75.38
L116.97 75.24
L116.97 74.40
L116.97 74.26
Z
" fill="white" fill-rule="nonzero" />
<path d="
M111.27 160.20
L111.27 160.20
L111.27 160.20
C111.27 160.20 111.27 160.20 111.27 160.20
Z
M115.64 157.54
L115.61 157.64
C115.51 157.93 115.35 158.24 115.12 158.55
C114.88 158.87 114.61 159.13 114.31 159.35
L114.25 159.39
L114.25 159.47
L114.25 160.31
L114.25 160.55
L114.46 160.44
C114.66 160.33 114.87 160.17 115.10 159.96
C115.21 159.86 115.31 159.76 115.40 159.66
L115.40 159.66
L115.40 164.83
L115.40 164.97
L116.26 164.97
L116.26 164.83
L116.26 157.68
L116.26 157.54
Z
M110.75 157.66
L110.74 157.79
L110.28 161.45
L110.27 161.58
L110.40 161.60
L110.94 161.71
L111.05 161.73
L111.10 161.62
C111.17 161.43 111.28 161.28 111.41 161.17
C111.54 161.07 111.67 161.02 111.81 161.02
C111.81 161.02 111.81 161.02 111.81 161.02
C111.81 161.02 111.81 161.02 111.82 161.02
C112.05 161.02 112.25 161.14 112.41 161.38
C112.59 161.64 112.67 162.00 112.67 162.48
C112.67 163.00 112.58 163.40 112.40 163.69
C112.23 163.96 112.04 164.09 111.82 164.09
C111.82 164.09 111.82 164.09 111.82 164.09
C111.81 164.09 111.81 164.09 111.81 164.09
C111.64 164.09 111.49 164.00 111.36 163.81
C111.21 163.61 111.11 163.30 111.07 162.87
L111.05 162.73
L110.91 162.75
L110.30 162.82
L110.17 162.84
L110.18 162.97
C110.22 163.62 110.39 164.14 110.69 164.51
C111.00 164.90 111.37 165.09 111.82 165.09
C112.36 165.09 112.79 164.82 113.11 164.28
C113.41 163.76 113.56 163.14 113.56 162.42
C113.56 161.68 113.41 161.09 113.10 160.65
C112.79 160.20 112.41 159.97 111.97 159.97
C111.73 159.97 111.49 160.04 111.27 160.20
L111.27 160.20
L111.46 158.78
L113.34 158.78
L113.34 158.64
L113.34 157.80
L113.34 157.66
Z
" fill="white" fill-rule="nonzero" />
<path d="
M170.80 112.57
L170.80 112.57
L170.80 112.57
C170.80 112.57 170.80 112.57 170.80 112.57
Z
M170.28 110.04
L170.27 110.16
L169.81 113.82
L169.79 113.95
L169.92 113.98
L170.46 114.08
L170.58 114.11
L170.62 114.00
C170.70 113.80 170.81 113.65 170.94 113.55
C171.07 113.45 171.20 113.40 171.34 113.40
C171.34 113.40 171.34 113.40 171.34 113.40
C171.34 113.40 171.34 113.40 171.34 113.40
C171.58 113.40 171.78 113.52 171.94 113.76
C172.11 114.01 172.20 114.38 172.20 114.86
C172.20 115.37 172.11 115.77 171.93 116.06
C171.76 116.33 171.57 116.47 171.35 116.47
C171.35 116.47 171.34 116.47 171.34 116.47
C171.34 116.47 171.34 116.47 171.34 116.47
C171.17 116.47 171.02 116.37 170.88 116.19
C170.73 115.99 170.64 115.68 170.59 115.25
L170.58 115.10
L170.43 115.12
L169.83 115.20
L169.70 115.22
L169.71 115.35
C169.75 116.00 169.92 116.51 170.22 116.89
C170.52 117.27 170.90 117.47 171.35 117.47
C171.89 117.47 172.32 117.19 172.64 116.65
C172.94 116.13 173.09 115.51 173.09 114.79
C173.09 114.06 172.94 113.47 172.63 113.03
C172.31 112.57 171.93 112.34 171.49 112.34
C171.25 112.34 171.02 112.42 170.80 112.57
L170.80 112.57
L170.99 111.16
L172.87 111.16
L172.87 111.02
L172.87 110.18
L172.87 110.04
Z
M174.95 109.91
C174.55 109.91 174.21 110.09 173.92 110.43
C173.65 110.76 173.48 111.25 173.40 111.88
L173.39 112.00
L173.51 112.04
L174.08 112.19
L174.24 112.24
L174.26 112.07
C174.29 111.66 174.38 111.36 174.52 111.17
C174.64 111.00 174.79 110.91 174.96 110.91
C174.96 110.91 174.96 110.91 174.96 110.91
C174.96 110.91 174.96 110.91 174.96 110.91
C175.13 110.91 175.27 111.00 175.39 111.16
C175.52 111.34 175.58 111.58 175.58 111.88
C175.58 112.21 175.50 112.47 175.35 112.66
C175.20 112.84 175.01 112.93 174.78 112.93
L174.78 112.93
L174.70 112.93
L174.55 112.91
L174.54 113.05
L174.47 113.82
L174.45 114.05
L174.67 113.97
C174.81 113.91 174.93 113.88 175.02 113.88
C175.02 113.88 175.02 113.88 175.02 113.88
C175.02 113.88 175.02 113.88 175.02 113.88
C175.23 113.88 175.41 113.98 175.55 114.20
C175.71 114.42 175.79 114.73 175.79 115.12
C175.79 115.53 175.70 115.86 175.53 116.11
C175.37 116.35 175.18 116.47 174.97 116.47
C174.97 116.47 174.97 116.47 174.97 116.47
C174.96 116.47 174.96 116.47 174.96 116.47
C174.77 116.47 174.62 116.37 174.49 116.18
C174.36 115.97 174.26 115.64 174.20 115.19
L174.18 115.04
L174.03 115.07
L173.46 115.19
L173.34 115.21
L173.34 115.33
C173.38 115.97 173.55 116.49 173.85 116.87
C174.15 117.27 174.53 117.47 174.97 117.47
C175.45 117.47 175.86 117.25 176.19 116.79
C176.52 116.35 176.68 115.79 176.69 115.10
C176.69 114.78 176.65 114.49 176.57 114.22
C176.49 113.96 176.38 113.74 176.24 113.58
C176.16 113.47 176.05 113.38 175.94 113.31
L175.94 113.31
C176.07 113.18 176.19 113.01 176.27 112.82
C176.40 112.55 176.46 112.24 176.46 111.90
C176.46 111.34 176.31 110.87 176.03 110.49
C175.74 110.11 175.38 109.91 174.95 109.91
Z
" fill="white" fill-rule="nonzero" />
<path d="
M199.13 135.29
L199.13 138.50
L197.67 138.50
L199.13 135.29
Z
M199.24 133.88
L197.11 138.50
L197.11 139.30
L199.13 139.30
L199.13 141.00
L199.71 141.00
L199.71 139.30
L200.34 139.30
L200.34 138.50
L199.71 138.50
L199.71 133.88
Z
M194.22 133.98
L193.76 137.64
L194.30 137.74
C194.39 137.53 194.51 137.36 194.66 137.24
C194.81 137.12 194.98 137.05 195.15 137.05
C195.44 137.05 195.68 137.19 195.87 137.47
C196.06 137.75 196.15 138.15 196.15 138.66
C196.15 139.20 196.05 139.63 195.86 139.94
C195.66 140.25 195.43 140.41 195.15 140.41
C194.94 140.41 194.75 140.30 194.58 140.07
C194.42 139.85 194.31 139.51 194.26 139.06
L193.66 139.14
C193.70 139.76 193.86 140.25 194.14 140.60
C194.42 140.95 194.76 141.13 195.16 141.13
C195.65 141.13 196.04 140.88 196.33 140.38
C196.61 139.88 196.76 139.29 196.76 138.59
C196.76 137.88 196.61 137.32 196.33 136.91
C196.04 136.49 195.70 136.28 195.31 136.28
C194.99 136.28 194.70 136.43 194.42 136.73
L194.68 134.81
L196.54 134.81
L196.54 133.98
Z
" fill="black" fill-rule="nonzero" />
</g>
<g  transform="translate(1.19,228.58)" >
<path d="
M88.81 2.94
C88.64 2.94 88.50 3.00 88.39 3.11
C88.27 3.23 88.21 3.37 88.21 3.53
C88.21 3.69 88.27 3.83 88.39 3.95
C88.50 4.07 88.64 4.12 88.81 4.12
C88.97 4.12 89.11 4.07 89.22 3.95
C89.34 3.83 89.39 3.69 89.39 3.53
C89.39 3.37 89.34 3.23 89.22 3.11
C89.11 3.00 88.97 2.94 88.81 2.94
Z
M118.71 4.39
L118.71 8.31
L115.94 8.31
L118.71 4.39
Z
M127.57 8.10
L127.57 8.98
L130.58 8.98
L130.58 8.10
Z
M93.20 6.01
C93.51 6.01 93.76 6.14 93.96 6.39
C94.23 6.74 94.36 7.22 94.36 7.84
C94.36 8.31 94.26 8.66 94.07 8.88
C93.88 9.10 93.64 9.21 93.35 9.21
C93.04 9.21 92.78 9.08 92.58 8.83
C92.32 8.49 92.18 8.02 92.18 7.40
C92.18 6.93 92.28 6.58 92.48 6.35
C92.67 6.12 92.91 6.01 93.20 6.01
Z
M80.65 3.33
L80.65 3.54
L80.93 3.54
C81.12 3.54 81.30 3.59 81.47 3.68
C81.59 3.75 81.66 3.84 81.70 3.93
C81.75 4.06 81.78 4.32 81.78 4.72
L81.78 9.82
C81.78 10.29 81.73 10.59 81.64 10.71
C81.49 10.90 81.26 11.00 80.93 11.00
L80.65 11.00
L80.65 11.21
L84.04 11.21
L84.04 11.00
L83.75 11.00
C83.56 11.00 83.39 10.95 83.22 10.86
C83.09 10.79 83.01 10.71 82.97 10.61
C82.92 10.48 82.90 10.22 82.90 9.82
L82.90 7.34
L84.33 7.34
C84.60 7.34 84.79 7.38 84.93 7.45
C85.06 7.52 85.17 7.63 85.24 7.77
C85.32 7.91 85.36 8.14 85.36 8.44
L85.58 8.44
L85.58 5.78
L85.36 5.78
C85.31 6.21 85.21 6.49 85.06 6.64
C84.90 6.78 84.66 6.86 84.33 6.86
L82.90 6.86
L82.90 3.76
L84.63 3.76
C85.05 3.76 85.35 3.80 85.54 3.87
C85.74 3.95 85.91 4.08 86.04 4.25
C86.17 4.42 86.29 4.69 86.39 5.06
L86.59 5.06
L86.52 3.33
Z
M89.03 5.73
L87.43 6.38
L87.51 6.59
C87.67 6.53 87.80 6.50 87.91 6.50
C88.01 6.50 88.09 6.53 88.14 6.58
C88.20 6.62 88.25 6.71 88.27 6.83
C88.31 7.00 88.32 7.38 88.32 7.96
L88.32 10.01
C88.32 10.34 88.30 10.56 88.25 10.68
C88.19 10.79 88.12 10.88 88.03 10.93
C87.94 10.98 87.77 11.00 87.51 11.00
L87.51 11.21
L90.10 11.21
L90.10 11.00
C89.85 11.00 89.67 10.98 89.58 10.92
C89.48 10.87 89.41 10.79 89.36 10.68
C89.31 10.56 89.29 10.34 89.29 10.01
L89.29 5.73
Z
M119.03 3.16
L115.37 8.39
L115.37 9.13
L118.71 9.13
L118.71 11.21
L119.67 11.21
L119.67 9.13
L120.73 9.13
L120.73 8.31
L119.67 8.31
L119.67 3.16
Z
M124.45 3.16
L122.54 4.10
L122.62 4.28
C122.88 4.16 123.08 4.10 123.22 4.10
C123.32 4.10 123.41 4.13 123.48 4.19
C123.55 4.25 123.60 4.34 123.63 4.46
C123.67 4.62 123.69 4.99 123.69 5.57
L123.69 9.82
C123.69 10.30 123.67 10.58 123.62 10.67
C123.58 10.77 123.50 10.85 123.40 10.90
C123.29 10.96 123.05 10.99 122.67 11.00
L122.67 11.21
L125.64 11.21
L125.64 11.00
C125.28 10.99 125.05 10.96 124.93 10.90
C124.81 10.84 124.74 10.76 124.70 10.65
C124.66 10.54 124.65 10.27 124.65 9.82
L124.65 3.16
Z
M105.03 3.16
C104.52 3.16 104.09 3.31 103.75 3.60
C103.41 3.89 103.12 4.30 102.90 4.83
L103.09 4.92
C103.49 4.28 104.00 3.96 104.60 3.96
C104.97 3.96 105.28 4.08 105.53 4.32
C105.78 4.57 105.90 4.89 105.90 5.29
C105.90 5.60 105.83 5.88 105.70 6.14
C105.56 6.39 105.33 6.61 105.02 6.79
C104.72 6.98 104.41 7.09 104.10 7.12
L104.10 7.30
L104.29 7.30
C104.59 7.30 104.89 7.36 105.18 7.49
C105.47 7.61 105.70 7.75 105.86 7.91
C105.98 8.02 106.09 8.19 106.20 8.40
C106.33 8.69 106.40 8.99 106.40 9.30
C106.40 9.72 106.25 10.08 105.96 10.39
C105.67 10.69 105.32 10.85 104.93 10.85
C104.76 10.85 104.61 10.83 104.47 10.78
C104.38 10.76 104.22 10.69 103.99 10.56
C103.75 10.44 103.60 10.37 103.54 10.35
C103.44 10.32 103.34 10.31 103.24 10.31
C103.11 10.31 103.00 10.35 102.91 10.43
C102.82 10.52 102.78 10.62 102.78 10.73
C102.78 10.88 102.87 11.02 103.06 11.15
C103.26 11.29 103.62 11.35 104.15 11.35
C105.22 11.35 106.04 11.03 106.61 10.38
C107.04 9.88 107.26 9.28 107.26 8.60
C107.26 8.12 107.14 7.71 106.89 7.36
C106.64 7.00 106.27 6.73 105.79 6.54
C106.51 5.93 106.87 5.34 106.87 4.76
C106.87 4.41 106.74 4.09 106.49 3.78
C106.15 3.37 105.66 3.16 105.03 3.16
Z
M133.40 3.33
L131.89 6.39
C132.62 6.42 133.19 6.52 133.62 6.69
C134.15 6.92 134.58 7.24 134.88 7.65
C135.19 8.06 135.34 8.51 135.34 8.99
C135.34 9.48 135.17 9.90 134.83 10.24
C134.48 10.58 134.09 10.75 133.63 10.75
C133.33 10.75 133.04 10.65 132.75 10.45
C132.57 10.32 132.44 10.24 132.36 10.21
C132.29 10.18 132.20 10.17 132.10 10.17
C131.96 10.17 131.85 10.21 131.76 10.29
C131.67 10.37 131.63 10.47 131.63 10.58
C131.63 10.77 131.73 10.95 131.95 11.11
C132.16 11.27 132.51 11.35 132.98 11.35
C133.45 11.35 133.91 11.25 134.35 11.03
C134.67 10.88 134.95 10.68 135.21 10.43
C135.46 10.19 135.68 9.89 135.85 9.53
C136.01 9.18 136.10 8.80 136.10 8.38
C136.10 7.67 135.84 7.05 135.33 6.52
C134.72 5.91 133.91 5.53 132.88 5.37
L133.40 4.32
L135.77 4.32
L136.23 3.33
Z
M139.35 3.33
L137.84 6.39
C138.57 6.42 139.15 6.52 139.57 6.69
C140.11 6.92 140.53 7.24 140.84 7.65
C141.14 8.06 141.30 8.51 141.30 8.99
C141.30 9.48 141.12 9.90 140.78 10.24
C140.44 10.58 140.04 10.75 139.59 10.75
C139.29 10.75 138.99 10.65 138.70 10.45
C138.52 10.32 138.39 10.24 138.31 10.21
C138.24 10.18 138.15 10.17 138.05 10.17
C137.91 10.17 137.80 10.21 137.71 10.29
C137.62 10.37 137.58 10.47 137.58 10.58
C137.58 10.77 137.69 10.95 137.90 11.11
C138.12 11.27 138.46 11.35 138.93 11.35
C139.40 11.35 139.86 11.25 140.31 11.03
C140.62 10.88 140.91 10.68 141.16 10.43
C141.42 10.19 141.63 9.89 141.80 9.53
C141.97 9.18 142.05 8.80 142.05 8.38
C142.05 7.67 141.79 7.05 141.28 6.52
C140.68 5.91 139.86 5.53 138.84 5.37
L139.35 4.32
L141.73 4.32
L142.18 3.33
Z
M97.83 10.08
C97.65 10.08 97.50 10.15 97.37 10.27
C97.25 10.39 97.18 10.55 97.18 10.73
C97.18 10.91 97.25 11.06 97.37 11.19
C97.50 11.31 97.65 11.38 97.83 11.38
C98.01 11.38 98.16 11.31 98.29 11.19
C98.41 11.06 98.47 10.91 98.47 10.73
C98.47 10.55 98.41 10.40 98.29 10.27
C98.16 10.15 98.01 10.08 97.83 10.08
Z
M92.13 11.21
C92.60 11.28 93.27 11.32 94.14 11.35
C94.74 11.36 95.14 11.41 95.34 11.50
C95.53 11.58 95.63 11.73 95.63 11.93
C95.63 12.21 95.47 12.47 95.14 12.72
C94.80 12.96 94.29 13.09 93.59 13.09
C92.86 13.09 92.30 12.97 91.91 12.72
C91.69 12.59 91.57 12.42 91.57 12.24
C91.57 12.09 91.62 11.94 91.71 11.77
C91.81 11.59 91.94 11.41 92.13 11.21
Z
M114.92 2.94
C113.97 3.37 113.19 4.08 112.60 5.07
C112.01 6.06 111.71 7.16 111.71 8.36
C111.71 9.18 111.86 9.97 112.16 10.74
C112.47 11.50 112.90 12.16 113.46 12.72
C113.85 13.12 114.34 13.47 114.92 13.76
L114.92 13.54
C114.53 13.27 114.21 12.99 113.97 12.69
C113.73 12.39 113.53 12.08 113.39 11.76
C113.25 11.43 113.13 11.00 113.02 10.47
C112.90 9.79 112.83 9.04 112.83 8.21
C112.83 7.44 112.91 6.71 113.06 6.01
C113.21 5.31 113.44 4.73 113.75 4.27
C114.05 3.81 114.44 3.45 114.92 3.19
L114.92 2.94
Z
M143.23 2.94
L143.23 3.19
C143.62 3.46 143.94 3.74 144.18 4.04
C144.42 4.34 144.62 4.65 144.76 4.97
C144.91 5.29 145.03 5.72 145.13 6.26
C145.25 6.94 145.32 7.69 145.32 8.52
C145.32 9.28 145.24 10.02 145.09 10.72
C144.94 11.43 144.72 12.00 144.41 12.46
C144.10 12.92 143.71 13.28 143.23 13.54
L143.23 13.76
C144.19 13.33 144.96 12.63 145.55 11.63
C146.14 10.64 146.44 9.55 146.44 8.35
C146.44 7.52 146.29 6.73 145.99 5.96
C145.68 5.20 145.26 4.54 144.70 3.97
C144.31 3.58 143.82 3.23 143.23 2.94
Z
M93.30 5.73
C92.68 5.73 92.17 5.92 91.77 6.30
C91.37 6.68 91.17 7.13 91.17 7.66
C91.17 8.00 91.26 8.32 91.43 8.60
C91.61 8.89 91.86 9.11 92.18 9.27
C91.79 9.60 91.53 9.86 91.42 10.04
C91.31 10.23 91.25 10.39 91.25 10.52
C91.25 10.64 91.30 10.75 91.38 10.84
C91.46 10.94 91.61 11.05 91.81 11.17
C91.44 11.55 91.24 11.76 91.21 11.79
C91.01 12.05 90.87 12.25 90.81 12.39
C90.76 12.49 90.74 12.58 90.74 12.67
C90.74 12.88 90.89 13.08 91.18 13.28
C91.69 13.61 92.33 13.78 93.07 13.78
C94.05 13.78 94.84 13.50 95.44 12.93
C95.85 12.55 96.06 12.14 96.06 11.70
C96.06 11.38 95.95 11.12 95.74 10.90
C95.52 10.68 95.23 10.55 94.87 10.50
C94.63 10.46 94.12 10.44 93.32 10.42
C92.88 10.40 92.61 10.39 92.50 10.38
C92.32 10.35 92.19 10.30 92.13 10.24
C92.07 10.18 92.03 10.12 92.03 10.05
C92.03 9.97 92.06 9.88 92.12 9.77
C92.18 9.66 92.30 9.53 92.47 9.38
C92.74 9.46 93.01 9.50 93.28 9.50
C93.92 9.50 94.43 9.32 94.81 8.97
C95.19 8.62 95.38 8.19 95.38 7.69
C95.38 7.26 95.27 6.90 95.05 6.62
L95.74 6.62
C95.91 6.62 96.01 6.62 96.04 6.61
C96.07 6.60 96.09 6.58 96.10 6.56
C96.12 6.52 96.13 6.45 96.13 6.35
C96.13 6.26 96.12 6.20 96.09 6.17
C96.08 6.14 96.06 6.13 96.03 6.12
C96.01 6.11 95.91 6.10 95.74 6.10
L94.62 6.10
C94.24 5.85 93.80 5.73 93.30 5.73
Z
" fill="black" fill-rule="nonzero" />
</g>
</g>
</svg>
