<?xml version="1.0" encoding="utf-8" standalone="no"?>
<!DOCTYPE svg PUBLIC "-//W3C//DTD SVG 1.0//EN" "http://www.w3.org/TR/SVG/DTD/svg11.dtd" >
<svg version="1.1" baseProfile="full"  width="319.13385" height="338.51422" viewBox="0 0 229.77638 243.73024" preserveAspectRatio="xMidYMid" xmlns="http://www.w3.org/2000/svg" >

<g lengthAdjust="spacingAndGlyphs" xml:space='preserve' >
<g  transform="translate(1.19,1.19)" >
<path d="
M0.0 0.0
L0.0 227.39
L227.39 227.39
L227.39 0.0
Z
" fill="none" fill-rule="nonzero" />
<line x1="6.54" y1="6.54" x2="6.54" y2="220.84" fill="none" stroke="black" stroke-width="0.87px" stroke-linecap="square" />
<line x1="18.45" y1="6.54" x2="18.45" y2="220.84" fill="none" stroke="black" stroke-width="0.25px" stroke-linecap="butt" />
<line x1="30.35" y1="6.54" x2="30.35" y2="220.84" fill="none" stroke="black" stroke-width="0.25px" stroke-linecap="butt" />
<line x1="42.26" y1="6.54" x2="42.26" y2="220.84" fill="none" stroke="black" stroke-width="0.25px" stroke-linecap="butt" />
<line x1="54.17" y1="6.54" x2="54.17" y2="220.84" fill="none" stroke="black" stroke-width="0.25px" stroke-linecap="butt" />
<line x1="66.07" y1="6.54" x2="66.07" y2="220.84" fill="none" stroke="black" stroke-width="0.25px" stroke-linecap="butt" />
<line x1="77.98" y1="6.54" x2="77.98" y2="220.84" fill="none" stroke="black" stroke-width="0.25px" stroke-linecap="butt" />
<line x1="89.88" y1="6.54" x2="89.88" y2="220.84" fill="none" stroke="black" stroke-width="0.25px" stroke-linecap="butt" />
<line x1="101.79" y1="6.54" x2="101.79" y2="220.84" fill="none" stroke="black" stroke-width="0.25px" stroke-linecap="butt" />
<line x1="113.69" y1="6.54" x2="113.69" y2="220.84" fill="none" stroke="black" stroke-width="0.25px" stroke-linecap="butt" />
<line x1="125.60" y1="6.54" x2="125.60" y2="220.84" fill="none" stroke="black" stroke-width="0.25px" stroke-linecap="butt" />
<line x1="137.50" y1="6.54" x2="137.50" y2="220.84" fill="none" stroke="black" stroke-width="0.25px" stroke-linecap="butt" />
<line x1="149.41" y1="6.54" x2="149.41" y2="220.84" fill="none" stroke="black" stroke-width="0.25px" stroke-linecap="butt" />
<line x1="161.31" y1="6.54" x2="161.31" y2="220.84" fill="none" stroke="black" stroke-width="0.25px" stroke-linecap="butt" />
<line x1="173.22" y1="6.54" x2="173.22" y2="220.84" fill="none" stroke="black" stroke-width="0.25px" stroke-linecap="butt" />
<line x1="185.13" y1="6.54" x2="185.13" y2="220.84" fill="none" stroke="black" stroke-width="0.25px" stroke-linecap="butt" />
<line x1="197.03" y1="6.54" x2="197.03" y2="220.84" fill="none" stroke="black" stroke-width="0.25px" stroke-linecap="butt" />
<line x1="208.94" y1="6.54" x2="208.94" y2="220.84" fill="none" stroke="black" stroke-width="0.25px" stroke-linecap="butt" />
<line x1="220.84" y1="6.54" x2="220.84" y2="220.84" fill="none" stroke="black" stroke-width="0.87px" stroke-linecap="square" />
<line x1="6.54" y1="6.54" x2="220.84" y2="6.54" fill="none" stroke="black" stroke-width="0.87px" stroke-linecap="square" />
<line x1="6.54" y1="18.45" x2="220.84" y2="18.45" fill="none" stroke="black" stroke-width="0.25px" stroke-linecap="butt" />
<line x1="6.54" y1="30.35" x2="220.84" y2="30.35" fill="none" stroke="black" stroke-width="0.25px" stroke-linecap="butt" />
<line x1="6.54" y1="42.26" x2="220.84" y2="42.26" fill="none" stroke="black" stroke-width="0.25px" stroke-linecap="butt" />
<line x1="6.54" y1="54.17" x2="220.84" y2="54.17" fill="none" stroke="black" stroke-width="0.25px" stroke-linecap="butt" />
<line x1="6.54" y1="66.07" x2="220.84" y2="66.07" fill="none" stroke="black" stroke-width="0.25px" stroke-linecap="butt" />
<line x1="6.54" y1="77.98" x2="220.84" y2="77.98" fill="none" stroke="black" stroke-width="0.25px" stroke-linecap="butt" />
<line x1="6.54" y1="89.88" x2="220.84" y2="89.88" fill="none" stroke="black" stroke-width="0.25px" stroke-linecap="butt" />
<line x1="6.54" y1="101.79" x2="220.84" y2="101.79" fill="none" stroke="black" stroke-width="0.25px" stroke-linecap="butt" />
<line x1="6.54" y1="113.69" x2="220.84" y2="113.69" fill="none" stroke="black" stroke-width="0.25px" stroke-linecap="butt" />
<line x1="6.54" y1="125.60" x2="220.84" y2="125.60" fill="none" stroke="black" stroke-width="0.25px" stroke-linecap="butt" />
<line x1="6.54" y1="137.50" x2="220.84" y2="137.50" fill="none" stroke="black" stroke-width="0.25px" stroke-linecap="butt" />
<line x1="6.54" y1="149.41" x2="220.84" y2="149.41" fill="none" stroke="black" stroke-width="0.25px" stroke-linecap="butt" />
<line x1="6.54" y1="161.31" x2="220.84" y2="161.31" fill="none" stroke="black" stroke-width="0.25px" stroke-linecap="butt" />
<line x1="6.54" y1="173.22" x2="220.84" y2="173.22" fill="none" stroke="black" stroke-width="0.25px" stroke-linecap="butt" />
<line x1="6.54" y1="185.13" x2="220.84" y2="185.13" fill="none" stroke="black" stroke-width="0.25px" stroke-linecap="butt" />
<line x1="6.54" y1="197.03" x2="220.84" y2="197.03" fill="none" stroke="black" stroke-width="0.25px" stroke-linecap="butt" />
<line x1="6.54" y1="208.94" x2="220.84" y2="208.94" fill="none" stroke="black" stroke-width="0.25px" stroke-linecap="butt" />
<line x1="6.54" y1="220.84" x2="220.84" y2="220.84" fill="none" stroke="black" stroke-width="0.87px" stroke-linecap="square" />
<circle cx="30.35" cy="185.13" r="6.01" fill="black"/>
<circle cx="42.26" cy="30.35" r="5.89" fill="white"/>
<circle cx="42.26" cy="30.35" r="5.89" fill="none" stroke="black" stroke-width="0.25px"/>
<circle cx="42.26" cy="42.26" r="1.27" fill="black"/>
<circle cx="42.26" cy="113.69" r="1.27" fill="black"/>
<circle cx="42.26" cy="185.13" r="1.27" fill="black"/>
<circle cx="54.17" cy="185.13" r="5.89" fill="white"/>
<circle cx="54.17" cy="185.13" r="5.89" fill="none" stroke="black" stroke-width="0.25px"/>
<circle cx="77.98" cy="197.03" r="6.01" fill="black"/>
<circle cx="113.69" cy="42.26" r="1.27" fill="black"/>
<circle cx="113.69" cy="113.69" r="1.27" fill="black"/>
<circle cx="113.69" cy="185.13" r="1.27" fill="black"/>
<circle cx="173.22" cy="30.35" r="6.01" fill="black"/>
<circle cx="185.13" cy="42.26" r="1.27" fill="black"/>
<circle cx="185.13" cy="113.69" r="1.27" fill="black"/>
<circle cx="185.13" cy="185.13" r="1.27" fill="black"/>
<circle cx="185.13" cy="197.03" r="5.89" fill="white"/>
<circle cx="185.13" cy="197.03" r="5.89" fill="none" stroke="black" stroke-width="0.25px"/>
<circle cx="197.03" cy="42.26" r="6.01" fill="black"/>
<circle cx="197.03" cy="89.88" r="6.01" fill="black"/>
<circle cx="197.03" cy="113.69" r="5.89" fill="white"/>
<circle cx="197.03" cy="113.69" r="5.89" fill="none" stroke="black" stroke-width="0.25px"/>
<circle cx="197.03" cy="149.41" r="5.89" fill="white"/>
<circle cx="197.03" cy="149.41" r="5.89" fill="none" stroke="black" stroke-width="0.25px"/>
<circle cx="197.03" cy="173.22" r="6.01" fill="black"/>
<path d="
M30.25 181.39
C29.77 181.39 29.36 181.56 29.02 181.89
C28.68 182.22 28.47 182.70 28.37 183.33
L28.35 183.46
L28.48 183.49
L29.19 183.65
L29.34 183.68
L29.36 183.53
C29.40 183.13 29.51 182.84 29.68 182.65
C29.84 182.47 30.03 182.38 30.26 182.38
C30.26 182.38 30.26 182.38 30.26 182.38
C30.26 182.38 30.26 182.38 30.27 182.38
C30.49 182.38 30.67 182.47 30.83 182.64
C30.98 182.81 31.06 183.04 31.06 183.34
C31.06 183.65 30.97 183.91 30.78 184.09
C30.59 184.28 30.34 184.37 30.03 184.37
L30.03 184.37
L29.93 184.37
L29.79 184.35
L29.78 184.49
L29.69 185.25
L29.67 185.47
L29.88 185.40
C30.06 185.34 30.22 185.31 30.33 185.31
C30.33 185.31 30.33 185.31 30.33 185.31
C30.34 185.31 30.34 185.31 30.34 185.31
C30.61 185.31 30.84 185.42 31.03 185.64
C31.22 185.86 31.32 186.16 31.32 186.53
C31.32 186.93 31.21 187.26 31.00 187.50
C30.79 187.74 30.55 187.86 30.27 187.86
C30.27 187.86 30.27 187.86 30.27 187.86
C30.27 187.86 30.27 187.86 30.26 187.86
C30.01 187.86 29.81 187.77 29.65 187.57
C29.48 187.36 29.36 187.04 29.29 186.60
L29.27 186.46
L29.13 186.48
L28.42 186.60
L28.29 186.62
L28.30 186.75
C28.35 187.39 28.56 187.90 28.92 188.28
C29.29 188.67 29.74 188.86 30.28 188.86
C30.85 188.86 31.34 188.64 31.75 188.20
C32.15 187.76 32.36 187.20 32.36 186.52
C32.36 186.20 32.31 185.90 32.21 185.64
C32.11 185.38 31.98 185.16 31.81 185.00
C31.71 184.90 31.59 184.81 31.45 184.75
L31.45 184.75
C31.61 184.62 31.74 184.46 31.85 184.27
C32.00 184.01 32.07 183.70 32.07 183.35
C32.07 182.79 31.90 182.33 31.55 181.95
C31.19 181.58 30.76 181.39 30.25 181.39
Z
" fill="white" fill-rule="nonzero" />
<path d="
M42.27 26.82
C41.73 26.82 41.30 26.99 40.97 27.33
C40.64 27.67 40.44 28.18 40.39 28.86
L41.12 28.95
C41.12 28.49 41.23 28.14 41.44 27.90
C41.65 27.66 41.92 27.54 42.25 27.54
C42.56 27.54 42.82 27.65 43.03 27.88
C43.23 28.10 43.34 28.39 43.34 28.75
C43.34 29.06 43.24 29.40 43.03 29.76
C42.83 30.12 42.39 30.63 41.73 31.29
C41.17 31.85 40.78 32.34 40.56 32.76
C40.35 33.17 40.25 33.55 40.26 33.89
L44.07 33.89
L44.07 33.06
L41.24 33.06
C41.32 32.90 41.42 32.74 41.54 32.59
C41.67 32.43 41.94 32.13 42.36 31.70
C43.02 31.02 43.47 30.47 43.71 30.06
C43.95 29.65 44.06 29.22 44.06 28.77
C44.06 28.26 43.91 27.81 43.61 27.42
C43.31 27.02 42.86 26.82 42.27 26.82
Z
" fill="black" fill-rule="nonzero" />
<path d="
M54.17 184.80
C54.49 184.80 54.75 184.93 54.97 185.21
C55.19 185.48 55.30 185.87 55.30 186.37
C55.30 186.88 55.19 187.28 54.97 187.57
C54.75 187.86 54.50 188.01 54.22 188.01
C53.91 188.01 53.63 187.85 53.39 187.54
C53.15 187.24 53.03 186.83 53.03 186.32
C53.03 185.85 53.14 185.48 53.37 185.21
C53.60 184.93 53.87 184.80 54.17 184.80
Z
M54.28 181.53
C53.68 181.53 53.18 181.82 52.79 182.40
C52.41 182.98 52.21 183.95 52.21 185.31
C52.21 186.53 52.40 187.41 52.78 187.93
C53.16 188.46 53.64 188.72 54.22 188.72
C54.54 188.72 54.84 188.63 55.11 188.44
C55.37 188.26 55.59 187.98 55.77 187.60
C55.94 187.22 56.02 186.79 56.02 186.32
C56.02 185.62 55.85 185.07 55.51 184.66
C55.17 184.24 54.77 184.03 54.31 184.03
C54.04 184.03 53.78 184.11 53.53 184.27
C53.29 184.43 53.08 184.66 52.92 184.97
C52.92 184.11 53.03 183.45 53.24 183.01
C53.49 182.50 53.82 182.24 54.24 182.24
C54.50 182.24 54.73 182.36 54.92 182.58
C55.05 182.73 55.15 182.99 55.22 183.35
L55.92 183.29
C55.86 182.72 55.68 182.28 55.38 181.98
C55.09 181.68 54.72 181.53 54.28 181.53
Z
" fill="black" fill-rule="nonzero" />
<path d="
M76.29 193.31
L76.26 193.41
C76.17 193.71 76.00 194.01 75.77 194.33
C75.54 194.64 75.27 194.91 74.96 195.13
L74.90 195.17
L74.90 195.24
L74.90 196.09
L74.90 196.33
L75.11 196.21
C75.31 196.10 75.52 195.94 75.75 195.73
C75.86 195.64 75.96 195.54 76.05 195.44
L76.05 195.44
L76.05 200.61
L76.05 200.75
L76.91 200.75
L76.91 200.61
L76.91 193.46
L76.91 193.31
Z
M79.92 193.31
L79.89 193.41
C79.80 193.71 79.63 194.01 79.40 194.33
C79.17 194.64 78.90 194.91 78.59 195.13
L78.53 195.17
L78.53 195.24
L78.53 196.09
L78.53 196.33
L78.74 196.21
C78.94 196.10 79.15 195.94 79.39 195.73
C79.49 195.64 79.59 195.54 79.68 195.44
L79.68 195.44
L79.68 200.61
L79.68 200.75
L80.54 200.75
L80.54 200.61
L80.54 193.46
L80.54 193.31
Z
" fill="white" fill-rule="nonzero" />
<path d="
M172.44 29.22
L172.44 29.22
L172.44 29.22
C172.44 29.22 172.44 29.22 172.44 29.22
Z
M171.87 26.68
L171.85 26.80
L171.29 30.42
L171.26 30.56
L171.40 30.58
L172.07 30.68
L172.17 30.70
L172.22 30.61
C172.32 30.42 172.45 30.27 172.61 30.16
C172.78 30.06 172.95 30.00 173.14 30.00
C173.14 30.00 173.14 30.00 173.14 30.00
C173.14 30.00 173.14 30.00 173.14 30.00
C173.45 30.00 173.71 30.13 173.92 30.37
C174.13 30.62 174.24 30.98 174.24 31.45
C174.24 31.95 174.12 32.34 173.90 32.62
C173.69 32.90 173.44 33.03 173.15 33.03
C173.15 33.03 173.14 33.03 173.14 33.03
C173.14 33.03 173.14 33.03 173.14 33.03
C172.91 33.03 172.71 32.94 172.54 32.75
C172.36 32.55 172.24 32.24 172.18 31.83
L172.17 31.69
L172.03 31.70
L171.29 31.78
L171.15 31.79
L171.16 31.93
C171.21 32.58 171.42 33.09 171.79 33.46
C172.16 33.84 172.61 34.03 173.15 34.03
C173.80 34.02 174.32 33.76 174.71 33.23
C175.08 32.71 175.27 32.10 175.27 31.38
C175.27 30.65 175.08 30.06 174.70 29.62
C174.31 29.18 173.86 28.96 173.33 28.96
C173.02 28.96 172.72 29.05 172.44 29.22
L172.44 29.22
L172.67 27.79
L174.99 27.79
L174.99 27.65
L174.99 26.82
L174.99 26.68
Z
" fill="white" fill-rule="nonzero" />
<path d="
M185.48 194.90
L185.48 198.07
L183.67 198.07
L185.48 194.90
Z
M185.61 193.51
L182.98 198.07
L182.98 198.86
L185.48 198.86
L185.48 200.55
L186.19 200.55
L186.19 198.86
L186.97 198.86
L186.97 198.07
L186.19 198.07
L186.19 193.51
Z
" fill="black" fill-rule="nonzero" />
<path d="
M197.22 38.59
L197.19 38.68
C197.07 38.97 196.87 39.27 196.58 39.58
C196.29 39.89 195.96 40.15 195.58 40.37
L195.51 40.41
L195.51 40.49
L195.51 41.33
L195.51 41.55
L195.71 41.46
C195.95 41.35 196.21 41.20 196.50 40.99
C196.66 40.87 196.80 40.75 196.93 40.64
L196.93 40.64
L196.93 45.79
L196.93 45.93
L197.92 45.93
L197.92 45.79
L197.92 38.73
L197.92 38.59
Z
" fill="white" fill-rule="nonzero" />
<path d="
M197.01 87.15
C197.01 87.15 197.01 87.15 197.01 87.15
C197.01 87.15 197.01 87.15 197.01 87.15
C197.26 87.15 197.48 87.27 197.67 87.52
C197.88 87.79 197.98 88.15 197.98 88.62
C197.98 89.09 197.88 89.46 197.68 89.70
C197.50 89.94 197.27 90.06 197.00 90.06
C197.00 90.06 197.00 90.06 197.00 90.06
C197.00 90.06 197.00 90.06 196.99 90.06
C196.72 90.06 196.49 89.94 196.29 89.70
C196.09 89.46 195.98 89.12 195.98 88.69
C195.98 88.21 196.09 87.83 196.31 87.55
C196.52 87.28 196.75 87.15 197.01 87.15
Z
M196.93 86.15
C196.38 86.15 195.92 86.38 195.53 86.83
C195.16 87.28 194.97 87.89 194.97 88.66
C194.97 89.41 195.15 90.00 195.51 90.44
C195.88 90.89 196.32 91.11 196.84 91.11
C197.13 91.11 197.41 91.02 197.68 90.84
C197.82 90.75 197.94 90.64 198.05 90.51
L198.05 90.51
C198.03 90.93 197.97 91.29 197.86 91.62
C197.74 92.00 197.59 92.27 197.41 92.41
C197.25 92.55 197.06 92.62 196.86 92.62
C196.86 92.62 196.86 92.62 196.86 92.62
C196.86 92.62 196.86 92.62 196.86 92.62
C196.63 92.62 196.46 92.55 196.33 92.39
C196.19 92.23 196.09 91.97 196.04 91.63
L196.02 91.49
L195.88 91.51
L195.20 91.59
L195.06 91.60
L195.08 91.74
C195.14 92.34 195.33 92.80 195.64 93.12
C195.97 93.45 196.37 93.62 196.84 93.62
C197.26 93.62 197.64 93.48 197.98 93.22
C198.31 92.95 198.58 92.54 198.77 91.98
C198.96 91.43 199.05 90.66 199.05 89.68
C199.05 88.80 198.96 88.12 198.79 87.64
C198.61 87.16 198.35 86.79 198.02 86.53
C197.68 86.28 197.32 86.15 196.93 86.15
Z
" fill="white" fill-rule="nonzero" />
<path d="
M197.00 110.81
C197.26 110.81 197.48 110.92 197.67 111.13
C197.85 111.33 197.95 111.60 197.95 111.93
C197.95 112.25 197.86 112.51 197.67 112.72
C197.49 112.92 197.27 113.02 197.01 113.02
C196.75 113.02 196.52 112.92 196.34 112.71
C196.16 112.51 196.07 112.23 196.07 111.89
C196.07 111.58 196.16 111.32 196.34 111.12
C196.53 110.91 196.75 110.81 197.00 110.81
Z
M196.99 113.72
C197.32 113.72 197.60 113.86 197.83 114.12
C198.07 114.38 198.18 114.73 198.18 115.16
C198.18 115.59 198.07 115.93 197.84 116.19
C197.62 116.45 197.34 116.57 197.01 116.57
C196.69 116.57 196.41 116.44 196.18 116.18
C195.95 115.91 195.83 115.57 195.83 115.13
C195.83 114.72 195.94 114.38 196.17 114.12
C196.40 113.86 196.67 113.72 196.99 113.72
Z
M197.00 110.10
C196.52 110.10 196.12 110.27 195.81 110.60
C195.49 110.94 195.34 111.38 195.34 111.91
C195.34 112.26 195.41 112.56 195.56 112.80
C195.70 113.04 195.92 113.22 196.20 113.35
C195.86 113.46 195.59 113.67 195.40 113.97
C195.20 114.28 195.11 114.66 195.11 115.13
C195.11 115.78 195.29 116.30 195.65 116.69
C196.01 117.09 196.47 117.28 197.01 117.28
C197.55 117.28 198.00 117.09 198.36 116.69
C198.73 116.30 198.91 115.79 198.91 115.16
C198.91 114.70 198.81 114.32 198.63 114.02
C198.44 113.71 198.17 113.49 197.82 113.35
C198.11 113.22 198.32 113.04 198.46 112.80
C198.60 112.56 198.67 112.28 198.67 111.94
C198.67 111.40 198.51 110.96 198.20 110.61
C197.88 110.27 197.48 110.10 197.00 110.10
Z
" fill="black" fill-rule="nonzero" />
<path d="
M198.79 146.50
C199.07 146.50 199.30 146.69 199.48 147.08
C199.66 147.48 199.75 148.25 199.75 149.41
C199.75 150.56 199.66 151.33 199.48 151.73
C199.31 152.13 199.09 152.33 198.83 152.33
C198.55 152.33 198.32 152.13 198.14 151.74
C197.97 151.34 197.88 150.57 197.88 149.41
C197.88 148.27 197.97 147.49 198.14 147.09
C198.32 146.70 198.53 146.50 198.79 146.50
Z
M195.45 145.77
C195.35 146.08 195.18 146.40 194.94 146.73
C194.70 147.06 194.42 147.33 194.10 147.56
L194.10 148.41
C194.29 148.30 194.49 148.15 194.71 147.95
C194.94 147.74 195.12 147.55 195.25 147.35
L195.25 152.92
L195.82 152.92
L195.82 145.77
Z
M198.82 145.77
C198.32 145.77 197.94 146.08 197.68 146.70
C197.42 147.31 197.29 148.22 197.29 149.41
C197.29 150.75 197.43 151.69 197.72 152.23
C198.00 152.77 198.37 153.05 198.81 153.05
C199.32 153.05 199.70 152.74 199.95 152.12
C200.21 151.50 200.34 150.60 200.34 149.41
C200.34 148.09 200.18 147.12 199.87 146.52
C199.62 146.02 199.26 145.77 198.82 145.77
Z
" fill="black" fill-rule="nonzero" />
<path d="
M195.02 169.61
L195.02 169.75
L195.02 170.58
L195.02 170.72
L197.71 170.72
C197.41 171.18 197.12 171.72 196.85 172.34
C196.53 173.05 196.29 173.81 196.11 174.60
C195.93 175.40 195.83 176.09 195.82 176.69
L195.82 176.83
L196.70 176.83
L196.83 176.83
L196.84 176.70
C196.90 175.58 197.14 174.44 197.56 173.29
C197.98 172.15 198.46 171.22 199.01 170.51
L199.04 170.47
L199.04 170.42
L199.04 169.75
L199.04 169.61
Z
" fill="white" fill-rule="nonzero" />
</g>
<g  transform="translate(1.19,228.58)" >
<path d="
M109.47 2.72
C109.30 2.72 109.16 2.78 109.05 2.89
C108.93 3.01 108.88 3.15 108.88 3.31
C108.88 3.47 108.93 3.61 109.05 3.73
C109.17 3.84 109.31 3.90 109.47 3.90
C109.63 3.90 109.77 3.84 109.88 3.73
C110.00 3.61 110.06 3.47 110.06 3.31
C110.06 3.15 110.00 3.01 109.88 2.89
C109.77 2.78 109.63 2.72 109.47 2.72
Z
M114.44 7.81
L114.44 9.84
C113.96 10.23 113.57 10.42 113.28 10.42
C113.06 10.42 112.87 10.33 112.70 10.15
C112.53 9.96 112.45 9.73 112.45 9.45
C112.45 9.23 112.52 9.03 112.65 8.84
C112.78 8.66 113.00 8.48 113.31 8.31
C113.48 8.21 113.85 8.05 114.44 7.81
Z
M102.79 3.55
C103.72 3.55 104.48 3.86 105.07 4.49
C105.67 5.12 105.96 5.98 105.96 7.06
C105.96 8.15 105.67 9.00 105.07 9.63
C104.48 10.27 103.74 10.58 102.84 10.58
C102.50 10.58 102.09 10.53 101.60 10.42
L101.60 3.72
C102.04 3.60 102.44 3.55 102.79 3.55
Z
M99.35 3.11
L99.35 3.32
L99.64 3.32
C99.94 3.32 100.17 3.41 100.32 3.58
C100.43 3.70 100.48 4.01 100.48 4.50
L100.48 9.59
C100.48 10.04 100.44 10.33 100.35 10.45
C100.21 10.67 99.98 10.77 99.64 10.77
L99.35 10.77
L99.35 10.99
L102.87 10.99
C104.40 10.99 105.54 10.58 106.29 9.76
C106.96 9.02 107.29 8.10 107.29 7.01
C107.29 6.19 107.10 5.47 106.73 4.84
C106.35 4.22 105.86 3.77 105.25 3.51
C104.63 3.24 103.74 3.11 102.56 3.11
Z
M109.70 5.51
L108.09 6.16
L108.17 6.37
C108.33 6.31 108.46 6.28 108.57 6.28
C108.67 6.28 108.75 6.30 108.81 6.35
C108.86 6.40 108.91 6.49 108.93 6.61
C108.97 6.78 108.99 7.16 108.99 7.73
L108.99 9.79
C108.99 10.11 108.96 10.34 108.91 10.45
C108.86 10.57 108.79 10.65 108.70 10.70
C108.61 10.75 108.43 10.78 108.17 10.78
L108.17 10.99
L110.76 10.99
L110.76 10.78
C110.51 10.78 110.33 10.75 110.24 10.70
C110.14 10.64 110.07 10.56 110.02 10.45
C109.98 10.34 109.95 10.12 109.95 9.79
L109.95 5.51
Z
M125.60 2.94
L123.68 3.88
L123.77 4.06
C124.03 3.94 124.23 3.88 124.37 3.88
C124.47 3.88 124.56 3.91 124.63 3.97
C124.70 4.02 124.75 4.12 124.78 4.24
C124.81 4.40 124.83 4.77 124.83 5.34
L124.83 9.60
C124.83 10.07 124.81 10.36 124.77 10.45
C124.73 10.55 124.65 10.62 124.54 10.68
C124.43 10.73 124.19 10.77 123.82 10.77
L123.82 10.99
L126.79 10.99
L126.79 10.77
C126.43 10.77 126.19 10.73 126.08 10.67
C125.96 10.62 125.88 10.53 125.85 10.42
C125.81 10.32 125.79 10.04 125.79 9.60
L125.79 2.94
Z
M113.63 5.51
C113.01 5.51 112.53 5.65 112.19 5.93
C111.85 6.20 111.68 6.51 111.68 6.84
C111.68 7.02 111.72 7.16 111.81 7.26
C111.91 7.36 112.02 7.41 112.17 7.41
C112.31 7.41 112.43 7.36 112.52 7.26
C112.62 7.17 112.66 7.03 112.66 6.85
L112.65 6.51
C112.65 6.34 112.72 6.19 112.87 6.06
C113.01 5.93 113.21 5.86 113.45 5.86
C113.77 5.86 114.02 5.96 114.19 6.16
C114.36 6.36 114.44 6.72 114.44 7.25
L114.44 7.46
C113.53 7.79 112.87 8.08 112.48 8.31
C112.08 8.54 111.81 8.79 111.65 9.05
C111.53 9.24 111.47 9.47 111.47 9.73
C111.47 10.14 111.59 10.47 111.83 10.72
C112.07 10.97 112.37 11.10 112.74 11.10
C112.98 11.10 113.20 11.05 113.41 10.95
C113.55 10.89 113.89 10.64 114.44 10.22
C114.44 10.54 114.50 10.76 114.61 10.90
C114.73 11.03 114.88 11.09 115.07 11.09
C115.46 11.09 115.88 10.80 116.31 10.22
L116.31 9.90
C116.08 10.13 115.92 10.27 115.84 10.32
C115.79 10.35 115.74 10.36 115.68 10.36
C115.62 10.36 115.57 10.34 115.52 10.30
C115.48 10.26 115.45 10.19 115.43 10.07
C115.41 9.96 115.40 9.65 115.40 9.14
L115.40 7.33
C115.40 6.82 115.36 6.48 115.29 6.31
C115.19 6.05 115.02 5.87 114.79 5.75
C114.49 5.59 114.10 5.51 113.63 5.51
Z
M117.82 9.86
C117.64 9.86 117.49 9.92 117.37 10.05
C117.24 10.17 117.18 10.32 117.18 10.51
C117.18 10.68 117.24 10.84 117.37 10.96
C117.49 11.09 117.64 11.15 117.82 11.15
C118.00 11.15 118.15 11.09 118.28 10.96
C118.41 10.84 118.47 10.68 118.47 10.51
C118.47 10.33 118.41 10.18 118.28 10.05
C118.16 9.92 118.01 9.86 117.82 9.86
Z
" fill="black" fill-rule="nonzero" />
</g>
</g>
</svg>
