<?xml version="1.0" encoding="utf-8" standalone="no"?>
<!DOCTYPE svg PUBLIC "-//W3C//DTD SVG 1.0//EN" "http://www.w3.org/TR/SVG/DTD/svg11.dtd" >
<svg version="1.1" baseProfile="full"  width="319.13385" height="338.51422" viewBox="0 0 229.77638 243.73024" preserveAspectRatio="xMidYMid" xmlns="http://www.w3.org/2000/svg" >

<g lengthAdjust="spacingAndGlyphs" xml:space='preserve' >
<g  transform="translate(1.19,1.19)" >
<path d="
M0.0 0.0
L0.0 227.39
L227.39 227.39
L227.39 0.0
Z
" fill="none" fill-rule="nonzero" />
<line x1="6.54" y1="6.54" x2="6.54" y2="220.84" fill="none" stroke="black" stroke-width="0.87px" stroke-linecap="square" />
<line x1="18.45" y1="6.54" x2="18.45" y2="220.84" fill="none" stroke="black" stroke-width="0.25px" stroke-linecap="butt" />
<line x1="30.35" y1="6.54" x2="30.35" y2="220.84" fill="none" stroke="black" stroke-width="0.25px" stroke-linecap="butt" />
<line x1="42.26" y1="6.54" x2="42.26" y2="220.84" fill="none" stroke="black" stroke-width="0.25px" stroke-linecap="butt" />
<line x1="54.17" y1="6.54" x2="54.17" y2="220.84" fill="none" stroke="black" stroke-width="0.25px" stroke-linecap="butt" />
<line x1="66.07" y1="6.54" x2="66.07" y2="220.84" fill="none" stroke="black" stroke-width="0.25px" stroke-linecap="butt" />
<line x1="77.98" y1="6.54" x2="77.98" y2="220.84" fill="none" stroke="black" stroke-width="0.25px" stroke-linecap="butt" />
<line x1="89.88" y1="6.54" x2="89.88" y2="220.84" fill="none" stroke="black" stroke-width="0.25px" stroke-linecap="butt" />
<line x1="101.79" y1="6.54" x2="101.79" y2="220.84" fill="none" stroke="black" stroke-width="0.25px" stroke-linecap="butt" />
<line x1="113.69" y1="6.54" x2="113.69" y2="220.84" fill="none" stroke="black" stroke-width="0.25px" stroke-linecap="butt" />
<line x1="125.60" y1="6.54" x2="125.60" y2="220.84" fill="none" stroke="black" stroke-width="0.25px" stroke-linecap="butt" />
<line x1="137.50" y1="6.54" x2="137.50" y2="220.84" fill="none" stroke="black" stroke-width="0.25px" stroke-linecap="butt" />
<line x1="149.41" y1="6.54" x2="149.41" y2="220.84" fill="none" stroke="black" stroke-width="0.25px" stroke-linecap="butt" />
<line x1="161.31" y1="6.54" x2="161.31" y2="220.84" fill="none" stroke="black" stroke-width="0.25px" stroke-linecap="butt" />
<line x1="173.22" y1="6.54" x2="173.22" y2="220.84" fill="none" stroke="black" stroke-width="0.25px" stroke-linecap="butt" />
<line x1="185.13" y1="6.54" x2="185.13" y2="220.84" fill="none" stroke="black" stroke-width="0.25px" stroke-linecap="butt" />
<line x1="197.03" y1="6.54" x2="197.03" y2="220.84" fill="none" stroke="black" stroke-width="0.25px" stroke-linecap="butt" />
<line x1="208.94" y1="6.54" x2="208.94" y2="220.84" fill="none" stroke="black" stroke-width="0.25px" stroke-linecap="butt" />
<line x1="220.84" y1="6.54" x2="220.84" y2="220.84" fill="none" stroke="black" stroke-width="0.87px" stroke-linecap="square" />
<line x1="6.54" y1="6.54" x2="220.84" y2="6.54" fill="none" stroke="black" stroke-width="0.87px" stroke-linecap="square" />
<line x1="6.54" y1="18.45" x2="220.84" y2="18.45" fill="none" stroke="black" stroke-width="0.25px" stroke-linecap="butt" />
<line x1="6.54" y1="30.35" x2="220.84" y2="30.35" fill="none" stroke="black" stroke-width="0.25px" stroke-linecap="butt" />
<line x1="6.54" y1="42.26" x2="220.84" y2="42.26" fill="none" stroke="black" stroke-width="0.25px" stroke-linecap="butt" />
<line x1="6.54" y1="54.17" x2="220.84" y2="54.17" fill="none" stroke="black" stroke-width="0.25px" stroke-linecap="butt" />
<line x1="6.54" y1="66.07" x2="220.84" y2="66.07" fill="none" stroke="black" stroke-width="0.25px" stroke-linecap="butt" />
<line x1="6.54" y1="77.98" x2="220.84" y2="77.98" fill="none" stroke="black" stroke-width="0.25px" stroke-linecap="butt" />
<line x1="6.54" y1="89.88" x2="220.84" y2="89.88" fill="none" stroke="black" stroke-width="0.25px" stroke-linecap="butt" />
<line x1="6.54" y1="101.79" x2="220.84" y2="101.79" fill="none" stroke="black" stroke-width="0.25px" stroke-linecap="butt" />
<line x1="6.54" y1="113.69" x2="220.84" y2="113.69" fill="none" stroke="black" stroke-width="0.25px" stroke-linecap="butt" />
<line x1="6.54" y1="125.60" x2="220.84" y2="125.60" fill="none" stroke="black" stroke-width="0.25px" stroke-linecap="butt" />
<line x1="6.54" y1="137.50" x2="220.84" y2="137.50" fill="none" stroke="black" stroke-width="0.25px" stroke-linecap="butt" />
<line x1="6.54" y1="149.41" x2="220.84" y2="149.41" fill="none" stroke="black" stroke-width="0.25px" stroke-linecap="butt" />
<line x1="6.54" y1="161.31" x2="220.84" y2="161.31" fill="none" stroke="black" stroke-width="0.25px" stroke-linecap="butt" />
<line x1="6.54" y1="173.22" x2="220.84" y2="173.22" fill="none" stroke="black" stroke-width="0.25px" stroke-linecap="butt" />
<line x1="6.54" y1="185.13" x2="220.84" y2="185.13" fill="none" stroke="black" stroke-width="0.25px" stroke-linecap="butt" />
<line x1="6.54" y1="197.03" x2="220.84" y2="197.03" fill="none" stroke="black" stroke-width="0.25px" stroke-linecap="butt" />
<line x1="6.54" y1="208.94" x2="220.84" y2="208.94" fill="none" stroke="black" stroke-width="0.25px" stroke-linecap="butt" />
<line x1="6.54" y1="220.84" x2="220.84" y2="220.84" fill="none" stroke="black" stroke-width="0.87px" stroke-linecap="square" />
<circle cx="42.26" cy="30.35" r="5.89" fill="white"/>
<circle cx="42.26" cy="30.35" r="5.89" fill="none" stroke="black" stroke-width="0.25px"/>
<circle cx="42.26" cy="42.26" r="1.27" fill="black"/>
<circle cx="42.26" cy="113.69" r="1.27" fill="black"/>
<circle cx="42.26" cy="185.13" r="6.01" fill="black"/>
<circle cx="113.69" cy="42.26" r="1.27" fill="black"/>
<circle cx="113.69" cy="113.69" r="1.27" fill="black"/>
<circle cx="113.69" cy="185.13" r="1.27" fill="black"/>
<circle cx="149.41" cy="197.03" r="6.01" fill="black"/>
<circle cx="173.22" cy="185.13" r="6.01" fill="black"/>
<circle cx="185.13" cy="42.26" r="6.01" fill="black"/>
<circle cx="185.13" cy="113.69" r="1.27" fill="black"/>
<circle cx="185.13" cy="173.22" r="5.89" fill="white"/>
<circle cx="185.13" cy="173.22" r="5.89" fill="none" stroke="black" stroke-width="0.25px"/>
<circle cx="185.13" cy="185.13" r="6.01" fill="black"/>
<circle cx="185.13" cy="197.03" r="5.89" fill="white"/>
<circle cx="185.13" cy="197.03" r="5.89" fill="none" stroke="black" stroke-width="0.25px"/>
<circle cx="197.03" cy="77.98" r="5.89" fill="white"/>
<circle cx="197.03" cy="77.98" r="5.89" fill="none" stroke="black" stroke-width="0.25px"/>
<circle cx="197.03" cy="113.69" r="5.89" fill="white"/>
<circle cx="197.03" cy="113.69" r="5.89" fill="none" stroke="black" stroke-width="0.25px"/>
<circle cx="197.03" cy="137.50" r="6.01" fill="black"/>
<circle cx="197.03" cy="161.31" r="6.01" fill="black"/>
<circle cx="197.03" cy="173.22" r="6.01" fill="black"/>
<circle cx="197.03" cy="185.13" r="5.89" fill="white"/>
<circle cx="197.03" cy="185.13" r="5.89" fill="none" stroke="black" stroke-width="0.25px"/>
<circle cx="197.03" cy="197.03" r="5.89" fill="white"/>
<circle cx="197.03" cy="197.03" r="5.89" fill="none" stroke="black" stroke-width="0.25px"/>
<path d="
M42.27 26.82
C41.73 26.82 41.30 26.99 40.97 27.33
C40.64 27.67 40.44 28.18 40.39 28.86
L41.12 28.95
C41.12 28.49 41.23 28.14 41.44 27.90
C41.65 27.66 41.92 27.54 42.25 27.54
C42.56 27.54 42.82 27.65 43.03 27.88
C43.23 28.10 43.34 28.39 43.34 28.75
C43.34 29.06 43.24 29.40 43.03 29.76
C42.83 30.12 42.39 30.63 41.73 31.29
C41.17 31.85 40.78 32.34 40.56 32.76
C40.35 33.17 40.25 33.55 40.26 33.89
L44.07 33.89
L44.07 33.06
L41.24 33.06
C41.32 32.90 41.42 32.74 41.54 32.59
C41.67 32.43 41.94 32.13 42.36 31.70
C43.02 31.02 43.47 30.47 43.71 30.06
C43.95 29.65 44.06 29.22 44.06 28.77
C44.06 28.26 43.91 27.81 43.61 27.42
C43.31 27.02 42.86 26.82 42.27 26.82
Z
" fill="black" fill-rule="nonzero" />
<path d="
M42.16 181.39
C41.68 181.39 41.26 181.56 40.92 181.89
C40.59 182.22 40.37 182.70 40.28 183.33
L40.26 183.46
L40.39 183.49
L41.09 183.65
L41.24 183.68
L41.26 183.53
C41.31 183.13 41.42 182.84 41.59 182.65
C41.74 182.47 41.94 182.38 42.17 182.38
C42.17 182.38 42.17 182.38 42.17 182.38
C42.17 182.38 42.17 182.38 42.17 182.38
C42.39 182.38 42.58 182.47 42.73 182.64
C42.89 182.81 42.97 183.04 42.97 183.34
C42.97 183.65 42.87 183.91 42.68 184.09
C42.49 184.28 42.25 184.37 41.94 184.37
L41.94 184.37
L41.84 184.37
L41.70 184.35
L41.68 184.49
L41.60 185.25
L41.58 185.47
L41.58 185.47
L41.78 185.40
C41.97 185.34 42.12 185.31 42.24 185.31
C42.24 185.31 42.24 185.31 42.24 185.31
C42.24 185.31 42.24 185.31 42.24 185.31
C42.52 185.31 42.75 185.42 42.94 185.64
C43.13 185.86 43.23 186.16 43.23 186.53
C43.23 186.93 43.12 187.26 42.91 187.50
C42.70 187.74 42.45 187.86 42.18 187.86
C42.17 187.86 42.17 187.86 42.17 187.86
C42.17 187.86 42.17 187.86 42.17 187.86
C41.92 187.86 41.71 187.77 41.56 187.57
C41.38 187.36 41.26 187.04 41.19 186.60
L41.17 186.46
L41.03 186.48
L40.32 186.60
L40.19 186.62
L40.20 186.75
C40.25 187.39 40.46 187.90 40.83 188.28
C41.20 188.67 41.65 188.86 42.18 188.86
C42.75 188.86 43.25 188.64 43.65 188.20
C44.06 187.76 44.26 187.20 44.26 186.52
C44.26 186.20 44.21 185.90 44.12 185.64
C44.01 185.38 43.88 185.16 43.72 185.00
C43.61 184.90 43.49 184.81 43.35 184.75
L43.35 184.75
C43.51 184.62 43.65 184.46 43.75 184.27
C43.90 184.01 43.98 183.70 43.98 183.35
C43.98 182.79 43.80 182.33 43.45 181.95
C43.10 181.58 42.67 181.39 42.16 181.39
Z
" fill="white" fill-rule="nonzero" />
<path d="
M149.39 194.30
C149.39 194.30 149.39 194.30 149.39 194.30
C149.39 194.30 149.39 194.30 149.39 194.30
C149.64 194.30 149.86 194.42 150.05 194.67
C150.26 194.94 150.36 195.30 150.36 195.77
C150.36 196.24 150.26 196.61 150.06 196.85
C149.87 197.09 149.65 197.21 149.38 197.21
C149.38 197.21 149.38 197.21 149.38 197.21
C149.37 197.21 149.37 197.21 149.37 197.21
C149.10 197.21 148.87 197.09 148.67 196.85
C148.46 196.61 148.36 196.27 148.36 195.84
C148.36 195.36 148.47 194.98 148.69 194.70
C148.90 194.43 149.13 194.30 149.39 194.30
Z
M149.31 193.30
C148.76 193.30 148.29 193.53 147.91 193.98
C147.54 194.43 147.35 195.04 147.35 195.81
C147.35 196.56 147.53 197.15 147.89 197.59
C148.26 198.04 148.70 198.26 149.22 198.26
C149.50 198.26 149.79 198.17 150.06 197.99
C150.20 197.90 150.32 197.79 150.43 197.66
L150.43 197.66
C150.41 198.08 150.34 198.44 150.24 198.77
C150.11 199.15 149.96 199.42 149.79 199.56
C149.62 199.70 149.44 199.77 149.24 199.77
C149.24 199.77 149.24 199.77 149.24 199.77
C149.24 199.77 149.23 199.77 149.23 199.77
C149.01 199.77 148.84 199.70 148.71 199.54
C148.56 199.38 148.47 199.12 148.42 198.78
L148.40 198.64
L148.26 198.66
L147.58 198.74
L147.44 198.75
L147.45 198.89
C147.52 199.49 147.70 199.95 148.02 200.27
C148.34 200.60 148.74 200.76 149.22 200.77
C149.64 200.76 150.02 200.63 150.36 200.37
C150.69 200.10 150.95 199.69 151.15 199.13
C151.33 198.58 151.43 197.81 151.43 196.83
C151.43 195.95 151.34 195.27 151.16 194.79
C150.99 194.30 150.73 193.94 150.40 193.68
C150.06 193.43 149.70 193.30 149.31 193.30
Z
" fill="white" fill-rule="nonzero" />
<path d="
M171.53 181.35
L171.50 181.44
C171.41 181.74 171.25 182.05 171.01 182.36
C170.78 182.67 170.51 182.94 170.21 183.16
L170.15 183.20
L170.15 183.27
L170.15 184.12
L170.15 184.36
L170.36 184.24
C170.55 184.13 170.77 183.98 171.00 183.77
C171.11 183.67 171.21 183.57 171.29 183.47
L171.29 183.47
L171.29 188.64
L171.29 188.78
L172.15 188.78
L172.15 188.64
L172.15 181.49
L172.15 181.35
Z
M174.95 181.35
C174.55 181.35 174.21 181.52 173.92 181.86
C173.65 182.20 173.48 182.68 173.40 183.32
L173.39 183.44
L173.51 183.47
L174.08 183.63
L174.24 183.67
L174.26 183.50
C174.29 183.10 174.38 182.80 174.52 182.61
C174.64 182.43 174.79 182.35 174.96 182.35
C174.96 182.35 174.96 182.35 174.96 182.35
C174.96 182.35 174.96 182.35 174.96 182.35
C175.13 182.35 175.27 182.43 175.39 182.59
C175.52 182.77 175.58 183.01 175.58 183.31
C175.58 183.64 175.50 183.90 175.35 184.09
C175.20 184.27 175.01 184.37 174.78 184.37
L174.78 184.37
L174.70 184.36
L174.55 184.34
L174.54 184.49
L174.47 185.25
L174.45 185.48
L174.67 185.40
C174.81 185.34 174.93 185.31 175.02 185.31
C175.02 185.31 175.02 185.31 175.02 185.31
C175.02 185.31 175.02 185.31 175.02 185.31
C175.23 185.31 175.41 185.42 175.55 185.63
C175.71 185.86 175.79 186.16 175.79 186.55
C175.79 186.96 175.70 187.29 175.53 187.54
C175.37 187.78 175.18 187.90 174.97 187.90
C174.97 187.90 174.97 187.90 174.97 187.90
C174.96 187.90 174.96 187.90 174.96 187.90
C174.77 187.90 174.62 187.80 174.49 187.61
C174.36 187.40 174.26 187.07 174.20 186.62
L174.18 186.47
L174.03 186.50
L173.46 186.62
L173.34 186.64
L173.34 186.77
C173.38 187.41 173.55 187.92 173.85 188.31
C174.15 188.71 174.53 188.91 174.97 188.91
C175.45 188.91 175.86 188.68 176.19 188.22
C176.52 187.78 176.68 187.22 176.69 186.53
C176.69 186.21 176.65 185.92 176.57 185.66
C176.49 185.39 176.38 185.18 176.24 185.01
C176.16 184.90 176.05 184.81 175.94 184.75
L175.94 184.75
C176.07 184.61 176.19 184.45 176.27 184.25
C176.40 183.98 176.46 183.68 176.46 183.33
C176.46 182.77 176.31 182.30 176.03 181.93
C175.74 181.54 175.38 181.35 174.95 181.35
Z
" fill="white" fill-rule="nonzero" />
<path d="
M185.32 38.59
L185.28 38.68
C185.17 38.97 184.97 39.27 184.68 39.58
C184.39 39.89 184.06 40.15 183.68 40.37
L183.61 40.41
L183.61 40.49
L183.61 41.33
L183.61 41.55
L183.81 41.46
C184.05 41.35 184.31 41.20 184.59 40.99
C184.75 40.87 184.90 40.75 185.02 40.64
L185.02 40.64
L185.02 45.79
L185.02 45.93
L186.02 45.93
L186.02 45.79
L186.02 38.73
L186.02 38.59
Z
" fill="white" fill-rule="nonzero" />
<path d="
M186.89 170.31
C187.17 170.31 187.40 170.50 187.58 170.90
C187.75 171.29 187.84 172.06 187.84 173.22
C187.84 174.37 187.75 175.14 187.58 175.54
C187.40 175.94 187.18 176.14 186.92 176.14
C186.64 176.14 186.42 175.94 186.24 175.55
C186.06 175.15 185.97 174.38 185.97 173.22
C185.97 172.08 186.06 171.30 186.24 170.91
C186.41 170.51 186.63 170.31 186.89 170.31
Z
M183.54 169.58
C183.45 169.89 183.27 170.21 183.03 170.54
C182.79 170.87 182.51 171.14 182.20 171.37
L182.20 172.22
C182.38 172.11 182.59 171.96 182.81 171.76
C183.03 171.56 183.21 171.36 183.34 171.16
L183.34 176.74
L183.92 176.74
L183.92 169.58
Z
M186.91 169.58
C186.41 169.58 186.03 169.89 185.77 170.51
C185.52 171.12 185.39 172.03 185.39 173.22
C185.39 174.56 185.53 175.50 185.81 176.04
C186.10 176.58 186.46 176.86 186.91 176.86
C187.41 176.86 187.79 176.55 188.05 175.93
C188.31 175.31 188.43 174.41 188.43 173.22
C188.43 171.90 188.28 170.93 187.97 170.33
C187.71 169.83 187.36 169.58 186.91 169.58
Z
" fill="black" fill-rule="nonzero" />
<path d="
M183.44 181.41
L183.41 181.51
C183.31 181.80 183.15 182.11 182.92 182.42
C182.69 182.74 182.42 183.00 182.11 183.22
L182.05 183.26
L182.05 183.34
L182.05 184.18
L182.05 184.42
L182.26 184.31
C182.46 184.20 182.67 184.04 182.90 183.83
C183.01 183.73 183.11 183.63 183.20 183.53
L183.20 183.53
L183.20 188.70
L183.20 188.84
L184.06 188.84
L184.06 188.70
L184.06 181.55
L184.06 181.41
Z
M187.07 181.41
L187.04 181.51
C186.95 181.80 186.78 182.11 186.55 182.42
C186.32 182.74 186.05 183.00 185.74 183.22
L185.68 183.26
L185.68 183.34
L185.68 184.18
L185.68 184.42
L185.89 184.31
C186.09 184.20 186.30 184.04 186.53 183.83
C186.64 183.73 186.74 183.63 186.83 183.53
L186.83 183.53
L186.83 188.70
L186.83 188.84
L187.69 188.84
L187.69 188.70
L187.69 181.55
L187.69 181.41
Z
" fill="white" fill-rule="nonzero" />
<path d="
M185.48 194.90
L185.48 198.07
L183.67 198.07
L185.48 194.90
Z
M185.61 193.51
L182.98 198.07
L182.98 198.86
L185.48 198.86
L185.48 200.55
L186.19 200.55
L186.19 198.86
L186.97 198.86
L186.97 198.07
L186.19 198.07
L186.19 193.51
Z
" fill="black" fill-rule="nonzero" />
<path d="
M197.00 75.09
C197.26 75.09 197.48 75.20 197.67 75.41
C197.85 75.62 197.95 75.89 197.95 76.22
C197.95 76.54 197.86 76.80 197.67 77.00
C197.49 77.20 197.27 77.30 197.01 77.30
C196.75 77.30 196.52 77.20 196.34 76.99
C196.16 76.79 196.07 76.51 196.07 76.17
C196.07 75.86 196.16 75.61 196.34 75.40
C196.53 75.20 196.75 75.09 197.00 75.09
Z
M196.99 78.01
C197.32 78.01 197.60 78.14 197.83 78.40
C198.07 78.67 198.18 79.02 198.18 79.45
C198.18 79.88 198.07 80.22 197.84 80.47
C197.62 80.73 197.34 80.86 197.01 80.86
C196.69 80.86 196.41 80.73 196.18 80.46
C195.95 80.20 195.83 79.85 195.83 79.42
C195.83 79.00 195.94 78.66 196.17 78.40
C196.40 78.14 196.67 78.01 196.99 78.01
Z
M197.00 74.38
C196.52 74.38 196.12 74.55 195.81 74.89
C195.49 75.22 195.34 75.66 195.34 76.19
C195.34 76.55 195.41 76.85 195.56 77.08
C195.70 77.32 195.92 77.50 196.20 77.63
C195.86 77.74 195.59 77.95 195.40 78.25
C195.20 78.56 195.11 78.95 195.11 79.42
C195.11 80.06 195.29 80.58 195.65 80.98
C196.01 81.37 196.47 81.57 197.01 81.57
C197.55 81.57 198.00 81.37 198.36 80.98
C198.73 80.58 198.91 80.07 198.91 79.44
C198.91 78.99 198.81 78.61 198.63 78.30
C198.44 77.99 198.17 77.77 197.82 77.63
C198.11 77.50 198.32 77.32 198.46 77.08
C198.60 76.85 198.67 76.56 198.67 76.22
C198.67 75.68 198.51 75.24 198.20 74.90
C197.88 74.56 197.48 74.38 197.00 74.38
Z
" fill="black" fill-rule="nonzero" />
<path d="
M197.04 113.36
C197.35 113.36 197.62 113.50 197.84 113.78
C198.06 114.05 198.16 114.44 198.16 114.94
C198.16 115.45 198.05 115.85 197.84 116.14
C197.62 116.43 197.37 116.57 197.09 116.57
C196.77 116.57 196.49 116.42 196.25 116.11
C196.01 115.80 195.89 115.39 195.89 114.89
C195.89 114.42 196.01 114.05 196.24 113.77
C196.47 113.50 196.73 113.36 197.04 113.36
Z
M197.15 110.10
C196.54 110.10 196.05 110.39 195.66 110.97
C195.27 111.54 195.08 112.51 195.08 113.87
C195.08 115.10 195.27 115.97 195.64 116.50
C196.02 117.02 196.50 117.28 197.08 117.28
C197.41 117.28 197.70 117.19 197.97 117.01
C198.24 116.83 198.46 116.55 198.63 116.16
C198.80 115.78 198.89 115.36 198.89 114.89
C198.89 114.19 198.72 113.64 198.38 113.22
C198.04 112.81 197.64 112.60 197.18 112.60
C196.90 112.60 196.64 112.68 196.40 112.84
C196.15 113.00 195.95 113.23 195.78 113.54
C195.79 112.67 195.90 112.02 196.11 111.58
C196.36 111.07 196.69 110.81 197.10 110.81
C197.37 110.81 197.60 110.92 197.78 111.15
C197.92 111.30 198.02 111.56 198.08 111.92
L198.79 111.85
C198.72 111.28 198.54 110.85 198.25 110.55
C197.95 110.25 197.58 110.10 197.15 110.10
Z
" fill="black" fill-rule="nonzero" />
<path d="
M195.02 133.89
L195.02 134.03
L195.02 134.86
L195.02 135.00
L197.71 135.00
C197.41 135.46 197.12 136.00 196.85 136.62
C196.53 137.34 196.29 138.09 196.11 138.89
C195.93 139.68 195.83 140.38 195.82 140.97
L195.82 141.12
L196.70 141.12
L196.83 141.12
L196.84 140.98
C196.90 139.86 197.14 138.72 197.56 137.58
C197.98 136.43 198.46 135.50 199.01 134.79
L199.04 134.75
L199.04 134.70
L199.04 134.03
L199.04 133.89
Z
" fill="white" fill-rule="nonzero" />
<path d="
M198.24 160.20
L198.24 160.20
L198.24 160.20
C198.24 160.20 198.24 160.20 198.24 160.20
Z
M195.35 157.54
L195.31 157.64
C195.22 157.93 195.06 158.24 194.82 158.55
C194.59 158.87 194.32 159.13 194.02 159.35
L193.96 159.39
L193.96 159.47
L193.96 160.31
L193.96 160.55
L194.17 160.44
C194.37 160.33 194.58 160.17 194.81 159.96
C194.92 159.86 195.02 159.76 195.11 159.66
L195.11 159.66
L195.11 164.83
L195.11 164.97
L195.96 164.97
L195.96 164.83
L195.96 157.68
L195.96 157.54
Z
M197.72 157.66
L197.71 157.79
L197.25 161.45
L197.24 161.58
L197.37 161.60
L197.91 161.71
L198.02 161.73
L198.06 161.62
C198.14 161.43 198.25 161.28 198.38 161.17
C198.51 161.07 198.64 161.02 198.78 161.02
C198.78 161.02 198.78 161.02 198.78 161.02
C198.78 161.02 198.78 161.02 198.78 161.02
C199.02 161.02 199.22 161.14 199.38 161.38
C199.55 161.64 199.64 162.00 199.64 162.48
C199.64 163.00 199.55 163.40 199.37 163.69
C199.20 163.96 199.01 164.09 198.79 164.09
C198.79 164.09 198.79 164.09 198.78 164.09
C198.78 164.09 198.78 164.09 198.78 164.09
C198.61 164.09 198.46 164.00 198.32 163.81
C198.18 163.61 198.08 163.30 198.04 162.87
L198.02 162.73
L197.88 162.75
L197.27 162.82
L197.14 162.84
L197.15 162.97
C197.19 163.62 197.36 164.14 197.66 164.51
C197.96 164.90 198.34 165.09 198.79 165.09
C199.33 165.09 199.76 164.82 200.08 164.28
C200.38 163.76 200.53 163.14 200.53 162.42
C200.53 161.68 200.38 161.09 200.07 160.65
C199.75 160.20 199.38 159.97 198.94 159.97
C198.69 159.97 198.46 160.04 198.24 160.20
L198.24 160.20
L198.43 158.78
L200.31 158.78
L200.31 158.64
L200.31 157.80
L200.31 157.66
Z
" fill="white" fill-rule="nonzero" />
<path d="
M196.25 172.09
L196.25 172.09
L196.25 172.09
C196.25 172.09 196.25 172.09 196.25 172.09
Z
M195.68 169.55
L195.66 169.67
L195.10 173.28
L195.07 173.42
L195.21 173.44
L195.88 173.55
L195.98 173.57
L196.03 173.47
C196.13 173.28 196.26 173.13 196.42 173.03
C196.59 172.92 196.76 172.87 196.95 172.87
C196.95 172.87 196.95 172.87 196.95 172.87
C196.95 172.87 196.95 172.87 196.95 172.87
C197.26 172.87 197.52 172.99 197.73 173.24
C197.94 173.49 198.05 173.84 198.05 174.31
C198.05 174.81 197.93 175.21 197.71 175.49
C197.50 175.76 197.25 175.90 196.96 175.90
C196.96 175.90 196.96 175.90 196.95 175.90
C196.95 175.90 196.95 175.90 196.95 175.90
C196.73 175.90 196.52 175.80 196.35 175.61
C196.17 175.42 196.05 175.11 196.00 174.69
L195.98 174.56
L195.84 174.57
L195.10 174.65
L194.96 174.66
L194.97 174.80
C195.02 175.45 195.23 175.96 195.60 176.33
C195.97 176.70 196.43 176.89 196.96 176.89
C197.61 176.89 198.13 176.63 198.52 176.10
C198.89 175.58 199.08 174.96 199.08 174.24
C199.08 173.51 198.89 172.93 198.51 172.49
C198.12 172.05 197.67 171.82 197.14 171.82
C196.83 171.82 196.53 171.91 196.25 172.09
L196.25 172.09
L196.48 170.66
L198.80 170.66
L198.80 170.52
L198.80 169.69
L198.80 169.55
Z
" fill="white" fill-rule="nonzero" />
<path d="
M195.45 181.55
C195.35 181.86 195.18 182.18 194.94 182.51
C194.70 182.83 194.42 183.11 194.10 183.34
L194.10 184.18
C194.29 184.08 194.49 183.93 194.71 183.72
C194.94 183.52 195.12 183.32 195.25 183.13
L195.25 188.70
L195.82 188.70
L195.82 181.55
Z
M198.86 181.55
C198.42 181.55 198.07 181.72 197.80 182.07
C197.53 182.41 197.38 182.93 197.33 183.61
L197.93 183.70
C197.93 183.24 198.01 182.89 198.18 182.64
C198.35 182.40 198.57 182.27 198.84 182.27
C199.09 182.27 199.30 182.39 199.47 182.62
C199.64 182.84 199.72 183.14 199.72 183.50
C199.72 183.82 199.64 184.16 199.47 184.52
C199.31 184.89 198.96 185.40 198.42 186.07
C197.96 186.64 197.64 187.14 197.47 187.56
C197.30 187.98 197.22 188.36 197.23 188.70
L200.32 188.70
L200.32 187.86
L198.02 187.86
C198.08 187.70 198.17 187.54 198.27 187.38
C198.36 187.23 198.59 186.93 198.93 186.49
C199.46 185.80 199.83 185.24 200.02 184.83
C200.21 184.41 200.31 183.98 200.31 183.52
C200.31 183.01 200.19 182.55 199.94 182.15
C199.70 181.75 199.33 181.55 198.86 181.55
Z
" fill="black" fill-rule="nonzero" />
<path d="
M199.13 194.89
L199.13 198.10
L197.67 198.10
L199.13 194.89
Z
M195.45 193.46
C195.35 193.77 195.18 194.09 194.94 194.41
C194.70 194.74 194.42 195.02 194.10 195.24
L194.10 196.09
C194.29 195.99 194.49 195.83 194.71 195.63
C194.94 195.43 195.12 195.23 195.25 195.03
L195.25 200.61
L195.82 200.61
L195.82 193.46
Z
M199.24 193.48
L197.11 198.10
L197.11 198.90
L199.13 198.90
L199.13 200.61
L199.71 200.61
L199.71 198.90
L200.34 198.90
L200.34 198.10
L199.71 198.10
L199.71 193.48
Z
" fill="black" fill-rule="nonzero" />
</g>
<g  transform="translate(1.19,228.58)" >
<path d="
M109.47 2.72
C109.30 2.72 109.16 2.78 109.05 2.89
C108.93 3.01 108.88 3.15 108.88 3.31
C108.88 3.47 108.93 3.61 109.05 3.73
C109.17 3.84 109.31 3.90 109.47 3.90
C109.63 3.90 109.77 3.84 109.88 3.73
C110.00 3.61 110.06 3.47 110.06 3.31
C110.06 3.15 110.00 3.01 109.88 2.89
C109.77 2.78 109.63 2.72 109.47 2.72
Z
M125.81 4.17
L125.81 8.08
L123.04 8.08
L125.81 4.17
Z
M114.44 7.81
L114.44 9.84
C113.96 10.23 113.57 10.42 113.28 10.42
C113.06 10.42 112.87 10.33 112.70 10.15
C112.53 9.96 112.45 9.73 112.45 9.45
C112.45 9.23 112.52 9.03 112.65 8.84
C112.78 8.66 113.00 8.48 113.31 8.31
C113.48 8.21 113.85 8.05 114.44 7.81
Z
M102.79 3.55
C103.72 3.55 104.48 3.86 105.07 4.49
C105.67 5.12 105.96 5.98 105.96 7.06
C105.96 8.15 105.67 9.00 105.07 9.63
C104.48 10.27 103.74 10.58 102.84 10.58
C102.50 10.58 102.09 10.53 101.60 10.42
L101.60 3.72
C102.04 3.60 102.44 3.55 102.79 3.55
Z
M99.35 3.11
L99.35 3.32
L99.64 3.32
C99.94 3.32 100.17 3.41 100.32 3.58
C100.43 3.70 100.48 4.01 100.48 4.50
L100.48 9.59
C100.48 10.04 100.44 10.33 100.35 10.45
C100.21 10.67 99.98 10.77 99.64 10.77
L99.35 10.77
L99.35 10.99
L102.87 10.99
C104.40 10.99 105.54 10.58 106.29 9.76
C106.96 9.02 107.29 8.10 107.29 7.01
C107.29 6.19 107.10 5.47 106.73 4.84
C106.35 4.22 105.86 3.77 105.25 3.51
C104.63 3.24 103.74 3.11 102.56 3.11
Z
M109.70 5.51
L108.09 6.16
L108.17 6.37
C108.33 6.31 108.46 6.28 108.57 6.28
C108.67 6.28 108.75 6.30 108.81 6.35
C108.86 6.40 108.91 6.49 108.93 6.61
C108.97 6.78 108.99 7.16 108.99 7.73
L108.99 9.79
C108.99 10.11 108.96 10.34 108.91 10.45
C108.86 10.57 108.79 10.65 108.70 10.70
C108.61 10.75 108.43 10.78 108.17 10.78
L108.17 10.99
L110.76 10.99
L110.76 10.78
C110.51 10.78 110.33 10.75 110.24 10.70
C110.14 10.64 110.07 10.56 110.02 10.45
C109.98 10.34 109.95 10.12 109.95 9.79
L109.95 5.51
Z
M126.13 2.94
L122.47 8.16
L122.47 8.91
L125.81 8.91
L125.81 10.99
L126.77 10.99
L126.77 8.91
L127.83 8.91
L127.83 8.08
L126.77 8.08
L126.77 2.94
Z
M113.63 5.51
C113.01 5.51 112.53 5.65 112.19 5.93
C111.85 6.20 111.68 6.51 111.68 6.84
C111.68 7.02 111.72 7.16 111.81 7.26
C111.91 7.36 112.02 7.41 112.17 7.41
C112.31 7.41 112.43 7.36 112.52 7.26
C112.62 7.17 112.66 7.03 112.66 6.85
L112.65 6.51
C112.65 6.34 112.72 6.19 112.87 6.06
C113.01 5.93 113.21 5.86 113.45 5.86
C113.77 5.86 114.02 5.96 114.19 6.16
C114.36 6.36 114.44 6.72 114.44 7.25
L114.44 7.46
C113.53 7.79 112.87 8.08 112.48 8.31
C112.08 8.54 111.81 8.79 111.65 9.05
C111.53 9.24 111.47 9.47 111.47 9.73
C111.47 10.14 111.59 10.47 111.83 10.72
C112.07 10.97 112.37 11.10 112.74 11.10
C112.98 11.10 113.20 11.05 113.41 10.95
C113.55 10.89 113.89 10.64 114.44 10.22
C114.44 10.54 114.50 10.76 114.61 10.90
C114.73 11.03 114.88 11.09 115.07 11.09
C115.46 11.09 115.88 10.80 116.31 10.22
L116.31 9.90
C116.08 10.13 115.92 10.27 115.84 10.32
C115.79 10.35 115.74 10.36 115.68 10.36
C115.62 10.36 115.57 10.34 115.52 10.30
C115.48 10.26 115.45 10.19 115.43 10.07
C115.41 9.96 115.40 9.65 115.40 9.14
L115.40 7.33
C115.40 6.82 115.36 6.48 115.29 6.31
C115.19 6.05 115.02 5.87 114.79 5.75
C114.49 5.59 114.10 5.51 113.63 5.51
Z
M117.82 9.86
C117.64 9.86 117.49 9.92 117.37 10.05
C117.24 10.17 117.18 10.32 117.18 10.51
C117.18 10.68 117.24 10.84 117.37 10.96
C117.49 11.09 117.64 11.15 117.82 11.15
C118.00 11.15 118.15 11.09 118.28 10.96
C118.41 10.84 118.47 10.68 118.47 10.51
C118.47 10.33 118.41 10.18 118.28 10.05
C118.16 9.92 118.01 9.86 117.82 9.86
Z
" fill="black" fill-rule="nonzero" />
</g>
</g>
</svg>
