<?xml version="1.0" encoding="utf-8" standalone="no"?>
<!DOCTYPE svg PUBLIC "-//W3C//DTD SVG 1.0//EN" "http://www.w3.org/TR/SVG/DTD/svg11.dtd" >
<svg version="1.1" baseProfile="full"  width="319.13385" height="338.51422" viewBox="0 0 229.77638 243.73024" preserveAspectRatio="xMidYMid" xmlns="http://www.w3.org/2000/svg" >

<g lengthAdjust="spacingAndGlyphs" xml:space='preserve' >
<g  transform="translate(1.19,1.19)" >
<path d="
M0.0 0.0
L0.0 227.39
L227.39 227.39
L227.39 0.0
Z
" fill="none" fill-rule="nonzero" />
<line x1="6.54" y1="6.54" x2="6.54" y2="220.84" fill="none" stroke="black" stroke-width="0.87px" stroke-linecap="square" />
<line x1="18.45" y1="6.54" x2="18.45" y2="220.84" fill="none" stroke="black" stroke-width="0.25px" stroke-linecap="butt" />
<line x1="30.35" y1="6.54" x2="30.35" y2="220.84" fill="none" stroke="black" stroke-width="0.25px" stroke-linecap="butt" />
<line x1="42.26" y1="6.54" x2="42.26" y2="220.84" fill="none" stroke="black" stroke-width="0.25px" stroke-linecap="butt" />
<line x1="54.17" y1="6.54" x2="54.17" y2="220.84" fill="none" stroke="black" stroke-width="0.25px" stroke-linecap="butt" />
<line x1="66.07" y1="6.54" x2="66.07" y2="220.84" fill="none" stroke="black" stroke-width="0.25px" stroke-linecap="butt" />
<line x1="77.98" y1="6.54" x2="77.98" y2="220.84" fill="none" stroke="black" stroke-width="0.25px" stroke-linecap="butt" />
<line x1="89.88" y1="6.54" x2="89.88" y2="220.84" fill="none" stroke="black" stroke-width="0.25px" stroke-linecap="butt" />
<line x1="101.79" y1="6.54" x2="101.79" y2="220.84" fill="none" stroke="black" stroke-width="0.25px" stroke-linecap="butt" />
<line x1="113.69" y1="6.54" x2="113.69" y2="220.84" fill="none" stroke="black" stroke-width="0.25px" stroke-linecap="butt" />
<line x1="125.60" y1="6.54" x2="125.60" y2="220.84" fill="none" stroke="black" stroke-width="0.25px" stroke-linecap="butt" />
<line x1="137.50" y1="6.54" x2="137.50" y2="220.84" fill="none" stroke="black" stroke-width="0.25px" stroke-linecap="butt" />
<line x1="149.41" y1="6.54" x2="149.41" y2="220.84" fill="none" stroke="black" stroke-width="0.25px" stroke-linecap="butt" />
<line x1="161.31" y1="6.54" x2="161.31" y2="220.84" fill="none" stroke="black" stroke-width="0.25px" stroke-linecap="butt" />
<line x1="173.22" y1="6.54" x2="173.22" y2="220.84" fill="none" stroke="black" stroke-width="0.25px" stroke-linecap="butt" />
<line x1="185.13" y1="6.54" x2="185.13" y2="220.84" fill="none" stroke="black" stroke-width="0.25px" stroke-linecap="butt" />
<line x1="197.03" y1="6.54" x2="197.03" y2="220.84" fill="none" stroke="black" stroke-width="0.25px" stroke-linecap="butt" />
<line x1="208.94" y1="6.54" x2="208.94" y2="220.84" fill="none" stroke="black" stroke-width="0.25px" stroke-linecap="butt" />
<line x1="220.84" y1="6.54" x2="220.84" y2="220.84" fill="none" stroke="black" stroke-width="0.87px" stroke-linecap="square" />
<line x1="6.54" y1="6.54" x2="220.84" y2="6.54" fill="none" stroke="black" stroke-width="0.87px" stroke-linecap="square" />
<line x1="6.54" y1="18.45" x2="220.84" y2="18.45" fill="none" stroke="black" stroke-width="0.25px" stroke-linecap="butt" />
<line x1="6.54" y1="30.35" x2="220.84" y2="30.35" fill="none" stroke="black" stroke-width="0.25px" stroke-linecap="butt" />
<line x1="6.54" y1="42.26" x2="220.84" y2="42.26" fill="none" stroke="black" stroke-width="0.25px" stroke-linecap="butt" />
<line x1="6.54" y1="54.17" x2="220.84" y2="54.17" fill="none" stroke="black" stroke-width="0.25px" stroke-linecap="butt" />
<line x1="6.54" y1="66.07" x2="220.84" y2="66.07" fill="none" stroke="black" stroke-width="0.25px" stroke-linecap="butt" />
<line x1="6.54" y1="77.98" x2="220.84" y2="77.98" fill="none" stroke="black" stroke-width="0.25px" stroke-linecap="butt" />
<line x1="6.54" y1="89.88" x2="220.84" y2="89.88" fill="none" stroke="black" stroke-width="0.25px" stroke-linecap="butt" />
<line x1="6.54" y1="101.79" x2="220.84" y2="101.79" fill="none" stroke="black" stroke-width="0.25px" stroke-linecap="butt" />
<line x1="6.54" y1="113.69" x2="220.84" y2="113.69" fill="none" stroke="black" stroke-width="0.25px" stroke-linecap="butt" />
<line x1="6.54" y1="125.60" x2="220.84" y2="125.60" fill="none" stroke="black" stroke-width="0.25px" stroke-linecap="butt" />
<line x1="6.54" y1="137.50" x2="220.84" y2="137.50" fill="none" stroke="black" stroke-width="0.25px" stroke-linecap="butt" />
<line x1="6.54" y1="149.41" x2="220.84" y2="149.41" fill="none" stroke="black" stroke-width="0.25px" stroke-linecap="butt" />
<line x1="6.54" y1="161.31" x2="220.84" y2="161.31" fill="none" stroke="black" stroke-width="0.25px" stroke-linecap="butt" />
<line x1="6.54" y1="173.22" x2="220.84" y2="173.22" fill="none" stroke="black" stroke-width="0.25px" stroke-linecap="butt" />
<line x1="6.54" y1="185.13" x2="220.84" y2="185.13" fill="none" stroke="black" stroke-width="0.25px" stroke-linecap="butt" />
<line x1="6.54" y1="197.03" x2="220.84" y2="197.03" fill="none" stroke="black" stroke-width="0.25px" stroke-linecap="butt" />
<line x1="6.54" y1="208.94" x2="220.84" y2="208.94" fill="none" stroke="black" stroke-width="0.25px" stroke-linecap="butt" />
<line x1="6.54" y1="220.84" x2="220.84" y2="220.84" fill="none" stroke="black" stroke-width="0.87px" stroke-linecap="square" />
<circle cx="18.45" cy="137.50" r="6.01" fill="black"/>
<circle cx="18.45" cy="149.41" r="6.01" fill="black"/>
<circle cx="18.45" cy="161.31" r="5.89" fill="white"/>
<circle cx="18.45" cy="161.31" r="5.89" fill="none" stroke="black" stroke-width="0.25px"/>
<circle cx="18.45" cy="185.13" r="5.89" fill="white"/>
<circle cx="18.45" cy="185.13" r="5.89" fill="none" stroke="black" stroke-width="0.25px"/>
<circle cx="18.45" cy="197.03" r="6.01" fill="black"/>
<circle cx="18.45" cy="208.94" r="6.01" fill="black"/>
<circle cx="30.35" cy="66.07" r="6.01" fill="black"/>
<circle cx="30.35" cy="89.88" r="6.01" fill="black"/>
<circle cx="30.35" cy="101.79" r="6.01" fill="black"/>
<circle cx="30.35" cy="125.60" r="6.01" fill="black"/>
<circle cx="30.35" cy="137.50" r="5.89" fill="white"/>
<circle cx="30.35" cy="137.50" r="5.89" fill="none" stroke="black" stroke-width="0.25px"/>
<circle cx="30.35" cy="149.41" r="6.01" fill="black"/>
<circle cx="30.35" cy="161.31" r="5.89" fill="white"/>
<circle cx="30.35" cy="161.31" r="5.89" fill="none" stroke="black" stroke-width="0.25px"/>
<circle cx="30.35" cy="173.22" r="5.89" fill="white"/>
<circle cx="30.35" cy="173.22" r="5.89" fill="none" stroke="black" stroke-width="0.25px"/>
<circle cx="30.35" cy="185.13" r="5.89" fill="white"/>
<circle cx="30.35" cy="185.13" r="5.89" fill="none" stroke="black" stroke-width="0.25px"/>
<circle cx="30.35" cy="197.03" r="6.01" fill="black"/>
<circle cx="30.35" cy="208.94" r="5.89" fill="white"/>
<circle cx="30.35" cy="208.94" r="5.89" fill="none" stroke="black" stroke-width="0.25px"/>
<circle cx="42.26" cy="42.26" r="5.89" fill="white"/>
<circle cx="42.26" cy="42.26" r="5.89" fill="none" stroke="black" stroke-width="0.25px"/>
<circle cx="42.26" cy="101.79" r="5.89" fill="white"/>
<circle cx="42.26" cy="101.79" r="5.89" fill="none" stroke="black" stroke-width="0.25px"/>
<circle cx="42.26" cy="113.69" r="1.27" fill="black"/>
<circle cx="42.26" cy="125.60" r="5.89" fill="white"/>
<circle cx="42.26" cy="125.60" r="5.89" fill="none" stroke="black" stroke-width="0.25px"/>
<circle cx="42.26" cy="137.50" r="6.01" fill="black"/>
<circle cx="42.26" cy="149.41" r="5.89" fill="white"/>
<circle cx="42.26" cy="149.41" r="5.89" fill="none" stroke="black" stroke-width="0.25px"/>
<circle cx="42.26" cy="161.31" r="6.01" fill="black"/>
<circle cx="42.26" cy="173.22" r="6.01" fill="black"/>
<circle cx="42.26" cy="185.13" r="6.01" fill="black"/>
<circle cx="42.26" cy="197.03" r="5.89" fill="white"/>
<circle cx="42.26" cy="197.03" r="5.89" fill="none" stroke="black" stroke-width="0.25px"/>
<circle cx="42.26" cy="208.94" r="5.89" fill="white"/>
<circle cx="42.26" cy="208.94" r="5.89" fill="none" stroke="black" stroke-width="0.25px"/>
<circle cx="54.17" cy="125.60" r="5.89" fill="white"/>
<circle cx="54.17" cy="125.60" r="5.89" fill="none" stroke="black" stroke-width="0.25px"/>
<circle cx="54.17" cy="137.50" r="5.89" fill="white"/>
<circle cx="54.17" cy="137.50" r="5.89" fill="none" stroke="black" stroke-width="0.25px"/>
<circle cx="54.17" cy="149.41" r="5.89" fill="white"/>
<circle cx="54.17" cy="149.41" r="5.89" fill="none" stroke="black" stroke-width="0.25px"/>
<circle cx="54.17" cy="197.03" r="6.01" fill="black"/>
<circle cx="54.17" cy="208.94" r="5.89" fill="white"/>
<circle cx="54.17" cy="208.94" r="5.89" fill="none" stroke="black" stroke-width="0.25px"/>
<circle cx="66.07" cy="30.35" r="5.89" fill="white"/>
<circle cx="66.07" cy="30.35" r="5.89" fill="none" stroke="black" stroke-width="0.25px"/>
<circle cx="66.07" cy="125.60" r="5.89" fill="white"/>
<circle cx="66.07" cy="125.60" r="5.89" fill="none" stroke="black" stroke-width="0.25px"/>
<circle cx="66.07" cy="137.50" r="6.01" fill="black"/>
<circle cx="66.07" cy="161.31" r="6.01" fill="black"/>
<circle cx="66.07" cy="173.22" r="6.01" fill="black"/>
<circle cx="66.07" cy="197.03" r="5.89" fill="white"/>
<circle cx="66.07" cy="197.03" r="5.89" fill="none" stroke="black" stroke-width="0.25px"/>
<circle cx="77.98" cy="125.60" r="5.89" fill="white"/>
<circle cx="77.98" cy="125.60" r="5.89" fill="none" stroke="black" stroke-width="0.25px"/>
<circle cx="77.98" cy="137.50" r="6.01" fill="black"/>
<circle cx="89.88" cy="125.60" r="5.89" fill="white"/>
<circle cx="89.88" cy="125.60" r="5.89" fill="none" stroke="black" stroke-width="0.25px"/>
<circle cx="89.88" cy="137.50" r="5.89" fill="white"/>
<circle cx="89.88" cy="137.50" r="5.89" fill="none" stroke="black" stroke-width="0.25px"/>
<circle cx="89.88" cy="149.41" r="6.01" fill="black"/>
<circle cx="89.88" cy="197.03" r="6.01" fill="black"/>
<circle cx="101.79" cy="137.50" r="6.01" fill="black"/>
<circle cx="101.79" cy="149.41" r="6.01" fill="black"/>
<circle cx="113.69" cy="42.26" r="1.27" fill="black"/>
<circle cx="113.69" cy="113.69" r="5.89" fill="white"/>
<circle cx="113.69" cy="113.69" r="5.89" fill="none" stroke="black" stroke-width="0.25px"/>
<circle cx="113.69" cy="185.13" r="1.27" fill="black"/>
<circle cx="161.31" cy="197.03" r="6.01" fill="black"/>
<circle cx="185.13" cy="42.26" r="6.01" fill="black"/>
<circle cx="185.13" cy="113.69" r="1.27" fill="black"/>
<circle cx="185.13" cy="185.13" r="1.27" fill="black"/>
<circle cx="197.03" cy="113.69" r="5.89" fill="white"/>
<circle cx="197.03" cy="113.69" r="5.89" fill="none" stroke="black" stroke-width="0.25px"/>
<circle cx="197.03" cy="185.13" r="6.01" fill="black"/>
<path d="
M28.68 88.33
L28.68 90.75
L27.58 90.75
L28.68 88.33
Z
M28.84 86.13
L28.80 86.21
L26.67 90.83
L26.66 90.86
L26.66 90.89
L26.66 91.69
L26.66 91.83
L28.68 91.83
L28.68 93.39
L28.68 93.54
L29.54 93.54
L29.54 93.39
L29.54 91.83
L30.17 91.83
L30.17 91.69
L30.17 90.89
L30.17 90.75
L29.54 90.75
L29.54 86.27
L29.54 86.13
Z
M32.09 86.10
C31.68 86.10 31.34 86.27 31.06 86.62
C30.79 86.95 30.61 87.44 30.54 88.07
L30.52 88.19
L30.64 88.23
L31.21 88.38
L31.37 88.43
L31.39 88.26
C31.43 87.85 31.52 87.55 31.65 87.36
C31.77 87.19 31.92 87.10 32.09 87.10
C32.09 87.10 32.09 87.10 32.10 87.10
C32.10 87.10 32.10 87.10 32.10 87.10
C32.26 87.10 32.40 87.19 32.52 87.35
C32.65 87.53 32.72 87.77 32.72 88.07
C32.72 88.40 32.64 88.66 32.48 88.85
C32.34 89.03 32.15 89.12 31.91 89.12
L31.91 89.12
L31.83 89.11
L31.69 89.10
L31.67 89.24
L31.61 90.01
L31.59 90.24
L31.80 90.15
C31.95 90.10 32.06 90.07 32.15 90.07
C32.15 90.07 32.15 90.07 32.15 90.07
C32.15 90.07 32.16 90.07 32.16 90.07
C32.36 90.07 32.54 90.17 32.69 90.39
C32.85 90.61 32.93 90.92 32.93 91.31
C32.93 91.72 32.84 92.05 32.66 92.30
C32.50 92.54 32.31 92.65 32.10 92.65
C32.10 92.65 32.10 92.65 32.10 92.65
C32.10 92.65 32.10 92.65 32.10 92.65
C31.91 92.65 31.75 92.56 31.63 92.37
C31.49 92.15 31.39 91.82 31.33 91.38
L31.31 91.23
L31.17 91.26
L30.59 91.38
L30.47 91.40
L30.48 91.52
C30.52 92.16 30.69 92.68 30.98 93.06
C31.29 93.46 31.66 93.66 32.11 93.66
C32.58 93.66 32.99 93.43 33.33 92.98
C33.66 92.54 33.82 91.98 33.82 91.29
C33.82 90.97 33.78 90.68 33.70 90.41
C33.62 90.15 33.51 89.93 33.38 89.77
C33.29 89.66 33.19 89.57 33.07 89.50
L33.07 89.50
C33.21 89.37 33.32 89.20 33.41 89.01
C33.53 88.74 33.59 88.43 33.59 88.09
C33.59 87.53 33.45 87.06 33.16 86.68
C32.87 86.30 32.51 86.10 32.09 86.10
Z
" fill="white" fill-rule="nonzero" />
<path d="
M28.68 100.30
L28.68 102.71
L27.58 102.71
L28.68 100.30
Z
M28.84 98.10
L28.80 98.18
L26.67 102.80
L26.66 102.82
L26.66 102.86
L26.66 103.66
L26.66 103.80
L28.68 103.80
L28.68 105.36
L28.68 105.50
L29.54 105.50
L29.54 105.36
L29.54 103.80
L30.17 103.80
L30.17 103.66
L30.17 102.86
L30.17 102.71
L29.54 102.71
L29.54 98.24
L29.54 98.10
Z
M32.30 98.07
L32.27 98.17
C32.17 98.46 32.01 98.77 31.78 99.08
C31.54 99.40 31.28 99.67 30.97 99.88
L30.91 99.93
L30.91 100.00
L30.91 100.84
L30.91 101.09
L31.12 100.97
C31.32 100.86 31.53 100.70 31.76 100.49
C31.87 100.39 31.97 100.29 32.06 100.20
L32.06 100.20
L32.06 105.36
L32.06 105.50
L32.92 105.50
L32.92 105.36
L32.92 98.21
L32.92 98.07
Z
" fill="white" fill-rule="nonzero" />
<path d="
M40.73 99.64
L40.73 102.86
L39.27 102.86
L40.73 99.64
Z
M40.84 98.24
L38.70 102.86
L38.70 103.66
L40.73 103.66
L40.73 105.36
L41.30 105.36
L41.30 103.66
L41.94 103.66
L41.94 102.86
L41.30 102.86
L41.30 98.24
Z
M44.09 98.21
C43.65 98.21 43.30 98.38 43.03 98.73
C42.76 99.07 42.60 99.59 42.56 100.27
L43.15 100.36
C43.15 99.90 43.24 99.55 43.41 99.30
C43.58 99.06 43.80 98.94 44.07 98.94
C44.32 98.94 44.52 99.05 44.69 99.28
C44.86 99.51 44.95 99.80 44.95 100.16
C44.95 100.48 44.87 100.82 44.70 101.18
C44.53 101.55 44.18 102.06 43.65 102.73
C43.19 103.30 42.87 103.80 42.70 104.22
C42.53 104.64 42.45 105.02 42.45 105.36
L45.54 105.36
L45.54 104.52
L43.25 104.52
C43.31 104.36 43.39 104.20 43.49 104.05
C43.59 103.89 43.81 103.59 44.16 103.15
C44.69 102.46 45.06 101.90 45.25 101.49
C45.44 101.07 45.54 100.64 45.54 100.18
C45.54 99.67 45.41 99.22 45.17 98.81
C44.92 98.41 44.56 98.21 44.09 98.21
Z
" fill="black" fill-rule="nonzero" />
<path d="
M44.05 122.68
C44.26 122.68 44.44 122.78 44.59 123.00
C44.74 123.21 44.82 123.48 44.82 123.82
C44.82 124.14 44.74 124.40 44.60 124.61
C44.45 124.81 44.27 124.91 44.06 124.91
C43.84 124.91 43.66 124.81 43.51 124.60
C43.37 124.39 43.29 124.12 43.29 123.77
C43.29 123.46 43.37 123.20 43.52 122.99
C43.67 122.78 43.84 122.68 44.05 122.68
Z
M44.04 125.63
C44.31 125.63 44.53 125.76 44.72 126.03
C44.91 126.30 45.01 126.65 45.01 127.08
C45.01 127.52 44.92 127.87 44.73 128.12
C44.55 128.38 44.32 128.51 44.06 128.51
C43.80 128.51 43.57 128.38 43.38 128.11
C43.20 127.85 43.10 127.49 43.10 127.06
C43.10 126.63 43.19 126.29 43.38 126.03
C43.56 125.76 43.78 125.63 44.04 125.63
Z
M44.05 121.96
C43.66 121.96 43.34 122.13 43.09 122.47
C42.83 122.81 42.70 123.25 42.70 123.79
C42.70 124.15 42.76 124.45 42.88 124.69
C43.00 124.93 43.17 125.12 43.40 125.25
C43.13 125.36 42.91 125.57 42.75 125.88
C42.59 126.19 42.52 126.58 42.52 127.06
C42.52 127.71 42.66 128.23 42.96 128.63
C43.25 129.03 43.62 129.23 44.06 129.23
C44.49 129.23 44.86 129.03 45.15 128.63
C45.45 128.23 45.59 127.71 45.59 127.08
C45.59 126.62 45.52 126.23 45.37 125.92
C45.22 125.61 45.00 125.39 44.72 125.25
C44.95 125.12 45.12 124.93 45.23 124.69
C45.35 124.45 45.40 124.16 45.40 123.82
C45.40 123.27 45.27 122.83 45.02 122.48
C44.76 122.13 44.44 121.96 44.05 121.96
Z
M40.36 121.96
C40.00 121.96 39.70 122.11 39.44 122.43
C39.19 122.74 39.02 123.20 38.95 123.81
L39.52 123.96
C39.56 123.53 39.66 123.21 39.81 123.00
C39.96 122.78 40.15 122.68 40.37 122.68
C40.58 122.68 40.76 122.78 40.91 122.98
C41.06 123.18 41.13 123.45 41.13 123.79
C41.13 124.15 41.04 124.44 40.87 124.66
C40.69 124.87 40.46 124.98 40.18 124.98
L40.09 124.97
L40.02 125.74
C40.19 125.67 40.32 125.64 40.43 125.64
C40.69 125.64 40.90 125.77 41.08 126.02
C41.25 126.27 41.34 126.61 41.34 127.02
C41.34 127.46 41.25 127.82 41.05 128.10
C40.86 128.37 40.64 128.51 40.37 128.51
C39.89 128.51 39.59 128.05 39.47 127.11
L38.89 127.23
C38.93 127.84 39.09 128.33 39.37 128.69
C39.65 129.06 39.98 129.24 40.38 129.24
C40.81 129.24 41.18 129.03 41.49 128.61
C41.80 128.20 41.95 127.66 41.95 127.01
C41.95 126.70 41.91 126.42 41.84 126.17
C41.76 125.92 41.67 125.72 41.54 125.57
C41.42 125.42 41.27 125.32 41.08 125.25
C41.28 125.11 41.44 124.91 41.55 124.67
C41.67 124.42 41.72 124.13 41.72 123.81
C41.72 123.27 41.59 122.83 41.33 122.48
C41.06 122.13 40.74 121.96 40.36 121.96
Z
" fill="black" fill-rule="nonzero" />
<path d="
M44.06 134.73
C44.06 134.73 44.06 134.73 44.06 134.73
C44.06 134.73 44.06 134.73 44.06 134.73
C44.25 134.73 44.41 134.85 44.56 135.10
C44.73 135.37 44.82 135.74 44.82 136.23
C44.82 136.71 44.73 137.08 44.57 137.34
C44.43 137.57 44.25 137.69 44.05 137.69
C44.05 137.69 44.05 137.69 44.05 137.69
C44.05 137.69 44.05 137.69 44.04 137.69
C43.84 137.69 43.66 137.57 43.50 137.34
C43.34 137.08 43.25 136.74 43.25 136.30
C43.25 135.81 43.34 135.42 43.52 135.13
C43.68 134.86 43.86 134.73 44.06 134.73
Z
M43.99 133.72
C43.53 133.72 43.15 133.96 42.83 134.43
C42.53 134.88 42.38 135.50 42.38 136.27
C42.38 137.02 42.52 137.62 42.82 138.06
C43.12 138.51 43.49 138.74 43.92 138.74
C44.16 138.74 44.40 138.65 44.63 138.46
C44.72 138.38 44.80 138.30 44.87 138.21
L44.87 138.21
C44.85 138.60 44.80 138.95 44.72 139.27
C44.62 139.66 44.49 139.93 44.36 140.08
C44.23 140.21 44.09 140.28 43.94 140.28
C43.94 140.28 43.94 140.28 43.93 140.28
C43.93 140.28 43.93 140.28 43.93 140.28
C43.77 140.28 43.63 140.20 43.53 140.06
C43.42 139.89 43.34 139.63 43.30 139.28
L43.28 139.13
L43.14 139.15
L42.59 139.23
L42.45 139.25
L42.46 139.38
C42.51 139.98 42.67 140.45 42.92 140.77
C43.19 141.11 43.52 141.28 43.92 141.28
C44.28 141.28 44.59 141.14 44.87 140.86
C45.14 140.60 45.36 140.18 45.51 139.62
C45.66 139.06 45.74 138.29 45.74 137.30
C45.74 136.41 45.67 135.72 45.52 135.24
C45.38 134.75 45.17 134.38 44.90 134.12
C44.62 133.86 44.32 133.72 43.99 133.72
Z
M40.36 133.72
C39.96 133.72 39.61 133.90 39.33 134.24
C39.06 134.57 38.89 135.06 38.81 135.69
L38.80 135.82
L38.91 135.85
L39.49 136.00
L39.65 136.05
L39.66 135.88
C39.70 135.47 39.79 135.18 39.93 134.98
C40.05 134.81 40.20 134.73 40.37 134.73
C40.37 134.73 40.37 134.73 40.37 134.73
C40.37 134.73 40.37 134.73 40.37 134.73
C40.54 134.73 40.68 134.81 40.80 134.97
C40.93 135.15 40.99 135.39 40.99 135.69
C40.99 136.02 40.91 136.28 40.76 136.47
C40.61 136.65 40.42 136.74 40.19 136.74
L40.19 136.74
L40.11 136.74
L39.96 136.72
L39.95 136.86
L39.88 137.63
L39.86 137.86
L40.08 137.78
C40.22 137.72 40.34 137.69 40.43 137.69
C40.43 137.69 40.43 137.69 40.43 137.69
C40.43 137.69 40.43 137.69 40.43 137.69
C40.64 137.69 40.82 137.80 40.96 138.01
C41.12 138.24 41.20 138.54 41.20 138.93
C41.20 139.34 41.11 139.67 40.94 139.92
C40.78 140.16 40.59 140.28 40.38 140.28
C40.38 140.28 40.38 140.28 40.37 140.28
C40.37 140.28 40.37 140.28 40.37 140.28
C40.18 140.28 40.02 140.18 39.90 139.99
C39.76 139.78 39.67 139.45 39.61 139.00
L39.59 138.85
L39.44 138.88
L38.87 139.00
L38.74 139.02
L38.75 139.14
C38.79 139.79 38.96 140.30 39.26 140.68
C39.56 141.08 39.94 141.28 40.38 141.28
C40.86 141.28 41.27 141.06 41.60 140.60
C41.93 140.16 42.09 139.60 42.09 138.91
C42.09 138.59 42.05 138.30 41.98 138.04
C41.89 137.77 41.79 137.55 41.65 137.39
C41.57 137.28 41.46 137.19 41.34 137.12
L41.34 137.12
C41.48 136.99 41.60 136.82 41.68 136.63
C41.80 136.36 41.86 136.06 41.86 135.71
C41.86 135.15 41.72 134.68 41.44 134.30
C41.15 133.92 40.79 133.72 40.36 133.72
Z
" fill="white" fill-rule="nonzero" />
<path d="
M52.63 135.30
L52.63 138.51
L51.17 138.51
L52.63 135.30
Z
M55.93 134.59
C56.21 134.59 56.44 134.79 56.62 135.18
C56.79 135.57 56.88 136.35 56.88 137.51
C56.88 138.65 56.79 139.43 56.62 139.82
C56.44 140.22 56.22 140.42 55.96 140.42
C55.68 140.42 55.46 140.22 55.28 139.83
C55.10 139.44 55.01 138.66 55.01 137.51
C55.01 136.36 55.10 135.59 55.27 135.19
C55.45 134.79 55.67 134.59 55.93 134.59
Z
M52.74 133.90
L50.61 138.51
L50.61 139.31
L52.63 139.31
L52.63 141.02
L53.21 141.02
L53.21 139.31
L53.84 139.31
L53.84 138.51
L53.21 138.51
L53.21 133.90
Z
M55.95 133.87
C55.45 133.87 55.07 134.17 54.81 134.79
C54.55 135.41 54.43 136.31 54.43 137.51
C54.43 138.84 54.57 139.78 54.85 140.32
C55.13 140.87 55.50 141.14 55.95 141.14
C56.45 141.14 56.83 140.83 57.09 140.21
C57.34 139.60 57.47 138.69 57.47 137.51
C57.47 136.18 57.32 135.22 57.01 134.62
C56.75 134.12 56.40 133.87 55.95 133.87
Z
" fill="black" fill-rule="nonzero" />
<path d="
M64.54 123.44
L64.54 126.65
L63.08 126.65
L64.54 123.44
Z
M68.17 123.44
L68.17 126.65
L66.71 126.65
L68.17 123.44
Z
M64.65 122.04
L62.51 126.65
L62.51 127.45
L64.54 127.45
L64.54 129.16
L65.11 129.16
L65.11 127.45
L65.75 127.45
L65.75 126.65
L65.11 126.65
L65.11 122.04
Z
M68.28 122.04
L66.14 126.65
L66.14 127.45
L68.17 127.45
L68.17 129.16
L68.74 129.16
L68.74 127.45
L69.38 127.45
L69.38 126.65
L68.74 126.65
L68.74 122.04
Z
" fill="black" fill-rule="nonzero" />
<path d="
M66.23 133.84
L66.23 133.99
L66.23 134.83
L66.23 134.97
L68.41 134.97
C68.16 135.44 67.93 135.99 67.71 136.62
C67.46 137.34 67.26 138.11 67.11 138.91
C66.97 139.71 66.89 140.41 66.88 141.01
L66.88 141.16
L67.61 141.16
L67.75 141.16
L67.76 141.02
C67.81 139.88 68.00 138.73 68.34 137.57
C68.68 136.40 69.07 135.46 69.51 134.74
L69.54 134.71
L69.54 134.67
L69.54 133.99
L69.54 133.84
Z
M64.17 133.72
C63.77 133.72 63.43 133.90 63.14 134.24
C62.87 134.57 62.70 135.06 62.62 135.69
L62.61 135.82
L62.73 135.85
L63.30 136.00
L63.46 136.05
L63.48 135.88
C63.51 135.47 63.60 135.18 63.74 134.98
C63.86 134.81 64.01 134.73 64.18 134.73
C64.18 134.73 64.18 134.73 64.18 134.73
C64.18 134.73 64.18 134.73 64.18 134.73
C64.35 134.73 64.49 134.81 64.61 134.97
C64.74 135.15 64.80 135.39 64.80 135.69
C64.80 136.02 64.72 136.28 64.57 136.47
C64.42 136.65 64.23 136.74 64.00 136.74
L64.00 136.74
L63.92 136.74
L63.77 136.72
L63.76 136.86
L63.69 137.63
L63.67 137.86
L63.89 137.78
C64.03 137.72 64.15 137.69 64.24 137.69
C64.24 137.69 64.24 137.69 64.24 137.69
C64.24 137.69 64.24 137.69 64.24 137.69
C64.45 137.69 64.63 137.80 64.77 138.01
C64.93 138.24 65.01 138.54 65.01 138.93
C65.01 139.34 64.92 139.67 64.75 139.92
C64.59 140.16 64.40 140.28 64.19 140.28
C64.19 140.28 64.19 140.28 64.19 140.28
C64.18 140.28 64.18 140.28 64.18 140.28
C63.99 140.28 63.84 140.18 63.71 139.99
C63.58 139.78 63.48 139.45 63.42 139.00
L63.40 138.85
L63.25 138.88
L62.68 139.00
L62.56 139.02
L62.56 139.14
C62.60 139.79 62.77 140.30 63.07 140.68
C63.37 141.08 63.75 141.28 64.19 141.28
C64.67 141.28 65.08 141.06 65.41 140.60
C65.74 140.16 65.91 139.60 65.91 138.91
C65.91 138.59 65.87 138.30 65.79 138.04
C65.71 137.77 65.60 137.55 65.47 137.39
C65.38 137.28 65.27 137.19 65.16 137.12
L65.16 137.12
C65.29 136.99 65.41 136.82 65.49 136.63
C65.62 136.36 65.68 136.06 65.68 135.71
C65.68 135.15 65.53 134.68 65.25 134.30
C64.96 133.92 64.60 133.72 64.17 133.72
Z
" fill="white" fill-rule="nonzero" />
<path d="
M91.67 122.68
C91.88 122.68 92.06 122.79 92.21 123.00
C92.36 123.21 92.44 123.48 92.44 123.82
C92.44 124.14 92.37 124.41 92.22 124.61
C92.07 124.81 91.89 124.92 91.68 124.92
C91.47 124.92 91.28 124.81 91.14 124.60
C90.99 124.40 90.92 124.12 90.92 123.77
C90.92 123.46 90.99 123.20 91.14 122.99
C91.29 122.78 91.47 122.68 91.67 122.68
Z
M88.35 123.39
L88.35 126.61
L86.89 126.61
L88.35 123.39
Z
M91.67 125.63
C91.93 125.63 92.16 125.76 92.35 126.03
C92.53 126.30 92.63 126.65 92.63 127.09
C92.63 127.52 92.54 127.87 92.35 128.13
C92.17 128.39 91.95 128.52 91.68 128.52
C91.42 128.52 91.19 128.38 91.01 128.11
C90.82 127.85 90.73 127.50 90.73 127.06
C90.73 126.64 90.82 126.29 91.00 126.03
C91.18 125.76 91.40 125.63 91.67 125.63
Z
M88.46 121.99
L86.33 126.61
L86.33 127.41
L88.35 127.41
L88.35 129.11
L88.93 129.11
L88.93 127.41
L89.56 127.41
L89.56 126.61
L88.93 126.61
L88.93 121.99
Z
M91.67 121.96
C91.28 121.96 90.96 122.13 90.71 122.47
C90.45 122.81 90.32 123.25 90.32 123.79
C90.32 124.15 90.38 124.45 90.50 124.69
C90.62 124.94 90.79 125.12 91.02 125.25
C90.75 125.36 90.53 125.57 90.37 125.88
C90.22 126.19 90.14 126.58 90.14 127.06
C90.14 127.71 90.29 128.23 90.58 128.63
C90.87 129.03 91.24 129.23 91.68 129.23
C92.12 129.23 92.48 129.03 92.78 128.63
C93.07 128.23 93.22 127.72 93.22 127.08
C93.22 126.62 93.14 126.24 92.99 125.93
C92.84 125.62 92.62 125.39 92.34 125.25
C92.57 125.12 92.74 124.93 92.85 124.69
C92.97 124.46 93.03 124.17 93.03 123.82
C93.03 123.28 92.90 122.83 92.64 122.48
C92.38 122.13 92.06 121.96 91.67 121.96
Z
" fill="black" fill-rule="nonzero" />
<path d="
M88.35 135.30
L88.35 138.51
L86.89 138.51
L88.35 135.30
Z
M91.70 137.17
C91.96 137.17 92.17 137.31 92.35 137.59
C92.53 137.87 92.61 138.26 92.61 138.76
C92.61 139.28 92.53 139.68 92.35 139.98
C92.17 140.27 91.97 140.42 91.74 140.42
C91.49 140.42 91.26 140.26 91.07 139.95
C90.87 139.64 90.78 139.23 90.78 138.71
C90.78 138.24 90.87 137.86 91.05 137.59
C91.24 137.31 91.46 137.17 91.70 137.17
Z
M88.46 133.90
L86.33 138.51
L86.33 139.31
L88.35 139.31
L88.35 141.02
L88.93 141.02
L88.93 139.31
L89.56 139.31
L89.56 138.51
L88.93 138.51
L88.93 133.90
Z
M91.79 133.87
C91.30 133.87 90.90 134.16 90.59 134.74
C90.27 135.33 90.11 136.31 90.11 137.69
C90.11 138.93 90.27 139.81 90.57 140.34
C90.88 140.87 91.27 141.14 91.74 141.14
C92.00 141.14 92.24 141.05 92.46 140.86
C92.68 140.68 92.85 140.39 92.99 140.01
C93.13 139.62 93.20 139.19 93.20 138.71
C93.20 138.01 93.06 137.45 92.79 137.03
C92.51 136.61 92.19 136.40 91.82 136.40
C91.59 136.40 91.38 136.48 91.18 136.64
C90.98 136.80 90.82 137.03 90.69 137.35
C90.69 136.47 90.78 135.81 90.95 135.36
C91.15 134.85 91.42 134.59 91.76 134.59
C91.97 134.59 92.15 134.70 92.31 134.93
C92.41 135.08 92.49 135.34 92.55 135.71
L93.12 135.64
C93.07 135.06 92.92 134.62 92.68 134.32
C92.44 134.02 92.14 133.87 91.79 133.87
Z
" fill="black" fill-rule="nonzero" />
<path d="
M88.21 147.91
L88.21 147.91
L88.21 150.32
L87.11 150.32
L88.21 147.91
L88.21 147.91
Z
M88.37 145.71
L88.33 145.79
L86.20 150.40
L86.18 150.43
L86.18 150.46
L86.18 151.27
L86.18 151.41
L88.21 151.41
L88.21 152.97
L88.21 153.11
L89.07 153.11
L89.07 152.97
L89.07 151.41
L89.70 151.41
L89.70 151.27
L89.70 150.46
L89.70 150.32
L89.07 150.32
L89.07 145.85
L89.07 145.71
Z
M90.04 145.80
L90.04 145.94
L90.04 146.78
L90.04 146.92
L92.23 146.92
C91.98 147.39 91.74 147.94 91.52 148.57
C91.27 149.30 91.07 150.06 90.92 150.86
C90.78 151.66 90.70 152.36 90.69 152.97
L90.69 153.11
L91.42 153.11
L91.56 153.11
L91.57 152.98
C91.62 151.83 91.81 150.68 92.15 149.52
C92.49 148.36 92.88 147.42 93.33 146.69
L93.35 146.66
L93.35 146.62
L93.35 145.94
L93.35 145.80
Z
" fill="white" fill-rule="nonzero" />
<path d="
M87.46 195.91
L87.46 195.91
L87.46 195.91
C87.46 195.91 87.46 195.91 87.46 195.91
Z
M91.83 193.25
L91.79 193.35
C91.70 193.65 91.54 193.95 91.30 194.27
C91.07 194.58 90.80 194.85 90.50 195.07
L90.44 195.11
L90.44 195.18
L90.44 196.03
L90.44 196.27
L90.65 196.15
C90.85 196.04 91.06 195.88 91.29 195.67
C91.40 195.57 91.50 195.48 91.59 195.38
L91.59 195.38
L91.59 200.55
L91.59 200.69
L92.44 200.69
L92.44 200.55
L92.44 193.39
L92.44 193.25
Z
M86.94 193.38
L86.93 193.50
L86.47 197.16
L86.46 197.29
L86.59 197.32
L87.13 197.43
L87.24 197.45
L87.28 197.34
C87.36 197.15 87.47 197.00 87.60 196.89
C87.73 196.79 87.86 196.74 88.00 196.74
C88.00 196.74 88.00 196.74 88.00 196.74
C88.00 196.74 88.00 196.74 88.00 196.74
C88.24 196.74 88.44 196.86 88.60 197.10
C88.77 197.35 88.86 197.72 88.86 198.20
C88.86 198.71 88.77 199.11 88.59 199.40
C88.42 199.67 88.23 199.81 88.01 199.81
C88.01 199.81 88.01 199.81 88.00 199.81
C88.00 199.81 88.00 199.81 88.00 199.81
C87.83 199.81 87.68 199.72 87.54 199.53
C87.40 199.33 87.30 199.02 87.26 198.59
L87.24 198.44
L87.10 198.46
L86.49 198.54
L86.36 198.56
L86.37 198.69
C86.41 199.34 86.58 199.85 86.88 200.23
C87.18 200.61 87.56 200.81 88.01 200.81
C88.55 200.81 88.98 200.54 89.30 199.99
C89.60 199.47 89.75 198.85 89.75 198.13
C89.75 197.40 89.60 196.81 89.29 196.37
C88.97 195.91 88.60 195.68 88.16 195.68
C87.91 195.68 87.68 195.76 87.46 195.91
L87.46 195.91
L87.65 194.50
L89.53 194.50
L89.53 194.36
L89.53 193.52
L89.53 193.38
Z
" fill="white" fill-rule="nonzero" />
<path d="
M103.00 136.37
L103.00 136.37
L103.00 136.37
C103.00 136.37 103.00 136.37 103.00 136.37
Z
M100.11 135.94
L100.11 138.36
L99.01 138.36
L100.11 135.94
Z
M100.27 133.74
L100.24 133.82
L98.10 138.44
L98.09 138.47
L98.09 138.50
L98.09 139.30
L98.09 139.44
L100.11 139.44
L100.11 141.00
L100.11 141.15
L100.97 141.15
L100.97 141.00
L100.97 139.44
L101.61 139.44
L101.61 139.30
L101.61 138.50
L101.61 138.36
L100.97 138.36
L100.97 133.88
L100.97 133.74
Z
M102.48 133.84
L102.46 133.96
L102.01 137.62
L101.99 137.75
L102.12 137.78
L102.66 137.88
L102.78 137.91
L102.82 137.80
C102.90 137.60 103.00 137.45 103.14 137.35
C103.26 137.25 103.39 137.20 103.53 137.20
C103.54 137.20 103.54 137.20 103.54 137.20
C103.54 137.20 103.54 137.20 103.54 137.20
C103.78 137.20 103.98 137.32 104.14 137.55
C104.31 137.81 104.40 138.18 104.40 138.66
C104.40 139.17 104.31 139.57 104.12 139.86
C103.96 140.13 103.76 140.26 103.54 140.26
C103.54 140.26 103.54 140.26 103.54 140.26
C103.54 140.26 103.54 140.26 103.54 140.26
C103.37 140.26 103.22 140.17 103.08 139.99
C102.93 139.79 102.83 139.47 102.79 139.05
L102.78 138.90
L102.63 138.92
L102.03 139.00
L101.90 139.01
L101.91 139.15
C101.95 139.80 102.12 140.31 102.41 140.69
C102.72 141.07 103.10 141.27 103.55 141.27
C104.09 141.27 104.52 140.99 104.83 140.45
C105.14 139.93 105.29 139.31 105.29 138.59
C105.29 137.85 105.13 137.27 104.83 136.83
C104.51 136.37 104.13 136.14 103.69 136.14
C103.45 136.14 103.22 136.22 103.00 136.37
L103.00 136.37
L103.19 134.96
L105.07 134.96
L105.07 134.81
L105.07 133.98
L105.07 133.84
Z
" fill="white" fill-rule="nonzero" />
<path d="
M103.58 146.64
C103.58 146.64 103.59 146.64 103.59 146.64
C103.59 146.64 103.59 146.64 103.59 146.64
C103.77 146.64 103.94 146.76 104.09 147.01
C104.26 147.28 104.34 147.65 104.34 148.13
C104.34 148.62 104.26 148.99 104.10 149.24
C103.95 149.48 103.78 149.60 103.58 149.60
C103.58 149.60 103.58 149.60 103.58 149.60
C103.57 149.60 103.57 149.60 103.57 149.60
C103.37 149.60 103.19 149.48 103.03 149.24
C102.86 148.99 102.78 148.64 102.78 148.21
C102.78 147.72 102.87 147.33 103.05 147.04
C103.21 146.77 103.39 146.64 103.58 146.64
Z
M100.11 147.86
L100.11 147.86
L100.11 150.28
L99.01 150.28
L100.11 147.86
L100.11 147.86
Z
M100.27 145.66
L100.24 145.74
L98.10 150.36
L98.09 150.39
L98.09 150.42
L98.09 151.22
L98.09 151.36
L100.11 151.36
L100.11 152.92
L100.11 153.07
L100.97 153.07
L100.97 152.92
L100.97 151.36
L101.61 151.36
L101.61 151.22
L101.61 150.42
L101.61 150.28
L100.97 150.28
L100.97 145.80
L100.97 145.66
Z
M103.52 145.63
C103.06 145.63 102.67 145.87 102.36 146.34
C102.06 146.79 101.91 147.40 101.91 148.18
C101.91 148.93 102.05 149.52 102.34 149.96
C102.65 150.42 103.02 150.65 103.45 150.65
C103.69 150.65 103.93 150.56 104.16 150.37
C104.24 150.29 104.32 150.21 104.40 150.12
L104.40 150.12
C104.38 150.51 104.33 150.86 104.25 151.17
C104.14 151.57 104.02 151.84 103.88 151.98
C103.75 152.12 103.62 152.18 103.46 152.18
C103.46 152.18 103.46 152.18 103.46 152.18
C103.46 152.18 103.46 152.18 103.46 152.18
C103.29 152.18 103.16 152.11 103.06 151.96
C102.95 151.80 102.87 151.54 102.83 151.18
L102.81 151.04
L102.67 151.06
L102.11 151.14
L101.98 151.16
L101.99 151.29
C102.04 151.89 102.19 152.35 102.45 152.68
C102.72 153.02 103.05 153.19 103.45 153.19
C103.80 153.19 104.12 153.05 104.40 152.77
C104.67 152.51 104.88 152.09 105.04 151.52
C105.19 150.97 105.26 150.20 105.26 149.21
C105.26 148.32 105.19 147.63 105.05 147.15
C104.91 146.66 104.70 146.29 104.43 146.03
C104.15 145.76 103.85 145.63 103.52 145.63
Z
" fill="white" fill-rule="nonzero" />
<path d="
M115.45 110.78
C115.74 110.78 115.97 110.98 116.14 111.37
C116.32 111.76 116.41 112.54 116.41 113.70
C116.41 114.84 116.32 115.61 116.15 116.01
C115.97 116.41 115.75 116.61 115.49 116.61
C115.21 116.61 114.98 116.41 114.81 116.02
C114.63 115.63 114.54 114.85 114.54 113.70
C114.54 112.55 114.63 111.78 114.80 111.38
C114.98 110.98 115.19 110.78 115.45 110.78
Z
M110.88 110.18
L110.42 113.84
L110.96 113.95
C111.05 113.73 111.17 113.56 111.32 113.44
C111.48 113.32 111.64 113.26 111.81 113.26
C112.10 113.26 112.34 113.40 112.53 113.68
C112.72 113.96 112.81 114.35 112.81 114.86
C112.81 115.40 112.72 115.83 112.52 116.14
C112.32 116.45 112.09 116.61 111.82 116.61
C111.60 116.61 111.41 116.50 111.24 116.28
C111.08 116.06 110.97 115.72 110.93 115.26
L110.32 115.34
C110.36 115.96 110.52 116.45 110.80 116.80
C111.08 117.15 111.42 117.33 111.82 117.33
C112.31 117.33 112.70 117.08 112.99 116.58
C113.28 116.09 113.42 115.49 113.42 114.79
C113.42 114.09 113.28 113.53 112.99 113.11
C112.70 112.69 112.36 112.49 111.97 112.49
C111.66 112.49 111.36 112.63 111.08 112.93
L111.34 111.02
L113.20 111.02
L113.20 110.18
Z
M115.48 110.06
C114.98 110.06 114.60 110.36 114.34 110.98
C114.08 111.59 113.95 112.50 113.95 113.70
C113.95 115.03 114.09 115.97 114.38 116.51
C114.66 117.06 115.03 117.33 115.47 117.33
C115.98 117.33 116.36 117.02 116.62 116.40
C116.87 115.79 117.00 114.88 117.00 113.70
C117.00 112.37 116.84 111.41 116.53 110.80
C116.28 110.31 115.93 110.06 115.48 110.06
Z
" fill="black" fill-rule="nonzero" />
</g>
<g  transform="translate(1.19,228.58)" >
<path d="
M109.47 2.72
C109.30 2.72 109.16 2.78 109.05 2.89
C108.93 3.01 108.88 3.15 108.88 3.31
C108.88 3.47 108.93 3.61 109.05 3.73
C109.17 3.84 109.31 3.90 109.47 3.90
C109.63 3.90 109.77 3.84 109.88 3.73
C110.00 3.61 110.06 3.47 110.06 3.31
C110.06 3.15 110.00 3.01 109.88 2.89
C109.77 2.78 109.63 2.72 109.47 2.72
Z
M114.44 7.81
L114.44 9.84
C113.96 10.23 113.57 10.42 113.28 10.42
C113.06 10.42 112.87 10.33 112.70 10.15
C112.53 9.96 112.45 9.73 112.45 9.45
C112.45 9.23 112.52 9.03 112.65 8.84
C112.78 8.66 113.00 8.48 113.31 8.31
C113.48 8.21 113.85 8.05 114.44 7.81
Z
M102.79 3.55
C103.72 3.55 104.48 3.86 105.07 4.49
C105.67 5.12 105.96 5.98 105.96 7.06
C105.96 8.15 105.67 9.00 105.07 9.63
C104.48 10.27 103.74 10.58 102.84 10.58
C102.50 10.58 102.09 10.53 101.60 10.42
L101.60 3.72
C102.04 3.60 102.44 3.55 102.79 3.55
Z
M99.35 3.11
L99.35 3.32
L99.64 3.32
C99.94 3.32 100.17 3.41 100.32 3.58
C100.43 3.70 100.48 4.01 100.48 4.50
L100.48 9.59
C100.48 10.04 100.44 10.33 100.35 10.45
C100.21 10.67 99.98 10.77 99.64 10.77
L99.35 10.77
L99.35 10.99
L102.87 10.99
C104.40 10.99 105.54 10.58 106.29 9.76
C106.96 9.02 107.29 8.10 107.29 7.01
C107.29 6.19 107.10 5.47 106.73 4.84
C106.35 4.22 105.86 3.77 105.25 3.51
C104.63 3.24 103.74 3.11 102.56 3.11
Z
M109.70 5.51
L108.09 6.16
L108.17 6.37
C108.33 6.31 108.46 6.28 108.57 6.28
C108.67 6.28 108.75 6.30 108.81 6.35
C108.86 6.40 108.91 6.49 108.93 6.61
C108.97 6.78 108.99 7.16 108.99 7.73
L108.99 9.79
C108.99 10.11 108.96 10.34 108.91 10.45
C108.86 10.57 108.79 10.65 108.70 10.70
C108.61 10.75 108.43 10.78 108.17 10.78
L108.17 10.99
L110.76 10.99
L110.76 10.78
C110.51 10.78 110.33 10.75 110.24 10.70
C110.14 10.64 110.07 10.56 110.02 10.45
C109.98 10.34 109.95 10.12 109.95 9.79
L109.95 5.51
Z
M125.60 2.94
L123.68 3.88
L123.77 4.06
C124.03 3.94 124.23 3.88 124.37 3.88
C124.47 3.88 124.56 3.91 124.63 3.97
C124.70 4.02 124.75 4.12 124.78 4.24
C124.81 4.40 124.83 4.77 124.83 5.34
L124.83 9.60
C124.83 10.07 124.81 10.36 124.77 10.45
C124.73 10.55 124.65 10.62 124.54 10.68
C124.43 10.73 124.19 10.77 123.82 10.77
L123.82 10.99
L126.79 10.99
L126.79 10.77
C126.43 10.77 126.19 10.73 126.08 10.67
C125.96 10.62 125.88 10.53 125.85 10.42
C125.81 10.32 125.79 10.04 125.79 9.60
L125.79 2.94
Z
M113.63 5.51
C113.01 5.51 112.53 5.65 112.19 5.93
C111.85 6.20 111.68 6.51 111.68 6.84
C111.68 7.02 111.72 7.16 111.81 7.26
C111.91 7.36 112.02 7.41 112.17 7.41
C112.31 7.41 112.43 7.36 112.52 7.26
C112.62 7.17 112.66 7.03 112.66 6.85
L112.65 6.51
C112.65 6.34 112.72 6.19 112.87 6.06
C113.01 5.93 113.21 5.86 113.45 5.86
C113.77 5.86 114.02 5.96 114.19 6.16
C114.36 6.36 114.44 6.72 114.44 7.25
L114.44 7.46
C113.53 7.79 112.87 8.08 112.48 8.31
C112.08 8.54 111.81 8.79 111.65 9.05
C111.53 9.24 111.47 9.47 111.47 9.73
C111.47 10.14 111.59 10.47 111.83 10.72
C112.07 10.97 112.37 11.10 112.74 11.10
C112.98 11.10 113.20 11.05 113.41 10.95
C113.55 10.89 113.89 10.64 114.44 10.22
C114.44 10.54 114.50 10.76 114.61 10.90
C114.73 11.03 114.88 11.09 115.07 11.09
C115.46 11.09 115.88 10.80 116.31 10.22
L116.31 9.90
C116.08 10.13 115.92 10.27 115.84 10.32
C115.79 10.35 115.74 10.36 115.68 10.36
C115.62 10.36 115.57 10.34 115.52 10.30
C115.48 10.26 115.45 10.19 115.43 10.07
C115.41 9.96 115.40 9.65 115.40 9.14
L115.40 7.33
C115.40 6.82 115.36 6.48 115.29 6.31
C115.19 6.05 115.02 5.87 114.79 5.75
C114.49 5.59 114.10 5.51 113.63 5.51
Z
M117.82 9.86
C117.64 9.86 117.49 9.92 117.37 10.05
C117.24 10.17 117.18 10.32 117.18 10.51
C117.18 10.68 117.24 10.84 117.37 10.96
C117.49 11.09 117.64 11.15 117.82 11.15
C118.00 11.15 118.15 11.09 118.28 10.96
C118.41 10.84 118.47 10.68 118.47 10.51
C118.47 10.33 118.41 10.18 118.28 10.05
C118.16 9.92 118.01 9.86 117.82 9.86
Z
" fill="black" fill-rule="nonzero" />
</g>
</g>
</svg>
