<?xml version="1.0" encoding="utf-8" standalone="no"?>
<!DOCTYPE svg PUBLIC "-//W3C//DTD SVG 1.0//EN" "http://www.w3.org/TR/SVG/DTD/svg11.dtd" >
<svg version="1.1" baseProfile="full"  width="319.13385" height="338.51422" viewBox="0 0 229.77638 243.73024" preserveAspectRatio="xMidYMid" xmlns="http://www.w3.org/2000/svg" >

<g lengthAdjust="spacingAndGlyphs" xml:space='preserve' >
<g  transform="translate(1.19,1.19)" >
<path d="
M0.0 0.0
L0.0 227.39
L227.39 227.39
L227.39 0.0
Z
" fill="none" fill-rule="nonzero" />
<line x1="6.54" y1="6.54" x2="6.54" y2="220.84" fill="none" stroke="black" stroke-width="0.87px" stroke-linecap="square" />
<line x1="18.45" y1="6.54" x2="18.45" y2="220.84" fill="none" stroke="black" stroke-width="0.25px" stroke-linecap="butt" />
<line x1="30.35" y1="6.54" x2="30.35" y2="83.93" fill="none" stroke="black" stroke-width="0.25px" stroke-linecap="butt" />
<line x1="30.35" y1="95.83" x2="30.35" y2="220.84" fill="none" stroke="black" stroke-width="0.25px" stroke-linecap="butt" />
<line x1="42.26" y1="6.54" x2="42.26" y2="220.84" fill="none" stroke="black" stroke-width="0.25px" stroke-linecap="butt" />
<line x1="54.17" y1="6.54" x2="54.17" y2="220.84" fill="none" stroke="black" stroke-width="0.25px" stroke-linecap="butt" />
<line x1="66.07" y1="6.54" x2="66.07" y2="220.84" fill="none" stroke="black" stroke-width="0.25px" stroke-linecap="butt" />
<line x1="77.98" y1="6.54" x2="77.98" y2="220.84" fill="none" stroke="black" stroke-width="0.25px" stroke-linecap="butt" />
<line x1="89.88" y1="6.54" x2="89.88" y2="220.84" fill="none" stroke="black" stroke-width="0.25px" stroke-linecap="butt" />
<line x1="101.79" y1="6.54" x2="101.79" y2="220.84" fill="none" stroke="black" stroke-width="0.25px" stroke-linecap="butt" />
<line x1="113.69" y1="6.54" x2="113.69" y2="220.84" fill="none" stroke="black" stroke-width="0.25px" stroke-linecap="butt" />
<line x1="125.60" y1="6.54" x2="125.60" y2="220.84" fill="none" stroke="black" stroke-width="0.25px" stroke-linecap="butt" />
<line x1="137.50" y1="6.54" x2="137.50" y2="220.84" fill="none" stroke="black" stroke-width="0.25px" stroke-linecap="butt" />
<line x1="149.41" y1="6.54" x2="149.41" y2="220.84" fill="none" stroke="black" stroke-width="0.25px" stroke-linecap="butt" />
<line x1="161.31" y1="6.54" x2="161.31" y2="220.84" fill="none" stroke="black" stroke-width="0.25px" stroke-linecap="butt" />
<line x1="173.22" y1="6.54" x2="173.22" y2="220.84" fill="none" stroke="black" stroke-width="0.25px" stroke-linecap="butt" />
<line x1="185.13" y1="6.54" x2="185.13" y2="220.84" fill="none" stroke="black" stroke-width="0.25px" stroke-linecap="butt" />
<line x1="197.03" y1="6.54" x2="197.03" y2="220.84" fill="none" stroke="black" stroke-width="0.25px" stroke-linecap="butt" />
<line x1="208.94" y1="6.54" x2="208.94" y2="220.84" fill="none" stroke="black" stroke-width="0.25px" stroke-linecap="butt" />
<line x1="220.84" y1="6.54" x2="220.84" y2="220.84" fill="none" stroke="black" stroke-width="0.87px" stroke-linecap="square" />
<line x1="6.54" y1="6.54" x2="220.84" y2="6.54" fill="none" stroke="black" stroke-width="0.87px" stroke-linecap="square" />
<line x1="6.54" y1="18.45" x2="220.84" y2="18.45" fill="none" stroke="black" stroke-width="0.25px" stroke-linecap="butt" />
<line x1="6.54" y1="30.35" x2="220.84" y2="30.35" fill="none" stroke="black" stroke-width="0.25px" stroke-linecap="butt" />
<line x1="6.54" y1="42.26" x2="220.84" y2="42.26" fill="none" stroke="black" stroke-width="0.25px" stroke-linecap="butt" />
<line x1="6.54" y1="54.17" x2="220.84" y2="54.17" fill="none" stroke="black" stroke-width="0.25px" stroke-linecap="butt" />
<line x1="6.54" y1="66.07" x2="220.84" y2="66.07" fill="none" stroke="black" stroke-width="0.25px" stroke-linecap="butt" />
<line x1="6.54" y1="77.98" x2="220.84" y2="77.98" fill="none" stroke="black" stroke-width="0.25px" stroke-linecap="butt" />
<line x1="6.54" y1="89.88" x2="24.40" y2="89.88" fill="none" stroke="black" stroke-width="0.25px" stroke-linecap="butt" />
<line x1="36.31" y1="89.88" x2="220.84" y2="89.88" fill="none" stroke="black" stroke-width="0.25px" stroke-linecap="butt" />
<line x1="6.54" y1="101.79" x2="220.84" y2="101.79" fill="none" stroke="black" stroke-width="0.25px" stroke-linecap="butt" />
<line x1="6.54" y1="113.69" x2="220.84" y2="113.69" fill="none" stroke="black" stroke-width="0.25px" stroke-linecap="butt" />
<line x1="6.54" y1="125.60" x2="220.84" y2="125.60" fill="none" stroke="black" stroke-width="0.25px" stroke-linecap="butt" />
<line x1="6.54" y1="137.50" x2="220.84" y2="137.50" fill="none" stroke="black" stroke-width="0.25px" stroke-linecap="butt" />
<line x1="6.54" y1="149.41" x2="220.84" y2="149.41" fill="none" stroke="black" stroke-width="0.25px" stroke-linecap="butt" />
<line x1="6.54" y1="161.31" x2="220.84" y2="161.31" fill="none" stroke="black" stroke-width="0.25px" stroke-linecap="butt" />
<line x1="6.54" y1="173.22" x2="220.84" y2="173.22" fill="none" stroke="black" stroke-width="0.25px" stroke-linecap="butt" />
<line x1="6.54" y1="185.13" x2="220.84" y2="185.13" fill="none" stroke="black" stroke-width="0.25px" stroke-linecap="butt" />
<line x1="6.54" y1="197.03" x2="220.84" y2="197.03" fill="none" stroke="black" stroke-width="0.25px" stroke-linecap="butt" />
<line x1="6.54" y1="208.94" x2="220.84" y2="208.94" fill="none" stroke="black" stroke-width="0.25px" stroke-linecap="butt" />
<line x1="6.54" y1="220.84" x2="220.84" y2="220.84" fill="none" stroke="black" stroke-width="0.87px" stroke-linecap="square" />
<circle cx="18.45" cy="137.50" r="6.01" fill="black"/>
<circle cx="18.45" cy="149.41" r="6.01" fill="black"/>
<circle cx="18.45" cy="161.31" r="5.89" fill="white"/>
<circle cx="18.45" cy="161.31" r="5.89" fill="none" stroke="black" stroke-width="0.25px"/>
<circle cx="18.45" cy="185.13" r="5.89" fill="white"/>
<circle cx="18.45" cy="185.13" r="5.89" fill="none" stroke="black" stroke-width="0.25px"/>
<circle cx="18.45" cy="197.03" r="6.01" fill="black"/>
<circle cx="18.45" cy="208.94" r="6.01" fill="black"/>
<circle cx="30.35" cy="66.07" r="6.01" fill="black"/>
<circle cx="30.35" cy="101.79" r="6.01" fill="black"/>
<circle cx="30.35" cy="125.60" r="6.01" fill="black"/>
<circle cx="30.35" cy="149.41" r="6.01" fill="black"/>
<circle cx="30.35" cy="161.31" r="5.89" fill="white"/>
<circle cx="30.35" cy="161.31" r="5.89" fill="none" stroke="black" stroke-width="0.25px"/>
<circle cx="30.35" cy="173.22" r="5.89" fill="white"/>
<circle cx="30.35" cy="173.22" r="5.89" fill="none" stroke="black" stroke-width="0.25px"/>
<circle cx="30.35" cy="185.13" r="5.89" fill="white"/>
<circle cx="30.35" cy="185.13" r="5.89" fill="none" stroke="black" stroke-width="0.25px"/>
<circle cx="30.35" cy="197.03" r="6.01" fill="black"/>
<circle cx="30.35" cy="208.94" r="5.89" fill="white"/>
<circle cx="30.35" cy="208.94" r="5.89" fill="none" stroke="black" stroke-width="0.25px"/>
<circle cx="42.26" cy="42.26" r="5.89" fill="white"/>
<circle cx="42.26" cy="42.26" r="5.89" fill="none" stroke="black" stroke-width="0.25px"/>
<circle cx="42.26" cy="89.88" r="6.01" fill="black"/>
<circle cx="42.26" cy="101.79" r="5.89" fill="white"/>
<circle cx="42.26" cy="101.79" r="5.89" fill="none" stroke="black" stroke-width="0.25px"/>
<circle cx="42.26" cy="113.69" r="1.27" fill="black"/>
<circle cx="42.26" cy="125.60" r="5.89" fill="white"/>
<circle cx="42.26" cy="125.60" r="5.89" fill="none" stroke="black" stroke-width="0.25px"/>
<circle cx="42.26" cy="137.50" r="6.01" fill="black"/>
<circle cx="42.26" cy="149.41" r="5.89" fill="white"/>
<circle cx="42.26" cy="149.41" r="5.89" fill="none" stroke="black" stroke-width="0.25px"/>
<circle cx="42.26" cy="161.31" r="6.01" fill="black"/>
<circle cx="42.26" cy="173.22" r="6.01" fill="black"/>
<circle cx="42.26" cy="185.13" r="6.01" fill="black"/>
<circle cx="42.26" cy="197.03" r="5.89" fill="white"/>
<circle cx="42.26" cy="197.03" r="5.89" fill="none" stroke="black" stroke-width="0.25px"/>
<circle cx="42.26" cy="208.94" r="5.89" fill="white"/>
<circle cx="42.26" cy="208.94" r="5.89" fill="none" stroke="black" stroke-width="0.25px"/>
<circle cx="54.17" cy="54.17" r="6.01" fill="black"/>
<circle cx="54.17" cy="66.07" r="6.01" fill="black"/>
<circle cx="54.17" cy="89.88" r="6.01" fill="black"/>
<circle cx="54.17" cy="101.79" r="6.01" fill="black"/>
<circle cx="54.17" cy="113.69" r="5.89" fill="white"/>
<circle cx="54.17" cy="113.69" r="5.89" fill="none" stroke="black" stroke-width="0.25px"/>
<circle cx="54.17" cy="125.60" r="5.89" fill="white"/>
<circle cx="54.17" cy="125.60" r="5.89" fill="none" stroke="black" stroke-width="0.25px"/>
<circle cx="54.17" cy="137.50" r="5.89" fill="white"/>
<circle cx="54.17" cy="137.50" r="5.89" fill="none" stroke="black" stroke-width="0.25px"/>
<circle cx="54.17" cy="149.41" r="5.89" fill="white"/>
<circle cx="54.17" cy="149.41" r="5.89" fill="none" stroke="black" stroke-width="0.25px"/>
<circle cx="54.17" cy="197.03" r="6.01" fill="black"/>
<circle cx="54.17" cy="208.94" r="5.89" fill="white"/>
<circle cx="54.17" cy="208.94" r="5.89" fill="none" stroke="black" stroke-width="0.25px"/>
<circle cx="66.07" cy="30.35" r="5.89" fill="white"/>
<circle cx="66.07" cy="30.35" r="5.89" fill="none" stroke="black" stroke-width="0.25px"/>
<circle cx="66.07" cy="66.07" r="5.89" fill="white"/>
<circle cx="66.07" cy="66.07" r="5.89" fill="none" stroke="black" stroke-width="0.25px"/>
<circle cx="66.07" cy="77.98" r="5.89" fill="white"/>
<circle cx="66.07" cy="77.98" r="5.89" fill="none" stroke="black" stroke-width="0.25px"/>
<circle cx="66.07" cy="89.88" r="5.89" fill="white"/>
<circle cx="66.07" cy="89.88" r="5.89" fill="none" stroke="black" stroke-width="0.25px"/>
<circle cx="66.07" cy="101.79" r="5.89" fill="white"/>
<circle cx="66.07" cy="101.79" r="5.89" fill="none" stroke="black" stroke-width="0.25px"/>
<circle cx="66.07" cy="137.50" r="6.01" fill="black"/>
<circle cx="66.07" cy="161.31" r="6.01" fill="black"/>
<circle cx="66.07" cy="173.22" r="6.01" fill="black"/>
<circle cx="66.07" cy="197.03" r="5.89" fill="white"/>
<circle cx="66.07" cy="197.03" r="5.89" fill="none" stroke="black" stroke-width="0.25px"/>
<circle cx="77.98" cy="42.26" r="5.89" fill="white"/>
<circle cx="77.98" cy="42.26" r="5.89" fill="none" stroke="black" stroke-width="0.25px"/>
<circle cx="77.98" cy="113.69" r="5.89" fill="white"/>
<circle cx="77.98" cy="113.69" r="5.89" fill="none" stroke="black" stroke-width="0.25px"/>
<circle cx="77.98" cy="125.60" r="5.89" fill="white"/>
<circle cx="77.98" cy="125.60" r="5.89" fill="none" stroke="black" stroke-width="0.25px"/>
<circle cx="77.98" cy="137.50" r="6.01" fill="black"/>
<circle cx="77.98" cy="185.13" r="6.01" fill="black"/>
<circle cx="77.98" cy="197.03" r="5.89" fill="white"/>
<circle cx="77.98" cy="197.03" r="5.89" fill="none" stroke="black" stroke-width="0.25px"/>
<circle cx="77.98" cy="208.94" r="6.01" fill="black"/>
<circle cx="89.88" cy="125.60" r="6.01" fill="black"/>
<circle cx="89.88" cy="137.50" r="5.89" fill="white"/>
<circle cx="89.88" cy="137.50" r="5.89" fill="none" stroke="black" stroke-width="0.25px"/>
<circle cx="89.88" cy="161.31" r="6.01" fill="black"/>
<circle cx="89.88" cy="185.13" r="5.89" fill="white"/>
<circle cx="89.88" cy="185.13" r="5.89" fill="none" stroke="black" stroke-width="0.25px"/>
<circle cx="89.88" cy="197.03" r="6.01" fill="black"/>
<circle cx="89.88" cy="208.94" r="5.89" fill="white"/>
<circle cx="89.88" cy="208.94" r="5.89" fill="none" stroke="black" stroke-width="0.25px"/>
<circle cx="101.79" cy="113.69" r="6.01" fill="black"/>
<circle cx="101.79" cy="125.60" r="6.01" fill="black"/>
<circle cx="101.79" cy="137.50" r="5.89" fill="white"/>
<circle cx="101.79" cy="137.50" r="5.89" fill="none" stroke="black" stroke-width="0.25px"/>
<circle cx="101.79" cy="185.13" r="6.01" fill="black"/>
<circle cx="101.79" cy="197.03" r="6.01" fill="black"/>
<circle cx="101.79" cy="208.94" r="5.89" fill="white"/>
<circle cx="101.79" cy="208.94" r="5.89" fill="none" stroke="black" stroke-width="0.25px"/>
<circle cx="113.69" cy="42.26" r="1.27" fill="black"/>
<circle cx="113.69" cy="113.69" r="6.01" fill="black"/>
<circle cx="113.69" cy="125.60" r="5.89" fill="white"/>
<circle cx="113.69" cy="125.60" r="5.89" fill="none" stroke="black" stroke-width="0.25px"/>
<circle cx="113.69" cy="137.50" r="6.01" fill="black"/>
<circle cx="113.69" cy="185.13" r="6.01" fill="black"/>
<circle cx="113.69" cy="197.03" r="5.89" fill="white"/>
<circle cx="113.69" cy="197.03" r="5.89" fill="none" stroke="black" stroke-width="0.25px"/>
<circle cx="125.60" cy="125.60" r="6.01" fill="black"/>
<circle cx="125.60" cy="185.13" r="5.89" fill="white"/>
<circle cx="125.60" cy="185.13" r="5.89" fill="none" stroke="black" stroke-width="0.25px"/>
<circle cx="125.60" cy="197.03" r="5.89" fill="white"/>
<circle cx="125.60" cy="197.03" r="5.89" fill="none" stroke="black" stroke-width="0.25px"/>
<circle cx="161.31" cy="30.35" r="5.89" fill="white"/>
<circle cx="161.31" cy="30.35" r="5.89" fill="none" stroke="black" stroke-width="0.25px"/>
<circle cx="161.31" cy="197.03" r="6.01" fill="black"/>
<circle cx="185.13" cy="42.26" r="6.01" fill="black"/>
<circle cx="185.13" cy="113.69" r="1.27" fill="black"/>
<circle cx="185.13" cy="185.13" r="1.27" fill="black"/>
<circle cx="197.03" cy="113.69" r="5.89" fill="white"/>
<circle cx="197.03" cy="113.69" r="5.89" fill="none" stroke="black" stroke-width="0.25px"/>
<circle cx="197.03" cy="185.13" r="6.01" fill="black"/>
<path d="
M30.27 87.84
L31.33 90.68
L29.24 90.68
L30.27 87.84
Z
M29.47 86.05
L26.49 93.72
L28.13 93.72
L28.76 91.97
L31.83 91.97
L32.50 93.72
L34.18 93.72
L31.11 86.05
Z
" fill="black" fill-rule="nonzero" />
<path d="
M50.69 50.51
L50.69 50.65
L50.69 51.49
L50.69 51.63
L52.88 51.63
C52.63 52.10 52.39 52.65 52.17 53.28
C51.92 54.00 51.72 54.77 51.58 55.57
C51.43 56.37 51.35 57.07 51.35 57.68
L51.34 57.82
L52.08 57.82
L52.21 57.82
L52.22 57.68
C52.27 56.54 52.47 55.39 52.80 54.23
C53.14 53.06 53.53 52.12 53.98 51.40
L54.00 51.37
L54.00 51.33
L54.00 50.65
L54.00 50.51
Z
M55.90 50.38
C55.49 50.39 55.15 50.56 54.87 50.90
C54.60 51.24 54.42 51.72 54.35 52.36
L54.33 52.48
L54.45 52.51
L55.02 52.66
L55.18 52.71
L55.20 52.54
C55.24 52.14 55.33 51.84 55.46 51.65
C55.59 51.47 55.73 51.39 55.90 51.39
C55.90 51.39 55.91 51.39 55.91 51.39
C55.91 51.39 55.91 51.39 55.91 51.39
C56.07 51.39 56.21 51.47 56.33 51.63
C56.46 51.81 56.53 52.05 56.53 52.35
C56.53 52.68 56.45 52.94 56.29 53.13
C56.15 53.31 55.96 53.41 55.72 53.41
L55.72 53.41
L55.64 53.40
L55.50 53.38
L55.49 53.53
L55.42 54.29
L55.40 54.52
L55.61 54.44
C55.76 54.38 55.87 54.35 55.96 54.35
C55.96 54.35 55.96 54.35 55.96 54.35
C55.97 54.35 55.97 54.35 55.97 54.35
C56.17 54.35 56.35 54.46 56.50 54.67
C56.66 54.90 56.74 55.20 56.74 55.59
C56.74 56.00 56.65 56.33 56.47 56.58
C56.31 56.82 56.12 56.94 55.91 56.94
C55.91 56.94 55.91 56.94 55.91 56.94
C55.91 56.94 55.91 56.94 55.91 56.94
C55.72 56.94 55.56 56.84 55.44 56.65
C55.30 56.44 55.20 56.11 55.15 55.66
L55.13 55.51
L54.98 55.54
L54.40 55.66
L54.28 55.68
L54.29 55.81
C54.33 56.45 54.50 56.96 54.79 57.35
C55.10 57.74 55.47 57.94 55.92 57.95
C56.40 57.94 56.80 57.72 57.14 57.26
C57.47 56.82 57.63 56.26 57.63 55.57
C57.63 55.25 57.59 54.96 57.51 54.70
C57.43 54.43 57.32 54.21 57.19 54.05
C57.10 53.94 57.00 53.85 56.88 53.79
L56.88 53.79
C57.02 53.65 57.13 53.48 57.22 53.29
C57.34 53.02 57.40 52.72 57.40 52.37
C57.40 51.81 57.26 51.34 56.98 50.97
C56.68 50.58 56.32 50.39 55.90 50.38
Z
" fill="white" fill-rule="nonzero" />
<path d="
M56.11 62.35
L56.08 62.45
C55.98 62.75 55.82 63.05 55.59 63.37
C55.35 63.68 55.09 63.95 54.78 64.17
L54.72 64.21
L54.72 64.28
L54.72 65.13
L54.72 65.37
L54.93 65.25
C55.13 65.14 55.34 64.98 55.57 64.77
C55.68 64.68 55.78 64.58 55.87 64.48
L55.87 64.48
L55.87 69.65
L55.87 69.79
L56.73 69.79
L56.73 69.65
L56.73 62.49
L56.73 62.35
Z
M50.69 62.47
L50.69 62.62
L50.69 63.46
L50.69 63.60
L52.88 63.60
C52.63 64.07 52.39 64.62 52.17 65.25
C51.92 65.97 51.72 66.74 51.58 67.54
C51.43 68.34 51.35 69.04 51.35 69.64
L51.34 69.79
L52.08 69.79
L52.21 69.79
L52.22 69.65
C52.27 68.51 52.47 67.36 52.80 66.20
C53.14 65.03 53.53 64.09 53.98 63.37
L54.00 63.34
L54.00 63.30
L54.00 62.62
L54.00 62.47
Z
" fill="white" fill-rule="nonzero" />
<path d="
M62.74 62.62
L62.74 63.46
L65.03 63.46
C64.73 63.96 64.46 64.57 64.21 65.29
C63.96 66.01 63.76 66.77 63.62 67.56
C63.48 68.36 63.40 69.05 63.39 69.65
L63.98 69.65
C64.04 68.49 64.23 67.33 64.57 66.16
C64.92 64.98 65.31 64.03 65.76 63.30
L65.76 62.62
Z
M67.90 62.49
C67.46 62.49 67.11 62.67 66.84 63.01
C66.57 63.36 66.42 63.87 66.37 64.55
L66.96 64.65
C66.96 64.19 67.05 63.83 67.22 63.59
C67.39 63.34 67.61 63.22 67.88 63.22
C68.13 63.22 68.34 63.33 68.51 63.56
C68.68 63.79 68.76 64.09 68.76 64.45
C68.76 64.76 68.68 65.10 68.51 65.47
C68.35 65.83 67.99 66.35 67.46 67.01
C67.00 67.59 66.68 68.08 66.51 68.50
C66.34 68.93 66.26 69.31 66.26 69.65
L69.35 69.65
L69.35 68.81
L67.06 68.81
C67.12 68.65 67.20 68.49 67.30 68.33
C67.40 68.17 67.63 67.87 67.97 67.44
C68.50 66.74 68.87 66.19 69.06 65.77
C69.25 65.36 69.35 64.92 69.35 64.47
C69.35 63.96 69.22 63.50 68.98 63.10
C68.73 62.70 68.37 62.49 67.90 62.49
Z
" fill="black" fill-rule="nonzero" />
<path d="
M67.83 75.06
C68.11 75.06 68.34 75.26 68.52 75.65
C68.70 76.04 68.79 76.82 68.79 77.98
C68.79 79.13 68.70 79.90 68.52 80.30
C68.35 80.69 68.13 80.89 67.87 80.89
C67.59 80.89 67.36 80.70 67.18 80.30
C67.01 79.91 66.92 79.13 66.92 77.98
C66.92 76.83 67.01 76.06 67.18 75.66
C67.36 75.26 67.57 75.06 67.83 75.06
Z
M62.74 74.46
L62.74 75.30
L65.03 75.30
C64.73 75.81 64.46 76.42 64.21 77.14
C63.96 77.86 63.76 78.61 63.62 79.41
C63.48 80.20 63.40 80.90 63.39 81.49
L63.98 81.49
C64.04 80.34 64.23 79.17 64.57 78.00
C64.92 76.83 65.31 75.87 65.76 75.14
L65.76 74.46
Z
M67.86 74.34
C67.36 74.34 66.98 74.65 66.72 75.26
C66.46 75.88 66.33 76.78 66.33 77.98
C66.33 79.31 66.47 80.25 66.76 80.80
C67.04 81.34 67.41 81.61 67.85 81.61
C68.36 81.61 68.74 81.30 68.99 80.69
C69.25 80.07 69.38 79.17 69.38 77.98
C69.38 76.65 69.22 75.69 68.91 75.09
C68.66 74.59 68.30 74.34 67.86 74.34
Z
" fill="black" fill-rule="nonzero" />
<path d="
M80.07 40.10
L80.07 43.31
L78.61 43.31
L80.07 40.10
Z
M74.65 38.79
L74.65 39.63
L76.93 39.63
C76.64 40.14 76.37 40.75 76.12 41.47
C75.87 42.19 75.67 42.94 75.53 43.74
C75.38 44.53 75.31 45.22 75.30 45.82
L75.89 45.82
C75.94 44.67 76.14 43.50 76.48 42.33
C76.82 41.16 77.22 40.20 77.67 39.47
L77.67 38.79
Z
M80.18 38.70
L78.05 43.31
L78.05 44.12
L80.07 44.12
L80.07 45.82
L80.65 45.82
L80.65 44.12
L81.28 44.12
L81.28 43.31
L80.65 43.31
L80.65 38.70
Z
" fill="black" fill-rule="nonzero" />
<path d="
M115.49 110.92
C115.49 110.92 115.49 110.92 115.49 110.92
C115.49 110.92 115.49 110.92 115.50 110.92
C115.68 110.92 115.85 111.05 116.00 111.29
C116.16 111.56 116.25 111.94 116.25 112.42
C116.25 112.90 116.17 113.27 116.01 113.53
C115.86 113.76 115.69 113.88 115.48 113.88
C115.48 113.88 115.48 113.88 115.48 113.88
C115.48 113.88 115.48 113.88 115.48 113.88
C115.27 113.88 115.09 113.76 114.94 113.53
C114.77 113.27 114.69 112.93 114.69 112.49
C114.69 112.00 114.77 111.61 114.95 111.32
C115.12 111.05 115.30 110.92 115.49 110.92
Z
M111.89 113.50
C112.09 113.50 112.26 113.62 112.41 113.85
C112.57 114.11 112.65 114.48 112.65 114.95
C112.65 115.44 112.57 115.82 112.41 116.09
C112.26 116.34 112.10 116.47 111.93 116.47
C111.93 116.47 111.93 116.47 111.92 116.47
C111.92 116.47 111.92 116.47 111.92 116.47
C111.72 116.47 111.53 116.33 111.37 116.07
C111.19 115.78 111.10 115.39 111.10 114.90
C111.10 114.46 111.18 114.11 111.35 113.85
C111.51 113.62 111.68 113.50 111.88 113.50
C111.88 113.50 111.88 113.50 111.89 113.50
C111.89 113.50 111.89 113.50 111.89 113.50
Z
M111.97 109.91
C111.70 109.91 111.44 110.00 111.22 110.16
C111.00 110.32 110.81 110.55 110.64 110.87
C110.32 111.47 110.15 112.47 110.15 113.87
C110.15 115.14 110.31 116.05 110.63 116.60
C110.80 116.89 110.98 117.10 111.20 117.25
C111.41 117.40 111.66 117.47 111.92 117.47
C112.22 117.47 112.49 117.37 112.73 117.16
C112.97 116.96 113.16 116.65 113.31 116.24
C113.45 115.84 113.52 115.39 113.52 114.90
C113.52 114.17 113.38 113.58 113.09 113.14
C112.78 112.68 112.42 112.45 112.00 112.45
C111.74 112.45 111.50 112.54 111.28 112.72
C111.19 112.79 111.10 112.88 111.02 112.98
L111.02 112.98
C111.05 112.39 111.13 111.94 111.26 111.60
C111.36 111.36 111.46 111.19 111.58 111.07
C111.69 110.97 111.81 110.92 111.93 110.92
C111.93 110.92 111.94 110.92 111.94 110.92
C111.94 110.92 111.94 110.92 111.94 110.92
C112.10 110.92 112.25 111.01 112.37 111.19
C112.46 111.33 112.54 111.57 112.59 111.92
L112.61 112.05
L112.75 112.04
L113.32 111.97
L113.45 111.95
L113.44 111.82
C113.39 111.21 113.23 110.75 112.97 110.42
C112.71 110.08 112.37 109.92 111.97 109.91
Z
M115.43 109.91
C114.97 109.92 114.58 110.15 114.26 110.62
C113.96 111.07 113.81 111.69 113.81 112.46
C113.81 113.21 113.96 113.81 114.25 114.25
C114.55 114.70 114.92 114.93 115.35 114.93
C115.60 114.93 115.83 114.84 116.06 114.65
C116.15 114.58 116.23 114.49 116.30 114.40
L116.30 114.40
C116.28 114.79 116.23 115.15 116.15 115.46
C116.05 115.85 115.93 116.12 115.79 116.27
C115.66 116.40 115.52 116.47 115.37 116.47
C115.37 116.47 115.37 116.47 115.37 116.47
C115.37 116.47 115.37 116.47 115.36 116.47
C115.20 116.47 115.07 116.39 114.97 116.25
C114.85 116.08 114.77 115.82 114.73 115.47
L114.71 115.32
L114.57 115.34
L114.02 115.42
L113.89 115.44
L113.90 115.57
C113.95 116.17 114.10 116.64 114.35 116.96
C114.62 117.30 114.96 117.47 115.36 117.47
C115.71 117.47 116.02 117.33 116.30 117.06
C116.58 116.79 116.79 116.37 116.94 115.81
C117.09 115.25 117.17 114.48 117.17 113.49
C117.17 112.60 117.10 111.91 116.96 111.43
C116.81 110.94 116.61 110.57 116.34 110.31
C116.06 110.05 115.75 109.91 115.43 109.91
Z
" fill="white" fill-rule="nonzero" />
<path d="
M110.22 133.85
L110.22 133.99
L110.22 134.83
L110.22 134.97
L112.41 134.97
C112.16 135.44 111.92 135.99 111.70 136.62
C111.45 137.34 111.25 138.11 111.10 138.91
C110.96 139.71 110.88 140.41 110.87 141.02
L110.87 141.16
L111.61 141.16
L111.74 141.16
L111.75 141.02
C111.80 139.88 111.99 138.73 112.33 137.57
C112.67 136.41 113.06 135.46 113.51 134.74
L113.53 134.71
L113.53 134.67
L113.53 133.99
L113.53 133.85
Z
M113.85 133.85
L113.85 133.99
L113.85 134.83
L113.85 134.97
L116.04 134.97
C115.79 135.44 115.55 135.99 115.33 136.62
C115.08 137.34 114.88 138.11 114.73 138.91
C114.59 139.71 114.51 140.41 114.50 141.02
L114.50 141.16
L115.24 141.16
L115.37 141.16
L115.38 141.02
C115.43 139.88 115.62 138.73 115.96 137.57
C116.30 136.41 116.69 135.46 117.14 134.74
L117.16 134.71
L117.16 134.67
L117.16 133.99
L117.16 133.85
Z
" fill="white" fill-rule="nonzero" />
<path d="
M126.81 124.42
L126.81 124.42
L126.81 124.42
C126.81 124.42 126.81 124.42 126.81 124.42
Z
M122.13 121.88
L122.13 122.02
L122.13 122.86
L122.13 123.00
L124.31 123.00
C124.06 123.47 123.83 124.02 123.61 124.65
C123.35 125.38 123.15 126.14 123.01 126.94
C122.86 127.74 122.79 128.45 122.78 129.05
L122.78 129.19
L123.51 129.19
L123.65 129.19
L123.65 129.06
C123.70 127.92 123.90 126.76 124.24 125.60
C124.58 124.44 124.97 123.50 125.41 122.78
L125.43 122.74
L125.43 122.70
L125.43 122.02
L125.43 121.88
Z
M126.29 121.89
L126.27 122.01
L125.82 125.67
L125.80 125.80
L125.93 125.82
L126.47 125.93
L126.59 125.95
L126.63 125.85
C126.71 125.65 126.82 125.50 126.95 125.40
C127.07 125.29 127.21 125.24 127.35 125.24
C127.35 125.24 127.35 125.24 127.35 125.24
C127.35 125.24 127.35 125.24 127.35 125.24
C127.59 125.24 127.79 125.36 127.95 125.60
C128.12 125.86 128.21 126.23 128.21 126.71
C128.21 127.22 128.12 127.62 127.93 127.91
C127.77 128.18 127.57 128.31 127.35 128.31
C127.35 128.31 127.35 128.31 127.35 128.31
C127.35 128.31 127.35 128.31 127.35 128.31
C127.18 128.31 127.03 128.22 126.89 128.04
C126.74 127.84 126.65 127.52 126.60 127.09
L126.59 126.95
L126.44 126.97
L125.84 127.05
L125.71 127.06
L125.72 127.20
C125.76 127.85 125.93 128.36 126.22 128.73
C126.53 129.12 126.91 129.31 127.36 129.32
C127.90 129.31 128.33 129.04 128.65 128.50
C128.95 127.98 129.10 127.36 129.10 126.64
C129.10 125.90 128.94 125.31 128.64 124.87
C128.32 124.42 127.94 124.19 127.50 124.19
C127.26 124.19 127.03 124.27 126.81 124.42
L126.81 124.42
L127.00 123.00
L128.88 123.00
L128.88 122.86
L128.88 122.03
L128.88 121.89
Z
" fill="white" fill-rule="nonzero" />
<path d="
M127.42 184.79
C127.67 184.79 127.89 184.93 128.07 185.21
C128.24 185.49 128.33 185.88 128.33 186.39
C128.33 186.90 128.24 187.31 128.06 187.60
C127.89 187.90 127.69 188.04 127.46 188.04
C127.20 188.04 126.98 187.89 126.78 187.57
C126.59 187.26 126.49 186.85 126.49 186.33
C126.49 185.86 126.58 185.49 126.77 185.21
C126.96 184.93 127.17 184.79 127.42 184.79
Z
M122.27 181.61
L122.27 182.45
L124.55 182.45
C124.26 182.96 123.99 183.57 123.74 184.29
C123.49 185.01 123.29 185.76 123.15 186.56
C123.00 187.35 122.93 188.04 122.92 188.64
L123.51 188.64
C123.56 187.49 123.76 186.32 124.10 185.15
C124.44 183.98 124.84 183.02 125.29 182.29
L125.29 181.61
Z
M127.51 181.49
C127.02 181.49 126.62 181.78 126.30 182.37
C125.99 182.95 125.83 183.93 125.83 185.31
C125.83 186.55 125.98 187.43 126.29 187.97
C126.60 188.50 126.98 188.76 127.46 188.76
C127.72 188.76 127.96 188.67 128.18 188.49
C128.39 188.30 128.57 188.01 128.71 187.63
C128.85 187.24 128.92 186.81 128.92 186.33
C128.92 185.63 128.78 185.07 128.50 184.65
C128.23 184.23 127.90 184.02 127.53 184.02
C127.31 184.02 127.10 184.10 126.90 184.26
C126.70 184.42 126.53 184.66 126.40 184.97
C126.41 184.09 126.49 183.43 126.67 182.99
C126.87 182.47 127.14 182.21 127.47 182.21
C127.69 182.21 127.87 182.32 128.02 182.55
C128.13 182.70 128.21 182.96 128.26 183.33
L128.84 183.26
C128.78 182.69 128.64 182.25 128.40 181.94
C128.16 181.64 127.86 181.49 127.51 181.49
Z
" fill="black" fill-rule="nonzero" />
<path d="
M163.11 27.44
C163.31 27.44 163.49 27.54 163.64 27.75
C163.80 27.97 163.87 28.24 163.87 28.57
C163.87 28.90 163.80 29.16 163.65 29.37
C163.50 29.57 163.32 29.67 163.11 29.67
C162.90 29.67 162.72 29.57 162.57 29.36
C162.42 29.15 162.35 28.87 162.35 28.52
C162.35 28.21 162.42 27.95 162.57 27.75
C162.72 27.54 162.90 27.44 163.11 27.44
Z
M163.10 30.39
C163.36 30.39 163.59 30.52 163.78 30.79
C163.97 31.05 164.06 31.41 164.06 31.84
C164.06 32.28 163.97 32.62 163.79 32.88
C163.60 33.14 163.38 33.27 163.11 33.27
C162.85 33.27 162.63 33.14 162.44 32.87
C162.25 32.60 162.16 32.25 162.16 31.81
C162.16 31.39 162.25 31.05 162.43 30.78
C162.61 30.52 162.84 30.39 163.10 30.39
Z
M157.98 26.84
L157.98 27.68
L160.27 27.68
C159.98 28.18 159.71 28.80 159.46 29.52
C159.21 30.24 159.01 30.99 158.86 31.78
C158.72 32.58 158.64 33.27 158.64 33.87
L159.23 33.87
C159.28 32.72 159.48 31.55 159.82 30.38
C160.16 29.20 160.56 28.25 161.01 27.52
L161.01 26.84
Z
M163.10 26.72
C162.72 26.72 162.40 26.89 162.14 27.23
C161.89 27.57 161.76 28.01 161.76 28.55
C161.76 28.91 161.82 29.21 161.93 29.45
C162.05 29.69 162.23 29.88 162.46 30.01
C162.18 30.12 161.96 30.33 161.81 30.64
C161.65 30.95 161.57 31.34 161.57 31.81
C161.57 32.47 161.72 32.99 162.01 33.39
C162.31 33.79 162.67 33.99 163.11 33.99
C163.55 33.99 163.91 33.79 164.21 33.39
C164.50 32.99 164.65 32.47 164.65 31.84
C164.65 31.38 164.57 30.99 164.42 30.68
C164.27 30.37 164.05 30.15 163.77 30.01
C164.00 29.87 164.17 29.69 164.29 29.45
C164.40 29.21 164.46 28.92 164.46 28.58
C164.46 28.03 164.33 27.58 164.07 27.24
C163.81 26.89 163.49 26.72 163.10 26.72
Z
" fill="black" fill-rule="nonzero" />
</g>
<g  transform="translate(1.19,228.58)" >
<path d="
M109.47 2.72
C109.30 2.72 109.16 2.78 109.05 2.89
C108.93 3.01 108.88 3.15 108.88 3.31
C108.88 3.47 108.93 3.61 109.05 3.73
C109.17 3.84 109.31 3.90 109.47 3.90
C109.63 3.90 109.77 3.84 109.88 3.73
C110.00 3.61 110.06 3.47 110.06 3.31
C110.06 3.15 110.00 3.01 109.88 2.89
C109.77 2.78 109.63 2.72 109.47 2.72
Z
M114.44 7.81
L114.44 9.84
C113.96 10.23 113.57 10.42 113.28 10.42
C113.06 10.42 112.87 10.33 112.70 10.15
C112.53 9.96 112.45 9.73 112.45 9.45
C112.45 9.23 112.52 9.03 112.65 8.84
C112.78 8.66 113.00 8.48 113.31 8.31
C113.48 8.21 113.85 8.05 114.44 7.81
Z
M102.79 3.55
C103.72 3.55 104.48 3.86 105.07 4.49
C105.67 5.12 105.96 5.98 105.96 7.06
C105.96 8.15 105.67 9.00 105.07 9.63
C104.48 10.27 103.74 10.58 102.84 10.58
C102.50 10.58 102.09 10.53 101.60 10.42
L101.60 3.72
C102.04 3.60 102.44 3.55 102.79 3.55
Z
M99.35 3.11
L99.35 3.32
L99.64 3.32
C99.94 3.32 100.17 3.41 100.32 3.58
C100.43 3.70 100.48 4.01 100.48 4.50
L100.48 9.59
C100.48 10.04 100.44 10.33 100.35 10.45
C100.21 10.67 99.98 10.77 99.64 10.77
L99.35 10.77
L99.35 10.99
L102.87 10.99
C104.40 10.99 105.54 10.58 106.29 9.76
C106.96 9.02 107.29 8.10 107.29 7.01
C107.29 6.19 107.10 5.47 106.73 4.84
C106.35 4.22 105.86 3.77 105.25 3.51
C104.63 3.24 103.74 3.11 102.56 3.11
Z
M109.70 5.51
L108.09 6.16
L108.17 6.37
C108.33 6.31 108.46 6.28 108.57 6.28
C108.67 6.28 108.75 6.30 108.81 6.35
C108.86 6.40 108.91 6.49 108.93 6.61
C108.97 6.78 108.99 7.16 108.99 7.73
L108.99 9.79
C108.99 10.11 108.96 10.34 108.91 10.45
C108.86 10.57 108.79 10.65 108.70 10.70
C108.61 10.75 108.43 10.78 108.17 10.78
L108.17 10.99
L110.76 10.99
L110.76 10.78
C110.51 10.78 110.33 10.75 110.24 10.70
C110.14 10.64 110.07 10.56 110.02 10.45
C109.98 10.34 109.95 10.12 109.95 9.79
L109.95 5.51
Z
M125.02 2.94
C124.42 2.94 123.92 3.14 123.52 3.52
C123.12 3.90 122.87 4.45 122.77 5.17
L122.99 5.17
C123.13 4.73 123.36 4.40 123.67 4.17
C123.98 3.95 124.32 3.83 124.71 3.83
C125.14 3.83 125.50 3.99 125.81 4.32
C126.12 4.64 126.27 5.05 126.27 5.55
C126.27 6.20 125.99 6.93 125.43 7.72
C124.87 8.51 123.91 9.53 122.54 10.77
L122.54 10.99
L127.19 10.99
L127.75 9.47
L127.53 9.47
C127.43 9.65 127.31 9.78 127.18 9.88
C127.04 9.97 126.89 10.03 126.72 10.06
C126.55 10.10 126.26 10.11 125.84 10.11
L123.78 10.11
C124.02 9.89 124.62 9.26 125.59 8.20
C126.23 7.50 126.70 6.84 126.98 6.21
C127.17 5.81 127.26 5.41 127.26 5.01
C127.26 4.45 127.05 3.97 126.62 3.56
C126.19 3.15 125.66 2.94 125.02 2.94
Z
M113.63 5.51
C113.01 5.51 112.53 5.65 112.19 5.93
C111.85 6.20 111.68 6.51 111.68 6.84
C111.68 7.02 111.72 7.16 111.81 7.26
C111.91 7.36 112.02 7.41 112.17 7.41
C112.31 7.41 112.43 7.36 112.52 7.26
C112.62 7.17 112.66 7.03 112.66 6.85
L112.65 6.51
C112.65 6.34 112.72 6.19 112.87 6.06
C113.01 5.93 113.21 5.86 113.45 5.86
C113.77 5.86 114.02 5.96 114.19 6.16
C114.36 6.36 114.44 6.72 114.44 7.25
L114.44 7.46
C113.53 7.79 112.87 8.08 112.48 8.31
C112.08 8.54 111.81 8.79 111.65 9.05
C111.53 9.24 111.47 9.47 111.47 9.73
C111.47 10.14 111.59 10.47 111.83 10.72
C112.07 10.97 112.37 11.10 112.74 11.10
C112.98 11.10 113.20 11.05 113.41 10.95
C113.55 10.89 113.89 10.64 114.44 10.22
C114.44 10.54 114.50 10.76 114.61 10.90
C114.73 11.03 114.88 11.09 115.07 11.09
C115.46 11.09 115.88 10.80 116.31 10.22
L116.31 9.90
C116.08 10.13 115.92 10.27 115.84 10.32
C115.79 10.35 115.74 10.36 115.68 10.36
C115.62 10.36 115.57 10.34 115.52 10.30
C115.48 10.26 115.45 10.19 115.43 10.07
C115.41 9.96 115.40 9.65 115.40 9.14
L115.40 7.33
C115.40 6.82 115.36 6.48 115.29 6.31
C115.19 6.05 115.02 5.87 114.79 5.75
C114.49 5.59 114.10 5.51 113.63 5.51
Z
M117.82 9.86
C117.64 9.86 117.49 9.92 117.37 10.05
C117.24 10.17 117.18 10.32 117.18 10.51
C117.18 10.68 117.24 10.84 117.37 10.96
C117.49 11.09 117.64 11.15 117.82 11.15
C118.00 11.15 118.15 11.09 118.28 10.96
C118.41 10.84 118.47 10.68 118.47 10.51
C118.47 10.33 118.41 10.18 118.28 10.05
C118.16 9.92 118.01 9.86 117.82 9.86
Z
" fill="black" fill-rule="nonzero" />
</g>
</g>
</svg>
