<?xml version="1.0" encoding="utf-8" standalone="no"?>
<!DOCTYPE svg PUBLIC "-//W3C//DTD SVG 1.0//EN" "http://www.w3.org/TR/SVG/DTD/svg11.dtd" >
<svg version="1.1" baseProfile="full"  width="319.13385" height="356.93088" viewBox="0 0 229.77638 256.99023" preserveAspectRatio="xMidYMid" xmlns="http://www.w3.org/2000/svg" >

<g lengthAdjust="spacingAndGlyphs" xml:space='preserve' >
<g  transform="translate(1.19,1.19)" >
<path d="
M0.0 0.0
L0.0 227.39
L227.39 227.39
L227.39 0.0
Z
" fill="none" fill-rule="nonzero" />
<line x1="6.54" y1="6.54" x2="6.54" y2="220.84" fill="none" stroke="black" stroke-width="0.87px" stroke-linecap="square" />
<line x1="18.45" y1="6.54" x2="18.45" y2="220.84" fill="none" stroke="black" stroke-width="0.25px" stroke-linecap="butt" />
<line x1="30.35" y1="6.54" x2="30.35" y2="220.84" fill="none" stroke="black" stroke-width="0.25px" stroke-linecap="butt" />
<line x1="42.26" y1="6.54" x2="42.26" y2="220.84" fill="none" stroke="black" stroke-width="0.25px" stroke-linecap="butt" />
<line x1="54.17" y1="6.54" x2="54.17" y2="220.84" fill="none" stroke="black" stroke-width="0.25px" stroke-linecap="butt" />
<line x1="66.07" y1="6.54" x2="66.07" y2="220.84" fill="none" stroke="black" stroke-width="0.25px" stroke-linecap="butt" />
<line x1="77.98" y1="6.54" x2="77.98" y2="220.84" fill="none" stroke="black" stroke-width="0.25px" stroke-linecap="butt" />
<line x1="89.88" y1="6.54" x2="89.88" y2="220.84" fill="none" stroke="black" stroke-width="0.25px" stroke-linecap="butt" />
<line x1="101.79" y1="6.54" x2="101.79" y2="220.84" fill="none" stroke="black" stroke-width="0.25px" stroke-linecap="butt" />
<line x1="113.69" y1="6.54" x2="113.69" y2="220.84" fill="none" stroke="black" stroke-width="0.25px" stroke-linecap="butt" />
<line x1="125.60" y1="6.54" x2="125.60" y2="220.84" fill="none" stroke="black" stroke-width="0.25px" stroke-linecap="butt" />
<line x1="137.50" y1="6.54" x2="137.50" y2="220.84" fill="none" stroke="black" stroke-width="0.25px" stroke-linecap="butt" />
<line x1="149.41" y1="6.54" x2="149.41" y2="220.84" fill="none" stroke="black" stroke-width="0.25px" stroke-linecap="butt" />
<line x1="161.31" y1="6.54" x2="161.31" y2="220.84" fill="none" stroke="black" stroke-width="0.25px" stroke-linecap="butt" />
<line x1="173.22" y1="6.54" x2="173.22" y2="220.84" fill="none" stroke="black" stroke-width="0.25px" stroke-linecap="butt" />
<line x1="185.13" y1="6.54" x2="185.13" y2="220.84" fill="none" stroke="black" stroke-width="0.25px" stroke-linecap="butt" />
<line x1="197.03" y1="6.54" x2="197.03" y2="220.84" fill="none" stroke="black" stroke-width="0.25px" stroke-linecap="butt" />
<line x1="208.94" y1="6.54" x2="208.94" y2="220.84" fill="none" stroke="black" stroke-width="0.25px" stroke-linecap="butt" />
<line x1="220.84" y1="6.54" x2="220.84" y2="220.84" fill="none" stroke="black" stroke-width="0.87px" stroke-linecap="square" />
<line x1="6.54" y1="6.54" x2="220.84" y2="6.54" fill="none" stroke="black" stroke-width="0.87px" stroke-linecap="square" />
<line x1="6.54" y1="18.45" x2="220.84" y2="18.45" fill="none" stroke="black" stroke-width="0.25px" stroke-linecap="butt" />
<line x1="6.54" y1="30.35" x2="220.84" y2="30.35" fill="none" stroke="black" stroke-width="0.25px" stroke-linecap="butt" />
<line x1="6.54" y1="42.26" x2="220.84" y2="42.26" fill="none" stroke="black" stroke-width="0.25px" stroke-linecap="butt" />
<line x1="6.54" y1="54.17" x2="220.84" y2="54.17" fill="none" stroke="black" stroke-width="0.25px" stroke-linecap="butt" />
<line x1="6.54" y1="66.07" x2="220.84" y2="66.07" fill="none" stroke="black" stroke-width="0.25px" stroke-linecap="butt" />
<line x1="6.54" y1="77.98" x2="220.84" y2="77.98" fill="none" stroke="black" stroke-width="0.25px" stroke-linecap="butt" />
<line x1="6.54" y1="89.88" x2="220.84" y2="89.88" fill="none" stroke="black" stroke-width="0.25px" stroke-linecap="butt" />
<line x1="6.54" y1="101.79" x2="220.84" y2="101.79" fill="none" stroke="black" stroke-width="0.25px" stroke-linecap="butt" />
<line x1="6.54" y1="113.69" x2="220.84" y2="113.69" fill="none" stroke="black" stroke-width="0.25px" stroke-linecap="butt" />
<line x1="6.54" y1="125.60" x2="220.84" y2="125.60" fill="none" stroke="black" stroke-width="0.25px" stroke-linecap="butt" />
<line x1="6.54" y1="137.50" x2="220.84" y2="137.50" fill="none" stroke="black" stroke-width="0.25px" stroke-linecap="butt" />
<line x1="6.54" y1="149.41" x2="220.84" y2="149.41" fill="none" stroke="black" stroke-width="0.25px" stroke-linecap="butt" />
<line x1="6.54" y1="161.31" x2="220.84" y2="161.31" fill="none" stroke="black" stroke-width="0.25px" stroke-linecap="butt" />
<line x1="6.54" y1="173.22" x2="220.84" y2="173.22" fill="none" stroke="black" stroke-width="0.25px" stroke-linecap="butt" />
<line x1="6.54" y1="185.13" x2="220.84" y2="185.13" fill="none" stroke="black" stroke-width="0.25px" stroke-linecap="butt" />
<line x1="6.54" y1="197.03" x2="220.84" y2="197.03" fill="none" stroke="black" stroke-width="0.25px" stroke-linecap="butt" />
<line x1="6.54" y1="208.94" x2="220.84" y2="208.94" fill="none" stroke="black" stroke-width="0.25px" stroke-linecap="butt" />
<line x1="6.54" y1="220.84" x2="220.84" y2="220.84" fill="none" stroke="black" stroke-width="0.87px" stroke-linecap="square" />
<circle cx="6.54" cy="89.88" r="6.01" fill="black"/>
<circle cx="6.54" cy="161.31" r="6.01" fill="black"/>
<circle cx="6.54" cy="173.22" r="6.01" fill="black"/>
<circle cx="6.54" cy="185.13" r="5.89" fill="white"/>
<circle cx="6.54" cy="185.13" r="5.89" fill="none" stroke="black" stroke-width="0.25px"/>
<circle cx="6.54" cy="208.94" r="5.89" fill="white"/>
<circle cx="6.54" cy="208.94" r="5.89" fill="none" stroke="black" stroke-width="0.25px"/>
<circle cx="18.45" cy="66.07" r="6.01" fill="black"/>
<circle cx="18.45" cy="77.98" r="6.01" fill="black"/>
<circle cx="18.45" cy="89.88" r="5.89" fill="white"/>
<circle cx="18.45" cy="89.88" r="5.89" fill="none" stroke="black" stroke-width="0.25px"/>
<circle cx="18.45" cy="101.79" r="5.89" fill="white"/>
<circle cx="18.45" cy="101.79" r="5.89" fill="none" stroke="black" stroke-width="0.25px"/>
<circle cx="18.45" cy="113.69" r="6.01" fill="black"/>
<circle cx="18.45" cy="137.50" r="6.01" fill="black"/>
<circle cx="18.45" cy="149.41" r="6.01" fill="black"/>
<circle cx="18.45" cy="161.31" r="5.89" fill="white"/>
<circle cx="18.45" cy="161.31" r="5.89" fill="none" stroke="black" stroke-width="0.25px"/>
<circle cx="18.45" cy="185.13" r="5.89" fill="white"/>
<circle cx="18.45" cy="185.13" r="5.89" fill="none" stroke="black" stroke-width="0.25px"/>
<circle cx="18.45" cy="197.03" r="6.01" fill="black"/>
<circle cx="18.45" cy="208.94" r="6.01" fill="black"/>
<circle cx="30.35" cy="42.26" r="6.01" fill="black"/>
<circle cx="30.35" cy="66.07" r="6.01" fill="black"/>
<circle cx="30.35" cy="77.98" r="5.89" fill="white"/>
<circle cx="30.35" cy="77.98" r="5.89" fill="none" stroke="black" stroke-width="0.25px"/>
<circle cx="30.35" cy="89.88" r="5.89" fill="white"/>
<circle cx="30.35" cy="89.88" r="5.89" fill="none" stroke="black" stroke-width="0.25px"/>
<circle cx="30.35" cy="101.79" r="6.01" fill="black"/>
<circle cx="30.35" cy="113.69" r="6.01" fill="black"/>
<circle cx="30.35" cy="125.60" r="6.01" fill="black"/>
<circle cx="30.35" cy="149.41" r="6.01" fill="black"/>
<circle cx="30.35" cy="161.31" r="5.89" fill="white"/>
<circle cx="30.35" cy="161.31" r="5.89" fill="none" stroke="black" stroke-width="0.25px"/>
<circle cx="30.35" cy="173.22" r="5.89" fill="white"/>
<circle cx="30.35" cy="173.22" r="5.89" fill="none" stroke="black" stroke-width="0.25px"/>
<circle cx="30.35" cy="185.13" r="5.89" fill="white"/>
<circle cx="30.35" cy="185.13" r="5.89" fill="none" stroke="black" stroke-width="0.25px"/>
<circle cx="30.35" cy="197.03" r="6.01" fill="black"/>
<circle cx="30.35" cy="208.94" r="5.89" fill="white"/>
<circle cx="30.35" cy="208.94" r="5.89" fill="none" stroke="black" stroke-width="0.25px"/>
<circle cx="42.26" cy="42.26" r="5.89" fill="white"/>
<circle cx="42.26" cy="42.26" r="5.89" fill="none" stroke="black" stroke-width="0.25px"/>
<circle cx="42.26" cy="54.17" r="6.01" fill="black"/>
<circle cx="42.26" cy="66.07" r="6.01" fill="black"/>
<circle cx="42.26" cy="77.98" r="5.89" fill="white"/>
<circle cx="42.26" cy="77.98" r="5.89" fill="none" stroke="black" stroke-width="0.25px"/>
<circle cx="42.26" cy="89.88" r="6.01" fill="black"/>
<circle cx="42.26" cy="101.79" r="5.89" fill="white"/>
<circle cx="42.26" cy="101.79" r="5.89" fill="none" stroke="black" stroke-width="0.25px"/>
<circle cx="42.26" cy="113.69" r="6.01" fill="black"/>
<circle cx="42.26" cy="125.60" r="5.89" fill="white"/>
<circle cx="42.26" cy="125.60" r="5.89" fill="none" stroke="black" stroke-width="0.25px"/>
<circle cx="42.26" cy="137.50" r="6.01" fill="black"/>
<circle cx="42.26" cy="149.41" r="5.89" fill="white"/>
<circle cx="42.26" cy="149.41" r="5.89" fill="none" stroke="black" stroke-width="0.25px"/>
<circle cx="42.26" cy="161.31" r="6.01" fill="black"/>
<circle cx="42.26" cy="173.22" r="6.01" fill="black"/>
<circle cx="42.26" cy="185.13" r="6.01" fill="black"/>
<circle cx="42.26" cy="197.03" r="5.89" fill="white"/>
<circle cx="42.26" cy="197.03" r="5.89" fill="none" stroke="black" stroke-width="0.25px"/>
<circle cx="42.26" cy="208.94" r="5.89" fill="white"/>
<circle cx="42.26" cy="208.94" r="5.89" fill="none" stroke="black" stroke-width="0.25px"/>
<circle cx="54.17" cy="54.17" r="6.01" fill="black"/>
<circle cx="54.17" cy="66.07" r="5.89" fill="white"/>
<circle cx="54.17" cy="66.07" r="5.89" fill="none" stroke="black" stroke-width="0.25px"/>
<circle cx="54.17" cy="77.98" r="5.89" fill="white"/>
<circle cx="54.17" cy="77.98" r="5.89" fill="none" stroke="black" stroke-width="0.25px"/>
<circle cx="54.17" cy="89.88" r="6.01" fill="black"/>
<circle cx="54.17" cy="101.79" r="6.01" fill="black"/>
<circle cx="54.17" cy="113.69" r="5.89" fill="white"/>
<circle cx="54.17" cy="113.69" r="5.89" fill="none" stroke="black" stroke-width="0.25px"/>
<circle cx="54.17" cy="125.60" r="5.89" fill="white"/>
<circle cx="54.17" cy="125.60" r="5.89" fill="none" stroke="black" stroke-width="0.25px"/>
<circle cx="54.17" cy="137.50" r="5.89" fill="white"/>
<circle cx="54.17" cy="137.50" r="5.89" fill="none" stroke="black" stroke-width="0.25px"/>
<circle cx="54.17" cy="149.41" r="5.89" fill="white"/>
<circle cx="54.17" cy="149.41" r="5.89" fill="none" stroke="black" stroke-width="0.25px"/>
<circle cx="54.17" cy="197.03" r="6.01" fill="black"/>
<circle cx="54.17" cy="208.94" r="5.89" fill="white"/>
<circle cx="54.17" cy="208.94" r="5.89" fill="none" stroke="black" stroke-width="0.25px"/>
<circle cx="66.07" cy="30.35" r="5.89" fill="white"/>
<circle cx="66.07" cy="30.35" r="5.89" fill="none" stroke="black" stroke-width="0.25px"/>
<circle cx="66.07" cy="42.26" r="5.89" fill="white"/>
<circle cx="66.07" cy="42.26" r="5.89" fill="none" stroke="black" stroke-width="0.25px"/>
<circle cx="66.07" cy="54.17" r="5.89" fill="white"/>
<circle cx="66.07" cy="54.17" r="5.89" fill="none" stroke="black" stroke-width="0.25px"/>
<circle cx="66.07" cy="66.07" r="6.01" fill="black"/>
<circle cx="66.07" cy="77.98" r="6.01" fill="black"/>
<circle cx="66.07" cy="89.88" r="5.89" fill="white"/>
<circle cx="66.07" cy="89.88" r="5.89" fill="none" stroke="black" stroke-width="0.25px"/>
<circle cx="66.07" cy="101.79" r="5.89" fill="white"/>
<circle cx="66.07" cy="101.79" r="5.89" fill="none" stroke="black" stroke-width="0.25px"/>
<circle cx="66.07" cy="137.50" r="6.01" fill="black"/>
<circle cx="66.07" cy="161.31" r="6.01" fill="black"/>
<circle cx="66.07" cy="173.22" r="6.01" fill="black"/>
<circle cx="66.07" cy="197.03" r="5.89" fill="white"/>
<circle cx="66.07" cy="197.03" r="5.89" fill="none" stroke="black" stroke-width="0.25px"/>
<circle cx="77.98" cy="30.35" r="5.89" fill="white"/>
<circle cx="77.98" cy="30.35" r="5.89" fill="none" stroke="black" stroke-width="0.25px"/>
<circle cx="77.98" cy="42.26" r="6.01" fill="black"/>
<circle cx="77.98" cy="54.17" r="6.01" fill="black"/>
<circle cx="77.98" cy="66.07" r="6.01" fill="black"/>
<circle cx="77.98" cy="113.69" r="5.89" fill="white"/>
<circle cx="77.98" cy="113.69" r="5.89" fill="none" stroke="black" stroke-width="0.25px"/>
<circle cx="77.98" cy="125.60" r="5.89" fill="white"/>
<circle cx="77.98" cy="125.60" r="5.89" fill="none" stroke="black" stroke-width="0.25px"/>
<circle cx="77.98" cy="137.50" r="6.01" fill="black"/>
<circle cx="77.98" cy="185.13" r="6.01" fill="black"/>
<circle cx="77.98" cy="197.03" r="5.89" fill="white"/>
<circle cx="77.98" cy="197.03" r="5.89" fill="none" stroke="black" stroke-width="0.25px"/>
<circle cx="77.98" cy="208.94" r="6.01" fill="black"/>
<circle cx="89.88" cy="30.35" r="5.89" fill="white"/>
<circle cx="89.88" cy="30.35" r="5.89" fill="none" stroke="black" stroke-width="0.25px"/>
<circle cx="89.88" cy="42.26" r="6.01" fill="black"/>
<circle cx="89.88" cy="66.07" r="5.89" fill="white"/>
<circle cx="89.88" cy="66.07" r="5.89" fill="none" stroke="black" stroke-width="0.25px"/>
<circle cx="89.88" cy="89.88" r="5.89" fill="white"/>
<circle cx="89.88" cy="89.88" r="5.89" fill="none" stroke="black" stroke-width="0.25px"/>
<circle cx="89.88" cy="125.60" r="6.01" fill="black"/>
<circle cx="89.88" cy="137.50" r="5.89" fill="white"/>
<circle cx="89.88" cy="137.50" r="5.89" fill="none" stroke="black" stroke-width="0.25px"/>
<circle cx="89.88" cy="161.31" r="6.01" fill="black"/>
<circle cx="89.88" cy="185.13" r="5.89" fill="white"/>
<circle cx="89.88" cy="185.13" r="5.89" fill="none" stroke="black" stroke-width="0.25px"/>
<circle cx="89.88" cy="197.03" r="6.01" fill="black"/>
<circle cx="89.88" cy="208.94" r="5.89" fill="white"/>
<circle cx="89.88" cy="208.94" r="5.89" fill="none" stroke="black" stroke-width="0.25px"/>
<circle cx="101.79" cy="30.35" r="5.89" fill="white"/>
<circle cx="101.79" cy="30.35" r="5.89" fill="none" stroke="black" stroke-width="0.25px"/>
<circle cx="101.79" cy="42.26" r="6.01" fill="black"/>
<circle cx="101.79" cy="54.17" r="6.01" fill="black"/>
<circle cx="101.79" cy="66.07" r="5.89" fill="white"/>
<circle cx="101.79" cy="66.07" r="5.89" fill="none" stroke="black" stroke-width="0.25px"/>
<circle cx="101.79" cy="113.69" r="6.01" fill="black"/>
<circle cx="101.79" cy="125.60" r="6.01" fill="black"/>
<circle cx="101.79" cy="137.50" r="5.89" fill="white"/>
<circle cx="101.79" cy="137.50" r="5.89" fill="none" stroke="black" stroke-width="0.25px"/>
<circle cx="101.79" cy="185.13" r="6.01" fill="black"/>
<circle cx="101.79" cy="197.03" r="6.01" fill="black"/>
<circle cx="101.79" cy="208.94" r="5.89" fill="white"/>
<circle cx="101.79" cy="208.94" r="5.89" fill="none" stroke="black" stroke-width="0.25px"/>
<circle cx="113.69" cy="30.35" r="5.89" fill="white"/>
<circle cx="113.69" cy="30.35" r="5.89" fill="none" stroke="black" stroke-width="0.25px"/>
<circle cx="113.69" cy="42.26" r="5.89" fill="white"/>
<circle cx="113.69" cy="42.26" r="5.89" fill="none" stroke="black" stroke-width="0.25px"/>
<circle cx="113.69" cy="54.17" r="5.89" fill="white"/>
<circle cx="113.69" cy="54.17" r="5.89" fill="none" stroke="black" stroke-width="0.25px"/>
<circle cx="113.69" cy="113.69" r="6.01" fill="black"/>
<circle cx="113.69" cy="125.60" r="5.89" fill="white"/>
<circle cx="113.69" cy="125.60" r="5.89" fill="none" stroke="black" stroke-width="0.25px"/>
<circle cx="113.69" cy="185.13" r="6.01" fill="black"/>
<circle cx="113.69" cy="197.03" r="5.89" fill="white"/>
<circle cx="113.69" cy="197.03" r="5.89" fill="none" stroke="black" stroke-width="0.25px"/>
<circle cx="125.60" cy="42.26" r="5.89" fill="white"/>
<circle cx="125.60" cy="42.26" r="5.89" fill="none" stroke="black" stroke-width="0.25px"/>
<circle cx="125.60" cy="77.98" r="5.89" fill="white"/>
<circle cx="125.60" cy="77.98" r="5.89" fill="none" stroke="black" stroke-width="0.25px"/>
<circle cx="125.60" cy="113.69" r="6.01" fill="black"/>
<circle cx="125.60" cy="125.60" r="5.89" fill="white"/>
<circle cx="125.60" cy="125.60" r="5.89" fill="none" stroke="black" stroke-width="0.25px"/>
<circle cx="125.60" cy="197.03" r="5.89" fill="white"/>
<circle cx="125.60" cy="197.03" r="5.89" fill="none" stroke="black" stroke-width="0.25px"/>
<circle cx="137.50" cy="89.88" r="5.89" fill="white"/>
<circle cx="137.50" cy="89.88" r="5.89" fill="none" stroke="black" stroke-width="0.25px"/>
<circle cx="137.50" cy="113.69" r="6.01" fill="black"/>
<circle cx="137.50" cy="125.60" r="5.89" fill="white"/>
<circle cx="137.50" cy="125.60" r="5.89" fill="none" stroke="black" stroke-width="0.25px"/>
<circle cx="149.41" cy="113.69" r="6.01" fill="black"/>
<circle cx="149.41" cy="125.60" r="5.89" fill="white"/>
<circle cx="149.41" cy="125.60" r="5.89" fill="none" stroke="black" stroke-width="0.25px"/>
<circle cx="161.31" cy="42.26" r="6.01" fill="black"/>
<circle cx="161.31" cy="77.98" r="6.01" fill="black"/>
<circle cx="161.31" cy="113.69" r="6.01" fill="black"/>
<circle cx="161.31" cy="125.60" r="5.89" fill="white"/>
<circle cx="161.31" cy="125.60" r="5.89" fill="none" stroke="black" stroke-width="0.25px"/>
<circle cx="161.31" cy="197.03" r="6.01" fill="black"/>
<circle cx="173.22" cy="77.98" r="6.01" fill="black"/>
<circle cx="173.22" cy="101.79" r="6.01" fill="black"/>
<circle cx="185.13" cy="42.26" r="6.01" fill="black"/>
<circle cx="185.13" cy="66.07" r="5.89" fill="white"/>
<circle cx="185.13" cy="66.07" r="5.89" fill="none" stroke="black" stroke-width="0.25px"/>
<circle cx="185.13" cy="77.98" r="6.01" fill="black"/>
<circle cx="185.13" cy="89.88" r="5.89" fill="white"/>
<circle cx="185.13" cy="89.88" r="5.89" fill="none" stroke="black" stroke-width="0.25px"/>
<circle cx="185.13" cy="113.69" r="1.27" fill="black"/>
<circle cx="185.13" cy="125.60" r="5.89" fill="white"/>
<circle cx="185.13" cy="125.60" r="5.89" fill="none" stroke="black" stroke-width="0.25px"/>
<circle cx="185.13" cy="185.13" r="1.27" fill="black"/>
<circle cx="197.03" cy="66.07" r="6.01" fill="black"/>
<circle cx="197.03" cy="77.98" r="5.89" fill="white"/>
<circle cx="197.03" cy="77.98" r="5.89" fill="none" stroke="black" stroke-width="0.25px"/>
<circle cx="197.03" cy="113.69" r="5.89" fill="white"/>
<circle cx="197.03" cy="113.69" r="5.89" fill="none" stroke="black" stroke-width="0.25px"/>
<circle cx="197.03" cy="185.13" r="6.01" fill="black"/>
<path d="
M8.50 88.39
L8.50 90.81
L7.40 90.81
L8.50 88.39
Z
M4.74 86.16
C4.26 86.17 3.87 86.36 3.57 86.74
C3.28 87.10 3.12 87.64 3.07 88.36
L3.07 88.49
L3.19 88.51
L3.78 88.60
L3.95 88.62
L3.95 88.46
C3.95 88.03 4.03 87.70 4.18 87.48
C4.32 87.27 4.50 87.17 4.72 87.17
C4.72 87.17 4.72 87.17 4.72 87.17
C4.72 87.17 4.72 87.17 4.72 87.17
C4.92 87.17 5.09 87.27 5.23 87.46
C5.39 87.66 5.46 87.93 5.46 88.26
C5.46 88.55 5.38 88.87 5.22 89.22
C5.06 89.57 4.72 90.08 4.19 90.74
C3.72 91.32 3.40 91.83 3.22 92.26
C3.04 92.70 2.96 93.10 2.97 93.46
L2.97 93.60
L6.34 93.60
L6.34 93.46
L6.34 92.62
L6.34 92.48
L4.12 92.48
C4.16 92.39 4.21 92.30 4.27 92.22
C4.36 92.06 4.58 91.77 4.92 91.33
C5.46 90.63 5.83 90.07 6.03 89.64
C6.23 89.21 6.33 88.75 6.33 88.28
C6.33 87.74 6.20 87.26 5.94 86.83
C5.67 86.39 5.27 86.17 4.74 86.16
Z
M8.66 86.19
L8.62 86.28
L6.49 90.89
L6.48 90.92
L6.48 90.95
L6.48 91.75
L6.48 91.89
L8.50 91.89
L8.50 93.46
L8.50 93.60
L9.36 93.60
L9.36 93.46
L9.36 91.89
L9.99 91.89
L9.99 91.75
L9.99 90.95
L9.99 90.81
L9.36 90.81
L9.36 86.34
L9.36 86.19
Z
" fill="white" fill-rule="nonzero" />
<path d="
M20.21 63.30
C20.21 63.30 20.21 63.30 20.21 63.30
C20.21 63.30 20.21 63.30 20.21 63.30
C20.32 63.30 20.41 63.34 20.50 63.41
C20.60 63.50 20.69 63.63 20.77 63.80
C20.94 64.18 21.02 64.93 21.02 66.07
C21.02 67.20 20.94 67.95 20.77 68.33
C20.69 68.51 20.60 68.65 20.51 68.73
C20.43 68.81 20.34 68.85 20.25 68.85
C20.25 68.85 20.24 68.85 20.24 68.85
C20.24 68.85 20.24 68.85 20.24 68.85
C20.14 68.85 20.04 68.81 19.96 68.73
C19.86 68.65 19.77 68.52 19.69 68.34
C19.52 67.96 19.44 67.21 19.44 66.07
C19.44 64.95 19.52 64.19 19.69 63.81
C19.77 63.63 19.85 63.50 19.95 63.41
C20.03 63.34 20.12 63.30 20.21 63.30
Z
M16.65 62.29
C16.16 62.29 15.77 62.48 15.47 62.86
C15.19 63.23 15.02 63.77 14.98 64.49
L14.97 64.61
L15.10 64.63
L15.69 64.73
L15.85 64.75
L15.85 64.59
C15.85 64.16 15.93 63.83 16.09 63.61
C16.23 63.40 16.41 63.30 16.62 63.30
C16.62 63.30 16.62 63.30 16.63 63.30
C16.63 63.30 16.63 63.30 16.63 63.30
C16.83 63.30 17.00 63.39 17.14 63.59
C17.29 63.79 17.37 64.06 17.37 64.39
C17.37 64.68 17.29 65.00 17.13 65.35
C16.97 65.70 16.62 66.21 16.10 66.86
C15.63 67.45 15.31 67.96 15.13 68.39
C14.95 68.83 14.86 69.23 14.87 69.59
L14.87 69.73
L18.24 69.73
L18.24 69.59
L18.24 68.75
L18.24 68.60
L16.03 68.60
C16.07 68.52 16.12 68.43 16.17 68.34
C16.27 68.19 16.49 67.90 16.83 67.46
C17.37 66.76 17.74 66.20 17.94 65.77
C18.14 65.34 18.24 64.88 18.24 64.41
C18.24 63.87 18.11 63.39 17.85 62.96
C17.58 62.52 17.17 62.29 16.65 62.29
Z
M20.24 62.29
C19.95 62.29 19.70 62.38 19.48 62.55
C19.28 62.72 19.10 62.97 18.96 63.30
C18.70 63.94 18.57 64.86 18.57 66.07
C18.57 67.43 18.71 68.39 19.01 68.96
C19.16 69.25 19.34 69.47 19.54 69.62
C19.74 69.77 19.97 69.85 20.23 69.85
C20.51 69.85 20.77 69.76 20.98 69.59
C21.19 69.42 21.36 69.17 21.50 68.84
C21.77 68.20 21.90 67.28 21.90 66.07
C21.90 64.73 21.74 63.74 21.42 63.12
C21.28 62.85 21.11 62.64 20.92 62.51
C20.72 62.36 20.49 62.29 20.24 62.29
Z
" fill="white" fill-rule="nonzero" />
<path d="
M20.24 75.20
C20.24 75.20 20.24 75.20 20.24 75.20
C20.24 75.20 20.24 75.20 20.24 75.20
C20.40 75.20 20.54 75.29 20.66 75.46
C20.80 75.65 20.86 75.89 20.86 76.20
C20.86 76.49 20.80 76.73 20.67 76.90
C20.55 77.07 20.41 77.15 20.25 77.15
C20.25 77.15 20.25 77.15 20.25 77.15
C20.25 77.15 20.25 77.15 20.24 77.15
C20.08 77.15 19.94 77.07 19.82 76.90
C19.69 76.72 19.62 76.47 19.62 76.15
C19.62 75.87 19.69 75.63 19.82 75.45
C19.94 75.28 20.08 75.20 20.24 75.20
Z
M20.23 78.15
C20.23 78.15 20.23 78.15 20.23 78.15
C20.23 78.15 20.23 78.15 20.24 78.15
C20.45 78.15 20.64 78.26 20.80 78.49
C20.97 78.73 21.05 79.06 21.05 79.47
C21.05 79.87 20.97 80.19 20.80 80.42
C20.65 80.64 20.47 80.75 20.25 80.75
C20.25 80.75 20.25 80.75 20.25 80.75
C20.25 80.75 20.25 80.75 20.24 80.75
C20.03 80.75 19.85 80.64 19.69 80.41
C19.52 80.17 19.43 79.84 19.43 79.44
C19.43 79.04 19.52 78.73 19.68 78.49
C19.84 78.26 20.02 78.15 20.23 78.15
Z
M16.76 74.20
L16.73 74.30
C16.64 74.59 16.47 74.90 16.24 75.21
C16.01 75.53 15.74 75.79 15.44 76.01
L15.38 76.05
L15.38 76.13
L15.38 76.97
L15.38 77.21
L15.59 77.10
C15.78 76.99 16.00 76.83 16.23 76.62
C16.34 76.52 16.43 76.42 16.52 76.32
L16.52 76.32
L16.52 81.49
L16.52 81.63
L17.38 81.63
L17.38 81.49
L17.38 74.34
L17.38 74.20
Z
M20.24 74.20
C19.80 74.20 19.45 74.39 19.16 74.76
C18.89 75.13 18.75 75.60 18.75 76.17
C18.75 76.55 18.81 76.87 18.94 77.13
C19.03 77.33 19.16 77.48 19.32 77.61
L19.32 77.61
C19.11 77.75 18.94 77.94 18.81 78.19
C18.65 78.52 18.56 78.94 18.56 79.44
C18.56 80.12 18.72 80.67 19.03 81.10
C19.35 81.53 19.76 81.75 20.25 81.75
C20.73 81.75 21.13 81.53 21.46 81.10
C21.77 80.67 21.92 80.13 21.93 79.46
C21.92 78.98 21.84 78.57 21.68 78.24
C21.55 77.98 21.38 77.77 21.17 77.62
L21.17 77.62
C21.33 77.49 21.46 77.33 21.55 77.13
C21.67 76.88 21.73 76.57 21.73 76.20
C21.73 75.62 21.60 75.15 21.32 74.77
C21.03 74.39 20.67 74.20 20.24 74.20
Z
" fill="white" fill-rule="nonzero" />
<path d="
M20.25 86.97
C20.48 86.97 20.69 87.11 20.87 87.41
C21.06 87.70 21.15 88.10 21.15 88.61
C21.15 89.12 21.06 89.51 20.88 89.79
C20.71 90.07 20.49 90.21 20.24 90.21
C19.98 90.21 19.76 90.07 19.58 89.79
C19.39 89.52 19.30 89.15 19.30 88.68
C19.30 88.16 19.40 87.75 19.59 87.44
C19.78 87.12 20.00 86.97 20.25 86.97
Z
M16.87 86.25
C16.77 86.56 16.60 86.88 16.36 87.20
C16.11 87.53 15.83 87.81 15.52 88.03
L15.52 88.88
C15.70 88.77 15.91 88.62 16.13 88.42
C16.35 88.22 16.53 88.02 16.66 87.82
L16.66 93.40
L17.24 93.40
L17.24 86.25
Z
M20.18 86.25
C19.77 86.25 19.42 86.46 19.14 86.89
C18.85 87.32 18.71 87.91 18.71 88.65
C18.71 89.37 18.85 89.94 19.12 90.36
C19.40 90.77 19.73 90.98 20.11 90.98
C20.32 90.98 20.52 90.90 20.73 90.73
C20.93 90.56 21.09 90.33 21.21 90.04
L21.21 90.22
C21.21 90.78 21.15 91.26 21.04 91.68
C20.94 92.10 20.80 92.39 20.65 92.55
C20.49 92.72 20.32 92.80 20.12 92.80
C19.69 92.80 19.43 92.42 19.35 91.67
L18.79 91.75
C18.84 92.32 18.98 92.76 19.22 93.06
C19.46 93.37 19.76 93.52 20.11 93.52
C20.43 93.52 20.71 93.39 20.96 93.14
C21.21 92.89 21.41 92.50 21.56 91.96
C21.71 91.42 21.78 90.66 21.78 89.68
C21.78 88.80 21.71 88.13 21.58 87.66
C21.44 87.20 21.25 86.84 20.99 86.60
C20.74 86.36 20.47 86.25 20.18 86.25
Z
" fill="black" fill-rule="nonzero" />
<path d="
M16.58 98.31
L16.58 99.15
L19.40 99.15
C19.04 99.64 18.71 100.25 18.40 100.96
C18.09 101.67 17.84 102.42 17.66 103.20
C17.49 103.98 17.39 104.67 17.38 105.26
L18.11 105.26
C18.18 104.12 18.42 102.97 18.84 101.81
C19.26 100.65 19.75 99.71 20.31 98.99
L20.31 98.31
Z
" fill="black" fill-rule="nonzero" />
<path d="
M20.21 110.92
C20.21 110.92 20.21 110.92 20.21 110.92
C20.21 110.92 20.21 110.92 20.21 110.92
C20.32 110.92 20.41 110.96 20.50 111.03
C20.60 111.12 20.69 111.25 20.77 111.43
C20.94 111.80 21.02 112.56 21.02 113.70
C21.02 114.82 20.94 115.57 20.77 115.96
C20.69 116.14 20.60 116.27 20.51 116.36
C20.43 116.43 20.34 116.47 20.25 116.47
C20.25 116.47 20.24 116.47 20.24 116.47
C20.24 116.47 20.24 116.47 20.24 116.47
C20.14 116.47 20.04 116.43 19.96 116.36
C19.86 116.27 19.77 116.14 19.69 115.96
C19.52 115.59 19.44 114.83 19.44 113.70
C19.44 112.57 19.52 111.81 19.69 111.43
C19.77 111.25 19.85 111.12 19.95 111.03
C20.03 110.96 20.12 110.92 20.21 110.92
Z
M16.76 109.91
L16.73 110.01
C16.64 110.31 16.47 110.61 16.24 110.93
C16.01 111.24 15.74 111.51 15.44 111.73
L15.38 111.77
L15.38 111.84
L15.38 112.69
L15.38 112.93
L15.38 112.93
L15.59 112.81
C15.78 112.70 16.00 112.54 16.23 112.34
C16.34 112.24 16.43 112.14 16.52 112.04
L16.52 112.04
L16.52 117.21
L16.52 117.35
L17.38 117.35
L17.38 117.21
L17.38 110.06
L17.38 109.91
Z
M20.24 109.91
C19.95 109.91 19.70 110.00 19.48 110.18
C19.28 110.35 19.10 110.59 18.96 110.92
C18.70 111.56 18.57 112.48 18.57 113.70
C18.57 115.05 18.71 116.01 19.01 116.58
C19.16 116.87 19.34 117.09 19.54 117.24
C19.74 117.39 19.97 117.47 20.23 117.47
C20.51 117.47 20.77 117.38 20.98 117.21
C21.19 117.04 21.36 116.79 21.50 116.46
C21.77 115.82 21.90 114.90 21.90 113.70
C21.90 112.35 21.74 111.36 21.42 110.74
C21.28 110.47 21.11 110.27 20.92 110.13
C20.72 109.99 20.49 109.91 20.24 109.91
Z
" fill="white" fill-rule="nonzero" />
<path d="
M30.33 75.10
C30.63 75.10 30.88 75.24 31.11 75.53
C31.33 75.82 31.44 76.21 31.44 76.72
C31.44 77.22 31.33 77.61 31.12 77.89
C30.90 78.16 30.63 78.30 30.32 78.30
C30.00 78.30 29.73 78.16 29.50 77.89
C29.28 77.62 29.16 77.25 29.16 76.79
C29.16 76.28 29.28 75.87 29.52 75.56
C29.76 75.25 30.03 75.10 30.33 75.10
Z
M30.25 74.38
C29.75 74.38 29.32 74.60 28.96 75.02
C28.61 75.44 28.43 76.02 28.43 76.76
C28.43 77.47 28.60 78.04 28.95 78.45
C29.29 78.86 29.69 79.06 30.16 79.06
C30.42 79.06 30.68 78.98 30.93 78.81
C31.17 78.65 31.37 78.42 31.52 78.14
L31.52 78.31
C31.52 78.86 31.45 79.34 31.32 79.75
C31.18 80.17 31.02 80.45 30.83 80.62
C30.63 80.78 30.42 80.86 30.18 80.86
C29.65 80.86 29.33 80.49 29.22 79.74
L28.54 79.82
C28.60 80.39 28.77 80.82 29.07 81.12
C29.36 81.42 29.73 81.57 30.17 81.57
C30.55 81.57 30.90 81.45 31.22 81.20
C31.53 80.95 31.77 80.56 31.96 80.03
C32.14 79.49 32.23 78.74 32.23 77.78
C32.23 76.91 32.15 76.25 31.98 75.79
C31.81 75.32 31.57 74.98 31.26 74.74
C30.95 74.50 30.61 74.38 30.25 74.38
Z
" fill="black" fill-rule="nonzero" />
<path d="
M30.25 86.29
C29.81 86.29 29.43 86.44 29.12 86.75
C28.80 87.05 28.60 87.51 28.51 88.11
L29.22 88.26
C29.27 87.84 29.39 87.52 29.57 87.31
C29.76 87.10 29.99 87.00 30.26 87.00
C30.53 87.00 30.75 87.10 30.93 87.30
C31.11 87.50 31.20 87.76 31.20 88.09
C31.20 88.45 31.09 88.74 30.88 88.95
C30.66 89.16 30.38 89.27 30.03 89.27
L29.92 89.26
L29.84 90.02
C30.03 89.96 30.20 89.92 30.33 89.92
C30.65 89.92 30.92 90.05 31.14 90.30
C31.35 90.55 31.46 90.88 31.46 91.29
C31.46 91.72 31.34 92.08 31.11 92.35
C30.87 92.62 30.59 92.76 30.27 92.76
C29.67 92.76 29.30 92.30 29.15 91.38
L28.44 91.49
C28.49 92.10 28.68 92.58 29.02 92.94
C29.37 93.30 29.78 93.48 30.28 93.48
C30.81 93.48 31.26 93.27 31.65 92.86
C32.03 92.45 32.22 91.92 32.22 91.27
C32.22 90.97 32.17 90.69 32.08 90.45
C31.98 90.20 31.86 90.00 31.71 89.86
C31.56 89.71 31.37 89.60 31.14 89.54
C31.39 89.40 31.59 89.21 31.72 88.96
C31.86 88.71 31.93 88.43 31.93 88.11
C31.93 87.59 31.77 87.15 31.44 86.81
C31.12 86.46 30.72 86.29 30.25 86.29
Z
" fill="black" fill-rule="nonzero" />
<path d="
M30.32 110.95
C30.32 110.95 30.32 110.95 30.33 110.95
C30.33 110.95 30.33 110.95 30.33 110.95
C30.54 110.95 30.73 111.04 30.88 111.22
C31.05 111.40 31.13 111.64 31.13 111.93
C31.13 112.22 31.05 112.45 30.89 112.62
C30.74 112.79 30.55 112.88 30.34 112.88
C30.34 112.88 30.34 112.88 30.33 112.88
C30.33 112.88 30.33 112.88 30.33 112.88
C30.11 112.88 29.92 112.79 29.77 112.62
C29.61 112.44 29.53 112.20 29.53 111.89
C29.53 111.61 29.61 111.39 29.77 111.21
C29.93 111.04 30.11 110.95 30.32 110.95
Z
M30.31 113.87
C30.31 113.87 30.31 113.87 30.32 113.87
C30.32 113.87 30.32 113.87 30.32 113.87
C30.60 113.87 30.84 113.98 31.05 114.21
C31.26 114.45 31.36 114.77 31.36 115.16
C31.36 115.56 31.26 115.87 31.06 116.10
C30.86 116.32 30.62 116.43 30.34 116.43
C30.34 116.43 30.34 116.43 30.33 116.43
C30.33 116.43 30.33 116.43 30.33 116.43
C30.05 116.43 29.81 116.32 29.61 116.09
C29.40 115.85 29.30 115.53 29.30 115.13
C29.30 114.75 29.40 114.45 29.60 114.21
C29.80 113.98 30.03 113.87 30.31 113.87
Z
M30.32 109.96
C29.80 109.96 29.37 110.14 29.03 110.51
C28.69 110.87 28.52 111.34 28.52 111.91
C28.52 112.29 28.60 112.61 28.76 112.87
C28.87 113.06 29.02 113.21 29.20 113.33
L29.20 113.33
C28.96 113.46 28.76 113.65 28.60 113.90
C28.39 114.22 28.29 114.64 28.29 115.13
C28.29 115.81 28.48 116.37 28.87 116.79
C29.26 117.21 29.75 117.43 30.33 117.43
C30.91 117.43 31.40 117.21 31.79 116.79
C32.18 116.37 32.37 115.82 32.37 115.16
C32.37 114.68 32.27 114.27 32.07 113.94
C31.92 113.69 31.71 113.49 31.45 113.34
L31.45 113.34
C31.64 113.21 31.79 113.06 31.91 112.87
C32.06 112.62 32.14 112.30 32.14 111.94
C32.14 111.36 31.96 110.89 31.62 110.52
C31.28 110.15 30.84 109.96 30.32 109.96
Z
" fill="white" fill-rule="nonzero" />
<path d="
M40.46 62.35
C39.97 62.35 39.58 62.54 39.29 62.93
C39.00 63.29 38.83 63.83 38.79 64.55
L38.78 64.67
L38.91 64.69
L39.50 64.79
L39.67 64.81
L39.67 64.65
C39.66 64.22 39.74 63.89 39.90 63.67
C40.04 63.46 40.22 63.36 40.43 63.36
C40.43 63.36 40.44 63.36 40.44 63.36
C40.44 63.36 40.44 63.36 40.44 63.36
C40.64 63.36 40.81 63.46 40.95 63.65
C41.10 63.85 41.18 64.12 41.18 64.45
C41.18 64.74 41.10 65.06 40.94 65.41
C40.78 65.76 40.44 66.27 39.91 66.92
C39.44 67.51 39.12 68.02 38.94 68.45
C38.76 68.89 38.67 69.29 38.68 69.65
L38.69 69.79
L42.06 69.79
L42.06 69.65
L42.06 68.81
L42.06 68.66
L39.84 68.66
C39.88 68.58 39.93 68.49 39.98 68.41
C40.08 68.25 40.30 67.96 40.64 67.52
C41.18 66.82 41.55 66.26 41.75 65.83
C41.95 65.40 42.05 64.94 42.05 64.47
C42.05 63.93 41.92 63.45 41.66 63.02
C41.39 62.58 40.99 62.35 40.46 62.35
Z
M44.09 62.35
C43.60 62.35 43.21 62.54 42.92 62.93
C42.63 63.29 42.46 63.83 42.42 64.55
L42.41 64.67
L42.54 64.69
L43.13 64.79
L43.30 64.81
L43.30 64.65
C43.30 64.22 43.37 63.89 43.53 63.67
C43.67 63.46 43.85 63.36 44.06 63.36
C44.06 63.36 44.07 63.36 44.07 63.36
C44.07 63.36 44.07 63.36 44.07 63.36
C44.27 63.36 44.44 63.46 44.58 63.65
C44.73 63.85 44.81 64.12 44.81 64.45
C44.81 64.74 44.73 65.06 44.57 65.41
C44.41 65.76 44.07 66.27 43.54 66.92
C43.07 67.51 42.75 68.02 42.57 68.45
C42.39 68.89 42.30 69.29 42.31 69.65
L42.32 69.79
L45.69 69.79
L45.69 69.65
L45.69 68.81
L45.69 68.66
L43.47 68.66
C43.51 68.58 43.56 68.49 43.61 68.41
C43.71 68.25 43.93 67.96 44.27 67.52
C44.81 66.82 45.18 66.26 45.38 65.83
C45.58 65.40 45.68 64.94 45.68 64.47
C45.68 63.93 45.55 63.45 45.29 63.02
C45.02 62.58 44.62 62.35 44.09 62.35
Z
" fill="white" fill-rule="nonzero" />
<path d="
M41.03 74.45
L40.46 78.06
L41.13 78.17
C41.24 77.95 41.39 77.78 41.58 77.66
C41.76 77.54 41.96 77.48 42.18 77.48
C42.53 77.48 42.83 77.62 43.06 77.90
C43.30 78.18 43.42 78.57 43.42 79.07
C43.42 79.60 43.29 80.02 43.05 80.33
C42.81 80.64 42.52 80.80 42.18 80.80
C41.91 80.80 41.68 80.69 41.47 80.47
C41.27 80.25 41.14 79.91 41.08 79.47
L40.34 79.54
C40.39 80.16 40.58 80.64 40.93 80.99
C41.27 81.33 41.69 81.51 42.19 81.51
C42.79 81.51 43.27 81.26 43.63 80.77
C43.99 80.28 44.16 79.69 44.16 79.00
C44.16 78.30 43.99 77.75 43.63 77.34
C43.27 76.93 42.85 76.72 42.37 76.72
C41.99 76.72 41.62 76.87 41.28 77.16
L41.59 75.27
L43.89 75.27
L43.89 74.45
Z
" fill="black" fill-rule="nonzero" />
<path d="
M42.18 99.74
L43.24 102.59
L41.14 102.59
L42.18 99.74
Z
M41.38 97.95
L38.39 105.62
L40.03 105.62
L40.67 103.88
L43.73 103.88
L44.40 105.62
L46.09 105.62
L43.02 97.95
Z
" fill="black" fill-rule="nonzero" />
<path d="
M42.47 112.10
L42.47 114.59
L41.05 114.59
L42.47 112.10
Z
M42.66 110.03
L42.62 110.10
L39.99 114.66
L39.97 114.70
L39.97 114.73
L39.97 115.53
L39.97 115.67
L42.47 115.67
L42.47 117.21
L42.47 117.35
L43.46 117.35
L43.46 117.21
L43.46 115.67
L44.24 115.67
L44.24 115.53
L44.24 114.73
L44.24 114.59
L43.46 114.59
L43.46 110.17
L43.46 110.03
Z
" fill="white" fill-rule="nonzero" />
<path d="
M52.48 50.45
L52.45 50.55
C52.35 50.84 52.19 51.15 51.96 51.46
C51.72 51.78 51.46 52.04 51.15 52.26
L51.09 52.30
L51.09 52.38
L51.09 53.22
L51.09 53.46
L51.30 53.35
C51.50 53.24 51.71 53.08 51.94 52.87
C52.05 52.77 52.15 52.67 52.24 52.57
L52.24 52.57
L52.24 57.74
L52.24 57.88
L53.10 57.88
L53.10 57.74
L53.10 50.59
L53.10 50.45
Z
M55.99 50.45
C55.51 50.45 55.12 50.64 54.82 51.02
C54.53 51.39 54.37 51.93 54.33 52.64
L54.32 52.77
L54.45 52.79
L55.04 52.88
L55.20 52.91
L55.20 52.74
C55.20 52.31 55.28 51.99 55.43 51.76
C55.57 51.56 55.75 51.45 55.97 51.45
C55.97 51.45 55.97 51.45 55.97 51.45
C55.97 51.45 55.97 51.45 55.98 51.45
C56.18 51.45 56.35 51.55 56.49 51.74
C56.64 51.94 56.71 52.21 56.71 52.54
C56.71 52.84 56.63 53.16 56.48 53.50
C56.32 53.86 55.97 54.36 55.44 55.02
C54.97 55.60 54.65 56.11 54.48 56.55
C54.30 56.98 54.21 57.38 54.22 57.74
L54.22 57.88
L57.59 57.88
L57.59 57.74
L57.59 56.90
L57.59 56.76
L55.37 56.76
C55.42 56.67 55.46 56.59 55.52 56.50
C55.62 56.35 55.83 56.05 56.17 55.62
C56.72 54.92 57.09 54.35 57.28 53.93
C57.48 53.49 57.58 53.04 57.58 52.56
C57.58 52.02 57.45 51.54 57.20 51.12
C56.92 50.67 56.52 50.45 55.99 50.45
Z
" fill="white" fill-rule="nonzero" />
<path d="
M52.58 62.49
C52.48 62.81 52.31 63.12 52.07 63.45
C51.83 63.78 51.55 64.06 51.23 64.28
L51.23 65.13
C51.42 65.02 51.63 64.87 51.85 64.67
C52.07 64.47 52.25 64.27 52.38 64.07
L52.38 69.65
L52.96 69.65
L52.96 62.49
Z
M56.21 62.49
C56.11 62.81 55.94 63.12 55.70 63.45
C55.46 63.78 55.18 64.06 54.86 64.28
L54.86 65.13
C55.05 65.02 55.26 64.87 55.48 64.67
C55.70 64.47 55.88 64.27 56.01 64.07
L56.01 69.65
L56.59 69.65
L56.59 62.49
Z
" fill="black" fill-rule="nonzero" />
<path d="
M54.45 74.44
C54.33 74.75 54.12 75.07 53.82 75.39
C53.52 75.71 53.18 75.99 52.79 76.21
L52.79 77.05
C53.02 76.94 53.27 76.79 53.55 76.59
C53.82 76.39 54.04 76.20 54.20 76.00
L54.20 81.51
L54.91 81.51
L54.91 74.44
Z
" fill="black" fill-rule="nonzero" />
<path d="
M64.49 50.53
C64.39 50.84 64.22 51.16 63.98 51.48
C63.74 51.81 63.46 52.09 63.14 52.31
L63.14 53.16
C63.33 53.06 63.53 52.90 63.75 52.70
C63.98 52.50 64.15 52.30 64.29 52.11
L64.29 57.68
L64.86 57.68
L64.86 50.53
Z
M67.80 50.53
C67.44 50.53 67.14 50.68 66.88 50.99
C66.63 51.30 66.47 51.76 66.39 52.37
L66.96 52.53
C67.01 52.10 67.10 51.78 67.25 51.56
C67.41 51.35 67.59 51.25 67.81 51.25
C68.02 51.25 68.20 51.35 68.35 51.55
C68.50 51.75 68.57 52.02 68.57 52.35
C68.57 52.72 68.49 53.01 68.31 53.22
C68.13 53.44 67.90 53.55 67.62 53.55
L67.53 53.54
L67.47 54.31
C67.63 54.24 67.76 54.21 67.87 54.21
C68.13 54.21 68.34 54.34 68.52 54.59
C68.70 54.84 68.78 55.17 68.78 55.59
C68.78 56.03 68.69 56.39 68.50 56.66
C68.30 56.94 68.08 57.08 67.82 57.08
C67.33 57.08 67.03 56.61 66.91 55.68
L66.33 55.80
C66.37 56.41 66.53 56.90 66.81 57.26
C67.09 57.62 67.42 57.80 67.82 57.80
C68.25 57.80 68.62 57.60 68.93 57.18
C69.24 56.76 69.39 56.23 69.39 55.57
C69.39 55.27 69.36 54.99 69.28 54.74
C69.21 54.49 69.11 54.29 68.99 54.14
C68.86 53.99 68.71 53.88 68.52 53.82
C68.73 53.68 68.88 53.48 69.00 53.23
C69.11 52.98 69.16 52.70 69.16 52.37
C69.16 51.84 69.03 51.40 68.77 51.05
C68.50 50.70 68.18 50.53 67.80 50.53
Z
" fill="black" fill-rule="nonzero" />
<path d="
M66.08 74.30
C65.50 74.30 65.03 74.49 64.68 74.86
C64.32 75.22 64.12 75.76 64.06 76.47
L64.05 76.60
L64.19 76.62
L64.92 76.71
L65.07 76.73
L65.07 76.57
C65.07 76.15 65.17 75.83 65.36 75.62
C65.54 75.41 65.77 75.30 66.06 75.30
C66.06 75.30 66.06 75.30 66.06 75.30
C66.06 75.30 66.06 75.30 66.06 75.30
C66.33 75.30 66.55 75.40 66.73 75.59
C66.92 75.79 67.01 76.05 67.01 76.37
C67.01 76.66 66.91 76.97 66.72 77.31
C66.52 77.66 66.10 78.16 65.44 78.81
C64.87 79.38 64.47 79.89 64.25 80.32
C64.02 80.75 63.92 81.15 63.93 81.51
L63.93 81.65
L68.03 81.65
L68.03 81.51
L68.03 80.68
L68.03 80.54
L65.29 80.54
C65.34 80.46 65.40 80.38 65.46 80.30
C65.58 80.14 65.85 79.85 66.27 79.42
C66.94 78.73 67.40 78.17 67.64 77.75
C67.89 77.32 68.02 76.87 68.02 76.39
C68.02 75.86 67.86 75.38 67.53 74.95
C67.20 74.52 66.72 74.30 66.08 74.30
Z
" fill="white" fill-rule="nonzero" />
<path d="
M79.93 64.58
L79.93 67.00
L78.83 67.00
L79.93 64.58
Z
M76.29 62.35
L76.26 62.45
C76.17 62.75 76.00 63.05 75.77 63.37
C75.54 63.68 75.27 63.95 74.96 64.17
L74.90 64.21
L74.90 64.28
L74.90 65.13
L74.90 65.37
L75.11 65.25
C75.31 65.14 75.52 64.98 75.75 64.77
C75.86 64.68 75.96 64.58 76.05 64.48
L76.05 64.48
L76.05 69.65
L76.05 69.79
L76.91 69.79
L76.91 69.65
L76.91 62.49
L76.91 62.35
Z
M80.09 62.38
L80.06 62.46
L77.92 67.08
L77.91 67.11
L77.91 67.14
L77.91 67.94
L77.91 68.08
L79.93 68.08
L79.93 69.65
L79.93 69.79
L80.79 69.79
L80.79 69.65
L80.79 68.08
L81.43 68.08
L81.43 67.94
L81.43 67.14
L81.43 67.00
L80.79 67.00
L80.79 62.52
L80.79 62.38
Z
" fill="white" fill-rule="nonzero" />
<path d="
M99.98 26.72
C99.55 26.72 99.19 26.89 98.92 27.23
C98.66 27.58 98.50 28.09 98.46 28.78
L99.05 28.87
C99.05 28.41 99.14 28.05 99.31 27.81
C99.48 27.56 99.70 27.44 99.96 27.44
C100.21 27.44 100.42 27.55 100.59 27.78
C100.76 28.01 100.85 28.31 100.85 28.67
C100.85 28.98 100.76 29.32 100.60 29.69
C100.43 30.05 100.08 30.57 99.54 31.23
C99.09 31.81 98.77 32.30 98.60 32.72
C98.43 33.15 98.34 33.53 98.35 33.87
L101.44 33.87
L101.44 33.03
L99.15 33.03
C99.21 32.87 99.29 32.71 99.39 32.55
C99.49 32.39 99.71 32.09 100.05 31.66
C100.59 30.96 100.95 30.41 101.15 29.99
C101.34 29.58 101.43 29.14 101.43 28.69
C101.43 28.18 101.31 27.72 101.07 27.32
C100.82 26.92 100.46 26.72 99.98 26.72
Z
M103.52 26.72
C103.16 26.72 102.85 26.87 102.60 27.18
C102.35 27.49 102.18 27.95 102.11 28.56
L102.68 28.72
C102.72 28.29 102.82 27.96 102.97 27.75
C103.12 27.54 103.31 27.43 103.53 27.43
C103.74 27.43 103.92 27.54 104.07 27.74
C104.22 27.94 104.29 28.21 104.29 28.54
C104.29 28.90 104.20 29.19 104.03 29.41
C103.85 29.63 103.62 29.74 103.34 29.74
L103.25 29.73
L103.18 30.49
C103.34 30.43 103.48 30.40 103.59 30.40
C103.84 30.40 104.06 30.52 104.24 30.78
C104.41 31.03 104.50 31.36 104.50 31.78
C104.50 32.22 104.40 32.58 104.21 32.85
C104.02 33.13 103.79 33.27 103.53 33.27
C103.05 33.27 102.75 32.80 102.63 31.87
L102.05 31.99
C102.09 32.60 102.25 33.09 102.53 33.45
C102.80 33.81 103.14 33.99 103.54 33.99
C103.97 33.99 104.34 33.78 104.65 33.37
C104.96 32.95 105.11 32.42 105.11 31.76
C105.11 31.46 105.07 31.18 105.00 30.93
C104.92 30.68 104.82 30.48 104.70 30.33
C104.58 30.18 104.43 30.07 104.24 30.01
C104.44 29.87 104.60 29.67 104.71 29.42
C104.82 29.17 104.88 28.89 104.88 28.56
C104.88 28.03 104.75 27.59 104.48 27.24
C104.22 26.89 103.90 26.72 103.52 26.72
Z
" fill="black" fill-rule="nonzero" />
<path d="
M103.61 53.97
C103.81 53.97 103.99 54.09 104.14 54.33
C104.30 54.58 104.38 54.95 104.38 55.43
C104.38 55.91 104.30 56.29 104.13 56.57
C103.98 56.82 103.82 56.94 103.65 56.94
C103.65 56.94 103.65 56.94 103.65 56.94
C103.65 56.94 103.65 56.94 103.65 56.94
C103.44 56.94 103.26 56.81 103.09 56.54
C102.91 56.25 102.82 55.86 102.82 55.37
C102.82 54.93 102.91 54.58 103.08 54.33
C103.23 54.09 103.41 53.97 103.61 53.97
C103.61 53.97 103.61 53.97 103.61 53.97
C103.61 53.97 103.61 53.97 103.61 53.97
Z
M100.10 50.39
L100.07 50.49
C99.98 50.78 99.81 51.09 99.58 51.40
C99.35 51.72 99.08 51.98 98.77 52.20
L98.71 52.24
L98.71 52.32
L98.71 53.16
L98.71 53.40
L98.93 53.29
C99.12 53.18 99.34 53.02 99.57 52.81
C99.67 52.71 99.77 52.61 99.86 52.51
L99.86 52.51
L99.86 57.68
L99.86 57.82
L100.72 57.82
L100.72 57.68
L100.72 50.53
L100.72 50.39
Z
M103.70 50.39
C103.42 50.39 103.17 50.47 102.94 50.63
C102.73 50.79 102.53 51.03 102.37 51.34
C102.04 51.94 101.88 52.95 101.88 54.35
C101.88 55.61 102.04 56.52 102.36 57.08
C102.52 57.36 102.71 57.57 102.92 57.72
C103.14 57.87 103.38 57.94 103.64 57.94
C103.94 57.94 104.21 57.84 104.46 57.63
C104.69 57.43 104.88 57.13 105.03 56.71
C105.18 56.31 105.25 55.86 105.25 55.37
C105.25 54.64 105.10 54.05 104.81 53.61
C104.51 53.15 104.14 52.92 103.72 52.92
C103.47 52.92 103.23 53.01 103.00 53.19
C102.91 53.26 102.83 53.35 102.75 53.45
L102.75 53.45
C102.78 52.87 102.86 52.41 102.99 52.08
C103.08 51.84 103.19 51.66 103.31 51.54
C103.41 51.44 103.53 51.39 103.66 51.39
C103.66 51.39 103.66 51.39 103.66 51.39
C103.66 51.39 103.66 51.39 103.66 51.39
C103.83 51.39 103.97 51.48 104.09 51.67
C104.19 51.81 104.26 52.05 104.31 52.39
L104.33 52.53
L104.47 52.51
L105.04 52.44
L105.18 52.43
L105.17 52.29
C105.11 51.68 104.96 51.22 104.70 50.89
C104.43 50.56 104.10 50.39 103.70 50.39
Z
" fill="white" fill-rule="nonzero" />
<path d="
M100.21 62.49
C100.11 62.81 99.94 63.12 99.69 63.45
C99.45 63.78 99.17 64.06 98.86 64.28
L98.86 65.13
C99.04 65.02 99.25 64.87 99.47 64.67
C99.69 64.47 99.87 64.27 100.00 64.07
L100.00 69.65
L100.58 69.65
L100.58 62.49
Z
M102.09 62.62
L102.09 63.46
L104.37 63.46
C104.08 63.96 103.81 64.57 103.56 65.29
C103.31 66.01 103.11 66.77 102.97 67.56
C102.82 68.36 102.75 69.05 102.74 69.65
L103.33 69.65
C103.38 68.49 103.58 67.33 103.92 66.16
C104.26 64.98 104.66 64.03 105.11 63.30
L105.11 62.62
Z
" fill="black" fill-rule="nonzero" />
<path d="
M112.11 38.62
C112.01 38.93 111.84 39.25 111.60 39.58
C111.36 39.91 111.08 40.18 110.76 40.41
L110.76 41.26
C110.95 41.15 111.15 41.00 111.38 40.80
C111.60 40.59 111.78 40.40 111.91 40.20
L111.91 45.77
L112.48 45.77
L112.48 38.62
Z
M114.51 38.75
L114.05 42.41
L114.59 42.51
C114.68 42.30 114.80 42.13 114.95 42.01
C115.11 41.89 115.27 41.82 115.44 41.82
C115.73 41.82 115.97 41.96 116.16 42.24
C116.35 42.53 116.44 42.92 116.44 43.43
C116.44 43.97 116.35 44.40 116.15 44.71
C115.95 45.02 115.72 45.18 115.45 45.18
C115.23 45.18 115.04 45.07 114.87 44.84
C114.71 44.62 114.60 44.28 114.56 43.83
L113.95 43.91
C113.99 44.53 114.15 45.02 114.43 45.37
C114.71 45.72 115.05 45.90 115.45 45.90
C115.94 45.90 116.33 45.65 116.62 45.15
C116.91 44.65 117.05 44.06 117.05 43.36
C117.05 42.65 116.91 42.09 116.62 41.68
C116.33 41.26 115.99 41.05 115.60 41.05
C115.29 41.05 114.99 41.20 114.71 41.50
L114.97 39.59
L116.83 39.59
L116.83 38.75
Z
" fill="black" fill-rule="nonzero" />
<path d="
M111.89 50.59
C111.45 50.59 111.10 50.76 110.83 51.11
C110.56 51.45 110.41 51.97 110.37 52.65
L110.96 52.74
C110.96 52.28 111.04 51.93 111.21 51.68
C111.38 51.44 111.60 51.31 111.87 51.31
C112.12 51.31 112.33 51.43 112.50 51.66
C112.67 51.88 112.75 52.18 112.75 52.54
C112.75 52.86 112.67 53.20 112.50 53.56
C112.34 53.92 111.99 54.44 111.45 55.11
C110.99 55.68 110.68 56.18 110.50 56.60
C110.33 57.02 110.25 57.40 110.26 57.74
L113.35 57.74
L113.35 56.90
L111.05 56.90
C111.12 56.74 111.20 56.58 111.30 56.42
C111.40 56.27 111.62 55.97 111.96 55.53
C112.50 54.84 112.86 54.28 113.05 53.87
C113.24 53.45 113.34 53.02 113.34 52.56
C113.34 52.05 113.22 51.59 112.97 51.19
C112.73 50.79 112.37 50.59 111.89 50.59
Z
M115.74 50.59
C115.64 50.90 115.47 51.22 115.23 51.55
C114.99 51.87 114.71 52.15 114.39 52.38
L114.39 53.22
C114.58 53.12 114.78 52.97 115.01 52.76
C115.23 52.56 115.41 52.36 115.54 52.17
L115.54 57.74
L116.11 57.74
L116.11 50.59
Z
" fill="black" fill-rule="nonzero" />
</g>
<g  transform="translate(1.19,228.58)" >
<path d="
M109.47 2.72
C109.30 2.72 109.16 2.78 109.05 2.89
C108.93 3.01 108.88 3.15 108.88 3.31
C108.88 3.47 108.93 3.61 109.05 3.73
C109.17 3.84 109.31 3.90 109.47 3.90
C109.63 3.90 109.77 3.84 109.88 3.73
C110.00 3.61 110.06 3.47 110.06 3.31
C110.06 3.15 110.00 3.01 109.88 2.89
C109.77 2.78 109.63 2.72 109.47 2.72
Z
M114.44 7.81
L114.44 9.84
C113.96 10.23 113.57 10.42 113.28 10.42
C113.06 10.42 112.87 10.33 112.70 10.15
C112.53 9.96 112.45 9.73 112.45 9.45
C112.45 9.23 112.52 9.03 112.65 8.84
C112.78 8.66 113.00 8.48 113.31 8.31
C113.48 8.21 113.85 8.05 114.44 7.81
Z
M102.79 3.55
C103.72 3.55 104.48 3.86 105.07 4.49
C105.67 5.12 105.96 5.98 105.96 7.06
C105.96 8.15 105.67 9.00 105.07 9.63
C104.48 10.27 103.74 10.58 102.84 10.58
C102.50 10.58 102.09 10.53 101.60 10.42
L101.60 3.72
C102.04 3.60 102.44 3.55 102.79 3.55
Z
M99.35 3.11
L99.35 3.32
L99.64 3.32
C99.94 3.32 100.17 3.41 100.32 3.58
C100.43 3.70 100.48 4.01 100.48 4.50
L100.48 9.59
C100.48 10.04 100.44 10.33 100.35 10.45
C100.21 10.67 99.98 10.77 99.64 10.77
L99.35 10.77
L99.35 10.99
L102.87 10.99
C104.40 10.99 105.54 10.58 106.29 9.76
C106.96 9.02 107.29 8.10 107.29 7.01
C107.29 6.19 107.10 5.47 106.73 4.84
C106.35 4.22 105.86 3.77 105.25 3.51
C104.63 3.24 103.74 3.11 102.56 3.11
Z
M109.70 5.51
L108.09 6.16
L108.17 6.37
C108.33 6.31 108.46 6.28 108.57 6.28
C108.67 6.28 108.75 6.30 108.81 6.35
C108.86 6.40 108.91 6.49 108.93 6.61
C108.97 6.78 108.99 7.16 108.99 7.73
L108.99 9.79
C108.99 10.11 108.96 10.34 108.91 10.45
C108.86 10.57 108.79 10.65 108.70 10.70
C108.61 10.75 108.43 10.78 108.17 10.78
L108.17 10.99
L110.76 10.99
L110.76 10.78
C110.51 10.78 110.33 10.75 110.24 10.70
C110.14 10.64 110.07 10.56 110.02 10.45
C109.98 10.34 109.95 10.12 109.95 9.79
L109.95 5.51
Z
M113.63 5.51
C113.01 5.51 112.53 5.65 112.19 5.93
C111.85 6.20 111.68 6.51 111.68 6.84
C111.68 7.02 111.72 7.16 111.81 7.26
C111.91 7.36 112.02 7.41 112.17 7.41
C112.31 7.41 112.43 7.36 112.52 7.26
C112.62 7.17 112.66 7.03 112.66 6.85
L112.65 6.51
C112.65 6.34 112.72 6.19 112.87 6.06
C113.01 5.93 113.21 5.86 113.45 5.86
C113.77 5.86 114.02 5.96 114.19 6.16
C114.36 6.36 114.44 6.72 114.44 7.25
L114.44 7.46
C113.53 7.79 112.87 8.08 112.48 8.31
C112.08 8.54 111.81 8.79 111.65 9.05
C111.53 9.24 111.47 9.47 111.47 9.73
C111.47 10.14 111.59 10.47 111.83 10.72
C112.07 10.97 112.37 11.10 112.74 11.10
C112.98 11.10 113.20 11.05 113.41 10.95
C113.55 10.89 113.89 10.64 114.44 10.22
C114.44 10.54 114.50 10.76 114.61 10.90
C114.73 11.03 114.88 11.09 115.07 11.09
C115.46 11.09 115.88 10.80 116.31 10.22
L116.31 9.90
C116.08 10.13 115.92 10.27 115.84 10.32
C115.79 10.35 115.74 10.36 115.68 10.36
C115.62 10.36 115.57 10.34 115.52 10.30
C115.48 10.26 115.45 10.19 115.43 10.07
C115.41 9.96 115.40 9.65 115.40 9.14
L115.40 7.33
C115.40 6.82 115.36 6.48 115.29 6.31
C115.19 6.05 115.02 5.87 114.79 5.75
C114.49 5.59 114.10 5.51 113.63 5.51
Z
M125.03 2.94
C124.51 2.94 124.09 3.09 123.74 3.38
C123.40 3.67 123.12 4.08 122.89 4.61
L123.08 4.70
C123.49 4.06 123.99 3.73 124.59 3.73
C124.96 3.73 125.27 3.86 125.52 4.10
C125.77 4.35 125.90 4.67 125.90 5.07
C125.90 5.38 125.83 5.66 125.69 5.91
C125.55 6.17 125.32 6.39 125.02 6.57
C124.71 6.75 124.40 6.86 124.10 6.90
L124.10 7.08
L124.28 7.08
C124.58 7.08 124.88 7.14 125.17 7.27
C125.46 7.39 125.69 7.53 125.86 7.69
C125.98 7.80 126.09 7.96 126.19 8.18
C126.32 8.47 126.39 8.77 126.39 9.08
C126.39 9.49 126.25 9.86 125.95 10.16
C125.66 10.47 125.32 10.62 124.92 10.62
C124.76 10.62 124.61 10.60 124.46 10.56
C124.37 10.54 124.21 10.46 123.98 10.34
C123.75 10.22 123.60 10.15 123.53 10.13
C123.43 10.10 123.33 10.08 123.24 10.08
C123.11 10.08 123.00 10.12 122.91 10.21
C122.82 10.30 122.77 10.39 122.77 10.51
C122.77 10.66 122.87 10.80 123.06 10.93
C123.25 11.06 123.61 11.13 124.14 11.13
C125.22 11.13 126.04 10.80 126.60 10.15
C127.03 9.65 127.25 9.06 127.25 8.38
C127.25 7.90 127.13 7.49 126.88 7.13
C126.63 6.78 126.27 6.51 125.78 6.32
C126.50 5.71 126.86 5.12 126.86 4.54
C126.86 4.19 126.73 3.87 126.48 3.56
C126.14 3.15 125.66 2.94 125.03 2.94
Z
M117.82 9.86
C117.64 9.86 117.49 9.92 117.37 10.05
C117.24 10.17 117.18 10.32 117.18 10.51
C117.18 10.68 117.24 10.84 117.37 10.96
C117.49 11.09 117.64 11.15 117.82 11.15
C118.00 11.15 118.15 11.09 118.28 10.96
C118.41 10.84 118.47 10.68 118.47 10.51
C118.47 10.33 118.41 10.18 118.28 10.05
C118.16 9.92 118.01 9.86 117.82 9.86
Z
" fill="black" fill-rule="nonzero" />
</g>
<g  transform="translate(1.19,242.53)" >
<circle cx="104.29" cy="6.08" r="6.01" fill="black"/>
<path d="
M104.30 5.89
C104.57 5.89 104.80 6.01 104.98 6.25
C105.18 6.50 105.28 6.86 105.28 7.32
C105.28 7.80 105.18 8.17 104.98 8.44
C104.79 8.69 104.58 8.82 104.35 8.82
C104.35 8.82 104.35 8.82 104.35 8.82
C104.35 8.82 104.35 8.82 104.34 8.82
C104.07 8.82 103.83 8.68 103.62 8.41
C103.40 8.13 103.29 7.75 103.29 7.27
C103.29 6.84 103.40 6.50 103.60 6.25
C103.80 6.01 104.03 5.89 104.30 5.89
C104.30 5.89 104.30 5.89 104.30 5.89
C104.30 5.89 104.30 5.89 104.30 5.89
Z
M104.41 2.34
C103.75 2.34 103.22 2.65 102.80 3.27
C102.40 3.87 102.19 4.87 102.19 6.26
C102.19 7.51 102.39 8.42 102.79 8.97
C103.19 9.53 103.71 9.81 104.34 9.81
C104.69 9.81 105.02 9.71 105.31 9.51
C105.60 9.32 105.84 9.01 106.02 8.61
C106.20 8.21 106.29 7.76 106.29 7.27
C106.29 6.54 106.11 5.96 105.75 5.52
C105.38 5.07 104.94 4.85 104.44 4.84
C104.14 4.84 103.85 4.93 103.58 5.10
C103.44 5.19 103.31 5.31 103.20 5.44
L103.20 5.44
C103.23 4.83 103.33 4.36 103.50 4.03
C103.61 3.79 103.74 3.61 103.89 3.50
C104.03 3.39 104.19 3.34 104.36 3.34
C104.36 3.34 104.36 3.34 104.36 3.34
C104.36 3.34 104.36 3.34 104.36 3.34
C104.59 3.34 104.78 3.43 104.94 3.62
C105.05 3.76 105.14 3.99 105.20 4.33
L105.23 4.46
L105.35 4.45
L106.06 4.38
L106.20 4.36
L106.19 4.22
C106.12 3.62 105.93 3.16 105.61 2.83
C105.28 2.51 104.88 2.34 104.41 2.34
Z
" fill="white" fill-rule="nonzero" />
<path d="
M123.56 4.47
L124.52 6.76
L122.57 6.76
L123.56 4.47
Z
M114.83 6.68
L114.83 8.15
C114.48 8.42 114.20 8.56 113.99 8.56
C113.83 8.56 113.69 8.50 113.57 8.37
C113.45 8.23 113.39 8.07 113.39 7.86
C113.39 7.71 113.44 7.56 113.54 7.43
C113.63 7.29 113.79 7.16 114.01 7.04
C114.13 6.97 114.40 6.85 114.83 6.68
Z
M123.71 3.16
L121.72 7.84
C121.54 8.25 121.38 8.52 121.24 8.65
C121.17 8.72 121.02 8.77 120.78 8.82
L120.78 8.97
L122.57 8.97
L122.57 8.82
C122.30 8.80 122.12 8.75 122.04 8.69
C121.95 8.62 121.91 8.55 121.91 8.46
C121.91 8.35 121.96 8.19 122.05 7.97
L122.44 7.07
L124.64 7.07
L124.98 7.89
C125.09 8.15 125.15 8.34 125.15 8.47
C125.15 8.56 125.11 8.64 125.03 8.70
C124.95 8.77 124.80 8.80 124.57 8.82
L124.57 8.97
L126.81 8.97
L126.81 8.82
C126.58 8.80 126.40 8.74 126.27 8.62
C126.14 8.51 125.99 8.27 125.83 7.89
L123.86 3.16
Z
M117.44 3.88
C117.33 4.16 117.24 4.35 117.17 4.46
C117.05 4.66 116.91 4.83 116.74 4.98
C116.58 5.13 116.43 5.23 116.27 5.29
L116.27 5.43
L116.88 5.43
L116.88 8.01
C116.88 8.28 116.91 8.49 116.97 8.62
C117.03 8.75 117.12 8.85 117.24 8.93
C117.36 9.00 117.49 9.03 117.62 9.03
C117.81 9.03 117.99 8.96 118.17 8.83
C118.35 8.69 118.49 8.48 118.58 8.21
L118.42 8.21
C118.37 8.32 118.31 8.40 118.22 8.46
C118.13 8.52 118.04 8.55 117.95 8.55
C117.84 8.55 117.75 8.50 117.68 8.42
C117.61 8.33 117.57 8.16 117.57 7.92
L117.57 5.43
L118.47 5.43
L118.47 5.14
L117.57 5.14
L117.57 3.88
Z
M114.24 5.02
C113.80 5.02 113.45 5.12 113.21 5.32
C112.96 5.53 112.84 5.75 112.84 5.99
C112.84 6.11 112.87 6.21 112.94 6.28
C113.00 6.36 113.09 6.39 113.19 6.39
C113.30 6.39 113.38 6.36 113.45 6.29
C113.51 6.22 113.54 6.12 113.54 5.99
L113.54 5.75
C113.54 5.62 113.59 5.52 113.70 5.42
C113.80 5.33 113.94 5.28 114.11 5.28
C114.35 5.28 114.52 5.35 114.64 5.49
C114.77 5.63 114.83 5.90 114.83 6.28
L114.83 6.43
C114.17 6.67 113.70 6.87 113.41 7.04
C113.13 7.21 112.93 7.39 112.82 7.58
C112.73 7.71 112.69 7.87 112.69 8.06
C112.69 8.36 112.78 8.60 112.95 8.78
C113.12 8.96 113.34 9.05 113.60 9.05
C113.77 9.05 113.93 9.01 114.08 8.94
C114.19 8.90 114.43 8.72 114.83 8.42
C114.83 8.65 114.87 8.81 114.95 8.90
C115.03 9.00 115.14 9.05 115.28 9.05
C115.56 9.05 115.86 8.84 116.17 8.42
L116.17 8.18
C116.01 8.35 115.89 8.45 115.83 8.49
C115.80 8.51 115.76 8.52 115.72 8.52
C115.68 8.52 115.64 8.50 115.61 8.48
C115.57 8.45 115.55 8.39 115.54 8.31
C115.52 8.23 115.52 8.00 115.52 7.64
L115.52 6.34
C115.52 5.97 115.49 5.72 115.44 5.60
C115.36 5.42 115.24 5.28 115.08 5.19
C114.86 5.08 114.58 5.02 114.24 5.02
Z
M127.98 8.16
C127.85 8.16 127.74 8.20 127.65 8.29
C127.56 8.38 127.51 8.49 127.51 8.62
C127.51 8.75 127.56 8.86 127.65 8.95
C127.74 9.04 127.85 9.09 127.98 9.09
C128.11 9.09 128.21 9.04 128.31 8.95
C128.40 8.86 128.44 8.75 128.44 8.62
C128.44 8.49 128.40 8.38 128.31 8.29
C128.22 8.20 128.11 8.16 127.98 8.16
Z
" fill="black" fill-rule="nonzero" />
</g>
</g>
</svg>
