<?xml version="1.0" encoding="utf-8" standalone="no"?>
<!DOCTYPE svg PUBLIC "-//W3C//DTD SVG 1.0//EN" "http://www.w3.org/TR/SVG/DTD/svg11.dtd" >
<svg version="1.1" baseProfile="full"  width="319.13385" height="338.46454" viewBox="0 0 229.77638 243.69449" preserveAspectRatio="xMidYMid" xmlns="http://www.w3.org/2000/svg" >

<g lengthAdjust="spacingAndGlyphs" xml:space='preserve' >
<g  transform="translate(1.19,1.19)" >
<path d="
M0.0 0.0
L0.0 227.39
L227.39 227.39
L227.39 0.0
Z
" fill="none" fill-rule="nonzero" />
<line x1="6.54" y1="6.54" x2="6.54" y2="220.84" fill="none" stroke="black" stroke-width="0.87px" stroke-linecap="square" />
<line x1="18.45" y1="6.54" x2="18.45" y2="220.84" fill="none" stroke="black" stroke-width="0.25px" stroke-linecap="butt" />
<line x1="30.35" y1="6.54" x2="30.35" y2="220.84" fill="none" stroke="black" stroke-width="0.25px" stroke-linecap="butt" />
<line x1="42.26" y1="6.54" x2="42.26" y2="220.84" fill="none" stroke="black" stroke-width="0.25px" stroke-linecap="butt" />
<line x1="54.17" y1="6.54" x2="54.17" y2="220.84" fill="none" stroke="black" stroke-width="0.25px" stroke-linecap="butt" />
<line x1="66.07" y1="6.54" x2="66.07" y2="167.27" fill="none" stroke="black" stroke-width="0.25px" stroke-linecap="butt" />
<line x1="66.07" y1="179.17" x2="66.07" y2="220.84" fill="none" stroke="black" stroke-width="0.25px" stroke-linecap="butt" />
<line x1="77.98" y1="6.54" x2="77.98" y2="220.84" fill="none" stroke="black" stroke-width="0.25px" stroke-linecap="butt" />
<line x1="89.88" y1="6.54" x2="89.88" y2="220.84" fill="none" stroke="black" stroke-width="0.25px" stroke-linecap="butt" />
<line x1="101.79" y1="6.54" x2="101.79" y2="220.84" fill="none" stroke="black" stroke-width="0.25px" stroke-linecap="butt" />
<line x1="113.69" y1="6.54" x2="113.69" y2="220.84" fill="none" stroke="black" stroke-width="0.25px" stroke-linecap="butt" />
<line x1="125.60" y1="6.54" x2="125.60" y2="220.84" fill="none" stroke="black" stroke-width="0.25px" stroke-linecap="butt" />
<line x1="137.50" y1="6.54" x2="137.50" y2="220.84" fill="none" stroke="black" stroke-width="0.25px" stroke-linecap="butt" />
<line x1="149.41" y1="6.54" x2="149.41" y2="220.84" fill="none" stroke="black" stroke-width="0.25px" stroke-linecap="butt" />
<line x1="161.31" y1="6.54" x2="161.31" y2="220.84" fill="none" stroke="black" stroke-width="0.25px" stroke-linecap="butt" />
<line x1="173.22" y1="6.54" x2="173.22" y2="220.84" fill="none" stroke="black" stroke-width="0.25px" stroke-linecap="butt" />
<line x1="185.13" y1="6.54" x2="185.13" y2="220.84" fill="none" stroke="black" stroke-width="0.25px" stroke-linecap="butt" />
<line x1="197.03" y1="6.54" x2="197.03" y2="220.84" fill="none" stroke="black" stroke-width="0.25px" stroke-linecap="butt" />
<line x1="208.94" y1="6.54" x2="208.94" y2="220.84" fill="none" stroke="black" stroke-width="0.25px" stroke-linecap="butt" />
<line x1="220.84" y1="6.54" x2="220.84" y2="220.84" fill="none" stroke="black" stroke-width="0.87px" stroke-linecap="square" />
<line x1="6.54" y1="6.54" x2="220.84" y2="6.54" fill="none" stroke="black" stroke-width="0.87px" stroke-linecap="square" />
<line x1="6.54" y1="18.45" x2="220.84" y2="18.45" fill="none" stroke="black" stroke-width="0.25px" stroke-linecap="butt" />
<line x1="6.54" y1="30.35" x2="220.84" y2="30.35" fill="none" stroke="black" stroke-width="0.25px" stroke-linecap="butt" />
<line x1="6.54" y1="42.26" x2="220.84" y2="42.26" fill="none" stroke="black" stroke-width="0.25px" stroke-linecap="butt" />
<line x1="6.54" y1="54.17" x2="220.84" y2="54.17" fill="none" stroke="black" stroke-width="0.25px" stroke-linecap="butt" />
<line x1="6.54" y1="66.07" x2="220.84" y2="66.07" fill="none" stroke="black" stroke-width="0.25px" stroke-linecap="butt" />
<line x1="6.54" y1="77.98" x2="220.84" y2="77.98" fill="none" stroke="black" stroke-width="0.25px" stroke-linecap="butt" />
<line x1="6.54" y1="89.88" x2="220.84" y2="89.88" fill="none" stroke="black" stroke-width="0.25px" stroke-linecap="butt" />
<line x1="6.54" y1="101.79" x2="220.84" y2="101.79" fill="none" stroke="black" stroke-width="0.25px" stroke-linecap="butt" />
<line x1="6.54" y1="113.69" x2="220.84" y2="113.69" fill="none" stroke="black" stroke-width="0.25px" stroke-linecap="butt" />
<line x1="6.54" y1="125.60" x2="220.84" y2="125.60" fill="none" stroke="black" stroke-width="0.25px" stroke-linecap="butt" />
<line x1="6.54" y1="137.50" x2="220.84" y2="137.50" fill="none" stroke="black" stroke-width="0.25px" stroke-linecap="butt" />
<line x1="6.54" y1="149.41" x2="220.84" y2="149.41" fill="none" stroke="black" stroke-width="0.25px" stroke-linecap="butt" />
<line x1="6.54" y1="161.31" x2="220.84" y2="161.31" fill="none" stroke="black" stroke-width="0.25px" stroke-linecap="butt" />
<line x1="6.54" y1="173.22" x2="60.12" y2="173.22" fill="none" stroke="black" stroke-width="0.25px" stroke-linecap="butt" />
<line x1="72.02" y1="173.22" x2="220.84" y2="173.22" fill="none" stroke="black" stroke-width="0.25px" stroke-linecap="butt" />
<line x1="6.54" y1="185.13" x2="220.84" y2="185.13" fill="none" stroke="black" stroke-width="0.25px" stroke-linecap="butt" />
<line x1="6.54" y1="197.03" x2="220.84" y2="197.03" fill="none" stroke="black" stroke-width="0.25px" stroke-linecap="butt" />
<line x1="6.54" y1="208.94" x2="220.84" y2="208.94" fill="none" stroke="black" stroke-width="0.25px" stroke-linecap="butt" />
<line x1="6.54" y1="220.84" x2="220.84" y2="220.84" fill="none" stroke="black" stroke-width="0.87px" stroke-linecap="square" />
<circle cx="30.35" cy="161.31" r="5.85" fill="white"/>
<circle cx="30.35" cy="161.31" r="5.85" fill="none" stroke="black" stroke-width="0.25px"/>
<circle cx="42.26" cy="42.26" r="5.85" fill="white"/>
<circle cx="42.26" cy="42.26" r="5.85" fill="none" stroke="black" stroke-width="0.25px"/>
<circle cx="42.26" cy="113.69" r="1.27" fill="black"/>
<circle cx="42.26" cy="185.13" r="5.85" fill="white"/>
<circle cx="42.26" cy="185.13" r="5.85" fill="none" stroke="black" stroke-width="0.25px"/>
<circle cx="66.07" cy="197.03" r="5.98" fill="black"/>
<circle cx="113.69" cy="42.26" r="1.27" fill="black"/>
<circle cx="113.69" cy="113.69" r="1.27" fill="black"/>
<circle cx="113.69" cy="185.13" r="5.98" fill="black"/>
<circle cx="161.31" cy="30.35" r="5.85" fill="white"/>
<circle cx="161.31" cy="30.35" r="5.85" fill="none" stroke="black" stroke-width="0.25px"/>
<circle cx="161.31" cy="161.31" r="5.98" fill="black"/>
<circle cx="161.31" cy="185.13" r="5.98" fill="black"/>
<circle cx="173.22" cy="149.41" r="5.85" fill="white"/>
<circle cx="173.22" cy="149.41" r="5.85" fill="none" stroke="black" stroke-width="0.25px"/>
<circle cx="173.22" cy="161.31" r="5.98" fill="black"/>
<circle cx="185.13" cy="18.45" r="5.85" fill="white"/>
<circle cx="185.13" cy="18.45" r="5.85" fill="none" stroke="black" stroke-width="0.25px"/>
<circle cx="185.13" cy="42.26" r="5.98" fill="black"/>
<circle cx="185.13" cy="66.07" r="5.98" fill="black"/>
<circle cx="185.13" cy="113.69" r="1.27" fill="black"/>
<circle cx="185.13" cy="137.50" r="5.98" fill="black"/>
<circle cx="185.13" cy="149.41" r="5.85" fill="white"/>
<circle cx="185.13" cy="149.41" r="5.85" fill="none" stroke="black" stroke-width="0.25px"/>
<circle cx="185.13" cy="161.31" r="5.85" fill="white"/>
<circle cx="185.13" cy="161.31" r="5.85" fill="none" stroke="black" stroke-width="0.25px"/>
<circle cx="185.13" cy="173.22" r="5.85" fill="white"/>
<circle cx="185.13" cy="173.22" r="5.85" fill="none" stroke="black" stroke-width="0.25px"/>
<circle cx="185.13" cy="185.13" r="1.27" fill="black"/>
<circle cx="185.13" cy="197.03" r="5.98" fill="black"/>
<circle cx="197.03" cy="113.69" r="5.98" fill="black"/>
<circle cx="197.03" cy="125.60" r="5.98" fill="black"/>
<circle cx="197.03" cy="149.41" r="5.85" fill="white"/>
<circle cx="197.03" cy="149.41" r="5.85" fill="none" stroke="black" stroke-width="0.25px"/>
<circle cx="197.03" cy="185.13" r="5.85" fill="white"/>
<circle cx="197.03" cy="185.13" r="5.85" fill="none" stroke="black" stroke-width="0.25px"/>
<circle cx="197.03" cy="197.03" r="5.85" fill="white"/>
<circle cx="197.03" cy="197.03" r="5.85" fill="none" stroke="black" stroke-width="0.25px"/>
<circle cx="197.03" cy="208.94" r="5.98" fill="black"/>
<circle cx="208.94" cy="113.69" r="5.98" fill="black"/>
<circle cx="208.94" cy="125.60" r="5.85" fill="white"/>
<circle cx="208.94" cy="125.60" r="5.85" fill="none" stroke="black" stroke-width="0.25px"/>
<circle cx="208.94" cy="137.50" r="5.85" fill="white"/>
<circle cx="208.94" cy="137.50" r="5.85" fill="none" stroke="black" stroke-width="0.25px"/>
<circle cx="208.94" cy="208.94" r="5.98" fill="black"/>
<path d="
M32.11 158.40
C32.40 158.40 32.63 158.60 32.80 158.99
C32.98 159.38 33.07 160.16 33.07 161.32
C33.07 162.46 32.98 163.24 32.81 163.63
C32.63 164.03 32.41 164.23 32.15 164.23
C31.87 164.23 31.65 164.04 31.47 163.64
C31.29 163.25 31.20 162.47 31.20 161.32
C31.20 160.17 31.29 159.40 31.46 159.00
C31.64 158.60 31.86 158.40 32.11 158.40
Z
M28.77 157.68
C28.67 157.99 28.50 158.31 28.26 158.64
C28.02 158.96 27.74 159.24 27.42 159.47
L27.42 160.31
C27.61 160.21 27.81 160.05 28.04 159.85
C28.26 159.65 28.44 159.45 28.57 159.26
L28.57 164.83
L29.15 164.83
L29.15 157.68
Z
M32.14 157.68
C31.64 157.68 31.26 157.99 31.00 158.60
C30.74 159.22 30.61 160.12 30.61 161.32
C30.61 162.65 30.76 163.59 31.04 164.13
C31.32 164.68 31.69 164.95 32.13 164.95
C32.64 164.95 33.02 164.64 33.28 164.03
C33.53 163.41 33.66 162.51 33.66 161.32
C33.66 159.99 33.51 159.03 33.20 158.43
C32.94 157.93 32.59 157.68 32.14 157.68
Z
" fill="black" fill-rule="nonzero" />
<path d="
M42.61 40.13
L42.61 43.30
L40.81 43.30
L42.61 40.13
Z
M42.74 38.74
L40.11 43.30
L40.11 44.09
L42.61 44.09
L42.61 45.78
L43.32 45.78
L43.32 44.09
L44.10 44.09
L44.10 43.30
L43.32 43.30
L43.32 38.74
Z
" fill="black" fill-rule="nonzero" />
<path d="
M42.27 181.59
C41.73 181.59 41.30 181.76 40.97 182.10
C40.64 182.44 40.44 182.95 40.39 183.63
L41.12 183.72
C41.12 183.26 41.23 182.92 41.44 182.67
C41.65 182.43 41.92 182.31 42.25 182.31
C42.56 182.31 42.82 182.42 43.03 182.65
C43.23 182.87 43.34 183.16 43.34 183.52
C43.34 183.83 43.24 184.17 43.03 184.53
C42.83 184.89 42.39 185.40 41.73 186.06
C41.17 186.62 40.78 187.11 40.56 187.53
C40.35 187.95 40.25 188.32 40.26 188.66
L44.07 188.66
L44.07 187.83
L41.24 187.83
C41.32 187.67 41.42 187.51 41.54 187.36
C41.67 187.20 41.94 186.91 42.36 186.47
C43.02 185.79 43.47 185.24 43.71 184.83
C43.95 184.42 44.06 183.99 44.06 183.54
C44.06 183.04 43.91 182.58 43.61 182.19
C43.31 181.79 42.86 181.59 42.27 181.59
Z
" fill="black" fill-rule="nonzero" />
<path d="
M65.99 171.18
L67.04 174.02
L64.95 174.02
L65.99 171.18
Z
M65.19 169.39
L62.20 177.05
L63.84 177.05
L64.48 175.31
L67.54 175.31
L68.21 177.05
L69.89 177.05
L66.82 169.39
Z
" fill="black" fill-rule="nonzero" />
<path d="
M66.05 194.30
C66.05 194.30 66.05 194.30 66.05 194.30
C66.05 194.30 66.05 194.30 66.05 194.30
C66.30 194.30 66.52 194.42 66.71 194.67
C66.92 194.94 67.02 195.30 67.02 195.77
C67.02 196.24 66.92 196.61 66.72 196.85
C66.53 197.09 66.31 197.21 66.04 197.21
C66.04 197.21 66.04 197.21 66.04 197.21
C66.04 197.21 66.04 197.21 66.03 197.21
C65.76 197.21 65.53 197.09 65.33 196.85
C65.12 196.61 65.02 196.27 65.02 195.84
C65.02 195.36 65.13 194.98 65.35 194.70
C65.56 194.43 65.79 194.30 66.05 194.30
Z
M65.97 193.30
C65.42 193.30 64.95 193.53 64.57 193.98
C64.20 194.43 64.01 195.04 64.01 195.81
C64.01 196.56 64.19 197.15 64.55 197.59
C64.92 198.04 65.36 198.26 65.88 198.26
C66.17 198.26 66.45 198.17 66.72 197.99
C66.86 197.90 66.98 197.79 67.09 197.66
L67.09 197.66
C67.07 198.08 67.01 198.44 66.90 198.77
C66.77 199.15 66.63 199.42 66.45 199.56
C66.29 199.70 66.10 199.77 65.90 199.77
C65.90 199.77 65.90 199.77 65.90 199.77
C65.90 199.77 65.90 199.77 65.89 199.77
C65.67 199.77 65.50 199.70 65.37 199.54
C65.22 199.38 65.13 199.12 65.08 198.78
L65.06 198.64
L64.92 198.66
L64.24 198.74
L64.10 198.75
L64.12 198.89
C64.18 199.49 64.37 199.95 64.68 200.27
C65.01 200.60 65.41 200.77 65.88 200.77
C66.30 200.77 66.68 200.63 67.02 200.37
C67.35 200.10 67.62 199.69 67.81 199.13
C68.00 198.58 68.09 197.81 68.09 196.83
C68.09 195.95 68.00 195.27 67.83 194.79
C67.65 194.30 67.39 193.93 67.06 193.68
C66.72 193.43 66.36 193.30 65.97 193.30
Z
" fill="white" fill-rule="nonzero" />
<path d="
M112.01 181.41
L111.98 181.51
C111.88 181.80 111.72 182.11 111.49 182.42
C111.25 182.74 110.98 183.00 110.68 183.22
L110.62 183.26
L110.62 183.34
L110.62 184.18
L110.62 184.42
L110.83 184.31
C111.03 184.20 111.24 184.04 111.47 183.83
C111.58 183.73 111.68 183.63 111.77 183.53
L111.77 183.53
L111.77 188.70
L111.77 188.84
L112.63 188.84
L112.63 188.70
L112.63 181.55
L112.63 181.41
Z
M115.64 181.41
L115.61 181.51
C115.51 181.80 115.35 182.11 115.12 182.42
C114.88 182.74 114.61 183.00 114.31 183.22
L114.25 183.26
L114.25 183.34
L114.25 184.18
L114.25 184.42
L114.46 184.31
C114.66 184.20 114.87 184.04 115.10 183.83
C115.21 183.73 115.31 183.63 115.40 183.53
L115.40 183.53
L115.40 188.70
L115.40 188.84
L116.26 188.84
L116.26 188.70
L116.26 181.55
L116.26 181.41
Z
" fill="white" fill-rule="nonzero" />
<path d="
M161.32 30.03
C161.64 30.03 161.90 30.16 162.12 30.44
C162.34 30.71 162.45 31.10 162.45 31.60
C162.45 32.11 162.34 32.51 162.12 32.80
C161.90 33.09 161.65 33.24 161.37 33.24
C161.06 33.24 160.78 33.08 160.54 32.77
C160.30 32.46 160.18 32.06 160.18 31.55
C160.18 31.08 160.29 30.71 160.52 30.44
C160.75 30.16 161.02 30.03 161.32 30.03
Z
M161.43 26.76
C160.83 26.76 160.33 27.05 159.94 27.63
C159.56 28.21 159.36 29.17 159.36 30.53
C159.36 31.76 159.55 32.63 159.93 33.16
C160.31 33.68 160.79 33.95 161.37 33.95
C161.69 33.95 161.99 33.86 162.26 33.67
C162.52 33.49 162.74 33.21 162.92 32.83
C163.09 32.44 163.17 32.02 163.17 31.55
C163.17 30.85 163.00 30.30 162.66 29.88
C162.32 29.47 161.92 29.26 161.46 29.26
C161.19 29.26 160.93 29.34 160.68 29.50
C160.43 29.66 160.23 29.89 160.07 30.20
C160.07 29.33 160.18 28.68 160.39 28.24
C160.64 27.73 160.97 27.47 161.39 27.47
C161.65 27.47 161.88 27.58 162.07 27.81
C162.20 27.96 162.30 28.22 162.37 28.58
L163.07 28.51
C163.01 27.94 162.83 27.51 162.53 27.21
C162.24 26.91 161.87 26.76 161.43 26.76
Z
" fill="black" fill-rule="nonzero" />
<path d="
M163.11 158.54
C163.11 158.54 163.11 158.54 163.11 158.54
C163.12 158.54 163.12 158.54 163.12 158.54
C163.30 158.54 163.47 158.67 163.62 158.91
C163.79 159.18 163.87 159.56 163.87 160.04
C163.87 160.52 163.79 160.89 163.63 161.15
C163.48 161.38 163.31 161.50 163.11 161.50
C163.11 161.50 163.10 161.50 163.10 161.50
C163.10 161.50 163.10 161.50 163.10 161.50
C162.89 161.50 162.71 161.38 162.56 161.15
C162.39 160.90 162.31 160.55 162.31 160.11
C162.31 159.62 162.40 159.23 162.58 158.94
C162.74 158.68 162.92 158.54 163.11 158.54
Z
M159.63 157.54
L159.60 157.64
C159.50 157.93 159.34 158.24 159.11 158.55
C158.87 158.87 158.61 159.13 158.30 159.35
L158.24 159.39
L158.24 159.47
L158.24 160.31
L158.24 160.55
L158.45 160.44
C158.65 160.33 158.86 160.17 159.09 159.96
C159.20 159.86 159.30 159.76 159.39 159.66
L159.39 159.66
L159.39 164.83
L159.39 164.97
L160.25 164.97
L160.25 164.83
L160.25 157.68
L160.25 157.54
Z
M163.05 157.54
C162.59 157.54 162.20 157.77 161.89 158.24
C161.58 158.70 161.43 159.31 161.43 160.08
C161.43 160.83 161.58 161.43 161.87 161.87
C162.18 162.33 162.54 162.56 162.97 162.56
C163.22 162.56 163.45 162.46 163.68 162.27
C163.77 162.20 163.85 162.12 163.92 162.02
L163.92 162.02
C163.90 162.42 163.85 162.77 163.77 163.08
C163.67 163.47 163.55 163.74 163.41 163.89
C163.28 164.02 163.14 164.09 162.99 164.09
C162.99 164.09 162.99 164.09 162.99 164.09
C162.99 164.09 162.99 164.09 162.99 164.09
C162.82 164.09 162.69 164.02 162.59 163.87
C162.47 163.70 162.39 163.44 162.35 163.09
L162.34 162.94
L162.19 162.96
L161.64 163.04
L161.51 163.06
L161.52 163.19
C161.57 163.80 161.72 164.26 161.98 164.58
C162.24 164.92 162.58 165.09 162.98 165.09
C163.33 165.09 163.65 164.95 163.93 164.68
C164.20 164.41 164.41 163.99 164.56 163.43
C164.72 162.88 164.79 162.10 164.79 161.11
C164.79 160.22 164.72 159.54 164.58 159.06
C164.43 158.57 164.23 158.19 163.96 157.94
C163.68 157.67 163.38 157.54 163.05 157.54
Z
" fill="white" fill-rule="nonzero" />
<path d="
M159.63 181.35
L159.60 181.44
C159.50 181.74 159.34 182.05 159.11 182.36
C158.87 182.67 158.61 182.94 158.30 183.16
L158.24 183.20
L158.24 183.27
L158.24 184.12
L158.24 184.36
L158.45 184.24
C158.65 184.13 158.86 183.98 159.09 183.77
C159.20 183.67 159.30 183.57 159.39 183.47
L159.39 183.47
L159.39 188.64
L159.39 188.78
L160.25 188.78
L160.25 188.64
L160.25 181.49
L160.25 181.35
Z
M163.05 181.35
C162.64 181.35 162.30 181.52 162.02 181.86
C161.75 182.20 161.57 182.68 161.50 183.32
L161.48 183.44
L161.60 183.47
L162.17 183.63
L162.33 183.67
L162.35 183.50
C162.39 183.10 162.48 182.80 162.61 182.61
C162.74 182.43 162.88 182.35 163.05 182.35
C163.05 182.35 163.05 182.35 163.06 182.35
C163.06 182.35 163.06 182.35 163.06 182.35
C163.22 182.35 163.36 182.43 163.48 182.59
C163.61 182.77 163.68 183.01 163.68 183.31
C163.68 183.64 163.60 183.90 163.44 184.09
C163.30 184.27 163.11 184.37 162.87 184.37
L162.87 184.37
L162.79 184.36
L162.65 184.34
L162.63 184.49
L162.57 185.25
L162.55 185.48
L162.76 185.40
C162.91 185.34 163.02 185.31 163.11 185.31
C163.11 185.31 163.11 185.31 163.11 185.31
C163.12 185.31 163.12 185.31 163.12 185.31
C163.32 185.31 163.50 185.42 163.65 185.63
C163.81 185.86 163.89 186.16 163.89 186.55
C163.89 186.96 163.80 187.29 163.62 187.54
C163.46 187.78 163.27 187.90 163.06 187.90
C163.06 187.90 163.06 187.90 163.06 187.90
C163.06 187.90 163.06 187.90 163.06 187.90
C162.87 187.90 162.71 187.80 162.59 187.61
C162.45 187.40 162.35 187.07 162.29 186.62
L162.28 186.47
L162.13 186.50
L161.55 186.62
L161.43 186.64
L161.44 186.77
C161.48 187.41 161.65 187.92 161.94 188.31
C162.25 188.71 162.62 188.91 163.07 188.91
C163.54 188.91 163.95 188.68 164.29 188.22
C164.62 187.78 164.78 187.22 164.78 186.53
C164.78 186.21 164.74 185.92 164.66 185.66
C164.58 185.39 164.47 185.18 164.34 185.01
C164.25 184.90 164.15 184.81 164.03 184.75
L164.03 184.75
C164.17 184.61 164.28 184.45 164.37 184.25
C164.49 183.98 164.55 183.68 164.55 183.33
C164.55 182.77 164.41 182.30 164.13 181.93
C163.83 181.54 163.47 181.35 163.05 181.35
Z
" fill="white" fill-rule="nonzero" />
<path d="
M174.98 146.50
C175.26 146.50 175.49 146.69 175.67 147.08
C175.85 147.48 175.94 148.25 175.94 149.41
C175.94 150.56 175.85 151.33 175.67 151.73
C175.50 152.13 175.28 152.33 175.02 152.33
C174.74 152.33 174.51 152.13 174.33 151.74
C174.16 151.34 174.07 150.57 174.07 149.41
C174.07 148.27 174.15 147.49 174.33 147.09
C174.50 146.70 174.72 146.50 174.98 146.50
Z
M171.42 145.77
C170.98 145.77 170.63 145.95 170.36 146.29
C170.09 146.64 169.93 147.15 169.89 147.83
L170.48 147.93
C170.48 147.47 170.57 147.11 170.74 146.87
C170.91 146.62 171.13 146.50 171.40 146.50
C171.65 146.50 171.86 146.61 172.03 146.84
C172.19 147.07 172.28 147.36 172.28 147.73
C172.28 148.04 172.20 148.38 172.03 148.74
C171.87 149.11 171.51 149.62 170.98 150.29
C170.52 150.86 170.20 151.36 170.03 151.78
C169.86 152.20 169.78 152.58 169.78 152.92
L172.87 152.92
L172.87 152.08
L170.58 152.08
C170.64 151.93 170.72 151.77 170.82 151.61
C170.92 151.45 171.14 151.15 171.49 150.71
C172.02 150.02 172.39 149.47 172.58 149.05
C172.77 148.63 172.87 148.20 172.87 147.75
C172.87 147.23 172.74 146.78 172.50 146.38
C172.25 145.97 171.89 145.77 171.42 145.77
Z
M175.01 145.77
C174.51 145.77 174.13 146.08 173.87 146.70
C173.61 147.31 173.48 148.22 173.48 149.41
C173.48 150.75 173.62 151.69 173.91 152.23
C174.19 152.77 174.55 153.05 175.00 153.05
C175.51 153.05 175.89 152.74 176.14 152.12
C176.40 151.50 176.53 150.60 176.53 149.41
C176.53 148.09 176.37 147.12 176.06 146.52
C175.80 146.02 175.45 145.77 175.01 145.77
Z
" fill="black" fill-rule="nonzero" />
<path d="
M171.42 157.60
C170.93 157.60 170.54 157.79 170.25 158.17
C169.96 158.54 169.80 159.08 169.75 159.79
L169.74 159.92
L169.87 159.94
L170.46 160.03
L170.63 160.06
L170.63 159.89
C170.63 159.46 170.70 159.13 170.86 158.91
C171.00 158.71 171.18 158.60 171.39 158.60
C171.39 158.60 171.40 158.60 171.40 158.60
C171.40 158.60 171.40 158.60 171.40 158.60
C171.60 158.60 171.77 158.70 171.91 158.89
C172.06 159.09 172.14 159.36 172.14 159.69
C172.14 159.99 172.06 160.31 171.90 160.65
C171.74 161.00 171.40 161.51 170.87 162.17
C170.40 162.75 170.08 163.26 169.90 163.70
C169.72 164.13 169.63 164.53 169.64 164.89
L169.65 165.03
L173.02 165.03
L173.02 164.89
L173.02 164.05
L173.02 163.91
L170.80 163.91
C170.84 163.82 170.89 163.74 170.94 163.65
C171.04 163.49 171.26 163.20 171.60 162.77
C172.14 162.07 172.51 161.50 172.71 161.08
C172.91 160.64 173.01 160.19 173.01 159.71
C173.01 159.17 172.88 158.69 172.62 158.27
C172.35 157.82 171.95 157.60 171.42 157.60
Z
M175.16 157.60
L175.13 157.70
C175.04 157.99 174.88 158.30 174.64 158.61
C174.41 158.93 174.14 159.19 173.84 159.41
L173.78 159.45
L173.78 159.53
L173.78 160.37
L173.78 160.61
L173.99 160.50
C174.18 160.39 174.40 160.23 174.63 160.02
C174.74 159.92 174.84 159.82 174.92 159.72
L174.92 159.72
L174.92 164.89
L174.92 165.03
L175.78 165.03
L175.78 164.89
L175.78 157.74
L175.78 157.60
Z
" fill="white" fill-rule="nonzero" />
<path d="
M185.10 15.57
C185.35 15.57 185.57 15.67 185.76 15.88
C185.95 16.09 186.04 16.36 186.04 16.69
C186.04 17.01 185.95 17.27 185.77 17.47
C185.59 17.67 185.37 17.77 185.11 17.77
C184.84 17.77 184.62 17.67 184.43 17.47
C184.25 17.26 184.16 16.99 184.16 16.64
C184.16 16.33 184.25 16.08 184.44 15.87
C184.62 15.67 184.84 15.57 185.10 15.57
Z
M185.09 18.48
C185.41 18.48 185.69 18.61 185.93 18.88
C186.16 19.14 186.28 19.49 186.28 19.92
C186.28 20.35 186.16 20.69 185.94 20.95
C185.71 21.20 185.43 21.33 185.11 21.33
C184.78 21.33 184.51 21.20 184.27 20.93
C184.04 20.67 183.93 20.32 183.93 19.89
C183.93 19.47 184.04 19.14 184.26 18.87
C184.49 18.61 184.76 18.48 185.09 18.48
Z
M185.09 14.86
C184.62 14.86 184.22 15.02 183.90 15.36
C183.59 15.70 183.43 16.13 183.43 16.67
C183.43 17.02 183.50 17.32 183.65 17.56
C183.80 17.79 184.01 17.98 184.30 18.11
C183.95 18.21 183.69 18.42 183.49 18.73
C183.30 19.03 183.20 19.42 183.20 19.89
C183.20 20.53 183.38 21.05 183.75 21.45
C184.11 21.84 184.56 22.04 185.11 22.04
C185.64 22.04 186.09 21.84 186.46 21.45
C186.82 21.05 187.00 20.54 187.00 19.91
C187.00 19.46 186.91 19.08 186.72 18.77
C186.53 18.47 186.27 18.24 185.92 18.11
C186.20 17.97 186.42 17.79 186.56 17.56
C186.70 17.32 186.77 17.03 186.77 16.69
C186.77 16.15 186.61 15.71 186.29 15.37
C185.97 15.03 185.57 14.86 185.09 14.86
Z
" fill="black" fill-rule="nonzero" />
<path d="
M185.32 38.59
L185.28 38.67
C185.17 38.97 184.97 39.27 184.68 39.58
C184.39 39.89 184.06 40.15 183.68 40.37
L183.61 40.41
L183.61 40.49
L183.61 41.33
L183.61 41.55
L183.81 41.46
C184.05 41.35 184.31 41.20 184.59 40.99
C184.75 40.87 184.90 40.75 185.02 40.64
L185.02 40.64
L185.02 45.79
L185.02 45.93
L186.02 45.93
L186.02 45.79
L186.02 38.73
L186.02 38.59
Z
" fill="white" fill-rule="nonzero" />
<path d="
M183.11 62.46
L183.11 62.60
L183.11 63.43
L183.11 63.57
L185.81 63.57
C185.50 64.03 185.21 64.57 184.94 65.19
C184.63 65.90 184.38 66.66 184.20 67.45
C184.02 68.25 183.93 68.94 183.92 69.54
L183.92 69.68
L184.79 69.68
L184.92 69.69
L184.93 69.55
C184.99 68.43 185.24 67.29 185.65 66.14
C186.07 65.00 186.55 64.07 187.10 63.36
L187.13 63.32
L187.13 63.27
L187.13 62.60
L187.13 62.46
Z
" fill="white" fill-rule="nonzero" />
<path d="
M183.32 133.72
C182.84 133.72 182.45 133.91 182.15 134.30
C181.87 134.66 181.70 135.20 181.66 135.92
L181.65 136.04
L181.78 136.06
L182.37 136.16
L182.53 136.18
L182.53 136.02
C182.53 135.59 182.61 135.26 182.76 135.04
C182.90 134.83 183.08 134.73 183.30 134.73
C183.30 134.73 183.30 134.73 183.30 134.73
C183.30 134.73 183.31 134.73 183.31 134.73
C183.51 134.73 183.68 134.83 183.82 135.02
C183.97 135.22 184.04 135.49 184.04 135.82
C184.04 136.11 183.96 136.43 183.81 136.78
C183.65 137.13 183.30 137.64 182.77 138.29
C182.31 138.88 181.98 139.39 181.81 139.82
C181.63 140.26 181.54 140.66 181.55 141.02
L181.55 141.16
L184.92 141.16
L184.92 141.02
L184.92 140.18
L184.92 140.03
L182.70 140.03
C182.75 139.95 182.80 139.86 182.85 139.78
C182.95 139.62 183.17 139.33 183.50 138.89
C184.05 138.19 184.42 137.63 184.61 137.20
C184.81 136.77 184.91 136.31 184.91 135.84
C184.91 135.30 184.78 134.82 184.53 134.39
C184.25 133.95 183.85 133.72 183.32 133.72
Z
M186.86 133.72
C186.45 133.72 186.11 133.90 185.83 134.24
C185.56 134.57 185.38 135.06 185.31 135.69
L185.29 135.82
L185.41 135.85
L185.98 136.00
L186.14 136.05
L186.16 135.88
C186.20 135.47 186.29 135.18 186.42 134.98
C186.55 134.81 186.69 134.73 186.86 134.73
C186.86 134.73 186.87 134.73 186.87 134.73
C186.87 134.73 186.87 134.73 186.87 134.73
C187.03 134.73 187.17 134.81 187.29 134.97
C187.42 135.15 187.49 135.39 187.49 135.69
C187.49 136.02 187.41 136.28 187.25 136.47
C187.11 136.65 186.92 136.74 186.68 136.74
L186.68 136.74
L186.60 136.74
L186.46 136.72
L186.45 136.86
L186.38 137.63
L186.36 137.86
L186.57 137.78
C186.72 137.72 186.83 137.69 186.93 137.69
C186.93 137.69 186.93 137.69 186.93 137.69
C186.93 137.69 186.93 137.69 186.93 137.69
C187.14 137.69 187.31 137.80 187.46 138.01
C187.62 138.24 187.70 138.54 187.70 138.93
C187.70 139.34 187.61 139.67 187.43 139.92
C187.27 140.16 187.09 140.28 186.87 140.28
C186.87 140.28 186.87 140.28 186.87 140.28
C186.87 140.28 186.87 140.28 186.87 140.28
C186.68 140.28 186.52 140.18 186.40 139.99
C186.26 139.78 186.16 139.45 186.11 139.00
L186.09 138.85
L185.94 138.88
L185.36 139.00
L185.24 139.02
L185.25 139.15
C185.29 139.79 185.46 140.30 185.75 140.68
C186.06 141.08 186.43 141.28 186.88 141.28
C187.36 141.28 187.76 141.06 188.10 140.60
C188.43 140.16 188.59 139.60 188.59 138.91
C188.59 138.59 188.55 138.30 188.47 138.04
C188.39 137.77 188.28 137.55 188.15 137.39
C188.06 137.28 187.96 137.19 187.84 137.12
L187.84 137.12
C187.98 136.99 188.09 136.82 188.18 136.63
C188.30 136.36 188.36 136.06 188.36 135.71
C188.36 135.15 188.22 134.68 187.94 134.30
C187.64 133.92 187.28 133.72 186.86 133.72
Z
" fill="white" fill-rule="nonzero" />
<path d="
M186.92 146.49
C187.12 146.49 187.30 146.60 187.46 146.81
C187.61 147.02 187.68 147.29 187.68 147.63
C187.68 147.95 187.61 148.22 187.46 148.42
C187.31 148.62 187.14 148.73 186.93 148.73
C186.71 148.73 186.53 148.62 186.38 148.42
C186.23 148.21 186.16 147.93 186.16 147.58
C186.16 147.27 186.23 147.01 186.38 146.80
C186.53 146.60 186.71 146.49 186.92 146.49
Z
M186.91 149.44
C187.17 149.44 187.40 149.57 187.59 149.84
C187.78 150.11 187.87 150.46 187.87 150.90
C187.87 151.33 187.78 151.68 187.60 151.94
C187.41 152.20 187.19 152.33 186.93 152.33
C186.66 152.33 186.44 152.19 186.25 151.93
C186.06 151.66 185.97 151.31 185.97 150.87
C185.97 150.45 186.06 150.10 186.24 149.84
C186.43 149.57 186.65 149.44 186.91 149.44
Z
M183.32 145.77
C182.88 145.77 182.53 145.95 182.26 146.29
C182.00 146.64 181.84 147.15 181.80 147.83
L182.39 147.93
C182.39 147.47 182.48 147.11 182.65 146.87
C182.82 146.62 183.04 146.50 183.30 146.50
C183.55 146.50 183.76 146.61 183.93 146.84
C184.10 147.07 184.19 147.36 184.19 147.73
C184.19 148.04 184.10 148.38 183.94 148.74
C183.77 149.11 183.42 149.62 182.88 150.29
C182.42 150.86 182.11 151.36 181.94 151.78
C181.76 152.20 181.68 152.58 181.69 152.92
L184.78 152.92
L184.78 152.08
L182.49 152.08
C182.55 151.93 182.63 151.77 182.73 151.61
C182.83 151.45 183.05 151.15 183.39 150.71
C183.93 150.02 184.29 149.47 184.48 149.05
C184.68 148.63 184.77 148.20 184.77 147.75
C184.77 147.23 184.65 146.78 184.40 146.38
C184.16 145.97 183.80 145.77 183.32 145.77
Z
M186.91 145.77
C186.53 145.77 186.21 145.94 185.95 146.28
C185.70 146.62 185.57 147.06 185.57 147.60
C185.57 147.96 185.63 148.26 185.75 148.51
C185.86 148.75 186.04 148.93 186.27 149.06
C185.99 149.17 185.77 149.38 185.62 149.69
C185.46 150.00 185.38 150.39 185.38 150.87
C185.38 151.52 185.53 152.05 185.82 152.45
C186.12 152.85 186.48 153.05 186.93 153.05
C187.36 153.05 187.73 152.85 188.02 152.45
C188.31 152.05 188.46 151.53 188.46 150.89
C188.46 150.43 188.38 150.05 188.23 149.74
C188.08 149.43 187.86 149.20 187.58 149.06
C187.81 148.93 187.99 148.74 188.10 148.51
C188.21 148.27 188.27 147.98 188.27 147.63
C188.27 147.09 188.14 146.64 187.88 146.29
C187.63 145.95 187.30 145.77 186.91 145.77
Z
" fill="black" fill-rule="nonzero" />
<path d="
M183.32 157.74
C182.88 157.74 182.53 157.91 182.26 158.26
C182.00 158.60 181.84 159.12 181.80 159.80
L182.39 159.89
C182.39 159.43 182.48 159.08 182.65 158.83
C182.82 158.59 183.04 158.46 183.30 158.46
C183.55 158.46 183.76 158.58 183.93 158.81
C184.10 159.03 184.19 159.33 184.19 159.69
C184.19 160.01 184.10 160.35 183.94 160.71
C183.77 161.07 183.42 161.59 182.88 162.26
C182.42 162.83 182.11 163.33 181.94 163.75
C181.76 164.17 181.68 164.55 181.69 164.89
L184.78 164.89
L184.78 164.05
L182.49 164.05
C182.55 163.89 182.63 163.73 182.73 163.57
C182.83 163.42 183.05 163.12 183.39 162.68
C183.93 161.99 184.29 161.43 184.48 161.02
C184.68 160.60 184.77 160.16 184.77 159.71
C184.77 159.20 184.65 158.74 184.40 158.34
C184.16 157.94 183.80 157.74 183.32 157.74
Z
M186.95 157.74
C186.51 157.74 186.16 157.91 185.89 158.26
C185.63 158.60 185.47 159.12 185.43 159.80
L186.02 159.89
C186.02 159.43 186.11 159.08 186.28 158.83
C186.45 158.59 186.67 158.46 186.93 158.46
C187.18 158.46 187.39 158.58 187.56 158.81
C187.73 159.03 187.82 159.33 187.82 159.69
C187.82 160.01 187.73 160.35 187.57 160.71
C187.40 161.07 187.05 161.59 186.51 162.26
C186.05 162.83 185.74 163.33 185.57 163.75
C185.39 164.17 185.31 164.55 185.32 164.89
L188.41 164.89
L188.41 164.05
L186.12 164.05
C186.18 163.89 186.26 163.73 186.36 163.57
C186.46 163.42 186.68 163.12 187.02 162.68
C187.56 161.99 187.92 161.43 188.11 161.02
C188.31 160.60 188.40 160.16 188.40 159.71
C188.40 159.20 188.28 158.74 188.03 158.34
C187.79 157.94 187.43 157.74 186.95 157.74
Z
" fill="black" fill-rule="nonzero" />
<path d="
M183.54 169.64
C183.45 169.96 183.28 170.27 183.03 170.60
C182.79 170.93 182.51 171.21 182.20 171.43
L182.20 172.28
C182.38 172.17 182.59 172.02 182.81 171.82
C183.03 171.62 183.21 171.42 183.34 171.22
L183.34 176.80
L183.92 176.80
L183.92 169.64
Z
M186.95 169.64
C186.51 169.64 186.16 169.82 185.89 170.16
C185.63 170.51 185.47 171.02 185.43 171.70
L186.02 171.80
C186.02 171.34 186.11 170.98 186.28 170.74
C186.45 170.49 186.67 170.37 186.93 170.37
C187.18 170.37 187.39 170.48 187.56 170.71
C187.73 170.94 187.82 171.23 187.82 171.60
C187.82 171.91 187.73 172.25 187.57 172.62
C187.40 172.98 187.05 173.50 186.51 174.16
C186.05 174.74 185.74 175.23 185.57 175.65
C185.39 176.08 185.31 176.46 185.32 176.80
L188.41 176.80
L188.41 175.96
L186.12 175.96
C186.18 175.80 186.26 175.64 186.36 175.48
C186.46 175.32 186.68 175.02 187.02 174.59
C187.56 173.89 187.92 173.34 188.11 172.92
C188.31 172.51 188.40 172.07 188.40 171.62
C188.40 171.11 188.28 170.65 188.03 170.25
C187.79 169.85 187.43 169.64 186.95 169.64
Z
" fill="black" fill-rule="nonzero" />
<path d="
M185.03 193.29
C184.54 193.29 184.13 193.46 183.79 193.80
C183.45 194.13 183.24 194.61 183.14 195.24
L183.12 195.37
L183.25 195.40
L183.96 195.55
L184.11 195.59
L184.13 195.43
C184.18 195.03 184.28 194.74 184.45 194.56
C184.61 194.38 184.80 194.29 185.03 194.29
C185.03 194.29 185.03 194.29 185.03 194.29
C185.04 194.29 185.04 194.29 185.04 194.29
C185.26 194.29 185.44 194.37 185.60 194.54
C185.76 194.71 185.83 194.95 185.83 195.24
C185.83 195.56 185.74 195.81 185.55 196.00
C185.36 196.19 185.11 196.28 184.81 196.28
L184.81 196.28
L184.70 196.27
L184.56 196.26
L184.55 196.40
L184.47 197.16
L184.44 197.37
L184.65 197.31
C184.84 197.25 184.99 197.22 185.11 197.22
C185.11 197.22 185.11 197.22 185.11 197.22
C185.11 197.22 185.11 197.22 185.11 197.22
C185.38 197.22 185.61 197.32 185.80 197.54
C186.00 197.76 186.09 198.06 186.09 198.44
C186.09 198.84 185.99 199.16 185.77 199.41
C185.56 199.65 185.32 199.77 185.04 199.77
C185.04 199.77 185.04 199.77 185.04 199.77
C185.04 199.77 185.04 199.77 185.04 199.77
C184.78 199.77 184.58 199.67 184.42 199.48
C184.25 199.27 184.13 198.94 184.06 198.51
L184.04 198.37
L183.90 198.39
L183.19 198.50
L183.06 198.52
L183.07 198.66
C183.12 199.29 183.33 199.80 183.69 200.19
C184.06 200.57 184.52 200.77 185.05 200.77
C185.62 200.77 186.11 200.55 186.52 200.11
C186.93 199.67 187.13 199.11 187.13 198.42
C187.13 198.10 187.08 197.81 186.98 197.55
C186.88 197.28 186.75 197.07 186.58 196.91
C186.48 196.80 186.36 196.72 186.22 196.65
L186.22 196.65
C186.38 196.52 186.51 196.36 186.62 196.18
C186.77 195.91 186.85 195.60 186.85 195.26
C186.85 194.70 186.67 194.23 186.32 193.86
C185.96 193.48 185.53 193.30 185.03 193.29
Z
" fill="white" fill-rule="nonzero" />
<path d="
M195.23 109.98
C194.74 109.98 194.35 110.17 194.06 110.55
C193.77 110.92 193.61 111.46 193.56 112.17
L193.56 112.30
L193.68 112.32
L194.27 112.41
L194.44 112.44
L194.44 112.27
C194.44 111.84 194.51 111.51 194.67 111.29
C194.81 111.09 194.99 110.98 195.20 110.98
C195.21 110.98 195.21 110.98 195.21 110.98
C195.21 110.98 195.21 110.98 195.21 110.98
C195.41 110.98 195.58 111.08 195.72 111.27
C195.87 111.47 195.95 111.74 195.95 112.07
C195.95 112.36 195.87 112.68 195.71 113.03
C195.55 113.38 195.21 113.89 194.68 114.55
C194.21 115.13 193.89 115.64 193.71 116.07
C193.53 116.51 193.45 116.91 193.45 117.27
L193.46 117.41
L196.83 117.41
L196.83 117.27
L196.83 116.43
L196.83 116.29
L194.61 116.29
C194.65 116.20 194.70 116.11 194.76 116.03
C194.85 115.87 195.07 115.58 195.41 115.15
C195.95 114.44 196.32 113.88 196.52 113.45
C196.72 113.02 196.82 112.56 196.82 112.09
C196.82 111.55 196.69 111.07 196.43 110.65
C196.16 110.20 195.76 109.98 195.23 109.98
Z
M197.19 110.10
L197.19 110.24
L197.19 111.08
L197.19 111.22
L199.38 111.22
C199.13 111.69 198.89 112.24 198.67 112.87
C198.42 113.59 198.22 114.36 198.07 115.16
C197.93 115.96 197.85 116.66 197.84 117.27
L197.84 117.41
L198.57 117.41
L198.71 117.41
L198.72 117.27
C198.77 116.13 198.96 114.98 199.30 113.82
C199.64 112.66 200.03 111.71 200.48 110.99
L200.50 110.96
L200.50 110.92
L200.50 110.24
L200.50 110.10
Z
" fill="white" fill-rule="nonzero" />
<path d="
M196.25 124.46
L196.25 124.46
L196.25 124.46
C196.25 124.46 196.25 124.46 196.25 124.46
Z
M195.68 121.93
L195.66 122.05
L195.10 125.66
L195.07 125.80
L195.21 125.82
L195.88 125.93
L195.98 125.94
L196.03 125.85
C196.13 125.66 196.26 125.51 196.42 125.41
C196.59 125.30 196.76 125.25 196.95 125.25
C196.95 125.25 196.95 125.25 196.95 125.25
C196.95 125.25 196.95 125.25 196.95 125.25
C197.26 125.25 197.52 125.37 197.73 125.61
C197.94 125.86 198.05 126.22 198.05 126.69
C198.05 127.19 197.94 127.58 197.71 127.87
C197.50 128.14 197.25 128.28 196.96 128.28
C196.96 128.28 196.96 128.28 196.95 128.28
C196.95 128.28 196.95 128.28 196.95 128.28
C196.73 128.28 196.52 128.18 196.35 127.99
C196.17 127.80 196.05 127.49 196.00 127.07
L195.98 126.93
L195.84 126.95
L195.10 127.02
L194.96 127.04
L194.97 127.18
C195.02 127.83 195.23 128.34 195.60 128.71
C195.97 129.08 196.43 129.27 196.96 129.27
C197.61 129.27 198.13 129.00 198.52 128.47
C198.89 127.96 199.08 127.34 199.08 126.62
C199.08 125.89 198.89 125.30 198.51 124.87
C198.12 124.42 197.67 124.20 197.14 124.20
C196.83 124.20 196.53 124.29 196.25 124.46
L196.25 124.46
L196.48 123.04
L198.81 123.04
L198.81 122.89
L198.81 122.07
L198.81 121.93
Z
" fill="white" fill-rule="nonzero" />
<path d="
M198.82 146.49
C199.03 146.49 199.21 146.60 199.36 146.81
C199.51 147.02 199.59 147.29 199.59 147.63
C199.59 147.95 199.51 148.22 199.37 148.42
C199.22 148.62 199.04 148.73 198.83 148.73
C198.62 148.73 198.43 148.62 198.29 148.42
C198.14 148.21 198.07 147.93 198.07 147.58
C198.07 147.27 198.14 147.01 198.29 146.80
C198.44 146.60 198.62 146.49 198.82 146.49
Z
M198.82 149.44
C199.08 149.44 199.31 149.57 199.50 149.84
C199.68 150.11 199.78 150.46 199.78 150.90
C199.78 151.33 199.69 151.68 199.50 151.94
C199.32 152.20 199.10 152.33 198.83 152.33
C198.57 152.33 198.34 152.19 198.16 151.93
C197.97 151.66 197.87 151.31 197.87 150.87
C197.87 150.45 197.97 150.10 198.15 149.84
C198.33 149.57 198.55 149.44 198.82 149.44
Z
M195.45 145.77
C195.35 146.08 195.18 146.40 194.94 146.73
C194.70 147.06 194.42 147.33 194.10 147.56
L194.10 148.41
C194.29 148.30 194.49 148.15 194.71 147.95
C194.94 147.74 195.12 147.55 195.25 147.35
L195.25 152.92
L195.82 152.92
L195.82 145.77
Z
M198.82 145.77
C198.43 145.77 198.11 145.94 197.86 146.28
C197.60 146.62 197.47 147.06 197.47 147.60
C197.47 147.96 197.53 148.26 197.65 148.51
C197.77 148.75 197.94 148.93 198.17 149.06
C197.90 149.17 197.68 149.38 197.52 149.69
C197.37 150.00 197.29 150.39 197.29 150.87
C197.29 151.52 197.43 152.05 197.73 152.45
C198.02 152.85 198.39 153.05 198.83 153.05
C199.27 153.05 199.63 152.85 199.92 152.45
C200.22 152.05 200.37 151.53 200.37 150.89
C200.37 150.43 200.29 150.05 200.14 149.74
C199.99 149.43 199.77 149.20 199.49 149.06
C199.72 148.93 199.89 148.74 200.00 148.51
C200.12 148.27 200.18 147.98 200.18 147.63
C200.18 147.09 200.05 146.64 199.79 146.29
C199.53 145.95 199.21 145.77 198.82 145.77
Z
" fill="black" fill-rule="nonzero" />
<path d="
M198.85 184.79
C199.11 184.79 199.32 184.93 199.50 185.21
C199.68 185.49 199.76 185.88 199.76 186.39
C199.76 186.90 199.67 187.31 199.50 187.60
C199.32 187.90 199.12 188.04 198.89 188.04
C198.64 188.04 198.41 187.89 198.22 187.57
C198.02 187.26 197.93 186.85 197.93 186.33
C197.93 185.86 198.02 185.49 198.20 185.21
C198.39 184.93 198.61 184.79 198.85 184.79
Z
M195.45 181.49
C195.35 181.80 195.18 182.12 194.94 182.45
C194.70 182.77 194.42 183.05 194.10 183.28
L194.10 184.12
C194.29 184.02 194.49 183.87 194.71 183.66
C194.94 183.46 195.12 183.26 195.25 183.07
L195.25 188.64
L195.82 188.64
L195.82 181.49
Z
M198.94 181.49
C198.45 181.49 198.05 181.78 197.73 182.37
C197.42 182.95 197.26 183.93 197.26 185.31
C197.26 186.55 197.42 187.43 197.72 187.97
C198.03 188.50 198.42 188.76 198.89 188.76
C199.15 188.76 199.39 188.67 199.61 188.49
C199.83 188.30 200.00 188.01 200.14 187.63
C200.28 187.24 200.35 186.81 200.35 186.33
C200.35 185.63 200.21 185.07 199.94 184.65
C199.66 184.23 199.34 184.02 198.97 184.02
C198.74 184.02 198.53 184.10 198.33 184.26
C198.13 184.42 197.97 184.66 197.84 184.97
C197.84 184.09 197.93 183.43 198.10 182.99
C198.30 182.47 198.57 182.21 198.90 182.21
C199.12 182.21 199.30 182.32 199.46 182.55
C199.56 182.70 199.64 182.96 199.70 183.33
L200.27 183.26
C200.22 182.69 200.07 182.25 199.83 181.94
C199.59 181.64 199.29 181.49 198.94 181.49
Z
" fill="black" fill-rule="nonzero" />
<path d="
M199.13 194.89
L199.13 198.10
L197.67 198.10
L199.13 194.89
Z
M195.45 193.46
C195.35 193.77 195.18 194.09 194.94 194.41
C194.70 194.74 194.42 195.02 194.10 195.24
L194.10 196.09
C194.29 195.99 194.49 195.83 194.71 195.63
C194.94 195.43 195.12 195.23 195.25 195.03
L195.25 200.61
L195.82 200.61
L195.82 193.46
Z
M199.24 193.48
L197.11 198.10
L197.11 198.90
L199.13 198.90
L199.13 200.61
L199.71 200.61
L199.71 198.90
L200.34 198.90
L200.34 198.10
L199.71 198.10
L199.71 193.48
Z
" fill="black" fill-rule="nonzero" />
<path d="
M198.24 207.82
L198.24 207.82
L198.24 207.82
C198.24 207.82 198.24 207.82 198.24 207.82
Z
M195.35 205.16
L195.31 205.26
C195.22 205.55 195.06 205.86 194.82 206.17
C194.59 206.49 194.32 206.75 194.02 206.97
L193.96 207.02
L193.96 207.09
L193.96 207.93
L193.96 208.17
L194.17 208.06
C194.37 207.95 194.58 207.79 194.81 207.58
C194.92 207.48 195.02 207.38 195.11 207.29
L195.11 207.29
L195.11 212.45
L195.11 212.59
L195.96 212.59
L195.96 212.45
L195.96 205.30
L195.96 205.16
Z
M197.72 205.28
L197.71 205.41
L197.25 209.07
L197.24 209.20
L197.36 209.22
L197.91 209.33
L198.02 209.35
L198.06 209.25
C198.14 209.05 198.25 208.90 198.38 208.79
C198.51 208.69 198.64 208.64 198.78 208.64
C198.78 208.64 198.78 208.64 198.78 208.64
C198.78 208.64 198.78 208.64 198.78 208.64
C199.02 208.64 199.22 208.76 199.38 209.00
C199.55 209.26 199.64 209.63 199.64 210.11
C199.64 210.62 199.55 211.02 199.37 211.31
C199.20 211.58 199.01 211.71 198.79 211.71
C198.79 211.71 198.79 211.71 198.78 211.71
C198.78 211.71 198.78 211.71 198.78 211.71
C198.61 211.71 198.46 211.62 198.32 211.44
C198.18 211.24 198.08 210.92 198.04 210.49
L198.02 210.35
L197.88 210.37
L197.27 210.45
L197.14 210.46
L197.15 210.60
C197.19 211.25 197.36 211.76 197.66 212.13
C197.96 212.52 198.34 212.71 198.79 212.71
C199.33 212.71 199.76 212.44 200.08 211.90
C200.38 211.38 200.53 210.76 200.53 210.04
C200.53 209.30 200.38 208.71 200.07 208.27
C199.75 207.82 199.38 207.59 198.94 207.59
C198.69 207.59 198.46 207.67 198.24 207.82
L198.24 207.82
L198.43 206.40
L200.31 206.40
L200.31 206.26
L200.31 205.43
L200.31 205.28
Z
" fill="white" fill-rule="nonzero" />
<path d="
M210.15 112.58
L210.15 112.58
L210.15 112.58
C210.15 112.58 210.15 112.58 210.15 112.58
Z
M207.13 109.91
C206.65 109.92 206.26 110.11 205.96 110.49
C205.68 110.85 205.51 111.40 205.47 112.11
L205.46 112.24
L205.59 112.26
L206.18 112.35
L206.34 112.37
L206.34 112.21
C206.34 111.78 206.42 111.45 206.57 111.23
C206.71 111.02 206.89 110.92 207.11 110.92
C207.11 110.92 207.11 110.92 207.11 110.92
C207.12 110.92 207.12 110.92 207.12 110.92
C207.32 110.92 207.49 111.02 207.63 111.21
C207.78 111.41 207.85 111.68 207.85 112.01
C207.85 112.30 207.78 112.62 207.62 112.97
C207.46 113.32 207.11 113.83 206.58 114.49
C206.12 115.07 205.79 115.58 205.62 116.01
C205.44 116.45 205.35 116.85 205.36 117.21
L205.36 117.35
L208.73 117.35
L208.73 117.21
L208.73 116.37
L208.73 116.23
L206.52 116.23
C206.56 116.14 206.61 116.05 206.66 115.97
C206.76 115.81 206.98 115.52 207.31 115.08
C207.86 114.38 208.23 113.82 208.42 113.39
C208.62 112.96 208.72 112.50 208.72 112.03
C208.72 111.49 208.60 111.01 208.34 110.58
C208.06 110.14 207.66 109.92 207.13 109.91
Z
M209.63 110.04
L209.61 110.17
L209.16 113.82
L209.14 113.95
L209.27 113.98
L209.81 114.09
L209.93 114.11
L209.97 114.00
C210.05 113.81 210.15 113.66 210.29 113.55
C210.41 113.45 210.54 113.40 210.68 113.40
C210.68 113.40 210.69 113.40 210.69 113.40
C210.69 113.40 210.69 113.40 210.69 113.40
C210.93 113.40 211.12 113.52 211.29 113.76
C211.46 114.01 211.55 114.38 211.55 114.86
C211.55 115.37 211.46 115.78 211.27 116.07
C211.11 116.33 210.91 116.47 210.69 116.47
C210.69 116.47 210.69 116.47 210.69 116.47
C210.69 116.47 210.69 116.47 210.69 116.47
C210.52 116.47 210.37 116.38 210.23 116.19
C210.08 115.99 209.98 115.68 209.94 115.25
L209.93 115.11
L209.78 115.12
L209.18 115.20
L209.05 115.22
L209.06 115.35
C209.10 116.00 209.27 116.52 209.56 116.89
C209.87 117.28 210.25 117.47 210.70 117.47
C211.24 117.47 211.67 117.20 211.98 116.65
C212.29 116.14 212.44 115.51 212.44 114.79
C212.44 114.06 212.28 113.47 211.98 113.03
C211.66 112.57 211.28 112.34 210.84 112.34
C210.60 112.34 210.37 112.42 210.15 112.58
L210.15 112.58
L210.34 111.16
L212.22 111.16
L212.22 111.02
L212.22 110.18
L212.22 110.04
Z
" fill="white" fill-rule="nonzero" />
<path d="
M211.04 123.46
L211.04 126.67
L209.57 126.67
L211.04 123.46
Z
M207.13 122.02
C206.70 122.02 206.34 122.19 206.07 122.54
C205.81 122.88 205.65 123.40 205.61 124.08
L206.20 124.17
C206.20 123.71 206.29 123.36 206.46 123.12
C206.63 122.87 206.85 122.75 207.11 122.75
C207.36 122.75 207.57 122.86 207.74 123.09
C207.91 123.32 208.00 123.61 208.00 123.98
C208.00 124.29 207.91 124.63 207.75 124.99
C207.58 125.36 207.23 125.87 206.69 126.54
C206.24 127.11 205.92 127.61 205.75 128.03
C205.58 128.45 205.49 128.83 205.50 129.17
L208.59 129.17
L208.59 128.33
L206.30 128.33
C206.36 128.17 206.44 128.02 206.54 127.86
C206.64 127.70 206.86 127.40 207.20 126.96
C207.74 126.27 208.10 125.72 208.30 125.30
C208.49 124.88 208.58 124.45 208.58 123.99
C208.58 123.48 208.46 123.03 208.22 122.62
C207.97 122.22 207.61 122.02 207.13 122.02
Z
M211.14 122.05
L209.01 126.67
L209.01 127.47
L211.04 127.47
L211.04 129.17
L211.61 129.17
L211.61 127.47
L212.24 127.47
L212.24 126.67
L211.61 126.67
L211.61 122.05
Z
" fill="black" fill-rule="nonzero" />
<path d="
M210.76 137.17
C211.01 137.17 211.23 137.31 211.40 137.59
C211.58 137.87 211.67 138.26 211.67 138.76
C211.67 139.28 211.58 139.68 211.40 139.98
C211.23 140.27 211.02 140.42 210.80 140.42
C210.54 140.42 210.32 140.26 210.12 139.95
C209.93 139.64 209.83 139.23 209.83 138.71
C209.83 138.24 209.92 137.86 210.11 137.59
C210.29 137.31 210.51 137.17 210.76 137.17
Z
M207.13 133.87
C206.70 133.87 206.34 134.04 206.07 134.38
C205.81 134.73 205.65 135.24 205.61 135.93
L206.20 136.02
C206.20 135.56 206.29 135.21 206.46 134.96
C206.63 134.71 206.85 134.59 207.11 134.59
C207.36 134.59 207.57 134.71 207.74 134.93
C207.91 135.16 208.00 135.46 208.00 135.82
C208.00 136.13 207.91 136.47 207.75 136.84
C207.58 137.20 207.23 137.72 206.69 138.39
C206.24 138.96 205.92 139.46 205.75 139.88
C205.58 140.30 205.49 140.68 205.50 141.02
L208.59 141.02
L208.59 140.18
L206.30 140.18
C206.36 140.02 206.44 139.86 206.54 139.70
C206.64 139.54 206.86 139.25 207.20 138.81
C207.74 138.11 208.10 137.56 208.30 137.14
C208.49 136.73 208.58 136.29 208.58 135.84
C208.58 135.33 208.46 134.87 208.22 134.47
C207.97 134.07 207.61 133.87 207.13 133.87
Z
M210.85 133.87
C210.36 133.87 209.95 134.16 209.64 134.74
C209.33 135.33 209.17 136.31 209.17 137.69
C209.17 138.93 209.32 139.81 209.63 140.34
C209.93 140.87 210.32 141.14 210.79 141.14
C211.06 141.14 211.30 141.05 211.51 140.86
C211.73 140.68 211.91 140.39 212.05 140.01
C212.19 139.62 212.26 139.19 212.26 138.71
C212.26 138.01 212.12 137.45 211.84 137.03
C211.57 136.61 211.24 136.40 210.87 136.40
C210.65 136.40 210.44 136.48 210.24 136.64
C210.04 136.80 209.87 137.03 209.74 137.35
C209.74 136.47 209.83 135.81 210.01 135.36
C210.21 134.85 210.48 134.59 210.81 134.59
C211.03 134.59 211.21 134.70 211.36 134.93
C211.47 135.08 211.55 135.34 211.60 135.71
L212.17 135.64
C212.12 135.06 211.98 134.62 211.74 134.32
C211.50 134.02 211.20 133.87 210.85 133.87
Z
" fill="black" fill-rule="nonzero" />
<path d="
M207.25 205.22
L207.22 205.32
C207.13 205.61 206.96 205.92 206.73 206.23
C206.50 206.55 206.23 206.82 205.92 207.03
L205.86 207.08
L205.86 207.15
L205.86 207.99
L205.86 208.24
L206.08 208.12
C206.27 208.01 206.48 207.85 206.72 207.64
C206.82 207.54 206.92 207.44 207.01 207.35
L207.01 207.35
L207.01 212.51
L207.01 212.65
L207.87 212.65
L207.87 212.51
L207.87 205.36
L207.87 205.22
Z
M209.09 205.34
L209.09 205.48
L209.09 206.32
L209.09 206.46
L211.28 206.46
C211.03 206.93 210.80 207.48 210.58 208.11
C210.32 208.84 210.12 209.60 209.98 210.40
C209.83 211.20 209.76 211.91 209.75 212.51
L209.75 212.65
L210.48 212.65
L210.62 212.65
L210.62 212.52
C210.67 211.38 210.87 210.22 211.21 209.06
C211.55 207.90 211.94 206.96 212.38 206.24
L212.40 206.20
L212.40 206.16
L212.40 205.48
L212.40 205.34
Z
" fill="white" fill-rule="nonzero" />
</g>
<g  transform="translate(1.19,228.58)" >
<path d="
M56.40 2.94
C56.23 2.94 56.09 3.00 55.98 3.11
C55.86 3.23 55.81 3.37 55.81 3.53
C55.81 3.69 55.86 3.83 55.98 3.95
C56.10 4.07 56.24 4.12 56.40 4.12
C56.56 4.12 56.70 4.07 56.81 3.95
C56.93 3.83 56.99 3.69 56.99 3.53
C56.99 3.37 56.93 3.23 56.81 3.11
C56.70 3.00 56.56 2.94 56.40 2.94
Z
M129.47 2.94
C129.30 2.94 129.16 3.00 129.05 3.11
C128.93 3.23 128.88 3.37 128.88 3.53
C128.88 3.69 128.94 3.83 129.05 3.95
C129.17 4.07 129.31 4.12 129.47 4.12
C129.63 4.12 129.77 4.07 129.89 3.95
C130.00 3.83 130.06 3.69 130.06 3.53
C130.06 3.37 130.00 3.23 129.89 3.11
C129.77 3.00 129.63 2.94 129.47 2.94
Z
M135.75 2.94
C135.59 2.94 135.45 3.00 135.33 3.11
C135.22 3.23 135.16 3.37 135.16 3.53
C135.16 3.69 135.22 3.83 135.34 3.95
C135.45 4.07 135.59 4.12 135.75 4.12
C135.92 4.12 136.06 4.07 136.17 3.95
C136.28 3.83 136.34 3.69 136.34 3.53
C136.34 3.37 136.28 3.23 136.17 3.11
C136.06 3.00 135.92 2.94 135.75 2.94
Z
M167.83 2.94
C167.66 2.94 167.52 3.00 167.40 3.11
C167.29 3.23 167.23 3.37 167.23 3.53
C167.23 3.69 167.29 3.83 167.41 3.95
C167.52 4.07 167.66 4.12 167.83 4.12
C167.99 4.12 168.13 4.07 168.24 3.95
C168.36 3.83 168.41 3.69 168.41 3.53
C168.41 3.37 168.36 3.23 168.24 3.11
C168.13 3.00 167.99 2.94 167.83 2.94
Z
M85.78 5.72
C85.60 5.72 85.45 5.79 85.32 5.91
C85.20 6.04 85.13 6.19 85.13 6.37
C85.13 6.55 85.20 6.70 85.32 6.83
C85.45 6.95 85.60 7.01 85.78 7.01
C85.96 7.01 86.11 6.95 86.24 6.83
C86.36 6.70 86.42 6.55 86.42 6.37
C86.42 6.19 86.36 6.04 86.24 5.91
C86.11 5.79 85.96 5.72 85.78 5.72
Z
M119.08 6.14
C119.29 6.14 119.49 6.20 119.68 6.32
C119.88 6.45 120.02 6.62 120.12 6.83
C120.18 6.97 120.22 7.21 120.24 7.55
L117.77 7.55
C117.82 7.11 117.96 6.76 118.22 6.51
C118.47 6.26 118.76 6.14 119.08 6.14
Z
M94.33 4.96
L95.67 8.14
L92.96 8.14
L94.33 4.96
Z
M61.37 8.04
L61.37 10.07
C60.89 10.46 60.50 10.65 60.21 10.65
C59.99 10.65 59.80 10.56 59.63 10.37
C59.46 10.19 59.38 9.96 59.38 9.68
C59.38 9.46 59.45 9.25 59.58 9.07
C59.71 8.88 59.93 8.70 60.24 8.53
C60.41 8.44 60.78 8.27 61.37 8.04
Z
M153.62 8.04
L153.62 10.07
C153.14 10.46 152.75 10.65 152.46 10.65
C152.24 10.65 152.05 10.56 151.88 10.37
C151.71 10.19 151.63 9.96 151.63 9.68
C151.63 9.46 151.70 9.25 151.83 9.07
C151.96 8.88 152.18 8.70 152.48 8.53
C152.66 8.44 153.03 8.27 153.62 8.04
Z
M49.72 3.77
C50.65 3.77 51.41 4.08 52.01 4.71
C52.60 5.34 52.90 6.20 52.90 7.29
C52.90 8.37 52.60 9.23 52.01 9.86
C51.41 10.49 50.67 10.81 49.77 10.81
C49.43 10.81 49.02 10.75 48.53 10.64
L48.53 3.94
C48.97 3.83 49.37 3.77 49.72 3.77
Z
M172.20 6.11
C172.63 6.11 172.98 6.29 173.26 6.67
C173.66 7.21 173.87 7.95 173.87 8.90
C173.87 9.65 173.74 10.19 173.50 10.50
C173.26 10.81 172.95 10.96 172.57 10.96
C172.07 10.96 171.66 10.68 171.35 10.12
C171.04 9.56 170.89 8.89 170.89 8.11
C170.89 7.63 170.95 7.24 171.08 6.93
C171.21 6.63 171.38 6.41 171.58 6.29
C171.79 6.17 172.00 6.11 172.20 6.11
Z
M46.28 3.33
L46.28 3.54
L46.57 3.54
C46.87 3.54 47.10 3.63 47.25 3.80
C47.36 3.92 47.41 4.23 47.41 4.72
L47.41 9.82
C47.41 10.26 47.37 10.55 47.28 10.68
C47.14 10.89 46.91 11.00 46.57 11.00
L46.28 11.00
L46.28 11.21
L49.80 11.21
C51.33 11.21 52.47 10.80 53.22 9.98
C53.89 9.24 54.22 8.33 54.22 7.23
C54.22 6.41 54.03 5.69 53.66 5.07
C53.29 4.44 52.79 4.00 52.18 3.73
C51.56 3.46 50.67 3.33 49.49 3.33
Z
M56.63 5.73
L55.02 6.38
L55.10 6.59
C55.26 6.53 55.39 6.50 55.50 6.50
C55.60 6.50 55.68 6.53 55.74 6.58
C55.79 6.62 55.84 6.71 55.86 6.83
C55.90 7.00 55.92 7.38 55.92 7.96
L55.92 10.01
C55.92 10.34 55.89 10.56 55.84 10.68
C55.79 10.79 55.71 10.88 55.63 10.93
C55.54 10.98 55.36 11.00 55.10 11.00
L55.10 11.21
L57.69 11.21
L57.69 11.00
C57.44 11.00 57.26 10.98 57.17 10.92
C57.07 10.87 57.00 10.79 56.95 10.68
C56.91 10.56 56.88 10.34 56.88 10.01
L56.88 5.73
Z
M72.53 3.16
L70.61 4.10
L70.70 4.28
C70.96 4.16 71.15 4.10 71.30 4.10
C71.40 4.10 71.49 4.13 71.56 4.19
C71.63 4.25 71.68 4.34 71.71 4.46
C71.74 4.62 71.76 4.99 71.76 5.57
L71.76 9.82
C71.76 10.30 71.74 10.58 71.70 10.67
C71.66 10.77 71.58 10.85 71.47 10.90
C71.36 10.96 71.12 10.99 70.75 11.00
L70.75 11.21
L73.72 11.21
L73.72 11.00
C73.36 10.99 73.12 10.96 73.01 10.90
C72.89 10.84 72.82 10.76 72.78 10.65
C72.74 10.54 72.72 10.27 72.72 9.82
L72.72 3.16
Z
M81.46 3.16
L79.54 4.10
L79.63 4.28
C79.88 4.16 80.08 4.10 80.23 4.10
C80.33 4.10 80.41 4.13 80.49 4.19
C80.56 4.25 80.61 4.34 80.63 4.46
C80.67 4.62 80.69 4.99 80.69 5.57
L80.69 9.82
C80.69 10.30 80.67 10.58 80.63 10.67
C80.59 10.77 80.51 10.85 80.40 10.90
C80.29 10.96 80.05 10.99 79.68 11.00
L79.68 11.21
L82.65 11.21
L82.65 11.00
C82.29 10.99 82.05 10.96 81.94 10.90
C81.82 10.84 81.74 10.76 81.71 10.65
C81.67 10.54 81.65 10.27 81.65 9.82
L81.65 3.16
Z
M94.55 3.15
L91.77 9.64
C91.53 10.21 91.31 10.58 91.11 10.77
C91.02 10.86 90.80 10.94 90.48 11.00
L90.48 11.21
L92.96 11.21
L92.96 11.00
C92.58 10.97 92.33 10.91 92.22 10.82
C92.10 10.73 92.05 10.62 92.05 10.50
C92.05 10.35 92.11 10.12 92.24 9.82
L92.78 8.57
L95.83 8.57
L96.31 9.71
C96.46 10.08 96.54 10.34 96.54 10.52
C96.54 10.64 96.49 10.75 96.37 10.84
C96.26 10.93 96.05 10.98 95.74 11.00
L95.74 11.21
L98.85 11.21
L98.85 11.00
C98.53 10.98 98.28 10.89 98.10 10.73
C97.92 10.58 97.72 10.23 97.49 9.71
L94.75 3.15
Z
M105.67 2.95
C105.23 2.95 104.84 3.07 104.49 3.30
C104.14 3.52 103.88 3.82 103.71 4.19
C103.54 4.56 103.45 5.01 103.45 5.54
L103.45 5.89
L102.42 5.89
L102.42 6.30
L103.45 6.30
L103.45 9.81
C103.45 10.19 103.43 10.44 103.38 10.57
C103.33 10.70 103.24 10.81 103.11 10.89
C102.99 10.96 102.84 11.00 102.69 11.00
L102.45 11.00
L102.45 11.21
L105.63 11.21
L105.63 11.00
L105.15 11.00
C104.91 11.00 104.72 10.92 104.57 10.75
C104.46 10.62 104.41 10.30 104.41 9.81
L104.41 6.30
L105.78 6.30
L105.78 5.89
L104.41 5.89
L104.41 5.50
C104.41 4.67 104.44 4.16 104.49 3.96
C104.55 3.76 104.63 3.61 104.76 3.52
C104.88 3.42 105.03 3.37 105.21 3.37
C105.36 3.37 105.49 3.41 105.61 3.48
C105.73 3.56 105.87 3.70 106.01 3.91
C106.15 4.12 106.27 4.26 106.37 4.32
C106.47 4.39 106.57 4.42 106.65 4.42
C106.77 4.42 106.88 4.37 106.98 4.27
C107.08 4.16 107.13 4.05 107.13 3.94
C107.13 3.72 107.02 3.52 106.79 3.35
C106.45 3.09 106.08 2.95 105.67 2.95
Z
M123.47 2.94
L121.89 3.59
L121.99 3.80
C122.15 3.73 122.27 3.70 122.35 3.70
C122.46 3.70 122.54 3.73 122.60 3.78
C122.66 3.83 122.71 3.93 122.73 4.06
C122.76 4.20 122.77 4.58 122.77 5.19
L122.77 10.04
C122.77 10.36 122.74 10.58 122.69 10.71
C122.64 10.80 122.58 10.86 122.50 10.90
C122.36 10.97 122.16 11.00 121.89 11.00
L121.89 11.21
L124.60 11.21
L124.60 11.00
C124.30 11.00 124.11 10.97 124.02 10.93
C123.93 10.88 123.86 10.80 123.81 10.70
C123.76 10.59 123.74 10.36 123.74 10.01
L123.74 8.25
L125.37 10.33
C125.53 10.53 125.61 10.68 125.61 10.77
C125.61 10.84 125.58 10.90 125.53 10.94
C125.47 10.98 125.37 11.00 125.23 11.00
L125.23 11.21
L127.82 11.21
L127.82 11.00
C127.57 11.00 127.41 10.98 127.31 10.95
C127.17 10.89 127.01 10.77 126.82 10.59
C126.69 10.46 126.43 10.16 126.05 9.68
L124.69 7.96
L126.05 6.69
C126.31 6.47 126.54 6.31 126.75 6.22
C126.96 6.13 127.22 6.08 127.54 6.07
L127.54 5.89
L125.23 5.89
L125.23 6.07
C125.37 6.08 125.48 6.11 125.54 6.17
C125.61 6.22 125.64 6.29 125.64 6.37
C125.64 6.42 125.62 6.46 125.59 6.51
C125.55 6.58 125.38 6.74 125.09 7.01
L123.74 8.24
L123.74 2.94
Z
M129.70 5.73
L128.09 6.38
L128.17 6.59
C128.33 6.53 128.46 6.50 128.57 6.50
C128.67 6.50 128.75 6.53 128.81 6.58
C128.87 6.62 128.91 6.71 128.94 6.83
C128.97 7.00 128.99 7.38 128.99 7.96
L128.99 10.01
C128.99 10.34 128.96 10.56 128.91 10.68
C128.86 10.79 128.79 10.88 128.70 10.93
C128.61 10.98 128.43 11.00 128.17 11.00
L128.17 11.21
L130.76 11.21
L130.76 11.00
C130.51 11.00 130.34 10.98 130.24 10.92
C130.15 10.87 130.07 10.79 130.03 10.68
C129.98 10.56 129.95 10.34 129.95 10.01
L129.95 5.73
Z
M135.98 5.73
L134.38 6.38
L134.46 6.59
C134.61 6.53 134.74 6.50 134.85 6.50
C134.95 6.50 135.03 6.53 135.09 6.58
C135.15 6.62 135.19 6.71 135.22 6.83
C135.25 7.00 135.27 7.38 135.27 7.96
L135.27 10.01
C135.27 10.34 135.25 10.56 135.19 10.68
C135.14 10.79 135.07 10.88 134.98 10.93
C134.89 10.98 134.72 11.00 134.46 11.00
L134.46 11.21
L137.05 11.21
L137.05 11.00
C136.79 11.00 136.62 10.98 136.52 10.92
C136.43 10.87 136.36 10.79 136.31 10.68
C136.26 10.56 136.24 10.34 136.24 10.01
L136.24 5.73
Z
M139.01 5.73
L137.40 6.38
L137.49 6.59
C137.64 6.53 137.77 6.50 137.88 6.50
C137.98 6.50 138.06 6.53 138.12 6.58
C138.18 6.63 138.23 6.72 138.26 6.86
C138.29 7.00 138.30 7.39 138.30 8.03
L138.30 10.01
C138.30 10.40 138.25 10.66 138.16 10.80
C138.06 10.93 137.88 11.00 137.61 11.00
L137.49 11.00
L137.49 11.21
L140.13 11.21
L140.13 11.00
C139.84 11.00 139.64 10.98 139.55 10.93
C139.45 10.87 139.38 10.79 139.32 10.68
C139.28 10.59 139.26 10.37 139.26 10.01
L139.26 7.20
C139.72 6.70 140.18 6.44 140.64 6.44
C140.94 6.44 141.15 6.55 141.27 6.77
C141.40 6.99 141.46 7.34 141.46 7.83
L141.46 10.01
C141.46 10.32 141.46 10.50 141.44 10.56
C141.40 10.70 141.33 10.81 141.23 10.89
C141.14 10.97 140.96 11.00 140.71 11.00
L140.60 11.00
L140.60 11.21
L143.24 11.21
L143.24 11.00
C142.98 11.00 142.81 10.98 142.71 10.92
C142.62 10.87 142.55 10.79 142.50 10.70
C142.45 10.58 142.42 10.35 142.42 10.01
L142.42 7.74
C142.42 7.25 142.38 6.90 142.30 6.67
C142.17 6.33 142.00 6.09 141.80 5.95
C141.59 5.80 141.34 5.73 141.05 5.73
C140.48 5.73 139.88 6.11 139.26 6.86
L139.26 5.73
Z
M149.98 2.95
C149.54 2.95 149.15 3.07 148.80 3.30
C148.45 3.52 148.18 3.82 148.01 4.19
C147.84 4.56 147.76 5.01 147.76 5.54
L147.76 5.89
L146.72 5.89
L146.72 6.30
L147.76 6.30
L147.76 9.81
C147.76 10.19 147.73 10.44 147.69 10.57
C147.64 10.70 147.55 10.81 147.42 10.89
C147.29 10.96 147.15 11.00 147.00 11.00
L146.76 11.00
L146.76 11.21
L149.94 11.21
L149.94 11.00
L149.46 11.00
C149.22 11.00 149.02 10.92 148.88 10.75
C148.77 10.62 148.72 10.30 148.72 9.81
L148.72 6.30
L150.09 6.30
L150.09 5.89
L148.72 5.89
L148.72 5.50
C148.72 4.67 148.74 4.16 148.80 3.96
C148.85 3.76 148.94 3.61 149.07 3.52
C149.19 3.42 149.34 3.37 149.52 3.37
C149.67 3.37 149.80 3.41 149.92 3.48
C150.04 3.56 150.17 3.70 150.32 3.91
C150.46 4.12 150.58 4.26 150.68 4.32
C150.78 4.39 150.87 4.42 150.96 4.42
C151.08 4.42 151.19 4.37 151.29 4.27
C151.39 4.16 151.44 4.05 151.44 3.94
C151.44 3.72 151.33 3.52 151.10 3.35
C150.76 3.09 150.39 2.95 149.98 2.95
Z
M161.81 2.94
L160.22 3.59
L160.30 3.80
C160.48 3.74 160.62 3.71 160.70 3.71
C160.80 3.71 160.88 3.73 160.94 3.78
C161.00 3.83 161.04 3.93 161.07 4.07
C161.10 4.21 161.12 4.58 161.12 5.19
L161.12 10.01
C161.12 10.34 161.09 10.56 161.05 10.67
C161.00 10.78 160.94 10.85 160.86 10.89
C160.73 10.97 160.54 11.00 160.30 11.00
L160.30 11.21
L162.94 11.21
L162.94 11.00
C162.67 11.00 162.48 10.97 162.37 10.91
C162.26 10.85 162.18 10.78 162.14 10.69
C162.10 10.60 162.08 10.37 162.08 10.01
L162.08 7.19
C162.37 6.89 162.62 6.68 162.82 6.58
C163.03 6.48 163.22 6.43 163.41 6.43
C163.60 6.43 163.76 6.48 163.89 6.57
C164.02 6.66 164.12 6.80 164.18 6.98
C164.24 7.16 164.27 7.54 164.27 8.12
L164.27 10.01
C164.27 10.31 164.26 10.49 164.25 10.56
C164.21 10.70 164.14 10.81 164.05 10.89
C163.95 10.97 163.78 11.00 163.53 11.00
L163.41 11.00
L163.41 11.21
L166.02 11.21
L166.02 11.00
C165.78 11.00 165.61 10.98 165.51 10.92
C165.42 10.87 165.35 10.79 165.32 10.70
C165.26 10.58 165.23 10.35 165.23 10.01
L165.23 8.12
C165.23 7.47 165.20 7.01 165.12 6.76
C165.02 6.41 164.86 6.15 164.64 5.98
C164.42 5.81 164.16 5.73 163.86 5.73
C163.61 5.73 163.36 5.80 163.11 5.93
C162.85 6.06 162.51 6.37 162.08 6.84
L162.08 2.94
Z
M168.05 5.73
L166.45 6.38
L166.53 6.59
C166.68 6.53 166.82 6.50 166.92 6.50
C167.02 6.50 167.10 6.53 167.16 6.58
C167.22 6.62 167.26 6.71 167.29 6.83
C167.33 7.00 167.34 7.38 167.34 7.96
L167.34 10.01
C167.34 10.34 167.32 10.56 167.26 10.68
C167.21 10.79 167.14 10.88 167.05 10.93
C166.96 10.98 166.79 11.00 166.53 11.00
L166.53 11.21
L169.12 11.21
L169.12 11.00
C168.86 11.00 168.69 10.98 168.60 10.92
C168.50 10.87 168.43 10.79 168.38 10.68
C168.33 10.56 168.31 10.34 168.31 10.01
L168.31 5.73
Z
M177.03 5.73
L175.43 6.38
L175.52 6.59
C175.67 6.53 175.80 6.50 175.91 6.50
C176.01 6.50 176.09 6.53 176.15 6.58
C176.21 6.63 176.25 6.72 176.28 6.86
C176.31 7.00 176.32 7.39 176.32 8.03
L176.32 10.01
C176.32 10.40 176.28 10.66 176.18 10.80
C176.09 10.93 175.90 11.00 175.63 11.00
L175.52 11.00
L175.52 11.21
L178.15 11.21
L178.15 11.00
C177.86 11.00 177.67 10.98 177.57 10.93
C177.48 10.87 177.40 10.79 177.35 10.68
C177.30 10.59 177.28 10.37 177.28 10.01
L177.28 7.20
C177.74 6.70 178.20 6.44 178.66 6.44
C178.96 6.44 179.17 6.55 179.30 6.77
C179.42 6.99 179.49 7.34 179.49 7.83
L179.49 10.01
C179.49 10.32 179.48 10.50 179.46 10.56
C179.43 10.70 179.36 10.81 179.26 10.89
C179.16 10.97 178.99 11.00 178.74 11.00
L178.63 11.00
L178.63 11.21
L181.26 11.21
L181.26 11.00
C181.01 11.00 180.83 10.98 180.73 10.92
C180.64 10.87 180.57 10.79 180.53 10.70
C180.47 10.58 180.45 10.35 180.45 10.01
L180.45 7.74
C180.45 7.25 180.40 6.90 180.32 6.67
C180.19 6.33 180.03 6.09 179.82 5.95
C179.61 5.80 179.36 5.73 179.07 5.73
C178.50 5.73 177.91 6.11 177.28 6.86
L177.28 5.73
Z
M60.56 5.73
C59.94 5.73 59.46 5.87 59.12 6.15
C58.78 6.43 58.61 6.73 58.61 7.07
C58.61 7.24 58.65 7.38 58.74 7.48
C58.84 7.58 58.95 7.63 59.10 7.63
C59.24 7.63 59.36 7.58 59.45 7.49
C59.54 7.39 59.59 7.25 59.59 7.07
L59.58 6.74
C59.58 6.56 59.65 6.41 59.80 6.28
C59.94 6.15 60.14 6.08 60.38 6.08
C60.70 6.08 60.95 6.18 61.12 6.38
C61.29 6.58 61.37 6.94 61.37 7.47
L61.37 7.68
C60.45 8.02 59.80 8.30 59.41 8.53
C59.01 8.76 58.74 9.01 58.58 9.28
C58.46 9.47 58.40 9.69 58.40 9.95
C58.40 10.36 58.52 10.69 58.76 10.95
C59.00 11.20 59.30 11.32 59.67 11.32
C59.91 11.32 60.13 11.27 60.34 11.18
C60.48 11.11 60.82 10.87 61.37 10.45
C61.37 10.76 61.43 10.99 61.54 11.12
C61.66 11.25 61.81 11.32 62.00 11.32
C62.39 11.32 62.81 11.03 63.24 10.45
L63.24 10.12
C63.01 10.35 62.85 10.49 62.77 10.54
C62.72 10.57 62.67 10.58 62.61 10.58
C62.55 10.58 62.50 10.57 62.45 10.53
C62.41 10.49 62.38 10.41 62.36 10.30
C62.34 10.18 62.33 9.87 62.33 9.36
L62.33 7.55
C62.33 7.04 62.29 6.70 62.22 6.53
C62.12 6.28 61.95 6.09 61.72 5.97
C61.42 5.81 61.03 5.73 60.56 5.73
Z
M152.80 5.73
C152.19 5.73 151.71 5.87 151.37 6.15
C151.03 6.43 150.86 6.73 150.86 7.07
C150.86 7.24 150.90 7.38 150.99 7.48
C151.08 7.58 151.20 7.63 151.34 7.63
C151.49 7.63 151.61 7.58 151.70 7.49
C151.79 7.39 151.84 7.25 151.84 7.07
L151.83 6.74
C151.83 6.56 151.90 6.41 152.05 6.28
C152.19 6.15 152.39 6.08 152.63 6.08
C152.95 6.08 153.20 6.18 153.37 6.38
C153.53 6.58 153.62 6.94 153.62 7.47
L153.62 7.68
C152.70 8.02 152.05 8.30 151.66 8.53
C151.26 8.76 150.99 9.01 150.83 9.28
C150.71 9.47 150.65 9.69 150.65 9.95
C150.65 10.36 150.77 10.69 151.01 10.95
C151.25 11.20 151.55 11.32 151.92 11.32
C152.16 11.32 152.38 11.27 152.59 11.18
C152.73 11.11 153.07 10.87 153.62 10.45
C153.62 10.76 153.68 10.99 153.79 11.12
C153.91 11.25 154.06 11.32 154.25 11.32
C154.64 11.32 155.06 11.03 155.49 10.45
L155.49 10.12
C155.26 10.35 155.10 10.49 155.02 10.54
C154.97 10.57 154.92 10.58 154.86 10.58
C154.80 10.58 154.75 10.57 154.70 10.53
C154.66 10.49 154.63 10.41 154.61 10.30
C154.59 10.18 154.58 9.87 154.58 9.36
L154.58 7.55
C154.58 7.04 154.54 6.70 154.47 6.53
C154.37 6.28 154.20 6.09 153.97 5.97
C153.67 5.81 153.28 5.73 152.80 5.73
Z
M64.75 10.08
C64.57 10.08 64.42 10.15 64.30 10.27
C64.17 10.39 64.11 10.55 64.11 10.73
C64.11 10.91 64.17 11.06 64.30 11.19
C64.42 11.31 64.57 11.38 64.75 11.38
C64.93 11.38 65.08 11.31 65.21 11.19
C65.33 11.06 65.40 10.91 65.40 10.73
C65.40 10.55 65.34 10.40 65.21 10.27
C65.09 10.15 64.93 10.08 64.75 10.08
Z
M76.66 10.08
C76.48 10.08 76.33 10.15 76.20 10.27
C76.08 10.39 76.01 10.55 76.01 10.73
C76.01 10.91 76.08 11.06 76.20 11.19
C76.33 11.31 76.48 11.38 76.66 11.38
C76.84 11.38 76.99 11.31 77.11 11.19
C77.24 11.06 77.30 10.91 77.30 10.73
C77.30 10.55 77.24 10.40 77.12 10.27
C76.99 10.15 76.84 10.08 76.66 10.08
Z
M85.77 10.08
C85.59 10.08 85.44 10.14 85.31 10.27
C85.18 10.40 85.12 10.55 85.12 10.73
C85.12 10.91 85.18 11.06 85.31 11.19
C85.44 11.31 85.59 11.38 85.77 11.38
C85.95 11.38 86.10 11.31 86.23 11.19
C86.35 11.06 86.42 10.91 86.42 10.73
C86.42 10.55 86.36 10.40 86.23 10.27
C86.10 10.14 85.95 10.08 85.77 10.08
Z
M105.93 5.89
L105.93 6.10
C105.95 6.10 105.97 6.10 105.99 6.10
C106.24 6.10 106.41 6.13 106.51 6.17
C106.62 6.23 106.70 6.30 106.75 6.40
C106.81 6.49 106.83 6.67 106.83 6.92
L106.83 9.30
C106.83 9.80 106.88 10.18 106.96 10.45
C107.05 10.72 107.20 10.94 107.42 11.12
C107.64 11.29 107.90 11.38 108.19 11.38
C108.46 11.38 108.72 11.31 108.96 11.18
C109.20 11.06 109.55 10.74 110.00 10.25
L110.00 11.38
L110.26 11.38
L111.86 10.72
L111.78 10.52
C111.63 10.58 111.49 10.61 111.37 10.61
C111.28 10.61 111.21 10.59 111.15 10.53
C111.08 10.48 111.04 10.38 111.01 10.24
C110.98 10.11 110.96 9.73 110.96 9.11
L110.96 5.89
L109.15 5.89
L109.15 6.10
C109.50 6.11 109.73 6.17 109.84 6.27
C109.95 6.38 110.00 6.58 110.00 6.89
L110.00 9.90
C109.71 10.20 109.46 10.40 109.25 10.50
C109.04 10.61 108.85 10.66 108.68 10.66
C108.44 10.66 108.23 10.58 108.06 10.43
C107.89 10.27 107.80 9.95 107.80 9.45
L107.80 5.89
Z
M114.07 5.73
C113.59 5.73 113.21 5.88 112.91 6.17
C112.60 6.47 112.45 6.83 112.45 7.27
C112.45 7.61 112.54 7.89 112.72 8.11
C112.89 8.33 113.26 8.58 113.82 8.86
C114.38 9.14 114.76 9.37 114.95 9.56
C115.13 9.74 115.23 9.96 115.23 10.23
C115.23 10.45 115.14 10.64 114.98 10.80
C114.81 10.95 114.59 11.03 114.32 11.03
C113.94 11.03 113.60 10.89 113.29 10.62
C112.99 10.34 112.78 9.94 112.67 9.39
L112.48 9.39
L112.48 11.29
L112.67 11.29
C112.72 11.19 112.79 11.14 112.88 11.14
C112.96 11.14 113.07 11.16 113.19 11.20
C113.61 11.32 113.98 11.38 114.31 11.38
C114.76 11.38 115.17 11.23 115.54 10.93
C115.91 10.63 116.09 10.24 116.09 9.76
C116.09 9.13 115.70 8.63 114.91 8.24
L114.06 7.83
C113.69 7.65 113.45 7.48 113.33 7.32
C113.20 7.17 113.14 6.98 113.14 6.76
C113.14 6.59 113.22 6.43 113.39 6.29
C113.56 6.14 113.78 6.07 114.05 6.07
C114.40 6.07 114.70 6.17 114.93 6.38
C115.16 6.59 115.35 6.97 115.50 7.54
L115.69 7.54
L115.69 5.73
L115.50 5.73
C115.45 5.82 115.41 5.88 115.37 5.91
C115.34 5.94 115.29 5.95 115.23 5.95
C115.16 5.95 115.03 5.92 114.83 5.86
C114.53 5.77 114.28 5.73 114.07 5.73
Z
M119.41 5.72
C118.70 5.72 118.12 5.98 117.65 6.49
C117.18 7.00 116.95 7.71 116.95 8.62
C116.95 9.46 117.18 10.13 117.63 10.63
C118.09 11.13 118.63 11.38 119.27 11.38
C119.86 11.38 120.35 11.16 120.75 10.72
C121.14 10.29 121.37 9.80 121.46 9.27
L121.27 9.15
C121.10 9.62 120.88 9.95 120.63 10.14
C120.37 10.33 120.07 10.43 119.72 10.43
C119.19 10.43 118.74 10.20 118.35 9.75
C117.96 9.30 117.77 8.68 117.77 7.89
L121.46 7.89
C121.46 7.23 121.26 6.71 120.88 6.31
C120.50 5.92 120.01 5.72 119.41 5.72
Z
M157.71 5.73
C157.23 5.73 156.85 5.88 156.54 6.17
C156.24 6.47 156.09 6.83 156.09 7.27
C156.09 7.61 156.18 7.89 156.36 8.11
C156.53 8.33 156.90 8.58 157.46 8.86
C158.02 9.14 158.40 9.37 158.59 9.56
C158.77 9.74 158.87 9.96 158.87 10.23
C158.87 10.45 158.78 10.64 158.61 10.80
C158.45 10.95 158.23 11.03 157.96 11.03
C157.58 11.03 157.24 10.89 156.93 10.62
C156.63 10.34 156.42 9.94 156.31 9.39
L156.12 9.39
L156.12 11.29
L156.31 11.29
C156.36 11.19 156.43 11.14 156.52 11.14
C156.60 11.14 156.70 11.16 156.83 11.20
C157.25 11.32 157.62 11.38 157.95 11.38
C158.40 11.38 158.81 11.23 159.18 10.93
C159.55 10.63 159.73 10.24 159.73 9.76
C159.73 9.13 159.34 8.63 158.55 8.24
L157.70 7.83
C157.33 7.65 157.09 7.48 156.97 7.32
C156.84 7.17 156.78 6.98 156.78 6.76
C156.78 6.59 156.86 6.43 157.03 6.29
C157.20 6.14 157.42 6.07 157.69 6.07
C158.04 6.07 158.34 6.17 158.57 6.38
C158.80 6.59 158.99 6.97 159.14 7.54
L159.33 7.54
L159.33 5.73
L159.14 5.73
C159.09 5.82 159.05 5.88 159.01 5.91
C158.98 5.94 158.93 5.95 158.87 5.95
C158.80 5.95 158.67 5.92 158.47 5.86
C158.17 5.77 157.92 5.73 157.71 5.73
Z
M172.38 5.73
C171.94 5.73 171.52 5.84 171.13 6.08
C170.73 6.31 170.41 6.66 170.17 7.15
C169.93 7.63 169.81 8.11 169.81 8.60
C169.81 9.27 170.01 9.88 170.41 10.42
C170.88 11.06 171.52 11.38 172.32 11.38
C172.81 11.38 173.26 11.25 173.66 11.00
C174.06 10.76 174.38 10.39 174.60 9.90
C174.83 9.41 174.95 8.93 174.95 8.45
C174.95 7.77 174.74 7.17 174.33 6.65
C173.84 6.04 173.19 5.73 172.38 5.73
Z
" fill="black" fill-rule="nonzero" />
</g>
</g>
</svg>
