<?xml version="1.0" encoding="utf-8" standalone="no"?>
<!DOCTYPE svg PUBLIC "-//W3C//DTD SVG 1.0//EN" "http://www.w3.org/TR/SVG/DTD/svg11.dtd" >
<svg version="1.1" baseProfile="full"  width="319.13385" height="338.51422" viewBox="0 0 229.77638 243.73024" preserveAspectRatio="xMidYMid" xmlns="http://www.w3.org/2000/svg" >

<g lengthAdjust="spacingAndGlyphs" xml:space='preserve' >
<g  transform="translate(1.19,1.19)" >
<path d="
M0.0 0.0
L0.0 227.39
L227.39 227.39
L227.39 0.0
Z
" fill="none" fill-rule="nonzero" />
<line x1="6.54" y1="6.54" x2="6.54" y2="220.84" fill="none" stroke="black" stroke-width="0.87px" stroke-linecap="square" />
<line x1="18.45" y1="6.54" x2="18.45" y2="220.84" fill="none" stroke="black" stroke-width="0.25px" stroke-linecap="butt" />
<line x1="30.35" y1="6.54" x2="30.35" y2="220.84" fill="none" stroke="black" stroke-width="0.25px" stroke-linecap="butt" />
<line x1="42.26" y1="6.54" x2="42.26" y2="220.84" fill="none" stroke="black" stroke-width="0.25px" stroke-linecap="butt" />
<line x1="54.17" y1="6.54" x2="54.17" y2="220.84" fill="none" stroke="black" stroke-width="0.25px" stroke-linecap="butt" />
<line x1="66.07" y1="6.54" x2="66.07" y2="220.84" fill="none" stroke="black" stroke-width="0.25px" stroke-linecap="butt" />
<line x1="77.98" y1="6.54" x2="77.98" y2="220.84" fill="none" stroke="black" stroke-width="0.25px" stroke-linecap="butt" />
<line x1="89.88" y1="6.54" x2="89.88" y2="220.84" fill="none" stroke="black" stroke-width="0.25px" stroke-linecap="butt" />
<line x1="101.79" y1="6.54" x2="101.79" y2="220.84" fill="none" stroke="black" stroke-width="0.25px" stroke-linecap="butt" />
<line x1="113.69" y1="6.54" x2="113.69" y2="220.84" fill="none" stroke="black" stroke-width="0.25px" stroke-linecap="butt" />
<line x1="125.60" y1="6.54" x2="125.60" y2="220.84" fill="none" stroke="black" stroke-width="0.25px" stroke-linecap="butt" />
<line x1="137.50" y1="6.54" x2="137.50" y2="220.84" fill="none" stroke="black" stroke-width="0.25px" stroke-linecap="butt" />
<line x1="149.41" y1="6.54" x2="149.41" y2="220.84" fill="none" stroke="black" stroke-width="0.25px" stroke-linecap="butt" />
<line x1="161.31" y1="6.54" x2="161.31" y2="220.84" fill="none" stroke="black" stroke-width="0.25px" stroke-linecap="butt" />
<line x1="173.22" y1="6.54" x2="173.22" y2="220.84" fill="none" stroke="black" stroke-width="0.25px" stroke-linecap="butt" />
<line x1="185.13" y1="6.54" x2="185.13" y2="220.84" fill="none" stroke="black" stroke-width="0.25px" stroke-linecap="butt" />
<line x1="197.03" y1="6.54" x2="197.03" y2="220.84" fill="none" stroke="black" stroke-width="0.25px" stroke-linecap="butt" />
<line x1="208.94" y1="6.54" x2="208.94" y2="220.84" fill="none" stroke="black" stroke-width="0.25px" stroke-linecap="butt" />
<line x1="220.84" y1="6.54" x2="220.84" y2="220.84" fill="none" stroke="black" stroke-width="0.87px" stroke-linecap="square" />
<line x1="6.54" y1="6.54" x2="220.84" y2="6.54" fill="none" stroke="black" stroke-width="0.87px" stroke-linecap="square" />
<line x1="6.54" y1="18.45" x2="220.84" y2="18.45" fill="none" stroke="black" stroke-width="0.25px" stroke-linecap="butt" />
<line x1="6.54" y1="30.35" x2="220.84" y2="30.35" fill="none" stroke="black" stroke-width="0.25px" stroke-linecap="butt" />
<line x1="6.54" y1="42.26" x2="220.84" y2="42.26" fill="none" stroke="black" stroke-width="0.25px" stroke-linecap="butt" />
<line x1="6.54" y1="54.17" x2="220.84" y2="54.17" fill="none" stroke="black" stroke-width="0.25px" stroke-linecap="butt" />
<line x1="6.54" y1="66.07" x2="220.84" y2="66.07" fill="none" stroke="black" stroke-width="0.25px" stroke-linecap="butt" />
<line x1="6.54" y1="77.98" x2="220.84" y2="77.98" fill="none" stroke="black" stroke-width="0.25px" stroke-linecap="butt" />
<line x1="6.54" y1="89.88" x2="220.84" y2="89.88" fill="none" stroke="black" stroke-width="0.25px" stroke-linecap="butt" />
<line x1="6.54" y1="101.79" x2="220.84" y2="101.79" fill="none" stroke="black" stroke-width="0.25px" stroke-linecap="butt" />
<line x1="6.54" y1="113.69" x2="220.84" y2="113.69" fill="none" stroke="black" stroke-width="0.25px" stroke-linecap="butt" />
<line x1="6.54" y1="125.60" x2="220.84" y2="125.60" fill="none" stroke="black" stroke-width="0.25px" stroke-linecap="butt" />
<line x1="6.54" y1="137.50" x2="220.84" y2="137.50" fill="none" stroke="black" stroke-width="0.25px" stroke-linecap="butt" />
<line x1="6.54" y1="149.41" x2="220.84" y2="149.41" fill="none" stroke="black" stroke-width="0.25px" stroke-linecap="butt" />
<line x1="6.54" y1="161.31" x2="220.84" y2="161.31" fill="none" stroke="black" stroke-width="0.25px" stroke-linecap="butt" />
<line x1="6.54" y1="173.22" x2="220.84" y2="173.22" fill="none" stroke="black" stroke-width="0.25px" stroke-linecap="butt" />
<line x1="6.54" y1="185.13" x2="220.84" y2="185.13" fill="none" stroke="black" stroke-width="0.25px" stroke-linecap="butt" />
<line x1="6.54" y1="197.03" x2="220.84" y2="197.03" fill="none" stroke="black" stroke-width="0.25px" stroke-linecap="butt" />
<line x1="6.54" y1="208.94" x2="220.84" y2="208.94" fill="none" stroke="black" stroke-width="0.25px" stroke-linecap="butt" />
<line x1="6.54" y1="220.84" x2="220.84" y2="220.84" fill="none" stroke="black" stroke-width="0.87px" stroke-linecap="square" />
<circle cx="42.26" cy="42.26" r="1.27" fill="black"/>
<circle cx="42.26" cy="113.69" r="1.27" fill="black"/>
<circle cx="42.26" cy="185.13" r="1.27" fill="black"/>
<circle cx="113.69" cy="42.26" r="1.27" fill="black"/>
<circle cx="113.69" cy="113.69" r="1.27" fill="black"/>
<circle cx="113.69" cy="185.13" r="6.01" fill="black"/>
<circle cx="185.13" cy="42.26" r="1.27" fill="black"/>
<circle cx="185.13" cy="113.69" r="1.27" fill="black"/>
<circle cx="185.13" cy="161.31" r="6.01" fill="black"/>
<circle cx="185.13" cy="173.22" r="6.01" fill="black"/>
<circle cx="185.13" cy="185.13" r="6.01" fill="black"/>
<circle cx="185.13" cy="197.03" r="6.01" fill="black"/>
<circle cx="197.03" cy="137.50" r="6.01" fill="black"/>
<circle cx="197.03" cy="161.31" r="5.89" fill="white"/>
<circle cx="197.03" cy="161.31" r="5.89" fill="none" stroke="black" stroke-width="0.25px"/>
<circle cx="197.03" cy="185.13" r="5.89" fill="white"/>
<circle cx="197.03" cy="185.13" r="5.89" fill="none" stroke="black" stroke-width="0.25px"/>
<circle cx="197.03" cy="197.03" r="5.89" fill="white"/>
<circle cx="197.03" cy="197.03" r="5.89" fill="none" stroke="black" stroke-width="0.25px"/>
<circle cx="197.03" cy="208.94" r="5.89" fill="white"/>
<circle cx="197.03" cy="208.94" r="5.89" fill="none" stroke="black" stroke-width="0.25px"/>
<circle cx="208.94" cy="161.31" r="5.89" fill="white"/>
<circle cx="208.94" cy="161.31" r="5.89" fill="none" stroke="black" stroke-width="0.25px"/>
<path d="
M185.09 158.57
C185.10 158.57 185.10 158.57 185.10 158.57
C185.10 158.57 185.10 158.57 185.10 158.57
C185.31 158.57 185.50 158.66 185.66 158.84
C185.82 159.02 185.90 159.26 185.90 159.56
C185.90 159.84 185.82 160.07 185.66 160.24
C185.51 160.41 185.33 160.50 185.11 160.50
C185.11 160.50 185.11 160.50 185.11 160.50
C185.11 160.50 185.10 160.50 185.10 160.50
C184.88 160.50 184.69 160.41 184.54 160.24
C184.38 160.06 184.30 159.82 184.30 159.51
C184.30 159.24 184.38 159.01 184.54 158.83
C184.70 158.66 184.88 158.57 185.09 158.57
Z
M185.08 161.49
C185.09 161.49 185.09 161.49 185.09 161.49
C185.09 161.49 185.09 161.49 185.09 161.49
C185.37 161.49 185.62 161.60 185.82 161.84
C186.03 162.07 186.14 162.39 186.14 162.79
C186.14 163.18 186.03 163.49 185.83 163.72
C185.63 163.94 185.39 164.05 185.11 164.05
C185.11 164.05 185.11 164.05 185.11 164.05
C185.11 164.05 185.10 164.05 185.10 164.05
C184.82 164.05 184.58 163.94 184.38 163.71
C184.17 163.47 184.07 163.15 184.07 162.76
C184.07 162.38 184.17 162.07 184.37 161.83
C184.57 161.60 184.81 161.49 185.08 161.49
Z
M185.09 157.58
C184.57 157.58 184.14 157.76 183.80 158.13
C183.46 158.49 183.29 158.96 183.29 159.53
C183.29 159.91 183.37 160.23 183.53 160.50
C183.64 160.68 183.79 160.83 183.97 160.95
L183.97 160.95
C183.73 161.08 183.53 161.27 183.37 161.52
C183.16 161.85 183.06 162.26 183.06 162.76
C183.06 163.44 183.25 163.99 183.64 164.41
C184.03 164.84 184.52 165.05 185.11 165.05
C185.69 165.05 186.17 164.84 186.56 164.41
C186.95 163.99 187.14 163.44 187.14 162.78
C187.14 162.30 187.04 161.89 186.84 161.56
C186.69 161.31 186.48 161.11 186.23 160.96
L186.23 160.96
C186.42 160.84 186.57 160.68 186.68 160.49
C186.83 160.24 186.91 159.93 186.91 159.56
C186.91 158.98 186.74 158.51 186.39 158.14
C186.05 157.77 185.61 157.58 185.09 157.58
Z
" fill="white" fill-rule="nonzero" />
<path d="
M185.14 173.03
C185.41 173.03 185.63 173.15 185.82 173.39
C186.02 173.64 186.12 174.00 186.12 174.47
C186.12 174.94 186.02 175.31 185.82 175.58
C185.63 175.83 185.42 175.96 185.19 175.96
C185.19 175.96 185.18 175.96 185.18 175.96
C185.18 175.96 185.18 175.96 185.18 175.96
C184.91 175.96 184.67 175.82 184.46 175.55
C184.24 175.27 184.13 174.89 184.13 174.41
C184.13 173.98 184.23 173.64 184.44 173.39
C184.64 173.15 184.87 173.03 185.13 173.03
C185.13 173.03 185.13 173.03 185.14 173.03
C185.14 173.03 185.14 173.03 185.14 173.03
Z
M185.24 169.49
C184.59 169.49 184.05 169.80 183.64 170.42
C183.23 171.02 183.03 172.01 183.03 173.40
C183.03 174.66 183.23 175.56 183.62 176.11
C184.03 176.67 184.55 176.95 185.18 176.95
C185.53 176.95 185.85 176.85 186.15 176.66
C186.44 176.46 186.67 176.16 186.86 175.75
C187.04 175.35 187.12 174.90 187.12 174.41
C187.12 173.68 186.94 173.10 186.58 172.66
C186.21 172.21 185.78 171.99 185.27 171.99
C184.97 171.99 184.69 172.07 184.42 172.25
C184.28 172.34 184.15 172.45 184.03 172.58
L184.03 172.58
C184.07 171.98 184.17 171.51 184.33 171.17
C184.45 170.93 184.58 170.76 184.73 170.64
C184.87 170.53 185.02 170.48 185.20 170.48
C185.20 170.48 185.20 170.48 185.20 170.48
C185.20 170.48 185.20 170.48 185.20 170.48
C185.42 170.48 185.61 170.58 185.77 170.77
C185.89 170.90 185.97 171.14 186.04 171.47
L186.06 171.60
L186.19 171.59
L186.90 171.52
L187.04 171.51
L187.02 171.36
C186.96 170.76 186.76 170.30 186.44 169.98
C186.12 169.65 185.72 169.49 185.24 169.49
Z
" fill="white" fill-rule="nonzero" />
<path d="
M185.33 195.44
L185.33 197.93
L183.92 197.93
L185.33 195.44
Z
M185.53 193.37
L185.49 193.44
L182.85 198.00
L182.83 198.03
L182.83 198.07
L182.83 198.86
L182.83 199.01
L185.33 199.01
L185.33 200.55
L185.33 200.69
L186.33 200.69
L186.33 200.55
L186.33 199.01
L187.11 199.01
L187.11 198.86
L187.11 198.07
L187.11 197.93
L186.33 197.93
L186.33 193.51
L186.33 193.37
Z
" fill="white" fill-rule="nonzero" />
<path d="
M197.05 133.83
C196.47 133.83 196.00 134.01 195.64 134.38
C195.28 134.75 195.08 135.29 195.02 136.00
L195.01 136.13
L195.15 136.15
L195.88 136.24
L196.04 136.26
L196.04 136.10
C196.04 135.68 196.13 135.36 196.32 135.14
C196.50 134.93 196.73 134.83 197.02 134.83
C197.02 134.83 197.02 134.83 197.02 134.83
C197.02 134.83 197.02 134.83 197.02 134.83
C197.29 134.83 197.51 134.93 197.69 135.12
C197.88 135.32 197.97 135.58 197.97 135.90
C197.97 136.19 197.87 136.50 197.68 136.84
C197.48 137.18 197.06 137.68 196.40 138.33
C195.83 138.91 195.43 139.41 195.21 139.84
C194.98 140.28 194.88 140.68 194.89 141.04
L194.89 141.18
L198.99 141.18
L198.99 141.04
L198.99 140.21
L198.99 140.06
L196.25 140.06
C196.31 139.98 196.36 139.90 196.43 139.82
C196.55 139.67 196.81 139.38 197.23 138.95
C197.90 138.26 198.36 137.70 198.60 137.28
C198.85 136.85 198.98 136.39 198.98 135.92
C198.98 135.38 198.82 134.90 198.50 134.48
C198.16 134.05 197.68 133.83 197.05 133.83
Z
" fill="white" fill-rule="nonzero" />
<path d="
M197.32 157.78
C197.20 158.09 196.99 158.40 196.69 158.73
C196.39 159.05 196.04 159.32 195.65 159.55
L195.65 160.38
C195.88 160.28 196.14 160.13 196.41 159.93
C196.69 159.73 196.91 159.53 197.07 159.34
L197.07 164.85
L197.78 164.85
L197.78 157.78
Z
" fill="black" fill-rule="nonzero" />
<path d="
M195.80 181.60
L195.24 185.21
L195.90 185.32
C196.01 185.10 196.16 184.93 196.35 184.81
C196.53 184.69 196.74 184.63 196.95 184.63
C197.30 184.63 197.60 184.77 197.84 185.05
C198.07 185.33 198.19 185.72 198.19 186.22
C198.19 186.75 198.07 187.17 197.82 187.48
C197.58 187.79 197.29 187.95 196.95 187.95
C196.69 187.95 196.45 187.84 196.25 187.62
C196.04 187.40 195.91 187.06 195.86 186.62
L195.11 186.69
C195.16 187.31 195.36 187.79 195.70 188.13
C196.04 188.48 196.46 188.66 196.96 188.66
C197.57 188.66 198.04 188.41 198.40 187.92
C198.76 187.43 198.94 186.84 198.94 186.15
C198.94 185.45 198.76 184.90 198.40 184.49
C198.04 184.08 197.62 183.87 197.14 183.87
C196.76 183.87 196.39 184.02 196.05 184.31
L196.36 182.42
L198.66 182.42
L198.66 181.60
Z
" fill="black" fill-rule="nonzero" />
<path d="
M196.93 193.44
C196.49 193.44 196.11 193.59 195.79 193.90
C195.48 194.20 195.28 194.66 195.19 195.26
L195.89 195.41
C195.94 194.99 196.06 194.67 196.25 194.46
C196.44 194.25 196.67 194.15 196.94 194.15
C197.20 194.15 197.42 194.25 197.61 194.45
C197.79 194.65 197.88 194.91 197.88 195.24
C197.88 195.60 197.77 195.89 197.55 196.10
C197.34 196.31 197.05 196.42 196.70 196.42
L196.59 196.41
L196.51 197.17
C196.71 197.11 196.88 197.07 197.01 197.07
C197.33 197.07 197.60 197.20 197.81 197.45
C198.03 197.70 198.14 198.03 198.14 198.44
C198.14 198.87 198.02 199.23 197.78 199.50
C197.55 199.77 197.27 199.91 196.94 199.91
C196.35 199.91 195.97 199.45 195.83 198.53
L195.12 198.64
C195.16 199.25 195.36 199.73 195.70 200.09
C196.04 200.45 196.46 200.63 196.95 200.63
C197.49 200.63 197.94 200.42 198.32 200.01
C198.70 199.60 198.89 199.07 198.89 198.42
C198.89 198.12 198.85 197.84 198.75 197.60
C198.66 197.35 198.54 197.15 198.39 197.01
C198.24 196.86 198.05 196.75 197.82 196.69
C198.07 196.55 198.26 196.36 198.40 196.11
C198.54 195.86 198.61 195.58 198.61 195.26
C198.61 194.74 198.45 194.30 198.12 193.95
C197.79 193.61 197.40 193.44 196.93 193.44
Z
" fill="black" fill-rule="nonzero" />
<path d="
M195.16 205.46
L195.16 206.29
L197.98 206.29
C197.62 206.79 197.29 207.40 196.98 208.11
C196.67 208.82 196.42 209.57 196.25 210.35
C196.07 211.13 195.98 211.82 195.97 212.41
L196.70 212.41
C196.76 211.27 197.00 210.12 197.42 208.96
C197.85 207.80 198.34 206.86 198.89 206.14
L198.89 205.46
Z
" fill="black" fill-rule="nonzero" />
<path d="
M208.92 158.44
C209.21 158.44 209.47 158.58 209.69 158.87
C209.91 159.16 210.03 159.55 210.03 160.05
C210.03 160.56 209.92 160.95 209.70 161.23
C209.48 161.50 209.22 161.64 208.90 161.64
C208.59 161.64 208.31 161.50 208.09 161.23
C207.86 160.95 207.75 160.59 207.75 160.13
C207.75 159.61 207.87 159.21 208.10 158.90
C208.34 158.59 208.61 158.44 208.92 158.44
Z
M208.84 157.72
C208.33 157.72 207.90 157.93 207.55 158.36
C207.19 158.78 207.02 159.36 207.02 160.10
C207.02 160.81 207.19 161.37 207.53 161.79
C207.87 162.20 208.27 162.40 208.74 162.40
C209.00 162.40 209.26 162.32 209.51 162.15
C209.76 161.99 209.96 161.76 210.10 161.48
L210.10 161.65
C210.10 162.20 210.04 162.68 209.90 163.09
C209.77 163.51 209.60 163.79 209.41 163.95
C209.22 164.12 209.00 164.20 208.76 164.20
C208.23 164.20 207.91 163.83 207.80 163.08
L207.12 163.16
C207.18 163.73 207.36 164.16 207.65 164.46
C207.94 164.76 208.31 164.91 208.75 164.91
C209.14 164.91 209.49 164.78 209.80 164.54
C210.11 164.29 210.36 163.90 210.54 163.37
C210.72 162.83 210.81 162.08 210.81 161.12
C210.81 160.25 210.73 159.58 210.56 159.12
C210.39 158.66 210.15 158.31 209.84 158.08
C209.53 157.84 209.19 157.72 208.84 157.72
Z
" fill="black" fill-rule="nonzero" />
</g>
<g  transform="translate(1.19,228.58)" >
<path d="
M105.00 2.72
C104.84 2.72 104.70 2.78 104.58 2.89
C104.47 3.01 104.41 3.15 104.41 3.31
C104.41 3.47 104.47 3.61 104.59 3.73
C104.70 3.84 104.84 3.90 105.00 3.90
C105.17 3.90 105.31 3.84 105.42 3.73
C105.53 3.61 105.59 3.47 105.59 3.31
C105.59 3.15 105.53 3.01 105.42 2.89
C105.31 2.78 105.17 2.72 105.00 2.72
Z
M109.98 7.81
L109.98 9.84
C109.49 10.23 109.11 10.42 108.81 10.42
C108.60 10.42 108.40 10.33 108.24 10.15
C108.07 9.96 107.99 9.73 107.99 9.45
C107.99 9.23 108.05 9.03 108.18 8.84
C108.32 8.66 108.54 8.48 108.84 8.31
C109.01 8.21 109.39 8.05 109.98 7.81
Z
M98.33 3.55
C99.26 3.55 100.02 3.86 100.61 4.49
C101.20 5.12 101.50 5.98 101.50 7.06
C101.50 8.15 101.20 9.00 100.61 9.63
C100.02 10.27 99.27 10.58 98.37 10.58
C98.04 10.58 97.63 10.53 97.13 10.42
L97.13 3.72
C97.58 3.60 97.98 3.55 98.33 3.55
Z
M94.88 3.11
L94.88 3.32
L95.18 3.32
C95.48 3.32 95.70 3.41 95.85 3.58
C95.96 3.70 96.02 4.01 96.02 4.50
L96.02 9.59
C96.02 10.04 95.97 10.33 95.89 10.45
C95.75 10.67 95.51 10.77 95.18 10.77
L94.88 10.77
L94.88 10.99
L98.41 10.99
C99.94 10.99 101.08 10.58 101.82 9.76
C102.49 9.02 102.82 8.10 102.82 7.01
C102.82 6.19 102.64 5.47 102.26 4.84
C101.89 4.22 101.40 3.77 100.78 3.51
C100.17 3.24 99.27 3.11 98.09 3.11
Z
M105.23 5.51
L103.63 6.16
L103.71 6.37
C103.86 6.31 104.00 6.28 104.10 6.28
C104.20 6.28 104.28 6.30 104.34 6.35
C104.40 6.40 104.44 6.49 104.47 6.61
C104.50 6.78 104.52 7.16 104.52 7.73
L104.52 9.79
C104.52 10.11 104.50 10.34 104.44 10.45
C104.39 10.57 104.32 10.65 104.23 10.70
C104.14 10.75 103.97 10.78 103.71 10.78
L103.71 10.99
L106.30 10.99
L106.30 10.78
C106.04 10.78 105.87 10.75 105.78 10.70
C105.68 10.64 105.61 10.56 105.56 10.45
C105.51 10.34 105.49 10.12 105.49 9.79
L105.49 5.51
Z
M120.56 2.94
C119.95 2.94 119.45 3.14 119.05 3.52
C118.65 3.90 118.40 4.45 118.31 5.17
L118.52 5.17
C118.67 4.73 118.90 4.40 119.20 4.17
C119.51 3.95 119.86 3.83 120.25 3.83
C120.67 3.83 121.04 3.99 121.35 4.32
C121.65 4.64 121.81 5.05 121.81 5.55
C121.81 6.20 121.53 6.93 120.97 7.72
C120.41 8.51 119.45 9.53 118.08 10.77
L118.08 10.99
L122.73 10.99
L123.28 9.47
L123.07 9.47
C122.97 9.65 122.85 9.78 122.71 9.88
C122.58 9.97 122.42 10.03 122.26 10.06
C122.09 10.10 121.79 10.11 121.37 10.11
L119.32 10.11
C119.56 9.89 120.16 9.26 121.12 8.20
C121.77 7.50 122.23 6.84 122.52 6.21
C122.71 5.81 122.80 5.41 122.80 5.01
C122.80 4.45 122.58 3.97 122.16 3.56
C121.73 3.15 121.19 2.94 120.56 2.94
Z
M130.07 2.94
L128.15 3.88
L128.23 4.06
C128.49 3.94 128.69 3.88 128.83 3.88
C128.93 3.88 129.02 3.91 129.09 3.97
C129.16 4.02 129.21 4.12 129.24 4.24
C129.28 4.40 129.30 4.77 129.30 5.34
L129.30 9.60
C129.30 10.07 129.28 10.36 129.23 10.45
C129.19 10.55 129.12 10.62 129.01 10.68
C128.90 10.73 128.66 10.77 128.29 10.77
L128.29 10.99
L131.25 10.99
L131.25 10.77
C130.89 10.77 130.66 10.73 130.54 10.67
C130.43 10.62 130.35 10.53 130.31 10.42
C130.28 10.32 130.26 10.04 130.26 9.60
L130.26 2.94
Z
M109.16 5.51
C108.55 5.51 108.07 5.65 107.73 5.93
C107.38 6.20 107.21 6.51 107.21 6.84
C107.21 7.02 107.26 7.16 107.35 7.26
C107.44 7.36 107.56 7.41 107.70 7.41
C107.85 7.41 107.97 7.36 108.06 7.26
C108.15 7.17 108.20 7.03 108.20 6.85
L108.18 6.51
C108.18 6.34 108.26 6.19 108.41 6.06
C108.55 5.93 108.74 5.86 108.99 5.86
C109.31 5.86 109.55 5.96 109.72 6.16
C109.89 6.36 109.98 6.72 109.98 7.25
L109.98 7.46
C109.06 7.79 108.41 8.08 108.01 8.31
C107.62 8.54 107.34 8.79 107.18 9.05
C107.07 9.24 107.01 9.47 107.01 9.73
C107.01 10.14 107.13 10.47 107.37 10.72
C107.61 10.97 107.91 11.10 108.28 11.10
C108.51 11.10 108.74 11.05 108.95 10.95
C109.09 10.89 109.43 10.64 109.98 10.22
C109.98 10.54 110.04 10.76 110.15 10.90
C110.26 11.03 110.41 11.09 110.60 11.09
C111.00 11.09 111.41 10.80 111.85 10.22
L111.85 9.90
C111.61 10.13 111.46 10.27 111.38 10.32
C111.33 10.35 111.28 10.36 111.21 10.36
C111.16 10.36 111.10 10.34 111.06 10.30
C111.01 10.26 110.98 10.19 110.96 10.07
C110.94 9.96 110.93 9.65 110.93 9.14
L110.93 7.33
C110.93 6.82 110.90 6.48 110.83 6.31
C110.72 6.05 110.55 5.87 110.32 5.75
C110.02 5.59 109.63 5.51 109.16 5.51
Z
M113.36 9.86
C113.18 9.86 113.03 9.92 112.90 10.05
C112.78 10.17 112.71 10.32 112.71 10.51
C112.71 10.68 112.78 10.84 112.90 10.96
C113.03 11.09 113.18 11.15 113.36 11.15
C113.54 11.15 113.69 11.09 113.81 10.96
C113.94 10.84 114.00 10.68 114.00 10.51
C114.00 10.33 113.94 10.18 113.82 10.05
C113.69 9.92 113.54 9.86 113.36 9.86
Z
M125.26 9.86
C125.09 9.86 124.93 9.92 124.81 10.05
C124.68 10.17 124.62 10.32 124.62 10.51
C124.62 10.68 124.68 10.84 124.81 10.96
C124.93 11.09 125.09 11.15 125.26 11.15
C125.44 11.15 125.59 11.09 125.72 10.96
C125.85 10.84 125.91 10.68 125.91 10.51
C125.91 10.33 125.85 10.18 125.72 10.05
C125.60 9.92 125.45 9.86 125.26 9.86
Z
" fill="black" fill-rule="nonzero" />
</g>
</g>
</svg>
