<?xml version="1.0" encoding="utf-8" standalone="no"?>
<!DOCTYPE svg PUBLIC "-//W3C//DTD SVG 1.0//EN" "http://www.w3.org/TR/SVG/DTD/svg11.dtd" >
<svg version="1.1" baseProfile="full"  width="319.13385" height="338.51422" viewBox="0 0 229.77638 243.73024" preserveAspectRatio="xMidYMid" xmlns="http://www.w3.org/2000/svg" >

<g lengthAdjust="spacingAndGlyphs" xml:space='preserve' >
<g  transform="translate(1.19,1.19)" >
<path d="
M0.0 0.0
L0.0 227.39
L227.39 227.39
L227.39 0.0
Z
" fill="none" fill-rule="nonzero" />
<line x1="6.54" y1="6.54" x2="6.54" y2="220.84" fill="none" stroke="black" stroke-width="0.87px" stroke-linecap="square" />
<line x1="18.45" y1="6.54" x2="18.45" y2="220.84" fill="none" stroke="black" stroke-width="0.25px" stroke-linecap="butt" />
<line x1="30.35" y1="6.54" x2="30.35" y2="220.84" fill="none" stroke="black" stroke-width="0.25px" stroke-linecap="butt" />
<line x1="42.26" y1="6.54" x2="42.26" y2="220.84" fill="none" stroke="black" stroke-width="0.25px" stroke-linecap="butt" />
<line x1="54.17" y1="6.54" x2="54.17" y2="220.84" fill="none" stroke="black" stroke-width="0.25px" stroke-linecap="butt" />
<line x1="66.07" y1="6.54" x2="66.07" y2="220.84" fill="none" stroke="black" stroke-width="0.25px" stroke-linecap="butt" />
<line x1="77.98" y1="6.54" x2="77.98" y2="220.84" fill="none" stroke="black" stroke-width="0.25px" stroke-linecap="butt" />
<line x1="89.88" y1="6.54" x2="89.88" y2="220.84" fill="none" stroke="black" stroke-width="0.25px" stroke-linecap="butt" />
<line x1="101.79" y1="6.54" x2="101.79" y2="220.84" fill="none" stroke="black" stroke-width="0.25px" stroke-linecap="butt" />
<line x1="113.69" y1="6.54" x2="113.69" y2="220.84" fill="none" stroke="black" stroke-width="0.25px" stroke-linecap="butt" />
<line x1="125.60" y1="6.54" x2="125.60" y2="220.84" fill="none" stroke="black" stroke-width="0.25px" stroke-linecap="butt" />
<line x1="137.50" y1="6.54" x2="137.50" y2="220.84" fill="none" stroke="black" stroke-width="0.25px" stroke-linecap="butt" />
<line x1="149.41" y1="6.54" x2="149.41" y2="220.84" fill="none" stroke="black" stroke-width="0.25px" stroke-linecap="butt" />
<line x1="161.31" y1="6.54" x2="161.31" y2="220.84" fill="none" stroke="black" stroke-width="0.25px" stroke-linecap="butt" />
<line x1="173.22" y1="6.54" x2="173.22" y2="220.84" fill="none" stroke="black" stroke-width="0.25px" stroke-linecap="butt" />
<line x1="185.13" y1="6.54" x2="185.13" y2="220.84" fill="none" stroke="black" stroke-width="0.25px" stroke-linecap="butt" />
<line x1="197.03" y1="6.54" x2="197.03" y2="220.84" fill="none" stroke="black" stroke-width="0.25px" stroke-linecap="butt" />
<line x1="208.94" y1="6.54" x2="208.94" y2="220.84" fill="none" stroke="black" stroke-width="0.25px" stroke-linecap="butt" />
<line x1="220.84" y1="6.54" x2="220.84" y2="220.84" fill="none" stroke="black" stroke-width="0.87px" stroke-linecap="square" />
<line x1="6.54" y1="6.54" x2="220.84" y2="6.54" fill="none" stroke="black" stroke-width="0.87px" stroke-linecap="square" />
<line x1="6.54" y1="18.45" x2="220.84" y2="18.45" fill="none" stroke="black" stroke-width="0.25px" stroke-linecap="butt" />
<line x1="6.54" y1="30.35" x2="220.84" y2="30.35" fill="none" stroke="black" stroke-width="0.25px" stroke-linecap="butt" />
<line x1="6.54" y1="42.26" x2="220.84" y2="42.26" fill="none" stroke="black" stroke-width="0.25px" stroke-linecap="butt" />
<line x1="6.54" y1="54.17" x2="220.84" y2="54.17" fill="none" stroke="black" stroke-width="0.25px" stroke-linecap="butt" />
<line x1="6.54" y1="66.07" x2="220.84" y2="66.07" fill="none" stroke="black" stroke-width="0.25px" stroke-linecap="butt" />
<line x1="6.54" y1="77.98" x2="220.84" y2="77.98" fill="none" stroke="black" stroke-width="0.25px" stroke-linecap="butt" />
<line x1="6.54" y1="89.88" x2="220.84" y2="89.88" fill="none" stroke="black" stroke-width="0.25px" stroke-linecap="butt" />
<line x1="6.54" y1="101.79" x2="220.84" y2="101.79" fill="none" stroke="black" stroke-width="0.25px" stroke-linecap="butt" />
<line x1="6.54" y1="113.69" x2="220.84" y2="113.69" fill="none" stroke="black" stroke-width="0.25px" stroke-linecap="butt" />
<line x1="6.54" y1="125.60" x2="220.84" y2="125.60" fill="none" stroke="black" stroke-width="0.25px" stroke-linecap="butt" />
<line x1="6.54" y1="137.50" x2="220.84" y2="137.50" fill="none" stroke="black" stroke-width="0.25px" stroke-linecap="butt" />
<line x1="6.54" y1="149.41" x2="220.84" y2="149.41" fill="none" stroke="black" stroke-width="0.25px" stroke-linecap="butt" />
<line x1="6.54" y1="161.31" x2="220.84" y2="161.31" fill="none" stroke="black" stroke-width="0.25px" stroke-linecap="butt" />
<line x1="6.54" y1="173.22" x2="220.84" y2="173.22" fill="none" stroke="black" stroke-width="0.25px" stroke-linecap="butt" />
<line x1="6.54" y1="185.13" x2="220.84" y2="185.13" fill="none" stroke="black" stroke-width="0.25px" stroke-linecap="butt" />
<line x1="6.54" y1="197.03" x2="220.84" y2="197.03" fill="none" stroke="black" stroke-width="0.25px" stroke-linecap="butt" />
<line x1="6.54" y1="208.94" x2="220.84" y2="208.94" fill="none" stroke="black" stroke-width="0.25px" stroke-linecap="butt" />
<line x1="6.54" y1="220.84" x2="220.84" y2="220.84" fill="none" stroke="black" stroke-width="0.87px" stroke-linecap="square" />
<circle cx="42.26" cy="42.26" r="1.27" fill="black"/>
<circle cx="42.26" cy="113.69" r="1.27" fill="black"/>
<circle cx="42.26" cy="185.13" r="1.27" fill="black"/>
<circle cx="113.69" cy="42.26" r="1.27" fill="black"/>
<circle cx="113.69" cy="113.69" r="1.27" fill="black"/>
<circle cx="113.69" cy="185.13" r="6.01" fill="black"/>
<circle cx="137.50" cy="185.13" r="6.01" fill="black"/>
<circle cx="149.41" cy="113.69" r="6.01" fill="black"/>
<circle cx="149.41" cy="137.50" r="5.89" fill="white"/>
<circle cx="149.41" cy="137.50" r="5.89" fill="none" stroke="black" stroke-width="0.25px"/>
<circle cx="149.41" cy="173.22" r="5.89" fill="white"/>
<circle cx="149.41" cy="173.22" r="5.89" fill="none" stroke="black" stroke-width="0.25px"/>
<circle cx="149.41" cy="197.03" r="6.01" fill="black"/>
<circle cx="161.31" cy="173.22" r="5.89" fill="white"/>
<circle cx="161.31" cy="173.22" r="5.89" fill="none" stroke="black" stroke-width="0.25px"/>
<circle cx="161.31" cy="185.13" r="6.01" fill="black"/>
<circle cx="173.22" cy="89.88" r="6.01" fill="black"/>
<circle cx="173.22" cy="101.79" r="6.01" fill="black"/>
<circle cx="173.22" cy="113.69" r="5.89" fill="white"/>
<circle cx="173.22" cy="113.69" r="5.89" fill="none" stroke="black" stroke-width="0.25px"/>
<circle cx="173.22" cy="125.60" r="5.89" fill="white"/>
<circle cx="173.22" cy="125.60" r="5.89" fill="none" stroke="black" stroke-width="0.25px"/>
<circle cx="173.22" cy="149.41" r="5.89" fill="white"/>
<circle cx="173.22" cy="149.41" r="5.89" fill="none" stroke="black" stroke-width="0.25px"/>
<circle cx="173.22" cy="197.03" r="5.89" fill="white"/>
<circle cx="173.22" cy="197.03" r="5.89" fill="none" stroke="black" stroke-width="0.25px"/>
<circle cx="185.13" cy="42.26" r="1.27" fill="black"/>
<circle cx="185.13" cy="101.79" r="5.89" fill="white"/>
<circle cx="185.13" cy="101.79" r="5.89" fill="none" stroke="black" stroke-width="0.25px"/>
<circle cx="185.13" cy="113.69" r="6.01" fill="black"/>
<circle cx="185.13" cy="125.60" r="5.89" fill="white"/>
<circle cx="185.13" cy="125.60" r="5.89" fill="none" stroke="black" stroke-width="0.25px"/>
<circle cx="185.13" cy="149.41" r="5.89" fill="white"/>
<circle cx="185.13" cy="149.41" r="5.89" fill="none" stroke="black" stroke-width="0.25px"/>
<circle cx="185.13" cy="161.31" r="6.01" fill="black"/>
<circle cx="185.13" cy="173.22" r="6.01" fill="black"/>
<circle cx="185.13" cy="185.13" r="6.01" fill="black"/>
<circle cx="185.13" cy="197.03" r="6.01" fill="black"/>
<circle cx="197.03" cy="113.69" r="6.01" fill="black"/>
<circle cx="197.03" cy="125.60" r="6.01" fill="black"/>
<circle cx="197.03" cy="137.50" r="6.01" fill="black"/>
<circle cx="197.03" cy="149.41" r="6.01" fill="black"/>
<circle cx="197.03" cy="161.31" r="5.89" fill="white"/>
<circle cx="197.03" cy="161.31" r="5.89" fill="none" stroke="black" stroke-width="0.25px"/>
<circle cx="197.03" cy="185.13" r="5.89" fill="white"/>
<circle cx="197.03" cy="185.13" r="5.89" fill="none" stroke="black" stroke-width="0.25px"/>
<circle cx="197.03" cy="197.03" r="5.89" fill="white"/>
<circle cx="197.03" cy="197.03" r="5.89" fill="none" stroke="black" stroke-width="0.25px"/>
<circle cx="197.03" cy="208.94" r="5.89" fill="white"/>
<circle cx="197.03" cy="208.94" r="5.89" fill="none" stroke="black" stroke-width="0.25px"/>
<circle cx="208.94" cy="161.31" r="5.89" fill="white"/>
<circle cx="208.94" cy="161.31" r="5.89" fill="none" stroke="black" stroke-width="0.25px"/>
<path d="
M139.26 182.35
C139.26 182.35 139.26 182.35 139.26 182.35
C139.26 182.35 139.27 182.35 139.27 182.35
C139.37 182.35 139.47 182.39 139.56 182.47
C139.66 182.55 139.75 182.68 139.83 182.86
C139.99 183.23 140.08 183.99 140.08 185.13
C140.08 186.25 139.99 187.01 139.83 187.39
C139.75 187.57 139.66 187.70 139.56 187.79
C139.48 187.86 139.39 187.90 139.30 187.90
C139.30 187.90 139.30 187.90 139.30 187.90
C139.30 187.90 139.30 187.90 139.30 187.90
C139.19 187.90 139.10 187.86 139.01 187.79
C138.92 187.70 138.83 187.57 138.75 187.39
C138.58 187.02 138.49 186.26 138.49 185.13
C138.49 184.00 138.58 183.25 138.74 182.87
C138.82 182.69 138.91 182.55 139.00 182.47
C139.08 182.39 139.17 182.35 139.26 182.35
Z
M135.70 181.35
C135.22 181.35 134.83 181.54 134.53 181.92
C134.24 182.29 134.08 182.83 134.04 183.54
L134.03 183.67
L134.15 183.69
L134.75 183.78
L134.91 183.81
L134.91 183.64
C134.91 183.21 134.99 182.89 135.14 182.66
C135.28 182.46 135.46 182.35 135.68 182.35
C135.68 182.35 135.68 182.35 135.68 182.35
C135.68 182.35 135.68 182.35 135.68 182.35
C135.88 182.35 136.05 182.45 136.19 182.64
C136.35 182.84 136.42 183.11 136.42 183.44
C136.42 183.74 136.34 184.06 136.19 184.40
C136.02 184.76 135.68 185.26 135.15 185.92
C134.68 186.50 134.36 187.01 134.18 187.45
C134.00 187.88 133.92 188.28 133.93 188.64
L133.93 188.78
L137.30 188.78
L137.30 188.64
L137.30 187.80
L137.30 187.66
L135.08 187.66
C135.12 187.57 135.17 187.49 135.23 187.40
C135.32 187.24 135.54 186.95 135.88 186.52
C136.43 185.82 136.79 185.25 136.99 184.83
C137.19 184.39 137.29 183.94 137.29 183.46
C137.29 182.92 137.16 182.44 136.90 182.02
C136.63 181.57 136.23 181.35 135.70 181.35
Z
M139.29 181.35
C139.01 181.35 138.76 181.44 138.54 181.61
C138.33 181.78 138.16 182.03 138.02 182.36
C137.75 182.99 137.62 183.91 137.62 185.13
C137.62 186.49 137.77 187.45 138.06 188.01
C138.22 188.30 138.39 188.52 138.59 188.67
C138.80 188.83 139.03 188.90 139.28 188.90
C139.57 188.90 139.82 188.82 140.04 188.64
C140.25 188.47 140.42 188.22 140.56 187.89
C140.82 187.26 140.95 186.34 140.95 185.13
C140.95 183.78 140.79 182.80 140.47 182.17
C140.33 181.90 140.17 181.70 139.97 181.56
C139.77 181.42 139.54 181.35 139.29 181.35
Z
" fill="white" fill-rule="nonzero" />
<path d="
M151.21 170.31
C151.44 170.31 151.65 170.45 151.83 170.74
C152.02 171.04 152.11 171.44 152.11 171.94
C152.11 172.46 152.02 172.85 151.84 173.13
C151.67 173.41 151.45 173.55 151.20 173.55
C150.94 173.55 150.72 173.41 150.54 173.13
C150.35 172.86 150.26 172.48 150.26 172.02
C150.26 171.50 150.36 171.08 150.55 170.77
C150.74 170.46 150.96 170.31 151.21 170.31
Z
M147.83 169.58
C147.73 169.89 147.56 170.21 147.32 170.54
C147.07 170.87 146.79 171.14 146.48 171.37
L146.48 172.22
C146.67 172.11 146.87 171.96 147.09 171.76
C147.32 171.56 147.49 171.36 147.63 171.16
L147.63 176.74
L148.20 176.74
L148.20 169.58
Z
M151.14 169.58
C150.73 169.58 150.39 169.80 150.10 170.23
C149.81 170.66 149.67 171.24 149.67 171.99
C149.67 172.71 149.81 173.28 150.08 173.70
C150.36 174.11 150.69 174.32 151.07 174.32
C151.28 174.32 151.48 174.24 151.69 174.07
C151.89 173.90 152.05 173.67 152.17 173.38
L152.17 173.56
C152.17 174.11 152.11 174.60 152.01 175.02
C151.90 175.44 151.76 175.73 151.61 175.89
C151.45 176.06 151.28 176.14 151.08 176.14
C150.65 176.14 150.40 175.76 150.31 175.01
L149.76 175.09
C149.80 175.66 149.94 176.10 150.18 176.40
C150.42 176.71 150.72 176.86 151.07 176.86
C151.39 176.86 151.67 176.73 151.92 176.48
C152.17 176.23 152.37 175.84 152.52 175.30
C152.67 174.76 152.74 174.00 152.74 173.02
C152.74 172.14 152.68 171.47 152.54 171.00
C152.40 170.54 152.21 170.18 151.95 169.94
C151.70 169.70 151.43 169.58 151.14 169.58
Z
" fill="black" fill-rule="nonzero" />
<path d="
M163.10 182.35
C163.10 182.35 163.11 182.35 163.11 182.35
C163.11 182.35 163.11 182.35 163.11 182.35
C163.27 182.35 163.41 182.44 163.53 182.61
C163.66 182.80 163.73 183.04 163.73 183.35
C163.73 183.64 163.67 183.87 163.54 184.05
C163.42 184.22 163.28 184.30 163.12 184.30
C163.12 184.30 163.12 184.30 163.11 184.30
C163.11 184.30 163.11 184.30 163.11 184.30
C162.95 184.30 162.80 184.22 162.69 184.05
C162.56 183.87 162.49 183.62 162.49 183.30
C162.49 183.02 162.56 182.78 162.69 182.60
C162.81 182.43 162.95 182.35 163.10 182.35
Z
M163.10 185.30
C163.10 185.30 163.10 185.30 163.10 185.30
C163.10 185.30 163.10 185.30 163.10 185.30
C163.32 185.30 163.50 185.41 163.66 185.64
C163.84 185.88 163.92 186.21 163.92 186.61
C163.92 187.02 163.84 187.34 163.67 187.57
C163.52 187.79 163.33 187.90 163.12 187.90
C163.12 187.90 163.12 187.90 163.11 187.90
C163.11 187.90 163.11 187.90 163.11 187.90
C162.90 187.90 162.71 187.79 162.56 187.56
C162.38 187.32 162.30 186.99 162.30 186.59
C162.30 186.19 162.38 185.88 162.55 185.64
C162.70 185.41 162.88 185.30 163.10 185.30
Z
M159.63 181.35
L159.60 181.45
C159.50 181.74 159.34 182.05 159.11 182.36
C158.87 182.68 158.61 182.94 158.30 183.16
L158.24 183.20
L158.24 183.28
L158.24 184.12
L158.24 184.36
L158.45 184.25
C158.65 184.14 158.86 183.98 159.09 183.77
C159.20 183.67 159.30 183.57 159.39 183.47
L159.39 183.47
L159.39 188.64
L159.39 188.78
L160.25 188.78
L160.25 188.64
L160.25 181.49
L160.25 181.35
Z
M163.10 181.35
C162.67 181.35 162.31 181.54 162.03 181.91
C161.75 182.28 161.62 182.75 161.62 183.32
C161.62 183.70 161.68 184.02 161.81 184.28
C161.90 184.47 162.03 184.63 162.18 184.76
L162.18 184.76
C161.98 184.90 161.81 185.09 161.68 185.34
C161.51 185.67 161.43 186.09 161.43 186.59
C161.43 187.27 161.59 187.82 161.90 188.25
C162.22 188.68 162.63 188.90 163.11 188.90
C163.60 188.90 164.00 188.68 164.32 188.25
C164.63 187.82 164.79 187.28 164.79 186.61
C164.79 186.13 164.71 185.72 164.55 185.39
C164.42 185.13 164.25 184.92 164.03 184.77
L164.03 184.77
C164.20 184.64 164.32 184.48 164.42 184.28
C164.54 184.03 164.60 183.71 164.60 183.35
C164.60 182.77 164.46 182.30 164.19 181.92
C163.90 181.54 163.54 181.35 163.10 181.35
Z
" fill="white" fill-rule="nonzero" />
<path d="
M171.64 193.46
C171.54 193.77 171.37 194.09 171.13 194.41
C170.88 194.74 170.61 195.02 170.29 195.24
L170.29 196.09
C170.48 195.99 170.68 195.83 170.90 195.63
C171.13 195.43 171.30 195.23 171.44 195.03
L171.44 200.61
L172.01 200.61
L172.01 193.46
Z
M173.52 193.58
L173.52 194.42
L175.80 194.42
C175.51 194.92 175.24 195.53 174.99 196.25
C174.74 196.97 174.54 197.73 174.40 198.52
C174.26 199.32 174.18 200.01 174.17 200.61
L174.76 200.61
C174.82 199.45 175.01 198.29 175.35 197.12
C175.70 195.94 176.09 194.99 176.54 194.26
L176.54 193.58
Z
" fill="black" fill-rule="nonzero" />
</g>
<g  transform="translate(1.19,228.58)" >
<path d="
M105.00 2.72
C104.84 2.72 104.70 2.78 104.58 2.89
C104.47 3.01 104.41 3.15 104.41 3.31
C104.41 3.47 104.47 3.61 104.59 3.73
C104.70 3.84 104.84 3.90 105.00 3.90
C105.17 3.90 105.31 3.84 105.42 3.73
C105.53 3.61 105.59 3.47 105.59 3.31
C105.59 3.15 105.53 3.01 105.42 2.89
C105.31 2.78 105.17 2.72 105.00 2.72
Z
M109.98 7.81
L109.98 9.84
C109.49 10.23 109.11 10.42 108.81 10.42
C108.60 10.42 108.40 10.33 108.24 10.15
C108.07 9.96 107.99 9.73 107.99 9.45
C107.99 9.23 108.05 9.03 108.18 8.84
C108.32 8.66 108.54 8.48 108.84 8.31
C109.01 8.21 109.39 8.05 109.98 7.81
Z
M98.33 3.55
C99.26 3.55 100.02 3.86 100.61 4.49
C101.20 5.12 101.50 5.98 101.50 7.06
C101.50 8.15 101.20 9.00 100.61 9.63
C100.02 10.27 99.27 10.58 98.37 10.58
C98.04 10.58 97.63 10.53 97.13 10.42
L97.13 3.72
C97.58 3.60 97.98 3.55 98.33 3.55
Z
M94.88 3.11
L94.88 3.32
L95.18 3.32
C95.48 3.32 95.70 3.41 95.85 3.58
C95.96 3.70 96.02 4.01 96.02 4.50
L96.02 9.59
C96.02 10.04 95.97 10.33 95.89 10.45
C95.75 10.67 95.51 10.77 95.18 10.77
L94.88 10.77
L94.88 10.99
L98.41 10.99
C99.94 10.99 101.08 10.58 101.82 9.76
C102.49 9.02 102.82 8.10 102.82 7.01
C102.82 6.19 102.64 5.47 102.26 4.84
C101.89 4.22 101.40 3.77 100.78 3.51
C100.17 3.24 99.27 3.11 98.09 3.11
Z
M105.23 5.51
L103.63 6.16
L103.71 6.37
C103.86 6.31 104.00 6.28 104.10 6.28
C104.20 6.28 104.28 6.30 104.34 6.35
C104.40 6.40 104.44 6.49 104.47 6.61
C104.50 6.78 104.52 7.16 104.52 7.73
L104.52 9.79
C104.52 10.11 104.50 10.34 104.44 10.45
C104.39 10.57 104.32 10.65 104.23 10.70
C104.14 10.75 103.97 10.78 103.71 10.78
L103.71 10.99
L106.30 10.99
L106.30 10.78
C106.04 10.78 105.87 10.75 105.78 10.70
C105.68 10.64 105.61 10.56 105.56 10.45
C105.51 10.34 105.49 10.12 105.49 9.79
L105.49 5.51
Z
M120.56 2.94
C119.95 2.94 119.45 3.14 119.05 3.52
C118.65 3.90 118.40 4.45 118.31 5.17
L118.52 5.17
C118.67 4.73 118.90 4.40 119.20 4.17
C119.51 3.95 119.86 3.83 120.25 3.83
C120.67 3.83 121.04 3.99 121.35 4.32
C121.65 4.64 121.81 5.05 121.81 5.55
C121.81 6.20 121.53 6.93 120.97 7.72
C120.41 8.51 119.45 9.53 118.08 10.77
L118.08 10.99
L122.73 10.99
L123.28 9.47
L123.07 9.47
C122.97 9.65 122.85 9.78 122.71 9.88
C122.58 9.97 122.42 10.03 122.26 10.06
C122.09 10.10 121.79 10.11 121.37 10.11
L119.32 10.11
C119.56 9.89 120.16 9.26 121.12 8.20
C121.77 7.50 122.23 6.84 122.52 6.21
C122.71 5.81 122.80 5.41 122.80 5.01
C122.80 4.45 122.58 3.97 122.16 3.56
C121.73 3.15 121.19 2.94 120.56 2.94
Z
M109.16 5.51
C108.55 5.51 108.07 5.65 107.73 5.93
C107.38 6.20 107.21 6.51 107.21 6.84
C107.21 7.02 107.26 7.16 107.35 7.26
C107.44 7.36 107.56 7.41 107.70 7.41
C107.85 7.41 107.97 7.36 108.06 7.26
C108.15 7.17 108.20 7.03 108.20 6.85
L108.18 6.51
C108.18 6.34 108.26 6.19 108.41 6.06
C108.55 5.93 108.74 5.86 108.99 5.86
C109.31 5.86 109.55 5.96 109.72 6.16
C109.89 6.36 109.98 6.72 109.98 7.25
L109.98 7.46
C109.06 7.79 108.41 8.08 108.01 8.31
C107.62 8.54 107.34 8.79 107.18 9.05
C107.07 9.24 107.01 9.47 107.01 9.73
C107.01 10.14 107.13 10.47 107.37 10.72
C107.61 10.97 107.91 11.10 108.28 11.10
C108.51 11.10 108.74 11.05 108.95 10.95
C109.09 10.89 109.43 10.64 109.98 10.22
C109.98 10.54 110.04 10.76 110.15 10.90
C110.26 11.03 110.41 11.09 110.60 11.09
C111.00 11.09 111.41 10.80 111.85 10.22
L111.85 9.90
C111.61 10.13 111.46 10.27 111.38 10.32
C111.33 10.35 111.28 10.36 111.21 10.36
C111.16 10.36 111.10 10.34 111.06 10.30
C111.01 10.26 110.98 10.19 110.96 10.07
C110.94 9.96 110.93 9.65 110.93 9.14
L110.93 7.33
C110.93 6.82 110.90 6.48 110.83 6.31
C110.72 6.05 110.55 5.87 110.32 5.75
C110.02 5.59 109.63 5.51 109.16 5.51
Z
M129.49 2.94
C128.98 2.94 128.55 3.09 128.21 3.38
C127.87 3.67 127.58 4.08 127.36 4.61
L127.55 4.70
C127.95 4.06 128.45 3.73 129.05 3.73
C129.43 3.73 129.74 3.86 129.99 4.10
C130.24 4.35 130.36 4.67 130.36 5.07
C130.36 5.38 130.29 5.66 130.15 5.91
C130.01 6.17 129.79 6.39 129.48 6.57
C129.17 6.75 128.87 6.86 128.56 6.90
L128.56 7.08
L128.75 7.08
C129.05 7.08 129.34 7.14 129.64 7.27
C129.93 7.39 130.15 7.53 130.32 7.69
C130.44 7.80 130.55 7.96 130.65 8.18
C130.79 8.47 130.86 8.77 130.86 9.08
C130.86 9.49 130.71 9.86 130.42 10.16
C130.12 10.47 129.78 10.62 129.39 10.62
C129.22 10.62 129.07 10.60 128.93 10.56
C128.84 10.54 128.68 10.46 128.44 10.34
C128.21 10.22 128.06 10.15 128.00 10.13
C127.90 10.10 127.80 10.08 127.70 10.08
C127.57 10.08 127.46 10.12 127.37 10.21
C127.28 10.30 127.23 10.39 127.23 10.51
C127.23 10.66 127.33 10.80 127.52 10.93
C127.71 11.06 128.08 11.13 128.61 11.13
C129.68 11.13 130.50 10.80 131.07 10.15
C131.50 9.65 131.72 9.06 131.72 8.38
C131.72 7.90 131.59 7.49 131.34 7.13
C131.10 6.78 130.73 6.51 130.25 6.32
C130.97 5.71 131.33 5.12 131.33 4.54
C131.33 4.19 131.20 3.87 130.94 3.56
C130.61 3.15 130.12 2.94 129.49 2.94
Z
M113.36 9.86
C113.18 9.86 113.03 9.92 112.90 10.05
C112.78 10.17 112.71 10.32 112.71 10.51
C112.71 10.68 112.78 10.84 112.90 10.96
C113.03 11.09 113.18 11.15 113.36 11.15
C113.54 11.15 113.69 11.09 113.81 10.96
C113.94 10.84 114.00 10.68 114.00 10.51
C114.00 10.33 113.94 10.18 113.82 10.05
C113.69 9.92 113.54 9.86 113.36 9.86
Z
M125.26 9.86
C125.09 9.86 124.93 9.92 124.81 10.05
C124.68 10.17 124.62 10.32 124.62 10.51
C124.62 10.68 124.68 10.84 124.81 10.96
C124.93 11.09 125.09 11.15 125.26 11.15
C125.44 11.15 125.59 11.09 125.72 10.96
C125.85 10.84 125.91 10.68 125.91 10.51
C125.91 10.33 125.85 10.18 125.72 10.05
C125.60 9.92 125.45 9.86 125.26 9.86
Z
" fill="black" fill-rule="nonzero" />
</g>
</g>
</svg>
