<?xml version="1.0" encoding="utf-8" standalone="no"?>
<!DOCTYPE svg PUBLIC "-//W3C//DTD SVG 1.0//EN" "http://www.w3.org/TR/SVG/DTD/svg11.dtd" >
<svg version="1.1" baseProfile="full"  width="319.13385" height="338.51422" viewBox="0 0 229.77638 243.73024" preserveAspectRatio="xMidYMid" xmlns="http://www.w3.org/2000/svg" >

<g lengthAdjust="spacingAndGlyphs" xml:space='preserve' >
<g  transform="translate(1.19,1.19)" >
<path d="
M0.0 0.0
L0.0 227.39
L227.39 227.39
L227.39 0.0
Z
" fill="none" fill-rule="nonzero" />
<line x1="6.54" y1="6.54" x2="6.54" y2="220.84" fill="none" stroke="black" stroke-width="0.87px" stroke-linecap="square" />
<line x1="18.45" y1="6.54" x2="18.45" y2="220.84" fill="none" stroke="black" stroke-width="0.25px" stroke-linecap="butt" />
<line x1="30.35" y1="6.54" x2="30.35" y2="220.84" fill="none" stroke="black" stroke-width="0.25px" stroke-linecap="butt" />
<line x1="42.26" y1="6.54" x2="42.26" y2="220.84" fill="none" stroke="black" stroke-width="0.25px" stroke-linecap="butt" />
<line x1="54.17" y1="6.54" x2="54.17" y2="220.84" fill="none" stroke="black" stroke-width="0.25px" stroke-linecap="butt" />
<line x1="66.07" y1="6.54" x2="66.07" y2="220.84" fill="none" stroke="black" stroke-width="0.25px" stroke-linecap="butt" />
<line x1="77.98" y1="6.54" x2="77.98" y2="220.84" fill="none" stroke="black" stroke-width="0.25px" stroke-linecap="butt" />
<line x1="89.88" y1="6.54" x2="89.88" y2="220.84" fill="none" stroke="black" stroke-width="0.25px" stroke-linecap="butt" />
<line x1="101.79" y1="6.54" x2="101.79" y2="220.84" fill="none" stroke="black" stroke-width="0.25px" stroke-linecap="butt" />
<line x1="113.69" y1="6.54" x2="113.69" y2="220.84" fill="none" stroke="black" stroke-width="0.25px" stroke-linecap="butt" />
<line x1="125.60" y1="6.54" x2="125.60" y2="220.84" fill="none" stroke="black" stroke-width="0.25px" stroke-linecap="butt" />
<line x1="137.50" y1="6.54" x2="137.50" y2="220.84" fill="none" stroke="black" stroke-width="0.25px" stroke-linecap="butt" />
<line x1="149.41" y1="6.54" x2="149.41" y2="220.84" fill="none" stroke="black" stroke-width="0.25px" stroke-linecap="butt" />
<line x1="161.31" y1="6.54" x2="161.31" y2="220.84" fill="none" stroke="black" stroke-width="0.25px" stroke-linecap="butt" />
<line x1="173.22" y1="6.54" x2="173.22" y2="220.84" fill="none" stroke="black" stroke-width="0.25px" stroke-linecap="butt" />
<line x1="185.13" y1="6.54" x2="185.13" y2="220.84" fill="none" stroke="black" stroke-width="0.25px" stroke-linecap="butt" />
<line x1="197.03" y1="6.54" x2="197.03" y2="220.84" fill="none" stroke="black" stroke-width="0.25px" stroke-linecap="butt" />
<line x1="208.94" y1="6.54" x2="208.94" y2="220.84" fill="none" stroke="black" stroke-width="0.25px" stroke-linecap="butt" />
<line x1="220.84" y1="6.54" x2="220.84" y2="220.84" fill="none" stroke="black" stroke-width="0.87px" stroke-linecap="square" />
<line x1="6.54" y1="6.54" x2="220.84" y2="6.54" fill="none" stroke="black" stroke-width="0.87px" stroke-linecap="square" />
<line x1="6.54" y1="18.45" x2="220.84" y2="18.45" fill="none" stroke="black" stroke-width="0.25px" stroke-linecap="butt" />
<line x1="6.54" y1="30.35" x2="220.84" y2="30.35" fill="none" stroke="black" stroke-width="0.25px" stroke-linecap="butt" />
<line x1="6.54" y1="42.26" x2="220.84" y2="42.26" fill="none" stroke="black" stroke-width="0.25px" stroke-linecap="butt" />
<line x1="6.54" y1="54.17" x2="220.84" y2="54.17" fill="none" stroke="black" stroke-width="0.25px" stroke-linecap="butt" />
<line x1="6.54" y1="66.07" x2="220.84" y2="66.07" fill="none" stroke="black" stroke-width="0.25px" stroke-linecap="butt" />
<line x1="6.54" y1="77.98" x2="220.84" y2="77.98" fill="none" stroke="black" stroke-width="0.25px" stroke-linecap="butt" />
<line x1="6.54" y1="89.88" x2="220.84" y2="89.88" fill="none" stroke="black" stroke-width="0.25px" stroke-linecap="butt" />
<line x1="6.54" y1="101.79" x2="220.84" y2="101.79" fill="none" stroke="black" stroke-width="0.25px" stroke-linecap="butt" />
<line x1="6.54" y1="113.69" x2="220.84" y2="113.69" fill="none" stroke="black" stroke-width="0.25px" stroke-linecap="butt" />
<line x1="6.54" y1="125.60" x2="220.84" y2="125.60" fill="none" stroke="black" stroke-width="0.25px" stroke-linecap="butt" />
<line x1="6.54" y1="137.50" x2="220.84" y2="137.50" fill="none" stroke="black" stroke-width="0.25px" stroke-linecap="butt" />
<line x1="6.54" y1="149.41" x2="220.84" y2="149.41" fill="none" stroke="black" stroke-width="0.25px" stroke-linecap="butt" />
<line x1="6.54" y1="161.31" x2="220.84" y2="161.31" fill="none" stroke="black" stroke-width="0.25px" stroke-linecap="butt" />
<line x1="6.54" y1="173.22" x2="220.84" y2="173.22" fill="none" stroke="black" stroke-width="0.25px" stroke-linecap="butt" />
<line x1="6.54" y1="185.13" x2="220.84" y2="185.13" fill="none" stroke="black" stroke-width="0.25px" stroke-linecap="butt" />
<line x1="6.54" y1="197.03" x2="220.84" y2="197.03" fill="none" stroke="black" stroke-width="0.25px" stroke-linecap="butt" />
<line x1="6.54" y1="208.94" x2="220.84" y2="208.94" fill="none" stroke="black" stroke-width="0.25px" stroke-linecap="butt" />
<line x1="6.54" y1="220.84" x2="220.84" y2="220.84" fill="none" stroke="black" stroke-width="0.87px" stroke-linecap="square" />
<circle cx="42.26" cy="42.26" r="1.27" fill="black"/>
<circle cx="42.26" cy="113.69" r="1.27" fill="black"/>
<circle cx="42.26" cy="185.13" r="1.27" fill="black"/>
<circle cx="113.69" cy="42.26" r="1.27" fill="black"/>
<circle cx="113.69" cy="113.69" r="1.27" fill="black"/>
<circle cx="113.69" cy="185.13" r="6.01" fill="black"/>
<circle cx="137.50" cy="149.41" r="6.01" fill="black"/>
<circle cx="149.41" cy="113.69" r="6.01" fill="black"/>
<circle cx="149.41" cy="137.50" r="5.89" fill="white"/>
<circle cx="149.41" cy="137.50" r="5.89" fill="none" stroke="black" stroke-width="0.25px"/>
<circle cx="149.41" cy="173.22" r="5.89" fill="white"/>
<circle cx="149.41" cy="173.22" r="5.89" fill="none" stroke="black" stroke-width="0.25px"/>
<circle cx="149.41" cy="197.03" r="6.01" fill="black"/>
<circle cx="161.31" cy="161.31" r="6.01" fill="black"/>
<circle cx="161.31" cy="173.22" r="5.89" fill="white"/>
<circle cx="161.31" cy="173.22" r="5.89" fill="none" stroke="black" stroke-width="0.25px"/>
<circle cx="161.31" cy="185.13" r="6.01" fill="black"/>
<circle cx="173.22" cy="89.88" r="6.01" fill="black"/>
<circle cx="173.22" cy="101.79" r="6.01" fill="black"/>
<circle cx="173.22" cy="113.69" r="5.89" fill="white"/>
<circle cx="173.22" cy="113.69" r="5.89" fill="none" stroke="black" stroke-width="0.25px"/>
<circle cx="173.22" cy="125.60" r="5.89" fill="white"/>
<circle cx="173.22" cy="125.60" r="5.89" fill="none" stroke="black" stroke-width="0.25px"/>
<circle cx="173.22" cy="149.41" r="5.89" fill="white"/>
<circle cx="173.22" cy="149.41" r="5.89" fill="none" stroke="black" stroke-width="0.25px"/>
<circle cx="173.22" cy="161.31" r="6.01" fill="black"/>
<circle cx="173.22" cy="173.22" r="5.89" fill="white"/>
<circle cx="173.22" cy="173.22" r="5.89" fill="none" stroke="black" stroke-width="0.25px"/>
<circle cx="173.22" cy="185.13" r="5.89" fill="white"/>
<circle cx="173.22" cy="185.13" r="5.89" fill="none" stroke="black" stroke-width="0.25px"/>
<circle cx="173.22" cy="197.03" r="5.89" fill="white"/>
<circle cx="173.22" cy="197.03" r="5.89" fill="none" stroke="black" stroke-width="0.25px"/>
<circle cx="185.13" cy="42.26" r="1.27" fill="black"/>
<circle cx="185.13" cy="101.79" r="5.89" fill="white"/>
<circle cx="185.13" cy="101.79" r="5.89" fill="none" stroke="black" stroke-width="0.25px"/>
<circle cx="185.13" cy="113.69" r="6.01" fill="black"/>
<circle cx="185.13" cy="125.60" r="5.89" fill="white"/>
<circle cx="185.13" cy="125.60" r="5.89" fill="none" stroke="black" stroke-width="0.25px"/>
<circle cx="185.13" cy="149.41" r="5.89" fill="white"/>
<circle cx="185.13" cy="149.41" r="5.89" fill="none" stroke="black" stroke-width="0.25px"/>
<circle cx="185.13" cy="161.31" r="6.01" fill="black"/>
<circle cx="185.13" cy="173.22" r="6.01" fill="black"/>
<circle cx="185.13" cy="185.13" r="6.01" fill="black"/>
<circle cx="185.13" cy="197.03" r="6.01" fill="black"/>
<circle cx="197.03" cy="113.69" r="6.01" fill="black"/>
<circle cx="197.03" cy="125.60" r="6.01" fill="black"/>
<circle cx="197.03" cy="137.50" r="6.01" fill="black"/>
<circle cx="197.03" cy="149.41" r="6.01" fill="black"/>
<circle cx="197.03" cy="161.31" r="5.89" fill="white"/>
<circle cx="197.03" cy="161.31" r="5.89" fill="none" stroke="black" stroke-width="0.25px"/>
<circle cx="197.03" cy="185.13" r="5.89" fill="white"/>
<circle cx="197.03" cy="185.13" r="5.89" fill="none" stroke="black" stroke-width="0.25px"/>
<circle cx="197.03" cy="197.03" r="5.89" fill="white"/>
<circle cx="197.03" cy="197.03" r="5.89" fill="none" stroke="black" stroke-width="0.25px"/>
<circle cx="197.03" cy="208.94" r="5.89" fill="white"/>
<circle cx="197.03" cy="208.94" r="5.89" fill="none" stroke="black" stroke-width="0.25px"/>
<circle cx="208.94" cy="161.31" r="5.89" fill="white"/>
<circle cx="208.94" cy="161.31" r="5.89" fill="none" stroke="black" stroke-width="0.25px"/>
<path d="
M139.46 147.92
L139.46 150.34
L138.36 150.34
L139.46 147.92
Z
M135.70 145.69
C135.22 145.69 134.83 145.88 134.53 146.26
C134.24 146.63 134.08 147.17 134.04 147.88
L134.03 148.01
L134.15 148.03
L134.75 148.13
L134.91 148.15
L134.91 147.99
C134.91 147.56 134.99 147.23 135.14 147.01
C135.28 146.80 135.46 146.70 135.68 146.70
C135.68 146.70 135.68 146.70 135.68 146.70
C135.68 146.70 135.68 146.70 135.68 146.70
C135.88 146.70 136.05 146.79 136.19 146.98
C136.35 147.19 136.42 147.46 136.42 147.79
C136.42 148.08 136.34 148.40 136.19 148.75
C136.02 149.10 135.68 149.61 135.15 150.26
C134.68 150.85 134.36 151.36 134.18 151.79
C134.00 152.23 133.92 152.63 133.93 152.99
L133.93 153.13
L137.30 153.13
L137.30 152.98
L137.30 152.14
L137.30 152.00
L135.08 152.00
C135.12 151.92 135.17 151.83 135.23 151.74
C135.32 151.59 135.54 151.30 135.88 150.86
C136.43 150.16 136.79 149.60 136.99 149.17
C137.19 148.73 137.29 148.28 137.29 147.81
C137.29 147.27 137.16 146.79 136.90 146.36
C136.63 145.92 136.23 145.69 135.70 145.69
Z
M139.62 145.72
L139.58 145.80
L137.45 150.42
L137.44 150.45
L137.44 150.48
L137.44 151.28
L137.44 151.42
L139.46 151.42
L139.46 152.98
L139.46 153.13
L140.32 153.13
L140.32 152.98
L140.32 151.42
L140.95 151.42
L140.95 151.28
L140.95 150.48
L140.95 150.34
L140.32 150.34
L140.32 145.86
L140.32 145.72
Z
" fill="white" fill-rule="nonzero" />
<path d="
M147.61 169.58
C147.17 169.58 146.81 169.75 146.55 170.10
C146.28 170.44 146.12 170.96 146.08 171.64
L146.67 171.73
C146.67 171.27 146.76 170.92 146.93 170.67
C147.10 170.43 147.32 170.31 147.59 170.31
C147.84 170.31 148.04 170.42 148.21 170.65
C148.38 170.88 148.47 171.17 148.47 171.53
C148.47 171.85 148.39 172.19 148.22 172.55
C148.05 172.92 147.70 173.43 147.17 174.10
C146.71 174.67 146.39 175.17 146.22 175.59
C146.05 176.01 145.97 176.39 145.97 176.73
L149.06 176.73
L149.06 175.89
L146.77 175.89
C146.83 175.73 146.91 175.57 147.01 175.42
C147.11 175.26 147.33 174.96 147.68 174.52
C148.21 173.83 148.58 173.27 148.77 172.86
C148.96 172.44 149.06 172.01 149.06 171.55
C149.06 171.04 148.93 170.59 148.69 170.18
C148.44 169.78 148.08 169.58 147.61 169.58
Z
M151.14 169.58
C150.78 169.58 150.48 169.74 150.22 170.05
C149.97 170.36 149.80 170.82 149.73 171.43
L150.30 171.58
C150.34 171.15 150.44 170.83 150.59 170.62
C150.74 170.41 150.93 170.30 151.15 170.30
C151.36 170.30 151.54 170.40 151.69 170.60
C151.84 170.81 151.91 171.07 151.91 171.41
C151.91 171.77 151.82 172.06 151.65 172.28
C151.47 172.49 151.24 172.60 150.96 172.60
L150.87 172.59
L150.80 173.36
C150.97 173.30 151.10 173.26 151.21 173.26
C151.47 173.26 151.68 173.39 151.86 173.64
C152.03 173.90 152.12 174.23 152.12 174.64
C152.12 175.08 152.03 175.44 151.83 175.72
C151.64 176.00 151.42 176.14 151.15 176.14
C150.67 176.14 150.37 175.67 150.25 174.74
L149.67 174.85
C149.71 175.46 149.87 175.95 150.15 176.31
C150.42 176.68 150.76 176.86 151.16 176.86
C151.59 176.86 151.96 176.65 152.27 176.23
C152.58 175.82 152.73 175.28 152.73 174.63
C152.73 174.32 152.69 174.04 152.62 173.79
C152.54 173.54 152.45 173.34 152.32 173.20
C152.20 173.05 152.05 172.94 151.86 172.88
C152.06 172.73 152.22 172.54 152.33 172.29
C152.45 172.04 152.50 171.75 152.50 171.43
C152.50 170.90 152.37 170.46 152.11 170.11
C151.84 169.76 151.52 169.58 151.14 169.58
Z
" fill="black" fill-rule="nonzero" />
<path d="
M163.07 158.54
C163.07 158.54 163.07 158.54 163.08 158.54
C163.08 158.54 163.08 158.54 163.08 158.54
C163.18 158.54 163.28 158.58 163.37 158.66
C163.47 158.74 163.56 158.87 163.64 159.05
C163.81 159.42 163.89 160.18 163.89 161.32
C163.89 162.44 163.81 163.20 163.64 163.58
C163.56 163.76 163.47 163.89 163.38 163.98
C163.29 164.05 163.21 164.09 163.11 164.09
C163.11 164.09 163.11 164.09 163.11 164.09
C163.11 164.09 163.11 164.09 163.11 164.09
C163.01 164.09 162.91 164.05 162.82 163.98
C162.73 163.89 162.64 163.76 162.56 163.58
C162.39 163.21 162.30 162.45 162.30 161.32
C162.30 160.19 162.39 159.44 162.55 159.06
C162.63 158.88 162.72 158.74 162.81 158.66
C162.89 158.58 162.98 158.54 163.07 158.54
Z
M159.51 157.54
C159.03 157.54 158.64 157.73 158.34 158.11
C158.05 158.48 157.89 159.02 157.85 159.73
L157.84 159.86
L157.97 159.88
L158.56 159.97
L158.72 160.00
L158.72 159.83
C158.72 159.40 158.80 159.07 158.95 158.85
C159.09 158.65 159.27 158.54 159.49 158.54
C159.49 158.54 159.49 158.54 159.49 158.54
C159.49 158.54 159.49 158.54 159.50 158.54
C159.70 158.54 159.87 158.64 160.01 158.83
C160.16 159.03 160.23 159.30 160.23 159.63
C160.23 159.92 160.15 160.24 160.00 160.59
C159.84 160.94 159.49 161.45 158.96 162.11
C158.49 162.69 158.17 163.20 157.99 163.63
C157.81 164.07 157.73 164.47 157.74 164.83
L157.74 164.97
L161.11 164.97
L161.11 164.83
L161.11 163.99
L161.11 163.85
L158.89 163.85
C158.94 163.76 158.98 163.67 159.04 163.59
C159.14 163.43 159.35 163.14 159.69 162.71
C160.24 162.00 160.61 161.44 160.80 161.01
C161.00 160.58 161.10 160.12 161.10 159.65
C161.10 159.11 160.97 158.63 160.71 158.21
C160.44 157.76 160.04 157.54 159.51 157.54
Z
M163.10 157.54
C162.82 157.54 162.57 157.62 162.35 157.80
C162.14 157.97 161.97 158.22 161.83 158.55
C161.57 159.18 161.43 160.10 161.43 161.32
C161.43 162.67 161.58 163.64 161.87 164.20
C162.03 164.49 162.20 164.71 162.40 164.86
C162.61 165.02 162.84 165.09 163.09 165.09
C163.38 165.09 163.63 165.00 163.85 164.83
C164.06 164.66 164.23 164.41 164.37 164.08
C164.63 163.45 164.76 162.52 164.76 161.32
C164.76 159.97 164.60 158.98 164.28 158.36
C164.14 158.09 163.98 157.89 163.78 157.75
C163.58 157.61 163.36 157.54 163.10 157.54
Z
" fill="white" fill-rule="nonzero" />
<path d="
M163.10 182.35
C163.10 182.35 163.11 182.35 163.11 182.35
C163.11 182.35 163.11 182.35 163.11 182.35
C163.27 182.35 163.41 182.44 163.53 182.61
C163.66 182.80 163.73 183.04 163.73 183.35
C163.73 183.64 163.67 183.87 163.54 184.05
C163.42 184.22 163.28 184.30 163.12 184.30
C163.12 184.30 163.12 184.30 163.11 184.30
C163.11 184.30 163.11 184.30 163.11 184.30
C162.95 184.30 162.80 184.22 162.69 184.05
C162.56 183.87 162.49 183.62 162.49 183.30
C162.49 183.02 162.56 182.78 162.69 182.60
C162.81 182.43 162.95 182.35 163.10 182.35
Z
M163.10 185.30
C163.10 185.30 163.10 185.30 163.10 185.30
C163.10 185.30 163.10 185.30 163.10 185.30
C163.32 185.30 163.50 185.41 163.66 185.64
C163.84 185.88 163.92 186.21 163.92 186.61
C163.92 187.02 163.84 187.34 163.67 187.57
C163.52 187.79 163.33 187.90 163.12 187.90
C163.12 187.90 163.12 187.90 163.11 187.90
C163.11 187.90 163.11 187.90 163.11 187.90
C162.90 187.90 162.71 187.79 162.56 187.56
C162.38 187.32 162.30 186.99 162.30 186.59
C162.30 186.19 162.38 185.88 162.55 185.64
C162.70 185.41 162.88 185.30 163.10 185.30
Z
M159.63 181.35
L159.60 181.45
C159.50 181.74 159.34 182.05 159.11 182.36
C158.87 182.68 158.61 182.94 158.30 183.16
L158.24 183.20
L158.24 183.28
L158.24 184.12
L158.24 184.36
L158.45 184.25
C158.65 184.14 158.86 183.98 159.09 183.77
C159.20 183.67 159.30 183.57 159.39 183.47
L159.39 183.47
L159.39 188.64
L159.39 188.78
L160.25 188.78
L160.25 188.64
L160.25 181.49
L160.25 181.35
Z
M163.10 181.35
C162.67 181.35 162.31 181.54 162.03 181.91
C161.75 182.28 161.62 182.75 161.62 183.32
C161.62 183.70 161.68 184.02 161.81 184.28
C161.90 184.47 162.03 184.63 162.18 184.76
L162.18 184.76
C161.98 184.90 161.81 185.09 161.68 185.34
C161.51 185.67 161.43 186.09 161.43 186.59
C161.43 187.27 161.59 187.82 161.90 188.25
C162.22 188.68 162.63 188.90 163.11 188.90
C163.60 188.90 164.00 188.68 164.32 188.25
C164.63 187.82 164.79 187.28 164.79 186.61
C164.79 186.13 164.71 185.72 164.55 185.39
C164.42 185.13 164.25 184.92 164.03 184.77
L164.03 184.77
C164.20 184.64 164.32 184.48 164.42 184.28
C164.54 184.03 164.60 183.71 164.60 183.35
C164.60 182.77 164.46 182.30 164.19 181.92
C163.90 181.54 163.54 181.35 163.10 181.35
Z
" fill="white" fill-rule="nonzero" />
<path d="
M171.42 157.60
C170.93 157.60 170.54 157.79 170.25 158.17
C169.96 158.54 169.80 159.08 169.75 159.79
L169.74 159.92
L169.87 159.94
L170.46 160.03
L170.63 160.06
L170.63 159.89
C170.63 159.46 170.70 159.13 170.86 158.91
C171.00 158.71 171.18 158.60 171.39 158.60
C171.39 158.60 171.40 158.60 171.40 158.60
C171.40 158.60 171.40 158.60 171.40 158.60
C171.60 158.60 171.77 158.70 171.91 158.89
C172.06 159.09 172.14 159.36 172.14 159.69
C172.14 159.99 172.06 160.31 171.90 160.65
C171.74 161.00 171.40 161.51 170.87 162.17
C170.40 162.75 170.08 163.26 169.90 163.70
C169.72 164.13 169.63 164.53 169.64 164.89
L169.65 165.03
L173.02 165.03
L173.02 164.89
L173.02 164.05
L173.02 163.91
L170.80 163.91
C170.84 163.82 170.89 163.74 170.94 163.65
C171.04 163.49 171.26 163.20 171.60 162.77
C172.14 162.07 172.51 161.50 172.71 161.08
C172.91 160.64 173.01 160.19 173.01 159.71
C173.01 159.17 172.88 158.69 172.62 158.27
C172.35 157.82 171.95 157.60 171.42 157.60
Z
M175.05 157.60
C174.56 157.60 174.17 157.79 173.88 158.17
C173.59 158.54 173.43 159.08 173.38 159.79
L173.37 159.92
L173.50 159.94
L174.09 160.03
L174.26 160.06
L174.26 159.89
C174.26 159.46 174.33 159.13 174.49 158.91
C174.63 158.71 174.81 158.60 175.02 158.60
C175.02 158.60 175.03 158.60 175.03 158.60
C175.03 158.60 175.03 158.60 175.03 158.60
C175.23 158.60 175.40 158.70 175.54 158.89
C175.69 159.09 175.77 159.36 175.77 159.69
C175.77 159.99 175.69 160.31 175.53 160.65
C175.37 161.00 175.03 161.51 174.50 162.17
C174.03 162.75 173.71 163.26 173.53 163.70
C173.35 164.13 173.26 164.53 173.27 164.89
L173.28 165.03
L176.65 165.03
L176.65 164.89
L176.65 164.05
L176.65 163.91
L174.43 163.91
C174.47 163.82 174.52 163.74 174.57 163.65
C174.67 163.49 174.89 163.20 175.23 162.77
C175.77 162.07 176.14 161.50 176.34 161.08
C176.54 160.64 176.64 160.19 176.64 159.71
C176.64 159.17 176.51 158.69 176.25 158.27
C175.98 157.82 175.58 157.60 175.05 157.60
Z
" fill="white" fill-rule="nonzero" />
<path d="
M171.42 169.64
C170.98 169.64 170.63 169.82 170.36 170.16
C170.09 170.51 169.93 171.02 169.89 171.70
L170.48 171.80
C170.48 171.34 170.57 170.98 170.74 170.74
C170.91 170.49 171.13 170.37 171.40 170.37
C171.65 170.37 171.86 170.48 172.03 170.71
C172.19 170.94 172.28 171.23 172.28 171.60
C172.28 171.91 172.20 172.25 172.03 172.62
C171.87 172.98 171.51 173.50 170.98 174.16
C170.52 174.74 170.20 175.23 170.03 175.65
C169.86 176.08 169.78 176.46 169.78 176.80
L172.87 176.80
L172.87 175.96
L170.58 175.96
C170.64 175.80 170.72 175.64 170.82 175.48
C170.92 175.32 171.14 175.02 171.49 174.59
C172.02 173.89 172.39 173.34 172.58 172.92
C172.77 172.51 172.87 172.07 172.87 171.62
C172.87 171.11 172.74 170.65 172.50 170.25
C172.25 169.85 171.89 169.64 171.42 169.64
Z
M175.27 169.64
C175.17 169.96 175.00 170.27 174.76 170.60
C174.52 170.93 174.24 171.21 173.92 171.43
L173.92 172.28
C174.11 172.17 174.31 172.02 174.53 171.82
C174.76 171.62 174.93 171.42 175.07 171.22
L175.07 176.80
L175.64 176.80
L175.64 169.64
Z
" fill="black" fill-rule="nonzero" />
<path d="
M175.02 182.21
C175.26 182.21 175.46 182.36 175.65 182.65
C175.83 182.94 175.92 183.34 175.92 183.85
C175.92 184.36 175.83 184.76 175.65 185.04
C175.48 185.31 175.26 185.45 175.01 185.45
C174.75 185.45 174.53 185.32 174.35 185.04
C174.16 184.76 174.07 184.39 174.07 183.92
C174.07 183.41 174.17 182.99 174.36 182.68
C174.55 182.37 174.77 182.21 175.02 182.21
Z
M171.64 181.49
C171.54 181.80 171.37 182.12 171.13 182.45
C170.88 182.77 170.61 183.05 170.29 183.28
L170.29 184.12
C170.48 184.02 170.68 183.87 170.90 183.66
C171.13 183.46 171.30 183.26 171.44 183.07
L171.44 188.64
L172.01 188.64
L172.01 181.49
Z
M174.95 181.49
C174.54 181.49 174.20 181.70 173.91 182.13
C173.62 182.56 173.48 183.15 173.48 183.89
C173.48 184.62 173.62 185.19 173.89 185.60
C174.17 186.02 174.50 186.23 174.88 186.23
C175.09 186.23 175.30 186.14 175.50 185.97
C175.70 185.81 175.86 185.58 175.98 185.29
L175.98 185.46
C175.98 186.02 175.93 186.51 175.82 186.93
C175.71 187.34 175.57 187.63 175.42 187.80
C175.26 187.96 175.09 188.04 174.90 188.04
C174.47 188.04 174.21 187.67 174.12 186.92
L173.57 186.99
C173.61 187.57 173.76 188.01 173.99 188.31
C174.23 188.61 174.53 188.76 174.88 188.76
C175.20 188.76 175.48 188.64 175.73 188.39
C175.99 188.14 176.19 187.74 176.33 187.20
C176.48 186.66 176.55 185.90 176.55 184.92
C176.55 184.05 176.49 183.37 176.35 182.91
C176.21 182.44 176.02 182.09 175.77 181.85
C175.51 181.61 175.24 181.49 174.95 181.49
Z
" fill="black" fill-rule="nonzero" />
<path d="
M171.64 193.46
C171.54 193.77 171.37 194.09 171.13 194.41
C170.88 194.74 170.61 195.02 170.29 195.24
L170.29 196.09
C170.48 195.99 170.68 195.83 170.90 195.63
C171.13 195.43 171.30 195.23 171.44 195.03
L171.44 200.61
L172.01 200.61
L172.01 193.46
Z
M173.52 193.58
L173.52 194.42
L175.80 194.42
C175.51 194.92 175.24 195.53 174.99 196.25
C174.74 196.97 174.54 197.73 174.40 198.52
C174.26 199.32 174.18 200.01 174.17 200.61
L174.76 200.61
C174.82 199.45 175.01 198.29 175.35 197.12
C175.70 195.94 176.09 194.99 176.54 194.26
L176.54 193.58
Z
" fill="black" fill-rule="nonzero" />
</g>
<g  transform="translate(1.19,228.58)" >
<path d="
M105.00 2.72
C104.84 2.72 104.70 2.78 104.58 2.89
C104.47 3.01 104.41 3.15 104.41 3.31
C104.41 3.47 104.47 3.61 104.59 3.73
C104.70 3.84 104.84 3.90 105.00 3.90
C105.17 3.90 105.31 3.84 105.42 3.73
C105.53 3.61 105.59 3.47 105.59 3.31
C105.59 3.15 105.53 3.01 105.42 2.89
C105.31 2.78 105.17 2.72 105.00 2.72
Z
M130.27 4.17
L130.27 8.08
L127.51 8.08
L130.27 4.17
Z
M109.98 7.81
L109.98 9.84
C109.49 10.23 109.11 10.42 108.81 10.42
C108.60 10.42 108.40 10.33 108.24 10.15
C108.07 9.96 107.99 9.73 107.99 9.45
C107.99 9.23 108.05 9.03 108.18 8.84
C108.32 8.66 108.54 8.48 108.84 8.31
C109.01 8.21 109.39 8.05 109.98 7.81
Z
M98.33 3.55
C99.26 3.55 100.02 3.86 100.61 4.49
C101.20 5.12 101.50 5.98 101.50 7.06
C101.50 8.15 101.20 9.00 100.61 9.63
C100.02 10.27 99.27 10.58 98.37 10.58
C98.04 10.58 97.63 10.53 97.13 10.42
L97.13 3.72
C97.58 3.60 97.98 3.55 98.33 3.55
Z
M94.88 3.11
L94.88 3.32
L95.18 3.32
C95.48 3.32 95.70 3.41 95.85 3.58
C95.96 3.70 96.02 4.01 96.02 4.50
L96.02 9.59
C96.02 10.04 95.97 10.33 95.89 10.45
C95.75 10.67 95.51 10.77 95.18 10.77
L94.88 10.77
L94.88 10.99
L98.41 10.99
C99.94 10.99 101.08 10.58 101.82 9.76
C102.49 9.02 102.82 8.10 102.82 7.01
C102.82 6.19 102.64 5.47 102.26 4.84
C101.89 4.22 101.40 3.77 100.78 3.51
C100.17 3.24 99.27 3.11 98.09 3.11
Z
M105.23 5.51
L103.63 6.16
L103.71 6.37
C103.86 6.31 104.00 6.28 104.10 6.28
C104.20 6.28 104.28 6.30 104.34 6.35
C104.40 6.40 104.44 6.49 104.47 6.61
C104.50 6.78 104.52 7.16 104.52 7.73
L104.52 9.79
C104.52 10.11 104.50 10.34 104.44 10.45
C104.39 10.57 104.32 10.65 104.23 10.70
C104.14 10.75 103.97 10.78 103.71 10.78
L103.71 10.99
L106.30 10.99
L106.30 10.78
C106.04 10.78 105.87 10.75 105.78 10.70
C105.68 10.64 105.61 10.56 105.56 10.45
C105.51 10.34 105.49 10.12 105.49 9.79
L105.49 5.51
Z
M120.56 2.94
C119.95 2.94 119.45 3.14 119.05 3.52
C118.65 3.90 118.40 4.45 118.31 5.17
L118.52 5.17
C118.67 4.73 118.90 4.40 119.20 4.17
C119.51 3.95 119.86 3.83 120.25 3.83
C120.67 3.83 121.04 3.99 121.35 4.32
C121.65 4.64 121.81 5.05 121.81 5.55
C121.81 6.20 121.53 6.93 120.97 7.72
C120.41 8.51 119.45 9.53 118.08 10.77
L118.08 10.99
L122.73 10.99
L123.28 9.47
L123.07 9.47
C122.97 9.65 122.85 9.78 122.71 9.88
C122.58 9.97 122.42 10.03 122.26 10.06
C122.09 10.10 121.79 10.11 121.37 10.11
L119.32 10.11
C119.56 9.89 120.16 9.26 121.12 8.20
C121.77 7.50 122.23 6.84 122.52 6.21
C122.71 5.81 122.80 5.41 122.80 5.01
C122.80 4.45 122.58 3.97 122.16 3.56
C121.73 3.15 121.19 2.94 120.56 2.94
Z
M130.59 2.94
L126.94 8.16
L126.94 8.91
L130.27 8.91
L130.27 10.99
L131.23 10.99
L131.23 8.91
L132.29 8.91
L132.29 8.08
L131.23 8.08
L131.23 2.94
Z
M109.16 5.51
C108.55 5.51 108.07 5.65 107.73 5.93
C107.38 6.20 107.21 6.51 107.21 6.84
C107.21 7.02 107.26 7.16 107.35 7.26
C107.44 7.36 107.56 7.41 107.70 7.41
C107.85 7.41 107.97 7.36 108.06 7.26
C108.15 7.17 108.20 7.03 108.20 6.85
L108.18 6.51
C108.18 6.34 108.26 6.19 108.41 6.06
C108.55 5.93 108.74 5.86 108.99 5.86
C109.31 5.86 109.55 5.96 109.72 6.16
C109.89 6.36 109.98 6.72 109.98 7.25
L109.98 7.46
C109.06 7.79 108.41 8.08 108.01 8.31
C107.62 8.54 107.34 8.79 107.18 9.05
C107.07 9.24 107.01 9.47 107.01 9.73
C107.01 10.14 107.13 10.47 107.37 10.72
C107.61 10.97 107.91 11.10 108.28 11.10
C108.51 11.10 108.74 11.05 108.95 10.95
C109.09 10.89 109.43 10.64 109.98 10.22
C109.98 10.54 110.04 10.76 110.15 10.90
C110.26 11.03 110.41 11.09 110.60 11.09
C111.00 11.09 111.41 10.80 111.85 10.22
L111.85 9.90
C111.61 10.13 111.46 10.27 111.38 10.32
C111.33 10.35 111.28 10.36 111.21 10.36
C111.16 10.36 111.10 10.34 111.06 10.30
C111.01 10.26 110.98 10.19 110.96 10.07
C110.94 9.96 110.93 9.65 110.93 9.14
L110.93 7.33
C110.93 6.82 110.90 6.48 110.83 6.31
C110.72 6.05 110.55 5.87 110.32 5.75
C110.02 5.59 109.63 5.51 109.16 5.51
Z
M113.36 9.86
C113.18 9.86 113.03 9.92 112.90 10.05
C112.78 10.17 112.71 10.32 112.71 10.51
C112.71 10.68 112.78 10.84 112.90 10.96
C113.03 11.09 113.18 11.15 113.36 11.15
C113.54 11.15 113.69 11.09 113.81 10.96
C113.94 10.84 114.00 10.68 114.00 10.51
C114.00 10.33 113.94 10.18 113.82 10.05
C113.69 9.92 113.54 9.86 113.36 9.86
Z
M125.26 9.86
C125.09 9.86 124.93 9.92 124.81 10.05
C124.68 10.17 124.62 10.32 124.62 10.51
C124.62 10.68 124.68 10.84 124.81 10.96
C124.93 11.09 125.09 11.15 125.26 11.15
C125.44 11.15 125.59 11.09 125.72 10.96
C125.85 10.84 125.91 10.68 125.91 10.51
C125.91 10.33 125.85 10.18 125.72 10.05
C125.60 9.92 125.45 9.86 125.26 9.86
Z
" fill="black" fill-rule="nonzero" />
</g>
</g>
</svg>
