<?xml version="1.0" encoding="utf-8" standalone="no"?>
<!DOCTYPE svg PUBLIC "-//W3C//DTD SVG 1.0//EN" "http://www.w3.org/TR/SVG/DTD/svg11.dtd" >
<svg version="1.1" baseProfile="full"  width="319.13385" height="338.51422" viewBox="0 0 229.77638 243.73024" preserveAspectRatio="xMidYMid" xmlns="http://www.w3.org/2000/svg" >

<g lengthAdjust="spacingAndGlyphs" xml:space='preserve' >
<g  transform="translate(1.19,1.19)" >
<path d="
M0.0 0.0
L0.0 227.39
L227.39 227.39
L227.39 0.0
Z
" fill="none" fill-rule="nonzero" />
<line x1="6.54" y1="6.54" x2="6.54" y2="220.84" fill="none" stroke="black" stroke-width="0.87px" stroke-linecap="square" />
<line x1="18.45" y1="6.54" x2="18.45" y2="220.84" fill="none" stroke="black" stroke-width="0.25px" stroke-linecap="butt" />
<line x1="30.35" y1="6.54" x2="30.35" y2="220.84" fill="none" stroke="black" stroke-width="0.25px" stroke-linecap="butt" />
<line x1="42.26" y1="6.54" x2="42.26" y2="220.84" fill="none" stroke="black" stroke-width="0.25px" stroke-linecap="butt" />
<line x1="54.17" y1="6.54" x2="54.17" y2="220.84" fill="none" stroke="black" stroke-width="0.25px" stroke-linecap="butt" />
<line x1="66.07" y1="6.54" x2="66.07" y2="220.84" fill="none" stroke="black" stroke-width="0.25px" stroke-linecap="butt" />
<line x1="77.98" y1="6.54" x2="77.98" y2="220.84" fill="none" stroke="black" stroke-width="0.25px" stroke-linecap="butt" />
<line x1="89.88" y1="6.54" x2="89.88" y2="220.84" fill="none" stroke="black" stroke-width="0.25px" stroke-linecap="butt" />
<line x1="101.79" y1="6.54" x2="101.79" y2="220.84" fill="none" stroke="black" stroke-width="0.25px" stroke-linecap="butt" />
<line x1="113.69" y1="6.54" x2="113.69" y2="220.84" fill="none" stroke="black" stroke-width="0.25px" stroke-linecap="butt" />
<line x1="125.60" y1="6.54" x2="125.60" y2="220.84" fill="none" stroke="black" stroke-width="0.25px" stroke-linecap="butt" />
<line x1="137.50" y1="6.54" x2="137.50" y2="191.08" fill="none" stroke="black" stroke-width="0.25px" stroke-linecap="butt" />
<line x1="137.50" y1="202.98" x2="137.50" y2="220.84" fill="none" stroke="black" stroke-width="0.25px" stroke-linecap="butt" />
<line x1="149.41" y1="6.54" x2="149.41" y2="220.84" fill="none" stroke="black" stroke-width="0.25px" stroke-linecap="butt" />
<line x1="161.31" y1="6.54" x2="161.31" y2="202.98" fill="none" stroke="black" stroke-width="0.25px" stroke-linecap="butt" />
<line x1="161.31" y1="214.89" x2="161.31" y2="220.84" fill="none" stroke="black" stroke-width="0.25px" stroke-linecap="butt" />
<line x1="173.22" y1="6.54" x2="173.22" y2="220.84" fill="none" stroke="black" stroke-width="0.25px" stroke-linecap="butt" />
<line x1="185.13" y1="6.54" x2="185.13" y2="220.84" fill="none" stroke="black" stroke-width="0.25px" stroke-linecap="butt" />
<line x1="197.03" y1="6.54" x2="197.03" y2="220.84" fill="none" stroke="black" stroke-width="0.25px" stroke-linecap="butt" />
<line x1="208.94" y1="6.54" x2="208.94" y2="220.84" fill="none" stroke="black" stroke-width="0.25px" stroke-linecap="butt" />
<line x1="220.84" y1="6.54" x2="220.84" y2="220.84" fill="none" stroke="black" stroke-width="0.87px" stroke-linecap="square" />
<line x1="6.54" y1="6.54" x2="220.84" y2="6.54" fill="none" stroke="black" stroke-width="0.87px" stroke-linecap="square" />
<line x1="6.54" y1="18.45" x2="220.84" y2="18.45" fill="none" stroke="black" stroke-width="0.25px" stroke-linecap="butt" />
<line x1="6.54" y1="30.35" x2="220.84" y2="30.35" fill="none" stroke="black" stroke-width="0.25px" stroke-linecap="butt" />
<line x1="6.54" y1="42.26" x2="220.84" y2="42.26" fill="none" stroke="black" stroke-width="0.25px" stroke-linecap="butt" />
<line x1="6.54" y1="54.17" x2="220.84" y2="54.17" fill="none" stroke="black" stroke-width="0.25px" stroke-linecap="butt" />
<line x1="6.54" y1="66.07" x2="220.84" y2="66.07" fill="none" stroke="black" stroke-width="0.25px" stroke-linecap="butt" />
<line x1="6.54" y1="77.98" x2="220.84" y2="77.98" fill="none" stroke="black" stroke-width="0.25px" stroke-linecap="butt" />
<line x1="6.54" y1="89.88" x2="220.84" y2="89.88" fill="none" stroke="black" stroke-width="0.25px" stroke-linecap="butt" />
<line x1="6.54" y1="101.79" x2="220.84" y2="101.79" fill="none" stroke="black" stroke-width="0.25px" stroke-linecap="butt" />
<line x1="6.54" y1="113.69" x2="220.84" y2="113.69" fill="none" stroke="black" stroke-width="0.25px" stroke-linecap="butt" />
<line x1="6.54" y1="125.60" x2="220.84" y2="125.60" fill="none" stroke="black" stroke-width="0.25px" stroke-linecap="butt" />
<line x1="6.54" y1="137.50" x2="220.84" y2="137.50" fill="none" stroke="black" stroke-width="0.25px" stroke-linecap="butt" />
<line x1="6.54" y1="149.41" x2="220.84" y2="149.41" fill="none" stroke="black" stroke-width="0.25px" stroke-linecap="butt" />
<line x1="6.54" y1="161.31" x2="220.84" y2="161.31" fill="none" stroke="black" stroke-width="0.25px" stroke-linecap="butt" />
<line x1="6.54" y1="173.22" x2="220.84" y2="173.22" fill="none" stroke="black" stroke-width="0.25px" stroke-linecap="butt" />
<line x1="6.54" y1="185.13" x2="220.84" y2="185.13" fill="none" stroke="black" stroke-width="0.25px" stroke-linecap="butt" />
<line x1="6.54" y1="197.03" x2="131.55" y2="197.03" fill="none" stroke="black" stroke-width="0.25px" stroke-linecap="butt" />
<line x1="143.46" y1="197.03" x2="220.84" y2="197.03" fill="none" stroke="black" stroke-width="0.25px" stroke-linecap="butt" />
<line x1="6.54" y1="208.94" x2="155.36" y2="208.94" fill="none" stroke="black" stroke-width="0.25px" stroke-linecap="butt" />
<line x1="167.27" y1="208.94" x2="220.84" y2="208.94" fill="none" stroke="black" stroke-width="0.25px" stroke-linecap="butt" />
<line x1="6.54" y1="220.84" x2="220.84" y2="220.84" fill="none" stroke="black" stroke-width="0.87px" stroke-linecap="square" />
<circle cx="42.26" cy="42.26" r="1.27" fill="black"/>
<circle cx="42.26" cy="113.69" r="1.27" fill="black"/>
<circle cx="42.26" cy="185.13" r="1.27" fill="black"/>
<circle cx="113.69" cy="42.26" r="1.27" fill="black"/>
<circle cx="113.69" cy="113.69" r="1.27" fill="black"/>
<circle cx="113.69" cy="185.13" r="6.01" fill="black"/>
<circle cx="149.41" cy="113.69" r="6.01" fill="black"/>
<circle cx="149.41" cy="137.50" r="5.89" fill="white"/>
<circle cx="149.41" cy="137.50" r="5.89" fill="none" stroke="black" stroke-width="0.25px"/>
<circle cx="149.41" cy="173.22" r="6.01" fill="black"/>
<circle cx="149.41" cy="185.13" r="5.89" fill="white"/>
<circle cx="149.41" cy="185.13" r="5.89" fill="none" stroke="black" stroke-width="0.25px"/>
<circle cx="149.41" cy="197.03" r="6.01" fill="black"/>
<circle cx="161.31" cy="161.31" r="6.01" fill="black"/>
<circle cx="161.31" cy="173.22" r="5.89" fill="white"/>
<circle cx="161.31" cy="173.22" r="5.89" fill="none" stroke="black" stroke-width="0.25px"/>
<circle cx="161.31" cy="185.13" r="6.01" fill="black"/>
<circle cx="161.31" cy="197.03" r="5.89" fill="white"/>
<circle cx="161.31" cy="197.03" r="5.89" fill="none" stroke="black" stroke-width="0.25px"/>
<circle cx="161.31" cy="220.84" r="5.89" fill="white"/>
<circle cx="161.31" cy="220.84" r="5.89" fill="none" stroke="black" stroke-width="0.25px"/>
<circle cx="173.22" cy="89.88" r="6.01" fill="black"/>
<circle cx="173.22" cy="101.79" r="6.01" fill="black"/>
<circle cx="173.22" cy="113.69" r="5.89" fill="white"/>
<circle cx="173.22" cy="113.69" r="5.89" fill="none" stroke="black" stroke-width="0.25px"/>
<circle cx="173.22" cy="125.60" r="5.89" fill="white"/>
<circle cx="173.22" cy="125.60" r="5.89" fill="none" stroke="black" stroke-width="0.25px"/>
<circle cx="173.22" cy="149.41" r="5.89" fill="white"/>
<circle cx="173.22" cy="149.41" r="5.89" fill="none" stroke="black" stroke-width="0.25px"/>
<circle cx="173.22" cy="161.31" r="5.89" fill="white"/>
<circle cx="173.22" cy="161.31" r="5.89" fill="none" stroke="black" stroke-width="0.25px"/>
<circle cx="173.22" cy="173.22" r="6.01" fill="black"/>
<circle cx="173.22" cy="185.13" r="5.89" fill="white"/>
<circle cx="173.22" cy="185.13" r="5.89" fill="none" stroke="black" stroke-width="0.25px"/>
<circle cx="173.22" cy="197.03" r="5.89" fill="white"/>
<circle cx="173.22" cy="197.03" r="5.89" fill="none" stroke="black" stroke-width="0.25px"/>
<circle cx="173.22" cy="208.94" r="5.89" fill="white"/>
<circle cx="173.22" cy="208.94" r="5.89" fill="none" stroke="black" stroke-width="0.25px"/>
<circle cx="173.22" cy="220.84" r="6.01" fill="black"/>
<circle cx="185.13" cy="42.26" r="1.27" fill="black"/>
<circle cx="185.13" cy="101.79" r="5.89" fill="white"/>
<circle cx="185.13" cy="101.79" r="5.89" fill="none" stroke="black" stroke-width="0.25px"/>
<circle cx="185.13" cy="113.69" r="6.01" fill="black"/>
<circle cx="185.13" cy="125.60" r="5.89" fill="white"/>
<circle cx="185.13" cy="125.60" r="5.89" fill="none" stroke="black" stroke-width="0.25px"/>
<circle cx="185.13" cy="149.41" r="5.89" fill="white"/>
<circle cx="185.13" cy="149.41" r="5.89" fill="none" stroke="black" stroke-width="0.25px"/>
<circle cx="185.13" cy="161.31" r="6.01" fill="black"/>
<circle cx="185.13" cy="173.22" r="6.01" fill="black"/>
<circle cx="185.13" cy="185.13" r="6.01" fill="black"/>
<circle cx="185.13" cy="197.03" r="6.01" fill="black"/>
<circle cx="185.13" cy="208.94" r="6.01" fill="black"/>
<circle cx="185.13" cy="220.84" r="6.01" fill="black"/>
<circle cx="197.03" cy="113.69" r="6.01" fill="black"/>
<circle cx="197.03" cy="125.60" r="6.01" fill="black"/>
<circle cx="197.03" cy="137.50" r="6.01" fill="black"/>
<circle cx="197.03" cy="149.41" r="6.01" fill="black"/>
<circle cx="197.03" cy="161.31" r="5.89" fill="white"/>
<circle cx="197.03" cy="161.31" r="5.89" fill="none" stroke="black" stroke-width="0.25px"/>
<circle cx="197.03" cy="185.13" r="5.89" fill="white"/>
<circle cx="197.03" cy="185.13" r="5.89" fill="none" stroke="black" stroke-width="0.25px"/>
<circle cx="197.03" cy="197.03" r="5.89" fill="white"/>
<circle cx="197.03" cy="197.03" r="5.89" fill="none" stroke="black" stroke-width="0.25px"/>
<circle cx="197.03" cy="208.94" r="5.89" fill="white"/>
<circle cx="197.03" cy="208.94" r="5.89" fill="none" stroke="black" stroke-width="0.25px"/>
<circle cx="208.94" cy="161.31" r="5.89" fill="white"/>
<circle cx="208.94" cy="161.31" r="5.89" fill="none" stroke="black" stroke-width="0.25px"/>
<path d="
M136.86 194.47
C137.59 194.47 138.03 194.48 138.18 194.50
C138.44 194.53 138.63 194.62 138.76 194.77
C138.90 194.92 138.96 195.11 138.96 195.35
C138.96 195.59 138.88 195.79 138.73 195.95
C138.58 196.10 138.37 196.19 138.11 196.22
C137.96 196.24 137.59 196.25 136.98 196.25
L135.97 196.25
L135.97 194.47
Z
M137.22 197.52
C137.92 197.52 138.38 197.56 138.59 197.63
C138.80 197.71 138.96 197.82 139.08 197.98
C139.19 198.14 139.24 198.34 139.24 198.57
C139.24 198.84 139.17 199.06 139.03 199.22
C138.88 199.38 138.69 199.48 138.46 199.53
C138.31 199.56 137.96 199.57 137.40 199.57
L135.97 199.57
L135.97 197.52
Z
M134.42 193.20
L134.42 200.87
L137.03 200.87
C138.02 200.86 138.64 200.84 138.90 200.81
C139.31 200.77 139.66 200.65 139.94 200.45
C140.22 200.25 140.44 199.99 140.60 199.66
C140.76 199.33 140.84 198.99 140.84 198.64
C140.84 198.20 140.72 197.81 140.47 197.49
C140.22 197.16 139.86 196.93 139.39 196.79
C139.72 196.64 139.98 196.42 140.18 196.12
C140.37 195.82 140.47 195.49 140.47 195.13
C140.47 194.80 140.39 194.50 140.23 194.23
C140.08 193.96 139.88 193.75 139.64 193.59
C139.41 193.43 139.14 193.32 138.84 193.27
C138.54 193.22 138.09 193.20 137.49 193.20
Z
" fill="black" fill-rule="nonzero" />
<path d="
M149.38 110.95
C149.38 110.95 149.38 110.95 149.38 110.95
C149.38 110.95 149.38 110.95 149.38 110.95
C149.60 110.95 149.78 111.04 149.94 111.22
C150.10 111.40 150.18 111.64 150.18 111.93
C150.18 112.22 150.11 112.45 149.95 112.62
C149.79 112.79 149.61 112.88 149.39 112.88
C149.39 112.88 149.39 112.88 149.39 112.88
C149.39 112.88 149.39 112.88 149.39 112.88
C149.16 112.88 148.98 112.79 148.82 112.62
C148.67 112.44 148.59 112.20 148.59 111.89
C148.59 111.61 148.67 111.39 148.83 111.21
C148.98 111.04 149.16 110.95 149.38 110.95
Z
M149.37 113.87
C149.37 113.87 149.37 113.87 149.37 113.87
C149.37 113.87 149.37 113.87 149.37 113.87
C149.66 113.87 149.90 113.98 150.10 114.21
C150.31 114.45 150.42 114.77 150.42 115.16
C150.42 115.56 150.32 115.87 150.11 116.10
C149.92 116.32 149.68 116.43 149.39 116.43
C149.39 116.43 149.39 116.43 149.39 116.43
C149.39 116.43 149.39 116.43 149.39 116.43
C149.11 116.43 148.87 116.32 148.66 116.09
C148.45 115.85 148.35 115.53 148.35 115.13
C148.35 114.75 148.45 114.45 148.66 114.21
C148.85 113.98 149.09 113.87 149.37 113.87
Z
M149.38 109.96
C148.86 109.96 148.43 110.14 148.08 110.51
C147.74 110.87 147.57 111.34 147.57 111.91
C147.57 112.29 147.65 112.61 147.81 112.87
C147.92 113.06 148.07 113.21 148.25 113.33
L148.25 113.33
C148.01 113.46 147.81 113.65 147.66 113.90
C147.45 114.22 147.34 114.64 147.34 115.13
C147.34 115.81 147.54 116.37 147.92 116.79
C148.32 117.21 148.80 117.43 149.39 117.43
C149.97 117.43 150.45 117.21 150.85 116.79
C151.23 116.37 151.43 115.82 151.43 115.16
C151.43 114.68 151.33 114.27 151.13 113.94
C150.97 113.69 150.77 113.49 150.51 113.34
L150.51 113.34
C150.70 113.21 150.85 113.06 150.96 112.87
C151.12 112.62 151.19 112.30 151.19 111.94
C151.19 111.36 151.02 110.89 150.68 110.52
C150.33 110.15 149.90 109.96 149.38 109.96
Z
" fill="white" fill-rule="nonzero" />
<path d="
M147.54 134.03
L147.54 134.86
L150.36 134.86
C150.00 135.36 149.67 135.97 149.36 136.68
C149.05 137.39 148.80 138.13 148.62 138.92
C148.45 139.70 148.35 140.39 148.34 140.98
L149.07 140.98
C149.14 139.84 149.38 138.69 149.80 137.53
C150.23 136.37 150.71 135.43 151.27 134.70
L151.27 134.03
Z
" fill="black" fill-rule="nonzero" />
<path d="
M151.17 170.45
C151.17 170.45 151.17 170.45 151.17 170.45
C151.17 170.45 151.17 170.45 151.17 170.45
C151.28 170.45 151.37 170.48 151.46 170.56
C151.56 170.64 151.65 170.77 151.73 170.95
C151.90 171.32 151.98 172.08 151.98 173.22
C151.98 174.35 151.90 175.10 151.73 175.48
C151.65 175.66 151.56 175.79 151.47 175.88
C151.39 175.96 151.30 175.99 151.21 175.99
C151.21 175.99 151.21 175.99 151.20 175.99
C151.20 175.99 151.20 175.99 151.20 175.99
C151.10 175.99 151.01 175.96 150.92 175.88
C150.82 175.80 150.73 175.66 150.65 175.49
C150.48 175.11 150.40 174.36 150.40 173.22
C150.40 172.09 150.48 171.34 150.65 170.96
C150.73 170.78 150.81 170.65 150.91 170.56
C150.99 170.48 151.08 170.45 151.17 170.45
Z
M151.20 169.44
C150.91 169.44 150.66 169.53 150.45 169.70
C150.24 169.87 150.06 170.12 149.93 170.45
C149.66 171.08 149.53 172.01 149.53 173.22
C149.53 174.58 149.68 175.54 149.97 176.10
C150.12 176.39 150.30 176.61 150.50 176.76
C150.70 176.92 150.94 177.00 151.19 177.00
C151.48 177.00 151.73 176.91 151.94 176.73
C152.15 176.56 152.33 176.31 152.46 175.98
C152.73 175.35 152.86 174.43 152.86 173.22
C152.86 171.87 152.70 170.89 152.38 170.26
C152.24 169.99 152.07 169.79 151.88 169.65
C151.68 169.51 151.45 169.44 151.20 169.44
Z
M147.51 169.44
C147.11 169.44 146.76 169.61 146.48 169.96
C146.21 170.29 146.04 170.77 145.96 171.41
L145.95 171.53
L146.06 171.56
L146.64 171.72
L146.80 171.76
L146.81 171.60
C146.85 171.19 146.94 170.89 147.08 170.70
C147.20 170.53 147.35 170.44 147.52 170.44
C147.52 170.44 147.52 170.44 147.52 170.44
C147.52 170.44 147.52 170.44 147.52 170.44
C147.69 170.44 147.83 170.52 147.95 170.69
C148.08 170.87 148.14 171.11 148.14 171.41
C148.14 171.74 148.06 172.00 147.91 172.19
C147.76 172.37 147.57 172.46 147.34 172.46
L147.34 172.46
L147.26 172.45
L147.11 172.44
L147.10 172.58
L147.03 173.35
L147.01 173.58
L147.23 173.49
C147.37 173.43 147.49 173.41 147.58 173.41
C147.58 173.41 147.58 173.41 147.58 173.41
C147.58 173.41 147.58 173.41 147.58 173.41
C147.79 173.41 147.96 173.51 148.11 173.72
C148.27 173.95 148.35 174.26 148.35 174.64
C148.35 175.05 148.26 175.39 148.09 175.64
C147.93 175.88 147.74 175.99 147.53 175.99
C147.53 175.99 147.53 175.99 147.52 175.99
C147.52 175.99 147.52 175.99 147.52 175.99
C147.33 175.99 147.17 175.90 147.05 175.71
C146.91 175.49 146.82 175.16 146.76 174.72
L146.74 174.57
L146.59 174.60
L146.02 174.71
L145.89 174.74
L145.90 174.86
C145.94 175.50 146.11 176.02 146.40 176.40
C146.71 176.80 147.09 177.00 147.53 177.00
C148.01 177.00 148.42 176.77 148.75 176.32
C149.08 175.88 149.24 175.31 149.24 174.63
C149.24 174.31 149.20 174.02 149.13 173.75
C149.04 173.49 148.94 173.27 148.80 173.11
C148.72 173.00 148.61 172.91 148.49 172.84
L148.49 172.84
C148.63 172.70 148.75 172.54 148.83 172.35
C148.95 172.08 149.01 171.77 149.01 171.43
C149.01 170.86 148.87 170.40 148.59 170.02
C148.30 169.63 147.94 169.44 147.51 169.44
Z
" fill="white" fill-rule="nonzero" />
<path d="
M151.21 182.21
C151.44 182.21 151.65 182.36 151.83 182.65
C152.02 182.94 152.11 183.34 152.11 183.85
C152.11 184.36 152.02 184.76 151.84 185.04
C151.67 185.31 151.45 185.45 151.20 185.45
C150.94 185.45 150.72 185.32 150.54 185.04
C150.35 184.76 150.26 184.39 150.26 183.92
C150.26 183.41 150.36 182.99 150.55 182.68
C150.74 182.37 150.96 182.21 151.21 182.21
Z
M147.61 181.49
C147.17 181.49 146.81 181.66 146.55 182.01
C146.28 182.35 146.12 182.87 146.08 183.55
L146.67 183.64
C146.67 183.18 146.76 182.83 146.93 182.58
C147.10 182.34 147.32 182.21 147.59 182.21
C147.84 182.21 148.04 182.33 148.21 182.56
C148.38 182.78 148.47 183.08 148.47 183.44
C148.47 183.76 148.39 184.10 148.22 184.46
C148.05 184.82 147.70 185.34 147.17 186.01
C146.71 186.58 146.39 187.08 146.22 187.50
C146.05 187.92 145.97 188.30 145.97 188.64
L149.06 188.64
L149.06 187.80
L146.77 187.80
C146.83 187.64 146.91 187.48 147.01 187.32
C147.11 187.17 147.33 186.87 147.68 186.43
C148.21 185.74 148.58 185.18 148.77 184.77
C148.96 184.35 149.06 183.92 149.06 183.46
C149.06 182.95 148.93 182.49 148.69 182.09
C148.44 181.69 148.08 181.49 147.61 181.49
Z
M151.14 181.49
C150.73 181.49 150.39 181.70 150.10 182.13
C149.81 182.56 149.67 183.15 149.67 183.89
C149.67 184.62 149.81 185.19 150.08 185.60
C150.36 186.02 150.69 186.23 151.07 186.23
C151.28 186.23 151.48 186.14 151.69 185.97
C151.89 185.81 152.05 185.58 152.17 185.29
L152.17 185.46
C152.17 186.02 152.11 186.51 152.01 186.93
C151.90 187.34 151.76 187.63 151.61 187.80
C151.45 187.96 151.28 188.04 151.08 188.04
C150.65 188.04 150.40 187.67 150.31 186.92
L149.76 186.99
C149.80 187.57 149.94 188.01 150.18 188.31
C150.42 188.61 150.72 188.76 151.07 188.76
C151.39 188.76 151.67 188.64 151.92 188.39
C152.17 188.14 152.37 187.74 152.52 187.20
C152.67 186.66 152.74 185.90 152.74 184.92
C152.74 184.05 152.68 183.37 152.54 182.91
C152.40 182.44 152.21 182.09 151.95 181.85
C151.70 181.61 151.43 181.49 151.14 181.49
Z
" fill="black" fill-rule="nonzero" />
<path d="
M149.42 196.84
C149.69 196.84 149.92 196.96 150.10 197.20
C150.30 197.45 150.40 197.81 150.40 198.28
C150.40 198.75 150.30 199.13 150.10 199.39
C149.91 199.64 149.70 199.77 149.47 199.77
C149.47 199.77 149.47 199.77 149.47 199.77
C149.47 199.77 149.46 199.77 149.46 199.77
C149.19 199.77 148.95 199.64 148.74 199.36
C148.52 199.08 148.41 198.70 148.41 198.22
C148.41 197.79 148.52 197.45 148.72 197.20
C148.92 196.96 149.15 196.84 149.42 196.84
C149.42 196.84 149.42 196.84 149.42 196.84
C149.42 196.84 149.42 196.84 149.42 196.84
Z
M149.52 193.30
C148.87 193.30 148.33 193.61 147.92 194.23
C147.52 194.83 147.31 195.82 147.31 197.21
C147.31 198.47 147.51 199.37 147.91 199.92
C148.31 200.48 148.83 200.76 149.46 200.77
C149.81 200.77 150.14 200.67 150.43 200.47
C150.72 200.27 150.96 199.97 151.14 199.56
C151.32 199.16 151.41 198.71 151.41 198.22
C151.41 197.50 151.23 196.91 150.86 196.47
C150.50 196.02 150.06 195.80 149.56 195.80
C149.26 195.80 148.97 195.88 148.70 196.06
C148.56 196.15 148.43 196.26 148.32 196.39
L148.32 196.39
C148.35 195.79 148.45 195.32 148.62 194.98
C148.73 194.74 148.86 194.57 149.01 194.45
C149.15 194.35 149.31 194.29 149.48 194.29
C149.48 194.29 149.48 194.29 149.48 194.29
C149.48 194.29 149.48 194.29 149.48 194.29
C149.70 194.29 149.89 194.39 150.05 194.58
C150.17 194.71 150.26 194.95 150.32 195.28
L150.34 195.41
L150.47 195.40
L151.18 195.33
L151.32 195.32
L151.31 195.17
C151.24 194.57 151.05 194.11 150.73 193.79
C150.40 193.46 150.00 193.30 149.52 193.30
Z
" fill="white" fill-rule="nonzero" />
<path d="
M163.27 159.83
L163.27 162.24
L162.17 162.24
L163.27 159.83
Z
M159.51 157.60
C159.03 157.60 158.64 157.79 158.34 158.17
C158.05 158.54 157.89 159.08 157.85 159.79
L157.84 159.92
L157.97 159.94
L158.56 160.03
L158.72 160.06
L158.72 159.89
C158.72 159.46 158.80 159.13 158.95 158.91
C159.09 158.71 159.27 158.60 159.49 158.60
C159.49 158.60 159.49 158.60 159.49 158.60
C159.49 158.60 159.49 158.60 159.50 158.60
C159.70 158.60 159.87 158.70 160.01 158.89
C160.16 159.09 160.23 159.36 160.23 159.69
C160.23 159.99 160.15 160.31 160.00 160.65
C159.84 161.00 159.49 161.51 158.96 162.17
C158.49 162.75 158.17 163.26 157.99 163.70
C157.81 164.13 157.73 164.53 157.74 164.89
L157.74 165.03
L161.11 165.03
L161.11 164.89
L161.11 164.05
L161.11 163.91
L158.89 163.91
C158.94 163.82 158.98 163.74 159.04 163.65
C159.14 163.49 159.35 163.20 159.69 162.77
C160.24 162.07 160.61 161.50 160.80 161.08
C161.00 160.64 161.10 160.19 161.10 159.71
C161.10 159.17 160.97 158.69 160.71 158.27
C160.44 157.82 160.04 157.60 159.51 157.60
Z
M163.43 157.63
L163.39 157.71
L161.26 162.32
L161.25 162.35
L161.25 162.38
L161.25 163.19
L161.25 163.33
L163.27 163.33
L163.27 164.89
L163.27 165.03
L164.13 165.03
L164.13 164.89
L164.13 163.33
L164.76 163.33
L164.76 163.19
L164.76 162.38
L164.76 162.24
L164.13 162.24
L164.13 157.77
L164.13 157.63
Z
" fill="white" fill-rule="nonzero" />
<path d="
M160.08 169.69
L159.52 173.30
L160.19 173.41
C160.30 173.20 160.44 173.03 160.63 172.91
C160.82 172.79 161.02 172.73 161.23 172.73
C161.59 172.73 161.88 172.87 162.12 173.14
C162.35 173.42 162.47 173.81 162.47 174.31
C162.47 174.85 162.35 175.27 162.11 175.58
C161.86 175.89 161.57 176.04 161.24 176.04
C160.97 176.04 160.73 175.93 160.53 175.71
C160.33 175.49 160.20 175.16 160.14 174.71
L159.39 174.79
C159.44 175.40 159.64 175.88 159.98 176.23
C160.33 176.58 160.75 176.75 161.25 176.75
C161.85 176.75 162.33 176.50 162.68 176.01
C163.04 175.52 163.22 174.93 163.22 174.24
C163.22 173.55 163.04 172.99 162.68 172.58
C162.33 172.17 161.91 171.97 161.43 171.97
C161.04 171.97 160.68 172.11 160.34 172.41
L160.65 170.52
L162.95 170.52
L162.95 169.69
Z
" fill="black" fill-rule="nonzero" />
<path d="
M163.14 184.93
C163.34 184.93 163.52 185.05 163.66 185.29
C163.82 185.54 163.91 185.91 163.91 186.39
C163.91 186.88 163.82 187.26 163.66 187.53
C163.51 187.78 163.35 187.90 163.18 187.90
C163.18 187.90 163.18 187.90 163.18 187.90
C163.18 187.90 163.17 187.90 163.17 187.90
C162.97 187.90 162.79 187.77 162.62 187.50
C162.44 187.21 162.35 186.82 162.35 186.33
C162.35 185.89 162.43 185.54 162.60 185.29
C162.76 185.05 162.94 184.93 163.13 184.93
C163.14 184.93 163.14 184.93 163.14 184.93
C163.14 184.93 163.14 184.93 163.14 184.93
Z
M159.51 181.35
C159.03 181.35 158.64 181.54 158.34 181.92
C158.05 182.29 157.89 182.83 157.85 183.54
L157.84 183.67
L157.97 183.69
L158.56 183.78
L158.72 183.81
L158.72 183.64
C158.72 183.21 158.80 182.89 158.95 182.66
C159.09 182.46 159.27 182.35 159.49 182.35
C159.49 182.35 159.49 182.35 159.49 182.35
C159.49 182.35 159.49 182.35 159.50 182.35
C159.70 182.35 159.87 182.45 160.01 182.64
C160.16 182.84 160.23 183.11 160.23 183.44
C160.23 183.74 160.15 184.06 160.00 184.40
C159.84 184.76 159.49 185.26 158.96 185.92
C158.49 186.50 158.17 187.01 157.99 187.45
C157.81 187.88 157.73 188.28 157.74 188.64
L157.74 188.78
L161.11 188.78
L161.11 188.64
L161.11 187.80
L161.11 187.66
L158.89 187.66
C158.94 187.57 158.98 187.49 159.04 187.40
C159.14 187.24 159.35 186.95 159.69 186.52
C160.24 185.82 160.61 185.25 160.80 184.83
C161.00 184.39 161.10 183.94 161.10 183.46
C161.10 182.92 160.97 182.44 160.71 182.02
C160.44 181.57 160.04 181.35 159.51 181.35
Z
M163.22 181.35
C162.95 181.35 162.70 181.43 162.47 181.59
C162.25 181.75 162.06 181.99 161.89 182.30
C161.57 182.90 161.41 183.91 161.41 185.31
C161.41 186.57 161.57 187.48 161.88 188.04
C162.05 188.32 162.24 188.53 162.45 188.68
C162.67 188.83 162.91 188.90 163.17 188.90
C163.47 188.90 163.74 188.80 163.98 188.59
C164.22 188.39 164.41 188.09 164.56 187.68
C164.70 187.27 164.78 186.83 164.78 186.33
C164.78 185.60 164.63 185.01 164.34 184.57
C164.03 184.11 163.67 183.88 163.25 183.88
C162.99 183.88 162.75 183.97 162.53 184.15
C162.44 184.22 162.35 184.31 162.28 184.41
C162.31 183.83 162.39 183.37 162.52 183.04
C162.61 182.80 162.72 182.62 162.83 182.50
C162.94 182.40 163.06 182.35 163.19 182.35
C163.19 182.35 163.19 182.35 163.19 182.35
C163.19 182.35 163.19 182.35 163.19 182.35
C163.36 182.35 163.50 182.44 163.62 182.63
C163.72 182.77 163.79 183.01 163.84 183.35
L163.86 183.49
L164.00 183.47
L164.57 183.40
L164.71 183.39
L164.69 183.25
C164.64 182.65 164.48 182.18 164.23 181.86
C163.96 181.52 163.62 181.35 163.22 181.35
Z
" fill="white" fill-rule="nonzero" />
<path d="
M159.51 193.39
C159.07 193.39 158.72 193.56 158.45 193.91
C158.18 194.25 158.03 194.77 157.99 195.45
L158.58 195.54
C158.58 195.08 158.66 194.73 158.83 194.49
C159.01 194.24 159.22 194.12 159.49 194.12
C159.74 194.12 159.95 194.23 160.12 194.46
C160.29 194.69 160.37 194.98 160.37 195.35
C160.37 195.66 160.29 196.00 160.13 196.36
C159.96 196.73 159.61 197.24 159.07 197.91
C158.61 198.48 158.30 198.98 158.13 199.40
C157.95 199.82 157.87 200.20 157.88 200.54
L160.97 200.54
L160.97 199.70
L158.68 199.70
C158.74 199.54 158.82 199.39 158.92 199.23
C159.02 199.07 159.24 198.77 159.58 198.33
C160.12 197.64 160.48 197.09 160.67 196.67
C160.87 196.25 160.96 195.82 160.96 195.36
C160.96 194.85 160.84 194.40 160.59 193.99
C160.35 193.59 159.99 193.39 159.51 193.39
Z
M163.05 193.39
C162.69 193.39 162.38 193.55 162.13 193.86
C161.87 194.17 161.71 194.63 161.64 195.24
L162.21 195.39
C162.25 194.96 162.35 194.64 162.50 194.43
C162.65 194.22 162.84 194.11 163.06 194.11
C163.27 194.11 163.45 194.21 163.60 194.41
C163.74 194.62 163.82 194.89 163.82 195.22
C163.82 195.58 163.73 195.87 163.55 196.09
C163.38 196.31 163.15 196.41 162.87 196.41
L162.78 196.40
L162.71 197.17
C162.87 197.11 163.01 197.07 163.11 197.07
C163.37 197.07 163.59 197.20 163.76 197.45
C163.94 197.71 164.03 198.04 164.03 198.45
C164.03 198.90 163.93 199.25 163.74 199.53
C163.55 199.81 163.32 199.95 163.06 199.95
C162.58 199.95 162.27 199.48 162.15 198.55
L161.58 198.66
C161.62 199.28 161.78 199.76 162.05 200.13
C162.33 200.49 162.67 200.67 163.07 200.67
C163.50 200.67 163.87 200.46 164.18 200.05
C164.48 199.63 164.64 199.09 164.64 198.44
C164.64 198.13 164.60 197.85 164.53 197.60
C164.45 197.36 164.35 197.16 164.23 197.01
C164.11 196.86 163.95 196.75 163.77 196.69
C163.97 196.54 164.13 196.35 164.24 196.10
C164.35 195.85 164.41 195.56 164.41 195.24
C164.41 194.71 164.28 194.27 164.01 193.92
C163.75 193.57 163.43 193.39 163.05 193.39
Z
" fill="black" fill-rule="nonzero" />
<path d="
M161.23 206.89
L162.29 209.74
L160.20 209.74
L161.23 206.89
Z
M160.43 205.10
L157.45 212.77
L159.09 212.77
L159.72 211.03
L162.79 211.03
L163.46 212.77
L165.14 212.77
L162.07 205.10
Z
" fill="black" fill-rule="nonzero" />
<path d="
M159.51 217.27
C159.07 217.27 158.72 217.44 158.45 217.78
C158.18 218.13 158.03 218.64 157.99 219.33
L158.58 219.42
C158.58 218.96 158.66 218.61 158.83 218.36
C159.01 218.11 159.22 217.99 159.49 217.99
C159.74 217.99 159.95 218.10 160.12 218.33
C160.29 218.56 160.37 218.86 160.37 219.22
C160.37 219.53 160.29 219.87 160.13 220.24
C159.96 220.60 159.61 221.12 159.07 221.78
C158.61 222.36 158.30 222.86 158.13 223.28
C157.95 223.70 157.87 224.08 157.88 224.42
L160.97 224.42
L160.97 223.58
L158.68 223.58
C158.74 223.42 158.82 223.26 158.92 223.10
C159.02 222.94 159.24 222.64 159.58 222.21
C160.12 221.51 160.48 220.96 160.67 220.54
C160.87 220.13 160.96 219.69 160.96 219.24
C160.96 218.73 160.84 218.27 160.59 217.87
C160.35 217.47 159.99 217.27 159.51 217.27
Z
M163.36 217.27
C163.26 217.58 163.09 217.90 162.85 218.22
C162.61 218.55 162.33 218.83 162.01 219.05
L162.01 219.90
C162.20 219.80 162.41 219.64 162.63 219.44
C162.85 219.24 163.03 219.04 163.16 218.85
L163.16 224.42
L163.74 224.42
L163.74 217.27
Z
" fill="black" fill-rule="nonzero" />
<path d="
M175.05 89.69
C175.25 89.69 175.42 89.81 175.57 90.04
C175.73 90.30 175.81 90.66 175.81 91.14
C175.81 91.63 175.73 92.01 175.56 92.28
C175.42 92.53 175.26 92.66 175.09 92.66
C175.08 92.66 175.08 92.66 175.08 92.66
C175.08 92.66 175.08 92.66 175.08 92.66
C174.88 92.66 174.69 92.52 174.53 92.26
C174.35 91.97 174.26 91.58 174.26 91.09
C174.26 90.64 174.34 90.30 174.51 90.04
C174.67 89.81 174.84 89.69 175.04 89.69
C175.04 89.69 175.04 89.69 175.04 89.69
C175.04 89.69 175.05 89.69 175.05 89.69
Z
M171.53 86.10
L171.50 86.20
C171.41 86.50 171.25 86.80 171.01 87.12
C170.78 87.43 170.51 87.70 170.21 87.92
L170.15 87.96
L170.15 88.03
L170.15 88.88
L170.15 89.12
L170.36 89.00
C170.55 88.89 170.77 88.73 171.00 88.52
C171.11 88.43 171.21 88.33 171.29 88.23
L171.29 88.23
L171.29 93.40
L171.29 93.54
L172.15 93.54
L172.15 93.40
L172.15 86.25
L172.15 86.10
Z
M175.13 86.10
C174.85 86.10 174.60 86.19 174.38 86.35
C174.16 86.51 173.97 86.74 173.80 87.06
C173.47 87.66 173.31 88.66 173.31 90.06
C173.31 91.33 173.47 92.24 173.79 92.79
C173.95 93.08 174.14 93.29 174.35 93.44
C174.57 93.58 174.81 93.66 175.08 93.66
C175.37 93.66 175.64 93.56 175.89 93.35
C176.13 93.15 176.32 92.84 176.46 92.43
C176.61 92.03 176.68 91.58 176.68 91.09
C176.68 90.36 176.54 89.77 176.24 89.33
C175.94 88.87 175.58 88.64 175.16 88.63
C174.90 88.63 174.66 88.73 174.43 88.91
C174.34 88.98 174.26 89.07 174.18 89.17
L174.18 89.17
C174.21 88.58 174.29 88.12 174.42 87.79
C174.51 87.55 174.62 87.38 174.74 87.26
C174.85 87.16 174.96 87.11 175.09 87.11
C175.09 87.11 175.09 87.11 175.09 87.11
C175.09 87.11 175.10 87.11 175.10 87.11
C175.26 87.11 175.40 87.20 175.53 87.38
C175.62 87.52 175.70 87.76 175.75 88.11
L175.77 88.24
L175.90 88.23
L176.47 88.16
L176.61 88.14
L176.60 88.01
C176.54 87.40 176.39 86.94 176.13 86.61
C175.86 86.27 175.53 86.10 175.13 86.10
Z
" fill="white" fill-rule="nonzero" />
<path d="
M174.98 99.02
C174.98 99.02 174.98 99.02 174.98 99.02
C174.98 99.02 174.98 99.02 174.98 99.02
C175.09 99.02 175.19 99.05 175.27 99.13
C175.37 99.21 175.46 99.34 175.54 99.52
C175.71 99.89 175.80 100.65 175.80 101.79
C175.80 102.92 175.71 103.67 175.54 104.05
C175.46 104.23 175.38 104.36 175.28 104.45
C175.20 104.53 175.11 104.56 175.02 104.56
C175.02 104.56 175.02 104.56 175.02 104.56
C175.02 104.56 175.01 104.56 175.01 104.56
C174.91 104.56 174.82 104.53 174.73 104.45
C174.63 104.37 174.54 104.23 174.46 104.06
C174.29 103.68 174.21 102.93 174.21 101.79
C174.21 100.66 174.29 99.91 174.46 99.53
C174.54 99.35 174.63 99.21 174.72 99.13
C174.80 99.05 174.89 99.02 174.98 99.02
Z
M171.53 98.01
L171.50 98.11
C171.41 98.40 171.25 98.71 171.01 99.02
C170.78 99.34 170.51 99.61 170.21 99.82
L170.15 99.87
L170.15 99.94
L170.15 100.78
L170.15 101.03
L170.36 100.91
C170.55 100.80 170.77 100.64 171.00 100.43
C171.11 100.33 171.21 100.23 171.29 100.14
L171.29 100.14
L171.29 105.30
L171.29 105.44
L172.15 105.44
L172.15 105.30
L172.15 98.15
L172.15 98.01
Z
M175.01 98.01
C174.72 98.01 174.47 98.10 174.26 98.27
C174.05 98.44 173.87 98.69 173.74 99.02
C173.47 99.65 173.34 100.58 173.34 101.79
C173.34 103.15 173.49 104.11 173.78 104.67
C173.93 104.96 174.11 105.18 174.31 105.33
C174.52 105.49 174.75 105.57 175.00 105.57
C175.29 105.57 175.54 105.48 175.75 105.30
C175.96 105.13 176.14 104.88 176.27 104.55
C176.54 103.92 176.67 103.00 176.67 101.79
C176.67 100.44 176.51 99.46 176.19 98.83
C176.05 98.56 175.88 98.36 175.69 98.22
C175.49 98.08 175.26 98.01 175.01 98.01
Z
" fill="white" fill-rule="nonzero" />
<path d="
M173.20 110.82
C173.49 110.82 173.75 110.96 173.97 111.25
C174.20 111.54 174.31 111.93 174.31 112.43
C174.31 112.94 174.20 113.33 173.98 113.60
C173.77 113.88 173.50 114.02 173.19 114.02
C172.87 114.02 172.60 113.88 172.37 113.61
C172.14 113.33 172.03 112.97 172.03 112.50
C172.03 111.99 172.15 111.58 172.39 111.28
C172.63 110.97 172.90 110.82 173.20 110.82
Z
M173.12 110.10
C172.61 110.10 172.18 110.31 171.83 110.74
C171.48 111.16 171.30 111.74 171.30 112.48
C171.30 113.19 171.47 113.75 171.81 114.16
C172.15 114.57 172.56 114.78 173.03 114.78
C173.29 114.78 173.54 114.70 173.79 114.53
C174.04 114.36 174.24 114.14 174.39 113.85
L174.39 114.03
C174.39 114.58 174.32 115.06 174.18 115.47
C174.05 115.88 173.89 116.17 173.69 116.33
C173.50 116.49 173.28 116.57 173.05 116.57
C172.52 116.57 172.20 116.20 172.09 115.46
L171.41 115.54
C171.46 116.10 171.64 116.54 171.93 116.84
C172.23 117.14 172.59 117.28 173.03 117.28
C173.42 117.28 173.77 117.16 174.08 116.92
C174.39 116.67 174.64 116.28 174.82 115.74
C175.01 115.21 175.10 114.46 175.10 113.49
C175.10 112.63 175.01 111.96 174.84 111.50
C174.67 111.04 174.43 110.69 174.12 110.46
C173.81 110.22 173.48 110.10 173.12 110.10
Z
" fill="black" fill-rule="nonzero" />
<path d="
M171.64 121.96
C171.54 122.27 171.37 122.59 171.13 122.92
C170.88 123.25 170.61 123.52 170.29 123.75
L170.29 124.59
C170.48 124.49 170.68 124.34 170.90 124.14
C171.13 123.93 171.30 123.73 171.44 123.54
L171.44 129.11
L172.01 129.11
L172.01 121.96
Z
M174.04 122.09
L173.58 125.75
L174.12 125.85
C174.21 125.64 174.33 125.47 174.48 125.35
C174.63 125.22 174.80 125.16 174.97 125.16
C175.26 125.16 175.50 125.30 175.69 125.58
C175.88 125.86 175.97 126.26 175.97 126.77
C175.97 127.31 175.87 127.73 175.68 128.05
C175.48 128.36 175.25 128.52 174.97 128.52
C174.76 128.52 174.56 128.40 174.40 128.18
C174.24 127.96 174.13 127.62 174.08 127.17
L173.48 127.25
C173.52 127.87 173.68 128.36 173.96 128.71
C174.24 129.06 174.58 129.23 174.98 129.23
C175.47 129.23 175.86 128.99 176.14 128.49
C176.43 127.99 176.58 127.39 176.58 126.70
C176.58 125.99 176.43 125.43 176.14 125.02
C175.86 124.60 175.52 124.39 175.12 124.39
C174.81 124.39 174.52 124.54 174.24 124.84
L174.50 122.92
L176.36 122.92
L176.36 122.09
Z
" fill="black" fill-rule="nonzero" />
<path d="
M173.12 145.81
C172.67 145.81 172.30 145.97 171.98 146.28
C171.67 146.58 171.47 147.04 171.38 147.64
L172.08 147.79
C172.13 147.37 172.25 147.05 172.44 146.84
C172.63 146.63 172.86 146.52 173.13 146.52
C173.39 146.52 173.61 146.62 173.80 146.82
C173.98 147.02 174.07 147.29 174.07 147.62
C174.07 147.98 173.96 148.26 173.74 148.48
C173.53 148.69 173.24 148.80 172.89 148.80
L172.78 148.79
L172.70 149.55
C172.90 149.48 173.07 149.45 173.20 149.45
C173.52 149.45 173.78 149.58 174.00 149.83
C174.22 150.08 174.33 150.41 174.33 150.82
C174.33 151.25 174.21 151.60 173.97 151.88
C173.74 152.15 173.46 152.29 173.13 152.29
C172.54 152.29 172.16 151.83 172.02 150.91
L171.31 151.02
C171.35 151.63 171.55 152.11 171.89 152.47
C172.23 152.82 172.65 153.00 173.14 153.00
C173.67 153.00 174.13 152.80 174.51 152.39
C174.89 151.98 175.08 151.45 175.08 150.80
C175.08 150.50 175.04 150.22 174.94 149.98
C174.85 149.73 174.73 149.53 174.58 149.39
C174.43 149.24 174.24 149.13 174.01 149.07
C174.26 148.93 174.45 148.73 174.59 148.49
C174.73 148.24 174.80 147.96 174.80 147.64
C174.80 147.11 174.64 146.68 174.31 146.33
C173.98 145.99 173.59 145.81 173.12 145.81
Z
" fill="black" fill-rule="nonzero" />
<path d="
M171.42 157.68
C170.98 157.68 170.63 157.85 170.36 158.20
C170.09 158.54 169.93 159.05 169.89 159.74
L170.48 159.83
C170.48 159.37 170.57 159.02 170.74 158.77
C170.91 158.53 171.13 158.40 171.40 158.40
C171.65 158.40 171.86 158.52 172.03 158.74
C172.19 158.97 172.28 159.27 172.28 159.63
C172.28 159.95 172.20 160.28 172.03 160.65
C171.87 161.01 171.51 161.53 170.98 162.20
C170.52 162.77 170.20 163.27 170.03 163.69
C169.86 164.11 169.78 164.49 169.78 164.83
L172.87 164.83
L172.87 163.99
L170.58 163.99
C170.64 163.83 170.72 163.67 170.82 163.51
C170.92 163.35 171.14 163.06 171.49 162.62
C172.02 161.93 172.39 161.37 172.58 160.96
C172.77 160.54 172.87 160.10 172.87 159.65
C172.87 159.14 172.74 158.68 172.50 158.28
C172.25 157.88 171.89 157.68 171.42 157.68
Z
M174.04 157.80
L173.58 161.46
L174.12 161.57
C174.21 161.35 174.33 161.18 174.48 161.06
C174.63 160.94 174.80 160.88 174.97 160.88
C175.26 160.88 175.50 161.02 175.69 161.30
C175.88 161.58 175.97 161.97 175.97 162.48
C175.97 163.02 175.87 163.45 175.68 163.76
C175.48 164.08 175.25 164.23 174.97 164.23
C174.76 164.23 174.56 164.12 174.40 163.90
C174.24 163.68 174.13 163.34 174.08 162.89
L173.48 162.96
C173.52 163.59 173.68 164.07 173.96 164.42
C174.24 164.78 174.58 164.95 174.98 164.95
C175.47 164.95 175.86 164.70 176.14 164.21
C176.43 163.71 176.58 163.11 176.58 162.42
C176.58 161.71 176.43 161.15 176.14 160.73
C175.86 160.32 175.52 160.11 175.12 160.11
C174.81 160.11 174.52 160.26 174.24 160.55
L174.50 158.64
L176.36 158.64
L176.36 157.80
Z
" fill="black" fill-rule="nonzero" />
<path d="
M175.01 170.44
C175.01 170.44 175.01 170.44 175.01 170.44
C175.01 170.44 175.01 170.44 175.01 170.44
C175.17 170.44 175.31 170.53 175.44 170.70
C175.57 170.89 175.64 171.14 175.64 171.44
C175.64 171.73 175.57 171.97 175.44 172.15
C175.32 172.31 175.18 172.40 175.02 172.40
C175.02 172.40 175.02 172.40 175.02 172.40
C175.02 172.40 175.02 172.40 175.02 172.40
C174.85 172.40 174.71 172.31 174.59 172.14
C174.46 171.96 174.40 171.71 174.40 171.39
C174.40 171.11 174.46 170.88 174.59 170.70
C174.71 170.53 174.85 170.44 175.01 170.44
Z
M175.00 173.39
C175.00 173.39 175.00 173.39 175.00 173.39
C175.01 173.39 175.01 173.39 175.01 173.39
C175.22 173.39 175.41 173.51 175.57 173.73
C175.74 173.98 175.83 174.30 175.83 174.71
C175.83 175.11 175.74 175.43 175.58 175.67
C175.42 175.89 175.24 176.00 175.02 176.00
C175.02 176.00 175.02 176.00 175.02 176.00
C175.02 176.00 175.02 176.00 175.02 176.00
C174.80 176.00 174.62 175.88 174.46 175.66
C174.29 175.41 174.21 175.09 174.21 174.68
C174.21 174.29 174.29 173.97 174.45 173.73
C174.61 173.51 174.79 173.39 175.00 173.39
Z
M171.42 169.44
C170.93 169.44 170.54 169.63 170.25 170.01
C169.96 170.38 169.80 170.92 169.75 171.64
L169.74 171.76
L169.87 171.78
L170.46 171.88
L170.63 171.90
L170.63 171.74
C170.63 171.31 170.70 170.98 170.86 170.76
C171.00 170.55 171.18 170.45 171.39 170.45
C171.39 170.45 171.40 170.45 171.40 170.45
C171.40 170.45 171.40 170.45 171.40 170.45
C171.60 170.45 171.77 170.54 171.91 170.73
C172.06 170.94 172.14 171.21 172.14 171.54
C172.14 171.83 172.06 172.15 171.90 172.50
C171.74 172.85 171.40 173.36 170.87 174.01
C170.40 174.60 170.08 175.11 169.90 175.54
C169.72 175.98 169.63 176.38 169.64 176.74
L169.65 176.88
L173.02 176.88
L173.02 176.74
L173.02 175.89
L173.02 175.75
L170.80 175.75
C170.84 175.67 170.89 175.58 170.94 175.49
C171.04 175.34 171.26 175.05 171.60 174.61
C172.14 173.91 172.51 173.35 172.71 172.92
C172.91 172.49 173.01 172.03 173.01 171.56
C173.01 171.02 172.88 170.54 172.62 170.11
C172.35 169.67 171.95 169.44 171.42 169.44
Z
M175.01 169.44
C174.58 169.44 174.22 169.63 173.93 170.01
C173.66 170.37 173.52 170.84 173.52 171.42
C173.52 171.80 173.59 172.12 173.71 172.38
C173.81 172.57 173.93 172.73 174.09 172.86
L174.09 172.86
C173.88 172.99 173.71 173.18 173.59 173.44
C173.42 173.77 173.34 174.18 173.33 174.68
C173.34 175.36 173.49 175.92 173.80 176.34
C174.13 176.78 174.53 177.00 175.02 177.00
C175.50 177.00 175.91 176.78 176.23 176.34
C176.54 175.92 176.70 175.37 176.70 174.70
C176.70 174.22 176.62 173.82 176.45 173.49
C176.33 173.22 176.15 173.02 175.94 172.86
L175.94 172.86
C176.10 172.73 176.23 172.57 176.32 172.38
C176.44 172.12 176.51 171.81 176.51 171.44
C176.51 170.87 176.37 170.39 176.09 170.02
C175.80 169.64 175.44 169.44 175.01 169.44
Z
" fill="white" fill-rule="nonzero" />
<path d="
M171.42 181.55
C170.98 181.55 170.63 181.72 170.36 182.07
C170.09 182.41 169.93 182.93 169.89 183.61
L170.48 183.70
C170.48 183.24 170.57 182.89 170.74 182.64
C170.91 182.40 171.13 182.27 171.40 182.27
C171.65 182.27 171.86 182.39 172.03 182.62
C172.19 182.84 172.28 183.14 172.28 183.50
C172.28 183.82 172.20 184.16 172.03 184.52
C171.87 184.89 171.51 185.40 170.98 186.07
C170.52 186.64 170.20 187.14 170.03 187.56
C169.86 187.98 169.78 188.36 169.78 188.70
L172.87 188.70
L172.87 187.86
L170.58 187.86
C170.64 187.70 170.72 187.54 170.82 187.38
C170.92 187.23 171.14 186.93 171.49 186.49
C172.02 185.80 172.39 185.24 172.58 184.83
C172.77 184.41 172.87 183.98 172.87 183.52
C172.87 183.01 172.74 182.55 172.50 182.15
C172.25 181.75 171.89 181.55 171.42 181.55
Z
M173.52 181.67
L173.52 182.51
L175.80 182.51
C175.51 183.02 175.24 183.63 174.99 184.35
C174.74 185.07 174.54 185.82 174.40 186.62
C174.26 187.41 174.18 188.11 174.17 188.70
L174.76 188.70
C174.82 187.55 175.01 186.38 175.35 185.21
C175.70 184.04 176.09 183.08 176.54 182.35
L176.54 181.67
Z
" fill="black" fill-rule="nonzero" />
<path d="
M171.64 193.46
C171.54 193.77 171.37 194.09 171.13 194.41
C170.88 194.74 170.61 195.02 170.29 195.24
L170.29 196.09
C170.48 195.99 170.68 195.83 170.90 195.63
C171.13 195.43 171.30 195.23 171.44 195.03
L171.44 200.61
L172.01 200.61
L172.01 193.46
Z
M173.52 193.58
L173.52 194.42
L175.80 194.42
C175.51 194.92 175.24 195.53 174.99 196.25
C174.74 196.97 174.54 197.73 174.40 198.52
C174.26 199.32 174.18 200.01 174.17 200.61
L174.76 200.61
C174.82 199.45 175.01 198.29 175.35 197.12
C175.70 195.94 176.09 194.99 176.54 194.26
L176.54 193.58
Z
" fill="black" fill-rule="nonzero" />
<path d="
M175.02 206.02
C175.26 206.02 175.46 206.17 175.65 206.46
C175.83 206.75 175.92 207.15 175.92 207.66
C175.92 208.17 175.83 208.57 175.65 208.85
C175.48 209.13 175.26 209.26 175.01 209.26
C174.75 209.26 174.53 209.13 174.35 208.85
C174.16 208.57 174.07 208.20 174.07 207.73
C174.07 207.22 174.17 206.80 174.36 206.49
C174.55 206.18 174.77 206.02 175.02 206.02
Z
M171.64 205.30
C171.54 205.61 171.37 205.93 171.13 206.26
C170.88 206.58 170.61 206.86 170.29 207.09
L170.29 207.93
C170.48 207.83 170.68 207.68 170.90 207.47
C171.13 207.27 171.30 207.07 171.44 206.88
L171.44 212.45
L172.01 212.45
L172.01 205.30
Z
M174.95 205.30
C174.54 205.30 174.20 205.51 173.91 205.94
C173.62 206.37 173.48 206.96 173.48 207.71
C173.48 208.43 173.62 209.00 173.89 209.41
C174.17 209.83 174.50 210.04 174.88 210.04
C175.09 210.04 175.30 209.95 175.50 209.78
C175.70 209.62 175.86 209.39 175.98 209.10
L175.98 209.27
C175.98 209.83 175.93 210.32 175.82 210.74
C175.71 211.15 175.57 211.45 175.42 211.61
C175.26 211.77 175.09 211.85 174.90 211.85
C174.47 211.85 174.21 211.48 174.12 210.73
L173.57 210.80
C173.61 211.38 173.76 211.82 173.99 212.12
C174.23 212.42 174.53 212.57 174.88 212.57
C175.20 212.57 175.48 212.45 175.73 212.20
C175.99 211.95 176.19 211.55 176.33 211.01
C176.48 210.47 176.55 209.71 176.55 208.74
C176.55 207.86 176.49 207.19 176.35 206.72
C176.21 206.25 176.02 205.90 175.77 205.66
C175.51 205.42 175.24 205.30 174.95 205.30
Z
" fill="black" fill-rule="nonzero" />
<path d="
M174.98 218.07
C174.98 218.07 174.98 218.07 174.98 218.07
C174.98 218.07 174.98 218.07 174.98 218.07
C175.09 218.07 175.19 218.11 175.27 218.18
C175.37 218.27 175.46 218.40 175.54 218.58
C175.71 218.95 175.80 219.71 175.80 220.84
C175.80 221.97 175.71 222.72 175.54 223.10
C175.46 223.29 175.38 223.42 175.28 223.51
C175.20 223.58 175.11 223.62 175.02 223.62
C175.02 223.62 175.02 223.62 175.02 223.62
C175.02 223.62 175.01 223.62 175.01 223.62
C174.91 223.62 174.82 223.58 174.73 223.50
C174.63 223.42 174.54 223.29 174.46 223.11
C174.29 222.74 174.21 221.98 174.21 220.84
C174.21 219.72 174.29 218.96 174.46 218.58
C174.54 218.40 174.63 218.27 174.72 218.18
C174.80 218.11 174.89 218.07 174.98 218.07
Z
M171.42 217.06
C170.93 217.06 170.54 217.26 170.25 217.64
C169.96 218.00 169.80 218.54 169.75 219.26
L169.74 219.39
L169.87 219.41
L170.46 219.50
L170.63 219.52
L170.63 219.36
C170.63 218.93 170.70 218.60 170.86 218.38
C171.00 218.17 171.18 218.07 171.39 218.07
C171.39 218.07 171.40 218.07 171.40 218.07
C171.40 218.07 171.40 218.07 171.40 218.07
C171.60 218.07 171.77 218.17 171.91 218.36
C172.06 218.56 172.14 218.83 172.14 219.16
C172.14 219.45 172.06 219.77 171.90 220.12
C171.74 220.47 171.40 220.98 170.87 221.64
C170.40 222.22 170.08 222.73 169.90 223.16
C169.72 223.60 169.63 224.00 169.64 224.36
L169.65 224.50
L173.02 224.50
L173.02 224.36
L173.02 223.52
L173.02 223.38
L170.80 223.38
C170.84 223.29 170.89 223.20 170.94 223.12
C171.04 222.96 171.26 222.67 171.60 222.23
C172.14 221.53 172.51 220.97 172.71 220.54
C172.91 220.11 173.01 219.65 173.01 219.18
C173.01 218.64 172.88 218.16 172.62 217.73
C172.35 217.29 171.95 217.07 171.42 217.06
Z
M175.01 217.06
C174.72 217.06 174.47 217.15 174.26 217.33
C174.05 217.50 173.87 217.74 173.74 218.07
C173.47 218.71 173.34 219.63 173.34 220.84
C173.34 222.20 173.49 223.16 173.78 223.73
C173.93 224.02 174.11 224.24 174.31 224.39
C174.52 224.54 174.75 224.62 175.00 224.62
C175.29 224.62 175.54 224.53 175.75 224.36
C175.96 224.19 176.14 223.94 176.27 223.61
C176.54 222.97 176.67 222.05 176.67 220.84
C176.67 219.50 176.51 218.51 176.19 217.89
C176.05 217.62 175.88 217.42 175.69 217.28
C175.49 217.14 175.26 217.06 175.01 217.06
Z
" fill="white" fill-rule="nonzero" />
<path d="
M183.54 98.15
C183.45 98.46 183.27 98.78 183.03 99.11
C182.79 99.43 182.51 99.71 182.20 99.94
L182.20 100.78
C182.38 100.68 182.59 100.52 182.81 100.32
C183.03 100.12 183.21 99.92 183.34 99.73
L183.34 105.30
L183.92 105.30
L183.92 98.15
Z
M186.86 98.15
C186.50 98.15 186.19 98.30 185.94 98.61
C185.68 98.93 185.52 99.39 185.45 99.99
L186.02 100.15
C186.06 99.72 186.16 99.40 186.31 99.19
C186.46 98.97 186.65 98.87 186.87 98.87
C187.08 98.87 187.26 98.97 187.41 99.17
C187.55 99.37 187.63 99.64 187.63 99.97
C187.63 100.34 187.54 100.63 187.36 100.84
C187.19 101.06 186.96 101.17 186.68 101.17
L186.59 101.16
L186.52 101.93
C186.68 101.86 186.82 101.83 186.93 101.83
C187.18 101.83 187.40 101.96 187.57 102.21
C187.75 102.46 187.84 102.80 187.84 103.21
C187.84 103.65 187.74 104.01 187.55 104.29
C187.36 104.56 187.13 104.70 186.87 104.70
C186.39 104.70 186.08 104.24 185.97 103.30
L185.39 103.42
C185.43 104.03 185.59 104.52 185.86 104.88
C186.14 105.24 186.48 105.43 186.88 105.43
C187.31 105.43 187.68 105.22 187.99 104.80
C188.29 104.39 188.45 103.85 188.45 103.20
C188.45 102.89 188.41 102.61 188.34 102.36
C188.26 102.11 188.16 101.91 188.04 101.76
C187.92 101.61 187.76 101.51 187.58 101.44
C187.78 101.30 187.94 101.10 188.05 100.85
C188.16 100.60 188.22 100.32 188.22 99.99
C188.22 99.46 188.09 99.02 187.82 98.67
C187.56 98.32 187.24 98.15 186.86 98.15
Z
" fill="black" fill-rule="nonzero" />
<path d="
M185.33 112.10
L185.33 114.59
L183.92 114.59
L185.33 112.10
Z
M185.53 110.03
L185.49 110.10
L182.85 114.66
L182.83 114.70
L182.83 114.73
L182.83 115.53
L182.83 115.67
L185.33 115.67
L185.33 117.21
L185.33 117.35
L186.33 117.35
L186.33 117.21
L186.33 115.67
L187.11 115.67
L187.11 115.53
L187.11 114.73
L187.11 114.59
L186.33 114.59
L186.33 110.17
L186.33 110.03
Z
" fill="white" fill-rule="nonzero" />
<path d="
M183.54 122.02
C183.45 122.33 183.27 122.65 183.03 122.98
C182.79 123.31 182.51 123.58 182.20 123.81
L182.20 124.66
C182.38 124.55 182.59 124.40 182.81 124.20
C183.03 123.99 183.21 123.80 183.34 123.60
L183.34 129.17
L183.92 129.17
L183.92 122.02
Z
M187.17 122.02
C187.08 122.33 186.91 122.65 186.66 122.98
C186.42 123.31 186.14 123.58 185.83 123.81
L185.83 124.66
C186.01 124.55 186.22 124.40 186.44 124.20
C186.66 123.99 186.84 123.80 186.97 123.60
L186.97 129.17
L187.55 129.17
L187.55 122.02
Z
" fill="black" fill-rule="nonzero" />
<path d="
M185.41 145.88
C185.29 146.18 185.08 146.50 184.78 146.82
C184.48 147.15 184.14 147.42 183.75 147.64
L183.75 148.48
C183.98 148.38 184.23 148.22 184.51 148.02
C184.78 147.82 185.00 147.63 185.16 147.44
L185.16 152.94
L185.87 152.94
L185.87 145.88
Z
" fill="black" fill-rule="nonzero" />
<path d="
M186.91 206.16
C186.92 206.16 186.92 206.16 186.92 206.16
C186.92 206.16 186.92 206.16 186.92 206.16
C187.08 206.16 187.22 206.25 187.34 206.42
C187.47 206.61 187.54 206.85 187.54 207.16
C187.54 207.45 187.48 207.69 187.35 207.87
C187.23 208.03 187.09 208.11 186.93 208.11
C186.93 208.11 186.93 208.11 186.93 208.11
C186.92 208.11 186.92 208.11 186.92 208.11
C186.76 208.11 186.61 208.03 186.50 207.86
C186.37 207.68 186.30 207.43 186.30 207.11
C186.30 206.83 186.37 206.60 186.50 206.41
C186.62 206.24 186.76 206.16 186.91 206.16
Z
M186.91 209.11
C186.91 209.11 186.91 209.11 186.91 209.11
C186.91 209.11 186.91 209.11 186.91 209.11
C187.13 209.11 187.31 209.22 187.47 209.45
C187.65 209.69 187.73 210.02 187.73 210.43
C187.73 210.83 187.65 211.15 187.48 211.38
C187.33 211.60 187.14 211.71 186.93 211.71
C186.93 211.71 186.93 211.71 186.93 211.71
C186.92 211.71 186.92 211.71 186.92 211.71
C186.71 211.71 186.53 211.60 186.37 211.37
C186.20 211.13 186.11 210.80 186.11 210.40
C186.11 210.00 186.19 209.69 186.36 209.45
C186.51 209.22 186.70 209.11 186.91 209.11
Z
M183.44 205.16
L183.41 205.26
C183.31 205.55 183.15 205.86 182.92 206.17
C182.69 206.49 182.42 206.75 182.11 206.97
L182.05 207.02
L182.05 207.09
L182.05 207.93
L182.05 208.17
L182.26 208.06
C182.46 207.95 182.67 207.79 182.90 207.58
C183.01 207.48 183.11 207.38 183.20 207.29
L183.20 207.29
L183.20 212.45
L183.20 212.59
L184.06 212.59
L184.06 212.45
L184.06 205.30
L184.06 205.16
Z
M186.91 205.16
C186.48 205.16 186.12 205.35 185.84 205.73
C185.56 206.09 185.43 206.56 185.43 207.13
C185.43 207.51 185.49 207.83 185.62 208.10
C185.71 208.29 185.84 208.44 185.99 208.57
L185.99 208.57
C185.79 208.71 185.62 208.90 185.49 209.15
C185.32 209.48 185.24 209.90 185.24 210.40
C185.24 211.08 185.40 211.63 185.71 212.06
C186.03 212.49 186.44 212.71 186.93 212.71
C187.41 212.71 187.81 212.49 188.13 212.06
C188.45 211.63 188.60 211.09 188.60 210.42
C188.60 209.94 188.52 209.53 188.36 209.20
C188.23 208.94 188.06 208.73 187.84 208.58
L187.84 208.58
C188.01 208.45 188.13 208.29 188.23 208.09
C188.35 207.84 188.41 207.53 188.41 207.16
C188.41 206.58 188.27 206.11 188.00 205.74
C187.71 205.35 187.35 205.16 186.91 205.16
Z
" fill="white" fill-rule="nonzero" />
<path d="
M183.32 217.12
C182.84 217.13 182.45 217.32 182.15 217.70
C181.87 218.07 181.70 218.61 181.66 219.32
L181.65 219.45
L181.78 219.47
L182.37 219.56
L182.53 219.58
L182.53 219.42
C182.53 218.99 182.61 218.66 182.76 218.44
C182.90 218.23 183.08 218.13 183.30 218.13
C183.30 218.13 183.30 218.13 183.30 218.13
C183.30 218.13 183.30 218.13 183.31 218.13
C183.51 218.13 183.68 218.23 183.82 218.42
C183.97 218.62 184.04 218.89 184.04 219.22
C184.04 219.51 183.96 219.83 183.81 220.18
C183.65 220.53 183.30 221.04 182.77 221.70
C182.31 222.28 181.98 222.79 181.81 223.22
C181.63 223.66 181.54 224.06 181.55 224.42
L181.55 224.56
L184.92 224.56
L184.92 224.42
L184.92 223.58
L184.92 223.44
L182.70 223.44
C182.75 223.35 182.80 223.26 182.85 223.18
C182.95 223.02 183.16 222.73 183.50 222.29
C184.05 221.59 184.42 221.03 184.61 220.60
C184.81 220.17 184.91 219.71 184.91 219.24
C184.91 218.70 184.78 218.22 184.53 217.80
C184.25 217.35 183.85 217.13 183.32 217.12
Z
M186.95 217.12
C186.47 217.13 186.08 217.32 185.78 217.70
C185.50 218.07 185.33 218.61 185.29 219.32
L185.28 219.45
L185.41 219.47
L186.00 219.56
L186.16 219.58
L186.16 219.42
C186.16 218.99 186.24 218.66 186.39 218.44
C186.53 218.23 186.71 218.13 186.93 218.13
C186.93 218.13 186.93 218.13 186.93 218.13
C186.93 218.13 186.94 218.13 186.94 218.13
C187.14 218.13 187.31 218.23 187.45 218.42
C187.60 218.62 187.67 218.89 187.67 219.22
C187.67 219.51 187.59 219.83 187.44 220.18
C187.28 220.53 186.93 221.04 186.40 221.70
C185.94 222.28 185.61 222.79 185.44 223.22
C185.26 223.66 185.17 224.06 185.18 224.42
L185.18 224.56
L188.55 224.56
L188.55 224.42
L188.55 223.58
L188.55 223.44
L186.33 223.44
C186.38 223.35 186.43 223.26 186.48 223.18
C186.58 223.02 186.80 222.73 187.13 222.29
C187.68 221.59 188.05 221.03 188.24 220.60
C188.44 220.17 188.54 219.71 188.54 219.24
C188.54 218.70 188.41 218.22 188.16 217.80
C187.88 217.35 187.48 217.13 186.95 217.12
Z
" fill="white" fill-rule="nonzero" />
<path d="
M198.99 112.20
L198.99 114.62
L197.89 114.62
L198.99 112.20
Z
M195.35 109.98
L195.31 110.07
C195.22 110.37 195.06 110.68 194.82 110.99
C194.59 111.30 194.32 111.57 194.02 111.79
L193.96 111.83
L193.96 111.90
L193.96 112.75
L193.96 112.99
L194.17 112.87
C194.37 112.77 194.58 112.61 194.81 112.40
C194.92 112.30 195.02 112.20 195.11 112.10
L195.11 112.10
L195.11 117.27
L195.11 117.41
L195.96 117.41
L195.96 117.27
L195.96 110.12
L195.96 109.98
Z
M199.15 110.00
L199.11 110.09
L196.98 114.70
L196.96 114.73
L196.96 114.76
L196.96 115.56
L196.96 115.70
L198.99 115.70
L198.99 117.27
L198.99 117.41
L199.85 117.41
L199.85 117.27
L199.85 115.70
L200.48 115.70
L200.48 115.56
L200.48 114.76
L200.48 114.62
L199.85 114.62
L199.85 110.15
L199.85 110.00
Z
" fill="white" fill-rule="nonzero" />
<path d="
M195.35 121.88
L195.31 121.98
C195.22 122.28 195.06 122.58 194.82 122.90
C194.59 123.21 194.32 123.48 194.02 123.70
L193.96 123.74
L193.96 123.81
L193.96 124.66
L193.96 124.90
L194.17 124.78
C194.37 124.67 194.58 124.51 194.81 124.30
C194.92 124.20 195.02 124.10 195.11 124.01
L195.11 124.01
L195.11 129.17
L195.11 129.32
L195.96 129.32
L195.96 129.17
L195.96 122.02
L195.96 121.88
Z
M198.86 121.88
C198.37 121.88 197.98 122.07 197.69 122.45
C197.40 122.82 197.24 123.36 197.19 124.07
L197.19 124.20
L197.31 124.22
L197.90 124.31
L198.07 124.34
L198.07 124.17
C198.07 123.74 198.14 123.42 198.30 123.20
C198.44 122.99 198.62 122.89 198.83 122.89
C198.84 122.89 198.84 122.89 198.84 122.89
C198.84 122.89 198.84 122.89 198.84 122.89
C199.04 122.89 199.21 122.98 199.35 123.17
C199.50 123.38 199.58 123.64 199.58 123.98
C199.58 124.27 199.50 124.59 199.34 124.93
C199.18 125.29 198.84 125.79 198.31 126.45
C197.84 127.04 197.52 127.54 197.34 127.98
C197.16 128.42 197.08 128.82 197.08 129.18
L197.09 129.32
L200.46 129.32
L200.46 129.17
L200.46 128.33
L200.46 128.19
L198.24 128.19
C198.28 128.11 198.33 128.02 198.39 127.93
C198.48 127.78 198.70 127.48 199.04 127.05
C199.58 126.35 199.95 125.78 200.15 125.36
C200.35 124.92 200.45 124.47 200.45 123.99
C200.45 123.46 200.32 122.98 200.06 122.55
C199.79 122.11 199.39 121.88 198.86 121.88
Z
" fill="white" fill-rule="nonzero" />
<path d="
M197.05 145.74
C196.47 145.74 196.00 145.92 195.64 146.29
C195.28 146.65 195.08 147.19 195.02 147.90
L195.01 148.04
L195.15 148.05
L195.88 148.14
L196.04 148.16
L196.04 148.00
C196.04 147.58 196.13 147.27 196.32 147.05
C196.50 146.84 196.73 146.73 197.02 146.73
C197.02 146.73 197.02 146.73 197.02 146.73
C197.02 146.73 197.02 146.73 197.02 146.73
C197.29 146.73 197.51 146.83 197.69 147.03
C197.88 147.22 197.97 147.48 197.97 147.81
C197.97 148.09 197.87 148.40 197.68 148.74
C197.48 149.09 197.06 149.59 196.40 150.24
C195.83 150.82 195.43 151.32 195.21 151.75
C194.98 152.19 194.88 152.59 194.89 152.95
L194.89 153.08
L198.99 153.08
L198.99 152.94
L198.99 152.11
L198.99 151.97
L196.25 151.97
C196.31 151.89 196.36 151.81 196.43 151.73
C196.55 151.58 196.81 151.29 197.23 150.86
C197.90 150.16 198.36 149.61 198.60 149.18
C198.85 148.75 198.98 148.30 198.98 147.83
C198.98 147.29 198.82 146.81 198.50 146.39
C198.16 145.95 197.68 145.74 197.05 145.74
Z
" fill="white" fill-rule="nonzero" />
</g>
<g  transform="translate(1.19,228.58)" >
<path d="
M105.00 2.72
C104.84 2.72 104.70 2.78 104.58 2.89
C104.47 3.01 104.41 3.15 104.41 3.31
C104.41 3.47 104.47 3.61 104.59 3.73
C104.70 3.84 104.84 3.90 105.00 3.90
C105.17 3.90 105.31 3.84 105.42 3.73
C105.53 3.61 105.59 3.47 105.59 3.31
C105.59 3.15 105.53 3.01 105.42 2.89
C105.31 2.78 105.17 2.72 105.00 2.72
Z
M109.98 7.81
L109.98 9.84
C109.49 10.23 109.11 10.42 108.81 10.42
C108.60 10.42 108.40 10.33 108.24 10.15
C108.07 9.96 107.99 9.73 107.99 9.45
C107.99 9.23 108.05 9.03 108.18 8.84
C108.32 8.66 108.54 8.48 108.84 8.31
C109.01 8.21 109.39 8.05 109.98 7.81
Z
M98.33 3.55
C99.26 3.55 100.02 3.86 100.61 4.49
C101.20 5.12 101.50 5.98 101.50 7.06
C101.50 8.15 101.20 9.00 100.61 9.63
C100.02 10.27 99.27 10.58 98.37 10.58
C98.04 10.58 97.63 10.53 97.13 10.42
L97.13 3.72
C97.58 3.60 97.98 3.55 98.33 3.55
Z
M94.88 3.11
L94.88 3.32
L95.18 3.32
C95.48 3.32 95.70 3.41 95.85 3.58
C95.96 3.70 96.02 4.01 96.02 4.50
L96.02 9.59
C96.02 10.04 95.97 10.33 95.89 10.45
C95.75 10.67 95.51 10.77 95.18 10.77
L94.88 10.77
L94.88 10.99
L98.41 10.99
C99.94 10.99 101.08 10.58 101.82 9.76
C102.49 9.02 102.82 8.10 102.82 7.01
C102.82 6.19 102.64 5.47 102.26 4.84
C101.89 4.22 101.40 3.77 100.78 3.51
C100.17 3.24 99.27 3.11 98.09 3.11
Z
M105.23 5.51
L103.63 6.16
L103.71 6.37
C103.86 6.31 104.00 6.28 104.10 6.28
C104.20 6.28 104.28 6.30 104.34 6.35
C104.40 6.40 104.44 6.49 104.47 6.61
C104.50 6.78 104.52 7.16 104.52 7.73
L104.52 9.79
C104.52 10.11 104.50 10.34 104.44 10.45
C104.39 10.57 104.32 10.65 104.23 10.70
C104.14 10.75 103.97 10.78 103.71 10.78
L103.71 10.99
L106.30 10.99
L106.30 10.78
C106.04 10.78 105.87 10.75 105.78 10.70
C105.68 10.64 105.61 10.56 105.56 10.45
C105.51 10.34 105.49 10.12 105.49 9.79
L105.49 5.51
Z
M120.56 2.94
C119.95 2.94 119.45 3.14 119.05 3.52
C118.65 3.90 118.40 4.45 118.31 5.17
L118.52 5.17
C118.67 4.73 118.90 4.40 119.20 4.17
C119.51 3.95 119.86 3.83 120.25 3.83
C120.67 3.83 121.04 3.99 121.35 4.32
C121.65 4.64 121.81 5.05 121.81 5.55
C121.81 6.20 121.53 6.93 120.97 7.72
C120.41 8.51 119.45 9.53 118.08 10.77
L118.08 10.99
L122.73 10.99
L123.28 9.47
L123.07 9.47
C122.97 9.65 122.85 9.78 122.71 9.88
C122.58 9.97 122.42 10.03 122.26 10.06
C122.09 10.10 121.79 10.11 121.37 10.11
L119.32 10.11
C119.56 9.89 120.16 9.26 121.12 8.20
C121.77 7.50 122.23 6.84 122.52 6.21
C122.71 5.81 122.80 5.41 122.80 5.01
C122.80 4.45 122.58 3.97 122.16 3.56
C121.73 3.15 121.19 2.94 120.56 2.94
Z
M129.48 2.94
C128.88 2.94 128.38 3.14 127.98 3.52
C127.58 3.90 127.33 4.45 127.23 5.17
L127.45 5.17
C127.60 4.73 127.82 4.40 128.13 4.17
C128.44 3.95 128.79 3.83 129.18 3.83
C129.60 3.83 129.97 3.99 130.27 4.32
C130.58 4.64 130.73 5.05 130.73 5.55
C130.73 6.20 130.46 6.93 129.90 7.72
C129.34 8.51 128.38 9.53 127.01 10.77
L127.01 10.99
L131.66 10.99
L132.21 9.47
L132.00 9.47
C131.89 9.65 131.78 9.78 131.64 9.88
C131.51 9.97 131.35 10.03 131.18 10.06
C131.02 10.10 130.72 10.11 130.30 10.11
L128.25 10.11
C128.49 9.89 129.09 9.26 130.05 8.20
C130.70 7.50 131.16 6.84 131.45 6.21
C131.64 5.81 131.73 5.41 131.73 5.01
C131.73 4.45 131.51 3.97 131.09 3.56
C130.66 3.15 130.12 2.94 129.48 2.94
Z
M109.16 5.51
C108.55 5.51 108.07 5.65 107.73 5.93
C107.38 6.20 107.21 6.51 107.21 6.84
C107.21 7.02 107.26 7.16 107.35 7.26
C107.44 7.36 107.56 7.41 107.70 7.41
C107.85 7.41 107.97 7.36 108.06 7.26
C108.15 7.17 108.20 7.03 108.20 6.85
L108.18 6.51
C108.18 6.34 108.26 6.19 108.41 6.06
C108.55 5.93 108.74 5.86 108.99 5.86
C109.31 5.86 109.55 5.96 109.72 6.16
C109.89 6.36 109.98 6.72 109.98 7.25
L109.98 7.46
C109.06 7.79 108.41 8.08 108.01 8.31
C107.62 8.54 107.34 8.79 107.18 9.05
C107.07 9.24 107.01 9.47 107.01 9.73
C107.01 10.14 107.13 10.47 107.37 10.72
C107.61 10.97 107.91 11.10 108.28 11.10
C108.51 11.10 108.74 11.05 108.95 10.95
C109.09 10.89 109.43 10.64 109.98 10.22
C109.98 10.54 110.04 10.76 110.15 10.90
C110.26 11.03 110.41 11.09 110.60 11.09
C111.00 11.09 111.41 10.80 111.85 10.22
L111.85 9.90
C111.61 10.13 111.46 10.27 111.38 10.32
C111.33 10.35 111.28 10.36 111.21 10.36
C111.16 10.36 111.10 10.34 111.06 10.30
C111.01 10.26 110.98 10.19 110.96 10.07
C110.94 9.96 110.93 9.65 110.93 9.14
L110.93 7.33
C110.93 6.82 110.90 6.48 110.83 6.31
C110.72 6.05 110.55 5.87 110.32 5.75
C110.02 5.59 109.63 5.51 109.16 5.51
Z
M113.36 9.86
C113.18 9.86 113.03 9.92 112.90 10.05
C112.78 10.17 112.71 10.32 112.71 10.51
C112.71 10.68 112.78 10.84 112.90 10.96
C113.03 11.09 113.18 11.15 113.36 11.15
C113.54 11.15 113.69 11.09 113.81 10.96
C113.94 10.84 114.00 10.68 114.00 10.51
C114.00 10.33 113.94 10.18 113.82 10.05
C113.69 9.92 113.54 9.86 113.36 9.86
Z
M125.26 9.86
C125.09 9.86 124.93 9.92 124.81 10.05
C124.68 10.17 124.62 10.32 124.62 10.51
C124.62 10.68 124.68 10.84 124.81 10.96
C124.93 11.09 125.09 11.15 125.26 11.15
C125.44 11.15 125.59 11.09 125.72 10.96
C125.85 10.84 125.91 10.68 125.91 10.51
C125.91 10.33 125.85 10.18 125.72 10.05
C125.60 9.92 125.45 9.86 125.26 9.86
Z
" fill="black" fill-rule="nonzero" />
</g>
</g>
</svg>
