<?xml version="1.0" encoding="utf-8" standalone="no"?>
<!DOCTYPE svg PUBLIC "-//W3C//DTD SVG 1.0//EN" "http://www.w3.org/TR/SVG/DTD/svg11.dtd" >
<svg version="1.1" baseProfile="full"  width="319.13385" height="338.46454" viewBox="0 0 229.77638 243.69449" preserveAspectRatio="xMidYMid" xmlns="http://www.w3.org/2000/svg" >

<g lengthAdjust="spacingAndGlyphs" xml:space='preserve' >
<g  transform="translate(1.19,1.19)" >
<path d="
M0.0 0.0
L0.0 227.39
L227.39 227.39
L227.39 0.0
Z
" fill="none" fill-rule="nonzero" />
<line x1="6.54" y1="6.54" x2="6.54" y2="220.84" fill="none" stroke="black" stroke-width="0.87px" stroke-linecap="square" />
<line x1="18.45" y1="6.54" x2="18.45" y2="220.84" fill="none" stroke="black" stroke-width="0.25px" stroke-linecap="butt" />
<line x1="30.35" y1="6.54" x2="30.35" y2="220.84" fill="none" stroke="black" stroke-width="0.25px" stroke-linecap="butt" />
<line x1="42.26" y1="6.54" x2="42.26" y2="220.84" fill="none" stroke="black" stroke-width="0.25px" stroke-linecap="butt" />
<line x1="54.17" y1="6.54" x2="54.17" y2="220.84" fill="none" stroke="black" stroke-width="0.25px" stroke-linecap="butt" />
<line x1="66.07" y1="6.54" x2="66.07" y2="220.84" fill="none" stroke="black" stroke-width="0.25px" stroke-linecap="butt" />
<line x1="77.98" y1="6.54" x2="77.98" y2="220.84" fill="none" stroke="black" stroke-width="0.25px" stroke-linecap="butt" />
<line x1="89.88" y1="6.54" x2="89.88" y2="220.84" fill="none" stroke="black" stroke-width="0.25px" stroke-linecap="butt" />
<line x1="101.79" y1="6.54" x2="101.79" y2="220.84" fill="none" stroke="black" stroke-width="0.25px" stroke-linecap="butt" />
<line x1="113.69" y1="6.54" x2="113.69" y2="220.84" fill="none" stroke="black" stroke-width="0.25px" stroke-linecap="butt" />
<line x1="125.60" y1="6.54" x2="125.60" y2="220.84" fill="none" stroke="black" stroke-width="0.25px" stroke-linecap="butt" />
<line x1="137.50" y1="6.54" x2="137.50" y2="220.84" fill="none" stroke="black" stroke-width="0.25px" stroke-linecap="butt" />
<line x1="149.41" y1="6.54" x2="149.41" y2="220.84" fill="none" stroke="black" stroke-width="0.25px" stroke-linecap="butt" />
<line x1="161.31" y1="6.54" x2="161.31" y2="220.84" fill="none" stroke="black" stroke-width="0.25px" stroke-linecap="butt" />
<line x1="173.22" y1="6.54" x2="173.22" y2="220.84" fill="none" stroke="black" stroke-width="0.25px" stroke-linecap="butt" />
<line x1="185.13" y1="6.54" x2="185.13" y2="220.84" fill="none" stroke="black" stroke-width="0.25px" stroke-linecap="butt" />
<line x1="197.03" y1="6.54" x2="197.03" y2="220.84" fill="none" stroke="black" stroke-width="0.25px" stroke-linecap="butt" />
<line x1="208.94" y1="6.54" x2="208.94" y2="220.84" fill="none" stroke="black" stroke-width="0.25px" stroke-linecap="butt" />
<line x1="220.84" y1="6.54" x2="220.84" y2="220.84" fill="none" stroke="black" stroke-width="0.87px" stroke-linecap="square" />
<line x1="6.54" y1="6.54" x2="220.84" y2="6.54" fill="none" stroke="black" stroke-width="0.87px" stroke-linecap="square" />
<line x1="6.54" y1="18.45" x2="220.84" y2="18.45" fill="none" stroke="black" stroke-width="0.25px" stroke-linecap="butt" />
<line x1="6.54" y1="30.35" x2="220.84" y2="30.35" fill="none" stroke="black" stroke-width="0.25px" stroke-linecap="butt" />
<line x1="6.54" y1="42.26" x2="220.84" y2="42.26" fill="none" stroke="black" stroke-width="0.25px" stroke-linecap="butt" />
<line x1="6.54" y1="54.17" x2="220.84" y2="54.17" fill="none" stroke="black" stroke-width="0.25px" stroke-linecap="butt" />
<line x1="6.54" y1="66.07" x2="220.84" y2="66.07" fill="none" stroke="black" stroke-width="0.25px" stroke-linecap="butt" />
<line x1="6.54" y1="77.98" x2="220.84" y2="77.98" fill="none" stroke="black" stroke-width="0.25px" stroke-linecap="butt" />
<line x1="6.54" y1="89.88" x2="220.84" y2="89.88" fill="none" stroke="black" stroke-width="0.25px" stroke-linecap="butt" />
<line x1="6.54" y1="101.79" x2="220.84" y2="101.79" fill="none" stroke="black" stroke-width="0.25px" stroke-linecap="butt" />
<line x1="6.54" y1="113.69" x2="220.84" y2="113.69" fill="none" stroke="black" stroke-width="0.25px" stroke-linecap="butt" />
<line x1="6.54" y1="125.60" x2="220.84" y2="125.60" fill="none" stroke="black" stroke-width="0.25px" stroke-linecap="butt" />
<line x1="6.54" y1="137.50" x2="220.84" y2="137.50" fill="none" stroke="black" stroke-width="0.25px" stroke-linecap="butt" />
<line x1="6.54" y1="149.41" x2="220.84" y2="149.41" fill="none" stroke="black" stroke-width="0.25px" stroke-linecap="butt" />
<line x1="6.54" y1="161.31" x2="220.84" y2="161.31" fill="none" stroke="black" stroke-width="0.25px" stroke-linecap="butt" />
<line x1="6.54" y1="173.22" x2="220.84" y2="173.22" fill="none" stroke="black" stroke-width="0.25px" stroke-linecap="butt" />
<line x1="6.54" y1="185.13" x2="220.84" y2="185.13" fill="none" stroke="black" stroke-width="0.25px" stroke-linecap="butt" />
<line x1="6.54" y1="197.03" x2="220.84" y2="197.03" fill="none" stroke="black" stroke-width="0.25px" stroke-linecap="butt" />
<line x1="6.54" y1="208.94" x2="220.84" y2="208.94" fill="none" stroke="black" stroke-width="0.25px" stroke-linecap="butt" />
<line x1="6.54" y1="220.84" x2="220.84" y2="220.84" fill="none" stroke="black" stroke-width="0.87px" stroke-linecap="square" />
<circle cx="42.26" cy="42.26" r="1.27" fill="black"/>
<circle cx="42.26" cy="113.69" r="1.27" fill="black"/>
<circle cx="42.26" cy="185.13" r="1.27" fill="black"/>
<circle cx="113.69" cy="42.26" r="1.27" fill="black"/>
<circle cx="113.69" cy="113.69" r="1.27" fill="black"/>
<circle cx="113.69" cy="185.13" r="1.27" fill="black"/>
<circle cx="149.41" cy="18.45" r="5.98" fill="black"/>
<circle cx="149.41" cy="30.35" r="5.98" fill="black"/>
<circle cx="149.41" cy="42.26" r="5.98" fill="black"/>
<circle cx="161.31" cy="18.45" r="5.85" fill="white"/>
<circle cx="161.31" cy="18.45" r="5.85" fill="none" stroke="black" stroke-width="0.25px"/>
<circle cx="161.31" cy="30.35" r="5.85" fill="white"/>
<circle cx="161.31" cy="30.35" r="5.85" fill="none" stroke="black" stroke-width="0.25px"/>
<circle cx="161.31" cy="42.26" r="5.98" fill="black"/>
<circle cx="161.31" cy="54.17" r="5.85" fill="white"/>
<circle cx="161.31" cy="54.17" r="5.85" fill="none" stroke="black" stroke-width="0.25px"/>
<circle cx="173.22" cy="30.35" r="5.98" fill="black"/>
<circle cx="173.22" cy="42.26" r="5.85" fill="white"/>
<circle cx="173.22" cy="42.26" r="5.85" fill="none" stroke="black" stroke-width="0.25px"/>
<circle cx="185.13" cy="18.45" r="5.98" fill="black"/>
<circle cx="185.13" cy="30.35" r="5.98" fill="black"/>
<circle cx="185.13" cy="42.26" r="5.85" fill="white"/>
<circle cx="185.13" cy="42.26" r="5.85" fill="none" stroke="black" stroke-width="0.25px"/>
<circle cx="185.13" cy="113.69" r="1.27" fill="black"/>
<circle cx="185.13" cy="185.13" r="1.27" fill="black"/>
<circle cx="197.03" cy="18.45" r="5.98" fill="black"/>
<circle cx="197.03" cy="30.35" r="5.85" fill="white"/>
<circle cx="197.03" cy="30.35" r="5.85" fill="none" stroke="black" stroke-width="0.25px"/>
<circle cx="197.03" cy="42.26" r="5.98" fill="black"/>
<circle cx="197.03" cy="54.17" r="5.85" fill="white"/>
<circle cx="197.03" cy="54.17" r="5.85" fill="none" stroke="black" stroke-width="0.25px"/>
<circle cx="208.94" cy="30.35" r="5.85" fill="white"/>
<circle cx="208.94" cy="30.35" r="5.85" fill="none" stroke="black" stroke-width="0.25px"/>
<path d="
M147.72 14.73
L147.69 14.83
C147.60 15.13 147.44 15.43 147.20 15.75
C146.97 16.06 146.70 16.33 146.40 16.55
L146.34 16.59
L146.34 16.66
L146.34 17.51
L146.34 17.75
L146.55 17.63
C146.74 17.52 146.96 17.36 147.19 17.15
C147.30 17.05 147.40 16.95 147.48 16.86
L147.48 16.86
L147.48 22.02
L147.48 22.17
L148.34 22.17
L148.34 22.02
L148.34 14.87
L148.34 14.73
Z
M151.24 14.73
C150.75 14.73 150.36 14.92 150.06 15.30
C149.78 15.67 149.61 16.21 149.57 16.92
L149.56 17.05
L149.69 17.07
L150.28 17.17
L150.44 17.19
L150.44 17.03
C150.44 16.59 150.52 16.27 150.68 16.05
C150.82 15.84 151.00 15.74 151.21 15.74
C151.21 15.74 151.22 15.74 151.22 15.74
C151.22 15.74 151.22 15.74 151.22 15.74
C151.42 15.74 151.59 15.83 151.73 16.02
C151.88 16.23 151.96 16.49 151.96 16.83
C151.96 17.12 151.88 17.44 151.72 17.79
C151.56 18.14 151.22 18.64 150.69 19.30
C150.22 19.89 149.90 20.40 149.72 20.83
C149.54 21.27 149.45 21.67 149.46 22.03
L149.46 22.17
L152.84 22.17
L152.84 22.02
L152.84 21.18
L152.84 21.04
L150.62 21.04
C150.66 20.96 150.71 20.87 150.76 20.78
C150.86 20.63 151.08 20.33 151.42 19.90
C151.96 19.20 152.33 18.64 152.53 18.21
C152.73 17.77 152.83 17.32 152.83 16.85
C152.83 16.31 152.70 15.83 152.44 15.40
C152.17 14.96 151.76 14.73 151.24 14.73
Z
" fill="white" fill-rule="nonzero" />
<path d="
M151.37 40.77
L151.37 43.19
L150.27 43.19
L151.37 40.77
Z
M147.72 38.54
L147.69 38.64
C147.60 38.94 147.44 39.24 147.20 39.56
C146.97 39.87 146.70 40.14 146.40 40.36
L146.34 40.40
L146.34 40.47
L146.34 41.32
L146.34 41.56
L146.55 41.44
C146.74 41.33 146.96 41.17 147.19 40.96
C147.30 40.86 147.40 40.77 147.48 40.67
L147.48 40.67
L147.48 45.84
L147.48 45.98
L148.34 45.98
L148.34 45.84
L148.34 38.68
L148.34 38.54
Z
M151.53 38.57
L151.49 38.65
L149.35 43.27
L149.34 43.30
L149.34 43.33
L149.34 44.13
L149.34 44.27
L151.37 44.27
L151.37 45.84
L151.37 45.98
L152.22 45.98
L152.22 45.84
L152.22 44.27
L152.86 44.27
L152.86 44.13
L152.86 43.33
L152.86 43.19
L152.22 43.19
L152.22 38.71
L152.22 38.57
Z
" fill="white" fill-rule="nonzero" />
<path d="
M159.44 14.98
L159.44 15.81
L162.27 15.81
C161.91 16.31 161.57 16.91 161.26 17.62
C160.95 18.33 160.71 19.08 160.53 19.86
C160.35 20.65 160.26 21.33 160.25 21.92
L160.98 21.92
C161.04 20.78 161.29 19.63 161.71 18.47
C162.13 17.31 162.62 16.37 163.18 15.65
L163.18 14.98
Z
" fill="black" fill-rule="nonzero" />
<path d="
M160.08 26.82
L159.52 30.44
L160.19 30.54
C160.30 30.33 160.44 30.16 160.63 30.04
C160.82 29.92 161.02 29.86 161.23 29.86
C161.59 29.86 161.88 30.00 162.12 30.28
C162.35 30.55 162.47 30.94 162.47 31.45
C162.47 31.98 162.35 32.40 162.11 32.71
C161.86 33.02 161.57 33.17 161.24 33.17
C160.97 33.17 160.73 33.06 160.53 32.85
C160.33 32.63 160.20 32.29 160.14 31.84
L159.40 31.92
C159.44 32.54 159.64 33.02 159.98 33.36
C160.33 33.71 160.75 33.88 161.25 33.88
C161.85 33.88 162.33 33.64 162.69 33.15
C163.04 32.66 163.22 32.07 163.22 31.38
C163.22 30.68 163.04 30.13 162.69 29.72
C162.33 29.30 161.91 29.10 161.43 29.10
C161.04 29.10 160.68 29.25 160.34 29.54
L160.65 27.65
L162.95 27.65
L162.95 26.82
Z
" fill="black" fill-rule="nonzero" />
<path d="
M161.33 42.07
C161.59 42.07 161.82 42.19 162.01 42.43
C162.21 42.68 162.31 43.04 162.31 43.51
C162.31 43.98 162.21 44.35 162.01 44.62
C161.82 44.87 161.61 45.00 161.38 45.00
C161.37 45.00 161.37 45.00 161.37 45.00
C161.37 45.00 161.37 45.00 161.37 45.00
C161.10 45.00 160.86 44.86 160.65 44.59
C160.43 44.31 160.32 43.93 160.32 43.45
C160.32 43.02 160.42 42.68 160.63 42.43
C160.83 42.19 161.06 42.07 161.32 42.07
C161.32 42.07 161.32 42.07 161.32 42.07
C161.33 42.07 161.33 42.07 161.33 42.07
Z
M161.43 38.53
C160.78 38.53 160.24 38.84 159.82 39.45
C159.42 40.06 159.22 41.05 159.22 42.44
C159.22 43.70 159.42 44.60 159.81 45.15
C160.22 45.71 160.74 45.99 161.37 45.99
C161.72 45.99 162.04 45.89 162.34 45.70
C162.63 45.50 162.86 45.20 163.05 44.79
C163.22 44.39 163.31 43.94 163.31 43.45
C163.31 42.72 163.13 42.14 162.77 41.70
C162.40 41.25 161.97 41.03 161.46 41.03
C161.16 41.03 160.87 41.11 160.60 41.29
C160.46 41.38 160.34 41.49 160.22 41.62
L160.22 41.62
C160.26 41.02 160.36 40.54 160.52 40.21
C160.64 39.97 160.77 39.80 160.92 39.68
C161.06 39.57 161.21 39.52 161.39 39.52
C161.39 39.52 161.39 39.52 161.39 39.52
C161.39 39.52 161.39 39.52 161.39 39.52
C161.61 39.52 161.80 39.61 161.96 39.80
C162.08 39.94 162.16 40.18 162.23 40.51
L162.25 40.64
L162.38 40.63
L163.09 40.56
L163.23 40.55
L163.21 40.40
C163.14 39.80 162.95 39.34 162.63 39.02
C162.31 38.69 161.91 38.53 161.43 38.53
Z
" fill="white" fill-rule="nonzero" />
<path d="
M159.73 50.53
C159.63 50.84 159.46 51.16 159.22 51.48
C158.98 51.81 158.70 52.09 158.38 52.31
L158.38 53.16
C158.57 53.06 158.78 52.90 159.00 52.70
C159.22 52.50 159.40 52.30 159.53 52.11
L159.53 57.68
L160.11 57.68
L160.11 50.53
Z
M163.05 50.53
C162.69 50.53 162.38 50.68 162.13 50.99
C161.87 51.30 161.71 51.76 161.64 52.37
L162.21 52.53
C162.25 52.10 162.35 51.78 162.50 51.56
C162.65 51.35 162.84 51.25 163.06 51.25
C163.27 51.25 163.45 51.35 163.60 51.55
C163.74 51.75 163.82 52.02 163.82 52.35
C163.82 52.72 163.73 53.01 163.55 53.22
C163.38 53.44 163.15 53.55 162.87 53.55
L162.78 53.54
L162.71 54.31
C162.87 54.24 163.01 54.21 163.11 54.21
C163.37 54.21 163.59 54.34 163.76 54.59
C163.94 54.84 164.03 55.17 164.03 55.59
C164.03 56.03 163.93 56.39 163.74 56.66
C163.55 56.94 163.32 57.08 163.06 57.08
C162.58 57.08 162.27 56.61 162.15 55.68
L161.58 55.80
C161.62 56.41 161.78 56.90 162.05 57.26
C162.33 57.62 162.67 57.80 163.07 57.80
C163.50 57.80 163.87 57.60 164.18 57.18
C164.48 56.76 164.64 56.23 164.64 55.57
C164.64 55.27 164.60 54.99 164.53 54.74
C164.45 54.49 164.35 54.29 164.23 54.14
C164.11 53.99 163.95 53.88 163.77 53.82
C163.97 53.68 164.13 53.48 164.24 53.23
C164.35 52.98 164.41 52.70 164.41 52.37
C164.41 51.84 164.28 51.40 164.01 51.05
C163.75 50.70 163.43 50.53 163.05 50.53
Z
" fill="black" fill-rule="nonzero" />
<path d="
M173.43 28.76
L173.43 31.25
L172.01 31.25
L173.43 28.76
Z
M173.62 26.69
L173.58 26.76
L170.95 31.32
L170.93 31.36
L170.93 31.40
L170.93 32.19
L170.93 32.33
L173.43 32.33
L173.43 33.87
L173.43 34.01
L174.42 34.01
L174.42 33.87
L174.42 32.33
L175.21 32.33
L175.21 32.19
L175.21 31.40
L175.21 31.25
L174.42 31.25
L174.42 26.84
L174.42 26.69
Z
" fill="white" fill-rule="nonzero" />
<path d="
M186.88 15.68
C186.89 15.68 186.89 15.68 186.89 15.68
C186.89 15.68 186.89 15.68 186.89 15.68
C186.99 15.68 187.09 15.72 187.18 15.79
C187.28 15.88 187.37 16.01 187.45 16.18
C187.62 16.56 187.70 17.31 187.70 18.45
C187.70 19.58 187.62 20.33 187.45 20.71
C187.37 20.89 187.28 21.03 187.19 21.11
C187.10 21.19 187.02 21.22 186.92 21.22
C186.92 21.22 186.92 21.22 186.92 21.22
C186.92 21.22 186.92 21.22 186.92 21.22
C186.82 21.22 186.72 21.19 186.64 21.11
C186.54 21.03 186.45 20.90 186.37 20.72
C186.20 20.34 186.11 19.59 186.11 18.45
C186.11 17.32 186.20 16.57 186.37 16.19
C186.44 16.01 186.53 15.88 186.63 15.79
C186.71 15.72 186.79 15.68 186.88 15.68
Z
M183.44 14.67
L183.41 14.77
C183.32 15.07 183.15 15.37 182.92 15.68
C182.69 16.00 182.42 16.27 182.11 16.48
L182.05 16.53
L182.05 16.60
L182.05 17.45
L182.05 17.69
L182.26 17.57
C182.46 17.46 182.67 17.30 182.90 17.09
C183.01 16.99 183.11 16.89 183.20 16.80
L183.20 16.80
L183.20 21.96
L183.20 22.11
L184.06 22.11
L184.06 21.96
L184.06 14.81
L184.06 14.67
Z
M186.91 14.67
C186.63 14.67 186.38 14.76 186.16 14.93
C185.95 15.10 185.78 15.35 185.64 15.68
C185.38 16.31 185.24 17.24 185.24 18.45
C185.24 19.81 185.39 20.77 185.69 21.33
C185.84 21.63 186.01 21.85 186.21 21.99
C186.42 22.15 186.65 22.23 186.91 22.23
C187.19 22.23 187.44 22.14 187.66 21.96
C187.87 21.79 188.04 21.54 188.18 21.21
C188.44 20.58 188.58 19.66 188.58 18.45
C188.58 17.10 188.41 16.12 188.09 15.50
C187.95 15.23 187.79 15.02 187.59 14.88
C187.39 14.74 187.17 14.67 186.91 14.67
Z
" fill="white" fill-rule="nonzero" />
<path d="
M185.14 26.68
C184.56 26.68 184.09 26.86 183.73 27.23
C183.38 27.60 183.17 28.14 183.12 28.85
L183.11 28.98
L183.24 29.00
L183.97 29.09
L184.13 29.11
L184.13 28.95
C184.13 28.53 184.22 28.21 184.41 27.99
C184.59 27.78 184.83 27.68 185.11 27.68
C185.11 27.68 185.12 27.68 185.12 27.68
C185.12 27.68 185.12 27.68 185.12 27.68
C185.38 27.68 185.61 27.78 185.79 27.97
C185.97 28.17 186.06 28.43 186.06 28.75
C186.06 29.04 185.97 29.35 185.78 29.69
C185.58 30.04 185.15 30.53 184.50 31.18
C183.92 31.76 183.52 32.27 183.30 32.69
C183.08 33.13 182.97 33.53 182.98 33.89
L182.99 34.03
L187.08 34.03
L187.08 33.89
L187.08 33.06
L187.08 32.91
L184.35 32.91
C184.40 32.83 184.46 32.75 184.52 32.67
C184.64 32.52 184.91 32.23 185.33 31.80
C186.00 31.11 186.46 30.55 186.70 30.13
C186.95 29.70 187.07 29.24 187.07 28.77
C187.07 28.23 186.91 27.75 186.59 27.33
C186.26 26.90 185.78 26.68 185.14 26.68
Z
" fill="white" fill-rule="nonzero" />
<path d="
M185.03 38.66
C184.58 38.66 184.20 38.82 183.89 39.13
C183.57 39.43 183.37 39.89 183.28 40.49
L183.99 40.64
C184.04 40.22 184.16 39.90 184.35 39.69
C184.53 39.48 184.76 39.37 185.03 39.37
C185.30 39.37 185.52 39.47 185.70 39.67
C185.88 39.87 185.98 40.14 185.98 40.47
C185.98 40.83 185.87 41.11 185.65 41.33
C185.43 41.54 185.15 41.65 184.80 41.65
L184.69 41.64
L184.61 42.40
C184.81 42.33 184.97 42.30 185.11 42.30
C185.42 42.30 185.69 42.43 185.91 42.68
C186.13 42.93 186.23 43.26 186.23 43.67
C186.23 44.10 186.12 44.46 185.88 44.73
C185.64 45.00 185.36 45.14 185.04 45.14
C184.44 45.14 184.07 44.68 183.92 43.76
L183.21 43.87
C183.26 44.48 183.45 44.96 183.80 45.32
C184.14 45.68 184.56 45.85 185.05 45.85
C185.58 45.85 186.04 45.65 186.42 45.24
C186.80 44.83 186.99 44.30 186.99 43.65
C186.99 43.35 186.94 43.07 186.85 42.83
C186.76 42.58 186.63 42.38 186.48 42.24
C186.33 42.09 186.14 41.98 185.91 41.92
C186.16 41.78 186.36 41.58 186.50 41.34
C186.64 41.09 186.71 40.81 186.71 40.49
C186.71 39.96 186.54 39.53 186.22 39.18
C185.89 38.84 185.49 38.66 185.03 38.66
Z
" fill="black" fill-rule="nonzero" />
<path d="
M197.00 15.71
C197.00 15.71 197.00 15.71 197.00 15.71
C197.00 15.71 197.00 15.71 197.01 15.71
C197.22 15.71 197.40 15.80 197.56 15.98
C197.73 16.16 197.81 16.40 197.81 16.69
C197.81 16.97 197.73 17.20 197.57 17.38
C197.42 17.55 197.23 17.63 197.02 17.63
C197.01 17.63 197.01 17.63 197.01 17.63
C197.01 17.63 197.01 17.63 197.01 17.63
C196.79 17.63 196.60 17.55 196.45 17.37
C196.29 17.19 196.21 16.95 196.21 16.64
C196.21 16.37 196.29 16.15 196.45 15.97
C196.60 15.79 196.79 15.71 197.00 15.71
Z
M196.99 18.62
C196.99 18.62 196.99 18.62 196.99 18.62
C196.99 18.62 196.99 18.62 197.00 18.62
C197.28 18.62 197.52 18.74 197.73 18.97
C197.94 19.21 198.04 19.52 198.04 19.92
C198.04 20.31 197.94 20.62 197.74 20.85
C197.54 21.08 197.30 21.19 197.02 21.19
C197.01 21.19 197.01 21.19 197.01 21.19
C197.01 21.19 197.01 21.19 197.01 21.19
C196.73 21.19 196.49 21.07 196.29 20.84
C196.08 20.60 195.97 20.29 195.97 19.89
C195.97 19.51 196.07 19.20 196.28 18.97
C196.47 18.74 196.71 18.62 196.99 18.62
Z
M197.00 14.71
C196.48 14.71 196.05 14.90 195.71 15.26
C195.37 15.63 195.20 16.09 195.20 16.67
C195.20 17.05 195.28 17.37 195.43 17.63
C195.55 17.81 195.69 17.96 195.88 18.09
L195.88 18.09
C195.63 18.22 195.43 18.41 195.28 18.65
C195.07 18.98 194.97 19.39 194.96 19.89
C194.97 20.57 195.16 21.12 195.55 21.54
C195.94 21.97 196.43 22.18 197.01 22.18
C197.59 22.18 198.08 21.97 198.47 21.54
C198.86 21.12 199.05 20.58 199.05 19.91
C199.05 19.43 198.95 19.03 198.75 18.70
C198.59 18.44 198.39 18.24 198.13 18.10
L198.13 18.10
C198.32 17.97 198.47 17.81 198.58 17.63
C198.74 17.37 198.81 17.06 198.81 16.69
C198.81 16.12 198.64 15.64 198.30 15.27
C197.95 14.90 197.52 14.71 197.00 14.71
Z
" fill="white" fill-rule="nonzero" />
<path d="
M197.32 26.82
C197.20 27.13 196.99 27.44 196.69 27.77
C196.39 28.09 196.04 28.36 195.65 28.59
L195.65 29.42
C195.88 29.32 196.14 29.17 196.41 28.97
C196.69 28.77 196.91 28.57 197.07 28.38
L197.07 33.89
L197.78 33.89
L197.78 26.82
Z
" fill="black" fill-rule="nonzero" />
<path d="
M195.45 50.59
C195.35 50.90 195.18 51.22 194.94 51.55
C194.70 51.87 194.42 52.15 194.10 52.38
L194.10 53.22
C194.29 53.12 194.49 52.97 194.71 52.76
C194.94 52.56 195.12 52.36 195.25 52.17
L195.25 57.74
L195.82 57.74
L195.82 50.59
Z
M199.08 50.59
C198.98 50.90 198.81 51.22 198.57 51.55
C198.33 51.87 198.05 52.15 197.73 52.38
L197.73 53.22
C197.92 53.12 198.12 52.97 198.34 52.76
C198.57 52.56 198.75 52.36 198.88 52.17
L198.88 57.74
L199.45 57.74
L199.45 50.59
Z
" fill="black" fill-rule="nonzero" />
<path d="
M208.92 27.48
C209.21 27.48 209.47 27.62 209.69 27.91
C209.91 28.20 210.03 28.59 210.03 29.09
C210.03 29.60 209.92 29.99 209.70 30.27
C209.48 30.54 209.22 30.68 208.90 30.68
C208.59 30.68 208.31 30.54 208.09 30.27
C207.86 29.99 207.75 29.63 207.75 29.17
C207.75 28.65 207.87 28.24 208.10 27.94
C208.34 27.63 208.61 27.48 208.92 27.48
Z
M208.84 26.76
C208.33 26.76 207.90 26.97 207.55 27.40
C207.19 27.82 207.02 28.40 207.02 29.14
C207.02 29.85 207.19 30.41 207.53 30.82
C207.87 31.24 208.27 31.44 208.75 31.44
C209.00 31.44 209.26 31.36 209.51 31.19
C209.76 31.03 209.96 30.80 210.10 30.51
L210.10 30.69
C210.10 31.24 210.04 31.72 209.90 32.13
C209.77 32.55 209.60 32.83 209.41 32.99
C209.22 33.16 209.00 33.24 208.76 33.24
C208.23 33.24 207.91 32.87 207.80 32.12
L207.12 32.20
C207.18 32.77 207.36 33.20 207.65 33.50
C207.95 33.80 208.31 33.95 208.75 33.95
C209.14 33.95 209.49 33.82 209.80 33.58
C210.11 33.33 210.36 32.94 210.54 32.41
C210.72 31.87 210.81 31.12 210.81 30.15
C210.81 29.29 210.73 28.62 210.56 28.16
C210.39 27.70 210.15 27.35 209.84 27.12
C209.53 26.88 209.19 26.76 208.84 26.76
Z
" fill="black" fill-rule="nonzero" />
</g>
<g  transform="translate(1.19,228.58)" >
<path d="
M105.01 2.94
C104.84 2.94 104.70 3.00 104.58 3.11
C104.47 3.23 104.41 3.37 104.41 3.53
C104.41 3.69 104.47 3.83 104.59 3.95
C104.70 4.07 104.84 4.12 105.01 4.12
C105.17 4.12 105.31 4.07 105.42 3.95
C105.54 3.83 105.59 3.69 105.59 3.53
C105.59 3.37 105.54 3.23 105.42 3.11
C105.31 3.00 105.17 2.94 105.01 2.94
Z
M109.98 8.04
L109.98 10.07
C109.50 10.46 109.11 10.65 108.81 10.65
C108.60 10.65 108.40 10.56 108.24 10.37
C108.07 10.19 107.99 9.96 107.99 9.68
C107.99 9.46 108.05 9.25 108.19 9.07
C108.32 8.88 108.54 8.70 108.84 8.53
C109.01 8.44 109.39 8.27 109.98 8.04
Z
M98.33 3.77
C99.26 3.77 100.02 4.08 100.61 4.71
C101.21 5.34 101.50 6.20 101.50 7.29
C101.50 8.37 101.21 9.23 100.61 9.86
C100.02 10.49 99.27 10.81 98.37 10.81
C98.04 10.81 97.63 10.75 97.13 10.64
L97.13 3.94
C97.58 3.83 97.98 3.77 98.33 3.77
Z
M94.88 3.33
L94.88 3.54
L95.18 3.54
C95.48 3.54 95.70 3.63 95.86 3.80
C95.96 3.92 96.02 4.23 96.02 4.72
L96.02 9.82
C96.02 10.26 95.98 10.55 95.89 10.68
C95.75 10.89 95.51 11.00 95.18 11.00
L94.88 11.00
L94.88 11.21
L98.41 11.21
C99.94 11.21 101.08 10.80 101.83 9.98
C102.49 9.24 102.83 8.33 102.83 7.23
C102.83 6.41 102.64 5.69 102.27 5.07
C101.89 4.44 101.40 4.00 100.78 3.73
C100.17 3.46 99.27 3.33 98.09 3.33
Z
M105.23 5.73
L103.63 6.38
L103.71 6.59
C103.86 6.53 104.00 6.50 104.10 6.50
C104.21 6.50 104.28 6.53 104.34 6.58
C104.40 6.62 104.44 6.71 104.47 6.83
C104.51 7.00 104.52 7.38 104.52 7.96
L104.52 10.01
C104.52 10.34 104.50 10.56 104.44 10.68
C104.39 10.79 104.32 10.88 104.23 10.93
C104.14 10.98 103.97 11.00 103.71 11.00
L103.71 11.21
L106.30 11.21
L106.30 11.00
C106.04 11.00 105.87 10.98 105.78 10.92
C105.68 10.87 105.61 10.79 105.56 10.68
C105.51 10.56 105.49 10.34 105.49 10.01
L105.49 5.73
Z
M109.16 5.73
C108.55 5.73 108.07 5.87 107.73 6.15
C107.38 6.43 107.21 6.73 107.21 7.07
C107.21 7.24 107.26 7.38 107.35 7.48
C107.44 7.58 107.56 7.63 107.70 7.63
C107.85 7.63 107.97 7.58 108.06 7.49
C108.15 7.39 108.20 7.25 108.20 7.07
L108.19 6.74
C108.19 6.56 108.26 6.41 108.41 6.28
C108.55 6.15 108.74 6.08 108.99 6.08
C109.31 6.08 109.55 6.18 109.72 6.38
C109.89 6.58 109.98 6.94 109.98 7.47
L109.98 7.68
C109.06 8.02 108.41 8.30 108.01 8.53
C107.62 8.76 107.34 9.01 107.19 9.28
C107.07 9.47 107.01 9.69 107.01 9.95
C107.01 10.36 107.13 10.69 107.37 10.95
C107.61 11.20 107.91 11.32 108.28 11.32
C108.51 11.32 108.74 11.27 108.95 11.18
C109.09 11.11 109.43 10.87 109.98 10.45
C109.98 10.76 110.04 10.99 110.15 11.12
C110.26 11.25 110.41 11.32 110.60 11.32
C111.00 11.32 111.41 11.03 111.85 10.45
L111.85 10.12
C111.62 10.35 111.46 10.49 111.38 10.54
C111.33 10.57 111.28 10.58 111.22 10.58
C111.16 10.58 111.11 10.57 111.06 10.53
C111.02 10.49 110.98 10.41 110.97 10.30
C110.95 10.18 110.94 9.87 110.94 9.36
L110.94 7.55
C110.94 7.04 110.90 6.70 110.83 6.53
C110.72 6.28 110.55 6.09 110.33 5.97
C110.02 5.81 109.64 5.73 109.16 5.73
Z
M120.56 3.16
C120.05 3.16 119.62 3.31 119.28 3.60
C118.94 3.89 118.65 4.30 118.43 4.83
L118.62 4.92
C119.02 4.28 119.52 3.96 120.13 3.96
C120.50 3.96 120.81 4.08 121.06 4.32
C121.31 4.57 121.43 4.89 121.43 5.29
C121.43 5.60 121.36 5.88 121.22 6.14
C121.09 6.39 120.86 6.61 120.55 6.79
C120.24 6.98 119.94 7.09 119.63 7.12
L119.63 7.30
L119.82 7.30
C120.12 7.30 120.42 7.36 120.71 7.49
C121.00 7.61 121.23 7.75 121.39 7.91
C121.51 8.02 121.62 8.19 121.73 8.40
C121.86 8.69 121.93 8.99 121.93 9.30
C121.93 9.72 121.78 10.08 121.49 10.39
C121.20 10.69 120.85 10.85 120.46 10.85
C120.29 10.85 120.14 10.83 120.00 10.78
C119.91 10.76 119.75 10.69 119.52 10.56
C119.28 10.44 119.13 10.37 119.07 10.35
C118.97 10.32 118.87 10.31 118.77 10.31
C118.64 10.31 118.53 10.35 118.44 10.43
C118.35 10.52 118.31 10.62 118.31 10.73
C118.31 10.88 118.40 11.02 118.59 11.15
C118.79 11.29 119.15 11.35 119.68 11.35
C120.75 11.35 121.57 11.03 122.14 10.38
C122.57 9.88 122.79 9.28 122.79 8.60
C122.79 8.12 122.67 7.71 122.42 7.36
C122.17 7.00 121.80 6.73 121.32 6.54
C122.04 5.93 122.40 5.34 122.40 4.76
C122.40 4.41 122.27 4.09 122.02 3.78
C121.68 3.37 121.19 3.16 120.56 3.16
Z
M129.49 3.16
C128.98 3.16 128.55 3.31 128.21 3.60
C127.87 3.89 127.58 4.30 127.36 4.83
L127.55 4.92
C127.95 4.28 128.45 3.96 129.05 3.96
C129.43 3.96 129.74 4.08 129.99 4.32
C130.24 4.57 130.36 4.89 130.36 5.29
C130.36 5.60 130.29 5.88 130.15 6.14
C130.01 6.39 129.79 6.61 129.48 6.79
C129.17 6.98 128.87 7.09 128.56 7.12
L128.56 7.30
L128.75 7.30
C129.05 7.30 129.35 7.36 129.64 7.49
C129.93 7.61 130.16 7.75 130.32 7.91
C130.44 8.02 130.55 8.19 130.65 8.40
C130.79 8.69 130.86 8.99 130.86 9.30
C130.86 9.72 130.71 10.08 130.42 10.39
C130.13 10.69 129.78 10.85 129.39 10.85
C129.22 10.85 129.07 10.83 128.93 10.78
C128.84 10.76 128.68 10.69 128.44 10.56
C128.21 10.44 128.06 10.37 128.00 10.35
C127.90 10.32 127.80 10.31 127.70 10.31
C127.57 10.31 127.46 10.35 127.37 10.43
C127.28 10.52 127.23 10.62 127.23 10.73
C127.23 10.88 127.33 11.02 127.52 11.15
C127.71 11.29 128.08 11.35 128.61 11.35
C129.68 11.35 130.50 11.03 131.07 10.38
C131.50 9.88 131.72 9.28 131.72 8.60
C131.72 8.12 131.59 7.71 131.35 7.36
C131.10 7.00 130.73 6.73 130.25 6.54
C130.97 5.93 131.33 5.34 131.33 4.76
C131.33 4.41 131.20 4.09 130.94 3.78
C130.61 3.37 130.12 3.16 129.49 3.16
Z
M113.36 10.08
C113.18 10.08 113.03 10.15 112.90 10.27
C112.78 10.39 112.71 10.55 112.71 10.73
C112.71 10.91 112.78 11.06 112.90 11.19
C113.03 11.31 113.18 11.38 113.36 11.38
C113.54 11.38 113.69 11.31 113.82 11.19
C113.94 11.06 114.00 10.91 114.00 10.73
C114.00 10.55 113.94 10.40 113.82 10.27
C113.69 10.15 113.54 10.08 113.36 10.08
Z
M125.26 10.08
C125.09 10.08 124.93 10.15 124.81 10.27
C124.68 10.39 124.62 10.55 124.62 10.73
C124.62 10.91 124.68 11.06 124.81 11.19
C124.93 11.31 125.09 11.38 125.26 11.38
C125.44 11.38 125.59 11.31 125.72 11.19
C125.85 11.06 125.91 10.91 125.91 10.73
C125.91 10.55 125.85 10.40 125.72 10.27
C125.60 10.15 125.45 10.08 125.26 10.08
Z
" fill="black" fill-rule="nonzero" />
</g>
</g>
</svg>
