<?xml version="1.0" encoding="utf-8" standalone="no"?>
<!DOCTYPE svg PUBLIC "-//W3C//DTD SVG 1.0//EN" "http://www.w3.org/TR/SVG/DTD/svg11.dtd" >
<svg version="1.1" baseProfile="full"  width="319.13385" height="338.46454" viewBox="0 0 229.77638 243.69449" preserveAspectRatio="xMidYMid" xmlns="http://www.w3.org/2000/svg" >

<g lengthAdjust="spacingAndGlyphs" xml:space='preserve' >
<g  transform="translate(1.19,1.19)" >
<path d="
M0.0 0.0
L0.0 227.39
L227.39 227.39
L227.39 0.0
Z
" fill="none" fill-rule="nonzero" />
<line x1="6.54" y1="6.54" x2="6.54" y2="220.84" fill="none" stroke="black" stroke-width="0.87px" stroke-linecap="square" />
<line x1="18.45" y1="6.54" x2="18.45" y2="220.84" fill="none" stroke="black" stroke-width="0.25px" stroke-linecap="butt" />
<line x1="30.35" y1="6.54" x2="30.35" y2="220.84" fill="none" stroke="black" stroke-width="0.25px" stroke-linecap="butt" />
<line x1="42.26" y1="6.54" x2="42.26" y2="220.84" fill="none" stroke="black" stroke-width="0.25px" stroke-linecap="butt" />
<line x1="54.17" y1="6.54" x2="54.17" y2="220.84" fill="none" stroke="black" stroke-width="0.25px" stroke-linecap="butt" />
<line x1="66.07" y1="6.54" x2="66.07" y2="220.84" fill="none" stroke="black" stroke-width="0.25px" stroke-linecap="butt" />
<line x1="77.98" y1="6.54" x2="77.98" y2="220.84" fill="none" stroke="black" stroke-width="0.25px" stroke-linecap="butt" />
<line x1="89.88" y1="6.54" x2="89.88" y2="220.84" fill="none" stroke="black" stroke-width="0.25px" stroke-linecap="butt" />
<line x1="101.79" y1="6.54" x2="101.79" y2="220.84" fill="none" stroke="black" stroke-width="0.25px" stroke-linecap="butt" />
<line x1="113.69" y1="6.54" x2="113.69" y2="220.84" fill="none" stroke="black" stroke-width="0.25px" stroke-linecap="butt" />
<line x1="125.60" y1="6.54" x2="125.60" y2="220.84" fill="none" stroke="black" stroke-width="0.25px" stroke-linecap="butt" />
<line x1="137.50" y1="6.54" x2="137.50" y2="220.84" fill="none" stroke="black" stroke-width="0.25px" stroke-linecap="butt" />
<line x1="149.41" y1="6.54" x2="149.41" y2="220.84" fill="none" stroke="black" stroke-width="0.25px" stroke-linecap="butt" />
<line x1="161.31" y1="6.54" x2="161.31" y2="220.84" fill="none" stroke="black" stroke-width="0.25px" stroke-linecap="butt" />
<line x1="173.22" y1="6.54" x2="173.22" y2="220.84" fill="none" stroke="black" stroke-width="0.25px" stroke-linecap="butt" />
<line x1="185.13" y1="6.54" x2="185.13" y2="220.84" fill="none" stroke="black" stroke-width="0.25px" stroke-linecap="butt" />
<line x1="197.03" y1="6.54" x2="197.03" y2="220.84" fill="none" stroke="black" stroke-width="0.25px" stroke-linecap="butt" />
<line x1="208.94" y1="6.54" x2="208.94" y2="220.84" fill="none" stroke="black" stroke-width="0.25px" stroke-linecap="butt" />
<line x1="220.84" y1="6.54" x2="220.84" y2="220.84" fill="none" stroke="black" stroke-width="0.87px" stroke-linecap="square" />
<line x1="6.54" y1="6.54" x2="220.84" y2="6.54" fill="none" stroke="black" stroke-width="0.87px" stroke-linecap="square" />
<line x1="6.54" y1="18.45" x2="220.84" y2="18.45" fill="none" stroke="black" stroke-width="0.25px" stroke-linecap="butt" />
<line x1="6.54" y1="30.35" x2="220.84" y2="30.35" fill="none" stroke="black" stroke-width="0.25px" stroke-linecap="butt" />
<line x1="6.54" y1="42.26" x2="220.84" y2="42.26" fill="none" stroke="black" stroke-width="0.25px" stroke-linecap="butt" />
<line x1="6.54" y1="54.17" x2="220.84" y2="54.17" fill="none" stroke="black" stroke-width="0.25px" stroke-linecap="butt" />
<line x1="6.54" y1="66.07" x2="220.84" y2="66.07" fill="none" stroke="black" stroke-width="0.25px" stroke-linecap="butt" />
<line x1="6.54" y1="77.98" x2="220.84" y2="77.98" fill="none" stroke="black" stroke-width="0.25px" stroke-linecap="butt" />
<line x1="6.54" y1="89.88" x2="220.84" y2="89.88" fill="none" stroke="black" stroke-width="0.25px" stroke-linecap="butt" />
<line x1="6.54" y1="101.79" x2="220.84" y2="101.79" fill="none" stroke="black" stroke-width="0.25px" stroke-linecap="butt" />
<line x1="6.54" y1="113.69" x2="220.84" y2="113.69" fill="none" stroke="black" stroke-width="0.25px" stroke-linecap="butt" />
<line x1="6.54" y1="125.60" x2="220.84" y2="125.60" fill="none" stroke="black" stroke-width="0.25px" stroke-linecap="butt" />
<line x1="6.54" y1="137.50" x2="220.84" y2="137.50" fill="none" stroke="black" stroke-width="0.25px" stroke-linecap="butt" />
<line x1="6.54" y1="149.41" x2="220.84" y2="149.41" fill="none" stroke="black" stroke-width="0.25px" stroke-linecap="butt" />
<line x1="6.54" y1="161.31" x2="220.84" y2="161.31" fill="none" stroke="black" stroke-width="0.25px" stroke-linecap="butt" />
<line x1="6.54" y1="173.22" x2="220.84" y2="173.22" fill="none" stroke="black" stroke-width="0.25px" stroke-linecap="butt" />
<line x1="6.54" y1="185.13" x2="220.84" y2="185.13" fill="none" stroke="black" stroke-width="0.25px" stroke-linecap="butt" />
<line x1="6.54" y1="197.03" x2="220.84" y2="197.03" fill="none" stroke="black" stroke-width="0.25px" stroke-linecap="butt" />
<line x1="6.54" y1="208.94" x2="220.84" y2="208.94" fill="none" stroke="black" stroke-width="0.25px" stroke-linecap="butt" />
<line x1="6.54" y1="220.84" x2="220.84" y2="220.84" fill="none" stroke="black" stroke-width="0.87px" stroke-linecap="square" />
<circle cx="42.26" cy="42.26" r="1.27" fill="black"/>
<circle cx="42.26" cy="113.69" r="1.27" fill="black"/>
<circle cx="42.26" cy="185.13" r="1.27" fill="black"/>
<circle cx="113.69" cy="42.26" r="1.27" fill="black"/>
<circle cx="113.69" cy="113.69" r="1.27" fill="black"/>
<circle cx="113.69" cy="185.13" r="1.27" fill="black"/>
<circle cx="137.50" cy="30.35" r="5.85" fill="white"/>
<circle cx="137.50" cy="30.35" r="5.85" fill="none" stroke="black" stroke-width="0.25px"/>
<circle cx="137.50" cy="42.26" r="5.98" fill="black"/>
<circle cx="149.41" cy="18.45" r="5.85" fill="white"/>
<circle cx="149.41" cy="18.45" r="5.85" fill="none" stroke="black" stroke-width="0.25px"/>
<circle cx="149.41" cy="30.35" r="5.98" fill="black"/>
<circle cx="149.41" cy="42.26" r="5.98" fill="black"/>
<circle cx="161.31" cy="18.45" r="5.85" fill="white"/>
<circle cx="161.31" cy="18.45" r="5.85" fill="none" stroke="black" stroke-width="0.25px"/>
<circle cx="161.31" cy="30.35" r="5.85" fill="white"/>
<circle cx="161.31" cy="30.35" r="5.85" fill="none" stroke="black" stroke-width="0.25px"/>
<circle cx="161.31" cy="42.26" r="5.98" fill="black"/>
<circle cx="161.31" cy="54.17" r="5.85" fill="white"/>
<circle cx="161.31" cy="54.17" r="5.85" fill="none" stroke="black" stroke-width="0.25px"/>
<circle cx="173.22" cy="30.35" r="5.98" fill="black"/>
<circle cx="173.22" cy="42.26" r="5.85" fill="white"/>
<circle cx="173.22" cy="42.26" r="5.85" fill="none" stroke="black" stroke-width="0.25px"/>
<circle cx="173.22" cy="54.17" r="5.98" fill="black"/>
<circle cx="173.22" cy="66.07" r="5.98" fill="black"/>
<circle cx="185.13" cy="18.45" r="5.98" fill="black"/>
<circle cx="185.13" cy="30.35" r="5.98" fill="black"/>
<circle cx="185.13" cy="42.26" r="5.85" fill="white"/>
<circle cx="185.13" cy="42.26" r="5.85" fill="none" stroke="black" stroke-width="0.25px"/>
<circle cx="185.13" cy="54.17" r="5.85" fill="white"/>
<circle cx="185.13" cy="54.17" r="5.85" fill="none" stroke="black" stroke-width="0.25px"/>
<circle cx="185.13" cy="66.07" r="5.85" fill="white"/>
<circle cx="185.13" cy="66.07" r="5.85" fill="none" stroke="black" stroke-width="0.25px"/>
<circle cx="185.13" cy="77.98" r="5.85" fill="white"/>
<circle cx="185.13" cy="77.98" r="5.85" fill="none" stroke="black" stroke-width="0.25px"/>
<circle cx="185.13" cy="113.69" r="1.27" fill="black"/>
<circle cx="185.13" cy="185.13" r="1.27" fill="black"/>
<circle cx="197.03" cy="18.45" r="5.98" fill="black"/>
<circle cx="197.03" cy="30.35" r="5.85" fill="white"/>
<circle cx="197.03" cy="30.35" r="5.85" fill="none" stroke="black" stroke-width="0.25px"/>
<circle cx="197.03" cy="42.26" r="5.98" fill="black"/>
<circle cx="197.03" cy="54.17" r="5.85" fill="white"/>
<circle cx="197.03" cy="54.17" r="5.85" fill="none" stroke="black" stroke-width="0.25px"/>
<circle cx="208.94" cy="30.35" r="5.85" fill="white"/>
<circle cx="208.94" cy="30.35" r="5.85" fill="none" stroke="black" stroke-width="0.25px"/>
<circle cx="208.94" cy="42.26" r="5.98" fill="black"/>
<circle cx="208.94" cy="54.17" r="5.98" fill="black"/>
<circle cx="208.94" cy="66.07" r="5.98" fill="black"/>
<path d="
M135.70 26.72
C135.26 26.72 134.91 26.89 134.64 27.23
C134.37 27.58 134.22 28.09 134.18 28.78
L134.77 28.87
C134.77 28.41 134.85 28.05 135.02 27.81
C135.20 27.56 135.41 27.44 135.68 27.44
C135.93 27.44 136.14 27.55 136.31 27.78
C136.48 28.01 136.56 28.31 136.56 28.67
C136.56 28.98 136.48 29.32 136.31 29.69
C136.15 30.05 135.80 30.57 135.26 31.23
C134.80 31.81 134.49 32.30 134.31 32.72
C134.14 33.15 134.06 33.53 134.07 33.87
L137.16 33.87
L137.16 33.03
L134.86 33.03
C134.93 32.87 135.01 32.71 135.11 32.55
C135.21 32.39 135.43 32.09 135.77 31.66
C136.31 30.96 136.67 30.41 136.86 29.99
C137.05 29.58 137.15 29.14 137.15 28.69
C137.15 28.18 137.03 27.72 136.78 27.32
C136.54 26.92 136.18 26.72 135.70 26.72
Z
M139.24 26.72
C138.88 26.72 138.57 26.87 138.32 27.18
C138.06 27.49 137.90 27.95 137.83 28.56
L138.40 28.72
C138.44 28.29 138.54 27.96 138.69 27.75
C138.84 27.54 139.02 27.43 139.24 27.43
C139.46 27.43 139.64 27.54 139.79 27.74
C139.93 27.94 140.01 28.21 140.01 28.54
C140.01 28.90 139.92 29.19 139.74 29.41
C139.57 29.63 139.34 29.74 139.05 29.74
L138.97 29.73
L138.90 30.49
C139.06 30.43 139.19 30.40 139.30 30.40
C139.56 30.40 139.78 30.52 139.95 30.78
C140.13 31.03 140.22 31.36 140.22 31.78
C140.22 32.22 140.12 32.58 139.93 32.85
C139.74 33.13 139.51 33.27 139.25 33.27
C138.76 33.27 138.46 32.80 138.34 31.87
L137.77 31.99
C137.81 32.60 137.96 33.09 138.24 33.45
C138.52 33.81 138.86 33.99 139.26 33.99
C139.69 33.99 140.06 33.78 140.36 33.37
C140.67 32.95 140.83 32.42 140.83 31.76
C140.83 31.46 140.79 31.18 140.71 30.93
C140.64 30.68 140.54 30.48 140.42 30.33
C140.30 30.18 140.14 30.07 139.96 30.01
C140.16 29.87 140.32 29.67 140.43 29.42
C140.54 29.17 140.60 28.89 140.60 28.56
C140.60 28.03 140.47 27.59 140.20 27.24
C139.94 26.89 139.62 26.72 139.24 26.72
Z
" fill="black" fill-rule="nonzero" />
<path d="
M139.46 40.77
L139.46 43.19
L138.36 43.19
L139.46 40.77
Z
M135.70 38.54
C135.22 38.54 134.83 38.73 134.53 39.11
C134.24 39.48 134.08 40.02 134.04 40.74
L134.03 40.86
L134.15 40.88
L134.75 40.98
L134.91 41.00
L134.91 40.84
C134.91 40.41 134.99 40.08 135.14 39.86
C135.28 39.65 135.46 39.55 135.68 39.55
C135.68 39.55 135.68 39.55 135.68 39.55
C135.68 39.55 135.68 39.55 135.68 39.55
C135.88 39.55 136.05 39.64 136.19 39.83
C136.35 40.04 136.42 40.31 136.42 40.64
C136.42 40.93 136.34 41.25 136.19 41.60
C136.02 41.95 135.68 42.46 135.15 43.11
C134.68 43.70 134.36 44.21 134.18 44.64
C134.00 45.08 133.92 45.48 133.93 45.84
L133.93 45.98
L137.30 45.98
L137.30 45.84
L137.30 44.99
L137.30 44.85
L135.08 44.85
C135.12 44.77 135.17 44.68 135.23 44.59
C135.32 44.44 135.54 44.15 135.88 43.71
C136.43 43.01 136.79 42.45 136.99 42.02
C137.19 41.59 137.29 41.13 137.29 40.66
C137.29 40.12 137.16 39.64 136.90 39.21
C136.63 38.77 136.23 38.54 135.70 38.54
Z
M139.62 38.57
L139.58 38.65
L137.45 43.27
L137.44 43.30
L137.44 43.33
L137.44 44.13
L137.44 44.27
L139.46 44.27
L139.46 45.84
L139.46 45.98
L140.32 45.98
L140.32 45.84
L140.32 44.27
L140.95 44.27
L140.95 44.13
L140.95 43.33
L140.95 43.19
L140.32 43.19
L140.32 38.71
L140.32 38.57
Z
" fill="white" fill-rule="nonzero" />
<path d="
M147.83 14.87
C147.73 15.18 147.56 15.50 147.32 15.83
C147.07 16.16 146.79 16.43 146.48 16.66
L146.48 17.51
C146.67 17.40 146.87 17.25 147.09 17.05
C147.32 16.84 147.49 16.65 147.63 16.45
L147.63 22.02
L148.20 22.02
L148.20 14.87
Z
M151.46 14.87
C151.36 15.18 151.19 15.50 150.95 15.83
C150.70 16.16 150.42 16.43 150.11 16.66
L150.11 17.51
C150.30 17.40 150.50 17.25 150.72 17.05
C150.95 16.84 151.12 16.65 151.26 16.45
L151.26 22.02
L151.83 22.02
L151.83 14.87
Z
" fill="black" fill-rule="nonzero" />
<path d="
M151.17 39.49
C151.17 39.49 151.17 39.49 151.17 39.49
C151.17 39.49 151.17 39.49 151.17 39.49
C151.28 39.49 151.37 39.53 151.46 39.60
C151.56 39.69 151.65 39.82 151.73 39.99
C151.90 40.37 151.98 41.12 151.98 42.26
C151.98 43.39 151.90 44.14 151.73 44.52
C151.65 44.70 151.56 44.84 151.47 44.92
C151.39 45.00 151.30 45.04 151.21 45.04
C151.21 45.04 151.21 45.04 151.20 45.04
C151.20 45.04 151.20 45.04 151.20 45.04
C151.10 45.04 151.01 45.00 150.92 44.92
C150.82 44.84 150.73 44.71 150.65 44.53
C150.48 44.15 150.40 43.40 150.40 42.26
C150.40 41.14 150.48 40.38 150.65 40.00
C150.73 39.82 150.81 39.69 150.91 39.60
C150.99 39.53 151.08 39.49 151.17 39.49
Z
M147.61 38.48
C147.12 38.48 146.73 38.67 146.43 39.05
C146.15 39.42 145.98 39.96 145.94 40.67
L145.93 40.80
L146.06 40.82
L146.65 40.92
L146.81 40.94
L146.81 40.78
C146.81 40.34 146.89 40.02 147.05 39.80
C147.19 39.59 147.37 39.49 147.58 39.49
C147.58 39.49 147.59 39.49 147.59 39.49
C147.59 39.49 147.59 39.49 147.59 39.49
C147.79 39.49 147.96 39.58 148.10 39.77
C148.25 39.98 148.33 40.24 148.33 40.58
C148.33 40.87 148.25 41.19 148.09 41.54
C147.93 41.89 147.59 42.39 147.06 43.05
C146.59 43.64 146.27 44.15 146.09 44.58
C145.91 45.02 145.82 45.42 145.83 45.78
L145.83 45.92
L149.21 45.92
L149.21 45.77
L149.21 44.93
L149.21 44.79
L146.99 44.79
C147.03 44.71 147.08 44.62 147.13 44.53
C147.23 44.38 147.45 44.08 147.79 43.65
C148.33 42.95 148.70 42.39 148.90 41.96
C149.10 41.52 149.20 41.07 149.20 40.60
C149.20 40.06 149.07 39.58 148.81 39.15
C148.54 38.71 148.13 38.48 147.61 38.48
Z
M151.20 38.48
C150.91 38.48 150.66 38.57 150.45 38.74
C150.24 38.91 150.06 39.16 149.93 39.49
C149.66 40.12 149.53 41.05 149.53 42.26
C149.53 43.62 149.68 44.58 149.97 45.15
C150.12 45.44 150.30 45.66 150.50 45.81
C150.70 45.96 150.94 46.04 151.19 46.04
C151.48 46.04 151.73 45.95 151.94 45.77
C152.15 45.61 152.33 45.36 152.46 45.03
C152.73 44.39 152.86 43.47 152.86 42.26
C152.86 40.91 152.70 39.93 152.38 39.31
C152.24 39.04 152.07 38.83 151.88 38.69
C151.68 38.55 151.45 38.48 151.20 38.48
Z
" fill="white" fill-rule="nonzero" />
<path d="
M159.73 50.59
C159.63 50.90 159.46 51.22 159.22 51.55
C158.98 51.87 158.70 52.15 158.38 52.38
L158.38 53.22
C158.57 53.12 158.78 52.97 159.00 52.76
C159.22 52.56 159.40 52.36 159.53 52.17
L159.53 57.74
L160.11 57.74
L160.11 50.59
Z
M161.61 50.71
L161.61 51.55
L163.90 51.55
C163.61 52.06 163.34 52.67 163.09 53.39
C162.84 54.11 162.64 54.86 162.49 55.66
C162.35 56.45 162.27 57.14 162.27 57.74
L162.86 57.74
C162.91 56.59 163.11 55.42 163.45 54.25
C163.79 53.08 164.19 52.12 164.64 51.39
L164.64 50.71
Z
" fill="black" fill-rule="nonzero" />
<path d="
M175.01 51.39
C175.01 51.39 175.01 51.39 175.01 51.39
C175.01 51.39 175.01 51.39 175.01 51.39
C175.17 51.39 175.31 51.48 175.44 51.65
C175.57 51.84 175.64 52.08 175.64 52.38
C175.64 52.68 175.57 52.91 175.44 53.09
C175.32 53.26 175.18 53.34 175.02 53.34
C175.02 53.34 175.02 53.34 175.02 53.34
C175.02 53.34 175.02 53.34 175.02 53.34
C174.85 53.34 174.71 53.26 174.59 53.09
C174.46 52.91 174.40 52.66 174.40 52.34
C174.40 52.06 174.46 51.82 174.59 51.64
C174.71 51.47 174.85 51.39 175.01 51.39
Z
M175.00 54.34
C175.00 54.34 175.00 54.34 175.00 54.34
C175.01 54.34 175.01 54.34 175.01 54.34
C175.22 54.34 175.41 54.45 175.57 54.68
C175.74 54.92 175.83 55.25 175.83 55.65
C175.83 56.06 175.74 56.38 175.58 56.61
C175.42 56.83 175.24 56.94 175.02 56.94
C175.02 56.94 175.02 56.94 175.02 56.94
C175.02 56.94 175.02 56.94 175.02 56.94
C174.80 56.94 174.62 56.83 174.46 56.60
C174.29 56.36 174.21 56.03 174.21 55.63
C174.21 55.23 174.29 54.92 174.45 54.68
C174.61 54.45 174.79 54.34 175.00 54.34
Z
M171.53 50.39
L171.50 50.49
C171.41 50.78 171.25 51.09 171.01 51.40
C170.78 51.72 170.51 51.98 170.21 52.20
L170.15 52.24
L170.15 52.32
L170.15 53.16
L170.15 53.40
L170.36 53.29
C170.55 53.18 170.77 53.02 171.00 52.81
C171.11 52.71 171.21 52.61 171.29 52.51
L171.29 52.51
L171.29 57.68
L171.29 57.82
L172.15 57.82
L172.15 57.68
L172.15 50.53
L172.15 50.39
Z
M175.01 50.39
C174.58 50.39 174.22 50.58 173.93 50.95
C173.66 51.32 173.52 51.79 173.52 52.36
C173.52 52.74 173.59 53.06 173.71 53.32
C173.81 53.51 173.93 53.67 174.09 53.80
L174.09 53.80
C173.88 53.93 173.71 54.13 173.59 54.38
C173.42 54.71 173.34 55.13 173.34 55.63
C173.34 56.31 173.49 56.86 173.80 57.29
C174.13 57.72 174.53 57.94 175.02 57.94
C175.50 57.94 175.91 57.72 176.23 57.29
C176.54 56.86 176.70 56.32 176.70 55.65
C176.70 55.17 176.62 54.76 176.45 54.43
C176.33 54.17 176.15 53.96 175.94 53.81
L175.94 53.81
C176.10 53.68 176.23 53.52 176.32 53.32
C176.44 53.07 176.51 52.75 176.51 52.39
C176.51 51.81 176.37 51.34 176.09 50.96
C175.80 50.58 175.44 50.39 175.01 50.39
Z
" fill="white" fill-rule="nonzero" />
<path d="
M175.05 65.88
C175.25 65.88 175.42 66.00 175.57 66.23
C175.73 66.49 175.81 66.85 175.81 67.33
C175.81 67.82 175.73 68.20 175.56 68.47
C175.42 68.72 175.26 68.85 175.09 68.85
C175.08 68.85 175.08 68.85 175.08 68.85
C175.08 68.85 175.08 68.85 175.08 68.85
C174.88 68.85 174.69 68.71 174.53 68.44
C174.35 68.15 174.26 67.77 174.26 67.28
C174.26 66.83 174.34 66.49 174.51 66.23
C174.67 66.00 174.84 65.88 175.04 65.88
C175.04 65.88 175.04 65.88 175.04 65.88
C175.04 65.88 175.05 65.88 175.05 65.88
Z
M171.53 62.29
L171.50 62.39
C171.41 62.69 171.25 62.99 171.01 63.31
C170.78 63.62 170.51 63.89 170.21 64.11
L170.15 64.15
L170.15 64.22
L170.15 65.07
L170.15 65.31
L170.36 65.19
C170.55 65.08 170.77 64.92 171.00 64.71
C171.11 64.61 171.21 64.52 171.29 64.42
L171.29 64.42
L171.29 69.59
L171.29 69.73
L172.15 69.73
L172.15 69.59
L172.15 62.43
L172.15 62.29
Z
M175.13 62.29
C174.85 62.29 174.60 62.37 174.38 62.54
C174.16 62.70 173.97 62.93 173.80 63.24
C173.47 63.85 173.31 64.85 173.31 66.25
C173.31 67.52 173.47 68.43 173.79 68.98
C173.95 69.27 174.14 69.48 174.35 69.62
C174.57 69.77 174.81 69.85 175.08 69.85
C175.37 69.85 175.64 69.74 175.89 69.54
C176.13 69.34 176.32 69.03 176.46 68.62
C176.61 68.22 176.68 67.77 176.68 67.28
C176.68 66.55 176.54 65.96 176.24 65.52
C175.94 65.06 175.58 64.82 175.16 64.82
C174.90 64.82 174.66 64.91 174.43 65.10
C174.34 65.17 174.26 65.25 174.18 65.35
L174.18 65.35
C174.21 64.77 174.29 64.31 174.42 63.98
C174.51 63.74 174.62 63.56 174.74 63.45
C174.85 63.35 174.96 63.29 175.09 63.29
C175.09 63.29 175.09 63.29 175.09 63.29
C175.09 63.29 175.10 63.29 175.10 63.29
C175.26 63.29 175.40 63.39 175.53 63.57
C175.62 63.71 175.70 63.95 175.75 64.30
L175.77 64.43
L175.90 64.42
L176.47 64.35
L176.61 64.33
L176.60 64.19
C176.54 63.59 176.39 63.13 176.13 62.80
C175.86 62.46 175.53 62.29 175.13 62.29
Z
" fill="white" fill-rule="nonzero" />
<path d="
M186.88 15.68
C186.89 15.68 186.89 15.68 186.89 15.68
C186.89 15.68 186.89 15.68 186.89 15.68
C186.99 15.68 187.09 15.72 187.18 15.79
C187.28 15.88 187.37 16.01 187.45 16.18
C187.62 16.56 187.70 17.31 187.70 18.45
C187.70 19.58 187.62 20.33 187.45 20.71
C187.37 20.89 187.28 21.03 187.19 21.11
C187.10 21.19 187.02 21.22 186.92 21.22
C186.92 21.22 186.92 21.22 186.92 21.22
C186.92 21.22 186.92 21.22 186.92 21.22
C186.82 21.22 186.72 21.19 186.64 21.11
C186.54 21.03 186.45 20.90 186.37 20.72
C186.20 20.34 186.11 19.59 186.11 18.45
C186.11 17.32 186.20 16.57 186.37 16.19
C186.44 16.01 186.53 15.88 186.63 15.79
C186.71 15.72 186.79 15.68 186.88 15.68
Z
M183.44 14.67
L183.41 14.77
C183.32 15.07 183.15 15.37 182.92 15.68
C182.69 16.00 182.42 16.27 182.11 16.48
L182.05 16.53
L182.05 16.60
L182.05 17.45
L182.05 17.69
L182.26 17.57
C182.46 17.46 182.67 17.30 182.90 17.09
C183.01 16.99 183.11 16.89 183.20 16.80
L183.20 16.80
L183.20 21.96
L183.20 22.11
L184.06 22.11
L184.06 21.96
L184.06 14.81
L184.06 14.67
Z
M186.91 14.67
C186.63 14.67 186.38 14.76 186.16 14.93
C185.95 15.10 185.78 15.35 185.64 15.68
C185.38 16.31 185.24 17.24 185.24 18.45
C185.24 19.81 185.39 20.77 185.69 21.33
C185.84 21.63 186.01 21.85 186.21 21.99
C186.42 22.15 186.65 22.23 186.91 22.23
C187.19 22.23 187.44 22.14 187.66 21.96
C187.87 21.79 188.04 21.54 188.18 21.21
C188.44 20.58 188.58 19.66 188.58 18.45
C188.58 17.10 188.41 16.12 188.09 15.50
C187.95 15.23 187.79 15.02 187.59 14.88
C187.39 14.74 187.17 14.67 186.91 14.67
Z
" fill="white" fill-rule="nonzero" />
<path d="
M186.93 51.25
C187.16 51.25 187.37 51.40 187.55 51.69
C187.73 51.98 187.82 52.38 187.82 52.89
C187.82 53.40 187.73 53.80 187.56 54.08
C187.38 54.35 187.17 54.49 186.91 54.49
C186.66 54.49 186.44 54.35 186.25 54.08
C186.07 53.80 185.98 53.43 185.98 52.96
C185.98 52.44 186.07 52.03 186.27 51.72
C186.46 51.41 186.68 51.25 186.93 51.25
Z
M183.54 50.53
C183.45 50.84 183.28 51.16 183.03 51.49
C182.79 51.81 182.51 52.09 182.20 52.32
L182.20 53.16
C182.38 53.06 182.59 52.91 182.81 52.70
C183.03 52.50 183.21 52.30 183.34 52.11
L183.34 57.68
L183.92 57.68
L183.92 50.53
Z
M186.86 50.53
C186.45 50.53 186.10 50.74 185.82 51.17
C185.53 51.60 185.39 52.19 185.39 52.93
C185.39 53.66 185.52 54.22 185.80 54.64
C186.08 55.06 186.40 55.27 186.79 55.27
C187.00 55.27 187.20 55.18 187.40 55.01
C187.61 54.84 187.77 54.62 187.89 54.33
L187.89 54.50
C187.89 55.06 187.83 55.55 187.72 55.97
C187.61 56.38 187.48 56.67 187.32 56.84
C187.17 57.00 186.99 57.08 186.80 57.08
C186.37 57.08 186.11 56.71 186.02 55.96
L185.47 56.03
C185.52 56.61 185.66 57.04 185.90 57.35
C186.14 57.65 186.43 57.80 186.79 57.80
C187.10 57.80 187.39 57.68 187.64 57.43
C187.89 57.18 188.09 56.78 188.24 56.24
C188.39 55.70 188.46 54.94 188.46 53.96
C188.46 53.09 188.39 52.41 188.25 51.95
C188.12 51.48 187.92 51.13 187.67 50.89
C187.42 50.65 187.15 50.53 186.86 50.53
Z
" fill="black" fill-rule="nonzero" />
<path d="
M183.54 62.43
C183.45 62.75 183.28 63.06 183.03 63.39
C182.79 63.72 182.51 64.00 182.20 64.22
L182.20 65.07
C182.38 64.96 182.59 64.81 182.81 64.61
C183.03 64.41 183.21 64.21 183.34 64.01
L183.34 69.59
L183.92 69.59
L183.92 62.43
Z
M185.94 62.56
L185.49 66.22
L186.03 66.33
C186.12 66.11 186.24 65.94 186.39 65.82
C186.54 65.70 186.70 65.64 186.87 65.64
C187.16 65.64 187.40 65.78 187.59 66.06
C187.78 66.34 187.88 66.73 187.88 67.24
C187.88 67.78 187.78 68.21 187.58 68.52
C187.39 68.83 187.15 68.99 186.88 68.99
C186.66 68.99 186.47 68.88 186.31 68.66
C186.14 68.43 186.04 68.10 185.99 67.64
L185.39 67.72
C185.43 68.34 185.58 68.83 185.86 69.18
C186.14 69.53 186.48 69.71 186.89 69.71
C187.37 69.71 187.76 69.46 188.05 68.96
C188.34 68.46 188.48 67.87 188.48 67.17
C188.48 66.46 188.34 65.90 188.05 65.49
C187.76 65.07 187.42 64.86 187.03 64.86
C186.72 64.86 186.43 65.01 186.15 65.31
L186.40 63.40
L188.26 63.40
L188.26 62.56
Z
" fill="black" fill-rule="nonzero" />
<path d="
M183.32 74.40
C182.88 74.40 182.53 74.57 182.26 74.92
C182.00 75.26 181.84 75.78 181.80 76.46
L182.39 76.55
C182.39 76.09 182.48 75.74 182.65 75.49
C182.82 75.25 183.04 75.12 183.30 75.12
C183.55 75.12 183.76 75.24 183.93 75.47
C184.10 75.70 184.19 75.99 184.19 76.35
C184.19 76.67 184.10 77.01 183.94 77.37
C183.77 77.74 183.42 78.25 182.88 78.92
C182.42 79.49 182.11 79.99 181.94 80.41
C181.76 80.83 181.68 81.21 181.69 81.55
L184.78 81.55
L184.78 80.71
L182.49 80.71
C182.55 80.55 182.63 80.39 182.73 80.24
C182.83 80.08 183.05 79.78 183.39 79.34
C183.93 78.65 184.29 78.09 184.48 77.68
C184.68 77.26 184.77 76.83 184.77 76.37
C184.77 75.86 184.65 75.40 184.40 75.00
C184.16 74.60 183.80 74.40 183.32 74.40
Z
M187.17 74.40
C187.08 74.71 186.91 75.03 186.66 75.36
C186.42 75.68 186.14 75.96 185.83 76.19
L185.83 77.03
C186.01 76.93 186.22 76.78 186.44 76.57
C186.66 76.37 186.84 76.17 186.97 75.98
L186.97 81.55
L187.55 81.55
L187.55 74.40
Z
" fill="black" fill-rule="nonzero" />
<path d="
M195.45 50.53
C195.35 50.84 195.18 51.16 194.94 51.48
C194.70 51.81 194.42 52.09 194.10 52.31
L194.10 53.16
C194.29 53.06 194.49 52.90 194.71 52.70
C194.94 52.50 195.12 52.30 195.25 52.11
L195.25 57.68
L195.82 57.68
L195.82 50.53
Z
M198.76 50.53
C198.40 50.53 198.10 50.68 197.84 50.99
C197.59 51.30 197.43 51.76 197.35 52.37
L197.93 52.53
C197.97 52.10 198.06 51.78 198.21 51.56
C198.37 51.35 198.55 51.25 198.77 51.25
C198.98 51.25 199.17 51.35 199.31 51.55
C199.46 51.75 199.53 52.02 199.53 52.35
C199.53 52.72 199.45 53.01 199.27 53.22
C199.09 53.44 198.86 53.55 198.58 53.55
L198.49 53.54
L198.43 54.31
C198.59 54.24 198.72 54.21 198.83 54.21
C199.09 54.21 199.30 54.34 199.48 54.59
C199.66 54.84 199.74 55.17 199.74 55.59
C199.74 56.03 199.65 56.39 199.46 56.66
C199.26 56.94 199.04 57.08 198.78 57.08
C198.29 57.08 197.99 56.61 197.87 55.68
L197.30 55.80
C197.33 56.41 197.49 56.90 197.77 57.26
C198.05 57.62 198.39 57.80 198.78 57.80
C199.21 57.80 199.58 57.60 199.89 57.18
C200.20 56.76 200.35 56.23 200.35 55.57
C200.35 55.27 200.32 54.99 200.24 54.74
C200.17 54.49 200.07 54.29 199.95 54.14
C199.82 53.99 199.67 53.88 199.48 53.82
C199.69 53.68 199.84 53.48 199.96 53.23
C200.07 52.98 200.13 52.70 200.13 52.37
C200.13 51.84 199.99 51.40 199.73 51.05
C199.46 50.70 199.14 50.53 198.76 50.53
Z
" fill="black" fill-rule="nonzero" />
<path d="
M207.25 38.54
L207.22 38.64
C207.13 38.94 206.96 39.24 206.73 39.56
C206.50 39.87 206.23 40.14 205.92 40.36
L205.86 40.40
L205.86 40.47
L205.86 41.32
L205.86 41.56
L206.08 41.44
C206.27 41.33 206.48 41.17 206.72 40.96
C206.82 40.86 206.92 40.77 207.01 40.67
L207.01 40.67
L207.01 45.84
L207.01 45.98
L207.87 45.98
L207.87 45.84
L207.87 38.68
L207.87 38.54
Z
M210.76 38.54
C210.28 38.54 209.89 38.73 209.59 39.11
C209.31 39.48 209.14 40.02 209.10 40.74
L209.09 40.86
L209.22 40.88
L209.81 40.98
L209.97 41.00
L209.97 40.84
C209.97 40.41 210.05 40.08 210.20 39.86
C210.34 39.65 210.52 39.55 210.74 39.55
C210.74 39.55 210.74 39.55 210.74 39.55
C210.75 39.55 210.75 39.55 210.75 39.55
C210.95 39.55 211.12 39.64 211.26 39.83
C211.41 40.04 211.48 40.31 211.48 40.64
C211.48 40.93 211.41 41.25 211.25 41.60
C211.09 41.95 210.74 42.46 210.21 43.11
C209.75 43.70 209.42 44.21 209.25 44.64
C209.07 45.08 208.98 45.48 208.99 45.84
L208.99 45.98
L212.36 45.98
L212.36 45.84
L212.36 44.99
L212.36 44.85
L210.15 44.85
C210.19 44.77 210.24 44.68 210.29 44.59
C210.39 44.44 210.61 44.15 210.95 43.71
C211.49 43.01 211.86 42.45 212.05 42.02
C212.25 41.59 212.35 41.13 212.36 40.66
C212.35 40.12 212.23 39.64 211.97 39.21
C211.69 38.77 211.29 38.54 210.76 38.54
Z
" fill="white" fill-rule="nonzero" />
<path d="
M210.89 52.68
L210.89 55.09
L209.79 55.09
L210.89 52.68
Z
M207.25 50.45
L207.22 50.55
C207.13 50.84 206.96 51.15 206.73 51.46
C206.50 51.78 206.23 52.04 205.92 52.26
L205.86 52.30
L205.86 52.38
L205.86 53.22
L205.86 53.46
L206.08 53.35
C206.27 53.24 206.48 53.08 206.72 52.87
C206.82 52.77 206.92 52.67 207.01 52.57
L207.01 52.57
L207.01 57.74
L207.01 57.88
L207.87 57.88
L207.87 57.74
L207.87 50.59
L207.87 50.45
Z
M211.05 50.48
L211.02 50.56
L208.88 55.17
L208.87 55.20
L208.87 55.23
L208.87 56.04
L208.87 56.18
L210.89 56.18
L210.89 57.74
L210.89 57.88
L211.75 57.88
L211.75 57.74
L211.75 56.18
L212.39 56.18
L212.39 56.04
L212.39 55.23
L212.39 55.09
L211.75 55.09
L211.75 50.62
L211.75 50.48
Z
" fill="white" fill-rule="nonzero" />
<path d="
M207.13 62.35
C206.65 62.35 206.26 62.54 205.96 62.93
C205.68 63.29 205.51 63.83 205.47 64.55
L205.46 64.67
L205.59 64.69
L206.18 64.79
L206.34 64.81
L206.34 64.65
C206.34 64.22 206.42 63.89 206.57 63.67
C206.71 63.46 206.89 63.36 207.11 63.36
C207.11 63.36 207.11 63.36 207.11 63.36
C207.12 63.36 207.12 63.36 207.12 63.36
C207.32 63.36 207.49 63.46 207.63 63.65
C207.78 63.85 207.85 64.12 207.85 64.45
C207.85 64.74 207.78 65.06 207.62 65.41
C207.46 65.76 207.11 66.27 206.58 66.92
C206.12 67.51 205.79 68.02 205.62 68.45
C205.44 68.89 205.35 69.29 205.36 69.65
L205.36 69.79
L208.73 69.79
L208.73 69.65
L208.73 68.81
L208.73 68.66
L206.52 68.66
C206.56 68.58 206.61 68.49 206.66 68.41
C206.76 68.25 206.98 67.96 207.31 67.52
C207.86 66.82 208.23 66.26 208.42 65.83
C208.62 65.40 208.72 64.94 208.72 64.47
C208.72 63.93 208.60 63.45 208.34 63.02
C208.06 62.58 207.66 62.35 207.13 62.35
Z
M210.76 62.35
C210.28 62.35 209.89 62.54 209.59 62.93
C209.31 63.29 209.14 63.83 209.10 64.55
L209.09 64.67
L209.22 64.69
L209.81 64.79
L209.97 64.81
L209.97 64.65
C209.97 64.22 210.05 63.89 210.20 63.67
C210.34 63.46 210.52 63.36 210.74 63.36
C210.74 63.36 210.74 63.36 210.74 63.36
C210.75 63.36 210.75 63.36 210.75 63.36
C210.95 63.36 211.12 63.46 211.26 63.65
C211.41 63.85 211.48 64.12 211.48 64.45
C211.48 64.74 211.41 65.06 211.25 65.41
C211.09 65.76 210.74 66.27 210.21 66.92
C209.75 67.51 209.42 68.02 209.25 68.45
C209.07 68.89 208.98 69.29 208.99 69.65
L208.99 69.79
L212.36 69.79
L212.36 69.65
L212.36 68.81
L212.36 68.66
L210.15 68.66
C210.19 68.58 210.24 68.49 210.29 68.41
C210.39 68.25 210.61 67.96 210.95 67.52
C211.49 66.82 211.86 66.26 212.05 65.83
C212.25 65.40 212.35 64.94 212.36 64.47
C212.35 63.93 212.23 63.45 211.97 63.02
C211.69 62.58 211.29 62.35 210.76 62.35
Z
" fill="white" fill-rule="nonzero" />
</g>
<g  transform="translate(1.19,228.58)" >
<path d="
M105.01 2.94
C104.84 2.94 104.70 3.00 104.58 3.11
C104.47 3.23 104.41 3.37 104.41 3.53
C104.41 3.69 104.47 3.83 104.59 3.95
C104.70 4.07 104.84 4.12 105.01 4.12
C105.17 4.12 105.31 4.07 105.42 3.95
C105.54 3.83 105.59 3.69 105.59 3.53
C105.59 3.37 105.54 3.23 105.42 3.11
C105.31 3.00 105.17 2.94 105.01 2.94
Z
M130.28 4.39
L130.28 8.31
L127.51 8.31
L130.28 4.39
Z
M109.98 8.04
L109.98 10.07
C109.50 10.46 109.11 10.65 108.81 10.65
C108.60 10.65 108.40 10.56 108.24 10.37
C108.07 10.19 107.99 9.96 107.99 9.68
C107.99 9.46 108.05 9.25 108.19 9.07
C108.32 8.88 108.54 8.70 108.84 8.53
C109.01 8.44 109.39 8.27 109.98 8.04
Z
M98.33 3.77
C99.26 3.77 100.02 4.08 100.61 4.71
C101.21 5.34 101.50 6.20 101.50 7.29
C101.50 8.37 101.21 9.23 100.61 9.86
C100.02 10.49 99.27 10.81 98.37 10.81
C98.04 10.81 97.63 10.75 97.13 10.64
L97.13 3.94
C97.58 3.83 97.98 3.77 98.33 3.77
Z
M94.88 3.33
L94.88 3.54
L95.18 3.54
C95.48 3.54 95.70 3.63 95.86 3.80
C95.96 3.92 96.02 4.23 96.02 4.72
L96.02 9.82
C96.02 10.26 95.98 10.55 95.89 10.68
C95.75 10.89 95.51 11.00 95.18 11.00
L94.88 11.00
L94.88 11.21
L98.41 11.21
C99.94 11.21 101.08 10.80 101.83 9.98
C102.49 9.24 102.83 8.33 102.83 7.23
C102.83 6.41 102.64 5.69 102.27 5.07
C101.89 4.44 101.40 4.00 100.78 3.73
C100.17 3.46 99.27 3.33 98.09 3.33
Z
M105.23 5.73
L103.63 6.38
L103.71 6.59
C103.86 6.53 104.00 6.50 104.10 6.50
C104.21 6.50 104.28 6.53 104.34 6.58
C104.40 6.62 104.44 6.71 104.47 6.83
C104.51 7.00 104.52 7.38 104.52 7.96
L104.52 10.01
C104.52 10.34 104.50 10.56 104.44 10.68
C104.39 10.79 104.32 10.88 104.23 10.93
C104.14 10.98 103.97 11.00 103.71 11.00
L103.71 11.21
L106.30 11.21
L106.30 11.00
C106.04 11.00 105.87 10.98 105.78 10.92
C105.68 10.87 105.61 10.79 105.56 10.68
C105.51 10.56 105.49 10.34 105.49 10.01
L105.49 5.73
Z
M130.60 3.16
L126.94 8.39
L126.94 9.13
L130.28 9.13
L130.28 11.21
L131.24 11.21
L131.24 9.13
L132.29 9.13
L132.29 8.31
L131.24 8.31
L131.24 3.16
Z
M109.16 5.73
C108.55 5.73 108.07 5.87 107.73 6.15
C107.38 6.43 107.21 6.73 107.21 7.07
C107.21 7.24 107.26 7.38 107.35 7.48
C107.44 7.58 107.56 7.63 107.70 7.63
C107.85 7.63 107.97 7.58 108.06 7.49
C108.15 7.39 108.20 7.25 108.20 7.07
L108.19 6.74
C108.19 6.56 108.26 6.41 108.41 6.28
C108.55 6.15 108.74 6.08 108.99 6.08
C109.31 6.08 109.55 6.18 109.72 6.38
C109.89 6.58 109.98 6.94 109.98 7.47
L109.98 7.68
C109.06 8.02 108.41 8.30 108.01 8.53
C107.62 8.76 107.34 9.01 107.19 9.28
C107.07 9.47 107.01 9.69 107.01 9.95
C107.01 10.36 107.13 10.69 107.37 10.95
C107.61 11.20 107.91 11.32 108.28 11.32
C108.51 11.32 108.74 11.27 108.95 11.18
C109.09 11.11 109.43 10.87 109.98 10.45
C109.98 10.76 110.04 10.99 110.15 11.12
C110.26 11.25 110.41 11.32 110.60 11.32
C111.00 11.32 111.41 11.03 111.85 10.45
L111.85 10.12
C111.62 10.35 111.46 10.49 111.38 10.54
C111.33 10.57 111.28 10.58 111.22 10.58
C111.16 10.58 111.11 10.57 111.06 10.53
C111.02 10.49 110.98 10.41 110.97 10.30
C110.95 10.18 110.94 9.87 110.94 9.36
L110.94 7.55
C110.94 7.04 110.90 6.70 110.83 6.53
C110.72 6.28 110.55 6.09 110.33 5.97
C110.02 5.81 109.64 5.73 109.16 5.73
Z
M120.56 3.16
C120.05 3.16 119.62 3.31 119.28 3.60
C118.94 3.89 118.65 4.30 118.43 4.83
L118.62 4.92
C119.02 4.28 119.52 3.96 120.13 3.96
C120.50 3.96 120.81 4.08 121.06 4.32
C121.31 4.57 121.43 4.89 121.43 5.29
C121.43 5.60 121.36 5.88 121.22 6.14
C121.09 6.39 120.86 6.61 120.55 6.79
C120.24 6.98 119.94 7.09 119.63 7.12
L119.63 7.30
L119.82 7.30
C120.12 7.30 120.42 7.36 120.71 7.49
C121.00 7.61 121.23 7.75 121.39 7.91
C121.51 8.02 121.62 8.19 121.73 8.40
C121.86 8.69 121.93 8.99 121.93 9.30
C121.93 9.72 121.78 10.08 121.49 10.39
C121.20 10.69 120.85 10.85 120.46 10.85
C120.29 10.85 120.14 10.83 120.00 10.78
C119.91 10.76 119.75 10.69 119.52 10.56
C119.28 10.44 119.13 10.37 119.07 10.35
C118.97 10.32 118.87 10.31 118.77 10.31
C118.64 10.31 118.53 10.35 118.44 10.43
C118.35 10.52 118.31 10.62 118.31 10.73
C118.31 10.88 118.40 11.02 118.59 11.15
C118.79 11.29 119.15 11.35 119.68 11.35
C120.75 11.35 121.57 11.03 122.14 10.38
C122.57 9.88 122.79 9.28 122.79 8.60
C122.79 8.12 122.67 7.71 122.42 7.36
C122.17 7.00 121.80 6.73 121.32 6.54
C122.04 5.93 122.40 5.34 122.40 4.76
C122.40 4.41 122.27 4.09 122.02 3.78
C121.68 3.37 121.19 3.16 120.56 3.16
Z
M113.36 10.08
C113.18 10.08 113.03 10.15 112.90 10.27
C112.78 10.39 112.71 10.55 112.71 10.73
C112.71 10.91 112.78 11.06 112.90 11.19
C113.03 11.31 113.18 11.38 113.36 11.38
C113.54 11.38 113.69 11.31 113.82 11.19
C113.94 11.06 114.00 10.91 114.00 10.73
C114.00 10.55 113.94 10.40 113.82 10.27
C113.69 10.15 113.54 10.08 113.36 10.08
Z
M125.26 10.08
C125.09 10.08 124.93 10.15 124.81 10.27
C124.68 10.39 124.62 10.55 124.62 10.73
C124.62 10.91 124.68 11.06 124.81 11.19
C124.93 11.31 125.09 11.38 125.26 11.38
C125.44 11.38 125.59 11.31 125.72 11.19
C125.85 11.06 125.91 10.91 125.91 10.73
C125.91 10.55 125.85 10.40 125.72 10.27
C125.60 10.15 125.45 10.08 125.26 10.08
Z
" fill="black" fill-rule="nonzero" />
</g>
</g>
</svg>
