<?xml version="1.0" encoding="utf-8" standalone="no"?>
<!DOCTYPE svg PUBLIC "-//W3C//DTD SVG 1.0//EN" "http://www.w3.org/TR/SVG/DTD/svg11.dtd" >
<svg version="1.1" baseProfile="full"  width="319.13385" height="338.46454" viewBox="0 0 229.77638 243.69449" preserveAspectRatio="xMidYMid" xmlns="http://www.w3.org/2000/svg" >

<g lengthAdjust="spacingAndGlyphs" xml:space='preserve' >
<g  transform="translate(1.19,1.19)" >
<path d="
M0.0 0.0
L0.0 227.39
L227.39 227.39
L227.39 0.0
Z
" fill="none" fill-rule="nonzero" />
<line x1="6.54" y1="6.54" x2="6.54" y2="220.84" fill="none" stroke="black" stroke-width="0.87px" stroke-linecap="square" />
<line x1="18.45" y1="6.54" x2="18.45" y2="220.84" fill="none" stroke="black" stroke-width="0.25px" stroke-linecap="butt" />
<line x1="30.35" y1="6.54" x2="30.35" y2="220.84" fill="none" stroke="black" stroke-width="0.25px" stroke-linecap="butt" />
<line x1="42.26" y1="6.54" x2="42.26" y2="220.84" fill="none" stroke="black" stroke-width="0.25px" stroke-linecap="butt" />
<line x1="54.17" y1="6.54" x2="54.17" y2="220.84" fill="none" stroke="black" stroke-width="0.25px" stroke-linecap="butt" />
<line x1="66.07" y1="6.54" x2="66.07" y2="220.84" fill="none" stroke="black" stroke-width="0.25px" stroke-linecap="butt" />
<line x1="77.98" y1="6.54" x2="77.98" y2="220.84" fill="none" stroke="black" stroke-width="0.25px" stroke-linecap="butt" />
<line x1="89.88" y1="6.54" x2="89.88" y2="220.84" fill="none" stroke="black" stroke-width="0.25px" stroke-linecap="butt" />
<line x1="101.79" y1="6.54" x2="101.79" y2="220.84" fill="none" stroke="black" stroke-width="0.25px" stroke-linecap="butt" />
<line x1="113.69" y1="6.54" x2="113.69" y2="220.84" fill="none" stroke="black" stroke-width="0.25px" stroke-linecap="butt" />
<line x1="125.60" y1="6.54" x2="125.60" y2="220.84" fill="none" stroke="black" stroke-width="0.25px" stroke-linecap="butt" />
<line x1="137.50" y1="6.54" x2="137.50" y2="220.84" fill="none" stroke="black" stroke-width="0.25px" stroke-linecap="butt" />
<line x1="149.41" y1="6.54" x2="149.41" y2="220.84" fill="none" stroke="black" stroke-width="0.25px" stroke-linecap="butt" />
<line x1="161.31" y1="6.54" x2="161.31" y2="220.84" fill="none" stroke="black" stroke-width="0.25px" stroke-linecap="butt" />
<line x1="173.22" y1="6.54" x2="173.22" y2="220.84" fill="none" stroke="black" stroke-width="0.25px" stroke-linecap="butt" />
<line x1="185.13" y1="6.54" x2="185.13" y2="220.84" fill="none" stroke="black" stroke-width="0.25px" stroke-linecap="butt" />
<line x1="197.03" y1="6.54" x2="197.03" y2="220.84" fill="none" stroke="black" stroke-width="0.25px" stroke-linecap="butt" />
<line x1="208.94" y1="6.54" x2="208.94" y2="220.84" fill="none" stroke="black" stroke-width="0.25px" stroke-linecap="butt" />
<line x1="220.84" y1="6.54" x2="220.84" y2="220.84" fill="none" stroke="black" stroke-width="0.87px" stroke-linecap="square" />
<line x1="6.54" y1="6.54" x2="220.84" y2="6.54" fill="none" stroke="black" stroke-width="0.87px" stroke-linecap="square" />
<line x1="6.54" y1="18.45" x2="220.84" y2="18.45" fill="none" stroke="black" stroke-width="0.25px" stroke-linecap="butt" />
<line x1="6.54" y1="30.35" x2="220.84" y2="30.35" fill="none" stroke="black" stroke-width="0.25px" stroke-linecap="butt" />
<line x1="6.54" y1="42.26" x2="220.84" y2="42.26" fill="none" stroke="black" stroke-width="0.25px" stroke-linecap="butt" />
<line x1="6.54" y1="54.17" x2="220.84" y2="54.17" fill="none" stroke="black" stroke-width="0.25px" stroke-linecap="butt" />
<line x1="6.54" y1="66.07" x2="220.84" y2="66.07" fill="none" stroke="black" stroke-width="0.25px" stroke-linecap="butt" />
<line x1="6.54" y1="77.98" x2="220.84" y2="77.98" fill="none" stroke="black" stroke-width="0.25px" stroke-linecap="butt" />
<line x1="6.54" y1="89.88" x2="220.84" y2="89.88" fill="none" stroke="black" stroke-width="0.25px" stroke-linecap="butt" />
<line x1="6.54" y1="101.79" x2="220.84" y2="101.79" fill="none" stroke="black" stroke-width="0.25px" stroke-linecap="butt" />
<line x1="6.54" y1="113.69" x2="220.84" y2="113.69" fill="none" stroke="black" stroke-width="0.25px" stroke-linecap="butt" />
<line x1="6.54" y1="125.60" x2="220.84" y2="125.60" fill="none" stroke="black" stroke-width="0.25px" stroke-linecap="butt" />
<line x1="6.54" y1="137.50" x2="220.84" y2="137.50" fill="none" stroke="black" stroke-width="0.25px" stroke-linecap="butt" />
<line x1="6.54" y1="149.41" x2="220.84" y2="149.41" fill="none" stroke="black" stroke-width="0.25px" stroke-linecap="butt" />
<line x1="6.54" y1="161.31" x2="220.84" y2="161.31" fill="none" stroke="black" stroke-width="0.25px" stroke-linecap="butt" />
<line x1="6.54" y1="173.22" x2="220.84" y2="173.22" fill="none" stroke="black" stroke-width="0.25px" stroke-linecap="butt" />
<line x1="6.54" y1="185.13" x2="220.84" y2="185.13" fill="none" stroke="black" stroke-width="0.25px" stroke-linecap="butt" />
<line x1="6.54" y1="197.03" x2="220.84" y2="197.03" fill="none" stroke="black" stroke-width="0.25px" stroke-linecap="butt" />
<line x1="6.54" y1="208.94" x2="220.84" y2="208.94" fill="none" stroke="black" stroke-width="0.25px" stroke-linecap="butt" />
<line x1="6.54" y1="220.84" x2="220.84" y2="220.84" fill="none" stroke="black" stroke-width="0.87px" stroke-linecap="square" />
<circle cx="30.35" cy="161.31" r="5.85" fill="white"/>
<circle cx="30.35" cy="161.31" r="5.85" fill="none" stroke="black" stroke-width="0.25px"/>
<circle cx="42.26" cy="42.26" r="5.85" fill="white"/>
<circle cx="42.26" cy="42.26" r="5.85" fill="none" stroke="black" stroke-width="0.25px"/>
<circle cx="42.26" cy="113.69" r="1.27" fill="black"/>
<circle cx="42.26" cy="185.13" r="5.85" fill="white"/>
<circle cx="42.26" cy="185.13" r="5.85" fill="none" stroke="black" stroke-width="0.25px"/>
<circle cx="66.07" cy="197.03" r="5.98" fill="black"/>
<circle cx="101.79" cy="185.13" r="5.98" fill="black"/>
<circle cx="113.69" cy="42.26" r="1.27" fill="black"/>
<circle cx="113.69" cy="113.69" r="1.27" fill="black"/>
<circle cx="113.69" cy="185.13" r="1.27" fill="black"/>
<circle cx="161.31" cy="54.17" r="5.98" fill="black"/>
<circle cx="173.22" cy="77.98" r="5.98" fill="black"/>
<circle cx="173.22" cy="89.88" r="5.98" fill="black"/>
<circle cx="173.22" cy="101.79" r="5.98" fill="black"/>
<circle cx="173.22" cy="113.69" r="5.98" fill="black"/>
<circle cx="173.22" cy="125.60" r="5.98" fill="black"/>
<circle cx="185.13" cy="42.26" r="5.98" fill="black"/>
<circle cx="185.13" cy="66.07" r="5.85" fill="white"/>
<circle cx="185.13" cy="66.07" r="5.85" fill="none" stroke="black" stroke-width="0.25px"/>
<circle cx="185.13" cy="77.98" r="5.85" fill="white"/>
<circle cx="185.13" cy="77.98" r="5.85" fill="none" stroke="black" stroke-width="0.25px"/>
<circle cx="185.13" cy="89.88" r="5.85" fill="white"/>
<circle cx="185.13" cy="89.88" r="5.85" fill="none" stroke="black" stroke-width="0.25px"/>
<circle cx="185.13" cy="101.79" r="5.85" fill="white"/>
<circle cx="185.13" cy="101.79" r="5.85" fill="none" stroke="black" stroke-width="0.25px"/>
<circle cx="185.13" cy="113.69" r="5.85" fill="white"/>
<circle cx="185.13" cy="113.69" r="5.85" fill="none" stroke="black" stroke-width="0.25px"/>
<circle cx="185.13" cy="125.60" r="5.98" fill="black"/>
<circle cx="185.13" cy="149.41" r="5.98" fill="black"/>
<circle cx="185.13" cy="161.31" r="5.98" fill="black"/>
<circle cx="185.13" cy="173.22" r="5.98" fill="black"/>
<circle cx="185.13" cy="185.13" r="1.27" fill="black"/>
<circle cx="185.13" cy="197.03" r="5.98" fill="black"/>
<circle cx="197.03" cy="125.60" r="5.85" fill="white"/>
<circle cx="197.03" cy="125.60" r="5.85" fill="none" stroke="black" stroke-width="0.25px"/>
<circle cx="197.03" cy="137.50" r="5.85" fill="white"/>
<circle cx="197.03" cy="137.50" r="5.85" fill="none" stroke="black" stroke-width="0.25px"/>
<circle cx="197.03" cy="149.41" r="5.85" fill="white"/>
<circle cx="197.03" cy="149.41" r="5.85" fill="none" stroke="black" stroke-width="0.25px"/>
<circle cx="197.03" cy="161.31" r="5.85" fill="white"/>
<circle cx="197.03" cy="161.31" r="5.85" fill="none" stroke="black" stroke-width="0.25px"/>
<circle cx="208.94" cy="185.13" r="5.85" fill="white"/>
<circle cx="208.94" cy="185.13" r="5.85" fill="none" stroke="black" stroke-width="0.25px"/>
<path d="
M30.36 160.99
C30.68 160.99 30.94 161.12 31.16 161.40
C31.38 161.67 31.49 162.06 31.49 162.56
C31.49 163.07 31.38 163.47 31.16 163.76
C30.94 164.05 30.69 164.20 30.41 164.20
C30.10 164.20 29.82 164.04 29.58 163.73
C29.34 163.43 29.22 163.02 29.22 162.51
C29.22 162.04 29.33 161.67 29.56 161.40
C29.79 161.12 30.06 160.99 30.36 160.99
Z
M30.47 157.72
C29.86 157.72 29.37 158.01 28.98 158.59
C28.59 159.17 28.40 160.13 28.40 161.49
C28.40 162.72 28.59 163.60 28.97 164.12
C29.34 164.64 29.82 164.91 30.41 164.91
C30.73 164.91 31.03 164.82 31.30 164.63
C31.56 164.45 31.78 164.17 31.96 163.79
C32.13 163.40 32.21 162.98 32.21 162.51
C32.21 161.81 32.04 161.26 31.70 160.84
C31.36 160.43 30.96 160.22 30.50 160.22
C30.23 160.22 29.97 160.30 29.72 160.46
C29.47 160.62 29.27 160.85 29.11 161.16
C29.11 160.29 29.22 159.64 29.43 159.20
C29.68 158.69 30.01 158.43 30.43 158.43
C30.69 158.43 30.92 158.54 31.11 158.77
C31.24 158.92 31.34 159.18 31.41 159.54
L32.11 159.47
C32.05 158.90 31.87 158.47 31.57 158.17
C31.28 157.87 30.91 157.72 30.47 157.72
Z
" fill="black" fill-rule="nonzero" />
<path d="
M42.27 38.73
C41.73 38.73 41.30 38.90 40.97 39.24
C40.64 39.58 40.44 40.09 40.39 40.76
L41.12 40.85
C41.12 40.40 41.23 40.05 41.44 39.81
C41.65 39.56 41.92 39.44 42.25 39.44
C42.56 39.44 42.82 39.55 43.03 39.78
C43.23 40.01 43.34 40.30 43.34 40.66
C43.34 40.97 43.24 41.30 43.03 41.66
C42.83 42.02 42.39 42.53 41.73 43.19
C41.17 43.76 40.78 44.25 40.56 44.66
C40.35 45.08 40.25 45.46 40.26 45.79
L44.07 45.79
L44.07 44.96
L41.24 44.96
C41.32 44.81 41.42 44.65 41.54 44.49
C41.67 44.33 41.94 44.04 42.36 43.61
C43.02 42.92 43.47 42.38 43.71 41.96
C43.95 41.55 44.06 41.12 44.06 40.68
C44.06 40.17 43.91 39.72 43.61 39.32
C43.31 38.93 42.86 38.73 42.27 38.73
Z
" fill="black" fill-rule="nonzero" />
<path d="
M42.61 182.99
L42.61 186.17
L40.81 186.17
L42.61 182.99
Z
M42.74 181.61
L40.11 186.17
L40.11 186.96
L42.61 186.96
L42.61 188.64
L43.32 188.64
L43.32 186.96
L44.10 186.96
L44.10 186.17
L43.32 186.17
L43.32 181.61
Z
" fill="black" fill-rule="nonzero" />
<path d="
M65.29 195.90
L65.29 195.90
L65.29 195.90
C65.29 195.90 65.29 195.90 65.29 195.90
Z
M64.72 193.36
L64.70 193.48
L64.14 197.09
L64.11 197.23
L64.25 197.26
L64.92 197.36
L65.02 197.38
L65.07 197.28
C65.17 197.09 65.30 196.94 65.46 196.84
C65.63 196.73 65.80 196.68 65.99 196.68
C65.99 196.68 65.99 196.68 65.99 196.68
C65.99 196.68 65.99 196.68 65.99 196.68
C66.30 196.68 66.56 196.80 66.77 197.05
C66.98 197.30 67.09 197.66 67.09 198.12
C67.09 198.62 66.97 199.02 66.75 199.30
C66.54 199.57 66.29 199.71 66.00 199.71
C66.00 199.71 66.00 199.71 65.99 199.71
C65.99 199.71 65.99 199.71 65.99 199.71
C65.76 199.71 65.56 199.61 65.39 199.43
C65.21 199.23 65.09 198.92 65.04 198.50
L65.02 198.37
L64.88 198.38
L64.14 198.46
L64.00 198.47
L64.01 198.61
C64.06 199.26 64.27 199.77 64.64 200.14
C65.01 200.52 65.47 200.70 66.00 200.70
C66.65 200.70 67.17 200.44 67.56 199.91
C67.93 199.39 68.12 198.77 68.12 198.06
C68.12 197.32 67.93 196.74 67.55 196.30
C67.16 195.86 66.71 195.64 66.18 195.63
C65.87 195.63 65.57 195.72 65.29 195.90
L65.29 195.90
L65.52 194.47
L67.84 194.47
L67.84 194.33
L67.84 193.50
L67.84 193.36
Z
" fill="white" fill-rule="nonzero" />
<path d="
M99.77 181.51
L99.77 181.65
L99.77 182.48
L99.77 182.63
L102.47 182.63
C102.16 183.09 101.87 183.62 101.60 184.24
C101.29 184.96 101.04 185.72 100.86 186.51
C100.68 187.30 100.59 188.00 100.58 188.60
L100.58 188.74
L101.45 188.74
L101.59 188.74
L101.59 188.61
C101.66 187.48 101.90 186.35 102.31 185.20
C102.73 184.05 103.21 183.12 103.76 182.41
L103.79 182.37
L103.79 182.33
L103.79 181.65
L103.79 181.51
Z
" fill="white" fill-rule="nonzero" />
<path d="
M159.51 50.45
C159.03 50.45 158.64 50.64 158.34 51.02
C158.05 51.39 157.89 51.93 157.85 52.64
L157.84 52.77
L157.97 52.79
L158.56 52.88
L158.72 52.91
L158.72 52.74
C158.72 52.31 158.80 51.99 158.95 51.76
C159.09 51.56 159.27 51.45 159.49 51.45
C159.49 51.45 159.49 51.45 159.49 51.45
C159.49 51.45 159.49 51.45 159.50 51.45
C159.70 51.45 159.87 51.55 160.01 51.74
C160.16 51.94 160.23 52.21 160.23 52.54
C160.23 52.84 160.15 53.16 160.00 53.50
C159.84 53.86 159.49 54.36 158.96 55.02
C158.49 55.60 158.17 56.11 157.99 56.55
C157.81 56.98 157.73 57.38 157.74 57.74
L157.74 57.88
L161.11 57.88
L161.11 57.74
L161.11 56.90
L161.11 56.76
L158.89 56.76
C158.94 56.67 158.98 56.59 159.04 56.50
C159.14 56.35 159.35 56.05 159.69 55.62
C160.24 54.92 160.61 54.35 160.80 53.93
C161.00 53.49 161.10 53.04 161.10 52.56
C161.10 52.02 160.97 51.54 160.71 51.12
C160.44 50.67 160.04 50.45 159.51 50.45
Z
M161.47 50.57
L161.47 50.71
L161.47 51.55
L161.47 51.69
L163.66 51.69
C163.41 52.16 163.17 52.71 162.95 53.34
C162.70 54.07 162.50 54.83 162.35 55.63
C162.21 56.43 162.13 57.14 162.13 57.74
L162.12 57.88
L162.86 57.88
L162.99 57.88
L163.00 57.75
C163.05 56.61 163.25 55.45 163.58 54.29
C163.92 53.13 164.31 52.19 164.76 51.47
L164.78 51.43
L164.78 51.39
L164.78 50.71
L164.78 50.57
Z
" fill="white" fill-rule="nonzero" />
<path d="
M174.43 76.86
L174.43 76.86
L174.43 76.86
C174.43 76.86 174.43 76.86 174.43 76.86
Z
M171.42 74.20
C170.93 74.20 170.54 74.39 170.25 74.77
C169.96 75.14 169.80 75.68 169.75 76.39
L169.74 76.52
L169.87 76.54
L170.46 76.63
L170.63 76.66
L170.63 76.49
C170.63 76.06 170.70 75.74 170.86 75.51
C171.00 75.31 171.18 75.21 171.39 75.21
C171.39 75.21 171.40 75.21 171.40 75.21
C171.40 75.21 171.40 75.21 171.40 75.21
C171.60 75.21 171.77 75.30 171.91 75.49
C172.06 75.69 172.14 75.96 172.14 76.29
C172.14 76.59 172.06 76.91 171.90 77.25
C171.74 77.61 171.40 78.11 170.87 78.77
C170.40 79.35 170.08 79.86 169.90 80.30
C169.72 80.74 169.63 81.13 169.64 81.49
L169.65 81.63
L173.02 81.63
L173.02 81.49
L173.02 80.65
L173.02 80.51
L170.80 80.51
C170.84 80.42 170.89 80.34 170.94 80.25
C171.04 80.10 171.26 79.80 171.60 79.37
C172.14 78.67 172.51 78.10 172.71 77.68
C172.91 77.24 173.01 76.79 173.01 76.31
C173.01 75.77 172.88 75.29 172.62 74.87
C172.35 74.42 171.95 74.20 171.42 74.20
Z
M173.91 74.32
L173.90 74.45
L173.44 78.11
L173.42 78.24
L173.55 78.26
L174.09 78.37
L174.21 78.39
L174.25 78.28
C174.33 78.09 174.44 77.94 174.57 77.83
C174.70 77.73 174.83 77.68 174.97 77.68
C174.97 77.68 174.97 77.68 174.97 77.68
C174.97 77.68 174.97 77.68 174.97 77.68
C175.21 77.68 175.41 77.80 175.57 78.04
C175.74 78.30 175.83 78.67 175.83 79.14
C175.83 79.66 175.74 80.06 175.56 80.35
C175.39 80.62 175.20 80.75 174.98 80.75
C174.98 80.75 174.97 80.75 174.97 80.75
C174.97 80.75 174.97 80.75 174.97 80.75
C174.80 80.75 174.65 80.66 174.51 80.48
C174.36 80.28 174.27 79.96 174.22 79.53
L174.21 79.39
L174.06 79.41
L173.46 79.48
L173.33 79.50
L173.34 79.63
C173.38 80.29 173.55 80.80 173.85 81.17
C174.15 81.56 174.53 81.75 174.98 81.75
C175.52 81.75 175.95 81.48 176.27 80.94
C176.57 80.42 176.72 79.80 176.72 79.08
C176.72 78.34 176.57 77.75 176.26 77.31
C175.94 76.86 175.56 76.63 175.12 76.63
C174.88 76.63 174.65 76.71 174.43 76.86
L174.43 76.86
L174.62 75.44
L176.50 75.44
L176.50 75.30
L176.50 74.47
L176.50 74.32
Z
" fill="white" fill-rule="nonzero" />
<path d="
M171.42 86.10
C170.93 86.10 170.54 86.29 170.25 86.67
C169.96 87.04 169.80 87.58 169.75 88.29
L169.74 88.42
L169.87 88.44
L170.46 88.54
L170.63 88.56
L170.63 88.40
C170.63 87.96 170.70 87.64 170.86 87.42
C171.00 87.21 171.18 87.11 171.39 87.11
C171.39 87.11 171.40 87.11 171.40 87.11
C171.40 87.11 171.40 87.11 171.40 87.11
C171.60 87.11 171.77 87.20 171.91 87.39
C172.06 87.60 172.14 87.86 172.14 88.20
C172.14 88.49 172.06 88.81 171.90 89.16
C171.74 89.51 171.40 90.01 170.87 90.67
C170.40 91.26 170.08 91.77 169.90 92.20
C169.72 92.64 169.63 93.04 169.64 93.40
L169.65 93.54
L173.02 93.54
L173.02 93.39
L173.02 92.55
L173.02 92.41
L170.80 92.41
C170.84 92.33 170.89 92.24 170.94 92.15
C171.04 92.00 171.26 91.70 171.60 91.27
C172.14 90.57 172.51 90.01 172.71 89.58
C172.91 89.14 173.01 88.69 173.01 88.22
C173.01 87.68 172.88 87.20 172.62 86.77
C172.35 86.33 171.95 86.10 171.42 86.10
Z
M174.95 86.10
C174.55 86.10 174.21 86.27 173.92 86.62
C173.65 86.95 173.48 87.44 173.40 88.07
L173.39 88.19
L173.51 88.23
L174.08 88.38
L174.24 88.43
L174.26 88.26
C174.29 87.85 174.38 87.55 174.52 87.36
C174.64 87.19 174.79 87.10 174.96 87.10
C174.96 87.10 174.96 87.10 174.96 87.10
C174.96 87.10 174.96 87.10 174.96 87.10
C175.13 87.10 175.27 87.19 175.39 87.35
C175.52 87.53 175.58 87.77 175.58 88.07
C175.58 88.40 175.50 88.66 175.35 88.85
C175.20 89.03 175.01 89.12 174.78 89.12
L174.78 89.12
L174.70 89.11
L174.55 89.10
L174.54 89.24
L174.47 90.01
L174.45 90.24
L174.67 90.15
C174.81 90.10 174.93 90.07 175.02 90.07
C175.02 90.07 175.02 90.07 175.02 90.07
C175.02 90.07 175.02 90.07 175.02 90.07
C175.23 90.07 175.41 90.17 175.55 90.39
C175.71 90.61 175.79 90.92 175.79 91.31
C175.79 91.72 175.70 92.05 175.53 92.30
C175.37 92.54 175.18 92.65 174.97 92.65
C174.97 92.65 174.97 92.65 174.97 92.65
C174.96 92.65 174.96 92.65 174.96 92.65
C174.77 92.65 174.62 92.56 174.49 92.37
C174.36 92.15 174.26 91.82 174.20 91.38
L174.18 91.23
L174.03 91.26
L173.46 91.38
L173.34 91.40
L173.34 91.52
C173.38 92.16 173.55 92.68 173.85 93.06
C174.15 93.46 174.53 93.66 174.97 93.66
C175.45 93.66 175.86 93.43 176.19 92.98
C176.52 92.54 176.68 91.98 176.69 91.29
C176.69 90.97 176.65 90.68 176.57 90.41
C176.49 90.15 176.38 89.93 176.24 89.77
C176.16 89.66 176.05 89.57 175.94 89.50
L175.94 89.50
C176.07 89.37 176.19 89.20 176.27 89.01
C176.40 88.74 176.46 88.43 176.46 88.09
C176.46 87.53 176.31 87.06 176.03 86.68
C175.74 86.30 175.38 86.10 174.95 86.10
Z
" fill="white" fill-rule="nonzero" />
<path d="
M171.42 98.07
C170.93 98.07 170.54 98.26 170.25 98.64
C169.96 99.01 169.80 99.55 169.75 100.26
L169.74 100.39
L169.87 100.41
L170.46 100.50
L170.63 100.53
L170.63 100.36
C170.63 99.93 170.70 99.61 170.86 99.39
C171.00 99.18 171.18 99.08 171.39 99.08
C171.39 99.08 171.40 99.08 171.40 99.08
C171.40 99.08 171.40 99.08 171.40 99.08
C171.60 99.08 171.77 99.17 171.91 99.36
C172.06 99.57 172.14 99.83 172.14 100.16
C172.14 100.46 172.06 100.78 171.90 101.12
C171.74 101.48 171.40 101.98 170.87 102.64
C170.40 103.22 170.08 103.73 169.90 104.17
C169.72 104.61 169.63 105.01 169.64 105.37
L169.65 105.50
L173.02 105.50
L173.02 105.36
L173.02 104.52
L173.02 104.38
L170.80 104.38
C170.84 104.29 170.89 104.21 170.94 104.12
C171.04 103.97 171.26 103.67 171.60 103.24
C172.14 102.54 172.51 101.97 172.71 101.55
C172.91 101.11 173.01 100.66 173.01 100.18
C173.01 99.65 172.88 99.16 172.62 98.74
C172.35 98.29 171.95 98.07 171.42 98.07
Z
M175.16 98.07
L175.13 98.17
C175.04 98.46 174.88 98.77 174.64 99.08
C174.41 99.40 174.14 99.67 173.84 99.88
L173.78 99.93
L173.78 100.00
L173.78 100.84
L173.78 101.09
L173.99 100.97
C174.18 100.86 174.40 100.70 174.63 100.49
C174.74 100.39 174.84 100.29 174.92 100.20
L174.92 100.20
L174.92 105.36
L174.92 105.50
L175.78 105.50
L175.78 105.36
L175.78 98.21
L175.78 98.07
Z
" fill="white" fill-rule="nonzero" />
<path d="
M175.02 110.92
C175.02 110.92 175.02 110.92 175.02 110.92
C175.02 110.92 175.02 110.92 175.02 110.92
C175.21 110.92 175.37 111.05 175.53 111.29
C175.69 111.56 175.78 111.94 175.78 112.42
C175.78 112.90 175.70 113.27 175.53 113.53
C175.39 113.76 175.21 113.88 175.01 113.88
C175.01 113.88 175.01 113.88 175.01 113.88
C175.01 113.88 175.01 113.88 175.00 113.88
C174.80 113.88 174.62 113.76 174.47 113.53
C174.30 113.27 174.21 112.93 174.21 112.49
C174.21 112.00 174.30 111.61 174.48 111.32
C174.64 111.05 174.82 110.92 175.02 110.92
Z
M171.53 109.91
L171.50 110.01
C171.41 110.31 171.25 110.61 171.01 110.93
C170.78 111.24 170.51 111.51 170.21 111.73
L170.15 111.77
L170.15 111.84
L170.15 112.69
L170.15 112.93
L170.36 112.81
C170.55 112.70 170.77 112.54 171.00 112.34
C171.11 112.24 171.21 112.14 171.29 112.04
L171.29 112.04
L171.29 117.21
L171.29 117.35
L172.15 117.35
L172.15 117.21
L172.15 110.06
L172.15 109.91
Z
M174.95 109.91
C174.49 109.92 174.11 110.15 173.79 110.62
C173.49 111.07 173.34 111.69 173.34 112.46
C173.34 113.21 173.48 113.81 173.78 114.25
C174.08 114.70 174.45 114.93 174.88 114.93
C175.12 114.93 175.36 114.84 175.59 114.65
C175.68 114.58 175.76 114.49 175.83 114.40
L175.83 114.40
C175.81 114.79 175.76 115.15 175.68 115.46
C175.58 115.85 175.46 116.12 175.32 116.27
C175.19 116.40 175.05 116.47 174.90 116.47
C174.90 116.47 174.90 116.47 174.90 116.47
C174.89 116.47 174.89 116.47 174.89 116.47
C174.73 116.47 174.60 116.39 174.50 116.25
C174.38 116.08 174.30 115.82 174.26 115.47
L174.24 115.32
L174.10 115.34
L173.55 115.42
L173.41 115.44
L173.42 115.57
C173.47 116.17 173.63 116.64 173.88 116.96
C174.15 117.30 174.48 117.47 174.88 117.47
C175.24 117.47 175.55 117.33 175.83 117.06
C176.10 116.79 176.32 116.37 176.47 115.81
C176.62 115.25 176.70 114.48 176.70 113.49
C176.70 112.60 176.63 111.91 176.48 111.43
C176.34 110.94 176.13 110.57 175.86 110.31
C175.58 110.05 175.28 109.91 174.95 109.91
Z
" fill="white" fill-rule="nonzero" />
<path d="
M174.43 124.48
L174.43 124.48
L174.43 124.48
C174.43 124.48 174.43 124.48 174.43 124.48
Z
M171.53 121.82
L171.50 121.92
C171.41 122.21 171.25 122.52 171.01 122.83
C170.78 123.15 170.51 123.42 170.21 123.63
L170.15 123.68
L170.15 123.75
L170.15 124.59
L170.15 124.84
L170.36 124.72
C170.55 124.61 170.77 124.45 171.00 124.24
C171.11 124.14 171.21 124.04 171.29 123.95
L171.29 123.95
L171.29 129.11
L171.29 129.25
L172.15 129.25
L172.15 129.11
L172.15 121.96
L172.15 121.82
Z
M173.91 121.95
L173.90 122.07
L173.44 125.73
L173.42 125.86
L173.55 125.89
L174.09 125.99
L174.21 126.02
L174.25 125.91
C174.33 125.71 174.44 125.56 174.57 125.46
C174.70 125.36 174.83 125.31 174.97 125.31
C174.97 125.31 174.97 125.31 174.97 125.31
C174.97 125.31 174.97 125.31 174.97 125.31
C175.21 125.31 175.41 125.42 175.57 125.66
C175.74 125.92 175.83 126.29 175.83 126.77
C175.83 127.28 175.74 127.68 175.56 127.97
C175.39 128.24 175.20 128.37 174.98 128.37
C174.98 128.37 174.97 128.37 174.97 128.37
C174.97 128.37 174.97 128.37 174.97 128.37
C174.80 128.37 174.65 128.28 174.51 128.10
C174.36 127.90 174.27 127.58 174.22 127.16
L174.21 127.01
L174.06 127.03
L173.46 127.11
L173.33 127.12
L173.34 127.26
C173.38 127.91 173.55 128.42 173.85 128.80
C174.15 129.18 174.53 129.38 174.98 129.38
C175.52 129.37 175.95 129.10 176.27 128.56
C176.57 128.04 176.72 127.42 176.72 126.70
C176.72 125.96 176.57 125.37 176.26 124.93
C175.94 124.48 175.56 124.25 175.12 124.25
C174.88 124.25 174.65 124.33 174.43 124.48
L174.43 124.48
L174.62 123.07
L176.50 123.07
L176.50 122.92
L176.50 122.09
L176.50 121.95
Z
" fill="white" fill-rule="nonzero" />
<path d="
M185.32 38.59
L185.28 38.67
C185.17 38.97 184.97 39.27 184.68 39.58
C184.39 39.89 184.06 40.15 183.68 40.37
L183.61 40.41
L183.61 40.49
L183.61 41.33
L183.61 41.55
L183.81 41.46
C184.05 41.35 184.31 41.20 184.59 40.99
C184.75 40.87 184.90 40.75 185.02 40.64
L185.02 40.64
L185.02 45.79
L185.02 45.93
L186.02 45.93
L186.02 45.79
L186.02 38.73
L186.02 38.59
Z
" fill="white" fill-rule="nonzero" />
<path d="
M186.95 65.74
C187.20 65.74 187.42 65.88 187.59 66.16
C187.77 66.43 187.86 66.83 187.86 67.33
C187.86 67.85 187.77 68.25 187.59 68.55
C187.41 68.84 187.21 68.99 186.99 68.99
C186.73 68.99 186.51 68.83 186.31 68.52
C186.12 68.21 186.02 67.79 186.02 67.28
C186.02 66.81 186.11 66.43 186.30 66.15
C186.48 65.88 186.70 65.74 186.95 65.74
Z
M183.32 62.43
C182.88 62.43 182.53 62.61 182.26 62.95
C182.00 63.30 181.84 63.81 181.80 64.49
L182.39 64.59
C182.39 64.13 182.48 63.77 182.65 63.53
C182.82 63.28 183.04 63.16 183.30 63.16
C183.55 63.16 183.76 63.27 183.93 63.50
C184.10 63.73 184.19 64.02 184.19 64.39
C184.19 64.70 184.10 65.04 183.94 65.41
C183.77 65.77 183.42 66.29 182.88 66.95
C182.42 67.53 182.11 68.02 181.94 68.44
C181.76 68.86 181.68 69.25 181.69 69.59
L184.78 69.59
L184.78 68.75
L182.49 68.75
C182.55 68.59 182.63 68.43 182.73 68.27
C182.83 68.11 183.05 67.81 183.39 67.38
C183.93 66.68 184.29 66.13 184.48 65.71
C184.68 65.29 184.77 64.86 184.77 64.41
C184.77 63.89 184.65 63.44 184.40 63.04
C184.16 62.63 183.80 62.43 183.32 62.43
Z
M187.03 62.43
C186.54 62.43 186.14 62.73 185.83 63.31
C185.52 63.90 185.36 64.88 185.36 66.25
C185.36 67.49 185.51 68.38 185.82 68.91
C186.12 69.44 186.51 69.71 186.98 69.71
C187.25 69.71 187.49 69.61 187.70 69.43
C187.92 69.25 188.10 68.96 188.24 68.57
C188.38 68.19 188.44 67.75 188.44 67.28
C188.44 66.58 188.31 66.01 188.03 65.59
C187.76 65.18 187.43 64.97 187.06 64.97
C186.84 64.97 186.63 65.05 186.43 65.21
C186.23 65.37 186.06 65.60 185.93 65.91
C185.93 65.04 186.02 64.38 186.19 63.93
C186.40 63.41 186.66 63.15 187.00 63.15
C187.21 63.15 187.40 63.27 187.55 63.49
C187.66 63.65 187.74 63.91 187.79 64.28
L188.36 64.21
C188.31 63.63 188.17 63.19 187.93 62.89
C187.69 62.59 187.39 62.43 187.03 62.43
Z
" fill="black" fill-rule="nonzero" />
<path d="
M187.22 75.83
L187.22 79.05
L185.76 79.05
L187.22 75.83
Z
M183.32 74.40
C182.88 74.40 182.53 74.57 182.26 74.92
C182.00 75.26 181.84 75.78 181.80 76.46
L182.39 76.55
C182.39 76.09 182.48 75.74 182.65 75.49
C182.82 75.25 183.04 75.12 183.30 75.12
C183.55 75.12 183.76 75.24 183.93 75.47
C184.10 75.70 184.19 75.99 184.19 76.35
C184.19 76.67 184.10 77.01 183.94 77.37
C183.77 77.74 183.42 78.25 182.88 78.92
C182.42 79.49 182.11 79.99 181.94 80.41
C181.76 80.83 181.68 81.21 181.69 81.55
L184.78 81.55
L184.78 80.71
L182.49 80.71
C182.55 80.55 182.63 80.39 182.73 80.24
C182.83 80.08 183.05 79.78 183.39 79.34
C183.93 78.65 184.29 78.09 184.48 77.68
C184.68 77.26 184.77 76.83 184.77 76.37
C184.77 75.86 184.65 75.40 184.40 75.00
C184.16 74.60 183.80 74.40 183.32 74.40
Z
M187.33 74.43
L185.20 79.05
L185.20 79.85
L187.22 79.85
L187.22 81.55
L187.80 81.55
L187.80 79.85
L188.43 79.85
L188.43 79.05
L187.80 79.05
L187.80 74.43
Z
" fill="black" fill-rule="nonzero" />
<path d="
M183.32 86.31
C182.88 86.31 182.53 86.48 182.26 86.82
C182.00 87.17 181.84 87.68 181.80 88.37
L182.39 88.46
C182.39 88.00 182.48 87.65 182.65 87.40
C182.82 87.15 183.04 87.03 183.30 87.03
C183.55 87.03 183.76 87.14 183.93 87.37
C184.10 87.60 184.19 87.90 184.19 88.26
C184.19 88.57 184.10 88.91 183.94 89.28
C183.77 89.64 183.42 90.16 182.88 90.82
C182.42 91.40 182.11 91.89 181.94 92.32
C181.76 92.74 181.68 93.12 181.69 93.46
L184.78 93.46
L184.78 92.62
L182.49 92.62
C182.55 92.46 182.63 92.30 182.73 92.14
C182.83 91.98 183.05 91.68 183.39 91.25
C183.93 90.55 184.29 90.00 184.48 89.58
C184.68 89.17 184.77 88.73 184.77 88.28
C184.77 87.77 184.65 87.31 184.40 86.91
C184.16 86.51 183.80 86.31 183.32 86.31
Z
M186.95 86.31
C186.51 86.31 186.16 86.48 185.89 86.82
C185.63 87.17 185.47 87.68 185.43 88.37
L186.02 88.46
C186.02 88.00 186.11 87.65 186.28 87.40
C186.45 87.15 186.67 87.03 186.93 87.03
C187.18 87.03 187.39 87.14 187.56 87.37
C187.73 87.60 187.82 87.90 187.82 88.26
C187.82 88.57 187.73 88.91 187.57 89.28
C187.40 89.64 187.05 90.16 186.51 90.82
C186.05 91.40 185.74 91.89 185.57 92.32
C185.39 92.74 185.31 93.12 185.32 93.46
L188.41 93.46
L188.41 92.62
L186.12 92.62
C186.18 92.46 186.26 92.30 186.36 92.14
C186.46 91.98 186.68 91.68 187.02 91.25
C187.56 90.55 187.92 90.00 188.11 89.58
C188.31 89.17 188.40 88.73 188.40 88.28
C188.40 87.77 188.28 87.31 188.03 86.91
C187.79 86.51 187.43 86.31 186.95 86.31
Z
" fill="black" fill-rule="nonzero" />
<path d="
M186.89 98.87
C187.17 98.87 187.40 99.07 187.58 99.46
C187.75 99.85 187.84 100.63 187.84 101.79
C187.84 102.94 187.75 103.71 187.58 104.11
C187.40 104.51 187.18 104.70 186.92 104.70
C186.64 104.70 186.42 104.51 186.24 104.11
C186.06 103.72 185.97 102.95 185.97 101.79
C185.97 100.64 186.06 99.87 186.24 99.47
C186.41 99.07 186.63 98.87 186.89 98.87
Z
M183.32 98.15
C182.88 98.15 182.53 98.32 182.26 98.67
C182.00 99.01 181.84 99.53 181.80 100.21
L182.39 100.30
C182.39 99.84 182.48 99.49 182.65 99.24
C182.82 99.00 183.04 98.87 183.30 98.87
C183.55 98.87 183.76 98.99 183.93 99.22
C184.10 99.45 184.19 99.74 184.19 100.10
C184.19 100.42 184.10 100.76 183.94 101.12
C183.77 101.49 183.42 102.00 182.88 102.67
C182.42 103.24 182.11 103.74 181.94 104.16
C181.76 104.58 181.68 104.96 181.69 105.30
L184.78 105.30
L184.78 104.46
L182.49 104.46
C182.55 104.30 182.63 104.14 182.73 103.99
C182.83 103.83 183.05 103.53 183.39 103.09
C183.93 102.40 184.29 101.84 184.48 101.43
C184.68 101.01 184.77 100.58 184.77 100.12
C184.77 99.61 184.65 99.15 184.40 98.75
C184.16 98.35 183.80 98.15 183.32 98.15
Z
M186.91 98.15
C186.41 98.15 186.03 98.46 185.77 99.07
C185.52 99.69 185.39 100.59 185.39 101.79
C185.39 103.12 185.53 104.06 185.81 104.61
C186.10 105.15 186.46 105.42 186.91 105.42
C187.41 105.42 187.79 105.12 188.05 104.50
C188.31 103.88 188.43 102.98 188.43 101.79
C188.43 100.46 188.28 99.50 187.97 98.90
C187.71 98.40 187.36 98.15 186.91 98.15
Z
" fill="black" fill-rule="nonzero" />
<path d="
M186.95 113.36
C187.20 113.36 187.42 113.50 187.59 113.78
C187.77 114.06 187.86 114.45 187.86 114.95
C187.86 115.47 187.77 115.87 187.59 116.17
C187.41 116.46 187.21 116.61 186.99 116.61
C186.73 116.61 186.51 116.45 186.31 116.14
C186.12 115.83 186.02 115.41 186.02 114.90
C186.02 114.43 186.11 114.05 186.30 113.78
C186.48 113.50 186.70 113.36 186.95 113.36
Z
M183.54 110.06
C183.45 110.37 183.28 110.69 183.03 111.01
C182.79 111.34 182.51 111.62 182.20 111.84
L182.20 112.69
C182.38 112.59 182.59 112.43 182.81 112.23
C183.03 112.03 183.21 111.83 183.34 111.64
L183.34 117.21
L183.92 117.21
L183.92 110.06
Z
M187.03 110.06
C186.54 110.06 186.14 110.35 185.83 110.93
C185.52 111.52 185.36 112.50 185.36 113.87
C185.36 115.12 185.51 116.00 185.82 116.53
C186.12 117.06 186.51 117.33 186.98 117.33
C187.25 117.33 187.49 117.24 187.70 117.05
C187.92 116.87 188.10 116.58 188.24 116.19
C188.38 115.81 188.44 115.38 188.44 114.90
C188.44 114.20 188.31 113.64 188.03 113.22
C187.76 112.80 187.43 112.59 187.06 112.59
C186.84 112.59 186.63 112.67 186.43 112.83
C186.23 112.99 186.06 113.22 185.93 113.53
C185.93 112.66 186.02 112.00 186.19 111.55
C186.40 111.03 186.66 110.78 187.00 110.78
C187.21 110.78 187.40 110.89 187.55 111.12
C187.66 111.27 187.74 111.53 187.79 111.90
L188.36 111.83
C188.31 111.25 188.17 110.81 187.93 110.51
C187.69 110.21 187.39 110.06 187.03 110.06
Z
" fill="black" fill-rule="nonzero" />
<path d="
M183.44 121.88
L183.41 121.98
C183.32 122.28 183.15 122.58 182.92 122.90
C182.69 123.21 182.42 123.48 182.11 123.69
L182.05 123.74
L182.05 123.81
L182.05 124.66
L182.05 124.90
L182.26 124.78
C182.46 124.67 182.67 124.51 182.90 124.30
C183.01 124.20 183.11 124.10 183.20 124.01
L183.20 124.01
L183.20 129.17
L183.20 129.32
L184.06 129.32
L184.06 129.17
L184.06 122.02
L184.06 121.88
Z
M185.28 122.00
L185.28 122.14
L185.28 122.98
L185.28 123.13
L187.47 123.13
C187.22 123.59 186.98 124.14 186.76 124.77
C186.51 125.50 186.31 126.26 186.17 127.06
C186.02 127.87 185.94 128.57 185.94 129.17
L185.93 129.32
L186.67 129.32
L186.80 129.32
L186.81 129.18
C186.86 128.04 187.06 126.89 187.40 125.72
C187.73 124.56 188.13 123.62 188.57 122.90
L188.59 122.86
L188.59 122.82
L188.59 122.14
L188.59 122.00
Z
" fill="white" fill-rule="nonzero" />
<path d="
M183.44 145.63
L183.41 145.73
C183.32 146.02 183.15 146.33 182.92 146.64
C182.69 146.96 182.42 147.22 182.11 147.44
L182.05 147.49
L182.05 147.56
L182.05 148.40
L182.05 148.64
L182.26 148.53
C182.46 148.42 182.67 148.26 182.90 148.05
C183.01 147.95 183.11 147.85 183.20 147.76
L183.20 147.76
L183.20 152.92
L183.20 153.06
L184.06 153.06
L184.06 152.92
L184.06 145.77
L184.06 145.63
Z
M186.86 145.63
C186.45 145.63 186.11 145.80 185.83 146.15
C185.56 146.48 185.38 146.96 185.31 147.60
L185.29 147.72
L185.41 147.75
L185.98 147.91
L186.14 147.95
L186.16 147.79
C186.20 147.38 186.29 147.08 186.42 146.89
C186.55 146.72 186.69 146.63 186.86 146.63
C186.86 146.63 186.87 146.63 186.87 146.63
C186.87 146.63 186.87 146.63 186.87 146.63
C187.03 146.63 187.17 146.71 187.29 146.88
C187.42 147.05 187.49 147.29 187.49 147.60
C187.49 147.93 187.41 148.19 187.25 148.38
C187.11 148.56 186.92 148.65 186.68 148.65
L186.68 148.65
L186.60 148.64
L186.46 148.63
L186.45 148.77
L186.38 149.54
L186.36 149.77
L186.57 149.68
C186.72 149.62 186.83 149.59 186.93 149.59
C186.93 149.59 186.93 149.59 186.93 149.59
C186.93 149.59 186.93 149.59 186.93 149.59
C187.14 149.59 187.31 149.70 187.46 149.91
C187.62 150.14 187.70 150.45 187.70 150.83
C187.70 151.24 187.61 151.58 187.43 151.83
C187.27 152.06 187.09 152.18 186.87 152.18
C186.87 152.18 186.87 152.18 186.87 152.18
C186.87 152.18 186.87 152.18 186.87 152.18
C186.68 152.18 186.52 152.09 186.40 151.90
C186.26 151.68 186.16 151.35 186.11 150.91
L186.09 150.76
L185.94 150.79
L185.36 150.90
L185.24 150.93
L185.25 151.05
C185.29 151.69 185.46 152.20 185.75 152.59
C186.06 152.99 186.43 153.19 186.88 153.19
C187.36 153.19 187.76 152.96 188.10 152.51
C188.43 152.07 188.59 151.50 188.59 150.82
C188.59 150.50 188.55 150.20 188.47 149.94
C188.39 149.67 188.28 149.46 188.15 149.30
C188.06 149.19 187.96 149.10 187.84 149.03
L187.84 149.03
C187.98 148.89 188.09 148.73 188.18 148.53
C188.30 148.27 188.36 147.96 188.36 147.62
C188.36 147.05 188.22 146.58 187.94 146.21
C187.64 145.82 187.28 145.63 186.86 145.63
Z
" fill="white" fill-rule="nonzero" />
<path d="
M183.44 157.60
L183.41 157.70
C183.32 157.99 183.15 158.30 182.92 158.61
C182.69 158.93 182.42 159.19 182.11 159.41
L182.05 159.45
L182.05 159.53
L182.05 160.37
L182.05 160.61
L182.26 160.50
C182.46 160.39 182.67 160.23 182.90 160.02
C183.01 159.92 183.11 159.82 183.20 159.72
L183.20 159.72
L183.20 164.89
L183.20 165.03
L184.06 165.03
L184.06 164.89
L184.06 157.74
L184.06 157.60
Z
M187.07 157.60
L187.04 157.70
C186.95 157.99 186.78 158.30 186.55 158.61
C186.32 158.93 186.05 159.19 185.74 159.41
L185.68 159.45
L185.68 159.53
L185.68 160.37
L185.68 160.61
L185.89 160.50
C186.09 160.39 186.30 160.23 186.53 160.02
C186.64 159.92 186.74 159.82 186.83 159.72
L186.83 159.72
L186.83 164.89
L186.83 165.03
L187.69 165.03
L187.69 164.89
L187.69 157.74
L187.69 157.60
Z
" fill="white" fill-rule="nonzero" />
<path d="
M185.10 170.48
C185.10 170.48 185.11 170.48 185.11 170.48
C185.11 170.48 185.11 170.48 185.11 170.48
C185.35 170.48 185.57 170.61 185.77 170.86
C185.97 171.12 186.07 171.49 186.07 171.96
C186.07 172.43 185.98 172.79 185.78 173.04
C185.59 173.28 185.36 173.40 185.10 173.40
C185.09 173.40 185.09 173.40 185.09 173.40
C185.09 173.40 185.09 173.40 185.09 173.40
C184.82 173.40 184.58 173.28 184.39 173.04
C184.18 172.80 184.08 172.46 184.08 172.03
C184.08 171.55 184.19 171.17 184.41 170.89
C184.61 170.62 184.85 170.48 185.10 170.48
Z
M185.03 169.49
C184.48 169.49 184.01 169.72 183.63 170.17
C183.25 170.62 183.06 171.23 183.06 172.00
C183.06 172.75 183.25 173.34 183.61 173.78
C183.98 174.23 184.42 174.45 184.93 174.45
C185.22 174.45 185.50 174.36 185.78 174.18
C185.91 174.08 186.04 173.98 186.14 173.85
L186.14 173.85
C186.12 174.27 186.06 174.63 185.96 174.95
C185.83 175.34 185.68 175.61 185.51 175.75
C185.34 175.89 185.16 175.96 184.95 175.96
C184.95 175.96 184.95 175.96 184.95 175.96
C184.95 175.96 184.95 175.96 184.95 175.96
C184.73 175.96 184.55 175.88 184.42 175.73
C184.28 175.57 184.18 175.31 184.13 174.97
L184.11 174.83
L183.98 174.85
L183.30 174.92
L183.16 174.94
L183.17 175.08
C183.23 175.68 183.42 176.14 183.74 176.46
C184.06 176.79 184.46 176.95 184.94 176.95
C185.36 176.95 185.74 176.82 186.08 176.55
C186.41 176.29 186.67 175.88 186.86 175.32
C187.05 174.77 187.14 174.00 187.14 173.02
C187.14 172.14 187.06 171.46 186.88 170.98
C186.70 170.49 186.45 170.12 186.11 169.87
C185.78 169.61 185.42 169.49 185.03 169.49
Z
" fill="white" fill-rule="nonzero" />
<path d="
M185.03 193.29
C184.54 193.29 184.13 193.46 183.79 193.80
C183.45 194.13 183.24 194.61 183.14 195.24
L183.12 195.37
L183.25 195.40
L183.96 195.55
L184.11 195.59
L184.13 195.43
C184.18 195.03 184.28 194.74 184.45 194.56
C184.61 194.38 184.80 194.29 185.03 194.29
C185.03 194.29 185.03 194.29 185.03 194.29
C185.04 194.29 185.04 194.29 185.04 194.29
C185.26 194.29 185.44 194.37 185.60 194.54
C185.76 194.71 185.83 194.95 185.83 195.24
C185.83 195.56 185.74 195.81 185.55 196.00
C185.36 196.19 185.11 196.28 184.81 196.28
L184.81 196.28
L184.70 196.27
L184.56 196.26
L184.55 196.40
L184.47 197.16
L184.44 197.37
L184.65 197.31
C184.84 197.25 184.99 197.22 185.11 197.22
C185.11 197.22 185.11 197.22 185.11 197.22
C185.11 197.22 185.11 197.22 185.11 197.22
C185.38 197.22 185.61 197.32 185.80 197.54
C186.00 197.76 186.09 198.06 186.09 198.44
C186.09 198.84 185.99 199.16 185.77 199.41
C185.56 199.65 185.32 199.77 185.04 199.77
C185.04 199.77 185.04 199.77 185.04 199.77
C185.04 199.77 185.04 199.77 185.04 199.77
C184.78 199.77 184.58 199.67 184.42 199.48
C184.25 199.27 184.13 198.94 184.06 198.51
L184.04 198.37
L183.90 198.39
L183.19 198.50
L183.06 198.52
L183.07 198.66
C183.12 199.29 183.33 199.80 183.69 200.19
C184.06 200.57 184.52 200.77 185.05 200.77
C185.62 200.77 186.11 200.55 186.52 200.11
C186.93 199.67 187.13 199.11 187.13 198.42
C187.13 198.10 187.08 197.81 186.98 197.55
C186.88 197.28 186.75 197.07 186.58 196.91
C186.48 196.80 186.36 196.72 186.22 196.65
L186.22 196.65
C186.38 196.52 186.51 196.36 186.62 196.18
C186.77 195.91 186.85 195.60 186.85 195.26
C186.85 194.70 186.67 194.23 186.32 193.86
C185.96 193.48 185.53 193.30 185.03 193.29
Z
" fill="white" fill-rule="nonzero" />
<path d="
M198.82 122.68
C199.03 122.68 199.21 122.79 199.36 123.00
C199.51 123.21 199.59 123.48 199.59 123.82
C199.59 124.14 199.51 124.41 199.37 124.61
C199.22 124.81 199.04 124.92 198.83 124.92
C198.62 124.92 198.43 124.81 198.29 124.60
C198.14 124.40 198.07 124.12 198.07 123.77
C198.07 123.46 198.14 123.20 198.29 122.99
C198.44 122.78 198.62 122.68 198.82 122.68
Z
M198.82 125.63
C199.08 125.63 199.31 125.76 199.50 126.03
C199.68 126.30 199.78 126.65 199.78 127.09
C199.78 127.52 199.69 127.87 199.50 128.13
C199.32 128.39 199.10 128.52 198.83 128.52
C198.57 128.52 198.34 128.38 198.16 128.11
C197.97 127.85 197.87 127.50 197.87 127.06
C197.87 126.64 197.97 126.29 198.15 126.03
C198.33 125.76 198.55 125.63 198.82 125.63
Z
M195.45 121.96
C195.35 122.27 195.18 122.59 194.94 122.92
C194.70 123.25 194.42 123.52 194.10 123.75
L194.10 124.59
C194.29 124.49 194.49 124.34 194.71 124.14
C194.94 123.93 195.12 123.73 195.25 123.54
L195.25 129.11
L195.82 129.11
L195.82 121.96
Z
M198.82 121.96
C198.43 121.96 198.11 122.13 197.86 122.47
C197.60 122.81 197.47 123.25 197.47 123.79
C197.47 124.15 197.53 124.45 197.65 124.69
C197.77 124.94 197.94 125.12 198.17 125.25
C197.90 125.36 197.68 125.57 197.52 125.88
C197.37 126.19 197.29 126.58 197.29 127.06
C197.29 127.71 197.43 128.23 197.73 128.63
C198.02 129.03 198.39 129.23 198.83 129.23
C199.27 129.23 199.63 129.03 199.92 128.63
C200.22 128.23 200.37 127.72 200.37 127.08
C200.37 126.62 200.29 126.24 200.14 125.93
C199.99 125.62 199.77 125.39 199.49 125.25
C199.72 125.12 199.89 124.93 200.00 124.69
C200.12 124.46 200.18 124.17 200.18 123.82
C200.18 123.28 200.05 122.83 199.79 122.48
C199.53 122.13 199.21 121.96 198.82 121.96
Z
" fill="black" fill-rule="nonzero" />
<path d="
M199.13 135.36
L199.13 138.57
L197.67 138.57
L199.13 135.36
Z
M195.45 133.93
C195.35 134.24 195.18 134.56 194.94 134.88
C194.70 135.21 194.42 135.49 194.10 135.72
L194.10 136.56
C194.29 136.46 194.49 136.30 194.71 136.10
C194.94 135.90 195.12 135.70 195.25 135.51
L195.25 141.08
L195.82 141.08
L195.82 133.93
Z
M199.24 133.96
L197.11 138.57
L197.11 139.37
L199.13 139.37
L199.13 141.08
L199.71 141.08
L199.71 139.37
L200.34 139.37
L200.34 138.57
L199.71 138.57
L199.71 133.96
Z
" fill="black" fill-rule="nonzero" />
<path d="
M195.45 145.83
C195.35 146.14 195.18 146.46 194.94 146.79
C194.70 147.12 194.42 147.39 194.10 147.62
L194.10 148.47
C194.29 148.36 194.49 148.21 194.71 148.01
C194.94 147.81 195.12 147.61 195.25 147.41
L195.25 152.98
L195.82 152.98
L195.82 145.83
Z
M198.86 145.83
C198.42 145.83 198.07 146.01 197.80 146.35
C197.53 146.70 197.38 147.21 197.33 147.89
L197.93 147.99
C197.93 147.53 198.01 147.17 198.18 146.93
C198.35 146.68 198.57 146.56 198.84 146.56
C199.09 146.56 199.30 146.67 199.47 146.90
C199.64 147.13 199.72 147.42 199.72 147.79
C199.72 148.10 199.64 148.44 199.47 148.80
C199.31 149.17 198.96 149.68 198.42 150.35
C197.96 150.93 197.64 151.42 197.47 151.84
C197.30 152.26 197.22 152.64 197.23 152.98
L200.32 152.98
L200.32 152.14
L198.02 152.14
C198.08 151.99 198.17 151.83 198.27 151.67
C198.37 151.51 198.59 151.21 198.93 150.77
C199.46 150.08 199.83 149.53 200.02 149.11
C200.21 148.69 200.31 148.26 200.31 147.81
C200.31 147.29 200.19 146.84 199.94 146.44
C199.70 146.03 199.33 145.83 198.86 145.83
Z
" fill="black" fill-rule="nonzero" />
<path d="
M197.00 158.43
C197.26 158.43 197.48 158.54 197.67 158.75
C197.85 158.96 197.95 159.23 197.95 159.56
C197.95 159.88 197.86 160.14 197.67 160.34
C197.49 160.54 197.27 160.64 197.01 160.64
C196.75 160.64 196.52 160.54 196.34 160.33
C196.16 160.13 196.07 159.85 196.07 159.51
C196.07 159.20 196.16 158.94 196.34 158.74
C196.53 158.53 196.75 158.43 197.00 158.43
Z
M196.99 161.35
C197.32 161.35 197.60 161.48 197.83 161.74
C198.07 162.01 198.18 162.35 198.18 162.79
C198.18 163.21 198.07 163.56 197.84 163.81
C197.62 164.07 197.34 164.20 197.01 164.20
C196.69 164.20 196.41 164.07 196.18 163.80
C195.95 163.54 195.83 163.19 195.83 162.76
C195.83 162.34 195.94 162.00 196.17 161.74
C196.40 161.48 196.67 161.35 196.99 161.35
Z
M197.00 157.72
C196.52 157.72 196.13 157.89 195.81 158.23
C195.49 158.56 195.34 159.00 195.34 159.53
C195.34 159.89 195.41 160.18 195.56 160.42
C195.70 160.66 195.92 160.84 196.20 160.97
C195.86 161.08 195.59 161.29 195.40 161.59
C195.20 161.90 195.11 162.29 195.11 162.76
C195.11 163.40 195.29 163.92 195.65 164.31
C196.01 164.71 196.47 164.91 197.01 164.91
C197.55 164.91 198.00 164.71 198.36 164.31
C198.73 163.92 198.91 163.41 198.91 162.78
C198.91 162.33 198.81 161.95 198.63 161.64
C198.44 161.33 198.17 161.11 197.82 160.97
C198.11 160.84 198.32 160.66 198.46 160.42
C198.60 160.19 198.67 159.90 198.67 159.56
C198.67 159.02 198.51 158.58 198.20 158.24
C197.88 157.89 197.48 157.72 197.00 157.72
Z
" fill="black" fill-rule="nonzero" />
<path d="
M210.70 182.21
C210.98 182.21 211.21 182.41 211.39 182.80
C211.56 183.19 211.65 183.97 211.65 185.13
C211.65 186.27 211.57 187.05 211.39 187.45
C211.21 187.84 210.99 188.04 210.73 188.04
C210.46 188.04 210.23 187.85 210.05 187.45
C209.87 187.06 209.78 186.28 209.78 185.13
C209.78 183.98 209.87 183.21 210.05 182.81
C210.22 182.41 210.44 182.21 210.70 182.21
Z
M207.35 181.49
C207.26 181.80 207.09 182.12 206.84 182.45
C206.60 182.77 206.32 183.05 206.01 183.28
L206.01 184.12
C206.19 184.02 206.40 183.87 206.62 183.66
C206.84 183.46 207.02 183.26 207.15 183.07
L207.15 188.64
L207.73 188.64
L207.73 181.49
Z
M210.72 181.49
C210.22 181.49 209.84 181.80 209.58 182.41
C209.33 183.03 209.20 183.93 209.20 185.13
C209.20 186.46 209.34 187.40 209.62 187.95
C209.91 188.49 210.27 188.76 210.72 188.76
C211.22 188.76 211.60 188.45 211.86 187.84
C212.12 187.22 212.24 186.32 212.24 185.13
C212.24 183.80 212.09 182.84 211.78 182.24
C211.52 181.74 211.17 181.49 210.72 181.49
Z
" fill="black" fill-rule="nonzero" />
</g>
<g  transform="translate(1.19,228.58)" >
<path d="
M105.01 2.94
C104.84 2.94 104.70 3.00 104.58 3.11
C104.47 3.23 104.41 3.37 104.41 3.53
C104.41 3.69 104.47 3.83 104.59 3.95
C104.70 4.07 104.84 4.12 105.01 4.12
C105.17 4.12 105.31 4.07 105.42 3.95
C105.54 3.83 105.59 3.69 105.59 3.53
C105.59 3.37 105.54 3.23 105.42 3.11
C105.31 3.00 105.17 2.94 105.01 2.94
Z
M121.35 4.39
L121.35 8.31
L118.58 8.31
L121.35 4.39
Z
M109.98 8.04
L109.98 10.07
C109.50 10.46 109.11 10.65 108.81 10.65
C108.60 10.65 108.40 10.56 108.24 10.37
C108.07 10.19 107.99 9.96 107.99 9.68
C107.99 9.46 108.05 9.25 108.19 9.07
C108.32 8.88 108.54 8.70 108.84 8.53
C109.01 8.44 109.39 8.27 109.98 8.04
Z
M98.33 3.77
C99.26 3.77 100.02 4.08 100.61 4.71
C101.21 5.34 101.50 6.20 101.50 7.29
C101.50 8.37 101.21 9.23 100.61 9.86
C100.02 10.49 99.27 10.81 98.37 10.81
C98.04 10.81 97.63 10.75 97.13 10.64
L97.13 3.94
C97.58 3.83 97.98 3.77 98.33 3.77
Z
M94.88 3.33
L94.88 3.54
L95.18 3.54
C95.48 3.54 95.70 3.63 95.86 3.80
C95.96 3.92 96.02 4.23 96.02 4.72
L96.02 9.82
C96.02 10.26 95.98 10.55 95.89 10.68
C95.75 10.89 95.51 11.00 95.18 11.00
L94.88 11.00
L94.88 11.21
L98.41 11.21
C99.94 11.21 101.08 10.80 101.83 9.98
C102.49 9.24 102.83 8.33 102.83 7.23
C102.83 6.41 102.64 5.69 102.27 5.07
C101.89 4.44 101.40 4.00 100.78 3.73
C100.17 3.46 99.27 3.33 98.09 3.33
Z
M105.23 5.73
L103.63 6.38
L103.71 6.59
C103.86 6.53 104.00 6.50 104.10 6.50
C104.21 6.50 104.28 6.53 104.34 6.58
C104.40 6.62 104.44 6.71 104.47 6.83
C104.51 7.00 104.52 7.38 104.52 7.96
L104.52 10.01
C104.52 10.34 104.50 10.56 104.44 10.68
C104.39 10.79 104.32 10.88 104.23 10.93
C104.14 10.98 103.97 11.00 103.71 11.00
L103.71 11.21
L106.30 11.21
L106.30 11.00
C106.04 11.00 105.87 10.98 105.78 10.92
C105.68 10.87 105.61 10.79 105.56 10.68
C105.51 10.56 105.49 10.34 105.49 10.01
L105.49 5.73
Z
M121.67 3.16
L118.01 8.39
L118.01 9.13
L121.35 9.13
L121.35 11.21
L122.31 11.21
L122.31 9.13
L123.36 9.13
L123.36 8.31
L122.31 8.31
L122.31 3.16
Z
M109.16 5.73
C108.55 5.73 108.07 5.87 107.73 6.15
C107.38 6.43 107.21 6.73 107.21 7.07
C107.21 7.24 107.26 7.38 107.35 7.48
C107.44 7.58 107.56 7.63 107.70 7.63
C107.85 7.63 107.97 7.58 108.06 7.49
C108.15 7.39 108.20 7.25 108.20 7.07
L108.19 6.74
C108.19 6.56 108.26 6.41 108.41 6.28
C108.55 6.15 108.74 6.08 108.99 6.08
C109.31 6.08 109.55 6.18 109.72 6.38
C109.89 6.58 109.98 6.94 109.98 7.47
L109.98 7.68
C109.06 8.02 108.41 8.30 108.01 8.53
C107.62 8.76 107.34 9.01 107.19 9.28
C107.07 9.47 107.01 9.69 107.01 9.95
C107.01 10.36 107.13 10.69 107.37 10.95
C107.61 11.20 107.91 11.32 108.28 11.32
C108.51 11.32 108.74 11.27 108.95 11.18
C109.09 11.11 109.43 10.87 109.98 10.45
C109.98 10.76 110.04 10.99 110.15 11.12
C110.26 11.25 110.41 11.32 110.60 11.32
C111.00 11.32 111.41 11.03 111.85 10.45
L111.85 10.12
C111.62 10.35 111.46 10.49 111.38 10.54
C111.33 10.57 111.28 10.58 111.22 10.58
C111.16 10.58 111.11 10.57 111.06 10.53
C111.02 10.49 110.98 10.41 110.97 10.30
C110.95 10.18 110.94 9.87 110.94 9.36
L110.94 7.55
C110.94 7.04 110.90 6.70 110.83 6.53
C110.72 6.28 110.55 6.09 110.33 5.97
C110.02 5.81 109.64 5.73 109.16 5.73
Z
M129.49 3.16
C128.98 3.16 128.55 3.31 128.21 3.60
C127.87 3.89 127.58 4.30 127.36 4.83
L127.55 4.92
C127.95 4.28 128.45 3.96 129.05 3.96
C129.43 3.96 129.74 4.08 129.99 4.32
C130.24 4.57 130.36 4.89 130.36 5.29
C130.36 5.60 130.29 5.88 130.15 6.14
C130.01 6.39 129.79 6.61 129.48 6.79
C129.17 6.98 128.87 7.09 128.56 7.12
L128.56 7.30
L128.75 7.30
C129.05 7.30 129.35 7.36 129.64 7.49
C129.93 7.61 130.16 7.75 130.32 7.91
C130.44 8.02 130.55 8.19 130.65 8.40
C130.79 8.69 130.86 8.99 130.86 9.30
C130.86 9.72 130.71 10.08 130.42 10.39
C130.13 10.69 129.78 10.85 129.39 10.85
C129.22 10.85 129.07 10.83 128.93 10.78
C128.84 10.76 128.68 10.69 128.44 10.56
C128.21 10.44 128.06 10.37 128.00 10.35
C127.90 10.32 127.80 10.31 127.70 10.31
C127.57 10.31 127.46 10.35 127.37 10.43
C127.28 10.52 127.23 10.62 127.23 10.73
C127.23 10.88 127.33 11.02 127.52 11.15
C127.71 11.29 128.08 11.35 128.61 11.35
C129.68 11.35 130.50 11.03 131.07 10.38
C131.50 9.88 131.72 9.28 131.72 8.60
C131.72 8.12 131.59 7.71 131.35 7.36
C131.10 7.00 130.73 6.73 130.25 6.54
C130.97 5.93 131.33 5.34 131.33 4.76
C131.33 4.41 131.20 4.09 130.94 3.78
C130.61 3.37 130.12 3.16 129.49 3.16
Z
M113.36 10.08
C113.18 10.08 113.03 10.15 112.90 10.27
C112.78 10.39 112.71 10.55 112.71 10.73
C112.71 10.91 112.78 11.06 112.90 11.19
C113.03 11.31 113.18 11.38 113.36 11.38
C113.54 11.38 113.69 11.31 113.82 11.19
C113.94 11.06 114.00 10.91 114.00 10.73
C114.00 10.55 113.94 10.40 113.82 10.27
C113.69 10.15 113.54 10.08 113.36 10.08
Z
M125.26 10.08
C125.09 10.08 124.93 10.15 124.81 10.27
C124.68 10.39 124.62 10.55 124.62 10.73
C124.62 10.91 124.68 11.06 124.81 11.19
C124.93 11.31 125.09 11.38 125.26 11.38
C125.44 11.38 125.59 11.31 125.72 11.19
C125.85 11.06 125.91 10.91 125.91 10.73
C125.91 10.55 125.85 10.40 125.72 10.27
C125.60 10.15 125.45 10.08 125.26 10.08
Z
" fill="black" fill-rule="nonzero" />
</g>
</g>
</svg>
