<?xml version="1.0" encoding="utf-8" standalone="no"?>
<!DOCTYPE svg PUBLIC "-//W3C//DTD SVG 1.0//EN" "http://www.w3.org/TR/SVG/DTD/svg11.dtd" >
<svg version="1.1" baseProfile="full"  width="319.13385" height="356.88123" viewBox="0 0 229.77638 256.95447" preserveAspectRatio="xMidYMid" xmlns="http://www.w3.org/2000/svg" >

<g lengthAdjust="spacingAndGlyphs" xml:space='preserve' >
<g  transform="translate(1.19,1.19)" >
<path d="
M0.0 0.0
L0.0 227.39
L227.39 227.39
L227.39 0.0
Z
" fill="none" fill-rule="nonzero" />
<line x1="6.54" y1="6.54" x2="6.54" y2="220.84" fill="none" stroke="black" stroke-width="0.87px" stroke-linecap="square" />
<line x1="18.45" y1="6.54" x2="18.45" y2="220.84" fill="none" stroke="black" stroke-width="0.25px" stroke-linecap="butt" />
<line x1="30.35" y1="6.54" x2="30.35" y2="220.84" fill="none" stroke="black" stroke-width="0.25px" stroke-linecap="butt" />
<line x1="42.26" y1="6.54" x2="42.26" y2="220.84" fill="none" stroke="black" stroke-width="0.25px" stroke-linecap="butt" />
<line x1="54.17" y1="6.54" x2="54.17" y2="220.84" fill="none" stroke="black" stroke-width="0.25px" stroke-linecap="butt" />
<line x1="66.07" y1="6.54" x2="66.07" y2="220.84" fill="none" stroke="black" stroke-width="0.25px" stroke-linecap="butt" />
<line x1="77.98" y1="6.54" x2="77.98" y2="220.84" fill="none" stroke="black" stroke-width="0.25px" stroke-linecap="butt" />
<line x1="89.88" y1="6.54" x2="89.88" y2="220.84" fill="none" stroke="black" stroke-width="0.25px" stroke-linecap="butt" />
<line x1="101.79" y1="6.54" x2="101.79" y2="220.84" fill="none" stroke="black" stroke-width="0.25px" stroke-linecap="butt" />
<line x1="113.69" y1="6.54" x2="113.69" y2="220.84" fill="none" stroke="black" stroke-width="0.25px" stroke-linecap="butt" />
<line x1="125.60" y1="6.54" x2="125.60" y2="220.84" fill="none" stroke="black" stroke-width="0.25px" stroke-linecap="butt" />
<line x1="137.50" y1="6.54" x2="137.50" y2="220.84" fill="none" stroke="black" stroke-width="0.25px" stroke-linecap="butt" />
<line x1="149.41" y1="6.54" x2="149.41" y2="220.84" fill="none" stroke="black" stroke-width="0.25px" stroke-linecap="butt" />
<line x1="161.31" y1="6.54" x2="161.31" y2="220.84" fill="none" stroke="black" stroke-width="0.25px" stroke-linecap="butt" />
<line x1="173.22" y1="6.54" x2="173.22" y2="220.84" fill="none" stroke="black" stroke-width="0.25px" stroke-linecap="butt" />
<line x1="185.13" y1="6.54" x2="185.13" y2="220.84" fill="none" stroke="black" stroke-width="0.25px" stroke-linecap="butt" />
<line x1="197.03" y1="6.54" x2="197.03" y2="220.84" fill="none" stroke="black" stroke-width="0.25px" stroke-linecap="butt" />
<line x1="208.94" y1="6.54" x2="208.94" y2="220.84" fill="none" stroke="black" stroke-width="0.25px" stroke-linecap="butt" />
<line x1="220.84" y1="6.54" x2="220.84" y2="220.84" fill="none" stroke="black" stroke-width="0.87px" stroke-linecap="square" />
<line x1="6.54" y1="6.54" x2="220.84" y2="6.54" fill="none" stroke="black" stroke-width="0.87px" stroke-linecap="square" />
<line x1="6.54" y1="18.45" x2="220.84" y2="18.45" fill="none" stroke="black" stroke-width="0.25px" stroke-linecap="butt" />
<line x1="6.54" y1="30.35" x2="220.84" y2="30.35" fill="none" stroke="black" stroke-width="0.25px" stroke-linecap="butt" />
<line x1="6.54" y1="42.26" x2="220.84" y2="42.26" fill="none" stroke="black" stroke-width="0.25px" stroke-linecap="butt" />
<line x1="6.54" y1="54.17" x2="220.84" y2="54.17" fill="none" stroke="black" stroke-width="0.25px" stroke-linecap="butt" />
<line x1="6.54" y1="66.07" x2="220.84" y2="66.07" fill="none" stroke="black" stroke-width="0.25px" stroke-linecap="butt" />
<line x1="6.54" y1="77.98" x2="220.84" y2="77.98" fill="none" stroke="black" stroke-width="0.25px" stroke-linecap="butt" />
<line x1="6.54" y1="89.88" x2="220.84" y2="89.88" fill="none" stroke="black" stroke-width="0.25px" stroke-linecap="butt" />
<line x1="6.54" y1="101.79" x2="220.84" y2="101.79" fill="none" stroke="black" stroke-width="0.25px" stroke-linecap="butt" />
<line x1="6.54" y1="113.69" x2="220.84" y2="113.69" fill="none" stroke="black" stroke-width="0.25px" stroke-linecap="butt" />
<line x1="6.54" y1="125.60" x2="220.84" y2="125.60" fill="none" stroke="black" stroke-width="0.25px" stroke-linecap="butt" />
<line x1="6.54" y1="137.50" x2="220.84" y2="137.50" fill="none" stroke="black" stroke-width="0.25px" stroke-linecap="butt" />
<line x1="6.54" y1="149.41" x2="220.84" y2="149.41" fill="none" stroke="black" stroke-width="0.25px" stroke-linecap="butt" />
<line x1="6.54" y1="161.31" x2="220.84" y2="161.31" fill="none" stroke="black" stroke-width="0.25px" stroke-linecap="butt" />
<line x1="6.54" y1="173.22" x2="220.84" y2="173.22" fill="none" stroke="black" stroke-width="0.25px" stroke-linecap="butt" />
<line x1="6.54" y1="185.13" x2="220.84" y2="185.13" fill="none" stroke="black" stroke-width="0.25px" stroke-linecap="butt" />
<line x1="6.54" y1="197.03" x2="220.84" y2="197.03" fill="none" stroke="black" stroke-width="0.25px" stroke-linecap="butt" />
<line x1="6.54" y1="208.94" x2="220.84" y2="208.94" fill="none" stroke="black" stroke-width="0.25px" stroke-linecap="butt" />
<line x1="6.54" y1="220.84" x2="220.84" y2="220.84" fill="none" stroke="black" stroke-width="0.87px" stroke-linecap="square" />
<circle cx="30.35" cy="161.31" r="5.85" fill="white"/>
<circle cx="30.35" cy="161.31" r="5.85" fill="none" stroke="black" stroke-width="0.25px"/>
<circle cx="42.26" cy="42.26" r="5.85" fill="white"/>
<circle cx="42.26" cy="42.26" r="5.85" fill="none" stroke="black" stroke-width="0.25px"/>
<circle cx="42.26" cy="113.69" r="1.27" fill="black"/>
<circle cx="42.26" cy="185.13" r="5.85" fill="white"/>
<circle cx="42.26" cy="185.13" r="5.85" fill="none" stroke="black" stroke-width="0.25px"/>
<circle cx="66.07" cy="197.03" r="5.98" fill="black"/>
<circle cx="101.79" cy="185.13" r="5.98" fill="black"/>
<circle cx="113.69" cy="42.26" r="1.27" fill="black"/>
<circle cx="113.69" cy="113.69" r="1.27" fill="black"/>
<circle cx="113.69" cy="185.13" r="1.27" fill="black"/>
<circle cx="149.41" cy="185.13" r="5.98" fill="black"/>
<circle cx="161.31" cy="161.31" r="5.98" fill="black"/>
<circle cx="161.31" cy="173.22" r="5.98" fill="black"/>
<circle cx="161.31" cy="185.13" r="5.85" fill="white"/>
<circle cx="161.31" cy="185.13" r="5.85" fill="none" stroke="black" stroke-width="0.25px"/>
<circle cx="161.31" cy="197.03" r="5.98" fill="black"/>
<circle cx="173.22" cy="149.41" r="5.85" fill="white"/>
<circle cx="173.22" cy="149.41" r="5.85" fill="none" stroke="black" stroke-width="0.25px"/>
<circle cx="173.22" cy="161.31" r="5.98" fill="black"/>
<circle cx="173.22" cy="173.22" r="5.85" fill="white"/>
<circle cx="173.22" cy="173.22" r="5.85" fill="none" stroke="black" stroke-width="0.25px"/>
<circle cx="173.22" cy="185.13" r="5.98" fill="black"/>
<circle cx="173.22" cy="197.03" r="5.85" fill="white"/>
<circle cx="173.22" cy="197.03" r="5.85" fill="none" stroke="black" stroke-width="0.25px"/>
<circle cx="173.22" cy="208.94" r="5.85" fill="white"/>
<circle cx="173.22" cy="208.94" r="5.85" fill="none" stroke="black" stroke-width="0.25px"/>
<circle cx="185.13" cy="42.26" r="5.98" fill="black"/>
<circle cx="185.13" cy="113.69" r="1.27" fill="black"/>
<circle cx="185.13" cy="149.41" r="5.98" fill="black"/>
<circle cx="185.13" cy="161.31" r="5.85" fill="white"/>
<circle cx="185.13" cy="161.31" r="5.85" fill="none" stroke="black" stroke-width="0.25px"/>
<circle cx="185.13" cy="173.22" r="5.98" fill="black"/>
<circle cx="185.13" cy="185.13" r="5.85" fill="white"/>
<circle cx="185.13" cy="185.13" r="5.85" fill="none" stroke="black" stroke-width="0.25px"/>
<circle cx="185.13" cy="197.03" r="5.98" fill="black"/>
<circle cx="185.13" cy="208.94" r="5.85" fill="white"/>
<circle cx="185.13" cy="208.94" r="5.85" fill="none" stroke="black" stroke-width="0.25px"/>
<circle cx="197.03" cy="137.50" r="5.98" fill="black"/>
<circle cx="197.03" cy="161.31" r="5.85" fill="white"/>
<circle cx="197.03" cy="161.31" r="5.85" fill="none" stroke="black" stroke-width="0.25px"/>
<circle cx="197.03" cy="173.22" r="5.85" fill="white"/>
<circle cx="197.03" cy="173.22" r="5.85" fill="none" stroke="black" stroke-width="0.25px"/>
<circle cx="197.03" cy="185.13" r="5.98" fill="black"/>
<circle cx="197.03" cy="197.03" r="5.85" fill="white"/>
<circle cx="197.03" cy="197.03" r="5.85" fill="none" stroke="black" stroke-width="0.25px"/>
<circle cx="208.94" cy="185.13" r="5.85" fill="white"/>
<circle cx="208.94" cy="185.13" r="5.85" fill="none" stroke="black" stroke-width="0.25px"/>
<circle cx="208.94" cy="208.94" r="5.85" fill="white"/>
<circle cx="208.94" cy="208.94" r="5.85" fill="none" stroke="black" stroke-width="0.25px"/>
<path d="
M30.36 160.99
C30.68 160.99 30.94 161.12 31.16 161.40
C31.38 161.67 31.49 162.06 31.49 162.56
C31.49 163.07 31.38 163.47 31.16 163.76
C30.94 164.05 30.69 164.20 30.41 164.20
C30.10 164.20 29.82 164.04 29.58 163.73
C29.34 163.43 29.22 163.02 29.22 162.51
C29.22 162.04 29.33 161.67 29.56 161.40
C29.79 161.12 30.06 160.99 30.36 160.99
Z
M30.47 157.72
C29.86 157.72 29.37 158.01 28.98 158.59
C28.59 159.17 28.40 160.13 28.40 161.49
C28.40 162.72 28.59 163.60 28.97 164.12
C29.34 164.64 29.82 164.91 30.41 164.91
C30.73 164.91 31.03 164.82 31.30 164.63
C31.56 164.45 31.78 164.17 31.96 163.79
C32.13 163.40 32.21 162.98 32.21 162.51
C32.21 161.81 32.04 161.26 31.70 160.84
C31.36 160.43 30.96 160.22 30.50 160.22
C30.23 160.22 29.97 160.30 29.72 160.46
C29.47 160.62 29.27 160.85 29.11 161.16
C29.11 160.29 29.22 159.64 29.43 159.20
C29.68 158.69 30.01 158.43 30.43 158.43
C30.69 158.43 30.92 158.54 31.11 158.77
C31.24 158.92 31.34 159.18 31.41 159.54
L32.11 159.47
C32.05 158.90 31.87 158.47 31.57 158.17
C31.28 157.87 30.91 157.72 30.47 157.72
Z
" fill="black" fill-rule="nonzero" />
<path d="
M42.27 38.73
C41.73 38.73 41.30 38.90 40.97 39.24
C40.64 39.58 40.44 40.09 40.39 40.76
L41.12 40.85
C41.12 40.40 41.23 40.05 41.44 39.81
C41.65 39.56 41.92 39.44 42.25 39.44
C42.56 39.44 42.82 39.55 43.03 39.78
C43.23 40.01 43.34 40.30 43.34 40.66
C43.34 40.97 43.24 41.30 43.03 41.66
C42.83 42.02 42.39 42.53 41.73 43.19
C41.17 43.76 40.78 44.25 40.56 44.66
C40.35 45.08 40.25 45.46 40.26 45.79
L44.07 45.79
L44.07 44.96
L41.24 44.96
C41.32 44.81 41.42 44.65 41.54 44.49
C41.67 44.33 41.94 44.04 42.36 43.61
C43.02 42.92 43.47 42.38 43.71 41.96
C43.95 41.55 44.06 41.12 44.06 40.68
C44.06 40.17 43.91 39.72 43.61 39.32
C43.31 38.93 42.86 38.73 42.27 38.73
Z
" fill="black" fill-rule="nonzero" />
<path d="
M42.61 182.99
L42.61 186.17
L40.81 186.17
L42.61 182.99
Z
M42.74 181.61
L40.11 186.17
L40.11 186.96
L42.61 186.96
L42.61 188.64
L43.32 188.64
L43.32 186.96
L44.10 186.96
L44.10 186.17
L43.32 186.17
L43.32 181.61
Z
" fill="black" fill-rule="nonzero" />
<path d="
M65.29 195.90
L65.29 195.90
L65.29 195.90
C65.29 195.90 65.29 195.90 65.29 195.90
Z
M64.72 193.36
L64.70 193.48
L64.14 197.09
L64.11 197.23
L64.25 197.26
L64.92 197.36
L65.02 197.38
L65.07 197.28
C65.17 197.09 65.30 196.94 65.46 196.84
C65.63 196.73 65.80 196.68 65.99 196.68
C65.99 196.68 65.99 196.68 65.99 196.68
C65.99 196.68 65.99 196.68 65.99 196.68
C66.30 196.68 66.56 196.80 66.77 197.05
C66.98 197.30 67.09 197.66 67.09 198.12
C67.09 198.62 66.97 199.02 66.75 199.30
C66.54 199.57 66.29 199.71 66.00 199.71
C66.00 199.71 66.00 199.71 65.99 199.71
C65.99 199.71 65.99 199.71 65.99 199.71
C65.76 199.71 65.56 199.61 65.39 199.43
C65.21 199.23 65.09 198.92 65.04 198.50
L65.02 198.37
L64.88 198.38
L64.14 198.46
L64.00 198.47
L64.01 198.61
C64.06 199.26 64.27 199.77 64.64 200.14
C65.01 200.52 65.47 200.70 66.00 200.70
C66.65 200.70 67.17 200.44 67.56 199.91
C67.93 199.39 68.12 198.77 68.12 198.06
C68.12 197.32 67.93 196.74 67.55 196.30
C67.16 195.86 66.71 195.64 66.18 195.63
C65.87 195.63 65.57 195.72 65.29 195.90
L65.29 195.90
L65.52 194.47
L67.84 194.47
L67.84 194.33
L67.84 193.50
L67.84 193.36
Z
" fill="white" fill-rule="nonzero" />
<path d="
M99.77 181.51
L99.77 181.65
L99.77 182.48
L99.77 182.63
L102.47 182.63
C102.16 183.09 101.87 183.62 101.60 184.24
C101.29 184.96 101.04 185.72 100.86 186.51
C100.68 187.30 100.59 188.00 100.58 188.60
L100.58 188.74
L101.45 188.74
L101.59 188.74
L101.59 188.61
C101.66 187.48 101.90 186.35 102.31 185.20
C102.73 184.05 103.21 183.12 103.76 182.41
L103.79 182.37
L103.79 182.33
L103.79 181.65
L103.79 181.51
Z
" fill="white" fill-rule="nonzero" />
<path d="
M147.51 181.35
C147.11 181.35 146.76 181.52 146.48 181.86
C146.21 182.20 146.04 182.68 145.96 183.32
L145.95 183.44
L146.06 183.47
L146.64 183.63
L146.80 183.67
L146.81 183.50
C146.85 183.10 146.94 182.80 147.08 182.61
C147.20 182.43 147.35 182.35 147.52 182.35
C147.52 182.35 147.52 182.35 147.52 182.35
C147.52 182.35 147.52 182.35 147.52 182.35
C147.69 182.35 147.83 182.43 147.95 182.59
C148.08 182.77 148.14 183.01 148.14 183.31
C148.14 183.64 148.06 183.90 147.91 184.09
C147.76 184.27 147.57 184.37 147.34 184.37
L147.34 184.37
L147.26 184.36
L147.11 184.34
L147.10 184.49
L147.03 185.25
L147.01 185.48
L147.23 185.40
C147.37 185.34 147.49 185.31 147.58 185.31
C147.58 185.31 147.58 185.31 147.58 185.31
C147.58 185.31 147.58 185.31 147.58 185.31
C147.79 185.31 147.97 185.42 148.11 185.63
C148.27 185.86 148.35 186.16 148.35 186.55
C148.35 186.96 148.26 187.29 148.09 187.54
C147.93 187.78 147.74 187.90 147.53 187.90
C147.53 187.90 147.53 187.90 147.52 187.90
C147.52 187.90 147.52 187.90 147.52 187.90
C147.33 187.90 147.17 187.80 147.05 187.61
C146.91 187.40 146.82 187.07 146.76 186.62
L146.74 186.47
L146.59 186.50
L146.02 186.62
L145.89 186.64
L145.90 186.77
C145.94 187.41 146.11 187.92 146.41 188.31
C146.71 188.71 147.09 188.91 147.53 188.91
C148.01 188.91 148.42 188.68 148.75 188.22
C149.08 187.78 149.24 187.22 149.24 186.53
C149.24 186.21 149.20 185.92 149.13 185.66
C149.04 185.39 148.94 185.18 148.80 185.01
C148.72 184.90 148.61 184.81 148.49 184.75
L148.49 184.75
C148.63 184.61 148.75 184.45 148.83 184.25
C148.95 183.98 149.01 183.68 149.01 183.33
C149.01 182.77 148.87 182.30 148.59 181.93
C148.30 181.54 147.94 181.35 147.51 181.35
Z
M151.14 181.35
C150.74 181.35 150.39 181.52 150.11 181.86
C149.84 182.20 149.67 182.68 149.59 183.32
L149.58 183.44
L149.69 183.47
L150.27 183.63
L150.43 183.67
L150.44 183.50
C150.48 183.10 150.57 182.80 150.71 182.61
C150.83 182.43 150.98 182.35 151.15 182.35
C151.15 182.35 151.15 182.35 151.15 182.35
C151.15 182.35 151.15 182.35 151.15 182.35
C151.32 182.35 151.46 182.43 151.58 182.59
C151.71 182.77 151.77 183.01 151.77 183.31
C151.77 183.64 151.69 183.90 151.54 184.09
C151.39 184.27 151.20 184.37 150.97 184.37
L150.97 184.37
L150.89 184.36
L150.74 184.34
L150.73 184.49
L150.66 185.25
L150.64 185.48
L150.86 185.40
C151.00 185.34 151.12 185.31 151.21 185.31
C151.21 185.31 151.21 185.31 151.21 185.31
C151.21 185.31 151.21 185.31 151.21 185.31
C151.42 185.31 151.60 185.42 151.74 185.63
C151.90 185.86 151.98 186.16 151.98 186.55
C151.98 186.96 151.89 187.29 151.72 187.54
C151.56 187.78 151.37 187.90 151.16 187.90
C151.16 187.90 151.16 187.90 151.15 187.90
C151.15 187.90 151.15 187.90 151.15 187.90
C150.96 187.90 150.80 187.80 150.68 187.61
C150.54 187.40 150.45 187.07 150.39 186.62
L150.37 186.47
L150.22 186.50
L149.65 186.62
L149.52 186.64
L149.53 186.77
C149.57 187.41 149.74 187.92 150.04 188.31
C150.34 188.71 150.72 188.91 151.16 188.91
C151.64 188.91 152.05 188.68 152.38 188.22
C152.71 187.78 152.87 187.22 152.87 186.53
C152.87 186.21 152.83 185.92 152.76 185.66
C152.67 185.39 152.57 185.18 152.43 185.01
C152.35 184.90 152.24 184.81 152.12 184.75
L152.12 184.75
C152.26 184.61 152.38 184.45 152.46 184.25
C152.58 183.98 152.64 183.68 152.64 183.33
C152.64 182.77 152.50 182.30 152.22 181.93
C151.93 181.54 151.57 181.35 151.14 181.35
Z
" fill="white" fill-rule="nonzero" />
<path d="
M159.63 157.60
L159.60 157.70
C159.50 157.99 159.34 158.30 159.11 158.61
C158.87 158.93 158.61 159.19 158.30 159.41
L158.24 159.45
L158.24 159.53
L158.24 160.37
L158.24 160.61
L158.45 160.50
C158.65 160.39 158.86 160.23 159.09 160.02
C159.20 159.92 159.30 159.82 159.39 159.72
L159.39 159.72
L159.39 164.89
L159.39 165.03
L160.25 165.03
L160.25 164.89
L160.25 157.74
L160.25 157.60
Z
M161.47 157.72
L161.47 157.86
L161.47 158.70
L161.47 158.84
L163.66 158.84
C163.41 159.31 163.17 159.86 162.95 160.49
C162.70 161.22 162.50 161.98 162.35 162.78
C162.21 163.58 162.13 164.28 162.13 164.89
L162.12 165.03
L162.86 165.03
L162.99 165.03
L163.00 164.90
C163.05 163.76 163.25 162.60 163.58 161.44
C163.92 160.28 164.31 159.34 164.76 158.61
L164.78 158.58
L164.78 158.54
L164.78 157.86
L164.78 157.72
Z
" fill="white" fill-rule="nonzero" />
<path d="
M159.51 169.50
C159.03 169.50 158.64 169.69 158.34 170.07
C158.05 170.44 157.89 170.98 157.85 171.70
L157.84 171.82
L157.97 171.84
L158.56 171.94
L158.72 171.96
L158.72 171.80
C158.72 171.37 158.80 171.04 158.95 170.82
C159.09 170.61 159.27 170.51 159.49 170.51
C159.49 170.51 159.49 170.51 159.49 170.51
C159.49 170.51 159.49 170.51 159.50 170.51
C159.70 170.51 159.87 170.61 160.01 170.80
C160.16 171.00 160.23 171.27 160.23 171.60
C160.23 171.89 160.15 172.21 160.00 172.56
C159.84 172.91 159.49 173.42 158.96 174.07
C158.49 174.66 158.17 175.17 157.99 175.60
C157.81 176.04 157.73 176.44 157.74 176.80
L157.74 176.94
L161.11 176.94
L161.11 176.80
L161.11 175.96
L161.11 175.81
L158.89 175.81
C158.94 175.73 158.98 175.64 159.04 175.55
C159.14 175.40 159.35 175.11 159.69 174.67
C160.24 173.97 160.61 173.41 160.80 172.98
C161.00 172.55 161.10 172.09 161.10 171.62
C161.10 171.08 160.97 170.60 160.71 170.17
C160.44 169.73 160.04 169.50 159.51 169.50
Z
M163.26 169.50
L163.23 169.60
C163.13 169.90 162.97 170.20 162.74 170.52
C162.50 170.83 162.24 171.10 161.93 171.32
L161.87 171.36
L161.87 171.43
L161.87 172.28
L161.87 172.52
L162.08 172.40
C162.28 172.29 162.49 172.13 162.72 171.92
C162.83 171.82 162.93 171.73 163.02 171.63
L163.02 171.63
L163.02 176.80
L163.02 176.94
L163.88 176.94
L163.88 176.80
L163.88 169.64
L163.88 169.50
Z
" fill="white" fill-rule="nonzero" />
<path d="
M163.11 182.21
C163.31 182.21 163.49 182.31 163.64 182.53
C163.80 182.74 163.87 183.01 163.87 183.35
C163.87 183.67 163.80 183.93 163.65 184.14
C163.50 184.34 163.32 184.44 163.11 184.44
C162.90 184.44 162.72 184.34 162.57 184.13
C162.42 183.92 162.35 183.65 162.35 183.30
C162.35 182.99 162.42 182.73 162.57 182.52
C162.72 182.31 162.90 182.21 163.11 182.21
Z
M163.10 185.16
C163.36 185.16 163.59 185.29 163.78 185.56
C163.97 185.83 164.06 186.18 164.06 186.61
C164.06 187.05 163.97 187.40 163.79 187.65
C163.60 187.91 163.38 188.04 163.11 188.04
C162.85 188.04 162.63 187.91 162.44 187.64
C162.25 187.38 162.16 187.02 162.16 186.59
C162.16 186.16 162.25 185.82 162.43 185.56
C162.61 185.29 162.84 185.16 163.10 185.16
Z
M159.51 181.49
C159.07 181.49 158.72 181.66 158.45 182.01
C158.18 182.35 158.03 182.87 157.99 183.55
L158.58 183.64
C158.58 183.18 158.66 182.83 158.84 182.58
C159.01 182.34 159.23 182.21 159.49 182.21
C159.74 182.21 159.95 182.33 160.12 182.56
C160.29 182.78 160.37 183.08 160.37 183.44
C160.37 183.76 160.29 184.10 160.13 184.46
C159.96 184.82 159.61 185.34 159.07 186.01
C158.61 186.58 158.30 187.08 158.13 187.50
C157.95 187.92 157.87 188.30 157.88 188.64
L160.97 188.64
L160.97 187.80
L158.68 187.80
C158.74 187.64 158.82 187.48 158.92 187.32
C159.02 187.17 159.24 186.87 159.58 186.43
C160.12 185.74 160.48 185.18 160.67 184.77
C160.87 184.35 160.96 183.92 160.96 183.46
C160.96 182.95 160.84 182.49 160.59 182.09
C160.35 181.69 159.99 181.49 159.51 181.49
Z
M163.10 181.49
C162.72 181.49 162.40 181.66 162.14 182.00
C161.89 182.34 161.76 182.78 161.76 183.32
C161.76 183.68 161.82 183.98 161.93 184.22
C162.05 184.46 162.23 184.65 162.46 184.78
C162.18 184.89 161.96 185.10 161.81 185.41
C161.65 185.72 161.57 186.11 161.57 186.59
C161.57 187.24 161.72 187.76 162.01 188.16
C162.31 188.56 162.67 188.76 163.11 188.76
C163.55 188.76 163.91 188.56 164.21 188.16
C164.50 187.76 164.65 187.24 164.65 186.61
C164.65 186.15 164.57 185.76 164.42 185.45
C164.27 185.14 164.05 184.92 163.77 184.78
C164.00 184.65 164.17 184.46 164.29 184.22
C164.40 183.98 164.46 183.69 164.46 183.35
C164.46 182.80 164.33 182.36 164.07 182.01
C163.81 181.66 163.49 181.49 163.10 181.49
Z
" fill="black" fill-rule="nonzero" />
<path d="
M163.26 193.25
L163.23 193.35
C163.13 193.65 162.97 193.95 162.74 194.27
C162.50 194.58 162.24 194.85 161.93 195.06
L161.87 195.11
L161.87 195.18
L161.87 196.03
L161.87 196.27
L162.08 196.15
C162.28 196.04 162.49 195.88 162.72 195.67
C162.83 195.57 162.93 195.47 163.02 195.38
L163.02 195.38
L163.02 200.54
L163.02 200.69
L163.88 200.69
L163.88 200.54
L163.88 193.39
L163.88 193.25
Z
M159.42 193.25
C159.01 193.25 158.67 193.42 158.39 193.77
C158.12 194.10 157.94 194.59 157.87 195.22
L157.85 195.34
L157.97 195.38
L158.54 195.53
L158.70 195.57
L158.72 195.41
C158.76 195.00 158.85 194.70 158.98 194.51
C159.11 194.34 159.25 194.25 159.42 194.25
C159.42 194.25 159.42 194.25 159.43 194.25
C159.43 194.25 159.43 194.25 159.43 194.25
C159.59 194.25 159.73 194.33 159.85 194.50
C159.98 194.68 160.05 194.92 160.05 195.22
C160.05 195.55 159.97 195.81 159.81 196.00
C159.67 196.18 159.48 196.27 159.24 196.27
L159.24 196.27
L159.16 196.26
L159.02 196.25
L159.00 196.39
L158.94 197.16
L158.92 197.39
L159.13 197.30
C159.28 197.25 159.39 197.22 159.48 197.22
C159.48 197.22 159.48 197.22 159.48 197.22
C159.49 197.22 159.49 197.22 159.49 197.22
C159.69 197.22 159.87 197.32 160.02 197.54
C160.18 197.76 160.26 198.07 160.26 198.45
C160.26 198.87 160.17 199.20 159.99 199.45
C159.83 199.69 159.64 199.80 159.43 199.80
C159.43 199.80 159.43 199.80 159.43 199.80
C159.43 199.80 159.43 199.80 159.43 199.80
C159.24 199.80 159.08 199.71 158.96 199.52
C158.82 199.30 158.72 198.97 158.66 198.53
L158.65 198.38
L158.50 198.41
L157.92 198.52
L157.80 198.55
L157.81 198.67
C157.85 199.31 158.02 199.83 158.31 200.21
C158.62 200.61 158.99 200.81 159.44 200.81
C159.91 200.81 160.32 200.58 160.66 200.13
C160.99 199.69 161.15 199.13 161.15 198.44
C161.15 198.12 161.11 197.83 161.03 197.56
C160.95 197.30 160.84 197.08 160.71 196.92
C160.62 196.81 160.52 196.72 160.40 196.65
L160.40 196.65
C160.54 196.52 160.65 196.35 160.74 196.16
C160.86 195.89 160.92 195.58 160.92 195.24
C160.92 194.68 160.78 194.21 160.50 193.83
C160.20 193.45 159.84 193.25 159.42 193.25
Z
" fill="white" fill-rule="nonzero" />
<path d="
M175.32 147.27
L175.32 150.48
L173.86 150.48
L175.32 147.27
Z
M171.64 145.83
C171.54 146.14 171.37 146.46 171.13 146.79
C170.89 147.12 170.61 147.39 170.29 147.62
L170.29 148.47
C170.48 148.36 170.68 148.21 170.90 148.01
C171.13 147.81 171.30 147.61 171.44 147.41
L171.44 152.98
L172.01 152.98
L172.01 145.83
Z
M175.43 145.86
L173.29 150.48
L173.29 151.28
L175.32 151.28
L175.32 152.98
L175.89 152.98
L175.89 151.28
L176.53 151.28
L176.53 150.48
L175.89 150.48
L175.89 145.86
Z
" fill="black" fill-rule="nonzero" />
<path d="
M171.53 157.53
L171.50 157.63
C171.41 157.93 171.25 158.23 171.01 158.55
C170.78 158.86 170.51 159.13 170.21 159.35
L170.15 159.39
L170.15 159.46
L170.15 160.31
L170.15 160.55
L170.36 160.43
C170.55 160.32 170.77 160.16 171.00 159.95
C171.11 159.86 171.21 159.76 171.29 159.66
L171.29 159.66
L171.29 164.83
L171.29 164.97
L172.15 164.97
L172.15 164.83
L172.15 157.68
L172.15 157.53
Z
M174.95 157.53
C174.55 157.53 174.21 157.71 173.92 158.05
C173.65 158.38 173.48 158.87 173.40 159.51
L173.39 159.63
L173.51 159.66
L174.08 159.81
L174.24 159.86
L174.26 159.69
C174.29 159.29 174.38 158.99 174.52 158.80
C174.64 158.62 174.79 158.54 174.96 158.54
C174.96 158.54 174.96 158.54 174.96 158.54
C174.96 158.54 174.96 158.54 174.96 158.54
C175.13 158.54 175.27 158.62 175.39 158.78
C175.52 158.96 175.58 159.20 175.58 159.50
C175.58 159.83 175.50 160.09 175.35 160.28
C175.20 160.46 175.01 160.55 174.78 160.56
L174.78 160.56
L174.70 160.55
L174.55 160.53
L174.54 160.68
L174.47 161.44
L174.45 161.67
L174.67 161.59
C174.81 161.53 174.93 161.50 175.02 161.50
C175.02 161.50 175.02 161.50 175.02 161.50
C175.02 161.50 175.02 161.50 175.02 161.50
C175.23 161.50 175.41 161.61 175.55 161.82
C175.71 162.05 175.79 162.35 175.79 162.74
C175.79 163.15 175.70 163.48 175.53 163.73
C175.37 163.97 175.18 164.09 174.97 164.09
C174.97 164.09 174.97 164.09 174.97 164.09
C174.96 164.09 174.96 164.09 174.96 164.09
C174.77 164.09 174.62 163.99 174.49 163.80
C174.36 163.59 174.26 163.26 174.20 162.81
L174.18 162.66
L174.03 162.69
L173.46 162.81
L173.34 162.83
L173.34 162.96
C173.38 163.60 173.55 164.11 173.85 164.50
C174.15 164.89 174.53 165.09 174.97 165.10
C175.45 165.09 175.86 164.87 176.19 164.41
C176.52 163.97 176.68 163.41 176.69 162.72
C176.69 162.40 176.65 162.11 176.57 161.85
C176.49 161.58 176.38 161.36 176.24 161.20
C176.16 161.09 176.05 161.00 175.94 160.93
L175.94 160.93
C176.07 160.80 176.19 160.63 176.27 160.44
C176.40 160.17 176.46 159.87 176.46 159.52
C176.46 158.96 176.31 158.49 176.03 158.11
C175.74 157.73 175.38 157.54 174.95 157.53
Z
" fill="white" fill-rule="nonzero" />
<path d="
M175.04 172.89
C175.30 172.89 175.51 173.03 175.69 173.31
C175.86 173.58 175.95 173.98 175.95 174.48
C175.95 175.00 175.86 175.40 175.69 175.70
C175.51 175.99 175.31 176.14 175.08 176.14
C174.83 176.14 174.60 175.98 174.41 175.67
C174.21 175.36 174.11 174.94 174.11 174.43
C174.11 173.95 174.21 173.58 174.39 173.30
C174.58 173.03 174.79 172.89 175.04 172.89
Z
M171.64 169.58
C171.54 169.89 171.37 170.21 171.13 170.54
C170.89 170.87 170.61 171.14 170.29 171.37
L170.29 172.22
C170.48 172.11 170.68 171.96 170.90 171.76
C171.13 171.56 171.30 171.36 171.44 171.16
L171.44 176.74
L172.01 176.74
L172.01 169.58
Z
M175.13 169.58
C174.64 169.58 174.24 169.88 173.92 170.46
C173.61 171.05 173.45 172.03 173.45 173.40
C173.45 174.64 173.61 175.53 173.91 176.06
C174.22 176.59 174.61 176.86 175.08 176.86
C175.34 176.86 175.58 176.76 175.80 176.58
C176.01 176.40 176.19 176.11 176.33 175.72
C176.47 175.34 176.54 174.90 176.54 174.43
C176.54 173.72 176.40 173.16 176.13 172.74
C175.85 172.32 175.53 172.11 175.16 172.11
C174.93 172.11 174.72 172.20 174.52 172.36
C174.32 172.52 174.16 172.75 174.02 173.06
C174.03 172.19 174.12 171.53 174.29 171.08
C174.49 170.56 174.76 170.30 175.09 170.30
C175.31 170.30 175.49 170.42 175.65 170.64
C175.75 170.80 175.83 171.06 175.89 171.43
L176.46 171.36
C176.41 170.78 176.26 170.34 176.02 170.04
C175.78 169.74 175.48 169.58 175.13 169.58
Z
" fill="black" fill-rule="nonzero" />
<path d="
M175.02 182.35
C175.02 182.35 175.02 182.35 175.02 182.35
C175.02 182.35 175.02 182.35 175.02 182.35
C175.21 182.35 175.37 182.48 175.53 182.73
C175.69 182.99 175.78 183.37 175.78 183.85
C175.78 184.33 175.70 184.70 175.53 184.96
C175.39 185.19 175.21 185.31 175.01 185.31
C175.01 185.31 175.01 185.31 175.01 185.31
C175.01 185.31 175.01 185.31 175.00 185.31
C174.80 185.31 174.62 185.19 174.47 184.96
C174.30 184.71 174.21 184.36 174.21 183.92
C174.21 183.43 174.30 183.04 174.48 182.75
C174.64 182.49 174.82 182.35 175.02 182.35
Z
M171.53 181.35
L171.50 181.45
C171.41 181.74 171.25 182.05 171.01 182.36
C170.78 182.68 170.51 182.94 170.21 183.16
L170.15 183.20
L170.15 183.28
L170.15 184.12
L170.15 184.36
L170.36 184.25
C170.55 184.14 170.77 183.98 171.00 183.77
C171.11 183.67 171.21 183.57 171.29 183.47
L171.29 183.47
L171.29 188.64
L171.29 188.78
L172.15 188.78
L172.15 188.64
L172.15 181.49
L172.15 181.35
Z
M174.95 181.35
C174.49 181.35 174.11 181.58 173.79 182.05
C173.49 182.51 173.34 183.12 173.34 183.89
C173.34 184.64 173.48 185.24 173.78 185.68
C174.08 186.14 174.45 186.37 174.88 186.37
C175.12 186.37 175.36 186.27 175.59 186.08
C175.68 186.01 175.76 185.93 175.83 185.83
L175.83 185.83
C175.81 186.23 175.76 186.58 175.68 186.89
C175.58 187.28 175.46 187.55 175.32 187.70
C175.19 187.83 175.05 187.90 174.90 187.90
C174.90 187.90 174.90 187.90 174.90 187.90
C174.89 187.90 174.89 187.90 174.89 187.90
C174.73 187.90 174.60 187.83 174.50 187.68
C174.38 187.51 174.30 187.25 174.26 186.90
L174.24 186.76
L174.10 186.78
L173.55 186.85
L173.41 186.87
L173.42 187.01
C173.47 187.61 173.63 188.07 173.88 188.40
C174.15 188.73 174.48 188.90 174.88 188.90
C175.24 188.90 175.55 188.77 175.83 188.49
C176.10 188.22 176.32 187.81 176.47 187.24
C176.62 186.69 176.70 185.91 176.70 184.92
C176.70 184.03 176.63 183.35 176.48 182.87
C176.34 182.38 176.13 182.00 175.86 181.75
C175.58 181.48 175.28 181.35 174.95 181.35
Z
" fill="white" fill-rule="nonzero" />
<path d="
M171.42 193.46
C170.98 193.46 170.63 193.63 170.36 193.97
C170.09 194.32 169.93 194.83 169.89 195.52
L170.48 195.61
C170.48 195.15 170.57 194.79 170.74 194.55
C170.91 194.30 171.13 194.18 171.40 194.18
C171.65 194.18 171.86 194.29 172.03 194.52
C172.19 194.75 172.28 195.05 172.28 195.41
C172.28 195.72 172.20 196.06 172.03 196.43
C171.87 196.79 171.51 197.31 170.98 197.97
C170.52 198.55 170.20 199.04 170.03 199.47
C169.86 199.89 169.78 200.27 169.78 200.61
L172.87 200.61
L172.87 199.77
L170.58 199.77
C170.64 199.61 170.72 199.45 170.82 199.29
C170.92 199.13 171.14 198.83 171.49 198.40
C172.02 197.70 172.39 197.15 172.58 196.73
C172.77 196.32 172.87 195.88 172.87 195.43
C172.87 194.92 172.74 194.46 172.50 194.06
C172.25 193.66 171.89 193.46 171.42 193.46
Z
M175.05 193.46
C174.61 193.46 174.26 193.63 173.99 193.97
C173.72 194.32 173.56 194.83 173.52 195.52
L174.11 195.61
C174.11 195.15 174.20 194.79 174.37 194.55
C174.54 194.30 174.76 194.18 175.03 194.18
C175.28 194.18 175.49 194.29 175.66 194.52
C175.83 194.75 175.91 195.05 175.91 195.41
C175.91 195.72 175.83 196.06 175.66 196.43
C175.50 196.79 175.14 197.31 174.61 197.97
C174.15 198.55 173.83 199.04 173.66 199.47
C173.49 199.89 173.41 200.27 173.41 200.61
L176.50 200.61
L176.50 199.77
L174.21 199.77
C174.27 199.61 174.35 199.45 174.45 199.29
C174.55 199.13 174.77 198.83 175.12 198.40
C175.65 197.70 176.02 197.15 176.21 196.73
C176.40 196.32 176.50 195.88 176.50 195.43
C176.50 194.92 176.37 194.46 176.13 194.06
C175.88 193.66 175.52 193.46 175.05 193.46
Z
" fill="black" fill-rule="nonzero" />
<path d="
M175.05 205.30
C174.61 205.30 174.26 205.47 173.99 205.82
C173.72 206.16 173.56 206.67 173.52 207.36
L174.11 207.45
C174.11 206.99 174.20 206.64 174.37 206.39
C174.54 206.14 174.76 206.02 175.03 206.02
C175.28 206.02 175.49 206.14 175.66 206.36
C175.83 206.59 175.91 206.89 175.91 207.25
C175.91 207.57 175.83 207.90 175.66 208.27
C175.50 208.63 175.14 209.15 174.61 209.82
C174.15 210.39 173.83 210.89 173.66 211.31
C173.49 211.73 173.41 212.11 173.41 212.45
L176.50 212.45
L176.50 211.61
L174.21 211.61
C174.27 211.45 174.35 211.29 174.45 211.13
C174.55 210.97 174.77 210.68 175.12 210.24
C175.65 209.55 176.02 208.99 176.21 208.57
C176.40 208.16 176.50 207.72 176.50 207.27
C176.50 206.76 176.37 206.30 176.13 205.90
C175.88 205.50 175.52 205.30 175.05 205.30
Z
M171.32 205.30
C170.96 205.30 170.66 205.45 170.40 205.76
C170.15 206.08 169.99 206.54 169.91 207.14
L170.48 207.30
C170.53 206.87 170.62 206.55 170.77 206.34
C170.93 206.12 171.11 206.02 171.33 206.02
C171.54 206.02 171.72 206.12 171.87 206.32
C172.02 206.52 172.09 206.79 172.09 207.12
C172.09 207.49 172.01 207.78 171.83 207.99
C171.65 208.21 171.42 208.32 171.14 208.32
L171.05 208.31
L170.99 209.08
C171.15 209.01 171.28 208.98 171.39 208.98
C171.65 208.98 171.86 209.11 172.04 209.36
C172.22 209.61 172.30 209.95 172.30 210.36
C172.30 210.80 172.21 211.16 172.02 211.44
C171.82 211.71 171.60 211.85 171.34 211.85
C170.85 211.85 170.55 211.39 170.43 210.45
L169.85 210.57
C169.89 211.18 170.05 211.67 170.33 212.03
C170.61 212.39 170.94 212.58 171.34 212.58
C171.77 212.58 172.14 212.37 172.45 211.95
C172.76 211.54 172.91 211.00 172.91 210.35
C172.91 210.04 172.88 209.76 172.80 209.51
C172.73 209.26 172.63 209.06 172.51 208.91
C172.38 208.76 172.23 208.66 172.04 208.59
C172.24 208.45 172.40 208.25 172.51 208.00
C172.63 207.75 172.68 207.47 172.68 207.14
C172.68 206.61 172.55 206.17 172.29 205.82
C172.02 205.47 171.70 205.30 171.32 205.30
Z
" fill="black" fill-rule="nonzero" />
<path d="
M185.32 38.59
L185.28 38.67
C185.17 38.97 184.97 39.27 184.68 39.58
C184.39 39.89 184.06 40.15 183.68 40.37
L183.61 40.41
L183.61 40.49
L183.61 41.33
L183.61 41.55
L183.81 41.46
C184.05 41.35 184.31 41.20 184.59 40.99
C184.75 40.87 184.90 40.75 185.02 40.64
L185.02 40.64
L185.02 45.79
L185.02 45.93
L186.02 45.93
L186.02 45.79
L186.02 38.73
L186.02 38.59
Z
" fill="white" fill-rule="nonzero" />
<path d="
M186.34 148.29
L186.34 148.29
L186.34 148.29
C186.34 148.29 186.34 148.29 186.34 148.29
Z
M183.44 145.63
L183.41 145.73
C183.32 146.03 183.15 146.33 182.92 146.65
C182.69 146.96 182.42 147.23 182.11 147.45
L182.05 147.49
L182.05 147.56
L182.05 148.41
L182.05 148.65
L182.26 148.53
C182.46 148.42 182.67 148.26 182.90 148.05
C183.01 147.95 183.11 147.85 183.20 147.76
L183.20 147.76
L183.20 152.92
L183.20 153.07
L184.06 153.07
L184.06 152.92
L184.06 145.77
L184.06 145.63
Z
M185.82 145.76
L185.80 145.88
L185.35 149.54
L185.33 149.67
L185.46 149.70
L186.00 149.80
L186.11 149.83
L186.16 149.72
C186.24 149.52 186.34 149.37 186.48 149.27
C186.60 149.17 186.73 149.12 186.87 149.12
C186.87 149.12 186.87 149.12 186.87 149.12
C186.88 149.12 186.88 149.12 186.88 149.12
C187.12 149.12 187.31 149.24 187.47 149.47
C187.65 149.73 187.74 150.10 187.74 150.58
C187.74 151.09 187.64 151.49 187.46 151.78
C187.29 152.05 187.10 152.18 186.88 152.18
C186.88 152.18 186.88 152.18 186.88 152.18
C186.88 152.18 186.88 152.18 186.88 152.18
C186.71 152.18 186.55 152.09 186.42 151.91
C186.27 151.71 186.17 151.39 186.13 150.97
L186.11 150.82
L185.97 150.84
L185.37 150.92
L185.24 150.93
L185.24 151.07
C185.29 151.72 185.45 152.23 185.75 152.61
C186.06 152.99 186.44 153.19 186.89 153.19
C187.43 153.19 187.86 152.91 188.17 152.37
C188.47 151.85 188.63 151.23 188.63 150.51
C188.63 149.77 188.47 149.19 188.17 148.75
C187.85 148.29 187.47 148.06 187.03 148.06
C186.79 148.06 186.56 148.14 186.34 148.29
L186.34 148.29
L186.52 146.88
L188.40 146.88
L188.40 146.73
L188.40 145.90
L188.40 145.76
Z
" fill="white" fill-rule="nonzero" />
<path d="
M183.54 157.74
C183.45 158.05 183.28 158.37 183.03 158.70
C182.79 159.02 182.51 159.30 182.20 159.53
L182.20 160.37
C182.38 160.27 182.59 160.12 182.81 159.91
C183.03 159.71 183.21 159.51 183.34 159.32
L183.34 164.89
L183.92 164.89
L183.92 157.74
Z
M186.95 157.74
C186.51 157.74 186.16 157.91 185.89 158.26
C185.63 158.60 185.47 159.12 185.43 159.80
L186.02 159.89
C186.02 159.43 186.11 159.08 186.28 158.83
C186.45 158.59 186.67 158.46 186.93 158.46
C187.18 158.46 187.39 158.58 187.56 158.81
C187.73 159.03 187.82 159.33 187.82 159.69
C187.82 160.01 187.73 160.35 187.57 160.71
C187.40 161.07 187.05 161.59 186.51 162.26
C186.05 162.83 185.74 163.33 185.57 163.75
C185.39 164.17 185.31 164.55 185.32 164.89
L188.41 164.89
L188.41 164.05
L186.12 164.05
C186.18 163.89 186.26 163.73 186.36 163.57
C186.46 163.42 186.68 163.12 187.02 162.68
C187.56 161.99 187.92 161.43 188.11 161.02
C188.31 160.60 188.40 160.16 188.40 159.71
C188.40 159.20 188.28 158.74 188.03 158.34
C187.79 157.94 187.43 157.74 186.95 157.74
Z
" fill="black" fill-rule="nonzero" />
<path d="
M185.10 170.48
C185.10 170.48 185.11 170.48 185.11 170.48
C185.11 170.48 185.11 170.48 185.11 170.48
C185.35 170.48 185.57 170.61 185.77 170.86
C185.97 171.12 186.07 171.49 186.07 171.96
C186.07 172.43 185.98 172.79 185.78 173.04
C185.59 173.28 185.36 173.40 185.10 173.40
C185.09 173.40 185.09 173.40 185.09 173.40
C185.09 173.40 185.09 173.40 185.09 173.40
C184.82 173.40 184.58 173.28 184.39 173.04
C184.18 172.80 184.08 172.46 184.08 172.03
C184.08 171.55 184.19 171.17 184.41 170.89
C184.61 170.62 184.85 170.48 185.10 170.48
Z
M185.03 169.49
C184.48 169.49 184.01 169.72 183.63 170.17
C183.25 170.62 183.06 171.23 183.06 172.00
C183.06 172.75 183.25 173.34 183.61 173.78
C183.98 174.23 184.42 174.45 184.93 174.45
C185.22 174.45 185.50 174.36 185.78 174.18
C185.91 174.08 186.04 173.98 186.14 173.85
L186.14 173.85
C186.12 174.27 186.06 174.63 185.96 174.95
C185.83 175.34 185.68 175.61 185.51 175.75
C185.34 175.89 185.16 175.96 184.95 175.96
C184.95 175.96 184.95 175.96 184.95 175.96
C184.95 175.96 184.95 175.96 184.95 175.96
C184.73 175.96 184.55 175.88 184.42 175.73
C184.28 175.57 184.18 175.31 184.13 174.97
L184.11 174.83
L183.98 174.85
L183.30 174.92
L183.16 174.94
L183.17 175.08
C183.23 175.68 183.42 176.14 183.74 176.46
C184.06 176.79 184.46 176.95 184.94 176.95
C185.36 176.95 185.74 176.82 186.08 176.55
C186.41 176.29 186.67 175.88 186.86 175.32
C187.05 174.77 187.14 174.00 187.14 173.02
C187.14 172.14 187.06 171.46 186.88 170.98
C186.70 170.49 186.45 170.12 186.11 169.87
C185.78 169.61 185.42 169.49 185.03 169.49
Z
" fill="white" fill-rule="nonzero" />
<path d="
M186.92 182.21
C187.12 182.21 187.30 182.31 187.46 182.53
C187.61 182.74 187.68 183.01 187.68 183.35
C187.68 183.67 187.61 183.93 187.46 184.14
C187.31 184.34 187.14 184.44 186.93 184.44
C186.71 184.44 186.53 184.34 186.38 184.13
C186.23 183.92 186.16 183.65 186.16 183.30
C186.16 182.99 186.23 182.73 186.38 182.52
C186.53 182.31 186.71 182.21 186.92 182.21
Z
M186.91 185.16
C187.17 185.16 187.40 185.29 187.59 185.56
C187.78 185.83 187.87 186.18 187.87 186.61
C187.87 187.05 187.78 187.40 187.60 187.65
C187.41 187.91 187.19 188.04 186.93 188.04
C186.66 188.04 186.44 187.91 186.25 187.64
C186.06 187.38 185.97 187.02 185.97 186.59
C185.97 186.16 186.06 185.82 186.24 185.56
C186.43 185.29 186.65 185.16 186.91 185.16
Z
M183.54 181.49
C183.45 181.80 183.28 182.12 183.03 182.45
C182.79 182.77 182.51 183.05 182.20 183.28
L182.20 184.12
C182.38 184.02 182.59 183.87 182.81 183.66
C183.03 183.46 183.21 183.26 183.34 183.07
L183.34 188.64
L183.92 188.64
L183.92 181.49
Z
M186.91 181.49
C186.53 181.49 186.21 181.66 185.95 182.00
C185.70 182.34 185.57 182.78 185.57 183.32
C185.57 183.68 185.63 183.98 185.75 184.22
C185.86 184.46 186.04 184.65 186.27 184.78
C185.99 184.89 185.77 185.10 185.62 185.41
C185.46 185.72 185.38 186.11 185.38 186.59
C185.38 187.24 185.53 187.76 185.82 188.16
C186.12 188.56 186.48 188.76 186.93 188.76
C187.36 188.76 187.73 188.56 188.02 188.16
C188.31 187.76 188.46 187.24 188.46 186.61
C188.46 186.15 188.38 185.76 188.23 185.45
C188.08 185.14 187.86 184.92 187.58 184.78
C187.81 184.65 187.99 184.46 188.10 184.22
C188.21 183.98 188.27 183.69 188.27 183.35
C188.27 182.80 188.14 182.36 187.88 182.01
C187.63 181.66 187.30 181.49 186.91 181.49
Z
" fill="black" fill-rule="nonzero" />
<path d="
M185.03 193.29
C184.54 193.29 184.13 193.46 183.79 193.80
C183.45 194.13 183.24 194.61 183.14 195.24
L183.12 195.37
L183.25 195.40
L183.96 195.55
L184.11 195.59
L184.13 195.43
C184.18 195.03 184.28 194.74 184.45 194.56
C184.61 194.38 184.80 194.29 185.03 194.29
C185.03 194.29 185.03 194.29 185.03 194.29
C185.04 194.29 185.04 194.29 185.04 194.29
C185.26 194.29 185.44 194.37 185.60 194.54
C185.76 194.71 185.83 194.95 185.83 195.24
C185.83 195.56 185.74 195.81 185.55 196.00
C185.36 196.19 185.11 196.28 184.81 196.28
L184.81 196.28
L184.70 196.27
L184.56 196.26
L184.55 196.40
L184.47 197.16
L184.44 197.37
L184.65 197.31
C184.84 197.25 184.99 197.22 185.11 197.22
C185.11 197.22 185.11 197.22 185.11 197.22
C185.11 197.22 185.11 197.22 185.11 197.22
C185.38 197.22 185.61 197.32 185.80 197.54
C186.00 197.76 186.09 198.06 186.09 198.44
C186.09 198.84 185.99 199.16 185.77 199.41
C185.56 199.65 185.32 199.77 185.04 199.77
C185.04 199.77 185.04 199.77 185.04 199.77
C185.04 199.77 185.04 199.77 185.04 199.77
C184.78 199.77 184.58 199.67 184.42 199.48
C184.25 199.27 184.13 198.94 184.06 198.51
L184.04 198.37
L183.90 198.39
L183.19 198.50
L183.06 198.52
L183.07 198.66
C183.12 199.29 183.33 199.80 183.69 200.19
C184.06 200.57 184.52 200.77 185.05 200.77
C185.62 200.77 186.11 200.55 186.52 200.11
C186.93 199.67 187.13 199.11 187.13 198.42
C187.13 198.10 187.08 197.81 186.98 197.55
C186.88 197.28 186.75 197.07 186.58 196.91
C186.48 196.80 186.36 196.72 186.22 196.65
L186.22 196.65
C186.38 196.52 186.51 196.36 186.62 196.18
C186.77 195.91 186.85 195.60 186.85 195.26
C186.85 194.70 186.67 194.23 186.32 193.86
C185.96 193.48 185.53 193.30 185.03 193.29
Z
" fill="white" fill-rule="nonzero" />
<path d="
M187.22 206.79
L187.22 210.01
L185.76 210.01
L187.22 206.79
Z
M183.32 205.36
C182.88 205.36 182.53 205.53 182.26 205.88
C182.00 206.22 181.84 206.74 181.80 207.42
L182.39 207.51
C182.39 207.05 182.48 206.70 182.65 206.45
C182.82 206.21 183.04 206.08 183.30 206.08
C183.55 206.08 183.76 206.20 183.93 206.43
C184.10 206.66 184.19 206.95 184.19 207.31
C184.19 207.63 184.10 207.97 183.94 208.33
C183.77 208.70 183.42 209.21 182.88 209.88
C182.42 210.45 182.11 210.95 181.94 211.37
C181.76 211.79 181.68 212.17 181.69 212.51
L184.78 212.51
L184.78 211.67
L182.49 211.67
C182.55 211.51 182.63 211.35 182.73 211.20
C182.83 211.04 183.05 210.74 183.39 210.30
C183.93 209.61 184.29 209.05 184.48 208.64
C184.68 208.22 184.77 207.79 184.77 207.33
C184.77 206.82 184.65 206.36 184.40 205.96
C184.16 205.56 183.80 205.36 183.32 205.36
Z
M187.33 205.39
L185.20 210.01
L185.20 210.81
L187.22 210.81
L187.22 212.51
L187.80 212.51
L187.80 210.81
L188.43 210.81
L188.43 210.01
L187.80 210.01
L187.80 205.39
Z
" fill="black" fill-rule="nonzero" />
<path d="
M195.35 133.79
L195.31 133.89
C195.22 134.18 195.06 134.49 194.82 134.80
C194.59 135.12 194.32 135.38 194.02 135.60
L193.96 135.64
L193.96 135.72
L193.96 136.56
L193.96 136.80
L194.17 136.69
C194.37 136.58 194.58 136.42 194.81 136.21
C194.92 136.11 195.02 136.01 195.11 135.91
L195.11 135.91
L195.11 141.08
L195.11 141.22
L195.96 141.22
L195.96 141.08
L195.96 133.93
L195.96 133.79
Z
M198.98 133.79
L198.94 133.89
C198.85 134.18 198.69 134.49 198.45 134.80
C198.22 135.12 197.95 135.38 197.65 135.60
L197.59 135.64
L197.59 135.72
L197.59 136.56
L197.59 136.80
L197.80 136.69
C198.00 136.58 198.21 136.42 198.44 136.21
C198.55 136.11 198.65 136.01 198.74 135.91
L198.74 135.91
L198.74 141.08
L198.74 141.22
L199.59 141.22
L199.59 141.08
L199.59 133.93
L199.59 133.79
Z
" fill="white" fill-rule="nonzero" />
<path d="
M197.00 158.43
C197.26 158.43 197.48 158.54 197.67 158.75
C197.85 158.96 197.95 159.23 197.95 159.56
C197.95 159.88 197.86 160.14 197.67 160.34
C197.49 160.54 197.27 160.64 197.01 160.64
C196.75 160.64 196.52 160.54 196.34 160.33
C196.16 160.13 196.07 159.85 196.07 159.51
C196.07 159.20 196.16 158.94 196.34 158.74
C196.53 158.53 196.75 158.43 197.00 158.43
Z
M196.99 161.35
C197.32 161.35 197.60 161.48 197.83 161.74
C198.07 162.01 198.18 162.35 198.18 162.79
C198.18 163.21 198.07 163.56 197.84 163.81
C197.62 164.07 197.34 164.20 197.01 164.20
C196.69 164.20 196.41 164.07 196.18 163.80
C195.95 163.54 195.83 163.19 195.83 162.76
C195.83 162.34 195.94 162.00 196.17 161.74
C196.40 161.48 196.67 161.35 196.99 161.35
Z
M197.00 157.72
C196.52 157.72 196.13 157.89 195.81 158.23
C195.49 158.56 195.34 159.00 195.34 159.53
C195.34 159.89 195.41 160.18 195.56 160.42
C195.70 160.66 195.92 160.84 196.20 160.97
C195.86 161.08 195.59 161.29 195.40 161.59
C195.20 161.90 195.11 162.29 195.11 162.76
C195.11 163.40 195.29 163.92 195.65 164.31
C196.01 164.71 196.47 164.91 197.01 164.91
C197.55 164.91 198.00 164.71 198.36 164.31
C198.73 163.92 198.91 163.41 198.91 162.78
C198.91 162.33 198.81 161.95 198.63 161.64
C198.44 161.33 198.17 161.11 197.82 160.97
C198.11 160.84 198.32 160.66 198.46 160.42
C198.60 160.19 198.67 159.90 198.67 159.56
C198.67 159.02 198.51 158.58 198.20 158.24
C197.88 157.89 197.48 157.72 197.00 157.72
Z
" fill="black" fill-rule="nonzero" />
<path d="
M198.79 170.31
C199.07 170.31 199.30 170.50 199.48 170.90
C199.66 171.29 199.75 172.06 199.75 173.22
C199.75 174.37 199.66 175.14 199.48 175.54
C199.31 175.94 199.09 176.14 198.83 176.14
C198.55 176.14 198.32 175.94 198.14 175.55
C197.97 175.15 197.88 174.38 197.88 173.22
C197.88 172.08 197.97 171.30 198.14 170.91
C198.32 170.51 198.53 170.31 198.79 170.31
Z
M195.23 169.58
C194.79 169.58 194.44 169.76 194.17 170.10
C193.90 170.45 193.75 170.96 193.70 171.64
L194.30 171.74
C194.30 171.28 194.38 170.92 194.55 170.68
C194.72 170.43 194.94 170.31 195.21 170.31
C195.46 170.31 195.67 170.42 195.84 170.65
C196.01 170.88 196.09 171.17 196.09 171.54
C196.09 171.85 196.01 172.19 195.84 172.55
C195.68 172.92 195.33 173.43 194.79 174.10
C194.33 174.68 194.01 175.17 193.84 175.59
C193.67 176.01 193.59 176.40 193.60 176.74
L196.69 176.74
L196.69 175.89
L194.39 175.89
C194.45 175.74 194.54 175.58 194.64 175.42
C194.74 175.26 194.96 174.96 195.30 174.52
C195.83 173.83 196.20 173.28 196.39 172.86
C196.58 172.44 196.68 172.01 196.68 171.56
C196.68 171.04 196.56 170.59 196.31 170.19
C196.07 169.78 195.70 169.58 195.23 169.58
Z
M198.82 169.58
C198.32 169.58 197.94 169.89 197.68 170.51
C197.42 171.12 197.29 172.03 197.29 173.22
C197.29 174.56 197.43 175.50 197.72 176.04
C198.00 176.58 198.37 176.86 198.81 176.86
C199.32 176.86 199.70 176.55 199.95 175.93
C200.21 175.31 200.34 174.41 200.34 173.22
C200.34 171.90 200.18 170.93 199.87 170.33
C199.62 169.83 199.26 169.58 198.82 169.58
Z
" fill="black" fill-rule="nonzero" />
<path d="
M198.24 184.01
L198.24 184.01
L198.24 184.01
C198.24 184.01 198.24 184.01 198.24 184.01
Z
M195.23 181.35
C194.74 181.35 194.35 181.54 194.06 181.92
C193.77 182.29 193.61 182.83 193.56 183.54
L193.56 183.67
L193.68 183.69
L194.27 183.78
L194.44 183.81
L194.44 183.64
C194.44 183.21 194.51 182.88 194.67 182.66
C194.81 182.46 194.99 182.35 195.20 182.35
C195.21 182.35 195.21 182.35 195.21 182.35
C195.21 182.35 195.21 182.35 195.21 182.35
C195.41 182.35 195.58 182.45 195.72 182.64
C195.87 182.84 195.95 183.11 195.95 183.44
C195.95 183.74 195.87 184.06 195.71 184.40
C195.55 184.76 195.21 185.26 194.68 185.92
C194.21 186.50 193.89 187.01 193.71 187.45
C193.53 187.88 193.45 188.28 193.45 188.64
L193.46 188.78
L196.83 188.78
L196.83 188.64
L196.83 187.80
L196.83 187.66
L194.61 187.66
C194.65 187.57 194.70 187.49 194.76 187.40
C194.85 187.24 195.07 186.95 195.41 186.52
C195.95 185.82 196.32 185.25 196.52 184.83
C196.72 184.39 196.82 183.94 196.82 183.46
C196.82 182.92 196.69 182.44 196.43 182.02
C196.16 181.57 195.76 181.35 195.23 181.35
Z
M197.72 181.47
L197.71 181.60
L197.25 185.26
L197.24 185.39
L197.36 185.41
L197.91 185.52
L198.02 185.54
L198.06 185.43
C198.14 185.24 198.25 185.09 198.38 184.98
C198.51 184.88 198.64 184.83 198.78 184.83
C198.78 184.83 198.78 184.83 198.78 184.83
C198.78 184.83 198.78 184.83 198.78 184.83
C199.02 184.83 199.22 184.95 199.38 185.19
C199.55 185.45 199.64 185.81 199.64 186.29
C199.64 186.81 199.55 187.21 199.37 187.50
C199.20 187.77 199.01 187.90 198.79 187.90
C198.79 187.90 198.79 187.90 198.78 187.90
C198.78 187.90 198.78 187.90 198.78 187.90
C198.61 187.90 198.46 187.81 198.32 187.63
C198.18 187.42 198.08 187.11 198.04 186.68
L198.02 186.54
L197.88 186.56
L197.27 186.63
L197.14 186.65
L197.15 186.78
C197.19 187.44 197.36 187.95 197.66 188.32
C197.96 188.71 198.34 188.90 198.79 188.90
C199.33 188.90 199.76 188.63 200.08 188.09
C200.38 187.57 200.53 186.95 200.53 186.23
C200.53 185.49 200.38 184.90 200.07 184.46
C199.75 184.01 199.38 183.78 198.94 183.78
C198.69 183.78 198.46 183.85 198.24 184.01
L198.24 184.01
L198.43 182.59
L200.31 182.59
L200.31 182.45
L200.31 181.62
L200.31 181.47
Z
" fill="white" fill-rule="nonzero" />
<path d="
M198.85 196.70
C199.11 196.70 199.32 196.84 199.50 197.12
C199.68 197.39 199.76 197.79 199.76 198.29
C199.76 198.81 199.67 199.21 199.50 199.51
C199.32 199.80 199.12 199.95 198.89 199.95
C198.64 199.95 198.41 199.79 198.22 199.48
C198.02 199.17 197.93 198.75 197.93 198.24
C197.93 197.77 198.02 197.39 198.20 197.11
C198.39 196.84 198.61 196.70 198.85 196.70
Z
M195.23 193.39
C194.79 193.39 194.44 193.57 194.17 193.91
C193.90 194.26 193.75 194.77 193.70 195.45
L194.30 195.55
C194.30 195.09 194.38 194.73 194.55 194.49
C194.72 194.24 194.94 194.12 195.21 194.12
C195.46 194.12 195.67 194.23 195.84 194.46
C196.01 194.69 196.09 194.99 196.09 195.35
C196.09 195.66 196.01 196.00 195.84 196.37
C195.68 196.73 195.33 197.25 194.79 197.91
C194.33 198.49 194.01 198.98 193.84 199.40
C193.67 199.83 193.59 200.21 193.60 200.55
L196.69 200.55
L196.69 199.71
L194.39 199.71
C194.45 199.55 194.54 199.39 194.64 199.23
C194.74 199.07 194.96 198.77 195.30 198.34
C195.83 197.64 196.20 197.09 196.39 196.67
C196.58 196.26 196.68 195.82 196.68 195.37
C196.68 194.86 196.56 194.40 196.31 194.00
C196.07 193.60 195.70 193.39 195.23 193.39
Z
M198.94 193.39
C198.45 193.39 198.05 193.69 197.73 194.27
C197.42 194.86 197.26 195.84 197.26 197.21
C197.26 198.45 197.42 199.34 197.72 199.87
C198.03 200.40 198.42 200.67 198.89 200.67
C199.15 200.67 199.39 200.58 199.61 200.39
C199.83 200.21 200.00 199.92 200.14 199.53
C200.28 199.15 200.35 198.71 200.35 198.24
C200.35 197.54 200.21 196.97 199.94 196.56
C199.66 196.14 199.34 195.93 198.97 195.93
C198.74 195.93 198.53 196.01 198.33 196.17
C198.13 196.33 197.97 196.56 197.84 196.87
C197.84 196.00 197.93 195.34 198.10 194.89
C198.30 194.37 198.57 194.11 198.90 194.11
C199.12 194.11 199.30 194.23 199.46 194.45
C199.56 194.61 199.64 194.87 199.70 195.24
L200.27 195.17
C200.22 194.59 200.07 194.15 199.83 193.85
C199.59 193.55 199.29 193.39 198.94 193.39
Z
" fill="black" fill-rule="nonzero" />
<path d="
M210.70 182.21
C210.98 182.21 211.21 182.41 211.39 182.80
C211.56 183.19 211.65 183.97 211.65 185.13
C211.65 186.27 211.57 187.05 211.39 187.45
C211.21 187.84 210.99 188.04 210.73 188.04
C210.46 188.04 210.23 187.85 210.05 187.45
C209.87 187.06 209.78 186.28 209.78 185.13
C209.78 183.98 209.87 183.21 210.05 182.81
C210.22 182.41 210.44 182.21 210.70 182.21
Z
M207.35 181.49
C207.26 181.80 207.09 182.12 206.84 182.45
C206.60 182.77 206.32 183.05 206.01 183.28
L206.01 184.12
C206.19 184.02 206.40 183.87 206.62 183.66
C206.84 183.46 207.02 183.26 207.15 183.07
L207.15 188.64
L207.73 188.64
L207.73 181.49
Z
M210.72 181.49
C210.22 181.49 209.84 181.80 209.58 182.41
C209.33 183.03 209.20 183.93 209.20 185.13
C209.20 186.46 209.34 187.40 209.62 187.95
C209.91 188.49 210.27 188.76 210.72 188.76
C211.22 188.76 211.60 188.45 211.86 187.84
C212.12 187.22 212.24 186.32 212.24 185.13
C212.24 183.80 212.09 182.84 211.78 182.24
C211.52 181.74 211.17 181.49 210.72 181.49
Z
" fill="black" fill-rule="nonzero" />
<path d="
M210.70 206.02
C210.98 206.02 211.21 206.22 211.39 206.61
C211.56 207.00 211.65 207.78 211.65 208.94
C211.65 210.08 211.57 210.86 211.39 211.25
C211.21 211.65 210.99 211.85 210.73 211.85
C210.46 211.85 210.23 211.65 210.05 211.26
C209.87 210.87 209.78 210.09 209.78 208.94
C209.78 207.79 209.87 207.02 210.05 206.62
C210.22 206.22 210.44 206.02 210.70 206.02
Z
M210.72 205.30
C210.22 205.30 209.84 205.61 209.58 206.22
C209.33 206.84 209.20 207.74 209.20 208.94
C209.20 210.27 209.34 211.21 209.62 211.75
C209.91 212.30 210.27 212.57 210.72 212.57
C211.22 212.57 211.60 212.26 211.86 211.65
C212.12 211.03 212.24 210.13 212.24 208.94
C212.24 207.61 212.09 206.65 211.78 206.05
C211.52 205.55 211.17 205.30 210.72 205.30
Z
M207.04 205.30
C206.68 205.30 206.37 205.45 206.12 205.76
C205.87 206.08 205.70 206.54 205.63 207.14
L206.20 207.30
C206.24 206.87 206.34 206.55 206.49 206.34
C206.64 206.12 206.83 206.02 207.05 206.02
C207.26 206.02 207.44 206.12 207.59 206.32
C207.74 206.52 207.81 206.79 207.81 207.12
C207.81 207.49 207.72 207.78 207.55 207.99
C207.37 208.21 207.14 208.32 206.86 208.32
L206.77 208.31
L206.70 209.08
C206.86 209.01 207.00 208.98 207.11 208.98
C207.36 208.98 207.58 209.11 207.76 209.36
C207.93 209.61 208.02 209.95 208.02 210.36
C208.02 210.80 207.92 211.16 207.73 211.44
C207.54 211.71 207.31 211.85 207.05 211.85
C206.57 211.85 206.27 211.39 206.15 210.45
L205.57 210.57
C205.61 211.18 205.77 211.67 206.05 212.03
C206.32 212.39 206.66 212.58 207.06 212.58
C207.49 212.58 207.86 212.37 208.17 211.95
C208.48 211.54 208.63 211.00 208.63 210.35
C208.63 210.04 208.59 209.76 208.52 209.51
C208.44 209.26 208.34 209.06 208.22 208.91
C208.10 208.76 207.95 208.66 207.76 208.59
C207.96 208.45 208.12 208.25 208.23 208.00
C208.34 207.75 208.40 207.47 208.40 207.14
C208.40 206.61 208.27 206.17 208.00 205.82
C207.74 205.47 207.42 205.30 207.04 205.30
Z
" fill="black" fill-rule="nonzero" />
</g>
<g  transform="translate(1.19,228.58)" >
<path d="
M105.01 2.94
C104.84 2.94 104.70 3.00 104.58 3.11
C104.47 3.23 104.41 3.37 104.41 3.53
C104.41 3.69 104.47 3.83 104.59 3.95
C104.70 4.07 104.84 4.12 105.01 4.12
C105.17 4.12 105.31 4.07 105.42 3.95
C105.54 3.83 105.59 3.69 105.59 3.53
C105.59 3.37 105.54 3.23 105.42 3.11
C105.31 3.00 105.17 2.94 105.01 2.94
Z
M121.35 4.39
L121.35 8.31
L118.58 8.31
L121.35 4.39
Z
M109.98 8.04
L109.98 10.07
C109.50 10.46 109.11 10.65 108.81 10.65
C108.60 10.65 108.40 10.56 108.24 10.37
C108.07 10.19 107.99 9.96 107.99 9.68
C107.99 9.46 108.05 9.25 108.19 9.07
C108.32 8.88 108.54 8.70 108.84 8.53
C109.01 8.44 109.39 8.27 109.98 8.04
Z
M98.33 3.77
C99.26 3.77 100.02 4.08 100.61 4.71
C101.21 5.34 101.50 6.20 101.50 7.29
C101.50 8.37 101.21 9.23 100.61 9.86
C100.02 10.49 99.27 10.81 98.37 10.81
C98.04 10.81 97.63 10.75 97.13 10.64
L97.13 3.94
C97.58 3.83 97.98 3.77 98.33 3.77
Z
M94.88 3.33
L94.88 3.54
L95.18 3.54
C95.48 3.54 95.70 3.63 95.86 3.80
C95.96 3.92 96.02 4.23 96.02 4.72
L96.02 9.82
C96.02 10.26 95.98 10.55 95.89 10.68
C95.75 10.89 95.51 11.00 95.18 11.00
L94.88 11.00
L94.88 11.21
L98.41 11.21
C99.94 11.21 101.08 10.80 101.83 9.98
C102.49 9.24 102.83 8.33 102.83 7.23
C102.83 6.41 102.64 5.69 102.27 5.07
C101.89 4.44 101.40 4.00 100.78 3.73
C100.17 3.46 99.27 3.33 98.09 3.33
Z
M105.23 5.73
L103.63 6.38
L103.71 6.59
C103.86 6.53 104.00 6.50 104.10 6.50
C104.21 6.50 104.28 6.53 104.34 6.58
C104.40 6.62 104.44 6.71 104.47 6.83
C104.51 7.00 104.52 7.38 104.52 7.96
L104.52 10.01
C104.52 10.34 104.50 10.56 104.44 10.68
C104.39 10.79 104.32 10.88 104.23 10.93
C104.14 10.98 103.97 11.00 103.71 11.00
L103.71 11.21
L106.30 11.21
L106.30 11.00
C106.04 11.00 105.87 10.98 105.78 10.92
C105.68 10.87 105.61 10.79 105.56 10.68
C105.51 10.56 105.49 10.34 105.49 10.01
L105.49 5.73
Z
M121.67 3.16
L118.01 8.39
L118.01 9.13
L121.35 9.13
L121.35 11.21
L122.31 11.21
L122.31 9.13
L123.36 9.13
L123.36 8.31
L122.31 8.31
L122.31 3.16
Z
M130.07 3.16
L128.15 4.10
L128.23 4.28
C128.49 4.16 128.69 4.10 128.83 4.10
C128.93 4.10 129.02 4.13 129.09 4.19
C129.16 4.25 129.21 4.34 129.24 4.46
C129.28 4.62 129.30 4.99 129.30 5.57
L129.30 9.82
C129.30 10.30 129.28 10.58 129.24 10.67
C129.19 10.77 129.12 10.85 129.01 10.90
C128.90 10.96 128.66 10.99 128.29 11.00
L128.29 11.21
L131.25 11.21
L131.25 11.00
C130.90 10.99 130.66 10.96 130.54 10.90
C130.43 10.84 130.35 10.76 130.31 10.65
C130.28 10.54 130.26 10.27 130.26 9.82
L130.26 3.16
Z
M109.16 5.73
C108.55 5.73 108.07 5.87 107.73 6.15
C107.38 6.43 107.21 6.73 107.21 7.07
C107.21 7.24 107.26 7.38 107.35 7.48
C107.44 7.58 107.56 7.63 107.70 7.63
C107.85 7.63 107.97 7.58 108.06 7.49
C108.15 7.39 108.20 7.25 108.20 7.07
L108.19 6.74
C108.19 6.56 108.26 6.41 108.41 6.28
C108.55 6.15 108.74 6.08 108.99 6.08
C109.31 6.08 109.55 6.18 109.72 6.38
C109.89 6.58 109.98 6.94 109.98 7.47
L109.98 7.68
C109.06 8.02 108.41 8.30 108.01 8.53
C107.62 8.76 107.34 9.01 107.19 9.28
C107.07 9.47 107.01 9.69 107.01 9.95
C107.01 10.36 107.13 10.69 107.37 10.95
C107.61 11.20 107.91 11.32 108.28 11.32
C108.51 11.32 108.74 11.27 108.95 11.18
C109.09 11.11 109.43 10.87 109.98 10.45
C109.98 10.76 110.04 10.99 110.15 11.12
C110.26 11.25 110.41 11.32 110.60 11.32
C111.00 11.32 111.41 11.03 111.85 10.45
L111.85 10.12
C111.62 10.35 111.46 10.49 111.38 10.54
C111.33 10.57 111.28 10.58 111.22 10.58
C111.16 10.58 111.11 10.57 111.06 10.53
C111.02 10.49 110.98 10.41 110.97 10.30
C110.95 10.18 110.94 9.87 110.94 9.36
L110.94 7.55
C110.94 7.04 110.90 6.70 110.83 6.53
C110.72 6.28 110.55 6.09 110.33 5.97
C110.02 5.81 109.64 5.73 109.16 5.73
Z
M113.36 10.08
C113.18 10.08 113.03 10.15 112.90 10.27
C112.78 10.39 112.71 10.55 112.71 10.73
C112.71 10.91 112.78 11.06 112.90 11.19
C113.03 11.31 113.18 11.38 113.36 11.38
C113.54 11.38 113.69 11.31 113.82 11.19
C113.94 11.06 114.00 10.91 114.00 10.73
C114.00 10.55 113.94 10.40 113.82 10.27
C113.69 10.15 113.54 10.08 113.36 10.08
Z
M125.26 10.08
C125.09 10.08 124.93 10.15 124.81 10.27
C124.68 10.39 124.62 10.55 124.62 10.73
C124.62 10.91 124.68 11.06 124.81 11.19
C124.93 11.31 125.09 11.38 125.26 11.38
C125.44 11.38 125.59 11.31 125.72 11.19
C125.85 11.06 125.91 10.91 125.91 10.73
C125.91 10.55 125.85 10.40 125.72 10.27
C125.60 10.15 125.45 10.08 125.26 10.08
Z
" fill="black" fill-rule="nonzero" />
</g>
<g  transform="translate(1.19,242.50)" >
<circle cx="61.62" cy="6.08" r="5.98" fill="black"/>
<path d="
M59.81 2.30
C59.33 2.30 58.94 2.49 58.64 2.87
C58.35 3.24 58.19 3.78 58.15 4.49
L58.14 4.62
L58.27 4.64
L58.86 4.73
L59.02 4.76
L59.02 4.59
C59.02 4.16 59.10 3.83 59.25 3.61
C59.39 3.41 59.57 3.30 59.79 3.30
C59.79 3.30 59.79 3.30 59.79 3.30
C59.79 3.30 59.79 3.30 59.80 3.30
C60.00 3.30 60.17 3.40 60.31 3.59
C60.46 3.79 60.53 4.06 60.53 4.39
C60.53 4.69 60.45 5.01 60.30 5.35
C60.14 5.70 59.79 6.21 59.26 6.87
C58.80 7.45 58.47 7.96 58.30 8.40
C58.12 8.83 58.03 9.23 58.04 9.59
L58.04 9.73
L61.41 9.73
L61.41 9.59
L61.41 8.75
L61.41 8.61
L59.19 8.61
C59.24 8.52 59.28 8.44 59.34 8.35
C59.44 8.19 59.65 7.90 59.99 7.47
C60.54 6.77 60.91 6.20 61.10 5.78
C61.30 5.34 61.40 4.89 61.40 4.41
C61.40 3.87 61.27 3.39 61.02 2.97
C60.74 2.52 60.34 2.30 59.81 2.30
Z
M63.35 2.30
C62.94 2.30 62.60 2.47 62.32 2.82
C62.05 3.15 61.87 3.63 61.80 4.27
L61.78 4.39
L61.90 4.42
L62.47 4.58
L62.63 4.62
L62.65 4.45
C62.69 4.05 62.78 3.75 62.91 3.56
C63.04 3.39 63.18 3.30 63.35 3.30
C63.35 3.30 63.36 3.30 63.36 3.30
C63.36 3.30 63.36 3.30 63.36 3.30
C63.52 3.30 63.66 3.38 63.78 3.55
C63.91 3.72 63.98 3.96 63.98 4.27
C63.98 4.59 63.90 4.86 63.74 5.05
C63.60 5.23 63.41 5.32 63.17 5.32
L63.17 5.32
L63.09 5.31
L62.95 5.29
L62.94 5.44
L62.87 6.21
L62.85 6.44
L63.06 6.35
C63.21 6.29 63.32 6.26 63.41 6.26
C63.41 6.26 63.41 6.26 63.41 6.26
C63.42 6.26 63.42 6.26 63.42 6.26
C63.62 6.26 63.80 6.37 63.95 6.58
C64.11 6.81 64.19 7.12 64.19 7.50
C64.19 7.91 64.10 8.24 63.92 8.50
C63.76 8.73 63.58 8.85 63.36 8.85
C63.36 8.85 63.36 8.85 63.36 8.85
C63.36 8.85 63.36 8.85 63.36 8.85
C63.17 8.85 63.01 8.76 62.89 8.57
C62.75 8.35 62.65 8.02 62.60 7.58
L62.58 7.42
L62.43 7.45
L61.85 7.57
L61.73 7.60
L61.74 7.72
C61.78 8.36 61.95 8.87 62.24 9.26
C62.55 9.66 62.92 9.86 63.37 9.86
C63.85 9.86 64.25 9.63 64.59 9.18
C64.92 8.74 65.08 8.17 65.08 7.49
C65.08 7.17 65.04 6.87 64.96 6.61
C64.88 6.34 64.77 6.13 64.64 5.96
C64.55 5.86 64.45 5.77 64.33 5.70
L64.33 5.70
C64.47 5.56 64.58 5.40 64.67 5.20
C64.79 4.94 64.85 4.63 64.85 4.29
C64.85 3.72 64.71 3.25 64.43 2.88
C64.13 2.49 63.77 2.30 63.35 2.30
Z
" fill="white" fill-rule="nonzero" />
<path d="
M73.30 7.06
L73.30 8.88
C72.86 9.23 72.51 9.40 72.25 9.40
C72.05 9.40 71.88 9.32 71.73 9.16
C71.58 8.99 71.51 8.78 71.51 8.53
C71.51 8.33 71.57 8.15 71.68 7.98
C71.80 7.81 72.00 7.65 72.28 7.50
C72.43 7.41 72.77 7.26 73.30 7.06
Z
M76.57 3.55
C76.42 3.90 76.31 4.14 76.23 4.27
C76.07 4.52 75.90 4.74 75.70 4.92
C75.49 5.11 75.30 5.24 75.11 5.31
L75.11 5.49
L75.87 5.49
L75.87 8.71
C75.87 9.05 75.90 9.31 75.98 9.47
C76.05 9.64 76.16 9.77 76.32 9.86
C76.47 9.94 76.63 9.99 76.79 9.99
C77.02 9.99 77.25 9.90 77.48 9.73
C77.70 9.56 77.87 9.30 77.99 8.96
L77.79 8.96
C77.73 9.10 77.65 9.20 77.54 9.28
C77.43 9.35 77.32 9.38 77.20 9.38
C77.06 9.38 76.95 9.33 76.86 9.22
C76.77 9.11 76.73 8.90 76.73 8.59
L76.73 5.49
L77.85 5.49
L77.85 5.12
L76.73 5.12
L76.73 3.55
Z
M72.56 4.98
C72.01 4.98 71.58 5.10 71.27 5.36
C70.96 5.61 70.81 5.88 70.81 6.18
C70.81 6.34 70.85 6.46 70.93 6.55
C71.02 6.64 71.12 6.69 71.25 6.69
C71.38 6.69 71.49 6.65 71.57 6.56
C71.65 6.47 71.70 6.35 71.70 6.19
L71.68 5.88
C71.68 5.73 71.75 5.59 71.88 5.48
C72.01 5.36 72.19 5.30 72.41 5.30
C72.70 5.30 72.92 5.39 73.07 5.57
C73.22 5.74 73.30 6.07 73.30 6.55
L73.30 6.74
C72.47 7.04 71.88 7.29 71.53 7.50
C71.18 7.71 70.93 7.93 70.79 8.17
C70.68 8.34 70.63 8.54 70.63 8.78
C70.63 9.15 70.74 9.44 70.95 9.67
C71.16 9.90 71.44 10.01 71.77 10.01
C71.98 10.01 72.18 9.97 72.37 9.88
C72.50 9.82 72.80 9.60 73.30 9.22
C73.30 9.51 73.35 9.71 73.45 9.83
C73.55 9.95 73.69 10.00 73.86 10.00
C74.22 10.00 74.59 9.74 74.98 9.22
L74.98 8.93
C74.77 9.14 74.63 9.26 74.56 9.31
C74.51 9.33 74.47 9.35 74.41 9.35
C74.36 9.35 74.31 9.33 74.27 9.29
C74.23 9.26 74.20 9.19 74.18 9.09
C74.17 8.98 74.16 8.70 74.16 8.25
L74.16 6.62
C74.16 6.16 74.13 5.85 74.06 5.70
C73.97 5.47 73.81 5.30 73.61 5.19
C73.34 5.05 72.99 4.98 72.56 4.98
Z
" fill="black" fill-rule="nonzero" />
<circle cx="86.61" cy="6.08" r="5.98" fill="black"/>
<path d="
M86.59 3.34
C86.59 3.34 86.59 3.34 86.59 3.34
C86.59 3.34 86.59 3.34 86.59 3.34
C86.84 3.34 87.06 3.47 87.25 3.72
C87.46 3.98 87.56 4.35 87.56 4.82
C87.56 5.29 87.46 5.65 87.26 5.90
C87.07 6.14 86.85 6.26 86.58 6.26
C86.58 6.26 86.58 6.26 86.58 6.26
C86.58 6.26 86.58 6.26 86.57 6.26
C86.30 6.26 86.07 6.14 85.87 5.90
C85.66 5.65 85.56 5.32 85.56 4.89
C85.56 4.41 85.67 4.03 85.89 3.75
C86.10 3.48 86.33 3.34 86.59 3.34
Z
M86.51 2.34
C85.96 2.34 85.49 2.57 85.11 3.03
C84.74 3.48 84.55 4.09 84.55 4.86
C84.55 5.61 84.73 6.20 85.09 6.64
C85.46 7.08 85.90 7.31 86.42 7.31
C86.71 7.31 86.99 7.22 87.26 7.03
C87.40 6.94 87.52 6.83 87.63 6.71
L87.63 6.71
C87.61 7.12 87.55 7.49 87.44 7.81
C87.32 8.20 87.17 8.46 86.99 8.61
C86.83 8.75 86.64 8.82 86.44 8.82
C86.44 8.82 86.44 8.82 86.44 8.82
C86.44 8.82 86.44 8.82 86.43 8.82
C86.21 8.82 86.04 8.74 85.91 8.59
C85.76 8.42 85.67 8.17 85.62 7.83
L85.60 7.69
L85.46 7.71
L84.78 7.78
L84.64 7.80
L84.66 7.94
C84.72 8.54 84.91 9.00 85.22 9.32
C85.55 9.65 85.95 9.81 86.42 9.81
C86.84 9.81 87.22 9.68 87.56 9.41
C87.89 9.15 88.16 8.74 88.35 8.18
C88.54 7.63 88.63 6.86 88.63 5.88
C88.63 4.99 88.54 4.31 88.37 3.84
C88.19 3.35 87.93 2.98 87.60 2.73
C87.26 2.47 86.90 2.34 86.51 2.34
Z
" fill="white" fill-rule="nonzero" />
<path d="
" fill="black" fill-rule="nonzero" />
<circle cx="101.19" cy="6.08" r="5.98" fill="black"/>
<path d="
M99.39 2.36
C98.91 2.36 98.52 2.55 98.22 2.93
C97.93 3.30 97.77 3.84 97.73 4.55
L97.72 4.68
L97.85 4.70
L98.44 4.79
L98.60 4.82
L98.60 4.65
C98.60 4.22 98.68 3.90 98.83 3.68
C98.97 3.47 99.15 3.37 99.37 3.37
C99.37 3.37 99.37 3.37 99.37 3.37
C99.37 3.37 99.37 3.37 99.38 3.37
C99.58 3.37 99.75 3.46 99.89 3.65
C100.04 3.86 100.11 4.12 100.11 4.46
C100.11 4.75 100.03 5.07 99.88 5.41
C99.72 5.77 99.37 6.27 98.84 6.93
C98.37 7.52 98.05 8.02 97.87 8.46
C97.70 8.90 97.61 9.30 97.62 9.66
L97.62 9.80
L100.99 9.80
L100.99 9.65
L100.99 8.81
L100.99 8.67
L98.77 8.67
C98.82 8.59 98.86 8.50 98.92 8.41
C99.02 8.26 99.23 7.96 99.57 7.53
C100.12 6.83 100.49 6.26 100.68 5.84
C100.88 5.40 100.98 4.95 100.98 4.47
C100.98 3.94 100.85 3.45 100.60 3.03
C100.32 2.59 99.92 2.36 99.39 2.36
Z
M101.35 2.48
L101.35 2.62
L101.35 3.46
L101.35 3.61
L103.54 3.61
C103.29 4.07 103.05 4.62 102.83 5.25
C102.58 5.98 102.38 6.74 102.24 7.54
C102.09 8.35 102.01 9.05 102.01 9.65
L102.00 9.80
L102.74 9.80
L102.87 9.80
L102.88 9.66
C102.93 8.52 103.13 7.37 103.46 6.20
C103.80 5.04 104.19 4.10 104.64 3.38
L104.66 3.34
L104.66 3.30
L104.66 2.62
L104.66 2.48
Z
" fill="white" fill-rule="nonzero" />
<path d="
M112.88 7.06
L112.88 8.88
C112.44 9.23 112.09 9.40 111.83 9.40
C111.63 9.40 111.46 9.32 111.31 9.16
C111.16 8.99 111.09 8.78 111.09 8.53
C111.09 8.33 111.15 8.15 111.26 7.98
C111.38 7.81 111.58 7.65 111.86 7.50
C112.01 7.41 112.35 7.26 112.88 7.06
Z
M116.15 3.55
C116.00 3.90 115.89 4.14 115.81 4.27
C115.65 4.52 115.48 4.74 115.27 4.92
C115.07 5.11 114.88 5.24 114.69 5.31
L114.69 5.49
L115.44 5.49
L115.44 8.71
C115.44 9.05 115.48 9.31 115.55 9.47
C115.63 9.64 115.74 9.77 115.89 9.86
C116.05 9.94 116.20 9.99 116.37 9.99
C116.60 9.99 116.83 9.90 117.06 9.73
C117.28 9.56 117.45 9.30 117.57 8.96
L117.37 8.96
C117.31 9.10 117.23 9.20 117.12 9.28
C117.01 9.35 116.90 9.38 116.78 9.38
C116.64 9.38 116.53 9.33 116.44 9.22
C116.35 9.11 116.31 8.90 116.31 8.59
L116.31 5.49
L117.43 5.49
L117.43 5.12
L116.31 5.12
L116.31 3.55
Z
M112.14 4.98
C111.59 4.98 111.16 5.10 110.85 5.36
C110.54 5.61 110.39 5.88 110.39 6.18
C110.39 6.34 110.43 6.46 110.51 6.55
C110.60 6.64 110.70 6.69 110.83 6.69
C110.96 6.69 111.07 6.65 111.15 6.56
C111.23 6.47 111.27 6.35 111.27 6.19
L111.26 5.88
C111.26 5.73 111.33 5.59 111.46 5.48
C111.59 5.36 111.77 5.30 111.99 5.30
C112.28 5.30 112.50 5.39 112.65 5.57
C112.80 5.74 112.88 6.07 112.88 6.55
L112.88 6.74
C112.05 7.04 111.46 7.29 111.11 7.50
C110.76 7.71 110.51 7.93 110.36 8.17
C110.26 8.34 110.21 8.54 110.21 8.78
C110.21 9.15 110.32 9.44 110.53 9.67
C110.74 9.90 111.02 10.01 111.35 10.01
C111.56 10.01 111.76 9.97 111.95 9.88
C112.08 9.82 112.38 9.60 112.88 9.22
C112.88 9.51 112.93 9.71 113.03 9.83
C113.13 9.95 113.27 10.00 113.44 10.00
C113.80 10.00 114.17 9.74 114.56 9.22
L114.56 8.93
C114.35 9.14 114.21 9.26 114.14 9.31
C114.09 9.33 114.04 9.35 113.99 9.35
C113.94 9.35 113.89 9.33 113.85 9.29
C113.81 9.26 113.78 9.19 113.76 9.09
C113.75 8.98 113.74 8.70 113.74 8.25
L113.74 6.62
C113.74 6.16 113.71 5.85 113.64 5.70
C113.55 5.47 113.39 5.30 113.19 5.19
C112.92 5.05 112.57 4.98 112.14 4.98
Z
" fill="black" fill-rule="nonzero" />
<circle cx="126.19" cy="6.08" r="5.85" fill="white"/>
<circle cx="126.19" cy="6.08" r="5.85" fill="none" stroke="black" stroke-width="0.25px"/>
<path d="
M127.98 3.16
C128.19 3.16 128.37 3.27 128.52 3.48
C128.67 3.69 128.75 3.96 128.75 4.30
C128.75 4.62 128.67 4.89 128.53 5.09
C128.38 5.29 128.20 5.40 127.99 5.40
C127.77 5.40 127.59 5.29 127.45 5.08
C127.30 4.88 127.22 4.60 127.22 4.25
C127.22 3.94 127.30 3.68 127.45 3.47
C127.60 3.26 127.77 3.16 127.98 3.16
Z
M127.97 6.11
C128.24 6.11 128.47 6.24 128.65 6.51
C128.84 6.78 128.94 7.13 128.94 7.57
C128.94 8.00 128.85 8.35 128.66 8.61
C128.48 8.87 128.25 9.00 127.99 9.00
C127.73 9.00 127.50 8.86 127.32 8.59
C127.13 8.33 127.03 7.97 127.03 7.54
C127.03 7.12 127.13 6.77 127.31 6.51
C127.49 6.24 127.71 6.11 127.97 6.11
Z
M124.61 2.44
C124.51 2.75 124.34 3.07 124.10 3.40
C123.86 3.73 123.58 4.00 123.26 4.23
L123.26 5.07
C123.45 4.97 123.65 4.82 123.87 4.62
C124.10 4.41 124.27 4.21 124.41 4.02
L124.41 9.59
L124.98 9.59
L124.98 2.44
Z
M127.98 2.44
C127.59 2.44 127.27 2.61 127.02 2.95
C126.76 3.29 126.63 3.73 126.63 4.27
C126.63 4.63 126.69 4.93 126.81 5.17
C126.93 5.42 127.10 5.60 127.33 5.73
C127.06 5.84 126.84 6.05 126.68 6.36
C126.53 6.67 126.45 7.06 126.45 7.54
C126.45 8.19 126.59 8.71 126.89 9.11
C127.18 9.51 127.55 9.71 127.99 9.71
C128.43 9.71 128.79 9.51 129.08 9.11
C129.38 8.71 129.53 8.20 129.53 7.56
C129.53 7.10 129.45 6.72 129.30 6.41
C129.15 6.09 128.93 5.87 128.65 5.73
C128.88 5.60 129.05 5.41 129.16 5.17
C129.28 4.94 129.33 4.65 129.33 4.30
C129.33 3.75 129.21 3.31 128.95 2.96
C128.69 2.61 128.37 2.44 127.98 2.44
Z
" fill="black" fill-rule="nonzero" />
<path d="
" fill="black" fill-rule="nonzero" />
<circle cx="140.77" cy="6.08" r="5.98" fill="black"/>
<path d="
M142.57 3.31
C142.57 3.31 142.57 3.31 142.57 3.31
C142.58 3.31 142.58 3.31 142.58 3.31
C142.76 3.31 142.93 3.43 143.08 3.68
C143.25 3.95 143.33 4.32 143.33 4.80
C143.33 5.29 143.25 5.66 143.09 5.91
C142.94 6.15 142.77 6.26 142.57 6.26
C142.56 6.26 142.56 6.26 142.56 6.26
C142.56 6.26 142.56 6.26 142.56 6.26
C142.35 6.26 142.17 6.15 142.02 5.91
C141.85 5.66 141.77 5.31 141.77 4.88
C141.77 4.38 141.86 3.99 142.04 3.71
C142.20 3.44 142.38 3.31 142.57 3.31
Z
M138.97 2.30
C138.49 2.30 138.10 2.49 137.80 2.87
C137.51 3.24 137.35 3.78 137.31 4.49
L137.30 4.62
L137.43 4.64
L138.02 4.73
L138.18 4.76
L138.18 4.59
C138.18 4.16 138.26 3.84 138.41 3.62
C138.55 3.41 138.73 3.31 138.95 3.31
C138.95 3.31 138.95 3.31 138.95 3.31
C138.95 3.31 138.95 3.31 138.95 3.31
C139.16 3.31 139.33 3.40 139.47 3.59
C139.62 3.80 139.69 4.06 139.69 4.39
C139.69 4.69 139.61 5.01 139.46 5.35
C139.30 5.71 138.95 6.21 138.42 6.87
C137.95 7.45 137.63 7.96 137.45 8.40
C137.27 8.84 137.19 9.24 137.20 9.60
L137.20 9.73
L140.57 9.73
L140.57 9.59
L140.57 8.75
L140.57 8.61
L138.35 8.61
C138.40 8.52 138.44 8.44 138.50 8.35
C138.60 8.20 138.81 7.90 139.15 7.47
C139.70 6.77 140.07 6.20 140.26 5.78
C140.46 5.34 140.56 4.89 140.56 4.41
C140.56 3.88 140.43 3.39 140.17 2.97
C139.90 2.52 139.50 2.30 138.97 2.30
Z
M142.51 2.30
C142.05 2.30 141.66 2.54 141.35 3.01
C141.04 3.46 140.89 4.07 140.89 4.85
C140.89 5.60 141.04 6.19 141.33 6.63
C141.64 7.09 142.00 7.32 142.43 7.32
C142.68 7.32 142.91 7.22 143.14 7.03
C143.23 6.96 143.31 6.88 143.38 6.79
L143.38 6.79
C143.36 7.18 143.31 7.53 143.23 7.84
C143.13 8.24 143.01 8.51 142.87 8.65
C142.74 8.79 142.60 8.85 142.45 8.85
C142.45 8.85 142.45 8.85 142.45 8.85
C142.45 8.85 142.45 8.85 142.45 8.85
C142.28 8.85 142.15 8.78 142.05 8.63
C141.93 8.46 141.85 8.20 141.81 7.85
L141.80 7.71
L141.65 7.73
L141.10 7.81
L140.97 7.82
L140.98 7.96
C141.03 8.56 141.18 9.02 141.44 9.35
C141.70 9.69 142.04 9.86 142.44 9.86
C142.79 9.86 143.11 9.72 143.39 9.44
C143.66 9.17 143.87 8.76 144.02 8.19
C144.18 7.64 144.25 6.87 144.25 5.88
C144.25 4.98 144.18 4.30 144.04 3.82
C143.89 3.33 143.69 2.96 143.42 2.70
C143.14 2.43 142.84 2.30 142.51 2.30
Z
" fill="white" fill-rule="nonzero" />
<path d="
M152.45 7.06
L152.45 8.88
C152.02 9.23 151.67 9.40 151.41 9.40
C151.21 9.40 151.04 9.32 150.89 9.16
C150.74 8.99 150.67 8.78 150.67 8.53
C150.67 8.33 150.73 8.15 150.84 7.98
C150.96 7.81 151.16 7.65 151.44 7.50
C151.59 7.41 151.93 7.26 152.45 7.06
Z
M155.73 3.55
C155.58 3.90 155.47 4.14 155.39 4.27
C155.23 4.52 155.05 4.74 154.85 4.92
C154.65 5.11 154.46 5.24 154.27 5.31
L154.27 5.49
L155.02 5.49
L155.02 8.71
C155.02 9.05 155.06 9.31 155.13 9.47
C155.21 9.64 155.32 9.77 155.47 9.86
C155.63 9.94 155.78 9.99 155.94 9.99
C156.18 9.99 156.41 9.90 156.64 9.73
C156.86 9.56 157.03 9.30 157.15 8.96
L156.95 8.96
C156.89 9.10 156.81 9.20 156.70 9.28
C156.59 9.35 156.48 9.38 156.36 9.38
C156.22 9.38 156.11 9.33 156.02 9.22
C155.93 9.11 155.89 8.90 155.89 8.59
L155.89 5.49
L157.01 5.49
L157.01 5.12
L155.89 5.12
L155.89 3.55
Z
M151.72 4.98
C151.17 4.98 150.74 5.10 150.43 5.36
C150.12 5.61 149.97 5.88 149.97 6.18
C149.97 6.34 150.01 6.46 150.09 6.55
C150.18 6.64 150.28 6.69 150.41 6.69
C150.54 6.69 150.65 6.65 150.73 6.56
C150.81 6.47 150.85 6.35 150.85 6.19
L150.84 5.88
C150.84 5.73 150.91 5.59 151.04 5.48
C151.17 5.36 151.35 5.30 151.57 5.30
C151.86 5.30 152.08 5.39 152.23 5.57
C152.38 5.74 152.45 6.07 152.45 6.55
L152.45 6.74
C151.63 7.04 151.04 7.29 150.69 7.50
C150.34 7.71 150.09 7.93 149.94 8.17
C149.84 8.34 149.79 8.54 149.79 8.78
C149.79 9.15 149.89 9.44 150.11 9.67
C150.32 9.90 150.60 10.01 150.93 10.01
C151.14 10.01 151.34 9.97 151.53 9.88
C151.65 9.82 151.96 9.60 152.45 9.22
C152.46 9.51 152.51 9.71 152.61 9.83
C152.71 9.95 152.85 10.00 153.02 10.00
C153.38 10.00 153.75 9.74 154.14 9.22
L154.14 8.93
C153.93 9.14 153.79 9.26 153.72 9.31
C153.67 9.33 153.62 9.35 153.57 9.35
C153.52 9.35 153.47 9.33 153.43 9.29
C153.39 9.26 153.36 9.19 153.34 9.09
C153.33 8.98 153.32 8.70 153.32 8.25
L153.32 6.62
C153.32 6.16 153.29 5.85 153.22 5.70
C153.13 5.47 152.97 5.30 152.77 5.19
C152.50 5.05 152.15 4.98 151.72 4.98
Z
" fill="black" fill-rule="nonzero" />
<circle cx="165.77" cy="6.08" r="5.85" fill="white"/>
<circle cx="165.77" cy="6.08" r="5.85" fill="none" stroke="black" stroke-width="0.25px"/>
<path d="
M167.59 5.75
C167.85 5.75 168.06 5.88 168.24 6.16
C168.41 6.44 168.50 6.83 168.50 7.34
C168.50 7.85 168.41 8.26 168.24 8.55
C168.06 8.85 167.86 9.00 167.63 9.00
C167.38 9.00 167.15 8.84 166.96 8.53
C166.76 8.21 166.66 7.80 166.66 7.29
C166.66 6.81 166.76 6.44 166.94 6.16
C167.13 5.88 167.34 5.75 167.59 5.75
Z
M164.19 2.44
C164.09 2.75 163.92 3.07 163.68 3.40
C163.43 3.73 163.16 4.00 162.84 4.23
L162.84 5.07
C163.03 4.97 163.23 4.82 163.45 4.62
C163.68 4.41 163.85 4.21 163.99 4.02
L163.99 9.59
L164.56 9.59
L164.56 2.44
Z
M167.68 2.44
C167.19 2.44 166.79 2.73 166.47 3.32
C166.16 3.90 166.00 4.88 166.00 6.26
C166.00 7.50 166.16 8.39 166.46 8.92
C166.77 9.45 167.16 9.71 167.63 9.71
C167.89 9.71 168.13 9.62 168.35 9.44
C168.56 9.25 168.74 8.97 168.88 8.58
C169.02 8.19 169.09 7.76 169.09 7.29
C169.09 6.58 168.95 6.02 168.68 5.60
C168.40 5.18 168.08 4.97 167.71 4.97
C167.48 4.97 167.27 5.05 167.07 5.21
C166.87 5.37 166.71 5.61 166.57 5.92
C166.58 5.05 166.67 4.38 166.84 3.94
C167.04 3.42 167.31 3.16 167.64 3.16
C167.86 3.16 168.04 3.27 168.20 3.50
C168.30 3.66 168.38 3.92 168.44 4.28
L169.01 4.21
C168.96 3.64 168.81 3.20 168.57 2.90
C168.33 2.59 168.03 2.44 167.68 2.44
Z
" fill="black" fill-rule="nonzero" />
</g>
</g>
</svg>
