<?xml version="1.0" encoding="utf-8" standalone="no"?>
<!DOCTYPE svg PUBLIC "-//W3C//DTD SVG 1.0//EN" "http://www.w3.org/TR/SVG/DTD/svg11.dtd" >
<svg version="1.1" baseProfile="full"  width="319.13385" height="338.46454" viewBox="0 0 229.77638 243.69449" preserveAspectRatio="xMidYMid" xmlns="http://www.w3.org/2000/svg" >

<g lengthAdjust="spacingAndGlyphs" xml:space='preserve' >
<g  transform="translate(1.19,1.19)" >
<path d="
M0.0 0.0
L0.0 227.39
L227.39 227.39
L227.39 0.0
Z
" fill="none" fill-rule="nonzero" />
<line x1="6.54" y1="6.54" x2="6.54" y2="220.84" fill="none" stroke="black" stroke-width="0.87px" stroke-linecap="square" />
<line x1="18.45" y1="6.54" x2="18.45" y2="220.84" fill="none" stroke="black" stroke-width="0.25px" stroke-linecap="butt" />
<line x1="30.35" y1="6.54" x2="30.35" y2="220.84" fill="none" stroke="black" stroke-width="0.25px" stroke-linecap="butt" />
<line x1="42.26" y1="6.54" x2="42.26" y2="220.84" fill="none" stroke="black" stroke-width="0.25px" stroke-linecap="butt" />
<line x1="54.17" y1="6.54" x2="54.17" y2="220.84" fill="none" stroke="black" stroke-width="0.25px" stroke-linecap="butt" />
<line x1="66.07" y1="6.54" x2="66.07" y2="220.84" fill="none" stroke="black" stroke-width="0.25px" stroke-linecap="butt" />
<line x1="77.98" y1="6.54" x2="77.98" y2="220.84" fill="none" stroke="black" stroke-width="0.25px" stroke-linecap="butt" />
<line x1="89.88" y1="6.54" x2="89.88" y2="220.84" fill="none" stroke="black" stroke-width="0.25px" stroke-linecap="butt" />
<line x1="101.79" y1="6.54" x2="101.79" y2="220.84" fill="none" stroke="black" stroke-width="0.25px" stroke-linecap="butt" />
<line x1="113.69" y1="6.54" x2="113.69" y2="220.84" fill="none" stroke="black" stroke-width="0.25px" stroke-linecap="butt" />
<line x1="125.60" y1="6.54" x2="125.60" y2="220.84" fill="none" stroke="black" stroke-width="0.25px" stroke-linecap="butt" />
<line x1="137.50" y1="6.54" x2="137.50" y2="220.84" fill="none" stroke="black" stroke-width="0.25px" stroke-linecap="butt" />
<line x1="149.41" y1="6.54" x2="149.41" y2="220.84" fill="none" stroke="black" stroke-width="0.25px" stroke-linecap="butt" />
<line x1="161.31" y1="6.54" x2="161.31" y2="220.84" fill="none" stroke="black" stroke-width="0.25px" stroke-linecap="butt" />
<line x1="173.22" y1="6.54" x2="173.22" y2="220.84" fill="none" stroke="black" stroke-width="0.25px" stroke-linecap="butt" />
<line x1="185.13" y1="6.54" x2="185.13" y2="220.84" fill="none" stroke="black" stroke-width="0.25px" stroke-linecap="butt" />
<line x1="197.03" y1="6.54" x2="197.03" y2="179.17" fill="none" stroke="black" stroke-width="0.25px" stroke-linecap="butt" />
<line x1="197.03" y1="214.89" x2="197.03" y2="220.84" fill="none" stroke="black" stroke-width="0.25px" stroke-linecap="butt" />
<line x1="208.94" y1="6.54" x2="208.94" y2="191.08" fill="none" stroke="black" stroke-width="0.25px" stroke-linecap="butt" />
<line x1="208.94" y1="214.89" x2="208.94" y2="220.84" fill="none" stroke="black" stroke-width="0.25px" stroke-linecap="butt" />
<line x1="220.84" y1="6.54" x2="220.84" y2="220.84" fill="none" stroke="black" stroke-width="0.87px" stroke-linecap="square" />
<line x1="6.54" y1="6.54" x2="220.84" y2="6.54" fill="none" stroke="black" stroke-width="0.87px" stroke-linecap="square" />
<line x1="6.54" y1="18.45" x2="220.84" y2="18.45" fill="none" stroke="black" stroke-width="0.25px" stroke-linecap="butt" />
<line x1="6.54" y1="30.35" x2="220.84" y2="30.35" fill="none" stroke="black" stroke-width="0.25px" stroke-linecap="butt" />
<line x1="6.54" y1="42.26" x2="220.84" y2="42.26" fill="none" stroke="black" stroke-width="0.25px" stroke-linecap="butt" />
<line x1="6.54" y1="54.17" x2="220.84" y2="54.17" fill="none" stroke="black" stroke-width="0.25px" stroke-linecap="butt" />
<line x1="6.54" y1="66.07" x2="220.84" y2="66.07" fill="none" stroke="black" stroke-width="0.25px" stroke-linecap="butt" />
<line x1="6.54" y1="77.98" x2="220.84" y2="77.98" fill="none" stroke="black" stroke-width="0.25px" stroke-linecap="butt" />
<line x1="6.54" y1="89.88" x2="220.84" y2="89.88" fill="none" stroke="black" stroke-width="0.25px" stroke-linecap="butt" />
<line x1="6.54" y1="101.79" x2="220.84" y2="101.79" fill="none" stroke="black" stroke-width="0.25px" stroke-linecap="butt" />
<line x1="6.54" y1="113.69" x2="220.84" y2="113.69" fill="none" stroke="black" stroke-width="0.25px" stroke-linecap="butt" />
<line x1="6.54" y1="125.60" x2="220.84" y2="125.60" fill="none" stroke="black" stroke-width="0.25px" stroke-linecap="butt" />
<line x1="6.54" y1="137.50" x2="220.84" y2="137.50" fill="none" stroke="black" stroke-width="0.25px" stroke-linecap="butt" />
<line x1="6.54" y1="149.41" x2="220.84" y2="149.41" fill="none" stroke="black" stroke-width="0.25px" stroke-linecap="butt" />
<line x1="6.54" y1="161.31" x2="220.84" y2="161.31" fill="none" stroke="black" stroke-width="0.25px" stroke-linecap="butt" />
<line x1="6.54" y1="173.22" x2="220.84" y2="173.22" fill="none" stroke="black" stroke-width="0.25px" stroke-linecap="butt" />
<line x1="6.54" y1="185.13" x2="191.08" y2="185.13" fill="none" stroke="black" stroke-width="0.25px" stroke-linecap="butt" />
<line x1="202.98" y1="185.13" x2="220.84" y2="185.13" fill="none" stroke="black" stroke-width="0.25px" stroke-linecap="butt" />
<line x1="6.54" y1="197.03" x2="191.08" y2="197.03" fill="none" stroke="black" stroke-width="0.25px" stroke-linecap="butt" />
<line x1="214.89" y1="197.03" x2="220.84" y2="197.03" fill="none" stroke="black" stroke-width="0.25px" stroke-linecap="butt" />
<line x1="6.54" y1="208.94" x2="191.08" y2="208.94" fill="none" stroke="black" stroke-width="0.25px" stroke-linecap="butt" />
<line x1="214.89" y1="208.94" x2="220.84" y2="208.94" fill="none" stroke="black" stroke-width="0.25px" stroke-linecap="butt" />
<line x1="6.54" y1="220.84" x2="220.84" y2="220.84" fill="none" stroke="black" stroke-width="0.87px" stroke-linecap="square" />
<circle cx="30.35" cy="161.31" r="5.85" fill="white"/>
<circle cx="30.35" cy="161.31" r="5.85" fill="none" stroke="black" stroke-width="0.25px"/>
<circle cx="42.26" cy="42.26" r="5.85" fill="white"/>
<circle cx="42.26" cy="42.26" r="5.85" fill="none" stroke="black" stroke-width="0.25px"/>
<circle cx="42.26" cy="113.69" r="1.27" fill="black"/>
<circle cx="42.26" cy="185.13" r="5.85" fill="white"/>
<circle cx="42.26" cy="185.13" r="5.85" fill="none" stroke="black" stroke-width="0.25px"/>
<circle cx="66.07" cy="197.03" r="5.98" fill="black"/>
<circle cx="101.79" cy="185.13" r="5.98" fill="black"/>
<circle cx="113.69" cy="42.26" r="5.98" fill="black"/>
<circle cx="113.69" cy="113.69" r="1.27" fill="black"/>
<circle cx="113.69" cy="185.13" r="1.27" fill="black"/>
<circle cx="173.22" cy="125.60" r="5.98" fill="black"/>
<circle cx="185.13" cy="42.26" r="5.98" fill="black"/>
<circle cx="185.13" cy="113.69" r="5.98" fill="black"/>
<circle cx="185.13" cy="149.41" r="5.98" fill="black"/>
<circle cx="185.13" cy="161.31" r="5.98" fill="black"/>
<circle cx="185.13" cy="173.22" r="5.98" fill="black"/>
<circle cx="185.13" cy="185.13" r="1.27" fill="black"/>
<circle cx="185.13" cy="197.03" r="5.98" fill="black"/>
<circle cx="197.03" cy="101.79" r="5.85" fill="white"/>
<circle cx="197.03" cy="101.79" r="5.85" fill="none" stroke="black" stroke-width="0.25px"/>
<circle cx="197.03" cy="113.69" r="5.85" fill="white"/>
<circle cx="197.03" cy="113.69" r="5.85" fill="none" stroke="black" stroke-width="0.25px"/>
<circle cx="197.03" cy="137.50" r="5.85" fill="white"/>
<circle cx="197.03" cy="137.50" r="5.85" fill="none" stroke="black" stroke-width="0.25px"/>
<circle cx="197.03" cy="149.41" r="5.85" fill="white"/>
<circle cx="197.03" cy="149.41" r="5.85" fill="none" stroke="black" stroke-width="0.25px"/>
<circle cx="197.03" cy="161.31" r="5.85" fill="white"/>
<circle cx="197.03" cy="161.31" r="5.85" fill="none" stroke="black" stroke-width="0.25px"/>
<circle cx="208.94" cy="185.13" r="5.85" fill="white"/>
<circle cx="208.94" cy="185.13" r="5.85" fill="none" stroke="black" stroke-width="0.25px"/>
<path d="
M30.36 160.99
C30.68 160.99 30.94 161.12 31.16 161.40
C31.38 161.67 31.49 162.06 31.49 162.56
C31.49 163.07 31.38 163.47 31.16 163.76
C30.94 164.05 30.69 164.20 30.41 164.20
C30.10 164.20 29.82 164.04 29.58 163.73
C29.34 163.43 29.22 163.02 29.22 162.51
C29.22 162.04 29.33 161.67 29.56 161.40
C29.79 161.12 30.06 160.99 30.36 160.99
Z
M30.47 157.72
C29.86 157.72 29.37 158.01 28.98 158.59
C28.59 159.17 28.40 160.13 28.40 161.49
C28.40 162.72 28.59 163.60 28.97 164.12
C29.34 164.64 29.82 164.91 30.41 164.91
C30.73 164.91 31.03 164.82 31.30 164.63
C31.56 164.45 31.78 164.17 31.96 163.79
C32.13 163.40 32.21 162.98 32.21 162.51
C32.21 161.81 32.04 161.26 31.70 160.84
C31.36 160.43 30.96 160.22 30.50 160.22
C30.23 160.22 29.97 160.30 29.72 160.46
C29.47 160.62 29.27 160.85 29.11 161.16
C29.11 160.29 29.22 159.64 29.43 159.20
C29.68 158.69 30.01 158.43 30.43 158.43
C30.69 158.43 30.92 158.54 31.11 158.77
C31.24 158.92 31.34 159.18 31.41 159.54
L32.11 159.47
C32.05 158.90 31.87 158.47 31.57 158.17
C31.28 157.87 30.91 157.72 30.47 157.72
Z
" fill="black" fill-rule="nonzero" />
<path d="
M42.27 38.73
C41.73 38.73 41.30 38.90 40.97 39.24
C40.64 39.58 40.44 40.09 40.39 40.76
L41.12 40.85
C41.12 40.40 41.23 40.05 41.44 39.81
C41.65 39.56 41.92 39.44 42.25 39.44
C42.56 39.44 42.82 39.55 43.03 39.78
C43.23 40.01 43.34 40.30 43.34 40.66
C43.34 40.97 43.24 41.30 43.03 41.66
C42.83 42.02 42.39 42.53 41.73 43.19
C41.17 43.76 40.78 44.25 40.56 44.66
C40.35 45.08 40.25 45.46 40.26 45.79
L44.07 45.79
L44.07 44.96
L41.24 44.96
C41.32 44.81 41.42 44.65 41.54 44.49
C41.67 44.33 41.94 44.04 42.36 43.61
C43.02 42.92 43.47 42.38 43.71 41.96
C43.95 41.55 44.06 41.12 44.06 40.68
C44.06 40.17 43.91 39.72 43.61 39.32
C43.31 38.93 42.86 38.73 42.27 38.73
Z
" fill="black" fill-rule="nonzero" />
<path d="
M42.61 182.99
L42.61 186.17
L40.81 186.17
L42.61 182.99
Z
M42.74 181.61
L40.11 186.17
L40.11 186.96
L42.61 186.96
L42.61 188.64
L43.32 188.64
L43.32 186.96
L44.10 186.96
L44.10 186.17
L43.32 186.17
L43.32 181.61
Z
" fill="black" fill-rule="nonzero" />
<path d="
M65.29 195.90
L65.29 195.90
L65.29 195.90
C65.29 195.90 65.29 195.90 65.29 195.90
Z
M64.72 193.36
L64.70 193.48
L64.14 197.09
L64.11 197.23
L64.25 197.26
L64.92 197.36
L65.02 197.38
L65.07 197.28
C65.17 197.09 65.30 196.94 65.46 196.84
C65.63 196.73 65.80 196.68 65.99 196.68
C65.99 196.68 65.99 196.68 65.99 196.68
C65.99 196.68 65.99 196.68 65.99 196.68
C66.30 196.68 66.56 196.80 66.77 197.05
C66.98 197.30 67.09 197.66 67.09 198.12
C67.09 198.62 66.97 199.02 66.75 199.30
C66.54 199.57 66.29 199.71 66.00 199.71
C66.00 199.71 66.00 199.71 65.99 199.71
C65.99 199.71 65.99 199.71 65.99 199.71
C65.76 199.71 65.56 199.61 65.39 199.43
C65.21 199.23 65.09 198.92 65.04 198.50
L65.02 198.37
L64.88 198.38
L64.14 198.46
L64.00 198.47
L64.01 198.61
C64.06 199.26 64.27 199.77 64.64 200.14
C65.01 200.52 65.47 200.70 66.00 200.70
C66.65 200.70 67.17 200.44 67.56 199.91
C67.93 199.39 68.12 198.77 68.12 198.06
C68.12 197.32 67.93 196.74 67.55 196.30
C67.16 195.86 66.71 195.64 66.18 195.63
C65.87 195.63 65.57 195.72 65.29 195.90
L65.29 195.90
L65.52 194.47
L67.84 194.47
L67.84 194.33
L67.84 193.50
L67.84 193.36
Z
" fill="white" fill-rule="nonzero" />
<path d="
M99.77 181.51
L99.77 181.65
L99.77 182.48
L99.77 182.63
L102.47 182.63
C102.16 183.09 101.87 183.62 101.60 184.24
C101.29 184.96 101.04 185.72 100.86 186.51
C100.68 187.30 100.59 188.00 100.58 188.60
L100.58 188.74
L101.45 188.74
L101.59 188.74
L101.59 188.61
C101.66 187.48 101.90 186.35 102.31 185.20
C102.73 184.05 103.21 183.12 103.76 182.41
L103.79 182.37
L103.79 182.33
L103.79 181.65
L103.79 181.51
Z
" fill="white" fill-rule="nonzero" />
<path d="
M115.49 39.49
C115.49 39.49 115.49 39.49 115.49 39.49
C115.49 39.49 115.49 39.49 115.50 39.49
C115.68 39.49 115.85 39.61 116.00 39.86
C116.16 40.13 116.25 40.50 116.25 40.98
C116.25 41.47 116.17 41.84 116.01 42.09
C115.86 42.33 115.69 42.45 115.48 42.45
C115.48 42.45 115.48 42.45 115.48 42.45
C115.48 42.45 115.48 42.45 115.48 42.45
C115.27 42.45 115.09 42.33 114.94 42.09
C114.77 41.84 114.69 41.50 114.69 41.06
C114.69 40.57 114.77 40.18 114.95 39.89
C115.12 39.62 115.30 39.49 115.49 39.49
Z
M112.01 38.48
L111.98 38.58
C111.88 38.88 111.72 39.18 111.49 39.50
C111.25 39.81 110.98 40.08 110.68 40.30
L110.62 40.34
L110.62 40.41
L110.62 41.26
L110.62 41.50
L110.83 41.38
C111.03 41.27 111.24 41.11 111.47 40.90
C111.58 40.80 111.68 40.71 111.77 40.61
L111.77 40.61
L111.77 45.77
L111.77 45.92
L112.63 45.92
L112.63 45.77
L112.63 38.62
L112.63 38.48
Z
M115.43 38.48
C114.97 38.48 114.58 38.72 114.26 39.19
C113.96 39.64 113.81 40.25 113.81 41.03
C113.81 41.78 113.96 42.37 114.25 42.81
C114.55 43.27 114.92 43.50 115.35 43.50
C115.60 43.50 115.83 43.41 116.06 43.22
C116.15 43.14 116.23 43.06 116.30 42.97
L116.30 42.97
C116.28 43.36 116.23 43.71 116.15 44.02
C116.05 44.42 115.93 44.69 115.79 44.83
C115.66 44.97 115.52 45.04 115.37 45.04
C115.37 45.04 115.37 45.04 115.37 45.04
C115.37 45.04 115.37 45.04 115.36 45.04
C115.20 45.04 115.07 44.96 114.97 44.81
C114.85 44.65 114.77 44.39 114.73 44.03
L114.71 43.89
L114.57 43.91
L114.02 43.99
L113.89 44.01
L113.90 44.14
C113.95 44.74 114.10 45.20 114.35 45.53
C114.62 45.87 114.96 46.04 115.36 46.04
C115.71 46.04 116.02 45.90 116.30 45.62
C116.58 45.36 116.79 44.94 116.94 44.37
C117.09 43.82 117.17 43.05 117.17 42.06
C117.17 41.17 117.10 40.48 116.96 40.00
C116.81 39.51 116.61 39.14 116.34 38.88
C116.06 38.61 115.75 38.48 115.43 38.48
Z
" fill="white" fill-rule="nonzero" />
<path d="
M174.43 124.48
L174.43 124.48
L174.43 124.48
C174.43 124.48 174.43 124.48 174.43 124.48
Z
M171.53 121.82
L171.50 121.92
C171.41 122.21 171.25 122.52 171.01 122.83
C170.78 123.15 170.51 123.42 170.21 123.63
L170.15 123.68
L170.15 123.75
L170.15 124.59
L170.15 124.84
L170.36 124.72
C170.55 124.61 170.77 124.45 171.00 124.24
C171.11 124.14 171.21 124.04 171.29 123.95
L171.29 123.95
L171.29 129.11
L171.29 129.25
L172.15 129.25
L172.15 129.11
L172.15 121.96
L172.15 121.82
Z
M173.91 121.95
L173.90 122.07
L173.44 125.73
L173.42 125.86
L173.55 125.89
L174.09 125.99
L174.21 126.02
L174.25 125.91
C174.33 125.71 174.44 125.56 174.57 125.46
C174.70 125.36 174.83 125.31 174.97 125.31
C174.97 125.31 174.97 125.31 174.97 125.31
C174.97 125.31 174.97 125.31 174.97 125.31
C175.21 125.31 175.41 125.42 175.57 125.66
C175.74 125.92 175.83 126.29 175.83 126.77
C175.83 127.28 175.74 127.68 175.56 127.97
C175.39 128.24 175.20 128.37 174.98 128.37
C174.98 128.37 174.97 128.37 174.97 128.37
C174.97 128.37 174.97 128.37 174.97 128.37
C174.80 128.37 174.65 128.28 174.51 128.10
C174.36 127.90 174.27 127.58 174.22 127.16
L174.21 127.01
L174.06 127.03
L173.46 127.11
L173.33 127.12
L173.34 127.26
C173.38 127.91 173.55 128.42 173.85 128.80
C174.15 129.18 174.53 129.38 174.98 129.38
C175.52 129.37 175.95 129.10 176.27 128.56
C176.57 128.04 176.72 127.42 176.72 126.70
C176.72 125.96 176.57 125.37 176.26 124.93
C175.94 124.48 175.56 124.25 175.12 124.25
C174.88 124.25 174.65 124.33 174.43 124.48
L174.43 124.48
L174.62 123.07
L176.50 123.07
L176.50 122.92
L176.50 122.09
L176.50 121.95
Z
" fill="white" fill-rule="nonzero" />
<path d="
M185.32 38.59
L185.28 38.67
C185.17 38.97 184.97 39.27 184.68 39.58
C184.39 39.89 184.06 40.15 183.68 40.37
L183.61 40.41
L183.61 40.49
L183.61 41.33
L183.61 41.55
L183.81 41.46
C184.05 41.35 184.31 41.20 184.59 40.99
C184.75 40.87 184.90 40.75 185.02 40.64
L185.02 40.64
L185.02 45.79
L185.02 45.93
L186.02 45.93
L186.02 45.79
L186.02 38.73
L186.02 38.59
Z
" fill="white" fill-rule="nonzero" />
<path d="
M183.44 109.98
L183.41 110.07
C183.32 110.37 183.15 110.68 182.92 110.99
C182.69 111.30 182.42 111.57 182.11 111.79
L182.05 111.83
L182.05 111.90
L182.05 112.75
L182.05 112.99
L182.26 112.87
C182.46 112.77 182.67 112.61 182.90 112.40
C183.01 112.30 183.11 112.20 183.20 112.10
L183.20 112.10
L183.20 117.27
L183.20 117.41
L184.06 117.41
L184.06 117.27
L184.06 110.12
L184.06 109.98
Z
M185.28 110.10
L185.28 110.24
L185.28 111.08
L185.28 111.22
L187.47 111.22
C187.22 111.69 186.98 112.24 186.76 112.87
C186.51 113.59 186.31 114.36 186.17 115.16
C186.02 115.96 185.94 116.66 185.94 117.27
L185.93 117.41
L186.67 117.41
L186.80 117.41
L186.81 117.27
C186.86 116.13 187.06 114.98 187.40 113.82
C187.73 112.66 188.13 111.71 188.57 110.99
L188.59 110.96
L188.59 110.92
L188.59 110.24
L188.59 110.10
Z
" fill="white" fill-rule="nonzero" />
<path d="
M183.44 145.63
L183.41 145.73
C183.32 146.02 183.15 146.33 182.92 146.64
C182.69 146.96 182.42 147.22 182.11 147.44
L182.05 147.49
L182.05 147.56
L182.05 148.40
L182.05 148.64
L182.26 148.53
C182.46 148.42 182.67 148.26 182.90 148.05
C183.01 147.95 183.11 147.85 183.20 147.76
L183.20 147.76
L183.20 152.92
L183.20 153.06
L184.06 153.06
L184.06 152.92
L184.06 145.77
L184.06 145.63
Z
M186.86 145.63
C186.45 145.63 186.11 145.80 185.83 146.15
C185.56 146.48 185.38 146.96 185.31 147.60
L185.29 147.72
L185.41 147.75
L185.98 147.91
L186.14 147.95
L186.16 147.79
C186.20 147.38 186.29 147.08 186.42 146.89
C186.55 146.72 186.69 146.63 186.86 146.63
C186.86 146.63 186.87 146.63 186.87 146.63
C186.87 146.63 186.87 146.63 186.87 146.63
C187.03 146.63 187.17 146.71 187.29 146.88
C187.42 147.05 187.49 147.29 187.49 147.60
C187.49 147.93 187.41 148.19 187.25 148.38
C187.11 148.56 186.92 148.65 186.68 148.65
L186.68 148.65
L186.60 148.64
L186.46 148.63
L186.45 148.77
L186.38 149.54
L186.36 149.77
L186.57 149.68
C186.72 149.62 186.83 149.59 186.93 149.59
C186.93 149.59 186.93 149.59 186.93 149.59
C186.93 149.59 186.93 149.59 186.93 149.59
C187.14 149.59 187.31 149.70 187.46 149.91
C187.62 150.14 187.70 150.45 187.70 150.83
C187.70 151.24 187.61 151.58 187.43 151.83
C187.27 152.06 187.09 152.18 186.87 152.18
C186.87 152.18 186.87 152.18 186.87 152.18
C186.87 152.18 186.87 152.18 186.87 152.18
C186.68 152.18 186.52 152.09 186.40 151.90
C186.26 151.68 186.16 151.35 186.11 150.91
L186.09 150.76
L185.94 150.79
L185.36 150.90
L185.24 150.93
L185.25 151.05
C185.29 151.69 185.46 152.20 185.75 152.59
C186.06 152.99 186.43 153.19 186.88 153.19
C187.36 153.19 187.76 152.96 188.10 152.51
C188.43 152.07 188.59 151.50 188.59 150.82
C188.59 150.50 188.55 150.20 188.47 149.94
C188.39 149.67 188.28 149.46 188.15 149.30
C188.06 149.19 187.96 149.10 187.84 149.03
L187.84 149.03
C187.98 148.89 188.09 148.73 188.18 148.53
C188.30 148.27 188.36 147.96 188.36 147.62
C188.36 147.05 188.22 146.58 187.94 146.21
C187.64 145.82 187.28 145.63 186.86 145.63
Z
" fill="white" fill-rule="nonzero" />
<path d="
M183.44 157.60
L183.41 157.70
C183.32 157.99 183.15 158.30 182.92 158.61
C182.69 158.93 182.42 159.19 182.11 159.41
L182.05 159.45
L182.05 159.53
L182.05 160.37
L182.05 160.61
L182.26 160.50
C182.46 160.39 182.67 160.23 182.90 160.02
C183.01 159.92 183.11 159.82 183.20 159.72
L183.20 159.72
L183.20 164.89
L183.20 165.03
L184.06 165.03
L184.06 164.89
L184.06 157.74
L184.06 157.60
Z
M187.07 157.60
L187.04 157.70
C186.95 157.99 186.78 158.30 186.55 158.61
C186.32 158.93 186.05 159.19 185.74 159.41
L185.68 159.45
L185.68 159.53
L185.68 160.37
L185.68 160.61
L185.89 160.50
C186.09 160.39 186.30 160.23 186.53 160.02
C186.64 159.92 186.74 159.82 186.83 159.72
L186.83 159.72
L186.83 164.89
L186.83 165.03
L187.69 165.03
L187.69 164.89
L187.69 157.74
L187.69 157.60
Z
" fill="white" fill-rule="nonzero" />
<path d="
M185.10 170.48
C185.10 170.48 185.11 170.48 185.11 170.48
C185.11 170.48 185.11 170.48 185.11 170.48
C185.35 170.48 185.57 170.61 185.77 170.86
C185.97 171.12 186.07 171.49 186.07 171.96
C186.07 172.43 185.98 172.79 185.78 173.04
C185.59 173.28 185.36 173.40 185.10 173.40
C185.09 173.40 185.09 173.40 185.09 173.40
C185.09 173.40 185.09 173.40 185.09 173.40
C184.82 173.40 184.58 173.28 184.39 173.04
C184.18 172.80 184.08 172.46 184.08 172.03
C184.08 171.55 184.19 171.17 184.41 170.89
C184.61 170.62 184.85 170.48 185.10 170.48
Z
M185.03 169.49
C184.48 169.49 184.01 169.72 183.63 170.17
C183.25 170.62 183.06 171.23 183.06 172.00
C183.06 172.75 183.25 173.34 183.61 173.78
C183.98 174.23 184.42 174.45 184.93 174.45
C185.22 174.45 185.50 174.36 185.78 174.18
C185.91 174.08 186.04 173.98 186.14 173.85
L186.14 173.85
C186.12 174.27 186.06 174.63 185.96 174.95
C185.83 175.34 185.68 175.61 185.51 175.75
C185.34 175.89 185.16 175.96 184.95 175.96
C184.95 175.96 184.95 175.96 184.95 175.96
C184.95 175.96 184.95 175.96 184.95 175.96
C184.73 175.96 184.55 175.88 184.42 175.73
C184.28 175.57 184.18 175.31 184.13 174.97
L184.11 174.83
L183.98 174.85
L183.30 174.92
L183.16 174.94
L183.17 175.08
C183.23 175.68 183.42 176.14 183.74 176.46
C184.06 176.79 184.46 176.95 184.94 176.95
C185.36 176.95 185.74 176.82 186.08 176.55
C186.41 176.29 186.67 175.88 186.86 175.32
C187.05 174.77 187.14 174.00 187.14 173.02
C187.14 172.14 187.06 171.46 186.88 170.98
C186.70 170.49 186.45 170.12 186.11 169.87
C185.78 169.61 185.42 169.49 185.03 169.49
Z
" fill="white" fill-rule="nonzero" />
<path d="
M185.03 193.29
C184.54 193.29 184.13 193.46 183.79 193.80
C183.45 194.13 183.24 194.61 183.14 195.24
L183.12 195.37
L183.25 195.40
L183.96 195.55
L184.11 195.59
L184.13 195.43
C184.18 195.03 184.28 194.74 184.45 194.56
C184.61 194.38 184.80 194.29 185.03 194.29
C185.03 194.29 185.03 194.29 185.03 194.29
C185.04 194.29 185.04 194.29 185.04 194.29
C185.26 194.29 185.44 194.37 185.60 194.54
C185.76 194.71 185.83 194.95 185.83 195.24
C185.83 195.56 185.74 195.81 185.55 196.00
C185.36 196.19 185.11 196.28 184.81 196.28
L184.81 196.28
L184.70 196.27
L184.56 196.26
L184.55 196.40
L184.47 197.16
L184.44 197.37
L184.65 197.31
C184.84 197.25 184.99 197.22 185.11 197.22
C185.11 197.22 185.11 197.22 185.11 197.22
C185.11 197.22 185.11 197.22 185.11 197.22
C185.38 197.22 185.61 197.32 185.80 197.54
C186.00 197.76 186.09 198.06 186.09 198.44
C186.09 198.84 185.99 199.16 185.77 199.41
C185.56 199.65 185.32 199.77 185.04 199.77
C185.04 199.77 185.04 199.77 185.04 199.77
C185.04 199.77 185.04 199.77 185.04 199.77
C184.78 199.77 184.58 199.67 184.42 199.48
C184.25 199.27 184.13 198.94 184.06 198.51
L184.04 198.37
L183.90 198.39
L183.19 198.50
L183.06 198.52
L183.07 198.66
C183.12 199.29 183.33 199.80 183.69 200.19
C184.06 200.57 184.52 200.77 185.05 200.77
C185.62 200.77 186.11 200.55 186.52 200.11
C186.93 199.67 187.13 199.11 187.13 198.42
C187.13 198.10 187.08 197.81 186.98 197.55
C186.88 197.28 186.75 197.07 186.58 196.91
C186.48 196.80 186.36 196.72 186.22 196.65
L186.22 196.65
C186.38 196.52 186.51 196.36 186.62 196.18
C186.77 195.91 186.85 195.60 186.85 195.26
C186.85 194.70 186.67 194.23 186.32 193.86
C185.96 193.48 185.53 193.30 185.03 193.29
Z
" fill="white" fill-rule="nonzero" />
<path d="
M198.85 101.45
C199.11 101.45 199.32 101.59 199.50 101.87
C199.68 102.15 199.76 102.54 199.76 103.05
C199.76 103.56 199.67 103.97 199.50 104.26
C199.32 104.56 199.12 104.70 198.89 104.70
C198.64 104.70 198.41 104.55 198.22 104.24
C198.02 103.92 197.93 103.51 197.93 102.99
C197.93 102.52 198.02 102.15 198.20 101.87
C198.39 101.59 198.61 101.45 198.85 101.45
Z
M195.45 98.15
C195.35 98.46 195.18 98.78 194.94 99.11
C194.70 99.43 194.42 99.71 194.10 99.94
L194.10 100.78
C194.29 100.68 194.49 100.53 194.71 100.32
C194.94 100.12 195.12 99.92 195.25 99.73
L195.25 105.30
L195.82 105.30
L195.82 98.15
Z
M198.94 98.15
C198.45 98.15 198.05 98.44 197.73 99.03
C197.42 99.61 197.26 100.59 197.26 101.97
C197.26 103.21 197.42 104.10 197.72 104.63
C198.03 105.16 198.42 105.42 198.89 105.42
C199.15 105.42 199.39 105.33 199.61 105.15
C199.83 104.96 200.00 104.68 200.14 104.29
C200.28 103.90 200.35 103.47 200.35 102.99
C200.35 102.29 200.21 101.73 199.94 101.31
C199.66 100.89 199.34 100.68 198.97 100.68
C198.74 100.68 198.53 100.76 198.33 100.92
C198.13 101.08 197.97 101.32 197.84 101.63
C197.84 100.75 197.93 100.09 198.10 99.65
C198.30 99.13 198.57 98.87 198.90 98.87
C199.12 98.87 199.30 98.98 199.46 99.21
C199.56 99.37 199.64 99.63 199.70 99.99
L200.27 99.92
C200.22 99.35 200.07 98.91 199.83 98.60
C199.59 98.30 199.29 98.15 198.94 98.15
Z
" fill="black" fill-rule="nonzero" />
<path d="
M198.82 110.78
C199.03 110.78 199.21 110.88 199.36 111.09
C199.51 111.31 199.59 111.58 199.59 111.91
C199.59 112.24 199.51 112.50 199.37 112.70
C199.22 112.91 199.04 113.01 198.83 113.01
C198.62 113.01 198.43 112.91 198.29 112.70
C198.14 112.49 198.07 112.21 198.07 111.86
C198.07 111.55 198.14 111.29 198.29 111.09
C198.44 110.88 198.62 110.78 198.82 110.78
Z
M198.82 113.72
C199.08 113.72 199.31 113.86 199.50 114.13
C199.68 114.39 199.78 114.74 199.78 115.18
C199.78 115.62 199.69 115.96 199.50 116.22
C199.32 116.48 199.10 116.61 198.83 116.61
C198.57 116.61 198.34 116.48 198.16 116.21
C197.97 115.94 197.87 115.59 197.87 115.15
C197.87 114.73 197.97 114.39 198.15 114.12
C198.33 113.86 198.55 113.72 198.82 113.72
Z
M195.45 110.06
C195.35 110.37 195.18 110.69 194.94 111.01
C194.70 111.34 194.42 111.62 194.10 111.84
L194.10 112.69
C194.29 112.59 194.49 112.43 194.71 112.23
C194.94 112.03 195.12 111.83 195.25 111.64
L195.25 117.21
L195.82 117.21
L195.82 110.06
Z
M198.82 110.06
C198.43 110.06 198.11 110.23 197.86 110.57
C197.60 110.91 197.47 111.35 197.47 111.89
C197.47 112.25 197.53 112.55 197.65 112.79
C197.77 113.03 197.94 113.22 198.17 113.35
C197.90 113.46 197.68 113.67 197.52 113.97
C197.37 114.28 197.29 114.68 197.29 115.15
C197.29 115.80 197.43 116.33 197.73 116.73
C198.02 117.13 198.39 117.33 198.83 117.33
C199.27 117.33 199.63 117.13 199.92 116.73
C200.22 116.33 200.37 115.81 200.37 115.18
C200.37 114.72 200.29 114.33 200.14 114.02
C199.99 113.71 199.77 113.48 199.49 113.35
C199.72 113.21 199.89 113.03 200.00 112.79
C200.12 112.55 200.18 112.26 200.18 111.92
C200.18 111.37 200.05 110.92 199.79 110.58
C199.53 110.23 199.21 110.06 198.82 110.06
Z
" fill="black" fill-rule="nonzero" />
<path d="
M199.13 135.36
L199.13 138.57
L197.67 138.57
L199.13 135.36
Z
M195.45 133.93
C195.35 134.24 195.18 134.56 194.94 134.88
C194.70 135.21 194.42 135.49 194.10 135.72
L194.10 136.56
C194.29 136.46 194.49 136.30 194.71 136.10
C194.94 135.90 195.12 135.70 195.25 135.51
L195.25 141.08
L195.82 141.08
L195.82 133.93
Z
M199.24 133.96
L197.11 138.57
L197.11 139.37
L199.13 139.37
L199.13 141.08
L199.71 141.08
L199.71 139.37
L200.34 139.37
L200.34 138.57
L199.71 138.57
L199.71 133.96
Z
" fill="black" fill-rule="nonzero" />
<path d="
M195.45 145.83
C195.35 146.14 195.18 146.46 194.94 146.79
C194.70 147.12 194.42 147.39 194.10 147.62
L194.10 148.47
C194.29 148.36 194.49 148.21 194.71 148.01
C194.94 147.81 195.12 147.61 195.25 147.41
L195.25 152.98
L195.82 152.98
L195.82 145.83
Z
M198.86 145.83
C198.42 145.83 198.07 146.01 197.80 146.35
C197.53 146.70 197.38 147.21 197.33 147.89
L197.93 147.99
C197.93 147.53 198.01 147.17 198.18 146.93
C198.35 146.68 198.57 146.56 198.84 146.56
C199.09 146.56 199.30 146.67 199.47 146.90
C199.64 147.13 199.72 147.42 199.72 147.79
C199.72 148.10 199.64 148.44 199.47 148.80
C199.31 149.17 198.96 149.68 198.42 150.35
C197.96 150.93 197.64 151.42 197.47 151.84
C197.30 152.26 197.22 152.64 197.23 152.98
L200.32 152.98
L200.32 152.14
L198.02 152.14
C198.08 151.99 198.17 151.83 198.27 151.67
C198.37 151.51 198.59 151.21 198.93 150.77
C199.46 150.08 199.83 149.53 200.02 149.11
C200.21 148.69 200.31 148.26 200.31 147.81
C200.31 147.29 200.19 146.84 199.94 146.44
C199.70 146.03 199.33 145.83 198.86 145.83
Z
" fill="black" fill-rule="nonzero" />
<path d="
M197.00 158.43
C197.26 158.43 197.48 158.54 197.67 158.75
C197.85 158.96 197.95 159.23 197.95 159.56
C197.95 159.88 197.86 160.14 197.67 160.34
C197.49 160.54 197.27 160.64 197.01 160.64
C196.75 160.64 196.52 160.54 196.34 160.33
C196.16 160.13 196.07 159.85 196.07 159.51
C196.07 159.20 196.16 158.94 196.34 158.74
C196.53 158.53 196.75 158.43 197.00 158.43
Z
M196.99 161.35
C197.32 161.35 197.60 161.48 197.83 161.74
C198.07 162.01 198.18 162.35 198.18 162.79
C198.18 163.21 198.07 163.56 197.84 163.81
C197.62 164.07 197.34 164.20 197.01 164.20
C196.69 164.20 196.41 164.07 196.18 163.80
C195.95 163.54 195.83 163.19 195.83 162.76
C195.83 162.34 195.94 162.00 196.17 161.74
C196.40 161.48 196.67 161.35 196.99 161.35
Z
M197.00 157.72
C196.52 157.72 196.13 157.89 195.81 158.23
C195.49 158.56 195.34 159.00 195.34 159.53
C195.34 159.89 195.41 160.18 195.56 160.42
C195.70 160.66 195.92 160.84 196.20 160.97
C195.86 161.08 195.59 161.29 195.40 161.59
C195.20 161.90 195.11 162.29 195.11 162.76
C195.11 163.40 195.29 163.92 195.65 164.31
C196.01 164.71 196.47 164.91 197.01 164.91
C197.55 164.91 198.00 164.71 198.36 164.31
C198.73 163.92 198.91 163.41 198.91 162.78
C198.91 162.33 198.81 161.95 198.63 161.64
C198.44 161.33 198.17 161.11 197.82 160.97
C198.11 160.84 198.32 160.66 198.46 160.42
C198.60 160.19 198.67 159.90 198.67 159.56
C198.67 159.02 198.51 158.58 198.20 158.24
C197.88 157.89 197.48 157.72 197.00 157.72
Z
" fill="black" fill-rule="nonzero" />
<path d="
M196.18 182.59
C196.81 182.59 197.23 182.61 197.45 182.66
C197.74 182.73 197.98 182.85 198.17 183.02
C198.36 183.20 198.50 183.45 198.61 183.77
C198.71 184.08 198.76 184.54 198.76 185.13
C198.76 185.72 198.71 186.19 198.61 186.54
C198.50 186.88 198.37 187.13 198.20 187.28
C198.04 187.42 197.83 187.53 197.58 187.59
C197.38 187.64 197.07 187.67 196.64 187.67
L195.48 187.67
L195.48 182.59
Z
M193.94 181.29
L193.94 188.96
L196.85 188.96
C197.42 188.96 197.88 188.90 198.22 188.80
C198.68 188.65 199.04 188.45 199.31 188.19
C199.66 187.84 199.94 187.39 200.13 186.83
C200.28 186.37 200.36 185.83 200.36 185.20
C200.36 184.48 200.28 183.88 200.11 183.39
C199.94 182.90 199.70 182.48 199.38 182.14
C199.06 181.81 198.67 181.57 198.22 181.44
C197.89 181.34 197.40 181.29 196.77 181.29
Z
" fill="black" fill-rule="nonzero" />
<path d="
M196.95 194.99
L198.00 197.83
L195.91 197.83
L196.95 194.99
Z
M196.15 193.20
L193.16 200.86
L194.80 200.86
L195.44 199.12
L198.50 199.12
L199.17 200.86
L200.85 200.86
L197.79 193.20
Z
" fill="black" fill-rule="nonzero" />
<path d="
M196.38 206.38
C197.11 206.38 197.55 206.39 197.71 206.41
C197.96 206.44 198.16 206.53 198.29 206.68
C198.42 206.82 198.49 207.02 198.49 207.25
C198.49 207.50 198.41 207.70 198.26 207.85
C198.11 208.00 197.90 208.09 197.63 208.13
C197.49 208.14 197.11 208.15 196.51 208.15
L195.49 208.15
L195.49 206.38
Z
M196.74 209.43
C197.45 209.43 197.91 209.46 198.12 209.54
C198.33 209.61 198.49 209.73 198.60 209.89
C198.71 210.05 198.77 210.24 198.77 210.47
C198.77 210.75 198.70 210.96 198.55 211.13
C198.41 211.29 198.22 211.39 197.99 211.43
C197.84 211.46 197.49 211.48 196.93 211.48
L195.49 211.48
L195.49 209.43
Z
M193.95 205.10
L193.95 212.77
L196.56 212.77
C197.54 212.76 198.17 212.75 198.42 212.72
C198.83 212.67 199.18 212.55 199.46 212.35
C199.74 212.16 199.96 211.89 200.13 211.56
C200.29 211.24 200.37 210.90 200.37 210.55
C200.37 210.10 200.24 209.72 199.99 209.39
C199.74 209.06 199.38 208.83 198.91 208.70
C199.25 208.55 199.51 208.32 199.70 208.02
C199.90 207.72 199.99 207.39 199.99 207.03
C199.99 206.70 199.91 206.40 199.76 206.14
C199.60 205.87 199.40 205.66 199.17 205.50
C198.93 205.34 198.67 205.23 198.37 205.18
C198.07 205.13 197.62 205.10 197.01 205.10
Z
" fill="black" fill-rule="nonzero" />
<path d="
M210.70 182.21
C210.98 182.21 211.21 182.41 211.39 182.80
C211.56 183.19 211.65 183.97 211.65 185.13
C211.65 186.27 211.57 187.05 211.39 187.45
C211.21 187.84 210.99 188.04 210.73 188.04
C210.46 188.04 210.23 187.85 210.05 187.45
C209.87 187.06 209.78 186.28 209.78 185.13
C209.78 183.98 209.87 183.21 210.05 182.81
C210.22 182.41 210.44 182.21 210.70 182.21
Z
M207.35 181.49
C207.26 181.80 207.09 182.12 206.84 182.45
C206.60 182.77 206.32 183.05 206.01 183.28
L206.01 184.12
C206.19 184.02 206.40 183.87 206.62 183.66
C206.84 183.46 207.02 183.26 207.15 183.07
L207.15 188.64
L207.73 188.64
L207.73 181.49
Z
M210.72 181.49
C210.22 181.49 209.84 181.80 209.58 182.41
C209.33 183.03 209.20 183.93 209.20 185.13
C209.20 186.46 209.34 187.40 209.62 187.95
C209.91 188.49 210.27 188.76 210.72 188.76
C211.22 188.76 211.60 188.45 211.86 187.84
C212.12 187.22 212.24 186.32 212.24 185.13
C212.24 183.80 212.09 182.84 211.78 182.24
C211.52 181.74 211.17 181.49 210.72 181.49
Z
" fill="black" fill-rule="nonzero" />
<path d="
M206.14 193.20
L206.14 200.86
L211.97 200.86
L211.97 199.57
L207.69 199.57
L207.69 197.49
L211.54 197.49
L211.54 196.19
L207.69 196.19
L207.69 194.49
L211.83 194.49
L211.83 193.20
Z
" fill="black" fill-rule="nonzero" />
<path d="
M209.16 204.97
C208.09 204.97 207.22 205.33 206.56 206.03
C205.90 206.74 205.58 207.73 205.58 209.00
C205.58 210.21 205.90 211.16 206.56 211.86
C207.21 212.55 208.05 212.90 209.07 212.90
C209.89 212.90 210.57 212.70 211.11 212.29
C211.64 211.89 212.02 211.26 212.25 210.43
L210.75 209.95
C210.62 210.51 210.41 210.92 210.11 211.19
C209.82 211.45 209.46 211.58 209.05 211.58
C208.49 211.58 208.04 211.37 207.69 210.96
C207.34 210.55 207.17 209.86 207.17 208.89
C207.17 207.98 207.35 207.32 207.70 206.91
C208.05 206.50 208.52 206.30 209.08 206.30
C209.50 206.30 209.84 206.41 210.13 206.64
C210.42 206.87 210.61 207.18 210.70 207.58
L212.23 207.22
C212.06 206.60 211.80 206.13 211.45 205.80
C210.86 205.25 210.10 204.97 209.16 204.97
Z
" fill="black" fill-rule="nonzero" />
</g>
<g  transform="translate(1.19,228.58)" >
<path d="
M105.01 2.94
C104.84 2.94 104.70 3.00 104.58 3.11
C104.47 3.23 104.41 3.37 104.41 3.53
C104.41 3.69 104.47 3.83 104.59 3.95
C104.70 4.07 104.84 4.12 105.01 4.12
C105.17 4.12 105.31 4.07 105.42 3.95
C105.54 3.83 105.59 3.69 105.59 3.53
C105.59 3.37 105.54 3.23 105.42 3.11
C105.31 3.00 105.17 2.94 105.01 2.94
Z
M121.35 4.39
L121.35 8.31
L118.58 8.31
L121.35 4.39
Z
M109.98 8.04
L109.98 10.07
C109.50 10.46 109.11 10.65 108.81 10.65
C108.60 10.65 108.40 10.56 108.24 10.37
C108.07 10.19 107.99 9.96 107.99 9.68
C107.99 9.46 108.05 9.25 108.19 9.07
C108.32 8.88 108.54 8.70 108.84 8.53
C109.01 8.44 109.39 8.27 109.98 8.04
Z
M98.33 3.77
C99.26 3.77 100.02 4.08 100.61 4.71
C101.21 5.34 101.50 6.20 101.50 7.29
C101.50 8.37 101.21 9.23 100.61 9.86
C100.02 10.49 99.27 10.81 98.37 10.81
C98.04 10.81 97.63 10.75 97.13 10.64
L97.13 3.94
C97.58 3.83 97.98 3.77 98.33 3.77
Z
M94.88 3.33
L94.88 3.54
L95.18 3.54
C95.48 3.54 95.70 3.63 95.86 3.80
C95.96 3.92 96.02 4.23 96.02 4.72
L96.02 9.82
C96.02 10.26 95.98 10.55 95.89 10.68
C95.75 10.89 95.51 11.00 95.18 11.00
L94.88 11.00
L94.88 11.21
L98.41 11.21
C99.94 11.21 101.08 10.80 101.83 9.98
C102.49 9.24 102.83 8.33 102.83 7.23
C102.83 6.41 102.64 5.69 102.27 5.07
C101.89 4.44 101.40 4.00 100.78 3.73
C100.17 3.46 99.27 3.33 98.09 3.33
Z
M105.23 5.73
L103.63 6.38
L103.71 6.59
C103.86 6.53 104.00 6.50 104.10 6.50
C104.21 6.50 104.28 6.53 104.34 6.58
C104.40 6.62 104.44 6.71 104.47 6.83
C104.51 7.00 104.52 7.38 104.52 7.96
L104.52 10.01
C104.52 10.34 104.50 10.56 104.44 10.68
C104.39 10.79 104.32 10.88 104.23 10.93
C104.14 10.98 103.97 11.00 103.71 11.00
L103.71 11.21
L106.30 11.21
L106.30 11.00
C106.04 11.00 105.87 10.98 105.78 10.92
C105.68 10.87 105.61 10.79 105.56 10.68
C105.51 10.56 105.49 10.34 105.49 10.01
L105.49 5.73
Z
M121.67 3.16
L118.01 8.39
L118.01 9.13
L121.35 9.13
L121.35 11.21
L122.31 11.21
L122.31 9.13
L123.36 9.13
L123.36 8.31
L122.31 8.31
L122.31 3.16
Z
M129.49 3.16
C128.88 3.16 128.38 3.36 127.98 3.74
C127.58 4.12 127.33 4.67 127.23 5.39
L127.45 5.39
C127.60 4.95 127.82 4.62 128.13 4.39
C128.44 4.17 128.79 4.05 129.18 4.05
C129.60 4.05 129.97 4.22 130.28 4.54
C130.58 4.86 130.74 5.27 130.74 5.77
C130.74 6.42 130.46 7.15 129.90 7.94
C129.34 8.73 128.38 9.75 127.01 11.00
L127.01 11.21
L131.66 11.21
L132.21 9.70
L132.00 9.70
C131.90 9.87 131.78 10.00 131.64 10.10
C131.51 10.19 131.35 10.26 131.19 10.29
C131.02 10.32 130.72 10.33 130.31 10.33
L128.25 10.33
C128.49 10.12 129.09 9.48 130.05 8.43
C130.70 7.73 131.16 7.06 131.45 6.43
C131.64 6.03 131.73 5.63 131.73 5.23
C131.73 4.68 131.52 4.19 131.09 3.78
C130.66 3.37 130.12 3.16 129.49 3.16
Z
M109.16 5.73
C108.55 5.73 108.07 5.87 107.73 6.15
C107.38 6.43 107.21 6.73 107.21 7.07
C107.21 7.24 107.26 7.38 107.35 7.48
C107.44 7.58 107.56 7.63 107.70 7.63
C107.85 7.63 107.97 7.58 108.06 7.49
C108.15 7.39 108.20 7.25 108.20 7.07
L108.19 6.74
C108.19 6.56 108.26 6.41 108.41 6.28
C108.55 6.15 108.74 6.08 108.99 6.08
C109.31 6.08 109.55 6.18 109.72 6.38
C109.89 6.58 109.98 6.94 109.98 7.47
L109.98 7.68
C109.06 8.02 108.41 8.30 108.01 8.53
C107.62 8.76 107.34 9.01 107.19 9.28
C107.07 9.47 107.01 9.69 107.01 9.95
C107.01 10.36 107.13 10.69 107.37 10.95
C107.61 11.20 107.91 11.32 108.28 11.32
C108.51 11.32 108.74 11.27 108.95 11.18
C109.09 11.11 109.43 10.87 109.98 10.45
C109.98 10.76 110.04 10.99 110.15 11.12
C110.26 11.25 110.41 11.32 110.60 11.32
C111.00 11.32 111.41 11.03 111.85 10.45
L111.85 10.12
C111.62 10.35 111.46 10.49 111.38 10.54
C111.33 10.57 111.28 10.58 111.22 10.58
C111.16 10.58 111.11 10.57 111.06 10.53
C111.02 10.49 110.98 10.41 110.97 10.30
C110.95 10.18 110.94 9.87 110.94 9.36
L110.94 7.55
C110.94 7.04 110.90 6.70 110.83 6.53
C110.72 6.28 110.55 6.09 110.33 5.97
C110.02 5.81 109.64 5.73 109.16 5.73
Z
M113.36 10.08
C113.18 10.08 113.03 10.15 112.90 10.27
C112.78 10.39 112.71 10.55 112.71 10.73
C112.71 10.91 112.78 11.06 112.90 11.19
C113.03 11.31 113.18 11.38 113.36 11.38
C113.54 11.38 113.69 11.31 113.82 11.19
C113.94 11.06 114.00 10.91 114.00 10.73
C114.00 10.55 113.94 10.40 113.82 10.27
C113.69 10.15 113.54 10.08 113.36 10.08
Z
M125.26 10.08
C125.09 10.08 124.93 10.15 124.81 10.27
C124.68 10.39 124.62 10.55 124.62 10.73
C124.62 10.91 124.68 11.06 124.81 11.19
C124.93 11.31 125.09 11.38 125.26 11.38
C125.44 11.38 125.59 11.31 125.72 11.19
C125.85 11.06 125.91 10.91 125.91 10.73
C125.91 10.55 125.85 10.40 125.72 10.27
C125.60 10.15 125.45 10.08 125.26 10.08
Z
" fill="black" fill-rule="nonzero" />
</g>
</g>
</svg>
