<?xml version="1.0" encoding="utf-8" standalone="no"?>
<!DOCTYPE svg PUBLIC "-//W3C//DTD SVG 1.0//EN" "http://www.w3.org/TR/SVG/DTD/svg11.dtd" >
<svg version="1.1" baseProfile="full"  width="319.13385" height="338.46454" viewBox="0 0 229.77638 243.69449" preserveAspectRatio="xMidYMid" xmlns="http://www.w3.org/2000/svg" >

<g lengthAdjust="spacingAndGlyphs" xml:space='preserve' >
<g  transform="translate(1.19,1.19)" >
<path d="
M0.0 0.0
L0.0 227.39
L227.39 227.39
L227.39 0.0
Z
" fill="none" fill-rule="nonzero" />
<line x1="6.54" y1="6.54" x2="6.54" y2="220.84" fill="none" stroke="black" stroke-width="0.87px" stroke-linecap="square" />
<line x1="18.45" y1="6.54" x2="18.45" y2="220.84" fill="none" stroke="black" stroke-width="0.25px" stroke-linecap="butt" />
<line x1="30.35" y1="6.54" x2="30.35" y2="220.84" fill="none" stroke="black" stroke-width="0.25px" stroke-linecap="butt" />
<line x1="42.26" y1="6.54" x2="42.26" y2="220.84" fill="none" stroke="black" stroke-width="0.25px" stroke-linecap="butt" />
<line x1="54.17" y1="6.54" x2="54.17" y2="220.84" fill="none" stroke="black" stroke-width="0.25px" stroke-linecap="butt" />
<line x1="66.07" y1="6.54" x2="66.07" y2="36.31" fill="none" stroke="black" stroke-width="0.25px" stroke-linecap="butt" />
<line x1="66.07" y1="48.21" x2="66.07" y2="220.84" fill="none" stroke="black" stroke-width="0.25px" stroke-linecap="butt" />
<line x1="77.98" y1="6.54" x2="77.98" y2="220.84" fill="none" stroke="black" stroke-width="0.25px" stroke-linecap="butt" />
<line x1="89.88" y1="6.54" x2="89.88" y2="220.84" fill="none" stroke="black" stroke-width="0.25px" stroke-linecap="butt" />
<line x1="101.79" y1="6.54" x2="101.79" y2="220.84" fill="none" stroke="black" stroke-width="0.25px" stroke-linecap="butt" />
<line x1="113.69" y1="6.54" x2="113.69" y2="220.84" fill="none" stroke="black" stroke-width="0.25px" stroke-linecap="butt" />
<line x1="125.60" y1="6.54" x2="125.60" y2="220.84" fill="none" stroke="black" stroke-width="0.25px" stroke-linecap="butt" />
<line x1="137.50" y1="6.54" x2="137.50" y2="220.84" fill="none" stroke="black" stroke-width="0.25px" stroke-linecap="butt" />
<line x1="149.41" y1="6.54" x2="149.41" y2="220.84" fill="none" stroke="black" stroke-width="0.25px" stroke-linecap="butt" />
<line x1="161.31" y1="6.54" x2="161.31" y2="220.84" fill="none" stroke="black" stroke-width="0.25px" stroke-linecap="butt" />
<line x1="173.22" y1="6.54" x2="173.22" y2="220.84" fill="none" stroke="black" stroke-width="0.25px" stroke-linecap="butt" />
<line x1="185.13" y1="6.54" x2="185.13" y2="220.84" fill="none" stroke="black" stroke-width="0.25px" stroke-linecap="butt" />
<line x1="197.03" y1="6.54" x2="197.03" y2="220.84" fill="none" stroke="black" stroke-width="0.25px" stroke-linecap="butt" />
<line x1="208.94" y1="6.54" x2="208.94" y2="220.84" fill="none" stroke="black" stroke-width="0.25px" stroke-linecap="butt" />
<line x1="220.84" y1="6.54" x2="220.84" y2="220.84" fill="none" stroke="black" stroke-width="0.87px" stroke-linecap="square" />
<line x1="6.54" y1="6.54" x2="220.84" y2="6.54" fill="none" stroke="black" stroke-width="0.87px" stroke-linecap="square" />
<line x1="6.54" y1="18.45" x2="220.84" y2="18.45" fill="none" stroke="black" stroke-width="0.25px" stroke-linecap="butt" />
<line x1="6.54" y1="30.35" x2="220.84" y2="30.35" fill="none" stroke="black" stroke-width="0.25px" stroke-linecap="butt" />
<line x1="6.54" y1="42.26" x2="60.12" y2="42.26" fill="none" stroke="black" stroke-width="0.25px" stroke-linecap="butt" />
<line x1="72.02" y1="42.26" x2="220.84" y2="42.26" fill="none" stroke="black" stroke-width="0.25px" stroke-linecap="butt" />
<line x1="6.54" y1="54.17" x2="220.84" y2="54.17" fill="none" stroke="black" stroke-width="0.25px" stroke-linecap="butt" />
<line x1="6.54" y1="66.07" x2="220.84" y2="66.07" fill="none" stroke="black" stroke-width="0.25px" stroke-linecap="butt" />
<line x1="6.54" y1="77.98" x2="220.84" y2="77.98" fill="none" stroke="black" stroke-width="0.25px" stroke-linecap="butt" />
<line x1="6.54" y1="89.88" x2="220.84" y2="89.88" fill="none" stroke="black" stroke-width="0.25px" stroke-linecap="butt" />
<line x1="6.54" y1="101.79" x2="220.84" y2="101.79" fill="none" stroke="black" stroke-width="0.25px" stroke-linecap="butt" />
<line x1="6.54" y1="113.69" x2="220.84" y2="113.69" fill="none" stroke="black" stroke-width="0.25px" stroke-linecap="butt" />
<line x1="6.54" y1="125.60" x2="220.84" y2="125.60" fill="none" stroke="black" stroke-width="0.25px" stroke-linecap="butt" />
<line x1="6.54" y1="137.50" x2="220.84" y2="137.50" fill="none" stroke="black" stroke-width="0.25px" stroke-linecap="butt" />
<line x1="6.54" y1="149.41" x2="220.84" y2="149.41" fill="none" stroke="black" stroke-width="0.25px" stroke-linecap="butt" />
<line x1="6.54" y1="161.31" x2="220.84" y2="161.31" fill="none" stroke="black" stroke-width="0.25px" stroke-linecap="butt" />
<line x1="6.54" y1="173.22" x2="220.84" y2="173.22" fill="none" stroke="black" stroke-width="0.25px" stroke-linecap="butt" />
<line x1="6.54" y1="185.13" x2="220.84" y2="185.13" fill="none" stroke="black" stroke-width="0.25px" stroke-linecap="butt" />
<line x1="6.54" y1="197.03" x2="220.84" y2="197.03" fill="none" stroke="black" stroke-width="0.25px" stroke-linecap="butt" />
<line x1="6.54" y1="208.94" x2="220.84" y2="208.94" fill="none" stroke="black" stroke-width="0.25px" stroke-linecap="butt" />
<line x1="6.54" y1="220.84" x2="220.84" y2="220.84" fill="none" stroke="black" stroke-width="0.87px" stroke-linecap="square" />
<circle cx="30.35" cy="30.35" r="5.85" fill="white"/>
<circle cx="30.35" cy="30.35" r="5.85" fill="none" stroke="black" stroke-width="0.25px"/>
<circle cx="30.35" cy="42.26" r="5.85" fill="white"/>
<circle cx="30.35" cy="42.26" r="5.85" fill="none" stroke="black" stroke-width="0.25px"/>
<circle cx="30.35" cy="54.17" r="5.98" fill="black"/>
<circle cx="42.26" cy="42.26" r="5.98" fill="black"/>
<circle cx="42.26" cy="54.17" r="5.98" fill="black"/>
<circle cx="42.26" cy="113.69" r="5.85" fill="white"/>
<circle cx="42.26" cy="113.69" r="5.85" fill="none" stroke="black" stroke-width="0.25px"/>
<circle cx="42.26" cy="185.13" r="5.85" fill="white"/>
<circle cx="42.26" cy="185.13" r="5.85" fill="none" stroke="black" stroke-width="0.25px"/>
<circle cx="54.17" cy="18.45" r="5.85" fill="white"/>
<circle cx="54.17" cy="18.45" r="5.85" fill="none" stroke="black" stroke-width="0.25px"/>
<circle cx="77.98" cy="42.26" r="5.98" fill="black"/>
<circle cx="113.69" cy="42.26" r="1.27" fill="black"/>
<circle cx="113.69" cy="113.69" r="1.27" fill="black"/>
<circle cx="113.69" cy="185.13" r="1.27" fill="black"/>
<circle cx="149.41" cy="42.26" r="5.85" fill="white"/>
<circle cx="149.41" cy="42.26" r="5.85" fill="none" stroke="black" stroke-width="0.25px"/>
<circle cx="161.31" cy="30.35" r="5.85" fill="white"/>
<circle cx="161.31" cy="30.35" r="5.85" fill="none" stroke="black" stroke-width="0.25px"/>
<circle cx="161.31" cy="42.26" r="5.98" fill="black"/>
<circle cx="161.31" cy="54.17" r="5.98" fill="black"/>
<circle cx="173.22" cy="30.35" r="5.85" fill="white"/>
<circle cx="173.22" cy="30.35" r="5.85" fill="none" stroke="black" stroke-width="0.25px"/>
<circle cx="173.22" cy="77.98" r="5.98" fill="black"/>
<circle cx="173.22" cy="89.88" r="5.98" fill="black"/>
<circle cx="185.13" cy="18.45" r="5.85" fill="white"/>
<circle cx="185.13" cy="18.45" r="5.85" fill="none" stroke="black" stroke-width="0.25px"/>
<circle cx="185.13" cy="30.35" r="5.98" fill="black"/>
<circle cx="185.13" cy="42.26" r="5.98" fill="black"/>
<circle cx="185.13" cy="66.07" r="5.98" fill="black"/>
<circle cx="185.13" cy="77.98" r="5.85" fill="white"/>
<circle cx="185.13" cy="77.98" r="5.85" fill="none" stroke="black" stroke-width="0.25px"/>
<circle cx="185.13" cy="89.88" r="5.85" fill="white"/>
<circle cx="185.13" cy="89.88" r="5.85" fill="none" stroke="black" stroke-width="0.25px"/>
<circle cx="185.13" cy="113.69" r="1.27" fill="black"/>
<circle cx="185.13" cy="125.60" r="5.98" fill="black"/>
<circle cx="185.13" cy="185.13" r="1.27" fill="black"/>
<circle cx="185.13" cy="197.03" r="5.98" fill="black"/>
<circle cx="197.03" cy="30.35" r="5.85" fill="white"/>
<circle cx="197.03" cy="30.35" r="5.85" fill="none" stroke="black" stroke-width="0.25px"/>
<circle cx="197.03" cy="42.26" r="5.98" fill="black"/>
<circle cx="197.03" cy="54.17" r="5.98" fill="black"/>
<circle cx="197.03" cy="66.07" r="5.85" fill="white"/>
<circle cx="197.03" cy="66.07" r="5.85" fill="none" stroke="black" stroke-width="0.25px"/>
<circle cx="208.94" cy="30.35" r="5.85" fill="white"/>
<circle cx="208.94" cy="30.35" r="5.85" fill="none" stroke="black" stroke-width="0.25px"/>
<circle cx="208.94" cy="42.26" r="5.98" fill="black"/>
<circle cx="208.94" cy="54.17" r="5.85" fill="white"/>
<circle cx="208.94" cy="54.17" r="5.85" fill="none" stroke="black" stroke-width="0.25px"/>
<circle cx="208.94" cy="66.07" r="5.85" fill="white"/>
<circle cx="208.94" cy="66.07" r="5.85" fill="none" stroke="black" stroke-width="0.25px"/>
<circle cx="220.84" cy="42.26" r="5.98" fill="black"/>
<path d="
M30.70 28.22
L30.70 31.40
L28.90 31.40
L30.70 28.22
Z
M30.84 26.84
L28.20 31.40
L28.20 32.19
L30.70 32.19
L30.70 33.87
L31.42 33.87
L31.42 32.19
L32.20 32.19
L32.20 31.40
L31.42 31.40
L31.42 26.84
Z
" fill="black" fill-rule="nonzero" />
<path d="
M30.33 39.38
C30.58 39.38 30.80 39.48 30.99 39.69
C31.18 39.90 31.27 40.17 31.27 40.50
C31.27 40.82 31.18 41.08 31.00 41.28
C30.82 41.48 30.59 41.59 30.34 41.59
C30.07 41.59 29.85 41.48 29.66 41.28
C29.48 41.07 29.39 40.80 29.39 40.45
C29.39 40.15 29.48 39.89 29.67 39.68
C29.85 39.48 30.07 39.38 30.33 39.38
Z
M30.32 42.29
C30.64 42.29 30.92 42.42 31.16 42.69
C31.39 42.95 31.51 43.30 31.51 43.73
C31.51 44.16 31.39 44.50 31.17 44.76
C30.94 45.01 30.66 45.14 30.34 45.14
C30.01 45.14 29.73 45.01 29.50 44.75
C29.27 44.48 29.15 44.13 29.15 43.70
C29.15 43.29 29.27 42.95 29.49 42.68
C29.72 42.42 29.99 42.29 30.32 42.29
Z
M30.32 38.67
C29.84 38.67 29.45 38.83 29.13 39.17
C28.82 39.51 28.66 39.94 28.66 40.48
C28.66 40.83 28.73 41.13 28.88 41.37
C29.02 41.61 29.24 41.79 29.52 41.92
C29.18 42.03 28.91 42.23 28.72 42.54
C28.53 42.84 28.43 43.23 28.43 43.70
C28.43 44.35 28.61 44.86 28.97 45.26
C29.34 45.65 29.79 45.85 30.34 45.85
C30.87 45.85 31.32 45.65 31.69 45.26
C32.05 44.86 32.23 44.35 32.23 43.73
C32.23 43.27 32.14 42.89 31.95 42.58
C31.76 42.28 31.50 42.05 31.15 41.92
C31.43 41.79 31.64 41.60 31.78 41.37
C31.93 41.13 32.00 40.84 32.00 40.51
C32.00 39.96 31.84 39.52 31.52 39.18
C31.20 38.84 30.80 38.67 30.32 38.67
Z
" fill="black" fill-rule="nonzero" />
<path d="
M28.67 50.45
L28.64 50.55
C28.54 50.84 28.38 51.15 28.15 51.46
C27.91 51.78 27.65 52.04 27.34 52.26
L27.28 52.30
L27.28 52.38
L27.28 53.22
L27.28 53.46
L27.28 53.46
L27.49 53.35
C27.69 53.24 27.90 53.08 28.13 52.87
C28.24 52.77 28.34 52.67 28.43 52.57
L28.43 52.57
L28.43 57.74
L28.43 57.88
L29.29 57.88
L29.29 57.74
L29.29 50.59
L29.29 50.45
Z
M32.30 50.45
L32.27 50.55
C32.17 50.84 32.01 51.15 31.78 51.46
C31.54 51.78 31.28 52.04 30.97 52.26
L30.91 52.30
L30.91 52.38
L30.91 53.22
L30.91 53.46
L30.91 53.46
L31.12 53.35
C31.32 53.24 31.53 53.08 31.76 52.87
C31.87 52.77 31.97 52.67 32.06 52.57
L32.06 52.57
L32.06 57.74
L32.06 57.88
L32.92 57.88
L32.92 57.74
L32.92 50.59
L32.92 50.45
Z
" fill="white" fill-rule="nonzero" />
<path d="
M40.25 38.65
L40.25 38.79
L40.25 39.62
L40.25 39.76
L42.94 39.76
C42.63 40.22 42.35 40.76 42.08 41.37
C41.76 42.09 41.52 42.85 41.34 43.64
C41.16 44.44 41.06 45.13 41.05 45.73
L41.05 45.87
L41.92 45.87
L42.06 45.87
L42.07 45.74
C42.13 44.61 42.37 43.48 42.79 42.33
C43.20 41.19 43.69 40.26 44.23 39.55
L44.26 39.51
L44.26 39.46
L44.26 38.79
L44.26 38.65
Z
" fill="white" fill-rule="nonzero" />
<path d="
M42.24 51.43
C42.24 51.43 42.24 51.43 42.24 51.43
C42.24 51.43 42.24 51.43 42.24 51.43
C42.49 51.43 42.71 51.56 42.90 51.81
C43.11 52.07 43.21 52.44 43.21 52.91
C43.21 53.38 43.11 53.74 42.91 53.99
C42.72 54.23 42.50 54.35 42.23 54.35
C42.23 54.35 42.23 54.35 42.23 54.35
C42.23 54.35 42.22 54.35 42.22 54.35
C41.95 54.35 41.72 54.23 41.52 53.99
C41.31 53.74 41.21 53.40 41.21 52.98
C41.21 52.50 41.32 52.12 41.54 51.84
C41.75 51.56 41.98 51.43 42.24 51.43
Z
M42.16 50.43
C41.61 50.43 41.14 50.66 40.76 51.12
C40.39 51.57 40.20 52.18 40.20 52.95
C40.20 53.70 40.38 54.29 40.74 54.73
C41.11 55.17 41.55 55.39 42.07 55.39
C42.36 55.39 42.64 55.30 42.91 55.12
C43.05 55.03 43.17 54.92 43.28 54.80
L43.28 54.80
C43.26 55.21 43.19 55.58 43.09 55.90
C42.96 56.29 42.81 56.55 42.64 56.70
C42.47 56.84 42.29 56.91 42.09 56.91
C42.09 56.91 42.09 56.91 42.09 56.91
C42.09 56.91 42.08 56.91 42.08 56.91
C41.86 56.91 41.69 56.83 41.56 56.68
C41.41 56.51 41.32 56.26 41.27 55.91
L41.25 55.78
L41.11 55.79
L40.43 55.87
L40.29 55.89
L40.30 56.02
C40.37 56.62 40.56 57.09 40.87 57.41
C41.19 57.74 41.59 57.90 42.07 57.90
C42.49 57.90 42.87 57.77 43.21 57.50
C43.54 57.24 43.81 56.82 44.00 56.26
C44.18 55.71 44.28 54.95 44.28 53.97
C44.28 53.08 44.19 52.40 44.02 51.92
C43.84 51.44 43.58 51.07 43.25 50.81
C42.91 50.56 42.55 50.43 42.16 50.43
Z
" fill="white" fill-rule="nonzero" />
<path d="
M40.68 110.12
C40.58 110.43 40.41 110.75 40.17 111.07
C39.92 111.40 39.65 111.68 39.33 111.90
L39.33 112.75
C39.52 112.65 39.72 112.49 39.94 112.29
C40.17 112.09 40.34 111.89 40.48 111.70
L40.48 117.27
L41.05 117.27
L41.05 110.12
Z
M44.09 110.12
C43.65 110.12 43.30 110.29 43.03 110.63
C42.76 110.98 42.60 111.49 42.56 112.18
L43.15 112.27
C43.15 111.81 43.24 111.46 43.41 111.21
C43.58 110.96 43.80 110.84 44.07 110.84
C44.32 110.84 44.52 110.95 44.69 111.18
C44.86 111.41 44.95 111.71 44.95 112.07
C44.95 112.38 44.87 112.72 44.70 113.09
C44.53 113.45 44.18 113.97 43.65 114.64
C43.19 115.21 42.87 115.71 42.70 116.13
C42.53 116.55 42.45 116.93 42.45 117.27
L45.54 117.27
L45.54 116.43
L43.25 116.43
C43.31 116.27 43.39 116.11 43.49 115.95
C43.59 115.79 43.81 115.50 44.16 115.06
C44.69 114.36 45.06 113.81 45.25 113.39
C45.44 112.98 45.54 112.54 45.54 112.09
C45.54 111.58 45.41 111.12 45.17 110.72
C44.92 110.32 44.56 110.12 44.09 110.12
Z
" fill="black" fill-rule="nonzero" />
<path d="
M42.27 181.59
C41.73 181.59 41.30 181.76 40.97 182.10
C40.64 182.44 40.44 182.95 40.39 183.63
L41.12 183.72
C41.12 183.26 41.23 182.92 41.44 182.67
C41.65 182.43 41.92 182.31 42.25 182.31
C42.56 182.31 42.82 182.42 43.03 182.65
C43.23 182.87 43.34 183.16 43.34 183.52
C43.34 183.83 43.24 184.17 43.03 184.53
C42.83 184.89 42.39 185.40 41.73 186.06
C41.17 186.62 40.78 187.11 40.56 187.53
C40.35 187.95 40.25 188.32 40.26 188.66
L44.07 188.66
L44.07 187.83
L41.24 187.83
C41.32 187.67 41.42 187.51 41.54 187.36
C41.67 187.20 41.94 186.91 42.36 186.47
C43.02 185.79 43.47 185.24 43.71 184.83
C43.95 184.42 44.06 183.99 44.06 183.54
C44.06 183.04 43.91 182.58 43.61 182.19
C43.31 181.79 42.86 181.59 42.27 181.59
Z
" fill="black" fill-rule="nonzero" />
<path d="
M55.93 15.54
C56.21 15.54 56.44 15.73 56.62 16.12
C56.79 16.52 56.88 17.29 56.88 18.45
C56.88 19.60 56.79 20.37 56.62 20.77
C56.44 21.17 56.22 21.37 55.96 21.37
C55.68 21.37 55.46 21.17 55.28 20.78
C55.10 20.38 55.01 19.61 55.01 18.45
C55.01 17.30 55.10 16.53 55.27 16.13
C55.45 15.74 55.67 15.54 55.93 15.54
Z
M52.58 14.81
C52.48 15.12 52.31 15.44 52.07 15.77
C51.83 16.10 51.55 16.37 51.23 16.60
L51.23 17.45
C51.42 17.34 51.63 17.19 51.85 16.99
C52.07 16.78 52.25 16.59 52.38 16.39
L52.38 21.96
L52.96 21.96
L52.96 14.81
Z
M55.95 14.81
C55.45 14.81 55.07 15.12 54.81 15.74
C54.55 16.35 54.43 17.26 54.43 18.45
C54.43 19.79 54.57 20.72 54.85 21.27
C55.13 21.81 55.50 22.09 55.95 22.09
C56.45 22.09 56.83 21.78 57.09 21.16
C57.34 20.54 57.47 19.64 57.47 18.45
C57.47 17.13 57.32 16.16 57.01 15.56
C56.75 15.06 56.40 14.81 55.95 14.81
Z
" fill="black" fill-rule="nonzero" />
<path d="
M65.99 40.21
L67.04 43.06
L64.95 43.06
L65.99 40.21
Z
M65.19 38.43
L62.20 46.09
L63.84 46.09
L64.48 44.35
L67.54 44.35
L68.21 46.09
L69.89 46.09
L66.82 38.43
Z
" fill="black" fill-rule="nonzero" />
<path d="
M76.29 38.48
L76.26 38.58
C76.17 38.87 76.00 39.18 75.77 39.49
C75.54 39.81 75.27 40.08 74.96 40.29
L74.90 40.34
L74.90 40.41
L74.90 41.25
L74.90 41.50
L75.11 41.38
C75.31 41.27 75.52 41.11 75.76 40.90
C75.86 40.80 75.96 40.70 76.05 40.61
L76.05 40.61
L76.05 45.77
L76.05 45.91
L76.91 45.91
L76.91 45.77
L76.91 38.62
L76.91 38.48
Z
M79.71 38.48
C79.30 38.48 78.96 38.65 78.68 39.00
C78.41 39.33 78.23 39.81 78.16 40.45
L78.14 40.57
L78.26 40.60
L78.83 40.76
L78.99 40.80
L79.01 40.64
C79.05 40.23 79.14 39.93 79.27 39.74
C79.40 39.57 79.54 39.48 79.71 39.48
C79.72 39.48 79.72 39.48 79.72 39.48
C79.72 39.48 79.72 39.48 79.72 39.48
C79.88 39.48 80.03 39.56 80.14 39.73
C80.27 39.90 80.34 40.14 80.34 40.45
C80.34 40.78 80.26 41.04 80.10 41.23
C79.96 41.41 79.77 41.50 79.53 41.50
L79.53 41.50
L79.45 41.49
L79.31 41.48
L79.30 41.62
L79.23 42.39
L79.21 42.62
L79.21 42.62
L79.42 42.53
C79.57 42.47 79.68 42.45 79.78 42.45
C79.78 42.45 79.78 42.45 79.78 42.45
C79.78 42.45 79.78 42.45 79.78 42.45
C79.99 42.45 80.16 42.55 80.31 42.76
C80.47 42.99 80.55 43.30 80.55 43.68
C80.55 44.09 80.46 44.43 80.28 44.68
C80.12 44.91 79.94 45.03 79.72 45.03
C79.72 45.03 79.72 45.03 79.72 45.03
C79.72 45.03 79.72 45.03 79.72 45.03
C79.53 45.03 79.37 44.94 79.25 44.75
C79.11 44.53 79.01 44.20 78.96 43.76
L78.94 43.61
L78.79 43.64
L78.21 43.75
L78.09 43.78
L78.10 43.90
C78.14 44.54 78.31 45.05 78.60 45.44
C78.91 45.84 79.28 46.04 79.73 46.04
C80.21 46.04 80.61 45.81 80.95 45.36
C81.28 44.92 81.44 44.35 81.44 43.67
C81.44 43.35 81.40 43.05 81.32 42.79
C81.24 42.52 81.13 42.31 81.00 42.15
C80.91 42.04 80.81 41.95 80.69 41.88
L80.69 41.88
C80.83 41.74 80.94 41.58 81.03 41.39
C81.15 41.12 81.21 40.81 81.21 40.47
C81.21 39.90 81.07 39.44 80.79 39.06
C80.49 38.67 80.13 38.48 79.71 38.48
Z
" fill="white" fill-rule="nonzero" />
<path d="
M151.23 41.93
C151.49 41.93 151.70 42.07 151.88 42.34
C152.05 42.62 152.14 43.02 152.14 43.52
C152.14 44.04 152.05 44.44 151.88 44.73
C151.70 45.03 151.50 45.18 151.27 45.18
C151.01 45.18 150.79 45.02 150.59 44.71
C150.40 44.40 150.30 43.98 150.30 43.47
C150.30 42.99 150.40 42.62 150.58 42.34
C150.77 42.07 150.98 41.93 151.23 41.93
Z
M147.83 38.62
C147.73 38.93 147.56 39.25 147.32 39.58
C147.07 39.91 146.79 40.18 146.48 40.41
L146.48 41.26
C146.67 41.15 146.87 41.00 147.09 40.80
C147.32 40.59 147.49 40.40 147.63 40.20
L147.63 45.77
L148.20 45.77
L148.20 38.62
Z
M151.32 38.62
C150.83 38.62 150.43 38.92 150.11 39.50
C149.80 40.08 149.64 41.07 149.64 42.44
C149.64 43.68 149.80 44.57 150.10 45.10
C150.41 45.63 150.80 45.90 151.27 45.90
C151.53 45.90 151.77 45.80 151.99 45.62
C152.20 45.43 152.38 45.15 152.52 44.76
C152.66 44.37 152.73 43.94 152.73 43.47
C152.73 42.76 152.59 42.20 152.31 41.78
C152.04 41.36 151.72 41.15 151.34 41.15
C151.12 41.15 150.91 41.23 150.71 41.39
C150.51 41.56 150.35 41.79 150.21 42.10
C150.22 41.23 150.30 40.57 150.48 40.12
C150.68 39.60 150.95 39.34 151.28 39.34
C151.50 39.34 151.68 39.46 151.83 39.68
C151.94 39.84 152.02 40.10 152.08 40.46
L152.65 40.40
C152.59 39.82 152.45 39.38 152.21 39.08
C151.97 38.77 151.67 38.62 151.32 38.62
Z
" fill="black" fill-rule="nonzero" />
<path d="
M161.32 30.03
C161.64 30.03 161.90 30.16 162.12 30.44
C162.34 30.71 162.45 31.10 162.45 31.60
C162.45 32.11 162.34 32.51 162.12 32.80
C161.90 33.09 161.65 33.24 161.37 33.24
C161.06 33.24 160.78 33.08 160.54 32.77
C160.30 32.46 160.18 32.06 160.18 31.55
C160.18 31.08 160.29 30.71 160.52 30.44
C160.75 30.16 161.02 30.03 161.32 30.03
Z
M161.43 26.76
C160.83 26.76 160.33 27.05 159.94 27.63
C159.56 28.21 159.36 29.17 159.36 30.53
C159.36 31.76 159.55 32.63 159.93 33.16
C160.31 33.68 160.79 33.95 161.37 33.95
C161.69 33.95 161.99 33.86 162.26 33.67
C162.52 33.49 162.74 33.21 162.92 32.83
C163.09 32.44 163.17 32.02 163.17 31.55
C163.17 30.85 163.00 30.30 162.66 29.88
C162.32 29.47 161.92 29.26 161.46 29.26
C161.19 29.26 160.93 29.34 160.68 29.50
C160.43 29.66 160.23 29.89 160.07 30.20
C160.07 29.33 160.18 28.68 160.39 28.24
C160.64 27.73 160.97 27.47 161.39 27.47
C161.65 27.47 161.88 27.58 162.07 27.81
C162.20 27.96 162.30 28.22 162.37 28.58
L163.07 28.51
C163.01 27.94 162.83 27.51 162.53 27.21
C162.24 26.91 161.87 26.76 161.43 26.76
Z
" fill="black" fill-rule="nonzero" />
<path d="
M162.53 41.14
L162.53 41.14
L162.53 41.14
C162.53 41.14 162.53 41.14 162.53 41.14
Z
M159.63 38.48
L159.60 38.58
C159.50 38.88 159.34 39.18 159.11 39.50
C158.87 39.81 158.61 40.08 158.30 40.30
L158.24 40.34
L158.24 40.41
L158.24 41.26
L158.24 41.50
L158.45 41.38
C158.65 41.27 158.86 41.11 159.09 40.90
C159.20 40.80 159.30 40.71 159.39 40.61
L159.39 40.61
L159.39 45.77
L159.39 45.92
L160.25 45.92
L160.25 45.77
L160.25 38.62
L160.25 38.48
Z
M162.01 38.61
L161.99 38.73
L161.54 42.39
L161.52 42.52
L161.65 42.55
L162.19 42.65
L162.30 42.68
L162.35 42.57
C162.43 42.37 162.53 42.22 162.66 42.12
C162.79 42.02 162.92 41.97 163.06 41.97
C163.06 41.97 163.06 41.97 163.06 41.97
C163.06 41.97 163.07 41.97 163.07 41.97
C163.30 41.97 163.50 42.09 163.66 42.32
C163.84 42.58 163.93 42.95 163.92 43.43
C163.92 43.94 163.83 44.34 163.65 44.63
C163.48 44.90 163.29 45.04 163.07 45.04
C163.07 45.04 163.07 45.04 163.07 45.04
C163.07 45.04 163.07 45.04 163.06 45.04
C162.90 45.04 162.74 44.94 162.61 44.76
C162.46 44.56 162.36 44.24 162.32 43.82
L162.30 43.67
L162.16 43.69
L161.56 43.77
L161.43 43.79
L161.43 43.92
C161.47 44.57 161.64 45.08 161.94 45.46
C162.25 45.84 162.63 46.04 163.08 46.04
C163.62 46.04 164.04 45.76 164.36 45.22
C164.66 44.70 164.81 44.08 164.81 43.36
C164.81 42.62 164.66 42.04 164.36 41.60
C164.04 41.14 163.66 40.91 163.22 40.91
C162.98 40.91 162.75 40.99 162.53 41.14
L162.53 41.14
L162.71 39.73
L164.59 39.73
L164.59 39.59
L164.59 38.75
L164.59 38.61
Z
" fill="white" fill-rule="nonzero" />
<path d="
M159.63 50.45
L159.60 50.55
C159.50 50.84 159.34 51.15 159.11 51.46
C158.87 51.78 158.61 52.04 158.30 52.26
L158.24 52.30
L158.24 52.38
L158.24 53.22
L158.24 53.46
L158.45 53.35
C158.65 53.24 158.86 53.08 159.09 52.87
C159.20 52.77 159.30 52.67 159.39 52.57
L159.39 52.57
L159.39 57.74
L159.39 57.88
L160.25 57.88
L160.25 57.74
L160.25 50.59
L160.25 50.45
Z
M161.47 50.57
L161.47 50.71
L161.47 51.55
L161.47 51.69
L163.66 51.69
C163.41 52.16 163.17 52.71 162.95 53.34
C162.70 54.07 162.50 54.83 162.35 55.63
C162.21 56.43 162.13 57.14 162.13 57.74
L162.12 57.88
L162.86 57.88
L162.99 57.88
L163.00 57.75
C163.05 56.61 163.25 55.45 163.58 54.29
C163.92 53.13 164.31 52.19 164.76 51.47
L164.78 51.43
L164.78 51.39
L164.78 50.71
L164.78 50.57
Z
" fill="white" fill-rule="nonzero" />
<path d="
M175.01 27.44
C175.22 27.44 175.40 27.54 175.55 27.75
C175.70 27.97 175.78 28.24 175.78 28.57
C175.78 28.90 175.70 29.16 175.56 29.37
C175.41 29.57 175.23 29.67 175.02 29.67
C174.80 29.67 174.62 29.57 174.48 29.36
C174.33 29.15 174.25 28.87 174.25 28.52
C174.25 28.21 174.33 27.95 174.48 27.75
C174.63 27.54 174.80 27.44 175.01 27.44
Z
M175.00 30.39
C175.27 30.39 175.50 30.52 175.68 30.79
C175.87 31.05 175.97 31.41 175.97 31.84
C175.97 32.28 175.88 32.62 175.69 32.88
C175.51 33.14 175.28 33.27 175.02 33.27
C174.76 33.27 174.53 33.14 174.35 32.87
C174.16 32.60 174.06 32.25 174.06 31.81
C174.06 31.39 174.15 31.05 174.34 30.78
C174.52 30.52 174.74 30.39 175.00 30.39
Z
M171.64 26.72
C171.54 27.03 171.37 27.35 171.13 27.67
C170.89 28.00 170.61 28.28 170.29 28.51
L170.29 29.35
C170.48 29.25 170.68 29.09 170.90 28.89
C171.13 28.69 171.30 28.49 171.44 28.30
L171.44 33.87
L172.01 33.87
L172.01 26.72
Z
M175.01 26.72
C174.62 26.72 174.30 26.89 174.05 27.23
C173.79 27.57 173.66 28.01 173.66 28.55
C173.66 28.91 173.72 29.21 173.84 29.45
C173.96 29.69 174.13 29.88 174.36 30.01
C174.09 30.12 173.87 30.33 173.71 30.64
C173.56 30.95 173.48 31.34 173.48 31.81
C173.48 32.47 173.62 32.99 173.92 33.39
C174.21 33.79 174.58 33.99 175.02 33.99
C175.46 33.99 175.82 33.79 176.11 33.39
C176.41 32.99 176.56 32.47 176.56 31.84
C176.56 31.38 176.48 30.99 176.33 30.68
C176.18 30.37 175.96 30.15 175.68 30.01
C175.91 29.87 176.08 29.69 176.19 29.45
C176.31 29.21 176.36 28.92 176.36 28.58
C176.36 28.03 176.24 27.58 175.98 27.24
C175.72 26.89 175.40 26.72 175.01 26.72
Z
" fill="black" fill-rule="nonzero" />
<path d="
M171.42 74.26
C170.93 74.26 170.54 74.45 170.25 74.83
C169.96 75.20 169.80 75.74 169.75 76.45
L169.74 76.58
L169.87 76.60
L170.46 76.69
L170.63 76.72
L170.63 76.55
C170.63 76.12 170.70 75.80 170.86 75.57
C171.00 75.37 171.18 75.27 171.39 75.27
C171.39 75.27 171.40 75.27 171.40 75.27
C171.40 75.27 171.40 75.27 171.40 75.27
C171.60 75.27 171.77 75.36 171.91 75.55
C172.06 75.75 172.14 76.02 172.14 76.35
C172.14 76.65 172.06 76.97 171.90 77.31
C171.74 77.67 171.40 78.17 170.87 78.83
C170.40 79.41 170.08 79.92 169.90 80.36
C169.72 80.80 169.63 81.20 169.64 81.56
L169.65 81.69
L173.02 81.69
L173.02 81.55
L173.02 80.71
L173.02 80.57
L170.80 80.57
C170.84 80.48 170.89 80.40 170.94 80.31
C171.04 80.16 171.26 79.86 171.60 79.43
C172.14 78.73 172.51 78.16 172.71 77.74
C172.91 77.30 173.01 76.85 173.01 76.37
C173.01 75.83 172.88 75.35 172.62 74.93
C172.35 74.48 171.95 74.26 171.42 74.26
Z
M173.38 74.38
L173.38 74.52
L173.38 75.36
L173.38 75.50
L175.56 75.50
C175.31 75.97 175.08 76.52 174.86 77.15
C174.60 77.88 174.41 78.64 174.26 79.44
C174.12 80.24 174.04 80.95 174.03 81.55
L174.03 81.69
L174.76 81.69
L174.90 81.69
L174.90 81.56
C174.96 80.42 175.15 79.26 175.49 78.10
C175.83 76.94 176.22 76.00 176.66 75.28
L176.69 75.24
L176.69 75.20
L176.69 74.52
L176.69 74.38
Z
" fill="white" fill-rule="nonzero" />
<path d="
M175.02 87.11
C175.02 87.11 175.02 87.11 175.02 87.11
C175.02 87.11 175.02 87.11 175.02 87.11
C175.21 87.11 175.37 87.23 175.53 87.48
C175.69 87.75 175.78 88.12 175.78 88.61
C175.78 89.09 175.70 89.46 175.53 89.72
C175.39 89.95 175.21 90.07 175.01 90.07
C175.01 90.07 175.01 90.07 175.01 90.07
C175.01 90.07 175.01 90.07 175.00 90.07
C174.80 90.07 174.62 89.95 174.47 89.72
C174.30 89.46 174.21 89.12 174.21 88.68
C174.21 88.19 174.30 87.80 174.48 87.51
C174.64 87.24 174.82 87.11 175.02 87.11
Z
M171.42 86.10
C170.93 86.10 170.54 86.30 170.25 86.68
C169.96 87.04 169.80 87.58 169.75 88.30
L169.74 88.43
L169.87 88.45
L170.46 88.54
L170.63 88.56
L170.63 88.40
C170.63 87.97 170.70 87.64 170.86 87.42
C171.00 87.21 171.18 87.11 171.39 87.11
C171.39 87.11 171.40 87.11 171.40 87.11
C171.40 87.11 171.40 87.11 171.40 87.11
C171.60 87.11 171.77 87.21 171.91 87.40
C172.06 87.60 172.14 87.87 172.14 88.20
C172.14 88.49 172.06 88.81 171.90 89.16
C171.74 89.51 171.40 90.02 170.87 90.67
C170.40 91.26 170.08 91.77 169.90 92.20
C169.72 92.64 169.63 93.04 169.64 93.40
L169.65 93.54
L173.02 93.54
L173.02 93.40
L173.02 92.56
L173.02 92.41
L170.80 92.41
C170.84 92.33 170.89 92.24 170.94 92.16
C171.04 92.00 171.26 91.71 171.60 91.27
C172.14 90.57 172.51 90.01 172.71 89.58
C172.91 89.15 173.01 88.69 173.01 88.22
C173.01 87.68 172.88 87.20 172.62 86.77
C172.35 86.33 171.95 86.10 171.42 86.10
Z
M174.95 86.10
C174.49 86.10 174.11 86.34 173.79 86.81
C173.49 87.26 173.34 87.88 173.34 88.65
C173.34 89.40 173.48 90.00 173.78 90.44
C174.08 90.89 174.45 91.12 174.88 91.12
C175.12 91.12 175.36 91.03 175.59 90.84
C175.68 90.77 175.76 90.68 175.83 90.59
L175.83 90.59
C175.81 90.98 175.76 91.33 175.68 91.65
C175.58 92.04 175.46 92.31 175.32 92.46
C175.19 92.59 175.05 92.66 174.90 92.66
C174.90 92.66 174.90 92.66 174.90 92.66
C174.89 92.66 174.89 92.66 174.89 92.66
C174.73 92.66 174.60 92.58 174.50 92.44
C174.38 92.27 174.30 92.01 174.26 91.66
L174.24 91.51
L174.10 91.53
L173.55 91.61
L173.41 91.63
L173.42 91.76
C173.47 92.36 173.63 92.83 173.88 93.15
C174.15 93.49 174.48 93.66 174.88 93.66
C175.24 93.66 175.55 93.52 175.83 93.24
C176.10 92.98 176.32 92.56 176.47 92.00
C176.62 91.44 176.70 90.67 176.70 89.68
C176.70 88.79 176.63 88.10 176.48 87.62
C176.34 87.13 176.13 86.76 175.86 86.50
C175.58 86.24 175.28 86.10 174.95 86.10
Z
" fill="white" fill-rule="nonzero" />
<path d="
M186.95 14.81
C186.51 14.81 186.16 14.98 185.89 15.33
C185.63 15.67 185.47 16.19 185.43 16.87
L186.02 16.96
C186.02 16.50 186.11 16.15 186.28 15.90
C186.45 15.66 186.67 15.53 186.93 15.53
C187.18 15.53 187.39 15.65 187.56 15.88
C187.73 16.10 187.82 16.40 187.82 16.76
C187.82 17.08 187.73 17.42 187.57 17.78
C187.40 18.14 187.05 18.66 186.51 19.33
C186.05 19.90 185.74 20.40 185.57 20.82
C185.39 21.24 185.31 21.62 185.32 21.96
L188.41 21.96
L188.41 21.12
L186.12 21.12
C186.18 20.96 186.26 20.80 186.36 20.64
C186.46 20.49 186.68 20.19 187.02 19.75
C187.56 19.06 187.92 18.50 188.11 18.09
C188.31 17.67 188.40 17.24 188.40 16.78
C188.40 16.27 188.28 15.81 188.03 15.41
C187.79 15.01 187.43 14.81 186.95 14.81
Z
M183.23 14.81
C182.87 14.81 182.56 14.97 182.31 15.28
C182.05 15.59 181.89 16.05 181.82 16.66
L182.39 16.81
C182.43 16.38 182.53 16.06 182.68 15.85
C182.83 15.63 183.02 15.53 183.24 15.53
C183.45 15.53 183.63 15.63 183.78 15.83
C183.92 16.03 184.00 16.30 184.00 16.64
C184.00 17.00 183.91 17.29 183.73 17.51
C183.56 17.72 183.33 17.83 183.05 17.83
L182.96 17.82
L182.89 18.59
C183.05 18.52 183.19 18.49 183.30 18.49
C183.55 18.49 183.77 18.62 183.94 18.87
C184.12 19.12 184.21 19.46 184.21 19.87
C184.21 20.31 184.11 20.67 183.92 20.95
C183.73 21.23 183.50 21.36 183.24 21.36
C182.76 21.36 182.45 20.90 182.34 19.96
L181.76 20.08
C181.80 20.69 181.96 21.18 182.23 21.54
C182.51 21.91 182.85 22.09 183.25 22.09
C183.68 22.09 184.05 21.88 184.36 21.46
C184.66 21.05 184.82 20.51 184.82 19.86
C184.82 19.55 184.78 19.27 184.71 19.02
C184.63 18.77 184.53 18.57 184.41 18.42
C184.29 18.28 184.13 18.17 183.95 18.10
C184.15 17.96 184.31 17.77 184.42 17.52
C184.53 17.27 184.59 16.98 184.59 16.66
C184.59 16.12 184.46 15.68 184.19 15.33
C183.93 14.98 183.61 14.81 183.23 14.81
Z
" fill="black" fill-rule="nonzero" />
<path d="
M186.92 27.58
C186.92 27.58 186.92 27.58 186.93 27.58
C186.93 27.58 186.93 27.58 186.93 27.58
C187.11 27.58 187.28 27.71 187.43 27.95
C187.60 28.22 187.68 28.60 187.68 29.08
C187.68 29.56 187.60 29.93 187.44 30.19
C187.29 30.42 187.12 30.54 186.92 30.54
C186.92 30.54 186.91 30.54 186.91 30.54
C186.91 30.54 186.91 30.54 186.91 30.54
C186.71 30.54 186.53 30.42 186.37 30.19
C186.20 29.94 186.12 29.59 186.12 29.15
C186.12 28.66 186.21 28.27 186.39 27.98
C186.55 27.72 186.73 27.58 186.92 27.58
Z
M183.44 26.58
L183.41 26.67
C183.32 26.97 183.15 27.28 182.92 27.59
C182.69 27.91 182.42 28.17 182.11 28.39
L182.05 28.43
L182.05 28.51
L182.05 29.35
L182.05 29.59
L182.26 29.47
C182.46 29.37 182.67 29.21 182.90 29.00
C183.01 28.90 183.11 28.80 183.20 28.70
L183.20 28.70
L183.20 33.87
L183.20 34.01
L184.06 34.01
L184.06 33.87
L184.06 26.72
L184.06 26.58
Z
M186.86 26.58
C186.40 26.58 186.01 26.81 185.70 27.28
C185.40 27.74 185.24 28.35 185.24 29.12
C185.24 29.87 185.39 30.47 185.68 30.91
C185.99 31.37 186.35 31.59 186.79 31.60
C187.03 31.60 187.27 31.50 187.49 31.31
C187.58 31.24 187.66 31.15 187.73 31.06
L187.73 31.06
C187.72 31.45 187.67 31.81 187.58 32.12
C187.48 32.51 187.36 32.78 187.22 32.93
C187.09 33.06 186.95 33.13 186.80 33.13
C186.80 33.13 186.80 33.13 186.80 33.13
C186.80 33.13 186.80 33.13 186.80 33.13
C186.63 33.13 186.50 33.06 186.40 32.91
C186.28 32.74 186.21 32.48 186.16 32.13
L186.15 31.98
L186.00 32.00
L185.45 32.08
L185.32 32.10
L185.33 32.23
C185.38 32.84 185.53 33.30 185.79 33.62
C186.06 33.96 186.39 34.13 186.79 34.13
C187.14 34.13 187.46 33.99 187.74 33.72
C188.01 33.45 188.22 33.03 188.38 32.47
C188.53 31.92 188.60 31.14 188.60 30.15
C188.60 29.26 188.53 28.58 188.39 28.10
C188.25 27.61 188.04 27.23 187.77 26.97
C187.49 26.71 187.19 26.58 186.86 26.58
Z
" fill="white" fill-rule="nonzero" />
<path d="
M185.32 38.59
L185.28 38.67
C185.17 38.97 184.97 39.27 184.68 39.58
C184.39 39.89 184.06 40.15 183.68 40.37
L183.61 40.41
L183.61 40.49
L183.61 41.33
L183.61 41.55
L183.81 41.46
C184.05 41.35 184.31 41.20 184.59 40.99
C184.75 40.87 184.90 40.75 185.02 40.64
L185.02 40.64
L185.02 45.79
L185.02 45.93
L186.02 45.93
L186.02 45.79
L186.02 38.73
L186.02 38.59
Z
" fill="white" fill-rule="nonzero" />
<path d="
M183.32 62.29
C182.84 62.29 182.45 62.48 182.15 62.86
C181.87 63.23 181.70 63.77 181.66 64.48
L181.65 64.61
L181.78 64.63
L182.37 64.72
L182.53 64.75
L182.53 64.58
C182.53 64.15 182.61 63.83 182.76 63.61
C182.90 63.40 183.08 63.30 183.30 63.30
C183.30 63.30 183.30 63.30 183.30 63.30
C183.30 63.30 183.31 63.30 183.31 63.30
C183.51 63.30 183.68 63.39 183.82 63.58
C183.97 63.79 184.04 64.05 184.04 64.38
C184.04 64.68 183.96 65.00 183.81 65.34
C183.65 65.70 183.30 66.20 182.77 66.86
C182.31 67.45 181.98 67.95 181.81 68.39
C181.63 68.83 181.54 69.23 181.55 69.59
L181.55 69.72
L184.92 69.72
L184.92 69.58
L184.92 68.74
L184.92 68.60
L182.70 68.60
C182.75 68.51 182.80 68.43 182.85 68.34
C182.95 68.19 183.17 67.89 183.50 67.46
C184.05 66.76 184.42 66.19 184.61 65.77
C184.81 65.33 184.91 64.88 184.91 64.40
C184.91 63.87 184.78 63.38 184.53 62.96
C184.25 62.51 183.85 62.29 183.32 62.29
Z
M186.86 62.29
C186.45 62.29 186.11 62.46 185.83 62.81
C185.56 63.14 185.38 63.62 185.31 64.26
L185.29 64.38
L185.41 64.41
L185.98 64.57
L186.14 64.61
L186.16 64.45
C186.20 64.04 186.29 63.74 186.42 63.55
C186.55 63.38 186.69 63.29 186.86 63.29
C186.86 63.29 186.87 63.29 186.87 63.29
C186.87 63.29 186.87 63.29 186.87 63.29
C187.03 63.29 187.17 63.37 187.29 63.54
C187.42 63.72 187.49 63.96 187.49 64.26
C187.49 64.59 187.41 64.85 187.25 65.04
C187.11 65.22 186.92 65.31 186.68 65.31
L186.68 65.31
L186.60 65.30
L186.46 65.29
L186.45 65.43
L186.38 66.20
L186.36 66.43
L186.57 66.34
C186.72 66.29 186.83 66.26 186.93 66.26
C186.93 66.26 186.93 66.26 186.93 66.26
C186.93 66.26 186.93 66.26 186.93 66.26
C187.14 66.26 187.31 66.36 187.46 66.57
C187.62 66.80 187.70 67.11 187.70 67.49
C187.70 67.91 187.61 68.24 187.43 68.49
C187.27 68.73 187.09 68.84 186.87 68.84
C186.87 68.84 186.87 68.84 186.87 68.84
C186.87 68.84 186.87 68.84 186.87 68.84
C186.68 68.84 186.52 68.75 186.40 68.56
C186.26 68.34 186.16 68.01 186.11 67.57
L186.09 67.42
L185.94 67.45
L185.36 67.56
L185.24 67.59
L185.25 67.71
C185.29 68.35 185.46 68.87 185.75 69.25
C186.06 69.65 186.43 69.85 186.88 69.85
C187.36 69.85 187.76 69.62 188.10 69.17
C188.43 68.73 188.59 68.16 188.59 67.48
C188.59 67.16 188.55 66.87 188.47 66.60
C188.39 66.34 188.28 66.12 188.15 65.96
C188.06 65.85 187.96 65.76 187.84 65.69
L187.84 65.69
C187.98 65.56 188.09 65.39 188.18 65.20
C188.30 64.93 188.36 64.62 188.36 64.28
C188.36 63.72 188.22 63.25 187.94 62.87
C187.64 62.48 187.28 62.29 186.86 62.29
Z
" fill="white" fill-rule="nonzero" />
<path d="
M186.89 75.06
C187.17 75.06 187.40 75.26 187.58 75.65
C187.75 76.04 187.84 76.82 187.84 77.98
C187.84 79.13 187.75 79.90 187.58 80.30
C187.40 80.69 187.18 80.89 186.92 80.89
C186.64 80.89 186.42 80.70 186.24 80.30
C186.06 79.91 185.97 79.13 185.97 77.98
C185.97 76.83 186.06 76.06 186.24 75.66
C186.41 75.26 186.63 75.06 186.89 75.06
Z
M183.32 74.34
C182.88 74.34 182.53 74.51 182.26 74.86
C182.00 75.20 181.84 75.72 181.80 76.40
L182.39 76.49
C182.39 76.03 182.48 75.68 182.65 75.43
C182.82 75.19 183.04 75.06 183.30 75.06
C183.55 75.06 183.76 75.18 183.93 75.41
C184.10 75.63 184.19 75.93 184.19 76.29
C184.19 76.61 184.10 76.95 183.94 77.31
C183.77 77.67 183.42 78.19 182.88 78.86
C182.42 79.43 182.11 79.93 181.94 80.35
C181.76 80.77 181.68 81.15 181.69 81.49
L184.78 81.49
L184.78 80.65
L182.49 80.65
C182.55 80.49 182.63 80.33 182.73 80.17
C182.83 80.02 183.05 79.72 183.39 79.28
C183.93 78.59 184.29 78.03 184.48 77.62
C184.68 77.20 184.77 76.77 184.77 76.31
C184.77 75.80 184.65 75.34 184.40 74.94
C184.16 74.54 183.80 74.34 183.32 74.34
Z
M186.91 74.34
C186.41 74.34 186.03 74.65 185.77 75.26
C185.52 75.88 185.39 76.78 185.39 77.98
C185.39 79.31 185.53 80.25 185.81 80.80
C186.10 81.34 186.46 81.61 186.91 81.61
C187.41 81.61 187.79 81.30 188.05 80.69
C188.31 80.07 188.43 79.17 188.43 77.98
C188.43 76.65 188.28 75.69 187.97 75.09
C187.71 74.59 187.36 74.34 186.91 74.34
Z
" fill="black" fill-rule="nonzero" />
<path d="
M186.92 86.96
C187.12 86.96 187.30 87.07 187.46 87.28
C187.61 87.49 187.68 87.77 187.68 88.10
C187.68 88.42 187.61 88.69 187.46 88.89
C187.31 89.10 187.14 89.20 186.93 89.20
C186.71 89.20 186.53 89.10 186.38 88.89
C186.23 88.68 186.16 88.40 186.16 88.05
C186.16 87.74 186.23 87.48 186.38 87.28
C186.53 87.07 186.71 86.96 186.92 86.96
Z
M186.91 89.91
C187.17 89.91 187.40 90.05 187.59 90.31
C187.78 90.58 187.87 90.93 187.87 91.37
C187.87 91.80 187.78 92.15 187.60 92.41
C187.41 92.67 187.19 92.80 186.93 92.80
C186.66 92.80 186.44 92.67 186.25 92.40
C186.06 92.13 185.97 91.78 185.97 91.34
C185.97 90.92 186.06 90.58 186.24 90.31
C186.43 90.05 186.65 89.91 186.91 89.91
Z
M183.32 86.25
C182.88 86.25 182.53 86.42 182.26 86.76
C182.00 87.11 181.84 87.62 181.80 88.31
L182.39 88.40
C182.39 87.94 182.48 87.58 182.65 87.34
C182.82 87.09 183.04 86.97 183.30 86.97
C183.55 86.97 183.76 87.08 183.93 87.31
C184.10 87.54 184.19 87.84 184.19 88.20
C184.19 88.51 184.10 88.85 183.94 89.22
C183.77 89.58 183.42 90.10 182.88 90.76
C182.42 91.34 182.11 91.83 181.94 92.25
C181.76 92.68 181.68 93.06 181.69 93.40
L184.78 93.40
L184.78 92.56
L182.49 92.56
C182.55 92.40 182.63 92.24 182.73 92.08
C182.83 91.92 183.05 91.62 183.39 91.19
C183.93 90.49 184.29 89.94 184.48 89.52
C184.68 89.11 184.77 88.67 184.77 88.22
C184.77 87.71 184.65 87.25 184.40 86.85
C184.16 86.45 183.80 86.25 183.32 86.25
Z
M186.91 86.25
C186.53 86.25 186.21 86.42 185.95 86.76
C185.70 87.10 185.57 87.54 185.57 88.08
C185.57 88.44 185.63 88.74 185.75 88.98
C185.86 89.22 186.04 89.40 186.27 89.53
C185.99 89.64 185.77 89.85 185.62 90.16
C185.46 90.47 185.38 90.87 185.38 91.34
C185.38 91.99 185.53 92.52 185.82 92.92
C186.12 93.32 186.48 93.52 186.93 93.52
C187.36 93.52 187.73 93.32 188.02 92.92
C188.31 92.52 188.46 92.00 188.46 91.37
C188.46 90.91 188.38 90.52 188.23 90.21
C188.08 89.90 187.86 89.67 187.58 89.53
C187.81 89.40 187.99 89.22 188.10 88.98
C188.21 88.74 188.27 88.45 188.27 88.11
C188.27 87.56 188.14 87.11 187.88 86.76
C187.63 86.42 187.30 86.25 186.91 86.25
Z
" fill="black" fill-rule="nonzero" />
<path d="
M184.34 124.46
L184.34 124.46
L184.34 124.46
C184.34 124.46 184.34 124.46 184.34 124.46
Z
M183.77 121.93
L183.75 122.05
L183.19 125.66
L183.17 125.80
L183.31 125.82
L183.98 125.93
L184.08 125.94
L184.12 125.85
C184.22 125.66 184.35 125.51 184.52 125.41
C184.68 125.30 184.86 125.25 185.04 125.25
C185.04 125.25 185.04 125.25 185.04 125.25
C185.05 125.25 185.05 125.25 185.05 125.25
C185.36 125.25 185.62 125.37 185.82 125.61
C186.04 125.86 186.14 126.22 186.14 126.69
C186.14 127.19 186.03 127.58 185.81 127.87
C185.59 128.14 185.34 128.28 185.05 128.28
C185.05 128.28 185.05 128.28 185.05 128.28
C185.05 128.28 185.05 128.28 185.05 128.28
C184.82 128.28 184.62 128.18 184.45 127.99
C184.26 127.80 184.14 127.49 184.09 127.07
L184.07 126.93
L183.94 126.95
L183.19 127.02
L183.05 127.04
L183.06 127.18
C183.12 127.83 183.33 128.34 183.69 128.71
C184.07 129.08 184.52 129.27 185.06 129.27
C185.71 129.27 186.23 129.00 186.61 128.47
C186.99 127.96 187.17 127.34 187.17 126.62
C187.17 125.89 186.98 125.30 186.60 124.87
C186.22 124.42 185.76 124.20 185.24 124.20
C184.92 124.20 184.63 124.29 184.34 124.46
L184.34 124.46
L184.58 123.04
L186.90 123.04
L186.90 122.89
L186.90 122.07
L186.90 121.93
Z
" fill="white" fill-rule="nonzero" />
<path d="
M185.03 193.29
C184.54 193.29 184.13 193.46 183.79 193.80
C183.45 194.13 183.24 194.61 183.14 195.24
L183.12 195.37
L183.25 195.40
L183.96 195.55
L184.11 195.59
L184.13 195.43
C184.18 195.03 184.28 194.74 184.45 194.56
C184.61 194.38 184.80 194.29 185.03 194.29
C185.03 194.29 185.03 194.29 185.03 194.29
C185.04 194.29 185.04 194.29 185.04 194.29
C185.26 194.29 185.44 194.37 185.60 194.54
C185.76 194.71 185.83 194.95 185.83 195.24
C185.83 195.56 185.74 195.81 185.55 196.00
C185.36 196.19 185.11 196.28 184.81 196.28
L184.81 196.28
L184.70 196.27
L184.56 196.26
L184.55 196.40
L184.47 197.16
L184.44 197.37
L184.65 197.31
C184.84 197.25 184.99 197.22 185.11 197.22
C185.11 197.22 185.11 197.22 185.11 197.22
C185.11 197.22 185.11 197.22 185.11 197.22
C185.38 197.22 185.61 197.32 185.80 197.54
C186.00 197.76 186.09 198.06 186.09 198.44
C186.09 198.84 185.99 199.16 185.77 199.41
C185.56 199.65 185.32 199.77 185.04 199.77
C185.04 199.77 185.04 199.77 185.04 199.77
C185.04 199.77 185.04 199.77 185.04 199.77
C184.78 199.77 184.58 199.67 184.42 199.48
C184.25 199.27 184.13 198.94 184.06 198.51
L184.04 198.37
L183.90 198.39
L183.19 198.50
L183.06 198.52
L183.07 198.66
C183.12 199.29 183.33 199.80 183.69 200.19
C184.06 200.57 184.52 200.77 185.05 200.77
C185.62 200.77 186.11 200.55 186.52 200.11
C186.93 199.67 187.13 199.11 187.13 198.42
C187.13 198.10 187.08 197.81 186.98 197.55
C186.88 197.28 186.75 197.07 186.58 196.91
C186.48 196.80 186.36 196.72 186.22 196.65
L186.22 196.65
C186.38 196.52 186.51 196.36 186.62 196.18
C186.77 195.91 186.85 195.60 186.85 195.26
C186.85 194.70 186.67 194.23 186.32 193.86
C185.96 193.48 185.53 193.30 185.03 193.29
Z
" fill="white" fill-rule="nonzero" />
<path d="
M198.79 27.44
C199.07 27.44 199.30 27.64 199.48 28.03
C199.66 28.42 199.75 29.19 199.75 30.35
C199.75 31.50 199.66 32.27 199.48 32.67
C199.31 33.07 199.09 33.27 198.83 33.27
C198.55 33.27 198.32 33.07 198.14 32.68
C197.97 32.29 197.88 31.51 197.88 30.35
C197.88 29.21 197.97 28.44 198.14 28.04
C198.32 27.64 198.53 27.44 198.79 27.44
Z
M198.82 26.72
C198.32 26.72 197.94 27.02 197.68 27.64
C197.42 28.25 197.29 29.16 197.29 30.35
C197.29 31.69 197.43 32.63 197.72 33.17
C198.00 33.72 198.37 33.99 198.81 33.99
C199.32 33.99 199.70 33.68 199.95 33.06
C200.21 32.45 200.34 31.54 200.34 30.35
C200.34 29.03 200.18 28.07 199.87 27.46
C199.62 26.96 199.26 26.72 198.82 26.72
Z
M195.13 26.72
C194.77 26.72 194.47 26.87 194.21 27.18
C193.96 27.49 193.80 27.95 193.72 28.56
L194.30 28.72
C194.34 28.29 194.43 27.96 194.58 27.75
C194.74 27.54 194.92 27.43 195.14 27.43
C195.35 27.43 195.54 27.54 195.68 27.74
C195.83 27.94 195.90 28.21 195.90 28.54
C195.90 28.90 195.82 29.19 195.64 29.41
C195.46 29.63 195.23 29.74 194.95 29.74
L194.86 29.73
L194.80 30.49
C194.96 30.43 195.09 30.40 195.20 30.40
C195.46 30.40 195.67 30.52 195.85 30.78
C196.03 31.03 196.11 31.36 196.11 31.78
C196.11 32.22 196.02 32.58 195.83 32.85
C195.63 33.13 195.41 33.27 195.15 33.27
C194.66 33.27 194.36 32.80 194.24 31.87
L193.67 31.99
C193.70 32.60 193.86 33.09 194.14 33.45
C194.42 33.81 194.76 33.99 195.15 33.99
C195.58 33.99 195.95 33.78 196.26 33.37
C196.57 32.95 196.72 32.42 196.72 31.76
C196.72 31.46 196.69 31.18 196.61 30.93
C196.54 30.68 196.44 30.48 196.32 30.33
C196.19 30.18 196.04 30.07 195.85 30.01
C196.06 29.87 196.21 29.67 196.33 29.42
C196.44 29.17 196.50 28.89 196.50 28.56
C196.50 28.03 196.36 27.59 196.10 27.24
C195.83 26.89 195.51 26.72 195.13 26.72
Z
" fill="black" fill-rule="nonzero" />
<path d="
M198.98 38.48
L198.94 38.58
C198.85 38.87 198.69 39.18 198.45 39.49
C198.22 39.81 197.95 40.08 197.65 40.29
L197.59 40.34
L197.59 40.41
L197.59 41.25
L197.59 41.50
L197.80 41.38
C198.00 41.27 198.21 41.11 198.44 40.90
C198.55 40.80 198.65 40.70 198.74 40.61
L198.74 40.61
L198.74 45.77
L198.74 45.91
L199.59 45.91
L199.59 45.77
L199.59 38.62
L199.59 38.48
Z
M195.13 38.48
C194.73 38.48 194.39 38.65 194.10 39.00
C193.83 39.33 193.66 39.81 193.58 40.45
L193.57 40.57
L193.69 40.60
L194.26 40.76
L194.42 40.80
L194.44 40.64
C194.48 40.23 194.56 39.93 194.70 39.74
C194.82 39.57 194.97 39.48 195.14 39.48
C195.14 39.48 195.14 39.48 195.14 39.48
C195.14 39.48 195.14 39.48 195.15 39.48
C195.31 39.48 195.45 39.56 195.57 39.73
C195.70 39.90 195.76 40.14 195.76 40.45
C195.76 40.78 195.69 41.04 195.53 41.23
C195.38 41.41 195.19 41.50 194.96 41.50
L194.96 41.50
L194.88 41.49
L194.73 41.48
L194.72 41.62
L194.66 42.39
L194.64 42.62
L194.85 42.53
C194.99 42.47 195.11 42.45 195.20 42.45
C195.20 42.45 195.20 42.45 195.20 42.45
C195.20 42.45 195.20 42.45 195.20 42.45
C195.41 42.45 195.59 42.55 195.73 42.76
C195.89 42.99 195.97 43.30 195.97 43.68
C195.97 44.09 195.89 44.43 195.71 44.68
C195.55 44.91 195.36 45.03 195.15 45.03
C195.15 45.03 195.15 45.03 195.15 45.03
C195.15 45.03 195.14 45.03 195.14 45.03
C194.95 45.03 194.80 44.94 194.68 44.75
C194.54 44.53 194.44 44.20 194.38 43.76
L194.36 43.61
L194.21 43.64
L193.64 43.75
L193.52 43.78
L193.52 43.90
C193.56 44.54 193.73 45.05 194.03 45.44
C194.33 45.84 194.71 46.04 195.15 46.04
C195.63 46.04 196.04 45.81 196.38 45.36
C196.70 44.92 196.87 44.35 196.87 43.67
C196.87 43.35 196.83 43.05 196.75 42.79
C196.67 42.52 196.56 42.31 196.43 42.15
C196.34 42.04 196.23 41.95 196.12 41.88
L196.12 41.88
C196.25 41.74 196.37 41.58 196.46 41.39
C196.58 41.12 196.64 40.81 196.64 40.47
C196.64 39.90 196.49 39.44 196.21 39.06
C195.92 38.67 195.56 38.48 195.13 38.48
Z
" fill="white" fill-rule="nonzero" />
<path d="
M195.23 50.45
C194.74 50.45 194.35 50.64 194.06 51.02
C193.77 51.39 193.61 51.93 193.56 52.64
L193.56 52.77
L193.68 52.79
L194.27 52.88
L194.44 52.91
L194.44 52.74
C194.44 52.31 194.51 51.99 194.67 51.76
C194.81 51.56 194.99 51.45 195.20 51.45
C195.21 51.45 195.21 51.45 195.21 51.45
C195.21 51.45 195.21 51.45 195.21 51.45
C195.41 51.45 195.58 51.55 195.72 51.74
C195.87 51.94 195.95 52.21 195.95 52.54
C195.95 52.84 195.87 53.16 195.71 53.50
C195.55 53.86 195.21 54.36 194.68 55.02
C194.21 55.60 193.89 56.11 193.71 56.55
C193.53 56.98 193.45 57.38 193.45 57.74
L193.46 57.88
L196.83 57.88
L196.83 57.74
L196.83 56.90
L196.83 56.76
L194.61 56.76
C194.65 56.67 194.70 56.59 194.76 56.50
C194.85 56.35 195.07 56.05 195.41 55.62
C195.95 54.92 196.32 54.35 196.52 53.93
C196.72 53.49 196.82 53.04 196.82 52.56
C196.82 52.02 196.69 51.54 196.43 51.12
C196.16 50.67 195.76 50.45 195.23 50.45
Z
M198.98 50.45
L198.94 50.55
C198.85 50.84 198.69 51.15 198.45 51.46
C198.22 51.78 197.95 52.04 197.65 52.26
L197.59 52.30
L197.59 52.38
L197.59 53.22
L197.59 53.46
L197.80 53.35
C198.00 53.24 198.21 53.08 198.44 52.87
C198.55 52.77 198.65 52.67 198.74 52.57
L198.74 52.57
L198.74 57.74
L198.74 57.88
L199.59 57.88
L199.59 57.74
L199.59 50.59
L199.59 50.45
Z
" fill="white" fill-rule="nonzero" />
<path d="
M199.13 63.93
L199.13 67.14
L197.67 67.14
L199.13 63.93
Z
M195.45 62.49
C195.35 62.81 195.18 63.12 194.94 63.45
C194.70 63.78 194.42 64.06 194.10 64.28
L194.10 65.13
C194.29 65.02 194.49 64.87 194.71 64.67
C194.94 64.47 195.12 64.27 195.25 64.07
L195.25 69.65
L195.82 69.65
L195.82 62.49
Z
M199.24 62.52
L197.11 67.14
L197.11 67.94
L199.13 67.94
L199.13 69.65
L199.71 69.65
L199.71 67.94
L200.34 67.94
L200.34 67.14
L199.71 67.14
L199.71 62.52
Z
" fill="black" fill-rule="nonzero" />
<path d="
M210.76 30.02
C211.01 30.02 211.23 30.16 211.40 30.44
C211.58 30.72 211.67 31.11 211.67 31.61
C211.67 32.13 211.58 32.53 211.40 32.83
C211.23 33.12 211.02 33.27 210.80 33.27
C210.54 33.27 210.32 33.12 210.12 32.80
C209.93 32.49 209.83 32.08 209.83 31.56
C209.83 31.09 209.92 30.71 210.11 30.44
C210.29 30.16 210.51 30.02 210.76 30.02
Z
M207.13 26.72
C206.70 26.72 206.34 26.89 206.07 27.23
C205.81 27.58 205.65 28.09 205.61 28.78
L206.20 28.87
C206.20 28.41 206.29 28.06 206.46 27.81
C206.63 27.56 206.85 27.44 207.11 27.44
C207.36 27.44 207.57 27.56 207.74 27.78
C207.91 28.01 208.00 28.31 208.00 28.67
C208.00 28.98 207.91 29.32 207.75 29.69
C207.58 30.05 207.23 30.57 206.69 31.24
C206.24 31.81 205.92 32.31 205.75 32.73
C205.58 33.15 205.49 33.53 205.50 33.87
L208.59 33.87
L208.59 33.03
L206.30 33.03
C206.36 32.87 206.44 32.71 206.54 32.55
C206.64 32.39 206.86 32.10 207.20 31.66
C207.74 30.97 208.10 30.41 208.30 29.99
C208.49 29.58 208.58 29.14 208.58 28.69
C208.58 28.18 208.46 27.72 208.22 27.32
C207.97 26.92 207.61 26.72 207.13 26.72
Z
M210.85 26.72
C210.36 26.72 209.95 27.01 209.64 27.59
C209.33 28.18 209.17 29.16 209.17 30.54
C209.17 31.78 209.32 32.66 209.63 33.19
C209.93 33.72 210.32 33.99 210.79 33.99
C211.06 33.99 211.30 33.90 211.51 33.71
C211.73 33.53 211.91 33.24 212.05 32.86
C212.19 32.47 212.26 32.04 212.26 31.56
C212.26 30.86 212.12 30.30 211.84 29.88
C211.57 29.46 211.24 29.25 210.87 29.25
C210.65 29.25 210.44 29.33 210.24 29.49
C210.04 29.65 209.87 29.89 209.74 30.20
C209.74 29.32 209.83 28.66 210.01 28.21
C210.21 27.70 210.48 27.44 210.81 27.44
C211.03 27.44 211.21 27.55 211.36 27.78
C211.47 27.93 211.55 28.19 211.60 28.56
L212.17 28.49
C212.12 27.91 211.98 27.47 211.74 27.17
C211.50 26.87 211.20 26.72 210.85 26.72
Z
" fill="black" fill-rule="nonzero" />
<path d="
M210.15 41.14
L210.15 41.14
L210.15 41.14
C210.15 41.14 210.15 41.14 210.15 41.14
Z
M207.13 38.48
C206.65 38.48 206.26 38.67 205.96 39.05
C205.68 39.42 205.51 39.96 205.47 40.67
L205.46 40.80
L205.59 40.82
L206.18 40.92
L206.34 40.94
L206.34 40.78
C206.34 40.34 206.42 40.02 206.57 39.80
C206.71 39.59 206.89 39.49 207.11 39.49
C207.11 39.49 207.11 39.49 207.11 39.49
C207.12 39.49 207.12 39.49 207.12 39.49
C207.32 39.49 207.49 39.58 207.63 39.77
C207.78 39.98 207.85 40.24 207.85 40.58
C207.85 40.87 207.78 41.19 207.62 41.54
C207.46 41.89 207.11 42.39 206.58 43.05
C206.12 43.64 205.79 44.15 205.62 44.58
C205.44 45.02 205.35 45.42 205.36 45.78
L205.36 45.92
L208.73 45.92
L208.73 45.77
L208.73 44.93
L208.73 44.79
L206.52 44.79
C206.56 44.71 206.61 44.62 206.66 44.53
C206.76 44.38 206.98 44.08 207.31 43.65
C207.86 42.95 208.23 42.39 208.42 41.96
C208.62 41.52 208.72 41.07 208.72 40.60
C208.72 40.06 208.60 39.58 208.34 39.15
C208.06 38.71 207.66 38.48 207.13 38.48
Z
M209.63 38.61
L209.61 38.73
L209.16 42.39
L209.14 42.52
L209.27 42.55
L209.81 42.65
L209.93 42.68
L209.97 42.57
C210.05 42.37 210.15 42.22 210.29 42.12
C210.41 42.02 210.54 41.97 210.68 41.97
C210.68 41.97 210.69 41.97 210.69 41.97
C210.69 41.97 210.69 41.97 210.69 41.97
C210.93 41.97 211.12 42.09 211.29 42.32
C211.46 42.58 211.55 42.95 211.55 43.43
C211.55 43.94 211.46 44.34 211.27 44.63
C211.11 44.90 210.91 45.04 210.69 45.04
C210.69 45.04 210.69 45.04 210.69 45.04
C210.69 45.04 210.69 45.04 210.69 45.04
C210.52 45.04 210.37 44.94 210.23 44.76
C210.08 44.56 209.98 44.24 209.94 43.82
L209.93 43.67
L209.78 43.69
L209.18 43.77
L209.05 43.79
L209.06 43.92
C209.10 44.57 209.27 45.08 209.56 45.46
C209.87 45.84 210.25 46.04 210.70 46.04
C211.24 46.04 211.67 45.76 211.98 45.22
C212.29 44.70 212.44 44.08 212.44 43.36
C212.44 42.62 212.28 42.04 211.98 41.60
C211.66 41.14 211.28 40.91 210.84 40.91
C210.60 40.91 210.37 40.99 210.15 41.14
L210.15 41.14
L210.34 39.73
L212.22 39.73
L212.22 39.59
L212.22 38.75
L212.22 38.61
Z
" fill="white" fill-rule="nonzero" />
<path d="
M207.13 50.59
C206.70 50.59 206.34 50.76 206.07 51.11
C205.81 51.45 205.65 51.97 205.61 52.65
L206.20 52.74
C206.20 52.28 206.29 51.93 206.46 51.68
C206.63 51.44 206.85 51.31 207.11 51.31
C207.36 51.31 207.57 51.43 207.74 51.66
C207.91 51.88 208.00 52.18 208.00 52.54
C208.00 52.86 207.91 53.20 207.75 53.56
C207.58 53.92 207.23 54.44 206.69 55.11
C206.24 55.68 205.92 56.18 205.75 56.60
C205.58 57.02 205.49 57.40 205.50 57.74
L208.59 57.74
L208.59 56.90
L206.30 56.90
C206.36 56.74 206.44 56.58 206.54 56.42
C206.64 56.27 206.86 55.97 207.20 55.53
C207.74 54.84 208.10 54.28 208.30 53.87
C208.49 53.45 208.58 53.02 208.58 52.56
C208.58 52.05 208.46 51.59 208.22 51.19
C207.97 50.79 207.61 50.59 207.13 50.59
Z
M210.76 50.59
C210.33 50.59 209.97 50.76 209.70 51.11
C209.44 51.45 209.28 51.97 209.24 52.65
L209.83 52.74
C209.83 52.28 209.92 51.93 210.09 51.68
C210.26 51.44 210.48 51.31 210.74 51.31
C210.99 51.31 211.20 51.43 211.37 51.66
C211.54 51.88 211.63 52.18 211.63 52.54
C211.63 52.86 211.54 53.20 211.38 53.56
C211.21 53.92 210.86 54.44 210.32 55.11
C209.87 55.68 209.55 56.18 209.38 56.60
C209.21 57.02 209.12 57.40 209.13 57.74
L212.22 57.74
L212.22 56.90
L209.93 56.90
C209.99 56.74 210.07 56.58 210.17 56.42
C210.27 56.27 210.49 55.97 210.83 55.53
C211.37 54.84 211.73 54.28 211.93 53.87
C212.12 53.45 212.21 53.02 212.21 52.56
C212.21 52.05 212.09 51.59 211.85 51.19
C211.60 50.79 211.24 50.59 210.76 50.59
Z
" fill="black" fill-rule="nonzero" />
<path d="
M211.04 63.93
L211.04 67.14
L209.57 67.14
L211.04 63.93
Z
M207.13 62.49
C206.70 62.49 206.34 62.67 206.07 63.01
C205.81 63.36 205.65 63.87 205.61 64.55
L206.20 64.65
C206.20 64.19 206.29 63.83 206.46 63.59
C206.63 63.34 206.85 63.22 207.11 63.22
C207.36 63.22 207.57 63.33 207.74 63.56
C207.91 63.79 208.00 64.09 208.00 64.45
C208.00 64.76 207.91 65.10 207.75 65.47
C207.58 65.83 207.23 66.35 206.69 67.01
C206.24 67.59 205.92 68.08 205.75 68.50
C205.58 68.93 205.49 69.31 205.50 69.65
L208.59 69.65
L208.59 68.81
L206.30 68.81
C206.36 68.65 206.44 68.49 206.54 68.33
C206.64 68.17 206.86 67.87 207.20 67.44
C207.74 66.74 208.10 66.19 208.30 65.77
C208.49 65.36 208.58 64.92 208.58 64.47
C208.58 63.96 208.46 63.50 208.22 63.10
C207.97 62.70 207.61 62.49 207.13 62.49
Z
M211.14 62.52
L209.01 67.14
L209.01 67.94
L211.04 67.94
L211.04 69.65
L211.61 69.65
L211.61 67.94
L212.24 67.94
L212.24 67.14
L211.61 67.14
L211.61 62.52
Z
" fill="black" fill-rule="nonzero" />
<path d="
M218.95 38.48
C218.54 38.48 218.20 38.65 217.91 39.00
C217.64 39.33 217.47 39.81 217.39 40.45
L217.38 40.57
L217.50 40.60
L218.07 40.76
L218.23 40.80
L218.25 40.64
C218.29 40.23 218.37 39.93 218.51 39.74
C218.63 39.57 218.78 39.48 218.95 39.48
C218.95 39.48 218.95 39.48 218.95 39.48
C218.95 39.48 218.96 39.48 218.96 39.48
C219.12 39.48 219.26 39.56 219.38 39.73
C219.51 39.90 219.57 40.14 219.57 40.45
C219.57 40.78 219.50 41.04 219.34 41.23
C219.20 41.41 219.00 41.50 218.77 41.50
L218.77 41.50
L218.69 41.49
L218.54 41.48
L218.53 41.62
L218.47 42.39
L218.45 42.62
L218.66 42.53
C218.80 42.47 218.92 42.45 219.01 42.45
C219.01 42.45 219.01 42.45 219.01 42.45
C219.01 42.45 219.01 42.45 219.02 42.45
C219.22 42.45 219.40 42.55 219.54 42.76
C219.70 42.99 219.78 43.30 219.78 43.68
C219.78 44.09 219.70 44.43 219.52 44.68
C219.36 44.91 219.17 45.03 218.96 45.03
C218.96 45.03 218.96 45.03 218.96 45.03
C218.96 45.03 218.95 45.03 218.95 45.03
C218.76 45.03 218.61 44.94 218.49 44.75
C218.35 44.53 218.25 44.20 218.19 43.76
L218.17 43.61
L218.02 43.64
L217.45 43.75
L217.33 43.78
L217.34 43.90
C217.38 44.54 217.54 45.05 217.84 45.44
C218.14 45.84 218.52 46.04 218.97 46.04
C219.44 46.04 219.85 45.81 220.19 45.36
C220.51 44.92 220.68 44.35 220.68 43.67
C220.68 43.35 220.64 43.05 220.56 42.79
C220.48 42.52 220.37 42.31 220.24 42.15
C220.15 42.04 220.05 41.95 219.93 41.88
L219.93 41.88
C220.07 41.74 220.18 41.58 220.27 41.39
C220.39 41.12 220.45 40.81 220.45 40.47
C220.45 39.90 220.31 39.44 220.02 39.06
C219.73 38.67 219.37 38.48 218.95 38.48
Z
M222.58 38.48
C222.17 38.48 221.83 38.65 221.54 39.00
C221.27 39.33 221.10 39.81 221.02 40.45
L221.01 40.57
L221.13 40.60
L221.70 40.76
L221.86 40.80
L221.88 40.64
C221.92 40.23 222.00 39.93 222.14 39.74
C222.26 39.57 222.41 39.48 222.58 39.48
C222.58 39.48 222.58 39.48 222.58 39.48
C222.58 39.48 222.59 39.48 222.59 39.48
C222.75 39.48 222.89 39.56 223.01 39.73
C223.14 39.90 223.20 40.14 223.20 40.45
C223.20 40.78 223.13 41.04 222.97 41.23
C222.83 41.41 222.64 41.50 222.40 41.50
L222.40 41.50
L222.32 41.49
L222.17 41.48
L222.16 41.62
L222.10 42.39
L222.08 42.62
L222.29 42.53
C222.43 42.47 222.55 42.45 222.64 42.45
C222.64 42.45 222.64 42.45 222.64 42.45
C222.64 42.45 222.64 42.45 222.65 42.45
C222.85 42.45 223.03 42.55 223.17 42.76
C223.33 42.99 223.41 43.30 223.41 43.68
C223.41 44.09 223.33 44.43 223.15 44.68
C222.99 44.91 222.80 45.03 222.59 45.03
C222.59 45.03 222.59 45.03 222.59 45.03
C222.59 45.03 222.58 45.03 222.58 45.03
C222.39 45.03 222.24 44.94 222.12 44.75
C221.98 44.53 221.88 44.20 221.82 43.76
L221.80 43.61
L221.65 43.64
L221.08 43.75
L220.96 43.78
L220.97 43.90
C221.01 44.54 221.17 45.05 221.47 45.44
C221.77 45.84 222.15 46.04 222.60 46.04
C223.07 46.04 223.48 45.81 223.82 45.36
C224.14 44.92 224.31 44.35 224.31 43.67
C224.31 43.35 224.27 43.05 224.19 42.79
C224.11 42.52 224.00 42.31 223.87 42.15
C223.78 42.04 223.68 41.95 223.56 41.88
L223.56 41.88
C223.70 41.74 223.81 41.58 223.90 41.39
C224.02 41.12 224.08 40.81 224.08 40.47
C224.08 39.90 223.94 39.44 223.65 39.06
C223.36 38.67 223.00 38.48 222.58 38.48
Z
" fill="white" fill-rule="nonzero" />
</g>
<g  transform="translate(1.19,228.58)" >
<path d="
M105.01 2.94
C104.84 2.94 104.70 3.00 104.58 3.11
C104.47 3.23 104.41 3.37 104.41 3.53
C104.41 3.69 104.47 3.83 104.59 3.95
C104.70 4.07 104.84 4.12 105.01 4.12
C105.17 4.12 105.31 4.07 105.42 3.95
C105.54 3.83 105.59 3.69 105.59 3.53
C105.59 3.37 105.54 3.23 105.42 3.11
C105.31 3.00 105.17 2.94 105.01 2.94
Z
M109.98 8.04
L109.98 10.07
C109.50 10.46 109.11 10.65 108.81 10.65
C108.60 10.65 108.40 10.56 108.24 10.37
C108.07 10.19 107.99 9.96 107.99 9.68
C107.99 9.46 108.05 9.25 108.19 9.07
C108.32 8.88 108.54 8.70 108.84 8.53
C109.01 8.44 109.39 8.27 109.98 8.04
Z
M98.33 3.77
C99.26 3.77 100.02 4.08 100.61 4.71
C101.21 5.34 101.50 6.20 101.50 7.29
C101.50 8.37 101.21 9.23 100.61 9.86
C100.02 10.49 99.27 10.81 98.37 10.81
C98.04 10.81 97.63 10.75 97.13 10.64
L97.13 3.94
C97.58 3.83 97.98 3.77 98.33 3.77
Z
M94.88 3.33
L94.88 3.54
L95.18 3.54
C95.48 3.54 95.70 3.63 95.86 3.80
C95.96 3.92 96.02 4.23 96.02 4.72
L96.02 9.82
C96.02 10.26 95.98 10.55 95.89 10.68
C95.75 10.89 95.51 11.00 95.18 11.00
L94.88 11.00
L94.88 11.21
L98.41 11.21
C99.94 11.21 101.08 10.80 101.83 9.98
C102.49 9.24 102.83 8.33 102.83 7.23
C102.83 6.41 102.64 5.69 102.27 5.07
C101.89 4.44 101.40 4.00 100.78 3.73
C100.17 3.46 99.27 3.33 98.09 3.33
Z
M105.23 5.73
L103.63 6.38
L103.71 6.59
C103.86 6.53 104.00 6.50 104.10 6.50
C104.21 6.50 104.28 6.53 104.34 6.58
C104.40 6.62 104.44 6.71 104.47 6.83
C104.51 7.00 104.52 7.38 104.52 7.96
L104.52 10.01
C104.52 10.34 104.50 10.56 104.44 10.68
C104.39 10.79 104.32 10.88 104.23 10.93
C104.14 10.98 103.97 11.00 103.71 11.00
L103.71 11.21
L106.30 11.21
L106.30 11.00
C106.04 11.00 105.87 10.98 105.78 10.92
C105.68 10.87 105.61 10.79 105.56 10.68
C105.51 10.56 105.49 10.34 105.49 10.01
L105.49 5.73
Z
M130.07 3.16
L128.15 4.10
L128.23 4.28
C128.49 4.16 128.69 4.10 128.83 4.10
C128.93 4.10 129.02 4.13 129.09 4.19
C129.16 4.25 129.21 4.34 129.24 4.46
C129.28 4.62 129.30 4.99 129.30 5.57
L129.30 9.82
C129.30 10.30 129.28 10.58 129.24 10.67
C129.19 10.77 129.12 10.85 129.01 10.90
C128.90 10.96 128.66 10.99 128.29 11.00
L128.29 11.21
L131.25 11.21
L131.25 11.00
C130.90 10.99 130.66 10.96 130.54 10.90
C130.43 10.84 130.35 10.76 130.31 10.65
C130.28 10.54 130.26 10.27 130.26 9.82
L130.26 3.16
Z
M109.16 5.73
C108.55 5.73 108.07 5.87 107.73 6.15
C107.38 6.43 107.21 6.73 107.21 7.07
C107.21 7.24 107.26 7.38 107.35 7.48
C107.44 7.58 107.56 7.63 107.70 7.63
C107.85 7.63 107.97 7.58 108.06 7.49
C108.15 7.39 108.20 7.25 108.20 7.07
L108.19 6.74
C108.19 6.56 108.26 6.41 108.41 6.28
C108.55 6.15 108.74 6.08 108.99 6.08
C109.31 6.08 109.55 6.18 109.72 6.38
C109.89 6.58 109.98 6.94 109.98 7.47
L109.98 7.68
C109.06 8.02 108.41 8.30 108.01 8.53
C107.62 8.76 107.34 9.01 107.19 9.28
C107.07 9.47 107.01 9.69 107.01 9.95
C107.01 10.36 107.13 10.69 107.37 10.95
C107.61 11.20 107.91 11.32 108.28 11.32
C108.51 11.32 108.74 11.27 108.95 11.18
C109.09 11.11 109.43 10.87 109.98 10.45
C109.98 10.76 110.04 10.99 110.15 11.12
C110.26 11.25 110.41 11.32 110.60 11.32
C111.00 11.32 111.41 11.03 111.85 10.45
L111.85 10.12
C111.62 10.35 111.46 10.49 111.38 10.54
C111.33 10.57 111.28 10.58 111.22 10.58
C111.16 10.58 111.11 10.57 111.06 10.53
C111.02 10.49 110.98 10.41 110.97 10.30
C110.95 10.18 110.94 9.87 110.94 9.36
L110.94 7.55
C110.94 7.04 110.90 6.70 110.83 6.53
C110.72 6.28 110.55 6.09 110.33 5.97
C110.02 5.81 109.64 5.73 109.16 5.73
Z
M120.17 3.33
L118.65 6.39
C119.38 6.42 119.96 6.52 120.38 6.69
C120.92 6.92 121.34 7.24 121.65 7.65
C121.96 8.06 122.11 8.51 122.11 8.99
C122.11 9.48 121.94 9.90 121.59 10.24
C121.25 10.58 120.85 10.75 120.40 10.75
C120.10 10.75 119.81 10.65 119.52 10.45
C119.33 10.32 119.20 10.24 119.13 10.21
C119.05 10.18 118.96 10.17 118.86 10.17
C118.73 10.17 118.62 10.21 118.53 10.29
C118.44 10.37 118.39 10.47 118.39 10.58
C118.39 10.77 118.50 10.95 118.72 11.11
C118.93 11.27 119.27 11.35 119.75 11.35
C120.22 11.35 120.67 11.25 121.12 11.03
C121.43 10.88 121.72 10.68 121.98 10.43
C122.23 10.19 122.44 9.89 122.61 9.53
C122.78 9.18 122.86 8.80 122.86 8.38
C122.86 7.67 122.61 7.05 122.09 6.52
C121.49 5.91 120.68 5.53 119.65 5.37
L120.17 4.32
L122.54 4.32
L122.99 3.33
Z
M113.36 10.08
C113.18 10.08 113.03 10.15 112.90 10.27
C112.78 10.39 112.71 10.55 112.71 10.73
C112.71 10.91 112.78 11.06 112.90 11.19
C113.03 11.31 113.18 11.38 113.36 11.38
C113.54 11.38 113.69 11.31 113.82 11.19
C113.94 11.06 114.00 10.91 114.00 10.73
C114.00 10.55 113.94 10.40 113.82 10.27
C113.69 10.15 113.54 10.08 113.36 10.08
Z
M125.26 10.08
C125.09 10.08 124.93 10.15 124.81 10.27
C124.68 10.39 124.62 10.55 124.62 10.73
C124.62 10.91 124.68 11.06 124.81 11.19
C124.93 11.31 125.09 11.38 125.26 11.38
C125.44 11.38 125.59 11.31 125.72 11.19
C125.85 11.06 125.91 10.91 125.91 10.73
C125.91 10.55 125.85 10.40 125.72 10.27
C125.60 10.15 125.45 10.08 125.26 10.08
Z
" fill="black" fill-rule="nonzero" />
</g>
</g>
</svg>
