<?xml version="1.0" encoding="utf-8" standalone="no"?>
<!DOCTYPE svg PUBLIC "-//W3C//DTD SVG 1.0//EN" "http://www.w3.org/TR/SVG/DTD/svg11.dtd" >
<svg version="1.1" baseProfile="full"  width="319.13385" height="338.46454" viewBox="0 0 229.77638 243.69449" preserveAspectRatio="xMidYMid" xmlns="http://www.w3.org/2000/svg" >

<g lengthAdjust="spacingAndGlyphs" xml:space='preserve' >
<g  transform="translate(1.19,1.19)" >
<path d="
M0.0 0.0
L0.0 227.39
L227.39 227.39
L227.39 0.0
Z
" fill="none" fill-rule="nonzero" />
<line x1="6.54" y1="6.54" x2="6.54" y2="220.84" fill="none" stroke="black" stroke-width="0.87px" stroke-linecap="square" />
<line x1="18.45" y1="6.54" x2="18.45" y2="220.84" fill="none" stroke="black" stroke-width="0.25px" stroke-linecap="butt" />
<line x1="30.35" y1="6.54" x2="30.35" y2="220.84" fill="none" stroke="black" stroke-width="0.25px" stroke-linecap="butt" />
<line x1="42.26" y1="6.54" x2="42.26" y2="220.84" fill="none" stroke="black" stroke-width="0.25px" stroke-linecap="butt" />
<line x1="54.17" y1="6.54" x2="54.17" y2="220.84" fill="none" stroke="black" stroke-width="0.25px" stroke-linecap="butt" />
<line x1="66.07" y1="6.54" x2="66.07" y2="220.84" fill="none" stroke="black" stroke-width="0.25px" stroke-linecap="butt" />
<line x1="77.98" y1="6.54" x2="77.98" y2="220.84" fill="none" stroke="black" stroke-width="0.25px" stroke-linecap="butt" />
<line x1="89.88" y1="6.54" x2="89.88" y2="220.84" fill="none" stroke="black" stroke-width="0.25px" stroke-linecap="butt" />
<line x1="101.79" y1="6.54" x2="101.79" y2="220.84" fill="none" stroke="black" stroke-width="0.25px" stroke-linecap="butt" />
<line x1="113.69" y1="6.54" x2="113.69" y2="220.84" fill="none" stroke="black" stroke-width="0.25px" stroke-linecap="butt" />
<line x1="125.60" y1="6.54" x2="125.60" y2="220.84" fill="none" stroke="black" stroke-width="0.25px" stroke-linecap="butt" />
<line x1="137.50" y1="6.54" x2="137.50" y2="220.84" fill="none" stroke="black" stroke-width="0.25px" stroke-linecap="butt" />
<line x1="149.41" y1="6.54" x2="149.41" y2="220.84" fill="none" stroke="black" stroke-width="0.25px" stroke-linecap="butt" />
<line x1="161.31" y1="6.54" x2="161.31" y2="220.84" fill="none" stroke="black" stroke-width="0.25px" stroke-linecap="butt" />
<line x1="173.22" y1="6.54" x2="173.22" y2="220.84" fill="none" stroke="black" stroke-width="0.25px" stroke-linecap="butt" />
<line x1="185.13" y1="6.54" x2="185.13" y2="220.84" fill="none" stroke="black" stroke-width="0.25px" stroke-linecap="butt" />
<line x1="197.03" y1="6.54" x2="197.03" y2="220.84" fill="none" stroke="black" stroke-width="0.25px" stroke-linecap="butt" />
<line x1="208.94" y1="6.54" x2="208.94" y2="220.84" fill="none" stroke="black" stroke-width="0.25px" stroke-linecap="butt" />
<line x1="220.84" y1="6.54" x2="220.84" y2="220.84" fill="none" stroke="black" stroke-width="0.87px" stroke-linecap="square" />
<line x1="6.54" y1="6.54" x2="220.84" y2="6.54" fill="none" stroke="black" stroke-width="0.87px" stroke-linecap="square" />
<line x1="6.54" y1="18.45" x2="220.84" y2="18.45" fill="none" stroke="black" stroke-width="0.25px" stroke-linecap="butt" />
<line x1="6.54" y1="30.35" x2="220.84" y2="30.35" fill="none" stroke="black" stroke-width="0.25px" stroke-linecap="butt" />
<line x1="6.54" y1="42.26" x2="220.84" y2="42.26" fill="none" stroke="black" stroke-width="0.25px" stroke-linecap="butt" />
<line x1="6.54" y1="54.17" x2="220.84" y2="54.17" fill="none" stroke="black" stroke-width="0.25px" stroke-linecap="butt" />
<line x1="6.54" y1="66.07" x2="220.84" y2="66.07" fill="none" stroke="black" stroke-width="0.25px" stroke-linecap="butt" />
<line x1="6.54" y1="77.98" x2="220.84" y2="77.98" fill="none" stroke="black" stroke-width="0.25px" stroke-linecap="butt" />
<line x1="6.54" y1="89.88" x2="220.84" y2="89.88" fill="none" stroke="black" stroke-width="0.25px" stroke-linecap="butt" />
<line x1="6.54" y1="101.79" x2="220.84" y2="101.79" fill="none" stroke="black" stroke-width="0.25px" stroke-linecap="butt" />
<line x1="6.54" y1="113.69" x2="220.84" y2="113.69" fill="none" stroke="black" stroke-width="0.25px" stroke-linecap="butt" />
<line x1="6.54" y1="125.60" x2="220.84" y2="125.60" fill="none" stroke="black" stroke-width="0.25px" stroke-linecap="butt" />
<line x1="6.54" y1="137.50" x2="220.84" y2="137.50" fill="none" stroke="black" stroke-width="0.25px" stroke-linecap="butt" />
<line x1="6.54" y1="149.41" x2="220.84" y2="149.41" fill="none" stroke="black" stroke-width="0.25px" stroke-linecap="butt" />
<line x1="6.54" y1="161.31" x2="220.84" y2="161.31" fill="none" stroke="black" stroke-width="0.25px" stroke-linecap="butt" />
<line x1="6.54" y1="173.22" x2="220.84" y2="173.22" fill="none" stroke="black" stroke-width="0.25px" stroke-linecap="butt" />
<line x1="6.54" y1="185.13" x2="220.84" y2="185.13" fill="none" stroke="black" stroke-width="0.25px" stroke-linecap="butt" />
<line x1="6.54" y1="197.03" x2="220.84" y2="197.03" fill="none" stroke="black" stroke-width="0.25px" stroke-linecap="butt" />
<line x1="6.54" y1="208.94" x2="220.84" y2="208.94" fill="none" stroke="black" stroke-width="0.25px" stroke-linecap="butt" />
<line x1="6.54" y1="220.84" x2="220.84" y2="220.84" fill="none" stroke="black" stroke-width="0.87px" stroke-linecap="square" />
<circle cx="18.45" cy="42.26" r="5.98" fill="black"/>
<circle cx="30.35" cy="30.35" r="5.85" fill="white"/>
<circle cx="30.35" cy="30.35" r="5.85" fill="none" stroke="black" stroke-width="0.25px"/>
<circle cx="30.35" cy="66.07" r="5.98" fill="black"/>
<circle cx="30.35" cy="101.79" r="5.98" fill="black"/>
<circle cx="42.26" cy="42.26" r="5.85" fill="white"/>
<circle cx="42.26" cy="42.26" r="5.85" fill="none" stroke="black" stroke-width="0.25px"/>
<circle cx="42.26" cy="113.69" r="1.27" fill="black"/>
<circle cx="42.26" cy="185.13" r="5.85" fill="white"/>
<circle cx="42.26" cy="185.13" r="5.85" fill="none" stroke="black" stroke-width="0.25px"/>
<circle cx="66.07" cy="30.35" r="5.85" fill="white"/>
<circle cx="66.07" cy="30.35" r="5.85" fill="none" stroke="black" stroke-width="0.25px"/>
<circle cx="113.69" cy="42.26" r="1.27" fill="black"/>
<circle cx="113.69" cy="113.69" r="1.27" fill="black"/>
<circle cx="113.69" cy="185.13" r="1.27" fill="black"/>
<circle cx="113.69" cy="197.03" r="5.85" fill="white"/>
<circle cx="113.69" cy="197.03" r="5.85" fill="none" stroke="black" stroke-width="0.25px"/>
<circle cx="137.50" cy="42.26" r="5.85" fill="white"/>
<circle cx="137.50" cy="42.26" r="5.85" fill="none" stroke="black" stroke-width="0.25px"/>
<circle cx="137.50" cy="185.13" r="5.98" fill="black"/>
<circle cx="161.31" cy="30.35" r="5.85" fill="white"/>
<circle cx="161.31" cy="30.35" r="5.85" fill="none" stroke="black" stroke-width="0.25px"/>
<circle cx="161.31" cy="185.13" r="5.98" fill="black"/>
<circle cx="173.22" cy="137.50" r="5.85" fill="white"/>
<circle cx="173.22" cy="137.50" r="5.85" fill="none" stroke="black" stroke-width="0.25px"/>
<circle cx="185.13" cy="18.45" r="5.85" fill="white"/>
<circle cx="185.13" cy="18.45" r="5.85" fill="none" stroke="black" stroke-width="0.25px"/>
<circle cx="185.13" cy="42.26" r="5.98" fill="black"/>
<circle cx="185.13" cy="66.07" r="5.98" fill="black"/>
<circle cx="185.13" cy="101.79" r="5.98" fill="black"/>
<circle cx="185.13" cy="113.69" r="1.27" fill="black"/>
<circle cx="185.13" cy="173.22" r="5.85" fill="white"/>
<circle cx="185.13" cy="173.22" r="5.85" fill="none" stroke="black" stroke-width="0.25px"/>
<circle cx="185.13" cy="185.13" r="1.27" fill="black"/>
<circle cx="185.13" cy="197.03" r="5.98" fill="black"/>
<circle cx="197.03" cy="30.35" r="5.98" fill="black"/>
<circle cx="197.03" cy="125.60" r="5.98" fill="black"/>
<circle cx="197.03" cy="137.50" r="5.85" fill="white"/>
<circle cx="197.03" cy="137.50" r="5.85" fill="none" stroke="black" stroke-width="0.25px"/>
<circle cx="197.03" cy="149.41" r="5.85" fill="white"/>
<circle cx="197.03" cy="149.41" r="5.85" fill="none" stroke="black" stroke-width="0.25px"/>
<circle cx="197.03" cy="185.13" r="5.85" fill="white"/>
<circle cx="197.03" cy="185.13" r="5.85" fill="none" stroke="black" stroke-width="0.25px"/>
<circle cx="197.03" cy="197.03" r="5.85" fill="white"/>
<circle cx="197.03" cy="197.03" r="5.85" fill="none" stroke="black" stroke-width="0.25px"/>
<circle cx="197.03" cy="208.94" r="5.98" fill="black"/>
<circle cx="208.94" cy="137.50" r="5.98" fill="black"/>
<circle cx="208.94" cy="208.94" r="5.98" fill="black"/>
<path d="
M32.18 30.02
C32.43 30.02 32.65 30.16 32.82 30.44
C33.00 30.72 33.09 31.11 33.09 31.61
C33.09 32.13 33.00 32.53 32.82 32.83
C32.64 33.12 32.44 33.27 32.22 33.27
C31.96 33.27 31.73 33.12 31.54 32.80
C31.35 32.49 31.25 32.08 31.25 31.56
C31.25 31.09 31.34 30.71 31.53 30.44
C31.71 30.16 31.93 30.02 32.18 30.02
Z
M28.77 26.72
C28.67 27.03 28.50 27.35 28.26 27.67
C28.02 28.00 27.74 28.28 27.42 28.51
L27.42 29.35
C27.61 29.25 27.81 29.09 28.04 28.89
C28.26 28.69 28.44 28.49 28.57 28.30
L28.57 33.87
L29.15 33.87
L29.15 26.72
Z
M32.26 26.72
C31.77 26.72 31.37 27.01 31.06 27.59
C30.74 28.18 30.59 29.16 30.59 30.54
C30.59 31.78 30.74 32.66 31.05 33.19
C31.35 33.72 31.74 33.99 32.21 33.99
C32.47 33.99 32.71 33.90 32.93 33.71
C33.15 33.53 33.33 33.24 33.47 32.86
C33.60 32.47 33.67 32.04 33.67 31.56
C33.67 30.86 33.54 30.30 33.26 29.88
C32.98 29.46 32.66 29.25 32.29 29.25
C32.07 29.25 31.86 29.33 31.66 29.49
C31.46 29.65 31.29 29.89 31.16 30.20
C31.16 29.32 31.25 28.66 31.42 28.21
C31.63 27.70 31.89 27.44 32.23 27.44
C32.44 27.44 32.63 27.55 32.78 27.78
C32.89 27.93 32.97 28.19 33.02 28.56
L33.59 28.49
C33.54 27.91 33.39 27.47 33.15 27.17
C32.91 26.87 32.62 26.72 32.26 26.72
Z
" fill="black" fill-rule="nonzero" />
<path d="
M28.67 98.07
L28.64 98.17
C28.54 98.46 28.38 98.77 28.15 99.08
C27.91 99.40 27.65 99.67 27.34 99.88
L27.28 99.93
L27.28 100.00
L27.28 100.84
L27.28 101.09
L27.49 100.97
C27.69 100.86 27.90 100.70 28.13 100.49
C28.24 100.39 28.34 100.29 28.43 100.20
L28.43 100.20
L28.43 105.36
L28.43 105.50
L29.29 105.50
L29.29 105.36
L29.29 98.21
L29.29 98.07
Z
M30.51 98.19
L30.51 98.33
L30.51 99.17
L30.51 99.32
L32.70 99.32
C32.45 99.78 32.21 100.33 31.99 100.96
C31.74 101.69 31.54 102.45 31.39 103.25
C31.25 104.05 31.17 104.76 31.16 105.36
L31.16 105.50
L31.90 105.50
L32.03 105.50
L32.04 105.37
C32.09 104.23 32.29 103.08 32.62 101.91
C32.96 100.75 33.35 99.81 33.80 99.09
L33.82 99.05
L33.82 99.01
L33.82 98.33
L33.82 98.19
Z
" fill="white" fill-rule="nonzero" />
<path d="
M163.11 182.35
C163.11 182.35 163.11 182.35 163.11 182.35
C163.12 182.35 163.12 182.35 163.12 182.35
C163.30 182.35 163.47 182.48 163.62 182.73
C163.79 182.99 163.87 183.37 163.87 183.85
C163.87 184.33 163.79 184.70 163.63 184.96
C163.48 185.19 163.31 185.31 163.11 185.31
C163.11 185.31 163.10 185.31 163.10 185.31
C163.10 185.31 163.10 185.31 163.10 185.31
C162.89 185.31 162.71 185.19 162.56 184.96
C162.39 184.71 162.31 184.36 162.31 183.92
C162.31 183.43 162.40 183.04 162.58 182.75
C162.74 182.49 162.92 182.35 163.11 182.35
Z
M159.63 181.35
L159.60 181.45
C159.50 181.74 159.34 182.05 159.11 182.36
C158.87 182.68 158.61 182.94 158.30 183.16
L158.24 183.20
L158.24 183.28
L158.24 184.12
L158.24 184.36
L158.45 184.25
C158.65 184.14 158.86 183.98 159.09 183.77
C159.20 183.67 159.30 183.57 159.39 183.47
L159.39 183.47
L159.39 188.64
L159.39 188.78
L160.25 188.78
L160.25 188.64
L160.25 181.49
L160.25 181.35
Z
M163.05 181.35
C162.59 181.35 162.20 181.58 161.89 182.05
C161.58 182.51 161.43 183.12 161.43 183.89
C161.43 184.64 161.58 185.24 161.87 185.68
C162.18 186.14 162.54 186.37 162.97 186.37
C163.22 186.37 163.45 186.27 163.68 186.08
C163.77 186.01 163.85 185.93 163.92 185.83
L163.92 185.83
C163.90 186.23 163.85 186.58 163.77 186.89
C163.67 187.28 163.55 187.55 163.41 187.70
C163.28 187.83 163.14 187.90 162.99 187.90
C162.99 187.90 162.99 187.90 162.99 187.90
C162.99 187.90 162.99 187.90 162.99 187.90
C162.82 187.90 162.69 187.83 162.59 187.68
C162.47 187.51 162.39 187.25 162.35 186.90
L162.34 186.76
L162.19 186.78
L161.64 186.85
L161.51 186.87
L161.52 187.01
C161.57 187.61 161.72 188.07 161.98 188.40
C162.24 188.73 162.58 188.90 162.98 188.90
C163.33 188.90 163.65 188.77 163.93 188.49
C164.20 188.22 164.41 187.81 164.56 187.24
C164.72 186.69 164.79 185.91 164.79 184.92
C164.79 184.03 164.72 183.35 164.58 182.87
C164.43 182.38 164.23 182.00 163.96 181.75
C163.68 181.48 163.38 181.35 163.05 181.35
Z
" fill="white" fill-rule="nonzero" />
<path d="
M174.98 134.59
C175.26 134.59 175.49 134.79 175.67 135.18
C175.85 135.57 175.94 136.35 175.94 137.51
C175.94 138.65 175.85 139.43 175.67 139.82
C175.50 140.22 175.28 140.42 175.02 140.42
C174.74 140.42 174.51 140.22 174.33 139.83
C174.16 139.44 174.07 138.66 174.07 137.51
C174.07 136.36 174.15 135.59 174.33 135.19
C174.50 134.79 174.72 134.59 174.98 134.59
Z
M171.42 133.87
C170.98 133.87 170.63 134.04 170.36 134.38
C170.09 134.73 169.93 135.24 169.89 135.93
L170.48 136.02
C170.48 135.56 170.57 135.21 170.74 134.96
C170.91 134.71 171.13 134.59 171.40 134.59
C171.65 134.59 171.86 134.71 172.03 134.93
C172.19 135.16 172.28 135.46 172.28 135.82
C172.28 136.13 172.20 136.47 172.03 136.84
C171.87 137.20 171.51 137.72 170.98 138.39
C170.52 138.96 170.20 139.46 170.03 139.88
C169.86 140.30 169.78 140.68 169.78 141.02
L172.87 141.02
L172.87 140.18
L170.58 140.18
C170.64 140.02 170.72 139.86 170.82 139.70
C170.92 139.54 171.14 139.25 171.49 138.81
C172.02 138.11 172.39 137.56 172.58 137.14
C172.77 136.73 172.87 136.29 172.87 135.84
C172.87 135.33 172.74 134.87 172.50 134.47
C172.25 134.07 171.89 133.87 171.42 133.87
Z
M175.01 133.87
C174.51 133.87 174.13 134.17 173.87 134.79
C173.61 135.41 173.48 136.31 173.48 137.51
C173.48 138.84 173.62 139.78 173.91 140.32
C174.19 140.87 174.55 141.14 175.00 141.14
C175.51 141.14 175.89 140.83 176.14 140.21
C176.40 139.60 176.53 138.69 176.53 137.51
C176.53 136.18 176.37 135.22 176.06 134.62
C175.80 134.12 175.45 133.87 175.01 133.87
Z
" fill="black" fill-rule="nonzero" />
<path d="
M183.32 98.07
C182.84 98.07 182.45 98.26 182.15 98.64
C181.87 99.01 181.70 99.55 181.66 100.26
L181.65 100.39
L181.78 100.41
L182.37 100.50
L182.53 100.53
L182.53 100.36
C182.53 99.93 182.61 99.61 182.76 99.39
C182.90 99.18 183.08 99.08 183.30 99.08
C183.30 99.08 183.30 99.08 183.30 99.08
C183.30 99.08 183.31 99.08 183.31 99.08
C183.51 99.08 183.68 99.17 183.82 99.36
C183.97 99.57 184.04 99.83 184.04 100.16
C184.04 100.46 183.96 100.78 183.81 101.12
C183.65 101.48 183.30 101.98 182.77 102.64
C182.31 103.22 181.98 103.73 181.81 104.17
C181.63 104.61 181.54 105.01 181.55 105.37
L181.55 105.50
L184.92 105.50
L184.92 105.36
L184.92 104.52
L184.92 104.38
L182.70 104.38
C182.75 104.29 182.80 104.21 182.85 104.12
C182.95 103.97 183.17 103.67 183.50 103.24
C184.05 102.54 184.42 101.97 184.61 101.55
C184.81 101.11 184.91 100.66 184.91 100.18
C184.91 99.65 184.78 99.16 184.53 98.74
C184.25 98.29 183.85 98.07 183.32 98.07
Z
M187.07 98.07
L187.04 98.17
C186.95 98.46 186.78 98.77 186.55 99.08
C186.32 99.40 186.05 99.67 185.74 99.88
L185.68 99.93
L185.68 100.00
L185.68 100.84
L185.68 101.09
L185.89 100.97
C186.09 100.86 186.30 100.70 186.53 100.49
C186.64 100.39 186.74 100.29 186.83 100.20
L186.83 100.20
L186.83 105.36
L186.83 105.50
L187.69 105.50
L187.69 105.36
L187.69 98.21
L187.69 98.07
Z
" fill="white" fill-rule="nonzero" />
<path d="
M186.92 170.30
C187.12 170.30 187.30 170.41 187.46 170.62
C187.61 170.83 187.68 171.11 187.68 171.44
C187.68 171.76 187.61 172.03 187.46 172.23
C187.31 172.44 187.14 172.54 186.93 172.54
C186.71 172.54 186.53 172.43 186.38 172.23
C186.23 172.02 186.16 171.74 186.16 171.39
C186.16 171.08 186.23 170.82 186.38 170.61
C186.53 170.41 186.71 170.30 186.92 170.30
Z
M186.91 173.25
C187.17 173.25 187.40 173.39 187.59 173.65
C187.78 173.92 187.87 174.27 187.87 174.71
C187.87 175.14 187.78 175.49 187.60 175.75
C187.41 176.01 187.19 176.14 186.93 176.14
C186.66 176.14 186.44 176.00 186.25 175.74
C186.06 175.47 185.97 175.12 185.97 174.68
C185.97 174.26 186.06 173.92 186.24 173.65
C186.43 173.38 186.65 173.25 186.91 173.25
Z
M183.54 169.58
C183.45 169.89 183.28 170.21 183.03 170.54
C182.79 170.87 182.51 171.14 182.20 171.37
L182.20 172.22
C182.38 172.11 182.59 171.96 182.81 171.76
C183.03 171.56 183.21 171.36 183.34 171.16
L183.34 176.74
L183.92 176.74
L183.92 169.58
Z
M186.91 169.58
C186.53 169.58 186.21 169.75 185.95 170.09
C185.70 170.43 185.57 170.87 185.57 171.42
C185.57 171.77 185.63 172.08 185.75 172.32
C185.86 172.56 186.04 172.74 186.27 172.87
C185.99 172.98 185.77 173.19 185.62 173.50
C185.46 173.81 185.38 174.20 185.38 174.68
C185.38 175.33 185.53 175.86 185.82 176.26
C186.12 176.66 186.48 176.86 186.93 176.86
C187.36 176.86 187.73 176.66 188.02 176.26
C188.31 175.86 188.46 175.34 188.46 174.70
C188.46 174.24 188.38 173.86 188.23 173.55
C188.08 173.24 187.86 173.01 187.58 172.87
C187.81 172.74 187.99 172.55 188.10 172.32
C188.21 172.08 188.27 171.79 188.27 171.44
C188.27 170.90 188.14 170.45 187.88 170.10
C187.63 169.76 187.30 169.58 186.91 169.58
Z
" fill="black" fill-rule="nonzero" />
<path d="
M198.85 137.17
C199.11 137.17 199.32 137.31 199.50 137.59
C199.68 137.87 199.76 138.26 199.76 138.76
C199.76 139.28 199.67 139.68 199.50 139.98
C199.32 140.27 199.12 140.42 198.89 140.42
C198.64 140.42 198.41 140.26 198.22 139.95
C198.02 139.64 197.93 139.23 197.93 138.71
C197.93 138.24 198.02 137.86 198.20 137.59
C198.39 137.31 198.61 137.17 198.85 137.17
Z
M195.23 133.87
C194.79 133.87 194.44 134.04 194.17 134.38
C193.90 134.73 193.75 135.24 193.70 135.93
L194.30 136.02
C194.30 135.56 194.38 135.21 194.55 134.96
C194.72 134.71 194.94 134.59 195.21 134.59
C195.46 134.59 195.67 134.71 195.84 134.93
C196.01 135.16 196.09 135.46 196.09 135.82
C196.09 136.13 196.01 136.47 195.84 136.84
C195.68 137.20 195.33 137.72 194.79 138.39
C194.33 138.96 194.01 139.46 193.84 139.88
C193.67 140.30 193.59 140.68 193.60 141.02
L196.69 141.02
L196.69 140.18
L194.39 140.18
C194.45 140.02 194.54 139.86 194.64 139.70
C194.74 139.54 194.96 139.25 195.30 138.81
C195.83 138.11 196.20 137.56 196.39 137.14
C196.58 136.73 196.68 136.29 196.68 135.84
C196.68 135.33 196.56 134.87 196.31 134.47
C196.07 134.07 195.70 133.87 195.23 133.87
Z
M198.94 133.87
C198.45 133.87 198.05 134.16 197.73 134.74
C197.42 135.33 197.26 136.31 197.26 137.69
C197.26 138.93 197.42 139.81 197.72 140.34
C198.03 140.87 198.42 141.14 198.89 141.14
C199.15 141.14 199.39 141.05 199.61 140.86
C199.83 140.68 200.00 140.39 200.14 140.01
C200.28 139.62 200.35 139.19 200.35 138.71
C200.35 138.01 200.21 137.45 199.94 137.03
C199.66 136.61 199.34 136.40 198.97 136.40
C198.74 136.40 198.53 136.48 198.33 136.64
C198.13 136.80 197.97 137.03 197.84 137.35
C197.84 136.47 197.93 135.81 198.10 135.36
C198.30 134.85 198.57 134.59 198.90 134.59
C199.12 134.59 199.30 134.70 199.46 134.93
C199.56 135.08 199.64 135.34 199.70 135.71
L200.27 135.64
C200.22 135.06 200.07 134.62 199.83 134.32
C199.59 134.02 199.29 133.87 198.94 133.87
Z
" fill="black" fill-rule="nonzero" />
<path d="
M198.82 146.49
C199.03 146.49 199.21 146.60 199.36 146.81
C199.51 147.02 199.59 147.29 199.59 147.63
C199.59 147.95 199.51 148.22 199.37 148.42
C199.22 148.62 199.04 148.73 198.83 148.73
C198.62 148.73 198.43 148.62 198.29 148.42
C198.14 148.21 198.07 147.93 198.07 147.58
C198.07 147.27 198.14 147.01 198.29 146.80
C198.44 146.60 198.62 146.49 198.82 146.49
Z
M198.82 149.44
C199.08 149.44 199.31 149.57 199.50 149.84
C199.68 150.11 199.78 150.46 199.78 150.90
C199.78 151.33 199.69 151.68 199.50 151.94
C199.32 152.20 199.10 152.33 198.83 152.33
C198.57 152.33 198.34 152.19 198.16 151.93
C197.97 151.66 197.87 151.31 197.87 150.87
C197.87 150.45 197.97 150.10 198.15 149.84
C198.33 149.57 198.55 149.44 198.82 149.44
Z
M195.23 145.77
C194.79 145.77 194.44 145.95 194.17 146.29
C193.90 146.64 193.75 147.15 193.70 147.83
L194.30 147.93
C194.30 147.47 194.38 147.11 194.55 146.87
C194.72 146.62 194.94 146.50 195.21 146.50
C195.46 146.50 195.67 146.61 195.84 146.84
C196.01 147.07 196.09 147.36 196.09 147.73
C196.09 148.04 196.01 148.38 195.84 148.74
C195.68 149.11 195.33 149.62 194.79 150.29
C194.33 150.86 194.01 151.36 193.84 151.78
C193.67 152.20 193.59 152.58 193.60 152.92
L196.69 152.92
L196.69 152.08
L194.39 152.08
C194.45 151.93 194.54 151.77 194.64 151.61
C194.74 151.45 194.96 151.15 195.30 150.71
C195.83 150.02 196.20 149.47 196.39 149.05
C196.58 148.63 196.68 148.20 196.68 147.75
C196.68 147.23 196.56 146.78 196.31 146.38
C196.07 145.97 195.70 145.77 195.23 145.77
Z
M198.82 145.77
C198.43 145.77 198.11 145.94 197.86 146.28
C197.60 146.62 197.47 147.06 197.47 147.60
C197.47 147.96 197.53 148.26 197.65 148.51
C197.77 148.75 197.94 148.93 198.17 149.06
C197.90 149.17 197.68 149.38 197.52 149.69
C197.37 150.00 197.29 150.39 197.29 150.87
C197.29 151.52 197.43 152.05 197.73 152.45
C198.02 152.85 198.39 153.05 198.83 153.05
C199.27 153.05 199.63 152.85 199.92 152.45
C200.22 152.05 200.37 151.53 200.37 150.89
C200.37 150.43 200.29 150.05 200.14 149.74
C199.99 149.43 199.77 149.20 199.49 149.06
C199.72 148.93 199.89 148.74 200.00 148.51
C200.12 148.27 200.18 147.98 200.18 147.63
C200.18 147.09 200.05 146.64 199.79 146.29
C199.53 145.95 199.21 145.77 198.82 145.77
Z
" fill="black" fill-rule="nonzero" />
<path d="
M199.13 182.98
L199.13 186.19
L197.67 186.19
L199.13 182.98
Z
M195.23 181.55
C194.79 181.55 194.44 181.72 194.17 182.07
C193.90 182.41 193.75 182.93 193.70 183.61
L194.30 183.70
C194.30 183.24 194.38 182.89 194.55 182.64
C194.72 182.40 194.94 182.27 195.21 182.27
C195.46 182.27 195.67 182.39 195.84 182.62
C196.01 182.84 196.09 183.14 196.09 183.50
C196.09 183.82 196.01 184.16 195.84 184.52
C195.68 184.89 195.33 185.40 194.79 186.07
C194.33 186.64 194.01 187.14 193.84 187.56
C193.67 187.98 193.59 188.36 193.60 188.70
L196.69 188.70
L196.69 187.86
L194.39 187.86
C194.45 187.70 194.54 187.54 194.64 187.38
C194.74 187.23 194.96 186.93 195.30 186.49
C195.83 185.80 196.20 185.24 196.39 184.83
C196.58 184.41 196.68 183.98 196.68 183.52
C196.68 183.01 196.56 182.55 196.31 182.15
C196.07 181.75 195.70 181.55 195.23 181.55
Z
M199.24 181.58
L197.11 186.19
L197.11 187.00
L199.13 187.00
L199.13 188.70
L199.71 188.70
L199.71 187.00
L200.34 187.00
L200.34 186.19
L199.71 186.19
L199.71 181.58
Z
" fill="black" fill-rule="nonzero" />
<path d="
M195.23 193.46
C194.79 193.46 194.44 193.63 194.17 193.97
C193.90 194.32 193.75 194.83 193.70 195.52
L194.30 195.61
C194.30 195.15 194.38 194.79 194.55 194.55
C194.72 194.30 194.94 194.18 195.21 194.18
C195.46 194.18 195.67 194.29 195.84 194.52
C196.01 194.75 196.09 195.05 196.09 195.41
C196.09 195.72 196.01 196.06 195.84 196.43
C195.68 196.79 195.33 197.31 194.79 197.97
C194.33 198.55 194.01 199.04 193.84 199.47
C193.67 199.89 193.59 200.27 193.60 200.61
L196.69 200.61
L196.69 199.77
L194.39 199.77
C194.45 199.61 194.54 199.45 194.64 199.29
C194.74 199.13 194.96 198.83 195.30 198.40
C195.83 197.70 196.20 197.15 196.39 196.73
C196.58 196.32 196.68 195.88 196.68 195.43
C196.68 194.92 196.56 194.46 196.31 194.06
C196.07 193.66 195.70 193.46 195.23 193.46
Z
M198.86 193.46
C198.42 193.46 198.07 193.63 197.80 193.97
C197.53 194.32 197.38 194.83 197.33 195.52
L197.93 195.61
C197.93 195.15 198.01 194.79 198.18 194.55
C198.35 194.30 198.57 194.18 198.84 194.18
C199.09 194.18 199.30 194.29 199.47 194.52
C199.64 194.75 199.72 195.05 199.72 195.41
C199.72 195.72 199.64 196.06 199.47 196.43
C199.31 196.79 198.96 197.31 198.42 197.97
C197.96 198.55 197.64 199.04 197.47 199.47
C197.30 199.89 197.22 200.27 197.23 200.61
L200.32 200.61
L200.32 199.77
L198.02 199.77
C198.08 199.61 198.17 199.45 198.27 199.29
C198.37 199.13 198.59 198.83 198.93 198.40
C199.46 197.70 199.83 197.15 200.02 196.73
C200.21 196.32 200.31 195.88 200.31 195.43
C200.31 194.92 200.19 194.46 199.94 194.06
C199.70 193.66 199.33 193.46 198.86 193.46
Z
" fill="black" fill-rule="nonzero" />
<path d="
M195.23 205.16
C194.74 205.16 194.35 205.35 194.06 205.73
C193.77 206.10 193.61 206.64 193.56 207.35
L193.56 207.48
L193.68 207.50
L194.27 207.59
L194.44 207.62
L194.44 207.45
C194.44 207.02 194.51 206.69 194.67 206.47
C194.81 206.27 194.99 206.16 195.20 206.16
C195.21 206.16 195.21 206.16 195.21 206.16
C195.21 206.16 195.21 206.16 195.21 206.16
C195.41 206.16 195.58 206.26 195.72 206.45
C195.87 206.65 195.95 206.92 195.95 207.25
C195.95 207.54 195.87 207.86 195.71 208.21
C195.55 208.56 195.21 209.07 194.68 209.73
C194.21 210.31 193.89 210.82 193.71 211.25
C193.53 211.69 193.45 212.09 193.45 212.45
L193.46 212.59
L196.83 212.59
L196.83 212.45
L196.83 211.61
L196.83 211.47
L194.61 211.47
C194.65 211.38 194.70 211.29 194.76 211.21
C194.85 211.05 195.07 210.76 195.41 210.33
C195.95 209.62 196.32 209.06 196.52 208.63
C196.72 208.20 196.82 207.74 196.82 207.27
C196.82 206.73 196.69 206.25 196.43 205.83
C196.16 205.38 195.76 205.16 195.23 205.16
Z
M198.76 205.16
C198.36 205.16 198.02 205.33 197.73 205.67
C197.46 206.01 197.29 206.49 197.21 207.13
L197.20 207.25
L197.32 207.28
L197.89 207.44
L198.05 207.48
L198.07 207.31
C198.11 206.91 198.19 206.61 198.33 206.42
C198.45 206.24 198.60 206.16 198.77 206.16
C198.77 206.16 198.77 206.16 198.77 206.16
C198.77 206.16 198.77 206.16 198.78 206.16
C198.94 206.16 199.08 206.24 199.20 206.40
C199.33 206.58 199.39 206.82 199.39 207.12
C199.39 207.45 199.32 207.71 199.16 207.90
C199.01 208.09 198.82 208.18 198.59 208.18
L198.59 208.18
L198.51 208.17
L198.36 208.15
L198.35 208.30
L198.29 209.07
L198.27 209.30
L198.48 209.21
C198.62 209.15 198.74 209.12 198.83 209.12
C198.83 209.12 198.83 209.12 198.83 209.12
C198.83 209.12 198.83 209.12 198.83 209.12
C199.04 209.12 199.22 209.23 199.36 209.44
C199.52 209.67 199.60 209.98 199.60 210.36
C199.60 210.77 199.52 211.10 199.34 211.36
C199.18 211.59 198.99 211.71 198.78 211.71
C198.78 211.71 198.78 211.71 198.78 211.71
C198.78 211.71 198.77 211.71 198.77 211.71
C198.58 211.71 198.43 211.61 198.31 211.42
C198.17 211.21 198.07 210.88 198.01 210.43
L197.99 210.28
L197.84 210.31
L197.27 210.43
L197.15 210.45
L197.15 210.58
C197.19 211.22 197.36 211.73 197.66 212.12
C197.96 212.52 198.34 212.72 198.78 212.72
C199.26 212.72 199.67 212.49 200.01 212.04
C200.33 211.59 200.50 211.03 200.50 210.35
C200.50 210.02 200.46 209.73 200.38 209.47
C200.30 209.20 200.19 208.99 200.06 208.82
C199.97 208.71 199.86 208.63 199.75 208.56
L199.75 208.56
C199.88 208.42 200.00 208.26 200.09 208.06
C200.21 207.79 200.27 207.49 200.27 207.14
C200.27 206.58 200.12 206.11 199.84 205.74
C199.55 205.35 199.19 205.16 198.76 205.16
Z
" fill="white" fill-rule="nonzero" />
<path d="
M207.13 133.79
C206.65 133.79 206.26 133.98 205.96 134.36
C205.68 134.73 205.51 135.27 205.47 135.98
L205.46 136.11
L205.59 136.13
L206.18 136.22
L206.34 136.25
L206.34 136.08
C206.34 135.65 206.42 135.32 206.57 135.10
C206.71 134.90 206.89 134.79 207.11 134.79
C207.11 134.79 207.11 134.79 207.11 134.79
C207.12 134.79 207.12 134.79 207.12 134.79
C207.32 134.79 207.49 134.89 207.63 135.08
C207.78 135.28 207.85 135.55 207.85 135.88
C207.85 136.17 207.78 136.49 207.62 136.84
C207.46 137.19 207.11 137.70 206.58 138.36
C206.12 138.94 205.79 139.45 205.62 139.88
C205.44 140.32 205.35 140.72 205.36 141.08
L205.36 141.22
L208.73 141.22
L208.73 141.08
L208.73 140.24
L208.73 140.10
L206.52 140.10
C206.56 140.01 206.61 139.92 206.66 139.84
C206.76 139.68 206.98 139.39 207.31 138.96
C207.86 138.25 208.23 137.69 208.42 137.26
C208.62 136.83 208.72 136.37 208.72 135.90
C208.72 135.36 208.60 134.88 208.34 134.46
C208.06 134.01 207.66 133.79 207.13 133.79
Z
M209.09 133.91
L209.09 134.05
L209.09 134.89
L209.09 135.03
L211.28 135.03
C211.03 135.50 210.80 136.05 210.58 136.68
C210.32 137.41 210.12 138.17 209.98 138.97
C209.83 139.77 209.76 140.47 209.75 141.08
L209.75 141.22
L210.48 141.22
L210.62 141.22
L210.62 141.09
C210.67 139.94 210.87 138.79 211.21 137.63
C211.55 136.47 211.94 135.52 212.38 134.80
L212.40 134.77
L212.40 134.73
L212.40 134.05
L212.40 133.91
Z
" fill="white" fill-rule="nonzero" />
<path d="
M210.15 207.82
L210.15 207.82
L210.15 207.82
C210.15 207.82 210.15 207.82 210.15 207.82
Z
M207.13 205.16
C206.65 205.16 206.26 205.35 205.96 205.73
C205.68 206.10 205.51 206.64 205.47 207.35
L205.46 207.48
L205.59 207.50
L206.18 207.59
L206.34 207.62
L206.34 207.45
C206.34 207.02 206.42 206.70 206.57 206.47
C206.71 206.27 206.89 206.17 207.11 206.17
C207.11 206.17 207.11 206.17 207.11 206.17
C207.12 206.17 207.12 206.17 207.12 206.17
C207.32 206.17 207.49 206.26 207.63 206.45
C207.78 206.65 207.85 206.92 207.85 207.25
C207.85 207.55 207.78 207.87 207.62 208.21
C207.46 208.57 207.11 209.07 206.58 209.73
C206.12 210.31 205.79 210.82 205.62 211.26
C205.44 211.70 205.35 212.10 205.36 212.46
L205.36 212.59
L208.73 212.59
L208.73 212.45
L208.73 211.61
L208.73 211.47
L206.52 211.47
C206.56 211.38 206.61 211.30 206.66 211.21
C206.76 211.06 206.98 210.76 207.31 210.33
C207.86 209.63 208.23 209.06 208.42 208.64
C208.62 208.20 208.72 207.75 208.72 207.27
C208.72 206.73 208.60 206.25 208.34 205.83
C208.06 205.38 207.66 205.16 207.13 205.16
Z
M209.63 205.28
L209.61 205.41
L209.16 209.07
L209.14 209.20
L209.27 209.22
L209.81 209.33
L209.93 209.35
L209.97 209.25
C210.05 209.05 210.15 208.90 210.29 208.79
C210.41 208.69 210.54 208.64 210.68 208.64
C210.68 208.64 210.69 208.64 210.69 208.64
C210.69 208.64 210.69 208.64 210.69 208.64
C210.93 208.64 211.12 208.76 211.29 209.00
C211.46 209.26 211.55 209.63 211.55 210.11
C211.55 210.62 211.46 211.02 211.27 211.31
C211.11 211.58 210.91 211.71 210.69 211.71
C210.69 211.71 210.69 211.71 210.69 211.71
C210.69 211.71 210.69 211.71 210.69 211.71
C210.52 211.71 210.37 211.62 210.23 211.44
C210.08 211.24 209.98 210.92 209.94 210.49
L209.93 210.35
L209.78 210.37
L209.18 210.45
L209.05 210.46
L209.06 210.60
C209.10 211.25 209.27 211.76 209.56 212.13
C209.87 212.52 210.25 212.71 210.70 212.71
C211.24 212.71 211.67 212.44 211.98 211.90
C212.29 211.38 212.44 210.76 212.44 210.04
C212.44 209.30 212.28 208.71 211.98 208.27
C211.66 207.82 211.28 207.59 210.84 207.59
C210.60 207.59 210.37 207.67 210.15 207.82
L210.15 207.82
L210.34 206.40
L212.22 206.40
L212.22 206.26
L212.22 205.43
L212.22 205.28
Z
" fill="white" fill-rule="nonzero" />
</g>
<g  transform="translate(1.19,228.58)" >
<path d="
M109.47 2.94
C109.30 2.94 109.16 3.00 109.05 3.11
C108.93 3.23 108.88 3.37 108.88 3.53
C108.88 3.69 108.94 3.83 109.05 3.95
C109.17 4.07 109.31 4.12 109.47 4.12
C109.63 4.12 109.77 4.07 109.89 3.95
C110.00 3.83 110.06 3.69 110.06 3.53
C110.06 3.37 110.00 3.23 109.89 3.11
C109.77 3.00 109.63 2.94 109.47 2.94
Z
M114.44 8.04
L114.44 10.07
C113.96 10.46 113.57 10.65 113.28 10.65
C113.06 10.65 112.87 10.56 112.70 10.37
C112.54 10.19 112.45 9.96 112.45 9.68
C112.45 9.46 112.52 9.25 112.65 9.07
C112.78 8.88 113.00 8.70 113.31 8.53
C113.48 8.44 113.86 8.27 114.44 8.04
Z
M102.79 3.77
C103.72 3.77 104.48 4.08 105.08 4.71
C105.67 5.34 105.97 6.20 105.97 7.29
C105.97 8.37 105.67 9.23 105.08 9.86
C104.48 10.49 103.74 10.81 102.84 10.81
C102.50 10.81 102.09 10.75 101.60 10.64
L101.60 3.94
C102.05 3.83 102.44 3.77 102.79 3.77
Z
M99.35 3.33
L99.35 3.54
L99.65 3.54
C99.94 3.54 100.17 3.63 100.32 3.80
C100.43 3.92 100.48 4.23 100.48 4.72
L100.48 9.82
C100.48 10.26 100.44 10.55 100.35 10.68
C100.22 10.89 99.98 11.00 99.65 11.00
L99.35 11.00
L99.35 11.21
L102.87 11.21
C104.40 11.21 105.54 10.80 106.29 9.98
C106.96 9.24 107.29 8.33 107.29 7.23
C107.29 6.41 107.11 5.69 106.73 5.07
C106.36 4.44 105.86 4.00 105.25 3.73
C104.63 3.46 103.74 3.33 102.56 3.33
Z
M109.70 5.73
L108.09 6.38
L108.17 6.59
C108.33 6.53 108.46 6.50 108.57 6.50
C108.67 6.50 108.75 6.53 108.81 6.58
C108.87 6.62 108.91 6.71 108.94 6.83
C108.97 7.00 108.99 7.38 108.99 7.96
L108.99 10.01
C108.99 10.34 108.96 10.56 108.91 10.68
C108.86 10.79 108.79 10.88 108.70 10.93
C108.61 10.98 108.43 11.00 108.17 11.00
L108.17 11.21
L110.76 11.21
L110.76 11.00
C110.51 11.00 110.34 10.98 110.24 10.92
C110.15 10.87 110.07 10.79 110.03 10.68
C109.98 10.56 109.95 10.34 109.95 10.01
L109.95 5.73
Z
M125.60 3.16
L123.68 4.10
L123.77 4.28
C124.03 4.16 124.23 4.10 124.37 4.10
C124.47 4.10 124.56 4.13 124.63 4.19
C124.70 4.25 124.75 4.34 124.78 4.46
C124.82 4.62 124.83 4.99 124.83 5.57
L124.83 9.82
C124.83 10.30 124.81 10.58 124.77 10.67
C124.73 10.77 124.65 10.85 124.54 10.90
C124.44 10.96 124.19 10.99 123.82 11.00
L123.82 11.21
L126.79 11.21
L126.79 11.00
C126.43 10.99 126.20 10.96 126.08 10.90
C125.96 10.84 125.89 10.76 125.85 10.65
C125.81 10.54 125.79 10.27 125.79 9.82
L125.79 3.16
Z
M113.63 5.73
C113.01 5.73 112.53 5.87 112.19 6.15
C111.85 6.43 111.68 6.73 111.68 7.07
C111.68 7.24 111.72 7.38 111.82 7.48
C111.91 7.58 112.02 7.63 112.17 7.63
C112.31 7.63 112.43 7.58 112.52 7.49
C112.62 7.39 112.66 7.25 112.66 7.07
L112.65 6.74
C112.65 6.56 112.72 6.41 112.87 6.28
C113.01 6.15 113.21 6.08 113.45 6.08
C113.77 6.08 114.02 6.18 114.19 6.38
C114.36 6.58 114.44 6.94 114.44 7.47
L114.44 7.68
C113.53 8.02 112.87 8.30 112.48 8.53
C112.08 8.76 111.81 9.01 111.65 9.28
C111.53 9.47 111.48 9.69 111.48 9.95
C111.48 10.36 111.59 10.69 111.83 10.95
C112.07 11.20 112.37 11.32 112.74 11.32
C112.98 11.32 113.20 11.27 113.41 11.18
C113.55 11.11 113.89 10.87 114.44 10.45
C114.44 10.76 114.50 10.99 114.62 11.12
C114.73 11.25 114.88 11.32 115.07 11.32
C115.46 11.32 115.88 11.03 116.31 10.45
L116.31 10.12
C116.08 10.35 115.92 10.49 115.84 10.54
C115.80 10.57 115.74 10.58 115.68 10.58
C115.62 10.58 115.57 10.57 115.53 10.53
C115.48 10.49 115.45 10.41 115.43 10.30
C115.41 10.18 115.40 9.87 115.40 9.36
L115.40 7.55
C115.40 7.04 115.37 6.70 115.30 6.53
C115.19 6.28 115.02 6.09 114.79 5.97
C114.49 5.81 114.10 5.73 113.63 5.73
Z
M117.82 10.08
C117.65 10.08 117.49 10.15 117.37 10.27
C117.24 10.39 117.18 10.55 117.18 10.73
C117.18 10.91 117.24 11.06 117.37 11.19
C117.49 11.31 117.65 11.38 117.82 11.38
C118.00 11.38 118.15 11.31 118.28 11.19
C118.41 11.06 118.47 10.91 118.47 10.73
C118.47 10.55 118.41 10.40 118.28 10.27
C118.16 10.15 118.01 10.08 117.82 10.08
Z
" fill="black" fill-rule="nonzero" />
</g>
</g>
</svg>
