<?xml version="1.0" encoding="utf-8" standalone="no"?>
<!DOCTYPE svg PUBLIC "-//W3C//DTD SVG 1.0//EN" "http://www.w3.org/TR/SVG/DTD/svg11.dtd" >
<svg version="1.1" baseProfile="full"  width="319.13385" height="338.46454" viewBox="0 0 229.77638 243.69449" preserveAspectRatio="xMidYMid" xmlns="http://www.w3.org/2000/svg" >

<g lengthAdjust="spacingAndGlyphs" xml:space='preserve' >
<g  transform="translate(1.19,1.19)" >
<path d="
M0.0 0.0
L0.0 227.39
L227.39 227.39
L227.39 0.0
Z
" fill="none" fill-rule="nonzero" />
<line x1="6.54" y1="6.54" x2="6.54" y2="220.84" fill="none" stroke="black" stroke-width="0.87px" stroke-linecap="square" />
<line x1="18.45" y1="6.54" x2="18.45" y2="220.84" fill="none" stroke="black" stroke-width="0.25px" stroke-linecap="butt" />
<line x1="30.35" y1="6.54" x2="30.35" y2="220.84" fill="none" stroke="black" stroke-width="0.25px" stroke-linecap="butt" />
<line x1="42.26" y1="6.54" x2="42.26" y2="220.84" fill="none" stroke="black" stroke-width="0.25px" stroke-linecap="butt" />
<line x1="54.17" y1="6.54" x2="54.17" y2="220.84" fill="none" stroke="black" stroke-width="0.25px" stroke-linecap="butt" />
<line x1="66.07" y1="6.54" x2="66.07" y2="220.84" fill="none" stroke="black" stroke-width="0.25px" stroke-linecap="butt" />
<line x1="77.98" y1="6.54" x2="77.98" y2="220.84" fill="none" stroke="black" stroke-width="0.25px" stroke-linecap="butt" />
<line x1="89.88" y1="6.54" x2="89.88" y2="220.84" fill="none" stroke="black" stroke-width="0.25px" stroke-linecap="butt" />
<line x1="101.79" y1="6.54" x2="101.79" y2="220.84" fill="none" stroke="black" stroke-width="0.25px" stroke-linecap="butt" />
<line x1="113.69" y1="6.54" x2="113.69" y2="220.84" fill="none" stroke="black" stroke-width="0.25px" stroke-linecap="butt" />
<line x1="125.60" y1="6.54" x2="125.60" y2="220.84" fill="none" stroke="black" stroke-width="0.25px" stroke-linecap="butt" />
<line x1="137.50" y1="6.54" x2="137.50" y2="220.84" fill="none" stroke="black" stroke-width="0.25px" stroke-linecap="butt" />
<line x1="149.41" y1="6.54" x2="149.41" y2="220.84" fill="none" stroke="black" stroke-width="0.25px" stroke-linecap="butt" />
<line x1="161.31" y1="6.54" x2="161.31" y2="220.84" fill="none" stroke="black" stroke-width="0.25px" stroke-linecap="butt" />
<line x1="173.22" y1="6.54" x2="173.22" y2="220.84" fill="none" stroke="black" stroke-width="0.25px" stroke-linecap="butt" />
<line x1="185.13" y1="6.54" x2="185.13" y2="220.84" fill="none" stroke="black" stroke-width="0.25px" stroke-linecap="butt" />
<line x1="197.03" y1="6.54" x2="197.03" y2="220.84" fill="none" stroke="black" stroke-width="0.25px" stroke-linecap="butt" />
<line x1="208.94" y1="6.54" x2="208.94" y2="220.84" fill="none" stroke="black" stroke-width="0.25px" stroke-linecap="butt" />
<line x1="220.84" y1="6.54" x2="220.84" y2="220.84" fill="none" stroke="black" stroke-width="0.87px" stroke-linecap="square" />
<line x1="6.54" y1="6.54" x2="220.84" y2="6.54" fill="none" stroke="black" stroke-width="0.87px" stroke-linecap="square" />
<line x1="6.54" y1="18.45" x2="220.84" y2="18.45" fill="none" stroke="black" stroke-width="0.25px" stroke-linecap="butt" />
<line x1="6.54" y1="30.35" x2="220.84" y2="30.35" fill="none" stroke="black" stroke-width="0.25px" stroke-linecap="butt" />
<line x1="6.54" y1="42.26" x2="220.84" y2="42.26" fill="none" stroke="black" stroke-width="0.25px" stroke-linecap="butt" />
<line x1="6.54" y1="54.17" x2="220.84" y2="54.17" fill="none" stroke="black" stroke-width="0.25px" stroke-linecap="butt" />
<line x1="6.54" y1="66.07" x2="220.84" y2="66.07" fill="none" stroke="black" stroke-width="0.25px" stroke-linecap="butt" />
<line x1="6.54" y1="77.98" x2="220.84" y2="77.98" fill="none" stroke="black" stroke-width="0.25px" stroke-linecap="butt" />
<line x1="6.54" y1="89.88" x2="220.84" y2="89.88" fill="none" stroke="black" stroke-width="0.25px" stroke-linecap="butt" />
<line x1="6.54" y1="101.79" x2="220.84" y2="101.79" fill="none" stroke="black" stroke-width="0.25px" stroke-linecap="butt" />
<line x1="6.54" y1="113.69" x2="220.84" y2="113.69" fill="none" stroke="black" stroke-width="0.25px" stroke-linecap="butt" />
<line x1="6.54" y1="125.60" x2="220.84" y2="125.60" fill="none" stroke="black" stroke-width="0.25px" stroke-linecap="butt" />
<line x1="6.54" y1="137.50" x2="220.84" y2="137.50" fill="none" stroke="black" stroke-width="0.25px" stroke-linecap="butt" />
<line x1="6.54" y1="149.41" x2="220.84" y2="149.41" fill="none" stroke="black" stroke-width="0.25px" stroke-linecap="butt" />
<line x1="6.54" y1="161.31" x2="220.84" y2="161.31" fill="none" stroke="black" stroke-width="0.25px" stroke-linecap="butt" />
<line x1="6.54" y1="173.22" x2="220.84" y2="173.22" fill="none" stroke="black" stroke-width="0.25px" stroke-linecap="butt" />
<line x1="6.54" y1="185.13" x2="220.84" y2="185.13" fill="none" stroke="black" stroke-width="0.25px" stroke-linecap="butt" />
<line x1="6.54" y1="197.03" x2="220.84" y2="197.03" fill="none" stroke="black" stroke-width="0.25px" stroke-linecap="butt" />
<line x1="6.54" y1="208.94" x2="220.84" y2="208.94" fill="none" stroke="black" stroke-width="0.25px" stroke-linecap="butt" />
<line x1="6.54" y1="220.84" x2="220.84" y2="220.84" fill="none" stroke="black" stroke-width="0.87px" stroke-linecap="square" />
<circle cx="18.45" cy="42.26" r="5.98" fill="black"/>
<circle cx="30.35" cy="30.35" r="5.85" fill="white"/>
<circle cx="30.35" cy="30.35" r="5.85" fill="none" stroke="black" stroke-width="0.25px"/>
<circle cx="30.35" cy="66.07" r="5.98" fill="black"/>
<circle cx="30.35" cy="101.79" r="5.98" fill="black"/>
<circle cx="42.26" cy="42.26" r="5.85" fill="white"/>
<circle cx="42.26" cy="42.26" r="5.85" fill="none" stroke="black" stroke-width="0.25px"/>
<circle cx="42.26" cy="113.69" r="1.27" fill="black"/>
<circle cx="42.26" cy="185.13" r="5.85" fill="white"/>
<circle cx="42.26" cy="185.13" r="5.85" fill="none" stroke="black" stroke-width="0.25px"/>
<circle cx="66.07" cy="30.35" r="5.85" fill="white"/>
<circle cx="66.07" cy="30.35" r="5.85" fill="none" stroke="black" stroke-width="0.25px"/>
<circle cx="113.69" cy="42.26" r="1.27" fill="black"/>
<circle cx="113.69" cy="113.69" r="1.27" fill="black"/>
<circle cx="113.69" cy="185.13" r="1.27" fill="black"/>
<circle cx="113.69" cy="197.03" r="5.85" fill="white"/>
<circle cx="113.69" cy="197.03" r="5.85" fill="none" stroke="black" stroke-width="0.25px"/>
<circle cx="137.50" cy="42.26" r="5.85" fill="white"/>
<circle cx="137.50" cy="42.26" r="5.85" fill="none" stroke="black" stroke-width="0.25px"/>
<circle cx="137.50" cy="149.41" r="5.98" fill="black"/>
<circle cx="137.50" cy="185.13" r="5.98" fill="black"/>
<circle cx="149.41" cy="125.60" r="5.98" fill="black"/>
<circle cx="149.41" cy="149.41" r="5.85" fill="white"/>
<circle cx="149.41" cy="149.41" r="5.85" fill="none" stroke="black" stroke-width="0.25px"/>
<circle cx="149.41" cy="173.22" r="5.98" fill="black"/>
<circle cx="161.31" cy="30.35" r="5.85" fill="white"/>
<circle cx="161.31" cy="30.35" r="5.85" fill="none" stroke="black" stroke-width="0.25px"/>
<circle cx="161.31" cy="125.60" r="5.85" fill="white"/>
<circle cx="161.31" cy="125.60" r="5.85" fill="none" stroke="black" stroke-width="0.25px"/>
<circle cx="161.31" cy="149.41" r="5.85" fill="white"/>
<circle cx="161.31" cy="149.41" r="5.85" fill="none" stroke="black" stroke-width="0.25px"/>
<circle cx="161.31" cy="161.31" r="5.85" fill="white"/>
<circle cx="161.31" cy="161.31" r="5.85" fill="none" stroke="black" stroke-width="0.25px"/>
<circle cx="161.31" cy="173.22" r="5.85" fill="white"/>
<circle cx="161.31" cy="173.22" r="5.85" fill="none" stroke="black" stroke-width="0.25px"/>
<circle cx="161.31" cy="185.13" r="5.98" fill="black"/>
<circle cx="173.22" cy="125.60" r="5.98" fill="black"/>
<circle cx="173.22" cy="137.50" r="5.98" fill="black"/>
<circle cx="173.22" cy="149.41" r="5.98" fill="black"/>
<circle cx="185.13" cy="18.45" r="5.85" fill="white"/>
<circle cx="185.13" cy="18.45" r="5.85" fill="none" stroke="black" stroke-width="0.25px"/>
<circle cx="185.13" cy="42.26" r="5.98" fill="black"/>
<circle cx="185.13" cy="66.07" r="5.98" fill="black"/>
<circle cx="185.13" cy="113.69" r="1.27" fill="black"/>
<circle cx="185.13" cy="173.22" r="5.85" fill="white"/>
<circle cx="185.13" cy="173.22" r="5.85" fill="none" stroke="black" stroke-width="0.25px"/>
<circle cx="185.13" cy="185.13" r="1.27" fill="black"/>
<circle cx="185.13" cy="197.03" r="5.98" fill="black"/>
<circle cx="197.03" cy="30.35" r="5.98" fill="black"/>
<circle cx="197.03" cy="125.60" r="5.98" fill="black"/>
<circle cx="197.03" cy="149.41" r="5.85" fill="white"/>
<circle cx="197.03" cy="149.41" r="5.85" fill="none" stroke="black" stroke-width="0.25px"/>
<circle cx="197.03" cy="185.13" r="5.85" fill="white"/>
<circle cx="197.03" cy="185.13" r="5.85" fill="none" stroke="black" stroke-width="0.25px"/>
<circle cx="197.03" cy="197.03" r="5.85" fill="white"/>
<circle cx="197.03" cy="197.03" r="5.85" fill="none" stroke="black" stroke-width="0.25px"/>
<circle cx="197.03" cy="208.94" r="5.98" fill="black"/>
<circle cx="208.94" cy="208.94" r="5.98" fill="black"/>
<path d="
M32.18 30.02
C32.43 30.02 32.65 30.16 32.82 30.44
C33.00 30.72 33.09 31.11 33.09 31.61
C33.09 32.13 33.00 32.53 32.82 32.83
C32.64 33.12 32.44 33.27 32.22 33.27
C31.96 33.27 31.73 33.12 31.54 32.80
C31.35 32.49 31.25 32.08 31.25 31.56
C31.25 31.09 31.34 30.71 31.53 30.44
C31.71 30.16 31.93 30.02 32.18 30.02
Z
M28.77 26.72
C28.67 27.03 28.50 27.35 28.26 27.67
C28.02 28.00 27.74 28.28 27.42 28.51
L27.42 29.35
C27.61 29.25 27.81 29.09 28.04 28.89
C28.26 28.69 28.44 28.49 28.57 28.30
L28.57 33.87
L29.15 33.87
L29.15 26.72
Z
M32.26 26.72
C31.77 26.72 31.37 27.01 31.06 27.59
C30.74 28.18 30.59 29.16 30.59 30.54
C30.59 31.78 30.74 32.66 31.05 33.19
C31.35 33.72 31.74 33.99 32.21 33.99
C32.47 33.99 32.71 33.90 32.93 33.71
C33.15 33.53 33.33 33.24 33.47 32.86
C33.60 32.47 33.67 32.04 33.67 31.56
C33.67 30.86 33.54 30.30 33.26 29.88
C32.98 29.46 32.66 29.25 32.29 29.25
C32.07 29.25 31.86 29.33 31.66 29.49
C31.46 29.65 31.29 29.89 31.16 30.20
C31.16 29.32 31.25 28.66 31.42 28.21
C31.63 27.70 31.89 27.44 32.23 27.44
C32.44 27.44 32.63 27.55 32.78 27.78
C32.89 27.93 32.97 28.19 33.02 28.56
L33.59 28.49
C33.54 27.91 33.39 27.47 33.15 27.17
C32.91 26.87 32.62 26.72 32.26 26.72
Z
" fill="black" fill-rule="nonzero" />
<path d="
M28.67 98.07
L28.64 98.17
C28.54 98.46 28.38 98.77 28.15 99.08
C27.91 99.40 27.65 99.67 27.34 99.88
L27.28 99.93
L27.28 100.00
L27.28 100.84
L27.28 101.09
L27.49 100.97
C27.69 100.86 27.90 100.70 28.13 100.49
C28.24 100.39 28.34 100.29 28.43 100.20
L28.43 100.20
L28.43 105.36
L28.43 105.50
L29.29 105.50
L29.29 105.36
L29.29 98.21
L29.29 98.07
Z
M30.51 98.19
L30.51 98.33
L30.51 99.17
L30.51 99.32
L32.70 99.32
C32.45 99.78 32.21 100.33 31.99 100.96
C31.74 101.69 31.54 102.45 31.39 103.25
C31.25 104.05 31.17 104.76 31.16 105.36
L31.16 105.50
L31.90 105.50
L32.03 105.50
L32.04 105.37
C32.09 104.23 32.29 103.08 32.62 101.91
C32.96 100.75 33.35 99.81 33.80 99.09
L33.82 99.05
L33.82 99.01
L33.82 98.33
L33.82 98.19
Z
" fill="white" fill-rule="nonzero" />
<path d="
M135.70 145.69
C135.22 145.69 134.83 145.88 134.53 146.26
C134.24 146.63 134.08 147.17 134.04 147.88
L134.03 148.01
L134.15 148.03
L134.75 148.13
L134.91 148.15
L134.91 147.99
C134.91 147.56 134.99 147.23 135.14 147.01
C135.28 146.80 135.46 146.70 135.68 146.70
C135.68 146.70 135.68 146.70 135.68 146.70
C135.68 146.70 135.68 146.70 135.68 146.70
C135.88 146.70 136.05 146.79 136.19 146.98
C136.35 147.19 136.42 147.45 136.42 147.79
C136.42 148.08 136.34 148.40 136.19 148.75
C136.02 149.10 135.68 149.61 135.15 150.26
C134.68 150.85 134.36 151.36 134.18 151.79
C134.00 152.23 133.92 152.63 133.93 152.99
L133.93 153.13
L137.30 153.13
L137.30 152.98
L137.30 152.14
L137.30 152.00
L135.08 152.00
C135.12 151.92 135.17 151.83 135.23 151.74
C135.32 151.59 135.54 151.30 135.88 150.86
C136.43 150.16 136.79 149.60 136.99 149.17
C137.19 148.73 137.29 148.28 137.29 147.81
C137.29 147.27 137.16 146.79 136.90 146.36
C136.63 145.92 136.23 145.69 135.70 145.69
Z
M137.66 145.81
L137.66 145.95
L137.66 146.80
L137.66 146.94
L139.85 146.94
C139.60 147.41 139.36 147.96 139.14 148.59
C138.89 149.31 138.69 150.07 138.54 150.88
C138.40 151.68 138.32 152.38 138.31 152.98
L138.31 153.13
L139.05 153.13
L139.18 153.13
L139.19 152.99
C139.24 151.85 139.43 150.70 139.77 149.53
C140.11 148.37 140.50 147.43 140.95 146.71
L140.97 146.68
L140.97 146.63
L140.97 145.95
L140.97 145.81
Z
" fill="white" fill-rule="nonzero" />
<path d="
M147.51 121.82
C147.11 121.82 146.76 121.99 146.48 122.34
C146.21 122.67 146.04 123.15 145.96 123.79
L145.95 123.91
L146.06 123.94
L146.64 124.10
L146.80 124.14
L146.81 123.97
C146.85 123.57 146.94 123.27 147.08 123.08
C147.20 122.91 147.35 122.82 147.52 122.82
C147.52 122.82 147.52 122.82 147.52 122.82
C147.52 122.82 147.52 122.82 147.52 122.82
C147.69 122.82 147.83 122.90 147.95 123.07
C148.08 123.24 148.14 123.48 148.14 123.79
C148.14 124.12 148.06 124.38 147.91 124.57
C147.76 124.75 147.57 124.84 147.34 124.84
L147.34 124.84
L147.26 124.83
L147.11 124.81
L147.10 124.96
L147.03 125.73
L147.01 125.96
L147.23 125.87
C147.37 125.81 147.49 125.78 147.58 125.78
C147.58 125.78 147.58 125.78 147.58 125.78
C147.58 125.78 147.58 125.78 147.58 125.78
C147.79 125.78 147.97 125.89 148.11 126.10
C148.27 126.33 148.35 126.64 148.35 127.02
C148.35 127.43 148.26 127.76 148.09 128.02
C147.93 128.25 147.74 128.37 147.53 128.37
C147.53 128.37 147.53 128.37 147.52 128.37
C147.52 128.37 147.52 128.37 147.52 128.37
C147.33 128.37 147.17 128.28 147.05 128.09
C146.91 127.87 146.82 127.54 146.76 127.10
L146.74 126.94
L146.59 126.98
L146.02 127.09
L145.89 127.12
L145.90 127.24
C145.94 127.88 146.11 128.39 146.41 128.78
C146.71 129.18 147.09 129.38 147.53 129.38
C148.01 129.38 148.42 129.15 148.75 128.70
C149.08 128.26 149.24 127.69 149.24 127.01
C149.24 126.69 149.20 126.39 149.13 126.13
C149.04 125.86 148.94 125.65 148.80 125.48
C148.72 125.38 148.61 125.29 148.49 125.22
L148.49 125.22
C148.63 125.08 148.75 124.92 148.83 124.72
C148.95 124.46 149.01 124.15 149.01 123.81
C149.01 123.24 148.87 122.77 148.59 122.40
C148.30 122.01 147.94 121.82 147.51 121.82
Z
M151.14 121.82
C150.74 121.82 150.39 121.99 150.11 122.34
C149.84 122.67 149.67 123.15 149.59 123.79
L149.58 123.91
L149.69 123.94
L150.27 124.10
L150.43 124.14
L150.44 123.97
C150.48 123.57 150.57 123.27 150.71 123.08
C150.83 122.91 150.98 122.82 151.15 122.82
C151.15 122.82 151.15 122.82 151.15 122.82
C151.15 122.82 151.15 122.82 151.15 122.82
C151.32 122.82 151.46 122.90 151.58 123.07
C151.71 123.24 151.77 123.48 151.77 123.79
C151.77 124.12 151.69 124.38 151.54 124.57
C151.39 124.75 151.20 124.84 150.97 124.84
L150.97 124.84
L150.89 124.83
L150.74 124.81
L150.73 124.96
L150.66 125.73
L150.64 125.96
L150.86 125.87
C151.00 125.81 151.12 125.78 151.21 125.78
C151.21 125.78 151.21 125.78 151.21 125.78
C151.21 125.78 151.21 125.78 151.21 125.78
C151.42 125.78 151.60 125.89 151.74 126.10
C151.90 126.33 151.98 126.64 151.98 127.02
C151.98 127.43 151.89 127.76 151.72 128.02
C151.56 128.25 151.37 128.37 151.16 128.37
C151.16 128.37 151.16 128.37 151.15 128.37
C151.15 128.37 151.15 128.37 151.15 128.37
C150.96 128.37 150.80 128.28 150.68 128.09
C150.54 127.87 150.45 127.54 150.39 127.10
L150.37 126.94
L150.22 126.98
L149.65 127.09
L149.52 127.12
L149.53 127.24
C149.57 127.88 149.74 128.39 150.04 128.78
C150.34 129.18 150.72 129.38 151.16 129.38
C151.64 129.38 152.05 129.15 152.38 128.70
C152.71 128.26 152.87 127.69 152.87 127.01
C152.87 126.69 152.83 126.39 152.76 126.13
C152.67 125.86 152.57 125.65 152.43 125.48
C152.35 125.38 152.24 125.29 152.12 125.22
L152.12 125.22
C152.26 125.08 152.38 124.92 152.46 124.72
C152.58 124.46 152.64 124.15 152.64 123.81
C152.64 123.24 152.50 122.77 152.22 122.40
C151.93 122.01 151.57 121.82 151.14 121.82
Z
" fill="white" fill-rule="nonzero" />
<path d="
M151.20 146.49
C151.41 146.49 151.59 146.60 151.74 146.81
C151.89 147.02 151.97 147.29 151.97 147.63
C151.97 147.95 151.89 148.22 151.75 148.42
C151.60 148.62 151.42 148.73 151.21 148.73
C150.99 148.73 150.81 148.62 150.66 148.42
C150.52 148.21 150.44 147.93 150.44 147.58
C150.44 147.27 150.52 147.01 150.67 146.80
C150.82 146.60 150.99 146.49 151.20 146.49
Z
M151.19 149.44
C151.46 149.44 151.68 149.57 151.87 149.84
C152.06 150.11 152.16 150.46 152.16 150.90
C152.16 151.33 152.07 151.68 151.88 151.94
C151.70 152.20 151.47 152.33 151.21 152.33
C150.95 152.33 150.72 152.19 150.53 151.93
C150.35 151.66 150.25 151.31 150.25 150.87
C150.25 150.45 150.34 150.10 150.53 149.84
C150.71 149.57 150.93 149.44 151.19 149.44
Z
M147.61 145.77
C147.17 145.77 146.81 145.95 146.55 146.29
C146.28 146.64 146.12 147.15 146.08 147.83
L146.67 147.93
C146.67 147.47 146.76 147.11 146.93 146.87
C147.10 146.62 147.32 146.50 147.59 146.50
C147.84 146.50 148.04 146.61 148.21 146.84
C148.38 147.07 148.47 147.36 148.47 147.73
C148.47 148.04 148.39 148.38 148.22 148.74
C148.05 149.11 147.70 149.62 147.17 150.29
C146.71 150.86 146.39 151.36 146.22 151.78
C146.05 152.20 145.97 152.58 145.97 152.92
L149.06 152.92
L149.06 152.08
L146.77 152.08
C146.83 151.93 146.91 151.77 147.01 151.61
C147.11 151.45 147.33 151.15 147.68 150.71
C148.21 150.02 148.58 149.47 148.77 149.05
C148.96 148.63 149.06 148.20 149.06 147.75
C149.06 147.23 148.93 146.78 148.69 146.38
C148.44 145.97 148.08 145.77 147.61 145.77
Z
M151.20 145.77
C150.81 145.77 150.49 145.94 150.24 146.28
C149.98 146.62 149.85 147.06 149.85 147.60
C149.85 147.96 149.91 148.26 150.03 148.51
C150.15 148.75 150.32 148.93 150.55 149.06
C150.27 149.17 150.06 149.38 149.90 149.69
C149.74 150.00 149.67 150.39 149.67 150.87
C149.67 151.52 149.81 152.05 150.11 152.45
C150.40 152.85 150.77 153.05 151.21 153.05
C151.64 153.05 152.01 152.85 152.30 152.45
C152.60 152.05 152.74 151.53 152.74 150.89
C152.74 150.43 152.67 150.05 152.52 149.74
C152.36 149.43 152.15 149.20 151.87 149.06
C152.10 148.93 152.27 148.74 152.38 148.51
C152.50 148.27 152.55 147.98 152.55 147.63
C152.55 147.09 152.42 146.64 152.17 146.29
C151.91 145.95 151.59 145.77 151.20 145.77
Z
" fill="black" fill-rule="nonzero" />
<path d="
M151.35 169.44
L151.32 169.54
C151.23 169.83 151.07 170.14 150.83 170.45
C150.60 170.77 150.33 171.04 150.03 171.25
L149.97 171.30
L149.97 171.37
L149.97 172.21
L149.97 172.46
L150.18 172.34
C150.37 172.23 150.59 172.07 150.82 171.86
C150.93 171.76 151.03 171.66 151.11 171.57
L151.11 171.57
L151.11 176.73
L151.11 176.87
L151.97 176.87
L151.97 176.73
L151.97 169.58
L151.97 169.44
Z
M147.51 169.44
C147.11 169.44 146.76 169.61 146.48 169.96
C146.21 170.29 146.04 170.77 145.96 171.41
L145.95 171.53
L146.06 171.56
L146.64 171.72
L146.80 171.76
L146.81 171.60
C146.85 171.19 146.94 170.89 147.08 170.70
C147.20 170.53 147.35 170.44 147.52 170.44
C147.52 170.44 147.52 170.44 147.52 170.44
C147.52 170.44 147.52 170.44 147.52 170.44
C147.69 170.44 147.83 170.52 147.95 170.69
C148.08 170.87 148.14 171.11 148.14 171.41
C148.14 171.74 148.06 172.00 147.91 172.19
C147.76 172.37 147.57 172.46 147.34 172.46
L147.34 172.46
L147.26 172.45
L147.11 172.44
L147.10 172.58
L147.03 173.35
L147.01 173.58
L147.23 173.49
C147.37 173.43 147.49 173.41 147.58 173.41
C147.58 173.41 147.58 173.41 147.58 173.41
C147.58 173.41 147.58 173.41 147.58 173.41
C147.79 173.41 147.97 173.51 148.11 173.72
C148.27 173.95 148.35 174.26 148.35 174.64
C148.35 175.05 148.26 175.39 148.09 175.64
C147.93 175.88 147.74 175.99 147.53 175.99
C147.53 175.99 147.53 175.99 147.52 175.99
C147.52 175.99 147.52 175.99 147.52 175.99
C147.33 175.99 147.17 175.90 147.05 175.71
C146.91 175.49 146.82 175.16 146.76 174.72
L146.74 174.57
L146.59 174.60
L146.02 174.71
L145.89 174.74
L145.90 174.86
C145.94 175.50 146.11 176.02 146.41 176.40
C146.71 176.80 147.09 177.00 147.53 177.00
C148.01 177.00 148.42 176.77 148.75 176.32
C149.08 175.88 149.24 175.31 149.24 174.63
C149.24 174.31 149.20 174.02 149.13 173.75
C149.04 173.49 148.94 173.27 148.80 173.11
C148.72 173.00 148.61 172.91 148.49 172.84
L148.49 172.84
C148.63 172.70 148.75 172.54 148.83 172.35
C148.95 172.08 149.01 171.77 149.01 171.43
C149.01 170.86 148.87 170.40 148.59 170.02
C148.30 169.63 147.94 169.44 147.51 169.44
Z
" fill="white" fill-rule="nonzero" />
<path d="
M163.41 123.39
L163.41 126.60
L161.95 126.60
L163.41 123.39
Z
M163.52 121.99
L161.39 126.60
L161.39 127.41
L163.41 127.41
L163.41 129.11
L163.99 129.11
L163.99 127.41
L164.62 127.41
L164.62 126.60
L163.99 126.60
L163.99 121.99
Z
M159.42 121.96
C159.06 121.96 158.75 122.11 158.50 122.43
C158.24 122.74 158.08 123.20 158.01 123.81
L158.58 123.96
C158.62 123.53 158.72 123.21 158.87 123.00
C159.02 122.78 159.21 122.68 159.43 122.68
C159.64 122.68 159.82 122.78 159.97 122.98
C160.11 123.18 160.19 123.45 160.19 123.79
C160.19 124.15 160.10 124.44 159.92 124.66
C159.75 124.87 159.52 124.98 159.24 124.98
L159.15 124.97
L159.08 125.74
C159.24 125.67 159.38 125.64 159.48 125.64
C159.74 125.64 159.96 125.77 160.13 126.02
C160.31 126.27 160.40 126.61 160.40 127.02
C160.40 127.46 160.30 127.82 160.11 128.10
C159.92 128.37 159.69 128.51 159.43 128.51
C158.95 128.51 158.64 128.05 158.52 127.11
L157.95 127.23
C157.99 127.84 158.15 128.33 158.42 128.69
C158.70 129.06 159.04 129.24 159.44 129.24
C159.87 129.24 160.24 129.03 160.55 128.61
C160.85 128.20 161.01 127.66 161.01 127.01
C161.01 126.70 160.97 126.42 160.90 126.17
C160.82 125.92 160.72 125.72 160.60 125.57
C160.48 125.42 160.32 125.32 160.14 125.25
C160.34 125.11 160.50 124.91 160.61 124.67
C160.72 124.42 160.78 124.13 160.78 123.81
C160.78 123.27 160.65 122.83 160.38 122.48
C160.12 122.13 159.80 121.96 159.42 121.96
Z
" fill="black" fill-rule="nonzero" />
<path d="
M163.14 149.08
C163.39 149.08 163.61 149.22 163.78 149.49
C163.96 149.77 164.05 150.16 164.05 150.67
C164.05 151.18 163.96 151.59 163.78 151.88
C163.60 152.18 163.40 152.33 163.18 152.33
C162.92 152.33 162.69 152.17 162.50 151.86
C162.31 151.55 162.21 151.13 162.21 150.62
C162.21 150.14 162.30 149.77 162.49 149.49
C162.67 149.21 162.89 149.08 163.14 149.08
Z
M159.51 145.77
C159.07 145.77 158.72 145.95 158.45 146.29
C158.18 146.64 158.03 147.15 157.99 147.83
L158.58 147.93
C158.58 147.47 158.66 147.11 158.84 146.87
C159.01 146.62 159.23 146.50 159.49 146.50
C159.74 146.50 159.95 146.61 160.12 146.84
C160.29 147.07 160.37 147.36 160.37 147.73
C160.37 148.04 160.29 148.38 160.13 148.74
C159.96 149.11 159.61 149.62 159.07 150.29
C158.61 150.86 158.30 151.36 158.13 151.78
C157.95 152.20 157.87 152.58 157.88 152.92
L160.97 152.92
L160.97 152.08
L158.68 152.08
C158.74 151.93 158.82 151.77 158.92 151.61
C159.02 151.45 159.24 151.15 159.58 150.71
C160.12 150.02 160.48 149.47 160.67 149.05
C160.87 148.63 160.96 148.20 160.96 147.75
C160.96 147.23 160.84 146.78 160.59 146.38
C160.35 145.97 159.99 145.77 159.51 145.77
Z
M163.22 145.77
C162.73 145.77 162.33 146.06 162.02 146.65
C161.70 147.23 161.55 148.21 161.55 149.59
C161.55 150.83 161.70 151.72 162.01 152.25
C162.31 152.78 162.70 153.05 163.17 153.05
C163.43 153.05 163.67 152.95 163.89 152.77
C164.11 152.58 164.29 152.30 164.43 151.91
C164.56 151.52 164.63 151.09 164.63 150.62
C164.63 149.91 164.50 149.35 164.22 148.93
C163.94 148.51 163.62 148.30 163.25 148.30
C163.03 148.30 162.82 148.38 162.62 148.54
C162.42 148.70 162.25 148.94 162.12 149.25
C162.12 148.38 162.21 147.72 162.38 147.27
C162.59 146.75 162.85 146.49 163.19 146.49
C163.40 146.49 163.59 146.61 163.74 146.83
C163.85 146.99 163.93 147.25 163.98 147.61
L164.55 147.55
C164.50 146.97 164.35 146.53 164.12 146.23
C163.88 145.92 163.58 145.77 163.22 145.77
Z
" fill="black" fill-rule="nonzero" />
<path d="
M163.14 157.68
C162.70 157.68 162.35 157.85 162.08 158.19
C161.81 158.54 161.66 159.05 161.62 159.74
L162.21 159.83
C162.21 159.37 162.29 159.02 162.47 158.77
C162.64 158.52 162.86 158.40 163.12 158.40
C163.37 158.40 163.58 158.51 163.75 158.74
C163.92 158.97 164.00 159.27 164.00 159.63
C164.00 159.94 163.92 160.28 163.76 160.65
C163.59 161.01 163.24 161.53 162.70 162.19
C162.24 162.77 161.93 163.26 161.76 163.69
C161.58 164.11 161.50 164.49 161.51 164.83
L164.60 164.83
L164.60 163.99
L162.31 163.99
C162.37 163.83 162.45 163.67 162.55 163.51
C162.65 163.35 162.87 163.05 163.21 162.62
C163.75 161.92 164.11 161.37 164.30 160.95
C164.50 160.54 164.59 160.10 164.59 159.65
C164.59 159.14 164.47 158.68 164.22 158.28
C163.98 157.88 163.62 157.68 163.14 157.68
Z
M159.42 157.68
C159.06 157.68 158.75 157.83 158.50 158.14
C158.24 158.45 158.08 158.91 158.01 159.52
L158.58 159.68
C158.62 159.25 158.72 158.93 158.87 158.71
C159.02 158.50 159.21 158.39 159.43 158.39
C159.64 158.39 159.82 158.50 159.97 158.70
C160.11 158.90 160.19 159.17 160.19 159.50
C160.19 159.87 160.10 160.16 159.92 160.37
C159.75 160.59 159.52 160.70 159.24 160.70
L159.15 160.69
L159.08 161.46
C159.24 161.39 159.38 161.36 159.48 161.36
C159.74 161.36 159.96 161.48 160.13 161.74
C160.31 161.99 160.40 162.32 160.40 162.74
C160.40 163.18 160.30 163.54 160.11 163.81
C159.92 164.09 159.69 164.23 159.43 164.23
C158.95 164.23 158.64 163.76 158.52 162.83
L157.95 162.95
C157.99 163.56 158.15 164.05 158.42 164.41
C158.70 164.77 159.04 164.95 159.44 164.95
C159.87 164.95 160.24 164.75 160.55 164.33
C160.85 163.91 161.01 163.38 161.01 162.72
C161.01 162.42 160.97 162.14 160.90 161.89
C160.82 161.64 160.72 161.44 160.60 161.29
C160.48 161.14 160.32 161.03 160.14 160.97
C160.34 160.83 160.50 160.63 160.61 160.38
C160.72 160.13 160.78 159.85 160.78 159.52
C160.78 158.99 160.65 158.55 160.38 158.20
C160.12 157.85 159.80 157.68 159.42 157.68
Z
" fill="black" fill-rule="nonzero" />
<path d="
M163.08 170.31
C163.36 170.31 163.59 170.50 163.77 170.89
C163.94 171.29 164.03 172.06 164.03 173.22
C164.03 174.37 163.94 175.14 163.77 175.54
C163.59 175.94 163.37 176.14 163.11 176.14
C162.83 176.14 162.61 175.94 162.43 175.54
C162.25 175.15 162.16 174.38 162.16 173.22
C162.16 172.07 162.25 171.30 162.42 170.90
C162.60 170.50 162.82 170.31 163.08 170.31
Z
M163.10 169.58
C162.60 169.58 162.22 169.89 161.96 170.50
C161.70 171.12 161.58 172.03 161.58 173.22
C161.58 174.55 161.72 175.49 162.00 176.04
C162.28 176.58 162.65 176.85 163.09 176.85
C163.60 176.85 163.98 176.55 164.24 175.93
C164.49 175.31 164.62 174.41 164.62 173.22
C164.62 171.90 164.47 170.93 164.16 170.33
C163.90 169.83 163.55 169.58 163.10 169.58
Z
M159.42 169.58
C159.06 169.58 158.75 169.74 158.50 170.05
C158.24 170.36 158.08 170.82 158.01 171.43
L158.58 171.58
C158.62 171.15 158.72 170.83 158.87 170.62
C159.02 170.41 159.21 170.30 159.43 170.30
C159.64 170.30 159.82 170.40 159.97 170.60
C160.11 170.81 160.19 171.07 160.19 171.41
C160.19 171.77 160.10 172.06 159.92 172.28
C159.75 172.49 159.52 172.60 159.24 172.60
L159.15 172.59
L159.08 173.36
C159.24 173.30 159.38 173.26 159.48 173.26
C159.74 173.26 159.96 173.39 160.13 173.64
C160.31 173.90 160.40 174.23 160.40 174.64
C160.40 175.08 160.30 175.44 160.11 175.72
C159.92 176.00 159.69 176.14 159.43 176.14
C158.95 176.14 158.64 175.67 158.52 174.74
L157.95 174.85
C157.99 175.46 158.15 175.95 158.42 176.31
C158.70 176.68 159.04 176.86 159.44 176.86
C159.87 176.86 160.24 176.65 160.55 176.23
C160.85 175.82 161.01 175.28 161.01 174.63
C161.01 174.32 160.97 174.04 160.90 173.79
C160.82 173.54 160.72 173.34 160.60 173.20
C160.48 173.05 160.32 172.94 160.14 172.88
C160.34 172.73 160.50 172.54 160.61 172.29
C160.72 172.04 160.78 171.75 160.78 171.43
C160.78 170.90 160.65 170.46 160.38 170.11
C160.12 169.76 159.80 169.58 159.42 169.58
Z
" fill="black" fill-rule="nonzero" />
<path d="
M163.11 182.35
C163.11 182.35 163.11 182.35 163.11 182.35
C163.12 182.35 163.12 182.35 163.12 182.35
C163.30 182.35 163.47 182.48 163.62 182.73
C163.79 182.99 163.87 183.37 163.87 183.85
C163.87 184.33 163.79 184.70 163.63 184.96
C163.48 185.19 163.31 185.31 163.11 185.31
C163.11 185.31 163.10 185.31 163.10 185.31
C163.10 185.31 163.10 185.31 163.10 185.31
C162.89 185.31 162.71 185.19 162.56 184.96
C162.39 184.71 162.31 184.36 162.31 183.92
C162.31 183.43 162.40 183.04 162.58 182.75
C162.74 182.49 162.92 182.35 163.11 182.35
Z
M159.63 181.35
L159.60 181.45
C159.50 181.74 159.34 182.05 159.11 182.36
C158.87 182.68 158.61 182.94 158.30 183.16
L158.24 183.20
L158.24 183.28
L158.24 184.12
L158.24 184.36
L158.45 184.25
C158.65 184.14 158.86 183.98 159.09 183.77
C159.20 183.67 159.30 183.57 159.39 183.47
L159.39 183.47
L159.39 188.64
L159.39 188.78
L160.25 188.78
L160.25 188.64
L160.25 181.49
L160.25 181.35
Z
M163.05 181.35
C162.59 181.35 162.20 181.58 161.89 182.05
C161.58 182.51 161.43 183.12 161.43 183.89
C161.43 184.64 161.58 185.24 161.87 185.68
C162.18 186.14 162.54 186.37 162.97 186.37
C163.22 186.37 163.45 186.27 163.68 186.08
C163.77 186.01 163.85 185.93 163.92 185.83
L163.92 185.83
C163.90 186.23 163.85 186.58 163.77 186.89
C163.67 187.28 163.55 187.55 163.41 187.70
C163.28 187.83 163.14 187.90 162.99 187.90
C162.99 187.90 162.99 187.90 162.99 187.90
C162.99 187.90 162.99 187.90 162.99 187.90
C162.82 187.90 162.69 187.83 162.59 187.68
C162.47 187.51 162.39 187.25 162.35 186.90
L162.34 186.76
L162.19 186.78
L161.64 186.85
L161.51 186.87
L161.52 187.01
C161.57 187.61 161.72 188.07 161.98 188.40
C162.24 188.73 162.58 188.90 162.98 188.90
C163.33 188.90 163.65 188.77 163.93 188.49
C164.20 188.22 164.41 187.81 164.56 187.24
C164.72 186.69 164.79 185.91 164.79 184.92
C164.79 184.03 164.72 183.35 164.58 182.87
C164.43 182.38 164.23 182.00 163.96 181.75
C163.68 181.48 163.38 181.35 163.05 181.35
Z
" fill="white" fill-rule="nonzero" />
<path d="
M174.43 124.48
L174.43 124.48
L174.43 124.48
C174.43 124.48 174.43 124.48 174.43 124.48
Z
M173.91 121.94
L173.90 122.07
L173.44 125.73
L173.42 125.86
L173.55 125.88
L174.09 125.99
L174.21 126.01
L174.25 125.90
C174.33 125.71 174.44 125.56 174.57 125.45
C174.70 125.35 174.83 125.30 174.97 125.30
C174.97 125.30 174.97 125.30 174.97 125.30
C174.97 125.30 174.97 125.30 174.97 125.30
C175.21 125.30 175.41 125.42 175.57 125.66
C175.74 125.92 175.83 126.28 175.83 126.76
C175.83 127.28 175.74 127.68 175.56 127.97
C175.39 128.24 175.20 128.37 174.98 128.37
C174.98 128.37 174.97 128.37 174.97 128.37
C174.97 128.37 174.97 128.37 174.97 128.37
C174.80 128.37 174.65 128.28 174.51 128.10
C174.36 127.89 174.27 127.58 174.22 127.15
L174.21 127.01
L174.06 127.03
L173.46 127.10
L173.33 127.12
L173.34 127.25
C173.38 127.91 173.55 128.42 173.85 128.79
C174.15 129.18 174.53 129.37 174.98 129.37
C175.52 129.37 175.95 129.10 176.27 128.56
C176.57 128.04 176.72 127.42 176.72 126.70
C176.72 125.96 176.57 125.37 176.26 124.93
C175.94 124.48 175.56 124.25 175.12 124.25
C174.88 124.25 174.65 124.32 174.43 124.48
L174.43 124.48
L174.62 123.06
L176.50 123.06
L176.50 122.92
L176.50 122.09
L176.50 121.94
Z
M171.32 121.82
C170.92 121.82 170.58 121.99 170.29 122.34
C170.02 122.67 169.85 123.15 169.77 123.79
L169.76 123.91
L169.88 123.94
L170.45 124.10
L170.61 124.14
L170.63 123.97
C170.66 123.57 170.75 123.27 170.89 123.08
C171.01 122.91 171.16 122.82 171.33 122.82
C171.33 122.82 171.33 122.82 171.33 122.82
C171.33 122.82 171.33 122.82 171.33 122.82
C171.50 122.82 171.64 122.90 171.76 123.07
C171.89 123.24 171.95 123.48 171.95 123.79
C171.95 124.12 171.87 124.38 171.72 124.57
C171.57 124.75 171.38 124.84 171.15 124.84
L171.15 124.84
L171.07 124.83
L170.92 124.81
L170.91 124.96
L170.84 125.73
L170.82 125.96
L171.04 125.87
C171.18 125.81 171.30 125.78 171.39 125.78
C171.39 125.78 171.39 125.78 171.39 125.78
C171.39 125.78 171.39 125.78 171.39 125.78
C171.60 125.78 171.78 125.89 171.92 126.10
C172.08 126.33 172.16 126.64 172.16 127.02
C172.16 127.43 172.07 127.76 171.90 128.02
C171.74 128.25 171.55 128.37 171.34 128.37
C171.34 128.37 171.34 128.37 171.34 128.37
C171.33 128.37 171.33 128.37 171.33 128.37
C171.14 128.37 170.99 128.28 170.86 128.09
C170.73 127.87 170.63 127.54 170.57 127.10
L170.55 126.94
L170.40 126.98
L169.83 127.09
L169.71 127.12
L169.71 127.24
C169.75 127.88 169.92 128.39 170.22 128.78
C170.52 129.18 170.90 129.38 171.34 129.38
C171.82 129.38 172.23 129.15 172.56 128.70
C172.89 128.26 173.05 127.69 173.05 127.01
C173.06 126.69 173.02 126.39 172.94 126.13
C172.86 125.86 172.75 125.65 172.61 125.48
C172.53 125.38 172.42 125.29 172.31 125.22
L172.31 125.22
C172.44 125.08 172.56 124.92 172.64 124.72
C172.77 124.46 172.83 124.15 172.83 123.81
C172.83 123.24 172.68 122.77 172.40 122.40
C172.11 122.01 171.75 121.82 171.32 121.82
Z
" fill="white" fill-rule="nonzero" />
<path d="
M174.43 136.39
L174.43 136.39
L174.43 136.39
C174.43 136.39 174.43 136.39 174.43 136.39
Z
M171.42 133.73
C170.93 133.73 170.54 133.92 170.25 134.30
C169.96 134.67 169.80 135.21 169.75 135.92
L169.74 136.05
L169.87 136.07
L170.46 136.16
L170.63 136.19
L170.63 136.02
C170.63 135.59 170.70 135.26 170.86 135.04
C171.00 134.84 171.18 134.73 171.39 134.73
C171.39 134.73 171.40 134.73 171.40 134.73
C171.40 134.73 171.40 134.73 171.40 134.73
C171.60 134.73 171.77 134.83 171.91 135.02
C172.06 135.22 172.14 135.49 172.14 135.82
C172.14 136.11 172.06 136.43 171.90 136.78
C171.74 137.13 171.40 137.64 170.87 138.30
C170.40 138.88 170.08 139.39 169.90 139.82
C169.72 140.26 169.63 140.66 169.64 141.02
L169.65 141.16
L173.02 141.16
L173.02 141.02
L173.02 140.18
L173.02 140.04
L170.80 140.04
C170.84 139.95 170.89 139.86 170.94 139.78
C171.04 139.62 171.26 139.33 171.60 138.90
C172.14 138.19 172.51 137.63 172.71 137.20
C172.91 136.77 173.01 136.31 173.01 135.84
C173.01 135.30 172.88 134.82 172.62 134.40
C172.35 133.95 171.95 133.73 171.42 133.73
Z
M173.91 133.85
L173.90 133.98
L173.44 137.63
L173.42 137.77
L173.55 137.79
L174.09 137.90
L174.21 137.92
L174.25 137.81
C174.33 137.62 174.44 137.47 174.57 137.36
C174.70 137.26 174.83 137.21 174.97 137.21
C174.97 137.21 174.97 137.21 174.97 137.21
C174.97 137.21 174.97 137.21 174.97 137.21
C175.21 137.21 175.41 137.33 175.57 137.57
C175.74 137.82 175.83 138.19 175.83 138.67
C175.83 139.19 175.74 139.59 175.56 139.88
C175.39 140.15 175.20 140.28 174.98 140.28
C174.98 140.28 174.97 140.28 174.97 140.28
C174.97 140.28 174.97 140.28 174.97 140.28
C174.80 140.28 174.65 140.19 174.51 140.00
C174.36 139.80 174.27 139.49 174.22 139.06
L174.21 138.92
L174.06 138.93
L173.46 139.01
L173.33 139.03
L173.34 139.16
C173.38 139.81 173.55 140.33 173.85 140.70
C174.15 141.09 174.53 141.28 174.98 141.28
C175.52 141.28 175.95 141.01 176.27 140.47
C176.57 139.95 176.72 139.33 176.72 138.60
C176.72 137.87 176.57 137.28 176.26 136.84
C175.94 136.38 175.56 136.16 175.12 136.15
C174.88 136.16 174.65 136.23 174.43 136.39
L174.43 136.39
L174.62 134.97
L176.50 134.97
L176.50 134.83
L176.50 133.99
L176.50 133.85
Z
" fill="white" fill-rule="nonzero" />
<path d="
M175.02 146.64
C175.02 146.64 175.02 146.64 175.02 146.64
C175.02 146.64 175.02 146.64 175.02 146.64
C175.21 146.64 175.37 146.76 175.53 147.01
C175.69 147.28 175.78 147.65 175.78 148.13
C175.78 148.62 175.70 148.99 175.53 149.24
C175.39 149.48 175.21 149.60 175.01 149.60
C175.01 149.60 175.01 149.60 175.01 149.60
C175.01 149.60 175.01 149.60 175.00 149.60
C174.80 149.60 174.62 149.48 174.47 149.24
C174.30 148.99 174.21 148.64 174.21 148.21
C174.21 147.72 174.30 147.33 174.48 147.04
C174.64 146.77 174.82 146.64 175.02 146.64
Z
M171.42 145.63
C170.93 145.63 170.54 145.82 170.25 146.20
C169.96 146.57 169.80 147.11 169.75 147.82
L169.74 147.95
L169.87 147.97
L170.46 148.07
L170.63 148.09
L170.63 147.93
C170.63 147.49 170.70 147.17 170.86 146.95
C171.00 146.74 171.18 146.64 171.39 146.64
C171.39 146.64 171.40 146.64 171.40 146.64
C171.40 146.64 171.40 146.64 171.40 146.64
C171.60 146.64 171.77 146.73 171.91 146.92
C172.06 147.13 172.14 147.39 172.14 147.73
C172.14 148.02 172.06 148.34 171.90 148.69
C171.74 149.04 171.40 149.54 170.87 150.20
C170.40 150.79 170.08 151.30 169.90 151.73
C169.72 152.17 169.63 152.57 169.64 152.93
L169.65 153.07
L173.02 153.07
L173.02 152.92
L173.02 152.08
L173.02 151.94
L170.80 151.94
C170.84 151.86 170.89 151.77 170.94 151.68
C171.04 151.53 171.26 151.23 171.60 150.80
C172.14 150.10 172.51 149.54 172.71 149.11
C172.91 148.67 173.01 148.22 173.01 147.75
C173.01 147.21 172.88 146.73 172.62 146.30
C172.35 145.86 171.95 145.63 171.42 145.63
Z
M174.95 145.63
C174.49 145.63 174.11 145.87 173.79 146.34
C173.49 146.79 173.34 147.40 173.34 148.18
C173.34 148.93 173.48 149.52 173.78 149.96
C174.08 150.42 174.45 150.65 174.88 150.65
C175.12 150.65 175.36 150.56 175.59 150.37
C175.68 150.29 175.76 150.21 175.83 150.12
L175.83 150.12
C175.81 150.51 175.76 150.86 175.68 151.17
C175.58 151.57 175.46 151.84 175.32 151.98
C175.19 152.12 175.05 152.18 174.90 152.18
C174.90 152.18 174.90 152.18 174.90 152.18
C174.89 152.18 174.89 152.18 174.89 152.18
C174.73 152.18 174.60 152.11 174.50 151.96
C174.38 151.80 174.30 151.54 174.26 151.18
L174.24 151.04
L174.10 151.06
L173.55 151.14
L173.41 151.16
L173.42 151.29
C173.47 151.89 173.63 152.35 173.88 152.68
C174.15 153.02 174.48 153.19 174.88 153.19
C175.24 153.19 175.55 153.05 175.83 152.77
C176.10 152.51 176.32 152.09 176.47 151.52
C176.62 150.97 176.70 150.20 176.70 149.21
C176.70 148.32 176.63 147.63 176.48 147.15
C176.34 146.66 176.13 146.29 175.86 146.03
C175.58 145.76 175.28 145.63 174.95 145.63
Z
" fill="white" fill-rule="nonzero" />
<path d="
M186.92 170.30
C187.12 170.30 187.30 170.41 187.46 170.62
C187.61 170.83 187.68 171.11 187.68 171.44
C187.68 171.76 187.61 172.03 187.46 172.23
C187.31 172.44 187.14 172.54 186.93 172.54
C186.71 172.54 186.53 172.43 186.38 172.23
C186.23 172.02 186.16 171.74 186.16 171.39
C186.16 171.08 186.23 170.82 186.38 170.61
C186.53 170.41 186.71 170.30 186.92 170.30
Z
M186.91 173.25
C187.17 173.25 187.40 173.39 187.59 173.65
C187.78 173.92 187.87 174.27 187.87 174.71
C187.87 175.14 187.78 175.49 187.60 175.75
C187.41 176.01 187.19 176.14 186.93 176.14
C186.66 176.14 186.44 176.00 186.25 175.74
C186.06 175.47 185.97 175.12 185.97 174.68
C185.97 174.26 186.06 173.92 186.24 173.65
C186.43 173.38 186.65 173.25 186.91 173.25
Z
M183.54 169.58
C183.45 169.89 183.28 170.21 183.03 170.54
C182.79 170.87 182.51 171.14 182.20 171.37
L182.20 172.22
C182.38 172.11 182.59 171.96 182.81 171.76
C183.03 171.56 183.21 171.36 183.34 171.16
L183.34 176.74
L183.92 176.74
L183.92 169.58
Z
M186.91 169.58
C186.53 169.58 186.21 169.75 185.95 170.09
C185.70 170.43 185.57 170.87 185.57 171.42
C185.57 171.77 185.63 172.08 185.75 172.32
C185.86 172.56 186.04 172.74 186.27 172.87
C185.99 172.98 185.77 173.19 185.62 173.50
C185.46 173.81 185.38 174.20 185.38 174.68
C185.38 175.33 185.53 175.86 185.82 176.26
C186.12 176.66 186.48 176.86 186.93 176.86
C187.36 176.86 187.73 176.66 188.02 176.26
C188.31 175.86 188.46 175.34 188.46 174.70
C188.46 174.24 188.38 173.86 188.23 173.55
C188.08 173.24 187.86 173.01 187.58 172.87
C187.81 172.74 187.99 172.55 188.10 172.32
C188.21 172.08 188.27 171.79 188.27 171.44
C188.27 170.90 188.14 170.45 187.88 170.10
C187.63 169.76 187.30 169.58 186.91 169.58
Z
" fill="black" fill-rule="nonzero" />
<path d="
M199.13 147.27
L199.13 150.48
L197.67 150.48
L199.13 147.27
Z
M195.23 145.83
C194.79 145.83 194.44 146.01 194.17 146.35
C193.90 146.70 193.75 147.21 193.70 147.89
L194.30 147.99
C194.30 147.53 194.38 147.17 194.55 146.93
C194.72 146.68 194.94 146.56 195.21 146.56
C195.46 146.56 195.67 146.67 195.84 146.90
C196.01 147.13 196.09 147.42 196.09 147.79
C196.09 148.10 196.01 148.44 195.84 148.80
C195.68 149.17 195.33 149.68 194.79 150.35
C194.33 150.93 194.01 151.42 193.84 151.84
C193.67 152.26 193.59 152.64 193.60 152.98
L196.69 152.98
L196.69 152.14
L194.39 152.14
C194.45 151.99 194.54 151.83 194.64 151.67
C194.74 151.51 194.96 151.21 195.30 150.77
C195.83 150.08 196.20 149.53 196.39 149.11
C196.58 148.69 196.68 148.26 196.68 147.81
C196.68 147.29 196.56 146.84 196.31 146.44
C196.07 146.03 195.70 145.83 195.23 145.83
Z
M199.24 145.86
L197.11 150.48
L197.11 151.28
L199.13 151.28
L199.13 152.98
L199.71 152.98
L199.71 151.28
L200.34 151.28
L200.34 150.48
L199.71 150.48
L199.71 145.86
Z
" fill="black" fill-rule="nonzero" />
<path d="
M195.23 181.55
C194.79 181.55 194.44 181.72 194.17 182.07
C193.90 182.41 193.75 182.93 193.70 183.61
L194.30 183.70
C194.30 183.24 194.38 182.89 194.55 182.64
C194.72 182.40 194.94 182.27 195.21 182.27
C195.46 182.27 195.67 182.39 195.84 182.62
C196.01 182.84 196.09 183.14 196.09 183.50
C196.09 183.82 196.01 184.16 195.84 184.52
C195.68 184.89 195.33 185.40 194.79 186.07
C194.33 186.64 194.01 187.14 193.84 187.56
C193.67 187.98 193.59 188.36 193.60 188.70
L196.69 188.70
L196.69 187.86
L194.39 187.86
C194.45 187.70 194.54 187.54 194.64 187.38
C194.74 187.23 194.96 186.93 195.30 186.49
C195.83 185.80 196.20 185.24 196.39 184.83
C196.58 184.41 196.68 183.98 196.68 183.52
C196.68 183.01 196.56 182.55 196.31 182.15
C196.07 181.75 195.70 181.55 195.23 181.55
Z
M198.86 181.55
C198.42 181.55 198.07 181.72 197.80 182.07
C197.53 182.41 197.38 182.93 197.33 183.61
L197.93 183.70
C197.93 183.24 198.01 182.89 198.18 182.64
C198.35 182.40 198.57 182.27 198.84 182.27
C199.09 182.27 199.30 182.39 199.47 182.62
C199.64 182.84 199.72 183.14 199.72 183.50
C199.72 183.82 199.64 184.16 199.47 184.52
C199.31 184.89 198.96 185.40 198.42 186.07
C197.96 186.64 197.64 187.14 197.47 187.56
C197.30 187.98 197.22 188.36 197.23 188.70
L200.32 188.70
L200.32 187.86
L198.02 187.86
C198.08 187.70 198.17 187.54 198.27 187.38
C198.37 187.23 198.59 186.93 198.93 186.49
C199.46 185.80 199.83 185.24 200.02 184.83
C200.21 184.41 200.31 183.98 200.31 183.52
C200.31 183.01 200.19 182.55 199.94 182.15
C199.70 181.75 199.33 181.55 198.86 181.55
Z
" fill="black" fill-rule="nonzero" />
<path d="
M198.79 194.12
C199.07 194.12 199.30 194.31 199.48 194.71
C199.66 195.10 199.75 195.87 199.75 197.03
C199.75 198.18 199.66 198.95 199.48 199.35
C199.31 199.75 199.09 199.95 198.83 199.95
C198.55 199.95 198.32 199.75 198.14 199.36
C197.97 198.96 197.88 198.19 197.88 197.03
C197.88 195.89 197.97 195.11 198.14 194.72
C198.32 194.32 198.53 194.12 198.79 194.12
Z
M195.23 193.39
C194.79 193.39 194.44 193.57 194.17 193.91
C193.90 194.26 193.75 194.77 193.70 195.45
L194.30 195.55
C194.30 195.09 194.38 194.73 194.55 194.49
C194.72 194.24 194.94 194.12 195.21 194.12
C195.46 194.12 195.67 194.23 195.84 194.46
C196.01 194.69 196.09 194.99 196.09 195.35
C196.09 195.66 196.01 196.00 195.84 196.37
C195.68 196.73 195.33 197.25 194.79 197.91
C194.33 198.49 194.01 198.98 193.84 199.40
C193.67 199.83 193.59 200.21 193.60 200.55
L196.69 200.55
L196.69 199.71
L194.39 199.71
C194.45 199.55 194.54 199.39 194.64 199.23
C194.74 199.07 194.96 198.77 195.30 198.34
C195.83 197.64 196.20 197.09 196.39 196.67
C196.58 196.26 196.68 195.82 196.68 195.37
C196.68 194.86 196.56 194.40 196.31 194.00
C196.07 193.60 195.70 193.39 195.23 193.39
Z
M198.82 193.39
C198.32 193.39 197.94 193.70 197.68 194.32
C197.42 194.93 197.29 195.84 197.29 197.03
C197.29 198.37 197.43 199.31 197.72 199.85
C198.00 200.40 198.37 200.67 198.81 200.67
C199.32 200.67 199.70 200.36 199.95 199.74
C200.21 199.13 200.34 198.22 200.34 197.03
C200.34 195.71 200.18 194.75 199.87 194.14
C199.62 193.64 199.26 193.39 198.82 193.39
Z
" fill="black" fill-rule="nonzero" />
<path d="
M195.23 205.22
C194.74 205.22 194.35 205.41 194.06 205.79
C193.77 206.16 193.61 206.70 193.56 207.41
L193.56 207.54
L193.68 207.56
L194.27 207.65
L194.44 207.68
L194.44 207.51
C194.44 207.08 194.51 206.76 194.67 206.53
C194.81 206.33 194.99 206.23 195.20 206.23
C195.21 206.23 195.21 206.23 195.21 206.23
C195.21 206.23 195.21 206.23 195.21 206.23
C195.41 206.23 195.58 206.32 195.72 206.51
C195.87 206.72 195.95 206.98 195.95 207.31
C195.95 207.61 195.87 207.93 195.71 208.27
C195.55 208.63 195.21 209.13 194.68 209.79
C194.21 210.37 193.89 210.88 193.71 211.32
C193.53 211.76 193.45 212.16 193.45 212.52
L193.46 212.65
L196.83 212.65
L196.83 212.51
L196.83 211.67
L196.83 211.53
L194.61 211.53
C194.65 211.44 194.70 211.36 194.76 211.27
C194.85 211.12 195.07 210.82 195.41 210.39
C195.95 209.69 196.32 209.12 196.52 208.70
C196.72 208.26 196.82 207.81 196.82 207.33
C196.82 206.80 196.69 206.31 196.43 205.89
C196.16 205.44 195.76 205.22 195.23 205.22
Z
M198.98 205.22
L198.94 205.32
C198.85 205.61 198.69 205.92 198.45 206.23
C198.22 206.55 197.95 206.82 197.65 207.03
L197.59 207.08
L197.59 207.15
L197.59 207.99
L197.59 208.24
L197.80 208.12
C198.00 208.01 198.21 207.85 198.44 207.64
C198.55 207.54 198.65 207.44 198.74 207.35
L198.74 207.35
L198.74 212.51
L198.74 212.65
L199.59 212.65
L199.59 212.51
L199.59 205.36
L199.59 205.22
Z
" fill="white" fill-rule="nonzero" />
<path d="
M207.13 205.16
C206.65 205.16 206.26 205.35 205.96 205.73
C205.68 206.10 205.51 206.64 205.47 207.35
L205.46 207.48
L205.59 207.50
L206.18 207.59
L206.34 207.62
L206.34 207.45
C206.34 207.02 206.42 206.69 206.57 206.47
C206.71 206.27 206.89 206.16 207.11 206.16
C207.11 206.16 207.11 206.16 207.11 206.16
C207.12 206.16 207.12 206.16 207.12 206.16
C207.32 206.16 207.49 206.26 207.63 206.45
C207.78 206.65 207.85 206.92 207.85 207.25
C207.85 207.54 207.78 207.86 207.62 208.21
C207.46 208.56 207.11 209.07 206.58 209.73
C206.12 210.31 205.79 210.82 205.62 211.25
C205.44 211.69 205.35 212.09 205.36 212.45
L205.36 212.59
L208.73 212.59
L208.73 212.45
L208.73 211.61
L208.73 211.47
L206.52 211.47
C206.56 211.38 206.61 211.29 206.66 211.21
C206.76 211.05 206.98 210.76 207.31 210.33
C207.86 209.62 208.23 209.06 208.42 208.63
C208.62 208.20 208.72 207.74 208.72 207.27
C208.72 206.73 208.60 206.25 208.34 205.83
C208.06 205.38 207.66 205.16 207.13 205.16
Z
M210.67 205.16
C210.27 205.16 209.92 205.33 209.64 205.67
C209.37 206.01 209.19 206.49 209.12 207.13
L209.10 207.25
L209.22 207.28
L209.79 207.44
L209.96 207.48
L209.97 207.31
C210.01 206.91 210.10 206.61 210.24 206.42
C210.36 206.24 210.50 206.16 210.67 206.16
C210.68 206.16 210.68 206.16 210.68 206.16
C210.68 206.16 210.68 206.16 210.68 206.16
C210.84 206.16 210.99 206.24 211.10 206.40
C211.23 206.58 211.30 206.82 211.30 207.12
C211.30 207.45 211.22 207.71 211.07 207.90
C210.92 208.09 210.73 208.18 210.50 208.18
L210.50 208.18
L210.41 208.17
L210.27 208.15
L210.26 208.30
L210.19 209.07
L210.17 209.30
L210.39 209.21
C210.53 209.15 210.65 209.12 210.74 209.12
C210.74 209.12 210.74 209.12 210.74 209.12
C210.74 209.12 210.74 209.12 210.74 209.12
C210.95 209.12 211.12 209.23 211.27 209.44
C211.43 209.67 211.51 209.98 211.51 210.36
C211.51 210.77 211.42 211.10 211.25 211.36
C211.08 211.59 210.90 211.71 210.69 211.71
C210.68 211.71 210.68 211.71 210.68 211.71
C210.68 211.71 210.68 211.71 210.68 211.71
C210.49 211.71 210.33 211.61 210.21 211.42
C210.07 211.21 209.97 210.88 209.92 210.43
L209.90 210.28
L209.75 210.31
L209.17 210.43
L209.05 210.45
L209.06 210.58
C209.10 211.22 209.27 211.73 209.56 212.12
C209.87 212.52 210.24 212.72 210.69 212.72
C211.17 212.72 211.57 212.49 211.91 212.04
C212.24 211.59 212.40 211.03 212.40 210.35
C212.40 210.02 212.36 209.73 212.28 209.47
C212.20 209.20 212.10 208.99 211.96 208.82
C211.87 208.71 211.77 208.63 211.65 208.56
L211.65 208.56
C211.79 208.42 211.90 208.26 211.99 208.06
C212.11 207.79 212.17 207.49 212.17 207.14
C212.17 206.58 212.03 206.11 211.75 205.74
C211.45 205.35 211.09 205.16 210.67 205.16
Z
" fill="white" fill-rule="nonzero" />
</g>
<g  transform="translate(1.19,228.58)" >
<path d="
M109.47 2.94
C109.30 2.94 109.16 3.00 109.05 3.11
C108.93 3.23 108.88 3.37 108.88 3.53
C108.88 3.69 108.94 3.83 109.05 3.95
C109.17 4.07 109.31 4.12 109.47 4.12
C109.63 4.12 109.77 4.07 109.89 3.95
C110.00 3.83 110.06 3.69 110.06 3.53
C110.06 3.37 110.00 3.23 109.89 3.11
C109.77 3.00 109.63 2.94 109.47 2.94
Z
M114.44 8.04
L114.44 10.07
C113.96 10.46 113.57 10.65 113.28 10.65
C113.06 10.65 112.87 10.56 112.70 10.37
C112.54 10.19 112.45 9.96 112.45 9.68
C112.45 9.46 112.52 9.25 112.65 9.07
C112.78 8.88 113.00 8.70 113.31 8.53
C113.48 8.44 113.86 8.27 114.44 8.04
Z
M102.79 3.77
C103.72 3.77 104.48 4.08 105.08 4.71
C105.67 5.34 105.97 6.20 105.97 7.29
C105.97 8.37 105.67 9.23 105.08 9.86
C104.48 10.49 103.74 10.81 102.84 10.81
C102.50 10.81 102.09 10.75 101.60 10.64
L101.60 3.94
C102.05 3.83 102.44 3.77 102.79 3.77
Z
M99.35 3.33
L99.35 3.54
L99.65 3.54
C99.94 3.54 100.17 3.63 100.32 3.80
C100.43 3.92 100.48 4.23 100.48 4.72
L100.48 9.82
C100.48 10.26 100.44 10.55 100.35 10.68
C100.22 10.89 99.98 11.00 99.65 11.00
L99.35 11.00
L99.35 11.21
L102.87 11.21
C104.40 11.21 105.54 10.80 106.29 9.98
C106.96 9.24 107.29 8.33 107.29 7.23
C107.29 6.41 107.11 5.69 106.73 5.07
C106.36 4.44 105.86 4.00 105.25 3.73
C104.63 3.46 103.74 3.33 102.56 3.33
Z
M109.70 5.73
L108.09 6.38
L108.17 6.59
C108.33 6.53 108.46 6.50 108.57 6.50
C108.67 6.50 108.75 6.53 108.81 6.58
C108.87 6.62 108.91 6.71 108.94 6.83
C108.97 7.00 108.99 7.38 108.99 7.96
L108.99 10.01
C108.99 10.34 108.96 10.56 108.91 10.68
C108.86 10.79 108.79 10.88 108.70 10.93
C108.61 10.98 108.43 11.00 108.17 11.00
L108.17 11.21
L110.76 11.21
L110.76 11.00
C110.51 11.00 110.34 10.98 110.24 10.92
C110.15 10.87 110.07 10.79 110.03 10.68
C109.98 10.56 109.95 10.34 109.95 10.01
L109.95 5.73
Z
M125.02 3.16
C124.42 3.16 123.92 3.36 123.52 3.74
C123.12 4.12 122.87 4.67 122.77 5.39
L122.99 5.39
C123.13 4.95 123.36 4.62 123.67 4.39
C123.98 4.17 124.32 4.05 124.71 4.05
C125.14 4.05 125.51 4.22 125.81 4.54
C126.12 4.86 126.27 5.27 126.27 5.77
C126.27 6.42 125.99 7.15 125.43 7.94
C124.88 8.73 123.91 9.75 122.54 11.00
L122.54 11.21
L127.20 11.21
L127.75 9.70
L127.53 9.70
C127.43 9.87 127.31 10.00 127.18 10.10
C127.04 10.19 126.89 10.26 126.72 10.29
C126.55 10.32 126.26 10.33 125.84 10.33
L123.78 10.33
C124.02 10.12 124.63 9.48 125.59 8.43
C126.23 7.73 126.70 7.06 126.99 6.43
C127.17 6.03 127.27 5.63 127.27 5.23
C127.27 4.68 127.05 4.19 126.62 3.78
C126.19 3.37 125.66 3.16 125.02 3.16
Z
M113.63 5.73
C113.01 5.73 112.53 5.87 112.19 6.15
C111.85 6.43 111.68 6.73 111.68 7.07
C111.68 7.24 111.72 7.38 111.82 7.48
C111.91 7.58 112.02 7.63 112.17 7.63
C112.31 7.63 112.43 7.58 112.52 7.49
C112.62 7.39 112.66 7.25 112.66 7.07
L112.65 6.74
C112.65 6.56 112.72 6.41 112.87 6.28
C113.01 6.15 113.21 6.08 113.45 6.08
C113.77 6.08 114.02 6.18 114.19 6.38
C114.36 6.58 114.44 6.94 114.44 7.47
L114.44 7.68
C113.53 8.02 112.87 8.30 112.48 8.53
C112.08 8.76 111.81 9.01 111.65 9.28
C111.53 9.47 111.48 9.69 111.48 9.95
C111.48 10.36 111.59 10.69 111.83 10.95
C112.07 11.20 112.37 11.32 112.74 11.32
C112.98 11.32 113.20 11.27 113.41 11.18
C113.55 11.11 113.89 10.87 114.44 10.45
C114.44 10.76 114.50 10.99 114.62 11.12
C114.73 11.25 114.88 11.32 115.07 11.32
C115.46 11.32 115.88 11.03 116.31 10.45
L116.31 10.12
C116.08 10.35 115.92 10.49 115.84 10.54
C115.80 10.57 115.74 10.58 115.68 10.58
C115.62 10.58 115.57 10.57 115.53 10.53
C115.48 10.49 115.45 10.41 115.43 10.30
C115.41 10.18 115.40 9.87 115.40 9.36
L115.40 7.55
C115.40 7.04 115.37 6.70 115.30 6.53
C115.19 6.28 115.02 6.09 114.79 5.97
C114.49 5.81 114.10 5.73 113.63 5.73
Z
M117.82 10.08
C117.65 10.08 117.49 10.15 117.37 10.27
C117.24 10.39 117.18 10.55 117.18 10.73
C117.18 10.91 117.24 11.06 117.37 11.19
C117.49 11.31 117.65 11.38 117.82 11.38
C118.00 11.38 118.15 11.31 118.28 11.19
C118.41 11.06 118.47 10.91 118.47 10.73
C118.47 10.55 118.41 10.40 118.28 10.27
C118.16 10.15 118.01 10.08 117.82 10.08
Z
" fill="black" fill-rule="nonzero" />
</g>
</g>
</svg>
