<?xml version="1.0" encoding="utf-8" standalone="no"?>
<!DOCTYPE svg PUBLIC "-//W3C//DTD SVG 1.0//EN" "http://www.w3.org/TR/SVG/DTD/svg11.dtd" >
<svg version="1.1" baseProfile="full"  width="319.13385" height="356.8812" viewBox="0 0 229.77638 256.95447" preserveAspectRatio="xMidYMid" xmlns="http://www.w3.org/2000/svg" >

<g lengthAdjust="spacingAndGlyphs" xml:space='preserve' >
<g  transform="translate(1.19,1.19)" >
<path d="
M0.0 0.0
L0.0 227.39
L227.39 227.39
L227.39 0.0
Z
" fill="none" fill-rule="nonzero" />
<line x1="6.54" y1="6.54" x2="6.54" y2="220.84" fill="none" stroke="black" stroke-width="0.87px" stroke-linecap="square" />
<line x1="18.45" y1="6.54" x2="18.45" y2="220.84" fill="none" stroke="black" stroke-width="0.25px" stroke-linecap="butt" />
<line x1="30.35" y1="6.54" x2="30.35" y2="220.84" fill="none" stroke="black" stroke-width="0.25px" stroke-linecap="butt" />
<line x1="42.26" y1="6.54" x2="42.26" y2="220.84" fill="none" stroke="black" stroke-width="0.25px" stroke-linecap="butt" />
<line x1="54.17" y1="6.54" x2="54.17" y2="220.84" fill="none" stroke="black" stroke-width="0.25px" stroke-linecap="butt" />
<line x1="66.07" y1="6.54" x2="66.07" y2="220.84" fill="none" stroke="black" stroke-width="0.25px" stroke-linecap="butt" />
<line x1="77.98" y1="6.54" x2="77.98" y2="220.84" fill="none" stroke="black" stroke-width="0.25px" stroke-linecap="butt" />
<line x1="89.88" y1="6.54" x2="89.88" y2="220.84" fill="none" stroke="black" stroke-width="0.25px" stroke-linecap="butt" />
<line x1="101.79" y1="6.54" x2="101.79" y2="220.84" fill="none" stroke="black" stroke-width="0.25px" stroke-linecap="butt" />
<line x1="113.69" y1="6.54" x2="113.69" y2="220.84" fill="none" stroke="black" stroke-width="0.25px" stroke-linecap="butt" />
<line x1="125.60" y1="6.54" x2="125.60" y2="220.84" fill="none" stroke="black" stroke-width="0.25px" stroke-linecap="butt" />
<line x1="137.50" y1="6.54" x2="137.50" y2="220.84" fill="none" stroke="black" stroke-width="0.25px" stroke-linecap="butt" />
<line x1="149.41" y1="6.54" x2="149.41" y2="220.84" fill="none" stroke="black" stroke-width="0.25px" stroke-linecap="butt" />
<line x1="161.31" y1="6.54" x2="161.31" y2="220.84" fill="none" stroke="black" stroke-width="0.25px" stroke-linecap="butt" />
<line x1="173.22" y1="6.54" x2="173.22" y2="220.84" fill="none" stroke="black" stroke-width="0.25px" stroke-linecap="butt" />
<line x1="185.13" y1="6.54" x2="185.13" y2="220.84" fill="none" stroke="black" stroke-width="0.25px" stroke-linecap="butt" />
<line x1="197.03" y1="6.54" x2="197.03" y2="220.84" fill="none" stroke="black" stroke-width="0.25px" stroke-linecap="butt" />
<line x1="208.94" y1="6.54" x2="208.94" y2="220.84" fill="none" stroke="black" stroke-width="0.25px" stroke-linecap="butt" />
<line x1="220.84" y1="6.54" x2="220.84" y2="220.84" fill="none" stroke="black" stroke-width="0.87px" stroke-linecap="square" />
<line x1="6.54" y1="6.54" x2="220.84" y2="6.54" fill="none" stroke="black" stroke-width="0.87px" stroke-linecap="square" />
<line x1="6.54" y1="18.45" x2="220.84" y2="18.45" fill="none" stroke="black" stroke-width="0.25px" stroke-linecap="butt" />
<line x1="6.54" y1="30.35" x2="220.84" y2="30.35" fill="none" stroke="black" stroke-width="0.25px" stroke-linecap="butt" />
<line x1="6.54" y1="42.26" x2="220.84" y2="42.26" fill="none" stroke="black" stroke-width="0.25px" stroke-linecap="butt" />
<line x1="6.54" y1="54.17" x2="220.84" y2="54.17" fill="none" stroke="black" stroke-width="0.25px" stroke-linecap="butt" />
<line x1="6.54" y1="66.07" x2="220.84" y2="66.07" fill="none" stroke="black" stroke-width="0.25px" stroke-linecap="butt" />
<line x1="6.54" y1="77.98" x2="220.84" y2="77.98" fill="none" stroke="black" stroke-width="0.25px" stroke-linecap="butt" />
<line x1="6.54" y1="89.88" x2="220.84" y2="89.88" fill="none" stroke="black" stroke-width="0.25px" stroke-linecap="butt" />
<line x1="6.54" y1="101.79" x2="220.84" y2="101.79" fill="none" stroke="black" stroke-width="0.25px" stroke-linecap="butt" />
<line x1="6.54" y1="113.69" x2="220.84" y2="113.69" fill="none" stroke="black" stroke-width="0.25px" stroke-linecap="butt" />
<line x1="6.54" y1="125.60" x2="220.84" y2="125.60" fill="none" stroke="black" stroke-width="0.25px" stroke-linecap="butt" />
<line x1="6.54" y1="137.50" x2="220.84" y2="137.50" fill="none" stroke="black" stroke-width="0.25px" stroke-linecap="butt" />
<line x1="6.54" y1="149.41" x2="220.84" y2="149.41" fill="none" stroke="black" stroke-width="0.25px" stroke-linecap="butt" />
<line x1="6.54" y1="161.31" x2="220.84" y2="161.31" fill="none" stroke="black" stroke-width="0.25px" stroke-linecap="butt" />
<line x1="6.54" y1="173.22" x2="220.84" y2="173.22" fill="none" stroke="black" stroke-width="0.25px" stroke-linecap="butt" />
<line x1="6.54" y1="185.13" x2="220.84" y2="185.13" fill="none" stroke="black" stroke-width="0.25px" stroke-linecap="butt" />
<line x1="6.54" y1="197.03" x2="220.84" y2="197.03" fill="none" stroke="black" stroke-width="0.25px" stroke-linecap="butt" />
<line x1="6.54" y1="208.94" x2="220.84" y2="208.94" fill="none" stroke="black" stroke-width="0.25px" stroke-linecap="butt" />
<line x1="6.54" y1="220.84" x2="220.84" y2="220.84" fill="none" stroke="black" stroke-width="0.87px" stroke-linecap="square" />
<circle cx="18.45" cy="42.26" r="5.98" fill="black"/>
<circle cx="30.35" cy="30.35" r="5.85" fill="white"/>
<circle cx="30.35" cy="30.35" r="5.85" fill="none" stroke="black" stroke-width="0.25px"/>
<circle cx="30.35" cy="66.07" r="5.98" fill="black"/>
<circle cx="30.35" cy="101.79" r="5.98" fill="black"/>
<circle cx="42.26" cy="42.26" r="5.85" fill="white"/>
<circle cx="42.26" cy="42.26" r="5.85" fill="none" stroke="black" stroke-width="0.25px"/>
<circle cx="42.26" cy="113.69" r="1.27" fill="black"/>
<circle cx="42.26" cy="185.13" r="5.85" fill="white"/>
<circle cx="42.26" cy="185.13" r="5.85" fill="none" stroke="black" stroke-width="0.25px"/>
<circle cx="66.07" cy="30.35" r="5.85" fill="white"/>
<circle cx="66.07" cy="30.35" r="5.85" fill="none" stroke="black" stroke-width="0.25px"/>
<circle cx="113.69" cy="42.26" r="1.27" fill="black"/>
<circle cx="113.69" cy="113.69" r="1.27" fill="black"/>
<circle cx="113.69" cy="185.13" r="1.27" fill="black"/>
<circle cx="113.69" cy="197.03" r="5.85" fill="white"/>
<circle cx="113.69" cy="197.03" r="5.85" fill="none" stroke="black" stroke-width="0.25px"/>
<circle cx="137.50" cy="42.26" r="5.85" fill="white"/>
<circle cx="137.50" cy="42.26" r="5.85" fill="none" stroke="black" stroke-width="0.25px"/>
<circle cx="137.50" cy="185.13" r="5.98" fill="black"/>
<circle cx="161.31" cy="30.35" r="5.85" fill="white"/>
<circle cx="161.31" cy="30.35" r="5.85" fill="none" stroke="black" stroke-width="0.25px"/>
<circle cx="161.31" cy="173.22" r="5.85" fill="white"/>
<circle cx="161.31" cy="173.22" r="5.85" fill="none" stroke="black" stroke-width="0.25px"/>
<circle cx="161.31" cy="185.13" r="5.98" fill="black"/>
<circle cx="161.31" cy="197.03" r="5.98" fill="black"/>
<circle cx="173.22" cy="137.50" r="5.85" fill="white"/>
<circle cx="173.22" cy="137.50" r="5.85" fill="none" stroke="black" stroke-width="0.25px"/>
<circle cx="173.22" cy="197.03" r="5.85" fill="white"/>
<circle cx="173.22" cy="197.03" r="5.85" fill="none" stroke="black" stroke-width="0.25px"/>
<circle cx="173.22" cy="208.94" r="5.98" fill="black"/>
<circle cx="185.13" cy="18.45" r="5.85" fill="white"/>
<circle cx="185.13" cy="18.45" r="5.85" fill="none" stroke="black" stroke-width="0.25px"/>
<circle cx="185.13" cy="42.26" r="5.98" fill="black"/>
<circle cx="185.13" cy="66.07" r="5.98" fill="black"/>
<circle cx="185.13" cy="113.69" r="1.27" fill="black"/>
<circle cx="185.13" cy="149.41" r="5.85" fill="white"/>
<circle cx="185.13" cy="149.41" r="5.85" fill="none" stroke="black" stroke-width="0.25px"/>
<circle cx="185.13" cy="173.22" r="5.85" fill="white"/>
<circle cx="185.13" cy="173.22" r="5.85" fill="none" stroke="black" stroke-width="0.25px"/>
<circle cx="185.13" cy="185.13" r="5.85" fill="white"/>
<circle cx="185.13" cy="185.13" r="5.85" fill="none" stroke="black" stroke-width="0.25px"/>
<circle cx="185.13" cy="197.03" r="5.98" fill="black"/>
<circle cx="185.13" cy="208.94" r="5.85" fill="white"/>
<circle cx="185.13" cy="208.94" r="5.85" fill="none" stroke="black" stroke-width="0.25px"/>
<circle cx="185.13" cy="220.84" r="5.98" fill="black"/>
<circle cx="197.03" cy="30.35" r="5.98" fill="black"/>
<circle cx="197.03" cy="125.60" r="5.98" fill="black"/>
<circle cx="197.03" cy="149.41" r="5.98" fill="black"/>
<circle cx="197.03" cy="197.03" r="5.85" fill="white"/>
<circle cx="197.03" cy="197.03" r="5.85" fill="none" stroke="black" stroke-width="0.25px"/>
<circle cx="197.03" cy="208.94" r="5.98" fill="black"/>
<path d="
M32.18 30.02
C32.43 30.02 32.65 30.16 32.82 30.44
C33.00 30.72 33.09 31.11 33.09 31.61
C33.09 32.13 33.00 32.53 32.82 32.83
C32.64 33.12 32.44 33.27 32.22 33.27
C31.96 33.27 31.73 33.12 31.54 32.80
C31.35 32.49 31.25 32.08 31.25 31.56
C31.25 31.09 31.34 30.71 31.53 30.44
C31.71 30.16 31.93 30.02 32.18 30.02
Z
M28.77 26.72
C28.67 27.03 28.50 27.35 28.26 27.67
C28.02 28.00 27.74 28.28 27.42 28.51
L27.42 29.35
C27.61 29.25 27.81 29.09 28.04 28.89
C28.26 28.69 28.44 28.49 28.57 28.30
L28.57 33.87
L29.15 33.87
L29.15 26.72
Z
M32.26 26.72
C31.77 26.72 31.37 27.01 31.06 27.59
C30.74 28.18 30.59 29.16 30.59 30.54
C30.59 31.78 30.74 32.66 31.05 33.19
C31.35 33.72 31.74 33.99 32.21 33.99
C32.47 33.99 32.71 33.90 32.93 33.71
C33.15 33.53 33.33 33.24 33.47 32.86
C33.60 32.47 33.67 32.04 33.67 31.56
C33.67 30.86 33.54 30.30 33.26 29.88
C32.98 29.46 32.66 29.25 32.29 29.25
C32.07 29.25 31.86 29.33 31.66 29.49
C31.46 29.65 31.29 29.89 31.16 30.20
C31.16 29.32 31.25 28.66 31.42 28.21
C31.63 27.70 31.89 27.44 32.23 27.44
C32.44 27.44 32.63 27.55 32.78 27.78
C32.89 27.93 32.97 28.19 33.02 28.56
L33.59 28.49
C33.54 27.91 33.39 27.47 33.15 27.17
C32.91 26.87 32.62 26.72 32.26 26.72
Z
" fill="black" fill-rule="nonzero" />
<path d="
M28.67 98.07
L28.64 98.17
C28.54 98.46 28.38 98.77 28.15 99.08
C27.91 99.40 27.65 99.67 27.34 99.88
L27.28 99.93
L27.28 100.00
L27.28 100.84
L27.28 101.09
L27.49 100.97
C27.69 100.86 27.90 100.70 28.13 100.49
C28.24 100.39 28.34 100.29 28.43 100.20
L28.43 100.20
L28.43 105.36
L28.43 105.50
L29.29 105.50
L29.29 105.36
L29.29 98.21
L29.29 98.07
Z
M30.51 98.19
L30.51 98.33
L30.51 99.17
L30.51 99.32
L32.70 99.32
C32.45 99.78 32.21 100.33 31.99 100.96
C31.74 101.69 31.54 102.45 31.39 103.25
C31.25 104.05 31.17 104.76 31.16 105.36
L31.16 105.50
L31.90 105.50
L32.03 105.50
L32.04 105.37
C32.09 104.23 32.29 103.08 32.62 101.91
C32.96 100.75 33.35 99.81 33.80 99.09
L33.82 99.05
L33.82 99.01
L33.82 98.33
L33.82 98.19
Z
" fill="white" fill-rule="nonzero" />
<path d="
M163.08 170.31
C163.36 170.31 163.59 170.50 163.77 170.89
C163.94 171.29 164.03 172.06 164.03 173.22
C164.03 174.37 163.94 175.14 163.77 175.54
C163.59 175.94 163.37 176.14 163.11 176.14
C162.83 176.14 162.61 175.94 162.43 175.54
C162.25 175.15 162.16 174.38 162.16 173.22
C162.16 172.07 162.25 171.30 162.42 170.90
C162.60 170.50 162.82 170.31 163.08 170.31
Z
M163.10 169.58
C162.60 169.58 162.22 169.89 161.96 170.50
C161.70 171.12 161.58 172.03 161.58 173.22
C161.58 174.55 161.72 175.49 162.00 176.04
C162.28 176.58 162.65 176.85 163.09 176.85
C163.60 176.85 163.98 176.55 164.24 175.93
C164.49 175.31 164.62 174.41 164.62 173.22
C164.62 171.90 164.47 170.93 164.16 170.33
C163.90 169.83 163.55 169.58 163.10 169.58
Z
M159.42 169.58
C159.06 169.58 158.75 169.74 158.50 170.05
C158.24 170.36 158.08 170.82 158.01 171.43
L158.58 171.58
C158.62 171.15 158.72 170.83 158.87 170.62
C159.02 170.41 159.21 170.30 159.43 170.30
C159.64 170.30 159.82 170.40 159.97 170.60
C160.11 170.81 160.19 171.07 160.19 171.41
C160.19 171.77 160.10 172.06 159.92 172.28
C159.75 172.49 159.52 172.60 159.24 172.60
L159.15 172.59
L159.08 173.36
C159.24 173.30 159.38 173.26 159.48 173.26
C159.74 173.26 159.96 173.39 160.13 173.64
C160.31 173.90 160.40 174.23 160.40 174.64
C160.40 175.08 160.30 175.44 160.11 175.72
C159.92 176.00 159.69 176.14 159.43 176.14
C158.95 176.14 158.64 175.67 158.52 174.74
L157.95 174.85
C157.99 175.46 158.15 175.95 158.42 176.31
C158.70 176.68 159.04 176.86 159.44 176.86
C159.87 176.86 160.24 176.65 160.55 176.23
C160.85 175.82 161.01 175.28 161.01 174.63
C161.01 174.32 160.97 174.04 160.90 173.79
C160.82 173.54 160.72 173.34 160.60 173.20
C160.48 173.05 160.32 172.94 160.14 172.88
C160.34 172.73 160.50 172.54 160.61 172.29
C160.72 172.04 160.78 171.75 160.78 171.43
C160.78 170.90 160.65 170.46 160.38 170.11
C160.12 169.76 159.80 169.58 159.42 169.58
Z
" fill="black" fill-rule="nonzero" />
<path d="
M163.11 182.35
C163.11 182.35 163.11 182.35 163.11 182.35
C163.12 182.35 163.12 182.35 163.12 182.35
C163.30 182.35 163.47 182.48 163.62 182.73
C163.79 182.99 163.87 183.37 163.87 183.85
C163.87 184.33 163.79 184.70 163.63 184.96
C163.48 185.19 163.31 185.31 163.11 185.31
C163.11 185.31 163.10 185.31 163.10 185.31
C163.10 185.31 163.10 185.31 163.10 185.31
C162.89 185.31 162.71 185.19 162.56 184.96
C162.39 184.71 162.31 184.36 162.31 183.92
C162.31 183.43 162.40 183.04 162.58 182.75
C162.74 182.49 162.92 182.35 163.11 182.35
Z
M159.63 181.35
L159.60 181.45
C159.50 181.74 159.34 182.05 159.11 182.36
C158.87 182.68 158.61 182.94 158.30 183.16
L158.24 183.20
L158.24 183.28
L158.24 184.12
L158.24 184.36
L158.45 184.25
C158.65 184.14 158.86 183.98 159.09 183.77
C159.20 183.67 159.30 183.57 159.39 183.47
L159.39 183.47
L159.39 188.64
L159.39 188.78
L160.25 188.78
L160.25 188.64
L160.25 181.49
L160.25 181.35
Z
M163.05 181.35
C162.59 181.35 162.20 181.58 161.89 182.05
C161.58 182.51 161.43 183.12 161.43 183.89
C161.43 184.64 161.58 185.24 161.87 185.68
C162.18 186.14 162.54 186.37 162.97 186.37
C163.22 186.37 163.45 186.27 163.68 186.08
C163.77 186.01 163.85 185.93 163.92 185.83
L163.92 185.83
C163.90 186.23 163.85 186.58 163.77 186.89
C163.67 187.28 163.55 187.55 163.41 187.70
C163.28 187.83 163.14 187.90 162.99 187.90
C162.99 187.90 162.99 187.90 162.99 187.90
C162.99 187.90 162.99 187.90 162.99 187.90
C162.82 187.90 162.69 187.83 162.59 187.68
C162.47 187.51 162.39 187.25 162.35 186.90
L162.34 186.76
L162.19 186.78
L161.64 186.85
L161.51 186.87
L161.52 187.01
C161.57 187.61 161.72 188.07 161.98 188.40
C162.24 188.73 162.58 188.90 162.98 188.90
C163.33 188.90 163.65 188.77 163.93 188.49
C164.20 188.22 164.41 187.81 164.56 187.24
C164.72 186.69 164.79 185.91 164.79 184.92
C164.79 184.03 164.72 183.35 164.58 182.87
C164.43 182.38 164.23 182.00 163.96 181.75
C163.68 181.48 163.38 181.35 163.05 181.35
Z
" fill="white" fill-rule="nonzero" />
<path d="
M163.26 193.25
L163.23 193.35
C163.13 193.65 162.97 193.95 162.74 194.27
C162.50 194.58 162.24 194.85 161.93 195.06
L161.87 195.11
L161.87 195.18
L161.87 196.03
L161.87 196.27
L162.08 196.15
C162.28 196.04 162.49 195.88 162.72 195.67
C162.83 195.57 162.93 195.47 163.02 195.38
L163.02 195.38
L163.02 200.54
L163.02 200.69
L163.88 200.69
L163.88 200.54
L163.88 193.39
L163.88 193.25
Z
M159.42 193.25
C159.01 193.25 158.67 193.42 158.39 193.77
C158.12 194.10 157.94 194.59 157.87 195.22
L157.85 195.34
L157.97 195.38
L158.54 195.53
L158.70 195.57
L158.72 195.41
C158.76 195.00 158.85 194.70 158.98 194.51
C159.11 194.34 159.25 194.25 159.42 194.25
C159.42 194.25 159.42 194.25 159.43 194.25
C159.43 194.25 159.43 194.25 159.43 194.25
C159.59 194.25 159.73 194.33 159.85 194.50
C159.98 194.68 160.05 194.92 160.05 195.22
C160.05 195.55 159.97 195.81 159.81 196.00
C159.67 196.18 159.48 196.27 159.24 196.27
L159.24 196.27
L159.16 196.26
L159.02 196.25
L159.00 196.39
L158.94 197.16
L158.92 197.39
L159.13 197.30
C159.28 197.25 159.39 197.22 159.48 197.22
C159.48 197.22 159.48 197.22 159.48 197.22
C159.49 197.22 159.49 197.22 159.49 197.22
C159.69 197.22 159.87 197.32 160.02 197.54
C160.18 197.76 160.26 198.07 160.26 198.45
C160.26 198.87 160.17 199.20 159.99 199.45
C159.83 199.69 159.64 199.80 159.43 199.80
C159.43 199.80 159.43 199.80 159.43 199.80
C159.43 199.80 159.43 199.80 159.43 199.80
C159.24 199.80 159.08 199.71 158.96 199.52
C158.82 199.30 158.72 198.97 158.66 198.53
L158.65 198.38
L158.50 198.41
L157.92 198.52
L157.80 198.55
L157.81 198.67
C157.85 199.31 158.02 199.83 158.31 200.21
C158.62 200.61 158.99 200.81 159.44 200.81
C159.91 200.81 160.32 200.58 160.66 200.13
C160.99 199.69 161.15 199.13 161.15 198.44
C161.15 198.12 161.11 197.83 161.03 197.56
C160.95 197.30 160.84 197.08 160.71 196.92
C160.62 196.81 160.52 196.72 160.40 196.65
L160.40 196.65
C160.54 196.52 160.65 196.35 160.74 196.16
C160.86 195.89 160.92 195.58 160.92 195.24
C160.92 194.68 160.78 194.21 160.50 193.83
C160.20 193.45 159.84 193.25 159.42 193.25
Z
" fill="white" fill-rule="nonzero" />
<path d="
M174.98 134.59
C175.26 134.59 175.49 134.79 175.67 135.18
C175.85 135.57 175.94 136.35 175.94 137.51
C175.94 138.65 175.85 139.43 175.67 139.82
C175.50 140.22 175.28 140.42 175.02 140.42
C174.74 140.42 174.51 140.22 174.33 139.83
C174.16 139.44 174.07 138.66 174.07 137.51
C174.07 136.36 174.15 135.59 174.33 135.19
C174.50 134.79 174.72 134.59 174.98 134.59
Z
M171.42 133.87
C170.98 133.87 170.63 134.04 170.36 134.38
C170.09 134.73 169.93 135.24 169.89 135.93
L170.48 136.02
C170.48 135.56 170.57 135.21 170.74 134.96
C170.91 134.71 171.13 134.59 171.40 134.59
C171.65 134.59 171.86 134.71 172.03 134.93
C172.19 135.16 172.28 135.46 172.28 135.82
C172.28 136.13 172.20 136.47 172.03 136.84
C171.87 137.20 171.51 137.72 170.98 138.39
C170.52 138.96 170.20 139.46 170.03 139.88
C169.86 140.30 169.78 140.68 169.78 141.02
L172.87 141.02
L172.87 140.18
L170.58 140.18
C170.64 140.02 170.72 139.86 170.82 139.70
C170.92 139.54 171.14 139.25 171.49 138.81
C172.02 138.11 172.39 137.56 172.58 137.14
C172.77 136.73 172.87 136.29 172.87 135.84
C172.87 135.33 172.74 134.87 172.50 134.47
C172.25 134.07 171.89 133.87 171.42 133.87
Z
M175.01 133.87
C174.51 133.87 174.13 134.17 173.87 134.79
C173.61 135.41 173.48 136.31 173.48 137.51
C173.48 138.84 173.62 139.78 173.91 140.32
C174.19 140.87 174.55 141.14 175.00 141.14
C175.51 141.14 175.89 140.83 176.14 140.21
C176.40 139.60 176.53 138.69 176.53 137.51
C176.53 136.18 176.37 135.22 176.06 134.62
C175.80 134.12 175.45 133.87 175.01 133.87
Z
" fill="black" fill-rule="nonzero" />
<path d="
M175.01 194.11
C175.22 194.11 175.40 194.22 175.55 194.43
C175.70 194.64 175.78 194.92 175.78 195.25
C175.78 195.57 175.70 195.84 175.56 196.04
C175.41 196.25 175.23 196.35 175.02 196.35
C174.80 196.35 174.62 196.25 174.48 196.04
C174.33 195.83 174.25 195.55 174.25 195.20
C174.25 194.89 174.33 194.63 174.48 194.42
C174.63 194.22 174.80 194.11 175.01 194.11
Z
M175.00 197.06
C175.27 197.06 175.50 197.20 175.68 197.46
C175.87 197.73 175.97 198.08 175.97 198.52
C175.97 198.95 175.88 199.30 175.69 199.56
C175.51 199.82 175.28 199.95 175.02 199.95
C174.76 199.95 174.53 199.82 174.35 199.55
C174.16 199.28 174.06 198.93 174.06 198.49
C174.06 198.07 174.15 197.73 174.34 197.46
C174.52 197.20 174.74 197.06 175.00 197.06
Z
M171.42 193.39
C170.98 193.39 170.63 193.57 170.36 193.91
C170.09 194.26 169.93 194.77 169.89 195.45
L170.48 195.55
C170.48 195.09 170.57 194.73 170.74 194.49
C170.91 194.24 171.13 194.12 171.40 194.12
C171.65 194.12 171.86 194.23 172.03 194.46
C172.19 194.69 172.28 194.99 172.28 195.35
C172.28 195.66 172.20 196.00 172.03 196.37
C171.87 196.73 171.51 197.25 170.98 197.91
C170.52 198.49 170.20 198.98 170.03 199.40
C169.86 199.83 169.78 200.21 169.78 200.55
L172.87 200.55
L172.87 199.71
L170.58 199.71
C170.64 199.55 170.72 199.39 170.82 199.23
C170.92 199.07 171.14 198.77 171.49 198.34
C172.02 197.64 172.39 197.09 172.58 196.67
C172.77 196.26 172.87 195.82 172.87 195.37
C172.87 194.86 172.74 194.40 172.50 194.00
C172.25 193.60 171.89 193.39 171.42 193.39
Z
M175.01 193.39
C174.62 193.39 174.30 193.56 174.05 193.90
C173.79 194.25 173.66 194.69 173.66 195.23
C173.66 195.59 173.72 195.89 173.84 196.13
C173.96 196.37 174.13 196.55 174.36 196.68
C174.09 196.79 173.87 197.00 173.71 197.31
C173.56 197.62 173.48 198.02 173.48 198.49
C173.48 199.14 173.62 199.67 173.92 200.07
C174.21 200.47 174.58 200.67 175.02 200.67
C175.46 200.67 175.82 200.47 176.11 200.07
C176.41 199.67 176.56 199.15 176.56 198.52
C176.56 198.06 176.48 197.67 176.33 197.36
C176.18 197.05 175.96 196.82 175.68 196.68
C175.91 196.55 176.08 196.37 176.19 196.13
C176.31 195.89 176.36 195.60 176.36 195.26
C176.36 194.71 176.24 194.26 175.98 193.91
C175.72 193.57 175.40 193.39 175.01 193.39
Z
" fill="black" fill-rule="nonzero" />
<path d="
M174.43 207.82
L174.43 207.82
L174.43 207.82
C174.43 207.82 174.43 207.82 174.43 207.82
Z
M171.42 205.16
C170.93 205.16 170.54 205.35 170.25 205.73
C169.96 206.10 169.80 206.64 169.75 207.35
L169.74 207.48
L169.87 207.50
L170.46 207.59
L170.63 207.62
L170.63 207.45
C170.63 207.02 170.70 206.70 170.86 206.47
C171.00 206.27 171.18 206.17 171.39 206.17
C171.39 206.17 171.40 206.17 171.40 206.17
C171.40 206.17 171.40 206.17 171.40 206.17
C171.60 206.17 171.77 206.26 171.91 206.45
C172.06 206.65 172.14 206.92 172.14 207.25
C172.14 207.55 172.06 207.87 171.90 208.21
C171.74 208.57 171.40 209.07 170.87 209.73
C170.40 210.31 170.08 210.82 169.90 211.26
C169.72 211.70 169.63 212.10 169.64 212.46
L169.65 212.59
L173.02 212.59
L173.02 212.45
L173.02 211.61
L173.02 211.47
L170.80 211.47
C170.84 211.38 170.89 211.30 170.94 211.21
C171.04 211.06 171.26 210.76 171.60 210.33
C172.14 209.63 172.51 209.06 172.71 208.64
C172.91 208.20 173.01 207.75 173.01 207.27
C173.01 206.73 172.88 206.25 172.62 205.83
C172.35 205.38 171.95 205.16 171.42 205.16
Z
M173.91 205.28
L173.90 205.41
L173.44 209.07
L173.42 209.20
L173.55 209.22
L174.09 209.33
L174.21 209.35
L174.25 209.25
C174.33 209.05 174.44 208.90 174.57 208.79
C174.70 208.69 174.83 208.64 174.97 208.64
C174.97 208.64 174.97 208.64 174.97 208.64
C174.97 208.64 174.97 208.64 174.97 208.64
C175.21 208.64 175.41 208.76 175.57 209.00
C175.74 209.26 175.83 209.63 175.83 210.11
C175.83 210.62 175.74 211.02 175.56 211.31
C175.39 211.58 175.20 211.71 174.98 211.71
C174.98 211.71 174.97 211.71 174.97 211.71
C174.97 211.71 174.97 211.71 174.97 211.71
C174.80 211.71 174.65 211.62 174.51 211.44
C174.36 211.24 174.27 210.92 174.22 210.49
L174.21 210.35
L174.06 210.37
L173.46 210.45
L173.33 210.46
L173.34 210.60
C173.38 211.25 173.55 211.76 173.85 212.13
C174.15 212.52 174.53 212.71 174.98 212.71
C175.52 212.71 175.95 212.44 176.27 211.90
C176.57 211.38 176.72 210.76 176.72 210.04
C176.72 209.30 176.57 208.71 176.26 208.27
C175.94 207.82 175.56 207.59 175.12 207.59
C174.88 207.59 174.65 207.67 174.43 207.82
L174.43 207.82
L174.62 206.40
L176.50 206.40
L176.50 206.26
L176.50 205.43
L176.50 205.28
Z
" fill="white" fill-rule="nonzero" />
<path d="
M186.95 145.77
C186.51 145.77 186.16 145.94 185.89 146.29
C185.63 146.63 185.47 147.15 185.43 147.83
L186.02 147.92
C186.02 147.46 186.11 147.11 186.28 146.86
C186.45 146.62 186.67 146.49 186.93 146.49
C187.18 146.49 187.39 146.61 187.56 146.84
C187.73 147.07 187.82 147.36 187.82 147.72
C187.82 148.04 187.73 148.38 187.57 148.74
C187.40 149.11 187.05 149.62 186.51 150.29
C186.05 150.86 185.74 151.36 185.57 151.78
C185.39 152.20 185.31 152.58 185.32 152.92
L188.41 152.92
L188.41 152.08
L186.12 152.08
C186.18 151.92 186.26 151.76 186.36 151.61
C186.46 151.45 186.68 151.15 187.02 150.71
C187.56 150.02 187.92 149.46 188.11 149.05
C188.31 148.63 188.40 148.20 188.40 147.74
C188.40 147.23 188.28 146.77 188.03 146.37
C187.79 145.97 187.43 145.77 186.95 145.77
Z
M183.23 145.77
C182.87 145.77 182.56 145.93 182.31 146.24
C182.05 146.55 181.89 147.01 181.82 147.62
L182.39 147.77
C182.43 147.34 182.53 147.02 182.68 146.81
C182.83 146.60 183.02 146.49 183.24 146.49
C183.45 146.49 183.63 146.59 183.78 146.79
C183.92 147.00 184.00 147.26 184.00 147.60
C184.00 147.96 183.91 148.25 183.73 148.47
C183.56 148.68 183.33 148.79 183.05 148.79
L182.96 148.78
L182.89 149.55
C183.05 149.49 183.19 149.45 183.30 149.45
C183.55 149.45 183.77 149.58 183.94 149.83
C184.12 150.08 184.21 150.42 184.21 150.83
C184.21 151.27 184.11 151.63 183.92 151.91
C183.73 152.19 183.50 152.32 183.24 152.32
C182.76 152.32 182.45 151.86 182.34 150.92
L181.76 151.04
C181.80 151.65 181.96 152.14 182.23 152.50
C182.51 152.87 182.85 153.05 183.25 153.05
C183.68 153.05 184.05 152.84 184.36 152.42
C184.66 152.01 184.82 151.47 184.82 150.82
C184.82 150.51 184.78 150.23 184.71 149.98
C184.63 149.73 184.53 149.53 184.41 149.38
C184.29 149.24 184.13 149.13 183.95 149.06
C184.15 148.92 184.31 148.73 184.42 148.48
C184.53 148.23 184.59 147.94 184.59 147.62
C184.59 147.09 184.46 146.64 184.19 146.29
C183.93 145.95 183.61 145.77 183.23 145.77
Z
" fill="black" fill-rule="nonzero" />
<path d="
M186.92 170.30
C187.12 170.30 187.30 170.41 187.46 170.62
C187.61 170.83 187.68 171.11 187.68 171.44
C187.68 171.76 187.61 172.03 187.46 172.23
C187.31 172.44 187.14 172.54 186.93 172.54
C186.71 172.54 186.53 172.43 186.38 172.23
C186.23 172.02 186.16 171.74 186.16 171.39
C186.16 171.08 186.23 170.82 186.38 170.61
C186.53 170.41 186.71 170.30 186.92 170.30
Z
M186.91 173.25
C187.17 173.25 187.40 173.39 187.59 173.65
C187.78 173.92 187.87 174.27 187.87 174.71
C187.87 175.14 187.78 175.49 187.60 175.75
C187.41 176.01 187.19 176.14 186.93 176.14
C186.66 176.14 186.44 176.00 186.25 175.74
C186.06 175.47 185.97 175.12 185.97 174.68
C185.97 174.26 186.06 173.92 186.24 173.65
C186.43 173.38 186.65 173.25 186.91 173.25
Z
M183.54 169.58
C183.45 169.89 183.28 170.21 183.03 170.54
C182.79 170.87 182.51 171.14 182.20 171.37
L182.20 172.22
C182.38 172.11 182.59 171.96 182.81 171.76
C183.03 171.56 183.21 171.36 183.34 171.16
L183.34 176.74
L183.92 176.74
L183.92 169.58
Z
M186.91 169.58
C186.53 169.58 186.21 169.75 185.95 170.09
C185.70 170.43 185.57 170.87 185.57 171.42
C185.57 171.77 185.63 172.08 185.75 172.32
C185.86 172.56 186.04 172.74 186.27 172.87
C185.99 172.98 185.77 173.19 185.62 173.50
C185.46 173.81 185.38 174.20 185.38 174.68
C185.38 175.33 185.53 175.86 185.82 176.26
C186.12 176.66 186.48 176.86 186.93 176.86
C187.36 176.86 187.73 176.66 188.02 176.26
C188.31 175.86 188.46 175.34 188.46 174.70
C188.46 174.24 188.38 173.86 188.23 173.55
C188.08 173.24 187.86 173.01 187.58 172.87
C187.81 172.74 187.99 172.55 188.10 172.32
C188.21 172.08 188.27 171.79 188.27 171.44
C188.27 170.90 188.14 170.45 187.88 170.10
C187.63 169.76 187.30 169.58 186.91 169.58
Z
" fill="black" fill-rule="nonzero" />
<path d="
M186.95 184.79
C187.20 184.79 187.42 184.93 187.59 185.21
C187.77 185.49 187.86 185.88 187.86 186.39
C187.86 186.90 187.77 187.31 187.59 187.60
C187.41 187.90 187.21 188.04 186.99 188.04
C186.73 188.04 186.51 187.89 186.31 187.57
C186.12 187.26 186.02 186.85 186.02 186.33
C186.02 185.86 186.11 185.49 186.30 185.21
C186.48 184.93 186.70 184.79 186.95 184.79
Z
M183.32 181.49
C182.88 181.49 182.53 181.66 182.26 182.01
C182.00 182.35 181.84 182.87 181.80 183.55
L182.39 183.64
C182.39 183.18 182.48 182.83 182.65 182.58
C182.82 182.34 183.04 182.21 183.30 182.21
C183.55 182.21 183.76 182.33 183.93 182.56
C184.10 182.78 184.19 183.08 184.19 183.44
C184.19 183.76 184.10 184.10 183.94 184.46
C183.77 184.82 183.42 185.34 182.88 186.01
C182.42 186.58 182.11 187.08 181.94 187.50
C181.76 187.92 181.68 188.30 181.69 188.64
L184.78 188.64
L184.78 187.80
L182.49 187.80
C182.55 187.64 182.63 187.48 182.73 187.32
C182.83 187.17 183.05 186.87 183.39 186.43
C183.93 185.74 184.29 185.18 184.48 184.77
C184.68 184.35 184.77 183.92 184.77 183.46
C184.77 182.95 184.65 182.49 184.40 182.09
C184.16 181.69 183.80 181.49 183.32 181.49
Z
M187.03 181.49
C186.54 181.49 186.14 181.78 185.83 182.37
C185.52 182.95 185.36 183.93 185.36 185.31
C185.36 186.55 185.51 187.43 185.82 187.97
C186.12 188.50 186.51 188.76 186.98 188.76
C187.25 188.76 187.49 188.67 187.70 188.49
C187.92 188.30 188.10 188.01 188.24 187.63
C188.38 187.24 188.44 186.81 188.44 186.33
C188.44 185.63 188.31 185.07 188.03 184.65
C187.76 184.23 187.43 184.02 187.06 184.02
C186.84 184.02 186.63 184.10 186.43 184.26
C186.23 184.42 186.06 184.66 185.93 184.97
C185.93 184.09 186.02 183.43 186.19 182.99
C186.40 182.47 186.66 182.21 187.00 182.21
C187.21 182.21 187.40 182.32 187.55 182.55
C187.66 182.70 187.74 182.96 187.79 183.33
L188.36 183.26
C188.31 182.69 188.17 182.25 187.93 181.94
C187.69 181.64 187.39 181.49 187.03 181.49
Z
" fill="black" fill-rule="nonzero" />
<path d="
M187.22 206.79
L187.22 210.01
L185.76 210.01
L187.22 206.79
Z
M183.32 205.36
C182.88 205.36 182.53 205.53 182.26 205.88
C182.00 206.22 181.84 206.74 181.80 207.42
L182.39 207.51
C182.39 207.05 182.48 206.70 182.65 206.45
C182.82 206.21 183.04 206.08 183.30 206.08
C183.55 206.08 183.76 206.20 183.93 206.43
C184.10 206.66 184.19 206.95 184.19 207.31
C184.19 207.63 184.10 207.97 183.94 208.33
C183.77 208.70 183.42 209.21 182.88 209.88
C182.42 210.45 182.11 210.95 181.94 211.37
C181.76 211.79 181.68 212.17 181.69 212.51
L184.78 212.51
L184.78 211.67
L182.49 211.67
C182.55 211.51 182.63 211.35 182.73 211.20
C182.83 211.04 183.05 210.74 183.39 210.30
C183.93 209.61 184.29 209.05 184.48 208.64
C184.68 208.22 184.77 207.79 184.77 207.33
C184.77 206.82 184.65 206.36 184.40 205.96
C184.16 205.56 183.80 205.36 183.32 205.36
Z
M187.33 205.39
L185.20 210.01
L185.20 210.81
L187.22 210.81
L187.22 212.51
L187.80 212.51
L187.80 210.81
L188.43 210.81
L188.43 210.01
L187.80 210.01
L187.80 205.39
Z
" fill="black" fill-rule="nonzero" />
<path d="
M183.32 217.12
C182.84 217.13 182.45 217.32 182.15 217.70
C181.87 218.07 181.70 218.61 181.66 219.32
L181.65 219.45
L181.78 219.47
L182.37 219.56
L182.53 219.58
L182.53 219.42
C182.53 218.99 182.61 218.66 182.76 218.44
C182.90 218.23 183.08 218.13 183.30 218.13
C183.30 218.13 183.30 218.13 183.30 218.13
C183.30 218.13 183.31 218.13 183.31 218.13
C183.51 218.13 183.68 218.23 183.82 218.42
C183.97 218.62 184.04 218.89 184.04 219.22
C184.04 219.51 183.96 219.83 183.81 220.18
C183.65 220.53 183.30 221.04 182.77 221.70
C182.31 222.28 181.98 222.79 181.81 223.22
C181.63 223.66 181.54 224.06 181.55 224.42
L181.55 224.56
L184.92 224.56
L184.92 224.42
L184.92 223.58
L184.92 223.44
L182.70 223.44
C182.75 223.35 182.80 223.26 182.85 223.18
C182.95 223.02 183.17 222.73 183.50 222.29
C184.05 221.59 184.42 221.03 184.61 220.60
C184.81 220.17 184.91 219.71 184.91 219.24
C184.91 218.70 184.78 218.22 184.53 217.80
C184.25 217.35 183.85 217.13 183.32 217.12
Z
M185.28 217.25
L185.28 217.39
L185.28 218.23
L185.28 218.37
L187.47 218.37
C187.22 218.84 186.98 219.39 186.76 220.02
C186.51 220.74 186.31 221.51 186.17 222.31
C186.02 223.11 185.94 223.81 185.94 224.42
L185.93 224.56
L186.67 224.56
L186.80 224.56
L186.81 224.42
C186.86 223.28 187.06 222.13 187.40 220.97
C187.73 219.81 188.13 218.86 188.57 218.14
L188.59 218.11
L188.59 218.07
L188.59 217.39
L188.59 217.25
Z
" fill="white" fill-rule="nonzero" />
<path d="
M195.23 145.69
C194.74 145.69 194.35 145.88 194.06 146.26
C193.77 146.63 193.61 147.17 193.56 147.88
L193.56 148.01
L193.68 148.03
L194.27 148.13
L194.44 148.15
L194.44 147.99
C194.44 147.56 194.51 147.23 194.67 147.01
C194.81 146.80 194.99 146.70 195.20 146.70
C195.21 146.70 195.21 146.70 195.21 146.70
C195.21 146.70 195.21 146.70 195.21 146.70
C195.41 146.70 195.58 146.79 195.72 146.98
C195.87 147.19 195.95 147.45 195.95 147.79
C195.95 148.08 195.87 148.40 195.71 148.75
C195.55 149.10 195.21 149.61 194.68 150.26
C194.21 150.85 193.89 151.36 193.71 151.79
C193.53 152.23 193.45 152.63 193.45 152.99
L193.46 153.13
L196.83 153.13
L196.83 152.98
L196.83 152.14
L196.83 152.00
L194.61 152.00
C194.65 151.92 194.70 151.83 194.76 151.74
C194.85 151.59 195.07 151.30 195.41 150.86
C195.95 150.16 196.32 149.60 196.52 149.17
C196.72 148.73 196.82 148.28 196.82 147.81
C196.82 147.27 196.69 146.79 196.43 146.36
C196.16 145.92 195.76 145.69 195.23 145.69
Z
M198.98 145.69
L198.94 145.79
C198.85 146.09 198.69 146.39 198.45 146.71
C198.22 147.02 197.95 147.29 197.65 147.51
L197.59 147.55
L197.59 147.62
L197.59 148.47
L197.59 148.71
L197.80 148.59
C198.00 148.48 198.21 148.32 198.44 148.11
C198.55 148.01 198.65 147.92 198.74 147.82
L198.74 147.82
L198.74 152.98
L198.74 153.13
L199.59 153.13
L199.59 152.98
L199.59 145.83
L199.59 145.69
Z
" fill="white" fill-rule="nonzero" />
<path d="
M195.23 193.46
C194.79 193.46 194.44 193.63 194.17 193.97
C193.90 194.32 193.75 194.83 193.70 195.52
L194.30 195.61
C194.30 195.15 194.38 194.79 194.55 194.55
C194.72 194.30 194.94 194.18 195.21 194.18
C195.46 194.18 195.67 194.29 195.84 194.52
C196.01 194.75 196.09 195.05 196.09 195.41
C196.09 195.72 196.01 196.06 195.84 196.43
C195.68 196.79 195.33 197.31 194.79 197.97
C194.33 198.55 194.01 199.04 193.84 199.47
C193.67 199.89 193.59 200.27 193.60 200.61
L196.69 200.61
L196.69 199.77
L194.39 199.77
C194.45 199.61 194.54 199.45 194.64 199.29
C194.74 199.13 194.96 198.83 195.30 198.40
C195.83 197.70 196.20 197.15 196.39 196.73
C196.58 196.32 196.68 195.88 196.68 195.43
C196.68 194.92 196.56 194.46 196.31 194.06
C196.07 193.66 195.70 193.46 195.23 193.46
Z
M198.86 193.46
C198.42 193.46 198.07 193.63 197.80 193.97
C197.53 194.32 197.38 194.83 197.33 195.52
L197.93 195.61
C197.93 195.15 198.01 194.79 198.18 194.55
C198.35 194.30 198.57 194.18 198.84 194.18
C199.09 194.18 199.30 194.29 199.47 194.52
C199.64 194.75 199.72 195.05 199.72 195.41
C199.72 195.72 199.64 196.06 199.47 196.43
C199.31 196.79 198.96 197.31 198.42 197.97
C197.96 198.55 197.64 199.04 197.47 199.47
C197.30 199.89 197.22 200.27 197.23 200.61
L200.32 200.61
L200.32 199.77
L198.02 199.77
C198.08 199.61 198.17 199.45 198.27 199.29
C198.37 199.13 198.59 198.83 198.93 198.40
C199.46 197.70 199.83 197.15 200.02 196.73
C200.21 196.32 200.31 195.88 200.31 195.43
C200.31 194.92 200.19 194.46 199.94 194.06
C199.70 193.66 199.33 193.46 198.86 193.46
Z
" fill="black" fill-rule="nonzero" />
<path d="
M195.23 205.16
C194.74 205.16 194.35 205.35 194.06 205.73
C193.77 206.10 193.61 206.64 193.56 207.35
L193.56 207.48
L193.68 207.50
L194.27 207.59
L194.44 207.62
L194.44 207.45
C194.44 207.02 194.51 206.69 194.67 206.47
C194.81 206.27 194.99 206.16 195.20 206.16
C195.21 206.16 195.21 206.16 195.21 206.16
C195.21 206.16 195.21 206.16 195.21 206.16
C195.41 206.16 195.58 206.26 195.72 206.45
C195.87 206.65 195.95 206.92 195.95 207.25
C195.95 207.54 195.87 207.86 195.71 208.21
C195.55 208.56 195.21 209.07 194.68 209.73
C194.21 210.31 193.89 210.82 193.71 211.25
C193.53 211.69 193.45 212.09 193.45 212.45
L193.46 212.59
L196.83 212.59
L196.83 212.45
L196.83 211.61
L196.83 211.47
L194.61 211.47
C194.65 211.38 194.70 211.29 194.76 211.21
C194.85 211.05 195.07 210.76 195.41 210.33
C195.95 209.62 196.32 209.06 196.52 208.63
C196.72 208.20 196.82 207.74 196.82 207.27
C196.82 206.73 196.69 206.25 196.43 205.83
C196.16 205.38 195.76 205.16 195.23 205.16
Z
M198.76 205.16
C198.36 205.16 198.02 205.33 197.73 205.67
C197.46 206.01 197.29 206.49 197.21 207.13
L197.20 207.25
L197.32 207.28
L197.89 207.44
L198.05 207.48
L198.07 207.31
C198.11 206.91 198.19 206.61 198.33 206.42
C198.45 206.24 198.60 206.16 198.77 206.16
C198.77 206.16 198.77 206.16 198.77 206.16
C198.77 206.16 198.77 206.16 198.78 206.16
C198.94 206.16 199.08 206.24 199.20 206.40
C199.33 206.58 199.39 206.82 199.39 207.12
C199.39 207.45 199.32 207.71 199.16 207.90
C199.01 208.09 198.82 208.18 198.59 208.18
L198.59 208.18
L198.51 208.17
L198.36 208.15
L198.35 208.30
L198.29 209.07
L198.27 209.30
L198.48 209.21
C198.62 209.15 198.74 209.12 198.83 209.12
C198.83 209.12 198.83 209.12 198.83 209.12
C198.83 209.12 198.83 209.12 198.83 209.12
C199.04 209.12 199.22 209.23 199.36 209.44
C199.52 209.67 199.60 209.98 199.60 210.36
C199.60 210.77 199.52 211.10 199.34 211.36
C199.18 211.59 198.99 211.71 198.78 211.71
C198.78 211.71 198.78 211.71 198.78 211.71
C198.78 211.71 198.77 211.71 198.77 211.71
C198.58 211.71 198.43 211.61 198.31 211.42
C198.17 211.21 198.07 210.88 198.01 210.43
L197.99 210.28
L197.84 210.31
L197.27 210.43
L197.15 210.45
L197.15 210.58
C197.19 211.22 197.36 211.73 197.66 212.12
C197.96 212.52 198.34 212.72 198.78 212.72
C199.26 212.72 199.67 212.49 200.01 212.04
C200.33 211.59 200.50 211.03 200.50 210.35
C200.50 210.02 200.46 209.73 200.38 209.47
C200.30 209.20 200.19 208.99 200.06 208.82
C199.97 208.71 199.86 208.63 199.75 208.56
L199.75 208.56
C199.88 208.42 200.00 208.26 200.09 208.06
C200.21 207.79 200.27 207.49 200.27 207.14
C200.27 206.58 200.12 206.11 199.84 205.74
C199.55 205.35 199.19 205.16 198.76 205.16
Z
" fill="white" fill-rule="nonzero" />
</g>
<g  transform="translate(1.19,228.58)" >
<path d="
M109.47 2.94
C109.30 2.94 109.16 3.00 109.05 3.11
C108.93 3.23 108.88 3.37 108.88 3.53
C108.88 3.69 108.94 3.83 109.05 3.95
C109.17 4.07 109.31 4.12 109.47 4.12
C109.63 4.12 109.77 4.07 109.89 3.95
C110.00 3.83 110.06 3.69 110.06 3.53
C110.06 3.37 110.00 3.23 109.89 3.11
C109.77 3.00 109.63 2.94 109.47 2.94
Z
M114.44 8.04
L114.44 10.07
C113.96 10.46 113.57 10.65 113.28 10.65
C113.06 10.65 112.87 10.56 112.70 10.37
C112.54 10.19 112.45 9.96 112.45 9.68
C112.45 9.46 112.52 9.25 112.65 9.07
C112.78 8.88 113.00 8.70 113.31 8.53
C113.48 8.44 113.86 8.27 114.44 8.04
Z
M102.79 3.77
C103.72 3.77 104.48 4.08 105.08 4.71
C105.67 5.34 105.97 6.20 105.97 7.29
C105.97 8.37 105.67 9.23 105.08 9.86
C104.48 10.49 103.74 10.81 102.84 10.81
C102.50 10.81 102.09 10.75 101.60 10.64
L101.60 3.94
C102.05 3.83 102.44 3.77 102.79 3.77
Z
M99.35 3.33
L99.35 3.54
L99.65 3.54
C99.94 3.54 100.17 3.63 100.32 3.80
C100.43 3.92 100.48 4.23 100.48 4.72
L100.48 9.82
C100.48 10.26 100.44 10.55 100.35 10.68
C100.22 10.89 99.98 11.00 99.65 11.00
L99.35 11.00
L99.35 11.21
L102.87 11.21
C104.40 11.21 105.54 10.80 106.29 9.98
C106.96 9.24 107.29 8.33 107.29 7.23
C107.29 6.41 107.11 5.69 106.73 5.07
C106.36 4.44 105.86 4.00 105.25 3.73
C104.63 3.46 103.74 3.33 102.56 3.33
Z
M109.70 5.73
L108.09 6.38
L108.17 6.59
C108.33 6.53 108.46 6.50 108.57 6.50
C108.67 6.50 108.75 6.53 108.81 6.58
C108.87 6.62 108.91 6.71 108.94 6.83
C108.97 7.00 108.99 7.38 108.99 7.96
L108.99 10.01
C108.99 10.34 108.96 10.56 108.91 10.68
C108.86 10.79 108.79 10.88 108.70 10.93
C108.61 10.98 108.43 11.00 108.17 11.00
L108.17 11.21
L110.76 11.21
L110.76 11.00
C110.51 11.00 110.34 10.98 110.24 10.92
C110.15 10.87 110.07 10.79 110.03 10.68
C109.98 10.56 109.95 10.34 109.95 10.01
L109.95 5.73
Z
M113.63 5.73
C113.01 5.73 112.53 5.87 112.19 6.15
C111.85 6.43 111.68 6.73 111.68 7.07
C111.68 7.24 111.72 7.38 111.82 7.48
C111.91 7.58 112.02 7.63 112.17 7.63
C112.31 7.63 112.43 7.58 112.52 7.49
C112.62 7.39 112.66 7.25 112.66 7.07
L112.65 6.74
C112.65 6.56 112.72 6.41 112.87 6.28
C113.01 6.15 113.21 6.08 113.45 6.08
C113.77 6.08 114.02 6.18 114.19 6.38
C114.36 6.58 114.44 6.94 114.44 7.47
L114.44 7.68
C113.53 8.02 112.87 8.30 112.48 8.53
C112.08 8.76 111.81 9.01 111.65 9.28
C111.53 9.47 111.48 9.69 111.48 9.95
C111.48 10.36 111.59 10.69 111.83 10.95
C112.07 11.20 112.37 11.32 112.74 11.32
C112.98 11.32 113.20 11.27 113.41 11.18
C113.55 11.11 113.89 10.87 114.44 10.45
C114.44 10.76 114.50 10.99 114.62 11.12
C114.73 11.25 114.88 11.32 115.07 11.32
C115.46 11.32 115.88 11.03 116.31 10.45
L116.31 10.12
C116.08 10.35 115.92 10.49 115.84 10.54
C115.80 10.57 115.74 10.58 115.68 10.58
C115.62 10.58 115.57 10.57 115.53 10.53
C115.48 10.49 115.45 10.41 115.43 10.30
C115.41 10.18 115.40 9.87 115.40 9.36
L115.40 7.55
C115.40 7.04 115.37 6.70 115.30 6.53
C115.19 6.28 115.02 6.09 114.79 5.97
C114.49 5.81 114.10 5.73 113.63 5.73
Z
M125.03 3.16
C124.51 3.16 124.09 3.31 123.74 3.60
C123.40 3.89 123.12 4.30 122.89 4.83
L123.08 4.92
C123.49 4.28 123.99 3.96 124.59 3.96
C124.96 3.96 125.27 4.08 125.52 4.32
C125.77 4.57 125.90 4.89 125.90 5.29
C125.90 5.60 125.83 5.88 125.69 6.14
C125.55 6.39 125.33 6.61 125.02 6.79
C124.71 6.98 124.40 7.09 124.10 7.12
L124.10 7.30
L124.28 7.30
C124.58 7.30 124.88 7.36 125.17 7.49
C125.46 7.61 125.69 7.75 125.86 7.91
C125.98 8.02 126.09 8.19 126.19 8.40
C126.33 8.69 126.39 8.99 126.39 9.30
C126.39 9.72 126.25 10.08 125.95 10.39
C125.66 10.69 125.32 10.85 124.92 10.85
C124.76 10.85 124.61 10.83 124.46 10.78
C124.37 10.76 124.21 10.69 123.98 10.56
C123.75 10.44 123.60 10.37 123.53 10.35
C123.43 10.32 123.33 10.31 123.24 10.31
C123.11 10.31 123.00 10.35 122.91 10.43
C122.82 10.52 122.77 10.62 122.77 10.73
C122.77 10.88 122.87 11.02 123.06 11.15
C123.25 11.29 123.61 11.35 124.14 11.35
C125.22 11.35 126.04 11.03 126.60 10.38
C127.04 9.88 127.25 9.28 127.25 8.60
C127.25 8.12 127.13 7.71 126.88 7.36
C126.63 7.00 126.27 6.73 125.78 6.54
C126.50 5.93 126.86 5.34 126.86 4.76
C126.86 4.41 126.74 4.09 126.48 3.78
C126.14 3.37 125.66 3.16 125.03 3.16
Z
M117.82 10.08
C117.65 10.08 117.49 10.15 117.37 10.27
C117.24 10.39 117.18 10.55 117.18 10.73
C117.18 10.91 117.24 11.06 117.37 11.19
C117.49 11.31 117.65 11.38 117.82 11.38
C118.00 11.38 118.15 11.31 118.28 11.19
C118.41 11.06 118.47 10.91 118.47 10.73
C118.47 10.55 118.41 10.40 118.28 10.27
C118.16 10.15 118.01 10.08 117.82 10.08
Z
" fill="black" fill-rule="nonzero" />
</g>
<g  transform="translate(1.19,242.50)" >
<circle cx="101.19" cy="6.08" r="5.98" fill="black"/>
<path d="
M102.99 3.31
C102.99 3.31 102.99 3.31 102.99 3.31
C103.00 3.31 103.00 3.31 103.00 3.31
C103.18 3.31 103.35 3.43 103.50 3.68
C103.67 3.95 103.75 4.32 103.75 4.80
C103.75 5.29 103.67 5.66 103.51 5.91
C103.36 6.15 103.19 6.26 102.99 6.26
C102.99 6.26 102.98 6.26 102.98 6.26
C102.98 6.26 102.98 6.26 102.98 6.26
C102.77 6.26 102.59 6.15 102.44 5.91
C102.27 5.66 102.19 5.31 102.19 4.88
C102.19 4.38 102.28 3.99 102.46 3.71
C102.62 3.44 102.80 3.31 102.99 3.31
Z
M99.39 2.30
C98.91 2.30 98.52 2.49 98.22 2.87
C97.93 3.24 97.77 3.78 97.73 4.49
L97.72 4.62
L97.85 4.64
L98.44 4.73
L98.60 4.76
L98.60 4.59
C98.60 4.16 98.68 3.84 98.83 3.62
C98.97 3.41 99.15 3.31 99.37 3.31
C99.37 3.31 99.37 3.31 99.37 3.31
C99.37 3.31 99.37 3.31 99.38 3.31
C99.58 3.31 99.75 3.40 99.89 3.59
C100.04 3.80 100.11 4.06 100.11 4.39
C100.11 4.69 100.03 5.01 99.88 5.35
C99.72 5.71 99.37 6.21 98.84 6.87
C98.37 7.45 98.05 7.96 97.87 8.40
C97.70 8.84 97.61 9.24 97.62 9.60
L97.62 9.73
L100.99 9.73
L100.99 9.59
L100.99 8.75
L100.99 8.61
L98.77 8.61
C98.82 8.52 98.86 8.44 98.92 8.35
C99.02 8.20 99.23 7.90 99.57 7.47
C100.12 6.77 100.49 6.20 100.68 5.78
C100.88 5.34 100.98 4.89 100.98 4.41
C100.98 3.88 100.85 3.39 100.60 2.97
C100.32 2.52 99.92 2.30 99.39 2.30
Z
M102.93 2.30
C102.47 2.30 102.08 2.54 101.77 3.01
C101.46 3.46 101.31 4.07 101.31 4.85
C101.31 5.60 101.46 6.19 101.75 6.63
C102.06 7.09 102.42 7.32 102.85 7.32
C103.10 7.32 103.33 7.22 103.56 7.03
C103.65 6.96 103.73 6.88 103.80 6.79
L103.80 6.79
C103.79 7.18 103.74 7.53 103.65 7.84
C103.55 8.24 103.43 8.51 103.29 8.65
C103.16 8.79 103.02 8.85 102.87 8.85
C102.87 8.85 102.87 8.85 102.87 8.85
C102.87 8.85 102.87 8.85 102.87 8.85
C102.70 8.85 102.57 8.78 102.47 8.63
C102.35 8.46 102.27 8.20 102.23 7.85
L102.22 7.71
L102.07 7.73
L101.52 7.81
L101.39 7.82
L101.40 7.96
C101.45 8.56 101.60 9.02 101.86 9.35
C102.12 9.69 102.46 9.86 102.86 9.86
C103.21 9.86 103.53 9.72 103.81 9.44
C104.08 9.17 104.29 8.76 104.44 8.19
C104.60 7.64 104.67 6.87 104.67 5.88
C104.67 4.98 104.60 4.30 104.46 3.82
C104.32 3.33 104.11 2.96 103.84 2.70
C103.56 2.43 103.26 2.30 102.93 2.30
Z
" fill="white" fill-rule="nonzero" />
<path d="
M112.88 7.06
L112.88 8.88
C112.44 9.23 112.09 9.40 111.83 9.40
C111.63 9.40 111.46 9.32 111.31 9.16
C111.16 8.99 111.09 8.78 111.09 8.53
C111.09 8.33 111.15 8.15 111.26 7.98
C111.38 7.81 111.58 7.65 111.86 7.50
C112.01 7.41 112.35 7.26 112.88 7.06
Z
M116.15 3.55
C116.00 3.90 115.89 4.14 115.81 4.27
C115.65 4.52 115.48 4.74 115.27 4.92
C115.07 5.11 114.88 5.24 114.69 5.31
L114.69 5.49
L115.44 5.49
L115.44 8.71
C115.44 9.05 115.48 9.31 115.55 9.47
C115.63 9.64 115.74 9.77 115.89 9.86
C116.05 9.94 116.20 9.99 116.37 9.99
C116.60 9.99 116.83 9.90 117.06 9.73
C117.28 9.56 117.45 9.30 117.57 8.96
L117.37 8.96
C117.31 9.10 117.23 9.20 117.12 9.28
C117.01 9.35 116.90 9.38 116.78 9.38
C116.64 9.38 116.53 9.33 116.44 9.22
C116.35 9.11 116.31 8.90 116.31 8.59
L116.31 5.49
L117.43 5.49
L117.43 5.12
L116.31 5.12
L116.31 3.55
Z
M112.14 4.98
C111.59 4.98 111.16 5.10 110.85 5.36
C110.54 5.61 110.39 5.88 110.39 6.18
C110.39 6.34 110.43 6.46 110.51 6.55
C110.60 6.64 110.70 6.69 110.83 6.69
C110.96 6.69 111.07 6.65 111.15 6.56
C111.23 6.47 111.27 6.35 111.27 6.19
L111.26 5.88
C111.26 5.73 111.33 5.59 111.46 5.48
C111.59 5.36 111.77 5.30 111.99 5.30
C112.28 5.30 112.50 5.39 112.65 5.57
C112.80 5.74 112.88 6.07 112.88 6.55
L112.88 6.74
C112.05 7.04 111.46 7.29 111.11 7.50
C110.76 7.71 110.51 7.93 110.36 8.17
C110.26 8.34 110.21 8.54 110.21 8.78
C110.21 9.15 110.32 9.44 110.53 9.67
C110.74 9.90 111.02 10.01 111.35 10.01
C111.56 10.01 111.76 9.97 111.95 9.88
C112.08 9.82 112.38 9.60 112.88 9.22
C112.88 9.51 112.93 9.71 113.03 9.83
C113.13 9.95 113.27 10.00 113.44 10.00
C113.80 10.00 114.17 9.74 114.56 9.22
L114.56 8.93
C114.35 9.14 114.21 9.26 114.14 9.31
C114.09 9.33 114.04 9.35 113.99 9.35
C113.94 9.35 113.89 9.33 113.85 9.29
C113.81 9.26 113.78 9.19 113.76 9.09
C113.75 8.98 113.74 8.70 113.74 8.25
L113.74 6.62
C113.74 6.16 113.71 5.85 113.64 5.70
C113.55 5.47 113.39 5.30 113.19 5.19
C112.92 5.05 112.57 4.98 112.14 4.98
Z
" fill="black" fill-rule="nonzero" />
<circle cx="126.19" cy="6.08" r="5.85" fill="white"/>
<circle cx="126.19" cy="6.08" r="5.85" fill="none" stroke="black" stroke-width="0.25px"/>
<path d="
M128.29 3.94
L128.29 7.15
L126.83 7.15
L128.29 3.94
Z
M124.39 2.50
C123.95 2.50 123.60 2.67 123.33 3.02
C123.06 3.36 122.90 3.88 122.86 4.56
L123.45 4.65
C123.45 4.19 123.54 3.84 123.71 3.60
C123.88 3.35 124.10 3.23 124.37 3.23
C124.62 3.23 124.83 3.34 125.00 3.57
C125.17 3.80 125.25 4.09 125.25 4.46
C125.25 4.77 125.17 5.11 125.00 5.47
C124.84 5.84 124.48 6.35 123.95 7.02
C123.49 7.59 123.17 8.09 123.00 8.51
C122.83 8.93 122.75 9.31 122.75 9.65
L125.84 9.65
L125.84 8.81
L123.55 8.81
C123.61 8.65 123.69 8.50 123.79 8.34
C123.89 8.18 124.12 7.88 124.46 7.44
C124.99 6.75 125.36 6.20 125.55 5.78
C125.74 5.36 125.84 4.93 125.84 4.47
C125.84 3.96 125.71 3.51 125.47 3.10
C125.22 2.70 124.86 2.50 124.39 2.50
Z
M128.40 2.53
L126.26 7.15
L126.26 7.95
L128.29 7.95
L128.29 9.65
L128.86 9.65
L128.86 7.95
L129.50 7.95
L129.50 7.15
L128.86 7.15
L128.86 2.53
Z
" fill="black" fill-rule="nonzero" />
</g>
</g>
</svg>
