<?xml version="1.0" encoding="utf-8" standalone="no"?>
<!DOCTYPE svg PUBLIC "-//W3C//DTD SVG 1.0//EN" "http://www.w3.org/TR/SVG/DTD/svg11.dtd" >
<svg version="1.1" baseProfile="full"  width="319.13385" height="338.46454" viewBox="0 0 229.77638 243.69449" preserveAspectRatio="xMidYMid" xmlns="http://www.w3.org/2000/svg" >

<g lengthAdjust="spacingAndGlyphs" xml:space='preserve' >
<g  transform="translate(1.19,1.19)" >
<path d="
M0.0 0.0
L0.0 227.39
L227.39 227.39
L227.39 0.0
Z
" fill="none" fill-rule="nonzero" />
<line x1="6.54" y1="6.54" x2="6.54" y2="220.84" fill="none" stroke="black" stroke-width="0.87px" stroke-linecap="square" />
<line x1="18.45" y1="6.54" x2="18.45" y2="220.84" fill="none" stroke="black" stroke-width="0.25px" stroke-linecap="butt" />
<line x1="30.35" y1="6.54" x2="30.35" y2="220.84" fill="none" stroke="black" stroke-width="0.25px" stroke-linecap="butt" />
<line x1="42.26" y1="6.54" x2="42.26" y2="220.84" fill="none" stroke="black" stroke-width="0.25px" stroke-linecap="butt" />
<line x1="54.17" y1="6.54" x2="54.17" y2="220.84" fill="none" stroke="black" stroke-width="0.25px" stroke-linecap="butt" />
<line x1="66.07" y1="6.54" x2="66.07" y2="220.84" fill="none" stroke="black" stroke-width="0.25px" stroke-linecap="butt" />
<line x1="77.98" y1="6.54" x2="77.98" y2="220.84" fill="none" stroke="black" stroke-width="0.25px" stroke-linecap="butt" />
<line x1="89.88" y1="6.54" x2="89.88" y2="220.84" fill="none" stroke="black" stroke-width="0.25px" stroke-linecap="butt" />
<line x1="101.79" y1="6.54" x2="101.79" y2="220.84" fill="none" stroke="black" stroke-width="0.25px" stroke-linecap="butt" />
<line x1="113.69" y1="6.54" x2="113.69" y2="220.84" fill="none" stroke="black" stroke-width="0.25px" stroke-linecap="butt" />
<line x1="125.60" y1="6.54" x2="125.60" y2="220.84" fill="none" stroke="black" stroke-width="0.25px" stroke-linecap="butt" />
<line x1="137.50" y1="6.54" x2="137.50" y2="220.84" fill="none" stroke="black" stroke-width="0.25px" stroke-linecap="butt" />
<line x1="149.41" y1="6.54" x2="149.41" y2="220.84" fill="none" stroke="black" stroke-width="0.25px" stroke-linecap="butt" />
<line x1="161.31" y1="6.54" x2="161.31" y2="220.84" fill="none" stroke="black" stroke-width="0.25px" stroke-linecap="butt" />
<line x1="173.22" y1="6.54" x2="173.22" y2="220.84" fill="none" stroke="black" stroke-width="0.25px" stroke-linecap="butt" />
<line x1="185.13" y1="6.54" x2="185.13" y2="220.84" fill="none" stroke="black" stroke-width="0.25px" stroke-linecap="butt" />
<line x1="197.03" y1="6.54" x2="197.03" y2="220.84" fill="none" stroke="black" stroke-width="0.25px" stroke-linecap="butt" />
<line x1="208.94" y1="6.54" x2="208.94" y2="220.84" fill="none" stroke="black" stroke-width="0.25px" stroke-linecap="butt" />
<line x1="220.84" y1="6.54" x2="220.84" y2="220.84" fill="none" stroke="black" stroke-width="0.87px" stroke-linecap="square" />
<line x1="6.54" y1="6.54" x2="220.84" y2="6.54" fill="none" stroke="black" stroke-width="0.87px" stroke-linecap="square" />
<line x1="6.54" y1="18.45" x2="220.84" y2="18.45" fill="none" stroke="black" stroke-width="0.25px" stroke-linecap="butt" />
<line x1="6.54" y1="30.35" x2="220.84" y2="30.35" fill="none" stroke="black" stroke-width="0.25px" stroke-linecap="butt" />
<line x1="6.54" y1="42.26" x2="220.84" y2="42.26" fill="none" stroke="black" stroke-width="0.25px" stroke-linecap="butt" />
<line x1="6.54" y1="54.17" x2="220.84" y2="54.17" fill="none" stroke="black" stroke-width="0.25px" stroke-linecap="butt" />
<line x1="6.54" y1="66.07" x2="220.84" y2="66.07" fill="none" stroke="black" stroke-width="0.25px" stroke-linecap="butt" />
<line x1="6.54" y1="77.98" x2="220.84" y2="77.98" fill="none" stroke="black" stroke-width="0.25px" stroke-linecap="butt" />
<line x1="6.54" y1="89.88" x2="220.84" y2="89.88" fill="none" stroke="black" stroke-width="0.25px" stroke-linecap="butt" />
<line x1="6.54" y1="101.79" x2="220.84" y2="101.79" fill="none" stroke="black" stroke-width="0.25px" stroke-linecap="butt" />
<line x1="6.54" y1="113.69" x2="220.84" y2="113.69" fill="none" stroke="black" stroke-width="0.25px" stroke-linecap="butt" />
<line x1="6.54" y1="125.60" x2="220.84" y2="125.60" fill="none" stroke="black" stroke-width="0.25px" stroke-linecap="butt" />
<line x1="6.54" y1="137.50" x2="220.84" y2="137.50" fill="none" stroke="black" stroke-width="0.25px" stroke-linecap="butt" />
<line x1="6.54" y1="149.41" x2="220.84" y2="149.41" fill="none" stroke="black" stroke-width="0.25px" stroke-linecap="butt" />
<line x1="6.54" y1="161.31" x2="220.84" y2="161.31" fill="none" stroke="black" stroke-width="0.25px" stroke-linecap="butt" />
<line x1="6.54" y1="173.22" x2="220.84" y2="173.22" fill="none" stroke="black" stroke-width="0.25px" stroke-linecap="butt" />
<line x1="6.54" y1="185.13" x2="220.84" y2="185.13" fill="none" stroke="black" stroke-width="0.25px" stroke-linecap="butt" />
<line x1="6.54" y1="197.03" x2="220.84" y2="197.03" fill="none" stroke="black" stroke-width="0.25px" stroke-linecap="butt" />
<line x1="6.54" y1="208.94" x2="220.84" y2="208.94" fill="none" stroke="black" stroke-width="0.25px" stroke-linecap="butt" />
<line x1="6.54" y1="220.84" x2="220.84" y2="220.84" fill="none" stroke="black" stroke-width="0.87px" stroke-linecap="square" />
<circle cx="18.45" cy="42.26" r="5.98" fill="black"/>
<circle cx="30.35" cy="30.35" r="5.98" fill="black"/>
<circle cx="30.35" cy="66.07" r="5.98" fill="black"/>
<circle cx="30.35" cy="161.31" r="5.85" fill="white"/>
<circle cx="30.35" cy="161.31" r="5.85" fill="none" stroke="black" stroke-width="0.25px"/>
<circle cx="42.26" cy="42.26" r="5.85" fill="white"/>
<circle cx="42.26" cy="42.26" r="5.85" fill="none" stroke="black" stroke-width="0.25px"/>
<circle cx="42.26" cy="113.69" r="1.27" fill="black"/>
<circle cx="42.26" cy="185.13" r="5.85" fill="white"/>
<circle cx="42.26" cy="185.13" r="5.85" fill="none" stroke="black" stroke-width="0.25px"/>
<circle cx="66.07" cy="30.35" r="5.85" fill="white"/>
<circle cx="66.07" cy="30.35" r="5.85" fill="none" stroke="black" stroke-width="0.25px"/>
<circle cx="89.88" cy="197.03" r="5.85" fill="white"/>
<circle cx="89.88" cy="197.03" r="5.85" fill="none" stroke="black" stroke-width="0.25px"/>
<circle cx="101.79" cy="42.26" r="5.85" fill="white"/>
<circle cx="101.79" cy="42.26" r="5.85" fill="none" stroke="black" stroke-width="0.25px"/>
<circle cx="113.69" cy="42.26" r="1.27" fill="black"/>
<circle cx="113.69" cy="113.69" r="1.27" fill="black"/>
<circle cx="113.69" cy="173.22" r="5.98" fill="black"/>
<circle cx="113.69" cy="185.13" r="1.27" fill="black"/>
<circle cx="113.69" cy="197.03" r="5.85" fill="white"/>
<circle cx="113.69" cy="197.03" r="5.85" fill="none" stroke="black" stroke-width="0.25px"/>
<circle cx="125.60" cy="149.41" r="5.98" fill="black"/>
<circle cx="137.50" cy="42.26" r="5.85" fill="white"/>
<circle cx="137.50" cy="42.26" r="5.85" fill="none" stroke="black" stroke-width="0.25px"/>
<circle cx="137.50" cy="161.31" r="5.85" fill="white"/>
<circle cx="137.50" cy="161.31" r="5.85" fill="none" stroke="black" stroke-width="0.25px"/>
<circle cx="137.50" cy="185.13" r="5.98" fill="black"/>
<circle cx="149.41" cy="137.50" r="5.85" fill="white"/>
<circle cx="149.41" cy="137.50" r="5.85" fill="none" stroke="black" stroke-width="0.25px"/>
<circle cx="149.41" cy="161.31" r="5.85" fill="white"/>
<circle cx="149.41" cy="161.31" r="5.85" fill="none" stroke="black" stroke-width="0.25px"/>
<circle cx="161.31" cy="30.35" r="5.85" fill="white"/>
<circle cx="161.31" cy="30.35" r="5.85" fill="none" stroke="black" stroke-width="0.25px"/>
<circle cx="161.31" cy="161.31" r="5.98" fill="black"/>
<circle cx="161.31" cy="185.13" r="5.98" fill="black"/>
<circle cx="173.22" cy="125.60" r="5.98" fill="black"/>
<circle cx="185.13" cy="18.45" r="5.85" fill="white"/>
<circle cx="185.13" cy="18.45" r="5.85" fill="none" stroke="black" stroke-width="0.25px"/>
<circle cx="185.13" cy="42.26" r="5.98" fill="black"/>
<circle cx="185.13" cy="66.07" r="5.98" fill="black"/>
<circle cx="185.13" cy="113.69" r="1.27" fill="black"/>
<circle cx="185.13" cy="185.13" r="1.27" fill="black"/>
<circle cx="185.13" cy="197.03" r="5.98" fill="black"/>
<circle cx="197.03" cy="30.35" r="5.98" fill="black"/>
<circle cx="197.03" cy="125.60" r="5.98" fill="black"/>
<path d="
M123.79 145.63
C123.31 145.63 122.92 145.82 122.62 146.20
C122.34 146.57 122.17 147.11 122.13 147.82
L122.12 147.95
L122.25 147.97
L122.84 148.06
L123.00 148.09
L123.00 147.92
C123.00 147.49 123.08 147.17 123.23 146.94
C123.38 146.74 123.56 146.64 123.77 146.64
C123.77 146.64 123.77 146.64 123.78 146.64
C123.78 146.64 123.78 146.64 123.78 146.64
C123.98 146.64 124.15 146.73 124.29 146.92
C124.44 147.12 124.52 147.39 124.52 147.72
C124.52 148.02 124.44 148.34 124.28 148.68
C124.12 149.04 123.77 149.54 123.25 150.20
C122.78 150.78 122.46 151.29 122.28 151.73
C122.10 152.17 122.01 152.57 122.02 152.93
L122.02 153.06
L125.39 153.06
L125.39 152.92
L125.39 152.08
L125.39 151.94
L123.18 151.94
C123.22 151.85 123.27 151.77 123.32 151.68
C123.42 151.53 123.64 151.23 123.98 150.80
C124.52 150.10 124.89 149.53 125.09 149.11
C125.29 148.67 125.39 148.22 125.39 147.74
C125.39 147.20 125.26 146.72 125.00 146.30
C124.73 145.85 124.32 145.63 123.79 145.63
Z
M127.33 145.63
C126.93 145.63 126.58 145.80 126.30 146.15
C126.03 146.48 125.86 146.96 125.78 147.60
L125.77 147.72
L125.88 147.75
L126.45 147.91
L126.62 147.95
L126.63 147.79
C126.67 147.38 126.76 147.08 126.90 146.89
C127.02 146.72 127.17 146.63 127.34 146.63
C127.34 146.63 127.34 146.63 127.34 146.63
C127.34 146.63 127.34 146.63 127.34 146.63
C127.51 146.63 127.65 146.71 127.77 146.88
C127.90 147.05 127.96 147.29 127.96 147.60
C127.96 147.93 127.88 148.19 127.73 148.38
C127.58 148.56 127.39 148.65 127.16 148.65
L127.16 148.65
L127.07 148.64
L126.93 148.63
L126.92 148.77
L126.85 149.54
L126.83 149.77
L127.05 149.68
C127.19 149.62 127.31 149.59 127.40 149.59
C127.40 149.59 127.40 149.59 127.40 149.59
C127.40 149.59 127.40 149.59 127.40 149.59
C127.61 149.59 127.78 149.70 127.93 149.91
C128.09 150.14 128.17 150.45 128.17 150.83
C128.17 151.24 128.08 151.58 127.91 151.83
C127.74 152.06 127.56 152.18 127.35 152.18
C127.35 152.18 127.34 152.18 127.34 152.18
C127.34 152.18 127.34 152.18 127.34 152.18
C127.15 152.18 126.99 152.09 126.87 151.90
C126.73 151.68 126.64 151.35 126.58 150.91
L126.56 150.76
L126.41 150.79
L125.83 150.90
L125.71 150.93
L125.72 151.05
C125.76 151.69 125.93 152.20 126.22 152.59
C126.53 152.99 126.91 153.19 127.35 153.19
C127.83 153.19 128.24 152.96 128.57 152.51
C128.90 152.07 129.06 151.50 129.06 150.82
C129.06 150.50 129.02 150.20 128.94 149.94
C128.86 149.67 128.76 149.46 128.62 149.30
C128.53 149.19 128.43 149.10 128.31 149.03
L128.31 149.03
C128.45 148.89 128.56 148.73 128.65 148.53
C128.77 148.27 128.83 147.96 128.83 147.62
C128.83 147.05 128.69 146.58 128.41 146.21
C128.12 145.82 127.76 145.63 127.33 145.63
Z
" fill="white" fill-rule="nonzero" />
<path d="
M135.70 157.74
C135.26 157.74 134.91 157.91 134.64 158.26
C134.37 158.60 134.22 159.12 134.18 159.80
L134.77 159.89
C134.77 159.43 134.85 159.08 135.02 158.83
C135.20 158.59 135.41 158.46 135.68 158.46
C135.93 158.46 136.14 158.58 136.31 158.81
C136.48 159.03 136.56 159.33 136.56 159.69
C136.56 160.01 136.48 160.35 136.31 160.71
C136.15 161.07 135.80 161.59 135.26 162.26
C134.80 162.83 134.49 163.33 134.31 163.75
C134.14 164.17 134.06 164.55 134.07 164.89
L137.16 164.89
L137.16 164.05
L134.86 164.05
C134.93 163.89 135.01 163.73 135.11 163.57
C135.21 163.42 135.43 163.12 135.77 162.68
C136.31 161.99 136.67 161.43 136.86 161.02
C137.05 160.60 137.15 160.16 137.15 159.71
C137.15 159.20 137.03 158.74 136.78 158.34
C136.54 157.94 136.18 157.74 135.70 157.74
Z
M139.33 157.74
C138.89 157.74 138.54 157.91 138.27 158.26
C138.00 158.60 137.85 159.12 137.81 159.80
L138.40 159.89
C138.40 159.43 138.48 159.08 138.65 158.83
C138.83 158.59 139.04 158.46 139.31 158.46
C139.56 158.46 139.77 158.58 139.94 158.81
C140.11 159.03 140.19 159.33 140.19 159.69
C140.19 160.01 140.11 160.35 139.94 160.71
C139.78 161.07 139.43 161.59 138.89 162.26
C138.43 162.83 138.12 163.33 137.94 163.75
C137.77 164.17 137.69 164.55 137.70 164.89
L140.79 164.89
L140.79 164.05
L138.49 164.05
C138.56 163.89 138.64 163.73 138.74 163.57
C138.84 163.42 139.06 163.12 139.40 162.68
C139.94 161.99 140.30 161.43 140.49 161.02
C140.68 160.60 140.78 160.16 140.78 159.71
C140.78 159.20 140.66 158.74 140.41 158.34
C140.17 157.94 139.81 157.74 139.33 157.74
Z
" fill="black" fill-rule="nonzero" />
<path d="
M151.51 135.36
L151.51 138.57
L150.05 138.57
L151.51 135.36
Z
M147.61 133.93
C147.17 133.93 146.81 134.10 146.55 134.45
C146.28 134.79 146.12 135.30 146.08 135.99
L146.67 136.08
C146.67 135.62 146.76 135.27 146.93 135.02
C147.10 134.77 147.32 134.65 147.59 134.65
C147.84 134.65 148.04 134.77 148.21 134.99
C148.38 135.22 148.47 135.52 148.47 135.88
C148.47 136.20 148.39 136.53 148.22 136.90
C148.05 137.26 147.70 137.78 147.17 138.45
C146.71 139.02 146.39 139.52 146.22 139.94
C146.05 140.36 145.97 140.74 145.97 141.08
L149.06 141.08
L149.06 140.24
L146.77 140.24
C146.83 140.08 146.91 139.92 147.01 139.76
C147.11 139.60 147.33 139.31 147.68 138.87
C148.21 138.18 148.58 137.62 148.77 137.20
C148.96 136.79 149.06 136.35 149.06 135.90
C149.06 135.39 148.93 134.93 148.69 134.53
C148.44 134.13 148.08 133.93 147.61 133.93
Z
M151.62 133.96
L149.48 138.57
L149.48 139.37
L151.51 139.37
L151.51 141.08
L152.08 141.08
L152.08 139.37
L152.72 139.37
L152.72 138.57
L152.08 138.57
L152.08 133.96
Z
" fill="black" fill-rule="nonzero" />
<path d="
M151.23 160.98
C151.49 160.98 151.70 161.12 151.88 161.40
C152.05 161.68 152.14 162.07 152.14 162.58
C152.14 163.09 152.05 163.50 151.88 163.79
C151.70 164.08 151.50 164.23 151.27 164.23
C151.01 164.23 150.79 164.08 150.59 163.76
C150.40 163.45 150.30 163.04 150.30 162.52
C150.30 162.05 150.40 161.67 150.58 161.40
C150.77 161.12 150.98 160.98 151.23 160.98
Z
M147.61 157.68
C147.17 157.68 146.81 157.85 146.55 158.20
C146.28 158.54 146.12 159.05 146.08 159.74
L146.67 159.83
C146.67 159.37 146.76 159.02 146.93 158.77
C147.10 158.53 147.32 158.40 147.59 158.40
C147.84 158.40 148.04 158.52 148.21 158.74
C148.38 158.97 148.47 159.27 148.47 159.63
C148.47 159.95 148.39 160.28 148.22 160.65
C148.05 161.01 147.70 161.53 147.17 162.20
C146.71 162.77 146.39 163.27 146.22 163.69
C146.05 164.11 145.97 164.49 145.97 164.83
L149.06 164.83
L149.06 163.99
L146.77 163.99
C146.83 163.83 146.91 163.67 147.01 163.51
C147.11 163.35 147.33 163.06 147.68 162.62
C148.21 161.93 148.58 161.37 148.77 160.96
C148.96 160.54 149.06 160.10 149.06 159.65
C149.06 159.14 148.93 158.68 148.69 158.28
C148.44 157.88 148.08 157.68 147.61 157.68
Z
M151.32 157.68
C150.83 157.68 150.43 157.97 150.11 158.56
C149.80 159.14 149.64 160.12 149.64 161.50
C149.64 162.74 149.80 163.62 150.10 164.15
C150.41 164.69 150.80 164.95 151.27 164.95
C151.53 164.95 151.77 164.86 151.99 164.67
C152.20 164.49 152.38 164.20 152.52 163.82
C152.66 163.43 152.73 163.00 152.73 162.52
C152.73 161.82 152.59 161.26 152.31 160.84
C152.04 160.42 151.72 160.21 151.34 160.21
C151.12 160.21 150.91 160.29 150.71 160.45
C150.51 160.61 150.35 160.85 150.21 161.16
C150.22 160.28 150.30 159.62 150.48 159.17
C150.68 158.66 150.95 158.40 151.28 158.40
C151.50 158.40 151.68 158.51 151.83 158.74
C151.94 158.89 152.02 159.15 152.08 159.52
L152.65 159.45
C152.59 158.88 152.45 158.44 152.21 158.13
C151.97 157.83 151.67 157.68 151.32 157.68
Z
" fill="black" fill-rule="nonzero" />
<path d="
M162.53 160.20
L162.53 160.20
L162.53 160.20
C162.53 160.20 162.53 160.20 162.53 160.20
Z
M159.51 157.54
C159.03 157.54 158.64 157.73 158.34 158.11
C158.05 158.48 157.89 159.02 157.85 159.73
L157.84 159.86
L157.97 159.88
L158.56 159.97
L158.72 160.00
L158.72 159.83
C158.72 159.40 158.80 159.07 158.95 158.85
C159.09 158.65 159.27 158.54 159.49 158.54
C159.49 158.54 159.49 158.54 159.49 158.54
C159.49 158.54 159.49 158.54 159.50 158.54
C159.70 158.54 159.87 158.64 160.01 158.83
C160.16 159.03 160.23 159.30 160.23 159.63
C160.23 159.93 160.15 160.24 160.00 160.59
C159.84 160.94 159.49 161.45 158.96 162.11
C158.49 162.69 158.17 163.20 157.99 163.63
C157.81 164.07 157.73 164.47 157.74 164.83
L157.74 164.97
L161.11 164.97
L161.11 164.83
L161.11 163.99
L161.11 163.85
L158.89 163.85
C158.94 163.76 158.98 163.67 159.04 163.59
C159.14 163.43 159.35 163.14 159.69 162.71
C160.24 162.00 160.61 161.44 160.80 161.01
C161.00 160.58 161.10 160.12 161.10 159.65
C161.10 159.11 160.97 158.63 160.71 158.21
C160.44 157.76 160.04 157.54 159.51 157.54
Z
M162.01 157.66
L161.99 157.79
L161.54 161.45
L161.52 161.58
L161.65 161.60
L162.19 161.71
L162.30 161.73
L162.35 161.62
C162.43 161.43 162.53 161.28 162.66 161.17
C162.79 161.07 162.92 161.02 163.06 161.02
C163.06 161.02 163.06 161.02 163.06 161.02
C163.06 161.02 163.07 161.02 163.07 161.02
C163.30 161.02 163.50 161.14 163.66 161.38
C163.84 161.64 163.93 162.00 163.92 162.48
C163.92 163.00 163.83 163.40 163.65 163.69
C163.48 163.96 163.29 164.09 163.07 164.09
C163.07 164.09 163.07 164.09 163.07 164.09
C163.07 164.09 163.07 164.09 163.06 164.09
C162.90 164.09 162.74 164.00 162.61 163.81
C162.46 163.61 162.36 163.30 162.32 162.87
L162.30 162.73
L162.16 162.75
L161.56 162.82
L161.43 162.84
L161.43 162.97
C161.47 163.62 161.64 164.14 161.94 164.51
C162.25 164.90 162.63 165.09 163.08 165.09
C163.62 165.09 164.04 164.82 164.36 164.28
C164.66 163.76 164.81 163.14 164.81 162.42
C164.81 161.68 164.66 161.09 164.36 160.65
C164.04 160.20 163.66 159.97 163.22 159.97
C162.98 159.97 162.75 160.04 162.53 160.20
L162.53 160.20
L162.71 158.78
L164.59 158.78
L164.59 158.64
L164.59 157.80
L164.59 157.66
Z
" fill="white" fill-rule="nonzero" />
<path d="
M159.51 181.41
C159.03 181.41 158.64 181.60 158.34 181.98
C158.05 182.35 157.89 182.89 157.85 183.60
L157.84 183.73
L157.97 183.75
L158.56 183.84
L158.72 183.87
L158.72 183.70
C158.72 183.27 158.80 182.95 158.95 182.72
C159.09 182.52 159.27 182.42 159.49 182.42
C159.49 182.42 159.49 182.42 159.49 182.42
C159.49 182.42 159.49 182.42 159.50 182.42
C159.70 182.42 159.87 182.51 160.01 182.70
C160.16 182.90 160.23 183.17 160.23 183.50
C160.23 183.80 160.15 184.12 160.00 184.46
C159.84 184.82 159.49 185.32 158.96 185.98
C158.49 186.56 158.17 187.07 157.99 187.51
C157.81 187.95 157.73 188.34 157.74 188.70
L157.74 188.84
L161.11 188.84
L161.11 188.70
L161.11 187.86
L161.11 187.72
L158.89 187.72
C158.94 187.63 158.98 187.55 159.04 187.46
C159.14 187.31 159.35 187.01 159.69 186.58
C160.24 185.88 160.61 185.31 160.80 184.89
C161.00 184.45 161.10 184.00 161.10 183.52
C161.10 182.98 160.97 182.50 160.71 182.08
C160.44 181.63 160.04 181.41 159.51 181.41
Z
M161.47 181.53
L161.47 181.67
L161.47 182.51
L161.47 182.65
L163.66 182.65
C163.41 183.12 163.17 183.67 162.95 184.30
C162.70 185.03 162.50 185.79 162.35 186.59
C162.21 187.39 162.13 188.10 162.13 188.70
L162.12 188.84
L162.86 188.84
L162.99 188.84
L163.00 188.71
C163.05 187.57 163.25 186.41 163.58 185.25
C163.92 184.09 164.31 183.15 164.76 182.43
L164.78 182.39
L164.78 182.35
L164.78 181.67
L164.78 181.53
Z
" fill="white" fill-rule="nonzero" />
</g>
<g  transform="translate(1.19,228.58)" >
<path d="
M109.47 2.94
C109.30 2.94 109.16 3.00 109.05 3.11
C108.93 3.23 108.88 3.37 108.88 3.53
C108.88 3.69 108.94 3.83 109.05 3.95
C109.17 4.07 109.31 4.12 109.47 4.12
C109.63 4.12 109.77 4.07 109.89 3.95
C110.00 3.83 110.06 3.69 110.06 3.53
C110.06 3.37 110.00 3.23 109.89 3.11
C109.77 3.00 109.63 2.94 109.47 2.94
Z
M125.81 4.39
L125.81 8.31
L123.04 8.31
L125.81 4.39
Z
M114.44 8.04
L114.44 10.07
C113.96 10.46 113.57 10.65 113.28 10.65
C113.06 10.65 112.87 10.56 112.70 10.37
C112.54 10.19 112.45 9.96 112.45 9.68
C112.45 9.46 112.52 9.25 112.65 9.07
C112.78 8.88 113.00 8.70 113.31 8.53
C113.48 8.44 113.86 8.27 114.44 8.04
Z
M102.79 3.77
C103.72 3.77 104.48 4.08 105.08 4.71
C105.67 5.34 105.97 6.20 105.97 7.29
C105.97 8.37 105.67 9.23 105.08 9.86
C104.48 10.49 103.74 10.81 102.84 10.81
C102.50 10.81 102.09 10.75 101.60 10.64
L101.60 3.94
C102.05 3.83 102.44 3.77 102.79 3.77
Z
M99.35 3.33
L99.35 3.54
L99.65 3.54
C99.94 3.54 100.17 3.63 100.32 3.80
C100.43 3.92 100.48 4.23 100.48 4.72
L100.48 9.82
C100.48 10.26 100.44 10.55 100.35 10.68
C100.22 10.89 99.98 11.00 99.65 11.00
L99.35 11.00
L99.35 11.21
L102.87 11.21
C104.40 11.21 105.54 10.80 106.29 9.98
C106.96 9.24 107.29 8.33 107.29 7.23
C107.29 6.41 107.11 5.69 106.73 5.07
C106.36 4.44 105.86 4.00 105.25 3.73
C104.63 3.46 103.74 3.33 102.56 3.33
Z
M109.70 5.73
L108.09 6.38
L108.17 6.59
C108.33 6.53 108.46 6.50 108.57 6.50
C108.67 6.50 108.75 6.53 108.81 6.58
C108.87 6.62 108.91 6.71 108.94 6.83
C108.97 7.00 108.99 7.38 108.99 7.96
L108.99 10.01
C108.99 10.34 108.96 10.56 108.91 10.68
C108.86 10.79 108.79 10.88 108.70 10.93
C108.61 10.98 108.43 11.00 108.17 11.00
L108.17 11.21
L110.76 11.21
L110.76 11.00
C110.51 11.00 110.34 10.98 110.24 10.92
C110.15 10.87 110.07 10.79 110.03 10.68
C109.98 10.56 109.95 10.34 109.95 10.01
L109.95 5.73
Z
M126.13 3.16
L122.47 8.39
L122.47 9.13
L125.81 9.13
L125.81 11.21
L126.77 11.21
L126.77 9.13
L127.83 9.13
L127.83 8.31
L126.77 8.31
L126.77 3.16
Z
M113.63 5.73
C113.01 5.73 112.53 5.87 112.19 6.15
C111.85 6.43 111.68 6.73 111.68 7.07
C111.68 7.24 111.72 7.38 111.82 7.48
C111.91 7.58 112.02 7.63 112.17 7.63
C112.31 7.63 112.43 7.58 112.52 7.49
C112.62 7.39 112.66 7.25 112.66 7.07
L112.65 6.74
C112.65 6.56 112.72 6.41 112.87 6.28
C113.01 6.15 113.21 6.08 113.45 6.08
C113.77 6.08 114.02 6.18 114.19 6.38
C114.36 6.58 114.44 6.94 114.44 7.47
L114.44 7.68
C113.53 8.02 112.87 8.30 112.48 8.53
C112.08 8.76 111.81 9.01 111.65 9.28
C111.53 9.47 111.48 9.69 111.48 9.95
C111.48 10.36 111.59 10.69 111.83 10.95
C112.07 11.20 112.37 11.32 112.74 11.32
C112.98 11.32 113.20 11.27 113.41 11.18
C113.55 11.11 113.89 10.87 114.44 10.45
C114.44 10.76 114.50 10.99 114.62 11.12
C114.73 11.25 114.88 11.32 115.07 11.32
C115.46 11.32 115.88 11.03 116.31 10.45
L116.31 10.12
C116.08 10.35 115.92 10.49 115.84 10.54
C115.80 10.57 115.74 10.58 115.68 10.58
C115.62 10.58 115.57 10.57 115.53 10.53
C115.48 10.49 115.45 10.41 115.43 10.30
C115.41 10.18 115.40 9.87 115.40 9.36
L115.40 7.55
C115.40 7.04 115.37 6.70 115.30 6.53
C115.19 6.28 115.02 6.09 114.79 5.97
C114.49 5.81 114.10 5.73 113.63 5.73
Z
M117.82 10.08
C117.65 10.08 117.49 10.15 117.37 10.27
C117.24 10.39 117.18 10.55 117.18 10.73
C117.18 10.91 117.24 11.06 117.37 11.19
C117.49 11.31 117.65 11.38 117.82 11.38
C118.00 11.38 118.15 11.31 118.28 11.19
C118.41 11.06 118.47 10.91 118.47 10.73
C118.47 10.55 118.41 10.40 118.28 10.27
C118.16 10.15 118.01 10.08 117.82 10.08
Z
" fill="black" fill-rule="nonzero" />
</g>
</g>
</svg>
