<?xml version="1.0" encoding="utf-8" standalone="no"?>
<!DOCTYPE svg PUBLIC "-//W3C//DTD SVG 1.0//EN" "http://www.w3.org/TR/SVG/DTD/svg11.dtd" >
<svg version="1.1" baseProfile="full"  width="319.13385" height="338.46454" viewBox="0 0 229.77638 243.69449" preserveAspectRatio="xMidYMid" xmlns="http://www.w3.org/2000/svg" >

<g lengthAdjust="spacingAndGlyphs" xml:space='preserve' >
<g  transform="translate(1.19,1.19)" >
<path d="
M0.0 0.0
L0.0 227.39
L227.39 227.39
L227.39 0.0
Z
" fill="none" fill-rule="nonzero" />
<line x1="6.54" y1="6.54" x2="6.54" y2="220.84" fill="none" stroke="black" stroke-width="0.87px" stroke-linecap="square" />
<line x1="18.45" y1="6.54" x2="18.45" y2="220.84" fill="none" stroke="black" stroke-width="0.25px" stroke-linecap="butt" />
<line x1="30.35" y1="6.54" x2="30.35" y2="220.84" fill="none" stroke="black" stroke-width="0.25px" stroke-linecap="butt" />
<line x1="42.26" y1="6.54" x2="42.26" y2="220.84" fill="none" stroke="black" stroke-width="0.25px" stroke-linecap="butt" />
<line x1="54.17" y1="6.54" x2="54.17" y2="220.84" fill="none" stroke="black" stroke-width="0.25px" stroke-linecap="butt" />
<line x1="66.07" y1="6.54" x2="66.07" y2="220.84" fill="none" stroke="black" stroke-width="0.25px" stroke-linecap="butt" />
<line x1="77.98" y1="6.54" x2="77.98" y2="220.84" fill="none" stroke="black" stroke-width="0.25px" stroke-linecap="butt" />
<line x1="89.88" y1="6.54" x2="89.88" y2="220.84" fill="none" stroke="black" stroke-width="0.25px" stroke-linecap="butt" />
<line x1="101.79" y1="6.54" x2="101.79" y2="220.84" fill="none" stroke="black" stroke-width="0.25px" stroke-linecap="butt" />
<line x1="113.69" y1="6.54" x2="113.69" y2="220.84" fill="none" stroke="black" stroke-width="0.25px" stroke-linecap="butt" />
<line x1="125.60" y1="6.54" x2="125.60" y2="36.31" fill="none" stroke="black" stroke-width="0.25px" stroke-linecap="butt" />
<line x1="125.60" y1="48.21" x2="125.60" y2="220.84" fill="none" stroke="black" stroke-width="0.25px" stroke-linecap="butt" />
<line x1="137.50" y1="6.54" x2="137.50" y2="48.21" fill="none" stroke="black" stroke-width="0.25px" stroke-linecap="butt" />
<line x1="137.50" y1="60.12" x2="137.50" y2="220.84" fill="none" stroke="black" stroke-width="0.25px" stroke-linecap="butt" />
<line x1="149.41" y1="6.54" x2="149.41" y2="24.40" fill="none" stroke="black" stroke-width="0.25px" stroke-linecap="butt" />
<line x1="149.41" y1="48.21" x2="149.41" y2="220.84" fill="none" stroke="black" stroke-width="0.25px" stroke-linecap="butt" />
<line x1="161.31" y1="6.54" x2="161.31" y2="220.84" fill="none" stroke="black" stroke-width="0.25px" stroke-linecap="butt" />
<line x1="173.22" y1="6.54" x2="173.22" y2="83.93" fill="none" stroke="black" stroke-width="0.25px" stroke-linecap="butt" />
<line x1="173.22" y1="95.83" x2="173.22" y2="220.84" fill="none" stroke="black" stroke-width="0.25px" stroke-linecap="butt" />
<line x1="185.13" y1="6.54" x2="185.13" y2="83.93" fill="none" stroke="black" stroke-width="0.25px" stroke-linecap="butt" />
<line x1="185.13" y1="95.83" x2="185.13" y2="220.84" fill="none" stroke="black" stroke-width="0.25px" stroke-linecap="butt" />
<line x1="197.03" y1="6.54" x2="197.03" y2="220.84" fill="none" stroke="black" stroke-width="0.25px" stroke-linecap="butt" />
<line x1="208.94" y1="6.54" x2="208.94" y2="220.84" fill="none" stroke="black" stroke-width="0.25px" stroke-linecap="butt" />
<line x1="220.84" y1="6.54" x2="220.84" y2="220.84" fill="none" stroke="black" stroke-width="0.87px" stroke-linecap="square" />
<line x1="6.54" y1="6.54" x2="220.84" y2="6.54" fill="none" stroke="black" stroke-width="0.87px" stroke-linecap="square" />
<line x1="6.54" y1="18.45" x2="220.84" y2="18.45" fill="none" stroke="black" stroke-width="0.25px" stroke-linecap="butt" />
<line x1="6.54" y1="30.35" x2="143.46" y2="30.35" fill="none" stroke="black" stroke-width="0.25px" stroke-linecap="butt" />
<line x1="155.36" y1="30.35" x2="220.84" y2="30.35" fill="none" stroke="black" stroke-width="0.25px" stroke-linecap="butt" />
<line x1="6.54" y1="42.26" x2="119.65" y2="42.26" fill="none" stroke="black" stroke-width="0.25px" stroke-linecap="butt" />
<line x1="131.55" y1="42.26" x2="143.46" y2="42.26" fill="none" stroke="black" stroke-width="0.25px" stroke-linecap="butt" />
<line x1="155.36" y1="42.26" x2="220.84" y2="42.26" fill="none" stroke="black" stroke-width="0.25px" stroke-linecap="butt" />
<line x1="6.54" y1="54.17" x2="131.55" y2="54.17" fill="none" stroke="black" stroke-width="0.25px" stroke-linecap="butt" />
<line x1="143.46" y1="54.17" x2="220.84" y2="54.17" fill="none" stroke="black" stroke-width="0.25px" stroke-linecap="butt" />
<line x1="6.54" y1="66.07" x2="220.84" y2="66.07" fill="none" stroke="black" stroke-width="0.25px" stroke-linecap="butt" />
<line x1="6.54" y1="77.98" x2="220.84" y2="77.98" fill="none" stroke="black" stroke-width="0.25px" stroke-linecap="butt" />
<line x1="6.54" y1="89.88" x2="167.27" y2="89.88" fill="none" stroke="black" stroke-width="0.25px" stroke-linecap="butt" />
<line x1="191.08" y1="89.88" x2="220.84" y2="89.88" fill="none" stroke="black" stroke-width="0.25px" stroke-linecap="butt" />
<line x1="6.54" y1="101.79" x2="220.84" y2="101.79" fill="none" stroke="black" stroke-width="0.25px" stroke-linecap="butt" />
<line x1="6.54" y1="113.69" x2="220.84" y2="113.69" fill="none" stroke="black" stroke-width="0.25px" stroke-linecap="butt" />
<line x1="6.54" y1="125.60" x2="220.84" y2="125.60" fill="none" stroke="black" stroke-width="0.25px" stroke-linecap="butt" />
<line x1="6.54" y1="137.50" x2="220.84" y2="137.50" fill="none" stroke="black" stroke-width="0.25px" stroke-linecap="butt" />
<line x1="6.54" y1="149.41" x2="220.84" y2="149.41" fill="none" stroke="black" stroke-width="0.25px" stroke-linecap="butt" />
<line x1="6.54" y1="161.31" x2="220.84" y2="161.31" fill="none" stroke="black" stroke-width="0.25px" stroke-linecap="butt" />
<line x1="6.54" y1="173.22" x2="220.84" y2="173.22" fill="none" stroke="black" stroke-width="0.25px" stroke-linecap="butt" />
<line x1="6.54" y1="185.13" x2="220.84" y2="185.13" fill="none" stroke="black" stroke-width="0.25px" stroke-linecap="butt" />
<line x1="6.54" y1="197.03" x2="220.84" y2="197.03" fill="none" stroke="black" stroke-width="0.25px" stroke-linecap="butt" />
<line x1="6.54" y1="208.94" x2="220.84" y2="208.94" fill="none" stroke="black" stroke-width="0.25px" stroke-linecap="butt" />
<line x1="6.54" y1="220.84" x2="220.84" y2="220.84" fill="none" stroke="black" stroke-width="0.87px" stroke-linecap="square" />
<circle cx="18.45" cy="42.26" r="5.98" fill="black"/>
<circle cx="18.45" cy="161.31" r="5.85" fill="white"/>
<circle cx="18.45" cy="161.31" r="5.85" fill="none" stroke="black" stroke-width="0.25px"/>
<circle cx="18.45" cy="173.22" r="5.98" fill="black"/>
<circle cx="18.45" cy="197.03" r="5.98" fill="black"/>
<circle cx="30.35" cy="30.35" r="5.98" fill="black"/>
<circle cx="30.35" cy="66.07" r="5.98" fill="black"/>
<circle cx="30.35" cy="161.31" r="5.85" fill="white"/>
<circle cx="30.35" cy="161.31" r="5.85" fill="none" stroke="black" stroke-width="0.25px"/>
<circle cx="30.35" cy="185.13" r="5.98" fill="black"/>
<circle cx="30.35" cy="208.94" r="5.98" fill="black"/>
<circle cx="42.26" cy="42.26" r="5.85" fill="white"/>
<circle cx="42.26" cy="42.26" r="5.85" fill="none" stroke="black" stroke-width="0.25px"/>
<circle cx="42.26" cy="113.69" r="5.98" fill="black"/>
<circle cx="42.26" cy="173.22" r="5.85" fill="white"/>
<circle cx="42.26" cy="173.22" r="5.85" fill="none" stroke="black" stroke-width="0.25px"/>
<circle cx="42.26" cy="185.13" r="5.85" fill="white"/>
<circle cx="42.26" cy="185.13" r="5.85" fill="none" stroke="black" stroke-width="0.25px"/>
<circle cx="42.26" cy="197.03" r="5.98" fill="black"/>
<circle cx="54.17" cy="197.03" r="5.85" fill="white"/>
<circle cx="54.17" cy="197.03" r="5.85" fill="none" stroke="black" stroke-width="0.25px"/>
<circle cx="54.17" cy="208.94" r="5.85" fill="white"/>
<circle cx="54.17" cy="208.94" r="5.85" fill="none" stroke="black" stroke-width="0.25px"/>
<circle cx="66.07" cy="30.35" r="5.85" fill="white"/>
<circle cx="66.07" cy="30.35" r="5.85" fill="none" stroke="black" stroke-width="0.25px"/>
<circle cx="89.88" cy="197.03" r="5.85" fill="white"/>
<circle cx="89.88" cy="197.03" r="5.85" fill="none" stroke="black" stroke-width="0.25px"/>
<circle cx="101.79" cy="42.26" r="5.85" fill="white"/>
<circle cx="101.79" cy="42.26" r="5.85" fill="none" stroke="black" stroke-width="0.25px"/>
<circle cx="113.69" cy="42.26" r="1.27" fill="black"/>
<circle cx="113.69" cy="113.69" r="5.98" fill="black"/>
<circle cx="113.69" cy="137.50" r="5.98" fill="black"/>
<circle cx="113.69" cy="149.41" r="5.98" fill="black"/>
<circle cx="113.69" cy="161.31" r="5.98" fill="black"/>
<circle cx="113.69" cy="173.22" r="5.98" fill="black"/>
<circle cx="113.69" cy="185.13" r="5.85" fill="white"/>
<circle cx="113.69" cy="185.13" r="5.85" fill="none" stroke="black" stroke-width="0.25px"/>
<circle cx="113.69" cy="197.03" r="5.85" fill="white"/>
<circle cx="113.69" cy="197.03" r="5.85" fill="none" stroke="black" stroke-width="0.25px"/>
<circle cx="125.60" cy="149.41" r="5.85" fill="white"/>
<circle cx="125.60" cy="149.41" r="5.85" fill="none" stroke="black" stroke-width="0.25px"/>
<circle cx="125.60" cy="161.31" r="5.85" fill="white"/>
<circle cx="125.60" cy="161.31" r="5.85" fill="none" stroke="black" stroke-width="0.25px"/>
<circle cx="125.60" cy="173.22" r="5.85" fill="white"/>
<circle cx="125.60" cy="173.22" r="5.85" fill="none" stroke="black" stroke-width="0.25px"/>
<circle cx="125.60" cy="185.13" r="5.98" fill="black"/>
<circle cx="137.50" cy="42.26" r="5.85" fill="white"/>
<circle cx="137.50" cy="42.26" r="5.85" fill="none" stroke="black" stroke-width="0.25px"/>
<circle cx="137.50" cy="101.79" r="5.85" fill="white"/>
<circle cx="137.50" cy="101.79" r="5.85" fill="none" stroke="black" stroke-width="0.25px"/>
<circle cx="137.50" cy="113.69" r="5.85" fill="white"/>
<circle cx="137.50" cy="113.69" r="5.85" fill="none" stroke="black" stroke-width="0.25px"/>
<circle cx="137.50" cy="125.60" r="5.85" fill="white"/>
<circle cx="137.50" cy="125.60" r="5.85" fill="none" stroke="black" stroke-width="0.25px"/>
<circle cx="137.50" cy="185.13" r="5.98" fill="black"/>
<circle cx="137.50" cy="208.94" r="5.85" fill="white"/>
<circle cx="137.50" cy="208.94" r="5.85" fill="none" stroke="black" stroke-width="0.25px"/>
<circle cx="149.41" cy="113.69" r="5.98" fill="black"/>
<circle cx="149.41" cy="161.31" r="5.85" fill="white"/>
<circle cx="149.41" cy="161.31" r="5.85" fill="none" stroke="black" stroke-width="0.25px"/>
<circle cx="149.41" cy="185.13" r="5.85" fill="white"/>
<circle cx="149.41" cy="185.13" r="5.85" fill="none" stroke="black" stroke-width="0.25px"/>
<circle cx="149.41" cy="197.03" r="5.85" fill="white"/>
<circle cx="149.41" cy="197.03" r="5.85" fill="none" stroke="black" stroke-width="0.25px"/>
<circle cx="149.41" cy="208.94" r="5.98" fill="black"/>
<circle cx="161.31" cy="30.35" r="5.85" fill="white"/>
<circle cx="161.31" cy="30.35" r="5.85" fill="none" stroke="black" stroke-width="0.25px"/>
<circle cx="161.31" cy="185.13" r="5.85" fill="white"/>
<circle cx="161.31" cy="185.13" r="5.85" fill="none" stroke="black" stroke-width="0.25px"/>
<circle cx="161.31" cy="197.03" r="5.98" fill="black"/>
<circle cx="173.22" cy="125.60" r="5.98" fill="black"/>
<circle cx="173.22" cy="185.13" r="5.98" fill="black"/>
<circle cx="173.22" cy="197.03" r="5.85" fill="white"/>
<circle cx="173.22" cy="197.03" r="5.85" fill="none" stroke="black" stroke-width="0.25px"/>
<circle cx="173.22" cy="208.94" r="5.98" fill="black"/>
<circle cx="185.13" cy="18.45" r="5.85" fill="white"/>
<circle cx="185.13" cy="18.45" r="5.85" fill="none" stroke="black" stroke-width="0.25px"/>
<circle cx="185.13" cy="42.26" r="5.98" fill="black"/>
<circle cx="185.13" cy="66.07" r="5.98" fill="black"/>
<circle cx="185.13" cy="113.69" r="1.27" fill="black"/>
<circle cx="185.13" cy="173.22" r="5.98" fill="black"/>
<circle cx="185.13" cy="185.13" r="1.27" fill="black"/>
<circle cx="185.13" cy="197.03" r="5.98" fill="black"/>
<circle cx="197.03" cy="30.35" r="5.98" fill="black"/>
<circle cx="197.03" cy="125.60" r="5.98" fill="black"/>
<path d="
M20.55 159.17
L20.55 162.38
L19.09 162.38
L20.55 159.17
Z
M16.65 157.74
C16.21 157.74 15.85 157.91 15.59 158.26
C15.32 158.60 15.16 159.12 15.12 159.80
L15.71 159.89
C15.71 159.43 15.80 159.08 15.97 158.83
C16.14 158.59 16.36 158.46 16.63 158.46
C16.87 158.46 17.08 158.58 17.25 158.81
C17.42 159.03 17.51 159.33 17.51 159.69
C17.51 160.01 17.43 160.35 17.26 160.71
C17.09 161.07 16.74 161.59 16.21 162.26
C15.75 162.83 15.43 163.33 15.26 163.75
C15.09 164.17 15.01 164.55 15.01 164.89
L18.10 164.89
L18.10 164.05
L15.81 164.05
C15.87 163.89 15.95 163.73 16.05 163.57
C16.15 163.42 16.37 163.12 16.72 162.68
C17.25 161.99 17.62 161.43 17.81 161.02
C18.00 160.60 18.10 160.16 18.10 159.71
C18.10 159.20 17.97 158.74 17.73 158.34
C17.48 157.94 17.12 157.74 16.65 157.74
Z
M20.66 157.77
L18.52 162.38
L18.52 163.19
L20.55 163.19
L20.55 164.89
L21.12 164.89
L21.12 163.19
L21.76 163.19
L21.76 162.38
L21.12 162.38
L21.12 157.77
Z
" fill="black" fill-rule="nonzero" />
<path d="
M16.65 169.44
C16.16 169.44 15.77 169.63 15.47 170.01
C15.19 170.38 15.02 170.92 14.98 171.63
L14.97 171.76
L15.10 171.78
L15.69 171.87
L15.85 171.90
L15.85 171.73
C15.85 171.30 15.93 170.98 16.09 170.76
C16.23 170.55 16.41 170.45 16.62 170.45
C16.62 170.45 16.62 170.45 16.63 170.45
C16.63 170.45 16.63 170.45 16.63 170.45
C16.83 170.45 17.00 170.54 17.14 170.73
C17.29 170.94 17.37 171.20 17.37 171.53
C17.37 171.83 17.29 172.15 17.13 172.49
C16.97 172.85 16.62 173.35 16.10 174.01
C15.63 174.59 15.31 175.10 15.13 175.54
C14.95 175.98 14.86 176.38 14.87 176.74
L14.87 176.87
L18.24 176.87
L18.24 176.73
L18.24 175.89
L18.24 175.75
L16.03 175.75
C16.07 175.66 16.12 175.58 16.17 175.49
C16.27 175.34 16.49 175.04 16.83 174.61
C17.37 173.91 17.74 173.34 17.94 172.92
C18.14 172.48 18.24 172.03 18.24 171.55
C18.24 171.02 18.11 170.53 17.85 170.11
C17.58 169.66 17.17 169.44 16.65 169.44
Z
M20.18 169.44
C19.78 169.44 19.43 169.61 19.15 169.96
C18.88 170.29 18.71 170.77 18.63 171.41
L18.62 171.53
L18.73 171.56
L19.31 171.72
L19.47 171.76
L19.48 171.60
C19.52 171.19 19.61 170.89 19.75 170.70
C19.87 170.53 20.02 170.44 20.19 170.44
C20.19 170.44 20.19 170.44 20.19 170.44
C20.19 170.44 20.19 170.44 20.19 170.44
C20.36 170.44 20.50 170.52 20.62 170.69
C20.75 170.87 20.81 171.11 20.81 171.41
C20.81 171.74 20.73 172.00 20.58 172.19
C20.43 172.37 20.24 172.46 20.01 172.46
L20.01 172.46
L19.93 172.45
L19.78 172.44
L19.77 172.58
L19.70 173.35
L19.68 173.58
L19.90 173.49
C20.04 173.43 20.16 173.41 20.25 173.41
C20.25 173.41 20.25 173.41 20.25 173.41
C20.25 173.41 20.25 173.41 20.25 173.41
C20.46 173.41 20.63 173.51 20.78 173.72
C20.94 173.95 21.02 174.26 21.02 174.64
C21.02 175.05 20.93 175.39 20.76 175.64
C20.60 175.88 20.41 175.99 20.20 175.99
C20.20 175.99 20.19 175.99 20.19 175.99
C20.19 175.99 20.19 175.99 20.19 175.99
C20.00 175.99 19.84 175.90 19.72 175.71
C19.58 175.49 19.49 175.16 19.43 174.72
L19.41 174.57
L19.26 174.60
L18.68 174.71
L18.56 174.74
L18.57 174.86
C18.61 175.50 18.78 176.02 19.07 176.40
C19.38 176.80 19.76 177.00 20.20 177.00
C20.68 177.00 21.09 176.77 21.42 176.32
C21.75 175.88 21.91 175.31 21.91 174.63
C21.91 174.31 21.87 174.02 21.79 173.75
C21.71 173.49 21.61 173.27 21.47 173.11
C21.38 173.00 21.28 172.91 21.16 172.84
L21.16 172.84
C21.30 172.70 21.41 172.54 21.50 172.35
C21.62 172.08 21.68 171.77 21.68 171.43
C21.68 170.86 21.54 170.40 21.26 170.02
C20.97 169.63 20.61 169.44 20.18 169.44
Z
" fill="white" fill-rule="nonzero" />
<path d="
M19.66 195.91
L19.66 195.91
L19.66 195.91
C19.66 195.91 19.66 195.91 19.66 195.91
Z
M16.65 193.25
C16.16 193.25 15.77 193.44 15.47 193.83
C15.19 194.19 15.02 194.73 14.98 195.45
L14.97 195.57
L15.10 195.59
L15.69 195.69
L15.85 195.71
L15.85 195.55
C15.85 195.12 15.93 194.79 16.09 194.57
C16.23 194.36 16.41 194.26 16.62 194.26
C16.62 194.26 16.62 194.26 16.63 194.26
C16.63 194.26 16.63 194.26 16.63 194.26
C16.83 194.26 17.00 194.36 17.14 194.55
C17.29 194.75 17.37 195.02 17.37 195.35
C17.37 195.64 17.29 195.96 17.13 196.31
C16.97 196.66 16.62 197.17 16.10 197.82
C15.63 198.41 15.31 198.92 15.13 199.35
C14.95 199.79 14.86 200.19 14.87 200.55
L14.87 200.69
L18.24 200.69
L18.24 200.55
L18.24 199.71
L18.24 199.56
L16.03 199.56
C16.07 199.48 16.12 199.39 16.17 199.31
C16.27 199.15 16.49 198.86 16.83 198.42
C17.37 197.72 17.74 197.16 17.94 196.73
C18.14 196.30 18.24 195.84 18.24 195.37
C18.24 194.83 18.11 194.35 17.85 193.92
C17.58 193.48 17.17 193.25 16.65 193.25
Z
M19.14 193.38
L19.12 193.50
L18.67 197.16
L18.65 197.29
L18.78 197.32
L19.32 197.43
L19.44 197.45
L19.48 197.34
C19.56 197.15 19.67 197.00 19.80 196.89
C19.92 196.79 20.06 196.74 20.20 196.74
C20.20 196.74 20.20 196.74 20.20 196.74
C20.20 196.74 20.20 196.74 20.20 196.74
C20.44 196.74 20.64 196.86 20.80 197.10
C20.97 197.35 21.06 197.72 21.06 198.20
C21.06 198.71 20.97 199.11 20.79 199.40
C20.62 199.67 20.42 199.81 20.21 199.81
C20.20 199.81 20.20 199.81 20.20 199.81
C20.20 199.81 20.20 199.81 20.20 199.81
C20.03 199.81 19.88 199.72 19.74 199.53
C19.59 199.33 19.50 199.02 19.45 198.59
L19.44 198.44
L19.29 198.46
L18.69 198.54
L18.56 198.56
L18.57 198.69
C18.61 199.34 18.78 199.85 19.07 200.23
C19.38 200.61 19.76 200.81 20.21 200.81
C20.75 200.81 21.18 200.54 21.50 199.99
C21.80 199.47 21.95 198.85 21.95 198.13
C21.95 197.40 21.80 196.81 21.49 196.37
C21.17 195.91 20.79 195.68 20.35 195.68
C20.11 195.68 19.88 195.76 19.66 195.91
L19.66 195.91
L19.85 194.50
L21.73 194.50
L21.73 194.36
L21.73 193.52
L21.73 193.38
Z
" fill="white" fill-rule="nonzero" />
<path d="
M32.15 182.35
C32.15 182.35 32.15 182.35 32.15 182.35
C32.15 182.35 32.16 182.35 32.16 182.35
C32.34 182.35 32.51 182.48 32.66 182.73
C32.83 182.99 32.91 183.37 32.91 183.85
C32.91 184.33 32.83 184.70 32.67 184.96
C32.52 185.19 32.35 185.31 32.15 185.31
C32.14 185.31 32.14 185.31 32.14 185.31
C32.14 185.31 32.14 185.31 32.14 185.31
C31.93 185.31 31.75 185.19 31.60 184.96
C31.43 184.71 31.35 184.36 31.35 183.92
C31.35 183.43 31.44 183.04 31.62 182.75
C31.78 182.49 31.96 182.35 32.15 182.35
Z
M28.67 181.35
L28.64 181.45
C28.54 181.74 28.38 182.05 28.15 182.36
C27.91 182.68 27.65 182.94 27.34 183.16
L27.28 183.20
L27.28 183.28
L27.28 184.12
L27.28 184.36
L27.49 184.25
C27.69 184.14 27.90 183.98 28.13 183.77
C28.24 183.67 28.34 183.57 28.43 183.47
L28.43 183.47
L28.43 188.64
L28.43 188.78
L29.29 188.78
L29.29 188.64
L29.29 181.49
L29.29 181.35
Z
M32.09 181.35
C31.63 181.35 31.24 181.58 30.93 182.05
C30.62 182.51 30.47 183.12 30.47 183.89
C30.47 184.64 30.62 185.24 30.91 185.68
C31.22 186.14 31.58 186.37 32.01 186.37
C32.26 186.37 32.49 186.27 32.72 186.08
C32.81 186.01 32.89 185.93 32.96 185.83
L32.96 185.83
C32.94 186.23 32.89 186.58 32.81 186.89
C32.71 187.28 32.59 187.55 32.45 187.70
C32.32 187.83 32.18 187.90 32.03 187.90
C32.03 187.90 32.03 187.90 32.03 187.90
C32.03 187.90 32.03 187.90 32.03 187.90
C31.86 187.90 31.73 187.83 31.63 187.68
C31.51 187.51 31.43 187.25 31.39 186.90
L31.38 186.76
L31.23 186.78
L30.68 186.85
L30.55 186.87
L30.56 187.01
C30.61 187.61 30.76 188.07 31.02 188.40
C31.28 188.73 31.62 188.90 32.02 188.90
C32.37 188.90 32.69 188.77 32.97 188.49
C33.24 188.22 33.45 187.81 33.60 187.24
C33.76 186.69 33.83 185.91 33.83 184.92
C33.83 184.03 33.76 183.35 33.62 182.87
C33.47 182.38 33.27 182.00 33.00 181.75
C32.72 181.48 32.42 181.35 32.09 181.35
Z
" fill="white" fill-rule="nonzero" />
<path d="
M28.55 205.22
C28.07 205.22 27.68 205.41 27.38 205.79
C27.09 206.16 26.93 206.70 26.89 207.41
L26.88 207.54
L27.01 207.56
L27.60 207.65
L27.76 207.68
L27.76 207.51
C27.76 207.08 27.84 206.76 27.99 206.53
C28.13 206.33 28.31 206.23 28.53 206.23
C28.53 206.23 28.53 206.23 28.53 206.23
C28.53 206.23 28.53 206.23 28.53 206.23
C28.74 206.23 28.91 206.32 29.05 206.51
C29.20 206.72 29.27 206.98 29.27 207.31
C29.27 207.61 29.19 207.93 29.04 208.27
C28.87 208.63 28.53 209.13 28.00 209.79
C27.53 210.37 27.21 210.88 27.03 211.32
C26.85 211.76 26.77 212.16 26.78 212.52
L26.78 212.65
L30.15 212.65
L30.15 212.51
L30.15 211.67
L30.15 211.53
L27.93 211.53
C27.98 211.44 28.02 211.36 28.08 211.27
C28.18 211.12 28.39 210.82 28.73 210.39
C29.28 209.69 29.65 209.12 29.84 208.70
C30.04 208.26 30.14 207.81 30.14 207.33
C30.14 206.80 30.01 206.31 29.75 205.89
C29.48 205.44 29.08 205.22 28.55 205.22
Z
M32.30 205.22
L32.27 205.32
C32.17 205.61 32.01 205.92 31.78 206.23
C31.54 206.55 31.28 206.82 30.97 207.03
L30.91 207.08
L30.91 207.15
L30.91 207.99
L30.91 208.24
L31.12 208.12
C31.32 208.01 31.53 207.85 31.76 207.64
C31.87 207.54 31.97 207.44 32.06 207.35
L32.06 207.35
L32.06 212.51
L32.06 212.65
L32.92 212.65
L32.92 212.51
L32.92 205.36
L32.92 205.22
Z
" fill="white" fill-rule="nonzero" />
<path d="
M44.20 109.91
L44.17 110.01
C44.08 110.31 43.92 110.61 43.68 110.93
C43.45 111.24 43.18 111.51 42.88 111.73
L42.82 111.77
L42.82 111.84
L42.82 112.69
L42.82 112.93
L42.82 112.93
L43.03 112.81
C43.22 112.70 43.44 112.54 43.67 112.33
C43.78 112.23 43.88 112.14 43.96 112.04
L43.96 112.04
L43.96 117.21
L43.96 117.35
L44.82 117.35
L44.82 117.21
L44.82 110.05
L44.82 109.91
Z
M40.36 109.91
C39.96 109.91 39.61 110.09 39.33 110.43
C39.06 110.76 38.89 111.25 38.81 111.88
L38.80 112.00
L38.91 112.04
L39.49 112.19
L39.65 112.24
L39.66 112.07
C39.70 111.66 39.79 111.36 39.93 111.17
C40.05 111.00 40.20 110.91 40.37 110.91
C40.37 110.91 40.37 110.91 40.37 110.91
C40.37 110.91 40.37 110.91 40.37 110.91
C40.54 110.91 40.68 111.00 40.80 111.16
C40.93 111.34 40.99 111.58 40.99 111.88
C40.99 112.21 40.91 112.47 40.76 112.66
C40.61 112.84 40.42 112.93 40.19 112.93
L40.19 112.93
L40.11 112.93
L39.96 112.91
L39.95 113.05
L39.88 113.82
L39.86 114.05
L40.08 113.97
C40.22 113.91 40.34 113.88 40.43 113.88
C40.43 113.88 40.43 113.88 40.43 113.88
C40.43 113.88 40.43 113.88 40.43 113.88
C40.64 113.88 40.82 113.98 40.96 114.20
C41.12 114.42 41.20 114.73 41.20 115.12
C41.20 115.53 41.11 115.86 40.94 116.11
C40.78 116.35 40.59 116.47 40.38 116.47
C40.38 116.47 40.38 116.47 40.37 116.47
C40.37 116.47 40.37 116.47 40.37 116.47
C40.18 116.47 40.03 116.37 39.90 116.18
C39.76 115.97 39.67 115.64 39.61 115.19
L39.59 115.04
L39.44 115.07
L38.87 115.19
L38.74 115.21
L38.75 115.33
C38.79 115.97 38.96 116.49 39.26 116.87
C39.56 117.27 39.94 117.47 40.38 117.47
C40.86 117.47 41.27 117.25 41.60 116.79
C41.93 116.35 42.09 115.79 42.09 115.10
C42.09 114.78 42.05 114.49 41.98 114.22
C41.89 113.96 41.79 113.74 41.65 113.58
C41.57 113.47 41.46 113.38 41.34 113.31
L41.34 113.31
C41.48 113.18 41.60 113.01 41.68 112.82
C41.80 112.55 41.87 112.24 41.87 111.90
C41.86 111.34 41.72 110.87 41.44 110.49
C41.15 110.11 40.79 109.91 40.36 109.91
Z
" fill="white" fill-rule="nonzero" />
<path d="
M44.02 170.31
C44.30 170.31 44.53 170.50 44.71 170.90
C44.89 171.29 44.98 172.06 44.98 173.22
C44.98 174.37 44.89 175.14 44.71 175.54
C44.54 175.94 44.32 176.14 44.06 176.14
C43.78 176.14 43.55 175.94 43.37 175.55
C43.20 175.15 43.11 174.38 43.11 173.22
C43.11 172.08 43.19 171.30 43.37 170.91
C43.54 170.51 43.76 170.31 44.02 170.31
Z
M40.46 169.58
C40.02 169.58 39.67 169.76 39.40 170.10
C39.13 170.45 38.97 170.96 38.93 171.64
L39.52 171.74
C39.52 171.28 39.61 170.92 39.78 170.68
C39.95 170.43 40.17 170.31 40.44 170.31
C40.69 170.31 40.89 170.42 41.06 170.65
C41.23 170.88 41.32 171.17 41.32 171.54
C41.32 171.85 41.24 172.19 41.07 172.55
C40.90 172.92 40.55 173.43 40.02 174.10
C39.56 174.68 39.24 175.17 39.07 175.59
C38.90 176.01 38.82 176.40 38.82 176.74
L41.91 176.74
L41.91 175.89
L39.62 175.89
C39.68 175.74 39.76 175.58 39.86 175.42
C39.96 175.26 40.18 174.96 40.53 174.52
C41.06 173.83 41.43 173.28 41.62 172.86
C41.81 172.44 41.91 172.01 41.91 171.56
C41.91 171.04 41.78 170.59 41.54 170.19
C41.29 169.78 40.93 169.58 40.46 169.58
Z
M44.05 169.58
C43.54 169.58 43.16 169.89 42.91 170.51
C42.65 171.12 42.52 172.03 42.52 173.22
C42.52 174.56 42.66 175.50 42.95 176.04
C43.23 176.58 43.59 176.86 44.04 176.86
C44.54 176.86 44.93 176.55 45.18 175.93
C45.44 175.31 45.57 174.41 45.57 173.22
C45.57 171.90 45.41 170.93 45.10 170.33
C44.84 169.83 44.49 169.58 44.05 169.58
Z
" fill="black" fill-rule="nonzero" />
<path d="
M40.57 193.31
L40.54 193.41
C40.45 193.71 40.29 194.01 40.05 194.33
C39.82 194.64 39.55 194.91 39.25 195.13
L39.19 195.17
L39.19 195.24
L39.19 196.09
L39.19 196.33
L39.40 196.21
C39.59 196.10 39.81 195.94 40.04 195.73
C40.15 195.64 40.25 195.54 40.33 195.44
L40.33 195.44
L40.33 200.61
L40.33 200.75
L41.19 200.75
L41.19 200.61
L41.19 193.46
L41.19 193.31
Z
M42.42 193.44
L42.42 193.58
L42.42 194.42
L42.42 194.56
L44.60 194.56
C44.35 195.03 44.12 195.58 43.90 196.21
C43.64 196.93 43.44 197.70 43.30 198.50
C43.15 199.30 43.08 200.00 43.07 200.61
L43.07 200.75
L43.80 200.75
L43.94 200.75
L43.94 200.61
C44.00 199.47 44.19 198.32 44.53 197.16
C44.87 195.99 45.26 195.05 45.70 194.33
L45.72 194.30
L45.72 194.26
L45.72 193.58
L45.72 193.44
Z
" fill="white" fill-rule="nonzero" />
<path d="
M55.96 194.11
C56.16 194.11 56.34 194.22 56.50 194.43
C56.65 194.64 56.72 194.92 56.72 195.25
C56.72 195.57 56.65 195.84 56.50 196.04
C56.35 196.25 56.17 196.35 55.96 196.35
C55.75 196.35 55.57 196.25 55.42 196.04
C55.27 195.83 55.20 195.55 55.20 195.20
C55.20 194.89 55.27 194.63 55.42 194.42
C55.57 194.22 55.75 194.11 55.96 194.11
Z
M55.95 197.06
C56.21 197.06 56.44 197.20 56.63 197.46
C56.82 197.73 56.91 198.08 56.91 198.52
C56.91 198.95 56.82 199.30 56.64 199.56
C56.45 199.82 56.23 199.95 55.96 199.95
C55.70 199.95 55.48 199.82 55.29 199.55
C55.10 199.28 55.01 198.93 55.01 198.49
C55.01 198.07 55.10 197.73 55.28 197.46
C55.47 197.20 55.69 197.06 55.95 197.06
Z
M52.58 193.39
C52.48 193.71 52.31 194.02 52.07 194.35
C51.83 194.68 51.55 194.96 51.23 195.18
L51.23 196.03
C51.42 195.92 51.63 195.77 51.85 195.57
C52.07 195.37 52.25 195.17 52.38 194.97
L52.38 200.55
L52.96 200.55
L52.96 193.39
Z
M55.95 193.39
C55.57 193.39 55.25 193.56 54.99 193.90
C54.74 194.25 54.61 194.69 54.61 195.23
C54.61 195.59 54.67 195.89 54.79 196.13
C54.90 196.37 55.08 196.55 55.31 196.68
C55.03 196.79 54.81 197.00 54.66 197.31
C54.50 197.62 54.42 198.02 54.42 198.49
C54.42 199.14 54.57 199.67 54.86 200.07
C55.16 200.47 55.52 200.67 55.96 200.67
C56.40 200.67 56.76 200.47 57.06 200.07
C57.35 199.67 57.50 199.15 57.50 198.52
C57.50 198.06 57.42 197.67 57.27 197.36
C57.12 197.05 56.90 196.82 56.62 196.68
C56.85 196.55 57.02 196.37 57.14 196.13
C57.25 195.89 57.31 195.60 57.31 195.26
C57.31 194.71 57.18 194.26 56.92 193.91
C56.66 193.57 56.34 193.39 55.95 193.39
Z
" fill="black" fill-rule="nonzero" />
<path d="
M52.36 205.36
C51.92 205.36 51.57 205.53 51.30 205.88
C51.03 206.22 50.88 206.74 50.84 207.42
L51.43 207.51
C51.43 207.05 51.51 206.70 51.69 206.45
C51.86 206.21 52.08 206.08 52.34 206.08
C52.59 206.08 52.80 206.20 52.97 206.43
C53.14 206.66 53.22 206.95 53.22 207.31
C53.22 207.63 53.14 207.97 52.98 208.33
C52.81 208.70 52.46 209.21 51.92 209.88
C51.46 210.45 51.15 210.95 50.98 211.37
C50.80 211.79 50.72 212.17 50.73 212.51
L53.82 212.51
L53.82 211.67
L51.53 211.67
C51.59 211.51 51.67 211.35 51.77 211.20
C51.87 211.04 52.09 210.74 52.43 210.30
C52.97 209.61 53.33 209.05 53.52 208.64
C53.72 208.22 53.81 207.79 53.81 207.33
C53.81 206.82 53.69 206.36 53.44 205.96
C53.20 205.56 52.84 205.36 52.36 205.36
Z
M55.99 205.36
C55.55 205.36 55.20 205.53 54.93 205.88
C54.66 206.22 54.51 206.74 54.47 207.42
L55.06 207.51
C55.06 207.05 55.14 206.70 55.32 206.45
C55.49 206.21 55.71 206.08 55.97 206.08
C56.22 206.08 56.43 206.20 56.60 206.43
C56.77 206.66 56.85 206.95 56.85 207.31
C56.85 207.63 56.77 207.97 56.61 208.33
C56.44 208.70 56.09 209.21 55.55 209.88
C55.09 210.45 54.78 210.95 54.61 211.37
C54.43 211.79 54.35 212.17 54.36 212.51
L57.45 212.51
L57.45 211.67
L55.16 211.67
C55.22 211.51 55.30 211.35 55.40 211.20
C55.50 211.04 55.72 210.74 56.06 210.30
C56.60 209.61 56.96 209.05 57.15 208.64
C57.35 208.22 57.44 207.79 57.44 207.33
C57.44 206.82 57.32 206.36 57.07 205.96
C56.83 205.56 56.47 205.36 55.99 205.36
Z
" fill="black" fill-rule="nonzero" />
<path d="
M111.89 109.98
C111.41 109.98 111.02 110.17 110.72 110.55
C110.43 110.92 110.27 111.46 110.22 112.17
L110.22 112.30
L110.34 112.32
L110.93 112.41
L111.10 112.44
L111.10 112.27
C111.10 111.84 111.18 111.51 111.33 111.29
C111.47 111.09 111.65 110.98 111.87 110.98
C111.87 110.98 111.87 110.98 111.87 110.98
C111.87 110.98 111.87 110.98 111.87 110.98
C112.07 110.98 112.24 111.08 112.38 111.27
C112.54 111.47 112.61 111.74 112.61 112.07
C112.61 112.36 112.53 112.68 112.37 113.03
C112.21 113.38 111.87 113.89 111.34 114.55
C110.87 115.13 110.55 115.64 110.37 116.07
C110.19 116.51 110.11 116.91 110.12 117.27
L110.12 117.41
L113.49 117.41
L113.49 117.27
L113.49 116.43
L113.49 116.29
L111.27 116.29
C111.31 116.20 111.36 116.11 111.42 116.03
C111.51 115.87 111.73 115.58 112.07 115.15
C112.61 114.44 112.98 113.88 113.18 113.45
C113.38 113.02 113.48 112.56 113.48 112.09
C113.48 111.55 113.35 111.07 113.09 110.65
C112.82 110.20 112.42 109.98 111.89 109.98
Z
M113.85 110.10
L113.85 110.24
L113.85 111.08
L113.85 111.22
L116.04 111.22
C115.79 111.69 115.55 112.24 115.33 112.87
C115.08 113.59 114.88 114.36 114.73 115.16
C114.59 115.96 114.51 116.66 114.50 117.27
L114.50 117.41
L115.24 117.41
L115.37 117.41
L115.38 117.27
C115.43 116.13 115.62 114.98 115.96 113.82
C116.30 112.66 116.69 111.71 117.14 110.99
L117.16 110.96
L117.16 110.92
L117.16 110.24
L117.16 110.10
Z
" fill="white" fill-rule="nonzero" />
<path d="
M111.68 133.89
L111.68 134.03
L111.68 134.86
L111.68 135.00
L114.37 135.00
C114.07 135.46 113.78 136.00 113.51 136.62
C113.20 137.34 112.95 138.09 112.77 138.89
C112.59 139.68 112.50 140.38 112.49 140.97
L112.48 141.12
L113.36 141.12
L113.49 141.12
L113.50 140.98
C113.56 139.86 113.80 138.72 114.22 137.58
C114.64 136.43 115.12 135.50 115.67 134.79
L115.70 134.75
L115.70 134.70
L115.70 134.03
L115.70 133.89
Z
" fill="white" fill-rule="nonzero" />
<path d="
M112.91 148.28
L112.91 148.28
L112.91 148.28
C112.91 148.28 112.91 148.28 112.91 148.28
Z
M112.34 145.74
L112.32 145.86
L111.76 149.47
L111.74 149.61
L111.88 149.63
L112.54 149.74
L112.64 149.75
L112.69 149.66
C112.79 149.47 112.92 149.32 113.09 149.22
C113.25 149.11 113.42 149.06 113.61 149.06
C113.61 149.06 113.61 149.06 113.61 149.06
C113.61 149.06 113.61 149.06 113.61 149.06
C113.92 149.06 114.18 149.18 114.39 149.42
C114.60 149.67 114.71 150.03 114.71 150.50
C114.71 151.00 114.60 151.40 114.37 151.68
C114.16 151.95 113.91 152.09 113.62 152.09
C113.62 152.09 113.62 152.09 113.62 152.09
C113.62 152.09 113.61 152.09 113.61 152.09
C113.39 152.09 113.19 151.99 113.01 151.80
C112.83 151.61 112.71 151.30 112.66 150.88
L112.64 150.74
L112.50 150.76
L111.76 150.84
L111.62 150.85
L111.63 150.99
C111.68 151.64 111.89 152.15 112.26 152.52
C112.63 152.89 113.09 153.08 113.63 153.08
C114.27 153.08 114.79 152.81 115.18 152.29
C115.55 151.77 115.74 151.15 115.74 150.43
C115.74 149.70 115.55 149.12 115.17 148.68
C114.78 148.23 114.33 148.01 113.80 148.01
C113.49 148.01 113.19 148.10 112.91 148.28
L112.91 148.28
L113.15 146.85
L115.47 146.85
L115.47 146.70
L115.47 145.88
L115.47 145.74
Z
" fill="white" fill-rule="nonzero" />
<path d="
M113.59 157.58
C113.11 157.58 112.70 157.75 112.36 158.08
C112.02 158.41 111.80 158.89 111.71 159.52
L111.69 159.65
L111.82 159.68
L112.53 159.84
L112.68 159.87
L112.70 159.71
C112.74 159.32 112.85 159.03 113.02 158.84
C113.18 158.66 113.37 158.57 113.60 158.57
C113.60 158.57 113.60 158.57 113.60 158.57
C113.60 158.57 113.60 158.57 113.60 158.57
C113.82 158.57 114.01 158.66 114.16 158.83
C114.32 159.00 114.40 159.23 114.40 159.52
C114.40 159.84 114.31 160.10 114.12 160.28
C113.93 160.47 113.68 160.56 113.37 160.56
L113.37 160.56
L113.27 160.55
L113.13 160.54
L113.12 160.68
L113.03 161.44
L113.01 161.66
L113.22 161.59
C113.40 161.53 113.55 161.50 113.67 161.50
C113.67 161.50 113.67 161.50 113.67 161.50
C113.67 161.50 113.68 161.50 113.68 161.50
C113.95 161.50 114.18 161.61 114.37 161.83
C114.56 162.05 114.66 162.35 114.66 162.72
C114.66 163.12 114.55 163.44 114.34 163.69
C114.13 163.93 113.89 164.05 113.61 164.05
C113.61 164.05 113.61 164.05 113.61 164.05
C113.61 164.05 113.60 164.05 113.60 164.05
C113.35 164.05 113.15 163.96 112.99 163.76
C112.82 163.55 112.70 163.23 112.63 162.79
L112.61 162.65
L112.47 162.67
L111.76 162.79
L111.63 162.81
L111.64 162.94
C111.69 163.58 111.90 164.09 112.26 164.47
C112.63 164.86 113.08 165.05 113.62 165.05
C114.19 165.05 114.68 164.83 115.09 164.39
C115.49 163.95 115.70 163.39 115.70 162.71
C115.70 162.39 115.65 162.09 115.55 161.83
C115.45 161.57 115.32 161.35 115.15 161.19
C115.05 161.09 114.92 161.00 114.79 160.94
L114.79 160.94
C114.95 160.81 115.08 160.65 115.19 160.46
C115.34 160.19 115.41 159.89 115.41 159.54
C115.41 158.98 115.24 158.51 114.89 158.14
C114.53 157.77 114.10 157.58 113.59 157.58
Z
" fill="white" fill-rule="nonzero" />
<path d="
M113.71 181.59
C113.17 181.59 112.73 181.76 112.40 182.10
C112.07 182.44 111.88 182.95 111.83 183.63
L112.56 183.72
C112.56 183.26 112.66 182.92 112.87 182.67
C113.08 182.43 113.35 182.31 113.68 182.31
C113.99 182.31 114.25 182.42 114.46 182.65
C114.67 182.87 114.77 183.16 114.77 183.52
C114.77 183.83 114.67 184.17 114.47 184.53
C114.26 184.89 113.83 185.40 113.17 186.06
C112.60 186.62 112.21 187.11 112.00 187.53
C111.78 187.95 111.68 188.32 111.69 188.66
L115.51 188.66
L115.51 187.83
L112.68 187.83
C112.75 187.67 112.85 187.51 112.98 187.36
C113.10 187.20 113.37 186.91 113.79 186.47
C114.46 185.79 114.91 185.24 115.14 184.83
C115.38 184.42 115.50 183.99 115.50 183.54
C115.50 183.04 115.35 182.58 115.04 182.19
C114.74 181.79 114.30 181.59 113.71 181.59
Z
" fill="black" fill-rule="nonzero" />
<path d="
M122.80 38.43
L122.80 46.09
L128.63 46.09
L128.63 44.80
L124.35 44.80
L124.35 42.71
L128.20 42.71
L128.20 41.42
L124.35 41.42
L124.35 39.72
L128.49 39.72
L128.49 38.43
Z
" fill="black" fill-rule="nonzero" />
<path d="
M125.61 149.08
C125.92 149.08 126.19 149.22 126.40 149.49
C126.62 149.77 126.73 150.16 126.73 150.65
C126.73 151.16 126.62 151.56 126.40 151.85
C126.18 152.15 125.93 152.29 125.66 152.29
C125.34 152.29 125.06 152.14 124.82 151.83
C124.58 151.52 124.46 151.11 124.46 150.60
C124.46 150.13 124.58 149.76 124.80 149.49
C125.03 149.22 125.30 149.08 125.61 149.08
Z
M125.71 145.82
C125.11 145.82 124.61 146.11 124.23 146.68
C123.84 147.26 123.64 148.23 123.64 149.59
C123.64 150.81 123.83 151.69 124.21 152.21
C124.59 152.74 125.07 153.00 125.65 153.00
C125.97 153.00 126.27 152.91 126.54 152.73
C126.81 152.55 127.03 152.26 127.20 151.88
C127.37 151.50 127.46 151.07 127.46 150.60
C127.46 149.91 127.29 149.35 126.94 148.94
C126.60 148.52 126.20 148.32 125.75 148.32
C125.47 148.32 125.21 148.40 124.96 148.55
C124.72 148.71 124.51 148.95 124.35 149.25
C124.35 148.39 124.46 147.74 124.68 147.29
C124.93 146.78 125.26 146.53 125.67 146.53
C125.94 146.53 126.16 146.64 126.35 146.86
C126.48 147.02 126.58 147.27 126.65 147.64
L127.36 147.57
C127.29 147.00 127.11 146.56 126.82 146.27
C126.52 145.97 126.15 145.82 125.71 145.82
Z
" fill="black" fill-rule="nonzero" />
<path d="
M125.95 159.18
L125.95 162.36
L124.14 162.36
L125.95 159.18
Z
M126.08 157.80
L123.45 162.36
L123.45 163.15
L125.95 163.15
L125.95 164.83
L126.66 164.83
L126.66 163.15
L127.44 163.15
L127.44 162.36
L126.66 162.36
L126.66 157.80
Z
" fill="black" fill-rule="nonzero" />
<path d="
M125.60 171.57
L127.44 174.94
L123.76 174.94
L125.60 171.57
Z
M125.60 169.59
L125.18 170.35
L122.54 175.19
L122.16 175.90
L129.04 175.90
L128.66 175.19
L126.02 170.35
L125.60 169.59
Z
" fill="black" fill-rule="nonzero" />
<path d="
M125.79 181.45
L125.75 181.54
C125.64 181.83 125.44 182.13 125.15 182.44
C124.86 182.75 124.53 183.02 124.15 183.24
L124.08 183.28
L124.08 183.36
L124.08 184.19
L124.08 184.41
L124.28 184.32
C124.52 184.22 124.78 184.06 125.06 183.86
C125.23 183.74 125.37 183.62 125.50 183.50
L125.50 183.50
L125.50 188.66
L125.50 188.80
L126.49 188.80
L126.49 188.66
L126.49 181.59
L126.49 181.45
Z
" fill="white" fill-rule="nonzero" />
<path d="
M136.65 51.63
C137.28 51.63 137.71 51.65 137.92 51.70
C138.21 51.76 138.45 51.88 138.64 52.06
C138.83 52.24 138.97 52.49 139.08 52.81
C139.18 53.12 139.24 53.58 139.24 54.17
C139.24 54.76 139.18 55.23 139.08 55.57
C138.97 55.92 138.84 56.16 138.67 56.31
C138.51 56.46 138.30 56.57 138.05 56.63
C137.86 56.68 137.54 56.71 137.11 56.71
L135.96 56.71
L135.96 51.63
Z
M134.41 50.33
L134.41 58.00
L137.32 58.00
C137.89 58.00 138.35 57.94 138.69 57.84
C139.15 57.69 139.51 57.49 139.78 57.22
C140.14 56.88 140.41 56.43 140.60 55.87
C140.76 55.41 140.84 54.87 140.84 54.24
C140.84 53.52 140.75 52.92 140.58 52.43
C140.42 51.94 140.17 51.52 139.85 51.18
C139.53 50.85 139.15 50.61 138.70 50.48
C138.36 50.38 137.88 50.33 137.24 50.33
Z
" fill="black" fill-rule="nonzero" />
<path d="
M139.30 98.87
C139.50 98.87 139.68 98.98 139.83 99.19
C139.99 99.40 140.06 99.67 140.06 100.01
C140.06 100.33 139.99 100.59 139.84 100.80
C139.69 101.00 139.51 101.10 139.30 101.10
C139.09 101.10 138.91 101.00 138.76 100.79
C138.61 100.59 138.54 100.31 138.54 99.96
C138.54 99.65 138.61 99.39 138.76 99.18
C138.91 98.97 139.09 98.87 139.30 98.87
Z
M139.29 101.82
C139.55 101.82 139.78 101.95 139.97 102.22
C140.16 102.49 140.25 102.84 140.25 103.28
C140.25 103.71 140.16 104.06 139.98 104.32
C139.79 104.57 139.57 104.70 139.30 104.70
C139.04 104.70 138.82 104.57 138.63 104.30
C138.44 104.04 138.35 103.68 138.35 103.25
C138.35 102.83 138.44 102.48 138.62 102.22
C138.80 101.95 139.03 101.82 139.29 101.82
Z
M135.70 98.15
C135.26 98.15 134.91 98.32 134.64 98.67
C134.37 99.01 134.22 99.53 134.18 100.21
L134.77 100.30
C134.77 99.84 134.85 99.49 135.02 99.24
C135.20 99.00 135.41 98.87 135.68 98.87
C135.93 98.87 136.14 98.99 136.31 99.22
C136.48 99.45 136.56 99.74 136.56 100.10
C136.56 100.42 136.48 100.76 136.31 101.12
C136.15 101.49 135.80 102.00 135.26 102.67
C134.80 103.24 134.49 103.74 134.31 104.16
C134.14 104.58 134.06 104.96 134.07 105.30
L137.16 105.30
L137.16 104.46
L134.86 104.46
C134.93 104.30 135.01 104.14 135.11 103.99
C135.21 103.83 135.43 103.53 135.77 103.09
C136.31 102.40 136.67 101.84 136.86 101.43
C137.05 101.01 137.15 100.58 137.15 100.12
C137.15 99.61 137.03 99.15 136.78 98.75
C136.54 98.35 136.18 98.15 135.70 98.15
Z
M139.29 98.15
C138.91 98.15 138.58 98.32 138.33 98.66
C138.07 99.00 137.95 99.44 137.95 99.98
C137.95 100.34 138.01 100.64 138.12 100.88
C138.24 101.12 138.42 101.31 138.65 101.44
C138.37 101.55 138.15 101.76 138.00 102.07
C137.84 102.38 137.76 102.77 137.76 103.25
C137.76 103.90 137.91 104.42 138.20 104.82
C138.50 105.22 138.86 105.42 139.30 105.42
C139.74 105.42 140.10 105.22 140.40 104.82
C140.69 104.42 140.84 103.91 140.84 103.27
C140.84 102.81 140.76 102.43 140.61 102.12
C140.46 101.80 140.24 101.58 139.96 101.44
C140.19 101.31 140.36 101.12 140.48 100.88
C140.59 100.65 140.65 100.35 140.65 100.01
C140.65 99.46 140.52 99.02 140.26 98.67
C140.00 98.32 139.68 98.15 139.29 98.15
Z
" fill="black" fill-rule="nonzero" />
<path d="
M139.26 110.78
C139.55 110.78 139.78 110.97 139.95 111.37
C140.13 111.76 140.22 112.53 140.22 113.69
C140.22 114.84 140.13 115.61 139.96 116.01
C139.78 116.41 139.56 116.61 139.30 116.61
C139.02 116.61 138.79 116.41 138.62 116.02
C138.44 115.62 138.35 114.85 138.35 113.69
C138.35 112.55 138.44 111.77 138.61 111.38
C138.79 110.98 139.01 110.78 139.26 110.78
Z
M139.29 110.05
C138.79 110.05 138.41 110.36 138.15 110.98
C137.89 111.59 137.76 112.50 137.76 113.69
C137.76 115.03 137.91 115.97 138.19 116.51
C138.47 117.05 138.84 117.33 139.28 117.33
C139.79 117.33 140.17 117.02 140.43 116.40
C140.68 115.78 140.81 114.88 140.81 113.69
C140.81 112.37 140.66 111.40 140.34 110.80
C140.09 110.30 139.74 110.05 139.29 110.05
Z
M135.61 110.05
C135.25 110.05 134.94 110.21 134.69 110.52
C134.43 110.83 134.27 111.29 134.20 111.90
L134.77 112.06
C134.81 111.62 134.91 111.30 135.06 111.09
C135.21 110.88 135.39 110.77 135.61 110.77
C135.83 110.77 136.01 110.87 136.16 111.08
C136.30 111.28 136.38 111.55 136.38 111.88
C136.38 112.24 136.29 112.53 136.11 112.75
C135.94 112.97 135.71 113.08 135.42 113.08
L135.34 113.07
L135.27 113.83
C135.43 113.77 135.56 113.74 135.67 113.74
C135.93 113.74 136.15 113.86 136.32 114.12
C136.50 114.37 136.59 114.70 136.59 115.12
C136.59 115.56 136.49 115.92 136.30 116.19
C136.11 116.47 135.88 116.61 135.62 116.61
C135.13 116.61 134.83 116.14 134.71 115.21
L134.14 115.33
C134.18 115.94 134.33 116.42 134.61 116.79
C134.89 117.15 135.23 117.33 135.63 117.33
C136.06 117.33 136.43 117.12 136.73 116.71
C137.04 116.29 137.20 115.76 137.20 115.10
C137.20 114.79 137.16 114.52 137.08 114.27
C137.01 114.02 136.91 113.82 136.79 113.67
C136.67 113.52 136.51 113.41 136.33 113.35
C136.53 113.21 136.69 113.01 136.80 112.76
C136.91 112.51 136.97 112.22 136.97 111.90
C136.97 111.37 136.84 110.93 136.57 110.58
C136.31 110.23 135.99 110.05 135.61 110.05
Z
" fill="black" fill-rule="nonzero" />
<path d="
M139.33 125.27
C139.58 125.27 139.80 125.40 139.97 125.68
C140.15 125.96 140.24 126.35 140.24 126.86
C140.24 127.37 140.15 127.78 139.97 128.07
C139.79 128.37 139.59 128.52 139.37 128.52
C139.11 128.52 138.88 128.36 138.69 128.05
C138.49 127.73 138.40 127.32 138.40 126.81
C138.40 126.33 138.49 125.96 138.68 125.68
C138.86 125.40 139.08 125.27 139.33 125.27
Z
M135.70 121.96
C135.26 121.96 134.91 122.13 134.64 122.48
C134.37 122.82 134.22 123.34 134.18 124.02
L134.77 124.11
C134.77 123.65 134.85 123.30 135.02 123.05
C135.20 122.81 135.41 122.69 135.68 122.69
C135.93 122.69 136.14 122.80 136.31 123.03
C136.48 123.26 136.56 123.55 136.56 123.91
C136.56 124.23 136.48 124.57 136.31 124.93
C136.15 125.30 135.80 125.81 135.26 126.48
C134.80 127.05 134.49 127.55 134.31 127.97
C134.14 128.39 134.06 128.77 134.07 129.11
L137.16 129.11
L137.16 128.27
L134.86 128.27
C134.93 128.11 135.01 127.96 135.11 127.80
C135.21 127.64 135.43 127.34 135.77 126.90
C136.31 126.21 136.67 125.65 136.86 125.24
C137.05 124.82 137.15 124.39 137.15 123.93
C137.15 123.42 137.03 122.97 136.78 122.56
C136.54 122.16 136.18 121.96 135.70 121.96
Z
M139.41 121.96
C138.92 121.96 138.52 122.25 138.21 122.84
C137.89 123.42 137.74 124.40 137.74 125.78
C137.74 127.02 137.89 127.91 138.20 128.44
C138.50 128.97 138.89 129.23 139.36 129.23
C139.62 129.23 139.86 129.14 140.08 128.96
C140.30 128.77 140.48 128.49 140.61 128.10
C140.75 127.71 140.82 127.28 140.82 126.81
C140.82 126.10 140.68 125.54 140.41 125.12
C140.13 124.70 139.81 124.49 139.44 124.49
C139.22 124.49 139.01 124.57 138.81 124.73
C138.61 124.89 138.44 125.13 138.31 125.44
C138.31 124.57 138.40 123.91 138.57 123.46
C138.77 122.94 139.04 122.68 139.38 122.68
C139.59 122.68 139.78 122.79 139.93 123.02
C140.04 123.18 140.12 123.44 140.17 123.80
L140.74 123.73
C140.69 123.16 140.54 122.72 140.30 122.42
C140.06 122.11 139.77 121.96 139.41 121.96
Z
" fill="black" fill-rule="nonzero" />
<path d="
M139.33 208.60
C139.58 208.60 139.80 208.74 139.97 209.02
C140.15 209.30 140.24 209.69 140.24 210.20
C140.24 210.71 140.15 211.12 139.97 211.41
C139.79 211.71 139.59 211.85 139.37 211.85
C139.11 211.85 138.88 211.70 138.69 211.39
C138.49 211.07 138.40 210.66 138.40 210.14
C138.40 209.67 138.49 209.30 138.68 209.02
C138.86 208.74 139.08 208.60 139.33 208.60
Z
M135.92 205.30
C135.82 205.61 135.65 205.93 135.41 206.26
C135.17 206.58 134.89 206.86 134.57 207.09
L134.57 207.93
C134.76 207.83 134.96 207.68 135.19 207.47
C135.41 207.27 135.59 207.07 135.72 206.88
L135.72 212.45
L136.30 212.45
L136.30 205.30
Z
M139.41 205.30
C138.92 205.30 138.52 205.59 138.21 206.18
C137.89 206.76 137.74 207.74 137.74 209.12
C137.74 210.36 137.89 211.25 138.20 211.78
C138.50 212.31 138.89 212.57 139.36 212.57
C139.62 212.57 139.86 212.48 140.08 212.30
C140.30 212.11 140.48 211.83 140.61 211.44
C140.75 211.05 140.82 210.62 140.82 210.14
C140.82 209.44 140.68 208.88 140.41 208.46
C140.13 208.04 139.81 207.83 139.44 207.83
C139.22 207.83 139.01 207.91 138.81 208.07
C138.61 208.23 138.44 208.47 138.31 208.78
C138.31 207.90 138.40 207.24 138.57 206.80
C138.77 206.28 139.04 206.02 139.38 206.02
C139.59 206.02 139.78 206.13 139.93 206.36
C140.04 206.51 140.12 206.78 140.17 207.14
L140.74 207.07
C140.69 206.50 140.54 206.06 140.30 205.75
C140.06 205.45 139.77 205.30 139.41 205.30
Z
" fill="black" fill-rule="nonzero" />
<path d="
M149.63 26.39
C148.56 26.39 147.69 26.74 147.04 27.45
C146.38 28.16 146.05 29.15 146.05 30.42
C146.05 31.63 146.38 32.58 147.03 33.27
C147.69 33.97 148.52 34.32 149.54 34.32
C150.36 34.32 151.04 34.11 151.58 33.71
C152.11 33.30 152.50 32.68 152.73 31.84
L151.22 31.37
C151.10 31.93 150.88 32.34 150.59 32.60
C150.29 32.86 149.94 32.99 149.53 32.99
C148.97 32.99 148.51 32.79 148.17 32.38
C147.82 31.97 147.64 31.28 147.64 30.31
C147.64 29.39 147.82 28.73 148.17 28.32
C148.53 27.92 148.99 27.71 149.56 27.71
C149.97 27.71 150.32 27.83 150.61 28.06
C150.89 28.29 151.08 28.60 151.17 29.00
L152.70 28.63
C152.53 28.02 152.27 27.55 151.92 27.22
C151.33 26.67 150.57 26.39 149.63 26.39
Z
" fill="black" fill-rule="nonzero" />
<path d="
M148.76 39.70
C149.49 39.70 149.93 39.71 150.08 39.73
C150.34 39.76 150.54 39.85 150.67 40.00
C150.80 40.15 150.86 40.34 150.86 40.58
C150.86 40.82 150.79 41.02 150.64 41.17
C150.48 41.33 150.28 41.42 150.01 41.45
C149.87 41.47 149.49 41.48 148.89 41.48
L147.87 41.48
L147.87 39.70
Z
M149.12 42.75
C149.83 42.75 150.28 42.79 150.50 42.86
C150.71 42.93 150.87 43.05 150.98 43.21
C151.09 43.37 151.15 43.57 151.15 43.80
C151.15 44.07 151.07 44.29 150.93 44.45
C150.78 44.61 150.60 44.71 150.37 44.75
C150.22 44.79 149.86 44.80 149.31 44.80
L147.87 44.80
L147.87 42.75
Z
M146.32 38.43
L146.32 46.09
L148.93 46.09
C149.92 46.09 150.54 46.07 150.80 46.04
C151.21 46.00 151.56 45.87 151.84 45.68
C152.12 45.48 152.34 45.22 152.50 44.89
C152.67 44.56 152.75 44.22 152.75 43.87
C152.75 43.43 152.62 43.04 152.37 42.71
C152.12 42.39 151.76 42.15 151.29 42.02
C151.62 41.87 151.89 41.64 152.08 41.34
C152.27 41.04 152.37 40.72 152.37 40.36
C152.37 40.02 152.29 39.73 152.13 39.46
C151.98 39.19 151.78 38.98 151.55 38.82
C151.31 38.66 151.04 38.55 150.75 38.50
C150.45 38.45 150.00 38.43 149.39 38.43
Z
" fill="black" fill-rule="nonzero" />
<path d="
M151.21 110.92
C151.21 110.92 151.21 110.92 151.21 110.92
C151.21 110.92 151.21 110.92 151.21 110.92
C151.39 110.92 151.56 111.05 151.71 111.29
C151.88 111.56 151.96 111.94 151.96 112.42
C151.96 112.90 151.88 113.27 151.72 113.53
C151.58 113.76 151.40 113.88 151.20 113.88
C151.20 113.88 151.20 113.88 151.20 113.88
C151.20 113.88 151.19 113.88 151.19 113.88
C150.99 113.88 150.81 113.76 150.65 113.53
C150.49 113.27 150.40 112.93 150.40 112.49
C150.40 112.00 150.49 111.61 150.67 111.32
C150.83 111.05 151.01 110.92 151.21 110.92
Z
M147.61 109.91
C147.12 109.92 146.73 110.11 146.43 110.49
C146.15 110.85 145.98 111.40 145.94 112.11
L145.93 112.24
L146.06 112.26
L146.65 112.35
L146.81 112.37
L146.81 112.21
C146.81 111.78 146.89 111.45 147.05 111.23
C147.19 111.02 147.37 110.92 147.58 110.92
C147.58 110.92 147.59 110.92 147.59 110.92
C147.59 110.92 147.59 110.92 147.59 110.92
C147.79 110.92 147.96 111.02 148.10 111.21
C148.25 111.41 148.33 111.68 148.33 112.01
C148.33 112.30 148.25 112.62 148.09 112.97
C147.93 113.32 147.59 113.83 147.06 114.49
C146.59 115.07 146.27 115.58 146.09 116.01
C145.91 116.45 145.82 116.85 145.83 117.21
L145.83 117.35
L149.21 117.35
L149.21 117.21
L149.21 116.37
L149.21 116.23
L146.99 116.23
C147.03 116.14 147.08 116.05 147.13 115.97
C147.23 115.81 147.45 115.52 147.79 115.08
C148.33 114.38 148.70 113.82 148.90 113.39
C149.10 112.96 149.20 112.50 149.20 112.03
C149.20 111.49 149.07 111.01 148.81 110.58
C148.54 110.14 148.13 109.92 147.61 109.91
Z
M151.14 109.91
C150.68 109.92 150.30 110.15 149.98 110.62
C149.68 111.07 149.53 111.69 149.53 112.46
C149.53 113.21 149.67 113.81 149.97 114.25
C150.27 114.70 150.64 114.93 151.07 114.93
C151.31 114.93 151.55 114.84 151.78 114.65
C151.87 114.58 151.95 114.49 152.02 114.40
L152.02 114.40
C152.00 114.79 151.95 115.15 151.87 115.46
C151.77 115.85 151.64 116.12 151.50 116.27
C151.38 116.40 151.24 116.47 151.09 116.47
C151.09 116.47 151.09 116.47 151.08 116.47
C151.08 116.47 151.08 116.47 151.08 116.47
C150.92 116.47 150.78 116.39 150.68 116.25
C150.57 116.08 150.49 115.82 150.45 115.47
L150.43 115.32
L150.29 115.34
L149.74 115.42
L149.60 115.44
L149.61 115.57
C149.66 116.17 149.82 116.64 150.07 116.96
C150.34 117.30 150.67 117.47 151.07 117.47
C151.42 117.47 151.74 117.33 152.02 117.06
C152.29 116.79 152.50 116.37 152.66 115.81
C152.81 115.25 152.89 114.48 152.89 113.49
C152.89 112.60 152.82 111.91 152.67 111.43
C152.53 110.94 152.32 110.57 152.05 110.31
C151.77 110.05 151.47 109.91 151.14 109.91
Z
" fill="white" fill-rule="nonzero" />
<path d="
M151.51 182.98
L151.51 186.19
L150.05 186.19
L151.51 182.98
Z
M147.83 181.55
C147.73 181.86 147.56 182.18 147.32 182.51
C147.07 182.83 146.79 183.11 146.48 183.34
L146.48 184.18
C146.67 184.08 146.87 183.93 147.09 183.72
C147.32 183.52 147.49 183.32 147.63 183.13
L147.63 188.70
L148.20 188.70
L148.20 181.55
Z
M151.62 181.58
L149.48 186.19
L149.48 187.00
L151.51 187.00
L151.51 188.70
L152.08 188.70
L152.08 187.00
L152.72 187.00
L152.72 186.19
L152.08 186.19
L152.08 181.58
Z
" fill="black" fill-rule="nonzero" />
<path d="
M147.83 193.46
C147.73 193.77 147.56 194.09 147.32 194.41
C147.07 194.74 146.79 195.02 146.48 195.24
L146.48 196.09
C146.67 195.99 146.87 195.83 147.09 195.63
C147.32 195.43 147.49 195.23 147.63 195.03
L147.63 200.61
L148.20 200.61
L148.20 193.46
Z
M151.24 193.46
C150.80 193.46 150.44 193.63 150.18 193.97
C149.91 194.32 149.75 194.83 149.71 195.52
L150.30 195.61
C150.30 195.15 150.39 194.79 150.56 194.55
C150.73 194.30 150.95 194.18 151.22 194.18
C151.47 194.18 151.67 194.29 151.84 194.52
C152.01 194.75 152.10 195.05 152.10 195.41
C152.10 195.72 152.02 196.06 151.85 196.43
C151.68 196.79 151.33 197.31 150.80 197.97
C150.34 198.55 150.02 199.04 149.85 199.47
C149.68 199.89 149.60 200.27 149.60 200.61
L152.69 200.61
L152.69 199.77
L150.40 199.77
C150.46 199.61 150.54 199.45 150.64 199.29
C150.74 199.13 150.96 198.83 151.31 198.40
C151.84 197.70 152.21 197.15 152.40 196.73
C152.59 196.32 152.69 195.88 152.69 195.43
C152.69 194.92 152.56 194.46 152.32 194.06
C152.07 193.66 151.71 193.46 151.24 193.46
Z
" fill="black" fill-rule="nonzero" />
<path d="
M150.62 207.82
L150.62 207.82
L150.62 207.82
C150.62 207.82 150.62 207.82 150.62 207.82
Z
M147.72 205.16
L147.69 205.26
C147.60 205.55 147.44 205.86 147.20 206.17
C146.97 206.49 146.70 206.75 146.40 206.97
L146.34 207.02
L146.34 207.09
L146.34 207.93
L146.34 208.17
L146.55 208.06
C146.74 207.95 146.96 207.79 147.19 207.58
C147.30 207.48 147.40 207.38 147.48 207.29
L147.48 207.29
L147.48 212.45
L147.48 212.59
L148.34 212.59
L148.34 212.45
L148.34 205.30
L148.34 205.16
Z
M150.10 205.28
L150.08 205.41
L149.63 209.07
L149.61 209.20
L149.74 209.22
L150.28 209.33
L150.40 209.35
L150.44 209.25
C150.52 209.05 150.63 208.90 150.76 208.79
C150.88 208.69 151.02 208.64 151.16 208.64
C151.16 208.64 151.16 208.64 151.16 208.64
C151.16 208.64 151.16 208.64 151.16 208.64
C151.40 208.64 151.60 208.76 151.76 209.00
C151.93 209.26 152.02 209.63 152.02 210.11
C152.02 210.62 151.93 211.02 151.75 211.31
C151.58 211.58 151.38 211.71 151.17 211.71
C151.16 211.71 151.16 211.71 151.16 211.71
C151.16 211.71 151.16 211.71 151.16 211.71
C150.99 211.71 150.84 211.62 150.70 211.44
C150.55 211.24 150.46 210.92 150.41 210.49
L150.40 210.35
L150.25 210.37
L149.65 210.45
L149.52 210.46
L149.53 210.60
C149.57 211.25 149.74 211.76 150.03 212.13
C150.34 212.52 150.72 212.71 151.17 212.71
C151.71 212.71 152.14 212.44 152.46 211.90
C152.76 211.38 152.91 210.76 152.91 210.04
C152.91 209.30 152.76 208.71 152.45 208.27
C152.13 207.82 151.75 207.59 151.31 207.59
C151.07 207.59 150.84 207.67 150.62 207.82
L150.62 207.82
L150.81 206.40
L152.69 206.40
L152.69 206.26
L152.69 205.43
L152.69 205.28
Z
" fill="white" fill-rule="nonzero" />
<path d="
M161.29 182.24
C161.54 182.24 161.76 182.35 161.95 182.56
C162.14 182.77 162.23 183.04 162.23 183.37
C162.23 183.69 162.14 183.95 161.96 184.15
C161.78 184.35 161.55 184.45 161.30 184.45
C161.03 184.45 160.81 184.35 160.62 184.14
C160.44 183.94 160.35 183.66 160.35 183.32
C160.35 183.01 160.44 182.76 160.63 182.55
C160.81 182.35 161.03 182.24 161.29 182.24
Z
M161.28 185.16
C161.60 185.16 161.88 185.29 162.12 185.55
C162.35 185.82 162.47 186.16 162.47 186.60
C162.47 187.03 162.35 187.37 162.13 187.62
C161.90 187.88 161.62 188.01 161.30 188.01
C160.97 188.01 160.69 187.88 160.46 187.61
C160.23 187.35 160.12 187.00 160.12 186.57
C160.12 186.15 160.23 185.81 160.45 185.55
C160.68 185.29 160.95 185.16 161.28 185.16
Z
M161.28 181.53
C160.80 181.53 160.41 181.70 160.09 182.04
C159.78 182.37 159.62 182.81 159.62 183.34
C159.62 183.70 159.69 183.99 159.84 184.23
C159.98 184.47 160.20 184.65 160.48 184.78
C160.14 184.89 159.87 185.10 159.68 185.40
C159.49 185.71 159.39 186.10 159.39 186.57
C159.39 187.21 159.57 187.73 159.94 188.13
C160.30 188.52 160.75 188.72 161.30 188.72
C161.83 188.72 162.28 188.52 162.65 188.13
C163.01 187.73 163.19 187.22 163.19 186.59
C163.19 186.14 163.10 185.76 162.91 185.45
C162.72 185.14 162.46 184.92 162.11 184.78
C162.39 184.65 162.60 184.47 162.75 184.23
C162.89 184.00 162.96 183.71 162.96 183.37
C162.96 182.83 162.80 182.39 162.48 182.05
C162.16 181.70 161.76 181.53 161.28 181.53
Z
" fill="black" fill-rule="nonzero" />
<path d="
M161.29 194.30
C161.29 194.30 161.29 194.30 161.30 194.30
C161.30 194.30 161.30 194.30 161.30 194.30
C161.54 194.30 161.76 194.42 161.96 194.67
C162.16 194.94 162.26 195.30 162.26 195.77
C162.26 196.24 162.16 196.61 161.97 196.85
C161.78 197.09 161.55 197.21 161.28 197.21
C161.28 197.21 161.28 197.21 161.28 197.21
C161.28 197.21 161.28 197.21 161.28 197.21
C161.01 197.21 160.77 197.09 160.57 196.85
C160.37 196.61 160.27 196.27 160.27 195.84
C160.27 195.36 160.38 194.98 160.59 194.70
C160.80 194.43 161.04 194.30 161.29 194.30
Z
M161.21 193.30
C160.66 193.30 160.20 193.53 159.82 193.98
C159.44 194.43 159.25 195.04 159.25 195.81
C159.25 196.56 159.43 197.15 159.80 197.59
C160.17 198.04 160.61 198.26 161.12 198.26
C161.41 198.26 161.69 198.17 161.96 197.99
C162.10 197.90 162.22 197.79 162.33 197.66
L162.33 197.66
C162.31 198.08 162.25 198.44 162.14 198.77
C162.02 199.15 161.87 199.42 161.70 199.56
C161.53 199.70 161.35 199.77 161.14 199.77
C161.14 199.77 161.14 199.77 161.14 199.77
C161.14 199.77 161.14 199.77 161.14 199.77
C160.92 199.77 160.74 199.70 160.61 199.54
C160.47 199.38 160.37 199.12 160.32 198.78
L160.30 198.64
L160.17 198.66
L159.48 198.74
L159.35 198.75
L159.36 198.89
C159.42 199.49 159.61 199.95 159.93 200.27
C160.25 200.60 160.65 200.77 161.13 200.77
C161.55 200.77 161.93 200.63 162.26 200.37
C162.60 200.10 162.86 199.69 163.05 199.13
C163.24 198.58 163.33 197.81 163.33 196.83
C163.33 195.95 163.25 195.27 163.07 194.79
C162.89 194.30 162.64 193.93 162.30 193.68
C161.97 193.43 161.60 193.30 161.21 193.30
Z
" fill="white" fill-rule="nonzero" />
<path d="
M170.74 86.05
L170.74 93.71
L172.29 93.71
L172.29 90.46
L175.49 90.46
L175.49 89.16
L172.29 89.16
L172.29 87.35
L175.99 87.35
L175.99 86.05
Z
" fill="black" fill-rule="nonzero" />
<path d="
M171.53 181.41
L171.50 181.51
C171.41 181.80 171.25 182.11 171.01 182.42
C170.78 182.74 170.51 183.00 170.21 183.22
L170.15 183.26
L170.15 183.34
L170.15 184.18
L170.15 184.42
L170.36 184.31
C170.55 184.20 170.77 184.04 171.00 183.83
C171.11 183.73 171.21 183.63 171.29 183.53
L171.29 183.53
L171.29 188.70
L171.29 188.84
L172.15 188.84
L172.15 188.70
L172.15 181.55
L172.15 181.41
Z
M175.16 181.41
L175.13 181.51
C175.04 181.80 174.88 182.11 174.64 182.42
C174.41 182.74 174.14 183.00 173.84 183.22
L173.78 183.26
L173.78 183.34
L173.78 184.18
L173.78 184.42
L173.99 184.31
C174.18 184.20 174.40 184.04 174.63 183.83
C174.74 183.73 174.84 183.63 174.92 183.53
L174.92 183.53
L174.92 188.70
L174.92 188.84
L175.78 188.84
L175.78 188.70
L175.78 181.55
L175.78 181.41
Z
" fill="white" fill-rule="nonzero" />
<path d="
M174.98 194.12
C175.26 194.12 175.49 194.31 175.67 194.71
C175.85 195.10 175.94 195.87 175.94 197.03
C175.94 198.18 175.85 198.95 175.67 199.35
C175.50 199.75 175.28 199.95 175.02 199.95
C174.74 199.95 174.51 199.75 174.33 199.36
C174.16 198.96 174.07 198.19 174.07 197.03
C174.07 195.89 174.15 195.11 174.33 194.72
C174.50 194.32 174.72 194.12 174.98 194.12
Z
M171.64 193.39
C171.54 193.71 171.37 194.02 171.13 194.35
C170.89 194.68 170.61 194.96 170.29 195.18
L170.29 196.03
C170.48 195.92 170.68 195.77 170.90 195.57
C171.13 195.37 171.30 195.17 171.44 194.97
L171.44 200.55
L172.01 200.55
L172.01 193.39
Z
M175.01 193.39
C174.51 193.39 174.13 193.70 173.87 194.32
C173.61 194.93 173.48 195.84 173.48 197.03
C173.48 198.37 173.62 199.31 173.91 199.85
C174.19 200.40 174.55 200.67 175.00 200.67
C175.51 200.67 175.89 200.36 176.14 199.74
C176.40 199.13 176.53 198.22 176.53 197.03
C176.53 195.71 176.37 194.75 176.06 194.14
C175.80 193.64 175.45 193.39 175.01 193.39
Z
" fill="black" fill-rule="nonzero" />
<path d="
M171.53 205.16
L171.50 205.26
C171.41 205.55 171.25 205.86 171.01 206.17
C170.78 206.49 170.51 206.75 170.21 206.97
L170.15 207.01
L170.15 207.09
L170.15 207.93
L170.15 208.17
L170.36 208.05
C170.55 207.95 170.77 207.79 171.00 207.58
C171.11 207.48 171.21 207.38 171.29 207.28
L171.29 207.28
L171.29 212.45
L171.29 212.59
L172.15 212.59
L172.15 212.45
L172.15 205.30
L172.15 205.16
Z
M174.95 205.16
C174.55 205.16 174.21 205.33 173.92 205.67
C173.65 206.01 173.48 206.49 173.40 207.13
L173.39 207.25
L173.51 207.28
L174.08 207.44
L174.24 207.48
L174.26 207.31
C174.29 206.91 174.38 206.61 174.52 206.42
C174.64 206.24 174.79 206.16 174.96 206.16
C174.96 206.16 174.96 206.16 174.96 206.16
C174.96 206.16 174.96 206.16 174.96 206.16
C175.13 206.16 175.27 206.24 175.39 206.40
C175.52 206.58 175.58 206.82 175.58 207.12
C175.58 207.45 175.50 207.71 175.35 207.90
C175.20 208.09 175.01 208.18 174.78 208.18
L174.78 208.18
L174.70 208.17
L174.55 208.15
L174.54 208.30
L174.47 209.07
L174.45 209.30
L174.67 209.21
C174.81 209.15 174.93 209.12 175.02 209.12
C175.02 209.12 175.02 209.12 175.02 209.12
C175.02 209.12 175.02 209.12 175.02 209.12
C175.23 209.12 175.41 209.23 175.55 209.44
C175.71 209.67 175.79 209.98 175.79 210.36
C175.79 210.77 175.70 211.10 175.53 211.36
C175.37 211.59 175.18 211.71 174.97 211.71
C174.97 211.71 174.97 211.71 174.97 211.71
C174.96 211.71 174.96 211.71 174.96 211.71
C174.77 211.71 174.62 211.61 174.49 211.42
C174.36 211.21 174.26 210.88 174.20 210.43
L174.18 210.28
L174.03 210.31
L173.46 210.43
L173.34 210.45
L173.34 210.58
C173.38 211.22 173.55 211.73 173.85 212.12
C174.15 212.52 174.53 212.72 174.97 212.72
C175.45 212.72 175.86 212.49 176.19 212.04
C176.52 211.59 176.68 211.03 176.69 210.35
C176.69 210.02 176.65 209.73 176.57 209.47
C176.49 209.20 176.38 208.99 176.24 208.82
C176.16 208.71 176.05 208.63 175.94 208.56
L175.94 208.56
C176.07 208.42 176.19 208.26 176.27 208.06
C176.40 207.79 176.46 207.49 176.46 207.14
C176.46 206.58 176.31 206.11 176.03 205.74
C175.74 205.35 175.38 205.16 174.95 205.16
Z
" fill="white" fill-rule="nonzero" />
<path d="
M185.04 87.84
L186.10 90.68
L184.01 90.68
L185.04 87.84
Z
M184.24 86.05
L181.26 93.71
L182.90 93.71
L183.53 91.97
L186.60 91.97
L187.27 93.71
L188.95 93.71
L185.88 86.05
Z
" fill="black" fill-rule="nonzero" />
</g>
<g  transform="translate(1.19,228.58)" >
<path d="
M109.47 2.94
C109.30 2.94 109.16 3.00 109.05 3.11
C108.93 3.23 108.88 3.37 108.88 3.53
C108.88 3.69 108.94 3.83 109.05 3.95
C109.17 4.07 109.31 4.12 109.47 4.12
C109.63 4.12 109.77 4.07 109.89 3.95
C110.00 3.83 110.06 3.69 110.06 3.53
C110.06 3.37 110.00 3.23 109.89 3.11
C109.77 3.00 109.63 2.94 109.47 2.94
Z
M114.44 8.04
L114.44 10.07
C113.96 10.46 113.57 10.65 113.28 10.65
C113.06 10.65 112.87 10.56 112.70 10.37
C112.54 10.19 112.45 9.96 112.45 9.68
C112.45 9.46 112.52 9.25 112.65 9.07
C112.78 8.88 113.00 8.70 113.31 8.53
C113.48 8.44 113.86 8.27 114.44 8.04
Z
M102.79 3.77
C103.72 3.77 104.48 4.08 105.08 4.71
C105.67 5.34 105.97 6.20 105.97 7.29
C105.97 8.37 105.67 9.23 105.08 9.86
C104.48 10.49 103.74 10.81 102.84 10.81
C102.50 10.81 102.09 10.75 101.60 10.64
L101.60 3.94
C102.05 3.83 102.44 3.77 102.79 3.77
Z
M99.35 3.33
L99.35 3.54
L99.65 3.54
C99.94 3.54 100.17 3.63 100.32 3.80
C100.43 3.92 100.48 4.23 100.48 4.72
L100.48 9.82
C100.48 10.26 100.44 10.55 100.35 10.68
C100.22 10.89 99.98 11.00 99.65 11.00
L99.35 11.00
L99.35 11.21
L102.87 11.21
C104.40 11.21 105.54 10.80 106.29 9.98
C106.96 9.24 107.29 8.33 107.29 7.23
C107.29 6.41 107.11 5.69 106.73 5.07
C106.36 4.44 105.86 4.00 105.25 3.73
C104.63 3.46 103.74 3.33 102.56 3.33
Z
M109.70 5.73
L108.09 6.38
L108.17 6.59
C108.33 6.53 108.46 6.50 108.57 6.50
C108.67 6.50 108.75 6.53 108.81 6.58
C108.87 6.62 108.91 6.71 108.94 6.83
C108.97 7.00 108.99 7.38 108.99 7.96
L108.99 10.01
C108.99 10.34 108.96 10.56 108.91 10.68
C108.86 10.79 108.79 10.88 108.70 10.93
C108.61 10.98 108.43 11.00 108.17 11.00
L108.17 11.21
L110.76 11.21
L110.76 11.00
C110.51 11.00 110.34 10.98 110.24 10.92
C110.15 10.87 110.07 10.79 110.03 10.68
C109.98 10.56 109.95 10.34 109.95 10.01
L109.95 5.73
Z
M113.63 5.73
C113.01 5.73 112.53 5.87 112.19 6.15
C111.85 6.43 111.68 6.73 111.68 7.07
C111.68 7.24 111.72 7.38 111.82 7.48
C111.91 7.58 112.02 7.63 112.17 7.63
C112.31 7.63 112.43 7.58 112.52 7.49
C112.62 7.39 112.66 7.25 112.66 7.07
L112.65 6.74
C112.65 6.56 112.72 6.41 112.87 6.28
C113.01 6.15 113.21 6.08 113.45 6.08
C113.77 6.08 114.02 6.18 114.19 6.38
C114.36 6.58 114.44 6.94 114.44 7.47
L114.44 7.68
C113.53 8.02 112.87 8.30 112.48 8.53
C112.08 8.76 111.81 9.01 111.65 9.28
C111.53 9.47 111.48 9.69 111.48 9.95
C111.48 10.36 111.59 10.69 111.83 10.95
C112.07 11.20 112.37 11.32 112.74 11.32
C112.98 11.32 113.20 11.27 113.41 11.18
C113.55 11.11 113.89 10.87 114.44 10.45
C114.44 10.76 114.50 10.99 114.62 11.12
C114.73 11.25 114.88 11.32 115.07 11.32
C115.46 11.32 115.88 11.03 116.31 10.45
L116.31 10.12
C116.08 10.35 115.92 10.49 115.84 10.54
C115.80 10.57 115.74 10.58 115.68 10.58
C115.62 10.58 115.57 10.57 115.53 10.53
C115.48 10.49 115.45 10.41 115.43 10.30
C115.41 10.18 115.40 9.87 115.40 9.36
L115.40 7.55
C115.40 7.04 115.37 6.70 115.30 6.53
C115.19 6.28 115.02 6.09 114.79 5.97
C114.49 5.81 114.10 5.73 113.63 5.73
Z
M124.63 3.33
L123.12 6.39
C123.85 6.42 124.42 6.52 124.85 6.69
C125.39 6.92 125.81 7.24 126.11 7.65
C126.42 8.06 126.57 8.51 126.57 8.99
C126.57 9.48 126.40 9.90 126.06 10.24
C125.72 10.58 125.32 10.75 124.86 10.75
C124.57 10.75 124.27 10.65 123.98 10.45
C123.80 10.32 123.67 10.24 123.59 10.21
C123.52 10.18 123.43 10.17 123.33 10.17
C123.19 10.17 123.08 10.21 122.99 10.29
C122.90 10.37 122.86 10.47 122.86 10.58
C122.86 10.77 122.96 10.95 123.18 11.11
C123.40 11.27 123.74 11.35 124.21 11.35
C124.68 11.35 125.14 11.25 125.58 11.03
C125.90 10.88 126.18 10.68 126.44 10.43
C126.70 10.19 126.91 9.89 127.08 9.53
C127.25 9.18 127.33 8.80 127.33 8.38
C127.33 7.67 127.07 7.05 126.56 6.52
C125.96 5.91 125.14 5.53 124.11 5.37
L124.63 4.32
L127.00 4.32
L127.46 3.33
Z
M117.82 10.08
C117.65 10.08 117.49 10.15 117.37 10.27
C117.24 10.39 117.18 10.55 117.18 10.73
C117.18 10.91 117.24 11.06 117.37 11.19
C117.49 11.31 117.65 11.38 117.82 11.38
C118.00 11.38 118.15 11.31 118.28 11.19
C118.41 11.06 118.47 10.91 118.47 10.73
C118.47 10.55 118.41 10.40 118.28 10.27
C118.16 10.15 118.01 10.08 117.82 10.08
Z
" fill="black" fill-rule="nonzero" />
</g>
</g>
</svg>
