<?xml version="1.0" encoding="utf-8" standalone="no"?>
<!DOCTYPE svg PUBLIC "-//W3C//DTD SVG 1.0//EN" "http://www.w3.org/TR/SVG/DTD/svg11.dtd" >
<svg version="1.1" baseProfile="full"  width="319.13385" height="338.46454" viewBox="0 0 229.77638 243.69449" preserveAspectRatio="xMidYMid" xmlns="http://www.w3.org/2000/svg" >

<g lengthAdjust="spacingAndGlyphs" xml:space='preserve' >
<g  transform="translate(1.19,1.19)" >
<path d="
M0.0 0.0
L0.0 227.39
L227.39 227.39
L227.39 0.0
Z
" fill="none" fill-rule="nonzero" />
<line x1="6.54" y1="6.54" x2="6.54" y2="220.84" fill="none" stroke="black" stroke-width="0.87px" stroke-linecap="square" />
<line x1="18.45" y1="6.54" x2="18.45" y2="220.84" fill="none" stroke="black" stroke-width="0.25px" stroke-linecap="butt" />
<line x1="30.35" y1="6.54" x2="30.35" y2="220.84" fill="none" stroke="black" stroke-width="0.25px" stroke-linecap="butt" />
<line x1="42.26" y1="6.54" x2="42.26" y2="220.84" fill="none" stroke="black" stroke-width="0.25px" stroke-linecap="butt" />
<line x1="54.17" y1="6.54" x2="54.17" y2="220.84" fill="none" stroke="black" stroke-width="0.25px" stroke-linecap="butt" />
<line x1="66.07" y1="6.54" x2="66.07" y2="220.84" fill="none" stroke="black" stroke-width="0.25px" stroke-linecap="butt" />
<line x1="77.98" y1="6.54" x2="77.98" y2="220.84" fill="none" stroke="black" stroke-width="0.25px" stroke-linecap="butt" />
<line x1="89.88" y1="6.54" x2="89.88" y2="220.84" fill="none" stroke="black" stroke-width="0.25px" stroke-linecap="butt" />
<line x1="101.79" y1="6.54" x2="101.79" y2="220.84" fill="none" stroke="black" stroke-width="0.25px" stroke-linecap="butt" />
<line x1="113.69" y1="6.54" x2="113.69" y2="220.84" fill="none" stroke="black" stroke-width="0.25px" stroke-linecap="butt" />
<line x1="125.60" y1="6.54" x2="125.60" y2="36.31" fill="none" stroke="black" stroke-width="0.25px" stroke-linecap="butt" />
<line x1="125.60" y1="48.21" x2="125.60" y2="220.84" fill="none" stroke="black" stroke-width="0.25px" stroke-linecap="butt" />
<line x1="137.50" y1="6.54" x2="137.50" y2="48.21" fill="none" stroke="black" stroke-width="0.25px" stroke-linecap="butt" />
<line x1="137.50" y1="60.12" x2="137.50" y2="220.84" fill="none" stroke="black" stroke-width="0.25px" stroke-linecap="butt" />
<line x1="149.41" y1="6.54" x2="149.41" y2="24.40" fill="none" stroke="black" stroke-width="0.25px" stroke-linecap="butt" />
<line x1="149.41" y1="48.21" x2="149.41" y2="220.84" fill="none" stroke="black" stroke-width="0.25px" stroke-linecap="butt" />
<line x1="161.31" y1="6.54" x2="161.31" y2="220.84" fill="none" stroke="black" stroke-width="0.25px" stroke-linecap="butt" />
<line x1="173.22" y1="6.54" x2="173.22" y2="83.93" fill="none" stroke="black" stroke-width="0.25px" stroke-linecap="butt" />
<line x1="173.22" y1="95.83" x2="173.22" y2="220.84" fill="none" stroke="black" stroke-width="0.25px" stroke-linecap="butt" />
<line x1="185.13" y1="6.54" x2="185.13" y2="83.93" fill="none" stroke="black" stroke-width="0.25px" stroke-linecap="butt" />
<line x1="185.13" y1="95.83" x2="185.13" y2="220.84" fill="none" stroke="black" stroke-width="0.25px" stroke-linecap="butt" />
<line x1="197.03" y1="6.54" x2="197.03" y2="220.84" fill="none" stroke="black" stroke-width="0.25px" stroke-linecap="butt" />
<line x1="208.94" y1="6.54" x2="208.94" y2="220.84" fill="none" stroke="black" stroke-width="0.25px" stroke-linecap="butt" />
<line x1="220.84" y1="6.54" x2="220.84" y2="220.84" fill="none" stroke="black" stroke-width="0.87px" stroke-linecap="square" />
<line x1="6.54" y1="6.54" x2="220.84" y2="6.54" fill="none" stroke="black" stroke-width="0.87px" stroke-linecap="square" />
<line x1="6.54" y1="18.45" x2="220.84" y2="18.45" fill="none" stroke="black" stroke-width="0.25px" stroke-linecap="butt" />
<line x1="6.54" y1="30.35" x2="143.46" y2="30.35" fill="none" stroke="black" stroke-width="0.25px" stroke-linecap="butt" />
<line x1="155.36" y1="30.35" x2="220.84" y2="30.35" fill="none" stroke="black" stroke-width="0.25px" stroke-linecap="butt" />
<line x1="6.54" y1="42.26" x2="119.65" y2="42.26" fill="none" stroke="black" stroke-width="0.25px" stroke-linecap="butt" />
<line x1="131.55" y1="42.26" x2="143.46" y2="42.26" fill="none" stroke="black" stroke-width="0.25px" stroke-linecap="butt" />
<line x1="155.36" y1="42.26" x2="220.84" y2="42.26" fill="none" stroke="black" stroke-width="0.25px" stroke-linecap="butt" />
<line x1="6.54" y1="54.17" x2="131.55" y2="54.17" fill="none" stroke="black" stroke-width="0.25px" stroke-linecap="butt" />
<line x1="143.46" y1="54.17" x2="220.84" y2="54.17" fill="none" stroke="black" stroke-width="0.25px" stroke-linecap="butt" />
<line x1="6.54" y1="66.07" x2="220.84" y2="66.07" fill="none" stroke="black" stroke-width="0.25px" stroke-linecap="butt" />
<line x1="6.54" y1="77.98" x2="220.84" y2="77.98" fill="none" stroke="black" stroke-width="0.25px" stroke-linecap="butt" />
<line x1="6.54" y1="89.88" x2="167.27" y2="89.88" fill="none" stroke="black" stroke-width="0.25px" stroke-linecap="butt" />
<line x1="191.08" y1="89.88" x2="220.84" y2="89.88" fill="none" stroke="black" stroke-width="0.25px" stroke-linecap="butt" />
<line x1="6.54" y1="101.79" x2="220.84" y2="101.79" fill="none" stroke="black" stroke-width="0.25px" stroke-linecap="butt" />
<line x1="6.54" y1="113.69" x2="220.84" y2="113.69" fill="none" stroke="black" stroke-width="0.25px" stroke-linecap="butt" />
<line x1="6.54" y1="125.60" x2="220.84" y2="125.60" fill="none" stroke="black" stroke-width="0.25px" stroke-linecap="butt" />
<line x1="6.54" y1="137.50" x2="220.84" y2="137.50" fill="none" stroke="black" stroke-width="0.25px" stroke-linecap="butt" />
<line x1="6.54" y1="149.41" x2="220.84" y2="149.41" fill="none" stroke="black" stroke-width="0.25px" stroke-linecap="butt" />
<line x1="6.54" y1="161.31" x2="220.84" y2="161.31" fill="none" stroke="black" stroke-width="0.25px" stroke-linecap="butt" />
<line x1="6.54" y1="173.22" x2="220.84" y2="173.22" fill="none" stroke="black" stroke-width="0.25px" stroke-linecap="butt" />
<line x1="6.54" y1="185.13" x2="220.84" y2="185.13" fill="none" stroke="black" stroke-width="0.25px" stroke-linecap="butt" />
<line x1="6.54" y1="197.03" x2="220.84" y2="197.03" fill="none" stroke="black" stroke-width="0.25px" stroke-linecap="butt" />
<line x1="6.54" y1="208.94" x2="220.84" y2="208.94" fill="none" stroke="black" stroke-width="0.25px" stroke-linecap="butt" />
<line x1="6.54" y1="220.84" x2="220.84" y2="220.84" fill="none" stroke="black" stroke-width="0.87px" stroke-linecap="square" />
<circle cx="18.45" cy="42.26" r="5.98" fill="black"/>
<circle cx="18.45" cy="161.31" r="5.85" fill="white"/>
<circle cx="18.45" cy="161.31" r="5.85" fill="none" stroke="black" stroke-width="0.25px"/>
<circle cx="18.45" cy="173.22" r="5.98" fill="black"/>
<circle cx="18.45" cy="197.03" r="5.98" fill="black"/>
<circle cx="30.35" cy="30.35" r="5.98" fill="black"/>
<circle cx="30.35" cy="66.07" r="5.98" fill="black"/>
<circle cx="30.35" cy="161.31" r="5.85" fill="white"/>
<circle cx="30.35" cy="161.31" r="5.85" fill="none" stroke="black" stroke-width="0.25px"/>
<circle cx="30.35" cy="185.13" r="5.98" fill="black"/>
<circle cx="30.35" cy="208.94" r="5.98" fill="black"/>
<circle cx="42.26" cy="42.26" r="5.85" fill="white"/>
<circle cx="42.26" cy="42.26" r="5.85" fill="none" stroke="black" stroke-width="0.25px"/>
<circle cx="42.26" cy="113.69" r="5.98" fill="black"/>
<circle cx="42.26" cy="173.22" r="5.85" fill="white"/>
<circle cx="42.26" cy="173.22" r="5.85" fill="none" stroke="black" stroke-width="0.25px"/>
<circle cx="42.26" cy="185.13" r="5.85" fill="white"/>
<circle cx="42.26" cy="185.13" r="5.85" fill="none" stroke="black" stroke-width="0.25px"/>
<circle cx="42.26" cy="197.03" r="5.98" fill="black"/>
<circle cx="54.17" cy="197.03" r="5.85" fill="white"/>
<circle cx="54.17" cy="197.03" r="5.85" fill="none" stroke="black" stroke-width="0.25px"/>
<circle cx="54.17" cy="208.94" r="5.85" fill="white"/>
<circle cx="54.17" cy="208.94" r="5.85" fill="none" stroke="black" stroke-width="0.25px"/>
<circle cx="66.07" cy="30.35" r="5.85" fill="white"/>
<circle cx="66.07" cy="30.35" r="5.85" fill="none" stroke="black" stroke-width="0.25px"/>
<circle cx="89.88" cy="197.03" r="5.85" fill="white"/>
<circle cx="89.88" cy="197.03" r="5.85" fill="none" stroke="black" stroke-width="0.25px"/>
<circle cx="101.79" cy="42.26" r="5.85" fill="white"/>
<circle cx="101.79" cy="42.26" r="5.85" fill="none" stroke="black" stroke-width="0.25px"/>
<circle cx="113.69" cy="42.26" r="1.27" fill="black"/>
<circle cx="113.69" cy="113.69" r="5.98" fill="black"/>
<circle cx="113.69" cy="137.50" r="5.98" fill="black"/>
<circle cx="113.69" cy="149.41" r="5.98" fill="black"/>
<circle cx="113.69" cy="161.31" r="5.98" fill="black"/>
<circle cx="113.69" cy="173.22" r="5.98" fill="black"/>
<circle cx="113.69" cy="185.13" r="5.85" fill="white"/>
<circle cx="113.69" cy="185.13" r="5.85" fill="none" stroke="black" stroke-width="0.25px"/>
<circle cx="113.69" cy="197.03" r="5.85" fill="white"/>
<circle cx="113.69" cy="197.03" r="5.85" fill="none" stroke="black" stroke-width="0.25px"/>
<circle cx="125.60" cy="149.41" r="5.85" fill="white"/>
<circle cx="125.60" cy="149.41" r="5.85" fill="none" stroke="black" stroke-width="0.25px"/>
<circle cx="125.60" cy="161.31" r="5.85" fill="white"/>
<circle cx="125.60" cy="161.31" r="5.85" fill="none" stroke="black" stroke-width="0.25px"/>
<circle cx="125.60" cy="173.22" r="5.85" fill="white"/>
<circle cx="125.60" cy="173.22" r="5.85" fill="none" stroke="black" stroke-width="0.25px"/>
<circle cx="125.60" cy="185.13" r="5.98" fill="black"/>
<circle cx="137.50" cy="42.26" r="5.85" fill="white"/>
<circle cx="137.50" cy="42.26" r="5.85" fill="none" stroke="black" stroke-width="0.25px"/>
<circle cx="137.50" cy="101.79" r="5.85" fill="white"/>
<circle cx="137.50" cy="101.79" r="5.85" fill="none" stroke="black" stroke-width="0.25px"/>
<circle cx="137.50" cy="113.69" r="5.85" fill="white"/>
<circle cx="137.50" cy="113.69" r="5.85" fill="none" stroke="black" stroke-width="0.25px"/>
<circle cx="137.50" cy="125.60" r="5.85" fill="white"/>
<circle cx="137.50" cy="125.60" r="5.85" fill="none" stroke="black" stroke-width="0.25px"/>
<circle cx="137.50" cy="185.13" r="5.98" fill="black"/>
<circle cx="137.50" cy="208.94" r="5.85" fill="white"/>
<circle cx="137.50" cy="208.94" r="5.85" fill="none" stroke="black" stroke-width="0.25px"/>
<circle cx="149.41" cy="113.69" r="5.98" fill="black"/>
<circle cx="149.41" cy="161.31" r="5.85" fill="white"/>
<circle cx="149.41" cy="161.31" r="5.85" fill="none" stroke="black" stroke-width="0.25px"/>
<circle cx="149.41" cy="185.13" r="5.85" fill="white"/>
<circle cx="149.41" cy="185.13" r="5.85" fill="none" stroke="black" stroke-width="0.25px"/>
<circle cx="149.41" cy="197.03" r="5.85" fill="white"/>
<circle cx="149.41" cy="197.03" r="5.85" fill="none" stroke="black" stroke-width="0.25px"/>
<circle cx="149.41" cy="208.94" r="5.98" fill="black"/>
<circle cx="161.31" cy="30.35" r="5.85" fill="white"/>
<circle cx="161.31" cy="30.35" r="5.85" fill="none" stroke="black" stroke-width="0.25px"/>
<circle cx="161.31" cy="185.13" r="5.85" fill="white"/>
<circle cx="161.31" cy="185.13" r="5.85" fill="none" stroke="black" stroke-width="0.25px"/>
<circle cx="161.31" cy="197.03" r="5.98" fill="black"/>
<circle cx="173.22" cy="125.60" r="5.98" fill="black"/>
<circle cx="173.22" cy="185.13" r="5.98" fill="black"/>
<circle cx="173.22" cy="197.03" r="5.85" fill="white"/>
<circle cx="173.22" cy="197.03" r="5.85" fill="none" stroke="black" stroke-width="0.25px"/>
<circle cx="173.22" cy="208.94" r="5.98" fill="black"/>
<circle cx="185.13" cy="18.45" r="5.85" fill="white"/>
<circle cx="185.13" cy="18.45" r="5.85" fill="none" stroke="black" stroke-width="0.25px"/>
<circle cx="185.13" cy="42.26" r="5.98" fill="black"/>
<circle cx="185.13" cy="66.07" r="5.98" fill="black"/>
<circle cx="185.13" cy="113.69" r="1.27" fill="black"/>
<circle cx="185.13" cy="173.22" r="5.98" fill="black"/>
<circle cx="185.13" cy="185.13" r="1.27" fill="black"/>
<circle cx="185.13" cy="197.03" r="5.98" fill="black"/>
<circle cx="197.03" cy="30.35" r="5.98" fill="black"/>
<circle cx="197.03" cy="125.60" r="5.98" fill="black"/>
<path d="
M16.65 157.74
C16.21 157.74 15.85 157.91 15.59 158.26
C15.32 158.60 15.16 159.12 15.12 159.80
L15.71 159.89
C15.71 159.43 15.80 159.08 15.97 158.83
C16.14 158.59 16.36 158.46 16.63 158.46
C16.87 158.46 17.08 158.58 17.25 158.81
C17.42 159.03 17.51 159.33 17.51 159.69
C17.51 160.01 17.43 160.35 17.26 160.71
C17.09 161.07 16.74 161.59 16.21 162.26
C15.75 162.83 15.43 163.33 15.26 163.75
C15.09 164.17 15.01 164.55 15.01 164.89
L18.10 164.89
L18.10 164.05
L15.81 164.05
C15.87 163.89 15.95 163.73 16.05 163.57
C16.15 163.42 16.37 163.12 16.72 162.68
C17.25 161.99 17.62 161.43 17.81 161.02
C18.00 160.60 18.10 160.16 18.10 159.71
C18.10 159.20 17.97 158.74 17.73 158.34
C17.48 157.94 17.12 157.74 16.65 157.74
Z
M20.28 157.74
C19.84 157.74 19.48 157.91 19.22 158.26
C18.95 158.60 18.79 159.12 18.75 159.80
L19.34 159.89
C19.34 159.43 19.43 159.08 19.60 158.83
C19.77 158.59 19.99 158.46 20.26 158.46
C20.50 158.46 20.71 158.58 20.88 158.81
C21.05 159.03 21.14 159.33 21.14 159.69
C21.14 160.01 21.06 160.35 20.89 160.71
C20.72 161.07 20.37 161.59 19.84 162.26
C19.38 162.83 19.06 163.33 18.89 163.75
C18.72 164.17 18.64 164.55 18.64 164.89
L21.73 164.89
L21.73 164.05
L19.44 164.05
C19.50 163.89 19.58 163.73 19.68 163.57
C19.78 163.42 20.00 163.12 20.35 162.68
C20.88 161.99 21.25 161.43 21.44 161.02
C21.63 160.60 21.73 160.16 21.73 159.71
C21.73 159.20 21.60 158.74 21.36 158.34
C21.11 157.94 20.75 157.74 20.28 157.74
Z
" fill="black" fill-rule="nonzero" />
<path d="
M16.65 169.50
C16.16 169.50 15.77 169.69 15.47 170.07
C15.19 170.44 15.02 170.98 14.98 171.70
L14.97 171.82
L15.10 171.84
L15.69 171.94
L15.85 171.96
L15.85 171.80
C15.85 171.37 15.93 171.04 16.09 170.82
C16.23 170.61 16.41 170.51 16.62 170.51
C16.62 170.51 16.62 170.51 16.63 170.51
C16.63 170.51 16.63 170.51 16.63 170.51
C16.83 170.51 17.00 170.61 17.14 170.80
C17.29 171.00 17.37 171.27 17.37 171.60
C17.37 171.89 17.29 172.21 17.13 172.56
C16.97 172.91 16.62 173.42 16.10 174.07
C15.63 174.66 15.31 175.17 15.13 175.60
C14.95 176.04 14.86 176.44 14.87 176.80
L14.87 176.94
L18.24 176.94
L18.24 176.80
L18.24 175.96
L18.24 175.81
L16.03 175.81
C16.07 175.73 16.12 175.64 16.17 175.55
C16.27 175.40 16.49 175.11 16.83 174.67
C17.37 173.97 17.74 173.41 17.94 172.98
C18.14 172.55 18.24 172.09 18.24 171.62
C18.24 171.08 18.11 170.60 17.85 170.17
C17.58 169.73 17.17 169.50 16.65 169.50
Z
M20.39 169.50
L20.36 169.60
C20.27 169.90 20.10 170.20 19.87 170.52
C19.64 170.83 19.37 171.10 19.07 171.32
L19.01 171.36
L19.01 171.43
L19.01 172.28
L19.01 172.52
L19.01 172.52
L19.22 172.40
C19.41 172.29 19.63 172.13 19.86 171.92
C19.97 171.82 20.06 171.73 20.15 171.63
L20.15 171.63
L20.15 176.80
L20.15 176.94
L21.01 176.94
L21.01 176.80
L21.01 169.64
L21.01 169.50
Z
" fill="white" fill-rule="nonzero" />
<path d="
M16.65 193.25
C16.16 193.25 15.77 193.44 15.47 193.82
C15.19 194.19 15.02 194.73 14.98 195.44
L14.97 195.57
L15.10 195.59
L15.69 195.68
L15.85 195.71
L15.85 195.54
C15.85 195.11 15.93 194.79 16.09 194.57
C16.23 194.36 16.41 194.26 16.62 194.26
C16.62 194.26 16.62 194.26 16.63 194.26
C16.63 194.26 16.63 194.26 16.63 194.26
C16.83 194.26 17.00 194.35 17.14 194.54
C17.29 194.75 17.37 195.01 17.37 195.35
C17.37 195.64 17.29 195.96 17.13 196.30
C16.97 196.66 16.62 197.16 16.10 197.82
C15.63 198.41 15.31 198.91 15.13 199.35
C14.95 199.79 14.86 200.19 14.87 200.55
L14.87 200.69
L18.24 200.69
L18.24 200.54
L18.24 199.70
L18.24 199.56
L16.03 199.56
C16.07 199.48 16.12 199.39 16.17 199.30
C16.27 199.15 16.49 198.85 16.83 198.42
C17.37 197.72 17.74 197.15 17.94 196.73
C18.14 196.29 18.24 195.84 18.24 195.36
C18.24 194.83 18.11 194.35 17.85 193.92
C17.58 193.48 17.17 193.25 16.65 193.25
Z
M20.18 193.25
C19.78 193.25 19.43 193.42 19.15 193.77
C18.88 194.10 18.71 194.59 18.63 195.22
L18.62 195.34
L18.73 195.38
L19.31 195.53
L19.47 195.57
L19.48 195.41
C19.52 195.00 19.61 194.70 19.75 194.51
C19.87 194.34 20.02 194.25 20.19 194.25
C20.19 194.25 20.19 194.25 20.19 194.25
C20.19 194.25 20.19 194.25 20.19 194.25
C20.36 194.25 20.50 194.33 20.62 194.50
C20.75 194.68 20.81 194.92 20.81 195.22
C20.81 195.55 20.73 195.81 20.58 196.00
C20.43 196.18 20.24 196.27 20.01 196.27
L20.01 196.27
L19.93 196.26
L19.78 196.25
L19.77 196.39
L19.70 197.16
L19.68 197.39
L19.90 197.30
C20.04 197.25 20.16 197.22 20.25 197.22
C20.25 197.22 20.25 197.22 20.25 197.22
C20.25 197.22 20.25 197.22 20.25 197.22
C20.46 197.22 20.63 197.32 20.78 197.54
C20.94 197.76 21.02 198.07 21.02 198.45
C21.02 198.87 20.93 199.20 20.76 199.45
C20.60 199.69 20.41 199.80 20.20 199.80
C20.20 199.80 20.19 199.80 20.19 199.80
C20.19 199.80 20.19 199.80 20.19 199.80
C20.00 199.80 19.84 199.71 19.72 199.52
C19.58 199.30 19.49 198.97 19.43 198.53
L19.41 198.38
L19.26 198.41
L18.68 198.52
L18.56 198.55
L18.57 198.67
C18.61 199.31 18.78 199.83 19.07 200.21
C19.38 200.61 19.76 200.81 20.20 200.81
C20.68 200.81 21.09 200.58 21.42 200.13
C21.75 199.69 21.91 199.13 21.91 198.44
C21.91 198.12 21.87 197.83 21.79 197.56
C21.71 197.30 21.61 197.08 21.47 196.92
C21.38 196.81 21.28 196.72 21.16 196.65
L21.16 196.65
C21.30 196.52 21.41 196.35 21.50 196.16
C21.62 195.89 21.68 195.58 21.68 195.24
C21.68 194.68 21.54 194.21 21.26 193.83
C20.97 193.45 20.61 193.25 20.18 193.25
Z
" fill="white" fill-rule="nonzero" />
<path d="
M28.67 181.41
L28.64 181.51
C28.54 181.80 28.38 182.11 28.15 182.42
C27.91 182.74 27.65 183.00 27.34 183.22
L27.28 183.26
L27.28 183.34
L27.28 184.18
L27.28 184.42
L27.28 184.42
L27.49 184.31
C27.69 184.20 27.90 184.04 28.13 183.83
C28.24 183.73 28.34 183.63 28.43 183.53
L28.43 183.53
L28.43 188.70
L28.43 188.84
L29.29 188.84
L29.29 188.70
L29.29 181.55
L29.29 181.41
Z
M30.51 181.53
L30.51 181.67
L30.51 182.51
L30.51 182.65
L32.70 182.65
C32.45 183.12 32.21 183.67 31.99 184.30
C31.74 185.03 31.54 185.79 31.39 186.59
C31.25 187.39 31.17 188.10 31.16 188.70
L31.16 188.84
L31.90 188.84
L32.03 188.84
L32.04 188.71
C32.09 187.57 32.29 186.41 32.62 185.25
C32.96 184.09 33.35 183.15 33.80 182.43
L33.82 182.39
L33.82 182.35
L33.82 181.67
L33.82 181.53
Z
" fill="white" fill-rule="nonzero" />
<path d="
M32.15 206.17
C32.15 206.17 32.15 206.17 32.15 206.17
C32.15 206.17 32.16 206.17 32.16 206.17
C32.34 206.17 32.51 206.29 32.66 206.54
C32.83 206.80 32.91 207.18 32.91 207.66
C32.91 208.15 32.83 208.52 32.67 208.77
C32.52 209.01 32.35 209.12 32.15 209.12
C32.14 209.12 32.14 209.12 32.14 209.12
C32.14 209.12 32.14 209.12 32.14 209.12
C31.93 209.12 31.75 209.01 31.60 208.77
C31.43 208.52 31.35 208.17 31.35 207.73
C31.35 207.24 31.44 206.85 31.62 206.57
C31.78 206.30 31.96 206.17 32.15 206.17
Z
M28.67 205.16
L28.64 205.26
C28.54 205.55 28.38 205.86 28.15 206.17
C27.91 206.49 27.65 206.75 27.34 206.97
L27.28 207.02
L27.28 207.09
L27.28 207.93
L27.28 208.17
L27.49 208.06
C27.69 207.95 27.90 207.79 28.13 207.58
C28.24 207.48 28.34 207.38 28.43 207.28
L28.43 207.28
L28.43 212.45
L28.43 212.59
L29.29 212.59
L29.29 212.45
L29.29 205.30
L29.29 205.16
Z
M32.09 205.16
C31.63 205.16 31.24 205.40 30.93 205.87
C30.62 206.32 30.47 206.93 30.47 207.71
C30.47 208.46 30.62 209.05 30.91 209.49
C31.22 209.95 31.58 210.18 32.01 210.18
C32.26 210.18 32.49 210.08 32.72 209.89
C32.81 209.82 32.89 209.74 32.96 209.64
L32.96 209.64
C32.94 210.04 32.89 210.39 32.81 210.70
C32.71 211.10 32.59 211.37 32.45 211.51
C32.32 211.65 32.18 211.71 32.03 211.71
C32.03 211.71 32.03 211.71 32.03 211.71
C32.03 211.71 32.03 211.71 32.03 211.71
C31.86 211.71 31.73 211.64 31.63 211.49
C31.51 211.32 31.43 211.06 31.39 210.71
L31.38 210.57
L31.23 210.59
L30.68 210.66
L30.55 210.68
L30.56 210.82
C30.61 211.42 30.76 211.88 31.02 212.21
C31.28 212.54 31.62 212.71 32.02 212.71
C32.37 212.71 32.69 212.58 32.97 212.30
C33.24 212.03 33.45 211.62 33.60 211.05
C33.76 210.50 33.83 209.73 33.83 208.74
C33.83 207.84 33.76 207.16 33.62 206.68
C33.47 206.19 33.27 205.81 33.00 205.56
C32.72 205.29 32.42 205.16 32.09 205.16
Z
" fill="white" fill-rule="nonzero" />
<path d="
M44.06 110.92
C44.06 110.92 44.06 110.92 44.06 110.92
C44.06 110.92 44.06 110.92 44.06 110.92
C44.25 110.92 44.41 111.05 44.56 111.29
C44.73 111.56 44.82 111.94 44.82 112.42
C44.82 112.90 44.73 113.27 44.57 113.53
C44.43 113.76 44.25 113.88 44.05 113.88
C44.05 113.88 44.05 113.88 44.05 113.88
C44.05 113.88 44.05 113.88 44.04 113.88
C43.84 113.88 43.66 113.76 43.50 113.53
C43.34 113.27 43.25 112.93 43.25 112.49
C43.25 112.00 43.34 111.61 43.52 111.32
C43.68 111.05 43.86 110.92 44.06 110.92
Z
M40.46 109.91
C39.97 109.92 39.58 110.11 39.29 110.49
C39.00 110.85 38.83 111.40 38.79 112.11
L38.78 112.24
L38.91 112.26
L39.50 112.35
L39.67 112.37
L39.67 112.21
C39.66 111.78 39.74 111.45 39.90 111.23
C40.04 111.02 40.22 110.92 40.43 110.92
C40.43 110.92 40.44 110.92 40.44 110.92
C40.44 110.92 40.44 110.92 40.44 110.92
C40.64 110.92 40.81 111.02 40.95 111.21
C41.10 111.41 41.18 111.68 41.18 112.01
C41.18 112.30 41.10 112.62 40.94 112.97
C40.78 113.32 40.44 113.83 39.91 114.49
C39.44 115.07 39.12 115.58 38.94 116.01
C38.76 116.45 38.67 116.85 38.68 117.21
L38.69 117.35
L42.06 117.35
L42.06 117.21
L42.06 116.37
L42.06 116.23
L39.84 116.23
C39.88 116.14 39.93 116.05 39.98 115.97
C40.08 115.81 40.30 115.52 40.64 115.08
C41.18 114.38 41.55 113.82 41.75 113.39
C41.95 112.96 42.05 112.50 42.05 112.03
C42.05 111.49 41.92 111.01 41.66 110.58
C41.39 110.14 40.99 109.92 40.46 109.91
Z
M43.99 109.91
C43.53 109.92 43.15 110.15 42.83 110.62
C42.53 111.07 42.38 111.69 42.38 112.46
C42.38 113.21 42.52 113.81 42.82 114.25
C43.12 114.70 43.49 114.93 43.92 114.93
C44.16 114.93 44.40 114.84 44.63 114.65
C44.72 114.58 44.80 114.49 44.87 114.40
L44.87 114.40
C44.85 114.79 44.80 115.15 44.72 115.46
C44.62 115.85 44.50 116.12 44.36 116.27
C44.23 116.40 44.09 116.47 43.94 116.47
C43.94 116.47 43.94 116.47 43.93 116.47
C43.93 116.47 43.93 116.47 43.93 116.47
C43.77 116.47 43.63 116.39 43.53 116.25
C43.42 116.08 43.34 115.82 43.30 115.47
L43.28 115.32
L43.14 115.34
L42.59 115.42
L42.45 115.44
L42.46 115.57
C42.51 116.17 42.67 116.64 42.92 116.96
C43.19 117.30 43.52 117.47 43.92 117.47
C44.28 117.47 44.59 117.33 44.87 117.06
C45.14 116.79 45.36 116.37 45.51 115.81
C45.66 115.25 45.74 114.48 45.74 113.49
C45.74 112.60 45.67 111.91 45.52 111.43
C45.38 110.94 45.17 110.57 44.90 110.31
C44.62 110.05 44.32 109.91 43.99 109.91
Z
" fill="white" fill-rule="nonzero" />
<path d="
M44.05 170.30
C44.26 170.30 44.44 170.41 44.59 170.62
C44.74 170.83 44.82 171.11 44.82 171.44
C44.82 171.76 44.74 172.03 44.60 172.23
C44.45 172.44 44.27 172.54 44.06 172.54
C43.84 172.54 43.66 172.43 43.52 172.23
C43.37 172.02 43.29 171.74 43.29 171.39
C43.29 171.08 43.37 170.82 43.52 170.61
C43.67 170.41 43.84 170.30 44.05 170.30
Z
M44.04 173.25
C44.31 173.25 44.53 173.39 44.72 173.65
C44.91 173.92 45.01 174.27 45.01 174.71
C45.01 175.14 44.92 175.49 44.73 175.75
C44.55 176.01 44.32 176.14 44.06 176.14
C43.80 176.14 43.57 176.00 43.38 175.74
C43.20 175.47 43.10 175.12 43.10 174.68
C43.10 174.26 43.19 173.92 43.38 173.65
C43.56 173.38 43.78 173.25 44.04 173.25
Z
M40.68 169.58
C40.58 169.89 40.41 170.21 40.17 170.54
C39.92 170.87 39.65 171.14 39.33 171.37
L39.33 172.22
C39.52 172.11 39.72 171.96 39.94 171.76
C40.17 171.56 40.34 171.36 40.48 171.16
L40.48 176.74
L41.05 176.74
L41.05 169.58
Z
M44.05 169.58
C43.66 169.58 43.34 169.75 43.09 170.09
C42.83 170.43 42.70 170.87 42.70 171.42
C42.70 171.77 42.76 172.08 42.88 172.32
C43.00 172.56 43.17 172.74 43.40 172.87
C43.13 172.98 42.91 173.19 42.75 173.50
C42.59 173.81 42.52 174.20 42.52 174.68
C42.52 175.33 42.66 175.86 42.96 176.26
C43.25 176.66 43.62 176.86 44.06 176.86
C44.49 176.86 44.86 176.66 45.15 176.26
C45.45 175.86 45.59 175.34 45.59 174.70
C45.59 174.24 45.52 173.86 45.37 173.55
C45.22 173.24 45.00 173.01 44.72 172.87
C44.95 172.74 45.12 172.55 45.23 172.32
C45.35 172.08 45.40 171.79 45.40 171.44
C45.40 170.90 45.28 170.45 45.02 170.10
C44.76 169.76 44.44 169.58 44.05 169.58
Z
" fill="black" fill-rule="nonzero" />
<path d="
M43.98 195.31
L43.98 198.75
L40.54 198.75
L40.54 195.31
Z
M39.58 194.36
L39.58 194.83
L39.58 199.23
L39.58 199.71
L44.94 199.71
L44.94 199.23
L44.94 194.83
L44.94 194.36
Z
" fill="white" fill-rule="nonzero" />
<path d="
M55.89 195.31
L55.89 198.75
L52.44 198.75
L52.44 195.31
Z
M51.49 194.36
L51.49 194.83
L51.49 199.23
L51.49 199.71
L56.84 199.71
L56.84 199.23
L56.84 194.83
L56.84 194.36
Z
" fill="black" fill-rule="nonzero" />
<path d="
M55.93 206.02
C56.21 206.02 56.44 206.22 56.62 206.61
C56.79 207.00 56.88 207.78 56.88 208.94
C56.88 210.09 56.79 210.86 56.62 211.26
C56.44 211.65 56.22 211.85 55.96 211.85
C55.68 211.85 55.46 211.66 55.28 211.26
C55.10 210.87 55.01 210.10 55.01 208.94
C55.01 207.79 55.10 207.02 55.27 206.62
C55.45 206.22 55.67 206.02 55.93 206.02
Z
M52.36 205.30
C51.92 205.30 51.57 205.47 51.30 205.82
C51.03 206.16 50.88 206.68 50.84 207.36
L51.43 207.45
C51.43 206.99 51.51 206.64 51.69 206.39
C51.86 206.15 52.08 206.02 52.34 206.02
C52.59 206.02 52.80 206.14 52.97 206.37
C53.14 206.59 53.22 206.89 53.22 207.25
C53.22 207.57 53.14 207.91 52.98 208.27
C52.81 208.64 52.46 209.15 51.92 209.82
C51.46 210.39 51.15 210.89 50.98 211.31
C50.80 211.73 50.72 212.11 50.73 212.45
L53.82 212.45
L53.82 211.61
L51.53 211.61
C51.59 211.45 51.67 211.29 51.77 211.14
C51.87 210.98 52.09 210.68 52.43 210.24
C52.97 209.55 53.33 208.99 53.52 208.58
C53.72 208.16 53.81 207.73 53.81 207.27
C53.81 206.76 53.69 206.30 53.44 205.90
C53.20 205.50 52.84 205.30 52.36 205.30
Z
M55.95 205.30
C55.45 205.30 55.07 205.61 54.81 206.22
C54.55 206.84 54.43 207.74 54.43 208.94
C54.43 210.27 54.57 211.21 54.85 211.76
C55.13 212.30 55.50 212.57 55.95 212.57
C56.45 212.57 56.83 212.26 57.09 211.65
C57.34 211.03 57.47 210.13 57.47 208.94
C57.47 207.61 57.32 206.65 57.01 206.05
C56.75 205.55 56.40 205.30 55.95 205.30
Z
" fill="black" fill-rule="nonzero" />
<path d="
M114.90 112.58
L114.90 112.58
L114.90 112.58
C114.90 112.58 114.90 112.58 114.90 112.58
Z
M111.89 109.91
C111.41 109.92 111.02 110.11 110.72 110.49
C110.43 110.85 110.27 111.40 110.22 112.11
L110.22 112.24
L110.34 112.26
L110.93 112.35
L111.10 112.37
L111.10 112.21
C111.10 111.78 111.18 111.45 111.33 111.23
C111.47 111.02 111.65 110.92 111.87 110.92
C111.87 110.92 111.87 110.92 111.87 110.92
C111.87 110.92 111.87 110.92 111.87 110.92
C112.07 110.92 112.24 111.02 112.38 111.21
C112.54 111.41 112.61 111.68 112.61 112.01
C112.61 112.30 112.53 112.62 112.37 112.97
C112.21 113.32 111.87 113.83 111.34 114.49
C110.87 115.07 110.55 115.58 110.37 116.01
C110.19 116.45 110.11 116.85 110.12 117.21
L110.12 117.35
L113.49 117.35
L113.49 117.21
L113.49 116.37
L113.49 116.23
L111.27 116.23
C111.31 116.14 111.36 116.05 111.42 115.97
C111.51 115.81 111.73 115.52 112.07 115.08
C112.61 114.38 112.98 113.82 113.18 113.39
C113.38 112.96 113.48 112.50 113.48 112.03
C113.48 111.49 113.35 111.01 113.09 110.58
C112.82 110.14 112.42 109.92 111.89 109.91
Z
M114.38 110.04
L114.37 110.17
L113.91 113.82
L113.90 113.95
L114.03 113.98
L114.57 114.09
L114.68 114.11
L114.73 114.00
C114.80 113.81 114.91 113.66 115.04 113.55
C115.17 113.45 115.30 113.40 115.44 113.40
C115.44 113.40 115.44 113.40 115.44 113.40
C115.44 113.40 115.44 113.40 115.45 113.40
C115.68 113.40 115.88 113.52 116.04 113.76
C116.22 114.01 116.30 114.38 116.30 114.86
C116.30 115.37 116.21 115.78 116.03 116.07
C115.86 116.33 115.67 116.47 115.45 116.47
C115.45 116.47 115.45 116.47 115.45 116.47
C115.44 116.47 115.44 116.47 115.44 116.47
C115.27 116.47 115.12 116.38 114.99 116.19
C114.84 115.99 114.74 115.68 114.70 115.25
L114.68 115.11
L114.54 115.12
L113.93 115.20
L113.80 115.22
L113.81 115.35
C113.85 116.00 114.02 116.52 114.32 116.89
C114.63 117.28 115.00 117.47 115.45 117.47
C115.99 117.47 116.42 117.20 116.74 116.65
C117.04 116.14 117.19 115.51 117.19 114.79
C117.19 114.06 117.04 113.47 116.73 113.03
C116.42 112.57 116.04 112.34 115.60 112.34
C115.36 112.34 115.12 112.42 114.90 112.58
L114.90 112.58
L115.09 111.16
L116.97 111.16
L116.97 111.02
L116.97 110.18
L116.97 110.04
Z
" fill="white" fill-rule="nonzero" />
<path d="
M111.68 133.89
L111.68 134.03
L111.68 134.86
L111.68 135.00
L114.37 135.00
C114.07 135.46 113.78 136.00 113.51 136.62
C113.20 137.34 112.95 138.09 112.77 138.89
C112.59 139.68 112.50 140.38 112.49 140.97
L112.48 141.12
L113.36 141.12
L113.49 141.12
L113.50 140.98
C113.56 139.86 113.80 138.72 114.22 137.58
C114.64 136.43 115.12 135.50 115.67 134.79
L115.70 134.75
L115.70 134.70
L115.70 134.03
L115.70 133.89
Z
" fill="white" fill-rule="nonzero" />
<path d="
M112.91 148.28
L112.91 148.28
L112.91 148.28
C112.91 148.28 112.91 148.28 112.91 148.28
Z
M112.34 145.74
L112.32 145.86
L111.76 149.47
L111.74 149.61
L111.88 149.63
L112.54 149.74
L112.64 149.75
L112.69 149.66
C112.79 149.47 112.92 149.32 113.09 149.22
C113.25 149.11 113.42 149.06 113.61 149.06
C113.61 149.06 113.61 149.06 113.61 149.06
C113.61 149.06 113.61 149.06 113.61 149.06
C113.92 149.06 114.18 149.18 114.39 149.42
C114.60 149.67 114.71 150.03 114.71 150.50
C114.71 151.00 114.60 151.40 114.37 151.68
C114.16 151.95 113.91 152.09 113.62 152.09
C113.62 152.09 113.62 152.09 113.62 152.09
C113.62 152.09 113.61 152.09 113.61 152.09
C113.39 152.09 113.19 151.99 113.01 151.80
C112.83 151.61 112.71 151.30 112.66 150.88
L112.64 150.74
L112.50 150.76
L111.76 150.84
L111.62 150.85
L111.63 150.99
C111.68 151.64 111.89 152.15 112.26 152.52
C112.63 152.89 113.09 153.08 113.63 153.08
C114.27 153.08 114.79 152.81 115.18 152.29
C115.55 151.77 115.74 151.15 115.74 150.43
C115.74 149.70 115.55 149.12 115.17 148.68
C114.78 148.23 114.33 148.01 113.80 148.01
C113.49 148.01 113.19 148.10 112.91 148.28
L112.91 148.28
L113.15 146.85
L115.47 146.85
L115.47 146.70
L115.47 145.88
L115.47 145.74
Z
" fill="white" fill-rule="nonzero" />
<path d="
M113.59 157.58
C113.11 157.58 112.70 157.75 112.36 158.08
C112.02 158.41 111.80 158.89 111.71 159.52
L111.69 159.65
L111.82 159.68
L112.53 159.84
L112.68 159.87
L112.70 159.71
C112.74 159.32 112.85 159.03 113.02 158.84
C113.18 158.66 113.37 158.57 113.60 158.57
C113.60 158.57 113.60 158.57 113.60 158.57
C113.60 158.57 113.60 158.57 113.60 158.57
C113.82 158.57 114.01 158.66 114.16 158.83
C114.32 159.00 114.40 159.23 114.40 159.52
C114.40 159.84 114.31 160.10 114.12 160.28
C113.93 160.47 113.68 160.56 113.37 160.56
L113.37 160.56
L113.27 160.55
L113.13 160.54
L113.12 160.68
L113.03 161.44
L113.01 161.66
L113.22 161.59
C113.40 161.53 113.55 161.50 113.67 161.50
C113.67 161.50 113.67 161.50 113.67 161.50
C113.67 161.50 113.68 161.50 113.68 161.50
C113.95 161.50 114.18 161.61 114.37 161.83
C114.56 162.05 114.66 162.35 114.66 162.72
C114.66 163.12 114.55 163.44 114.34 163.69
C114.13 163.93 113.89 164.05 113.61 164.05
C113.61 164.05 113.61 164.05 113.61 164.05
C113.61 164.05 113.60 164.05 113.60 164.05
C113.35 164.05 113.15 163.96 112.99 163.76
C112.82 163.55 112.70 163.23 112.63 162.79
L112.61 162.65
L112.47 162.67
L111.76 162.79
L111.63 162.81
L111.64 162.94
C111.69 163.58 111.90 164.09 112.26 164.47
C112.63 164.86 113.08 165.05 113.62 165.05
C114.19 165.05 114.68 164.83 115.09 164.39
C115.49 163.95 115.70 163.39 115.70 162.71
C115.70 162.39 115.65 162.09 115.55 161.83
C115.45 161.57 115.32 161.35 115.15 161.19
C115.05 161.09 114.92 161.00 114.79 160.94
L114.79 160.94
C114.95 160.81 115.08 160.65 115.19 160.46
C115.34 160.19 115.41 159.89 115.41 159.54
C115.41 158.98 115.24 158.51 114.89 158.14
C114.53 157.77 114.10 157.58 113.59 157.58
Z
" fill="white" fill-rule="nonzero" />
<path d="
M113.71 181.59
C113.17 181.59 112.73 181.76 112.40 182.10
C112.07 182.44 111.88 182.95 111.83 183.63
L112.56 183.72
C112.56 183.26 112.66 182.92 112.87 182.67
C113.08 182.43 113.35 182.31 113.68 182.31
C113.99 182.31 114.25 182.42 114.46 182.65
C114.67 182.87 114.77 183.16 114.77 183.52
C114.77 183.83 114.67 184.17 114.47 184.53
C114.26 184.89 113.83 185.40 113.17 186.06
C112.60 186.62 112.21 187.11 112.00 187.53
C111.78 187.95 111.68 188.32 111.69 188.66
L115.51 188.66
L115.51 187.83
L112.68 187.83
C112.75 187.67 112.85 187.51 112.98 187.36
C113.10 187.20 113.37 186.91 113.79 186.47
C114.46 185.79 114.91 185.24 115.14 184.83
C115.38 184.42 115.50 183.99 115.50 183.54
C115.50 183.04 115.35 182.58 115.04 182.19
C114.74 181.79 114.30 181.59 113.71 181.59
Z
" fill="black" fill-rule="nonzero" />
<path d="
M122.80 38.43
L122.80 46.09
L128.63 46.09
L128.63 44.80
L124.35 44.80
L124.35 42.71
L128.20 42.71
L128.20 41.42
L124.35 41.42
L124.35 39.72
L128.49 39.72
L128.49 38.43
Z
" fill="black" fill-rule="nonzero" />
<path d="
M125.61 149.08
C125.92 149.08 126.19 149.22 126.40 149.49
C126.62 149.77 126.73 150.16 126.73 150.65
C126.73 151.16 126.62 151.56 126.40 151.85
C126.18 152.15 125.93 152.29 125.66 152.29
C125.34 152.29 125.06 152.14 124.82 151.83
C124.58 151.52 124.46 151.11 124.46 150.60
C124.46 150.13 124.58 149.76 124.80 149.49
C125.03 149.22 125.30 149.08 125.61 149.08
Z
M125.71 145.82
C125.11 145.82 124.61 146.11 124.23 146.68
C123.84 147.26 123.64 148.23 123.64 149.59
C123.64 150.81 123.83 151.69 124.21 152.21
C124.59 152.74 125.07 153.00 125.65 153.00
C125.97 153.00 126.27 152.91 126.54 152.73
C126.81 152.55 127.03 152.26 127.20 151.88
C127.37 151.50 127.46 151.07 127.46 150.60
C127.46 149.91 127.29 149.35 126.94 148.94
C126.60 148.52 126.20 148.32 125.75 148.32
C125.47 148.32 125.21 148.40 124.96 148.55
C124.72 148.71 124.51 148.95 124.35 149.25
C124.35 148.39 124.46 147.74 124.68 147.29
C124.93 146.78 125.26 146.53 125.67 146.53
C125.94 146.53 126.16 146.64 126.35 146.86
C126.48 147.02 126.58 147.27 126.65 147.64
L127.36 147.57
C127.29 147.00 127.11 146.56 126.82 146.27
C126.52 145.97 126.15 145.82 125.71 145.82
Z
" fill="black" fill-rule="nonzero" />
<path d="
M125.95 159.18
L125.95 162.36
L124.14 162.36
L125.95 159.18
Z
M126.08 157.80
L123.45 162.36
L123.45 163.15
L125.95 163.15
L125.95 164.83
L126.66 164.83
L126.66 163.15
L127.44 163.15
L127.44 162.36
L126.66 162.36
L126.66 157.80
Z
" fill="black" fill-rule="nonzero" />
<path d="
M125.60 171.57
L127.44 174.94
L123.76 174.94
L125.60 171.57
Z
M125.60 169.59
L125.18 170.35
L122.54 175.19
L122.16 175.90
L129.04 175.90
L128.66 175.19
L126.02 170.35
L125.60 169.59
Z
" fill="black" fill-rule="nonzero" />
<path d="
M125.79 181.45
L125.75 181.54
C125.64 181.83 125.44 182.13 125.15 182.44
C124.86 182.75 124.53 183.02 124.15 183.24
L124.08 183.28
L124.08 183.36
L124.08 184.19
L124.08 184.41
L124.28 184.32
C124.52 184.22 124.78 184.06 125.06 183.86
C125.23 183.74 125.37 183.62 125.50 183.50
L125.50 183.50
L125.50 188.66
L125.50 188.80
L126.49 188.80
L126.49 188.66
L126.49 181.59
L126.49 181.45
Z
" fill="white" fill-rule="nonzero" />
<path d="
M136.65 51.63
C137.28 51.63 137.71 51.65 137.92 51.70
C138.21 51.76 138.45 51.88 138.64 52.06
C138.83 52.24 138.97 52.49 139.08 52.81
C139.18 53.12 139.24 53.58 139.24 54.17
C139.24 54.76 139.18 55.23 139.08 55.57
C138.97 55.92 138.84 56.16 138.67 56.31
C138.51 56.46 138.30 56.57 138.05 56.63
C137.86 56.68 137.54 56.71 137.11 56.71
L135.96 56.71
L135.96 51.63
Z
M134.41 50.33
L134.41 58.00
L137.32 58.00
C137.89 58.00 138.35 57.94 138.69 57.84
C139.15 57.69 139.51 57.49 139.78 57.22
C140.14 56.88 140.41 56.43 140.60 55.87
C140.76 55.41 140.84 54.87 140.84 54.24
C140.84 53.52 140.75 52.92 140.58 52.43
C140.42 51.94 140.17 51.52 139.85 51.18
C139.53 50.85 139.15 50.61 138.70 50.48
C138.36 50.38 137.88 50.33 137.24 50.33
Z
" fill="black" fill-rule="nonzero" />
<path d="
M139.33 101.45
C139.58 101.45 139.80 101.59 139.97 101.87
C140.15 102.15 140.24 102.54 140.24 103.05
C140.24 103.56 140.15 103.97 139.97 104.26
C139.79 104.56 139.59 104.70 139.37 104.70
C139.11 104.70 138.88 104.55 138.69 104.24
C138.49 103.92 138.40 103.51 138.40 102.99
C138.40 102.52 138.49 102.15 138.68 101.87
C138.86 101.59 139.08 101.45 139.33 101.45
Z
M135.70 98.15
C135.26 98.15 134.91 98.32 134.64 98.67
C134.37 99.01 134.22 99.53 134.18 100.21
L134.77 100.30
C134.77 99.84 134.85 99.49 135.02 99.24
C135.20 99.00 135.41 98.87 135.68 98.87
C135.93 98.87 136.14 98.99 136.31 99.22
C136.48 99.45 136.56 99.74 136.56 100.10
C136.56 100.42 136.48 100.76 136.31 101.12
C136.15 101.49 135.80 102.00 135.26 102.67
C134.80 103.24 134.49 103.74 134.31 104.16
C134.14 104.58 134.06 104.96 134.07 105.30
L137.16 105.30
L137.16 104.46
L134.86 104.46
C134.93 104.30 135.01 104.14 135.11 103.99
C135.21 103.83 135.43 103.53 135.77 103.09
C136.31 102.40 136.67 101.84 136.86 101.43
C137.05 101.01 137.15 100.58 137.15 100.12
C137.15 99.61 137.03 99.15 136.78 98.75
C136.54 98.35 136.18 98.15 135.70 98.15
Z
M139.41 98.15
C138.92 98.15 138.52 98.44 138.21 99.03
C137.89 99.61 137.74 100.59 137.74 101.97
C137.74 103.21 137.89 104.10 138.20 104.63
C138.50 105.16 138.89 105.42 139.36 105.42
C139.62 105.42 139.86 105.33 140.08 105.15
C140.30 104.96 140.48 104.68 140.61 104.29
C140.75 103.90 140.82 103.47 140.82 102.99
C140.82 102.29 140.68 101.73 140.41 101.31
C140.13 100.89 139.81 100.68 139.44 100.68
C139.22 100.68 139.01 100.76 138.81 100.92
C138.61 101.08 138.44 101.32 138.31 101.63
C138.31 100.75 138.40 100.09 138.57 99.65
C138.77 99.13 139.04 98.87 139.38 98.87
C139.59 98.87 139.78 98.98 139.93 99.21
C140.04 99.37 140.12 99.63 140.17 99.99
L140.74 99.92
C140.69 99.35 140.54 98.91 140.30 98.60
C140.06 98.30 139.77 98.15 139.41 98.15
Z
" fill="black" fill-rule="nonzero" />
<path d="
M139.30 110.78
C139.50 110.78 139.68 110.88 139.83 111.09
C139.99 111.31 140.06 111.58 140.06 111.91
C140.06 112.24 139.99 112.50 139.84 112.70
C139.69 112.91 139.51 113.01 139.30 113.01
C139.09 113.01 138.91 112.91 138.76 112.70
C138.61 112.49 138.54 112.21 138.54 111.86
C138.54 111.55 138.61 111.29 138.76 111.09
C138.91 110.88 139.09 110.78 139.30 110.78
Z
M139.29 113.72
C139.55 113.72 139.78 113.86 139.97 114.13
C140.16 114.39 140.25 114.74 140.25 115.18
C140.25 115.62 140.16 115.96 139.98 116.22
C139.79 116.48 139.57 116.61 139.30 116.61
C139.04 116.61 138.82 116.48 138.63 116.21
C138.44 115.94 138.35 115.59 138.35 115.15
C138.35 114.73 138.44 114.39 138.62 114.12
C138.80 113.86 139.03 113.72 139.29 113.72
Z
M135.70 110.06
C135.26 110.06 134.91 110.23 134.64 110.57
C134.37 110.92 134.22 111.43 134.18 112.12
L134.77 112.21
C134.77 111.75 134.85 111.40 135.02 111.15
C135.20 110.90 135.41 110.78 135.68 110.78
C135.93 110.78 136.14 110.89 136.31 111.12
C136.48 111.35 136.56 111.65 136.56 112.01
C136.56 112.32 136.48 112.66 136.31 113.03
C136.15 113.39 135.80 113.91 135.26 114.57
C134.80 115.15 134.49 115.64 134.31 116.07
C134.14 116.49 134.06 116.87 134.07 117.21
L137.16 117.21
L137.16 116.37
L134.86 116.37
C134.93 116.21 135.01 116.05 135.11 115.89
C135.21 115.73 135.43 115.43 135.77 115.00
C136.31 114.30 136.67 113.75 136.86 113.33
C137.05 112.92 137.15 112.48 137.15 112.03
C137.15 111.52 137.03 111.06 136.78 110.66
C136.54 110.26 136.18 110.06 135.70 110.06
Z
M139.29 110.06
C138.91 110.06 138.58 110.23 138.33 110.57
C138.07 110.91 137.95 111.35 137.95 111.89
C137.95 112.25 138.01 112.55 138.12 112.79
C138.24 113.03 138.42 113.22 138.65 113.35
C138.37 113.46 138.15 113.67 138.00 113.97
C137.84 114.28 137.76 114.68 137.76 115.15
C137.76 115.80 137.91 116.33 138.20 116.73
C138.50 117.13 138.86 117.33 139.30 117.33
C139.74 117.33 140.10 117.13 140.40 116.73
C140.69 116.33 140.84 115.81 140.84 115.18
C140.84 114.72 140.76 114.33 140.61 114.02
C140.46 113.71 140.24 113.48 139.96 113.35
C140.19 113.21 140.36 113.03 140.48 112.79
C140.59 112.55 140.65 112.26 140.65 111.92
C140.65 111.37 140.52 110.92 140.26 110.58
C140.00 110.23 139.68 110.06 139.29 110.06
Z
" fill="black" fill-rule="nonzero" />
<path d="
M139.60 123.46
L139.60 126.67
L138.14 126.67
L139.60 123.46
Z
M135.70 122.02
C135.26 122.02 134.91 122.19 134.64 122.54
C134.37 122.88 134.22 123.40 134.18 124.08
L134.77 124.17
C134.77 123.71 134.85 123.36 135.02 123.12
C135.20 122.87 135.41 122.75 135.68 122.75
C135.93 122.75 136.14 122.86 136.31 123.09
C136.48 123.32 136.56 123.61 136.56 123.98
C136.56 124.29 136.48 124.63 136.31 124.99
C136.15 125.36 135.80 125.87 135.26 126.54
C134.80 127.11 134.49 127.61 134.31 128.03
C134.14 128.45 134.06 128.83 134.07 129.17
L137.16 129.17
L137.16 128.33
L134.86 128.33
C134.93 128.17 135.01 128.02 135.11 127.86
C135.21 127.70 135.43 127.40 135.77 126.96
C136.31 126.27 136.67 125.72 136.86 125.30
C137.05 124.88 137.15 124.45 137.15 123.99
C137.15 123.48 137.03 123.03 136.78 122.62
C136.54 122.22 136.18 122.02 135.70 122.02
Z
M139.71 122.05
L137.58 126.67
L137.58 127.47
L139.60 127.47
L139.60 129.17
L140.18 129.17
L140.18 127.47
L140.81 127.47
L140.81 126.67
L140.18 126.67
L140.18 122.05
Z
" fill="black" fill-rule="nonzero" />
<path d="
M139.33 208.60
C139.58 208.60 139.80 208.74 139.97 209.02
C140.15 209.30 140.24 209.69 140.24 210.20
C140.24 210.71 140.15 211.12 139.97 211.41
C139.79 211.71 139.59 211.85 139.37 211.85
C139.11 211.85 138.88 211.70 138.69 211.39
C138.49 211.07 138.40 210.66 138.40 210.14
C138.40 209.67 138.49 209.30 138.68 209.02
C138.86 208.74 139.08 208.60 139.33 208.60
Z
M135.92 205.30
C135.82 205.61 135.65 205.93 135.41 206.26
C135.17 206.58 134.89 206.86 134.57 207.09
L134.57 207.93
C134.76 207.83 134.96 207.68 135.19 207.47
C135.41 207.27 135.59 207.07 135.72 206.88
L135.72 212.45
L136.30 212.45
L136.30 205.30
Z
M139.41 205.30
C138.92 205.30 138.52 205.59 138.21 206.18
C137.89 206.76 137.74 207.74 137.74 209.12
C137.74 210.36 137.89 211.25 138.20 211.78
C138.50 212.31 138.89 212.57 139.36 212.57
C139.62 212.57 139.86 212.48 140.08 212.30
C140.30 212.11 140.48 211.83 140.61 211.44
C140.75 211.05 140.82 210.62 140.82 210.14
C140.82 209.44 140.68 208.88 140.41 208.46
C140.13 208.04 139.81 207.83 139.44 207.83
C139.22 207.83 139.01 207.91 138.81 208.07
C138.61 208.23 138.44 208.47 138.31 208.78
C138.31 207.90 138.40 207.24 138.57 206.80
C138.77 206.28 139.04 206.02 139.38 206.02
C139.59 206.02 139.78 206.13 139.93 206.36
C140.04 206.51 140.12 206.78 140.17 207.14
L140.74 207.07
C140.69 206.50 140.54 206.06 140.30 205.75
C140.06 205.45 139.77 205.30 139.41 205.30
Z
" fill="black" fill-rule="nonzero" />
<path d="
M149.63 26.39
C148.56 26.39 147.69 26.74 147.04 27.45
C146.38 28.16 146.05 29.15 146.05 30.42
C146.05 31.63 146.38 32.58 147.03 33.27
C147.69 33.97 148.52 34.32 149.54 34.32
C150.36 34.32 151.04 34.11 151.58 33.71
C152.11 33.30 152.50 32.68 152.73 31.84
L151.22 31.37
C151.10 31.93 150.88 32.34 150.59 32.60
C150.29 32.86 149.94 32.99 149.53 32.99
C148.97 32.99 148.51 32.79 148.17 32.38
C147.82 31.97 147.64 31.28 147.64 30.31
C147.64 29.39 147.82 28.73 148.17 28.32
C148.53 27.92 148.99 27.71 149.56 27.71
C149.97 27.71 150.32 27.83 150.61 28.06
C150.89 28.29 151.08 28.60 151.17 29.00
L152.70 28.63
C152.53 28.02 152.27 27.55 151.92 27.22
C151.33 26.67 150.57 26.39 149.63 26.39
Z
" fill="black" fill-rule="nonzero" />
<path d="
M148.76 39.70
C149.49 39.70 149.93 39.71 150.08 39.73
C150.34 39.76 150.54 39.85 150.67 40.00
C150.80 40.15 150.86 40.34 150.86 40.58
C150.86 40.82 150.79 41.02 150.64 41.17
C150.48 41.33 150.28 41.42 150.01 41.45
C149.87 41.47 149.49 41.48 148.89 41.48
L147.87 41.48
L147.87 39.70
Z
M149.12 42.75
C149.83 42.75 150.28 42.79 150.50 42.86
C150.71 42.93 150.87 43.05 150.98 43.21
C151.09 43.37 151.15 43.57 151.15 43.80
C151.15 44.07 151.07 44.29 150.93 44.45
C150.78 44.61 150.60 44.71 150.37 44.75
C150.22 44.79 149.86 44.80 149.31 44.80
L147.87 44.80
L147.87 42.75
Z
M146.32 38.43
L146.32 46.09
L148.93 46.09
C149.92 46.09 150.54 46.07 150.80 46.04
C151.21 46.00 151.56 45.87 151.84 45.68
C152.12 45.48 152.34 45.22 152.50 44.89
C152.67 44.56 152.75 44.22 152.75 43.87
C152.75 43.43 152.62 43.04 152.37 42.71
C152.12 42.39 151.76 42.15 151.29 42.02
C151.62 41.87 151.89 41.64 152.08 41.34
C152.27 41.04 152.37 40.72 152.37 40.36
C152.37 40.02 152.29 39.73 152.13 39.46
C151.98 39.19 151.78 38.98 151.55 38.82
C151.31 38.66 151.04 38.55 150.75 38.50
C150.45 38.45 150.00 38.43 149.39 38.43
Z
" fill="black" fill-rule="nonzero" />
<path d="
M147.61 109.98
C147.12 109.98 146.73 110.17 146.43 110.55
C146.15 110.92 145.98 111.46 145.94 112.17
L145.93 112.30
L146.06 112.32
L146.65 112.41
L146.81 112.44
L146.81 112.27
C146.81 111.84 146.89 111.51 147.05 111.29
C147.19 111.09 147.37 110.98 147.58 110.98
C147.58 110.98 147.59 110.98 147.59 110.98
C147.59 110.98 147.59 110.98 147.59 110.98
C147.79 110.98 147.96 111.08 148.10 111.27
C148.25 111.47 148.33 111.74 148.33 112.07
C148.33 112.36 148.25 112.68 148.09 113.03
C147.93 113.38 147.59 113.89 147.06 114.55
C146.59 115.13 146.27 115.64 146.09 116.07
C145.91 116.51 145.82 116.91 145.83 117.27
L145.83 117.41
L149.21 117.41
L149.21 117.27
L149.21 116.43
L149.21 116.29
L146.99 116.29
C147.03 116.20 147.08 116.11 147.13 116.03
C147.23 115.87 147.45 115.58 147.79 115.15
C148.33 114.44 148.70 113.88 148.90 113.45
C149.10 113.02 149.20 112.56 149.20 112.09
C149.20 111.55 149.07 111.07 148.81 110.65
C148.54 110.20 148.13 109.98 147.61 109.98
Z
M149.57 110.10
L149.57 110.24
L149.57 111.08
L149.57 111.22
L151.75 111.22
C151.50 111.69 151.27 112.24 151.05 112.87
C150.79 113.59 150.59 114.36 150.45 115.16
C150.30 115.96 150.23 116.66 150.22 117.27
L150.22 117.41
L150.95 117.41
L151.09 117.41
L151.09 117.27
C151.15 116.13 151.34 114.98 151.68 113.82
C152.02 112.66 152.41 111.71 152.85 110.99
L152.87 110.96
L152.87 110.92
L152.87 110.24
L152.87 110.10
Z
" fill="white" fill-rule="nonzero" />
<path d="
M151.51 182.98
L151.51 186.19
L150.05 186.19
L151.51 182.98
Z
M147.83 181.55
C147.73 181.86 147.56 182.18 147.32 182.51
C147.07 182.83 146.79 183.11 146.48 183.34
L146.48 184.18
C146.67 184.08 146.87 183.93 147.09 183.72
C147.32 183.52 147.49 183.32 147.63 183.13
L147.63 188.70
L148.20 188.70
L148.20 181.55
Z
M151.62 181.58
L149.48 186.19
L149.48 187.00
L151.51 187.00
L151.51 188.70
L152.08 188.70
L152.08 187.00
L152.72 187.00
L152.72 186.19
L152.08 186.19
L152.08 181.58
Z
" fill="black" fill-rule="nonzero" />
<path d="
M147.83 193.46
C147.73 193.77 147.56 194.09 147.32 194.41
C147.07 194.74 146.79 195.02 146.48 195.24
L146.48 196.09
C146.67 195.99 146.87 195.83 147.09 195.63
C147.32 195.43 147.49 195.23 147.63 195.03
L147.63 200.61
L148.20 200.61
L148.20 193.46
Z
M151.24 193.46
C150.80 193.46 150.44 193.63 150.18 193.97
C149.91 194.32 149.75 194.83 149.71 195.52
L150.30 195.61
C150.30 195.15 150.39 194.79 150.56 194.55
C150.73 194.30 150.95 194.18 151.22 194.18
C151.47 194.18 151.67 194.29 151.84 194.52
C152.01 194.75 152.10 195.05 152.10 195.41
C152.10 195.72 152.02 196.06 151.85 196.43
C151.68 196.79 151.33 197.31 150.80 197.97
C150.34 198.55 150.02 199.04 149.85 199.47
C149.68 199.89 149.60 200.27 149.60 200.61
L152.69 200.61
L152.69 199.77
L150.40 199.77
C150.46 199.61 150.54 199.45 150.64 199.29
C150.74 199.13 150.96 198.83 151.31 198.40
C151.84 197.70 152.21 197.15 152.40 196.73
C152.59 196.32 152.69 195.88 152.69 195.43
C152.69 194.92 152.56 194.46 152.32 194.06
C152.07 193.66 151.71 193.46 151.24 193.46
Z
" fill="black" fill-rule="nonzero" />
<path d="
M150.62 207.82
L150.62 207.82
L150.62 207.82
C150.62 207.82 150.62 207.82 150.62 207.82
Z
M147.72 205.16
L147.69 205.26
C147.60 205.55 147.44 205.86 147.20 206.17
C146.97 206.49 146.70 206.75 146.40 206.97
L146.34 207.02
L146.34 207.09
L146.34 207.93
L146.34 208.17
L146.55 208.06
C146.74 207.95 146.96 207.79 147.19 207.58
C147.30 207.48 147.40 207.38 147.48 207.29
L147.48 207.29
L147.48 212.45
L147.48 212.59
L148.34 212.59
L148.34 212.45
L148.34 205.30
L148.34 205.16
Z
M150.10 205.28
L150.08 205.41
L149.63 209.07
L149.61 209.20
L149.74 209.22
L150.28 209.33
L150.40 209.35
L150.44 209.25
C150.52 209.05 150.63 208.90 150.76 208.79
C150.88 208.69 151.02 208.64 151.16 208.64
C151.16 208.64 151.16 208.64 151.16 208.64
C151.16 208.64 151.16 208.64 151.16 208.64
C151.40 208.64 151.60 208.76 151.76 209.00
C151.93 209.26 152.02 209.63 152.02 210.11
C152.02 210.62 151.93 211.02 151.75 211.31
C151.58 211.58 151.38 211.71 151.17 211.71
C151.16 211.71 151.16 211.71 151.16 211.71
C151.16 211.71 151.16 211.71 151.16 211.71
C150.99 211.71 150.84 211.62 150.70 211.44
C150.55 211.24 150.46 210.92 150.41 210.49
L150.40 210.35
L150.25 210.37
L149.65 210.45
L149.52 210.46
L149.53 210.60
C149.57 211.25 149.74 211.76 150.03 212.13
C150.34 212.52 150.72 212.71 151.17 212.71
C151.71 212.71 152.14 212.44 152.46 211.90
C152.76 211.38 152.91 210.76 152.91 210.04
C152.91 209.30 152.76 208.71 152.45 208.27
C152.13 207.82 151.75 207.59 151.31 207.59
C151.07 207.59 150.84 207.67 150.62 207.82
L150.62 207.82
L150.81 206.40
L152.69 206.40
L152.69 206.26
L152.69 205.43
L152.69 205.28
Z
" fill="white" fill-rule="nonzero" />
<path d="
M161.29 182.24
C161.54 182.24 161.76 182.35 161.95 182.56
C162.14 182.77 162.23 183.04 162.23 183.37
C162.23 183.69 162.14 183.95 161.96 184.15
C161.78 184.35 161.55 184.45 161.30 184.45
C161.03 184.45 160.81 184.35 160.62 184.14
C160.44 183.94 160.35 183.66 160.35 183.32
C160.35 183.01 160.44 182.76 160.63 182.55
C160.81 182.35 161.03 182.24 161.29 182.24
Z
M161.28 185.16
C161.60 185.16 161.88 185.29 162.12 185.55
C162.35 185.82 162.47 186.16 162.47 186.60
C162.47 187.03 162.35 187.37 162.13 187.62
C161.90 187.88 161.62 188.01 161.30 188.01
C160.97 188.01 160.69 187.88 160.46 187.61
C160.23 187.35 160.12 187.00 160.12 186.57
C160.12 186.15 160.23 185.81 160.45 185.55
C160.68 185.29 160.95 185.16 161.28 185.16
Z
M161.28 181.53
C160.80 181.53 160.41 181.70 160.09 182.04
C159.78 182.37 159.62 182.81 159.62 183.34
C159.62 183.70 159.69 183.99 159.84 184.23
C159.98 184.47 160.20 184.65 160.48 184.78
C160.14 184.89 159.87 185.10 159.68 185.40
C159.49 185.71 159.39 186.10 159.39 186.57
C159.39 187.21 159.57 187.73 159.94 188.13
C160.30 188.52 160.75 188.72 161.30 188.72
C161.83 188.72 162.28 188.52 162.65 188.13
C163.01 187.73 163.19 187.22 163.19 186.59
C163.19 186.14 163.10 185.76 162.91 185.45
C162.72 185.14 162.46 184.92 162.11 184.78
C162.39 184.65 162.60 184.47 162.75 184.23
C162.89 184.00 162.96 183.71 162.96 183.37
C162.96 182.83 162.80 182.39 162.48 182.05
C162.16 181.70 161.76 181.53 161.28 181.53
Z
" fill="black" fill-rule="nonzero" />
<path d="
M161.29 194.30
C161.29 194.30 161.29 194.30 161.30 194.30
C161.30 194.30 161.30 194.30 161.30 194.30
C161.54 194.30 161.76 194.42 161.96 194.67
C162.16 194.94 162.26 195.30 162.26 195.77
C162.26 196.24 162.16 196.61 161.97 196.85
C161.78 197.09 161.55 197.21 161.28 197.21
C161.28 197.21 161.28 197.21 161.28 197.21
C161.28 197.21 161.28 197.21 161.28 197.21
C161.01 197.21 160.77 197.09 160.57 196.85
C160.37 196.61 160.27 196.27 160.27 195.84
C160.27 195.36 160.38 194.98 160.59 194.70
C160.80 194.43 161.04 194.30 161.29 194.30
Z
M161.21 193.30
C160.66 193.30 160.20 193.53 159.82 193.98
C159.44 194.43 159.25 195.04 159.25 195.81
C159.25 196.56 159.43 197.15 159.80 197.59
C160.17 198.04 160.61 198.26 161.12 198.26
C161.41 198.26 161.69 198.17 161.96 197.99
C162.10 197.90 162.22 197.79 162.33 197.66
L162.33 197.66
C162.31 198.08 162.25 198.44 162.14 198.77
C162.02 199.15 161.87 199.42 161.70 199.56
C161.53 199.70 161.35 199.77 161.14 199.77
C161.14 199.77 161.14 199.77 161.14 199.77
C161.14 199.77 161.14 199.77 161.14 199.77
C160.92 199.77 160.74 199.70 160.61 199.54
C160.47 199.38 160.37 199.12 160.32 198.78
L160.30 198.64
L160.17 198.66
L159.48 198.74
L159.35 198.75
L159.36 198.89
C159.42 199.49 159.61 199.95 159.93 200.27
C160.25 200.60 160.65 200.77 161.13 200.77
C161.55 200.77 161.93 200.63 162.26 200.37
C162.60 200.10 162.86 199.69 163.05 199.13
C163.24 198.58 163.33 197.81 163.33 196.83
C163.33 195.95 163.25 195.27 163.07 194.79
C162.89 194.30 162.64 193.93 162.30 193.68
C161.97 193.43 161.60 193.30 161.21 193.30
Z
" fill="white" fill-rule="nonzero" />
<path d="
M170.74 86.05
L170.74 93.71
L172.29 93.71
L172.29 90.46
L175.49 90.46
L175.49 89.16
L172.29 89.16
L172.29 87.35
L175.99 87.35
L175.99 86.05
Z
" fill="black" fill-rule="nonzero" />
<path d="
M171.53 181.41
L171.50 181.51
C171.41 181.80 171.25 182.11 171.01 182.42
C170.78 182.74 170.51 183.00 170.21 183.22
L170.15 183.26
L170.15 183.34
L170.15 184.18
L170.15 184.42
L170.36 184.31
C170.55 184.20 170.77 184.04 171.00 183.83
C171.11 183.73 171.21 183.63 171.29 183.53
L171.29 183.53
L171.29 188.70
L171.29 188.84
L172.15 188.84
L172.15 188.70
L172.15 181.55
L172.15 181.41
Z
M175.16 181.41
L175.13 181.51
C175.04 181.80 174.88 182.11 174.64 182.42
C174.41 182.74 174.14 183.00 173.84 183.22
L173.78 183.26
L173.78 183.34
L173.78 184.18
L173.78 184.42
L173.99 184.31
C174.18 184.20 174.40 184.04 174.63 183.83
C174.74 183.73 174.84 183.63 174.92 183.53
L174.92 183.53
L174.92 188.70
L174.92 188.84
L175.78 188.84
L175.78 188.70
L175.78 181.55
L175.78 181.41
Z
" fill="white" fill-rule="nonzero" />
<path d="
M174.98 194.12
C175.26 194.12 175.49 194.31 175.67 194.71
C175.85 195.10 175.94 195.87 175.94 197.03
C175.94 198.18 175.85 198.95 175.67 199.35
C175.50 199.75 175.28 199.95 175.02 199.95
C174.74 199.95 174.51 199.75 174.33 199.36
C174.16 198.96 174.07 198.19 174.07 197.03
C174.07 195.89 174.15 195.11 174.33 194.72
C174.50 194.32 174.72 194.12 174.98 194.12
Z
M171.64 193.39
C171.54 193.71 171.37 194.02 171.13 194.35
C170.89 194.68 170.61 194.96 170.29 195.18
L170.29 196.03
C170.48 195.92 170.68 195.77 170.90 195.57
C171.13 195.37 171.30 195.17 171.44 194.97
L171.44 200.55
L172.01 200.55
L172.01 193.39
Z
M175.01 193.39
C174.51 193.39 174.13 193.70 173.87 194.32
C173.61 194.93 173.48 195.84 173.48 197.03
C173.48 198.37 173.62 199.31 173.91 199.85
C174.19 200.40 174.55 200.67 175.00 200.67
C175.51 200.67 175.89 200.36 176.14 199.74
C176.40 199.13 176.53 198.22 176.53 197.03
C176.53 195.71 176.37 194.75 176.06 194.14
C175.80 193.64 175.45 193.39 175.01 193.39
Z
" fill="black" fill-rule="nonzero" />
<path d="
M171.53 205.16
L171.50 205.26
C171.41 205.55 171.25 205.86 171.01 206.17
C170.78 206.49 170.51 206.75 170.21 206.97
L170.15 207.01
L170.15 207.09
L170.15 207.93
L170.15 208.17
L170.36 208.05
C170.55 207.95 170.77 207.79 171.00 207.58
C171.11 207.48 171.21 207.38 171.29 207.28
L171.29 207.28
L171.29 212.45
L171.29 212.59
L172.15 212.59
L172.15 212.45
L172.15 205.30
L172.15 205.16
Z
M174.95 205.16
C174.55 205.16 174.21 205.33 173.92 205.67
C173.65 206.01 173.48 206.49 173.40 207.13
L173.39 207.25
L173.51 207.28
L174.08 207.44
L174.24 207.48
L174.26 207.31
C174.29 206.91 174.38 206.61 174.52 206.42
C174.64 206.24 174.79 206.16 174.96 206.16
C174.96 206.16 174.96 206.16 174.96 206.16
C174.96 206.16 174.96 206.16 174.96 206.16
C175.13 206.16 175.27 206.24 175.39 206.40
C175.52 206.58 175.58 206.82 175.58 207.12
C175.58 207.45 175.50 207.71 175.35 207.90
C175.20 208.09 175.01 208.18 174.78 208.18
L174.78 208.18
L174.70 208.17
L174.55 208.15
L174.54 208.30
L174.47 209.07
L174.45 209.30
L174.67 209.21
C174.81 209.15 174.93 209.12 175.02 209.12
C175.02 209.12 175.02 209.12 175.02 209.12
C175.02 209.12 175.02 209.12 175.02 209.12
C175.23 209.12 175.41 209.23 175.55 209.44
C175.71 209.67 175.79 209.98 175.79 210.36
C175.79 210.77 175.70 211.10 175.53 211.36
C175.37 211.59 175.18 211.71 174.97 211.71
C174.97 211.71 174.97 211.71 174.97 211.71
C174.96 211.71 174.96 211.71 174.96 211.71
C174.77 211.71 174.62 211.61 174.49 211.42
C174.36 211.21 174.26 210.88 174.20 210.43
L174.18 210.28
L174.03 210.31
L173.46 210.43
L173.34 210.45
L173.34 210.58
C173.38 211.22 173.55 211.73 173.85 212.12
C174.15 212.52 174.53 212.72 174.97 212.72
C175.45 212.72 175.86 212.49 176.19 212.04
C176.52 211.59 176.68 211.03 176.69 210.35
C176.69 210.02 176.65 209.73 176.57 209.47
C176.49 209.20 176.38 208.99 176.24 208.82
C176.16 208.71 176.05 208.63 175.94 208.56
L175.94 208.56
C176.07 208.42 176.19 208.26 176.27 208.06
C176.40 207.79 176.46 207.49 176.46 207.14
C176.46 206.58 176.31 206.11 176.03 205.74
C175.74 205.35 175.38 205.16 174.95 205.16
Z
" fill="white" fill-rule="nonzero" />
<path d="
M185.04 87.84
L186.10 90.68
L184.01 90.68
L185.04 87.84
Z
M184.24 86.05
L181.26 93.71
L182.90 93.71
L183.53 91.97
L186.60 91.97
L187.27 93.71
L188.95 93.71
L185.88 86.05
Z
" fill="black" fill-rule="nonzero" />
</g>
<g  transform="translate(1.19,228.58)" >
<path d="
M109.47 2.94
C109.30 2.94 109.16 3.00 109.05 3.11
C108.93 3.23 108.88 3.37 108.88 3.53
C108.88 3.69 108.94 3.83 109.05 3.95
C109.17 4.07 109.31 4.12 109.47 4.12
C109.63 4.12 109.77 4.07 109.89 3.95
C110.00 3.83 110.06 3.69 110.06 3.53
C110.06 3.37 110.00 3.23 109.89 3.11
C109.77 3.00 109.63 2.94 109.47 2.94
Z
M114.44 8.04
L114.44 10.07
C113.96 10.46 113.57 10.65 113.28 10.65
C113.06 10.65 112.87 10.56 112.70 10.37
C112.54 10.19 112.45 9.96 112.45 9.68
C112.45 9.46 112.52 9.25 112.65 9.07
C112.78 8.88 113.00 8.70 113.31 8.53
C113.48 8.44 113.86 8.27 114.44 8.04
Z
M102.79 3.77
C103.72 3.77 104.48 4.08 105.08 4.71
C105.67 5.34 105.97 6.20 105.97 7.29
C105.97 8.37 105.67 9.23 105.08 9.86
C104.48 10.49 103.74 10.81 102.84 10.81
C102.50 10.81 102.09 10.75 101.60 10.64
L101.60 3.94
C102.05 3.83 102.44 3.77 102.79 3.77
Z
M99.35 3.33
L99.35 3.54
L99.65 3.54
C99.94 3.54 100.17 3.63 100.32 3.80
C100.43 3.92 100.48 4.23 100.48 4.72
L100.48 9.82
C100.48 10.26 100.44 10.55 100.35 10.68
C100.22 10.89 99.98 11.00 99.65 11.00
L99.35 11.00
L99.35 11.21
L102.87 11.21
C104.40 11.21 105.54 10.80 106.29 9.98
C106.96 9.24 107.29 8.33 107.29 7.23
C107.29 6.41 107.11 5.69 106.73 5.07
C106.36 4.44 105.86 4.00 105.25 3.73
C104.63 3.46 103.74 3.33 102.56 3.33
Z
M109.70 5.73
L108.09 6.38
L108.17 6.59
C108.33 6.53 108.46 6.50 108.57 6.50
C108.67 6.50 108.75 6.53 108.81 6.58
C108.87 6.62 108.91 6.71 108.94 6.83
C108.97 7.00 108.99 7.38 108.99 7.96
L108.99 10.01
C108.99 10.34 108.96 10.56 108.91 10.68
C108.86 10.79 108.79 10.88 108.70 10.93
C108.61 10.98 108.43 11.00 108.17 11.00
L108.17 11.21
L110.76 11.21
L110.76 11.00
C110.51 11.00 110.34 10.98 110.24 10.92
C110.15 10.87 110.07 10.79 110.03 10.68
C109.98 10.56 109.95 10.34 109.95 10.01
L109.95 5.73
Z
M113.63 5.73
C113.01 5.73 112.53 5.87 112.19 6.15
C111.85 6.43 111.68 6.73 111.68 7.07
C111.68 7.24 111.72 7.38 111.82 7.48
C111.91 7.58 112.02 7.63 112.17 7.63
C112.31 7.63 112.43 7.58 112.52 7.49
C112.62 7.39 112.66 7.25 112.66 7.07
L112.65 6.74
C112.65 6.56 112.72 6.41 112.87 6.28
C113.01 6.15 113.21 6.08 113.45 6.08
C113.77 6.08 114.02 6.18 114.19 6.38
C114.36 6.58 114.44 6.94 114.44 7.47
L114.44 7.68
C113.53 8.02 112.87 8.30 112.48 8.53
C112.08 8.76 111.81 9.01 111.65 9.28
C111.53 9.47 111.48 9.69 111.48 9.95
C111.48 10.36 111.59 10.69 111.83 10.95
C112.07 11.20 112.37 11.32 112.74 11.32
C112.98 11.32 113.20 11.27 113.41 11.18
C113.55 11.11 113.89 10.87 114.44 10.45
C114.44 10.76 114.50 10.99 114.62 11.12
C114.73 11.25 114.88 11.32 115.07 11.32
C115.46 11.32 115.88 11.03 116.31 10.45
L116.31 10.12
C116.08 10.35 115.92 10.49 115.84 10.54
C115.80 10.57 115.74 10.58 115.68 10.58
C115.62 10.58 115.57 10.57 115.53 10.53
C115.48 10.49 115.45 10.41 115.43 10.30
C115.41 10.18 115.40 9.87 115.40 9.36
L115.40 7.55
C115.40 7.04 115.37 6.70 115.30 6.53
C115.19 6.28 115.02 6.09 114.79 5.97
C114.49 5.81 114.10 5.73 113.63 5.73
Z
M124.63 3.33
L123.12 6.39
C123.85 6.42 124.42 6.52 124.85 6.69
C125.39 6.92 125.81 7.24 126.11 7.65
C126.42 8.06 126.57 8.51 126.57 8.99
C126.57 9.48 126.40 9.90 126.06 10.24
C125.72 10.58 125.32 10.75 124.86 10.75
C124.57 10.75 124.27 10.65 123.98 10.45
C123.80 10.32 123.67 10.24 123.59 10.21
C123.52 10.18 123.43 10.17 123.33 10.17
C123.19 10.17 123.08 10.21 122.99 10.29
C122.90 10.37 122.86 10.47 122.86 10.58
C122.86 10.77 122.96 10.95 123.18 11.11
C123.40 11.27 123.74 11.35 124.21 11.35
C124.68 11.35 125.14 11.25 125.58 11.03
C125.90 10.88 126.18 10.68 126.44 10.43
C126.70 10.19 126.91 9.89 127.08 9.53
C127.25 9.18 127.33 8.80 127.33 8.38
C127.33 7.67 127.07 7.05 126.56 6.52
C125.96 5.91 125.14 5.53 124.11 5.37
L124.63 4.32
L127.00 4.32
L127.46 3.33
Z
M117.82 10.08
C117.65 10.08 117.49 10.15 117.37 10.27
C117.24 10.39 117.18 10.55 117.18 10.73
C117.18 10.91 117.24 11.06 117.37 11.19
C117.49 11.31 117.65 11.38 117.82 11.38
C118.00 11.38 118.15 11.31 118.28 11.19
C118.41 11.06 118.47 10.91 118.47 10.73
C118.47 10.55 118.41 10.40 118.28 10.27
C118.16 10.15 118.01 10.08 117.82 10.08
Z
" fill="black" fill-rule="nonzero" />
</g>
</g>
</svg>
