<?xml version="1.0" encoding="utf-8" standalone="no"?>
<!DOCTYPE svg PUBLIC "-//W3C//DTD SVG 1.0//EN" "http://www.w3.org/TR/SVG/DTD/svg11.dtd" >
<svg version="1.1" baseProfile="full"  width="319.13385" height="338.46454" viewBox="0 0 229.77638 243.69449" preserveAspectRatio="xMidYMid" xmlns="http://www.w3.org/2000/svg" >

<g lengthAdjust="spacingAndGlyphs" xml:space='preserve' >
<g  transform="translate(1.19,1.19)" >
<path d="
M0.0 0.0
L0.0 227.39
L227.39 227.39
L227.39 0.0
Z
" fill="none" fill-rule="nonzero" />
<line x1="6.54" y1="6.54" x2="6.54" y2="220.84" fill="none" stroke="black" stroke-width="0.87px" stroke-linecap="square" />
<line x1="18.45" y1="6.54" x2="18.45" y2="179.17" fill="none" stroke="black" stroke-width="0.25px" stroke-linecap="butt" />
<line x1="18.45" y1="191.08" x2="18.45" y2="220.84" fill="none" stroke="black" stroke-width="0.25px" stroke-linecap="butt" />
<line x1="30.35" y1="6.54" x2="30.35" y2="131.55" fill="none" stroke="black" stroke-width="0.25px" stroke-linecap="butt" />
<line x1="30.35" y1="143.46" x2="30.35" y2="220.84" fill="none" stroke="black" stroke-width="0.25px" stroke-linecap="butt" />
<line x1="42.26" y1="6.54" x2="42.26" y2="220.84" fill="none" stroke="black" stroke-width="0.25px" stroke-linecap="butt" />
<line x1="54.17" y1="6.54" x2="54.17" y2="220.84" fill="none" stroke="black" stroke-width="0.25px" stroke-linecap="butt" />
<line x1="66.07" y1="6.54" x2="66.07" y2="220.84" fill="none" stroke="black" stroke-width="0.25px" stroke-linecap="butt" />
<line x1="77.98" y1="6.54" x2="77.98" y2="220.84" fill="none" stroke="black" stroke-width="0.25px" stroke-linecap="butt" />
<line x1="89.88" y1="6.54" x2="89.88" y2="220.84" fill="none" stroke="black" stroke-width="0.25px" stroke-linecap="butt" />
<line x1="101.79" y1="6.54" x2="101.79" y2="220.84" fill="none" stroke="black" stroke-width="0.25px" stroke-linecap="butt" />
<line x1="113.69" y1="6.54" x2="113.69" y2="220.84" fill="none" stroke="black" stroke-width="0.25px" stroke-linecap="butt" />
<line x1="125.60" y1="6.54" x2="125.60" y2="220.84" fill="none" stroke="black" stroke-width="0.25px" stroke-linecap="butt" />
<line x1="137.50" y1="6.54" x2="137.50" y2="220.84" fill="none" stroke="black" stroke-width="0.25px" stroke-linecap="butt" />
<line x1="149.41" y1="6.54" x2="149.41" y2="220.84" fill="none" stroke="black" stroke-width="0.25px" stroke-linecap="butt" />
<line x1="161.31" y1="6.54" x2="161.31" y2="220.84" fill="none" stroke="black" stroke-width="0.25px" stroke-linecap="butt" />
<line x1="173.22" y1="6.54" x2="173.22" y2="220.84" fill="none" stroke="black" stroke-width="0.25px" stroke-linecap="butt" />
<line x1="185.13" y1="6.54" x2="185.13" y2="220.84" fill="none" stroke="black" stroke-width="0.25px" stroke-linecap="butt" />
<line x1="197.03" y1="6.54" x2="197.03" y2="220.84" fill="none" stroke="black" stroke-width="0.25px" stroke-linecap="butt" />
<line x1="208.94" y1="6.54" x2="208.94" y2="220.84" fill="none" stroke="black" stroke-width="0.25px" stroke-linecap="butt" />
<line x1="220.84" y1="6.54" x2="220.84" y2="220.84" fill="none" stroke="black" stroke-width="0.87px" stroke-linecap="square" />
<line x1="6.54" y1="6.54" x2="220.84" y2="6.54" fill="none" stroke="black" stroke-width="0.87px" stroke-linecap="square" />
<line x1="6.54" y1="18.45" x2="220.84" y2="18.45" fill="none" stroke="black" stroke-width="0.25px" stroke-linecap="butt" />
<line x1="6.54" y1="30.35" x2="220.84" y2="30.35" fill="none" stroke="black" stroke-width="0.25px" stroke-linecap="butt" />
<line x1="6.54" y1="42.26" x2="220.84" y2="42.26" fill="none" stroke="black" stroke-width="0.25px" stroke-linecap="butt" />
<line x1="6.54" y1="54.17" x2="220.84" y2="54.17" fill="none" stroke="black" stroke-width="0.25px" stroke-linecap="butt" />
<line x1="6.54" y1="66.07" x2="220.84" y2="66.07" fill="none" stroke="black" stroke-width="0.25px" stroke-linecap="butt" />
<line x1="6.54" y1="77.98" x2="220.84" y2="77.98" fill="none" stroke="black" stroke-width="0.25px" stroke-linecap="butt" />
<line x1="6.54" y1="89.88" x2="220.84" y2="89.88" fill="none" stroke="black" stroke-width="0.25px" stroke-linecap="butt" />
<line x1="6.54" y1="101.79" x2="220.84" y2="101.79" fill="none" stroke="black" stroke-width="0.25px" stroke-linecap="butt" />
<line x1="6.54" y1="113.69" x2="220.84" y2="113.69" fill="none" stroke="black" stroke-width="0.25px" stroke-linecap="butt" />
<line x1="6.54" y1="125.60" x2="220.84" y2="125.60" fill="none" stroke="black" stroke-width="0.25px" stroke-linecap="butt" />
<line x1="6.54" y1="137.50" x2="24.40" y2="137.50" fill="none" stroke="black" stroke-width="0.25px" stroke-linecap="butt" />
<line x1="36.31" y1="137.50" x2="220.84" y2="137.50" fill="none" stroke="black" stroke-width="0.25px" stroke-linecap="butt" />
<line x1="6.54" y1="149.41" x2="220.84" y2="149.41" fill="none" stroke="black" stroke-width="0.25px" stroke-linecap="butt" />
<line x1="6.54" y1="161.31" x2="220.84" y2="161.31" fill="none" stroke="black" stroke-width="0.25px" stroke-linecap="butt" />
<line x1="6.54" y1="173.22" x2="220.84" y2="173.22" fill="none" stroke="black" stroke-width="0.25px" stroke-linecap="butt" />
<line x1="6.54" y1="185.13" x2="12.50" y2="185.13" fill="none" stroke="black" stroke-width="0.25px" stroke-linecap="butt" />
<line x1="24.40" y1="185.13" x2="220.84" y2="185.13" fill="none" stroke="black" stroke-width="0.25px" stroke-linecap="butt" />
<line x1="6.54" y1="197.03" x2="220.84" y2="197.03" fill="none" stroke="black" stroke-width="0.25px" stroke-linecap="butt" />
<line x1="6.54" y1="208.94" x2="220.84" y2="208.94" fill="none" stroke="black" stroke-width="0.25px" stroke-linecap="butt" />
<line x1="6.54" y1="220.84" x2="220.84" y2="220.84" fill="none" stroke="black" stroke-width="0.87px" stroke-linecap="square" />
<circle cx="18.45" cy="42.26" r="5.98" fill="black"/>
<circle cx="30.35" cy="30.35" r="5.98" fill="black"/>
<circle cx="30.35" cy="66.07" r="5.98" fill="black"/>
<circle cx="30.35" cy="161.31" r="5.85" fill="white"/>
<circle cx="30.35" cy="161.31" r="5.85" fill="none" stroke="black" stroke-width="0.25px"/>
<circle cx="42.26" cy="42.26" r="5.85" fill="white"/>
<circle cx="42.26" cy="42.26" r="5.85" fill="none" stroke="black" stroke-width="0.25px"/>
<circle cx="42.26" cy="113.69" r="1.27" fill="black"/>
<circle cx="42.26" cy="185.13" r="5.85" fill="white"/>
<circle cx="42.26" cy="185.13" r="5.85" fill="none" stroke="black" stroke-width="0.25px"/>
<circle cx="54.17" cy="197.03" r="5.85" fill="white"/>
<circle cx="54.17" cy="197.03" r="5.85" fill="none" stroke="black" stroke-width="0.25px"/>
<circle cx="66.07" cy="30.35" r="5.85" fill="white"/>
<circle cx="66.07" cy="30.35" r="5.85" fill="none" stroke="black" stroke-width="0.25px"/>
<circle cx="89.88" cy="197.03" r="5.85" fill="white"/>
<circle cx="89.88" cy="197.03" r="5.85" fill="none" stroke="black" stroke-width="0.25px"/>
<circle cx="101.79" cy="42.26" r="5.85" fill="white"/>
<circle cx="101.79" cy="42.26" r="5.85" fill="none" stroke="black" stroke-width="0.25px"/>
<circle cx="113.69" cy="42.26" r="1.27" fill="black"/>
<circle cx="113.69" cy="113.69" r="1.27" fill="black"/>
<circle cx="113.69" cy="173.22" r="5.98" fill="black"/>
<circle cx="113.69" cy="185.13" r="1.27" fill="black"/>
<circle cx="113.69" cy="197.03" r="5.85" fill="white"/>
<circle cx="113.69" cy="197.03" r="5.85" fill="none" stroke="black" stroke-width="0.25px"/>
<circle cx="125.60" cy="137.50" r="5.98" fill="black"/>
<circle cx="125.60" cy="173.22" r="5.98" fill="black"/>
<circle cx="125.60" cy="185.13" r="5.98" fill="black"/>
<circle cx="125.60" cy="197.03" r="5.98" fill="black"/>
<circle cx="125.60" cy="208.94" r="5.98" fill="black"/>
<circle cx="137.50" cy="42.26" r="5.85" fill="white"/>
<circle cx="137.50" cy="42.26" r="5.85" fill="none" stroke="black" stroke-width="0.25px"/>
<circle cx="137.50" cy="66.07" r="5.98" fill="black"/>
<circle cx="137.50" cy="173.22" r="5.85" fill="white"/>
<circle cx="137.50" cy="173.22" r="5.85" fill="none" stroke="black" stroke-width="0.25px"/>
<circle cx="137.50" cy="185.13" r="5.98" fill="black"/>
<circle cx="137.50" cy="197.03" r="5.85" fill="white"/>
<circle cx="137.50" cy="197.03" r="5.85" fill="none" stroke="black" stroke-width="0.25px"/>
<circle cx="137.50" cy="208.94" r="5.85" fill="white"/>
<circle cx="137.50" cy="208.94" r="5.85" fill="none" stroke="black" stroke-width="0.25px"/>
<circle cx="149.41" cy="125.60" r="5.98" fill="black"/>
<circle cx="149.41" cy="149.41" r="5.85" fill="white"/>
<circle cx="149.41" cy="149.41" r="5.85" fill="none" stroke="black" stroke-width="0.25px"/>
<circle cx="149.41" cy="173.22" r="5.85" fill="white"/>
<circle cx="149.41" cy="173.22" r="5.85" fill="none" stroke="black" stroke-width="0.25px"/>
<circle cx="149.41" cy="185.13" r="5.85" fill="white"/>
<circle cx="149.41" cy="185.13" r="5.85" fill="none" stroke="black" stroke-width="0.25px"/>
<circle cx="161.31" cy="30.35" r="5.85" fill="white"/>
<circle cx="161.31" cy="30.35" r="5.85" fill="none" stroke="black" stroke-width="0.25px"/>
<circle cx="161.31" cy="208.94" r="5.85" fill="white"/>
<circle cx="161.31" cy="208.94" r="5.85" fill="none" stroke="black" stroke-width="0.25px"/>
<circle cx="173.22" cy="125.60" r="5.98" fill="black"/>
<circle cx="173.22" cy="161.31" r="5.98" fill="black"/>
<circle cx="173.22" cy="173.22" r="5.98" fill="black"/>
<circle cx="173.22" cy="185.13" r="5.85" fill="white"/>
<circle cx="173.22" cy="185.13" r="5.85" fill="none" stroke="black" stroke-width="0.25px"/>
<circle cx="173.22" cy="197.03" r="5.85" fill="white"/>
<circle cx="173.22" cy="197.03" r="5.85" fill="none" stroke="black" stroke-width="0.25px"/>
<circle cx="185.13" cy="18.45" r="5.85" fill="white"/>
<circle cx="185.13" cy="18.45" r="5.85" fill="none" stroke="black" stroke-width="0.25px"/>
<circle cx="185.13" cy="42.26" r="5.98" fill="black"/>
<circle cx="185.13" cy="66.07" r="5.98" fill="black"/>
<circle cx="185.13" cy="113.69" r="1.27" fill="black"/>
<circle cx="185.13" cy="173.22" r="5.85" fill="white"/>
<circle cx="185.13" cy="173.22" r="5.85" fill="none" stroke="black" stroke-width="0.25px"/>
<circle cx="185.13" cy="185.13" r="5.98" fill="black"/>
<circle cx="185.13" cy="197.03" r="5.98" fill="black"/>
<circle cx="197.03" cy="30.35" r="5.98" fill="black"/>
<circle cx="197.03" cy="125.60" r="5.98" fill="black"/>
<circle cx="197.03" cy="185.13" r="5.98" fill="black"/>
<path d="
M17.80 182.57
C18.53 182.57 18.97 182.58 19.12 182.59
C19.38 182.63 19.58 182.72 19.71 182.86
C19.84 183.01 19.90 183.20 19.90 183.44
C19.90 183.69 19.83 183.89 19.68 184.04
C19.52 184.19 19.32 184.28 19.05 184.32
C18.90 184.33 18.53 184.34 17.93 184.34
L16.91 184.34
L16.91 182.57
Z
M18.16 185.62
C18.87 185.62 19.32 185.65 19.53 185.73
C19.75 185.80 19.91 185.92 20.02 186.08
C20.13 186.24 20.19 186.43 20.19 186.66
C20.19 186.94 20.11 187.15 19.97 187.31
C19.82 187.48 19.64 187.58 19.41 187.62
C19.26 187.65 18.90 187.67 18.34 187.67
L16.91 187.67
L16.91 185.62
Z
M15.36 181.29
L15.36 188.96
L17.97 188.96
C18.96 188.95 19.58 188.93 19.84 188.91
C20.25 188.86 20.60 188.74 20.88 188.54
C21.16 188.35 21.38 188.08 21.54 187.75
C21.70 187.42 21.79 187.09 21.79 186.74
C21.79 186.29 21.66 185.91 21.41 185.58
C21.16 185.25 20.80 185.02 20.33 184.89
C20.66 184.74 20.93 184.51 21.12 184.21
C21.31 183.91 21.41 183.58 21.41 183.22
C21.41 182.89 21.33 182.59 21.17 182.33
C21.02 182.06 20.82 181.85 20.59 181.68
C20.35 181.52 20.08 181.42 19.79 181.37
C19.49 181.32 19.04 181.29 18.43 181.29
Z
" fill="black" fill-rule="nonzero" />
<path d="
M30.27 135.46
L31.33 138.30
L29.24 138.30
L30.27 135.46
Z
M29.47 133.67
L26.49 141.34
L28.13 141.34
L28.76 139.60
L31.82 139.60
L32.49 141.34
L34.18 141.34
L31.11 133.67
Z
" fill="black" fill-rule="nonzero" />
<path d="
M52.58 193.46
C52.48 193.77 52.31 194.09 52.07 194.41
C51.83 194.74 51.55 195.02 51.23 195.24
L51.23 196.09
C51.42 195.99 51.63 195.83 51.85 195.63
C52.07 195.43 52.25 195.23 52.38 195.03
L52.38 200.61
L52.96 200.61
L52.96 193.46
Z
M54.46 193.58
L54.46 194.42
L56.75 194.42
C56.46 194.92 56.19 195.53 55.94 196.25
C55.69 196.97 55.49 197.73 55.34 198.52
C55.20 199.32 55.13 200.01 55.12 200.61
L55.71 200.61
C55.76 199.45 55.96 198.29 56.30 197.12
C56.64 195.94 57.04 194.99 57.49 194.26
L57.49 193.58
Z
" fill="black" fill-rule="nonzero" />
<path d="
M127.39 134.73
C127.39 134.73 127.39 134.73 127.39 134.73
C127.39 134.73 127.39 134.73 127.39 134.73
C127.55 134.73 127.69 134.81 127.81 134.99
C127.95 135.17 128.01 135.42 128.01 135.72
C128.01 136.02 127.95 136.25 127.82 136.43
C127.70 136.60 127.56 136.68 127.40 136.68
C127.40 136.68 127.40 136.68 127.40 136.68
C127.40 136.68 127.40 136.68 127.39 136.68
C127.23 136.68 127.09 136.60 126.97 136.43
C126.84 136.25 126.77 135.99 126.77 135.67
C126.77 135.39 126.84 135.16 126.97 134.98
C127.09 134.81 127.23 134.73 127.39 134.73
Z
M127.38 137.68
C127.38 137.68 127.38 137.68 127.38 137.68
C127.38 137.68 127.38 137.68 127.39 137.68
C127.60 137.68 127.79 137.79 127.95 138.02
C128.12 138.26 128.20 138.59 128.20 138.99
C128.20 139.40 128.12 139.72 127.95 139.95
C127.80 140.17 127.62 140.28 127.40 140.28
C127.40 140.28 127.40 140.28 127.40 140.28
C127.40 140.28 127.40 140.28 127.39 140.28
C127.18 140.28 127.00 140.17 126.84 139.94
C126.67 139.70 126.58 139.37 126.58 138.96
C126.58 138.57 126.67 138.26 126.83 138.01
C126.99 137.79 127.17 137.68 127.38 137.68
Z
M123.91 133.73
L123.88 133.82
C123.79 134.12 123.62 134.43 123.39 134.74
C123.16 135.06 122.89 135.32 122.59 135.54
L122.53 135.58
L122.53 135.65
L122.53 136.50
L122.53 136.74
L122.74 136.62
C122.93 136.52 123.15 136.36 123.38 136.15
C123.49 136.05 123.58 135.95 123.67 135.85
L123.67 135.85
L123.67 141.02
L123.67 141.16
L124.53 141.16
L124.53 141.02
L124.53 133.87
L124.53 133.73
Z
M127.39 133.73
C126.95 133.73 126.59 133.92 126.31 134.29
C126.04 134.66 125.90 135.13 125.90 135.70
C125.90 136.08 125.96 136.40 126.09 136.66
C126.18 136.85 126.31 137.01 126.47 137.14
L126.47 137.14
C126.26 137.27 126.09 137.47 125.96 137.72
C125.80 138.05 125.71 138.46 125.71 138.96
C125.71 139.65 125.87 140.20 126.18 140.62
C126.50 141.06 126.91 141.28 127.40 141.28
C127.88 141.28 128.28 141.06 128.61 140.62
C128.92 140.20 129.07 139.65 129.07 138.99
C129.07 138.51 128.99 138.10 128.83 137.77
C128.70 137.51 128.53 137.30 128.32 137.15
L128.32 137.15
C128.48 137.02 128.61 136.85 128.70 136.66
C128.82 136.40 128.88 136.09 128.88 135.73
C128.88 135.15 128.75 134.67 128.47 134.30
C128.18 133.92 127.82 133.73 127.39 133.73
Z
" fill="white" fill-rule="nonzero" />
<path d="
M123.91 169.50
L123.88 169.60
C123.79 169.90 123.62 170.20 123.39 170.52
C123.16 170.83 122.89 171.10 122.59 171.32
L122.53 171.36
L122.53 171.43
L122.53 172.28
L122.53 172.52
L122.74 172.40
C122.93 172.29 123.15 172.13 123.38 171.92
C123.49 171.82 123.58 171.73 123.67 171.63
L123.67 171.63
L123.67 176.80
L123.67 176.94
L124.53 176.94
L124.53 176.80
L124.53 169.64
L124.53 169.50
Z
M127.42 169.50
C126.94 169.50 126.55 169.69 126.25 170.07
C125.97 170.44 125.80 170.98 125.76 171.70
L125.75 171.82
L125.88 171.84
L126.47 171.94
L126.63 171.96
L126.63 171.80
C126.63 171.37 126.71 171.04 126.86 170.82
C127.01 170.61 127.19 170.51 127.40 170.51
C127.40 170.51 127.40 170.51 127.41 170.51
C127.41 170.51 127.41 170.51 127.41 170.51
C127.61 170.51 127.78 170.61 127.92 170.80
C128.07 171.00 128.15 171.27 128.15 171.60
C128.15 171.89 128.07 172.21 127.91 172.56
C127.75 172.91 127.40 173.42 126.88 174.07
C126.41 174.66 126.09 175.17 125.91 175.60
C125.73 176.04 125.64 176.44 125.65 176.80
L125.65 176.94
L129.02 176.94
L129.02 176.80
L129.02 175.96
L129.02 175.81
L126.81 175.81
C126.85 175.73 126.90 175.64 126.95 175.55
C127.05 175.40 127.27 175.11 127.61 174.67
C128.15 173.97 128.52 173.41 128.72 172.98
C128.92 172.55 129.02 172.09 129.02 171.62
C129.02 171.08 128.89 170.60 128.63 170.17
C128.36 169.73 127.95 169.50 127.42 169.50
Z
" fill="white" fill-rule="nonzero" />
<path d="
M127.56 183.64
L127.56 186.05
L126.46 186.05
L127.56 183.64
Z
M123.91 181.41
L123.88 181.51
C123.79 181.80 123.62 182.11 123.39 182.42
C123.16 182.74 122.89 183.00 122.59 183.22
L122.53 183.26
L122.53 183.34
L122.53 184.18
L122.53 184.42
L122.74 184.31
C122.93 184.20 123.15 184.04 123.38 183.83
C123.49 183.73 123.58 183.63 123.67 183.53
L123.67 183.53
L123.67 188.70
L123.67 188.84
L124.53 188.84
L124.53 188.70
L124.53 181.55
L124.53 181.41
Z
M127.72 181.44
L127.68 181.52
L125.54 186.14
L125.53 186.16
L125.53 186.19
L125.53 187.00
L125.53 187.14
L127.56 187.14
L127.56 188.70
L127.56 188.84
L128.41 188.84
L128.41 188.70
L128.41 187.14
L129.05 187.14
L129.05 187.00
L129.05 186.19
L129.05 186.05
L128.41 186.05
L128.41 181.58
L128.41 181.44
Z
" fill="white" fill-rule="nonzero" />
<path d="
M127.36 194.26
C127.36 194.26 127.36 194.26 127.36 194.26
C127.36 194.26 127.36 194.26 127.36 194.26
C127.47 194.26 127.56 194.30 127.65 194.37
C127.75 194.46 127.84 194.59 127.92 194.76
C128.09 195.14 128.17 195.89 128.17 197.03
C128.17 198.16 128.09 198.91 127.92 199.29
C127.84 199.47 127.75 199.61 127.66 199.69
C127.58 199.77 127.49 199.81 127.40 199.81
C127.39 199.81 127.39 199.81 127.39 199.81
C127.39 199.81 127.39 199.81 127.39 199.81
C127.29 199.81 127.19 199.77 127.11 199.69
C127.01 199.61 126.92 199.48 126.84 199.30
C126.67 198.93 126.59 198.17 126.59 197.03
C126.59 195.91 126.67 195.15 126.84 194.77
C126.92 194.59 127.00 194.46 127.10 194.37
C127.18 194.30 127.26 194.26 127.36 194.26
Z
M123.91 193.25
L123.88 193.35
C123.79 193.65 123.62 193.95 123.39 194.27
C123.16 194.58 122.89 194.85 122.59 195.07
L122.53 195.11
L122.53 195.18
L122.53 196.03
L122.53 196.27
L122.74 196.15
C122.93 196.04 123.15 195.88 123.38 195.67
C123.49 195.57 123.58 195.48 123.67 195.38
L123.67 195.38
L123.67 200.55
L123.67 200.69
L124.53 200.69
L124.53 200.55
L124.53 193.39
L124.53 193.25
Z
M127.39 193.25
C127.10 193.25 126.85 193.34 126.63 193.52
C126.43 193.68 126.25 193.93 126.11 194.26
C125.85 194.90 125.72 195.82 125.72 197.03
C125.72 198.39 125.86 199.35 126.16 199.92
C126.31 200.21 126.49 200.43 126.69 200.58
C126.89 200.73 127.12 200.81 127.38 200.81
C127.66 200.81 127.92 200.72 128.13 200.55
C128.34 200.38 128.51 200.13 128.65 199.80
C128.92 199.16 129.05 198.24 129.05 197.03
C129.05 195.69 128.89 194.70 128.57 194.08
C128.43 193.81 128.26 193.60 128.07 193.47
C127.87 193.32 127.64 193.25 127.39 193.25
Z
" fill="white" fill-rule="nonzero" />
<path d="
M127.42 208.75
C127.63 208.75 127.80 208.86 127.95 209.10
C128.11 209.35 128.19 209.72 128.19 210.20
C128.19 210.69 128.11 211.07 127.94 211.34
C127.79 211.59 127.63 211.71 127.46 211.71
C127.46 211.71 127.46 211.71 127.46 211.71
C127.46 211.71 127.46 211.71 127.46 211.71
C127.25 211.71 127.07 211.58 126.90 211.31
C126.72 211.02 126.63 210.63 126.63 210.14
C126.63 209.70 126.72 209.35 126.89 209.10
C127.04 208.86 127.22 208.75 127.42 208.75
C127.42 208.75 127.42 208.75 127.42 208.75
C127.42 208.75 127.42 208.75 127.42 208.75
Z
M123.91 205.16
L123.88 205.26
C123.79 205.55 123.62 205.86 123.39 206.17
C123.16 206.49 122.89 206.75 122.59 206.97
L122.53 207.02
L122.53 207.09
L122.53 207.93
L122.53 208.17
L122.74 208.06
C122.93 207.95 123.15 207.79 123.38 207.58
C123.49 207.48 123.58 207.38 123.67 207.28
L123.67 207.28
L123.67 212.45
L123.67 212.59
L124.53 212.59
L124.53 212.45
L124.53 205.30
L124.53 205.16
Z
M127.51 205.16
C127.23 205.16 126.98 205.24 126.75 205.40
C126.54 205.56 126.34 205.80 126.18 206.11
C125.85 206.72 125.69 207.72 125.69 209.12
C125.69 210.38 125.85 211.29 126.17 211.85
C126.33 212.13 126.52 212.35 126.73 212.49
C126.95 212.64 127.19 212.71 127.46 212.71
C127.75 212.71 128.02 212.61 128.27 212.40
C128.50 212.20 128.70 211.90 128.84 211.49
C128.99 211.08 129.06 210.64 129.06 210.14
C129.06 209.41 128.91 208.83 128.62 208.38
C128.32 207.92 127.95 207.69 127.53 207.69
C127.28 207.69 127.04 207.78 126.81 207.96
C126.72 208.03 126.64 208.12 126.56 208.22
L126.56 208.22
C126.59 207.64 126.67 207.18 126.80 206.85
C126.89 206.61 127.00 206.43 127.12 206.32
C127.22 206.21 127.34 206.16 127.47 206.16
C127.47 206.16 127.47 206.16 127.47 206.16
C127.47 206.16 127.47 206.16 127.47 206.16
C127.64 206.16 127.78 206.25 127.91 206.44
C128.00 206.58 128.07 206.82 128.12 207.16
L128.14 207.30
L128.28 207.28
L128.85 207.21
L128.99 207.20
L128.98 207.06
C128.92 206.46 128.77 205.99 128.51 205.67
C128.24 205.33 127.91 205.16 127.51 205.16
Z
" fill="white" fill-rule="nonzero" />
<path d="
M135.70 62.35
C135.22 62.35 134.83 62.54 134.53 62.93
C134.24 63.29 134.08 63.83 134.04 64.55
L134.03 64.67
L134.15 64.69
L134.75 64.79
L134.91 64.81
L134.91 64.65
C134.91 64.22 134.99 63.89 135.14 63.67
C135.28 63.46 135.46 63.36 135.68 63.36
C135.68 63.36 135.68 63.36 135.68 63.36
C135.68 63.36 135.68 63.36 135.68 63.36
C135.88 63.36 136.05 63.46 136.19 63.65
C136.35 63.85 136.42 64.12 136.42 64.45
C136.42 64.74 136.34 65.06 136.19 65.41
C136.02 65.76 135.68 66.27 135.15 66.92
C134.68 67.51 134.36 68.02 134.18 68.45
C134.00 68.89 133.92 69.29 133.93 69.65
L133.93 69.79
L137.30 69.79
L137.30 69.65
L137.30 68.81
L137.30 68.66
L135.08 68.66
C135.12 68.58 135.17 68.49 135.23 68.41
C135.32 68.25 135.54 67.96 135.88 67.52
C136.43 66.82 136.79 66.26 136.99 65.83
C137.19 65.40 137.29 64.94 137.29 64.47
C137.29 63.93 137.16 63.45 136.90 63.02
C136.63 62.58 136.23 62.35 135.70 62.35
Z
M139.33 62.35
C138.85 62.35 138.46 62.54 138.16 62.93
C137.87 63.29 137.71 63.83 137.67 64.55
L137.66 64.67
L137.78 64.69
L138.38 64.79
L138.54 64.81
L138.54 64.65
C138.54 64.22 138.62 63.89 138.77 63.67
C138.91 63.46 139.09 63.36 139.31 63.36
C139.31 63.36 139.31 63.36 139.31 63.36
C139.31 63.36 139.31 63.36 139.31 63.36
C139.51 63.36 139.68 63.46 139.83 63.65
C139.98 63.85 140.05 64.12 140.05 64.45
C140.05 64.74 139.97 65.06 139.82 65.41
C139.65 65.76 139.31 66.27 138.78 66.92
C138.31 67.51 137.99 68.02 137.81 68.45
C137.63 68.89 137.55 69.29 137.56 69.65
L137.56 69.79
L140.93 69.79
L140.93 69.65
L140.93 68.81
L140.93 68.66
L138.71 68.66
C138.75 68.58 138.80 68.49 138.86 68.41
C138.95 68.25 139.17 67.96 139.51 67.52
C140.06 66.82 140.42 66.26 140.62 65.83
C140.82 65.40 140.92 64.94 140.92 64.47
C140.92 63.93 140.79 63.45 140.53 63.02
C140.26 62.58 139.86 62.35 139.33 62.35
Z
" fill="white" fill-rule="nonzero" />
<path d="
M135.92 169.64
C135.82 169.96 135.65 170.27 135.41 170.60
C135.17 170.93 134.89 171.21 134.57 171.43
L134.57 172.28
C134.76 172.17 134.96 172.02 135.19 171.82
C135.41 171.62 135.59 171.42 135.72 171.22
L135.72 176.80
L136.30 176.80
L136.30 169.64
Z
M139.55 169.64
C139.45 169.96 139.28 170.27 139.04 170.60
C138.80 170.93 138.52 171.21 138.20 171.43
L138.20 172.28
C138.39 172.17 138.59 172.02 138.82 171.82
C139.04 171.62 139.22 171.42 139.35 171.22
L139.35 176.80
L139.93 176.80
L139.93 169.64
Z
" fill="black" fill-rule="nonzero" />
<path d="
M135.92 193.39
C135.82 193.70 135.65 194.02 135.41 194.35
C135.17 194.68 134.89 194.95 134.57 195.18
L134.57 196.03
C134.76 195.92 134.96 195.77 135.19 195.57
C135.41 195.36 135.59 195.17 135.72 194.97
L135.72 200.54
L136.30 200.54
L136.30 193.39
Z
M139.24 193.39
C138.88 193.39 138.57 193.55 138.32 193.86
C138.06 194.17 137.90 194.63 137.83 195.24
L138.40 195.39
C138.44 194.96 138.54 194.64 138.69 194.43
C138.84 194.22 139.02 194.11 139.24 194.11
C139.46 194.11 139.64 194.21 139.79 194.42
C139.93 194.62 140.01 194.89 140.01 195.22
C140.01 195.58 139.92 195.87 139.74 196.09
C139.57 196.31 139.34 196.41 139.05 196.41
L138.97 196.40
L138.90 197.17
C139.06 197.11 139.19 197.07 139.30 197.07
C139.56 197.07 139.78 197.20 139.95 197.45
C140.13 197.71 140.22 198.04 140.22 198.45
C140.22 198.90 140.12 199.25 139.93 199.53
C139.74 199.81 139.51 199.95 139.25 199.95
C138.76 199.95 138.46 199.48 138.34 198.55
L137.77 198.66
C137.81 199.28 137.96 199.76 138.24 200.13
C138.52 200.49 138.86 200.67 139.26 200.67
C139.69 200.67 140.06 200.46 140.36 200.05
C140.67 199.63 140.83 199.09 140.83 198.44
C140.83 198.13 140.79 197.85 140.71 197.60
C140.64 197.36 140.54 197.16 140.42 197.01
C140.30 196.86 140.14 196.75 139.96 196.69
C140.16 196.54 140.32 196.35 140.43 196.10
C140.54 195.85 140.60 195.56 140.60 195.24
C140.60 194.71 140.47 194.27 140.20 193.92
C139.94 193.57 139.62 193.39 139.24 193.39
Z
" fill="black" fill-rule="nonzero" />
<path d="
M135.92 205.30
C135.82 205.61 135.65 205.93 135.41 206.26
C135.17 206.58 134.89 206.86 134.57 207.09
L134.57 207.93
C134.76 207.83 134.96 207.68 135.19 207.47
C135.41 207.27 135.59 207.07 135.72 206.88
L135.72 212.45
L136.30 212.45
L136.30 205.30
Z
M138.32 205.43
L137.87 209.08
L138.41 209.19
C138.49 208.97 138.61 208.81 138.76 208.68
C138.92 208.56 139.08 208.50 139.25 208.50
C139.54 208.50 139.78 208.64 139.97 208.92
C140.16 209.20 140.26 209.60 140.26 210.11
C140.26 210.65 140.16 211.07 139.96 211.39
C139.76 211.70 139.53 211.85 139.26 211.85
C139.04 211.85 138.85 211.74 138.68 211.52
C138.52 211.30 138.41 210.96 138.37 210.51
L137.76 210.59
C137.80 211.21 137.96 211.69 138.24 212.05
C138.52 212.40 138.86 212.57 139.26 212.57
C139.75 212.57 140.14 212.32 140.43 211.83
C140.72 211.33 140.86 210.73 140.86 210.04
C140.86 209.33 140.72 208.77 140.43 208.35
C140.14 207.94 139.80 207.73 139.41 207.73
C139.10 207.73 138.80 207.88 138.53 208.18
L138.78 206.26
L140.64 206.26
L140.64 205.43
Z
" fill="black" fill-rule="nonzero" />
<path d="
M151.17 122.83
C151.17 122.83 151.17 122.83 151.17 122.83
C151.17 122.83 151.17 122.83 151.17 122.83
C151.28 122.83 151.37 122.87 151.46 122.94
C151.56 123.02 151.65 123.16 151.73 123.33
C151.90 123.71 151.98 124.46 151.98 125.60
C151.98 126.73 151.90 127.48 151.73 127.86
C151.65 128.04 151.56 128.18 151.47 128.26
C151.39 128.34 151.30 128.37 151.21 128.37
C151.21 128.37 151.21 128.37 151.20 128.37
C151.20 128.37 151.20 128.37 151.20 128.37
C151.10 128.37 151.01 128.34 150.92 128.26
C150.82 128.18 150.73 128.04 150.65 127.87
C150.48 127.49 150.40 126.74 150.40 125.60
C150.40 124.47 150.48 123.72 150.65 123.34
C150.73 123.16 150.81 123.03 150.91 122.94
C150.99 122.86 151.08 122.83 151.17 122.83
Z
M147.61 121.82
C147.12 121.82 146.73 122.01 146.43 122.39
C146.15 122.76 145.98 123.30 145.94 124.01
L145.93 124.14
L146.06 124.16
L146.65 124.25
L146.81 124.28
L146.81 124.11
C146.81 123.68 146.89 123.36 147.05 123.14
C147.19 122.93 147.37 122.83 147.58 122.83
C147.58 122.83 147.59 122.83 147.59 122.83
C147.59 122.83 147.59 122.83 147.59 122.83
C147.79 122.83 147.96 122.92 148.10 123.11
C148.25 123.32 148.33 123.58 148.33 123.91
C148.33 124.21 148.25 124.53 148.09 124.87
C147.93 125.23 147.59 125.73 147.06 126.39
C146.59 126.98 146.27 127.48 146.09 127.92
C145.91 128.36 145.82 128.76 145.83 129.12
L145.83 129.25
L149.21 129.25
L149.21 129.11
L149.21 128.27
L149.21 128.13
L146.99 128.13
C147.03 128.04 147.08 127.96 147.13 127.87
C147.23 127.72 147.45 127.42 147.79 126.99
C148.33 126.29 148.70 125.72 148.90 125.30
C149.10 124.86 149.20 124.41 149.20 123.93
C149.20 123.40 149.07 122.91 148.81 122.49
C148.54 122.04 148.13 121.82 147.61 121.82
Z
M151.20 121.82
C150.91 121.82 150.66 121.91 150.45 122.08
C150.24 122.25 150.06 122.50 149.93 122.83
C149.66 123.46 149.53 124.39 149.53 125.60
C149.53 126.96 149.68 127.92 149.97 128.48
C150.12 128.78 150.30 129.00 150.50 129.14
C150.70 129.30 150.94 129.38 151.19 129.38
C151.48 129.38 151.73 129.29 151.94 129.11
C152.15 128.94 152.33 128.69 152.46 128.36
C152.73 127.73 152.86 126.81 152.86 125.60
C152.86 124.25 152.70 123.27 152.38 122.64
C152.24 122.38 152.07 122.17 151.88 122.03
C151.68 121.89 151.45 121.82 151.20 121.82
Z
" fill="white" fill-rule="nonzero" />
<path d="
M151.21 146.50
C151.44 146.50 151.65 146.64 151.83 146.93
C152.02 147.23 152.11 147.63 152.11 148.13
C152.11 148.65 152.02 149.04 151.84 149.32
C151.67 149.60 151.45 149.74 151.20 149.74
C150.94 149.74 150.72 149.60 150.54 149.32
C150.35 149.04 150.26 148.67 150.26 148.21
C150.26 147.69 150.36 147.27 150.55 146.96
C150.74 146.65 150.96 146.50 151.21 146.50
Z
M147.83 145.77
C147.73 146.08 147.56 146.40 147.32 146.73
C147.07 147.06 146.79 147.33 146.48 147.56
L146.48 148.41
C146.67 148.30 146.87 148.15 147.09 147.95
C147.32 147.74 147.49 147.55 147.63 147.35
L147.63 152.92
L148.20 152.92
L148.20 145.77
Z
M151.14 145.77
C150.73 145.77 150.39 145.99 150.10 146.42
C149.81 146.85 149.67 147.43 149.67 148.18
C149.67 148.90 149.81 149.47 150.08 149.89
C150.36 150.30 150.69 150.51 151.07 150.51
C151.28 150.51 151.48 150.43 151.69 150.26
C151.89 150.09 152.05 149.86 152.17 149.57
L152.17 149.75
C152.17 150.30 152.11 150.79 152.01 151.21
C151.90 151.63 151.76 151.92 151.61 152.08
C151.45 152.24 151.28 152.33 151.08 152.33
C150.65 152.33 150.40 151.95 150.31 151.20
L149.76 151.28
C149.80 151.85 149.94 152.29 150.18 152.59
C150.42 152.89 150.72 153.05 151.07 153.05
C151.39 153.05 151.67 152.92 151.92 152.67
C152.17 152.42 152.37 152.03 152.52 151.49
C152.67 150.95 152.74 150.19 152.74 149.21
C152.74 148.33 152.68 147.66 152.54 147.19
C152.40 146.72 152.21 146.37 151.95 146.13
C151.70 145.89 151.43 145.77 151.14 145.77
Z
" fill="black" fill-rule="nonzero" />
<path d="
M149.39 170.34
C149.68 170.34 149.94 170.49 150.16 170.77
C150.39 171.06 150.50 171.46 150.50 171.96
C150.50 172.47 150.39 172.86 150.17 173.13
C149.96 173.41 149.69 173.54 149.38 173.54
C149.06 173.54 148.79 173.41 148.56 173.13
C148.33 172.86 148.22 172.49 148.22 172.03
C148.22 171.52 148.34 171.11 148.58 170.80
C148.82 170.50 149.09 170.34 149.39 170.34
Z
M149.31 169.63
C148.80 169.63 148.37 169.84 148.02 170.26
C147.67 170.69 147.49 171.27 147.49 172.00
C147.49 172.72 147.66 173.28 148.00 173.69
C148.34 174.10 148.75 174.31 149.22 174.31
C149.48 174.31 149.73 174.22 149.98 174.06
C150.23 173.89 150.43 173.67 150.58 173.38
L150.58 173.55
C150.58 174.10 150.51 174.59 150.37 175.00
C150.24 175.41 150.08 175.70 149.88 175.86
C149.69 176.02 149.47 176.10 149.24 176.10
C148.71 176.10 148.39 175.73 148.28 174.99
L147.60 175.07
C147.65 175.63 147.83 176.06 148.12 176.36
C148.42 176.66 148.78 176.81 149.22 176.81
C149.61 176.81 149.96 176.69 150.27 176.44
C150.58 176.20 150.83 175.81 151.01 175.27
C151.20 174.74 151.29 173.99 151.29 173.02
C151.29 172.15 151.20 171.49 151.03 171.03
C150.86 170.57 150.62 170.22 150.31 169.98
C150.00 169.75 149.67 169.63 149.31 169.63
Z
" fill="black" fill-rule="nonzero" />
<path d="
M147.54 181.65
L147.54 182.48
L150.36 182.48
C150.00 182.98 149.67 183.59 149.36 184.30
C149.05 185.01 148.80 185.76 148.62 186.54
C148.45 187.32 148.35 188.01 148.34 188.60
L149.07 188.60
C149.14 187.46 149.38 186.31 149.80 185.15
C150.23 183.99 150.71 183.05 151.27 182.33
L151.27 181.65
Z
" fill="black" fill-rule="nonzero" />
<path d="
M159.51 205.36
C159.07 205.36 158.72 205.53 158.45 205.88
C158.18 206.22 158.03 206.74 157.99 207.42
L158.58 207.51
C158.58 207.05 158.66 206.70 158.84 206.45
C159.01 206.21 159.23 206.08 159.49 206.08
C159.74 206.08 159.95 206.20 160.12 206.43
C160.29 206.66 160.37 206.95 160.37 207.31
C160.37 207.63 160.29 207.97 160.13 208.33
C159.96 208.70 159.61 209.21 159.07 209.88
C158.61 210.45 158.30 210.95 158.13 211.37
C157.95 211.79 157.87 212.17 157.88 212.51
L160.97 212.51
L160.97 211.67
L158.68 211.67
C158.74 211.51 158.82 211.35 158.92 211.20
C159.02 211.04 159.24 210.74 159.58 210.30
C160.12 209.61 160.48 209.05 160.67 208.64
C160.87 208.22 160.96 207.79 160.96 207.33
C160.96 206.82 160.84 206.36 160.59 205.96
C160.35 205.56 159.99 205.36 159.51 205.36
Z
M163.36 205.36
C163.26 205.67 163.09 205.99 162.85 206.32
C162.61 206.65 162.33 206.92 162.01 207.15
L162.01 207.99
C162.20 207.89 162.41 207.74 162.63 207.54
C162.85 207.33 163.03 207.13 163.16 206.94
L163.16 212.51
L163.74 212.51
L163.74 205.36
Z
" fill="black" fill-rule="nonzero" />
<path d="
M173.19 158.57
C173.19 158.57 173.19 158.57 173.19 158.57
C173.19 158.57 173.19 158.57 173.19 158.57
C173.41 158.57 173.59 158.66 173.75 158.84
C173.91 159.02 174.00 159.26 174.00 159.56
C174.00 159.84 173.92 160.07 173.76 160.24
C173.61 160.41 173.42 160.50 173.20 160.50
C173.20 160.50 173.20 160.50 173.20 160.50
C173.20 160.50 173.20 160.50 173.20 160.50
C172.98 160.50 172.79 160.41 172.64 160.24
C172.48 160.06 172.40 159.82 172.40 159.51
C172.40 159.24 172.48 159.01 172.64 158.83
C172.79 158.66 172.98 158.57 173.19 158.57
Z
M173.18 161.49
C173.18 161.49 173.18 161.49 173.18 161.49
C173.18 161.49 173.18 161.49 173.18 161.49
C173.47 161.49 173.71 161.60 173.92 161.84
C174.13 162.07 174.23 162.39 174.23 162.79
C174.23 163.18 174.13 163.49 173.93 163.72
C173.73 163.94 173.49 164.06 173.20 164.06
C173.20 164.06 173.20 164.06 173.20 164.06
C173.20 164.06 173.20 164.06 173.20 164.06
C172.92 164.06 172.68 163.94 172.47 163.71
C172.27 163.47 172.16 163.15 172.16 162.76
C172.16 162.38 172.26 162.07 172.47 161.83
C172.66 161.60 172.90 161.49 173.18 161.49
Z
M173.19 157.58
C172.67 157.58 172.24 157.76 171.90 158.13
C171.56 158.49 171.38 158.96 171.38 159.53
C171.38 159.91 171.46 160.23 171.62 160.50
C171.73 160.68 171.88 160.83 172.07 160.95
L172.07 160.95
C171.82 161.08 171.62 161.27 171.47 161.52
C171.26 161.85 171.15 162.26 171.15 162.76
C171.15 163.44 171.35 163.99 171.74 164.41
C172.13 164.84 172.62 165.05 173.20 165.05
C173.78 165.05 174.27 164.84 174.66 164.41
C175.04 163.99 175.24 163.44 175.24 162.78
C175.24 162.30 175.14 161.89 174.94 161.56
C174.78 161.31 174.58 161.11 174.32 160.96
L174.32 160.96
C174.51 160.84 174.66 160.68 174.77 160.49
C174.93 160.24 175.00 159.93 175.00 159.56
C175.00 158.98 174.83 158.51 174.49 158.14
C174.14 157.77 173.71 157.58 173.19 157.58
Z
" fill="white" fill-rule="nonzero" />
<path d="
M173.23 173.03
C173.50 173.03 173.73 173.15 173.92 173.39
C174.11 173.64 174.21 174.00 174.21 174.47
C174.21 174.94 174.11 175.31 173.91 175.58
C173.72 175.83 173.51 175.96 173.28 175.96
C173.28 175.96 173.28 175.96 173.28 175.96
C173.28 175.96 173.28 175.96 173.28 175.96
C173.01 175.96 172.77 175.82 172.55 175.55
C172.33 175.27 172.22 174.89 172.22 174.41
C172.22 173.98 172.33 173.64 172.53 173.39
C172.73 173.15 172.97 173.03 173.23 173.03
C173.23 173.03 173.23 173.03 173.23 173.03
C173.23 173.03 173.23 173.03 173.23 173.03
Z
M173.34 169.49
C172.68 169.49 172.15 169.80 171.73 170.41
C171.33 171.02 171.13 172.01 171.13 173.40
C171.13 174.66 171.32 175.56 171.72 176.11
C172.12 176.67 172.64 176.95 173.27 176.95
C173.63 176.95 173.95 176.86 174.24 176.66
C174.53 176.46 174.77 176.16 174.95 175.75
C175.13 175.35 175.22 174.90 175.22 174.41
C175.22 173.68 175.04 173.10 174.68 172.66
C174.31 172.21 173.87 171.99 173.37 171.99
C173.07 171.99 172.78 172.07 172.51 172.25
C172.37 172.34 172.24 172.45 172.13 172.58
L172.13 172.58
C172.16 171.98 172.26 171.51 172.43 171.17
C172.54 170.93 172.67 170.76 172.82 170.64
C172.96 170.53 173.12 170.48 173.29 170.48
C173.29 170.48 173.29 170.48 173.29 170.48
C173.29 170.48 173.29 170.48 173.30 170.48
C173.52 170.48 173.71 170.57 173.87 170.77
C173.98 170.90 174.07 171.14 174.13 171.47
L174.16 171.60
L174.29 171.59
L174.99 171.52
L175.13 171.51
L175.12 171.36
C175.05 170.76 174.86 170.30 174.54 169.98
C174.21 169.65 173.81 169.49 173.34 169.49
Z
" fill="white" fill-rule="nonzero" />
<path d="
M171.99 181.60
L171.43 185.21
L172.09 185.32
C172.20 185.10 172.35 184.93 172.54 184.81
C172.72 184.69 172.92 184.63 173.14 184.63
C173.49 184.63 173.79 184.77 174.02 185.05
C174.26 185.33 174.38 185.72 174.38 186.22
C174.38 186.75 174.26 187.17 174.01 187.48
C173.77 187.79 173.48 187.95 173.14 187.95
C172.87 187.95 172.64 187.84 172.44 187.62
C172.23 187.40 172.10 187.06 172.04 186.62
L171.30 186.69
C171.35 187.31 171.54 187.79 171.89 188.14
C172.23 188.48 172.65 188.66 173.15 188.66
C173.75 188.66 174.23 188.41 174.59 187.92
C174.95 187.43 175.13 186.84 175.13 186.15
C175.13 185.45 174.95 184.90 174.59 184.49
C174.23 184.08 173.81 183.87 173.33 183.87
C172.95 183.87 172.58 184.02 172.24 184.31
L172.55 182.42
L174.85 182.42
L174.85 181.60
Z
" fill="black" fill-rule="nonzero" />
<path d="
M173.12 193.44
C172.67 193.44 172.30 193.59 171.98 193.90
C171.67 194.20 171.47 194.66 171.38 195.26
L172.08 195.41
C172.13 194.99 172.25 194.67 172.44 194.46
C172.63 194.25 172.86 194.15 173.13 194.15
C173.39 194.15 173.61 194.25 173.80 194.45
C173.98 194.65 174.07 194.91 174.07 195.24
C174.07 195.60 173.96 195.89 173.74 196.10
C173.53 196.31 173.24 196.42 172.89 196.42
L172.78 196.41
L172.70 197.17
C172.90 197.11 173.07 197.07 173.20 197.07
C173.52 197.07 173.79 197.20 174.00 197.45
C174.22 197.70 174.33 198.03 174.33 198.44
C174.33 198.87 174.21 199.23 173.97 199.50
C173.74 199.77 173.46 199.91 173.13 199.91
C172.54 199.91 172.16 199.45 172.02 198.53
L171.31 198.64
C171.35 199.25 171.55 199.73 171.89 200.09
C172.23 200.45 172.65 200.63 173.14 200.63
C173.67 200.63 174.13 200.42 174.51 200.01
C174.89 199.60 175.08 199.07 175.08 198.42
C175.08 198.12 175.04 197.84 174.94 197.60
C174.85 197.35 174.73 197.15 174.58 197.01
C174.43 196.86 174.24 196.75 174.01 196.69
C174.26 196.55 174.45 196.36 174.59 196.11
C174.73 195.86 174.80 195.58 174.80 195.26
C174.80 194.74 174.64 194.30 174.31 193.95
C173.98 193.61 173.59 193.44 173.12 193.44
Z
" fill="black" fill-rule="nonzero" />
<path d="
M185.41 169.69
C185.29 169.99 185.08 170.31 184.78 170.63
C184.48 170.96 184.14 171.23 183.75 171.45
L183.75 172.29
C183.98 172.19 184.23 172.04 184.51 171.84
C184.78 171.64 185.00 171.44 185.16 171.25
L185.16 176.75
L185.87 176.75
L185.87 169.69
Z
" fill="black" fill-rule="nonzero" />
<path d="
M185.33 183.53
L185.33 186.03
L183.92 186.03
L185.33 183.53
Z
M185.53 181.47
L185.49 181.54
L182.85 186.10
L182.83 186.13
L182.83 186.17
L182.83 186.96
L182.83 187.10
L185.33 187.10
L185.33 188.64
L185.33 188.79
L186.33 188.79
L186.33 188.64
L186.33 187.10
L187.11 187.10
L187.11 186.96
L187.11 186.17
L187.11 186.03
L186.33 186.03
L186.33 181.61
L186.33 181.47
Z
" fill="white" fill-rule="nonzero" />
<path d="
M197.05 181.45
C196.47 181.45 196.00 181.64 195.64 182.01
C195.28 182.37 195.08 182.91 195.02 183.62
L195.01 183.75
L195.15 183.77
L195.88 183.86
L196.04 183.88
L196.04 183.72
C196.04 183.30 196.13 182.98 196.32 182.77
C196.50 182.56 196.73 182.45 197.02 182.45
C197.02 182.45 197.02 182.45 197.02 182.45
C197.02 182.45 197.02 182.45 197.02 182.45
C197.29 182.45 197.51 182.55 197.69 182.74
C197.88 182.94 197.97 183.20 197.97 183.52
C197.97 183.81 197.87 184.12 197.68 184.46
C197.48 184.81 197.06 185.31 196.40 185.96
C195.83 186.53 195.43 187.04 195.21 187.47
C194.98 187.90 194.88 188.30 194.89 188.66
L194.89 188.80
L198.99 188.80
L198.99 188.66
L198.99 187.83
L198.99 187.69
L196.26 187.69
C196.31 187.61 196.36 187.53 196.43 187.45
C196.55 187.29 196.81 187.00 197.23 186.57
C197.90 185.88 198.36 185.32 198.60 184.90
C198.85 184.47 198.98 184.02 198.98 183.54
C198.98 183.00 198.82 182.52 198.50 182.10
C198.16 181.67 197.68 181.45 197.05 181.45
Z
" fill="white" fill-rule="nonzero" />
</g>
<g  transform="translate(1.19,228.58)" >
<path d="
M109.47 2.94
C109.30 2.94 109.16 3.00 109.05 3.11
C108.93 3.23 108.88 3.37 108.88 3.53
C108.88 3.69 108.94 3.83 109.05 3.95
C109.17 4.07 109.31 4.12 109.47 4.12
C109.63 4.12 109.77 4.07 109.89 3.95
C110.00 3.83 110.06 3.69 110.06 3.53
C110.06 3.37 110.00 3.23 109.89 3.11
C109.77 3.00 109.63 2.94 109.47 2.94
Z
M114.44 8.04
L114.44 10.07
C113.96 10.46 113.57 10.65 113.28 10.65
C113.06 10.65 112.87 10.56 112.70 10.37
C112.54 10.19 112.45 9.96 112.45 9.68
C112.45 9.46 112.52 9.25 112.65 9.07
C112.78 8.88 113.00 8.70 113.31 8.53
C113.48 8.44 113.86 8.27 114.44 8.04
Z
M102.79 3.77
C103.72 3.77 104.48 4.08 105.08 4.71
C105.67 5.34 105.97 6.20 105.97 7.29
C105.97 8.37 105.67 9.23 105.08 9.86
C104.48 10.49 103.74 10.81 102.84 10.81
C102.50 10.81 102.09 10.75 101.60 10.64
L101.60 3.94
C102.05 3.83 102.44 3.77 102.79 3.77
Z
M125.23 6.74
C125.71 6.74 126.09 6.98 126.35 7.47
C126.62 7.95 126.75 8.53 126.75 9.19
C126.75 9.78 126.62 10.23 126.35 10.55
C126.08 10.87 125.78 11.03 125.45 11.03
C125.16 11.03 124.92 10.94 124.72 10.75
C124.45 10.50 124.25 10.15 124.11 9.72
C123.97 9.28 123.90 8.88 123.90 8.50
C123.90 8.18 123.94 7.76 124.01 7.24
C124.34 7.03 124.59 6.90 124.76 6.83
C124.92 6.77 125.08 6.74 125.23 6.74
Z
M99.35 3.33
L99.35 3.54
L99.65 3.54
C99.94 3.54 100.17 3.63 100.32 3.80
C100.43 3.92 100.48 4.23 100.48 4.72
L100.48 9.82
C100.48 10.26 100.44 10.55 100.35 10.68
C100.22 10.89 99.98 11.00 99.65 11.00
L99.35 11.00
L99.35 11.21
L102.87 11.21
C104.40 11.21 105.54 10.80 106.29 9.98
C106.96 9.24 107.29 8.33 107.29 7.23
C107.29 6.41 107.11 5.69 106.73 5.07
C106.36 4.44 105.86 4.00 105.25 3.73
C104.63 3.46 103.74 3.33 102.56 3.33
Z
M109.70 5.73
L108.09 6.38
L108.17 6.59
C108.33 6.53 108.46 6.50 108.57 6.50
C108.67 6.50 108.75 6.53 108.81 6.58
C108.87 6.62 108.91 6.71 108.94 6.83
C108.97 7.00 108.99 7.38 108.99 7.96
L108.99 10.01
C108.99 10.34 108.96 10.56 108.91 10.68
C108.86 10.79 108.79 10.88 108.70 10.93
C108.61 10.98 108.43 11.00 108.17 11.00
L108.17 11.21
L110.76 11.21
L110.76 11.00
C110.51 11.00 110.34 10.98 110.24 10.92
C110.15 10.87 110.07 10.79 110.03 10.68
C109.98 10.56 109.95 10.34 109.95 10.01
L109.95 5.73
Z
M113.63 5.73
C113.01 5.73 112.53 5.87 112.19 6.15
C111.85 6.43 111.68 6.73 111.68 7.07
C111.68 7.24 111.72 7.38 111.82 7.48
C111.91 7.58 112.02 7.63 112.17 7.63
C112.31 7.63 112.43 7.58 112.52 7.49
C112.62 7.39 112.66 7.25 112.66 7.07
L112.65 6.74
C112.65 6.56 112.72 6.41 112.87 6.28
C113.01 6.15 113.21 6.08 113.45 6.08
C113.77 6.08 114.02 6.18 114.19 6.38
C114.36 6.58 114.44 6.94 114.44 7.47
L114.44 7.68
C113.53 8.02 112.87 8.30 112.48 8.53
C112.08 8.76 111.81 9.01 111.65 9.28
C111.53 9.47 111.48 9.69 111.48 9.95
C111.48 10.36 111.59 10.69 111.83 10.95
C112.07 11.20 112.37 11.32 112.74 11.32
C112.98 11.32 113.20 11.27 113.41 11.18
C113.55 11.11 113.89 10.87 114.44 10.45
C114.44 10.76 114.50 10.99 114.62 11.12
C114.73 11.25 114.88 11.32 115.07 11.32
C115.46 11.32 115.88 11.03 116.31 10.45
L116.31 10.12
C116.08 10.35 115.92 10.49 115.84 10.54
C115.80 10.57 115.74 10.58 115.68 10.58
C115.62 10.58 115.57 10.57 115.53 10.53
C115.48 10.49 115.45 10.41 115.43 10.30
C115.41 10.18 115.40 9.87 115.40 9.36
L115.40 7.55
C115.40 7.04 115.37 6.70 115.30 6.53
C115.19 6.28 115.02 6.09 114.79 5.97
C114.49 5.81 114.10 5.73 113.63 5.73
Z
M127.29 3.16
C126.87 3.16 126.43 3.25 125.95 3.42
C125.46 3.59 124.96 3.92 124.44 4.41
C123.91 4.91 123.51 5.47 123.22 6.11
C122.94 6.74 122.80 7.41 122.80 8.12
C122.80 9.22 123.17 10.12 123.90 10.82
C124.28 11.17 124.74 11.35 125.28 11.35
C126.07 11.35 126.70 11.02 127.18 10.36
C127.58 9.82 127.78 9.22 127.78 8.56
C127.78 7.88 127.59 7.32 127.19 6.89
C126.79 6.45 126.33 6.23 125.79 6.23
C125.23 6.23 124.67 6.43 124.11 6.81
C124.25 6.28 124.42 5.82 124.63 5.44
C124.84 5.05 125.10 4.70 125.41 4.39
C125.73 4.07 126.05 3.84 126.37 3.68
C126.70 3.53 127.11 3.43 127.63 3.38
L127.63 3.16
Z
M117.82 10.08
C117.65 10.08 117.49 10.15 117.37 10.27
C117.24 10.39 117.18 10.55 117.18 10.73
C117.18 10.91 117.24 11.06 117.37 11.19
C117.49 11.31 117.65 11.38 117.82 11.38
C118.00 11.38 118.15 11.31 118.28 11.19
C118.41 11.06 118.47 10.91 118.47 10.73
C118.47 10.55 118.41 10.40 118.28 10.27
C118.16 10.15 118.01 10.08 117.82 10.08
Z
" fill="black" fill-rule="nonzero" />
</g>
</g>
</svg>
