<?xml version="1.0" encoding="utf-8" standalone="no"?>
<!DOCTYPE svg PUBLIC "-//W3C//DTD SVG 1.0//EN" "http://www.w3.org/TR/SVG/DTD/svg11.dtd" >
<svg version="1.1" baseProfile="full"  width="319.13385" height="338.46454" viewBox="0 0 229.77638 243.69449" preserveAspectRatio="xMidYMid" xmlns="http://www.w3.org/2000/svg" >

<g lengthAdjust="spacingAndGlyphs" xml:space='preserve' >
<g  transform="translate(1.19,1.19)" >
<path d="
M0.0 0.0
L0.0 227.39
L227.39 227.39
L227.39 0.0
Z
" fill="none" fill-rule="nonzero" />
<line x1="6.54" y1="6.54" x2="6.54" y2="220.84" fill="none" stroke="black" stroke-width="0.87px" stroke-linecap="square" />
<line x1="18.45" y1="6.54" x2="18.45" y2="220.84" fill="none" stroke="black" stroke-width="0.25px" stroke-linecap="butt" />
<line x1="30.35" y1="6.54" x2="30.35" y2="220.84" fill="none" stroke="black" stroke-width="0.25px" stroke-linecap="butt" />
<line x1="42.26" y1="6.54" x2="42.26" y2="220.84" fill="none" stroke="black" stroke-width="0.25px" stroke-linecap="butt" />
<line x1="54.17" y1="6.54" x2="54.17" y2="220.84" fill="none" stroke="black" stroke-width="0.25px" stroke-linecap="butt" />
<line x1="66.07" y1="6.54" x2="66.07" y2="220.84" fill="none" stroke="black" stroke-width="0.25px" stroke-linecap="butt" />
<line x1="77.98" y1="6.54" x2="77.98" y2="220.84" fill="none" stroke="black" stroke-width="0.25px" stroke-linecap="butt" />
<line x1="89.88" y1="6.54" x2="89.88" y2="220.84" fill="none" stroke="black" stroke-width="0.25px" stroke-linecap="butt" />
<line x1="101.79" y1="6.54" x2="101.79" y2="220.84" fill="none" stroke="black" stroke-width="0.25px" stroke-linecap="butt" />
<line x1="113.69" y1="6.54" x2="113.69" y2="220.84" fill="none" stroke="black" stroke-width="0.25px" stroke-linecap="butt" />
<line x1="125.60" y1="6.54" x2="125.60" y2="220.84" fill="none" stroke="black" stroke-width="0.25px" stroke-linecap="butt" />
<line x1="137.50" y1="6.54" x2="137.50" y2="220.84" fill="none" stroke="black" stroke-width="0.25px" stroke-linecap="butt" />
<line x1="149.41" y1="6.54" x2="149.41" y2="220.84" fill="none" stroke="black" stroke-width="0.25px" stroke-linecap="butt" />
<line x1="161.31" y1="6.54" x2="161.31" y2="220.84" fill="none" stroke="black" stroke-width="0.25px" stroke-linecap="butt" />
<line x1="173.22" y1="6.54" x2="173.22" y2="220.84" fill="none" stroke="black" stroke-width="0.25px" stroke-linecap="butt" />
<line x1="185.13" y1="6.54" x2="185.13" y2="220.84" fill="none" stroke="black" stroke-width="0.25px" stroke-linecap="butt" />
<line x1="197.03" y1="6.54" x2="197.03" y2="220.84" fill="none" stroke="black" stroke-width="0.25px" stroke-linecap="butt" />
<line x1="208.94" y1="6.54" x2="208.94" y2="220.84" fill="none" stroke="black" stroke-width="0.25px" stroke-linecap="butt" />
<line x1="220.84" y1="6.54" x2="220.84" y2="220.84" fill="none" stroke="black" stroke-width="0.87px" stroke-linecap="square" />
<line x1="6.54" y1="6.54" x2="220.84" y2="6.54" fill="none" stroke="black" stroke-width="0.87px" stroke-linecap="square" />
<line x1="6.54" y1="18.45" x2="220.84" y2="18.45" fill="none" stroke="black" stroke-width="0.25px" stroke-linecap="butt" />
<line x1="6.54" y1="30.35" x2="220.84" y2="30.35" fill="none" stroke="black" stroke-width="0.25px" stroke-linecap="butt" />
<line x1="6.54" y1="42.26" x2="220.84" y2="42.26" fill="none" stroke="black" stroke-width="0.25px" stroke-linecap="butt" />
<line x1="6.54" y1="54.17" x2="220.84" y2="54.17" fill="none" stroke="black" stroke-width="0.25px" stroke-linecap="butt" />
<line x1="6.54" y1="66.07" x2="220.84" y2="66.07" fill="none" stroke="black" stroke-width="0.25px" stroke-linecap="butt" />
<line x1="6.54" y1="77.98" x2="220.84" y2="77.98" fill="none" stroke="black" stroke-width="0.25px" stroke-linecap="butt" />
<line x1="6.54" y1="89.88" x2="220.84" y2="89.88" fill="none" stroke="black" stroke-width="0.25px" stroke-linecap="butt" />
<line x1="6.54" y1="101.79" x2="220.84" y2="101.79" fill="none" stroke="black" stroke-width="0.25px" stroke-linecap="butt" />
<line x1="6.54" y1="113.69" x2="220.84" y2="113.69" fill="none" stroke="black" stroke-width="0.25px" stroke-linecap="butt" />
<line x1="6.54" y1="125.60" x2="220.84" y2="125.60" fill="none" stroke="black" stroke-width="0.25px" stroke-linecap="butt" />
<line x1="6.54" y1="137.50" x2="220.84" y2="137.50" fill="none" stroke="black" stroke-width="0.25px" stroke-linecap="butt" />
<line x1="6.54" y1="149.41" x2="220.84" y2="149.41" fill="none" stroke="black" stroke-width="0.25px" stroke-linecap="butt" />
<line x1="6.54" y1="161.31" x2="220.84" y2="161.31" fill="none" stroke="black" stroke-width="0.25px" stroke-linecap="butt" />
<line x1="6.54" y1="173.22" x2="220.84" y2="173.22" fill="none" stroke="black" stroke-width="0.25px" stroke-linecap="butt" />
<line x1="6.54" y1="185.13" x2="220.84" y2="185.13" fill="none" stroke="black" stroke-width="0.25px" stroke-linecap="butt" />
<line x1="6.54" y1="197.03" x2="220.84" y2="197.03" fill="none" stroke="black" stroke-width="0.25px" stroke-linecap="butt" />
<line x1="6.54" y1="208.94" x2="220.84" y2="208.94" fill="none" stroke="black" stroke-width="0.25px" stroke-linecap="butt" />
<line x1="6.54" y1="220.84" x2="220.84" y2="220.84" fill="none" stroke="black" stroke-width="0.87px" stroke-linecap="square" />
<circle cx="18.45" cy="42.26" r="5.98" fill="black"/>
<circle cx="30.35" cy="30.35" r="5.98" fill="black"/>
<circle cx="30.35" cy="66.07" r="5.98" fill="black"/>
<circle cx="30.35" cy="161.31" r="5.85" fill="white"/>
<circle cx="30.35" cy="161.31" r="5.85" fill="none" stroke="black" stroke-width="0.25px"/>
<circle cx="30.35" cy="197.03" r="5.85" fill="white"/>
<circle cx="30.35" cy="197.03" r="5.85" fill="none" stroke="black" stroke-width="0.25px"/>
<circle cx="42.26" cy="42.26" r="5.85" fill="white"/>
<circle cx="42.26" cy="42.26" r="5.85" fill="none" stroke="black" stroke-width="0.25px"/>
<circle cx="42.26" cy="113.69" r="1.27" fill="black"/>
<circle cx="42.26" cy="185.13" r="5.85" fill="white"/>
<circle cx="42.26" cy="185.13" r="5.85" fill="none" stroke="black" stroke-width="0.25px"/>
<circle cx="42.26" cy="197.03" r="5.98" fill="black"/>
<circle cx="54.17" cy="197.03" r="5.85" fill="white"/>
<circle cx="54.17" cy="197.03" r="5.85" fill="none" stroke="black" stroke-width="0.25px"/>
<circle cx="66.07" cy="30.35" r="5.85" fill="white"/>
<circle cx="66.07" cy="30.35" r="5.85" fill="none" stroke="black" stroke-width="0.25px"/>
<circle cx="89.88" cy="197.03" r="5.85" fill="white"/>
<circle cx="89.88" cy="197.03" r="5.85" fill="none" stroke="black" stroke-width="0.25px"/>
<circle cx="101.79" cy="42.26" r="5.85" fill="white"/>
<circle cx="101.79" cy="42.26" r="5.85" fill="none" stroke="black" stroke-width="0.25px"/>
<circle cx="113.69" cy="42.26" r="1.27" fill="black"/>
<circle cx="113.69" cy="77.98" r="5.98" fill="black"/>
<circle cx="113.69" cy="89.88" r="5.98" fill="black"/>
<circle cx="113.69" cy="101.79" r="5.98" fill="black"/>
<circle cx="113.69" cy="113.69" r="1.27" fill="black"/>
<circle cx="113.69" cy="125.60" r="5.98" fill="black"/>
<circle cx="113.69" cy="149.41" r="5.98" fill="black"/>
<circle cx="113.69" cy="161.31" r="5.98" fill="black"/>
<circle cx="113.69" cy="173.22" r="5.98" fill="black"/>
<circle cx="113.69" cy="185.13" r="5.85" fill="white"/>
<circle cx="113.69" cy="185.13" r="5.85" fill="none" stroke="black" stroke-width="0.25px"/>
<circle cx="113.69" cy="197.03" r="5.85" fill="white"/>
<circle cx="113.69" cy="197.03" r="5.85" fill="none" stroke="black" stroke-width="0.25px"/>
<circle cx="125.60" cy="89.88" r="5.85" fill="white"/>
<circle cx="125.60" cy="89.88" r="5.85" fill="none" stroke="black" stroke-width="0.25px"/>
<circle cx="125.60" cy="149.41" r="5.98" fill="black"/>
<circle cx="125.60" cy="161.31" r="5.85" fill="white"/>
<circle cx="125.60" cy="161.31" r="5.85" fill="none" stroke="black" stroke-width="0.25px"/>
<circle cx="125.60" cy="173.22" r="5.85" fill="white"/>
<circle cx="125.60" cy="173.22" r="5.85" fill="none" stroke="black" stroke-width="0.25px"/>
<circle cx="125.60" cy="185.13" r="5.98" fill="black"/>
<circle cx="137.50" cy="42.26" r="5.85" fill="white"/>
<circle cx="137.50" cy="42.26" r="5.85" fill="none" stroke="black" stroke-width="0.25px"/>
<circle cx="137.50" cy="125.60" r="5.85" fill="white"/>
<circle cx="137.50" cy="125.60" r="5.85" fill="none" stroke="black" stroke-width="0.25px"/>
<circle cx="137.50" cy="137.50" r="5.85" fill="white"/>
<circle cx="137.50" cy="137.50" r="5.85" fill="none" stroke="black" stroke-width="0.25px"/>
<circle cx="137.50" cy="149.41" r="5.85" fill="white"/>
<circle cx="137.50" cy="149.41" r="5.85" fill="none" stroke="black" stroke-width="0.25px"/>
<circle cx="137.50" cy="161.31" r="5.85" fill="white"/>
<circle cx="137.50" cy="161.31" r="5.85" fill="none" stroke="black" stroke-width="0.25px"/>
<circle cx="137.50" cy="173.22" r="5.98" fill="black"/>
<circle cx="137.50" cy="185.13" r="5.98" fill="black"/>
<circle cx="149.41" cy="66.07" r="5.85" fill="white"/>
<circle cx="149.41" cy="66.07" r="5.85" fill="none" stroke="black" stroke-width="0.25px"/>
<circle cx="149.41" cy="89.88" r="5.85" fill="white"/>
<circle cx="149.41" cy="89.88" r="5.85" fill="none" stroke="black" stroke-width="0.25px"/>
<circle cx="149.41" cy="101.79" r="5.85" fill="white"/>
<circle cx="149.41" cy="101.79" r="5.85" fill="none" stroke="black" stroke-width="0.25px"/>
<circle cx="149.41" cy="113.69" r="5.85" fill="white"/>
<circle cx="149.41" cy="113.69" r="5.85" fill="none" stroke="black" stroke-width="0.25px"/>
<circle cx="149.41" cy="137.50" r="5.98" fill="black"/>
<circle cx="149.41" cy="161.31" r="5.85" fill="white"/>
<circle cx="149.41" cy="161.31" r="5.85" fill="none" stroke="black" stroke-width="0.25px"/>
<circle cx="149.41" cy="185.13" r="5.85" fill="white"/>
<circle cx="149.41" cy="185.13" r="5.85" fill="none" stroke="black" stroke-width="0.25px"/>
<circle cx="149.41" cy="197.03" r="5.98" fill="black"/>
<circle cx="161.31" cy="30.35" r="5.85" fill="white"/>
<circle cx="161.31" cy="30.35" r="5.85" fill="none" stroke="black" stroke-width="0.25px"/>
<circle cx="161.31" cy="77.98" r="5.98" fill="black"/>
<circle cx="161.31" cy="101.79" r="5.98" fill="black"/>
<circle cx="161.31" cy="185.13" r="5.85" fill="white"/>
<circle cx="161.31" cy="185.13" r="5.85" fill="none" stroke="black" stroke-width="0.25px"/>
<circle cx="161.31" cy="197.03" r="5.98" fill="black"/>
<circle cx="173.22" cy="125.60" r="5.98" fill="black"/>
<circle cx="173.22" cy="197.03" r="5.98" fill="black"/>
<circle cx="173.22" cy="208.94" r="5.85" fill="white"/>
<circle cx="173.22" cy="208.94" r="5.85" fill="none" stroke="black" stroke-width="0.25px"/>
<circle cx="185.13" cy="18.45" r="5.85" fill="white"/>
<circle cx="185.13" cy="18.45" r="5.85" fill="none" stroke="black" stroke-width="0.25px"/>
<circle cx="185.13" cy="42.26" r="5.98" fill="black"/>
<circle cx="185.13" cy="66.07" r="5.98" fill="black"/>
<circle cx="185.13" cy="113.69" r="1.27" fill="black"/>
<circle cx="185.13" cy="173.22" r="5.98" fill="black"/>
<circle cx="185.13" cy="185.13" r="5.98" fill="black"/>
<circle cx="185.13" cy="197.03" r="5.98" fill="black"/>
<circle cx="185.13" cy="208.94" r="5.98" fill="black"/>
<circle cx="197.03" cy="30.35" r="5.98" fill="black"/>
<circle cx="197.03" cy="125.60" r="5.98" fill="black"/>
<circle cx="197.03" cy="173.22" r="5.98" fill="black"/>
<circle cx="197.03" cy="185.13" r="5.85" fill="white"/>
<circle cx="197.03" cy="185.13" r="5.85" fill="none" stroke="black" stroke-width="0.25px"/>
<circle cx="197.03" cy="197.03" r="5.85" fill="white"/>
<circle cx="197.03" cy="197.03" r="5.85" fill="none" stroke="black" stroke-width="0.25px"/>
<path d="
M32.15 194.11
C32.35 194.11 32.53 194.22 32.68 194.43
C32.84 194.64 32.91 194.92 32.91 195.25
C32.91 195.57 32.84 195.84 32.69 196.04
C32.54 196.25 32.36 196.35 32.15 196.35
C31.94 196.35 31.76 196.25 31.61 196.04
C31.46 195.83 31.39 195.55 31.39 195.20
C31.39 194.89 31.46 194.63 31.61 194.42
C31.76 194.22 31.94 194.11 32.15 194.11
Z
M32.14 197.06
C32.40 197.06 32.63 197.20 32.82 197.46
C33.01 197.73 33.10 198.08 33.10 198.52
C33.10 198.95 33.01 199.30 32.83 199.56
C32.64 199.82 32.42 199.95 32.15 199.95
C31.89 199.95 31.67 199.82 31.48 199.55
C31.29 199.28 31.20 198.93 31.20 198.49
C31.20 198.07 31.29 197.73 31.47 197.46
C31.65 197.20 31.88 197.06 32.14 197.06
Z
M27.54 193.52
L27.09 197.18
L27.63 197.29
C27.71 197.07 27.83 196.90 27.99 196.78
C28.14 196.66 28.30 196.60 28.47 196.60
C28.76 196.60 29.00 196.74 29.19 197.02
C29.38 197.30 29.48 197.69 29.48 198.20
C29.48 198.74 29.38 199.17 29.18 199.48
C28.98 199.79 28.75 199.95 28.48 199.95
C28.26 199.95 28.07 199.84 27.90 199.62
C27.74 199.39 27.63 199.06 27.59 198.60
L26.98 198.68
C27.02 199.30 27.18 199.79 27.46 200.14
C27.74 200.49 28.08 200.67 28.48 200.67
C28.97 200.67 29.36 200.42 29.65 199.92
C29.94 199.42 30.08 198.83 30.08 198.13
C30.08 197.43 29.94 196.86 29.65 196.45
C29.36 196.03 29.02 195.82 28.63 195.82
C28.32 195.82 28.02 195.97 27.75 196.27
L28.00 194.36
L29.86 194.36
L29.86 193.52
Z
M32.14 193.39
C31.76 193.39 31.44 193.56 31.18 193.90
C30.92 194.25 30.80 194.69 30.80 195.23
C30.80 195.59 30.86 195.89 30.97 196.13
C31.09 196.37 31.27 196.55 31.50 196.68
C31.22 196.79 31.00 197.00 30.85 197.31
C30.69 197.62 30.61 198.02 30.61 198.49
C30.61 199.14 30.76 199.67 31.05 200.07
C31.35 200.47 31.71 200.67 32.15 200.67
C32.59 200.67 32.95 200.47 33.25 200.07
C33.54 199.67 33.69 199.15 33.69 198.52
C33.69 198.06 33.61 197.67 33.46 197.36
C33.31 197.05 33.09 196.82 32.81 196.68
C33.04 196.55 33.21 196.37 33.33 196.13
C33.44 195.89 33.50 195.60 33.50 195.26
C33.50 194.71 33.37 194.26 33.11 193.91
C32.85 193.57 32.53 193.39 32.14 193.39
Z
" fill="black" fill-rule="nonzero" />
<path d="
M111.27 76.80
L111.27 76.80
L111.27 76.80
C111.27 76.80 111.27 76.80 111.27 76.80
Z
M110.75 74.26
L110.74 74.39
L110.28 78.04
L110.27 78.17
L110.40 78.20
L110.94 78.31
L111.05 78.33
L111.10 78.22
C111.17 78.03 111.28 77.88 111.41 77.77
C111.54 77.67 111.67 77.62 111.81 77.62
C111.81 77.62 111.81 77.62 111.81 77.62
C111.81 77.62 111.81 77.62 111.82 77.62
C112.05 77.62 112.25 77.74 112.41 77.98
C112.59 78.23 112.67 78.60 112.67 79.08
C112.67 79.60 112.58 80.00 112.40 80.29
C112.23 80.55 112.04 80.69 111.82 80.69
C111.82 80.69 111.82 80.69 111.82 80.69
C111.81 80.69 111.81 80.69 111.81 80.69
C111.64 80.69 111.49 80.60 111.36 80.41
C111.21 80.21 111.11 79.90 111.07 79.47
L111.05 79.33
L110.91 79.34
L110.30 79.42
L110.17 79.44
L110.18 79.57
C110.22 80.22 110.39 80.74 110.69 81.11
C111.00 81.50 111.37 81.69 111.82 81.69
C112.36 81.69 112.79 81.42 113.11 80.87
C113.41 80.36 113.56 79.74 113.56 79.01
C113.56 78.28 113.41 77.69 113.10 77.25
C112.79 76.79 112.41 76.57 111.97 76.56
C111.73 76.56 111.49 76.64 111.27 76.80
L111.27 76.80
L111.46 75.38
L113.34 75.38
L113.34 75.24
L113.34 74.40
L113.34 74.26
Z
M114.38 74.26
L114.37 74.39
L113.91 78.04
L113.90 78.17
L114.03 78.20
L114.57 78.31
L114.68 78.33
L114.73 78.22
C114.80 78.03 114.91 77.88 115.04 77.77
C115.17 77.67 115.30 77.62 115.44 77.62
C115.44 77.62 115.44 77.62 115.44 77.62
C115.44 77.62 115.44 77.62 115.45 77.62
C115.68 77.62 115.88 77.74 116.04 77.98
C116.22 78.23 116.30 78.60 116.30 79.08
C116.30 79.60 116.21 80.00 116.03 80.29
C115.86 80.55 115.67 80.69 115.45 80.69
C115.45 80.69 115.45 80.69 115.45 80.69
C115.44 80.69 115.44 80.69 115.44 80.69
C115.27 80.69 115.12 80.60 114.99 80.41
C114.84 80.21 114.74 79.90 114.70 79.47
L114.68 79.33
L114.54 79.34
L113.93 79.42
L113.80 79.44
L113.81 79.57
C113.85 80.22 114.02 80.74 114.32 81.11
C114.63 81.50 115.00 81.69 115.45 81.69
C115.99 81.69 116.42 81.42 116.74 80.87
C117.04 80.36 117.19 79.74 117.19 79.01
C117.19 78.28 117.04 77.69 116.73 77.25
C116.42 76.79 116.04 76.57 115.60 76.56
C115.36 76.56 115.12 76.64 114.90 76.80
L114.90 76.80
L115.09 75.38
L116.97 75.38
L116.97 75.24
L116.97 74.40
L116.97 74.26
Z
" fill="white" fill-rule="nonzero" />
<path d="
M111.89 89.69
C112.09 89.69 112.26 89.81 112.41 90.04
C112.57 90.30 112.65 90.66 112.65 91.14
C112.65 91.63 112.57 92.01 112.41 92.28
C112.26 92.53 112.10 92.66 111.93 92.66
C111.93 92.66 111.93 92.66 111.92 92.66
C111.92 92.66 111.92 92.66 111.92 92.66
C111.72 92.66 111.53 92.52 111.37 92.26
C111.19 91.97 111.10 91.58 111.10 91.09
C111.10 90.64 111.18 90.30 111.35 90.04
C111.51 89.81 111.68 89.69 111.88 89.69
C111.88 89.69 111.88 89.69 111.89 89.69
C111.89 89.69 111.89 89.69 111.89 89.69
Z
M115.64 86.10
L115.61 86.20
C115.51 86.50 115.35 86.80 115.12 87.12
C114.88 87.43 114.61 87.70 114.31 87.92
L114.25 87.96
L114.25 88.03
L114.25 88.88
L114.25 89.12
L114.46 89.00
C114.66 88.89 114.87 88.73 115.10 88.52
C115.21 88.43 115.31 88.33 115.40 88.23
L115.40 88.23
L115.40 93.40
L115.40 93.54
L116.26 93.54
L116.26 93.40
L116.26 86.25
L116.26 86.10
Z
M111.97 86.10
C111.70 86.10 111.44 86.19 111.22 86.35
C111.00 86.51 110.81 86.74 110.64 87.06
C110.32 87.66 110.15 88.66 110.15 90.06
C110.15 91.33 110.31 92.24 110.63 92.79
C110.80 93.08 110.98 93.29 111.20 93.44
C111.41 93.59 111.66 93.66 111.92 93.66
C112.22 93.66 112.49 93.56 112.73 93.35
C112.97 93.15 113.16 92.84 113.31 92.43
C113.45 92.03 113.52 91.58 113.52 91.09
C113.52 90.36 113.38 89.77 113.09 89.33
C112.78 88.87 112.42 88.64 112.00 88.63
C111.74 88.63 111.50 88.73 111.28 88.91
C111.19 88.98 111.10 89.07 111.02 89.17
L111.02 89.17
C111.05 88.58 111.13 88.12 111.26 87.79
C111.36 87.55 111.46 87.38 111.58 87.26
C111.69 87.16 111.81 87.11 111.93 87.11
C111.93 87.11 111.94 87.11 111.94 87.11
C111.94 87.11 111.94 87.11 111.94 87.11
C112.10 87.11 112.25 87.20 112.37 87.38
C112.46 87.52 112.54 87.76 112.59 88.11
L112.61 88.24
L112.75 88.23
L113.32 88.16
L113.45 88.14
L113.44 88.01
C113.39 87.40 113.23 86.94 112.97 86.61
C112.71 86.27 112.37 86.10 111.97 86.10
Z
" fill="white" fill-rule="nonzero" />
<path d="
M111.27 100.67
L111.27 100.67
L111.27 100.67
C111.27 100.67 111.27 100.67 111.27 100.67
Z
M115.64 98.01
L115.61 98.11
C115.51 98.40 115.35 98.71 115.12 99.02
C114.88 99.34 114.61 99.61 114.31 99.82
L114.25 99.87
L114.25 99.94
L114.25 100.78
L114.25 101.03
L114.46 100.91
C114.66 100.80 114.87 100.64 115.10 100.43
C115.21 100.33 115.31 100.23 115.40 100.14
L115.40 100.14
L115.40 105.30
L115.40 105.44
L116.26 105.44
L116.26 105.30
L116.26 98.15
L116.26 98.01
Z
M110.75 98.14
L110.74 98.26
L110.28 101.92
L110.27 102.05
L110.40 102.07
L110.94 102.18
L111.05 102.20
L111.10 102.10
C111.17 101.90 111.28 101.75 111.41 101.65
C111.54 101.54 111.67 101.49 111.81 101.49
C111.81 101.49 111.81 101.49 111.81 101.49
C111.81 101.49 111.81 101.49 111.82 101.49
C112.05 101.49 112.25 101.61 112.41 101.85
C112.59 102.11 112.67 102.48 112.67 102.96
C112.67 103.47 112.58 103.87 112.40 104.16
C112.23 104.43 112.04 104.56 111.82 104.56
C111.82 104.56 111.82 104.56 111.82 104.56
C111.81 104.56 111.81 104.56 111.81 104.56
C111.64 104.56 111.49 104.47 111.36 104.29
C111.21 104.09 111.11 103.77 111.07 103.34
L111.05 103.20
L110.91 103.22
L110.30 103.30
L110.17 103.31
L110.18 103.45
C110.22 104.10 110.39 104.61 110.69 104.98
C111.00 105.37 111.37 105.56 111.82 105.57
C112.36 105.56 112.79 105.29 113.11 104.75
C113.41 104.23 113.56 103.61 113.56 102.89
C113.56 102.15 113.41 101.56 113.10 101.12
C112.79 100.67 112.41 100.44 111.97 100.44
C111.73 100.44 111.49 100.52 111.27 100.67
L111.27 100.67
L111.46 99.25
L113.34 99.25
L113.34 99.11
L113.34 98.28
L113.34 98.14
Z
" fill="white" fill-rule="nonzero" />
<path d="
M123.79 89.55
C124.04 89.55 124.26 89.69 124.44 89.97
C124.61 90.25 124.70 90.64 124.70 91.14
C124.70 91.66 124.61 92.06 124.43 92.36
C124.26 92.65 124.06 92.80 123.83 92.80
C123.57 92.80 123.35 92.64 123.15 92.33
C122.96 92.02 122.86 91.60 122.86 91.09
C122.86 90.62 122.95 90.24 123.14 89.96
C123.33 89.69 123.54 89.55 123.79 89.55
Z
M127.36 86.97
C127.64 86.97 127.87 87.16 128.05 87.56
C128.23 87.95 128.32 88.72 128.32 89.88
C128.32 91.03 128.23 91.80 128.05 92.20
C127.87 92.60 127.66 92.80 127.39 92.80
C127.12 92.80 126.89 92.60 126.71 92.21
C126.53 91.82 126.45 91.04 126.45 89.88
C126.45 88.74 126.53 87.97 126.71 87.57
C126.88 87.17 127.10 86.97 127.36 86.97
Z
M123.88 86.25
C123.39 86.25 122.99 86.54 122.67 87.12
C122.36 87.71 122.20 88.69 122.20 90.06
C122.20 91.30 122.35 92.19 122.66 92.72
C122.97 93.25 123.35 93.52 123.83 93.52
C124.09 93.52 124.33 93.43 124.55 93.24
C124.76 93.06 124.94 92.77 125.08 92.38
C125.22 92.00 125.29 91.57 125.29 91.09
C125.29 90.39 125.15 89.82 124.87 89.41
C124.60 88.99 124.27 88.78 123.90 88.78
C123.68 88.78 123.47 88.86 123.27 89.02
C123.07 89.18 122.90 89.41 122.77 89.72
C122.78 88.85 122.86 88.19 123.04 87.74
C123.24 87.22 123.51 86.96 123.84 86.96
C124.06 86.96 124.24 87.08 124.39 87.30
C124.50 87.46 124.58 87.72 124.63 88.09
L125.21 88.02
C125.15 87.44 125.01 87.00 124.77 86.70
C124.53 86.40 124.23 86.25 123.88 86.25
Z
M127.39 86.25
C126.88 86.25 126.50 86.55 126.25 87.17
C125.99 87.78 125.86 88.69 125.86 89.88
C125.86 91.22 126.00 92.16 126.28 92.70
C126.57 93.25 126.93 93.52 127.38 93.52
C127.88 93.52 128.26 93.21 128.52 92.59
C128.78 91.98 128.91 91.07 128.91 89.88
C128.91 88.56 128.75 87.60 128.44 86.99
C128.18 86.49 127.83 86.25 127.39 86.25
Z
" fill="black" fill-rule="nonzero" />
<path d="
M127.39 146.64
C127.40 146.64 127.40 146.64 127.40 146.64
C127.40 146.64 127.40 146.64 127.40 146.64
C127.58 146.64 127.75 146.76 127.90 147.01
C128.07 147.28 128.15 147.65 128.15 148.13
C128.15 148.62 128.07 148.99 127.91 149.24
C127.76 149.48 127.59 149.60 127.39 149.60
C127.39 149.60 127.39 149.60 127.39 149.60
C127.38 149.60 127.38 149.60 127.38 149.60
C127.18 149.60 127.00 149.48 126.84 149.24
C126.68 148.99 126.59 148.64 126.59 148.21
C126.59 147.72 126.68 147.33 126.86 147.04
C127.02 146.77 127.20 146.64 127.39 146.64
Z
M123.93 147.86
L123.93 150.28
L122.83 150.28
L123.93 147.86
Z
M124.09 145.66
L124.05 145.74
L121.91 150.36
L121.90 150.39
L121.90 150.42
L121.90 151.22
L121.90 151.36
L123.93 151.36
L123.93 152.92
L123.93 153.07
L124.78 153.07
L124.78 152.92
L124.78 151.36
L125.42 151.36
L125.42 151.22
L125.42 150.42
L125.42 150.28
L124.78 150.28
L124.78 145.80
L124.78 145.66
Z
M127.33 145.63
C126.87 145.63 126.49 145.87 126.17 146.34
C125.87 146.79 125.72 147.40 125.72 148.18
C125.72 148.93 125.86 149.52 126.15 149.96
C126.46 150.42 126.83 150.65 127.26 150.65
C127.50 150.65 127.74 150.56 127.97 150.37
C128.05 150.29 128.13 150.21 128.21 150.12
L128.21 150.12
C128.19 150.51 128.14 150.86 128.06 151.17
C127.95 151.57 127.83 151.84 127.69 151.98
C127.57 152.12 127.43 152.18 127.28 152.18
C127.27 152.18 127.27 152.18 127.27 152.18
C127.27 152.18 127.27 152.18 127.27 152.18
C127.11 152.18 126.97 152.11 126.87 151.96
C126.76 151.80 126.68 151.54 126.64 151.18
L126.62 151.04
L126.48 151.06
L125.92 151.14
L125.79 151.16
L125.80 151.29
C125.85 151.89 126.00 152.35 126.26 152.68
C126.53 153.02 126.86 153.19 127.26 153.19
C127.61 153.19 127.93 153.05 128.21 152.77
C128.48 152.51 128.69 152.09 128.85 151.52
C129.00 150.97 129.07 150.20 129.07 149.21
C129.07 148.32 129.00 147.63 128.86 147.15
C128.72 146.66 128.51 146.29 128.24 146.03
C127.96 145.76 127.66 145.63 127.33 145.63
Z
" fill="white" fill-rule="nonzero" />
<path d="
M139.30 134.59
C139.50 134.59 139.68 134.69 139.83 134.90
C139.99 135.12 140.06 135.39 140.06 135.72
C140.06 136.05 139.99 136.31 139.84 136.51
C139.69 136.72 139.51 136.82 139.30 136.82
C139.09 136.82 138.91 136.72 138.76 136.51
C138.61 136.30 138.54 136.02 138.54 135.67
C138.54 135.36 138.61 135.10 138.76 134.90
C138.91 134.69 139.09 134.59 139.30 134.59
Z
M135.97 135.30
L135.97 138.51
L134.51 138.51
L135.97 135.30
Z
M139.29 137.54
C139.55 137.54 139.78 137.67 139.97 137.94
C140.16 138.20 140.25 138.56 140.25 138.99
C140.25 139.43 140.16 139.77 139.98 140.03
C139.79 140.29 139.57 140.42 139.30 140.42
C139.04 140.42 138.82 140.29 138.63 140.02
C138.44 139.75 138.35 139.40 138.35 138.96
C138.35 138.54 138.44 138.20 138.62 137.93
C138.80 137.67 139.03 137.54 139.29 137.54
Z
M136.08 133.90
L133.95 138.51
L133.95 139.31
L135.97 139.31
L135.97 141.02
L136.55 141.02
L136.55 139.31
L137.18 139.31
L137.18 138.51
L136.55 138.51
L136.55 133.90
Z
M139.29 133.87
C138.91 133.87 138.58 134.04 138.33 134.38
C138.07 134.72 137.95 135.16 137.95 135.70
C137.95 136.06 138.01 136.36 138.12 136.60
C138.24 136.84 138.42 137.03 138.65 137.16
C138.37 137.27 138.15 137.48 138.00 137.79
C137.84 138.09 137.76 138.49 137.76 138.96
C137.76 139.61 137.91 140.14 138.20 140.54
C138.50 140.94 138.86 141.14 139.30 141.14
C139.74 141.14 140.10 140.94 140.40 140.54
C140.69 140.14 140.84 139.62 140.84 138.99
C140.84 138.53 140.76 138.14 140.61 137.83
C140.46 137.52 140.24 137.30 139.96 137.16
C140.19 137.02 140.36 136.84 140.48 136.60
C140.59 136.36 140.65 136.07 140.65 135.73
C140.65 135.18 140.52 134.73 140.26 134.39
C140.00 134.04 139.68 133.87 139.29 133.87
Z
" fill="black" fill-rule="nonzero" />
<path d="
M139.26 146.50
C139.55 146.50 139.78 146.69 139.95 147.08
C140.13 147.48 140.22 148.25 140.22 149.41
C140.22 150.56 140.13 151.33 139.96 151.73
C139.78 152.13 139.56 152.33 139.30 152.33
C139.02 152.33 138.79 152.13 138.62 151.74
C138.44 151.34 138.35 150.57 138.35 149.41
C138.35 148.27 138.44 147.49 138.61 147.09
C138.79 146.70 139.01 146.50 139.26 146.50
Z
M134.69 145.90
L134.24 149.56
L134.78 149.66
C134.86 149.45 134.98 149.28 135.13 149.16
C135.29 149.04 135.45 148.97 135.62 148.97
C135.91 148.97 136.15 149.11 136.34 149.39
C136.53 149.67 136.63 150.07 136.63 150.58
C136.63 151.12 136.53 151.55 136.33 151.86
C136.13 152.17 135.90 152.33 135.63 152.33
C135.41 152.33 135.22 152.22 135.05 151.99
C134.89 151.77 134.78 151.43 134.74 150.98
L134.13 151.06
C134.17 151.68 134.33 152.17 134.61 152.52
C134.89 152.87 135.23 153.05 135.63 153.05
C136.12 153.05 136.51 152.80 136.80 152.30
C137.09 151.80 137.23 151.21 137.23 150.51
C137.23 149.80 137.09 149.24 136.80 148.83
C136.51 148.41 136.17 148.20 135.78 148.20
C135.47 148.20 135.17 148.35 134.90 148.65
L135.15 146.73
L137.01 146.73
L137.01 145.90
Z
M139.29 145.77
C138.79 145.77 138.41 146.08 138.15 146.70
C137.89 147.31 137.76 148.22 137.76 149.41
C137.76 150.75 137.91 151.69 138.19 152.23
C138.47 152.77 138.84 153.05 139.28 153.05
C139.79 153.05 140.17 152.74 140.43 152.12
C140.68 151.50 140.81 150.60 140.81 149.41
C140.81 148.09 140.66 147.12 140.34 146.52
C140.09 146.02 139.74 145.77 139.29 145.77
Z
" fill="black" fill-rule="nonzero" />
<path d="
M151.23 65.74
C151.49 65.74 151.70 65.88 151.88 66.16
C152.05 66.43 152.14 66.83 152.14 67.33
C152.14 67.85 152.05 68.25 151.88 68.55
C151.70 68.84 151.50 68.99 151.27 68.99
C151.01 68.99 150.79 68.83 150.59 68.52
C150.40 68.21 150.30 67.79 150.30 67.28
C150.30 66.81 150.40 66.43 150.58 66.15
C150.77 65.88 150.98 65.74 151.23 65.74
Z
M146.60 62.56
L146.14 66.22
L146.68 66.33
C146.77 66.11 146.89 65.94 147.04 65.82
C147.19 65.70 147.35 65.64 147.53 65.64
C147.82 65.64 148.05 65.78 148.25 66.06
C148.44 66.34 148.53 66.73 148.53 67.24
C148.53 67.78 148.43 68.21 148.24 68.52
C148.04 68.83 147.80 68.99 147.53 68.99
C147.31 68.99 147.12 68.88 146.96 68.66
C146.79 68.43 146.69 68.10 146.64 67.64
L146.04 67.72
C146.08 68.34 146.24 68.83 146.52 69.18
C146.79 69.53 147.14 69.71 147.54 69.71
C148.03 69.71 148.41 69.46 148.70 68.96
C148.99 68.46 149.14 67.87 149.14 67.17
C149.14 66.46 148.99 65.90 148.70 65.49
C148.41 65.07 148.07 64.86 147.68 64.86
C147.37 64.86 147.08 65.01 146.80 65.31
L147.05 63.40
L148.92 63.40
L148.92 62.56
Z
M151.32 62.43
C150.83 62.43 150.43 62.73 150.11 63.31
C149.80 63.90 149.64 64.88 149.64 66.25
C149.64 67.49 149.80 68.38 150.10 68.91
C150.41 69.44 150.80 69.71 151.27 69.71
C151.53 69.71 151.77 69.61 151.99 69.43
C152.20 69.25 152.38 68.96 152.52 68.57
C152.66 68.19 152.73 67.75 152.73 67.28
C152.73 66.58 152.59 66.01 152.31 65.59
C152.04 65.18 151.72 64.97 151.34 64.97
C151.12 64.97 150.91 65.05 150.71 65.21
C150.51 65.37 150.35 65.60 150.21 65.91
C150.22 65.04 150.30 64.38 150.48 63.93
C150.68 63.41 150.95 63.15 151.28 63.15
C151.50 63.15 151.68 63.27 151.83 63.49
C151.94 63.65 152.02 63.91 152.08 64.28
L152.65 64.21
C152.59 63.63 152.45 63.19 152.21 62.89
C151.97 62.59 151.67 62.43 151.32 62.43
Z
" fill="black" fill-rule="nonzero" />
<path d="
M151.24 86.25
C150.80 86.25 150.44 86.42 150.18 86.76
C149.91 87.11 149.75 87.62 149.71 88.31
L150.30 88.40
C150.30 87.94 150.39 87.58 150.56 87.34
C150.73 87.09 150.95 86.97 151.22 86.97
C151.47 86.97 151.67 87.08 151.84 87.31
C152.01 87.54 152.10 87.84 152.10 88.20
C152.10 88.51 152.02 88.85 151.85 89.22
C151.68 89.58 151.33 90.10 150.80 90.76
C150.34 91.34 150.02 91.83 149.85 92.25
C149.68 92.68 149.60 93.06 149.60 93.40
L152.69 93.40
L152.69 92.56
L150.40 92.56
C150.46 92.40 150.54 92.24 150.64 92.08
C150.74 91.92 150.96 91.62 151.31 91.19
C151.84 90.49 152.21 89.94 152.40 89.52
C152.59 89.11 152.69 88.67 152.69 88.22
C152.69 87.71 152.56 87.25 152.32 86.85
C152.07 86.45 151.71 86.25 151.24 86.25
Z
M146.60 86.37
L146.14 90.03
L146.68 90.14
C146.77 89.92 146.89 89.75 147.04 89.63
C147.19 89.51 147.35 89.45 147.53 89.45
C147.82 89.45 148.05 89.59 148.25 89.87
C148.44 90.15 148.53 90.54 148.53 91.05
C148.53 91.59 148.43 92.02 148.24 92.33
C148.04 92.64 147.80 92.80 147.53 92.80
C147.31 92.80 147.12 92.69 146.96 92.47
C146.79 92.24 146.69 91.91 146.64 91.45
L146.04 91.53
C146.08 92.15 146.24 92.64 146.52 92.99
C146.79 93.34 147.14 93.52 147.54 93.52
C148.03 93.52 148.41 93.27 148.70 92.77
C148.99 92.28 149.14 91.68 149.14 90.98
C149.14 90.28 148.99 89.71 148.70 89.30
C148.41 88.88 148.07 88.67 147.68 88.67
C147.37 88.67 147.08 88.82 146.80 89.12
L147.05 87.21
L148.92 87.21
L148.92 86.37
Z
" fill="black" fill-rule="nonzero" />
<path d="
M151.51 99.57
L151.51 102.78
L150.05 102.78
L151.51 99.57
Z
M151.62 98.17
L149.48 102.78
L149.48 103.58
L151.51 103.58
L151.51 105.29
L152.08 105.29
L152.08 103.58
L152.72 103.58
L152.72 102.78
L152.08 102.78
L152.08 98.17
Z
M146.60 98.26
L146.14 101.92
L146.68 102.03
C146.77 101.81 146.89 101.64 147.04 101.52
C147.19 101.40 147.35 101.34 147.53 101.34
C147.82 101.34 148.05 101.48 148.25 101.76
C148.44 102.04 148.53 102.43 148.53 102.94
C148.53 103.48 148.43 103.91 148.24 104.22
C148.04 104.53 147.80 104.69 147.53 104.69
C147.31 104.69 147.12 104.58 146.96 104.36
C146.79 104.14 146.69 103.80 146.64 103.34
L146.04 103.42
C146.08 104.04 146.24 104.53 146.52 104.88
C146.79 105.23 147.14 105.41 147.54 105.41
C148.03 105.41 148.41 105.16 148.70 104.66
C148.99 104.17 149.14 103.57 149.14 102.87
C149.14 102.17 148.99 101.61 148.70 101.19
C148.41 100.77 148.07 100.57 147.68 100.57
C147.37 100.57 147.08 100.71 146.80 101.01
L147.05 99.10
L148.92 99.10
L148.92 98.26
Z
" fill="black" fill-rule="nonzero" />
<path d="
M147.88 111.49
L147.88 114.70
L146.42 114.70
L147.88 111.49
Z
M151.23 113.36
C151.49 113.36 151.70 113.50 151.88 113.78
C152.05 114.06 152.14 114.45 152.14 114.95
C152.14 115.47 152.05 115.87 151.88 116.17
C151.70 116.46 151.50 116.61 151.27 116.61
C151.01 116.61 150.79 116.45 150.59 116.14
C150.40 115.83 150.30 115.41 150.30 114.90
C150.30 114.43 150.40 114.05 150.58 113.78
C150.77 113.50 150.98 113.36 151.23 113.36
Z
M147.99 110.09
L145.85 114.70
L145.85 115.50
L147.88 115.50
L147.88 117.21
L148.45 117.21
L148.45 115.50
L149.09 115.50
L149.09 114.70
L148.45 114.70
L148.45 110.09
Z
M151.32 110.06
C150.83 110.06 150.43 110.35 150.11 110.93
C149.80 111.52 149.64 112.50 149.64 113.87
C149.64 115.12 149.80 116.00 150.10 116.53
C150.41 117.06 150.80 117.33 151.27 117.33
C151.53 117.33 151.77 117.24 151.99 117.05
C152.20 116.87 152.38 116.58 152.52 116.19
C152.66 115.81 152.73 115.38 152.73 114.90
C152.73 114.20 152.59 113.64 152.31 113.22
C152.04 112.80 151.72 112.59 151.34 112.59
C151.12 112.59 150.91 112.67 150.71 112.83
C150.51 112.99 150.35 113.22 150.21 113.53
C150.22 112.66 150.30 112.00 150.48 111.55
C150.68 111.03 150.95 110.78 151.28 110.78
C151.50 110.78 151.68 110.89 151.83 111.12
C151.94 111.27 152.02 111.53 152.08 111.90
L152.65 111.83
C152.59 111.25 152.45 110.81 152.21 110.51
C151.97 110.21 151.67 110.06 151.32 110.06
Z
" fill="black" fill-rule="nonzero" />
<path d="
M147.74 136.00
L147.74 138.42
L146.64 138.42
L147.74 136.00
Z
M147.90 133.80
L147.86 133.88
L145.72 138.50
L145.71 138.53
L145.71 138.56
L145.71 139.36
L145.71 139.50
L147.74 139.50
L147.74 141.06
L147.74 141.21
L148.59 141.21
L148.59 141.06
L148.59 139.50
L149.23 139.50
L149.23 139.36
L149.23 138.56
L149.23 138.42
L148.59 138.42
L148.59 133.94
L148.59 133.80
Z
M149.57 133.89
L149.57 134.03
L149.57 134.88
L149.57 135.02
L151.75 135.02
C151.50 135.49 151.27 136.04 151.05 136.66
C150.79 137.39 150.59 138.15 150.45 138.96
C150.30 139.76 150.23 140.46 150.22 141.06
L150.22 141.21
L150.95 141.21
L151.09 141.21
L151.09 141.07
C151.15 139.93 151.34 138.78 151.68 137.61
C152.02 136.45 152.41 135.51 152.85 134.79
L152.87 134.75
L152.87 134.71
L152.87 134.03
L152.87 133.89
Z
" fill="white" fill-rule="nonzero" />
<path d="
M158.90 76.86
L158.90 76.86
L158.90 76.86
C158.90 76.86 158.90 76.86 158.90 76.86
Z
M163.11 75.21
C163.11 75.21 163.11 75.21 163.11 75.21
C163.12 75.21 163.12 75.21 163.12 75.21
C163.30 75.21 163.47 75.33 163.62 75.58
C163.79 75.84 163.87 76.22 163.87 76.70
C163.87 77.19 163.79 77.55 163.63 77.81
C163.48 78.04 163.31 78.16 163.11 78.16
C163.11 78.16 163.10 78.16 163.10 78.16
C163.10 78.16 163.10 78.16 163.10 78.16
C162.89 78.16 162.71 78.04 162.56 77.81
C162.39 77.56 162.31 77.21 162.31 76.77
C162.31 76.28 162.40 75.89 162.58 75.60
C162.74 75.34 162.92 75.21 163.11 75.21
Z
M158.38 74.32
L158.36 74.45
L157.91 78.11
L157.89 78.24
L158.02 78.26
L158.56 78.37
L158.67 78.39
L158.72 78.28
C158.80 78.09 158.90 77.94 159.03 77.83
C159.16 77.73 159.29 77.68 159.43 77.68
C159.43 77.68 159.43 77.68 159.43 77.68
C159.43 77.68 159.44 77.68 159.44 77.68
C159.67 77.68 159.87 77.80 160.03 78.04
C160.21 78.30 160.29 78.67 160.29 79.14
C160.29 79.66 160.20 80.06 160.02 80.35
C159.85 80.62 159.66 80.75 159.44 80.75
C159.44 80.75 159.44 80.75 159.44 80.75
C159.44 80.75 159.44 80.75 159.43 80.75
C159.27 80.75 159.11 80.66 158.98 80.48
C158.83 80.28 158.73 79.96 158.69 79.53
L158.67 79.39
L158.53 79.41
L157.93 79.48
L157.80 79.50
L157.80 79.63
C157.84 80.29 158.01 80.80 158.31 81.17
C158.62 81.56 159.00 81.75 159.45 81.75
C159.99 81.75 160.41 81.48 160.73 80.94
C161.03 80.42 161.18 79.80 161.18 79.08
C161.18 78.34 161.03 77.75 160.73 77.31
C160.41 76.86 160.03 76.63 159.59 76.63
C159.35 76.63 159.12 76.71 158.90 76.86
L158.90 76.86
L159.08 75.44
L160.96 75.44
L160.96 75.30
L160.96 74.47
L160.96 74.32
Z
M163.05 74.20
C162.59 74.20 162.20 74.43 161.89 74.90
C161.58 75.36 161.43 75.97 161.43 76.74
C161.43 77.50 161.58 78.09 161.87 78.53
C162.18 78.99 162.54 79.22 162.97 79.22
C163.22 79.22 163.45 79.12 163.68 78.93
C163.77 78.86 163.85 78.78 163.92 78.68
L163.92 78.68
C163.90 79.08 163.85 79.43 163.77 79.74
C163.67 80.13 163.55 80.40 163.41 80.55
C163.28 80.68 163.14 80.75 162.99 80.75
C162.99 80.75 162.99 80.75 162.99 80.75
C162.99 80.75 162.99 80.75 162.99 80.75
C162.82 80.75 162.69 80.68 162.59 80.53
C162.47 80.36 162.39 80.10 162.35 79.75
L162.34 79.61
L162.19 79.63
L161.64 79.70
L161.51 79.72
L161.52 79.86
C161.57 80.46 161.72 80.92 161.98 81.25
C162.24 81.58 162.58 81.75 162.98 81.75
C163.33 81.75 163.65 81.62 163.93 81.34
C164.20 81.07 164.41 80.66 164.56 80.09
C164.72 79.54 164.79 78.77 164.79 77.77
C164.79 76.88 164.72 76.20 164.58 75.72
C164.43 75.23 164.23 74.85 163.96 74.60
C163.68 74.33 163.38 74.20 163.05 74.20
Z
" fill="white" fill-rule="nonzero" />
<path d="
M158.90 100.67
L158.90 100.67
L158.90 100.67
C158.90 100.67 158.90 100.67 158.90 100.67
Z
M158.38 98.13
L158.36 98.26
L157.91 101.92
L157.89 102.05
L158.02 102.07
L158.56 102.18
L158.67 102.20
L158.72 102.09
C158.80 101.90 158.90 101.75 159.03 101.64
C159.16 101.54 159.29 101.49 159.43 101.49
C159.43 101.49 159.43 101.49 159.43 101.49
C159.43 101.49 159.44 101.49 159.44 101.49
C159.67 101.49 159.87 101.61 160.03 101.85
C160.21 102.11 160.29 102.47 160.29 102.95
C160.29 103.47 160.20 103.87 160.02 104.16
C159.85 104.43 159.66 104.56 159.44 104.56
C159.44 104.56 159.44 104.56 159.44 104.56
C159.44 104.56 159.44 104.56 159.43 104.56
C159.27 104.56 159.11 104.47 158.98 104.28
C158.83 104.08 158.73 103.77 158.69 103.34
L158.67 103.20
L158.53 103.22
L157.93 103.29
L157.80 103.31
L157.80 103.44
C157.84 104.09 158.01 104.61 158.31 104.98
C158.62 105.37 159.00 105.56 159.45 105.56
C159.99 105.56 160.41 105.29 160.73 104.75
C161.03 104.23 161.18 103.61 161.18 102.89
C161.18 102.15 161.03 101.56 160.73 101.12
C160.41 100.67 160.03 100.44 159.59 100.44
C159.35 100.44 159.12 100.51 158.90 100.67
L158.90 100.67
L159.08 99.25
L160.96 99.25
L160.96 99.11
L160.96 98.27
L160.96 98.13
Z
M163.05 98.01
C162.64 98.01 162.30 98.18 162.02 98.53
C161.75 98.86 161.57 99.34 161.50 99.98
L161.48 100.10
L161.60 100.13
L162.17 100.29
L162.33 100.33
L162.35 100.16
C162.39 99.76 162.48 99.46 162.61 99.27
C162.74 99.10 162.88 99.01 163.05 99.01
C163.05 99.01 163.05 99.01 163.06 99.01
C163.06 99.01 163.06 99.01 163.06 99.01
C163.22 99.01 163.36 99.09 163.48 99.25
C163.61 99.43 163.68 99.67 163.68 99.97
C163.68 100.30 163.60 100.56 163.44 100.76
C163.30 100.94 163.11 101.03 162.87 101.03
L162.87 101.03
L162.79 101.02
L162.65 101.00
L162.63 101.15
L162.57 101.92
L162.55 102.15
L162.76 102.06
C162.91 102.00 163.02 101.97 163.11 101.97
C163.11 101.97 163.11 101.97 163.11 101.97
C163.12 101.97 163.12 101.97 163.12 101.97
C163.32 101.97 163.50 102.08 163.65 102.29
C163.81 102.52 163.89 102.83 163.89 103.21
C163.89 103.62 163.80 103.95 163.62 104.21
C163.46 104.44 163.27 104.56 163.06 104.56
C163.06 104.56 163.06 104.56 163.06 104.56
C163.06 104.56 163.06 104.56 163.06 104.56
C162.87 104.56 162.71 104.47 162.59 104.28
C162.45 104.06 162.35 103.73 162.29 103.28
L162.28 103.13
L162.13 103.16
L161.55 103.28
L161.43 103.31
L161.44 103.43
C161.48 104.07 161.65 104.58 161.94 104.97
C162.25 105.37 162.62 105.57 163.07 105.57
C163.54 105.57 163.95 105.34 164.29 104.89
C164.62 104.44 164.78 103.88 164.78 103.20
C164.78 102.87 164.74 102.58 164.66 102.32
C164.58 102.05 164.47 101.84 164.34 101.67
C164.25 101.56 164.15 101.48 164.03 101.41
L164.03 101.41
C164.17 101.27 164.28 101.11 164.37 100.91
C164.49 100.64 164.55 100.34 164.55 99.99
C164.55 99.43 164.41 98.96 164.13 98.59
C163.83 98.20 163.47 98.01 163.05 98.01
Z
" fill="white" fill-rule="nonzero" />
<path d="
M182.71 207.76
L182.71 207.76
L182.71 207.76
C182.71 207.76 182.71 207.76 182.71 207.76
Z
M185.28 205.22
L185.28 205.36
L185.28 206.20
L185.28 206.34
L187.47 206.34
C187.22 206.81 186.98 207.36 186.76 207.99
C186.51 208.72 186.31 209.48 186.17 210.28
C186.02 211.08 185.94 211.79 185.94 212.39
L185.93 212.53
L186.67 212.53
L186.80 212.53
L186.81 212.40
C186.86 211.26 187.06 210.10 187.40 208.94
C187.73 207.78 188.13 206.84 188.57 206.12
L188.59 206.08
L188.59 206.04
L188.59 205.36
L188.59 205.22
Z
M182.19 205.22
L182.17 205.35
L181.72 209.01
L181.70 209.14
L181.83 209.16
L182.37 209.27
L182.48 209.29
L182.53 209.18
C182.61 208.99 182.71 208.84 182.85 208.73
C182.97 208.63 183.10 208.58 183.24 208.58
C183.24 208.58 183.24 208.58 183.24 208.58
C183.25 208.58 183.25 208.58 183.25 208.58
C183.49 208.58 183.68 208.70 183.84 208.94
C184.02 209.20 184.11 209.57 184.11 210.04
C184.11 210.56 184.01 210.96 183.83 211.25
C183.66 211.52 183.47 211.65 183.25 211.65
C183.25 211.65 183.25 211.65 183.25 211.65
C183.25 211.65 183.25 211.65 183.25 211.65
C183.08 211.65 182.92 211.56 182.79 211.38
C182.64 211.18 182.54 210.86 182.50 210.43
L182.48 210.29
L182.34 210.31
L181.74 210.38
L181.61 210.40
L181.61 210.53
C181.66 211.19 181.82 211.70 182.12 212.07
C182.43 212.46 182.81 212.65 183.26 212.65
C183.80 212.65 184.23 212.38 184.54 211.84
C184.84 211.32 185.00 210.70 185.00 209.98
C185.00 209.24 184.84 208.65 184.54 208.21
C184.22 207.76 183.84 207.53 183.40 207.53
C183.16 207.53 182.93 207.61 182.71 207.76
L182.71 207.76
L182.89 206.34
L184.77 206.34
L184.77 206.20
L184.77 205.37
L184.77 205.22
Z
" fill="white" fill-rule="nonzero" />
</g>
<g  transform="translate(1.19,228.58)" >
<path d="
M109.47 2.94
C109.30 2.94 109.16 3.00 109.05 3.11
C108.93 3.23 108.88 3.37 108.88 3.53
C108.88 3.69 108.94 3.83 109.05 3.95
C109.17 4.07 109.31 4.12 109.47 4.12
C109.63 4.12 109.77 4.07 109.89 3.95
C110.00 3.83 110.06 3.69 110.06 3.53
C110.06 3.37 110.00 3.23 109.89 3.11
C109.77 3.00 109.63 2.94 109.47 2.94
Z
M114.44 8.04
L114.44 10.07
C113.96 10.46 113.57 10.65 113.28 10.65
C113.06 10.65 112.87 10.56 112.70 10.37
C112.54 10.19 112.45 9.96 112.45 9.68
C112.45 9.46 112.52 9.25 112.65 9.07
C112.78 8.88 113.00 8.70 113.31 8.53
C113.48 8.44 113.86 8.27 114.44 8.04
Z
M102.79 3.77
C103.72 3.77 104.48 4.08 105.08 4.71
C105.67 5.34 105.97 6.20 105.97 7.29
C105.97 8.37 105.67 9.23 105.08 9.86
C104.48 10.49 103.74 10.81 102.84 10.81
C102.50 10.81 102.09 10.75 101.60 10.64
L101.60 3.94
C102.05 3.83 102.44 3.77 102.79 3.77
Z
M99.35 3.33
L99.35 3.54
L99.65 3.54
C99.94 3.54 100.17 3.63 100.32 3.80
C100.43 3.92 100.48 4.23 100.48 4.72
L100.48 9.82
C100.48 10.26 100.44 10.55 100.35 10.68
C100.22 10.89 99.98 11.00 99.65 11.00
L99.35 11.00
L99.35 11.21
L102.87 11.21
C104.40 11.21 105.54 10.80 106.29 9.98
C106.96 9.24 107.29 8.33 107.29 7.23
C107.29 6.41 107.11 5.69 106.73 5.07
C106.36 4.44 105.86 4.00 105.25 3.73
C104.63 3.46 103.74 3.33 102.56 3.33
Z
M109.70 5.73
L108.09 6.38
L108.17 6.59
C108.33 6.53 108.46 6.50 108.57 6.50
C108.67 6.50 108.75 6.53 108.81 6.58
C108.87 6.62 108.91 6.71 108.94 6.83
C108.97 7.00 108.99 7.38 108.99 7.96
L108.99 10.01
C108.99 10.34 108.96 10.56 108.91 10.68
C108.86 10.79 108.79 10.88 108.70 10.93
C108.61 10.98 108.43 11.00 108.17 11.00
L108.17 11.21
L110.76 11.21
L110.76 11.00
C110.51 11.00 110.34 10.98 110.24 10.92
C110.15 10.87 110.07 10.79 110.03 10.68
C109.98 10.56 109.95 10.34 109.95 10.01
L109.95 5.73
Z
M113.63 5.73
C113.01 5.73 112.53 5.87 112.19 6.15
C111.85 6.43 111.68 6.73 111.68 7.07
C111.68 7.24 111.72 7.38 111.82 7.48
C111.91 7.58 112.02 7.63 112.17 7.63
C112.31 7.63 112.43 7.58 112.52 7.49
C112.62 7.39 112.66 7.25 112.66 7.07
L112.65 6.74
C112.65 6.56 112.72 6.41 112.87 6.28
C113.01 6.15 113.21 6.08 113.45 6.08
C113.77 6.08 114.02 6.18 114.19 6.38
C114.36 6.58 114.44 6.94 114.44 7.47
L114.44 7.68
C113.53 8.02 112.87 8.30 112.48 8.53
C112.08 8.76 111.81 9.01 111.65 9.28
C111.53 9.47 111.48 9.69 111.48 9.95
C111.48 10.36 111.59 10.69 111.83 10.95
C112.07 11.20 112.37 11.32 112.74 11.32
C112.98 11.32 113.20 11.27 113.41 11.18
C113.55 11.11 113.89 10.87 114.44 10.45
C114.44 10.76 114.50 10.99 114.62 11.12
C114.73 11.25 114.88 11.32 115.07 11.32
C115.46 11.32 115.88 11.03 116.31 10.45
L116.31 10.12
C116.08 10.35 115.92 10.49 115.84 10.54
C115.80 10.57 115.74 10.58 115.68 10.58
C115.62 10.58 115.57 10.57 115.53 10.53
C115.48 10.49 115.45 10.41 115.43 10.30
C115.41 10.18 115.40 9.87 115.40 9.36
L115.40 7.55
C115.40 7.04 115.37 6.70 115.30 6.53
C115.19 6.28 115.02 6.09 114.79 5.97
C114.49 5.81 114.10 5.73 113.63 5.73
Z
M117.82 10.08
C117.65 10.08 117.49 10.15 117.37 10.27
C117.24 10.39 117.18 10.55 117.18 10.73
C117.18 10.91 117.24 11.06 117.37 11.19
C117.49 11.31 117.65 11.38 117.82 11.38
C118.00 11.38 118.15 11.31 118.28 11.19
C118.41 11.06 118.47 10.91 118.47 10.73
C118.47 10.55 118.41 10.40 118.28 10.27
C118.16 10.15 118.01 10.08 117.82 10.08
Z
M123.49 3.33
L122.73 5.19
L122.90 5.26
C123.10 4.89 123.36 4.61 123.68 4.43
C123.87 4.33 124.18 4.28 124.62 4.28
L126.79 4.28
L124.43 11.38
L125.08 11.38
L127.71 3.55
L127.71 3.33
Z
" fill="black" fill-rule="nonzero" />
</g>
</g>
</svg>
