<?xml version="1.0" encoding="utf-8" standalone="no"?>
<!DOCTYPE svg PUBLIC "-//W3C//DTD SVG 1.0//EN" "http://www.w3.org/TR/SVG/DTD/svg11.dtd" >
<svg version="1.1" baseProfile="full"  width="319.13385" height="338.51422" viewBox="0 0 229.77638 243.73024" preserveAspectRatio="xMidYMid" xmlns="http://www.w3.org/2000/svg" >

<g lengthAdjust="spacingAndGlyphs" xml:space='preserve' >
<g  transform="translate(1.19,1.19)" >
<path d="
M0.0 0.0
L0.0 227.39
L227.39 227.39
L227.39 0.0
Z
" fill="none" fill-rule="nonzero" />
<line x1="6.54" y1="6.54" x2="6.54" y2="220.84" fill="none" stroke="black" stroke-width="0.87px" stroke-linecap="square" />
<line x1="18.45" y1="6.54" x2="18.45" y2="220.84" fill="none" stroke="black" stroke-width="0.25px" stroke-linecap="butt" />
<line x1="30.35" y1="6.54" x2="30.35" y2="220.84" fill="none" stroke="black" stroke-width="0.25px" stroke-linecap="butt" />
<line x1="42.26" y1="6.54" x2="42.26" y2="220.84" fill="none" stroke="black" stroke-width="0.25px" stroke-linecap="butt" />
<line x1="54.17" y1="6.54" x2="54.17" y2="220.84" fill="none" stroke="black" stroke-width="0.25px" stroke-linecap="butt" />
<line x1="66.07" y1="6.54" x2="66.07" y2="220.84" fill="none" stroke="black" stroke-width="0.25px" stroke-linecap="butt" />
<line x1="77.98" y1="6.54" x2="77.98" y2="220.84" fill="none" stroke="black" stroke-width="0.25px" stroke-linecap="butt" />
<line x1="89.88" y1="6.54" x2="89.88" y2="220.84" fill="none" stroke="black" stroke-width="0.25px" stroke-linecap="butt" />
<line x1="101.79" y1="6.54" x2="101.79" y2="220.84" fill="none" stroke="black" stroke-width="0.25px" stroke-linecap="butt" />
<line x1="113.69" y1="6.54" x2="113.69" y2="220.84" fill="none" stroke="black" stroke-width="0.25px" stroke-linecap="butt" />
<line x1="125.60" y1="6.54" x2="125.60" y2="220.84" fill="none" stroke="black" stroke-width="0.25px" stroke-linecap="butt" />
<line x1="137.50" y1="6.54" x2="137.50" y2="220.84" fill="none" stroke="black" stroke-width="0.25px" stroke-linecap="butt" />
<line x1="149.41" y1="6.54" x2="149.41" y2="220.84" fill="none" stroke="black" stroke-width="0.25px" stroke-linecap="butt" />
<line x1="161.31" y1="6.54" x2="161.31" y2="220.84" fill="none" stroke="black" stroke-width="0.25px" stroke-linecap="butt" />
<line x1="173.22" y1="6.54" x2="173.22" y2="220.84" fill="none" stroke="black" stroke-width="0.25px" stroke-linecap="butt" />
<line x1="185.13" y1="6.54" x2="185.13" y2="220.84" fill="none" stroke="black" stroke-width="0.25px" stroke-linecap="butt" />
<line x1="197.03" y1="6.54" x2="197.03" y2="220.84" fill="none" stroke="black" stroke-width="0.25px" stroke-linecap="butt" />
<line x1="208.94" y1="6.54" x2="208.94" y2="220.84" fill="none" stroke="black" stroke-width="0.25px" stroke-linecap="butt" />
<line x1="220.84" y1="6.54" x2="220.84" y2="220.84" fill="none" stroke="black" stroke-width="0.87px" stroke-linecap="square" />
<line x1="6.54" y1="6.54" x2="220.84" y2="6.54" fill="none" stroke="black" stroke-width="0.87px" stroke-linecap="square" />
<line x1="6.54" y1="18.45" x2="220.84" y2="18.45" fill="none" stroke="black" stroke-width="0.25px" stroke-linecap="butt" />
<line x1="6.54" y1="30.35" x2="220.84" y2="30.35" fill="none" stroke="black" stroke-width="0.25px" stroke-linecap="butt" />
<line x1="6.54" y1="42.26" x2="220.84" y2="42.26" fill="none" stroke="black" stroke-width="0.25px" stroke-linecap="butt" />
<line x1="6.54" y1="54.17" x2="220.84" y2="54.17" fill="none" stroke="black" stroke-width="0.25px" stroke-linecap="butt" />
<line x1="6.54" y1="66.07" x2="220.84" y2="66.07" fill="none" stroke="black" stroke-width="0.25px" stroke-linecap="butt" />
<line x1="6.54" y1="77.98" x2="220.84" y2="77.98" fill="none" stroke="black" stroke-width="0.25px" stroke-linecap="butt" />
<line x1="6.54" y1="89.88" x2="220.84" y2="89.88" fill="none" stroke="black" stroke-width="0.25px" stroke-linecap="butt" />
<line x1="6.54" y1="101.79" x2="220.84" y2="101.79" fill="none" stroke="black" stroke-width="0.25px" stroke-linecap="butt" />
<line x1="6.54" y1="113.69" x2="220.84" y2="113.69" fill="none" stroke="black" stroke-width="0.25px" stroke-linecap="butt" />
<line x1="6.54" y1="125.60" x2="220.84" y2="125.60" fill="none" stroke="black" stroke-width="0.25px" stroke-linecap="butt" />
<line x1="6.54" y1="137.50" x2="220.84" y2="137.50" fill="none" stroke="black" stroke-width="0.25px" stroke-linecap="butt" />
<line x1="6.54" y1="149.41" x2="220.84" y2="149.41" fill="none" stroke="black" stroke-width="0.25px" stroke-linecap="butt" />
<line x1="6.54" y1="161.31" x2="220.84" y2="161.31" fill="none" stroke="black" stroke-width="0.25px" stroke-linecap="butt" />
<line x1="6.54" y1="173.22" x2="220.84" y2="173.22" fill="none" stroke="black" stroke-width="0.25px" stroke-linecap="butt" />
<line x1="6.54" y1="185.13" x2="220.84" y2="185.13" fill="none" stroke="black" stroke-width="0.25px" stroke-linecap="butt" />
<line x1="6.54" y1="197.03" x2="220.84" y2="197.03" fill="none" stroke="black" stroke-width="0.25px" stroke-linecap="butt" />
<line x1="6.54" y1="208.94" x2="220.84" y2="208.94" fill="none" stroke="black" stroke-width="0.25px" stroke-linecap="butt" />
<line x1="6.54" y1="220.84" x2="220.84" y2="220.84" fill="none" stroke="black" stroke-width="0.87px" stroke-linecap="square" />
<circle cx="18.45" cy="30.35" r="6.01" fill="black"/>
<circle cx="18.45" cy="42.26" r="5.89" fill="white"/>
<circle cx="18.45" cy="42.26" r="5.89" fill="none" stroke="black" stroke-width="0.25px"/>
<circle cx="18.45" cy="185.13" r="6.01" fill="black"/>
<circle cx="30.35" cy="30.35" r="6.01" fill="black"/>
<circle cx="30.35" cy="42.26" r="5.89" fill="white"/>
<circle cx="30.35" cy="42.26" r="5.89" fill="none" stroke="black" stroke-width="0.25px"/>
<circle cx="30.35" cy="66.07" r="6.01" fill="black"/>
<circle cx="30.35" cy="101.79" r="5.89" fill="white"/>
<circle cx="30.35" cy="101.79" r="5.89" fill="none" stroke="black" stroke-width="0.25px"/>
<circle cx="30.35" cy="125.60" r="6.01" fill="black"/>
<circle cx="30.35" cy="161.31" r="6.01" fill="black"/>
<circle cx="30.35" cy="197.03" r="5.89" fill="white"/>
<circle cx="30.35" cy="197.03" r="5.89" fill="none" stroke="black" stroke-width="0.25px"/>
<circle cx="42.26" cy="30.35" r="6.01" fill="black"/>
<circle cx="42.26" cy="42.26" r="5.89" fill="white"/>
<circle cx="42.26" cy="42.26" r="5.89" fill="none" stroke="black" stroke-width="0.25px"/>
<circle cx="42.26" cy="77.98" r="5.89" fill="white"/>
<circle cx="42.26" cy="77.98" r="5.89" fill="none" stroke="black" stroke-width="0.25px"/>
<circle cx="42.26" cy="113.69" r="1.27" fill="black"/>
<circle cx="42.26" cy="185.13" r="5.89" fill="white"/>
<circle cx="42.26" cy="185.13" r="5.89" fill="none" stroke="black" stroke-width="0.25px"/>
<circle cx="54.17" cy="42.26" r="5.89" fill="white"/>
<circle cx="54.17" cy="42.26" r="5.89" fill="none" stroke="black" stroke-width="0.25px"/>
<circle cx="66.07" cy="18.45" r="6.01" fill="black"/>
<circle cx="66.07" cy="30.35" r="6.01" fill="black"/>
<circle cx="66.07" cy="42.26" r="5.89" fill="white"/>
<circle cx="66.07" cy="42.26" r="5.89" fill="none" stroke="black" stroke-width="0.25px"/>
<circle cx="66.07" cy="185.13" r="5.89" fill="white"/>
<circle cx="66.07" cy="185.13" r="5.89" fill="none" stroke="black" stroke-width="0.25px"/>
<circle cx="89.88" cy="30.35" r="5.89" fill="white"/>
<circle cx="89.88" cy="30.35" r="5.89" fill="none" stroke="black" stroke-width="0.25px"/>
<circle cx="113.69" cy="42.26" r="1.27" fill="black"/>
<circle cx="113.69" cy="113.69" r="1.27" fill="black"/>
<circle cx="113.69" cy="185.13" r="1.27" fill="black"/>
<circle cx="113.69" cy="197.03" r="5.89" fill="white"/>
<circle cx="113.69" cy="197.03" r="5.89" fill="none" stroke="black" stroke-width="0.25px"/>
<circle cx="149.41" cy="30.35" r="6.01" fill="black"/>
<circle cx="185.13" cy="42.26" r="6.01" fill="black"/>
<circle cx="185.13" cy="113.69" r="1.27" fill="black"/>
<circle cx="185.13" cy="185.13" r="1.27" fill="black"/>
<circle cx="185.13" cy="197.03" r="6.01" fill="black"/>
<circle cx="197.03" cy="173.22" r="6.01" fill="black"/>
<path d="
M20.24 27.58
C20.25 27.58 20.25 27.58 20.25 27.58
C20.25 27.58 20.25 27.58 20.25 27.58
C20.43 27.58 20.60 27.71 20.75 27.95
C20.92 28.22 21.00 28.60 21.00 29.08
C21.00 29.56 20.92 29.93 20.76 30.19
C20.62 30.42 20.44 30.54 20.24 30.54
C20.24 30.54 20.24 30.54 20.24 30.54
C20.24 30.54 20.23 30.54 20.23 30.54
C20.03 30.54 19.85 30.42 19.69 30.19
C19.53 29.94 19.44 29.59 19.44 29.15
C19.44 28.66 19.53 28.27 19.71 27.98
C19.87 27.72 20.05 27.58 20.24 27.58
Z
M16.76 26.58
L16.73 26.67
C16.64 26.97 16.47 27.28 16.24 27.59
C16.01 27.91 15.74 28.17 15.44 28.39
L15.38 28.43
L15.38 28.51
L15.38 29.35
L15.38 29.59
L15.38 29.59
L15.59 29.47
C15.78 29.37 16.00 29.21 16.23 29.00
C16.34 28.90 16.43 28.80 16.52 28.70
L16.52 28.70
L16.52 33.87
L16.52 34.01
L17.38 34.01
L17.38 33.87
L17.38 26.72
L17.38 26.58
Z
M20.18 26.58
C19.72 26.58 19.34 26.81 19.02 27.28
C18.72 27.74 18.57 28.35 18.57 29.12
C18.57 29.87 18.71 30.47 19.00 30.91
C19.31 31.37 19.68 31.59 20.11 31.60
C20.35 31.60 20.59 31.50 20.82 31.31
C20.90 31.24 20.98 31.15 21.06 31.06
L21.06 31.06
C21.04 31.45 20.99 31.81 20.91 32.12
C20.81 32.51 20.68 32.78 20.54 32.93
C20.42 33.06 20.28 33.13 20.13 33.13
C20.13 33.13 20.12 33.13 20.12 33.13
C20.12 33.13 20.12 33.13 20.12 33.13
C19.96 33.13 19.82 33.06 19.72 32.91
C19.61 32.74 19.53 32.48 19.49 32.13
L19.47 31.98
L19.33 32.00
L18.77 32.08
L18.64 32.10
L18.65 32.23
C18.70 32.84 18.85 33.30 19.11 33.62
C19.38 33.96 19.71 34.13 20.11 34.13
C20.46 34.13 20.78 33.99 21.06 33.72
C21.33 33.45 21.54 33.03 21.70 32.47
C21.85 31.92 21.93 31.14 21.93 30.15
C21.93 29.26 21.85 28.58 21.71 28.10
C21.57 27.61 21.36 27.23 21.09 26.97
C20.81 26.71 20.51 26.58 20.18 26.58
Z
" fill="white" fill-rule="nonzero" />
<path d="
M20.24 39.34
C20.45 39.34 20.63 39.45 20.78 39.66
C20.93 39.87 21.01 40.15 21.01 40.48
C21.01 40.80 20.93 41.07 20.78 41.27
C20.64 41.47 20.46 41.58 20.25 41.58
C20.03 41.58 19.85 41.47 19.70 41.27
C19.56 41.06 19.48 40.78 19.48 40.43
C19.48 40.12 19.56 39.86 19.71 39.65
C19.85 39.45 20.03 39.34 20.24 39.34
Z
M20.23 42.29
C20.50 42.29 20.72 42.42 20.91 42.69
C21.10 42.96 21.20 43.31 21.20 43.75
C21.20 44.18 21.10 44.53 20.92 44.79
C20.74 45.05 20.51 45.18 20.25 45.18
C19.99 45.18 19.76 45.04 19.57 44.78
C19.39 44.51 19.29 44.16 19.29 43.72
C19.29 43.30 19.38 42.96 19.57 42.69
C19.75 42.42 19.97 42.29 20.23 42.29
Z
M16.87 38.62
C16.77 38.93 16.60 39.25 16.36 39.58
C16.11 39.91 15.83 40.18 15.52 40.41
L15.52 41.26
C15.70 41.15 15.91 41.00 16.13 40.80
C16.35 40.59 16.53 40.40 16.66 40.20
L16.66 45.77
L17.24 45.77
L17.24 38.62
Z
M20.24 38.62
C19.85 38.62 19.53 38.79 19.27 39.13
C19.02 39.47 18.89 39.91 18.89 40.45
C18.89 40.81 18.95 41.11 19.07 41.36
C19.19 41.60 19.36 41.78 19.59 41.91
C19.31 42.02 19.10 42.23 18.94 42.54
C18.78 42.85 18.71 43.24 18.71 43.72
C18.71 44.37 18.85 44.90 19.15 45.30
C19.44 45.70 19.81 45.90 20.25 45.90
C20.68 45.90 21.05 45.70 21.34 45.30
C21.64 44.90 21.78 44.38 21.78 43.74
C21.78 43.28 21.71 42.90 21.56 42.59
C21.40 42.28 21.19 42.05 20.90 41.91
C21.14 41.78 21.31 41.59 21.42 41.36
C21.54 41.12 21.59 40.83 21.59 40.48
C21.59 39.94 21.46 39.49 21.21 39.14
C20.95 38.80 20.63 38.62 20.24 38.62
Z
" fill="black" fill-rule="nonzero" />
<path d="
M16.65 181.35
C16.16 181.35 15.77 181.54 15.47 181.92
C15.19 182.29 15.02 182.83 14.98 183.54
L14.97 183.67
L15.10 183.69
L15.69 183.78
L15.85 183.80
L15.85 183.64
C15.85 183.21 15.93 182.88 16.09 182.66
C16.23 182.46 16.41 182.35 16.62 182.35
C16.62 182.35 16.62 182.35 16.63 182.35
C16.63 182.35 16.63 182.35 16.63 182.35
C16.83 182.35 17.00 182.45 17.14 182.64
C17.29 182.84 17.37 183.11 17.37 183.44
C17.37 183.73 17.29 184.05 17.13 184.40
C16.97 184.75 16.62 185.26 16.10 185.92
C15.63 186.50 15.31 187.01 15.13 187.44
C14.95 187.88 14.86 188.28 14.87 188.64
L14.87 188.78
L18.24 188.78
L18.24 188.64
L18.24 187.80
L18.24 187.66
L16.03 187.66
C16.07 187.57 16.12 187.48 16.17 187.40
C16.27 187.24 16.49 186.95 16.83 186.52
C17.37 185.81 17.74 185.25 17.94 184.82
C18.14 184.39 18.24 183.93 18.24 183.46
C18.24 182.92 18.11 182.44 17.85 182.02
C17.58 181.57 17.17 181.35 16.65 181.35
Z
M20.18 181.35
C19.78 181.35 19.43 181.52 19.15 181.86
C18.88 182.20 18.71 182.68 18.63 183.32
L18.62 183.44
L18.73 183.47
L19.31 183.63
L19.47 183.67
L19.48 183.50
C19.52 183.10 19.61 182.80 19.75 182.61
C19.87 182.43 20.02 182.35 20.19 182.35
C20.19 182.35 20.19 182.35 20.19 182.35
C20.19 182.35 20.19 182.35 20.19 182.35
C20.36 182.35 20.50 182.43 20.62 182.59
C20.75 182.77 20.81 183.01 20.81 183.31
C20.81 183.64 20.73 183.90 20.58 184.09
C20.43 184.27 20.24 184.37 20.01 184.37
L20.01 184.37
L19.93 184.36
L19.78 184.34
L19.77 184.49
L19.70 185.25
L19.68 185.48
L19.90 185.40
C20.04 185.34 20.16 185.31 20.25 185.31
C20.25 185.31 20.25 185.31 20.25 185.31
C20.25 185.31 20.25 185.31 20.25 185.31
C20.46 185.31 20.63 185.42 20.78 185.63
C20.94 185.86 21.02 186.16 21.02 186.55
C21.02 186.96 20.93 187.29 20.76 187.54
C20.60 187.78 20.41 187.90 20.20 187.90
C20.20 187.90 20.19 187.90 20.19 187.90
C20.19 187.90 20.19 187.90 20.19 187.90
C20.00 187.90 19.84 187.80 19.72 187.61
C19.58 187.40 19.49 187.07 19.43 186.62
L19.41 186.47
L19.26 186.50
L18.68 186.62
L18.56 186.64
L18.57 186.77
C18.61 187.41 18.78 187.92 19.07 188.31
C19.38 188.71 19.76 188.91 20.20 188.91
C20.68 188.91 21.09 188.68 21.42 188.22
C21.75 187.78 21.91 187.22 21.91 186.53
C21.91 186.21 21.87 185.92 21.79 185.66
C21.71 185.39 21.61 185.18 21.47 185.01
C21.38 184.90 21.28 184.81 21.16 184.75
L21.16 184.75
C21.30 184.61 21.41 184.45 21.50 184.25
C21.62 183.98 21.68 183.68 21.68 183.33
C21.68 182.77 21.54 182.30 21.26 181.93
C20.97 181.54 20.61 181.35 20.18 181.35
Z
" fill="white" fill-rule="nonzero" />
<path d="
M28.67 26.57
L28.64 26.67
C28.54 26.97 28.38 27.27 28.15 27.59
C27.91 27.90 27.65 28.17 27.34 28.39
L27.28 28.43
L27.28 28.50
L27.28 29.35
L27.28 29.59
L27.49 29.47
C27.69 29.36 27.90 29.20 28.13 28.99
C28.24 28.90 28.34 28.80 28.43 28.70
L28.43 28.70
L28.43 33.87
L28.43 34.01
L29.29 34.01
L29.29 33.87
L29.29 26.72
L29.29 26.57
Z
M32.09 26.57
C31.68 26.57 31.34 26.75 31.06 27.09
C30.79 27.42 30.61 27.91 30.54 28.54
L30.52 28.67
L30.64 28.70
L31.21 28.85
L31.37 28.90
L31.39 28.73
C31.43 28.32 31.52 28.03 31.65 27.83
C31.77 27.66 31.92 27.58 32.09 27.58
C32.09 27.58 32.09 27.58 32.10 27.58
C32.10 27.58 32.10 27.58 32.10 27.58
C32.26 27.58 32.40 27.66 32.52 27.82
C32.65 28.00 32.72 28.24 32.72 28.54
C32.72 28.87 32.64 29.13 32.48 29.32
C32.34 29.50 32.15 29.59 31.91 29.60
L31.91 29.60
L31.83 29.59
L31.69 29.57
L31.67 29.72
L31.61 30.48
L31.59 30.71
L31.59 30.71
L31.80 30.63
C31.95 30.57 32.06 30.54 32.15 30.54
C32.15 30.54 32.15 30.54 32.15 30.54
C32.15 30.54 32.16 30.54 32.16 30.54
C32.36 30.54 32.54 30.65 32.69 30.86
C32.85 31.09 32.93 31.39 32.93 31.78
C32.93 32.19 32.84 32.52 32.66 32.77
C32.50 33.01 32.31 33.13 32.10 33.13
C32.10 33.13 32.10 33.13 32.10 33.13
C32.10 33.13 32.10 33.13 32.10 33.13
C31.91 33.13 31.75 33.03 31.63 32.84
C31.49 32.63 31.39 32.30 31.33 31.85
L31.31 31.70
L31.17 31.73
L30.59 31.85
L30.47 31.87
L30.48 32.00
C30.52 32.64 30.69 33.15 30.98 33.53
C31.29 33.93 31.66 34.13 32.11 34.13
C32.58 34.13 32.99 33.91 33.33 33.45
C33.66 33.01 33.82 32.45 33.82 31.76
C33.82 31.44 33.78 31.15 33.70 30.89
C33.62 30.62 33.51 30.40 33.38 30.24
C33.29 30.13 33.19 30.04 33.07 29.97
L33.07 29.97
C33.21 29.84 33.32 29.67 33.41 29.48
C33.53 29.21 33.59 28.91 33.59 28.56
C33.59 28.00 33.45 27.53 33.16 27.15
C32.87 26.77 32.51 26.57 32.09 26.57
Z
" fill="white" fill-rule="nonzero" />
<path d="
M32.45 40.12
L32.45 43.33
L30.99 43.33
L32.45 40.12
Z
M28.77 38.68
C28.67 38.99 28.50 39.31 28.26 39.64
C28.02 39.97 27.74 40.24 27.42 40.47
L27.42 41.32
C27.61 41.21 27.81 41.06 28.04 40.86
C28.26 40.66 28.44 40.46 28.57 40.26
L28.57 45.84
L29.15 45.84
L29.15 38.68
Z
M32.56 38.71
L30.43 43.33
L30.43 44.13
L32.45 44.13
L32.45 45.84
L33.03 45.84
L33.03 44.13
L33.66 44.13
L33.66 43.33
L33.03 43.33
L33.03 38.71
Z
" fill="black" fill-rule="nonzero" />
<path d="
M28.67 62.35
L28.64 62.45
C28.54 62.75 28.38 63.05 28.15 63.37
C27.91 63.68 27.65 63.95 27.34 64.17
L27.28 64.21
L27.28 64.28
L27.28 65.13
L27.28 65.37
L27.49 65.25
C27.69 65.14 27.90 64.98 28.13 64.77
C28.24 64.68 28.34 64.58 28.43 64.48
L28.43 64.48
L28.43 69.65
L28.43 69.79
L29.29 69.79
L29.29 69.65
L29.29 62.49
L29.29 62.35
Z
M32.30 62.35
L32.27 62.45
C32.17 62.75 32.01 63.05 31.78 63.37
C31.54 63.68 31.28 63.95 30.97 64.17
L30.91 64.21
L30.91 64.28
L30.91 65.13
L30.91 65.37
L31.12 65.25
C31.32 65.14 31.53 64.98 31.76 64.77
C31.87 64.68 31.97 64.58 32.06 64.48
L32.06 64.48
L32.06 69.65
L32.06 69.79
L32.92 69.79
L32.92 69.65
L32.92 62.49
L32.92 62.35
Z
" fill="white" fill-rule="nonzero" />
<path d="
M28.55 98.21
C28.11 98.21 27.76 98.38 27.49 98.73
C27.22 99.07 27.07 99.59 27.03 100.27
L27.62 100.36
C27.62 99.90 27.70 99.55 27.87 99.30
C28.05 99.06 28.26 98.94 28.53 98.94
C28.78 98.94 28.99 99.05 29.16 99.28
C29.33 99.51 29.41 99.80 29.41 100.16
C29.41 100.48 29.33 100.82 29.16 101.18
C29.00 101.55 28.65 102.06 28.11 102.73
C27.65 103.30 27.34 103.80 27.17 104.22
C26.99 104.64 26.91 105.02 26.92 105.36
L30.01 105.36
L30.01 104.52
L27.71 104.52
C27.78 104.36 27.86 104.20 27.96 104.05
C28.06 103.89 28.28 103.59 28.62 103.15
C29.16 102.46 29.52 101.90 29.71 101.49
C29.90 101.07 30.00 100.64 30.00 100.18
C30.00 99.67 29.88 99.22 29.63 98.81
C29.39 98.41 29.03 98.21 28.55 98.21
Z
M32.18 98.21
C31.74 98.21 31.39 98.38 31.12 98.73
C30.85 99.07 30.70 99.59 30.66 100.27
L31.25 100.36
C31.25 99.90 31.33 99.55 31.50 99.30
C31.68 99.06 31.89 98.94 32.16 98.94
C32.41 98.94 32.62 99.05 32.79 99.28
C32.96 99.51 33.04 99.80 33.04 100.16
C33.04 100.48 32.96 100.82 32.79 101.18
C32.63 101.55 32.28 102.06 31.74 102.73
C31.28 103.30 30.97 103.80 30.80 104.22
C30.62 104.64 30.54 105.02 30.55 105.36
L33.64 105.36
L33.64 104.52
L31.35 104.52
C31.41 104.36 31.49 104.20 31.59 104.05
C31.69 103.89 31.91 103.59 32.25 103.15
C32.79 102.46 33.15 101.90 33.34 101.49
C33.53 101.07 33.63 100.64 33.63 100.18
C33.63 99.67 33.51 99.22 33.26 98.81
C33.02 98.41 32.66 98.21 32.18 98.21
Z
" fill="black" fill-rule="nonzero" />
<path d="
M28.55 121.88
C28.07 121.88 27.68 122.07 27.38 122.45
C27.09 122.82 26.93 123.36 26.89 124.07
L26.88 124.20
L27.01 124.22
L27.60 124.31
L27.76 124.34
L27.76 124.17
C27.76 123.74 27.84 123.42 27.99 123.20
C28.13 122.99 28.31 122.89 28.53 122.89
C28.53 122.89 28.53 122.89 28.53 122.89
C28.53 122.89 28.53 122.89 28.53 122.89
C28.73 122.89 28.91 122.98 29.05 123.17
C29.20 123.38 29.27 123.64 29.27 123.98
C29.27 124.27 29.19 124.59 29.04 124.93
C28.87 125.29 28.53 125.79 28.00 126.45
C27.53 127.04 27.21 127.54 27.03 127.98
C26.85 128.42 26.77 128.82 26.78 129.18
L26.78 129.32
L30.15 129.32
L30.15 129.17
L30.15 128.33
L30.15 128.19
L27.93 128.19
C27.98 128.11 28.02 128.02 28.08 127.93
C28.18 127.78 28.39 127.48 28.73 127.05
C29.28 126.35 29.65 125.78 29.84 125.36
C30.04 124.92 30.14 124.47 30.14 123.99
C30.14 123.46 30.01 122.98 29.75 122.55
C29.48 122.11 29.08 121.88 28.55 121.88
Z
M32.30 121.88
L32.27 121.98
C32.17 122.28 32.01 122.58 31.78 122.90
C31.54 123.21 31.28 123.48 30.97 123.70
L30.91 123.74
L30.91 123.81
L30.91 124.66
L30.91 124.90
L31.12 124.78
C31.32 124.67 31.53 124.51 31.76 124.30
C31.87 124.20 31.97 124.10 32.06 124.01
L32.06 124.01
L32.06 129.17
L32.06 129.32
L32.92 129.32
L32.92 129.17
L32.92 122.02
L32.92 121.88
Z
" fill="white" fill-rule="nonzero" />
<path d="
M30.33 158.58
C30.33 158.58 30.33 158.58 30.33 158.58
C30.34 158.58 30.34 158.58 30.34 158.58
C30.58 158.58 30.80 158.70 31.00 158.96
C31.20 159.22 31.30 159.58 31.30 160.05
C31.30 160.53 31.20 160.89 31.01 161.14
C30.82 161.38 30.59 161.50 30.32 161.50
C30.32 161.50 30.32 161.50 30.32 161.50
C30.32 161.50 30.32 161.50 30.32 161.50
C30.05 161.50 29.81 161.38 29.61 161.14
C29.41 160.89 29.31 160.55 29.31 160.13
C29.31 159.65 29.41 159.27 29.63 158.99
C29.84 158.71 30.08 158.58 30.33 158.58
Z
M30.25 157.58
C29.70 157.58 29.24 157.81 28.86 158.27
C28.48 158.72 28.29 159.33 28.29 160.10
C28.29 160.85 28.47 161.44 28.84 161.88
C29.21 162.32 29.65 162.54 30.16 162.54
C30.45 162.54 30.73 162.45 31.00 162.27
C31.14 162.18 31.26 162.07 31.37 161.95
L31.37 161.95
C31.35 162.36 31.29 162.73 31.18 163.05
C31.06 163.44 30.91 163.70 30.74 163.85
C30.57 163.99 30.38 164.05 30.18 164.05
C30.18 164.05 30.18 164.05 30.18 164.05
C30.18 164.05 30.18 164.05 30.18 164.05
C29.96 164.05 29.78 163.98 29.65 163.83
C29.51 163.66 29.41 163.41 29.36 163.06
L29.34 162.93
L29.21 162.94
L28.52 163.02
L28.38 163.03
L28.40 163.17
C28.46 163.77 28.65 164.23 28.97 164.56
C29.29 164.88 29.69 165.05 30.17 165.05
C30.59 165.05 30.97 164.92 31.30 164.65
C31.64 164.38 31.90 163.97 32.09 163.41
C32.28 162.86 32.37 162.10 32.37 161.12
C32.37 160.23 32.28 159.55 32.11 159.07
C31.93 158.59 31.67 158.22 31.34 157.96
C31.01 157.71 30.64 157.58 30.25 157.58
Z
" fill="white" fill-rule="nonzero" />
<path d="
M32.45 194.89
L32.45 198.10
L30.99 198.10
L32.45 194.89
Z
M28.55 193.46
C28.11 193.46 27.76 193.63 27.49 193.97
C27.22 194.32 27.07 194.83 27.03 195.52
L27.62 195.61
C27.62 195.15 27.70 194.79 27.87 194.55
C28.05 194.30 28.26 194.18 28.53 194.18
C28.78 194.18 28.99 194.29 29.16 194.52
C29.33 194.75 29.41 195.05 29.41 195.41
C29.41 195.72 29.33 196.06 29.16 196.43
C29.00 196.79 28.65 197.31 28.11 197.97
C27.65 198.55 27.34 199.04 27.17 199.47
C26.99 199.89 26.91 200.27 26.92 200.61
L30.01 200.61
L30.01 199.77
L27.71 199.77
C27.78 199.61 27.86 199.45 27.96 199.29
C28.06 199.13 28.28 198.83 28.62 198.40
C29.16 197.70 29.52 197.15 29.71 196.73
C29.90 196.32 30.00 195.88 30.00 195.43
C30.00 194.92 29.88 194.46 29.63 194.06
C29.39 193.66 29.03 193.46 28.55 193.46
Z
M32.56 193.48
L30.43 198.10
L30.43 198.90
L32.45 198.90
L32.45 200.61
L33.03 200.61
L33.03 198.90
L33.66 198.90
L33.66 198.10
L33.03 198.10
L33.03 193.48
Z
" fill="black" fill-rule="nonzero" />
<path d="
M43.47 29.24
L43.47 29.24
L43.47 29.24
C43.47 29.24 43.47 29.24 43.47 29.24
Z
M40.57 26.58
L40.54 26.67
C40.45 26.97 40.29 27.28 40.05 27.59
C39.82 27.91 39.55 28.17 39.25 28.39
L39.19 28.43
L39.19 28.51
L39.19 29.35
L39.19 29.59
L39.19 29.59
L39.40 29.47
C39.59 29.37 39.81 29.21 40.04 29.00
C40.15 28.90 40.25 28.80 40.33 28.70
L40.33 28.70
L40.33 33.87
L40.33 34.01
L41.19 34.01
L41.19 33.87
L41.19 26.72
L41.19 26.58
Z
M42.95 26.70
L42.94 26.83
L42.48 30.48
L42.46 30.62
L42.59 30.64
L43.13 30.75
L43.25 30.77
L43.29 30.66
C43.37 30.47 43.48 30.32 43.61 30.21
C43.73 30.11 43.87 30.06 44.01 30.06
C44.01 30.06 44.01 30.06 44.01 30.06
C44.01 30.06 44.01 30.06 44.01 30.06
C44.25 30.06 44.45 30.18 44.61 30.42
C44.78 30.68 44.87 31.04 44.87 31.52
C44.87 32.04 44.78 32.44 44.60 32.73
C44.43 33.00 44.24 33.13 44.02 33.13
C44.01 33.13 44.01 33.13 44.01 33.13
C44.01 33.13 44.01 33.13 44.01 33.13
C43.84 33.13 43.69 33.04 43.55 32.85
C43.40 32.65 43.31 32.34 43.26 31.91
L43.25 31.77
L43.10 31.79
L42.50 31.86
L42.37 31.88
L42.38 32.01
C42.42 32.66 42.59 33.18 42.89 33.55
C43.19 33.94 43.57 34.13 44.02 34.13
C44.56 34.13 44.99 33.86 45.31 33.32
C45.61 32.80 45.76 32.18 45.76 31.45
C45.76 30.72 45.61 30.13 45.30 29.69
C44.98 29.23 44.60 29.01 44.16 29.01
C43.92 29.01 43.69 29.08 43.47 29.24
L43.47 29.24
L43.66 27.82
L45.54 27.82
L45.54 27.68
L45.54 26.84
L45.54 26.70
Z
" fill="white" fill-rule="nonzero" />
<path d="
M42.27 38.73
C41.73 38.73 41.30 38.90 40.97 39.24
C40.64 39.58 40.44 40.09 40.39 40.76
L41.12 40.85
C41.12 40.40 41.23 40.05 41.44 39.81
C41.65 39.56 41.92 39.44 42.25 39.44
C42.56 39.44 42.82 39.56 43.03 39.78
C43.23 40.01 43.34 40.30 43.34 40.66
C43.34 40.97 43.24 41.30 43.03 41.66
C42.83 42.02 42.39 42.53 41.73 43.19
C41.17 43.76 40.78 44.25 40.56 44.66
C40.35 45.08 40.25 45.46 40.26 45.79
L44.07 45.79
L44.07 44.96
L41.24 44.96
C41.32 44.80 41.42 44.65 41.54 44.49
C41.67 44.33 41.94 44.04 42.36 43.61
C43.02 42.92 43.47 42.38 43.71 41.96
C43.95 41.55 44.06 41.12 44.06 40.68
C44.06 40.17 43.91 39.72 43.61 39.32
C43.31 38.93 42.86 38.73 42.27 38.73
Z
" fill="black" fill-rule="nonzero" />
<path d="
M44.02 75.06
C44.30 75.06 44.53 75.26 44.71 75.65
C44.89 76.04 44.98 76.82 44.98 77.98
C44.98 79.13 44.89 79.90 44.71 80.30
C44.54 80.69 44.32 80.89 44.06 80.89
C43.78 80.89 43.55 80.70 43.37 80.30
C43.20 79.91 43.11 79.13 43.11 77.98
C43.11 76.83 43.19 76.06 43.37 75.66
C43.54 75.26 43.76 75.06 44.02 75.06
Z
M40.46 74.34
C40.02 74.34 39.67 74.51 39.40 74.86
C39.13 75.20 38.97 75.72 38.93 76.40
L39.52 76.49
C39.52 76.03 39.61 75.68 39.78 75.43
C39.95 75.19 40.17 75.06 40.44 75.06
C40.69 75.06 40.89 75.18 41.06 75.41
C41.23 75.63 41.32 75.93 41.32 76.29
C41.32 76.61 41.24 76.95 41.07 77.31
C40.90 77.67 40.55 78.19 40.02 78.86
C39.56 79.43 39.24 79.93 39.07 80.35
C38.90 80.77 38.82 81.15 38.82 81.49
L41.91 81.49
L41.91 80.65
L39.62 80.65
C39.68 80.49 39.76 80.33 39.86 80.17
C39.96 80.02 40.18 79.72 40.53 79.28
C41.06 78.59 41.43 78.03 41.62 77.62
C41.81 77.20 41.91 76.77 41.91 76.31
C41.91 75.80 41.78 75.34 41.54 74.94
C41.29 74.54 40.93 74.34 40.46 74.34
Z
M44.05 74.34
C43.54 74.34 43.16 74.65 42.91 75.26
C42.65 75.88 42.52 76.78 42.52 77.98
C42.52 79.31 42.66 80.25 42.95 80.80
C43.23 81.34 43.59 81.61 44.04 81.61
C44.54 81.61 44.93 81.30 45.18 80.69
C45.44 80.07 45.57 79.17 45.57 77.98
C45.57 76.65 45.41 75.69 45.10 75.09
C44.84 74.59 44.49 74.34 44.05 74.34
Z
" fill="black" fill-rule="nonzero" />
<path d="
M42.61 182.99
L42.61 186.17
L40.81 186.17
L42.61 182.99
Z
M42.74 181.61
L40.11 186.17
L40.11 186.96
L42.61 186.96
L42.61 188.64
L43.32 188.64
L43.32 186.96
L44.10 186.96
L44.10 186.17
L43.32 186.17
L43.32 181.61
Z
" fill="black" fill-rule="nonzero" />
<path d="
M55.99 41.93
C56.24 41.93 56.46 42.07 56.63 42.34
C56.81 42.62 56.90 43.02 56.90 43.52
C56.90 44.04 56.81 44.44 56.63 44.73
C56.45 45.03 56.25 45.18 56.03 45.18
C55.77 45.18 55.54 45.02 55.35 44.71
C55.16 44.40 55.06 43.98 55.06 43.47
C55.06 42.99 55.15 42.62 55.34 42.34
C55.52 42.07 55.74 41.93 55.99 41.93
Z
M52.58 38.62
C52.48 38.93 52.31 39.25 52.07 39.58
C51.83 39.91 51.55 40.18 51.23 40.41
L51.23 41.26
C51.42 41.15 51.63 41.00 51.85 40.80
C52.07 40.59 52.25 40.40 52.38 40.20
L52.38 45.77
L52.96 45.77
L52.96 38.62
Z
M56.07 38.62
C55.58 38.62 55.18 38.92 54.87 39.50
C54.56 40.08 54.40 41.07 54.40 42.44
C54.40 43.68 54.55 44.57 54.86 45.10
C55.16 45.63 55.55 45.90 56.02 45.90
C56.28 45.90 56.52 45.80 56.74 45.62
C56.96 45.43 57.14 45.15 57.28 44.76
C57.41 44.37 57.48 43.94 57.48 43.47
C57.48 42.76 57.35 42.20 57.07 41.78
C56.79 41.36 56.47 41.15 56.10 41.15
C55.88 41.15 55.67 41.23 55.47 41.39
C55.27 41.56 55.10 41.79 54.97 42.10
C54.97 41.23 55.06 40.57 55.23 40.12
C55.44 39.60 55.70 39.34 56.04 39.34
C56.25 39.34 56.44 39.46 56.59 39.68
C56.70 39.84 56.78 40.10 56.83 40.46
L57.40 40.40
C57.35 39.82 57.21 39.38 56.97 39.08
C56.73 38.77 56.43 38.62 56.07 38.62
Z
" fill="black" fill-rule="nonzero" />
<path d="
M64.38 14.73
L64.35 14.83
C64.26 15.13 64.10 15.43 63.86 15.75
C63.63 16.06 63.36 16.33 63.06 16.55
L63.00 16.59
L63.00 16.66
L63.00 17.51
L63.00 17.75
L63.21 17.63
C63.41 17.52 63.62 17.36 63.85 17.15
C63.96 17.05 64.06 16.95 64.14 16.86
L64.14 16.86
L64.14 22.02
L64.14 22.17
L65.00 22.17
L65.00 22.02
L65.00 14.87
L65.00 14.73
Z
M66.23 14.85
L66.23 14.99
L66.23 15.83
L66.23 15.98
L68.41 15.98
C68.16 16.45 67.93 16.99 67.71 17.62
C67.46 18.35 67.26 19.11 67.11 19.91
C66.97 20.72 66.89 21.42 66.88 22.02
L66.88 22.17
L67.61 22.17
L67.75 22.17
L67.76 22.03
C67.81 20.89 68.00 19.74 68.34 18.57
C68.68 17.41 69.07 16.47 69.51 15.75
L69.54 15.71
L69.54 15.67
L69.54 14.99
L69.54 14.85
Z
" fill="white" fill-rule="nonzero" />
<path d="
M64.06 26.74
L64.06 26.88
L64.06 27.71
L64.06 27.85
L66.75 27.85
C66.44 28.31 66.16 28.85 65.89 29.47
C65.57 30.19 65.33 30.94 65.15 31.74
C64.97 32.53 64.87 33.23 64.86 33.82
L64.86 33.97
L65.73 33.97
L65.87 33.97
L65.88 33.83
C65.94 32.71 66.18 31.57 66.60 30.43
C67.01 29.28 67.50 28.35 68.04 27.64
L68.07 27.60
L68.07 27.55
L68.07 26.88
L68.07 26.74
Z
" fill="white" fill-rule="nonzero" />
<path d="
M64.49 38.68
C64.39 38.99 64.22 39.31 63.98 39.64
C63.74 39.97 63.46 40.24 63.14 40.47
L63.14 41.32
C63.33 41.21 63.53 41.06 63.75 40.86
C63.98 40.66 64.15 40.46 64.29 40.26
L64.29 45.84
L64.86 45.84
L64.86 38.68
Z
M67.90 38.68
C67.46 38.68 67.11 38.86 66.84 39.20
C66.57 39.55 66.42 40.06 66.37 40.74
L66.96 40.84
C66.96 40.38 67.05 40.02 67.22 39.78
C67.39 39.53 67.61 39.41 67.88 39.41
C68.13 39.41 68.34 39.52 68.51 39.75
C68.68 39.98 68.76 40.27 68.76 40.64
C68.76 40.95 68.68 41.29 68.51 41.65
C68.35 42.02 67.99 42.53 67.46 43.20
C67.00 43.78 66.68 44.27 66.51 44.69
C66.34 45.11 66.26 45.50 66.26 45.84
L69.35 45.84
L69.35 44.99
L67.06 44.99
C67.12 44.84 67.20 44.68 67.30 44.52
C67.40 44.36 67.63 44.06 67.97 43.62
C68.50 42.93 68.87 42.38 69.06 41.96
C69.25 41.54 69.35 41.11 69.35 40.66
C69.35 40.14 69.22 39.69 68.98 39.29
C68.73 38.88 68.37 38.68 67.90 38.68
Z
" fill="black" fill-rule="nonzero" />
<path d="
M67.83 182.21
C68.11 182.21 68.34 182.41 68.52 182.80
C68.70 183.19 68.79 183.97 68.79 185.13
C68.79 186.27 68.70 187.05 68.52 187.45
C68.35 187.84 68.13 188.04 67.87 188.04
C67.59 188.04 67.36 187.85 67.18 187.45
C67.01 187.06 66.92 186.28 66.92 185.13
C66.92 183.98 67.01 183.21 67.18 182.81
C67.36 182.41 67.57 182.21 67.83 182.21
Z
M64.49 181.49
C64.39 181.80 64.22 182.12 63.98 182.45
C63.74 182.77 63.46 183.05 63.14 183.28
L63.14 184.12
C63.33 184.02 63.53 183.87 63.75 183.66
C63.98 183.46 64.15 183.26 64.29 183.07
L64.29 188.64
L64.86 188.64
L64.86 181.49
Z
M67.86 181.49
C67.36 181.49 66.98 181.80 66.72 182.41
C66.46 183.03 66.33 183.93 66.33 185.13
C66.33 186.46 66.47 187.40 66.76 187.95
C67.04 188.49 67.41 188.76 67.85 188.76
C68.36 188.76 68.74 188.45 68.99 187.84
C69.25 187.22 69.38 186.32 69.38 185.13
C69.38 183.80 69.22 182.84 68.91 182.24
C68.66 181.74 68.30 181.49 67.86 181.49
Z
" fill="black" fill-rule="nonzero" />
<path d="
M89.85 27.47
C90.11 27.47 90.33 27.58 90.52 27.79
C90.70 28.00 90.80 28.27 90.80 28.60
C90.80 28.92 90.71 29.18 90.52 29.38
C90.34 29.58 90.12 29.68 89.86 29.68
C89.60 29.68 89.37 29.58 89.19 29.37
C89.01 29.17 88.92 28.89 88.92 28.55
C88.92 28.24 89.01 27.98 89.19 27.78
C89.38 27.57 89.60 27.47 89.85 27.47
Z
M89.84 30.39
C90.17 30.39 90.45 30.52 90.68 30.78
C90.92 31.05 91.03 31.39 91.03 31.83
C91.03 32.25 90.92 32.60 90.69 32.85
C90.47 33.11 90.19 33.24 89.86 33.24
C89.54 33.24 89.26 33.10 89.03 32.84
C88.80 32.58 88.68 32.23 88.68 31.80
C88.68 31.38 88.79 31.04 89.02 30.78
C89.25 30.52 89.52 30.39 89.84 30.39
Z
M89.85 26.76
C89.37 26.76 88.98 26.93 88.66 27.27
C88.35 27.60 88.19 28.04 88.19 28.57
C88.19 28.93 88.26 29.22 88.41 29.46
C88.55 29.70 88.77 29.88 89.05 30.01
C88.71 30.12 88.44 30.33 88.25 30.63
C88.05 30.94 87.96 31.33 87.96 31.80
C87.96 32.44 88.14 32.96 88.50 33.35
C88.86 33.75 89.32 33.95 89.86 33.95
C90.40 33.95 90.85 33.75 91.21 33.35
C91.58 32.96 91.76 32.45 91.76 31.82
C91.76 31.37 91.66 30.99 91.48 30.68
C91.29 30.37 91.02 30.15 90.67 30.01
C90.96 29.88 91.17 29.70 91.31 29.46
C91.45 29.23 91.52 28.94 91.52 28.60
C91.52 28.06 91.36 27.62 91.05 27.28
C90.73 26.93 90.33 26.76 89.85 26.76
Z
" fill="black" fill-rule="nonzero" />
<path d="
M113.70 196.70
C114.02 196.70 114.28 196.84 114.50 197.12
C114.72 197.39 114.83 197.78 114.83 198.28
C114.83 198.79 114.72 199.19 114.50 199.48
C114.28 199.77 114.03 199.91 113.75 199.91
C113.43 199.91 113.16 199.76 112.92 199.45
C112.68 199.14 112.56 198.73 112.56 198.22
C112.56 197.76 112.67 197.39 112.90 197.11
C113.13 196.84 113.40 196.70 113.70 196.70
Z
M113.81 193.44
C113.20 193.44 112.71 193.73 112.32 194.31
C111.93 194.88 111.74 195.85 111.74 197.21
C111.74 198.44 111.93 199.31 112.31 199.84
C112.68 200.36 113.16 200.62 113.75 200.62
C114.07 200.62 114.36 200.53 114.63 200.35
C114.90 200.17 115.12 199.89 115.29 199.50
C115.46 199.12 115.55 198.69 115.55 198.22
C115.55 197.53 115.38 196.98 115.04 196.56
C114.70 196.15 114.30 195.94 113.84 195.94
C113.57 195.94 113.31 196.02 113.06 196.18
C112.81 196.34 112.61 196.57 112.44 196.88
C112.45 196.01 112.56 195.36 112.77 194.92
C113.02 194.41 113.35 194.15 113.76 194.15
C114.03 194.15 114.26 194.26 114.45 194.49
C114.58 194.64 114.68 194.90 114.74 195.26
L115.45 195.19
C115.39 194.62 115.21 194.19 114.91 193.89
C114.61 193.59 114.25 193.44 113.81 193.44
Z
" fill="black" fill-rule="nonzero" />
<path d="
M150.62 29.24
L150.62 29.24
L150.62 29.24
C150.62 29.24 150.62 29.24 150.62 29.24
Z
M147.61 26.58
C147.12 26.58 146.73 26.77 146.43 27.15
C146.15 27.52 145.98 28.06 145.94 28.77
L145.93 28.90
L146.06 28.92
L146.65 29.01
L146.81 29.04
L146.81 28.87
C146.81 28.44 146.89 28.11 147.05 27.89
C147.19 27.69 147.37 27.58 147.58 27.58
C147.58 27.58 147.59 27.58 147.59 27.58
C147.59 27.58 147.59 27.58 147.59 27.58
C147.79 27.58 147.96 27.68 148.10 27.87
C148.25 28.07 148.33 28.34 148.33 28.67
C148.33 28.96 148.25 29.28 148.09 29.63
C147.93 29.98 147.58 30.49 147.06 31.15
C146.59 31.73 146.27 32.24 146.09 32.67
C145.91 33.11 145.82 33.51 145.83 33.87
L145.83 34.01
L149.20 34.01
L149.20 33.87
L149.20 33.03
L149.20 32.89
L146.99 32.89
C147.03 32.80 147.08 32.71 147.13 32.63
C147.23 32.47 147.45 32.18 147.79 31.75
C148.33 31.04 148.70 30.48 148.90 30.05
C149.10 29.62 149.20 29.16 149.20 28.69
C149.20 28.15 149.07 27.67 148.81 27.25
C148.54 26.80 148.13 26.58 147.61 26.58
Z
M150.10 26.70
L150.08 26.83
L149.63 30.48
L149.61 30.62
L149.74 30.64
L150.28 30.75
L150.40 30.77
L150.44 30.66
C150.52 30.47 150.63 30.32 150.76 30.21
C150.88 30.11 151.02 30.06 151.16 30.06
C151.16 30.06 151.16 30.06 151.16 30.06
C151.16 30.06 151.16 30.06 151.16 30.06
C151.40 30.06 151.60 30.18 151.76 30.42
C151.93 30.68 152.02 31.04 152.02 31.52
C152.02 32.04 151.93 32.44 151.75 32.73
C151.58 33.00 151.38 33.13 151.17 33.13
C151.16 33.13 151.16 33.13 151.16 33.13
C151.16 33.13 151.16 33.13 151.16 33.13
C150.99 33.13 150.84 33.04 150.70 32.85
C150.55 32.65 150.46 32.34 150.41 31.91
L150.40 31.77
L150.25 31.79
L149.65 31.86
L149.52 31.88
L149.53 32.01
C149.57 32.66 149.74 33.18 150.03 33.55
C150.34 33.94 150.72 34.13 151.17 34.13
C151.71 34.13 152.14 33.86 152.46 33.32
C152.76 32.80 152.91 32.18 152.91 31.45
C152.91 30.72 152.76 30.13 152.45 29.69
C152.13 29.23 151.75 29.01 151.31 29.01
C151.07 29.01 150.84 29.08 150.62 29.24
L150.62 29.24
L150.81 27.82
L152.69 27.82
L152.69 27.68
L152.69 26.84
L152.69 26.70
Z
" fill="white" fill-rule="nonzero" />
<path d="
M185.32 38.59
L185.28 38.68
C185.17 38.97 184.97 39.27 184.68 39.58
C184.39 39.89 184.06 40.15 183.68 40.37
L183.61 40.41
L183.61 40.49
L183.61 41.33
L183.61 41.55
L183.81 41.46
C184.05 41.35 184.31 41.20 184.59 40.99
C184.75 40.87 184.90 40.75 185.02 40.64
L185.02 40.64
L185.02 45.79
L185.02 45.93
L186.02 45.93
L186.02 45.79
L186.02 38.73
L186.02 38.59
Z
" fill="white" fill-rule="nonzero" />
<path d="
M185.02 193.29
C184.54 193.30 184.13 193.46 183.79 193.80
C183.45 194.13 183.24 194.61 183.14 195.24
L183.12 195.37
L183.25 195.40
L183.96 195.55
L184.11 195.59
L184.13 195.43
C184.18 195.03 184.28 194.74 184.45 194.56
C184.61 194.38 184.80 194.29 185.03 194.29
C185.03 194.29 185.03 194.29 185.03 194.29
C185.04 194.29 185.04 194.29 185.04 194.29
C185.26 194.29 185.44 194.37 185.60 194.54
C185.76 194.72 185.83 194.95 185.83 195.24
C185.83 195.56 185.74 195.81 185.55 196.00
C185.36 196.19 185.11 196.28 184.81 196.28
L184.81 196.28
L184.70 196.27
L184.56 196.26
L184.55 196.40
L184.47 197.16
L184.44 197.37
L184.65 197.31
C184.84 197.25 184.99 197.22 185.11 197.22
C185.11 197.22 185.11 197.22 185.11 197.22
C185.11 197.22 185.11 197.22 185.11 197.22
C185.38 197.22 185.61 197.32 185.80 197.54
C186.00 197.76 186.09 198.06 186.09 198.44
C186.09 198.84 185.99 199.16 185.77 199.41
C185.56 199.65 185.32 199.77 185.04 199.77
C185.04 199.77 185.04 199.77 185.04 199.77
C185.04 199.77 185.04 199.77 185.04 199.77
C184.78 199.77 184.58 199.67 184.42 199.48
C184.25 199.27 184.13 198.94 184.06 198.51
L184.04 198.37
L183.90 198.39
L183.19 198.50
L183.06 198.52
L183.07 198.65
C183.12 199.29 183.33 199.80 183.69 200.19
C184.06 200.57 184.52 200.77 185.05 200.77
C185.62 200.77 186.11 200.55 186.52 200.11
C186.93 199.67 187.13 199.11 187.13 198.42
C187.13 198.10 187.08 197.81 186.98 197.55
C186.88 197.28 186.75 197.07 186.58 196.91
C186.48 196.80 186.36 196.72 186.22 196.65
L186.22 196.65
C186.38 196.52 186.51 196.36 186.62 196.18
C186.77 195.91 186.85 195.61 186.85 195.26
C186.85 194.70 186.67 194.23 186.32 193.86
C185.96 193.48 185.53 193.30 185.02 193.29
Z
" fill="white" fill-rule="nonzero" />
<path d="
M196.25 172.09
L196.25 172.09
L196.25 172.09
C196.25 172.09 196.25 172.09 196.25 172.09
Z
M195.68 169.55
L195.66 169.67
L195.10 173.28
L195.07 173.42
L195.21 173.44
L195.88 173.55
L195.98 173.57
L196.03 173.47
C196.13 173.28 196.26 173.13 196.42 173.03
C196.59 172.92 196.76 172.87 196.95 172.87
C196.95 172.87 196.95 172.87 196.95 172.87
C196.95 172.87 196.95 172.87 196.95 172.87
C197.26 172.87 197.52 172.99 197.73 173.24
C197.94 173.49 198.05 173.84 198.05 174.31
C198.05 174.81 197.93 175.21 197.71 175.49
C197.50 175.76 197.25 175.90 196.96 175.90
C196.96 175.90 196.96 175.90 196.95 175.90
C196.95 175.90 196.95 175.90 196.95 175.90
C196.73 175.90 196.52 175.80 196.35 175.61
C196.17 175.42 196.05 175.11 196.00 174.69
L195.98 174.56
L195.84 174.57
L195.10 174.65
L194.96 174.66
L194.97 174.80
C195.02 175.45 195.23 175.96 195.60 176.33
C195.97 176.70 196.43 176.89 196.96 176.89
C197.61 176.89 198.13 176.63 198.52 176.10
C198.89 175.58 199.08 174.96 199.08 174.24
C199.08 173.51 198.89 172.93 198.51 172.49
C198.12 172.05 197.67 171.82 197.14 171.82
C196.83 171.82 196.53 171.91 196.25 172.09
L196.25 172.09
L196.48 170.66
L198.80 170.66
L198.80 170.52
L198.80 169.69
L198.80 169.55
Z
" fill="white" fill-rule="nonzero" />
</g>
<g  transform="translate(1.19,228.58)" >
<path d="
M91.78 2.72
C91.62 2.72 91.48 2.78 91.36 2.89
C91.25 3.01 91.19 3.15 91.19 3.31
C91.19 3.47 91.25 3.61 91.36 3.73
C91.48 3.84 91.62 3.90 91.78 3.90
C91.95 3.90 92.08 3.84 92.20 3.73
C92.31 3.61 92.37 3.47 92.37 3.31
C92.37 3.15 92.31 3.01 92.20 2.89
C92.08 2.78 91.95 2.72 91.78 2.72
Z
M124.60 7.88
L124.60 8.76
L127.60 8.76
L127.60 7.88
Z
M96.17 5.79
C96.48 5.79 96.74 5.91 96.93 6.17
C97.20 6.52 97.33 7.00 97.33 7.62
C97.33 8.09 97.24 8.44 97.05 8.66
C96.86 8.88 96.62 8.99 96.32 8.99
C96.01 8.99 95.76 8.86 95.56 8.61
C95.29 8.27 95.16 7.79 95.16 7.18
C95.16 6.71 95.26 6.36 95.45 6.13
C95.64 5.90 95.88 5.79 96.17 5.79
Z
M83.63 3.11
L83.63 3.32
L83.91 3.32
C84.10 3.32 84.27 3.37 84.44 3.46
C84.56 3.53 84.64 3.61 84.68 3.71
C84.73 3.84 84.75 4.10 84.75 4.50
L84.75 9.59
C84.75 10.07 84.71 10.36 84.61 10.49
C84.47 10.68 84.23 10.77 83.91 10.77
L83.63 10.77
L83.63 10.99
L87.01 10.99
L87.01 10.77
L86.73 10.77
C86.54 10.77 86.36 10.73 86.19 10.63
C86.07 10.56 85.98 10.48 85.95 10.38
C85.90 10.26 85.87 9.99 85.87 9.59
L85.87 7.12
L87.31 7.12
C87.57 7.12 87.77 7.15 87.90 7.22
C88.04 7.30 88.14 7.40 88.22 7.55
C88.29 7.69 88.33 7.92 88.34 8.22
L88.55 8.22
L88.55 5.55
L88.34 5.55
C88.28 5.98 88.18 6.27 88.03 6.42
C87.88 6.56 87.64 6.63 87.31 6.63
L85.87 6.63
L85.87 3.54
L87.61 3.54
C88.02 3.54 88.32 3.58 88.52 3.65
C88.71 3.73 88.88 3.86 89.01 4.03
C89.15 4.20 89.26 4.47 89.36 4.84
L89.57 4.84
L89.49 3.11
Z
M92.01 5.51
L90.40 6.16
L90.49 6.37
C90.64 6.31 90.77 6.28 90.88 6.28
C90.98 6.28 91.06 6.30 91.12 6.35
C91.18 6.40 91.22 6.49 91.25 6.61
C91.28 6.78 91.30 7.16 91.30 7.73
L91.30 9.79
C91.30 10.11 91.27 10.34 91.22 10.45
C91.17 10.57 91.10 10.65 91.01 10.70
C90.92 10.75 90.75 10.78 90.49 10.78
L90.49 10.99
L93.07 10.99
L93.07 10.78
C92.82 10.78 92.65 10.75 92.55 10.70
C92.46 10.64 92.39 10.56 92.34 10.45
C92.29 10.34 92.27 10.12 92.27 9.79
L92.27 5.51
Z
M108.58 2.94
L106.66 3.88
L106.75 4.06
C107.01 3.94 107.21 3.88 107.35 3.88
C107.45 3.88 107.54 3.91 107.61 3.97
C107.68 4.02 107.73 4.12 107.76 4.24
C107.80 4.40 107.82 4.77 107.82 5.34
L107.82 9.60
C107.82 10.07 107.79 10.36 107.75 10.45
C107.71 10.55 107.63 10.62 107.52 10.68
C107.42 10.73 107.18 10.77 106.80 10.77
L106.80 10.99
L109.77 10.99
L109.77 10.77
C109.41 10.77 109.18 10.73 109.06 10.67
C108.94 10.62 108.87 10.53 108.83 10.42
C108.79 10.32 108.77 10.04 108.77 9.60
L108.77 2.94
Z
M121.48 2.94
L119.56 3.88
L119.65 4.06
C119.90 3.94 120.10 3.88 120.24 3.88
C120.34 3.88 120.43 3.91 120.50 3.97
C120.57 4.02 120.62 4.12 120.65 4.24
C120.69 4.40 120.71 4.77 120.71 5.34
L120.71 9.60
C120.71 10.07 120.69 10.36 120.65 10.45
C120.60 10.55 120.53 10.62 120.42 10.68
C120.31 10.73 120.07 10.77 119.70 10.77
L119.70 10.99
L122.66 10.99
L122.66 10.77
C122.31 10.77 122.07 10.73 121.95 10.67
C121.84 10.62 121.76 10.53 121.72 10.42
C121.69 10.32 121.67 10.04 121.67 9.60
L121.67 2.94
Z
M130.81 2.94
C130.21 2.94 129.71 3.14 129.31 3.52
C128.91 3.90 128.66 4.45 128.56 5.17
L128.78 5.17
C128.93 4.73 129.15 4.40 129.46 4.17
C129.77 3.95 130.12 3.83 130.50 3.83
C130.93 3.83 131.30 3.99 131.60 4.32
C131.91 4.64 132.06 5.05 132.06 5.55
C132.06 6.20 131.78 6.93 131.23 7.72
C130.67 8.51 129.70 9.53 128.34 10.77
L128.34 10.99
L132.99 10.99
L133.54 9.47
L133.32 9.47
C133.22 9.65 133.10 9.78 132.97 9.88
C132.83 9.97 132.68 10.03 132.51 10.06
C132.34 10.10 132.05 10.11 131.63 10.11
L129.57 10.11
C129.81 9.89 130.42 9.26 131.38 8.20
C132.03 7.50 132.49 6.84 132.78 6.21
C132.96 5.81 133.06 5.41 133.06 5.01
C133.06 4.45 132.84 3.97 132.41 3.56
C131.99 3.15 131.45 2.94 130.81 2.94
Z
M136.38 3.11
L134.86 6.17
C135.59 6.20 136.17 6.30 136.59 6.47
C137.13 6.70 137.55 7.02 137.86 7.43
C138.16 7.84 138.32 8.29 138.32 8.76
C138.32 9.25 138.15 9.67 137.80 10.02
C137.46 10.36 137.06 10.53 136.61 10.53
C136.31 10.53 136.02 10.43 135.72 10.23
C135.54 10.10 135.41 10.02 135.34 9.99
C135.26 9.96 135.17 9.94 135.07 9.94
C134.94 9.94 134.83 9.98 134.74 10.07
C134.65 10.15 134.60 10.25 134.60 10.36
C134.60 10.55 134.71 10.73 134.93 10.89
C135.14 11.05 135.48 11.13 135.96 11.13
C136.43 11.13 136.88 11.02 137.33 10.81
C137.64 10.66 137.93 10.46 138.18 10.21
C138.44 9.96 138.65 9.66 138.82 9.31
C138.99 8.96 139.07 8.57 139.07 8.16
C139.07 7.44 138.82 6.82 138.30 6.30
C137.70 5.69 136.89 5.30 135.86 5.15
L136.38 4.09
L138.75 4.09
L139.20 3.11
Z
M100.80 9.86
C100.63 9.86 100.47 9.92 100.35 10.05
C100.22 10.17 100.16 10.32 100.16 10.51
C100.16 10.68 100.22 10.84 100.35 10.96
C100.47 11.09 100.63 11.15 100.80 11.15
C100.98 11.15 101.14 11.09 101.26 10.96
C101.39 10.84 101.45 10.68 101.45 10.51
C101.45 10.33 101.39 10.18 101.26 10.05
C101.14 9.92 100.99 9.86 100.80 9.86
Z
M95.10 10.99
C95.57 11.05 96.24 11.10 97.11 11.12
C97.71 11.14 98.11 11.19 98.31 11.27
C98.51 11.36 98.61 11.50 98.61 11.70
C98.61 11.98 98.44 12.25 98.11 12.49
C97.78 12.74 97.26 12.86 96.57 12.86
C95.83 12.86 95.27 12.74 94.89 12.50
C94.66 12.36 94.55 12.20 94.55 12.01
C94.55 11.87 94.60 11.71 94.69 11.54
C94.78 11.37 94.92 11.19 95.10 10.99
Z
M117.90 2.72
C116.94 3.15 116.17 3.86 115.58 4.85
C114.98 5.84 114.69 6.93 114.69 8.13
C114.69 8.96 114.84 9.75 115.14 10.51
C115.44 11.28 115.87 11.94 116.43 12.50
C116.82 12.90 117.31 13.24 117.90 13.54
L117.90 13.32
C117.50 13.05 117.19 12.76 116.95 12.47
C116.70 12.17 116.51 11.86 116.37 11.53
C116.22 11.21 116.10 10.78 116.00 10.24
C115.87 9.57 115.81 8.81 115.81 7.98
C115.81 7.22 115.88 6.49 116.04 5.79
C116.19 5.08 116.42 4.51 116.72 4.05
C117.03 3.59 117.42 3.23 117.90 2.97
L117.90 2.72
Z
M140.25 2.72
L140.25 2.97
C140.65 3.24 140.97 3.52 141.21 3.82
C141.45 4.12 141.64 4.43 141.79 4.75
C141.93 5.07 142.05 5.50 142.15 6.04
C142.28 6.72 142.34 7.47 142.34 8.30
C142.34 9.06 142.27 9.79 142.12 10.50
C141.97 11.20 141.74 11.78 141.43 12.24
C141.12 12.69 140.73 13.05 140.25 13.32
L140.25 13.54
C141.21 13.11 141.98 12.40 142.58 11.41
C143.17 10.42 143.46 9.32 143.46 8.12
C143.46 7.30 143.31 6.50 143.01 5.74
C142.71 4.98 142.28 4.32 141.72 3.75
C141.33 3.36 140.84 3.01 140.25 2.72
Z
M96.27 5.51
C95.65 5.51 95.14 5.70 94.74 6.08
C94.35 6.46 94.15 6.91 94.15 7.44
C94.15 7.78 94.24 8.10 94.41 8.38
C94.58 8.67 94.83 8.89 95.16 9.05
C94.76 9.38 94.51 9.64 94.40 9.82
C94.29 10.00 94.23 10.16 94.23 10.30
C94.23 10.42 94.27 10.52 94.35 10.62
C94.44 10.71 94.58 10.82 94.78 10.94
C94.41 11.33 94.22 11.54 94.19 11.57
C93.98 11.83 93.85 12.03 93.78 12.17
C93.74 12.26 93.72 12.35 93.72 12.45
C93.72 12.66 93.86 12.86 94.15 13.05
C94.67 13.39 95.30 13.56 96.05 13.56
C97.02 13.56 97.81 13.28 98.42 12.71
C98.83 12.33 99.03 11.92 99.03 11.48
C99.03 11.16 98.92 10.89 98.71 10.67
C98.49 10.46 98.21 10.32 97.85 10.27
C97.61 10.24 97.09 10.21 96.29 10.19
C95.86 10.18 95.59 10.17 95.48 10.15
C95.29 10.12 95.17 10.08 95.10 10.02
C95.04 9.96 95.01 9.89 95.01 9.83
C95.01 9.75 95.04 9.65 95.10 9.54
C95.16 9.43 95.27 9.30 95.44 9.16
C95.72 9.24 95.99 9.27 96.25 9.27
C96.89 9.27 97.40 9.10 97.78 8.74
C98.16 8.39 98.35 7.97 98.35 7.47
C98.35 7.04 98.24 6.68 98.03 6.40
L98.72 6.40
C98.88 6.40 98.98 6.40 99.01 6.38
C99.04 6.37 99.06 6.36 99.07 6.34
C99.09 6.30 99.10 6.23 99.10 6.13
C99.10 6.04 99.09 5.98 99.07 5.94
C99.05 5.92 99.04 5.90 99.01 5.89
C98.98 5.88 98.88 5.88 98.72 5.88
L97.59 5.88
C97.22 5.63 96.78 5.51 96.27 5.51
Z
" fill="black" fill-rule="nonzero" />
</g>
</g>
</svg>
