<?xml version="1.0" encoding="utf-8" standalone="no"?>
<!DOCTYPE svg PUBLIC "-//W3C//DTD SVG 1.0//EN" "http://www.w3.org/TR/SVG/DTD/svg11.dtd" >
<svg version="1.1" baseProfile="full"  width="319.13385" height="338.51422" viewBox="0 0 229.77638 243.73024" preserveAspectRatio="xMidYMid" xmlns="http://www.w3.org/2000/svg" >

<g lengthAdjust="spacingAndGlyphs" xml:space='preserve' >
<g  transform="translate(1.19,1.19)" >
<path d="
M0.0 0.0
L0.0 227.39
L227.39 227.39
L227.39 0.0
Z
" fill="none" fill-rule="nonzero" />
<line x1="6.54" y1="6.54" x2="6.54" y2="220.84" fill="none" stroke="black" stroke-width="0.87px" stroke-linecap="square" />
<line x1="18.45" y1="6.54" x2="18.45" y2="220.84" fill="none" stroke="black" stroke-width="0.25px" stroke-linecap="butt" />
<line x1="30.35" y1="6.54" x2="30.35" y2="220.84" fill="none" stroke="black" stroke-width="0.25px" stroke-linecap="butt" />
<line x1="42.26" y1="6.54" x2="42.26" y2="220.84" fill="none" stroke="black" stroke-width="0.25px" stroke-linecap="butt" />
<line x1="54.17" y1="6.54" x2="54.17" y2="220.84" fill="none" stroke="black" stroke-width="0.25px" stroke-linecap="butt" />
<line x1="66.07" y1="6.54" x2="66.07" y2="220.84" fill="none" stroke="black" stroke-width="0.25px" stroke-linecap="butt" />
<line x1="77.98" y1="6.54" x2="77.98" y2="220.84" fill="none" stroke="black" stroke-width="0.25px" stroke-linecap="butt" />
<line x1="89.88" y1="6.54" x2="89.88" y2="220.84" fill="none" stroke="black" stroke-width="0.25px" stroke-linecap="butt" />
<line x1="101.79" y1="6.54" x2="101.79" y2="220.84" fill="none" stroke="black" stroke-width="0.25px" stroke-linecap="butt" />
<line x1="113.69" y1="6.54" x2="113.69" y2="220.84" fill="none" stroke="black" stroke-width="0.25px" stroke-linecap="butt" />
<line x1="125.60" y1="6.54" x2="125.60" y2="220.84" fill="none" stroke="black" stroke-width="0.25px" stroke-linecap="butt" />
<line x1="137.50" y1="6.54" x2="137.50" y2="220.84" fill="none" stroke="black" stroke-width="0.25px" stroke-linecap="butt" />
<line x1="149.41" y1="6.54" x2="149.41" y2="220.84" fill="none" stroke="black" stroke-width="0.25px" stroke-linecap="butt" />
<line x1="161.31" y1="6.54" x2="161.31" y2="220.84" fill="none" stroke="black" stroke-width="0.25px" stroke-linecap="butt" />
<line x1="173.22" y1="6.54" x2="173.22" y2="220.84" fill="none" stroke="black" stroke-width="0.25px" stroke-linecap="butt" />
<line x1="185.13" y1="6.54" x2="185.13" y2="220.84" fill="none" stroke="black" stroke-width="0.25px" stroke-linecap="butt" />
<line x1="197.03" y1="6.54" x2="197.03" y2="220.84" fill="none" stroke="black" stroke-width="0.25px" stroke-linecap="butt" />
<line x1="208.94" y1="6.54" x2="208.94" y2="220.84" fill="none" stroke="black" stroke-width="0.25px" stroke-linecap="butt" />
<line x1="220.84" y1="6.54" x2="220.84" y2="220.84" fill="none" stroke="black" stroke-width="0.87px" stroke-linecap="square" />
<line x1="6.54" y1="6.54" x2="220.84" y2="6.54" fill="none" stroke="black" stroke-width="0.87px" stroke-linecap="square" />
<line x1="6.54" y1="18.45" x2="220.84" y2="18.45" fill="none" stroke="black" stroke-width="0.25px" stroke-linecap="butt" />
<line x1="6.54" y1="30.35" x2="220.84" y2="30.35" fill="none" stroke="black" stroke-width="0.25px" stroke-linecap="butt" />
<line x1="6.54" y1="42.26" x2="220.84" y2="42.26" fill="none" stroke="black" stroke-width="0.25px" stroke-linecap="butt" />
<line x1="6.54" y1="54.17" x2="220.84" y2="54.17" fill="none" stroke="black" stroke-width="0.25px" stroke-linecap="butt" />
<line x1="6.54" y1="66.07" x2="220.84" y2="66.07" fill="none" stroke="black" stroke-width="0.25px" stroke-linecap="butt" />
<line x1="6.54" y1="77.98" x2="220.84" y2="77.98" fill="none" stroke="black" stroke-width="0.25px" stroke-linecap="butt" />
<line x1="6.54" y1="89.88" x2="220.84" y2="89.88" fill="none" stroke="black" stroke-width="0.25px" stroke-linecap="butt" />
<line x1="6.54" y1="101.79" x2="220.84" y2="101.79" fill="none" stroke="black" stroke-width="0.25px" stroke-linecap="butt" />
<line x1="6.54" y1="113.69" x2="220.84" y2="113.69" fill="none" stroke="black" stroke-width="0.25px" stroke-linecap="butt" />
<line x1="6.54" y1="125.60" x2="220.84" y2="125.60" fill="none" stroke="black" stroke-width="0.25px" stroke-linecap="butt" />
<line x1="6.54" y1="137.50" x2="220.84" y2="137.50" fill="none" stroke="black" stroke-width="0.25px" stroke-linecap="butt" />
<line x1="6.54" y1="149.41" x2="220.84" y2="149.41" fill="none" stroke="black" stroke-width="0.25px" stroke-linecap="butt" />
<line x1="6.54" y1="161.31" x2="220.84" y2="161.31" fill="none" stroke="black" stroke-width="0.25px" stroke-linecap="butt" />
<line x1="6.54" y1="173.22" x2="220.84" y2="173.22" fill="none" stroke="black" stroke-width="0.25px" stroke-linecap="butt" />
<line x1="6.54" y1="185.13" x2="220.84" y2="185.13" fill="none" stroke="black" stroke-width="0.25px" stroke-linecap="butt" />
<line x1="6.54" y1="197.03" x2="220.84" y2="197.03" fill="none" stroke="black" stroke-width="0.25px" stroke-linecap="butt" />
<line x1="6.54" y1="208.94" x2="220.84" y2="208.94" fill="none" stroke="black" stroke-width="0.25px" stroke-linecap="butt" />
<line x1="6.54" y1="220.84" x2="220.84" y2="220.84" fill="none" stroke="black" stroke-width="0.87px" stroke-linecap="square" />
<circle cx="18.45" cy="18.45" r="5.89" fill="white"/>
<circle cx="18.45" cy="18.45" r="5.89" fill="none" stroke="black" stroke-width="0.25px"/>
<circle cx="18.45" cy="30.35" r="6.01" fill="black"/>
<circle cx="18.45" cy="42.26" r="6.01" fill="black"/>
<circle cx="30.35" cy="18.45" r="6.01" fill="black"/>
<circle cx="30.35" cy="30.35" r="5.89" fill="white"/>
<circle cx="30.35" cy="30.35" r="5.89" fill="none" stroke="black" stroke-width="0.25px"/>
<circle cx="30.35" cy="42.26" r="6.01" fill="black"/>
<circle cx="30.35" cy="54.17" r="6.01" fill="black"/>
<circle cx="30.35" cy="66.07" r="6.01" fill="black"/>
<circle cx="30.35" cy="161.31" r="6.01" fill="black"/>
<circle cx="42.26" cy="30.35" r="5.89" fill="white"/>
<circle cx="42.26" cy="30.35" r="5.89" fill="none" stroke="black" stroke-width="0.25px"/>
<circle cx="42.26" cy="42.26" r="5.89" fill="white"/>
<circle cx="42.26" cy="42.26" r="5.89" fill="none" stroke="black" stroke-width="0.25px"/>
<circle cx="42.26" cy="54.17" r="6.01" fill="black"/>
<circle cx="42.26" cy="66.07" r="5.89" fill="white"/>
<circle cx="42.26" cy="66.07" r="5.89" fill="none" stroke="black" stroke-width="0.25px"/>
<circle cx="42.26" cy="77.98" r="6.01" fill="black"/>
<circle cx="42.26" cy="101.79" r="5.89" fill="white"/>
<circle cx="42.26" cy="101.79" r="5.89" fill="none" stroke="black" stroke-width="0.25px"/>
<circle cx="42.26" cy="113.69" r="1.27" fill="black"/>
<circle cx="42.26" cy="185.13" r="5.89" fill="white"/>
<circle cx="42.26" cy="185.13" r="5.89" fill="none" stroke="black" stroke-width="0.25px"/>
<circle cx="54.17" cy="42.26" r="5.89" fill="white"/>
<circle cx="54.17" cy="42.26" r="5.89" fill="none" stroke="black" stroke-width="0.25px"/>
<circle cx="54.17" cy="54.17" r="5.89" fill="white"/>
<circle cx="54.17" cy="54.17" r="5.89" fill="none" stroke="black" stroke-width="0.25px"/>
<circle cx="54.17" cy="66.07" r="5.89" fill="white"/>
<circle cx="54.17" cy="66.07" r="5.89" fill="none" stroke="black" stroke-width="0.25px"/>
<circle cx="66.07" cy="30.35" r="6.01" fill="black"/>
<circle cx="66.07" cy="185.13" r="5.89" fill="white"/>
<circle cx="66.07" cy="185.13" r="5.89" fill="none" stroke="black" stroke-width="0.25px"/>
<circle cx="89.88" cy="30.35" r="5.89" fill="white"/>
<circle cx="89.88" cy="30.35" r="5.89" fill="none" stroke="black" stroke-width="0.25px"/>
<circle cx="113.69" cy="42.26" r="1.27" fill="black"/>
<circle cx="113.69" cy="113.69" r="1.27" fill="black"/>
<circle cx="113.69" cy="185.13" r="1.27" fill="black"/>
<circle cx="113.69" cy="197.03" r="5.89" fill="white"/>
<circle cx="113.69" cy="197.03" r="5.89" fill="none" stroke="black" stroke-width="0.25px"/>
<circle cx="185.13" cy="42.26" r="6.01" fill="black"/>
<circle cx="185.13" cy="113.69" r="1.27" fill="black"/>
<circle cx="185.13" cy="185.13" r="1.27" fill="black"/>
<circle cx="185.13" cy="197.03" r="6.01" fill="black"/>
<circle cx="197.03" cy="173.22" r="6.01" fill="black"/>
<path d="
M16.65 14.87
C16.21 14.87 15.85 15.05 15.59 15.39
C15.32 15.74 15.16 16.25 15.12 16.93
L15.71 17.03
C15.71 16.57 15.80 16.21 15.97 15.97
C16.14 15.72 16.36 15.60 16.63 15.60
C16.87 15.60 17.08 15.71 17.25 15.94
C17.42 16.17 17.51 16.46 17.51 16.83
C17.51 17.14 17.43 17.48 17.26 17.84
C17.09 18.21 16.74 18.72 16.21 19.39
C15.75 19.96 15.43 20.46 15.26 20.88
C15.09 21.30 15.00 21.68 15.01 22.02
L18.10 22.02
L18.10 21.18
L15.81 21.18
C15.87 21.03 15.95 20.87 16.05 20.71
C16.15 20.55 16.37 20.25 16.72 19.81
C17.25 19.12 17.62 18.57 17.81 18.15
C18.00 17.73 18.09 17.30 18.09 16.85
C18.09 16.33 17.97 15.88 17.73 15.48
C17.48 15.07 17.12 14.87 16.65 14.87
Z
M20.28 14.87
C19.84 14.87 19.48 15.05 19.22 15.39
C18.95 15.74 18.79 16.25 18.75 16.93
L19.34 17.03
C19.34 16.57 19.43 16.21 19.60 15.97
C19.77 15.72 19.99 15.60 20.26 15.60
C20.50 15.60 20.71 15.71 20.88 15.94
C21.05 16.17 21.14 16.46 21.14 16.83
C21.14 17.14 21.06 17.48 20.89 17.84
C20.72 18.21 20.37 18.72 19.84 19.39
C19.38 19.96 19.06 20.46 18.89 20.88
C18.72 21.30 18.64 21.68 18.64 22.02
L21.73 22.02
L21.73 21.18
L19.44 21.18
C19.50 21.03 19.58 20.87 19.68 20.71
C19.78 20.55 20.00 20.25 20.35 19.81
C20.88 19.12 21.25 18.57 21.44 18.15
C21.63 17.73 21.73 17.30 21.73 16.85
C21.73 16.33 21.60 15.88 21.36 15.48
C21.11 15.07 20.75 14.87 20.28 14.87
Z
" fill="black" fill-rule="nonzero" />
<path d="
M16.65 26.64
C16.16 26.64 15.77 26.83 15.47 27.21
C15.19 27.58 15.02 28.12 14.98 28.83
L14.97 28.96
L15.10 28.98
L15.69 29.07
L15.85 29.10
L15.85 28.93
C15.85 28.50 15.93 28.17 16.09 27.95
C16.23 27.75 16.41 27.64 16.62 27.64
C16.62 27.64 16.62 27.64 16.63 27.64
C16.63 27.64 16.63 27.64 16.63 27.64
C16.83 27.64 17.00 27.74 17.14 27.93
C17.29 28.13 17.37 28.40 17.37 28.73
C17.37 29.03 17.29 29.34 17.13 29.69
C16.97 30.04 16.62 30.55 16.10 31.21
C15.63 31.79 15.31 32.30 15.13 32.73
C14.95 33.17 14.86 33.57 14.87 33.93
L14.87 34.07
L18.24 34.07
L18.24 33.93
L18.24 33.09
L18.24 32.95
L16.03 32.95
C16.07 32.86 16.12 32.78 16.17 32.69
C16.27 32.53 16.49 32.24 16.83 31.81
C17.37 31.10 17.74 30.54 17.94 30.11
C18.14 29.68 18.24 29.22 18.24 28.75
C18.24 28.21 18.11 27.73 17.85 27.31
C17.58 26.86 17.17 26.64 16.65 26.64
Z
M20.39 26.64
L20.36 26.74
C20.27 27.03 20.10 27.34 19.87 27.65
C19.64 27.97 19.37 28.23 19.07 28.45
L19.01 28.49
L19.01 28.57
L19.01 29.41
L19.01 29.65
L19.22 29.54
C19.41 29.43 19.63 29.27 19.86 29.06
C19.97 28.96 20.06 28.86 20.15 28.76
L20.15 28.76
L20.15 33.93
L20.15 34.07
L21.01 34.07
L21.01 33.93
L21.01 26.78
L21.01 26.64
Z
" fill="white" fill-rule="nonzero" />
<path d="
M19.66 41.14
L19.66 41.14
L19.66 41.14
C19.66 41.14 19.66 41.14 19.66 41.14
Z
M16.65 38.48
C16.16 38.48 15.77 38.67 15.47 39.05
C15.19 39.42 15.02 39.96 14.98 40.67
L14.97 40.80
L15.10 40.82
L15.69 40.92
L15.85 40.94
L15.85 40.78
C15.85 40.34 15.93 40.02 16.09 39.80
C16.23 39.59 16.41 39.49 16.62 39.49
C16.62 39.49 16.62 39.49 16.63 39.49
C16.63 39.49 16.63 39.49 16.63 39.49
C16.83 39.49 17.00 39.58 17.14 39.77
C17.29 39.98 17.37 40.24 17.37 40.58
C17.37 40.87 17.29 41.19 17.13 41.54
C16.97 41.89 16.62 42.39 16.10 43.05
C15.63 43.64 15.31 44.15 15.13 44.58
C14.95 45.02 14.86 45.42 14.87 45.78
L14.87 45.92
L18.24 45.92
L18.24 45.77
L18.24 44.93
L18.24 44.79
L16.03 44.79
C16.07 44.71 16.12 44.62 16.17 44.53
C16.27 44.38 16.49 44.08 16.83 43.65
C17.37 42.95 17.74 42.39 17.94 41.96
C18.14 41.52 18.24 41.07 18.24 40.60
C18.24 40.06 18.11 39.58 17.85 39.15
C17.58 38.71 17.17 38.48 16.65 38.48
Z
M19.14 38.61
L19.12 38.73
L18.67 42.39
L18.65 42.52
L18.78 42.55
L19.32 42.65
L19.44 42.68
L19.48 42.57
C19.56 42.37 19.67 42.22 19.80 42.12
C19.92 42.02 20.06 41.97 20.20 41.97
C20.20 41.97 20.20 41.97 20.20 41.97
C20.20 41.97 20.20 41.97 20.20 41.97
C20.44 41.97 20.64 42.09 20.80 42.32
C20.97 42.58 21.06 42.95 21.06 43.43
C21.06 43.94 20.97 44.34 20.78 44.63
C20.62 44.90 20.42 45.04 20.21 45.04
C20.20 45.04 20.20 45.04 20.20 45.04
C20.20 45.04 20.20 45.04 20.20 45.04
C20.03 45.04 19.88 44.94 19.74 44.76
C19.59 44.56 19.50 44.24 19.45 43.82
L19.44 43.67
L19.29 43.69
L18.69 43.77
L18.56 43.79
L18.57 43.92
C18.61 44.57 18.78 45.08 19.07 45.46
C19.38 45.84 19.76 46.04 20.21 46.04
C20.75 46.04 21.18 45.76 21.50 45.22
C21.80 44.70 21.95 44.08 21.95 43.36
C21.95 42.62 21.80 42.04 21.49 41.60
C21.17 41.14 20.79 40.91 20.35 40.91
C20.11 40.91 19.88 40.99 19.66 41.14
L19.66 41.14
L19.85 39.73
L21.73 39.73
L21.73 39.59
L21.73 38.75
L21.73 38.61
Z
" fill="white" fill-rule="nonzero" />
<path d="
M28.55 14.67
C28.07 14.67 27.68 14.86 27.38 15.24
C27.09 15.61 26.93 16.15 26.89 16.86
L26.88 16.99
L27.01 17.01
L27.60 17.10
L27.76 17.13
L27.76 16.96
C27.76 16.53 27.84 16.21 27.99 15.98
C28.13 15.78 28.31 15.68 28.53 15.68
C28.53 15.68 28.53 15.68 28.53 15.68
C28.53 15.68 28.53 15.68 28.53 15.68
C28.73 15.68 28.91 15.77 29.05 15.96
C29.20 16.16 29.27 16.43 29.27 16.76
C29.27 17.06 29.19 17.38 29.04 17.72
C28.87 18.08 28.53 18.58 28.00 19.24
C27.53 19.82 27.21 20.33 27.03 20.77
C26.85 21.21 26.77 21.60 26.78 21.96
L26.78 22.10
L30.15 22.10
L30.15 21.96
L30.15 21.12
L30.15 20.98
L27.93 20.98
C27.98 20.89 28.02 20.81 28.08 20.72
C28.18 20.57 28.39 20.27 28.73 19.84
C29.28 19.14 29.65 18.57 29.84 18.15
C30.04 17.71 30.14 17.26 30.14 16.78
C30.14 16.24 30.01 15.76 29.75 15.34
C29.48 14.89 29.08 14.67 28.55 14.67
Z
M32.09 14.67
C31.68 14.67 31.34 14.84 31.06 15.19
C30.79 15.52 30.61 16.00 30.54 16.64
L30.52 16.76
L30.64 16.79
L31.21 16.95
L31.37 16.99
L31.39 16.82
C31.43 16.42 31.52 16.12 31.65 15.93
C31.77 15.76 31.92 15.67 32.09 15.67
C32.09 15.67 32.09 15.67 32.10 15.67
C32.10 15.67 32.10 15.67 32.10 15.67
C32.26 15.67 32.40 15.75 32.52 15.92
C32.65 16.09 32.72 16.33 32.72 16.64
C32.72 16.97 32.64 17.23 32.48 17.42
C32.34 17.60 32.15 17.69 31.91 17.69
L31.91 17.69
L31.83 17.68
L31.69 17.67
L31.67 17.81
L31.61 18.58
L31.59 18.81
L31.80 18.72
C31.95 18.66 32.06 18.63 32.15 18.63
C32.15 18.63 32.15 18.63 32.15 18.63
C32.15 18.63 32.16 18.63 32.16 18.63
C32.36 18.63 32.54 18.74 32.69 18.95
C32.85 19.18 32.93 19.49 32.93 19.87
C32.93 20.28 32.84 20.61 32.66 20.87
C32.50 21.10 32.31 21.22 32.10 21.22
C32.10 21.22 32.10 21.22 32.10 21.22
C32.10 21.22 32.10 21.22 32.10 21.22
C31.91 21.22 31.75 21.13 31.63 20.94
C31.49 20.72 31.39 20.39 31.33 19.95
L31.31 19.80
L31.17 19.83
L30.59 19.94
L30.47 19.97
L30.48 20.09
C30.52 20.73 30.69 21.24 30.98 21.63
C31.29 22.03 31.66 22.23 32.11 22.23
C32.58 22.23 32.99 22.00 33.33 21.55
C33.66 21.11 33.82 20.54 33.82 19.86
C33.82 19.54 33.78 19.24 33.70 18.98
C33.62 18.71 33.51 18.50 33.38 18.33
C33.29 18.23 33.19 18.14 33.07 18.07
L33.07 18.07
C33.21 17.93 33.32 17.77 33.41 17.57
C33.53 17.31 33.59 17.00 33.59 16.66
C33.59 16.09 33.45 15.62 33.16 15.25
C32.87 14.86 32.51 14.67 32.09 14.67
Z
" fill="white" fill-rule="nonzero" />
<path d="
M32.11 27.44
C32.40 27.44 32.63 27.64 32.80 28.03
C32.98 28.42 33.07 29.20 33.07 30.36
C33.07 31.50 32.98 32.28 32.81 32.67
C32.63 33.07 32.41 33.27 32.15 33.27
C31.87 33.27 31.65 33.07 31.47 32.68
C31.29 32.29 31.20 31.51 31.20 30.36
C31.20 29.21 31.29 28.44 31.46 28.04
C31.64 27.64 31.86 27.44 32.11 27.44
Z
M28.55 26.72
C28.11 26.72 27.76 26.89 27.49 27.23
C27.22 27.58 27.07 28.09 27.03 28.78
L27.62 28.87
C27.62 28.41 27.70 28.06 27.87 27.81
C28.05 27.56 28.26 27.44 28.53 27.44
C28.78 27.44 28.99 27.56 29.16 27.78
C29.33 28.01 29.41 28.31 29.41 28.67
C29.41 28.98 29.33 29.32 29.16 29.69
C29.00 30.05 28.65 30.57 28.11 31.24
C27.65 31.81 27.34 32.31 27.17 32.73
C26.99 33.15 26.91 33.53 26.92 33.87
L30.01 33.87
L30.01 33.03
L27.71 33.03
C27.78 32.87 27.86 32.71 27.96 32.55
C28.06 32.39 28.28 32.10 28.62 31.66
C29.16 30.97 29.52 30.41 29.71 29.99
C29.90 29.58 30.00 29.14 30.00 28.69
C30.00 28.18 29.88 27.72 29.63 27.32
C29.39 26.92 29.03 26.72 28.55 26.72
Z
M32.14 26.72
C31.64 26.72 31.26 27.03 31.00 27.64
C30.74 28.26 30.61 29.16 30.61 30.36
C30.61 31.69 30.76 32.63 31.04 33.17
C31.32 33.72 31.69 33.99 32.13 33.99
C32.64 33.99 33.02 33.68 33.28 33.07
C33.53 32.45 33.66 31.55 33.66 30.36
C33.66 29.03 33.51 28.07 33.20 27.47
C32.94 26.97 32.59 26.72 32.14 26.72
Z
" fill="black" fill-rule="nonzero" />
<path d="
M32.15 39.49
C32.15 39.49 32.15 39.49 32.15 39.49
C32.15 39.49 32.16 39.49 32.16 39.49
C32.34 39.49 32.51 39.61 32.66 39.86
C32.83 40.13 32.91 40.50 32.91 40.98
C32.91 41.47 32.83 41.84 32.67 42.09
C32.52 42.33 32.35 42.45 32.15 42.45
C32.14 42.45 32.14 42.45 32.14 42.45
C32.14 42.45 32.14 42.45 32.14 42.45
C31.93 42.45 31.75 42.33 31.60 42.09
C31.43 41.84 31.35 41.50 31.35 41.06
C31.35 40.57 31.44 40.18 31.62 39.89
C31.78 39.62 31.96 39.49 32.15 39.49
Z
M28.67 38.48
L28.64 38.58
C28.54 38.88 28.38 39.18 28.15 39.50
C27.91 39.81 27.65 40.08 27.34 40.30
L27.28 40.34
L27.28 40.41
L27.28 41.26
L27.28 41.50
L27.49 41.38
C27.69 41.27 27.90 41.11 28.13 40.90
C28.24 40.80 28.34 40.71 28.43 40.61
L28.43 40.61
L28.43 45.77
L28.43 45.92
L29.29 45.92
L29.29 45.77
L29.29 38.62
L29.29 38.48
Z
M32.09 38.48
C31.63 38.48 31.24 38.72 30.93 39.19
C30.62 39.64 30.47 40.25 30.47 41.03
C30.47 41.78 30.62 42.37 30.91 42.81
C31.22 43.27 31.58 43.50 32.01 43.50
C32.26 43.50 32.49 43.41 32.72 43.22
C32.81 43.14 32.89 43.06 32.96 42.97
L32.96 42.97
C32.94 43.36 32.89 43.71 32.81 44.02
C32.71 44.42 32.59 44.69 32.45 44.83
C32.32 44.97 32.18 45.04 32.03 45.04
C32.03 45.04 32.03 45.04 32.03 45.04
C32.03 45.04 32.03 45.04 32.03 45.04
C31.86 45.04 31.73 44.96 31.63 44.81
C31.51 44.65 31.43 44.39 31.39 44.03
L31.38 43.89
L31.23 43.91
L30.68 43.99
L30.55 44.01
L30.56 44.14
C30.61 44.74 30.76 45.20 31.02 45.53
C31.28 45.87 31.62 46.04 32.02 46.04
C32.37 46.04 32.69 45.90 32.97 45.62
C33.24 45.36 33.45 44.94 33.60 44.37
C33.76 43.82 33.83 43.05 33.83 42.06
C33.83 41.17 33.76 40.48 33.62 40.00
C33.47 39.51 33.27 39.14 33.00 38.88
C32.72 38.61 32.42 38.48 32.09 38.48
Z
" fill="white" fill-rule="nonzero" />
<path d="
M31.57 53.05
L31.57 53.05
L31.57 53.05
C31.57 53.05 31.57 53.05 31.57 53.05
Z
M28.67 50.39
L28.64 50.49
C28.54 50.78 28.38 51.09 28.15 51.40
C27.91 51.72 27.65 51.98 27.34 52.20
L27.28 52.24
L27.28 52.32
L27.28 53.16
L27.28 53.40
L27.49 53.29
C27.69 53.18 27.90 53.02 28.13 52.81
C28.24 52.71 28.34 52.61 28.43 52.51
L28.43 52.51
L28.43 57.68
L28.43 57.82
L29.29 57.82
L29.29 57.68
L29.29 50.53
L29.29 50.39
Z
M31.04 50.51
L31.03 50.64
L30.57 54.30
L30.56 54.43
L30.69 54.45
L31.23 54.56
L31.34 54.58
L31.39 54.47
C31.47 54.28 31.57 54.13 31.70 54.02
C31.83 53.92 31.96 53.87 32.10 53.87
C32.10 53.87 32.10 53.87 32.10 53.87
C32.10 53.87 32.11 53.87 32.11 53.87
C32.34 53.87 32.54 53.99 32.70 54.23
C32.88 54.49 32.96 54.85 32.96 55.33
C32.96 55.85 32.87 56.25 32.69 56.54
C32.52 56.81 32.33 56.94 32.11 56.94
C32.11 56.94 32.11 56.94 32.11 56.94
C32.11 56.94 32.10 56.94 32.10 56.94
C31.93 56.94 31.78 56.85 31.65 56.67
C31.50 56.46 31.40 56.15 31.36 55.72
L31.34 55.58
L31.20 55.60
L30.60 55.67
L30.46 55.69
L30.47 55.82
C30.51 56.47 30.68 56.99 30.98 57.36
C31.29 57.75 31.67 57.94 32.11 57.94
C32.66 57.94 33.08 57.67 33.40 57.13
C33.70 56.61 33.85 55.99 33.85 55.27
C33.85 54.53 33.70 53.94 33.40 53.50
C33.08 53.05 32.70 52.82 32.26 52.82
C32.02 52.82 31.79 52.89 31.57 53.05
L31.57 53.05
L31.75 51.63
L33.63 51.63
L33.63 51.49
L33.63 50.65
L33.63 50.51
Z
" fill="white" fill-rule="nonzero" />
<path d="
M44.36 28.21
L44.36 31.42
L42.90 31.42
L44.36 28.21
Z
M40.46 26.78
C40.02 26.78 39.67 26.95 39.40 27.30
C39.13 27.64 38.97 28.15 38.93 28.84
L39.52 28.93
C39.52 28.47 39.61 28.12 39.78 27.87
C39.95 27.63 40.17 27.50 40.44 27.50
C40.69 27.50 40.89 27.62 41.06 27.84
C41.23 28.07 41.32 28.37 41.32 28.73
C41.32 29.05 41.24 29.38 41.07 29.75
C40.90 30.11 40.55 30.63 40.02 31.30
C39.56 31.87 39.24 32.37 39.07 32.79
C38.90 33.21 38.82 33.59 38.82 33.93
L41.91 33.93
L41.91 33.09
L39.62 33.09
C39.68 32.93 39.76 32.77 39.86 32.61
C39.96 32.45 40.18 32.16 40.53 31.72
C41.06 31.03 41.43 30.47 41.62 30.06
C41.81 29.64 41.91 29.20 41.91 28.75
C41.91 28.24 41.78 27.78 41.54 27.38
C41.29 26.98 40.93 26.78 40.46 26.78
Z
M44.47 26.81
L42.33 31.42
L42.33 32.22
L44.36 32.22
L44.36 33.93
L44.93 33.93
L44.93 32.22
L45.57 32.22
L45.57 31.42
L44.93 31.42
L44.93 26.81
Z
" fill="black" fill-rule="nonzero" />
<path d="
M40.57 50.38
L40.54 50.48
C40.45 50.78 40.29 51.08 40.05 51.40
C39.82 51.71 39.55 51.98 39.25 52.20
L39.19 52.24
L39.19 52.31
L39.19 53.16
L39.19 53.40
L39.40 53.28
C39.59 53.17 39.81 53.01 40.04 52.81
C40.15 52.71 40.25 52.61 40.33 52.51
L40.33 52.51
L40.33 57.68
L40.33 57.82
L41.19 57.82
L41.19 57.68
L41.19 50.53
L41.19 50.38
Z
M43.99 50.38
C43.59 50.39 43.24 50.56 42.96 50.90
C42.69 51.24 42.52 51.72 42.44 52.36
L42.43 52.48
L42.54 52.51
L43.12 52.66
L43.28 52.71
L43.29 52.54
C43.33 52.14 43.42 51.84 43.56 51.65
C43.68 51.47 43.83 51.39 44.00 51.39
C44.00 51.39 44.00 51.39 44.00 51.39
C44.00 51.39 44.00 51.39 44.00 51.39
C44.17 51.39 44.31 51.47 44.43 51.63
C44.56 51.81 44.62 52.05 44.62 52.35
C44.62 52.68 44.54 52.94 44.39 53.13
C44.24 53.31 44.05 53.41 43.82 53.41
L43.82 53.41
L43.74 53.40
L43.59 53.38
L43.58 53.53
L43.51 54.29
L43.49 54.52
L43.71 54.44
C43.85 54.38 43.97 54.35 44.06 54.35
C44.06 54.35 44.06 54.35 44.06 54.35
C44.06 54.35 44.06 54.35 44.06 54.35
C44.27 54.35 44.45 54.46 44.59 54.67
C44.75 54.90 44.83 55.20 44.83 55.59
C44.83 56.00 44.74 56.33 44.57 56.58
C44.41 56.82 44.22 56.94 44.01 56.94
C44.01 56.94 44.01 56.94 44.00 56.94
C44.00 56.94 44.00 56.94 44.00 56.94
C43.81 56.94 43.66 56.84 43.53 56.65
C43.39 56.44 43.30 56.11 43.24 55.66
L43.22 55.51
L43.07 55.54
L42.50 55.66
L42.37 55.68
L42.38 55.81
C42.42 56.45 42.59 56.96 42.89 57.35
C43.19 57.74 43.57 57.94 44.01 57.95
C44.49 57.94 44.90 57.72 45.23 57.26
C45.56 56.82 45.72 56.26 45.72 55.57
C45.72 55.25 45.68 54.96 45.61 54.70
C45.53 54.43 45.42 54.21 45.28 54.05
C45.20 53.94 45.09 53.85 44.97 53.79
L44.97 53.79
C45.11 53.65 45.23 53.48 45.31 53.29
C45.43 53.02 45.50 52.72 45.50 52.37
C45.49 51.81 45.35 51.34 45.07 50.97
C44.78 50.58 44.42 50.39 43.99 50.38
Z
" fill="white" fill-rule="nonzero" />
<path d="
M40.57 74.26
L40.54 74.36
C40.45 74.65 40.29 74.96 40.05 75.27
C39.82 75.59 39.55 75.85 39.25 76.07
L39.19 76.12
L39.19 76.19
L39.19 77.03
L39.19 77.27
L39.40 77.16
C39.59 77.05 39.81 76.89 40.04 76.68
C40.15 76.58 40.25 76.48 40.33 76.39
L40.33 76.39
L40.33 81.55
L40.33 81.69
L41.19 81.69
L41.19 81.55
L41.19 74.40
L41.19 74.26
Z
M42.42 74.38
L42.42 74.52
L42.42 75.36
L42.42 75.50
L44.60 75.50
C44.35 75.97 44.12 76.52 43.90 77.15
C43.64 77.88 43.44 78.64 43.30 79.44
C43.15 80.24 43.08 80.95 43.07 81.55
L43.07 81.69
L43.80 81.69
L43.94 81.69
L43.94 81.56
C44.00 80.42 44.19 79.26 44.53 78.10
C44.87 76.94 45.26 76.00 45.70 75.28
L45.72 75.24
L45.72 75.20
L45.72 74.52
L45.72 74.38
Z
" fill="white" fill-rule="nonzero" />
<path d="
M44.08 101.45
C44.34 101.45 44.55 101.59 44.73 101.87
C44.90 102.15 44.99 102.54 44.99 103.05
C44.99 103.56 44.90 103.97 44.73 104.26
C44.55 104.56 44.35 104.70 44.12 104.70
C43.86 104.70 43.64 104.55 43.45 104.24
C43.25 103.92 43.15 103.51 43.15 102.99
C43.15 102.52 43.25 102.15 43.43 101.87
C43.62 101.59 43.83 101.45 44.08 101.45
Z
M40.46 98.15
C40.02 98.15 39.67 98.32 39.40 98.67
C39.13 99.01 38.97 99.53 38.93 100.21
L39.52 100.30
C39.52 99.84 39.61 99.49 39.78 99.24
C39.95 99.00 40.17 98.87 40.44 98.87
C40.69 98.87 40.89 98.99 41.06 99.22
C41.23 99.45 41.32 99.74 41.32 100.10
C41.32 100.42 41.24 100.76 41.07 101.12
C40.90 101.49 40.55 102.00 40.02 102.67
C39.56 103.24 39.24 103.74 39.07 104.16
C38.90 104.58 38.82 104.96 38.82 105.30
L41.91 105.30
L41.91 104.46
L39.62 104.46
C39.68 104.30 39.76 104.14 39.86 103.99
C39.96 103.83 40.18 103.53 40.53 103.09
C41.06 102.40 41.43 101.84 41.62 101.43
C41.81 101.01 41.91 100.58 41.91 100.12
C41.91 99.61 41.78 99.15 41.54 98.75
C41.29 98.35 40.93 98.15 40.46 98.15
Z
M44.17 98.15
C43.68 98.15 43.28 98.44 42.96 99.03
C42.65 99.61 42.49 100.59 42.49 101.97
C42.49 103.21 42.65 104.10 42.95 104.63
C43.26 105.16 43.65 105.42 44.12 105.42
C44.38 105.42 44.62 105.33 44.84 105.15
C45.05 104.96 45.23 104.68 45.37 104.29
C45.51 103.90 45.58 103.47 45.58 102.99
C45.58 102.29 45.44 101.73 45.16 101.31
C44.89 100.89 44.57 100.68 44.20 100.68
C43.97 100.68 43.76 100.76 43.56 100.92
C43.36 101.08 43.20 101.32 43.06 101.63
C43.07 100.75 43.15 100.09 43.33 99.65
C43.53 99.13 43.80 98.87 44.13 98.87
C44.35 98.87 44.53 98.98 44.68 99.21
C44.79 99.37 44.87 99.63 44.93 99.99
L45.50 99.92
C45.45 99.35 45.30 98.91 45.06 98.60
C44.82 98.30 44.52 98.15 44.17 98.15
Z
" fill="black" fill-rule="nonzero" />
<path d="
M55.99 41.93
C56.24 41.93 56.46 42.07 56.63 42.34
C56.81 42.62 56.90 43.02 56.90 43.52
C56.90 44.04 56.81 44.44 56.63 44.73
C56.45 45.03 56.25 45.18 56.03 45.18
C55.77 45.18 55.54 45.02 55.35 44.71
C55.16 44.40 55.06 43.98 55.06 43.47
C55.06 42.99 55.15 42.62 55.34 42.34
C55.52 42.07 55.74 41.93 55.99 41.93
Z
M52.58 38.62
C52.48 38.93 52.31 39.25 52.07 39.58
C51.83 39.91 51.55 40.18 51.23 40.41
L51.23 41.26
C51.42 41.15 51.63 41.00 51.85 40.80
C52.07 40.59 52.25 40.40 52.38 40.20
L52.38 45.77
L52.96 45.77
L52.96 38.62
Z
M56.07 38.62
C55.58 38.62 55.18 38.92 54.87 39.50
C54.56 40.08 54.40 41.07 54.40 42.44
C54.40 43.68 54.55 44.57 54.86 45.10
C55.16 45.63 55.55 45.90 56.02 45.90
C56.28 45.90 56.52 45.80 56.74 45.62
C56.96 45.43 57.14 45.15 57.28 44.76
C57.41 44.37 57.48 43.94 57.48 43.47
C57.48 42.76 57.35 42.20 57.07 41.78
C56.79 41.36 56.47 41.15 56.10 41.15
C55.88 41.15 55.67 41.23 55.47 41.39
C55.27 41.56 55.10 41.79 54.97 42.10
C54.97 41.23 55.06 40.57 55.23 40.12
C55.44 39.60 55.70 39.34 56.04 39.34
C56.25 39.34 56.44 39.46 56.59 39.68
C56.70 39.84 56.78 40.10 56.83 40.46
L57.40 40.40
C57.35 39.82 57.21 39.38 56.97 39.08
C56.73 38.77 56.43 38.62 56.07 38.62
Z
" fill="black" fill-rule="nonzero" />
<path d="
M56.26 52.02
L56.26 55.23
L54.80 55.23
L56.26 52.02
Z
M52.58 50.59
C52.48 50.90 52.31 51.22 52.07 51.55
C51.83 51.87 51.55 52.15 51.23 52.38
L51.23 53.22
C51.42 53.12 51.63 52.97 51.85 52.76
C52.07 52.56 52.25 52.36 52.38 52.17
L52.38 57.74
L52.96 57.74
L52.96 50.59
Z
M56.37 50.62
L54.24 55.23
L54.24 56.04
L56.26 56.04
L56.26 57.74
L56.84 57.74
L56.84 56.04
L57.47 56.04
L57.47 55.23
L56.84 55.23
L56.84 50.62
Z
" fill="black" fill-rule="nonzero" />
<path d="
M55.96 63.15
C56.16 63.15 56.34 63.26 56.50 63.47
C56.65 63.68 56.72 63.96 56.72 64.29
C56.72 64.61 56.65 64.88 56.50 65.08
C56.35 65.29 56.17 65.39 55.96 65.39
C55.75 65.39 55.57 65.28 55.42 65.08
C55.27 64.87 55.20 64.59 55.20 64.24
C55.20 63.93 55.27 63.67 55.42 63.46
C55.57 63.26 55.75 63.15 55.96 63.15
Z
M55.95 66.10
C56.21 66.10 56.44 66.24 56.63 66.50
C56.82 66.77 56.91 67.12 56.91 67.56
C56.91 67.99 56.82 68.34 56.64 68.60
C56.45 68.86 56.23 68.99 55.96 68.99
C55.70 68.99 55.48 68.85 55.29 68.59
C55.10 68.32 55.01 67.97 55.01 67.53
C55.01 67.11 55.10 66.77 55.28 66.50
C55.47 66.23 55.69 66.10 55.95 66.10
Z
M52.58 62.43
C52.48 62.75 52.31 63.06 52.07 63.39
C51.83 63.72 51.55 64.00 51.23 64.22
L51.23 65.07
C51.42 64.96 51.63 64.81 51.85 64.61
C52.07 64.41 52.25 64.21 52.38 64.01
L52.38 69.59
L52.96 69.59
L52.96 62.43
Z
M55.95 62.43
C55.57 62.43 55.25 62.60 54.99 62.94
C54.74 63.28 54.61 63.72 54.61 64.27
C54.61 64.63 54.67 64.93 54.79 65.17
C54.90 65.41 55.08 65.59 55.31 65.72
C55.03 65.83 54.81 66.04 54.66 66.35
C54.50 66.66 54.42 67.05 54.42 67.53
C54.42 68.18 54.57 68.71 54.86 69.11
C55.16 69.51 55.52 69.71 55.96 69.71
C56.40 69.71 56.76 69.51 57.06 69.11
C57.35 68.71 57.50 68.19 57.50 67.55
C57.50 67.09 57.42 66.71 57.27 66.40
C57.12 66.09 56.90 65.86 56.62 65.72
C56.85 65.59 57.02 65.40 57.14 65.17
C57.25 64.93 57.31 64.64 57.31 64.29
C57.31 63.75 57.18 63.30 56.92 62.95
C56.66 62.61 56.34 62.43 55.95 62.43
Z
" fill="black" fill-rule="nonzero" />
</g>
<g  transform="translate(1.19,228.58)" >
<path d="
M106.49 2.72
C106.33 2.72 106.19 2.78 106.07 2.89
C105.96 3.01 105.90 3.15 105.90 3.31
C105.90 3.47 105.96 3.61 106.07 3.73
C106.19 3.84 106.33 3.90 106.49 3.90
C106.66 3.90 106.79 3.84 106.91 3.73
C107.02 3.61 107.08 3.47 107.08 3.31
C107.08 3.15 107.02 3.01 106.91 2.89
C106.79 2.78 106.66 2.72 106.49 2.72
Z
M111.46 7.81
L111.46 9.84
C110.98 10.23 110.60 10.42 110.30 10.42
C110.08 10.42 109.89 10.33 109.73 10.15
C109.56 9.96 109.48 9.73 109.48 9.45
C109.48 9.23 109.54 9.03 109.67 8.84
C109.80 8.66 110.02 8.48 110.33 8.31
C110.50 8.21 110.88 8.05 111.46 7.81
Z
M99.81 3.55
C100.74 3.55 101.51 3.86 102.10 4.49
C102.69 5.12 102.99 5.98 102.99 7.06
C102.99 8.15 102.69 9.00 102.10 9.63
C101.51 10.27 100.76 10.58 99.86 10.58
C99.53 10.58 99.11 10.53 98.62 10.42
L98.62 3.72
C99.07 3.60 99.46 3.55 99.81 3.55
Z
M128.26 3.33
C128.48 3.33 128.67 3.39 128.83 3.52
C129.05 3.70 129.23 4.02 129.37 4.47
C129.56 5.07 129.65 5.82 129.65 6.72
C129.65 7.93 129.56 8.87 129.39 9.54
C129.27 9.98 129.10 10.29 128.87 10.48
C128.65 10.67 128.43 10.76 128.22 10.76
C127.78 10.76 127.46 10.47 127.23 9.90
C126.97 9.21 126.83 8.32 126.83 7.24
C126.83 6.57 126.88 5.89 126.98 5.20
C127.09 4.51 127.28 4.00 127.55 3.68
C127.76 3.45 127.99 3.33 128.26 3.33
Z
M96.37 3.11
L96.37 3.32
L96.67 3.32
C96.97 3.32 97.19 3.41 97.34 3.58
C97.45 3.70 97.51 4.01 97.51 4.50
L97.51 9.59
C97.51 10.04 97.46 10.33 97.38 10.45
C97.24 10.67 97.00 10.77 96.67 10.77
L96.37 10.77
L96.37 10.99
L99.89 10.99
C101.43 10.99 102.57 10.58 103.31 9.76
C103.98 9.02 104.31 8.10 104.31 7.01
C104.31 6.19 104.13 5.47 103.75 4.84
C103.38 4.22 102.88 3.77 102.27 3.51
C101.66 3.24 100.76 3.11 99.58 3.11
Z
M106.72 5.51
L105.12 6.16
L105.20 6.37
C105.35 6.31 105.48 6.28 105.59 6.28
C105.69 6.28 105.77 6.30 105.83 6.35
C105.89 6.40 105.93 6.49 105.96 6.61
C105.99 6.78 106.01 7.16 106.01 7.73
L106.01 9.79
C106.01 10.11 105.98 10.34 105.93 10.45
C105.88 10.57 105.81 10.65 105.72 10.70
C105.63 10.75 105.46 10.78 105.20 10.78
L105.20 10.99
L107.78 10.99
L107.78 10.78
C107.53 10.78 107.36 10.75 107.26 10.70
C107.17 10.64 107.10 10.56 107.05 10.45
C107.00 10.34 106.98 10.12 106.98 9.79
L106.98 5.51
Z
M122.62 2.94
L120.71 3.88
L120.79 4.06
C121.05 3.94 121.25 3.88 121.39 3.88
C121.49 3.88 121.58 3.91 121.65 3.97
C121.72 4.02 121.77 4.12 121.80 4.24
C121.84 4.40 121.86 4.77 121.86 5.34
L121.86 9.60
C121.86 10.07 121.84 10.36 121.79 10.45
C121.75 10.55 121.68 10.62 121.57 10.68
C121.46 10.73 121.22 10.77 120.85 10.77
L120.85 10.99
L123.81 10.99
L123.81 10.77
C123.45 10.77 123.22 10.73 123.10 10.67
C122.99 10.62 122.91 10.53 122.87 10.42
C122.83 10.32 122.82 10.04 122.82 9.60
L122.82 2.94
Z
M110.65 5.51
C110.03 5.51 109.55 5.65 109.21 5.93
C108.87 6.20 108.70 6.51 108.70 6.84
C108.70 7.02 108.75 7.16 108.84 7.26
C108.93 7.36 109.05 7.41 109.19 7.41
C109.34 7.41 109.46 7.36 109.55 7.26
C109.64 7.17 109.68 7.03 109.68 6.85
L109.67 6.51
C109.67 6.34 109.75 6.19 109.89 6.06
C110.04 5.93 110.23 5.86 110.48 5.86
C110.80 5.86 111.04 5.96 111.21 6.16
C111.38 6.36 111.46 6.72 111.46 7.25
L111.46 7.46
C110.55 7.79 109.89 8.08 109.50 8.31
C109.11 8.54 108.83 8.79 108.67 9.05
C108.56 9.24 108.50 9.47 108.50 9.73
C108.50 10.14 108.62 10.47 108.86 10.72
C109.09 10.97 109.40 11.10 109.77 11.10
C110.00 11.10 110.23 11.05 110.43 10.95
C110.57 10.89 110.92 10.64 111.46 10.22
C111.47 10.54 111.53 10.76 111.64 10.90
C111.75 11.03 111.90 11.09 112.09 11.09
C112.49 11.09 112.90 10.80 113.34 10.22
L113.34 9.90
C113.10 10.13 112.95 10.27 112.86 10.32
C112.82 10.35 112.76 10.36 112.70 10.36
C112.64 10.36 112.59 10.34 112.55 10.30
C112.50 10.26 112.47 10.19 112.45 10.07
C112.43 9.96 112.42 9.65 112.42 9.14
L112.42 7.33
C112.42 6.82 112.39 6.48 112.32 6.31
C112.21 6.05 112.04 5.87 111.81 5.75
C111.51 5.59 111.12 5.51 110.65 5.51
Z
M128.26 2.94
C127.89 2.94 127.53 3.07 127.18 3.32
C126.73 3.64 126.37 4.12 126.10 4.77
C125.83 5.42 125.69 6.19 125.69 7.09
C125.69 8.15 125.91 9.05 126.33 9.80
C126.83 10.68 127.45 11.13 128.21 11.13
C128.59 11.13 128.98 10.98 129.39 10.70
C129.80 10.41 130.13 9.94 130.40 9.30
C130.66 8.66 130.79 7.89 130.79 6.97
C130.79 5.67 130.49 4.63 129.89 3.87
C129.41 3.25 128.87 2.94 128.26 2.94
Z
M114.85 9.86
C114.67 9.86 114.52 9.92 114.39 10.05
C114.26 10.17 114.20 10.32 114.20 10.51
C114.20 10.68 114.26 10.84 114.39 10.96
C114.52 11.09 114.67 11.15 114.85 11.15
C115.02 11.15 115.18 11.09 115.30 10.96
C115.43 10.84 115.49 10.68 115.49 10.51
C115.49 10.33 115.43 10.18 115.31 10.05
C115.18 9.92 115.03 9.86 114.85 9.86
Z
" fill="black" fill-rule="nonzero" />
</g>
</g>
</svg>
