<?xml version="1.0" encoding="utf-8" standalone="no"?>
<!DOCTYPE svg PUBLIC "-//W3C//DTD SVG 1.0//EN" "http://www.w3.org/TR/SVG/DTD/svg11.dtd" >
<svg version="1.1" baseProfile="full"  width="319.13385" height="338.46454" viewBox="0 0 229.77638 243.69449" preserveAspectRatio="xMidYMid" xmlns="http://www.w3.org/2000/svg" >

<g lengthAdjust="spacingAndGlyphs" xml:space='preserve' >
<g  transform="translate(1.19,1.19)" >
<path d="
M0.0 0.0
L0.0 227.39
L227.39 227.39
L227.39 0.0
Z
" fill="none" fill-rule="nonzero" />
<line x1="6.54" y1="6.54" x2="6.54" y2="220.84" fill="none" stroke="black" stroke-width="0.87px" stroke-linecap="square" />
<line x1="18.45" y1="6.54" x2="18.45" y2="220.84" fill="none" stroke="black" stroke-width="0.25px" stroke-linecap="butt" />
<line x1="30.35" y1="6.54" x2="30.35" y2="220.84" fill="none" stroke="black" stroke-width="0.25px" stroke-linecap="butt" />
<line x1="42.26" y1="6.54" x2="42.26" y2="220.84" fill="none" stroke="black" stroke-width="0.25px" stroke-linecap="butt" />
<line x1="54.17" y1="6.54" x2="54.17" y2="220.84" fill="none" stroke="black" stroke-width="0.25px" stroke-linecap="butt" />
<line x1="66.07" y1="6.54" x2="66.07" y2="220.84" fill="none" stroke="black" stroke-width="0.25px" stroke-linecap="butt" />
<line x1="77.98" y1="6.54" x2="77.98" y2="220.84" fill="none" stroke="black" stroke-width="0.25px" stroke-linecap="butt" />
<line x1="89.88" y1="6.54" x2="89.88" y2="220.84" fill="none" stroke="black" stroke-width="0.25px" stroke-linecap="butt" />
<line x1="101.79" y1="6.54" x2="101.79" y2="220.84" fill="none" stroke="black" stroke-width="0.25px" stroke-linecap="butt" />
<line x1="113.69" y1="6.54" x2="113.69" y2="220.84" fill="none" stroke="black" stroke-width="0.25px" stroke-linecap="butt" />
<line x1="125.60" y1="6.54" x2="125.60" y2="220.84" fill="none" stroke="black" stroke-width="0.25px" stroke-linecap="butt" />
<line x1="137.50" y1="6.54" x2="137.50" y2="220.84" fill="none" stroke="black" stroke-width="0.25px" stroke-linecap="butt" />
<line x1="149.41" y1="6.54" x2="149.41" y2="220.84" fill="none" stroke="black" stroke-width="0.25px" stroke-linecap="butt" />
<line x1="161.31" y1="6.54" x2="161.31" y2="220.84" fill="none" stroke="black" stroke-width="0.25px" stroke-linecap="butt" />
<line x1="173.22" y1="6.54" x2="173.22" y2="220.84" fill="none" stroke="black" stroke-width="0.25px" stroke-linecap="butt" />
<line x1="185.13" y1="6.54" x2="185.13" y2="220.84" fill="none" stroke="black" stroke-width="0.25px" stroke-linecap="butt" />
<line x1="197.03" y1="6.54" x2="197.03" y2="220.84" fill="none" stroke="black" stroke-width="0.25px" stroke-linecap="butt" />
<line x1="208.94" y1="6.54" x2="208.94" y2="220.84" fill="none" stroke="black" stroke-width="0.25px" stroke-linecap="butt" />
<line x1="220.84" y1="6.54" x2="220.84" y2="220.84" fill="none" stroke="black" stroke-width="0.87px" stroke-linecap="square" />
<line x1="6.54" y1="6.54" x2="220.84" y2="6.54" fill="none" stroke="black" stroke-width="0.87px" stroke-linecap="square" />
<line x1="6.54" y1="18.45" x2="220.84" y2="18.45" fill="none" stroke="black" stroke-width="0.25px" stroke-linecap="butt" />
<line x1="6.54" y1="30.35" x2="220.84" y2="30.35" fill="none" stroke="black" stroke-width="0.25px" stroke-linecap="butt" />
<line x1="6.54" y1="42.26" x2="220.84" y2="42.26" fill="none" stroke="black" stroke-width="0.25px" stroke-linecap="butt" />
<line x1="6.54" y1="54.17" x2="220.84" y2="54.17" fill="none" stroke="black" stroke-width="0.25px" stroke-linecap="butt" />
<line x1="6.54" y1="66.07" x2="220.84" y2="66.07" fill="none" stroke="black" stroke-width="0.25px" stroke-linecap="butt" />
<line x1="6.54" y1="77.98" x2="220.84" y2="77.98" fill="none" stroke="black" stroke-width="0.25px" stroke-linecap="butt" />
<line x1="6.54" y1="89.88" x2="220.84" y2="89.88" fill="none" stroke="black" stroke-width="0.25px" stroke-linecap="butt" />
<line x1="6.54" y1="101.79" x2="220.84" y2="101.79" fill="none" stroke="black" stroke-width="0.25px" stroke-linecap="butt" />
<line x1="6.54" y1="113.69" x2="220.84" y2="113.69" fill="none" stroke="black" stroke-width="0.25px" stroke-linecap="butt" />
<line x1="6.54" y1="125.60" x2="220.84" y2="125.60" fill="none" stroke="black" stroke-width="0.25px" stroke-linecap="butt" />
<line x1="6.54" y1="137.50" x2="220.84" y2="137.50" fill="none" stroke="black" stroke-width="0.25px" stroke-linecap="butt" />
<line x1="6.54" y1="149.41" x2="220.84" y2="149.41" fill="none" stroke="black" stroke-width="0.25px" stroke-linecap="butt" />
<line x1="6.54" y1="161.31" x2="220.84" y2="161.31" fill="none" stroke="black" stroke-width="0.25px" stroke-linecap="butt" />
<line x1="6.54" y1="173.22" x2="220.84" y2="173.22" fill="none" stroke="black" stroke-width="0.25px" stroke-linecap="butt" />
<line x1="6.54" y1="185.13" x2="220.84" y2="185.13" fill="none" stroke="black" stroke-width="0.25px" stroke-linecap="butt" />
<line x1="6.54" y1="197.03" x2="220.84" y2="197.03" fill="none" stroke="black" stroke-width="0.25px" stroke-linecap="butt" />
<line x1="6.54" y1="208.94" x2="220.84" y2="208.94" fill="none" stroke="black" stroke-width="0.25px" stroke-linecap="butt" />
<line x1="6.54" y1="220.84" x2="220.84" y2="220.84" fill="none" stroke="black" stroke-width="0.87px" stroke-linecap="square" />
<circle cx="18.45" cy="30.35" r="5.98" fill="black"/>
<circle cx="18.45" cy="42.26" r="5.85" fill="white"/>
<circle cx="18.45" cy="42.26" r="5.85" fill="none" stroke="black" stroke-width="0.25px"/>
<circle cx="18.45" cy="125.60" r="5.98" fill="black"/>
<circle cx="18.45" cy="137.50" r="5.85" fill="white"/>
<circle cx="18.45" cy="137.50" r="5.85" fill="none" stroke="black" stroke-width="0.25px"/>
<circle cx="18.45" cy="149.41" r="5.98" fill="black"/>
<circle cx="18.45" cy="161.31" r="5.98" fill="black"/>
<circle cx="18.45" cy="173.22" r="5.98" fill="black"/>
<circle cx="18.45" cy="185.13" r="5.98" fill="black"/>
<circle cx="30.35" cy="30.35" r="5.98" fill="black"/>
<circle cx="30.35" cy="42.26" r="5.85" fill="white"/>
<circle cx="30.35" cy="42.26" r="5.85" fill="none" stroke="black" stroke-width="0.25px"/>
<circle cx="30.35" cy="66.07" r="5.98" fill="black"/>
<circle cx="30.35" cy="101.79" r="5.85" fill="white"/>
<circle cx="30.35" cy="101.79" r="5.85" fill="none" stroke="black" stroke-width="0.25px"/>
<circle cx="30.35" cy="125.60" r="5.98" fill="black"/>
<circle cx="30.35" cy="137.50" r="5.98" fill="black"/>
<circle cx="30.35" cy="149.41" r="5.85" fill="white"/>
<circle cx="30.35" cy="149.41" r="5.85" fill="none" stroke="black" stroke-width="0.25px"/>
<circle cx="30.35" cy="161.31" r="5.98" fill="black"/>
<circle cx="30.35" cy="173.22" r="5.85" fill="white"/>
<circle cx="30.35" cy="173.22" r="5.85" fill="none" stroke="black" stroke-width="0.25px"/>
<circle cx="30.35" cy="197.03" r="5.85" fill="white"/>
<circle cx="30.35" cy="197.03" r="5.85" fill="none" stroke="black" stroke-width="0.25px"/>
<circle cx="42.26" cy="30.35" r="5.98" fill="black"/>
<circle cx="42.26" cy="42.26" r="5.85" fill="white"/>
<circle cx="42.26" cy="42.26" r="5.85" fill="none" stroke="black" stroke-width="0.25px"/>
<circle cx="42.26" cy="77.98" r="5.85" fill="white"/>
<circle cx="42.26" cy="77.98" r="5.85" fill="none" stroke="black" stroke-width="0.25px"/>
<circle cx="42.26" cy="113.69" r="1.27" fill="black"/>
<circle cx="42.26" cy="137.50" r="5.85" fill="white"/>
<circle cx="42.26" cy="137.50" r="5.85" fill="none" stroke="black" stroke-width="0.25px"/>
<circle cx="42.26" cy="149.41" r="5.98" fill="black"/>
<circle cx="42.26" cy="161.31" r="5.85" fill="white"/>
<circle cx="42.26" cy="161.31" r="5.85" fill="none" stroke="black" stroke-width="0.25px"/>
<circle cx="42.26" cy="185.13" r="5.85" fill="white"/>
<circle cx="42.26" cy="185.13" r="5.85" fill="none" stroke="black" stroke-width="0.25px"/>
<circle cx="54.17" cy="42.26" r="5.85" fill="white"/>
<circle cx="54.17" cy="42.26" r="5.85" fill="none" stroke="black" stroke-width="0.25px"/>
<circle cx="54.17" cy="149.41" r="5.85" fill="white"/>
<circle cx="54.17" cy="149.41" r="5.85" fill="none" stroke="black" stroke-width="0.25px"/>
<circle cx="66.07" cy="18.45" r="5.98" fill="black"/>
<circle cx="66.07" cy="30.35" r="5.98" fill="black"/>
<circle cx="66.07" cy="42.26" r="5.85" fill="white"/>
<circle cx="66.07" cy="42.26" r="5.85" fill="none" stroke="black" stroke-width="0.25px"/>
<circle cx="66.07" cy="185.13" r="5.85" fill="white"/>
<circle cx="66.07" cy="185.13" r="5.85" fill="none" stroke="black" stroke-width="0.25px"/>
<circle cx="89.88" cy="30.35" r="5.85" fill="white"/>
<circle cx="89.88" cy="30.35" r="5.85" fill="none" stroke="black" stroke-width="0.25px"/>
<circle cx="113.69" cy="42.26" r="1.27" fill="black"/>
<circle cx="113.69" cy="113.69" r="1.27" fill="black"/>
<circle cx="113.69" cy="185.13" r="1.27" fill="black"/>
<circle cx="113.69" cy="197.03" r="5.85" fill="white"/>
<circle cx="113.69" cy="197.03" r="5.85" fill="none" stroke="black" stroke-width="0.25px"/>
<circle cx="185.13" cy="42.26" r="5.98" fill="black"/>
<circle cx="185.13" cy="113.69" r="1.27" fill="black"/>
<circle cx="185.13" cy="185.13" r="1.27" fill="black"/>
<circle cx="185.13" cy="197.03" r="5.98" fill="black"/>
<circle cx="197.03" cy="173.22" r="5.98" fill="black"/>
<path d="
M16.65 121.88
C16.16 121.88 15.77 122.07 15.47 122.45
C15.19 122.82 15.02 123.36 14.98 124.07
L14.97 124.20
L15.10 124.22
L15.69 124.31
L15.85 124.34
L15.85 124.17
C15.85 123.74 15.93 123.42 16.09 123.20
C16.23 122.99 16.41 122.89 16.62 122.89
C16.62 122.89 16.62 122.89 16.63 122.89
C16.63 122.89 16.63 122.89 16.63 122.89
C16.83 122.89 17.00 122.98 17.14 123.17
C17.29 123.38 17.37 123.64 17.37 123.98
C17.37 124.27 17.29 124.59 17.13 124.93
C16.97 125.29 16.62 125.79 16.10 126.45
C15.63 127.04 15.31 127.54 15.13 127.98
C14.95 128.42 14.86 128.82 14.87 129.18
L14.87 129.32
L18.24 129.32
L18.24 129.17
L18.24 128.33
L18.24 128.19
L16.03 128.19
C16.07 128.11 16.12 128.02 16.17 127.93
C16.27 127.78 16.49 127.48 16.83 127.05
C17.37 126.35 17.74 125.78 17.94 125.36
C18.14 124.92 18.24 124.47 18.24 123.99
C18.24 123.46 18.11 122.98 17.85 122.55
C17.58 122.11 17.17 121.88 16.65 121.88
Z
M18.61 122.00
L18.61 122.14
L18.61 122.98
L18.61 123.13
L20.79 123.13
C20.54 123.59 20.31 124.14 20.09 124.77
C19.83 125.50 19.63 126.26 19.49 127.06
C19.34 127.87 19.27 128.57 19.26 129.17
L19.26 129.32
L19.99 129.32
L20.13 129.32
L20.13 129.18
C20.18 128.04 20.38 126.89 20.72 125.72
C21.06 124.56 21.45 123.62 21.89 122.90
L21.91 122.86
L21.91 122.82
L21.91 122.14
L21.91 122.00
Z
" fill="white" fill-rule="nonzero" />
<path d="
M20.27 137.17
C20.53 137.17 20.74 137.31 20.92 137.59
C21.09 137.87 21.18 138.26 21.18 138.76
C21.18 139.28 21.09 139.68 20.91 139.98
C20.74 140.27 20.54 140.42 20.31 140.42
C20.05 140.42 19.83 140.26 19.63 139.95
C19.44 139.64 19.34 139.23 19.34 138.71
C19.34 138.24 19.44 137.86 19.62 137.59
C19.81 137.31 20.02 137.17 20.27 137.17
Z
M16.65 133.87
C16.21 133.87 15.85 134.04 15.59 134.38
C15.32 134.73 15.16 135.24 15.12 135.93
L15.71 136.02
C15.71 135.56 15.80 135.21 15.97 134.96
C16.14 134.71 16.36 134.59 16.63 134.59
C16.87 134.59 17.08 134.71 17.25 134.93
C17.42 135.16 17.51 135.46 17.51 135.82
C17.51 136.13 17.43 136.47 17.26 136.84
C17.09 137.20 16.74 137.72 16.21 138.39
C15.75 138.96 15.43 139.46 15.26 139.88
C15.09 140.30 15.01 140.68 15.01 141.02
L18.10 141.02
L18.10 140.18
L15.81 140.18
C15.87 140.02 15.95 139.86 16.05 139.70
C16.15 139.54 16.37 139.25 16.72 138.81
C17.25 138.11 17.62 137.56 17.81 137.14
C18.00 136.73 18.10 136.29 18.10 135.84
C18.10 135.33 17.97 134.87 17.73 134.47
C17.48 134.07 17.12 133.87 16.65 133.87
Z
M20.36 133.87
C19.87 133.87 19.47 134.16 19.15 134.74
C18.84 135.33 18.68 136.31 18.68 137.69
C18.68 138.93 18.83 139.81 19.14 140.34
C19.45 140.87 19.83 141.14 20.31 141.14
C20.57 141.14 20.81 141.05 21.03 140.86
C21.24 140.68 21.42 140.39 21.56 140.01
C21.70 139.62 21.77 139.19 21.77 138.71
C21.77 138.01 21.63 137.45 21.35 137.03
C21.08 136.61 20.75 136.40 20.38 136.40
C20.16 136.40 19.95 136.48 19.75 136.64
C19.55 136.80 19.39 137.03 19.25 137.35
C19.26 136.47 19.34 135.81 19.52 135.36
C19.72 134.85 19.99 134.59 20.32 134.59
C20.54 134.59 20.72 134.70 20.87 134.93
C20.98 135.08 21.06 135.34 21.11 135.71
L21.69 135.64
C21.63 135.06 21.49 134.62 21.25 134.32
C21.01 134.02 20.71 133.87 20.36 133.87
Z
" fill="black" fill-rule="nonzero" />
<path d="
M18.61 145.75
L18.61 145.89
L18.61 146.73
L18.61 146.87
L20.79 146.87
C20.54 147.34 20.31 147.89 20.09 148.52
C19.83 149.25 19.63 150.01 19.49 150.81
C19.34 151.61 19.27 152.32 19.26 152.92
L19.26 153.06
L19.99 153.06
L20.13 153.06
L20.13 152.93
C20.18 151.79 20.38 150.63 20.72 149.47
C21.06 148.31 21.45 147.37 21.89 146.65
L21.91 146.61
L21.91 146.57
L21.91 145.89
L21.91 145.75
Z
M16.55 145.63
C16.15 145.63 15.80 145.80 15.52 146.15
C15.25 146.48 15.08 146.96 15.00 147.60
L14.99 147.72
L15.10 147.75
L15.68 147.91
L15.84 147.95
L15.85 147.79
C15.89 147.38 15.98 147.08 16.12 146.89
C16.24 146.72 16.39 146.63 16.56 146.63
C16.56 146.63 16.56 146.63 16.56 146.63
C16.56 146.63 16.56 146.63 16.56 146.63
C16.73 146.63 16.87 146.71 16.99 146.88
C17.12 147.05 17.18 147.29 17.18 147.60
C17.18 147.93 17.10 148.19 16.95 148.38
C16.80 148.56 16.61 148.65 16.38 148.65
L16.38 148.65
L16.30 148.64
L16.15 148.63
L16.14 148.77
L16.07 149.54
L16.05 149.77
L16.27 149.68
C16.41 149.62 16.53 149.59 16.62 149.59
C16.62 149.59 16.62 149.59 16.62 149.59
C16.62 149.59 16.62 149.59 16.62 149.59
C16.83 149.59 17.00 149.70 17.15 149.91
C17.31 150.14 17.39 150.45 17.39 150.83
C17.39 151.24 17.30 151.58 17.13 151.83
C16.97 152.06 16.78 152.18 16.57 152.18
C16.57 152.18 16.56 152.18 16.56 152.18
C16.56 152.18 16.56 152.18 16.56 152.18
C16.37 152.18 16.21 152.09 16.09 151.90
C15.95 151.68 15.86 151.35 15.80 150.91
L15.78 150.76
L15.63 150.79
L15.05 150.90
L14.93 150.93
L14.94 151.05
C14.98 151.69 15.15 152.20 15.44 152.59
C15.75 152.99 16.13 153.19 16.57 153.19
C17.05 153.19 17.46 152.96 17.79 152.51
C18.12 152.07 18.28 151.50 18.28 150.82
C18.28 150.50 18.24 150.20 18.16 149.94
C18.08 149.67 17.98 149.46 17.84 149.30
C17.75 149.19 17.65 149.10 17.53 149.03
L17.53 149.03
C17.67 148.89 17.78 148.73 17.87 148.53
C17.99 148.27 18.05 147.96 18.05 147.62
C18.05 147.05 17.91 146.58 17.63 146.21
C17.34 145.82 16.98 145.63 16.55 145.63
Z
" fill="white" fill-rule="nonzero" />
<path d="
M16.55 157.53
C16.15 157.53 15.80 157.71 15.52 158.05
C15.25 158.38 15.08 158.87 15.00 159.51
L14.99 159.63
L15.10 159.66
L15.68 159.81
L15.84 159.86
L15.85 159.69
C15.89 159.29 15.98 158.99 16.12 158.80
C16.24 158.62 16.39 158.54 16.56 158.54
C16.56 158.54 16.56 158.54 16.56 158.54
C16.56 158.54 16.56 158.54 16.56 158.54
C16.73 158.54 16.87 158.62 16.99 158.78
C17.12 158.96 17.18 159.20 17.18 159.50
C17.18 159.83 17.10 160.09 16.95 160.28
C16.80 160.46 16.61 160.55 16.38 160.56
L16.38 160.56
L16.30 160.55
L16.15 160.53
L16.14 160.68
L16.07 161.44
L16.05 161.67
L16.27 161.59
C16.41 161.53 16.53 161.50 16.62 161.50
C16.62 161.50 16.62 161.50 16.62 161.50
C16.62 161.50 16.62 161.50 16.62 161.50
C16.83 161.50 17.00 161.61 17.15 161.82
C17.31 162.05 17.39 162.35 17.39 162.74
C17.39 163.15 17.30 163.48 17.13 163.73
C16.97 163.97 16.78 164.09 16.57 164.09
C16.57 164.09 16.56 164.09 16.56 164.09
C16.56 164.09 16.56 164.09 16.56 164.09
C16.37 164.09 16.21 163.99 16.09 163.80
C15.95 163.59 15.86 163.26 15.80 162.81
L15.78 162.66
L15.63 162.69
L15.05 162.81
L14.93 162.83
L14.94 162.96
C14.98 163.60 15.15 164.11 15.44 164.50
C15.75 164.89 16.13 165.09 16.57 165.10
C17.05 165.09 17.46 164.87 17.79 164.41
C18.12 163.97 18.28 163.41 18.28 162.72
C18.28 162.40 18.24 162.11 18.16 161.85
C18.08 161.58 17.98 161.36 17.84 161.20
C17.75 161.09 17.65 161.00 17.53 160.93
L17.53 160.93
C17.67 160.80 17.78 160.63 17.87 160.44
C17.99 160.17 18.05 159.87 18.05 159.52
C18.05 158.96 17.91 158.49 17.63 158.11
C17.34 157.73 16.98 157.54 16.55 157.53
Z
M20.18 157.53
C19.78 157.53 19.43 157.71 19.15 158.05
C18.88 158.38 18.71 158.87 18.63 159.51
L18.62 159.63
L18.73 159.66
L19.31 159.81
L19.47 159.86
L19.48 159.69
C19.52 159.29 19.61 158.99 19.75 158.80
C19.87 158.62 20.02 158.54 20.19 158.54
C20.19 158.54 20.19 158.54 20.19 158.54
C20.19 158.54 20.19 158.54 20.19 158.54
C20.36 158.54 20.50 158.62 20.62 158.78
C20.75 158.96 20.81 159.20 20.81 159.50
C20.81 159.83 20.73 160.09 20.58 160.28
C20.43 160.46 20.24 160.55 20.01 160.56
L20.01 160.56
L19.93 160.55
L19.78 160.53
L19.77 160.68
L19.70 161.44
L19.68 161.67
L19.90 161.59
C20.04 161.53 20.16 161.50 20.25 161.50
C20.25 161.50 20.25 161.50 20.25 161.50
C20.25 161.50 20.25 161.50 20.25 161.50
C20.46 161.50 20.63 161.61 20.78 161.82
C20.94 162.05 21.02 162.35 21.02 162.74
C21.02 163.15 20.93 163.48 20.76 163.73
C20.60 163.97 20.41 164.09 20.20 164.09
C20.20 164.09 20.19 164.09 20.19 164.09
C20.19 164.09 20.19 164.09 20.19 164.09
C20.00 164.09 19.84 163.99 19.72 163.80
C19.58 163.59 19.49 163.26 19.43 162.81
L19.41 162.66
L19.26 162.69
L18.68 162.81
L18.56 162.83
L18.57 162.96
C18.61 163.60 18.78 164.11 19.07 164.50
C19.38 164.89 19.76 165.09 20.20 165.10
C20.68 165.09 21.09 164.87 21.42 164.41
C21.75 163.97 21.91 163.41 21.91 162.72
C21.91 162.40 21.87 162.11 21.79 161.85
C21.71 161.58 21.61 161.36 21.47 161.20
C21.38 161.09 21.28 161.00 21.16 160.93
L21.16 160.93
C21.30 160.80 21.41 160.63 21.50 160.44
C21.62 160.17 21.68 159.87 21.68 159.52
C21.68 158.96 21.54 158.49 21.26 158.11
C20.97 157.73 20.61 157.54 20.18 157.53
Z
" fill="white" fill-rule="nonzero" />
<path d="
M20.24 170.45
C20.25 170.45 20.25 170.45 20.25 170.45
C20.25 170.45 20.25 170.45 20.25 170.45
C20.43 170.45 20.60 170.57 20.75 170.82
C20.92 171.09 21.00 171.46 21.00 171.94
C21.00 172.43 20.92 172.80 20.76 173.05
C20.62 173.29 20.44 173.41 20.24 173.41
C20.24 173.41 20.24 173.41 20.24 173.41
C20.24 173.41 20.23 173.41 20.23 173.41
C20.03 173.41 19.85 173.29 19.69 173.05
C19.53 172.80 19.44 172.46 19.44 172.02
C19.44 171.53 19.53 171.14 19.71 170.85
C19.87 170.58 20.05 170.45 20.24 170.45
Z
M16.65 169.44
C16.16 169.44 15.77 169.63 15.47 170.01
C15.19 170.38 15.02 170.92 14.98 171.64
L14.97 171.76
L15.10 171.78
L15.69 171.88
L15.85 171.90
L15.85 171.74
C15.85 171.31 15.93 170.98 16.09 170.76
C16.23 170.55 16.41 170.45 16.62 170.45
C16.62 170.45 16.62 170.45 16.63 170.45
C16.63 170.45 16.63 170.45 16.63 170.45
C16.83 170.45 17.00 170.54 17.14 170.73
C17.29 170.94 17.37 171.21 17.37 171.54
C17.37 171.83 17.29 172.15 17.13 172.50
C16.97 172.85 16.62 173.36 16.10 174.01
C15.63 174.60 15.31 175.11 15.13 175.54
C14.95 175.98 14.86 176.38 14.87 176.74
L14.87 176.88
L18.24 176.88
L18.24 176.74
L18.24 175.89
L18.24 175.75
L16.03 175.75
C16.07 175.67 16.12 175.58 16.17 175.49
C16.27 175.34 16.49 175.05 16.83 174.61
C17.37 173.91 17.74 173.35 17.94 172.92
C18.14 172.49 18.24 172.03 18.24 171.56
C18.24 171.02 18.11 170.54 17.85 170.11
C17.58 169.67 17.17 169.44 16.65 169.44
Z
M20.18 169.44
C19.72 169.44 19.34 169.68 19.02 170.15
C18.72 170.60 18.57 171.22 18.57 171.99
C18.57 172.74 18.71 173.33 19.00 173.77
C19.31 174.23 19.68 174.46 20.11 174.46
C20.35 174.46 20.59 174.37 20.82 174.18
C20.90 174.10 20.98 174.02 21.06 173.93
L21.06 173.93
C21.04 174.32 20.99 174.67 20.91 174.98
C20.81 175.38 20.68 175.65 20.54 175.79
C20.42 175.93 20.28 176.00 20.13 176.00
C20.13 176.00 20.12 176.00 20.12 176.00
C20.12 176.00 20.12 176.00 20.12 176.00
C19.96 176.00 19.82 175.92 19.72 175.78
C19.61 175.61 19.53 175.35 19.49 174.99
L19.47 174.85
L19.33 174.87
L18.77 174.95
L18.64 174.97
L18.65 175.10
C18.70 175.70 18.85 176.16 19.11 176.49
C19.38 176.83 19.71 177.00 20.11 177.00
C20.46 177.00 20.78 176.86 21.06 176.58
C21.33 176.32 21.54 175.90 21.70 175.33
C21.85 174.78 21.93 174.01 21.93 173.02
C21.93 172.13 21.85 171.44 21.71 170.96
C21.57 170.47 21.36 170.10 21.09 169.84
C20.81 169.58 20.51 169.44 20.18 169.44
Z
" fill="white" fill-rule="nonzero" />
<path d="
M31.57 136.38
L31.57 136.38
L31.57 136.38
C31.57 136.38 31.57 136.38 31.57 136.38
Z
M31.04 133.85
L31.03 133.97
L30.57 137.63
L30.56 137.76
L30.69 137.79
L31.23 137.90
L31.34 137.92
L31.39 137.81
C31.47 137.62 31.57 137.47 31.70 137.36
C31.83 137.26 31.96 137.21 32.10 137.21
C32.10 137.21 32.10 137.21 32.10 137.21
C32.10 137.21 32.11 137.21 32.11 137.21
C32.34 137.21 32.54 137.33 32.70 137.57
C32.88 137.82 32.96 138.19 32.96 138.67
C32.96 139.18 32.87 139.58 32.69 139.87
C32.52 140.14 32.33 140.28 32.11 140.28
C32.11 140.28 32.11 140.28 32.11 140.28
C32.11 140.28 32.11 140.28 32.10 140.28
C31.93 140.28 31.78 140.19 31.65 140.00
C31.50 139.80 31.40 139.49 31.36 139.06
L31.34 138.91
L31.20 138.93
L30.60 139.01
L30.46 139.03
L30.47 139.16
C30.51 139.81 30.68 140.32 30.98 140.70
C31.29 141.08 31.67 141.28 32.11 141.28
C32.66 141.28 33.08 141.01 33.40 140.46
C33.70 139.94 33.85 139.32 33.85 138.60
C33.85 137.87 33.70 137.28 33.40 136.84
C33.08 136.38 32.70 136.15 32.26 136.15
C32.02 136.15 31.79 136.23 31.57 136.38
L31.57 136.38
L31.75 134.97
L33.63 134.97
L33.63 134.83
L33.63 133.99
L33.63 133.85
Z
M28.46 133.72
C28.05 133.72 27.71 133.90 27.43 134.24
C27.16 134.57 26.98 135.06 26.91 135.69
L26.89 135.82
L27.01 135.85
L27.58 136.00
L27.74 136.05
L27.76 135.88
C27.80 135.47 27.89 135.18 28.02 134.98
C28.14 134.81 28.29 134.73 28.46 134.73
C28.46 134.73 28.46 134.73 28.47 134.73
C28.47 134.73 28.47 134.73 28.47 134.73
C28.63 134.73 28.77 134.81 28.89 134.97
C29.02 135.15 29.09 135.39 29.09 135.69
C29.09 136.02 29.01 136.28 28.85 136.47
C28.71 136.65 28.52 136.74 28.28 136.74
L28.28 136.74
L28.20 136.74
L28.06 136.72
L28.04 136.86
L27.98 137.63
L27.96 137.86
L28.17 137.78
C28.32 137.72 28.43 137.69 28.52 137.69
C28.52 137.69 28.52 137.69 28.52 137.69
C28.52 137.69 28.53 137.69 28.53 137.69
C28.73 137.69 28.91 137.80 29.06 138.01
C29.22 138.24 29.30 138.54 29.30 138.93
C29.30 139.34 29.21 139.67 29.03 139.92
C28.87 140.16 28.68 140.28 28.47 140.28
C28.47 140.28 28.47 140.28 28.47 140.28
C28.47 140.28 28.47 140.28 28.47 140.28
C28.28 140.28 28.12 140.18 28.00 139.99
C27.86 139.78 27.76 139.45 27.70 139.00
L27.68 138.85
L27.54 138.88
L26.96 139.00
L26.84 139.02
L26.85 139.15
C26.89 139.79 27.06 140.30 27.35 140.68
C27.66 141.08 28.03 141.28 28.48 141.28
C28.95 141.28 29.36 141.06 29.70 140.60
C30.03 140.16 30.19 139.60 30.19 138.91
C30.19 138.59 30.15 138.30 30.07 138.04
C29.99 137.77 29.88 137.55 29.75 137.39
C29.66 137.28 29.56 137.19 29.44 137.12
L29.44 137.12
C29.58 136.99 29.69 136.82 29.78 136.63
C29.90 136.36 29.96 136.06 29.96 135.71
C29.96 135.15 29.82 134.68 29.53 134.30
C29.24 133.92 28.88 133.72 28.46 133.72
Z
" fill="white" fill-rule="nonzero" />
<path d="
M32.11 146.49
C32.40 146.49 32.63 146.69 32.80 147.08
C32.98 147.47 33.07 148.25 33.07 149.41
C33.07 150.56 32.98 151.33 32.81 151.73
C32.63 152.12 32.41 152.32 32.15 152.32
C31.87 152.32 31.65 152.13 31.47 151.73
C31.29 151.34 31.20 150.57 31.20 149.41
C31.20 148.26 31.29 147.49 31.46 147.09
C31.64 146.69 31.86 146.49 32.11 146.49
Z
M32.14 145.77
C31.64 145.77 31.26 146.08 31.00 146.69
C30.74 147.31 30.61 148.21 30.61 149.41
C30.61 150.74 30.76 151.68 31.04 152.23
C31.32 152.77 31.69 153.04 32.13 153.04
C32.64 153.04 33.02 152.73 33.28 152.12
C33.53 151.50 33.66 150.60 33.66 149.41
C33.66 148.08 33.51 147.12 33.20 146.52
C32.94 146.02 32.59 145.77 32.14 145.77
Z
M28.46 145.77
C28.10 145.77 27.79 145.93 27.54 146.24
C27.28 146.55 27.12 147.01 27.05 147.62
L27.62 147.77
C27.66 147.34 27.76 147.02 27.91 146.81
C28.06 146.60 28.25 146.49 28.47 146.49
C28.68 146.49 28.86 146.59 29.01 146.79
C29.15 147.00 29.23 147.26 29.23 147.60
C29.23 147.96 29.14 148.25 28.96 148.47
C28.79 148.68 28.56 148.79 28.27 148.79
L28.19 148.78
L28.12 149.55
C28.28 149.49 28.41 149.45 28.52 149.45
C28.78 149.45 29.00 149.58 29.17 149.83
C29.35 150.08 29.44 150.42 29.44 150.83
C29.44 151.27 29.34 151.63 29.15 151.91
C28.96 152.19 28.73 152.32 28.47 152.32
C27.98 152.32 27.68 151.86 27.56 150.92
L26.99 151.04
C27.03 151.65 27.19 152.14 27.46 152.50
C27.74 152.87 28.08 153.05 28.48 153.05
C28.91 153.05 29.28 152.84 29.58 152.42
C29.89 152.01 30.05 151.47 30.05 150.82
C30.05 150.51 30.01 150.23 29.93 149.98
C29.86 149.73 29.76 149.53 29.64 149.38
C29.52 149.24 29.36 149.13 29.18 149.06
C29.38 148.92 29.54 148.73 29.65 148.48
C29.76 148.23 29.82 147.94 29.82 147.62
C29.82 147.09 29.69 146.64 29.42 146.29
C29.16 145.95 28.84 145.77 28.46 145.77
Z
" fill="black" fill-rule="nonzero" />
<path d="
M32.15 170.30
C32.35 170.30 32.53 170.41 32.68 170.62
C32.84 170.83 32.91 171.11 32.91 171.44
C32.91 171.76 32.84 172.03 32.69 172.23
C32.54 172.44 32.36 172.54 32.15 172.54
C31.94 172.54 31.76 172.43 31.61 172.23
C31.46 172.02 31.39 171.74 31.39 171.39
C31.39 171.08 31.46 170.82 31.61 170.61
C31.76 170.41 31.94 170.30 32.15 170.30
Z
M32.14 173.25
C32.40 173.25 32.63 173.39 32.82 173.65
C33.01 173.92 33.10 174.27 33.10 174.71
C33.10 175.14 33.01 175.49 32.83 175.75
C32.64 176.01 32.42 176.14 32.15 176.14
C31.89 176.14 31.67 176.00 31.48 175.74
C31.29 175.47 31.20 175.12 31.20 174.68
C31.20 174.26 31.29 173.92 31.47 173.65
C31.65 173.38 31.88 173.25 32.14 173.25
Z
M28.55 169.58
C28.11 169.58 27.76 169.76 27.49 170.10
C27.22 170.45 27.07 170.96 27.03 171.64
L27.62 171.74
C27.62 171.28 27.70 170.92 27.87 170.68
C28.05 170.43 28.26 170.31 28.53 170.31
C28.78 170.31 28.99 170.42 29.16 170.65
C29.33 170.88 29.41 171.17 29.41 171.54
C29.41 171.85 29.33 172.19 29.16 172.55
C29.00 172.92 28.65 173.43 28.11 174.10
C27.65 174.68 27.34 175.17 27.17 175.59
C26.99 176.01 26.91 176.40 26.92 176.74
L30.01 176.74
L30.01 175.89
L27.72 175.89
C27.78 175.74 27.86 175.58 27.96 175.42
C28.06 175.26 28.28 174.96 28.62 174.52
C29.16 173.83 29.52 173.28 29.71 172.86
C29.90 172.44 30.00 172.01 30.00 171.56
C30.00 171.04 29.88 170.59 29.63 170.19
C29.39 169.78 29.03 169.58 28.55 169.58
Z
M32.14 169.58
C31.76 169.58 31.44 169.75 31.18 170.09
C30.92 170.43 30.80 170.87 30.80 171.42
C30.80 171.77 30.86 172.08 30.97 172.32
C31.09 172.56 31.27 172.74 31.50 172.87
C31.22 172.98 31.00 173.19 30.85 173.50
C30.69 173.81 30.61 174.20 30.61 174.68
C30.61 175.33 30.76 175.86 31.05 176.26
C31.35 176.66 31.71 176.86 32.15 176.86
C32.59 176.86 32.95 176.66 33.25 176.26
C33.54 175.86 33.69 175.34 33.69 174.70
C33.69 174.24 33.61 173.86 33.46 173.55
C33.31 173.24 33.09 173.01 32.81 172.87
C33.04 172.74 33.21 172.55 33.33 172.32
C33.44 172.08 33.50 171.79 33.50 171.44
C33.50 170.90 33.37 170.45 33.11 170.10
C32.85 169.76 32.53 169.58 32.14 169.58
Z
" fill="black" fill-rule="nonzero" />
<path d="
M44.36 135.30
L44.36 138.51
L42.90 138.51
L44.36 135.30
Z
M44.47 133.89
L42.33 138.51
L42.33 139.31
L44.36 139.31
L44.36 141.02
L44.93 141.02
L44.93 139.31
L45.57 139.31
L45.57 138.51
L44.93 138.51
L44.93 133.89
Z
M40.36 133.86
C40.00 133.86 39.70 134.02 39.44 134.33
C39.19 134.64 39.02 135.10 38.95 135.71
L39.52 135.87
C39.56 135.44 39.66 135.11 39.81 134.90
C39.96 134.69 40.15 134.58 40.37 134.58
C40.58 134.58 40.76 134.69 40.91 134.89
C41.06 135.09 41.13 135.36 41.13 135.69
C41.13 136.05 41.04 136.34 40.87 136.56
C40.69 136.78 40.46 136.89 40.18 136.89
L40.09 136.88
L40.02 137.64
C40.19 137.58 40.32 137.55 40.43 137.55
C40.69 137.55 40.90 137.67 41.08 137.93
C41.25 138.18 41.34 138.51 41.34 138.93
C41.34 139.37 41.25 139.73 41.05 140.00
C40.86 140.28 40.64 140.42 40.37 140.42
C39.89 140.42 39.59 139.95 39.47 139.02
L38.89 139.14
C38.93 139.75 39.09 140.24 39.37 140.60
C39.65 140.96 39.98 141.14 40.38 141.14
C40.81 141.14 41.18 140.93 41.49 140.52
C41.80 140.10 41.95 139.57 41.95 138.91
C41.95 138.60 41.92 138.33 41.84 138.08
C41.76 137.83 41.67 137.63 41.54 137.48
C41.42 137.33 41.27 137.22 41.08 137.16
C41.28 137.02 41.44 136.82 41.55 136.57
C41.67 136.32 41.72 136.03 41.72 135.71
C41.72 135.18 41.59 134.74 41.33 134.39
C41.06 134.04 40.74 133.86 40.36 133.86
Z
" fill="black" fill-rule="nonzero" />
<path d="
M44.20 145.63
L44.17 145.73
C44.08 146.02 43.92 146.33 43.68 146.64
C43.45 146.96 43.18 147.22 42.88 147.44
L42.82 147.49
L42.82 147.56
L42.82 148.40
L42.82 148.64
L43.03 148.53
C43.22 148.42 43.44 148.26 43.67 148.05
C43.78 147.95 43.88 147.85 43.96 147.76
L43.96 147.76
L43.96 152.92
L43.96 153.06
L44.82 153.06
L44.82 152.92
L44.82 145.77
L44.82 145.63
Z
M40.36 145.63
C39.96 145.63 39.61 145.80 39.33 146.15
C39.06 146.48 38.89 146.96 38.81 147.60
L38.80 147.72
L38.91 147.75
L39.49 147.91
L39.65 147.95
L39.66 147.79
C39.70 147.38 39.79 147.08 39.93 146.89
C40.05 146.72 40.20 146.63 40.37 146.63
C40.37 146.63 40.37 146.63 40.37 146.63
C40.37 146.63 40.37 146.63 40.37 146.63
C40.54 146.63 40.68 146.71 40.80 146.88
C40.93 147.05 40.99 147.29 40.99 147.60
C40.99 147.93 40.91 148.19 40.76 148.38
C40.61 148.56 40.42 148.65 40.19 148.65
L40.19 148.65
L40.11 148.64
L39.96 148.63
L39.95 148.77
L39.88 149.54
L39.86 149.77
L40.08 149.68
C40.22 149.62 40.34 149.59 40.43 149.59
C40.43 149.59 40.43 149.59 40.43 149.59
C40.43 149.59 40.43 149.59 40.43 149.59
C40.64 149.59 40.82 149.70 40.96 149.91
C41.12 150.14 41.20 150.45 41.20 150.83
C41.20 151.24 41.11 151.58 40.94 151.83
C40.78 152.06 40.59 152.18 40.38 152.18
C40.38 152.18 40.38 152.18 40.37 152.18
C40.37 152.18 40.37 152.18 40.37 152.18
C40.18 152.18 40.03 152.09 39.90 151.90
C39.76 151.68 39.67 151.35 39.61 150.91
L39.59 150.76
L39.44 150.79
L38.87 150.90
L38.74 150.93
L38.75 151.05
C38.79 151.69 38.96 152.20 39.26 152.59
C39.56 152.99 39.94 153.19 40.38 153.19
C40.86 153.19 41.27 152.96 41.60 152.51
C41.93 152.07 42.09 151.50 42.09 150.82
C42.09 150.50 42.05 150.20 41.98 149.94
C41.89 149.67 41.79 149.46 41.65 149.30
C41.57 149.19 41.46 149.10 41.34 149.03
L41.34 149.03
C41.48 148.89 41.60 148.73 41.68 148.53
C41.80 148.27 41.87 147.96 41.87 147.62
C41.86 147.05 41.72 146.58 41.44 146.21
C41.15 145.82 40.79 145.63 40.36 145.63
Z
" fill="white" fill-rule="nonzero" />
<path d="
M44.09 157.68
C43.65 157.68 43.30 157.85 43.03 158.19
C42.76 158.54 42.60 159.05 42.56 159.74
L43.15 159.83
C43.15 159.37 43.24 159.02 43.41 158.77
C43.58 158.52 43.80 158.40 44.07 158.40
C44.32 158.40 44.52 158.51 44.69 158.74
C44.86 158.97 44.95 159.27 44.95 159.63
C44.95 159.94 44.87 160.28 44.70 160.65
C44.53 161.01 44.18 161.53 43.65 162.19
C43.19 162.77 42.87 163.26 42.70 163.69
C42.53 164.11 42.45 164.49 42.45 164.83
L45.54 164.83
L45.54 163.99
L43.25 163.99
C43.31 163.83 43.39 163.67 43.49 163.51
C43.59 163.35 43.81 163.05 44.16 162.62
C44.69 161.92 45.06 161.37 45.25 160.95
C45.44 160.54 45.54 160.10 45.54 159.65
C45.54 159.14 45.41 158.68 45.17 158.28
C44.92 157.88 44.56 157.68 44.09 157.68
Z
M40.36 157.68
C40.00 157.68 39.70 157.83 39.44 158.14
C39.19 158.45 39.02 158.91 38.95 159.52
L39.52 159.68
C39.56 159.25 39.66 158.93 39.81 158.71
C39.96 158.50 40.15 158.39 40.37 158.39
C40.58 158.39 40.76 158.50 40.91 158.70
C41.06 158.90 41.13 159.17 41.13 159.50
C41.13 159.87 41.04 160.16 40.87 160.37
C40.69 160.59 40.46 160.70 40.18 160.70
L40.09 160.69
L40.02 161.46
C40.19 161.39 40.32 161.36 40.43 161.36
C40.69 161.36 40.90 161.48 41.08 161.74
C41.25 161.99 41.34 162.32 41.34 162.74
C41.34 163.18 41.25 163.54 41.05 163.81
C40.86 164.09 40.64 164.23 40.37 164.23
C39.89 164.23 39.59 163.76 39.47 162.83
L38.89 162.95
C38.93 163.56 39.09 164.05 39.37 164.41
C39.65 164.77 39.98 164.95 40.38 164.95
C40.81 164.95 41.18 164.75 41.49 164.33
C41.80 163.91 41.95 163.38 41.95 162.72
C41.95 162.42 41.92 162.14 41.84 161.89
C41.76 161.64 41.67 161.44 41.54 161.29
C41.42 161.14 41.27 161.03 41.08 160.97
C41.28 160.83 41.44 160.63 41.55 160.38
C41.67 160.13 41.72 159.85 41.72 159.52
C41.72 158.99 41.59 158.55 41.33 158.20
C41.06 157.85 40.74 157.68 40.36 157.68
Z
" fill="black" fill-rule="nonzero" />
<path d="
M55.99 149.07
C56.24 149.07 56.46 149.21 56.63 149.49
C56.81 149.77 56.90 150.16 56.90 150.67
C56.90 151.18 56.81 151.59 56.63 151.88
C56.45 152.18 56.25 152.32 56.03 152.32
C55.77 152.32 55.54 152.17 55.35 151.86
C55.16 151.54 55.06 151.13 55.06 150.61
C55.06 150.14 55.15 149.77 55.34 149.49
C55.52 149.21 55.74 149.07 55.99 149.07
Z
M56.07 145.77
C55.58 145.77 55.18 146.06 54.87 146.65
C54.56 147.23 54.40 148.21 54.40 149.59
C54.40 150.83 54.55 151.72 54.86 152.25
C55.16 152.78 55.55 153.04 56.02 153.04
C56.28 153.04 56.52 152.95 56.74 152.77
C56.96 152.58 57.14 152.30 57.28 151.91
C57.42 151.52 57.48 151.09 57.48 150.61
C57.48 149.91 57.35 149.35 57.07 148.93
C56.79 148.51 56.47 148.30 56.10 148.30
C55.88 148.30 55.67 148.38 55.47 148.54
C55.27 148.70 55.10 148.94 54.97 149.25
C54.97 148.37 55.06 147.71 55.23 147.27
C55.44 146.75 55.70 146.49 56.04 146.49
C56.25 146.49 56.44 146.60 56.59 146.83
C56.70 146.98 56.78 147.25 56.83 147.61
L57.40 147.54
C57.35 146.97 57.21 146.53 56.97 146.22
C56.73 145.92 56.43 145.77 56.07 145.77
Z
M52.27 145.77
C51.91 145.77 51.60 145.93 51.35 146.24
C51.09 146.55 50.93 147.01 50.86 147.62
L51.43 147.77
C51.47 147.34 51.57 147.02 51.72 146.81
C51.87 146.60 52.06 146.49 52.28 146.49
C52.49 146.49 52.67 146.59 52.82 146.79
C52.96 147.00 53.04 147.26 53.04 147.60
C53.04 147.96 52.95 148.25 52.77 148.47
C52.60 148.68 52.37 148.79 52.09 148.79
L52.00 148.78
L51.93 149.55
C52.09 149.49 52.23 149.45 52.33 149.45
C52.59 149.45 52.81 149.58 52.98 149.83
C53.16 150.08 53.25 150.42 53.25 150.83
C53.25 151.27 53.15 151.63 52.96 151.91
C52.77 152.19 52.54 152.32 52.28 152.32
C51.80 152.32 51.49 151.86 51.37 150.92
L50.80 151.04
C50.84 151.65 51.00 152.14 51.27 152.50
C51.55 152.87 51.89 153.05 52.29 153.05
C52.72 153.05 53.09 152.84 53.40 152.42
C53.70 152.01 53.86 151.47 53.86 150.82
C53.86 150.51 53.82 150.23 53.75 149.98
C53.67 149.73 53.57 149.53 53.45 149.38
C53.33 149.24 53.17 149.13 52.99 149.06
C53.19 148.92 53.35 148.73 53.46 148.48
C53.57 148.23 53.63 147.94 53.63 147.62
C53.63 147.09 53.50 146.64 53.23 146.29
C52.97 145.95 52.65 145.77 52.27 145.77
Z
" fill="black" fill-rule="nonzero" />
</g>
<g  transform="translate(1.19,228.58)" >
<path d="
M106.49 2.94
C106.33 2.94 106.19 3.00 106.07 3.11
C105.96 3.23 105.90 3.37 105.90 3.53
C105.90 3.69 105.96 3.83 106.08 3.95
C106.19 4.07 106.33 4.12 106.49 4.12
C106.66 4.12 106.80 4.07 106.91 3.95
C107.02 3.83 107.08 3.69 107.08 3.53
C107.08 3.37 107.02 3.23 106.91 3.11
C106.80 3.00 106.66 2.94 106.49 2.94
Z
M111.46 8.04
L111.46 10.07
C110.98 10.46 110.60 10.65 110.30 10.65
C110.08 10.65 109.89 10.56 109.73 10.37
C109.56 10.19 109.48 9.96 109.48 9.68
C109.48 9.46 109.54 9.25 109.67 9.07
C109.81 8.88 110.02 8.70 110.33 8.53
C110.50 8.44 110.88 8.27 111.46 8.04
Z
M99.82 3.77
C100.75 3.77 101.51 4.08 102.10 4.71
C102.69 5.34 102.99 6.20 102.99 7.29
C102.99 8.37 102.69 9.23 102.10 9.86
C101.51 10.49 100.76 10.81 99.86 10.81
C99.53 10.81 99.12 10.75 98.62 10.64
L98.62 3.94
C99.07 3.83 99.47 3.77 99.82 3.77
Z
M96.37 3.33
L96.37 3.54
L96.67 3.54
C96.97 3.54 97.19 3.63 97.34 3.80
C97.45 3.92 97.51 4.23 97.51 4.72
L97.51 9.82
C97.51 10.26 97.46 10.55 97.38 10.68
C97.24 10.89 97.00 11.00 96.67 11.00
L96.37 11.00
L96.37 11.21
L99.90 11.21
C101.43 11.21 102.57 10.80 103.32 9.98
C103.98 9.24 104.32 8.33 104.32 7.23
C104.32 6.41 104.13 5.69 103.76 5.07
C103.38 4.44 102.89 4.00 102.27 3.73
C101.66 3.46 100.76 3.33 99.58 3.33
Z
M106.72 5.73
L105.12 6.38
L105.20 6.59
C105.35 6.53 105.48 6.50 105.59 6.50
C105.69 6.50 105.77 6.53 105.83 6.58
C105.89 6.62 105.93 6.71 105.96 6.83
C105.99 7.00 106.01 7.38 106.01 7.96
L106.01 10.01
C106.01 10.34 105.98 10.56 105.93 10.68
C105.88 10.79 105.81 10.88 105.72 10.93
C105.63 10.98 105.46 11.00 105.20 11.00
L105.20 11.21
L107.78 11.21
L107.78 11.00
C107.53 11.00 107.36 10.98 107.26 10.92
C107.17 10.87 107.10 10.79 107.05 10.68
C107.00 10.56 106.98 10.34 106.98 10.01
L106.98 5.73
Z
M122.63 3.16
L120.71 4.10
L120.79 4.28
C121.05 4.16 121.25 4.10 121.39 4.10
C121.49 4.10 121.58 4.13 121.65 4.19
C121.72 4.25 121.77 4.34 121.80 4.46
C121.84 4.62 121.86 4.99 121.86 5.57
L121.86 9.82
C121.86 10.30 121.84 10.58 121.79 10.67
C121.75 10.77 121.68 10.85 121.57 10.90
C121.46 10.96 121.22 10.99 120.85 11.00
L120.85 11.21
L123.81 11.21
L123.81 11.00
C123.46 10.99 123.22 10.96 123.10 10.90
C122.99 10.84 122.91 10.76 122.87 10.65
C122.84 10.54 122.82 10.27 122.82 9.82
L122.82 3.16
Z
M110.65 5.73
C110.03 5.73 109.56 5.87 109.21 6.15
C108.87 6.43 108.70 6.73 108.70 7.07
C108.70 7.24 108.75 7.38 108.84 7.48
C108.93 7.58 109.05 7.63 109.19 7.63
C109.34 7.63 109.46 7.58 109.55 7.49
C109.64 7.39 109.69 7.25 109.69 7.07
L109.67 6.74
C109.67 6.56 109.75 6.41 109.89 6.28
C110.04 6.15 110.23 6.08 110.48 6.08
C110.80 6.08 111.04 6.18 111.21 6.38
C111.38 6.58 111.46 6.94 111.46 7.47
L111.46 7.68
C110.55 8.02 109.90 8.30 109.50 8.53
C109.11 8.76 108.83 9.01 108.67 9.28
C108.56 9.47 108.50 9.69 108.50 9.95
C108.50 10.36 108.62 10.69 108.86 10.95
C109.09 11.20 109.40 11.32 109.77 11.32
C110.00 11.32 110.23 11.27 110.44 11.18
C110.57 11.11 110.92 10.87 111.46 10.45
C111.47 10.76 111.53 10.99 111.64 11.12
C111.75 11.25 111.90 11.32 112.09 11.32
C112.49 11.32 112.90 11.03 113.34 10.45
L113.34 10.12
C113.10 10.35 112.95 10.49 112.87 10.54
C112.82 10.57 112.77 10.58 112.70 10.58
C112.65 10.58 112.59 10.57 112.55 10.53
C112.50 10.49 112.47 10.41 112.45 10.30
C112.43 10.18 112.42 9.87 112.42 9.36
L112.42 7.55
C112.42 7.04 112.39 6.70 112.32 6.53
C112.21 6.28 112.04 6.09 111.81 5.97
C111.51 5.81 111.12 5.73 110.65 5.73
Z
M127.61 3.33
L126.10 6.39
C126.82 6.42 127.40 6.52 127.82 6.69
C128.36 6.92 128.78 7.24 129.09 7.65
C129.40 8.06 129.55 8.51 129.55 8.99
C129.55 9.48 129.38 9.90 129.04 10.24
C128.69 10.58 128.29 10.75 127.84 10.75
C127.54 10.75 127.25 10.65 126.96 10.45
C126.77 10.32 126.64 10.24 126.57 10.21
C126.49 10.18 126.41 10.17 126.30 10.17
C126.17 10.17 126.06 10.21 125.97 10.29
C125.88 10.37 125.83 10.47 125.83 10.58
C125.83 10.77 125.94 10.95 126.16 11.11
C126.37 11.27 126.72 11.35 127.19 11.35
C127.66 11.35 128.12 11.25 128.56 11.03
C128.88 10.88 129.16 10.68 129.42 10.43
C129.67 10.19 129.88 9.89 130.05 9.53
C130.22 9.18 130.31 8.80 130.31 8.38
C130.31 7.67 130.05 7.05 129.53 6.52
C128.93 5.91 128.12 5.53 127.09 5.37
L127.61 4.32
L129.98 4.32
L130.43 3.33
Z
M114.85 10.08
C114.67 10.08 114.52 10.15 114.39 10.27
C114.26 10.39 114.20 10.55 114.20 10.73
C114.20 10.91 114.26 11.06 114.39 11.19
C114.52 11.31 114.67 11.38 114.85 11.38
C115.03 11.38 115.18 11.31 115.30 11.19
C115.43 11.06 115.49 10.91 115.49 10.73
C115.49 10.55 115.43 10.40 115.31 10.27
C115.18 10.15 115.03 10.08 114.85 10.08
Z
" fill="black" fill-rule="nonzero" />
</g>
</g>
</svg>
