<?xml version="1.0" encoding="utf-8" standalone="no"?>
<!DOCTYPE svg PUBLIC "-//W3C//DTD SVG 1.0//EN" "http://www.w3.org/TR/SVG/DTD/svg11.dtd" >
<svg version="1.1" baseProfile="full"  width="319.13385" height="338.46454" viewBox="0 0 229.77638 243.69449" preserveAspectRatio="xMidYMid" xmlns="http://www.w3.org/2000/svg" >

<g lengthAdjust="spacingAndGlyphs" xml:space='preserve' >
<g  transform="translate(1.19,1.19)" >
<path d="
M0.0 0.0
L0.0 227.39
L227.39 227.39
L227.39 0.0
Z
" fill="none" fill-rule="nonzero" />
<line x1="6.54" y1="6.54" x2="6.54" y2="220.84" fill="none" stroke="black" stroke-width="0.87px" stroke-linecap="square" />
<line x1="18.45" y1="6.54" x2="18.45" y2="220.84" fill="none" stroke="black" stroke-width="0.25px" stroke-linecap="butt" />
<line x1="30.35" y1="6.54" x2="30.35" y2="220.84" fill="none" stroke="black" stroke-width="0.25px" stroke-linecap="butt" />
<line x1="42.26" y1="6.54" x2="42.26" y2="220.84" fill="none" stroke="black" stroke-width="0.25px" stroke-linecap="butt" />
<line x1="54.17" y1="6.54" x2="54.17" y2="220.84" fill="none" stroke="black" stroke-width="0.25px" stroke-linecap="butt" />
<line x1="66.07" y1="6.54" x2="66.07" y2="36.31" fill="none" stroke="black" stroke-width="0.25px" stroke-linecap="butt" />
<line x1="66.07" y1="48.21" x2="66.07" y2="220.84" fill="none" stroke="black" stroke-width="0.25px" stroke-linecap="butt" />
<line x1="77.98" y1="6.54" x2="77.98" y2="220.84" fill="none" stroke="black" stroke-width="0.25px" stroke-linecap="butt" />
<line x1="89.88" y1="6.54" x2="89.88" y2="220.84" fill="none" stroke="black" stroke-width="0.25px" stroke-linecap="butt" />
<line x1="101.79" y1="6.54" x2="101.79" y2="220.84" fill="none" stroke="black" stroke-width="0.25px" stroke-linecap="butt" />
<line x1="113.69" y1="6.54" x2="113.69" y2="220.84" fill="none" stroke="black" stroke-width="0.25px" stroke-linecap="butt" />
<line x1="125.60" y1="6.54" x2="125.60" y2="220.84" fill="none" stroke="black" stroke-width="0.25px" stroke-linecap="butt" />
<line x1="137.50" y1="6.54" x2="137.50" y2="220.84" fill="none" stroke="black" stroke-width="0.25px" stroke-linecap="butt" />
<line x1="149.41" y1="6.54" x2="149.41" y2="220.84" fill="none" stroke="black" stroke-width="0.25px" stroke-linecap="butt" />
<line x1="161.31" y1="6.54" x2="161.31" y2="220.84" fill="none" stroke="black" stroke-width="0.25px" stroke-linecap="butt" />
<line x1="173.22" y1="6.54" x2="173.22" y2="220.84" fill="none" stroke="black" stroke-width="0.25px" stroke-linecap="butt" />
<line x1="185.13" y1="6.54" x2="185.13" y2="220.84" fill="none" stroke="black" stroke-width="0.25px" stroke-linecap="butt" />
<line x1="197.03" y1="6.54" x2="197.03" y2="220.84" fill="none" stroke="black" stroke-width="0.25px" stroke-linecap="butt" />
<line x1="208.94" y1="6.54" x2="208.94" y2="220.84" fill="none" stroke="black" stroke-width="0.25px" stroke-linecap="butt" />
<line x1="220.84" y1="6.54" x2="220.84" y2="220.84" fill="none" stroke="black" stroke-width="0.87px" stroke-linecap="square" />
<line x1="6.54" y1="6.54" x2="220.84" y2="6.54" fill="none" stroke="black" stroke-width="0.87px" stroke-linecap="square" />
<line x1="6.54" y1="18.45" x2="220.84" y2="18.45" fill="none" stroke="black" stroke-width="0.25px" stroke-linecap="butt" />
<line x1="6.54" y1="30.35" x2="220.84" y2="30.35" fill="none" stroke="black" stroke-width="0.25px" stroke-linecap="butt" />
<line x1="6.54" y1="42.26" x2="60.12" y2="42.26" fill="none" stroke="black" stroke-width="0.25px" stroke-linecap="butt" />
<line x1="72.02" y1="42.26" x2="220.84" y2="42.26" fill="none" stroke="black" stroke-width="0.25px" stroke-linecap="butt" />
<line x1="6.54" y1="54.17" x2="220.84" y2="54.17" fill="none" stroke="black" stroke-width="0.25px" stroke-linecap="butt" />
<line x1="6.54" y1="66.07" x2="220.84" y2="66.07" fill="none" stroke="black" stroke-width="0.25px" stroke-linecap="butt" />
<line x1="6.54" y1="77.98" x2="220.84" y2="77.98" fill="none" stroke="black" stroke-width="0.25px" stroke-linecap="butt" />
<line x1="6.54" y1="89.88" x2="220.84" y2="89.88" fill="none" stroke="black" stroke-width="0.25px" stroke-linecap="butt" />
<line x1="6.54" y1="101.79" x2="220.84" y2="101.79" fill="none" stroke="black" stroke-width="0.25px" stroke-linecap="butt" />
<line x1="6.54" y1="113.69" x2="220.84" y2="113.69" fill="none" stroke="black" stroke-width="0.25px" stroke-linecap="butt" />
<line x1="6.54" y1="125.60" x2="220.84" y2="125.60" fill="none" stroke="black" stroke-width="0.25px" stroke-linecap="butt" />
<line x1="6.54" y1="137.50" x2="220.84" y2="137.50" fill="none" stroke="black" stroke-width="0.25px" stroke-linecap="butt" />
<line x1="6.54" y1="149.41" x2="220.84" y2="149.41" fill="none" stroke="black" stroke-width="0.25px" stroke-linecap="butt" />
<line x1="6.54" y1="161.31" x2="220.84" y2="161.31" fill="none" stroke="black" stroke-width="0.25px" stroke-linecap="butt" />
<line x1="6.54" y1="173.22" x2="220.84" y2="173.22" fill="none" stroke="black" stroke-width="0.25px" stroke-linecap="butt" />
<line x1="6.54" y1="185.13" x2="220.84" y2="185.13" fill="none" stroke="black" stroke-width="0.25px" stroke-linecap="butt" />
<line x1="6.54" y1="197.03" x2="220.84" y2="197.03" fill="none" stroke="black" stroke-width="0.25px" stroke-linecap="butt" />
<line x1="6.54" y1="208.94" x2="220.84" y2="208.94" fill="none" stroke="black" stroke-width="0.25px" stroke-linecap="butt" />
<line x1="6.54" y1="220.84" x2="220.84" y2="220.84" fill="none" stroke="black" stroke-width="0.87px" stroke-linecap="square" />
<circle cx="30.35" cy="54.17" r="5.85" fill="white"/>
<circle cx="30.35" cy="54.17" r="5.85" fill="none" stroke="black" stroke-width="0.25px"/>
<circle cx="30.35" cy="66.07" r="5.98" fill="black"/>
<circle cx="30.35" cy="161.31" r="5.98" fill="black"/>
<circle cx="42.26" cy="30.35" r="5.85" fill="white"/>
<circle cx="42.26" cy="30.35" r="5.85" fill="none" stroke="black" stroke-width="0.25px"/>
<circle cx="42.26" cy="42.26" r="5.85" fill="white"/>
<circle cx="42.26" cy="42.26" r="5.85" fill="none" stroke="black" stroke-width="0.25px"/>
<circle cx="42.26" cy="54.17" r="5.85" fill="white"/>
<circle cx="42.26" cy="54.17" r="5.85" fill="none" stroke="black" stroke-width="0.25px"/>
<circle cx="42.26" cy="66.07" r="5.85" fill="white"/>
<circle cx="42.26" cy="66.07" r="5.85" fill="none" stroke="black" stroke-width="0.25px"/>
<circle cx="42.26" cy="77.98" r="5.98" fill="black"/>
<circle cx="42.26" cy="89.88" r="5.98" fill="black"/>
<circle cx="42.26" cy="101.79" r="5.98" fill="black"/>
<circle cx="42.26" cy="113.69" r="5.98" fill="black"/>
<circle cx="42.26" cy="185.13" r="5.85" fill="white"/>
<circle cx="42.26" cy="185.13" r="5.85" fill="none" stroke="black" stroke-width="0.25px"/>
<circle cx="54.17" cy="30.35" r="5.98" fill="black"/>
<circle cx="54.17" cy="54.17" r="5.98" fill="black"/>
<circle cx="54.17" cy="66.07" r="5.98" fill="black"/>
<circle cx="54.17" cy="77.98" r="5.85" fill="white"/>
<circle cx="54.17" cy="77.98" r="5.85" fill="none" stroke="black" stroke-width="0.25px"/>
<circle cx="54.17" cy="89.88" r="5.85" fill="white"/>
<circle cx="54.17" cy="89.88" r="5.85" fill="none" stroke="black" stroke-width="0.25px"/>
<circle cx="54.17" cy="101.79" r="5.85" fill="white"/>
<circle cx="54.17" cy="101.79" r="5.85" fill="none" stroke="black" stroke-width="0.25px"/>
<circle cx="66.07" cy="30.35" r="5.98" fill="black"/>
<circle cx="66.07" cy="54.17" r="5.98" fill="black"/>
<circle cx="66.07" cy="66.07" r="5.85" fill="white"/>
<circle cx="66.07" cy="66.07" r="5.85" fill="none" stroke="black" stroke-width="0.25px"/>
<circle cx="66.07" cy="185.13" r="5.85" fill="white"/>
<circle cx="66.07" cy="185.13" r="5.85" fill="none" stroke="black" stroke-width="0.25px"/>
<circle cx="77.98" cy="42.26" r="5.98" fill="black"/>
<circle cx="77.98" cy="54.17" r="5.85" fill="white"/>
<circle cx="77.98" cy="54.17" r="5.85" fill="none" stroke="black" stroke-width="0.25px"/>
<circle cx="77.98" cy="77.98" r="5.85" fill="white"/>
<circle cx="77.98" cy="77.98" r="5.85" fill="none" stroke="black" stroke-width="0.25px"/>
<circle cx="89.88" cy="30.35" r="5.85" fill="white"/>
<circle cx="89.88" cy="30.35" r="5.85" fill="none" stroke="black" stroke-width="0.25px"/>
<circle cx="89.88" cy="42.26" r="5.98" fill="black"/>
<circle cx="89.88" cy="54.17" r="5.85" fill="white"/>
<circle cx="89.88" cy="54.17" r="5.85" fill="none" stroke="black" stroke-width="0.25px"/>
<circle cx="101.79" cy="42.26" r="5.85" fill="white"/>
<circle cx="101.79" cy="42.26" r="5.85" fill="none" stroke="black" stroke-width="0.25px"/>
<circle cx="101.79" cy="54.17" r="5.98" fill="black"/>
<circle cx="113.69" cy="42.26" r="1.27" fill="black"/>
<circle cx="113.69" cy="113.69" r="1.27" fill="black"/>
<circle cx="113.69" cy="185.13" r="1.27" fill="black"/>
<circle cx="113.69" cy="197.03" r="5.85" fill="white"/>
<circle cx="113.69" cy="197.03" r="5.85" fill="none" stroke="black" stroke-width="0.25px"/>
<circle cx="185.13" cy="42.26" r="5.98" fill="black"/>
<circle cx="185.13" cy="113.69" r="1.27" fill="black"/>
<circle cx="185.13" cy="185.13" r="1.27" fill="black"/>
<circle cx="185.13" cy="197.03" r="5.98" fill="black"/>
<circle cx="197.03" cy="173.22" r="5.98" fill="black"/>
<path d="
M32.45 52.02
L32.45 55.23
L30.99 55.23
L32.45 52.02
Z
M28.77 50.59
C28.67 50.90 28.50 51.22 28.26 51.55
C28.02 51.87 27.74 52.15 27.42 52.38
L27.42 53.22
C27.61 53.12 27.81 52.97 28.04 52.76
C28.26 52.56 28.44 52.36 28.57 52.17
L28.57 57.74
L29.15 57.74
L29.15 50.59
Z
M32.56 50.62
L30.43 55.23
L30.43 56.04
L32.45 56.04
L32.45 57.74
L33.03 57.74
L33.03 56.04
L33.66 56.04
L33.66 55.23
L33.03 55.23
L33.03 50.62
Z
" fill="black" fill-rule="nonzero" />
<path d="
M28.67 62.35
L28.64 62.45
C28.54 62.75 28.38 63.05 28.15 63.37
C27.91 63.68 27.65 63.95 27.34 64.17
L27.28 64.21
L27.28 64.28
L27.28 65.13
L27.28 65.37
L27.49 65.25
C27.69 65.14 27.90 64.98 28.13 64.77
C28.24 64.68 28.34 64.58 28.43 64.48
L28.43 64.48
L28.43 69.65
L28.43 69.79
L29.29 69.79
L29.29 69.65
L29.29 62.49
L29.29 62.35
Z
M32.30 62.35
L32.27 62.45
C32.17 62.75 32.01 63.05 31.78 63.37
C31.54 63.68 31.28 63.95 30.97 64.17
L30.91 64.21
L30.91 64.28
L30.91 65.13
L30.91 65.37
L31.12 65.25
C31.32 65.14 31.53 64.98 31.76 64.77
C31.87 64.68 31.97 64.58 32.06 64.48
L32.06 64.48
L32.06 69.65
L32.06 69.79
L32.92 69.79
L32.92 69.65
L32.92 62.49
L32.92 62.35
Z
" fill="white" fill-rule="nonzero" />
<path d="
M30.33 158.58
C30.33 158.58 30.33 158.58 30.34 158.58
C30.34 158.58 30.34 158.58 30.34 158.58
C30.58 158.58 30.80 158.70 31.00 158.96
C31.20 159.22 31.30 159.58 31.30 160.05
C31.30 160.53 31.20 160.89 31.01 161.14
C30.82 161.38 30.59 161.50 30.32 161.50
C30.32 161.50 30.32 161.50 30.32 161.50
C30.32 161.50 30.32 161.50 30.32 161.50
C30.05 161.50 29.81 161.38 29.61 161.14
C29.41 160.89 29.31 160.55 29.31 160.13
C29.31 159.65 29.41 159.27 29.63 158.98
C29.84 158.71 30.08 158.58 30.33 158.58
Z
M30.25 157.58
C29.70 157.58 29.24 157.81 28.86 158.27
C28.48 158.72 28.29 159.33 28.29 160.10
C28.29 160.85 28.47 161.44 28.84 161.88
C29.21 162.32 29.65 162.54 30.16 162.54
C30.45 162.54 30.73 162.45 31.00 162.27
C31.14 162.18 31.26 162.07 31.37 161.95
L31.37 161.95
C31.35 162.36 31.29 162.73 31.18 163.05
C31.06 163.44 30.91 163.70 30.74 163.85
C30.57 163.99 30.39 164.06 30.18 164.06
C30.18 164.06 30.18 164.06 30.18 164.06
C30.18 164.06 30.18 164.06 30.18 164.06
C29.96 164.06 29.78 163.98 29.65 163.83
C29.51 163.66 29.41 163.41 29.36 163.06
L29.34 162.93
L29.21 162.94
L28.52 163.02
L28.38 163.03
L28.40 163.17
C28.46 163.77 28.65 164.23 28.97 164.56
C29.29 164.88 29.69 165.05 30.17 165.05
C30.59 165.05 30.97 164.92 31.30 164.65
C31.64 164.39 31.90 163.97 32.09 163.41
C32.28 162.86 32.37 162.10 32.37 161.12
C32.37 160.23 32.29 159.55 32.11 159.07
C31.93 158.59 31.67 158.22 31.34 157.96
C31.01 157.71 30.64 157.58 30.25 157.58
Z
" fill="white" fill-rule="nonzero" />
<path d="
M44.05 27.44
C44.26 27.44 44.44 27.54 44.59 27.75
C44.74 27.97 44.82 28.24 44.82 28.57
C44.82 28.90 44.74 29.16 44.60 29.37
C44.45 29.57 44.27 29.67 44.06 29.67
C43.84 29.67 43.66 29.57 43.52 29.36
C43.37 29.15 43.29 28.87 43.29 28.52
C43.29 28.21 43.37 27.95 43.52 27.75
C43.67 27.54 43.84 27.44 44.05 27.44
Z
M44.04 30.39
C44.31 30.39 44.53 30.52 44.72 30.79
C44.91 31.05 45.01 31.41 45.01 31.84
C45.01 32.28 44.92 32.62 44.73 32.88
C44.55 33.14 44.32 33.27 44.06 33.27
C43.80 33.27 43.57 33.14 43.38 32.87
C43.20 32.60 43.10 32.25 43.10 31.81
C43.10 31.39 43.19 31.05 43.38 30.78
C43.56 30.52 43.78 30.39 44.04 30.39
Z
M40.46 26.72
C40.02 26.72 39.67 26.89 39.40 27.23
C39.13 27.58 38.97 28.09 38.93 28.78
L39.52 28.87
C39.52 28.41 39.61 28.06 39.78 27.81
C39.95 27.56 40.17 27.44 40.44 27.44
C40.69 27.44 40.89 27.56 41.06 27.78
C41.23 28.01 41.32 28.31 41.32 28.67
C41.32 28.98 41.24 29.32 41.07 29.69
C40.90 30.05 40.55 30.57 40.02 31.24
C39.56 31.81 39.24 32.31 39.07 32.73
C38.90 33.15 38.82 33.53 38.82 33.87
L41.91 33.87
L41.91 33.03
L39.62 33.03
C39.68 32.87 39.76 32.71 39.86 32.55
C39.96 32.39 40.18 32.10 40.53 31.66
C41.06 30.97 41.43 30.41 41.62 29.99
C41.81 29.58 41.91 29.14 41.91 28.69
C41.91 28.18 41.78 27.72 41.54 27.32
C41.29 26.92 40.93 26.72 40.46 26.72
Z
M44.05 26.72
C43.66 26.72 43.34 26.89 43.09 27.23
C42.83 27.57 42.70 28.01 42.70 28.55
C42.70 28.91 42.76 29.21 42.88 29.45
C43.00 29.69 43.17 29.88 43.40 30.01
C43.13 30.12 42.91 30.33 42.75 30.64
C42.59 30.95 42.52 31.34 42.52 31.81
C42.52 32.47 42.66 32.99 42.96 33.39
C43.25 33.79 43.62 33.99 44.06 33.99
C44.49 33.99 44.86 33.79 45.15 33.39
C45.45 32.99 45.59 32.47 45.59 31.84
C45.59 31.38 45.52 30.99 45.37 30.68
C45.22 30.37 45.00 30.15 44.72 30.01
C44.95 29.87 45.12 29.69 45.23 29.45
C45.35 29.21 45.40 28.92 45.40 28.58
C45.40 28.03 45.28 27.58 45.02 27.24
C44.76 26.89 44.44 26.72 44.05 26.72
Z
" fill="black" fill-rule="nonzero" />
<path d="
M42.27 38.73
C41.73 38.73 41.30 38.90 40.97 39.24
C40.64 39.58 40.44 40.09 40.39 40.76
L41.12 40.85
C41.12 40.40 41.23 40.05 41.44 39.81
C41.65 39.56 41.92 39.44 42.25 39.44
C42.56 39.44 42.82 39.55 43.03 39.78
C43.23 40.01 43.34 40.30 43.34 40.66
C43.34 40.97 43.24 41.30 43.03 41.66
C42.83 42.02 42.39 42.53 41.73 43.19
C41.17 43.76 40.78 44.25 40.56 44.66
C40.35 45.08 40.25 45.46 40.26 45.79
L44.07 45.79
L44.07 44.96
L41.24 44.96
C41.32 44.81 41.42 44.65 41.54 44.49
C41.67 44.33 41.94 44.04 42.36 43.61
C43.02 42.92 43.47 42.38 43.71 41.96
C43.95 41.55 44.06 41.12 44.06 40.68
C44.06 40.17 43.91 39.72 43.61 39.32
C43.31 38.93 42.86 38.73 42.27 38.73
Z
" fill="black" fill-rule="nonzero" />
<path d="
M44.08 53.83
C44.34 53.83 44.55 53.97 44.73 54.25
C44.90 54.53 44.99 54.92 44.99 55.43
C44.99 55.94 44.90 56.35 44.73 56.64
C44.55 56.94 44.35 57.08 44.12 57.08
C43.86 57.08 43.64 56.93 43.45 56.61
C43.25 56.30 43.15 55.89 43.15 55.37
C43.15 54.90 43.25 54.52 43.43 54.25
C43.62 53.97 43.83 53.83 44.08 53.83
Z
M40.68 50.53
C40.58 50.84 40.41 51.16 40.17 51.49
C39.92 51.81 39.65 52.09 39.33 52.32
L39.33 53.16
C39.52 53.06 39.72 52.91 39.94 52.70
C40.17 52.50 40.34 52.30 40.48 52.11
L40.48 57.68
L41.05 57.68
L41.05 50.53
Z
M44.17 50.53
C43.68 50.53 43.28 50.82 42.96 51.41
C42.65 51.99 42.49 52.97 42.49 54.35
C42.49 55.59 42.65 56.47 42.95 57.00
C43.26 57.54 43.65 57.80 44.12 57.80
C44.38 57.80 44.62 57.71 44.84 57.52
C45.05 57.34 45.23 57.05 45.37 56.67
C45.51 56.28 45.58 55.85 45.58 55.37
C45.58 54.67 45.44 54.11 45.16 53.69
C44.89 53.27 44.57 53.06 44.20 53.06
C43.97 53.06 43.76 53.14 43.56 53.30
C43.36 53.46 43.20 53.70 43.06 54.01
C43.07 53.13 43.15 52.47 43.33 52.03
C43.53 51.51 43.80 51.25 44.13 51.25
C44.35 51.25 44.53 51.36 44.68 51.59
C44.79 51.74 44.87 52.00 44.93 52.37
L45.50 52.30
C45.45 51.73 45.30 51.29 45.06 50.98
C44.82 50.68 44.52 50.53 44.17 50.53
Z
" fill="black" fill-rule="nonzero" />
<path d="
M40.68 62.49
C40.58 62.81 40.41 63.12 40.17 63.45
C39.92 63.78 39.65 64.06 39.33 64.28
L39.33 65.13
C39.52 65.02 39.72 64.87 39.94 64.67
C40.17 64.47 40.34 64.27 40.48 64.07
L40.48 69.65
L41.05 69.65
L41.05 62.49
Z
M44.09 62.49
C43.65 62.49 43.30 62.67 43.03 63.01
C42.76 63.36 42.60 63.87 42.56 64.55
L43.15 64.65
C43.15 64.19 43.24 63.83 43.41 63.59
C43.58 63.34 43.80 63.22 44.07 63.22
C44.32 63.22 44.52 63.33 44.69 63.56
C44.86 63.79 44.95 64.09 44.95 64.45
C44.95 64.76 44.87 65.10 44.70 65.47
C44.53 65.83 44.18 66.35 43.65 67.01
C43.19 67.59 42.87 68.08 42.70 68.50
C42.53 68.93 42.45 69.31 42.45 69.65
L45.54 69.65
L45.54 68.81
L43.25 68.81
C43.31 68.65 43.39 68.49 43.49 68.33
C43.59 68.17 43.81 67.87 44.16 67.44
C44.69 66.74 45.06 66.19 45.25 65.77
C45.44 65.36 45.54 64.92 45.54 64.47
C45.54 63.96 45.41 63.50 45.17 63.10
C44.92 62.70 44.56 62.49 44.09 62.49
Z
" fill="black" fill-rule="nonzero" />
<path d="
M40.57 74.20
L40.54 74.29
C40.45 74.59 40.29 74.90 40.05 75.21
C39.82 75.53 39.55 75.79 39.25 76.01
L39.19 76.05
L39.19 76.13
L39.19 76.97
L39.19 77.21
L39.40 77.09
C39.59 76.99 39.81 76.83 40.04 76.62
C40.15 76.52 40.25 76.42 40.33 76.32
L40.33 76.32
L40.33 81.49
L40.33 81.63
L41.19 81.63
L41.19 81.49
L41.19 74.34
L41.19 74.20
Z
M43.99 74.20
C43.59 74.20 43.24 74.37 42.96 74.71
C42.69 75.05 42.52 75.53 42.44 76.17
L42.43 76.29
L42.55 76.32
L43.12 76.48
L43.28 76.52
L43.29 76.35
C43.33 75.95 43.42 75.65 43.56 75.46
C43.68 75.28 43.83 75.20 44.00 75.20
C44.00 75.20 44.00 75.20 44.00 75.20
C44.00 75.20 44.00 75.20 44.00 75.20
C44.17 75.20 44.31 75.28 44.43 75.44
C44.56 75.62 44.62 75.86 44.62 76.16
C44.62 76.49 44.54 76.75 44.39 76.94
C44.24 77.13 44.05 77.22 43.82 77.22
L43.82 77.22
L43.74 77.21
L43.59 77.19
L43.58 77.34
L43.51 78.10
L43.49 78.33
L43.71 78.25
C43.85 78.19 43.97 78.16 44.06 78.16
C44.06 78.16 44.06 78.16 44.06 78.16
C44.06 78.16 44.06 78.16 44.06 78.16
C44.27 78.16 44.45 78.27 44.59 78.48
C44.75 78.71 44.83 79.01 44.83 79.40
C44.83 79.81 44.74 80.14 44.57 80.39
C44.41 80.63 44.22 80.75 44.01 80.75
C44.01 80.75 44.01 80.75 44.00 80.75
C44.00 80.75 44.00 80.75 44.00 80.75
C43.81 80.75 43.66 80.65 43.53 80.46
C43.39 80.25 43.30 79.92 43.24 79.47
L43.22 79.32
L43.07 79.35
L42.50 79.47
L42.37 79.49
L42.38 79.62
C42.42 80.26 42.59 80.77 42.89 81.16
C43.19 81.56 43.57 81.76 44.01 81.76
C44.49 81.76 44.90 81.53 45.23 81.08
C45.56 80.63 45.72 80.07 45.72 79.39
C45.72 79.06 45.68 78.77 45.61 78.51
C45.53 78.24 45.42 78.03 45.28 77.86
C45.20 77.75 45.09 77.67 44.97 77.60
L44.97 77.60
C45.11 77.46 45.23 77.30 45.31 77.10
C45.43 76.83 45.50 76.53 45.50 76.18
C45.49 75.62 45.35 75.15 45.07 74.78
C44.78 74.39 44.42 74.20 43.99 74.20
Z
" fill="white" fill-rule="nonzero" />
<path d="
M44.06 87.11
C44.06 87.11 44.06 87.11 44.06 87.11
C44.06 87.11 44.06 87.11 44.06 87.11
C44.25 87.11 44.41 87.23 44.56 87.48
C44.73 87.75 44.82 88.12 44.82 88.61
C44.82 89.09 44.73 89.46 44.57 89.72
C44.43 89.95 44.25 90.07 44.05 90.07
C44.05 90.07 44.05 90.07 44.05 90.07
C44.05 90.07 44.05 90.07 44.04 90.07
C43.84 90.07 43.66 89.95 43.50 89.72
C43.34 89.46 43.25 89.12 43.25 88.68
C43.25 88.19 43.34 87.80 43.52 87.51
C43.68 87.24 43.86 87.11 44.06 87.11
Z
M40.57 86.10
L40.54 86.20
C40.45 86.50 40.29 86.80 40.05 87.12
C39.82 87.43 39.55 87.70 39.25 87.92
L39.19 87.96
L39.19 88.03
L39.19 88.88
L39.19 89.12
L39.40 89.00
C39.59 88.89 39.81 88.73 40.04 88.52
C40.15 88.43 40.25 88.33 40.33 88.23
L40.33 88.23
L40.33 93.40
L40.33 93.54
L41.19 93.54
L41.19 93.40
L41.19 86.25
L41.19 86.10
Z
M43.99 86.10
C43.53 86.10 43.15 86.34 42.83 86.81
C42.53 87.26 42.38 87.88 42.38 88.65
C42.38 89.40 42.52 90.00 42.82 90.44
C43.12 90.89 43.49 91.12 43.92 91.12
C44.16 91.12 44.40 91.03 44.63 90.84
C44.72 90.77 44.80 90.68 44.87 90.59
L44.87 90.59
C44.85 90.98 44.80 91.33 44.72 91.65
C44.62 92.04 44.50 92.31 44.36 92.46
C44.23 92.59 44.09 92.66 43.94 92.66
C43.94 92.66 43.94 92.66 43.93 92.66
C43.93 92.66 43.93 92.66 43.93 92.66
C43.77 92.66 43.63 92.58 43.53 92.44
C43.42 92.27 43.34 92.01 43.30 91.66
L43.28 91.51
L43.14 91.53
L42.59 91.61
L42.45 91.63
L42.46 91.76
C42.51 92.36 42.67 92.83 42.92 93.15
C43.19 93.49 43.52 93.66 43.92 93.66
C44.28 93.66 44.59 93.52 44.87 93.24
C45.14 92.98 45.36 92.56 45.51 92.00
C45.66 91.44 45.74 90.67 45.74 89.68
C45.74 88.79 45.67 88.10 45.52 87.62
C45.38 87.13 45.17 86.76 44.90 86.50
C44.62 86.24 44.32 86.10 43.99 86.10
Z
" fill="white" fill-rule="nonzero" />
<path d="
M40.46 98.01
C39.97 98.01 39.58 98.20 39.29 98.58
C39.00 98.95 38.83 99.49 38.79 100.20
L38.78 100.33
L38.91 100.35
L39.50 100.44
L39.67 100.47
L39.67 100.30
C39.66 99.87 39.74 99.54 39.90 99.32
C40.04 99.12 40.22 99.01 40.43 99.01
C40.43 99.01 40.44 99.01 40.44 99.01
C40.44 99.01 40.44 99.01 40.44 99.01
C40.64 99.01 40.81 99.11 40.95 99.30
C41.10 99.50 41.18 99.77 41.18 100.10
C41.18 100.40 41.10 100.71 40.94 101.06
C40.78 101.41 40.44 101.92 39.91 102.58
C39.44 103.16 39.12 103.67 38.94 104.10
C38.76 104.54 38.67 104.94 38.68 105.30
L38.69 105.44
L42.06 105.44
L42.06 105.30
L42.06 104.46
L42.06 104.32
L39.84 104.32
C39.88 104.23 39.93 104.15 39.98 104.06
C40.08 103.90 40.30 103.61 40.64 103.18
C41.18 102.47 41.55 101.91 41.75 101.48
C41.95 101.05 42.05 100.59 42.05 100.12
C42.05 99.58 41.92 99.10 41.66 98.68
C41.39 98.23 40.99 98.01 40.46 98.01
Z
M43.99 98.01
C43.59 98.01 43.24 98.18 42.96 98.53
C42.69 98.86 42.52 99.34 42.44 99.98
L42.43 100.10
L42.55 100.13
L43.12 100.29
L43.28 100.33
L43.29 100.16
C43.33 99.76 43.42 99.46 43.56 99.27
C43.68 99.10 43.83 99.01 44.00 99.01
C44.00 99.01 44.00 99.01 44.00 99.01
C44.00 99.01 44.00 99.01 44.00 99.01
C44.17 99.01 44.31 99.09 44.43 99.25
C44.56 99.43 44.62 99.67 44.62 99.97
C44.62 100.30 44.54 100.56 44.39 100.76
C44.24 100.94 44.05 101.03 43.82 101.03
L43.82 101.03
L43.74 101.02
L43.59 101.00
L43.58 101.15
L43.51 101.92
L43.49 102.15
L43.71 102.06
C43.85 102.00 43.97 101.97 44.06 101.97
C44.06 101.97 44.06 101.97 44.06 101.97
C44.06 101.97 44.06 101.97 44.06 101.97
C44.27 101.97 44.45 102.08 44.59 102.29
C44.75 102.52 44.83 102.83 44.83 103.21
C44.83 103.62 44.74 103.95 44.57 104.21
C44.41 104.44 44.22 104.56 44.01 104.56
C44.01 104.56 44.01 104.56 44.00 104.56
C44.00 104.56 44.00 104.56 44.00 104.56
C43.81 104.56 43.66 104.47 43.53 104.28
C43.39 104.06 43.30 103.73 43.24 103.28
L43.22 103.13
L43.07 103.16
L42.50 103.28
L42.37 103.31
L42.38 103.43
C42.42 104.07 42.59 104.58 42.89 104.97
C43.19 105.37 43.57 105.57 44.01 105.57
C44.49 105.57 44.90 105.34 45.23 104.89
C45.56 104.44 45.72 103.88 45.72 103.20
C45.72 102.87 45.68 102.58 45.61 102.32
C45.53 102.05 45.42 101.84 45.28 101.67
C45.20 101.56 45.09 101.48 44.97 101.41
L44.97 101.41
C45.11 101.27 45.23 101.11 45.31 100.91
C45.43 100.64 45.50 100.34 45.50 99.99
C45.49 99.43 45.35 98.96 45.07 98.59
C44.78 98.20 44.42 98.01 43.99 98.01
Z
" fill="white" fill-rule="nonzero" />
<path d="
M43.47 112.58
L43.47 112.58
L43.47 112.58
C43.47 112.58 43.47 112.58 43.47 112.58
Z
M40.46 109.91
C39.97 109.92 39.58 110.11 39.29 110.49
C39.00 110.85 38.83 111.40 38.79 112.11
L38.78 112.24
L38.91 112.26
L39.50 112.35
L39.67 112.37
L39.67 112.21
C39.66 111.78 39.74 111.45 39.90 111.23
C40.04 111.02 40.22 110.92 40.43 110.92
C40.43 110.92 40.44 110.92 40.44 110.92
C40.44 110.92 40.44 110.92 40.44 110.92
C40.64 110.92 40.81 111.02 40.95 111.21
C41.10 111.41 41.18 111.68 41.18 112.01
C41.18 112.30 41.10 112.62 40.94 112.97
C40.78 113.32 40.44 113.83 39.91 114.49
C39.44 115.07 39.12 115.58 38.94 116.01
C38.76 116.45 38.67 116.85 38.68 117.21
L38.69 117.35
L42.06 117.35
L42.06 117.21
L42.06 116.37
L42.06 116.23
L39.84 116.23
C39.88 116.14 39.93 116.05 39.98 115.97
C40.08 115.81 40.30 115.52 40.64 115.08
C41.18 114.38 41.55 113.82 41.75 113.39
C41.95 112.96 42.05 112.50 42.05 112.03
C42.05 111.49 41.92 111.01 41.66 110.58
C41.39 110.14 40.99 109.92 40.46 109.91
Z
M42.95 110.04
L42.94 110.17
L42.48 113.82
L42.46 113.95
L42.59 113.98
L43.13 114.09
L43.25 114.11
L43.29 114.00
C43.37 113.81 43.48 113.66 43.61 113.55
C43.73 113.45 43.87 113.40 44.01 113.40
C44.01 113.40 44.01 113.40 44.01 113.40
C44.01 113.40 44.01 113.40 44.01 113.40
C44.25 113.40 44.45 113.52 44.61 113.76
C44.78 114.01 44.87 114.38 44.87 114.86
C44.87 115.37 44.78 115.78 44.60 116.07
C44.43 116.33 44.24 116.47 44.02 116.47
C44.01 116.47 44.01 116.47 44.01 116.47
C44.01 116.47 44.01 116.47 44.01 116.47
C43.84 116.47 43.69 116.38 43.55 116.19
C43.40 115.99 43.31 115.68 43.26 115.25
L43.25 115.11
L43.10 115.12
L42.50 115.20
L42.37 115.22
L42.38 115.35
C42.42 116.00 42.59 116.52 42.89 116.89
C43.19 117.28 43.57 117.47 44.02 117.47
C44.56 117.47 44.99 117.20 45.31 116.65
C45.61 116.14 45.76 115.51 45.76 114.79
C45.76 114.06 45.61 113.47 45.30 113.03
C44.98 112.57 44.60 112.34 44.16 112.34
C43.92 112.34 43.69 112.42 43.47 112.58
L43.47 112.58
L43.66 111.16
L45.54 111.16
L45.54 111.02
L45.54 110.18
L45.54 110.04
Z
" fill="white" fill-rule="nonzero" />
<path d="
M42.61 182.99
L42.61 186.17
L40.81 186.17
L42.61 182.99
Z
M42.74 181.61
L40.11 186.17
L40.11 186.96
L42.61 186.96
L42.61 188.64
L43.32 188.64
L43.32 186.96
L44.10 186.96
L44.10 186.17
L43.32 186.17
L43.32 181.61
Z
" fill="black" fill-rule="nonzero" />
<path d="
M52.36 26.64
C51.88 26.64 51.49 26.83 51.19 27.21
C50.90 27.58 50.74 28.12 50.70 28.83
L50.69 28.96
L50.82 28.98
L51.41 29.07
L51.57 29.10
L51.57 28.93
C51.57 28.50 51.65 28.17 51.80 27.95
C51.94 27.75 52.12 27.64 52.34 27.64
C52.34 27.64 52.34 27.64 52.34 27.64
C52.34 27.64 52.34 27.64 52.35 27.64
C52.55 27.64 52.72 27.74 52.86 27.93
C53.01 28.13 53.08 28.40 53.08 28.73
C53.08 29.03 53.00 29.34 52.85 29.69
C52.69 30.04 52.34 30.55 51.81 31.21
C51.34 31.79 51.02 32.30 50.85 32.73
C50.67 33.17 50.58 33.57 50.59 33.93
L50.59 34.07
L53.96 34.07
L53.96 33.93
L53.96 33.09
L53.96 32.95
L51.74 32.95
C51.79 32.86 51.83 32.78 51.89 32.69
C51.99 32.53 52.20 32.24 52.54 31.81
C53.09 31.10 53.46 30.54 53.65 30.11
C53.85 29.68 53.95 29.22 53.95 28.75
C53.95 28.21 53.82 27.73 53.57 27.31
C53.29 26.86 52.89 26.64 52.36 26.64
Z
M54.32 26.76
L54.32 26.90
L54.32 27.74
L54.32 27.88
L56.51 27.88
C56.26 28.35 56.02 28.90 55.80 29.53
C55.55 30.26 55.35 31.02 55.21 31.82
C55.06 32.62 54.98 33.32 54.98 33.93
L54.97 34.07
L55.71 34.07
L55.84 34.07
L55.85 33.94
C55.90 32.79 56.10 31.64 56.43 30.48
C56.77 29.32 57.16 28.38 57.61 27.65
L57.63 27.62
L57.63 27.58
L57.63 26.90
L57.63 26.76
Z
" fill="white" fill-rule="nonzero" />
<path d="
M52.36 50.45
C51.88 50.45 51.49 50.64 51.19 51.02
C50.90 51.39 50.74 51.93 50.70 52.64
L50.69 52.77
L50.82 52.79
L51.41 52.88
L51.57 52.91
L51.57 52.74
C51.57 52.31 51.65 51.99 51.80 51.76
C51.94 51.56 52.12 51.45 52.34 51.45
C52.34 51.45 52.34 51.45 52.34 51.45
C52.34 51.45 52.34 51.45 52.35 51.45
C52.55 51.45 52.72 51.55 52.86 51.74
C53.01 51.94 53.08 52.21 53.08 52.54
C53.08 52.84 53.00 53.16 52.85 53.50
C52.69 53.86 52.34 54.36 51.81 55.02
C51.34 55.60 51.02 56.11 50.85 56.55
C50.67 56.98 50.58 57.38 50.59 57.74
L50.59 57.88
L53.96 57.88
L53.96 57.74
L53.96 56.90
L53.96 56.76
L51.74 56.76
C51.79 56.67 51.83 56.59 51.89 56.50
C51.99 56.35 52.20 56.05 52.54 55.62
C53.09 54.92 53.46 54.35 53.65 53.93
C53.85 53.49 53.95 53.04 53.95 52.56
C53.95 52.02 53.82 51.54 53.57 51.12
C53.29 50.67 52.89 50.45 52.36 50.45
Z
M56.11 50.45
L56.08 50.55
C55.98 50.84 55.82 51.15 55.59 51.46
C55.35 51.78 55.09 52.04 54.78 52.26
L54.72 52.30
L54.72 52.38
L54.72 53.22
L54.72 53.46
L54.93 53.35
C55.13 53.24 55.34 53.08 55.57 52.87
C55.68 52.77 55.78 52.67 55.87 52.57
L55.87 52.57
L55.87 57.74
L55.87 57.88
L56.73 57.88
L56.73 57.74
L56.73 50.59
L56.73 50.45
Z
" fill="white" fill-rule="nonzero" />
<path d="
M55.38 64.95
L55.38 64.95
L55.38 64.95
C55.38 64.95 55.38 64.95 55.38 64.95
Z
M52.48 62.29
L52.45 62.39
C52.35 62.69 52.19 62.99 51.96 63.31
C51.72 63.62 51.46 63.89 51.15 64.11
L51.09 64.15
L51.09 64.22
L51.09 65.07
L51.09 65.31
L51.30 65.19
C51.50 65.08 51.71 64.92 51.94 64.71
C52.05 64.61 52.15 64.52 52.24 64.42
L52.24 64.42
L52.24 69.59
L52.24 69.73
L53.10 69.73
L53.10 69.59
L53.10 62.43
L53.10 62.29
Z
M54.86 62.42
L54.84 62.54
L54.39 66.20
L54.37 66.33
L54.50 66.36
L55.04 66.46
L55.15 66.49
L55.20 66.38
C55.28 66.18 55.38 66.03 55.52 65.93
C55.64 65.83 55.77 65.78 55.91 65.78
C55.91 65.78 55.91 65.78 55.91 65.78
C55.92 65.78 55.92 65.78 55.92 65.78
C56.15 65.78 56.35 65.90 56.51 66.14
C56.69 66.39 56.78 66.76 56.78 67.24
C56.78 67.75 56.68 68.15 56.50 68.44
C56.33 68.71 56.14 68.85 55.92 68.85
C55.92 68.85 55.92 68.85 55.92 68.85
C55.92 68.85 55.92 68.85 55.92 68.85
C55.75 68.85 55.59 68.75 55.46 68.57
C55.31 68.37 55.21 68.06 55.17 67.63
L55.15 67.48
L55.01 67.50
L54.41 67.58
L54.28 67.60
L54.28 67.73
C54.33 68.38 54.49 68.89 54.79 69.27
C55.10 69.65 55.48 69.85 55.93 69.85
C56.47 69.85 56.90 69.58 57.21 69.03
C57.51 68.51 57.66 67.89 57.66 67.17
C57.66 66.44 57.51 65.85 57.21 65.41
C56.89 64.95 56.51 64.72 56.07 64.72
C55.83 64.72 55.60 64.80 55.38 64.95
L55.38 64.95
L55.56 63.54
L57.44 63.54
L57.44 63.40
L57.44 62.56
L57.44 62.42
Z
" fill="white" fill-rule="nonzero" />
<path d="
M55.96 75.06
C56.16 75.06 56.34 75.16 56.50 75.38
C56.65 75.59 56.72 75.86 56.72 76.20
C56.72 76.52 56.65 76.78 56.50 76.99
C56.35 77.19 56.17 77.29 55.96 77.29
C55.75 77.29 55.57 77.19 55.42 76.98
C55.27 76.78 55.20 76.50 55.20 76.15
C55.20 75.84 55.27 75.58 55.42 75.37
C55.57 75.16 55.75 75.06 55.96 75.06
Z
M55.95 78.01
C56.21 78.01 56.44 78.14 56.63 78.41
C56.82 78.68 56.91 79.03 56.91 79.47
C56.91 79.90 56.82 80.25 56.64 80.50
C56.45 80.76 56.23 80.89 55.96 80.89
C55.70 80.89 55.48 80.76 55.29 80.49
C55.10 80.23 55.01 79.87 55.01 79.44
C55.01 79.01 55.10 78.67 55.28 78.41
C55.47 78.14 55.69 78.01 55.95 78.01
Z
M52.58 74.34
C52.48 74.65 52.31 74.97 52.07 75.30
C51.83 75.62 51.55 75.90 51.23 76.13
L51.23 76.97
C51.42 76.87 51.63 76.72 51.85 76.51
C52.07 76.31 52.25 76.11 52.38 75.92
L52.38 81.49
L52.96 81.49
L52.96 74.34
Z
M55.95 74.34
C55.57 74.34 55.25 74.51 54.99 74.85
C54.74 75.19 54.61 75.63 54.61 76.17
C54.61 76.53 54.67 76.83 54.79 77.07
C54.90 77.31 55.08 77.50 55.31 77.63
C55.03 77.74 54.81 77.95 54.66 78.26
C54.50 78.57 54.42 78.96 54.42 79.44
C54.42 80.09 54.57 80.61 54.86 81.01
C55.16 81.41 55.52 81.61 55.96 81.61
C56.40 81.61 56.76 81.41 57.06 81.01
C57.35 80.61 57.50 80.10 57.50 79.46
C57.50 79.00 57.42 78.61 57.27 78.30
C57.12 77.99 56.90 77.77 56.62 77.63
C56.85 77.50 57.02 77.31 57.14 77.07
C57.25 76.83 57.31 76.54 57.31 76.20
C57.31 75.65 57.18 75.21 56.92 74.86
C56.66 74.51 56.34 74.34 55.95 74.34
Z
" fill="black" fill-rule="nonzero" />
<path d="
M52.36 86.31
C51.92 86.31 51.57 86.48 51.30 86.82
C51.03 87.17 50.88 87.68 50.84 88.37
L51.43 88.46
C51.43 88.00 51.51 87.65 51.69 87.40
C51.86 87.15 52.08 87.03 52.34 87.03
C52.59 87.03 52.80 87.14 52.97 87.37
C53.14 87.60 53.22 87.90 53.22 88.26
C53.22 88.57 53.14 88.91 52.98 89.28
C52.81 89.64 52.46 90.16 51.92 90.82
C51.46 91.40 51.15 91.89 50.98 92.32
C50.80 92.74 50.72 93.12 50.73 93.46
L53.82 93.46
L53.82 92.62
L51.53 92.62
C51.59 92.46 51.67 92.30 51.77 92.14
C51.87 91.98 52.09 91.68 52.43 91.25
C52.97 90.55 53.33 90.00 53.52 89.58
C53.72 89.17 53.81 88.73 53.81 88.28
C53.81 87.77 53.69 87.31 53.44 86.91
C53.20 86.51 52.84 86.31 52.36 86.31
Z
M55.99 86.31
C55.55 86.31 55.20 86.48 54.93 86.82
C54.66 87.17 54.51 87.68 54.47 88.37
L55.06 88.46
C55.06 88.00 55.14 87.65 55.32 87.40
C55.49 87.15 55.71 87.03 55.97 87.03
C56.22 87.03 56.43 87.14 56.60 87.37
C56.77 87.60 56.85 87.90 56.85 88.26
C56.85 88.57 56.77 88.91 56.61 89.28
C56.44 89.64 56.09 90.16 55.55 90.82
C55.09 91.40 54.78 91.89 54.61 92.32
C54.43 92.74 54.35 93.12 54.36 93.46
L57.45 93.46
L57.45 92.62
L55.16 92.62
C55.22 92.46 55.30 92.30 55.40 92.14
C55.50 91.98 55.72 91.68 56.06 91.25
C56.60 90.55 56.96 90.00 57.15 89.58
C57.35 89.17 57.44 88.73 57.44 88.28
C57.44 87.77 57.32 87.31 57.07 86.91
C56.83 86.51 56.47 86.31 55.99 86.31
Z
" fill="black" fill-rule="nonzero" />
<path d="
M56.26 99.64
L56.26 102.86
L54.80 102.86
L56.26 99.64
Z
M52.36 98.21
C51.92 98.21 51.57 98.38 51.30 98.73
C51.03 99.07 50.88 99.59 50.84 100.27
L51.43 100.36
C51.43 99.90 51.51 99.55 51.69 99.30
C51.86 99.06 52.08 98.94 52.34 98.94
C52.59 98.94 52.80 99.05 52.97 99.28
C53.14 99.51 53.22 99.80 53.22 100.16
C53.22 100.48 53.14 100.82 52.98 101.18
C52.81 101.55 52.46 102.06 51.92 102.73
C51.46 103.30 51.15 103.80 50.98 104.22
C50.80 104.64 50.72 105.02 50.73 105.36
L53.82 105.36
L53.82 104.52
L51.53 104.52
C51.59 104.36 51.67 104.20 51.77 104.05
C51.87 103.89 52.09 103.59 52.43 103.15
C52.97 102.46 53.33 101.90 53.52 101.49
C53.72 101.07 53.81 100.64 53.81 100.18
C53.81 99.67 53.69 99.22 53.44 98.81
C53.20 98.41 52.84 98.21 52.36 98.21
Z
M56.37 98.24
L54.24 102.86
L54.24 103.66
L56.26 103.66
L56.26 105.36
L56.84 105.36
L56.84 103.66
L57.47 103.66
L57.47 102.86
L56.84 102.86
L56.84 98.24
Z
" fill="black" fill-rule="nonzero" />
<path d="
M64.06 26.74
L64.06 26.88
L64.06 27.71
L64.06 27.85
L66.75 27.85
C66.45 28.31 66.16 28.85 65.89 29.47
C65.57 30.19 65.33 30.94 65.15 31.74
C64.97 32.53 64.87 33.23 64.86 33.82
L64.86 33.97
L65.73 33.97
L65.87 33.97
L65.88 33.83
C65.94 32.71 66.18 31.57 66.60 30.43
C67.01 29.28 67.50 28.35 68.05 27.64
L68.08 27.60
L68.08 27.55
L68.08 26.88
L68.08 26.74
Z
" fill="white" fill-rule="nonzero" />
<path d="
M65.99 40.21
L67.04 43.06
L64.95 43.06
L65.99 40.21
Z
M65.19 38.43
L62.20 46.09
L63.84 46.09
L64.48 44.35
L67.54 44.35
L68.21 46.09
L69.89 46.09
L66.82 38.43
Z
" fill="black" fill-rule="nonzero" />
<path d="
M64.39 50.45
L64.35 50.55
C64.26 50.84 64.10 51.15 63.86 51.46
C63.63 51.78 63.36 52.04 63.06 52.26
L63.00 52.30
L63.00 52.38
L63.00 53.22
L63.00 53.46
L63.21 53.35
C63.41 53.24 63.62 53.08 63.85 52.87
C63.96 52.77 64.06 52.67 64.15 52.57
L64.15 52.57
L64.15 57.74
L64.15 57.88
L65.00 57.88
L65.00 57.74
L65.00 50.59
L65.00 50.45
Z
M66.23 50.57
L66.23 50.71
L66.23 51.55
L66.23 51.69
L68.41 51.69
C68.16 52.16 67.93 52.71 67.71 53.34
C67.46 54.07 67.26 54.83 67.11 55.63
C66.97 56.43 66.89 57.14 66.88 57.74
L66.88 57.88
L67.61 57.88
L67.75 57.88
L67.76 57.75
C67.81 56.61 68.00 55.45 68.34 54.29
C68.68 53.13 69.07 52.19 69.51 51.47
L69.54 51.43
L69.54 51.39
L69.54 50.71
L69.54 50.57
Z
" fill="white" fill-rule="nonzero" />
<path d="
M67.83 63.16
C68.11 63.16 68.34 63.35 68.52 63.75
C68.70 64.14 68.79 64.91 68.79 66.07
C68.79 67.22 68.70 67.99 68.52 68.39
C68.35 68.79 68.13 68.99 67.87 68.99
C67.59 68.99 67.36 68.79 67.18 68.40
C67.01 68.00 66.92 67.23 66.92 66.07
C66.92 64.93 67.01 64.15 67.18 63.76
C67.36 63.36 67.57 63.16 67.83 63.16
Z
M64.27 62.43
C63.83 62.43 63.48 62.61 63.21 62.95
C62.94 63.30 62.79 63.81 62.74 64.49
L63.33 64.59
C63.33 64.13 63.42 63.77 63.59 63.53
C63.76 63.28 63.98 63.16 64.25 63.16
C64.50 63.16 64.71 63.27 64.88 63.50
C65.05 63.73 65.13 64.02 65.13 64.39
C65.13 64.70 65.05 65.04 64.88 65.41
C64.72 65.77 64.36 66.29 63.83 66.95
C63.37 67.53 63.05 68.02 62.88 68.44
C62.71 68.86 62.63 69.25 62.63 69.59
L65.72 69.59
L65.72 68.75
L63.43 68.75
C63.49 68.59 63.57 68.43 63.67 68.27
C63.77 68.11 64.00 67.81 64.34 67.38
C64.87 66.68 65.24 66.13 65.43 65.71
C65.62 65.29 65.72 64.86 65.72 64.41
C65.72 63.89 65.59 63.44 65.35 63.04
C65.10 62.63 64.74 62.43 64.27 62.43
Z
M67.86 62.43
C67.36 62.43 66.98 62.74 66.72 63.36
C66.46 63.97 66.33 64.88 66.33 66.07
C66.33 67.41 66.47 68.35 66.76 68.89
C67.04 69.44 67.41 69.71 67.85 69.71
C68.36 69.71 68.74 69.40 68.99 68.78
C69.25 68.16 69.38 67.26 69.38 66.07
C69.38 64.75 69.22 63.78 68.91 63.18
C68.66 62.68 68.30 62.43 67.86 62.43
Z
" fill="black" fill-rule="nonzero" />
<path d="
M67.83 182.21
C68.11 182.21 68.34 182.41 68.52 182.80
C68.70 183.19 68.79 183.97 68.79 185.13
C68.79 186.27 68.70 187.05 68.52 187.45
C68.35 187.84 68.13 188.04 67.87 188.04
C67.59 188.04 67.36 187.85 67.18 187.45
C67.01 187.06 66.92 186.28 66.92 185.13
C66.92 183.98 67.01 183.21 67.18 182.81
C67.36 182.41 67.57 182.21 67.83 182.21
Z
M64.49 181.49
C64.39 181.80 64.22 182.12 63.98 182.45
C63.74 182.77 63.46 183.05 63.14 183.28
L63.14 184.12
C63.33 184.02 63.53 183.87 63.75 183.66
C63.98 183.46 64.15 183.26 64.29 183.07
L64.29 188.64
L64.86 188.64
L64.86 181.49
Z
M67.86 181.49
C67.36 181.49 66.98 181.80 66.72 182.41
C66.46 183.03 66.33 183.93 66.33 185.13
C66.33 186.46 66.47 187.40 66.76 187.95
C67.04 188.49 67.41 188.76 67.85 188.76
C68.36 188.76 68.74 188.45 68.99 187.84
C69.25 187.22 69.38 186.32 69.38 185.13
C69.38 183.80 69.22 182.84 68.91 182.24
C68.66 181.74 68.30 181.49 67.86 181.49
Z
" fill="black" fill-rule="nonzero" />
<path d="
M79.77 39.49
C79.77 39.49 79.77 39.49 79.78 39.49
C79.78 39.49 79.78 39.49 79.78 39.49
C79.96 39.49 80.13 39.61 80.28 39.86
C80.45 40.13 80.53 40.50 80.53 40.98
C80.53 41.47 80.45 41.84 80.29 42.09
C80.14 42.33 79.97 42.45 79.77 42.45
C79.77 42.45 79.77 42.45 79.76 42.45
C79.76 42.45 79.76 42.45 79.76 42.45
C79.56 42.45 79.38 42.33 79.22 42.09
C79.05 41.84 78.97 41.50 78.97 41.06
C78.97 40.57 79.06 40.18 79.24 39.89
C79.40 39.62 79.58 39.49 79.77 39.49
Z
M76.17 38.48
C75.69 38.48 75.30 38.67 75.00 39.05
C74.72 39.42 74.55 39.96 74.51 40.67
L74.50 40.80
L74.63 40.82
L75.22 40.92
L75.38 40.94
L75.38 40.78
C75.38 40.34 75.46 40.02 75.61 39.80
C75.75 39.59 75.93 39.49 76.15 39.49
C76.15 39.49 76.15 39.49 76.15 39.49
C76.15 39.49 76.16 39.49 76.16 39.49
C76.36 39.49 76.53 39.58 76.67 39.77
C76.82 39.98 76.89 40.24 76.89 40.58
C76.89 40.87 76.82 41.19 76.66 41.54
C76.50 41.89 76.15 42.39 75.62 43.05
C75.16 43.64 74.83 44.15 74.66 44.58
C74.48 45.02 74.39 45.42 74.40 45.78
L74.40 45.92
L77.77 45.92
L77.77 45.77
L77.77 44.93
L77.77 44.79
L75.55 44.79
C75.60 44.71 75.65 44.62 75.70 44.53
C75.80 44.38 76.02 44.08 76.35 43.65
C76.90 42.95 77.27 42.39 77.46 41.96
C77.66 41.52 77.76 41.07 77.76 40.60
C77.76 40.06 77.63 39.58 77.38 39.15
C77.10 38.71 76.70 38.48 76.17 38.48
Z
M79.71 38.48
C79.25 38.48 78.86 38.72 78.55 39.19
C78.25 39.64 78.10 40.25 78.09 41.03
C78.10 41.78 78.24 42.37 78.53 42.81
C78.84 43.27 79.20 43.50 79.64 43.50
C79.88 43.50 80.12 43.41 80.34 43.22
C80.43 43.14 80.51 43.06 80.59 42.97
L80.59 42.97
C80.57 43.36 80.52 43.71 80.44 44.02
C80.33 44.42 80.21 44.69 80.07 44.83
C79.94 44.97 79.80 45.04 79.65 45.04
C79.65 45.04 79.65 45.04 79.65 45.04
C79.65 45.04 79.65 45.04 79.65 45.04
C79.48 45.04 79.35 44.96 79.25 44.81
C79.13 44.65 79.06 44.39 79.01 44.03
L79.00 43.89
L78.85 43.91
L78.30 43.99
L78.17 44.01
L78.18 44.14
C78.23 44.74 78.38 45.20 78.64 45.53
C78.91 45.87 79.24 46.04 79.64 46.04
C79.99 46.04 80.31 45.90 80.59 45.62
C80.86 45.36 81.07 44.94 81.23 44.37
C81.38 43.82 81.45 43.05 81.45 42.06
C81.45 41.17 81.38 40.48 81.24 40.00
C81.10 39.51 80.89 39.14 80.62 38.88
C80.34 38.61 80.04 38.48 79.71 38.48
Z
" fill="white" fill-rule="nonzero" />
<path d="
M79.80 53.83
C80.05 53.83 80.27 53.97 80.44 54.25
C80.62 54.53 80.71 54.92 80.71 55.43
C80.71 55.94 80.62 56.35 80.44 56.64
C80.26 56.94 80.06 57.08 79.84 57.08
C79.58 57.08 79.36 56.93 79.16 56.61
C78.97 56.30 78.87 55.89 78.87 55.37
C78.87 54.90 78.96 54.52 79.15 54.25
C79.33 53.97 79.55 53.83 79.80 53.83
Z
M76.17 50.53
C75.73 50.53 75.38 50.70 75.11 51.05
C74.85 51.39 74.69 51.91 74.65 52.59
L75.24 52.68
C75.24 52.22 75.33 51.87 75.50 51.62
C75.67 51.38 75.89 51.25 76.15 51.25
C76.40 51.25 76.61 51.37 76.78 51.60
C76.95 51.82 77.04 52.12 77.04 52.48
C77.04 52.80 76.95 53.14 76.79 53.50
C76.62 53.86 76.27 54.38 75.73 55.05
C75.28 55.62 74.96 56.12 74.79 56.54
C74.61 56.96 74.53 57.34 74.54 57.68
L77.63 57.68
L77.63 56.84
L75.34 56.84
C75.40 56.68 75.48 56.52 75.58 56.36
C75.68 56.20 75.90 55.91 76.24 55.47
C76.78 54.78 77.14 54.22 77.33 53.81
C77.53 53.39 77.62 52.95 77.62 52.50
C77.62 51.99 77.50 51.53 77.26 51.13
C77.01 50.73 76.65 50.53 76.17 50.53
Z
M79.88 50.53
C79.39 50.53 78.99 50.82 78.68 51.41
C78.37 51.99 78.21 52.97 78.21 54.35
C78.21 55.59 78.36 56.47 78.67 57.00
C78.97 57.54 79.36 57.80 79.83 57.80
C80.10 57.80 80.34 57.71 80.55 57.52
C80.77 57.34 80.95 57.05 81.09 56.67
C81.23 56.28 81.30 55.85 81.30 55.37
C81.30 54.67 81.16 54.11 80.88 53.69
C80.61 53.27 80.28 53.06 79.91 53.06
C79.69 53.06 79.48 53.14 79.28 53.30
C79.08 53.46 78.91 53.70 78.78 54.01
C78.78 53.13 78.87 52.47 79.05 52.03
C79.25 51.51 79.52 51.25 79.85 51.25
C80.06 51.25 80.25 51.36 80.40 51.59
C80.51 51.74 80.59 52.00 80.64 52.37
L81.21 52.30
C81.16 51.73 81.02 51.29 80.78 50.98
C80.54 50.68 80.24 50.53 79.88 50.53
Z
" fill="black" fill-rule="nonzero" />
<path d="
M80.08 75.77
L80.08 78.98
L78.61 78.98
L80.08 75.77
Z
M80.18 74.37
L78.05 78.98
L78.05 79.78
L80.08 79.78
L80.08 81.49
L80.65 81.49
L80.65 79.78
L81.28 79.78
L81.28 78.98
L80.65 78.98
L80.65 74.37
Z
M76.08 74.34
C75.72 74.34 75.41 74.49 75.16 74.80
C74.90 75.11 74.74 75.57 74.67 76.18
L75.24 76.34
C75.28 75.91 75.38 75.59 75.53 75.37
C75.68 75.16 75.87 75.06 76.09 75.06
C76.30 75.06 76.48 75.16 76.63 75.36
C76.78 75.56 76.85 75.83 76.85 76.16
C76.85 76.53 76.76 76.82 76.58 77.03
C76.41 77.25 76.18 77.36 75.90 77.36
L75.81 77.35
L75.74 78.12
C75.90 78.05 76.04 78.02 76.15 78.02
C76.40 78.02 76.62 78.15 76.79 78.40
C76.97 78.65 77.06 78.99 77.06 79.40
C77.06 79.84 76.96 80.20 76.77 80.48
C76.58 80.75 76.35 80.89 76.09 80.89
C75.61 80.89 75.30 80.42 75.19 79.49
L74.61 79.61
C74.65 80.22 74.81 80.71 75.08 81.07
C75.36 81.43 75.70 81.62 76.10 81.62
C76.53 81.62 76.90 81.41 77.21 80.99
C77.52 80.57 77.67 80.04 77.67 79.39
C77.67 79.08 77.63 78.80 77.56 78.55
C77.48 78.30 77.38 78.10 77.26 77.95
C77.14 77.80 76.99 77.70 76.80 77.63
C77.00 77.49 77.16 77.29 77.27 77.04
C77.38 76.79 77.44 76.51 77.44 76.18
C77.44 75.65 77.31 75.21 77.04 74.86
C76.78 74.51 76.46 74.34 76.08 74.34
Z
" fill="black" fill-rule="nonzero" />
<path d="
M89.85 27.47
C90.11 27.47 90.33 27.58 90.52 27.79
C90.71 28.00 90.80 28.27 90.80 28.59
C90.80 28.91 90.71 29.18 90.53 29.38
C90.34 29.58 90.12 29.68 89.86 29.68
C89.60 29.68 89.37 29.58 89.19 29.37
C89.01 29.17 88.92 28.89 88.92 28.55
C88.92 28.24 89.01 27.98 89.19 27.78
C89.38 27.57 89.60 27.47 89.85 27.47
Z
M89.84 30.39
C90.17 30.39 90.45 30.52 90.68 30.78
C90.92 31.05 91.03 31.39 91.03 31.83
C91.03 32.25 90.92 32.60 90.69 32.85
C90.47 33.11 90.19 33.24 89.86 33.24
C89.54 33.24 89.26 33.10 89.03 32.84
C88.80 32.58 88.68 32.23 88.68 31.80
C88.68 31.38 88.79 31.04 89.02 30.78
C89.25 30.52 89.52 30.39 89.84 30.39
Z
M89.85 26.76
C89.37 26.76 88.98 26.93 88.66 27.27
C88.35 27.60 88.19 28.04 88.19 28.57
C88.19 28.93 88.26 29.22 88.41 29.46
C88.55 29.70 88.77 29.88 89.05 30.01
C88.71 30.12 88.44 30.33 88.25 30.63
C88.05 30.94 87.96 31.33 87.96 31.80
C87.96 32.44 88.14 32.96 88.50 33.35
C88.87 33.75 89.32 33.95 89.86 33.95
C90.40 33.95 90.85 33.75 91.21 33.35
C91.58 32.96 91.76 32.45 91.76 31.82
C91.76 31.37 91.67 30.99 91.48 30.68
C91.29 30.37 91.02 30.15 90.67 30.01
C90.96 29.88 91.17 29.70 91.31 29.46
C91.45 29.23 91.52 28.94 91.52 28.60
C91.52 28.06 91.36 27.62 91.05 27.27
C90.73 26.93 90.33 26.76 89.85 26.76
Z
" fill="black" fill-rule="nonzero" />
<path d="
M91.83 38.48
L91.79 38.58
C91.70 38.87 91.54 39.18 91.30 39.49
C91.07 39.81 90.80 40.08 90.50 40.29
L90.44 40.34
L90.44 40.41
L90.44 41.25
L90.44 41.50
L90.65 41.38
C90.85 41.27 91.06 41.11 91.29 40.90
C91.40 40.80 91.50 40.70 91.59 40.61
L91.59 40.61
L91.59 45.77
L91.59 45.91
L92.44 45.91
L92.44 45.77
L92.44 38.62
L92.44 38.48
Z
M87.98 38.48
C87.58 38.48 87.24 38.65 86.95 39.00
C86.68 39.33 86.51 39.81 86.43 40.45
L86.42 40.57
L86.54 40.60
L87.11 40.76
L87.27 40.80
L87.29 40.64
C87.33 40.23 87.41 39.93 87.55 39.74
C87.67 39.57 87.82 39.48 87.99 39.48
C87.99 39.48 87.99 39.48 87.99 39.48
C87.99 39.48 87.99 39.48 88.00 39.48
C88.16 39.48 88.30 39.56 88.42 39.73
C88.55 39.90 88.61 40.14 88.61 40.45
C88.61 40.78 88.54 41.04 88.38 41.23
C88.23 41.41 88.04 41.50 87.81 41.50
L87.81 41.50
L87.73 41.49
L87.58 41.48
L87.57 41.62
L87.51 42.39
L87.49 42.62
L87.49 42.62
L87.70 42.53
C87.84 42.47 87.96 42.45 88.05 42.45
C88.05 42.45 88.05 42.45 88.05 42.45
C88.05 42.45 88.05 42.45 88.05 42.45
C88.26 42.45 88.44 42.55 88.58 42.76
C88.74 42.99 88.82 43.30 88.82 43.68
C88.82 44.09 88.74 44.43 88.56 44.68
C88.40 44.91 88.21 45.03 88.00 45.03
C88.00 45.03 88.00 45.03 88.00 45.03
C88.00 45.03 87.99 45.03 87.99 45.03
C87.80 45.03 87.65 44.94 87.53 44.75
C87.39 44.53 87.29 44.20 87.23 43.76
L87.21 43.61
L87.06 43.64
L86.49 43.75
L86.37 43.78
L86.37 43.90
C86.42 44.54 86.58 45.05 86.88 45.44
C87.18 45.84 87.56 46.04 88.00 46.04
C88.48 46.04 88.89 45.81 89.23 45.36
C89.55 44.92 89.72 44.35 89.72 43.67
C89.72 43.35 89.68 43.05 89.60 42.79
C89.52 42.52 89.41 42.31 89.28 42.15
C89.19 42.04 89.08 41.95 88.97 41.88
L88.97 41.88
C89.10 41.74 89.22 41.58 89.31 41.39
C89.43 41.12 89.49 40.81 89.49 40.47
C89.49 39.90 89.35 39.44 89.06 39.06
C88.77 38.67 88.41 38.48 87.98 38.48
Z
" fill="white" fill-rule="nonzero" />
<path d="
M91.64 51.25
C91.92 51.25 92.15 51.45 92.33 51.84
C92.51 52.23 92.60 53.01 92.60 54.17
C92.60 55.31 92.51 56.08 92.33 56.48
C92.16 56.88 91.94 57.08 91.68 57.08
C91.40 57.08 91.17 56.88 91.00 56.49
C90.82 56.10 90.73 55.32 90.73 54.17
C90.73 53.02 90.82 52.25 90.99 51.85
C91.17 51.45 91.38 51.25 91.64 51.25
Z
M91.67 50.53
C91.17 50.53 90.79 50.83 90.53 51.45
C90.27 52.06 90.14 52.97 90.14 54.17
C90.14 55.50 90.28 56.44 90.57 56.98
C90.85 57.53 91.22 57.80 91.66 57.80
C92.17 57.80 92.55 57.49 92.80 56.87
C93.06 56.26 93.19 55.35 93.19 54.17
C93.19 52.84 93.03 51.88 92.72 51.27
C92.47 50.78 92.12 50.53 91.67 50.53
Z
M87.98 50.53
C87.62 50.53 87.32 50.68 87.06 50.99
C86.81 51.30 86.65 51.76 86.57 52.37
L87.15 52.53
C87.19 52.10 87.28 51.78 87.44 51.56
C87.59 51.35 87.77 51.25 87.99 51.25
C88.21 51.25 88.39 51.35 88.53 51.55
C88.68 51.75 88.75 52.02 88.75 52.35
C88.75 52.72 88.67 53.01 88.49 53.22
C88.31 53.44 88.08 53.55 87.80 53.55
L87.71 53.54
L87.65 54.31
C87.81 54.24 87.94 54.21 88.05 54.21
C88.31 54.21 88.52 54.34 88.70 54.59
C88.88 54.84 88.96 55.17 88.96 55.59
C88.96 56.03 88.87 56.39 88.68 56.66
C88.49 56.94 88.26 57.08 88.00 57.08
C87.51 57.08 87.21 56.61 87.09 55.68
L86.52 55.80
C86.55 56.41 86.71 56.90 86.99 57.26
C87.27 57.62 87.61 57.80 88.00 57.80
C88.43 57.80 88.80 57.60 89.11 57.18
C89.42 56.76 89.57 56.23 89.57 55.57
C89.57 55.27 89.54 54.99 89.46 54.74
C89.39 54.49 89.29 54.29 89.17 54.14
C89.04 53.99 88.89 53.88 88.70 53.82
C88.91 53.68 89.06 53.48 89.18 53.23
C89.29 52.98 89.35 52.70 89.35 52.37
C89.35 51.84 89.21 51.40 88.95 51.05
C88.68 50.70 88.36 50.53 87.98 50.53
Z
" fill="black" fill-rule="nonzero" />
<path d="
M103.61 38.62
C103.18 38.62 102.82 38.79 102.55 39.14
C102.29 39.48 102.13 40.00 102.09 40.68
L102.68 40.77
C102.68 40.31 102.77 39.96 102.94 39.71
C103.11 39.47 103.33 39.34 103.59 39.34
C103.84 39.34 104.05 39.46 104.22 39.69
C104.39 39.92 104.48 40.21 104.48 40.57
C104.48 40.89 104.39 41.23 104.23 41.59
C104.06 41.96 103.71 42.47 103.17 43.14
C102.72 43.71 102.40 44.21 102.23 44.63
C102.06 45.05 101.97 45.43 101.98 45.77
L105.07 45.77
L105.07 44.93
L102.78 44.93
C102.84 44.77 102.92 44.61 103.02 44.46
C103.12 44.30 103.34 44.00 103.68 43.56
C104.22 42.87 104.58 42.31 104.78 41.90
C104.97 41.48 105.06 41.05 105.06 40.59
C105.06 40.08 104.94 39.62 104.70 39.22
C104.45 38.82 104.09 38.62 103.61 38.62
Z
M99.89 38.62
C99.53 38.62 99.22 38.78 98.97 39.09
C98.72 39.40 98.55 39.86 98.48 40.47
L99.05 40.62
C99.09 40.19 99.19 39.87 99.34 39.66
C99.49 39.45 99.68 39.34 99.90 39.34
C100.11 39.34 100.29 39.44 100.44 39.64
C100.59 39.85 100.66 40.11 100.66 40.45
C100.66 40.81 100.57 41.10 100.40 41.32
C100.22 41.53 99.99 41.64 99.71 41.64
L99.62 41.63
L99.55 42.40
C99.71 42.34 99.85 42.30 99.96 42.30
C100.21 42.30 100.43 42.43 100.61 42.68
C100.78 42.93 100.87 43.27 100.87 43.68
C100.87 44.12 100.77 44.48 100.58 44.76
C100.39 45.04 100.16 45.17 99.90 45.17
C99.42 45.17 99.12 44.71 99.00 43.78
L98.42 43.89
C98.46 44.50 98.62 44.99 98.90 45.35
C99.17 45.72 99.51 45.90 99.91 45.90
C100.34 45.90 100.71 45.69 101.02 45.27
C101.33 44.86 101.48 44.32 101.48 43.67
C101.48 43.36 101.44 43.08 101.37 42.83
C101.29 42.58 101.19 42.38 101.07 42.24
C100.95 42.09 100.80 41.98 100.61 41.91
C100.81 41.77 100.97 41.58 101.08 41.33
C101.19 41.08 101.25 40.79 101.25 40.47
C101.25 39.94 101.12 39.50 100.85 39.15
C100.59 38.80 100.27 38.62 99.89 38.62
Z
" fill="black" fill-rule="nonzero" />
<path d="
M99.89 50.38
C99.49 50.39 99.14 50.56 98.86 50.90
C98.59 51.24 98.41 51.72 98.34 52.36
L98.32 52.48
L98.44 52.51
L99.01 52.66
L99.18 52.71
L99.19 52.54
C99.23 52.14 99.32 51.84 99.46 51.65
C99.58 51.47 99.72 51.39 99.89 51.39
C99.90 51.39 99.90 51.39 99.90 51.39
C99.90 51.39 99.90 51.39 99.90 51.39
C100.07 51.39 100.21 51.47 100.32 51.63
C100.45 51.81 100.52 52.05 100.52 52.35
C100.52 52.68 100.44 52.94 100.29 53.13
C100.14 53.31 99.95 53.41 99.72 53.41
L99.72 53.41
L99.63 53.40
L99.49 53.38
L99.48 53.53
L99.41 54.29
L99.39 54.52
L99.61 54.44
C99.75 54.38 99.87 54.35 99.96 54.35
C99.96 54.35 99.96 54.35 99.96 54.35
C99.96 54.35 99.96 54.35 99.96 54.35
C100.17 54.35 100.34 54.46 100.49 54.67
C100.65 54.90 100.73 55.20 100.73 55.59
C100.73 56.00 100.64 56.33 100.47 56.58
C100.30 56.82 100.12 56.94 99.91 56.94
C99.90 56.94 99.90 56.94 99.90 56.94
C99.90 56.94 99.90 56.94 99.90 56.94
C99.71 56.94 99.55 56.84 99.43 56.65
C99.29 56.44 99.19 56.11 99.14 55.66
L99.12 55.51
L98.97 55.54
L98.39 55.66
L98.27 55.68
L98.28 55.81
C98.32 56.45 98.49 56.96 98.78 57.35
C99.09 57.74 99.46 57.94 99.91 57.95
C100.39 57.94 100.79 57.72 101.13 57.26
C101.46 56.82 101.62 56.26 101.62 55.57
C101.62 55.25 101.58 54.96 101.50 54.70
C101.42 54.43 101.32 54.21 101.18 54.05
C101.09 53.94 100.99 53.85 100.87 53.79
L100.87 53.79
C101.01 53.65 101.12 53.48 101.21 53.29
C101.33 53.02 101.39 52.72 101.39 52.37
C101.39 51.81 101.25 51.34 100.97 50.97
C100.67 50.58 100.32 50.39 99.89 50.38
Z
M103.52 50.38
C103.12 50.39 102.77 50.56 102.49 50.90
C102.22 51.24 102.04 51.72 101.97 52.36
L101.95 52.48
L102.07 52.51
L102.64 52.66
L102.81 52.71
L102.82 52.54
C102.86 52.14 102.95 51.84 103.09 51.65
C103.21 51.47 103.35 51.39 103.52 51.39
C103.53 51.39 103.53 51.39 103.53 51.39
C103.53 51.39 103.53 51.39 103.53 51.39
C103.70 51.39 103.84 51.47 103.95 51.63
C104.08 51.81 104.15 52.05 104.15 52.35
C104.15 52.68 104.07 52.94 103.92 53.13
C103.77 53.31 103.58 53.41 103.35 53.41
L103.35 53.41
L103.26 53.40
L103.12 53.38
L103.11 53.53
L103.04 54.29
L103.02 54.52
L103.24 54.44
C103.38 54.38 103.50 54.35 103.59 54.35
C103.59 54.35 103.59 54.35 103.59 54.35
C103.59 54.35 103.59 54.35 103.59 54.35
C103.80 54.35 103.97 54.46 104.12 54.67
C104.28 54.90 104.36 55.20 104.36 55.59
C104.36 56.00 104.27 56.33 104.10 56.58
C103.93 56.82 103.75 56.94 103.54 56.94
C103.53 56.94 103.53 56.94 103.53 56.94
C103.53 56.94 103.53 56.94 103.53 56.94
C103.34 56.94 103.18 56.84 103.06 56.65
C102.92 56.44 102.82 56.11 102.77 55.66
L102.75 55.51
L102.60 55.54
L102.02 55.66
L101.90 55.68
L101.91 55.81
C101.95 56.45 102.12 56.96 102.41 57.35
C102.72 57.74 103.09 57.94 103.54 57.95
C104.02 57.94 104.42 57.72 104.76 57.26
C105.09 56.82 105.25 56.26 105.25 55.57
C105.25 55.25 105.21 54.96 105.13 54.70
C105.05 54.43 104.95 54.21 104.81 54.05
C104.72 53.94 104.62 53.85 104.50 53.79
L104.50 53.79
C104.64 53.65 104.75 53.48 104.84 53.29
C104.96 53.02 105.02 52.72 105.02 52.37
C105.02 51.81 104.88 51.34 104.60 50.97
C104.30 50.58 103.95 50.39 103.52 50.38
Z
" fill="white" fill-rule="nonzero" />
<path d="
M113.70 196.70
C114.02 196.70 114.28 196.84 114.50 197.12
C114.72 197.39 114.83 197.78 114.83 198.28
C114.83 198.79 114.72 199.19 114.50 199.48
C114.28 199.77 114.03 199.91 113.75 199.91
C113.43 199.91 113.16 199.76 112.92 199.45
C112.68 199.14 112.56 198.73 112.56 198.22
C112.56 197.76 112.67 197.39 112.90 197.11
C113.13 196.84 113.40 196.70 113.70 196.70
Z
M113.81 193.44
C113.20 193.44 112.71 193.73 112.32 194.30
C111.93 194.88 111.74 195.85 111.74 197.21
C111.74 198.44 111.93 199.31 112.31 199.84
C112.68 200.36 113.16 200.62 113.75 200.62
C114.07 200.62 114.36 200.53 114.63 200.35
C114.90 200.17 115.12 199.89 115.29 199.50
C115.46 199.12 115.55 198.69 115.55 198.22
C115.55 197.53 115.38 196.98 115.04 196.56
C114.70 196.15 114.30 195.94 113.84 195.94
C113.57 195.94 113.31 196.02 113.06 196.18
C112.81 196.34 112.61 196.57 112.45 196.88
C112.45 196.01 112.56 195.36 112.77 194.92
C113.02 194.40 113.35 194.15 113.76 194.15
C114.03 194.15 114.26 194.26 114.45 194.48
C114.58 194.64 114.68 194.90 114.74 195.26
L115.45 195.19
C115.39 194.62 115.21 194.19 114.91 193.89
C114.61 193.59 114.25 193.44 113.81 193.44
Z
" fill="black" fill-rule="nonzero" />
<path d="
M185.32 38.59
L185.28 38.67
C185.17 38.97 184.97 39.27 184.68 39.58
C184.39 39.89 184.06 40.15 183.68 40.37
L183.61 40.41
L183.61 40.49
L183.61 41.33
L183.61 41.55
L183.81 41.46
C184.05 41.35 184.31 41.20 184.59 40.99
C184.75 40.87 184.90 40.75 185.02 40.64
L185.02 40.64
L185.02 45.79
L185.02 45.93
L186.02 45.93
L186.02 45.79
L186.02 38.73
L186.02 38.59
Z
" fill="white" fill-rule="nonzero" />
<path d="
M185.03 193.29
C184.54 193.29 184.13 193.46 183.79 193.80
C183.45 194.13 183.24 194.61 183.14 195.24
L183.12 195.37
L183.25 195.40
L183.96 195.55
L184.11 195.59
L184.13 195.43
C184.18 195.03 184.28 194.74 184.45 194.56
C184.61 194.38 184.80 194.29 185.03 194.29
C185.03 194.29 185.03 194.29 185.03 194.29
C185.04 194.29 185.04 194.29 185.04 194.29
C185.26 194.29 185.44 194.37 185.60 194.54
C185.76 194.71 185.83 194.95 185.83 195.24
C185.83 195.56 185.74 195.81 185.55 196.00
C185.36 196.19 185.11 196.28 184.81 196.28
L184.81 196.28
L184.70 196.27
L184.56 196.26
L184.55 196.40
L184.47 197.16
L184.44 197.37
L184.65 197.31
C184.84 197.25 184.99 197.22 185.11 197.22
C185.11 197.22 185.11 197.22 185.11 197.22
C185.11 197.22 185.11 197.22 185.11 197.22
C185.38 197.22 185.61 197.32 185.80 197.54
C186.00 197.76 186.09 198.06 186.09 198.44
C186.09 198.84 185.99 199.16 185.77 199.41
C185.56 199.65 185.32 199.77 185.04 199.77
C185.04 199.77 185.04 199.77 185.04 199.77
C185.04 199.77 185.04 199.77 185.04 199.77
C184.78 199.77 184.58 199.67 184.42 199.48
C184.25 199.27 184.13 198.94 184.06 198.51
L184.04 198.37
L183.90 198.39
L183.19 198.50
L183.06 198.52
L183.07 198.66
C183.12 199.29 183.33 199.80 183.69 200.19
C184.06 200.57 184.52 200.77 185.05 200.77
C185.62 200.77 186.11 200.55 186.52 200.11
C186.93 199.67 187.13 199.11 187.13 198.42
C187.13 198.10 187.08 197.81 186.98 197.55
C186.88 197.28 186.75 197.07 186.58 196.91
C186.48 196.80 186.36 196.72 186.22 196.65
L186.22 196.65
C186.38 196.52 186.51 196.36 186.62 196.18
C186.77 195.91 186.85 195.60 186.85 195.26
C186.85 194.70 186.67 194.23 186.32 193.86
C185.96 193.48 185.53 193.30 185.03 193.29
Z
" fill="white" fill-rule="nonzero" />
<path d="
M196.25 172.09
L196.25 172.09
L196.25 172.09
C196.25 172.09 196.25 172.09 196.25 172.09
Z
M195.68 169.55
L195.66 169.67
L195.10 173.28
L195.07 173.42
L195.21 173.44
L195.88 173.55
L195.98 173.57
L196.03 173.47
C196.13 173.28 196.26 173.13 196.42 173.03
C196.59 172.92 196.76 172.87 196.95 172.87
C196.95 172.87 196.95 172.87 196.95 172.87
C196.95 172.87 196.95 172.87 196.95 172.87
C197.26 172.87 197.52 172.99 197.73 173.24
C197.94 173.49 198.05 173.84 198.05 174.31
C198.05 174.81 197.94 175.21 197.71 175.49
C197.50 175.76 197.25 175.90 196.96 175.90
C196.96 175.90 196.96 175.90 196.95 175.90
C196.95 175.90 196.95 175.90 196.95 175.90
C196.73 175.90 196.52 175.80 196.35 175.61
C196.17 175.42 196.05 175.11 196.00 174.69
L195.98 174.56
L195.84 174.57
L195.10 174.65
L194.96 174.66
L194.97 174.80
C195.02 175.45 195.23 175.96 195.60 176.33
C195.97 176.70 196.43 176.89 196.96 176.89
C197.61 176.89 198.13 176.63 198.52 176.10
C198.89 175.58 199.08 174.96 199.08 174.24
C199.08 173.51 198.89 172.93 198.51 172.49
C198.12 172.05 197.67 171.82 197.14 171.82
C196.83 171.82 196.53 171.91 196.25 172.09
L196.25 172.09
L196.48 170.66
L198.81 170.66
L198.81 170.52
L198.81 169.69
L198.81 169.55
Z
" fill="white" fill-rule="nonzero" />
</g>
<g  transform="translate(1.19,228.58)" >
<path d="
M106.49 2.94
C106.33 2.94 106.19 3.00 106.07 3.11
C105.96 3.23 105.90 3.37 105.90 3.53
C105.90 3.69 105.96 3.83 106.08 3.95
C106.19 4.07 106.33 4.12 106.49 4.12
C106.66 4.12 106.80 4.07 106.91 3.95
C107.02 3.83 107.08 3.69 107.08 3.53
C107.08 3.37 107.02 3.23 106.91 3.11
C106.80 3.00 106.66 2.94 106.49 2.94
Z
M111.46 8.04
L111.46 10.07
C110.98 10.46 110.60 10.65 110.30 10.65
C110.08 10.65 109.89 10.56 109.73 10.37
C109.56 10.19 109.48 9.96 109.48 9.68
C109.48 9.46 109.54 9.25 109.67 9.07
C109.81 8.88 110.02 8.70 110.33 8.53
C110.50 8.44 110.88 8.27 111.46 8.04
Z
M99.82 3.77
C100.75 3.77 101.51 4.08 102.10 4.71
C102.69 5.34 102.99 6.20 102.99 7.29
C102.99 8.37 102.69 9.23 102.10 9.86
C101.51 10.49 100.76 10.81 99.86 10.81
C99.53 10.81 99.12 10.75 98.62 10.64
L98.62 3.94
C99.07 3.83 99.47 3.77 99.82 3.77
Z
M96.37 3.33
L96.37 3.54
L96.67 3.54
C96.97 3.54 97.19 3.63 97.34 3.80
C97.45 3.92 97.51 4.23 97.51 4.72
L97.51 9.82
C97.51 10.26 97.46 10.55 97.38 10.68
C97.24 10.89 97.00 11.00 96.67 11.00
L96.37 11.00
L96.37 11.21
L99.90 11.21
C101.43 11.21 102.57 10.80 103.32 9.98
C103.98 9.24 104.32 8.33 104.32 7.23
C104.32 6.41 104.13 5.69 103.76 5.07
C103.38 4.44 102.89 4.00 102.27 3.73
C101.66 3.46 100.76 3.33 99.58 3.33
Z
M106.72 5.73
L105.12 6.38
L105.20 6.59
C105.35 6.53 105.48 6.50 105.59 6.50
C105.69 6.50 105.77 6.53 105.83 6.58
C105.89 6.62 105.93 6.71 105.96 6.83
C105.99 7.00 106.01 7.38 106.01 7.96
L106.01 10.01
C106.01 10.34 105.98 10.56 105.93 10.68
C105.88 10.79 105.81 10.88 105.72 10.93
C105.63 10.98 105.46 11.00 105.20 11.00
L105.20 11.21
L107.78 11.21
L107.78 11.00
C107.53 11.00 107.36 10.98 107.26 10.92
C107.17 10.87 107.10 10.79 107.05 10.68
C107.00 10.56 106.98 10.34 106.98 10.01
L106.98 5.73
Z
M122.63 3.16
L120.71 4.10
L120.79 4.28
C121.05 4.16 121.25 4.10 121.39 4.10
C121.49 4.10 121.58 4.13 121.65 4.19
C121.72 4.25 121.77 4.34 121.80 4.46
C121.84 4.62 121.86 4.99 121.86 5.57
L121.86 9.82
C121.86 10.30 121.84 10.58 121.79 10.67
C121.75 10.77 121.68 10.85 121.57 10.90
C121.46 10.96 121.22 10.99 120.85 11.00
L120.85 11.21
L123.81 11.21
L123.81 11.00
C123.46 10.99 123.22 10.96 123.10 10.90
C122.99 10.84 122.91 10.76 122.87 10.65
C122.84 10.54 122.82 10.27 122.82 9.82
L122.82 3.16
Z
M128.00 3.16
C127.40 3.16 126.89 3.36 126.49 3.74
C126.09 4.12 125.84 4.67 125.75 5.39
L125.96 5.39
C126.11 4.95 126.34 4.62 126.64 4.39
C126.95 4.17 127.30 4.05 127.69 4.05
C128.12 4.05 128.48 4.22 128.79 4.54
C129.09 4.86 129.25 5.27 129.25 5.77
C129.25 6.42 128.97 7.15 128.41 7.94
C127.85 8.73 126.89 9.75 125.52 11.00
L125.52 11.21
L130.17 11.21
L130.72 9.70
L130.51 9.70
C130.41 9.87 130.29 10.00 130.15 10.10
C130.02 10.19 129.87 10.26 129.70 10.29
C129.53 10.32 129.24 10.33 128.82 10.33
L126.76 10.33
C127.00 10.12 127.60 9.48 128.57 8.43
C129.21 7.73 129.68 7.06 129.96 6.43
C130.15 6.03 130.24 5.63 130.24 5.23
C130.24 4.68 130.03 4.19 129.60 3.78
C129.17 3.37 128.64 3.16 128.00 3.16
Z
M110.65 5.73
C110.03 5.73 109.56 5.87 109.21 6.15
C108.87 6.43 108.70 6.73 108.70 7.07
C108.70 7.24 108.75 7.38 108.84 7.48
C108.93 7.58 109.05 7.63 109.19 7.63
C109.34 7.63 109.46 7.58 109.55 7.49
C109.64 7.39 109.69 7.25 109.69 7.07
L109.67 6.74
C109.67 6.56 109.75 6.41 109.89 6.28
C110.04 6.15 110.23 6.08 110.48 6.08
C110.80 6.08 111.04 6.18 111.21 6.38
C111.38 6.58 111.46 6.94 111.46 7.47
L111.46 7.68
C110.55 8.02 109.90 8.30 109.50 8.53
C109.11 8.76 108.83 9.01 108.67 9.28
C108.56 9.47 108.50 9.69 108.50 9.95
C108.50 10.36 108.62 10.69 108.86 10.95
C109.09 11.20 109.40 11.32 109.77 11.32
C110.00 11.32 110.23 11.27 110.44 11.18
C110.57 11.11 110.92 10.87 111.46 10.45
C111.47 10.76 111.53 10.99 111.64 11.12
C111.75 11.25 111.90 11.32 112.09 11.32
C112.49 11.32 112.90 11.03 113.34 10.45
L113.34 10.12
C113.10 10.35 112.95 10.49 112.87 10.54
C112.82 10.57 112.77 10.58 112.70 10.58
C112.65 10.58 112.59 10.57 112.55 10.53
C112.50 10.49 112.47 10.41 112.45 10.30
C112.43 10.18 112.42 9.87 112.42 9.36
L112.42 7.55
C112.42 7.04 112.39 6.70 112.32 6.53
C112.21 6.28 112.04 6.09 111.81 5.97
C111.51 5.81 111.12 5.73 110.65 5.73
Z
M114.85 10.08
C114.67 10.08 114.52 10.15 114.39 10.27
C114.26 10.39 114.20 10.55 114.20 10.73
C114.20 10.91 114.26 11.06 114.39 11.19
C114.52 11.31 114.67 11.38 114.85 11.38
C115.03 11.38 115.18 11.31 115.30 11.19
C115.43 11.06 115.49 10.91 115.49 10.73
C115.49 10.55 115.43 10.40 115.31 10.27
C115.18 10.15 115.03 10.08 114.85 10.08
Z
" fill="black" fill-rule="nonzero" />
</g>
</g>
</svg>
