<?xml version="1.0" encoding="utf-8" standalone="no"?>
<!DOCTYPE svg PUBLIC "-//W3C//DTD SVG 1.0//EN" "http://www.w3.org/TR/SVG/DTD/svg11.dtd" >
<svg version="1.1" baseProfile="full"  width="319.13385" height="338.46454" viewBox="0 0 229.77638 243.69449" preserveAspectRatio="xMidYMid" xmlns="http://www.w3.org/2000/svg" >

<g lengthAdjust="spacingAndGlyphs" xml:space='preserve' >
<g  transform="translate(1.19,1.19)" >
<path d="
M0.0 0.0
L0.0 227.39
L227.39 227.39
L227.39 0.0
Z
" fill="none" fill-rule="nonzero" />
<line x1="6.54" y1="6.54" x2="6.54" y2="220.84" fill="none" stroke="black" stroke-width="0.87px" stroke-linecap="square" />
<line x1="18.45" y1="6.54" x2="18.45" y2="220.84" fill="none" stroke="black" stroke-width="0.25px" stroke-linecap="butt" />
<line x1="30.35" y1="6.54" x2="30.35" y2="220.84" fill="none" stroke="black" stroke-width="0.25px" stroke-linecap="butt" />
<line x1="42.26" y1="6.54" x2="42.26" y2="220.84" fill="none" stroke="black" stroke-width="0.25px" stroke-linecap="butt" />
<line x1="54.17" y1="6.54" x2="54.17" y2="220.84" fill="none" stroke="black" stroke-width="0.25px" stroke-linecap="butt" />
<line x1="66.07" y1="6.54" x2="66.07" y2="220.84" fill="none" stroke="black" stroke-width="0.25px" stroke-linecap="butt" />
<line x1="77.98" y1="6.54" x2="77.98" y2="36.31" fill="none" stroke="black" stroke-width="0.25px" stroke-linecap="butt" />
<line x1="77.98" y1="48.21" x2="77.98" y2="220.84" fill="none" stroke="black" stroke-width="0.25px" stroke-linecap="butt" />
<line x1="89.88" y1="6.54" x2="89.88" y2="220.84" fill="none" stroke="black" stroke-width="0.25px" stroke-linecap="butt" />
<line x1="101.79" y1="6.54" x2="101.79" y2="220.84" fill="none" stroke="black" stroke-width="0.25px" stroke-linecap="butt" />
<line x1="113.69" y1="6.54" x2="113.69" y2="220.84" fill="none" stroke="black" stroke-width="0.25px" stroke-linecap="butt" />
<line x1="125.60" y1="6.54" x2="125.60" y2="220.84" fill="none" stroke="black" stroke-width="0.25px" stroke-linecap="butt" />
<line x1="137.50" y1="6.54" x2="137.50" y2="220.84" fill="none" stroke="black" stroke-width="0.25px" stroke-linecap="butt" />
<line x1="149.41" y1="6.54" x2="149.41" y2="220.84" fill="none" stroke="black" stroke-width="0.25px" stroke-linecap="butt" />
<line x1="161.31" y1="6.54" x2="161.31" y2="220.84" fill="none" stroke="black" stroke-width="0.25px" stroke-linecap="butt" />
<line x1="173.22" y1="6.54" x2="173.22" y2="220.84" fill="none" stroke="black" stroke-width="0.25px" stroke-linecap="butt" />
<line x1="185.13" y1="6.54" x2="185.13" y2="220.84" fill="none" stroke="black" stroke-width="0.25px" stroke-linecap="butt" />
<line x1="197.03" y1="6.54" x2="197.03" y2="220.84" fill="none" stroke="black" stroke-width="0.25px" stroke-linecap="butt" />
<line x1="208.94" y1="6.54" x2="208.94" y2="220.84" fill="none" stroke="black" stroke-width="0.25px" stroke-linecap="butt" />
<line x1="220.84" y1="6.54" x2="220.84" y2="220.84" fill="none" stroke="black" stroke-width="0.87px" stroke-linecap="square" />
<line x1="6.54" y1="6.54" x2="220.84" y2="6.54" fill="none" stroke="black" stroke-width="0.87px" stroke-linecap="square" />
<line x1="6.54" y1="18.45" x2="220.84" y2="18.45" fill="none" stroke="black" stroke-width="0.25px" stroke-linecap="butt" />
<line x1="6.54" y1="30.35" x2="220.84" y2="30.35" fill="none" stroke="black" stroke-width="0.25px" stroke-linecap="butt" />
<line x1="6.54" y1="42.26" x2="72.02" y2="42.26" fill="none" stroke="black" stroke-width="0.25px" stroke-linecap="butt" />
<line x1="83.93" y1="42.26" x2="220.84" y2="42.26" fill="none" stroke="black" stroke-width="0.25px" stroke-linecap="butt" />
<line x1="6.54" y1="54.17" x2="220.84" y2="54.17" fill="none" stroke="black" stroke-width="0.25px" stroke-linecap="butt" />
<line x1="6.54" y1="66.07" x2="220.84" y2="66.07" fill="none" stroke="black" stroke-width="0.25px" stroke-linecap="butt" />
<line x1="6.54" y1="77.98" x2="220.84" y2="77.98" fill="none" stroke="black" stroke-width="0.25px" stroke-linecap="butt" />
<line x1="6.54" y1="89.88" x2="220.84" y2="89.88" fill="none" stroke="black" stroke-width="0.25px" stroke-linecap="butt" />
<line x1="6.54" y1="101.79" x2="220.84" y2="101.79" fill="none" stroke="black" stroke-width="0.25px" stroke-linecap="butt" />
<line x1="6.54" y1="113.69" x2="220.84" y2="113.69" fill="none" stroke="black" stroke-width="0.25px" stroke-linecap="butt" />
<line x1="6.54" y1="125.60" x2="220.84" y2="125.60" fill="none" stroke="black" stroke-width="0.25px" stroke-linecap="butt" />
<line x1="6.54" y1="137.50" x2="220.84" y2="137.50" fill="none" stroke="black" stroke-width="0.25px" stroke-linecap="butt" />
<line x1="6.54" y1="149.41" x2="220.84" y2="149.41" fill="none" stroke="black" stroke-width="0.25px" stroke-linecap="butt" />
<line x1="6.54" y1="161.31" x2="220.84" y2="161.31" fill="none" stroke="black" stroke-width="0.25px" stroke-linecap="butt" />
<line x1="6.54" y1="173.22" x2="220.84" y2="173.22" fill="none" stroke="black" stroke-width="0.25px" stroke-linecap="butt" />
<line x1="6.54" y1="185.13" x2="220.84" y2="185.13" fill="none" stroke="black" stroke-width="0.25px" stroke-linecap="butt" />
<line x1="6.54" y1="197.03" x2="220.84" y2="197.03" fill="none" stroke="black" stroke-width="0.25px" stroke-linecap="butt" />
<line x1="6.54" y1="208.94" x2="220.84" y2="208.94" fill="none" stroke="black" stroke-width="0.25px" stroke-linecap="butt" />
<line x1="6.54" y1="220.84" x2="220.84" y2="220.84" fill="none" stroke="black" stroke-width="0.87px" stroke-linecap="square" />
<circle cx="18.45" cy="30.35" r="5.98" fill="black"/>
<circle cx="18.45" cy="42.26" r="5.85" fill="white"/>
<circle cx="18.45" cy="42.26" r="5.85" fill="none" stroke="black" stroke-width="0.25px"/>
<circle cx="30.35" cy="30.35" r="5.98" fill="black"/>
<circle cx="30.35" cy="42.26" r="5.85" fill="white"/>
<circle cx="30.35" cy="42.26" r="5.85" fill="none" stroke="black" stroke-width="0.25px"/>
<circle cx="30.35" cy="66.07" r="5.98" fill="black"/>
<circle cx="30.35" cy="101.79" r="5.85" fill="white"/>
<circle cx="30.35" cy="101.79" r="5.85" fill="none" stroke="black" stroke-width="0.25px"/>
<circle cx="30.35" cy="125.60" r="5.98" fill="black"/>
<circle cx="30.35" cy="161.31" r="5.98" fill="black"/>
<circle cx="30.35" cy="173.22" r="5.85" fill="white"/>
<circle cx="30.35" cy="173.22" r="5.85" fill="none" stroke="black" stroke-width="0.25px"/>
<circle cx="42.26" cy="30.35" r="5.98" fill="black"/>
<circle cx="42.26" cy="42.26" r="5.85" fill="white"/>
<circle cx="42.26" cy="42.26" r="5.85" fill="none" stroke="black" stroke-width="0.25px"/>
<circle cx="42.26" cy="77.98" r="5.85" fill="white"/>
<circle cx="42.26" cy="77.98" r="5.85" fill="none" stroke="black" stroke-width="0.25px"/>
<circle cx="42.26" cy="113.69" r="1.27" fill="black"/>
<circle cx="42.26" cy="161.31" r="5.98" fill="black"/>
<circle cx="42.26" cy="185.13" r="5.85" fill="white"/>
<circle cx="42.26" cy="185.13" r="5.85" fill="none" stroke="black" stroke-width="0.25px"/>
<circle cx="54.17" cy="42.26" r="5.85" fill="white"/>
<circle cx="54.17" cy="42.26" r="5.85" fill="none" stroke="black" stroke-width="0.25px"/>
<circle cx="54.17" cy="101.79" r="5.85" fill="white"/>
<circle cx="54.17" cy="101.79" r="5.85" fill="none" stroke="black" stroke-width="0.25px"/>
<circle cx="54.17" cy="125.60" r="5.98" fill="black"/>
<circle cx="66.07" cy="18.45" r="5.98" fill="black"/>
<circle cx="66.07" cy="30.35" r="5.98" fill="black"/>
<circle cx="66.07" cy="42.26" r="5.85" fill="white"/>
<circle cx="66.07" cy="42.26" r="5.85" fill="none" stroke="black" stroke-width="0.25px"/>
<circle cx="66.07" cy="185.13" r="5.85" fill="white"/>
<circle cx="66.07" cy="185.13" r="5.85" fill="none" stroke="black" stroke-width="0.25px"/>
<circle cx="89.88" cy="30.35" r="5.85" fill="white"/>
<circle cx="89.88" cy="30.35" r="5.85" fill="none" stroke="black" stroke-width="0.25px"/>
<circle cx="113.69" cy="42.26" r="1.27" fill="black"/>
<circle cx="113.69" cy="113.69" r="1.27" fill="black"/>
<circle cx="113.69" cy="185.13" r="1.27" fill="black"/>
<circle cx="113.69" cy="197.03" r="5.85" fill="white"/>
<circle cx="113.69" cy="197.03" r="5.85" fill="none" stroke="black" stroke-width="0.25px"/>
<circle cx="149.41" cy="30.35" r="5.98" fill="black"/>
<circle cx="185.13" cy="42.26" r="5.98" fill="black"/>
<circle cx="185.13" cy="113.69" r="1.27" fill="black"/>
<circle cx="185.13" cy="185.13" r="1.27" fill="black"/>
<circle cx="185.13" cy="197.03" r="5.98" fill="black"/>
<circle cx="197.03" cy="173.22" r="5.98" fill="black"/>
<path d="
M32.45 99.64
L32.45 102.86
L30.99 102.86
L32.45 99.64
Z
M28.55 98.21
C28.11 98.21 27.76 98.38 27.49 98.73
C27.22 99.07 27.07 99.59 27.03 100.27
L27.62 100.36
C27.62 99.90 27.70 99.55 27.87 99.30
C28.05 99.06 28.26 98.94 28.53 98.94
C28.78 98.94 28.99 99.05 29.16 99.28
C29.33 99.51 29.41 99.80 29.41 100.16
C29.41 100.48 29.33 100.82 29.16 101.18
C29.00 101.55 28.65 102.06 28.11 102.73
C27.65 103.30 27.34 103.80 27.17 104.22
C26.99 104.64 26.91 105.02 26.92 105.36
L30.01 105.36
L30.01 104.52
L27.72 104.52
C27.78 104.36 27.86 104.20 27.96 104.05
C28.06 103.89 28.28 103.59 28.62 103.15
C29.16 102.46 29.52 101.90 29.71 101.49
C29.90 101.07 30.00 100.64 30.00 100.18
C30.00 99.67 29.88 99.22 29.63 98.81
C29.39 98.41 29.03 98.21 28.55 98.21
Z
M32.56 98.24
L30.43 102.86
L30.43 103.66
L32.45 103.66
L32.45 105.36
L33.03 105.36
L33.03 103.66
L33.66 103.66
L33.66 102.86
L33.03 102.86
L33.03 98.24
Z
" fill="black" fill-rule="nonzero" />
<path d="
M28.55 121.88
C28.07 121.88 27.68 122.07 27.38 122.45
C27.09 122.82 26.93 123.36 26.89 124.07
L26.88 124.20
L27.01 124.22
L27.60 124.31
L27.76 124.34
L27.76 124.17
C27.76 123.74 27.84 123.42 27.99 123.20
C28.13 122.99 28.31 122.89 28.53 122.89
C28.53 122.89 28.53 122.89 28.53 122.89
C28.53 122.89 28.53 122.89 28.53 122.89
C28.74 122.89 28.91 122.98 29.05 123.17
C29.20 123.38 29.27 123.64 29.27 123.98
C29.27 124.27 29.19 124.59 29.04 124.93
C28.87 125.29 28.53 125.79 28.00 126.45
C27.53 127.04 27.21 127.54 27.03 127.98
C26.85 128.42 26.77 128.82 26.78 129.18
L26.78 129.32
L30.15 129.32
L30.15 129.17
L30.15 128.33
L30.15 128.19
L27.93 128.19
C27.98 128.11 28.02 128.02 28.08 127.93
C28.18 127.78 28.39 127.48 28.73 127.05
C29.28 126.35 29.65 125.78 29.84 125.36
C30.04 124.92 30.14 124.47 30.14 123.99
C30.14 123.46 30.01 122.98 29.75 122.55
C29.48 122.11 29.08 121.88 28.55 121.88
Z
M32.30 121.88
L32.27 121.98
C32.17 122.28 32.01 122.58 31.78 122.90
C31.54 123.21 31.28 123.48 30.97 123.69
L30.91 123.74
L30.91 123.81
L30.91 124.66
L30.91 124.90
L31.12 124.78
C31.32 124.67 31.53 124.51 31.76 124.30
C31.87 124.20 31.97 124.10 32.06 124.01
L32.06 124.01
L32.06 129.17
L32.06 129.32
L32.92 129.32
L32.92 129.17
L32.92 122.02
L32.92 121.88
Z
" fill="white" fill-rule="nonzero" />
<path d="
M28.55 169.64
C28.11 169.64 27.76 169.82 27.49 170.16
C27.22 170.51 27.07 171.02 27.03 171.70
L27.62 171.80
C27.62 171.34 27.70 170.98 27.87 170.74
C28.05 170.49 28.26 170.37 28.53 170.37
C28.78 170.37 28.99 170.48 29.16 170.71
C29.33 170.94 29.41 171.23 29.41 171.60
C29.41 171.91 29.33 172.25 29.16 172.62
C29.00 172.98 28.65 173.50 28.11 174.16
C27.65 174.74 27.34 175.23 27.17 175.65
C26.99 176.08 26.91 176.46 26.92 176.80
L30.01 176.80
L30.01 175.96
L27.72 175.96
C27.78 175.80 27.86 175.64 27.96 175.48
C28.06 175.32 28.28 175.02 28.62 174.59
C29.16 173.89 29.52 173.34 29.71 172.92
C29.90 172.51 30.00 172.07 30.00 171.62
C30.00 171.11 29.88 170.65 29.63 170.25
C29.39 169.85 29.03 169.64 28.55 169.64
Z
M32.18 169.64
C31.74 169.64 31.39 169.82 31.12 170.16
C30.85 170.51 30.70 171.02 30.66 171.70
L31.25 171.80
C31.25 171.34 31.33 170.98 31.50 170.74
C31.68 170.49 31.89 170.37 32.16 170.37
C32.41 170.37 32.62 170.48 32.79 170.71
C32.96 170.94 33.04 171.23 33.04 171.60
C33.04 171.91 32.96 172.25 32.79 172.62
C32.63 172.98 32.28 173.50 31.74 174.16
C31.28 174.74 30.97 175.23 30.80 175.65
C30.62 176.08 30.54 176.46 30.55 176.80
L33.64 176.80
L33.64 175.96
L31.35 175.96
C31.41 175.80 31.49 175.64 31.59 175.48
C31.69 175.32 31.91 175.02 32.25 174.59
C32.79 173.89 33.15 173.34 33.34 172.92
C33.53 172.51 33.63 172.07 33.63 171.62
C33.63 171.11 33.51 170.65 33.26 170.25
C33.02 169.85 32.66 169.64 32.18 169.64
Z
" fill="black" fill-rule="nonzero" />
<path d="
M40.46 157.53
C39.97 157.53 39.58 157.73 39.29 158.11
C39.00 158.47 38.83 159.01 38.79 159.73
L38.78 159.86
L38.91 159.88
L39.50 159.97
L39.67 159.99
L39.67 159.83
C39.66 159.40 39.74 159.07 39.90 158.85
C40.04 158.64 40.22 158.54 40.43 158.54
C40.43 158.54 40.44 158.54 40.44 158.54
C40.44 158.54 40.44 158.54 40.44 158.54
C40.64 158.54 40.81 158.64 40.95 158.83
C41.10 159.03 41.18 159.30 41.18 159.63
C41.18 159.92 41.10 160.24 40.94 160.59
C40.78 160.94 40.44 161.45 39.91 162.11
C39.44 162.69 39.12 163.20 38.94 163.63
C38.76 164.07 38.67 164.47 38.68 164.83
L38.69 164.97
L42.06 164.97
L42.06 164.83
L42.06 163.99
L42.06 163.85
L39.84 163.85
C39.88 163.76 39.93 163.67 39.98 163.59
C40.08 163.43 40.30 163.14 40.64 162.70
C41.18 162.00 41.55 161.44 41.75 161.01
C41.95 160.58 42.05 160.12 42.05 159.65
C42.05 159.11 41.92 158.63 41.66 158.20
C41.39 157.76 40.99 157.54 40.46 157.53
Z
M43.99 157.53
C43.59 157.53 43.24 157.71 42.96 158.05
C42.69 158.38 42.52 158.87 42.44 159.51
L42.43 159.63
L42.55 159.66
L43.12 159.81
L43.28 159.86
L43.29 159.69
C43.33 159.29 43.42 158.99 43.56 158.80
C43.68 158.62 43.83 158.54 44.00 158.54
C44.00 158.54 44.00 158.54 44.00 158.54
C44.00 158.54 44.00 158.54 44.00 158.54
C44.17 158.54 44.31 158.62 44.43 158.78
C44.56 158.96 44.62 159.20 44.62 159.50
C44.62 159.83 44.54 160.09 44.39 160.28
C44.24 160.46 44.05 160.55 43.82 160.56
L43.82 160.56
L43.74 160.55
L43.59 160.53
L43.58 160.68
L43.51 161.44
L43.49 161.67
L43.71 161.59
C43.85 161.53 43.97 161.50 44.06 161.50
C44.06 161.50 44.06 161.50 44.06 161.50
C44.06 161.50 44.06 161.50 44.06 161.50
C44.27 161.50 44.45 161.61 44.59 161.82
C44.75 162.05 44.83 162.35 44.83 162.74
C44.83 163.15 44.74 163.48 44.57 163.73
C44.41 163.97 44.22 164.09 44.01 164.09
C44.01 164.09 44.01 164.09 44.00 164.09
C44.00 164.09 44.00 164.09 44.00 164.09
C43.81 164.09 43.66 163.99 43.53 163.80
C43.39 163.59 43.30 163.26 43.24 162.81
L43.22 162.66
L43.07 162.69
L42.50 162.81
L42.37 162.83
L42.38 162.96
C42.42 163.60 42.59 164.11 42.89 164.50
C43.19 164.89 43.57 165.09 44.01 165.10
C44.49 165.09 44.90 164.87 45.23 164.41
C45.56 163.97 45.72 163.41 45.72 162.72
C45.72 162.40 45.68 162.11 45.61 161.85
C45.53 161.58 45.42 161.36 45.28 161.20
C45.20 161.09 45.09 161.00 44.97 160.93
L44.97 160.93
C45.11 160.80 45.23 160.63 45.31 160.44
C45.43 160.17 45.50 159.87 45.50 159.52
C45.49 158.96 45.35 158.49 45.07 158.11
C44.78 157.73 44.42 157.54 43.99 157.53
Z
" fill="white" fill-rule="nonzero" />
<path d="
M55.99 101.45
C56.24 101.45 56.46 101.59 56.63 101.87
C56.81 102.15 56.90 102.54 56.90 103.05
C56.90 103.56 56.81 103.97 56.63 104.26
C56.45 104.56 56.25 104.70 56.03 104.70
C55.77 104.70 55.54 104.55 55.35 104.24
C55.16 103.92 55.06 103.51 55.06 102.99
C55.06 102.52 55.15 102.15 55.34 101.87
C55.52 101.59 55.74 101.45 55.99 101.45
Z
M52.36 98.15
C51.92 98.15 51.57 98.32 51.30 98.67
C51.03 99.01 50.88 99.53 50.84 100.21
L51.43 100.30
C51.43 99.84 51.51 99.49 51.69 99.24
C51.86 99.00 52.08 98.87 52.34 98.87
C52.59 98.87 52.80 98.99 52.97 99.22
C53.14 99.45 53.22 99.74 53.22 100.10
C53.22 100.42 53.14 100.76 52.98 101.12
C52.81 101.49 52.46 102.00 51.92 102.67
C51.46 103.24 51.15 103.74 50.98 104.16
C50.80 104.58 50.72 104.96 50.73 105.30
L53.82 105.30
L53.82 104.46
L51.53 104.46
C51.59 104.30 51.67 104.14 51.77 103.99
C51.87 103.83 52.09 103.53 52.43 103.09
C52.97 102.40 53.33 101.84 53.52 101.43
C53.72 101.01 53.81 100.58 53.81 100.12
C53.81 99.61 53.69 99.15 53.44 98.75
C53.20 98.35 52.84 98.15 52.36 98.15
Z
M56.07 98.15
C55.58 98.15 55.18 98.44 54.87 99.03
C54.56 99.61 54.40 100.59 54.40 101.97
C54.40 103.21 54.55 104.10 54.86 104.63
C55.16 105.16 55.55 105.42 56.02 105.42
C56.28 105.42 56.52 105.33 56.74 105.15
C56.96 104.96 57.14 104.68 57.28 104.29
C57.42 103.90 57.48 103.47 57.48 102.99
C57.48 102.29 57.35 101.73 57.07 101.31
C56.79 100.89 56.47 100.68 56.10 100.68
C55.88 100.68 55.67 100.76 55.47 100.92
C55.27 101.08 55.10 101.32 54.97 101.63
C54.97 100.75 55.06 100.09 55.23 99.65
C55.44 99.13 55.70 98.87 56.04 98.87
C56.25 98.87 56.44 98.98 56.59 99.21
C56.70 99.37 56.78 99.63 56.83 99.99
L57.40 99.92
C57.35 99.35 57.21 98.91 56.97 98.60
C56.73 98.30 56.43 98.15 56.07 98.15
Z
" fill="black" fill-rule="nonzero" />
<path d="
M55.38 124.48
L55.38 124.48
L55.38 124.48
C55.38 124.48 55.38 124.48 55.38 124.48
Z
M52.36 121.82
C51.88 121.82 51.49 122.01 51.19 122.39
C50.90 122.76 50.74 123.30 50.70 124.01
L50.69 124.14
L50.82 124.16
L51.41 124.25
L51.57 124.28
L51.57 124.11
C51.57 123.68 51.65 123.36 51.80 123.14
C51.94 122.93 52.12 122.83 52.34 122.83
C52.34 122.83 52.34 122.83 52.34 122.83
C52.34 122.83 52.34 122.83 52.35 122.83
C52.55 122.83 52.72 122.92 52.86 123.11
C53.01 123.32 53.08 123.58 53.08 123.91
C53.08 124.21 53.00 124.53 52.85 124.87
C52.69 125.23 52.34 125.73 51.81 126.39
C51.34 126.98 51.02 127.48 50.85 127.92
C50.67 128.36 50.58 128.76 50.59 129.12
L50.59 129.25
L53.96 129.25
L53.96 129.11
L53.96 128.27
L53.96 128.13
L51.74 128.13
C51.79 128.04 51.83 127.96 51.89 127.87
C51.99 127.72 52.20 127.42 52.54 126.99
C53.09 126.29 53.46 125.72 53.65 125.30
C53.85 124.86 53.95 124.41 53.95 123.93
C53.95 123.40 53.82 122.91 53.57 122.49
C53.29 122.04 52.89 121.82 52.36 121.82
Z
M54.86 121.95
L54.84 122.07
L54.39 125.73
L54.37 125.86
L54.50 125.89
L55.04 125.99
L55.15 126.02
L55.20 125.91
C55.28 125.71 55.38 125.56 55.52 125.46
C55.64 125.36 55.77 125.31 55.91 125.31
C55.91 125.31 55.91 125.31 55.91 125.31
C55.92 125.31 55.92 125.31 55.92 125.31
C56.15 125.31 56.35 125.42 56.51 125.66
C56.69 125.92 56.78 126.29 56.78 126.77
C56.78 127.28 56.68 127.68 56.50 127.97
C56.33 128.24 56.14 128.37 55.92 128.37
C55.92 128.37 55.92 128.37 55.92 128.37
C55.92 128.37 55.92 128.37 55.92 128.37
C55.75 128.37 55.59 128.28 55.46 128.10
C55.31 127.90 55.21 127.58 55.17 127.16
L55.15 127.01
L55.01 127.03
L54.41 127.11
L54.28 127.12
L54.28 127.26
C54.33 127.91 54.49 128.42 54.79 128.80
C55.10 129.18 55.48 129.38 55.93 129.38
C56.47 129.37 56.90 129.10 57.21 128.56
C57.51 128.04 57.66 127.42 57.66 126.70
C57.66 125.96 57.51 125.37 57.21 124.93
C56.89 124.48 56.51 124.25 56.07 124.25
C55.83 124.25 55.60 124.33 55.38 124.48
L55.38 124.48
L55.56 123.07
L57.44 123.07
L57.44 122.92
L57.44 122.09
L57.44 121.95
Z
" fill="white" fill-rule="nonzero" />
<path d="
M77.89 40.21
L78.95 43.06
L76.86 43.06
L77.89 40.21
Z
M77.09 38.43
L74.11 46.09
L75.75 46.09
L76.38 44.35
L79.45 44.35
L80.12 46.09
L81.80 46.09
L78.73 38.43
Z
" fill="black" fill-rule="nonzero" />
<path d="
M147.61 26.64
C147.12 26.64 146.73 26.83 146.43 27.21
C146.15 27.58 145.98 28.12 145.94 28.83
L145.93 28.96
L146.06 28.98
L146.65 29.07
L146.81 29.10
L146.81 28.93
C146.81 28.50 146.89 28.17 147.05 27.95
C147.19 27.75 147.37 27.64 147.58 27.64
C147.58 27.64 147.59 27.64 147.59 27.64
C147.59 27.64 147.59 27.64 147.59 27.64
C147.79 27.64 147.96 27.74 148.10 27.93
C148.25 28.13 148.33 28.40 148.33 28.73
C148.33 29.03 148.25 29.34 148.09 29.69
C147.93 30.04 147.59 30.55 147.06 31.21
C146.59 31.79 146.27 32.30 146.09 32.73
C145.91 33.17 145.82 33.57 145.83 33.93
L145.83 34.07
L149.21 34.07
L149.21 33.93
L149.21 33.09
L149.21 32.95
L146.99 32.95
C147.03 32.86 147.08 32.78 147.13 32.69
C147.23 32.53 147.45 32.24 147.79 31.81
C148.33 31.10 148.70 30.54 148.90 30.11
C149.10 29.68 149.20 29.22 149.20 28.75
C149.20 28.21 149.07 27.73 148.81 27.31
C148.54 26.86 148.13 26.64 147.61 26.64
Z
M149.57 26.76
L149.57 26.90
L149.57 27.74
L149.57 27.88
L151.75 27.88
C151.50 28.35 151.27 28.90 151.05 29.53
C150.79 30.26 150.59 31.02 150.45 31.82
C150.30 32.62 150.23 33.32 150.22 33.93
L150.22 34.07
L150.95 34.07
L151.09 34.07
L151.09 33.94
C151.15 32.79 151.34 31.64 151.68 30.48
C152.02 29.32 152.41 28.38 152.85 27.65
L152.87 27.62
L152.87 27.58
L152.87 26.90
L152.87 26.76
Z
" fill="white" fill-rule="nonzero" />
</g>
<g  transform="translate(1.19,228.58)" >
<path d="
M106.49 2.94
C106.33 2.94 106.19 3.00 106.07 3.11
C105.96 3.23 105.90 3.37 105.90 3.53
C105.90 3.69 105.96 3.83 106.08 3.95
C106.19 4.07 106.33 4.12 106.49 4.12
C106.66 4.12 106.80 4.07 106.91 3.95
C107.02 3.83 107.08 3.69 107.08 3.53
C107.08 3.37 107.02 3.23 106.91 3.11
C106.80 3.00 106.66 2.94 106.49 2.94
Z
M111.46 8.04
L111.46 10.07
C110.98 10.46 110.60 10.65 110.30 10.65
C110.08 10.65 109.89 10.56 109.73 10.37
C109.56 10.19 109.48 9.96 109.48 9.68
C109.48 9.46 109.54 9.25 109.67 9.07
C109.81 8.88 110.02 8.70 110.33 8.53
C110.50 8.44 110.88 8.27 111.46 8.04
Z
M99.82 3.77
C100.75 3.77 101.51 4.08 102.10 4.71
C102.69 5.34 102.99 6.20 102.99 7.29
C102.99 8.37 102.69 9.23 102.10 9.86
C101.51 10.49 100.76 10.81 99.86 10.81
C99.53 10.81 99.12 10.75 98.62 10.64
L98.62 3.94
C99.07 3.83 99.47 3.77 99.82 3.77
Z
M96.37 3.33
L96.37 3.54
L96.67 3.54
C96.97 3.54 97.19 3.63 97.34 3.80
C97.45 3.92 97.51 4.23 97.51 4.72
L97.51 9.82
C97.51 10.26 97.46 10.55 97.38 10.68
C97.24 10.89 97.00 11.00 96.67 11.00
L96.37 11.00
L96.37 11.21
L99.90 11.21
C101.43 11.21 102.57 10.80 103.32 9.98
C103.98 9.24 104.32 8.33 104.32 7.23
C104.32 6.41 104.13 5.69 103.76 5.07
C103.38 4.44 102.89 4.00 102.27 3.73
C101.66 3.46 100.76 3.33 99.58 3.33
Z
M106.72 5.73
L105.12 6.38
L105.20 6.59
C105.35 6.53 105.48 6.50 105.59 6.50
C105.69 6.50 105.77 6.53 105.83 6.58
C105.89 6.62 105.93 6.71 105.96 6.83
C105.99 7.00 106.01 7.38 106.01 7.96
L106.01 10.01
C106.01 10.34 105.98 10.56 105.93 10.68
C105.88 10.79 105.81 10.88 105.72 10.93
C105.63 10.98 105.46 11.00 105.20 11.00
L105.20 11.21
L107.78 11.21
L107.78 11.00
C107.53 11.00 107.36 10.98 107.26 10.92
C107.17 10.87 107.10 10.79 107.05 10.68
C107.00 10.56 106.98 10.34 106.98 10.01
L106.98 5.73
Z
M122.63 3.16
L120.71 4.10
L120.79 4.28
C121.05 4.16 121.25 4.10 121.39 4.10
C121.49 4.10 121.58 4.13 121.65 4.19
C121.72 4.25 121.77 4.34 121.80 4.46
C121.84 4.62 121.86 4.99 121.86 5.57
L121.86 9.82
C121.86 10.30 121.84 10.58 121.79 10.67
C121.75 10.77 121.68 10.85 121.57 10.90
C121.46 10.96 121.22 10.99 120.85 11.00
L120.85 11.21
L123.81 11.21
L123.81 11.00
C123.46 10.99 123.22 10.96 123.10 10.90
C122.99 10.84 122.91 10.76 122.87 10.65
C122.84 10.54 122.82 10.27 122.82 9.82
L122.82 3.16
Z
M110.65 5.73
C110.03 5.73 109.56 5.87 109.21 6.15
C108.87 6.43 108.70 6.73 108.70 7.07
C108.70 7.24 108.75 7.38 108.84 7.48
C108.93 7.58 109.05 7.63 109.19 7.63
C109.34 7.63 109.46 7.58 109.55 7.49
C109.64 7.39 109.69 7.25 109.69 7.07
L109.67 6.74
C109.67 6.56 109.75 6.41 109.89 6.28
C110.04 6.15 110.23 6.08 110.48 6.08
C110.80 6.08 111.04 6.18 111.21 6.38
C111.38 6.58 111.46 6.94 111.46 7.47
L111.46 7.68
C110.55 8.02 109.90 8.30 109.50 8.53
C109.11 8.76 108.83 9.01 108.67 9.28
C108.56 9.47 108.50 9.69 108.50 9.95
C108.50 10.36 108.62 10.69 108.86 10.95
C109.09 11.20 109.40 11.32 109.77 11.32
C110.00 11.32 110.23 11.27 110.44 11.18
C110.57 11.11 110.92 10.87 111.46 10.45
C111.47 10.76 111.53 10.99 111.64 11.12
C111.75 11.25 111.90 11.32 112.09 11.32
C112.49 11.32 112.90 11.03 113.34 10.45
L113.34 10.12
C113.10 10.35 112.95 10.49 112.87 10.54
C112.82 10.57 112.77 10.58 112.70 10.58
C112.65 10.58 112.59 10.57 112.55 10.53
C112.50 10.49 112.47 10.41 112.45 10.30
C112.43 10.18 112.42 9.87 112.42 9.36
L112.42 7.55
C112.42 7.04 112.39 6.70 112.32 6.53
C112.21 6.28 112.04 6.09 111.81 5.97
C111.51 5.81 111.12 5.73 110.65 5.73
Z
M128.00 3.16
C127.49 3.16 127.06 3.31 126.72 3.60
C126.38 3.89 126.09 4.30 125.87 4.83
L126.06 4.92
C126.46 4.28 126.97 3.96 127.57 3.96
C127.94 3.96 128.25 4.08 128.50 4.32
C128.75 4.57 128.88 4.89 128.88 5.29
C128.88 5.60 128.81 5.88 128.67 6.14
C128.53 6.39 128.30 6.61 127.99 6.79
C127.69 6.98 127.38 7.09 127.07 7.12
L127.07 7.30
L127.26 7.30
C127.56 7.30 127.86 7.36 128.15 7.49
C128.44 7.61 128.67 7.75 128.83 7.91
C128.95 8.02 129.07 8.19 129.17 8.40
C129.30 8.69 129.37 8.99 129.37 9.30
C129.37 9.72 129.22 10.08 128.93 10.39
C128.64 10.69 128.29 10.85 127.90 10.85
C127.74 10.85 127.58 10.83 127.44 10.78
C127.35 10.76 127.19 10.69 126.96 10.56
C126.72 10.44 126.57 10.37 126.51 10.35
C126.41 10.32 126.31 10.31 126.21 10.31
C126.08 10.31 125.97 10.35 125.88 10.43
C125.79 10.52 125.75 10.62 125.75 10.73
C125.75 10.88 125.84 11.02 126.03 11.15
C126.23 11.29 126.59 11.35 127.12 11.35
C128.19 11.35 129.01 11.03 129.58 10.38
C130.01 9.88 130.23 9.28 130.23 8.60
C130.23 8.12 130.11 7.71 129.86 7.36
C129.61 7.00 129.24 6.73 128.76 6.54
C129.48 5.93 129.84 5.34 129.84 4.76
C129.84 4.41 129.71 4.09 129.46 3.78
C129.12 3.37 128.63 3.16 128.00 3.16
Z
M114.85 10.08
C114.67 10.08 114.52 10.15 114.39 10.27
C114.26 10.39 114.20 10.55 114.20 10.73
C114.20 10.91 114.26 11.06 114.39 11.19
C114.52 11.31 114.67 11.38 114.85 11.38
C115.03 11.38 115.18 11.31 115.30 11.19
C115.43 11.06 115.49 10.91 115.49 10.73
C115.49 10.55 115.43 10.40 115.31 10.27
C115.18 10.15 115.03 10.08 114.85 10.08
Z
" fill="black" fill-rule="nonzero" />
</g>
</g>
</svg>
