<?xml version="1.0" encoding="utf-8" standalone="no"?>
<!DOCTYPE svg PUBLIC "-//W3C//DTD SVG 1.0//EN" "http://www.w3.org/TR/SVG/DTD/svg11.dtd" >
<svg version="1.1" baseProfile="full"  width="319.13385" height="338.51422" viewBox="0 0 229.77638 243.73024" preserveAspectRatio="xMidYMid" xmlns="http://www.w3.org/2000/svg" >

<g lengthAdjust="spacingAndGlyphs" xml:space='preserve' >
<g  transform="translate(1.19,1.19)" >
<path d="
M0.0 0.0
L0.0 227.39
L227.39 227.39
L227.39 0.0
Z
" fill="none" fill-rule="nonzero" />
<line x1="6.54" y1="6.54" x2="6.54" y2="220.84" fill="none" stroke="black" stroke-width="0.87px" stroke-linecap="square" />
<line x1="18.45" y1="6.54" x2="18.45" y2="220.84" fill="none" stroke="black" stroke-width="0.25px" stroke-linecap="butt" />
<line x1="30.35" y1="6.54" x2="30.35" y2="220.84" fill="none" stroke="black" stroke-width="0.25px" stroke-linecap="butt" />
<line x1="42.26" y1="6.54" x2="42.26" y2="220.84" fill="none" stroke="black" stroke-width="0.25px" stroke-linecap="butt" />
<line x1="54.17" y1="6.54" x2="54.17" y2="220.84" fill="none" stroke="black" stroke-width="0.25px" stroke-linecap="butt" />
<line x1="66.07" y1="6.54" x2="66.07" y2="220.84" fill="none" stroke="black" stroke-width="0.25px" stroke-linecap="butt" />
<line x1="77.98" y1="6.54" x2="77.98" y2="220.84" fill="none" stroke="black" stroke-width="0.25px" stroke-linecap="butt" />
<line x1="89.88" y1="6.54" x2="89.88" y2="220.84" fill="none" stroke="black" stroke-width="0.25px" stroke-linecap="butt" />
<line x1="101.79" y1="6.54" x2="101.79" y2="220.84" fill="none" stroke="black" stroke-width="0.25px" stroke-linecap="butt" />
<line x1="113.69" y1="6.54" x2="113.69" y2="220.84" fill="none" stroke="black" stroke-width="0.25px" stroke-linecap="butt" />
<line x1="125.60" y1="6.54" x2="125.60" y2="220.84" fill="none" stroke="black" stroke-width="0.25px" stroke-linecap="butt" />
<line x1="137.50" y1="6.54" x2="137.50" y2="220.84" fill="none" stroke="black" stroke-width="0.25px" stroke-linecap="butt" />
<line x1="149.41" y1="6.54" x2="149.41" y2="220.84" fill="none" stroke="black" stroke-width="0.25px" stroke-linecap="butt" />
<line x1="161.31" y1="6.54" x2="161.31" y2="220.84" fill="none" stroke="black" stroke-width="0.25px" stroke-linecap="butt" />
<line x1="173.22" y1="6.54" x2="173.22" y2="220.84" fill="none" stroke="black" stroke-width="0.25px" stroke-linecap="butt" />
<line x1="185.13" y1="6.54" x2="185.13" y2="220.84" fill="none" stroke="black" stroke-width="0.25px" stroke-linecap="butt" />
<line x1="197.03" y1="6.54" x2="197.03" y2="220.84" fill="none" stroke="black" stroke-width="0.25px" stroke-linecap="butt" />
<line x1="208.94" y1="6.54" x2="208.94" y2="220.84" fill="none" stroke="black" stroke-width="0.25px" stroke-linecap="butt" />
<line x1="220.84" y1="6.54" x2="220.84" y2="220.84" fill="none" stroke="black" stroke-width="0.87px" stroke-linecap="square" />
<line x1="6.54" y1="6.54" x2="220.84" y2="6.54" fill="none" stroke="black" stroke-width="0.87px" stroke-linecap="square" />
<line x1="6.54" y1="18.45" x2="220.84" y2="18.45" fill="none" stroke="black" stroke-width="0.25px" stroke-linecap="butt" />
<line x1="6.54" y1="30.35" x2="220.84" y2="30.35" fill="none" stroke="black" stroke-width="0.25px" stroke-linecap="butt" />
<line x1="6.54" y1="42.26" x2="220.84" y2="42.26" fill="none" stroke="black" stroke-width="0.25px" stroke-linecap="butt" />
<line x1="6.54" y1="54.17" x2="220.84" y2="54.17" fill="none" stroke="black" stroke-width="0.25px" stroke-linecap="butt" />
<line x1="6.54" y1="66.07" x2="220.84" y2="66.07" fill="none" stroke="black" stroke-width="0.25px" stroke-linecap="butt" />
<line x1="6.54" y1="77.98" x2="220.84" y2="77.98" fill="none" stroke="black" stroke-width="0.25px" stroke-linecap="butt" />
<line x1="6.54" y1="89.88" x2="220.84" y2="89.88" fill="none" stroke="black" stroke-width="0.25px" stroke-linecap="butt" />
<line x1="6.54" y1="101.79" x2="220.84" y2="101.79" fill="none" stroke="black" stroke-width="0.25px" stroke-linecap="butt" />
<line x1="6.54" y1="113.69" x2="220.84" y2="113.69" fill="none" stroke="black" stroke-width="0.25px" stroke-linecap="butt" />
<line x1="6.54" y1="125.60" x2="220.84" y2="125.60" fill="none" stroke="black" stroke-width="0.25px" stroke-linecap="butt" />
<line x1="6.54" y1="137.50" x2="220.84" y2="137.50" fill="none" stroke="black" stroke-width="0.25px" stroke-linecap="butt" />
<line x1="6.54" y1="149.41" x2="220.84" y2="149.41" fill="none" stroke="black" stroke-width="0.25px" stroke-linecap="butt" />
<line x1="6.54" y1="161.31" x2="220.84" y2="161.31" fill="none" stroke="black" stroke-width="0.25px" stroke-linecap="butt" />
<line x1="6.54" y1="173.22" x2="220.84" y2="173.22" fill="none" stroke="black" stroke-width="0.25px" stroke-linecap="butt" />
<line x1="6.54" y1="185.13" x2="220.84" y2="185.13" fill="none" stroke="black" stroke-width="0.25px" stroke-linecap="butt" />
<line x1="6.54" y1="197.03" x2="220.84" y2="197.03" fill="none" stroke="black" stroke-width="0.25px" stroke-linecap="butt" />
<line x1="6.54" y1="208.94" x2="220.84" y2="208.94" fill="none" stroke="black" stroke-width="0.25px" stroke-linecap="butt" />
<line x1="6.54" y1="220.84" x2="220.84" y2="220.84" fill="none" stroke="black" stroke-width="0.87px" stroke-linecap="square" />
<circle cx="30.35" cy="54.17" r="5.89" fill="white"/>
<circle cx="30.35" cy="54.17" r="5.89" fill="none" stroke="black" stroke-width="0.25px"/>
<circle cx="30.35" cy="66.07" r="6.01" fill="black"/>
<circle cx="30.35" cy="161.31" r="6.01" fill="black"/>
<circle cx="42.26" cy="42.26" r="5.89" fill="white"/>
<circle cx="42.26" cy="42.26" r="5.89" fill="none" stroke="black" stroke-width="0.25px"/>
<circle cx="42.26" cy="54.17" r="5.89" fill="white"/>
<circle cx="42.26" cy="54.17" r="5.89" fill="none" stroke="black" stroke-width="0.25px"/>
<circle cx="42.26" cy="66.07" r="5.89" fill="white"/>
<circle cx="42.26" cy="66.07" r="5.89" fill="none" stroke="black" stroke-width="0.25px"/>
<circle cx="42.26" cy="77.98" r="6.01" fill="black"/>
<circle cx="42.26" cy="113.69" r="1.27" fill="black"/>
<circle cx="42.26" cy="185.13" r="5.89" fill="white"/>
<circle cx="42.26" cy="185.13" r="5.89" fill="none" stroke="black" stroke-width="0.25px"/>
<circle cx="54.17" cy="18.45" r="5.89" fill="white"/>
<circle cx="54.17" cy="18.45" r="5.89" fill="none" stroke="black" stroke-width="0.25px"/>
<circle cx="54.17" cy="66.07" r="6.01" fill="black"/>
<circle cx="54.17" cy="77.98" r="6.01" fill="black"/>
<circle cx="66.07" cy="30.35" r="6.01" fill="black"/>
<circle cx="66.07" cy="42.26" r="5.89" fill="white"/>
<circle cx="66.07" cy="42.26" r="5.89" fill="none" stroke="black" stroke-width="0.25px"/>
<circle cx="66.07" cy="54.17" r="5.89" fill="white"/>
<circle cx="66.07" cy="54.17" r="5.89" fill="none" stroke="black" stroke-width="0.25px"/>
<circle cx="66.07" cy="185.13" r="5.89" fill="white"/>
<circle cx="66.07" cy="185.13" r="5.89" fill="none" stroke="black" stroke-width="0.25px"/>
<circle cx="77.98" cy="30.35" r="6.01" fill="black"/>
<circle cx="77.98" cy="42.26" r="6.01" fill="black"/>
<circle cx="77.98" cy="66.07" r="5.89" fill="white"/>
<circle cx="77.98" cy="66.07" r="5.89" fill="none" stroke="black" stroke-width="0.25px"/>
<circle cx="89.88" cy="30.35" r="5.89" fill="white"/>
<circle cx="89.88" cy="30.35" r="5.89" fill="none" stroke="black" stroke-width="0.25px"/>
<circle cx="89.88" cy="42.26" r="6.01" fill="black"/>
<circle cx="113.69" cy="42.26" r="1.27" fill="black"/>
<circle cx="113.69" cy="113.69" r="1.27" fill="black"/>
<circle cx="113.69" cy="185.13" r="1.27" fill="black"/>
<circle cx="113.69" cy="197.03" r="5.89" fill="white"/>
<circle cx="113.69" cy="197.03" r="5.89" fill="none" stroke="black" stroke-width="0.25px"/>
<circle cx="185.13" cy="42.26" r="6.01" fill="black"/>
<circle cx="185.13" cy="113.69" r="1.27" fill="black"/>
<circle cx="185.13" cy="185.13" r="1.27" fill="black"/>
<circle cx="185.13" cy="197.03" r="6.01" fill="black"/>
<circle cx="197.03" cy="173.22" r="6.01" fill="black"/>
<path d="
M32.45 52.02
L32.45 55.23
L30.99 55.23
L32.45 52.02
Z
M28.77 50.59
C28.67 50.90 28.50 51.22 28.26 51.55
C28.02 51.87 27.74 52.15 27.42 52.38
L27.42 53.22
C27.61 53.12 27.81 52.97 28.04 52.76
C28.26 52.56 28.44 52.36 28.57 52.17
L28.57 57.74
L29.15 57.74
L29.15 50.59
Z
M32.56 50.62
L30.43 55.23
L30.43 56.04
L32.45 56.04
L32.45 57.74
L33.03 57.74
L33.03 56.04
L33.66 56.04
L33.66 55.23
L33.03 55.23
L33.03 50.62
Z
" fill="black" fill-rule="nonzero" />
<path d="
M44.08 53.83
C44.34 53.83 44.55 53.97 44.73 54.25
C44.90 54.53 44.99 54.92 44.99 55.43
C44.99 55.94 44.90 56.35 44.73 56.64
C44.55 56.94 44.35 57.08 44.12 57.08
C43.86 57.08 43.64 56.93 43.45 56.61
C43.25 56.30 43.15 55.89 43.15 55.37
C43.15 54.90 43.25 54.52 43.43 54.25
C43.62 53.97 43.83 53.83 44.08 53.83
Z
M40.68 50.53
C40.58 50.84 40.41 51.16 40.17 51.49
C39.92 51.81 39.65 52.09 39.33 52.32
L39.33 53.16
C39.52 53.06 39.72 52.91 39.94 52.70
C40.17 52.50 40.34 52.30 40.48 52.11
L40.48 57.68
L41.05 57.68
L41.05 50.53
Z
M44.17 50.53
C43.68 50.53 43.28 50.82 42.96 51.41
C42.65 51.99 42.49 52.97 42.49 54.35
C42.49 55.59 42.65 56.47 42.95 57.00
C43.26 57.54 43.65 57.80 44.12 57.80
C44.38 57.80 44.62 57.71 44.84 57.52
C45.05 57.34 45.23 57.05 45.37 56.67
C45.51 56.28 45.58 55.85 45.58 55.37
C45.58 54.67 45.44 54.11 45.16 53.69
C44.89 53.27 44.57 53.06 44.20 53.06
C43.97 53.06 43.76 53.14 43.56 53.30
C43.36 53.46 43.20 53.70 43.06 54.01
C43.07 53.13 43.15 52.47 43.33 52.02
C43.53 51.51 43.80 51.25 44.13 51.25
C44.35 51.25 44.53 51.36 44.68 51.59
C44.79 51.74 44.87 52.00 44.93 52.37
L45.50 52.30
C45.45 51.73 45.30 51.29 45.06 50.98
C44.82 50.68 44.52 50.53 44.17 50.53
Z
" fill="black" fill-rule="nonzero" />
<path d="
M40.57 74.20
L40.54 74.29
C40.45 74.59 40.29 74.90 40.05 75.21
C39.82 75.53 39.55 75.79 39.25 76.01
L39.19 76.05
L39.19 76.13
L39.19 76.97
L39.19 77.21
L39.40 77.09
C39.59 76.99 39.81 76.83 40.04 76.62
C40.15 76.52 40.25 76.42 40.33 76.32
L40.33 76.32
L40.33 81.49
L40.33 81.63
L41.19 81.63
L41.19 81.49
L41.19 74.34
L41.19 74.20
Z
M43.99 74.20
C43.59 74.20 43.24 74.37 42.96 74.71
C42.69 75.05 42.52 75.53 42.44 76.17
L42.43 76.29
L42.54 76.32
L43.12 76.48
L43.28 76.52
L43.29 76.35
C43.33 75.95 43.42 75.65 43.56 75.46
C43.68 75.28 43.83 75.20 44.00 75.20
C44.00 75.20 44.00 75.20 44.00 75.20
C44.00 75.20 44.00 75.20 44.00 75.20
C44.17 75.20 44.31 75.28 44.43 75.44
C44.56 75.62 44.62 75.86 44.62 76.16
C44.62 76.49 44.54 76.75 44.39 76.94
C44.24 77.13 44.05 77.22 43.82 77.22
L43.82 77.22
L43.74 77.21
L43.59 77.19
L43.58 77.34
L43.51 78.10
L43.49 78.33
L43.71 78.25
C43.85 78.19 43.97 78.16 44.06 78.16
C44.06 78.16 44.06 78.16 44.06 78.16
C44.06 78.16 44.06 78.16 44.06 78.16
C44.27 78.16 44.45 78.27 44.59 78.48
C44.75 78.71 44.83 79.01 44.83 79.40
C44.83 79.81 44.74 80.14 44.57 80.40
C44.41 80.63 44.22 80.75 44.01 80.75
C44.01 80.75 44.01 80.75 44.00 80.75
C44.00 80.75 44.00 80.75 44.00 80.75
C43.81 80.75 43.66 80.65 43.53 80.46
C43.39 80.25 43.30 79.92 43.24 79.47
L43.22 79.32
L43.07 79.35
L42.50 79.47
L42.37 79.49
L42.38 79.62
C42.42 80.26 42.59 80.77 42.89 81.16
C43.19 81.56 43.57 81.76 44.01 81.76
C44.49 81.76 44.90 81.53 45.23 81.08
C45.56 80.63 45.72 80.07 45.72 79.39
C45.72 79.06 45.68 78.77 45.61 78.51
C45.53 78.24 45.42 78.03 45.28 77.86
C45.20 77.75 45.09 77.67 44.97 77.60
L44.97 77.60
C45.11 77.46 45.23 77.30 45.31 77.10
C45.43 76.83 45.50 76.53 45.50 76.18
C45.49 75.62 45.35 75.15 45.07 74.78
C44.78 74.39 44.42 74.20 43.99 74.20
Z
" fill="white" fill-rule="nonzero" />
<path d="
M52.36 14.87
C51.92 14.87 51.57 15.05 51.30 15.39
C51.03 15.74 50.88 16.25 50.84 16.93
L51.43 17.03
C51.43 16.57 51.51 16.21 51.69 15.97
C51.86 15.72 52.08 15.60 52.34 15.60
C52.59 15.60 52.80 15.71 52.97 15.94
C53.14 16.17 53.22 16.46 53.22 16.83
C53.22 17.14 53.14 17.48 52.98 17.84
C52.81 18.21 52.46 18.72 51.92 19.39
C51.46 19.96 51.15 20.46 50.98 20.88
C50.80 21.30 50.72 21.68 50.73 22.02
L53.82 22.02
L53.82 21.18
L51.53 21.18
C51.59 21.03 51.67 20.87 51.77 20.71
C51.87 20.55 52.09 20.25 52.43 19.81
C52.97 19.12 53.33 18.57 53.52 18.15
C53.72 17.73 53.81 17.30 53.81 16.85
C53.81 16.33 53.69 15.88 53.44 15.48
C53.20 15.07 52.84 14.87 52.36 14.87
Z
M55.99 14.87
C55.55 14.87 55.20 15.05 54.93 15.39
C54.66 15.74 54.51 16.25 54.47 16.93
L55.06 17.03
C55.06 16.57 55.14 16.21 55.32 15.97
C55.49 15.72 55.71 15.60 55.97 15.60
C56.22 15.60 56.43 15.71 56.60 15.94
C56.77 16.17 56.85 16.46 56.85 16.83
C56.85 17.14 56.77 17.48 56.61 17.84
C56.44 18.21 56.09 18.72 55.55 19.39
C55.09 19.96 54.78 20.46 54.61 20.88
C54.43 21.30 54.35 21.68 54.36 22.02
L57.45 22.02
L57.45 21.18
L55.16 21.18
C55.22 21.03 55.30 20.87 55.40 20.71
C55.50 20.55 55.72 20.25 56.06 19.81
C56.60 19.12 56.96 18.57 57.15 18.15
C57.35 17.73 57.44 17.30 57.44 16.85
C57.44 16.33 57.32 15.88 57.07 15.48
C56.83 15.07 56.47 14.87 55.99 14.87
Z
" fill="black" fill-rule="nonzero" />
<path d="
M55.38 64.95
L55.38 64.95
L55.38 64.95
C55.38 64.95 55.38 64.95 55.38 64.95
Z
M52.48 62.29
L52.45 62.39
C52.35 62.69 52.19 62.99 51.96 63.31
C51.72 63.62 51.46 63.89 51.15 64.11
L51.09 64.15
L51.09 64.22
L51.09 65.07
L51.09 65.31
L51.30 65.19
C51.50 65.08 51.71 64.92 51.94 64.71
C52.05 64.61 52.15 64.52 52.24 64.42
L52.24 64.42
L52.24 69.59
L52.24 69.73
L53.10 69.73
L53.10 69.59
L53.10 62.43
L53.10 62.29
Z
M54.86 62.42
L54.84 62.54
L54.39 66.20
L54.37 66.33
L54.50 66.36
L55.04 66.46
L55.15 66.49
L55.20 66.38
C55.28 66.18 55.38 66.03 55.52 65.93
C55.64 65.83 55.77 65.78 55.91 65.78
C55.91 65.78 55.91 65.78 55.91 65.78
C55.92 65.78 55.92 65.78 55.92 65.78
C56.15 65.78 56.35 65.90 56.51 66.14
C56.69 66.39 56.78 66.76 56.78 67.24
C56.78 67.75 56.68 68.15 56.50 68.44
C56.33 68.71 56.14 68.85 55.92 68.85
C55.92 68.85 55.92 68.85 55.92 68.85
C55.92 68.85 55.92 68.85 55.92 68.85
C55.75 68.85 55.59 68.75 55.46 68.57
C55.31 68.37 55.21 68.06 55.17 67.63
L55.15 67.48
L55.01 67.50
L54.41 67.58
L54.28 67.60
L54.28 67.73
C54.32 68.38 54.49 68.89 54.79 69.27
C55.10 69.65 55.48 69.85 55.93 69.85
C56.47 69.85 56.90 69.58 57.21 69.03
C57.51 68.51 57.66 67.89 57.66 67.17
C57.66 66.44 57.51 65.85 57.21 65.41
C56.89 64.95 56.51 64.72 56.07 64.72
C55.83 64.72 55.60 64.80 55.38 64.95
L55.38 64.95
L55.56 63.54
L57.44 63.54
L57.44 63.40
L57.44 62.56
L57.44 62.42
Z
" fill="white" fill-rule="nonzero" />
<path d="
M52.48 74.26
L52.45 74.36
C52.35 74.65 52.19 74.96 51.96 75.27
C51.72 75.59 51.46 75.85 51.15 76.07
L51.09 76.12
L51.09 76.19
L51.09 77.03
L51.09 77.27
L51.30 77.16
C51.50 77.05 51.71 76.89 51.94 76.68
C52.05 76.58 52.15 76.48 52.24 76.39
L52.24 76.39
L52.24 81.55
L52.24 81.69
L53.10 81.69
L53.10 81.55
L53.10 74.40
L53.10 74.26
Z
M54.32 74.38
L54.32 74.52
L54.32 75.36
L54.32 75.50
L56.51 75.50
C56.26 75.97 56.02 76.52 55.80 77.15
C55.55 77.88 55.35 78.64 55.21 79.44
C55.06 80.24 54.98 80.95 54.98 81.55
L54.97 81.69
L55.71 81.69
L55.84 81.69
L55.85 81.56
C55.90 80.42 56.10 79.26 56.43 78.10
C56.77 76.94 57.16 76.00 57.61 75.28
L57.63 75.24
L57.63 75.20
L57.63 74.52
L57.63 74.38
Z
" fill="white" fill-rule="nonzero" />
<path d="
M67.86 39.34
C68.07 39.34 68.25 39.45 68.40 39.66
C68.55 39.87 68.63 40.15 68.63 40.48
C68.63 40.80 68.55 41.07 68.41 41.27
C68.26 41.47 68.08 41.58 67.87 41.58
C67.66 41.58 67.47 41.47 67.33 41.27
C67.18 41.06 67.10 40.78 67.10 40.43
C67.10 40.12 67.18 39.86 67.33 39.65
C67.48 39.45 67.66 39.34 67.86 39.34
Z
M67.85 42.29
C68.12 42.29 68.35 42.42 68.53 42.69
C68.72 42.96 68.82 43.31 68.82 43.75
C68.82 44.18 68.73 44.53 68.54 44.79
C68.36 45.05 68.13 45.18 67.87 45.18
C67.61 45.18 67.38 45.04 67.20 44.78
C67.01 44.51 66.91 44.16 66.91 43.72
C66.91 43.30 67.01 42.96 67.19 42.69
C67.37 42.42 67.59 42.29 67.85 42.29
Z
M64.49 38.62
C64.39 38.93 64.22 39.25 63.98 39.58
C63.74 39.91 63.46 40.18 63.14 40.41
L63.14 41.26
C63.33 41.15 63.53 41.00 63.75 40.80
C63.98 40.59 64.15 40.40 64.29 40.20
L64.29 45.77
L64.86 45.77
L64.86 38.62
Z
M67.86 38.62
C67.47 38.62 67.15 38.79 66.90 39.13
C66.64 39.47 66.51 39.91 66.51 40.45
C66.51 40.81 66.57 41.11 66.69 41.36
C66.81 41.60 66.98 41.78 67.21 41.91
C66.94 42.02 66.72 42.23 66.56 42.54
C66.41 42.85 66.33 43.24 66.33 43.72
C66.33 44.37 66.47 44.90 66.77 45.30
C67.06 45.70 67.43 45.90 67.87 45.90
C68.31 45.90 68.67 45.70 68.96 45.30
C69.26 44.90 69.41 44.38 69.41 43.74
C69.41 43.28 69.33 42.90 69.18 42.59
C69.03 42.28 68.81 42.05 68.53 41.91
C68.76 41.78 68.93 41.59 69.04 41.36
C69.16 41.12 69.21 40.83 69.21 40.48
C69.21 39.94 69.09 39.49 68.83 39.14
C68.57 38.80 68.25 38.62 67.86 38.62
Z
" fill="black" fill-rule="nonzero" />
<path d="
M67.83 51.25
C68.11 51.25 68.34 51.45 68.52 51.84
C68.70 52.23 68.79 53.01 68.79 54.17
C68.79 55.31 68.70 56.09 68.52 56.48
C68.35 56.88 68.13 57.08 67.87 57.08
C67.59 57.08 67.36 56.89 67.18 56.49
C67.01 56.10 66.92 55.32 66.92 54.17
C66.92 53.02 67.01 52.25 67.18 51.85
C67.36 51.45 67.57 51.25 67.83 51.25
Z
M64.27 50.53
C63.83 50.53 63.48 50.70 63.21 51.05
C62.94 51.39 62.79 51.91 62.74 52.59
L63.33 52.68
C63.33 52.22 63.42 51.87 63.59 51.62
C63.76 51.38 63.98 51.25 64.25 51.25
C64.50 51.25 64.71 51.37 64.88 51.60
C65.05 51.82 65.13 52.12 65.13 52.48
C65.13 52.80 65.05 53.14 64.88 53.50
C64.72 53.86 64.36 54.38 63.83 55.05
C63.37 55.62 63.05 56.12 62.88 56.54
C62.71 56.96 62.63 57.34 62.63 57.68
L65.72 57.68
L65.72 56.84
L63.43 56.84
C63.49 56.68 63.57 56.52 63.67 56.36
C63.77 56.20 64.00 55.91 64.34 55.47
C64.87 54.78 65.24 54.22 65.43 53.81
C65.62 53.39 65.72 52.95 65.72 52.50
C65.72 51.99 65.59 51.53 65.35 51.13
C65.10 50.73 64.74 50.53 64.27 50.53
Z
M67.86 50.53
C67.36 50.53 66.98 50.84 66.72 51.45
C66.46 52.07 66.33 52.97 66.33 54.17
C66.33 55.50 66.47 56.44 66.76 56.99
C67.04 57.53 67.41 57.80 67.85 57.80
C68.36 57.80 68.74 57.49 68.99 56.88
C69.25 56.26 69.38 55.36 69.38 54.17
C69.38 52.84 69.22 51.88 68.91 51.28
C68.66 50.78 68.30 50.53 67.86 50.53
Z
" fill="black" fill-rule="nonzero" />
<path d="
M76.17 26.64
C75.69 26.64 75.30 26.83 75.00 27.21
C74.72 27.58 74.55 28.12 74.51 28.83
L74.50 28.96
L74.63 28.98
L75.22 29.07
L75.38 29.10
L75.38 28.93
C75.38 28.50 75.46 28.17 75.61 27.95
C75.75 27.75 75.93 27.64 76.15 27.64
C76.15 27.64 76.15 27.64 76.15 27.64
C76.15 27.64 76.16 27.64 76.16 27.64
C76.36 27.64 76.53 27.74 76.67 27.93
C76.82 28.13 76.89 28.40 76.89 28.73
C76.89 29.03 76.82 29.34 76.66 29.69
C76.50 30.04 76.15 30.55 75.62 31.21
C75.16 31.79 74.83 32.30 74.66 32.73
C74.48 33.17 74.39 33.57 74.40 33.93
L74.40 34.07
L77.77 34.07
L77.77 33.93
L77.77 33.09
L77.77 32.95
L75.55 32.95
C75.60 32.86 75.65 32.78 75.70 32.69
C75.80 32.53 76.02 32.24 76.35 31.81
C76.90 31.10 77.27 30.54 77.46 30.11
C77.66 29.68 77.76 29.22 77.76 28.75
C77.76 28.21 77.63 27.73 77.38 27.31
C77.10 26.86 76.70 26.64 76.17 26.64
Z
M79.92 26.64
L79.89 26.74
C79.80 27.03 79.63 27.34 79.40 27.65
C79.17 27.97 78.90 28.23 78.59 28.45
L78.53 28.49
L78.53 28.57
L78.53 29.41
L78.53 29.65
L78.74 29.54
C78.94 29.43 79.15 29.27 79.39 29.06
C79.49 28.96 79.59 28.86 79.68 28.76
L79.68 28.76
L79.68 33.93
L79.68 34.07
L80.54 34.07
L80.54 33.93
L80.54 26.78
L80.54 26.64
Z
" fill="white" fill-rule="nonzero" />
<path d="
M79.77 39.49
C79.77 39.49 79.77 39.49 79.78 39.49
C79.78 39.49 79.78 39.49 79.78 39.49
C79.96 39.49 80.13 39.61 80.28 39.86
C80.45 40.13 80.53 40.50 80.53 40.98
C80.53 41.47 80.45 41.84 80.29 42.09
C80.14 42.33 79.97 42.45 79.77 42.45
C79.77 42.45 79.77 42.45 79.76 42.45
C79.76 42.45 79.76 42.45 79.76 42.45
C79.56 42.45 79.38 42.33 79.22 42.09
C79.05 41.84 78.97 41.50 78.97 41.06
C78.97 40.57 79.06 40.18 79.24 39.89
C79.40 39.62 79.58 39.49 79.77 39.49
Z
M76.29 38.48
L76.26 38.58
C76.17 38.88 76.00 39.18 75.77 39.50
C75.54 39.81 75.27 40.08 74.96 40.30
L74.90 40.34
L74.90 40.41
L74.90 41.26
L74.90 41.50
L75.11 41.38
C75.31 41.27 75.52 41.11 75.75 40.90
C75.86 40.80 75.96 40.71 76.05 40.61
L76.05 40.61
L76.05 45.77
L76.05 45.92
L76.91 45.92
L76.91 45.77
L76.91 38.62
L76.91 38.48
Z
M79.71 38.48
C79.25 38.48 78.86 38.72 78.55 39.19
C78.25 39.64 78.09 40.25 78.09 41.03
C78.09 41.78 78.24 42.37 78.53 42.81
C78.84 43.27 79.20 43.50 79.64 43.50
C79.88 43.50 80.12 43.41 80.34 43.22
C80.43 43.14 80.51 43.06 80.59 42.97
L80.59 42.97
C80.57 43.36 80.52 43.71 80.44 44.02
C80.33 44.42 80.21 44.69 80.07 44.83
C79.94 44.97 79.80 45.04 79.65 45.04
C79.65 45.04 79.65 45.04 79.65 45.04
C79.65 45.04 79.65 45.04 79.65 45.04
C79.48 45.04 79.35 44.96 79.25 44.81
C79.13 44.65 79.06 44.39 79.01 44.03
L79.00 43.89
L78.85 43.91
L78.30 43.99
L78.17 44.01
L78.18 44.14
C78.23 44.74 78.38 45.20 78.64 45.53
C78.91 45.87 79.24 46.04 79.64 46.04
C79.99 46.04 80.31 45.90 80.59 45.62
C80.86 45.36 81.07 44.94 81.23 44.37
C81.38 43.82 81.45 43.05 81.45 42.06
C81.45 41.17 81.38 40.48 81.24 40.00
C81.10 39.51 80.89 39.14 80.62 38.88
C80.34 38.61 80.04 38.48 79.71 38.48
Z
" fill="white" fill-rule="nonzero" />
<path d="
M80.07 63.93
L80.07 67.14
L78.61 67.14
L80.07 63.93
Z
M76.17 62.49
C75.73 62.49 75.38 62.67 75.11 63.01
C74.85 63.36 74.69 63.87 74.65 64.55
L75.24 64.65
C75.24 64.19 75.33 63.83 75.50 63.59
C75.67 63.34 75.89 63.22 76.15 63.22
C76.40 63.22 76.61 63.33 76.78 63.56
C76.95 63.79 77.04 64.09 77.04 64.45
C77.04 64.76 76.95 65.10 76.79 65.47
C76.62 65.83 76.27 66.35 75.73 67.01
C75.27 67.59 74.96 68.08 74.79 68.50
C74.61 68.93 74.53 69.31 74.54 69.65
L77.63 69.65
L77.63 68.81
L75.34 68.81
C75.40 68.65 75.48 68.49 75.58 68.33
C75.68 68.17 75.90 67.87 76.24 67.44
C76.78 66.74 77.14 66.19 77.33 65.77
C77.53 65.36 77.62 64.92 77.62 64.47
C77.62 63.96 77.50 63.50 77.26 63.10
C77.01 62.70 76.65 62.49 76.17 62.49
Z
M80.18 62.52
L78.05 67.14
L78.05 67.94
L80.07 67.94
L80.07 69.65
L80.65 69.65
L80.65 67.94
L81.28 67.94
L81.28 67.14
L80.65 67.14
L80.65 62.52
Z
" fill="black" fill-rule="nonzero" />
<path d="
M88.08 38.48
C87.59 38.48 87.20 38.67 86.91 39.05
C86.62 39.42 86.46 39.96 86.41 40.67
L86.41 40.80
L86.53 40.82
L87.12 40.91
L87.29 40.94
L87.29 40.77
C87.29 40.34 87.36 40.02 87.52 39.79
C87.66 39.59 87.84 39.49 88.05 39.49
C88.06 39.49 88.06 39.49 88.06 39.49
C88.06 39.49 88.06 39.49 88.06 39.49
C88.26 39.49 88.43 39.58 88.57 39.77
C88.72 39.97 88.80 40.24 88.80 40.57
C88.80 40.87 88.72 41.19 88.56 41.53
C88.40 41.89 88.06 42.39 87.53 43.05
C87.06 43.63 86.74 44.14 86.56 44.58
C86.38 45.02 86.30 45.42 86.30 45.78
L86.31 45.91
L89.68 45.91
L89.68 45.77
L89.68 44.93
L89.68 44.79
L87.46 44.79
C87.50 44.70 87.55 44.62 87.61 44.53
C87.70 44.38 87.92 44.08 88.26 43.65
C88.80 42.95 89.17 42.38 89.37 41.96
C89.57 41.52 89.67 41.07 89.67 40.59
C89.67 40.05 89.54 39.57 89.28 39.15
C89.01 38.70 88.61 38.48 88.08 38.48
Z
M91.62 38.48
C91.21 38.48 90.87 38.65 90.58 39.00
C90.31 39.33 90.14 39.81 90.06 40.45
L90.05 40.57
L90.17 40.60
L90.74 40.76
L90.90 40.80
L90.92 40.64
C90.96 40.23 91.04 39.93 91.18 39.74
C91.30 39.57 91.45 39.48 91.62 39.48
C91.62 39.48 91.62 39.48 91.62 39.48
C91.62 39.48 91.62 39.48 91.63 39.48
C91.79 39.48 91.93 39.56 92.05 39.73
C92.18 39.90 92.24 40.14 92.24 40.45
C92.24 40.78 92.17 41.04 92.01 41.23
C91.86 41.41 91.67 41.50 91.44 41.50
L91.44 41.50
L91.36 41.49
L91.21 41.48
L91.20 41.62
L91.14 42.39
L91.12 42.62
L91.33 42.53
C91.47 42.47 91.59 42.45 91.68 42.45
C91.68 42.45 91.68 42.45 91.68 42.45
C91.68 42.45 91.68 42.45 91.68 42.45
C91.89 42.45 92.07 42.55 92.21 42.76
C92.37 42.99 92.45 43.30 92.45 43.68
C92.45 44.09 92.37 44.43 92.19 44.68
C92.03 44.91 91.84 45.03 91.63 45.03
C91.63 45.03 91.63 45.03 91.63 45.03
C91.63 45.03 91.62 45.03 91.62 45.03
C91.43 45.03 91.28 44.94 91.16 44.75
C91.02 44.53 90.92 44.20 90.86 43.76
L90.84 43.61
L90.69 43.64
L90.12 43.75
L90.00 43.78
L90.00 43.90
C90.05 44.54 90.21 45.05 90.51 45.44
C90.81 45.84 91.19 46.04 91.63 46.04
C92.11 46.04 92.52 45.81 92.86 45.36
C93.18 44.92 93.35 44.35 93.35 43.67
C93.35 43.35 93.31 43.05 93.23 42.79
C93.15 42.52 93.04 42.31 92.91 42.15
C92.82 42.04 92.71 41.95 92.60 41.88
L92.60 41.88
C92.73 41.74 92.85 41.58 92.94 41.39
C93.06 41.12 93.12 40.81 93.12 40.47
C93.12 39.90 92.98 39.44 92.69 39.06
C92.40 38.67 92.04 38.48 91.62 38.48
Z
" fill="white" fill-rule="nonzero" />
</g>
<g  transform="translate(1.19,228.58)" >
<path d="
M106.49 2.72
C106.33 2.72 106.19 2.78 106.07 2.89
C105.96 3.01 105.90 3.15 105.90 3.31
C105.90 3.47 105.96 3.61 106.07 3.73
C106.19 3.84 106.33 3.90 106.49 3.90
C106.66 3.90 106.79 3.84 106.91 3.73
C107.02 3.61 107.08 3.47 107.08 3.31
C107.08 3.15 107.02 3.01 106.91 2.89
C106.79 2.78 106.66 2.72 106.49 2.72
Z
M111.46 7.81
L111.46 9.84
C110.98 10.23 110.60 10.42 110.30 10.42
C110.08 10.42 109.89 10.33 109.73 10.15
C109.56 9.96 109.48 9.73 109.48 9.45
C109.48 9.23 109.54 9.03 109.67 8.84
C109.80 8.66 110.02 8.48 110.33 8.31
C110.50 8.21 110.88 8.05 111.46 7.81
Z
M99.81 3.55
C100.74 3.55 101.51 3.86 102.10 4.49
C102.69 5.12 102.99 5.98 102.99 7.06
C102.99 8.15 102.69 9.00 102.10 9.63
C101.51 10.27 100.76 10.58 99.86 10.58
C99.53 10.58 99.11 10.53 98.62 10.42
L98.62 3.72
C99.07 3.60 99.46 3.55 99.81 3.55
Z
M96.37 3.11
L96.37 3.32
L96.67 3.32
C96.97 3.32 97.19 3.41 97.34 3.58
C97.45 3.70 97.51 4.01 97.51 4.50
L97.51 9.59
C97.51 10.04 97.46 10.33 97.38 10.45
C97.24 10.67 97.00 10.77 96.67 10.77
L96.37 10.77
L96.37 10.99
L99.89 10.99
C101.43 10.99 102.57 10.58 103.31 9.76
C103.98 9.02 104.31 8.10 104.31 7.01
C104.31 6.19 104.13 5.47 103.75 4.84
C103.38 4.22 102.88 3.77 102.27 3.51
C101.66 3.24 100.76 3.11 99.58 3.11
Z
M106.72 5.51
L105.12 6.16
L105.20 6.37
C105.35 6.31 105.48 6.28 105.59 6.28
C105.69 6.28 105.77 6.30 105.83 6.35
C105.89 6.40 105.93 6.49 105.96 6.61
C105.99 6.78 106.01 7.16 106.01 7.73
L106.01 9.79
C106.01 10.11 105.98 10.34 105.93 10.45
C105.88 10.57 105.81 10.65 105.72 10.70
C105.63 10.75 105.46 10.78 105.20 10.78
L105.20 10.99
L107.78 10.99
L107.78 10.78
C107.53 10.78 107.36 10.75 107.26 10.70
C107.17 10.64 107.10 10.56 107.05 10.45
C107.00 10.34 106.98 10.12 106.98 9.79
L106.98 5.51
Z
M122.62 2.94
L120.71 3.88
L120.79 4.06
C121.05 3.94 121.25 3.88 121.39 3.88
C121.49 3.88 121.58 3.91 121.65 3.97
C121.72 4.02 121.77 4.12 121.80 4.24
C121.84 4.40 121.86 4.77 121.86 5.34
L121.86 9.60
C121.86 10.07 121.84 10.36 121.79 10.45
C121.75 10.55 121.68 10.62 121.57 10.68
C121.46 10.73 121.22 10.77 120.85 10.77
L120.85 10.99
L123.81 10.99
L123.81 10.77
C123.45 10.77 123.22 10.73 123.10 10.67
C122.99 10.62 122.91 10.53 122.87 10.42
C122.83 10.32 122.82 10.04 122.82 9.60
L122.82 2.94
Z
M128.58 2.94
L126.66 3.88
L126.75 4.06
C127.00 3.94 127.20 3.88 127.35 3.88
C127.45 3.88 127.53 3.91 127.60 3.97
C127.68 4.02 127.72 4.12 127.75 4.24
C127.79 4.40 127.81 4.77 127.81 5.34
L127.81 9.60
C127.81 10.07 127.79 10.36 127.75 10.45
C127.70 10.55 127.63 10.62 127.52 10.68
C127.41 10.73 127.17 10.77 126.80 10.77
L126.80 10.99
L129.76 10.99
L129.76 10.77
C129.41 10.77 129.17 10.73 129.05 10.67
C128.94 10.62 128.86 10.53 128.82 10.42
C128.79 10.32 128.77 10.04 128.77 9.60
L128.77 2.94
Z
M110.65 5.51
C110.03 5.51 109.55 5.65 109.21 5.93
C108.87 6.20 108.70 6.51 108.70 6.84
C108.70 7.02 108.75 7.16 108.84 7.26
C108.93 7.36 109.05 7.41 109.19 7.41
C109.34 7.41 109.46 7.36 109.55 7.26
C109.64 7.17 109.68 7.03 109.68 6.85
L109.67 6.51
C109.67 6.34 109.75 6.19 109.89 6.06
C110.04 5.93 110.23 5.86 110.48 5.86
C110.80 5.86 111.04 5.96 111.21 6.16
C111.38 6.36 111.46 6.72 111.46 7.25
L111.46 7.46
C110.55 7.79 109.89 8.08 109.50 8.31
C109.11 8.54 108.83 8.79 108.67 9.05
C108.56 9.24 108.50 9.47 108.50 9.73
C108.50 10.14 108.62 10.47 108.86 10.72
C109.09 10.97 109.40 11.10 109.77 11.10
C110.00 11.10 110.23 11.05 110.43 10.95
C110.57 10.89 110.92 10.64 111.46 10.22
C111.47 10.54 111.53 10.76 111.64 10.90
C111.75 11.03 111.90 11.09 112.09 11.09
C112.49 11.09 112.90 10.80 113.34 10.22
L113.34 9.90
C113.10 10.13 112.95 10.27 112.86 10.32
C112.82 10.35 112.76 10.36 112.70 10.36
C112.64 10.36 112.59 10.34 112.55 10.30
C112.50 10.26 112.47 10.19 112.45 10.07
C112.43 9.96 112.42 9.65 112.42 9.14
L112.42 7.33
C112.42 6.82 112.39 6.48 112.32 6.31
C112.21 6.05 112.04 5.87 111.81 5.75
C111.51 5.59 111.12 5.51 110.65 5.51
Z
M114.85 9.86
C114.67 9.86 114.52 9.92 114.39 10.05
C114.26 10.17 114.20 10.32 114.20 10.51
C114.20 10.68 114.26 10.84 114.39 10.96
C114.52 11.09 114.67 11.15 114.85 11.15
C115.02 11.15 115.18 11.09 115.30 10.96
C115.43 10.84 115.49 10.68 115.49 10.51
C115.49 10.33 115.43 10.18 115.31 10.05
C115.18 9.92 115.03 9.86 114.85 9.86
Z
" fill="black" fill-rule="nonzero" />
</g>
</g>
</svg>
