<?xml version="1.0" encoding="utf-8" standalone="no"?>
<!DOCTYPE svg PUBLIC "-//W3C//DTD SVG 1.0//EN" "http://www.w3.org/TR/SVG/DTD/svg11.dtd" >
<svg version="1.1" baseProfile="full"  width="319.13385" height="338.51422" viewBox="0 0 229.77638 243.73024" preserveAspectRatio="xMidYMid" xmlns="http://www.w3.org/2000/svg" >

<g lengthAdjust="spacingAndGlyphs" xml:space='preserve' >
<g  transform="translate(1.19,1.19)" >
<path d="
M0.0 0.0
L0.0 227.39
L227.39 227.39
L227.39 0.0
Z
" fill="none" fill-rule="nonzero" />
<line x1="6.54" y1="6.54" x2="6.54" y2="220.84" fill="none" stroke="black" stroke-width="0.87px" stroke-linecap="square" />
<line x1="18.45" y1="6.54" x2="18.45" y2="220.84" fill="none" stroke="black" stroke-width="0.25px" stroke-linecap="butt" />
<line x1="30.35" y1="6.54" x2="30.35" y2="95.83" fill="none" stroke="black" stroke-width="0.25px" stroke-linecap="butt" />
<line x1="30.35" y1="107.74" x2="30.35" y2="220.84" fill="none" stroke="black" stroke-width="0.25px" stroke-linecap="butt" />
<line x1="42.26" y1="6.54" x2="42.26" y2="72.02" fill="none" stroke="black" stroke-width="0.25px" stroke-linecap="butt" />
<line x1="42.26" y1="83.93" x2="42.26" y2="220.84" fill="none" stroke="black" stroke-width="0.25px" stroke-linecap="butt" />
<line x1="54.17" y1="6.54" x2="54.17" y2="220.84" fill="none" stroke="black" stroke-width="0.25px" stroke-linecap="butt" />
<line x1="66.07" y1="6.54" x2="66.07" y2="220.84" fill="none" stroke="black" stroke-width="0.25px" stroke-linecap="butt" />
<line x1="77.98" y1="6.54" x2="77.98" y2="36.31" fill="none" stroke="black" stroke-width="0.25px" stroke-linecap="butt" />
<line x1="77.98" y1="48.21" x2="77.98" y2="220.84" fill="none" stroke="black" stroke-width="0.25px" stroke-linecap="butt" />
<line x1="89.88" y1="6.54" x2="89.88" y2="220.84" fill="none" stroke="black" stroke-width="0.25px" stroke-linecap="butt" />
<line x1="101.79" y1="6.54" x2="101.79" y2="220.84" fill="none" stroke="black" stroke-width="0.25px" stroke-linecap="butt" />
<line x1="113.69" y1="6.54" x2="113.69" y2="220.84" fill="none" stroke="black" stroke-width="0.25px" stroke-linecap="butt" />
<line x1="125.60" y1="6.54" x2="125.60" y2="220.84" fill="none" stroke="black" stroke-width="0.25px" stroke-linecap="butt" />
<line x1="137.50" y1="6.54" x2="137.50" y2="220.84" fill="none" stroke="black" stroke-width="0.25px" stroke-linecap="butt" />
<line x1="149.41" y1="6.54" x2="149.41" y2="220.84" fill="none" stroke="black" stroke-width="0.25px" stroke-linecap="butt" />
<line x1="161.31" y1="6.54" x2="161.31" y2="220.84" fill="none" stroke="black" stroke-width="0.25px" stroke-linecap="butt" />
<line x1="173.22" y1="6.54" x2="173.22" y2="220.84" fill="none" stroke="black" stroke-width="0.25px" stroke-linecap="butt" />
<line x1="185.13" y1="6.54" x2="185.13" y2="220.84" fill="none" stroke="black" stroke-width="0.25px" stroke-linecap="butt" />
<line x1="197.03" y1="6.54" x2="197.03" y2="220.84" fill="none" stroke="black" stroke-width="0.25px" stroke-linecap="butt" />
<line x1="208.94" y1="6.54" x2="208.94" y2="220.84" fill="none" stroke="black" stroke-width="0.25px" stroke-linecap="butt" />
<line x1="220.84" y1="6.54" x2="220.84" y2="220.84" fill="none" stroke="black" stroke-width="0.87px" stroke-linecap="square" />
<line x1="6.54" y1="6.54" x2="220.84" y2="6.54" fill="none" stroke="black" stroke-width="0.87px" stroke-linecap="square" />
<line x1="6.54" y1="18.45" x2="220.84" y2="18.45" fill="none" stroke="black" stroke-width="0.25px" stroke-linecap="butt" />
<line x1="6.54" y1="30.35" x2="220.84" y2="30.35" fill="none" stroke="black" stroke-width="0.25px" stroke-linecap="butt" />
<line x1="6.54" y1="42.26" x2="72.02" y2="42.26" fill="none" stroke="black" stroke-width="0.25px" stroke-linecap="butt" />
<line x1="83.93" y1="42.26" x2="220.84" y2="42.26" fill="none" stroke="black" stroke-width="0.25px" stroke-linecap="butt" />
<line x1="6.54" y1="54.17" x2="220.84" y2="54.17" fill="none" stroke="black" stroke-width="0.25px" stroke-linecap="butt" />
<line x1="6.54" y1="66.07" x2="220.84" y2="66.07" fill="none" stroke="black" stroke-width="0.25px" stroke-linecap="butt" />
<line x1="6.54" y1="77.98" x2="36.31" y2="77.98" fill="none" stroke="black" stroke-width="0.25px" stroke-linecap="butt" />
<line x1="48.21" y1="77.98" x2="220.84" y2="77.98" fill="none" stroke="black" stroke-width="0.25px" stroke-linecap="butt" />
<line x1="6.54" y1="89.88" x2="220.84" y2="89.88" fill="none" stroke="black" stroke-width="0.25px" stroke-linecap="butt" />
<line x1="6.54" y1="101.79" x2="24.40" y2="101.79" fill="none" stroke="black" stroke-width="0.25px" stroke-linecap="butt" />
<line x1="36.31" y1="101.79" x2="220.84" y2="101.79" fill="none" stroke="black" stroke-width="0.25px" stroke-linecap="butt" />
<line x1="6.54" y1="113.69" x2="220.84" y2="113.69" fill="none" stroke="black" stroke-width="0.25px" stroke-linecap="butt" />
<line x1="6.54" y1="125.60" x2="220.84" y2="125.60" fill="none" stroke="black" stroke-width="0.25px" stroke-linecap="butt" />
<line x1="6.54" y1="137.50" x2="220.84" y2="137.50" fill="none" stroke="black" stroke-width="0.25px" stroke-linecap="butt" />
<line x1="6.54" y1="149.41" x2="220.84" y2="149.41" fill="none" stroke="black" stroke-width="0.25px" stroke-linecap="butt" />
<line x1="6.54" y1="161.31" x2="220.84" y2="161.31" fill="none" stroke="black" stroke-width="0.25px" stroke-linecap="butt" />
<line x1="6.54" y1="173.22" x2="220.84" y2="173.22" fill="none" stroke="black" stroke-width="0.25px" stroke-linecap="butt" />
<line x1="6.54" y1="185.13" x2="220.84" y2="185.13" fill="none" stroke="black" stroke-width="0.25px" stroke-linecap="butt" />
<line x1="6.54" y1="197.03" x2="220.84" y2="197.03" fill="none" stroke="black" stroke-width="0.25px" stroke-linecap="butt" />
<line x1="6.54" y1="208.94" x2="220.84" y2="208.94" fill="none" stroke="black" stroke-width="0.25px" stroke-linecap="butt" />
<line x1="6.54" y1="220.84" x2="220.84" y2="220.84" fill="none" stroke="black" stroke-width="0.87px" stroke-linecap="square" />
<circle cx="18.45" cy="30.35" r="6.01" fill="black"/>
<circle cx="18.45" cy="42.26" r="5.89" fill="white"/>
<circle cx="18.45" cy="42.26" r="5.89" fill="none" stroke="black" stroke-width="0.25px"/>
<circle cx="30.35" cy="30.35" r="6.01" fill="black"/>
<circle cx="30.35" cy="42.26" r="5.89" fill="white"/>
<circle cx="30.35" cy="42.26" r="5.89" fill="none" stroke="black" stroke-width="0.25px"/>
<circle cx="30.35" cy="66.07" r="6.01" fill="black"/>
<circle cx="42.26" cy="30.35" r="6.01" fill="black"/>
<circle cx="42.26" cy="42.26" r="5.89" fill="white"/>
<circle cx="42.26" cy="42.26" r="5.89" fill="none" stroke="black" stroke-width="0.25px"/>
<circle cx="42.26" cy="113.69" r="1.27" fill="black"/>
<circle cx="42.26" cy="185.13" r="1.27" fill="black"/>
<circle cx="54.17" cy="42.26" r="5.89" fill="white"/>
<circle cx="54.17" cy="42.26" r="5.89" fill="none" stroke="black" stroke-width="0.25px"/>
<circle cx="66.07" cy="18.45" r="6.01" fill="black"/>
<circle cx="66.07" cy="30.35" r="6.01" fill="black"/>
<circle cx="66.07" cy="42.26" r="5.89" fill="white"/>
<circle cx="66.07" cy="42.26" r="5.89" fill="none" stroke="black" stroke-width="0.25px"/>
<circle cx="89.88" cy="30.35" r="5.89" fill="white"/>
<circle cx="89.88" cy="30.35" r="5.89" fill="none" stroke="black" stroke-width="0.25px"/>
<circle cx="113.69" cy="42.26" r="1.27" fill="black"/>
<circle cx="113.69" cy="113.69" r="1.27" fill="black"/>
<circle cx="113.69" cy="185.13" r="1.27" fill="black"/>
<circle cx="185.13" cy="42.26" r="1.27" fill="black"/>
<circle cx="185.13" cy="113.69" r="1.27" fill="black"/>
<circle cx="185.13" cy="185.13" r="1.27" fill="black"/>
<path d="
M20.24 27.58
C20.25 27.58 20.25 27.58 20.25 27.58
C20.25 27.58 20.25 27.58 20.25 27.58
C20.43 27.58 20.60 27.71 20.75 27.95
C20.92 28.22 21.00 28.60 21.00 29.08
C21.00 29.56 20.92 29.93 20.76 30.19
C20.62 30.42 20.44 30.54 20.24 30.54
C20.24 30.54 20.24 30.54 20.24 30.54
C20.24 30.54 20.23 30.54 20.23 30.54
C20.03 30.54 19.85 30.42 19.69 30.19
C19.53 29.94 19.44 29.59 19.44 29.15
C19.44 28.66 19.53 28.27 19.71 27.98
C19.87 27.72 20.05 27.58 20.24 27.58
Z
M16.76 26.58
L16.73 26.67
C16.64 26.97 16.47 27.28 16.24 27.59
C16.01 27.91 15.74 28.17 15.44 28.39
L15.38 28.43
L15.38 28.51
L15.38 29.35
L15.38 29.59
L15.38 29.59
L15.59 29.47
C15.78 29.37 16.00 29.21 16.23 29.00
C16.34 28.90 16.43 28.80 16.52 28.70
L16.52 28.70
L16.52 33.87
L16.52 34.01
L17.38 34.01
L17.38 33.87
L17.38 26.72
L17.38 26.58
Z
M20.18 26.58
C19.72 26.58 19.34 26.81 19.02 27.28
C18.72 27.74 18.57 28.35 18.57 29.12
C18.57 29.87 18.71 30.47 19.00 30.91
C19.31 31.37 19.68 31.59 20.11 31.60
C20.35 31.60 20.59 31.50 20.82 31.31
C20.90 31.24 20.98 31.15 21.06 31.06
L21.06 31.06
C21.04 31.45 20.99 31.81 20.91 32.12
C20.81 32.51 20.68 32.78 20.54 32.93
C20.42 33.06 20.28 33.13 20.13 33.13
C20.13 33.13 20.12 33.13 20.12 33.13
C20.12 33.13 20.12 33.13 20.12 33.13
C19.96 33.13 19.82 33.06 19.72 32.91
C19.61 32.74 19.53 32.48 19.49 32.13
L19.47 31.98
L19.33 32.00
L18.77 32.08
L18.64 32.10
L18.65 32.23
C18.70 32.84 18.85 33.30 19.11 33.62
C19.38 33.96 19.71 34.13 20.11 34.13
C20.46 34.13 20.78 33.99 21.06 33.72
C21.33 33.45 21.54 33.03 21.70 32.47
C21.85 31.92 21.93 31.14 21.93 30.15
C21.93 29.26 21.85 28.58 21.71 28.10
C21.57 27.61 21.36 27.23 21.09 26.97
C20.81 26.71 20.51 26.58 20.18 26.58
Z
" fill="white" fill-rule="nonzero" />
<path d="
M20.24 39.34
C20.45 39.34 20.63 39.45 20.78 39.66
C20.93 39.87 21.01 40.15 21.01 40.48
C21.01 40.80 20.93 41.07 20.78 41.27
C20.64 41.47 20.46 41.58 20.25 41.58
C20.03 41.58 19.85 41.47 19.70 41.27
C19.56 41.06 19.48 40.78 19.48 40.43
C19.48 40.12 19.56 39.86 19.71 39.65
C19.85 39.45 20.03 39.34 20.24 39.34
Z
M20.23 42.29
C20.50 42.29 20.72 42.42 20.91 42.69
C21.10 42.96 21.20 43.31 21.20 43.75
C21.20 44.18 21.10 44.53 20.92 44.79
C20.74 45.05 20.51 45.18 20.25 45.18
C19.99 45.18 19.76 45.04 19.57 44.78
C19.39 44.51 19.29 44.16 19.29 43.72
C19.29 43.30 19.38 42.96 19.57 42.69
C19.75 42.42 19.97 42.29 20.23 42.29
Z
M16.87 38.62
C16.77 38.93 16.60 39.25 16.36 39.58
C16.11 39.91 15.83 40.18 15.52 40.41
L15.52 41.26
C15.70 41.15 15.91 41.00 16.13 40.80
C16.35 40.59 16.53 40.40 16.66 40.20
L16.66 45.77
L17.24 45.77
L17.24 38.62
Z
M20.24 38.62
C19.85 38.62 19.53 38.79 19.27 39.13
C19.02 39.47 18.89 39.91 18.89 40.45
C18.89 40.81 18.95 41.11 19.07 41.36
C19.19 41.60 19.36 41.78 19.59 41.91
C19.31 42.02 19.10 42.23 18.94 42.54
C18.78 42.85 18.71 43.24 18.71 43.72
C18.71 44.37 18.85 44.90 19.15 45.30
C19.44 45.70 19.81 45.90 20.25 45.90
C20.68 45.90 21.05 45.70 21.34 45.30
C21.64 44.90 21.78 44.38 21.78 43.74
C21.78 43.28 21.71 42.90 21.56 42.59
C21.40 42.28 21.19 42.05 20.90 41.91
C21.14 41.78 21.31 41.59 21.42 41.36
C21.54 41.12 21.59 40.83 21.59 40.48
C21.59 39.94 21.46 39.49 21.21 39.14
C20.95 38.80 20.63 38.62 20.24 38.62
Z
" fill="black" fill-rule="nonzero" />
<path d="
M28.67 26.57
L28.64 26.67
C28.54 26.97 28.38 27.27 28.15 27.59
C27.91 27.90 27.65 28.17 27.34 28.39
L27.28 28.43
L27.28 28.50
L27.28 29.35
L27.28 29.59
L27.49 29.47
C27.69 29.36 27.90 29.20 28.13 28.99
C28.24 28.90 28.34 28.80 28.43 28.70
L28.43 28.70
L28.43 33.87
L28.43 34.01
L29.29 34.01
L29.29 33.87
L29.29 26.72
L29.29 26.57
Z
M32.09 26.57
C31.68 26.57 31.34 26.75 31.06 27.09
C30.79 27.42 30.61 27.91 30.54 28.54
L30.52 28.67
L30.64 28.70
L31.21 28.85
L31.37 28.90
L31.39 28.73
C31.43 28.32 31.52 28.03 31.65 27.83
C31.77 27.66 31.92 27.58 32.09 27.58
C32.09 27.58 32.09 27.58 32.10 27.58
C32.10 27.58 32.10 27.58 32.10 27.58
C32.26 27.58 32.40 27.66 32.52 27.82
C32.65 28.00 32.72 28.24 32.72 28.54
C32.72 28.87 32.64 29.13 32.48 29.32
C32.34 29.50 32.15 29.59 31.91 29.60
L31.91 29.60
L31.83 29.59
L31.69 29.57
L31.67 29.72
L31.61 30.48
L31.59 30.71
L31.59 30.71
L31.80 30.63
C31.95 30.57 32.06 30.54 32.15 30.54
C32.15 30.54 32.15 30.54 32.15 30.54
C32.15 30.54 32.16 30.54 32.16 30.54
C32.36 30.54 32.54 30.65 32.69 30.86
C32.85 31.09 32.93 31.39 32.93 31.78
C32.93 32.19 32.84 32.52 32.66 32.77
C32.50 33.01 32.31 33.13 32.10 33.13
C32.10 33.13 32.10 33.13 32.10 33.13
C32.10 33.13 32.10 33.13 32.10 33.13
C31.91 33.13 31.75 33.03 31.63 32.84
C31.49 32.63 31.39 32.30 31.33 31.85
L31.31 31.70
L31.17 31.73
L30.59 31.85
L30.47 31.87
L30.48 32.00
C30.52 32.64 30.69 33.15 30.98 33.53
C31.29 33.93 31.66 34.13 32.11 34.13
C32.58 34.13 32.99 33.91 33.33 33.45
C33.66 33.01 33.82 32.45 33.82 31.76
C33.82 31.44 33.78 31.15 33.70 30.89
C33.62 30.62 33.51 30.40 33.38 30.24
C33.29 30.13 33.19 30.04 33.07 29.97
L33.07 29.97
C33.21 29.84 33.32 29.67 33.41 29.48
C33.53 29.21 33.59 28.91 33.59 28.56
C33.59 28.00 33.45 27.53 33.16 27.15
C32.87 26.77 32.51 26.57 32.09 26.57
Z
" fill="white" fill-rule="nonzero" />
<path d="
M32.45 40.12
L32.45 43.33
L30.99 43.33
L32.45 40.12
Z
M28.77 38.68
C28.67 38.99 28.50 39.31 28.26 39.64
C28.02 39.97 27.74 40.24 27.42 40.47
L27.42 41.32
C27.61 41.21 27.81 41.06 28.04 40.86
C28.26 40.66 28.44 40.46 28.57 40.26
L28.57 45.84
L29.15 45.84
L29.15 38.68
Z
M32.56 38.71
L30.43 43.33
L30.43 44.13
L32.45 44.13
L32.45 45.84
L33.03 45.84
L33.03 44.13
L33.66 44.13
L33.66 43.33
L33.03 43.33
L33.03 38.71
Z
" fill="black" fill-rule="nonzero" />
<path d="
M29.71 99.23
C30.44 99.23 30.88 99.24 31.03 99.25
C31.29 99.29 31.48 99.38 31.61 99.52
C31.75 99.67 31.81 99.87 31.81 100.10
C31.81 100.35 31.74 100.55 31.58 100.70
C31.43 100.85 31.22 100.94 30.96 100.98
C30.81 100.99 30.44 101.00 29.83 101.00
L28.82 101.00
L28.82 99.23
Z
M30.07 102.28
C30.77 102.28 31.23 102.32 31.44 102.39
C31.65 102.46 31.81 102.58 31.93 102.74
C32.04 102.90 32.09 103.10 32.09 103.33
C32.09 103.60 32.02 103.81 31.88 103.98
C31.73 104.14 31.54 104.24 31.31 104.28
C31.16 104.31 30.81 104.33 30.25 104.33
L28.82 104.33
L28.82 102.28
Z
M27.27 97.95
L27.27 105.62
L29.88 105.62
C30.87 105.62 31.49 105.60 31.75 105.57
C32.16 105.52 32.51 105.40 32.79 105.21
C33.07 105.01 33.29 104.75 33.45 104.42
C33.61 104.09 33.69 103.75 33.69 103.40
C33.69 102.96 33.57 102.57 33.32 102.24
C33.07 101.91 32.71 101.68 32.24 101.55
C32.57 101.40 32.83 101.17 33.03 100.87
C33.22 100.57 33.32 100.24 33.32 99.88
C33.32 99.55 33.24 99.25 33.08 98.99
C32.93 98.72 32.73 98.50 32.49 98.34
C32.26 98.18 31.99 98.08 31.69 98.03
C31.40 97.98 30.94 97.95 30.34 97.95
Z
" fill="black" fill-rule="nonzero" />
<path d="
M43.47 29.24
L43.47 29.24
L43.47 29.24
C43.47 29.24 43.47 29.24 43.47 29.24
Z
M40.57 26.58
L40.54 26.67
C40.45 26.97 40.29 27.28 40.05 27.59
C39.82 27.91 39.55 28.17 39.25 28.39
L39.19 28.43
L39.19 28.51
L39.19 29.35
L39.19 29.59
L39.19 29.59
L39.40 29.47
C39.59 29.37 39.81 29.21 40.04 29.00
C40.15 28.90 40.25 28.80 40.33 28.70
L40.33 28.70
L40.33 33.87
L40.33 34.01
L41.19 34.01
L41.19 33.87
L41.19 26.72
L41.19 26.58
Z
M42.95 26.70
L42.94 26.83
L42.48 30.48
L42.46 30.62
L42.59 30.64
L43.13 30.75
L43.25 30.77
L43.29 30.66
C43.37 30.47 43.48 30.32 43.61 30.21
C43.73 30.11 43.87 30.06 44.01 30.06
C44.01 30.06 44.01 30.06 44.01 30.06
C44.01 30.06 44.01 30.06 44.01 30.06
C44.25 30.06 44.45 30.18 44.61 30.42
C44.78 30.68 44.87 31.04 44.87 31.52
C44.87 32.04 44.78 32.44 44.60 32.73
C44.43 33.00 44.24 33.13 44.02 33.13
C44.01 33.13 44.01 33.13 44.01 33.13
C44.01 33.13 44.01 33.13 44.01 33.13
C43.84 33.13 43.69 33.04 43.55 32.85
C43.40 32.65 43.31 32.34 43.26 31.91
L43.25 31.77
L43.10 31.79
L42.50 31.86
L42.37 31.88
L42.38 32.01
C42.42 32.66 42.59 33.18 42.89 33.55
C43.19 33.94 43.57 34.13 44.02 34.13
C44.56 34.13 44.99 33.86 45.31 33.32
C45.61 32.80 45.76 32.18 45.76 31.45
C45.76 30.72 45.61 30.13 45.30 29.69
C44.98 29.23 44.60 29.01 44.16 29.01
C43.92 29.01 43.69 29.08 43.47 29.24
L43.47 29.24
L43.66 27.82
L45.54 27.82
L45.54 27.68
L45.54 26.84
L45.54 26.70
Z
" fill="white" fill-rule="nonzero" />
<path d="
M42.49 74.01
C41.41 74.01 40.55 74.36 39.89 75.07
C39.23 75.78 38.90 76.77 38.90 78.04
C38.90 79.25 39.23 80.20 39.88 80.90
C40.54 81.59 41.37 81.94 42.39 81.94
C43.22 81.94 43.90 81.74 44.43 81.33
C44.97 80.93 45.35 80.30 45.58 79.47
L44.08 78.99
C43.95 79.55 43.74 79.96 43.44 80.23
C43.14 80.49 42.79 80.62 42.38 80.62
C41.82 80.62 41.37 80.41 41.02 80.00
C40.67 79.59 40.49 78.90 40.49 77.93
C40.49 77.02 40.67 76.35 41.02 75.95
C41.38 75.54 41.84 75.33 42.41 75.33
C42.82 75.33 43.17 75.45 43.46 75.68
C43.75 75.91 43.93 76.22 44.03 76.62
L45.56 76.25
C45.38 75.64 45.12 75.17 44.77 74.84
C44.19 74.29 43.43 74.01 42.49 74.01
Z
" fill="black" fill-rule="nonzero" />
<path d="
M55.99 41.93
C56.24 41.93 56.46 42.07 56.63 42.34
C56.81 42.62 56.90 43.02 56.90 43.52
C56.90 44.04 56.81 44.44 56.63 44.73
C56.45 45.03 56.25 45.18 56.03 45.18
C55.77 45.18 55.54 45.02 55.35 44.71
C55.16 44.40 55.06 43.98 55.06 43.47
C55.06 42.99 55.15 42.62 55.34 42.34
C55.52 42.07 55.74 41.93 55.99 41.93
Z
M52.58 38.62
C52.48 38.93 52.31 39.25 52.07 39.58
C51.83 39.91 51.55 40.18 51.23 40.41
L51.23 41.26
C51.42 41.15 51.63 41.00 51.85 40.80
C52.07 40.59 52.25 40.40 52.38 40.20
L52.38 45.77
L52.96 45.77
L52.96 38.62
Z
M56.07 38.62
C55.58 38.62 55.18 38.92 54.87 39.50
C54.56 40.08 54.40 41.07 54.40 42.44
C54.40 43.68 54.55 44.57 54.86 45.10
C55.16 45.63 55.55 45.90 56.02 45.90
C56.28 45.90 56.52 45.80 56.74 45.62
C56.96 45.43 57.14 45.15 57.28 44.76
C57.41 44.37 57.48 43.94 57.48 43.47
C57.48 42.76 57.35 42.20 57.07 41.78
C56.79 41.36 56.47 41.15 56.10 41.15
C55.88 41.15 55.67 41.23 55.47 41.39
C55.27 41.56 55.10 41.79 54.97 42.10
C54.97 41.23 55.06 40.57 55.23 40.12
C55.44 39.60 55.70 39.34 56.04 39.34
C56.25 39.34 56.44 39.46 56.59 39.68
C56.70 39.84 56.78 40.10 56.83 40.46
L57.40 40.40
C57.35 39.82 57.21 39.38 56.97 39.08
C56.73 38.77 56.43 38.62 56.07 38.62
Z
" fill="black" fill-rule="nonzero" />
<path d="
M64.38 14.73
L64.35 14.83
C64.26 15.13 64.10 15.43 63.86 15.75
C63.63 16.06 63.36 16.33 63.06 16.55
L63.00 16.59
L63.00 16.66
L63.00 17.51
L63.00 17.75
L63.21 17.63
C63.41 17.52 63.62 17.36 63.85 17.15
C63.96 17.05 64.06 16.95 64.14 16.86
L64.14 16.86
L64.14 22.02
L64.14 22.17
L65.00 22.17
L65.00 22.02
L65.00 14.87
L65.00 14.73
Z
M66.23 14.85
L66.23 14.99
L66.23 15.83
L66.23 15.98
L68.41 15.98
C68.16 16.45 67.93 16.99 67.71 17.62
C67.46 18.35 67.26 19.11 67.11 19.91
C66.97 20.72 66.89 21.42 66.88 22.02
L66.88 22.17
L67.61 22.17
L67.75 22.17
L67.76 22.03
C67.81 20.89 68.00 19.74 68.34 18.57
C68.68 17.41 69.07 16.47 69.51 15.75
L69.54 15.71
L69.54 15.67
L69.54 14.99
L69.54 14.85
Z
" fill="white" fill-rule="nonzero" />
<path d="
M64.49 38.68
C64.39 38.99 64.22 39.31 63.98 39.64
C63.74 39.97 63.46 40.24 63.14 40.47
L63.14 41.32
C63.33 41.21 63.53 41.06 63.75 40.86
C63.98 40.66 64.15 40.46 64.29 40.26
L64.29 45.84
L64.86 45.84
L64.86 38.68
Z
M67.90 38.68
C67.46 38.68 67.11 38.86 66.84 39.20
C66.57 39.55 66.42 40.06 66.37 40.74
L66.96 40.84
C66.96 40.38 67.05 40.02 67.22 39.78
C67.39 39.53 67.61 39.41 67.88 39.41
C68.13 39.41 68.34 39.52 68.51 39.75
C68.68 39.98 68.76 40.27 68.76 40.64
C68.76 40.95 68.68 41.29 68.51 41.65
C68.35 42.02 67.99 42.53 67.46 43.20
C67.00 43.78 66.68 44.27 66.51 44.69
C66.34 45.11 66.26 45.50 66.26 45.84
L69.35 45.84
L69.35 44.99
L67.06 44.99
C67.12 44.84 67.20 44.68 67.30 44.52
C67.40 44.36 67.63 44.06 67.97 43.62
C68.50 42.93 68.87 42.38 69.06 41.96
C69.25 41.54 69.35 41.11 69.35 40.66
C69.35 40.14 69.22 39.69 68.98 39.29
C68.73 38.88 68.37 38.68 67.90 38.68
Z
" fill="black" fill-rule="nonzero" />
<path d="
M77.90 40.21
L78.95 43.06
L76.86 43.06
L77.90 40.21
Z
M77.09 38.42
L74.11 46.09
L75.75 46.09
L76.38 44.35
L79.45 44.35
L80.12 46.09
L81.80 46.09
L78.73 38.42
Z
" fill="black" fill-rule="nonzero" />
</g>
<g  transform="translate(1.19,228.58)" >
<path d="
M109.47 2.72
C109.30 2.72 109.16 2.78 109.05 2.89
C108.93 3.01 108.88 3.15 108.88 3.31
C108.88 3.47 108.93 3.61 109.05 3.73
C109.17 3.84 109.31 3.90 109.47 3.90
C109.63 3.90 109.77 3.84 109.88 3.73
C110.00 3.61 110.06 3.47 110.06 3.31
C110.06 3.15 110.00 3.01 109.88 2.89
C109.77 2.78 109.63 2.72 109.47 2.72
Z
M114.44 7.81
L114.44 9.84
C113.96 10.23 113.57 10.42 113.28 10.42
C113.06 10.42 112.87 10.33 112.70 10.15
C112.53 9.96 112.45 9.73 112.45 9.45
C112.45 9.23 112.52 9.03 112.65 8.84
C112.78 8.66 113.00 8.48 113.31 8.31
C113.48 8.21 113.85 8.05 114.44 7.81
Z
M102.79 3.55
C103.72 3.55 104.48 3.86 105.07 4.49
C105.67 5.12 105.96 5.98 105.96 7.06
C105.96 8.15 105.67 9.00 105.07 9.63
C104.48 10.27 103.74 10.58 102.84 10.58
C102.50 10.58 102.09 10.53 101.60 10.42
L101.60 3.72
C102.04 3.60 102.44 3.55 102.79 3.55
Z
M99.35 3.11
L99.35 3.32
L99.64 3.32
C99.94 3.32 100.17 3.41 100.32 3.58
C100.43 3.70 100.48 4.01 100.48 4.50
L100.48 9.59
C100.48 10.04 100.44 10.33 100.35 10.45
C100.21 10.67 99.98 10.77 99.64 10.77
L99.35 10.77
L99.35 10.99
L102.87 10.99
C104.40 10.99 105.54 10.58 106.29 9.76
C106.96 9.02 107.29 8.10 107.29 7.01
C107.29 6.19 107.10 5.47 106.73 4.84
C106.35 4.22 105.86 3.77 105.25 3.51
C104.63 3.24 103.74 3.11 102.56 3.11
Z
M109.70 5.51
L108.09 6.16
L108.17 6.37
C108.33 6.31 108.46 6.28 108.57 6.28
C108.67 6.28 108.75 6.30 108.81 6.35
C108.86 6.40 108.91 6.49 108.93 6.61
C108.97 6.78 108.99 7.16 108.99 7.73
L108.99 9.79
C108.99 10.11 108.96 10.34 108.91 10.45
C108.86 10.57 108.79 10.65 108.70 10.70
C108.61 10.75 108.43 10.78 108.17 10.78
L108.17 10.99
L110.76 10.99
L110.76 10.78
C110.51 10.78 110.33 10.75 110.24 10.70
C110.14 10.64 110.07 10.56 110.02 10.45
C109.98 10.34 109.95 10.12 109.95 9.79
L109.95 5.51
Z
M125.02 2.94
C124.42 2.94 123.92 3.14 123.52 3.52
C123.12 3.90 122.87 4.45 122.77 5.17
L122.99 5.17
C123.13 4.73 123.36 4.40 123.67 4.17
C123.98 3.95 124.32 3.83 124.71 3.83
C125.14 3.83 125.50 3.99 125.81 4.32
C126.12 4.64 126.27 5.05 126.27 5.55
C126.27 6.20 125.99 6.93 125.43 7.72
C124.87 8.51 123.91 9.53 122.54 10.77
L122.54 10.99
L127.19 10.99
L127.75 9.47
L127.53 9.47
C127.43 9.65 127.31 9.78 127.18 9.88
C127.04 9.97 126.89 10.03 126.72 10.06
C126.55 10.10 126.26 10.11 125.84 10.11
L123.78 10.11
C124.02 9.89 124.62 9.26 125.59 8.20
C126.23 7.50 126.70 6.84 126.98 6.21
C127.17 5.81 127.26 5.41 127.26 5.01
C127.26 4.45 127.05 3.97 126.62 3.56
C126.19 3.15 125.66 2.94 125.02 2.94
Z
M113.63 5.51
C113.01 5.51 112.53 5.65 112.19 5.93
C111.85 6.20 111.68 6.51 111.68 6.84
C111.68 7.02 111.72 7.16 111.81 7.26
C111.91 7.36 112.02 7.41 112.17 7.41
C112.31 7.41 112.43 7.36 112.52 7.26
C112.62 7.17 112.66 7.03 112.66 6.85
L112.65 6.51
C112.65 6.34 112.72 6.19 112.87 6.06
C113.01 5.93 113.21 5.86 113.45 5.86
C113.77 5.86 114.02 5.96 114.19 6.16
C114.36 6.36 114.44 6.72 114.44 7.25
L114.44 7.46
C113.53 7.79 112.87 8.08 112.48 8.31
C112.08 8.54 111.81 8.79 111.65 9.05
C111.53 9.24 111.47 9.47 111.47 9.73
C111.47 10.14 111.59 10.47 111.83 10.72
C112.07 10.97 112.37 11.10 112.74 11.10
C112.98 11.10 113.20 11.05 113.41 10.95
C113.55 10.89 113.89 10.64 114.44 10.22
C114.44 10.54 114.50 10.76 114.61 10.90
C114.73 11.03 114.88 11.09 115.07 11.09
C115.46 11.09 115.88 10.80 116.31 10.22
L116.31 9.90
C116.08 10.13 115.92 10.27 115.84 10.32
C115.79 10.35 115.74 10.36 115.68 10.36
C115.62 10.36 115.57 10.34 115.52 10.30
C115.48 10.26 115.45 10.19 115.43 10.07
C115.41 9.96 115.40 9.65 115.40 9.14
L115.40 7.33
C115.40 6.82 115.36 6.48 115.29 6.31
C115.19 6.05 115.02 5.87 114.79 5.75
C114.49 5.59 114.10 5.51 113.63 5.51
Z
M117.82 9.86
C117.64 9.86 117.49 9.92 117.37 10.05
C117.24 10.17 117.18 10.32 117.18 10.51
C117.18 10.68 117.24 10.84 117.37 10.96
C117.49 11.09 117.64 11.15 117.82 11.15
C118.00 11.15 118.15 11.09 118.28 10.96
C118.41 10.84 118.47 10.68 118.47 10.51
C118.47 10.33 118.41 10.18 118.28 10.05
C118.16 9.92 118.01 9.86 117.82 9.86
Z
" fill="black" fill-rule="nonzero" />
</g>
</g>
</svg>
