<?xml version="1.0" encoding="utf-8" standalone="no"?>
<!DOCTYPE svg PUBLIC "-//W3C//DTD SVG 1.0//EN" "http://www.w3.org/TR/SVG/DTD/svg11.dtd" >
<svg version="1.1" baseProfile="full"  width="319.13385" height="338.51422" viewBox="0 0 229.77638 243.73024" preserveAspectRatio="xMidYMid" xmlns="http://www.w3.org/2000/svg" >

<g lengthAdjust="spacingAndGlyphs" xml:space='preserve' >
<g  transform="translate(1.19,1.19)" >
<path d="
M0.0 0.0
L0.0 227.39
L227.39 227.39
L227.39 0.0
Z
" fill="none" fill-rule="nonzero" />
<line x1="6.54" y1="6.54" x2="6.54" y2="220.84" fill="none" stroke="black" stroke-width="0.87px" stroke-linecap="square" />
<line x1="18.45" y1="6.54" x2="18.45" y2="220.84" fill="none" stroke="black" stroke-width="0.25px" stroke-linecap="butt" />
<line x1="30.35" y1="6.54" x2="30.35" y2="24.40" fill="none" stroke="black" stroke-width="0.25px" stroke-linecap="butt" />
<line x1="30.35" y1="36.31" x2="30.35" y2="220.84" fill="none" stroke="black" stroke-width="0.25px" stroke-linecap="butt" />
<line x1="42.26" y1="6.54" x2="42.26" y2="48.21" fill="none" stroke="black" stroke-width="0.25px" stroke-linecap="butt" />
<line x1="42.26" y1="60.12" x2="42.26" y2="72.02" fill="none" stroke="black" stroke-width="0.25px" stroke-linecap="butt" />
<line x1="42.26" y1="83.93" x2="42.26" y2="220.84" fill="none" stroke="black" stroke-width="0.25px" stroke-linecap="butt" />
<line x1="54.17" y1="6.54" x2="54.17" y2="220.84" fill="none" stroke="black" stroke-width="0.25px" stroke-linecap="butt" />
<line x1="66.07" y1="6.54" x2="66.07" y2="220.84" fill="none" stroke="black" stroke-width="0.25px" stroke-linecap="butt" />
<line x1="77.98" y1="6.54" x2="77.98" y2="220.84" fill="none" stroke="black" stroke-width="0.25px" stroke-linecap="butt" />
<line x1="89.88" y1="6.54" x2="89.88" y2="220.84" fill="none" stroke="black" stroke-width="0.25px" stroke-linecap="butt" />
<line x1="101.79" y1="6.54" x2="101.79" y2="220.84" fill="none" stroke="black" stroke-width="0.25px" stroke-linecap="butt" />
<line x1="113.69" y1="6.54" x2="113.69" y2="220.84" fill="none" stroke="black" stroke-width="0.25px" stroke-linecap="butt" />
<line x1="125.60" y1="6.54" x2="125.60" y2="220.84" fill="none" stroke="black" stroke-width="0.25px" stroke-linecap="butt" />
<line x1="137.50" y1="6.54" x2="137.50" y2="220.84" fill="none" stroke="black" stroke-width="0.25px" stroke-linecap="butt" />
<line x1="149.41" y1="6.54" x2="149.41" y2="220.84" fill="none" stroke="black" stroke-width="0.25px" stroke-linecap="butt" />
<line x1="161.31" y1="6.54" x2="161.31" y2="220.84" fill="none" stroke="black" stroke-width="0.25px" stroke-linecap="butt" />
<line x1="173.22" y1="6.54" x2="173.22" y2="220.84" fill="none" stroke="black" stroke-width="0.25px" stroke-linecap="butt" />
<line x1="185.13" y1="6.54" x2="185.13" y2="220.84" fill="none" stroke="black" stroke-width="0.25px" stroke-linecap="butt" />
<line x1="197.03" y1="6.54" x2="197.03" y2="220.84" fill="none" stroke="black" stroke-width="0.25px" stroke-linecap="butt" />
<line x1="208.94" y1="6.54" x2="208.94" y2="220.84" fill="none" stroke="black" stroke-width="0.25px" stroke-linecap="butt" />
<line x1="220.84" y1="6.54" x2="220.84" y2="220.84" fill="none" stroke="black" stroke-width="0.87px" stroke-linecap="square" />
<line x1="6.54" y1="6.54" x2="220.84" y2="6.54" fill="none" stroke="black" stroke-width="0.87px" stroke-linecap="square" />
<line x1="6.54" y1="18.45" x2="220.84" y2="18.45" fill="none" stroke="black" stroke-width="0.25px" stroke-linecap="butt" />
<line x1="6.54" y1="30.35" x2="24.40" y2="30.35" fill="none" stroke="black" stroke-width="0.25px" stroke-linecap="butt" />
<line x1="36.31" y1="30.35" x2="220.84" y2="30.35" fill="none" stroke="black" stroke-width="0.25px" stroke-linecap="butt" />
<line x1="6.54" y1="42.26" x2="220.84" y2="42.26" fill="none" stroke="black" stroke-width="0.25px" stroke-linecap="butt" />
<line x1="6.54" y1="54.17" x2="36.31" y2="54.17" fill="none" stroke="black" stroke-width="0.25px" stroke-linecap="butt" />
<line x1="48.21" y1="54.17" x2="220.84" y2="54.17" fill="none" stroke="black" stroke-width="0.25px" stroke-linecap="butt" />
<line x1="6.54" y1="66.07" x2="220.84" y2="66.07" fill="none" stroke="black" stroke-width="0.25px" stroke-linecap="butt" />
<line x1="6.54" y1="77.98" x2="36.31" y2="77.98" fill="none" stroke="black" stroke-width="0.25px" stroke-linecap="butt" />
<line x1="48.21" y1="77.98" x2="220.84" y2="77.98" fill="none" stroke="black" stroke-width="0.25px" stroke-linecap="butt" />
<line x1="6.54" y1="89.88" x2="220.84" y2="89.88" fill="none" stroke="black" stroke-width="0.25px" stroke-linecap="butt" />
<line x1="6.54" y1="101.79" x2="220.84" y2="101.79" fill="none" stroke="black" stroke-width="0.25px" stroke-linecap="butt" />
<line x1="6.54" y1="113.69" x2="220.84" y2="113.69" fill="none" stroke="black" stroke-width="0.25px" stroke-linecap="butt" />
<line x1="6.54" y1="125.60" x2="220.84" y2="125.60" fill="none" stroke="black" stroke-width="0.25px" stroke-linecap="butt" />
<line x1="6.54" y1="137.50" x2="220.84" y2="137.50" fill="none" stroke="black" stroke-width="0.25px" stroke-linecap="butt" />
<line x1="6.54" y1="149.41" x2="220.84" y2="149.41" fill="none" stroke="black" stroke-width="0.25px" stroke-linecap="butt" />
<line x1="6.54" y1="161.31" x2="220.84" y2="161.31" fill="none" stroke="black" stroke-width="0.25px" stroke-linecap="butt" />
<line x1="6.54" y1="173.22" x2="220.84" y2="173.22" fill="none" stroke="black" stroke-width="0.25px" stroke-linecap="butt" />
<line x1="6.54" y1="185.13" x2="220.84" y2="185.13" fill="none" stroke="black" stroke-width="0.25px" stroke-linecap="butt" />
<line x1="6.54" y1="197.03" x2="220.84" y2="197.03" fill="none" stroke="black" stroke-width="0.25px" stroke-linecap="butt" />
<line x1="6.54" y1="208.94" x2="220.84" y2="208.94" fill="none" stroke="black" stroke-width="0.25px" stroke-linecap="butt" />
<line x1="6.54" y1="220.84" x2="220.84" y2="220.84" fill="none" stroke="black" stroke-width="0.87px" stroke-linecap="square" />
<circle cx="30.35" cy="66.07" r="6.01" fill="black"/>
<circle cx="42.26" cy="42.26" r="5.89" fill="white"/>
<circle cx="42.26" cy="42.26" r="5.89" fill="none" stroke="black" stroke-width="0.25px"/>
<circle cx="42.26" cy="66.07" r="5.89" fill="white"/>
<circle cx="42.26" cy="66.07" r="5.89" fill="none" stroke="black" stroke-width="0.25px"/>
<circle cx="42.26" cy="113.69" r="1.27" fill="black"/>
<circle cx="42.26" cy="185.13" r="1.27" fill="black"/>
<circle cx="66.07" cy="30.35" r="6.01" fill="black"/>
<circle cx="89.88" cy="30.35" r="5.89" fill="white"/>
<circle cx="89.88" cy="30.35" r="5.89" fill="none" stroke="black" stroke-width="0.25px"/>
<circle cx="113.69" cy="42.26" r="1.27" fill="black"/>
<circle cx="113.69" cy="113.69" r="1.27" fill="black"/>
<circle cx="113.69" cy="185.13" r="1.27" fill="black"/>
<circle cx="185.13" cy="42.26" r="1.27" fill="black"/>
<circle cx="185.13" cy="113.69" r="1.27" fill="black"/>
<circle cx="185.13" cy="185.13" r="1.27" fill="black"/>
<path d="
M30.27 28.31
L31.33 31.15
L29.24 31.15
L30.27 28.31
Z
M29.47 26.52
L26.49 34.19
L28.13 34.19
L28.76 32.45
L31.83 32.45
L32.50 34.19
L34.18 34.19
L31.11 26.52
Z
" fill="black" fill-rule="nonzero" />
<path d="
M30.55 62.40
L30.51 62.49
C30.40 62.78 30.19 63.08 29.91 63.39
C29.62 63.70 29.28 63.96 28.91 64.18
L28.83 64.22
L28.83 64.30
L28.83 65.14
L28.83 65.36
L29.03 65.27
C29.27 65.16 29.54 65.01 29.82 64.80
C29.98 64.68 30.13 64.56 30.25 64.45
L30.25 64.45
L30.25 69.60
L30.25 69.74
L31.24 69.74
L31.24 69.60
L31.24 62.54
L31.24 62.40
Z
" fill="white" fill-rule="nonzero" />
<path d="
M41.61 51.61
C42.34 51.61 42.78 51.62 42.94 51.63
C43.20 51.66 43.39 51.75 43.52 51.90
C43.65 52.05 43.72 52.24 43.72 52.48
C43.72 52.73 43.64 52.93 43.49 53.08
C43.34 53.23 43.13 53.32 42.86 53.35
C42.72 53.37 42.34 53.38 41.74 53.38
L40.72 53.38
L40.72 51.61
Z
M41.97 54.66
C42.68 54.66 43.14 54.69 43.35 54.77
C43.56 54.84 43.72 54.96 43.83 55.12
C43.94 55.28 44.00 55.47 44.00 55.70
C44.00 55.98 43.93 56.19 43.78 56.35
C43.64 56.52 43.45 56.62 43.22 56.66
C43.07 56.69 42.72 56.71 42.16 56.71
L40.72 56.71
L40.72 54.66
Z
M39.18 50.33
L39.18 58.00
L41.79 58.00
C42.77 57.99 43.40 57.98 43.65 57.95
C44.07 57.90 44.41 57.78 44.69 57.58
C44.97 57.39 45.19 57.12 45.36 56.79
C45.52 56.46 45.60 56.13 45.60 55.78
C45.60 55.33 45.47 54.95 45.22 54.62
C44.97 54.29 44.61 54.06 44.15 53.92
C44.48 53.77 44.74 53.55 44.93 53.25
C45.13 52.95 45.22 52.62 45.22 52.26
C45.22 51.93 45.14 51.63 44.99 51.36
C44.83 51.10 44.63 50.88 44.40 50.72
C44.16 50.56 43.90 50.46 43.60 50.41
C43.30 50.36 42.85 50.33 42.24 50.33
Z
" fill="black" fill-rule="nonzero" />
<path d="
M42.27 62.54
C41.73 62.54 41.30 62.71 40.97 63.05
C40.64 63.39 40.44 63.90 40.39 64.57
L41.12 64.66
C41.12 64.21 41.23 63.86 41.44 63.62
C41.65 63.37 41.92 63.25 42.25 63.25
C42.56 63.25 42.82 63.37 43.03 63.59
C43.23 63.82 43.34 64.11 43.34 64.47
C43.34 64.78 43.24 65.11 43.03 65.47
C42.83 65.83 42.39 66.34 41.73 67.00
C41.17 67.57 40.78 68.06 40.56 68.48
C40.35 68.89 40.25 69.27 40.26 69.60
L44.07 69.60
L44.07 68.77
L41.24 68.77
C41.32 68.62 41.42 68.46 41.54 68.30
C41.67 68.15 41.94 67.85 42.36 67.42
C43.02 66.73 43.47 66.19 43.71 65.78
C43.95 65.36 44.06 64.93 44.06 64.49
C44.06 63.98 43.91 63.53 43.61 63.13
C43.31 62.74 42.86 62.54 42.27 62.54
Z
" fill="black" fill-rule="nonzero" />
<path d="
M42.49 74.01
C41.41 74.01 40.55 74.36 39.89 75.07
C39.23 75.78 38.90 76.77 38.90 78.04
C38.90 79.25 39.23 80.20 39.88 80.90
C40.54 81.59 41.37 81.94 42.39 81.94
C43.22 81.94 43.90 81.74 44.43 81.33
C44.97 80.93 45.35 80.30 45.58 79.47
L44.08 78.99
C43.95 79.55 43.74 79.96 43.44 80.23
C43.14 80.49 42.79 80.62 42.38 80.62
C41.82 80.62 41.37 80.41 41.02 80.00
C40.67 79.59 40.49 78.90 40.49 77.93
C40.49 77.02 40.67 76.35 41.02 75.95
C41.38 75.54 41.84 75.33 42.41 75.33
C42.82 75.33 43.17 75.45 43.46 75.68
C43.75 75.91 43.93 76.22 44.03 76.62
L45.56 76.25
C45.38 75.64 45.12 75.17 44.77 74.84
C44.19 74.29 43.43 74.01 42.49 74.01
Z
" fill="black" fill-rule="nonzero" />
</g>
<g  transform="translate(1.19,228.58)" >
<path d="
M109.47 2.72
C109.30 2.72 109.16 2.78 109.05 2.89
C108.93 3.01 108.88 3.15 108.88 3.31
C108.88 3.47 108.93 3.61 109.05 3.73
C109.17 3.84 109.31 3.90 109.47 3.90
C109.63 3.90 109.77 3.84 109.88 3.73
C110.00 3.61 110.06 3.47 110.06 3.31
C110.06 3.15 110.00 3.01 109.88 2.89
C109.77 2.78 109.63 2.72 109.47 2.72
Z
M114.44 7.81
L114.44 9.84
C113.96 10.23 113.57 10.42 113.28 10.42
C113.06 10.42 112.87 10.33 112.70 10.15
C112.53 9.96 112.45 9.73 112.45 9.45
C112.45 9.23 112.52 9.03 112.65 8.84
C112.78 8.66 113.00 8.48 113.31 8.31
C113.48 8.21 113.85 8.05 114.44 7.81
Z
M102.79 3.55
C103.72 3.55 104.48 3.86 105.07 4.49
C105.67 5.12 105.96 5.98 105.96 7.06
C105.96 8.15 105.67 9.00 105.07 9.63
C104.48 10.27 103.74 10.58 102.84 10.58
C102.50 10.58 102.09 10.53 101.60 10.42
L101.60 3.72
C102.04 3.60 102.44 3.55 102.79 3.55
Z
M99.35 3.11
L99.35 3.32
L99.64 3.32
C99.94 3.32 100.17 3.41 100.32 3.58
C100.43 3.70 100.48 4.01 100.48 4.50
L100.48 9.59
C100.48 10.04 100.44 10.33 100.35 10.45
C100.21 10.67 99.98 10.77 99.64 10.77
L99.35 10.77
L99.35 10.99
L102.87 10.99
C104.40 10.99 105.54 10.58 106.29 9.76
C106.96 9.02 107.29 8.10 107.29 7.01
C107.29 6.19 107.10 5.47 106.73 4.84
C106.35 4.22 105.86 3.77 105.25 3.51
C104.63 3.24 103.74 3.11 102.56 3.11
Z
M109.70 5.51
L108.09 6.16
L108.17 6.37
C108.33 6.31 108.46 6.28 108.57 6.28
C108.67 6.28 108.75 6.30 108.81 6.35
C108.86 6.40 108.91 6.49 108.93 6.61
C108.97 6.78 108.99 7.16 108.99 7.73
L108.99 9.79
C108.99 10.11 108.96 10.34 108.91 10.45
C108.86 10.57 108.79 10.65 108.70 10.70
C108.61 10.75 108.43 10.78 108.17 10.78
L108.17 10.99
L110.76 10.99
L110.76 10.78
C110.51 10.78 110.33 10.75 110.24 10.70
C110.14 10.64 110.07 10.56 110.02 10.45
C109.98 10.34 109.95 10.12 109.95 9.79
L109.95 5.51
Z
M113.63 5.51
C113.01 5.51 112.53 5.65 112.19 5.93
C111.85 6.20 111.68 6.51 111.68 6.84
C111.68 7.02 111.72 7.16 111.81 7.26
C111.91 7.36 112.02 7.41 112.17 7.41
C112.31 7.41 112.43 7.36 112.52 7.26
C112.62 7.17 112.66 7.03 112.66 6.85
L112.65 6.51
C112.65 6.34 112.72 6.19 112.87 6.06
C113.01 5.93 113.21 5.86 113.45 5.86
C113.77 5.86 114.02 5.96 114.19 6.16
C114.36 6.36 114.44 6.72 114.44 7.25
L114.44 7.46
C113.53 7.79 112.87 8.08 112.48 8.31
C112.08 8.54 111.81 8.79 111.65 9.05
C111.53 9.24 111.47 9.47 111.47 9.73
C111.47 10.14 111.59 10.47 111.83 10.72
C112.07 10.97 112.37 11.10 112.74 11.10
C112.98 11.10 113.20 11.05 113.41 10.95
C113.55 10.89 113.89 10.64 114.44 10.22
C114.44 10.54 114.50 10.76 114.61 10.90
C114.73 11.03 114.88 11.09 115.07 11.09
C115.46 11.09 115.88 10.80 116.31 10.22
L116.31 9.90
C116.08 10.13 115.92 10.27 115.84 10.32
C115.79 10.35 115.74 10.36 115.68 10.36
C115.62 10.36 115.57 10.34 115.52 10.30
C115.48 10.26 115.45 10.19 115.43 10.07
C115.41 9.96 115.40 9.65 115.40 9.14
L115.40 7.33
C115.40 6.82 115.36 6.48 115.29 6.31
C115.19 6.05 115.02 5.87 114.79 5.75
C114.49 5.59 114.10 5.51 113.63 5.51
Z
M125.03 2.94
C124.51 2.94 124.09 3.09 123.74 3.38
C123.40 3.67 123.12 4.08 122.89 4.61
L123.08 4.70
C123.49 4.06 123.99 3.73 124.59 3.73
C124.96 3.73 125.27 3.86 125.52 4.10
C125.77 4.35 125.90 4.67 125.90 5.07
C125.90 5.38 125.83 5.66 125.69 5.91
C125.55 6.17 125.32 6.39 125.02 6.57
C124.71 6.75 124.40 6.86 124.10 6.90
L124.10 7.08
L124.28 7.08
C124.58 7.08 124.88 7.14 125.17 7.27
C125.46 7.39 125.69 7.53 125.86 7.69
C125.98 7.80 126.09 7.96 126.19 8.18
C126.32 8.47 126.39 8.77 126.39 9.08
C126.39 9.49 126.25 9.86 125.95 10.16
C125.66 10.47 125.32 10.62 124.92 10.62
C124.76 10.62 124.61 10.60 124.46 10.56
C124.37 10.54 124.21 10.46 123.98 10.34
C123.75 10.22 123.60 10.15 123.53 10.13
C123.43 10.10 123.33 10.08 123.24 10.08
C123.11 10.08 123.00 10.12 122.91 10.21
C122.82 10.30 122.77 10.39 122.77 10.51
C122.77 10.66 122.87 10.80 123.06 10.93
C123.25 11.06 123.61 11.13 124.14 11.13
C125.22 11.13 126.04 10.80 126.60 10.15
C127.03 9.65 127.25 9.06 127.25 8.38
C127.25 7.90 127.13 7.49 126.88 7.13
C126.63 6.78 126.27 6.51 125.78 6.32
C126.50 5.71 126.86 5.12 126.86 4.54
C126.86 4.19 126.73 3.87 126.48 3.56
C126.14 3.15 125.66 2.94 125.03 2.94
Z
M117.82 9.86
C117.64 9.86 117.49 9.92 117.37 10.05
C117.24 10.17 117.18 10.32 117.18 10.51
C117.18 10.68 117.24 10.84 117.37 10.96
C117.49 11.09 117.64 11.15 117.82 11.15
C118.00 11.15 118.15 11.09 118.28 10.96
C118.41 10.84 118.47 10.68 118.47 10.51
C118.47 10.33 118.41 10.18 118.28 10.05
C118.16 9.92 118.01 9.86 117.82 9.86
Z
" fill="black" fill-rule="nonzero" />
</g>
</g>
</svg>
