<?xml version="1.0" encoding="utf-8" standalone="no"?>
<!DOCTYPE svg PUBLIC "-//W3C//DTD SVG 1.0//EN" "http://www.w3.org/TR/SVG/DTD/svg11.dtd" >
<svg version="1.1" baseProfile="full"  width="319.13385" height="338.51422" viewBox="0 0 229.77638 243.73024" preserveAspectRatio="xMidYMid" xmlns="http://www.w3.org/2000/svg" >

<g lengthAdjust="spacingAndGlyphs" xml:space='preserve' >
<g  transform="translate(1.19,1.19)" >
<path d="
M0.0 0.0
L0.0 227.39
L227.39 227.39
L227.39 0.0
Z
" fill="none" fill-rule="nonzero" />
<line x1="6.54" y1="6.54" x2="6.54" y2="220.84" fill="none" stroke="black" stroke-width="0.87px" stroke-linecap="square" />
<line x1="18.45" y1="6.54" x2="18.45" y2="220.84" fill="none" stroke="black" stroke-width="0.25px" stroke-linecap="butt" />
<line x1="30.35" y1="6.54" x2="30.35" y2="220.84" fill="none" stroke="black" stroke-width="0.25px" stroke-linecap="butt" />
<line x1="42.26" y1="6.54" x2="42.26" y2="220.84" fill="none" stroke="black" stroke-width="0.25px" stroke-linecap="butt" />
<line x1="54.17" y1="6.54" x2="54.17" y2="220.84" fill="none" stroke="black" stroke-width="0.25px" stroke-linecap="butt" />
<line x1="66.07" y1="6.54" x2="66.07" y2="220.84" fill="none" stroke="black" stroke-width="0.25px" stroke-linecap="butt" />
<line x1="77.98" y1="6.54" x2="77.98" y2="220.84" fill="none" stroke="black" stroke-width="0.25px" stroke-linecap="butt" />
<line x1="89.88" y1="6.54" x2="89.88" y2="220.84" fill="none" stroke="black" stroke-width="0.25px" stroke-linecap="butt" />
<line x1="101.79" y1="6.54" x2="101.79" y2="220.84" fill="none" stroke="black" stroke-width="0.25px" stroke-linecap="butt" />
<line x1="113.69" y1="6.54" x2="113.69" y2="220.84" fill="none" stroke="black" stroke-width="0.25px" stroke-linecap="butt" />
<line x1="125.60" y1="6.54" x2="125.60" y2="220.84" fill="none" stroke="black" stroke-width="0.25px" stroke-linecap="butt" />
<line x1="137.50" y1="6.54" x2="137.50" y2="220.84" fill="none" stroke="black" stroke-width="0.25px" stroke-linecap="butt" />
<line x1="149.41" y1="6.54" x2="149.41" y2="220.84" fill="none" stroke="black" stroke-width="0.25px" stroke-linecap="butt" />
<line x1="161.31" y1="6.54" x2="161.31" y2="220.84" fill="none" stroke="black" stroke-width="0.25px" stroke-linecap="butt" />
<line x1="173.22" y1="6.54" x2="173.22" y2="220.84" fill="none" stroke="black" stroke-width="0.25px" stroke-linecap="butt" />
<line x1="185.13" y1="6.54" x2="185.13" y2="220.84" fill="none" stroke="black" stroke-width="0.25px" stroke-linecap="butt" />
<line x1="197.03" y1="6.54" x2="197.03" y2="220.84" fill="none" stroke="black" stroke-width="0.25px" stroke-linecap="butt" />
<line x1="208.94" y1="6.54" x2="208.94" y2="220.84" fill="none" stroke="black" stroke-width="0.25px" stroke-linecap="butt" />
<line x1="220.84" y1="6.54" x2="220.84" y2="220.84" fill="none" stroke="black" stroke-width="0.87px" stroke-linecap="square" />
<line x1="6.54" y1="6.54" x2="220.84" y2="6.54" fill="none" stroke="black" stroke-width="0.87px" stroke-linecap="square" />
<line x1="6.54" y1="18.45" x2="220.84" y2="18.45" fill="none" stroke="black" stroke-width="0.25px" stroke-linecap="butt" />
<line x1="6.54" y1="30.35" x2="220.84" y2="30.35" fill="none" stroke="black" stroke-width="0.25px" stroke-linecap="butt" />
<line x1="6.54" y1="42.26" x2="220.84" y2="42.26" fill="none" stroke="black" stroke-width="0.25px" stroke-linecap="butt" />
<line x1="6.54" y1="54.17" x2="220.84" y2="54.17" fill="none" stroke="black" stroke-width="0.25px" stroke-linecap="butt" />
<line x1="6.54" y1="66.07" x2="220.84" y2="66.07" fill="none" stroke="black" stroke-width="0.25px" stroke-linecap="butt" />
<line x1="6.54" y1="77.98" x2="220.84" y2="77.98" fill="none" stroke="black" stroke-width="0.25px" stroke-linecap="butt" />
<line x1="6.54" y1="89.88" x2="220.84" y2="89.88" fill="none" stroke="black" stroke-width="0.25px" stroke-linecap="butt" />
<line x1="6.54" y1="101.79" x2="220.84" y2="101.79" fill="none" stroke="black" stroke-width="0.25px" stroke-linecap="butt" />
<line x1="6.54" y1="113.69" x2="220.84" y2="113.69" fill="none" stroke="black" stroke-width="0.25px" stroke-linecap="butt" />
<line x1="6.54" y1="125.60" x2="220.84" y2="125.60" fill="none" stroke="black" stroke-width="0.25px" stroke-linecap="butt" />
<line x1="6.54" y1="137.50" x2="220.84" y2="137.50" fill="none" stroke="black" stroke-width="0.25px" stroke-linecap="butt" />
<line x1="6.54" y1="149.41" x2="220.84" y2="149.41" fill="none" stroke="black" stroke-width="0.25px" stroke-linecap="butt" />
<line x1="6.54" y1="161.31" x2="220.84" y2="161.31" fill="none" stroke="black" stroke-width="0.25px" stroke-linecap="butt" />
<line x1="6.54" y1="173.22" x2="220.84" y2="173.22" fill="none" stroke="black" stroke-width="0.25px" stroke-linecap="butt" />
<line x1="6.54" y1="185.13" x2="220.84" y2="185.13" fill="none" stroke="black" stroke-width="0.25px" stroke-linecap="butt" />
<line x1="6.54" y1="197.03" x2="220.84" y2="197.03" fill="none" stroke="black" stroke-width="0.25px" stroke-linecap="butt" />
<line x1="6.54" y1="208.94" x2="220.84" y2="208.94" fill="none" stroke="black" stroke-width="0.25px" stroke-linecap="butt" />
<line x1="6.54" y1="220.84" x2="220.84" y2="220.84" fill="none" stroke="black" stroke-width="0.87px" stroke-linecap="square" />
<circle cx="18.45" cy="149.41" r="5.89" fill="white"/>
<circle cx="18.45" cy="149.41" r="5.89" fill="none" stroke="black" stroke-width="0.25px"/>
<circle cx="18.45" cy="161.31" r="5.89" fill="white"/>
<circle cx="18.45" cy="161.31" r="5.89" fill="none" stroke="black" stroke-width="0.25px"/>
<circle cx="18.45" cy="173.22" r="5.89" fill="white"/>
<circle cx="18.45" cy="173.22" r="5.89" fill="none" stroke="black" stroke-width="0.25px"/>
<circle cx="18.45" cy="185.13" r="6.01" fill="black"/>
<circle cx="18.45" cy="197.03" r="6.01" fill="black"/>
<circle cx="18.45" cy="208.94" r="5.89" fill="white"/>
<circle cx="18.45" cy="208.94" r="5.89" fill="none" stroke="black" stroke-width="0.25px"/>
<circle cx="30.35" cy="30.35" r="6.01" fill="black"/>
<circle cx="30.35" cy="54.17" r="5.89" fill="white"/>
<circle cx="30.35" cy="54.17" r="5.89" fill="none" stroke="black" stroke-width="0.25px"/>
<circle cx="30.35" cy="66.07" r="6.01" fill="black"/>
<circle cx="30.35" cy="125.60" r="5.89" fill="white"/>
<circle cx="30.35" cy="125.60" r="5.89" fill="none" stroke="black" stroke-width="0.25px"/>
<circle cx="30.35" cy="161.31" r="6.01" fill="black"/>
<circle cx="30.35" cy="173.22" r="5.89" fill="white"/>
<circle cx="30.35" cy="173.22" r="5.89" fill="none" stroke="black" stroke-width="0.25px"/>
<circle cx="30.35" cy="185.13" r="6.01" fill="black"/>
<circle cx="30.35" cy="197.03" r="5.89" fill="white"/>
<circle cx="30.35" cy="197.03" r="5.89" fill="none" stroke="black" stroke-width="0.25px"/>
<circle cx="42.26" cy="30.35" r="6.01" fill="black"/>
<circle cx="42.26" cy="42.26" r="5.89" fill="white"/>
<circle cx="42.26" cy="42.26" r="5.89" fill="none" stroke="black" stroke-width="0.25px"/>
<circle cx="42.26" cy="66.07" r="5.89" fill="white"/>
<circle cx="42.26" cy="66.07" r="5.89" fill="none" stroke="black" stroke-width="0.25px"/>
<circle cx="42.26" cy="113.69" r="1.27" fill="black"/>
<circle cx="42.26" cy="161.31" r="6.01" fill="black"/>
<circle cx="42.26" cy="173.22" r="6.01" fill="black"/>
<circle cx="42.26" cy="185.13" r="5.89" fill="white"/>
<circle cx="42.26" cy="185.13" r="5.89" fill="none" stroke="black" stroke-width="0.25px"/>
<circle cx="42.26" cy="197.03" r="5.89" fill="white"/>
<circle cx="42.26" cy="197.03" r="5.89" fill="none" stroke="black" stroke-width="0.25px"/>
<circle cx="54.17" cy="185.13" r="6.01" fill="black"/>
<circle cx="54.17" cy="197.03" r="6.01" fill="black"/>
<circle cx="54.17" cy="208.94" r="5.89" fill="white"/>
<circle cx="54.17" cy="208.94" r="5.89" fill="none" stroke="black" stroke-width="0.25px"/>
<circle cx="66.07" cy="30.35" r="6.01" fill="black"/>
<circle cx="66.07" cy="185.13" r="5.89" fill="white"/>
<circle cx="66.07" cy="185.13" r="5.89" fill="none" stroke="black" stroke-width="0.25px"/>
<circle cx="66.07" cy="197.03" r="6.01" fill="black"/>
<circle cx="66.07" cy="208.94" r="5.89" fill="white"/>
<circle cx="66.07" cy="208.94" r="5.89" fill="none" stroke="black" stroke-width="0.25px"/>
<circle cx="77.98" cy="197.03" r="6.01" fill="black"/>
<circle cx="77.98" cy="208.94" r="6.01" fill="black"/>
<circle cx="89.88" cy="30.35" r="5.89" fill="white"/>
<circle cx="89.88" cy="30.35" r="5.89" fill="none" stroke="black" stroke-width="0.25px"/>
<circle cx="113.69" cy="42.26" r="1.27" fill="black"/>
<circle cx="113.69" cy="113.69" r="1.27" fill="black"/>
<circle cx="113.69" cy="149.41" r="5.89" fill="white"/>
<circle cx="113.69" cy="149.41" r="5.89" fill="none" stroke="black" stroke-width="0.25px"/>
<circle cx="113.69" cy="173.22" r="5.89" fill="white"/>
<circle cx="113.69" cy="173.22" r="5.89" fill="none" stroke="black" stroke-width="0.25px"/>
<circle cx="113.69" cy="185.13" r="1.27" fill="black"/>
<circle cx="113.69" cy="197.03" r="5.89" fill="white"/>
<circle cx="113.69" cy="197.03" r="5.89" fill="none" stroke="black" stroke-width="0.25px"/>
<circle cx="137.50" cy="197.03" r="6.01" fill="black"/>
<circle cx="185.13" cy="42.26" r="6.01" fill="black"/>
<circle cx="185.13" cy="113.69" r="1.27" fill="black"/>
<circle cx="185.13" cy="185.13" r="1.27" fill="black"/>
<circle cx="185.13" cy="197.03" r="6.01" fill="black"/>
<circle cx="197.03" cy="173.22" r="6.01" fill="black"/>
<path d="
M20.27 149.08
C20.53 149.08 20.74 149.22 20.92 149.49
C21.09 149.77 21.18 150.16 21.18 150.67
C21.18 151.18 21.09 151.59 20.91 151.88
C20.74 152.18 20.54 152.33 20.31 152.33
C20.05 152.33 19.83 152.17 19.63 151.86
C19.44 151.55 19.34 151.13 19.34 150.62
C19.34 150.14 19.44 149.77 19.62 149.49
C19.81 149.21 20.02 149.08 20.27 149.08
Z
M16.65 145.77
C16.21 145.77 15.85 145.95 15.59 146.29
C15.32 146.64 15.16 147.15 15.12 147.83
L15.71 147.92
C15.71 147.47 15.80 147.11 15.97 146.87
C16.14 146.62 16.36 146.50 16.63 146.50
C16.87 146.50 17.08 146.61 17.25 146.84
C17.42 147.07 17.51 147.36 17.51 147.73
C17.51 148.04 17.43 148.38 17.26 148.74
C17.09 149.11 16.74 149.62 16.21 150.29
C15.75 150.86 15.43 151.36 15.26 151.78
C15.09 152.20 15.00 152.58 15.01 152.92
L18.10 152.92
L18.10 152.08
L15.81 152.08
C15.87 151.92 15.95 151.77 16.05 151.61
C16.15 151.45 16.37 151.15 16.72 150.71
C17.25 150.02 17.62 149.47 17.81 149.05
C18.00 148.63 18.09 148.20 18.09 147.75
C18.09 147.23 17.97 146.78 17.73 146.38
C17.48 145.97 17.12 145.77 16.65 145.77
Z
M20.36 145.77
C19.87 145.77 19.47 146.07 19.15 146.65
C18.84 147.23 18.68 148.21 18.68 149.59
C18.68 150.83 18.83 151.72 19.14 152.25
C19.45 152.78 19.83 153.05 20.31 153.05
C20.57 153.05 20.81 152.95 21.03 152.77
C21.24 152.58 21.42 152.30 21.56 151.91
C21.70 151.52 21.77 151.09 21.77 150.62
C21.77 149.91 21.63 149.35 21.35 148.93
C21.08 148.51 20.75 148.30 20.38 148.30
C20.16 148.30 19.95 148.38 19.75 148.54
C19.55 148.70 19.39 148.94 19.25 149.25
C19.26 148.38 19.34 147.72 19.52 147.27
C19.72 146.75 19.99 146.49 20.32 146.49
C20.54 146.49 20.72 146.61 20.87 146.83
C20.98 146.99 21.06 147.25 21.11 147.61
L21.69 147.55
C21.63 146.97 21.49 146.53 21.25 146.23
C21.01 145.92 20.71 145.77 20.36 145.77
Z
" fill="black" fill-rule="nonzero" />
<path d="
M20.55 159.17
L20.55 162.38
L19.09 162.38
L20.55 159.17
Z
M16.65 157.74
C16.21 157.74 15.85 157.91 15.59 158.26
C15.32 158.60 15.16 159.12 15.12 159.80
L15.71 159.89
C15.71 159.43 15.80 159.08 15.97 158.83
C16.14 158.59 16.36 158.46 16.63 158.46
C16.87 158.46 17.08 158.58 17.25 158.81
C17.42 159.03 17.51 159.33 17.51 159.69
C17.51 160.01 17.43 160.35 17.26 160.71
C17.09 161.07 16.74 161.59 16.21 162.26
C15.75 162.83 15.43 163.33 15.26 163.75
C15.09 164.17 15.00 164.55 15.01 164.89
L18.10 164.89
L18.10 164.05
L15.81 164.05
C15.87 163.89 15.95 163.73 16.05 163.57
C16.15 163.42 16.37 163.12 16.72 162.68
C17.25 161.99 17.62 161.43 17.81 161.02
C18.00 160.60 18.09 160.16 18.09 159.71
C18.09 159.20 17.97 158.74 17.73 158.34
C17.48 157.94 17.12 157.74 16.65 157.74
Z
M20.66 157.77
L18.52 162.38
L18.52 163.19
L20.55 163.19
L20.55 164.89
L21.12 164.89
L21.12 163.19
L21.76 163.19
L21.76 162.38
L21.12 162.38
L21.12 157.77
Z
" fill="black" fill-rule="nonzero" />
<path d="
M16.65 169.64
C16.21 169.64 15.85 169.82 15.59 170.16
C15.32 170.51 15.16 171.02 15.12 171.70
L15.71 171.80
C15.71 171.34 15.80 170.98 15.97 170.74
C16.14 170.49 16.36 170.37 16.63 170.37
C16.87 170.37 17.08 170.48 17.25 170.71
C17.42 170.94 17.51 171.23 17.51 171.60
C17.51 171.91 17.43 172.25 17.26 172.62
C17.09 172.98 16.74 173.50 16.21 174.16
C15.75 174.74 15.43 175.23 15.26 175.65
C15.09 176.08 15.00 176.46 15.01 176.80
L18.10 176.80
L18.10 175.96
L15.81 175.96
C15.87 175.80 15.95 175.64 16.05 175.48
C16.15 175.32 16.37 175.02 16.72 174.59
C17.25 173.89 17.62 173.34 17.81 172.92
C18.00 172.51 18.09 172.07 18.09 171.62
C18.09 171.11 17.97 170.65 17.73 170.25
C17.48 169.85 17.12 169.64 16.65 169.64
Z
M20.28 169.64
C19.84 169.64 19.48 169.82 19.22 170.16
C18.95 170.51 18.79 171.02 18.75 171.70
L19.34 171.80
C19.34 171.34 19.43 170.98 19.60 170.74
C19.77 170.49 19.99 170.37 20.26 170.37
C20.50 170.37 20.71 170.48 20.88 170.71
C21.05 170.94 21.14 171.23 21.14 171.60
C21.14 171.91 21.06 172.25 20.89 172.62
C20.72 172.98 20.37 173.50 19.84 174.16
C19.38 174.74 19.06 175.23 18.89 175.65
C18.72 176.08 18.64 176.46 18.64 176.80
L21.73 176.80
L21.73 175.96
L19.44 175.96
C19.50 175.80 19.58 175.64 19.68 175.48
C19.78 175.32 20.00 175.02 20.35 174.59
C20.88 173.89 21.25 173.34 21.44 172.92
C21.63 172.51 21.73 172.07 21.73 171.62
C21.73 171.11 21.60 170.65 21.36 170.25
C21.11 169.85 20.75 169.64 20.28 169.64
Z
" fill="black" fill-rule="nonzero" />
<path d="
M16.65 181.41
C16.16 181.41 15.77 181.60 15.47 181.98
C15.19 182.35 15.02 182.89 14.98 183.60
L14.97 183.73
L15.10 183.75
L15.69 183.84
L15.85 183.87
L15.85 183.70
C15.85 183.27 15.93 182.95 16.09 182.72
C16.23 182.52 16.41 182.42 16.62 182.42
C16.62 182.42 16.62 182.42 16.63 182.42
C16.63 182.42 16.63 182.42 16.63 182.42
C16.83 182.42 17.00 182.51 17.14 182.70
C17.29 182.90 17.37 183.17 17.37 183.50
C17.37 183.80 17.29 184.12 17.13 184.46
C16.97 184.82 16.62 185.32 16.10 185.98
C15.63 186.56 15.31 187.07 15.13 187.51
C14.95 187.95 14.86 188.34 14.87 188.70
L14.87 188.84
L18.24 188.84
L18.24 188.70
L18.24 187.86
L18.24 187.72
L16.03 187.72
C16.07 187.63 16.12 187.55 16.17 187.46
C16.27 187.31 16.49 187.01 16.83 186.58
C17.37 185.88 17.74 185.31 17.94 184.89
C18.14 184.45 18.24 184.00 18.24 183.52
C18.24 182.98 18.11 182.50 17.85 182.08
C17.58 181.63 17.17 181.41 16.65 181.41
Z
M20.39 181.41
L20.36 181.51
C20.27 181.80 20.10 182.11 19.87 182.42
C19.64 182.74 19.37 183.00 19.07 183.22
L19.01 183.26
L19.01 183.34
L19.01 184.18
L19.01 184.42
L19.22 184.31
C19.41 184.20 19.63 184.04 19.86 183.83
C19.97 183.73 20.06 183.63 20.15 183.53
L20.15 183.53
L20.15 188.70
L20.15 188.84
L21.01 188.84
L21.01 188.70
L21.01 181.55
L21.01 181.41
Z
" fill="white" fill-rule="nonzero" />
<path d="
M20.24 194.26
C20.25 194.26 20.25 194.26 20.25 194.26
C20.25 194.26 20.25 194.26 20.25 194.26
C20.43 194.26 20.60 194.38 20.75 194.63
C20.92 194.90 21.00 195.27 21.00 195.76
C21.00 196.24 20.92 196.61 20.76 196.87
C20.62 197.10 20.44 197.22 20.24 197.22
C20.24 197.22 20.24 197.22 20.24 197.22
C20.24 197.22 20.23 197.22 20.23 197.22
C20.03 197.22 19.85 197.10 19.69 196.87
C19.53 196.61 19.44 196.27 19.44 195.83
C19.44 195.34 19.53 194.95 19.71 194.66
C19.87 194.39 20.05 194.26 20.24 194.26
Z
M16.76 193.25
L16.73 193.35
C16.64 193.65 16.47 193.95 16.24 194.27
C16.01 194.58 15.74 194.85 15.44 195.07
L15.38 195.11
L15.38 195.18
L15.38 196.03
L15.38 196.27
L15.59 196.15
C15.78 196.04 16.00 195.88 16.23 195.67
C16.34 195.57 16.43 195.48 16.52 195.38
L16.52 195.38
L16.52 200.55
L16.52 200.69
L17.38 200.69
L17.38 200.55
L17.38 193.39
L17.38 193.25
Z
M20.18 193.25
C19.72 193.25 19.34 193.49 19.02 193.96
C18.72 194.41 18.57 195.03 18.57 195.80
C18.57 196.55 18.71 197.15 19.00 197.59
C19.31 198.04 19.68 198.27 20.11 198.27
C20.35 198.27 20.59 198.18 20.82 197.99
C20.90 197.91 20.98 197.83 21.06 197.74
L21.06 197.74
C21.04 198.13 20.99 198.48 20.91 198.80
C20.81 199.19 20.68 199.46 20.54 199.61
C20.42 199.74 20.28 199.81 20.13 199.81
C20.13 199.81 20.12 199.81 20.12 199.81
C20.12 199.81 20.12 199.81 20.12 199.81
C19.96 199.81 19.82 199.73 19.72 199.59
C19.61 199.42 19.53 199.16 19.49 198.81
L19.47 198.66
L19.33 198.68
L18.77 198.76
L18.64 198.78
L18.65 198.91
C18.70 199.51 18.85 199.98 19.11 200.30
C19.38 200.64 19.71 200.81 20.11 200.81
C20.46 200.81 20.78 200.67 21.06 200.39
C21.33 200.13 21.54 199.71 21.70 199.15
C21.85 198.59 21.93 197.82 21.93 196.83
C21.93 195.94 21.85 195.25 21.71 194.77
C21.57 194.28 21.36 193.91 21.09 193.65
C20.81 193.39 20.51 193.25 20.18 193.25
Z
" fill="white" fill-rule="nonzero" />
<path d="
M20.55 206.73
L20.55 209.94
L19.09 209.94
L20.55 206.73
Z
M20.66 205.33
L18.52 209.94
L18.52 210.74
L20.55 210.74
L20.55 212.45
L21.12 212.45
L21.12 210.74
L21.76 210.74
L21.76 209.94
L21.12 209.94
L21.12 205.33
Z
M16.55 205.30
C16.19 205.30 15.88 205.45 15.63 205.76
C15.38 206.08 15.21 206.54 15.14 207.14
L15.71 207.30
C15.75 206.87 15.85 206.55 16.00 206.34
C16.15 206.12 16.34 206.02 16.56 206.02
C16.77 206.02 16.95 206.12 17.10 206.32
C17.25 206.52 17.32 206.79 17.32 207.12
C17.32 207.49 17.23 207.78 17.06 207.99
C16.88 208.21 16.65 208.32 16.37 208.32
L16.28 208.31
L16.21 209.08
C16.37 209.01 16.51 208.98 16.62 208.98
C16.87 208.98 17.09 209.11 17.27 209.36
C17.44 209.61 17.53 209.95 17.53 210.36
C17.53 210.80 17.44 211.16 17.24 211.44
C17.05 211.71 16.83 211.85 16.56 211.85
C16.08 211.85 15.78 211.39 15.66 210.45
L15.08 210.57
C15.12 211.18 15.28 211.67 15.56 212.03
C15.83 212.39 16.17 212.58 16.57 212.58
C17.00 212.58 17.37 212.37 17.68 211.95
C17.99 211.54 18.14 211.00 18.14 210.35
C18.14 210.04 18.10 209.76 18.03 209.51
C17.95 209.26 17.86 209.06 17.73 208.91
C17.61 208.76 17.46 208.66 17.27 208.59
C17.47 208.45 17.63 208.25 17.74 208.00
C17.86 207.75 17.91 207.47 17.91 207.14
C17.91 206.61 17.78 206.17 17.52 205.82
C17.25 205.47 16.93 205.30 16.55 205.30
Z
" fill="black" fill-rule="nonzero" />
<path d="
M28.67 26.57
L28.64 26.67
C28.54 26.97 28.38 27.27 28.15 27.59
C27.91 27.90 27.65 28.17 27.34 28.39
L27.28 28.43
L27.28 28.50
L27.28 29.35
L27.28 29.59
L27.49 29.47
C27.69 29.36 27.90 29.20 28.13 28.99
C28.24 28.90 28.34 28.80 28.43 28.70
L28.43 28.70
L28.43 33.87
L28.43 34.01
L29.29 34.01
L29.29 33.87
L29.29 26.72
L29.29 26.57
Z
M32.09 26.57
C31.68 26.57 31.34 26.75 31.06 27.09
C30.79 27.42 30.61 27.91 30.54 28.54
L30.52 28.67
L30.64 28.70
L31.21 28.85
L31.37 28.90
L31.39 28.73
C31.43 28.32 31.52 28.03 31.65 27.83
C31.77 27.66 31.92 27.58 32.09 27.58
C32.09 27.58 32.09 27.58 32.10 27.58
C32.10 27.58 32.10 27.58 32.10 27.58
C32.26 27.58 32.40 27.66 32.52 27.82
C32.65 28.00 32.72 28.24 32.72 28.54
C32.72 28.87 32.64 29.13 32.48 29.32
C32.34 29.50 32.15 29.59 31.91 29.60
L31.91 29.60
L31.83 29.59
L31.69 29.57
L31.67 29.72
L31.61 30.48
L31.59 30.71
L31.59 30.71
L31.80 30.63
C31.95 30.57 32.06 30.54 32.15 30.54
C32.15 30.54 32.15 30.54 32.15 30.54
C32.15 30.54 32.16 30.54 32.16 30.54
C32.36 30.54 32.54 30.65 32.69 30.86
C32.85 31.09 32.93 31.39 32.93 31.78
C32.93 32.19 32.84 32.52 32.66 32.77
C32.50 33.01 32.31 33.13 32.10 33.13
C32.10 33.13 32.10 33.13 32.10 33.13
C32.10 33.13 32.10 33.13 32.10 33.13
C31.91 33.13 31.75 33.03 31.63 32.84
C31.49 32.63 31.39 32.30 31.33 31.85
L31.31 31.70
L31.17 31.73
L30.59 31.85
L30.47 31.87
L30.48 32.00
C30.52 32.64 30.69 33.15 30.98 33.53
C31.29 33.93 31.66 34.13 32.11 34.13
C32.58 34.13 32.99 33.91 33.33 33.45
C33.66 33.01 33.82 32.45 33.82 31.76
C33.82 31.44 33.78 31.15 33.70 30.89
C33.62 30.62 33.51 30.40 33.38 30.24
C33.29 30.13 33.19 30.04 33.07 29.97
L33.07 29.97
C33.21 29.84 33.32 29.67 33.41 29.48
C33.53 29.21 33.59 28.91 33.59 28.56
C33.59 28.00 33.45 27.53 33.16 27.15
C32.87 26.77 32.51 26.57 32.09 26.57
Z
" fill="white" fill-rule="nonzero" />
<path d="
M32.45 52.02
L32.45 55.23
L30.99 55.23
L32.45 52.02
Z
M28.77 50.59
C28.67 50.90 28.50 51.22 28.26 51.55
C28.02 51.87 27.74 52.15 27.42 52.38
L27.42 53.22
C27.61 53.12 27.81 52.97 28.04 52.76
C28.26 52.56 28.44 52.36 28.57 52.17
L28.57 57.74
L29.15 57.74
L29.15 50.59
Z
M32.56 50.62
L30.43 55.23
L30.43 56.04
L32.45 56.04
L32.45 57.74
L33.03 57.74
L33.03 56.04
L33.66 56.04
L33.66 55.23
L33.03 55.23
L33.03 50.62
Z
" fill="black" fill-rule="nonzero" />
<path d="
M28.67 62.35
L28.64 62.45
C28.54 62.75 28.38 63.05 28.15 63.37
C27.91 63.68 27.65 63.95 27.34 64.17
L27.28 64.21
L27.28 64.28
L27.28 65.13
L27.28 65.37
L27.49 65.25
C27.69 65.14 27.90 64.98 28.13 64.77
C28.24 64.68 28.34 64.58 28.43 64.48
L28.43 64.48
L28.43 69.65
L28.43 69.79
L29.29 69.79
L29.29 69.65
L29.29 62.49
L29.29 62.35
Z
M32.30 62.35
L32.27 62.45
C32.17 62.75 32.01 63.05 31.78 63.37
C31.54 63.68 31.28 63.95 30.97 64.17
L30.91 64.21
L30.91 64.28
L30.91 65.13
L30.91 65.37
L31.12 65.25
C31.32 65.14 31.53 64.98 31.76 64.77
C31.87 64.68 31.97 64.58 32.06 64.48
L32.06 64.48
L32.06 69.65
L32.06 69.79
L32.92 69.79
L32.92 69.65
L32.92 62.49
L32.92 62.35
Z
" fill="white" fill-rule="nonzero" />
<path d="
M32.18 125.27
C32.43 125.27 32.65 125.40 32.82 125.68
C33.00 125.96 33.09 126.35 33.09 126.86
C33.09 127.37 33.00 127.78 32.82 128.07
C32.64 128.37 32.44 128.52 32.22 128.52
C31.96 128.52 31.73 128.36 31.54 128.05
C31.35 127.73 31.25 127.32 31.25 126.81
C31.25 126.33 31.34 125.96 31.53 125.68
C31.71 125.40 31.93 125.27 32.18 125.27
Z
M28.77 121.96
C28.67 122.27 28.50 122.59 28.26 122.92
C28.02 123.25 27.74 123.52 27.42 123.75
L27.42 124.59
C27.61 124.49 27.81 124.34 28.04 124.14
C28.26 123.93 28.44 123.73 28.57 123.54
L28.57 129.11
L29.15 129.11
L29.15 121.96
Z
M32.26 121.96
C31.77 121.96 31.37 122.25 31.06 122.84
C30.74 123.42 30.59 124.40 30.59 125.78
C30.59 127.02 30.74 127.91 31.05 128.44
C31.35 128.97 31.74 129.23 32.21 129.23
C32.47 129.23 32.71 129.14 32.93 128.96
C33.15 128.77 33.33 128.49 33.47 128.10
C33.60 127.71 33.67 127.28 33.67 126.81
C33.67 126.10 33.54 125.54 33.26 125.12
C32.98 124.70 32.66 124.49 32.29 124.49
C32.07 124.49 31.86 124.57 31.66 124.73
C31.46 124.89 31.29 125.13 31.16 125.44
C31.16 124.57 31.25 123.91 31.42 123.46
C31.63 122.94 31.89 122.68 32.23 122.68
C32.44 122.68 32.63 122.79 32.78 123.02
C32.89 123.18 32.97 123.44 33.02 123.80
L33.59 123.73
C33.54 123.16 33.39 122.72 33.15 122.42
C32.91 122.11 32.62 121.96 32.26 121.96
Z
" fill="black" fill-rule="nonzero" />
<path d="
M30.33 158.58
C30.33 158.58 30.33 158.58 30.33 158.58
C30.34 158.58 30.34 158.58 30.34 158.58
C30.58 158.58 30.80 158.70 31.00 158.96
C31.20 159.22 31.30 159.58 31.30 160.05
C31.30 160.53 31.20 160.89 31.01 161.14
C30.82 161.38 30.59 161.50 30.32 161.50
C30.32 161.50 30.32 161.50 30.32 161.50
C30.32 161.50 30.32 161.50 30.32 161.50
C30.05 161.50 29.81 161.38 29.61 161.14
C29.41 160.89 29.31 160.55 29.31 160.13
C29.31 159.65 29.41 159.27 29.63 158.99
C29.84 158.71 30.08 158.58 30.33 158.58
Z
M30.25 157.58
C29.70 157.58 29.24 157.81 28.86 158.27
C28.48 158.72 28.29 159.33 28.29 160.10
C28.29 160.85 28.47 161.44 28.84 161.88
C29.21 162.32 29.65 162.54 30.16 162.54
C30.45 162.54 30.73 162.45 31.00 162.27
C31.14 162.18 31.26 162.07 31.37 161.95
L31.37 161.95
C31.35 162.36 31.29 162.73 31.18 163.05
C31.06 163.44 30.91 163.70 30.74 163.85
C30.57 163.99 30.38 164.05 30.18 164.05
C30.18 164.05 30.18 164.05 30.18 164.05
C30.18 164.05 30.18 164.05 30.18 164.05
C29.96 164.05 29.78 163.98 29.65 163.83
C29.51 163.66 29.41 163.41 29.36 163.06
L29.34 162.93
L29.21 162.94
L28.52 163.02
L28.38 163.03
L28.40 163.17
C28.46 163.77 28.65 164.23 28.97 164.56
C29.29 164.88 29.69 165.05 30.17 165.05
C30.59 165.05 30.97 164.92 31.30 164.65
C31.64 164.38 31.90 163.97 32.09 163.41
C32.28 162.86 32.37 162.10 32.37 161.12
C32.37 160.23 32.28 159.55 32.11 159.07
C31.93 158.59 31.67 158.22 31.34 157.96
C31.01 157.71 30.64 157.58 30.25 157.58
Z
" fill="white" fill-rule="nonzero" />
<path d="
M32.11 170.31
C32.40 170.31 32.63 170.50 32.80 170.90
C32.98 171.29 33.07 172.06 33.07 173.22
C33.07 174.37 32.98 175.14 32.81 175.54
C32.63 175.94 32.41 176.14 32.15 176.14
C31.87 176.14 31.65 175.94 31.47 175.55
C31.29 175.15 31.20 174.38 31.20 173.22
C31.20 172.08 31.29 171.30 31.46 170.91
C31.64 170.51 31.86 170.31 32.11 170.31
Z
M28.55 169.58
C28.11 169.58 27.76 169.76 27.49 170.10
C27.22 170.45 27.07 170.96 27.03 171.64
L27.62 171.74
C27.62 171.28 27.70 170.92 27.87 170.68
C28.05 170.43 28.26 170.31 28.53 170.31
C28.78 170.31 28.99 170.42 29.16 170.65
C29.33 170.88 29.41 171.17 29.41 171.54
C29.41 171.85 29.33 172.19 29.16 172.55
C29.00 172.92 28.65 173.43 28.11 174.10
C27.65 174.68 27.34 175.17 27.17 175.59
C26.99 176.01 26.91 176.40 26.92 176.74
L30.01 176.74
L30.01 175.89
L27.71 175.89
C27.78 175.74 27.86 175.58 27.96 175.42
C28.06 175.26 28.28 174.96 28.62 174.52
C29.16 173.83 29.52 173.28 29.71 172.86
C29.90 172.44 30.00 172.01 30.00 171.56
C30.00 171.04 29.88 170.59 29.63 170.19
C29.39 169.78 29.03 169.58 28.55 169.58
Z
M32.14 169.58
C31.64 169.58 31.26 169.89 31.00 170.51
C30.74 171.12 30.61 172.03 30.61 173.22
C30.61 174.56 30.76 175.50 31.04 176.04
C31.32 176.58 31.69 176.86 32.13 176.86
C32.64 176.86 33.02 176.55 33.28 175.93
C33.53 175.31 33.66 174.41 33.66 173.22
C33.66 171.90 33.51 170.93 33.20 170.33
C32.94 169.83 32.59 169.58 32.14 169.58
Z
" fill="black" fill-rule="nonzero" />
<path d="
M28.67 181.41
L28.64 181.51
C28.54 181.80 28.38 182.11 28.15 182.42
C27.91 182.74 27.65 183.00 27.34 183.22
L27.28 183.26
L27.28 183.34
L27.28 184.18
L27.28 184.42
L27.49 184.31
C27.69 184.20 27.90 184.04 28.13 183.83
C28.24 183.73 28.34 183.63 28.43 183.53
L28.43 183.53
L28.43 188.70
L28.43 188.84
L29.29 188.84
L29.29 188.70
L29.29 181.55
L29.29 181.41
Z
M30.51 181.53
L30.51 181.67
L30.51 182.51
L30.51 182.65
L32.70 182.65
C32.45 183.12 32.21 183.67 31.99 184.30
C31.74 185.03 31.54 185.79 31.39 186.59
C31.25 187.39 31.17 188.10 31.16 188.70
L31.16 188.84
L31.90 188.84
L32.03 188.84
L32.04 188.71
C32.09 187.57 32.29 186.41 32.62 185.25
C32.96 184.09 33.35 183.15 33.80 182.43
L33.82 182.39
L33.82 182.35
L33.82 181.67
L33.82 181.53
Z
" fill="white" fill-rule="nonzero" />
<path d="
M32.15 194.11
C32.35 194.11 32.53 194.22 32.68 194.43
C32.84 194.64 32.91 194.92 32.91 195.25
C32.91 195.57 32.84 195.84 32.69 196.04
C32.54 196.25 32.36 196.35 32.15 196.35
C31.94 196.35 31.76 196.24 31.61 196.04
C31.46 195.83 31.39 195.55 31.39 195.20
C31.39 194.89 31.46 194.63 31.61 194.42
C31.76 194.22 31.94 194.11 32.15 194.11
Z
M32.14 197.06
C32.40 197.06 32.63 197.20 32.82 197.46
C33.01 197.73 33.10 198.08 33.10 198.52
C33.10 198.95 33.01 199.30 32.83 199.56
C32.64 199.82 32.42 199.95 32.15 199.95
C31.89 199.95 31.67 199.82 31.48 199.55
C31.29 199.28 31.20 198.93 31.20 198.49
C31.20 198.07 31.29 197.73 31.47 197.46
C31.65 197.20 31.88 197.06 32.14 197.06
Z
M28.77 193.39
C28.67 193.71 28.50 194.02 28.26 194.35
C28.02 194.68 27.74 194.96 27.42 195.18
L27.42 196.03
C27.61 195.92 27.81 195.77 28.04 195.57
C28.26 195.37 28.44 195.17 28.57 194.97
L28.57 200.55
L29.15 200.55
L29.15 193.39
Z
M32.14 193.39
C31.76 193.39 31.44 193.56 31.18 193.90
C30.92 194.24 30.80 194.69 30.80 195.23
C30.80 195.59 30.86 195.89 30.97 196.13
C31.09 196.37 31.27 196.55 31.50 196.68
C31.22 196.79 31.00 197.00 30.85 197.31
C30.69 197.62 30.61 198.02 30.61 198.49
C30.61 199.14 30.76 199.67 31.05 200.07
C31.35 200.47 31.71 200.67 32.15 200.67
C32.59 200.67 32.95 200.47 33.25 200.07
C33.54 199.67 33.69 199.15 33.69 198.52
C33.69 198.06 33.61 197.67 33.46 197.36
C33.31 197.05 33.09 196.82 32.81 196.68
C33.04 196.55 33.21 196.37 33.33 196.13
C33.44 195.89 33.50 195.60 33.50 195.26
C33.50 194.71 33.37 194.26 33.11 193.91
C32.85 193.57 32.53 193.39 32.14 193.39
Z
" fill="black" fill-rule="nonzero" />
<path d="
M43.47 29.24
L43.47 29.24
L43.47 29.24
C43.47 29.24 43.47 29.24 43.47 29.24
Z
M40.57 26.58
L40.54 26.67
C40.45 26.97 40.29 27.28 40.05 27.59
C39.82 27.91 39.55 28.17 39.25 28.39
L39.19 28.43
L39.19 28.51
L39.19 29.35
L39.19 29.59
L39.19 29.59
L39.40 29.47
C39.59 29.37 39.81 29.21 40.04 29.00
C40.15 28.90 40.25 28.80 40.33 28.70
L40.33 28.70
L40.33 33.87
L40.33 34.01
L41.19 34.01
L41.19 33.87
L41.19 26.72
L41.19 26.58
Z
M42.95 26.70
L42.94 26.83
L42.48 30.48
L42.46 30.62
L42.59 30.64
L43.13 30.75
L43.25 30.77
L43.29 30.66
C43.37 30.47 43.48 30.32 43.61 30.21
C43.73 30.11 43.87 30.06 44.01 30.06
C44.01 30.06 44.01 30.06 44.01 30.06
C44.01 30.06 44.01 30.06 44.01 30.06
C44.25 30.06 44.45 30.18 44.61 30.42
C44.78 30.68 44.87 31.04 44.87 31.52
C44.87 32.04 44.78 32.44 44.60 32.73
C44.43 33.00 44.24 33.13 44.02 33.13
C44.01 33.13 44.01 33.13 44.01 33.13
C44.01 33.13 44.01 33.13 44.01 33.13
C43.84 33.13 43.69 33.04 43.55 32.85
C43.40 32.65 43.31 32.34 43.26 31.91
L43.25 31.77
L43.10 31.79
L42.50 31.86
L42.37 31.88
L42.38 32.01
C42.42 32.66 42.59 33.18 42.89 33.55
C43.19 33.94 43.57 34.13 44.02 34.13
C44.56 34.13 44.99 33.86 45.31 33.32
C45.61 32.80 45.76 32.18 45.76 31.45
C45.76 30.72 45.61 30.13 45.30 29.69
C44.98 29.23 44.60 29.01 44.16 29.01
C43.92 29.01 43.69 29.08 43.47 29.24
L43.47 29.24
L43.66 27.82
L45.54 27.82
L45.54 27.68
L45.54 26.84
L45.54 26.70
Z
" fill="white" fill-rule="nonzero" />
<path d="
M42.27 38.73
C41.73 38.73 41.30 38.90 40.97 39.24
C40.64 39.58 40.44 40.09 40.39 40.76
L41.12 40.85
C41.12 40.40 41.23 40.05 41.44 39.81
C41.65 39.56 41.92 39.44 42.25 39.44
C42.56 39.44 42.82 39.56 43.03 39.78
C43.23 40.01 43.34 40.30 43.34 40.66
C43.34 40.97 43.24 41.30 43.03 41.66
C42.83 42.02 42.39 42.53 41.73 43.19
C41.17 43.76 40.78 44.25 40.56 44.66
C40.35 45.08 40.25 45.46 40.26 45.79
L44.07 45.79
L44.07 44.96
L41.24 44.96
C41.32 44.80 41.42 44.65 41.54 44.49
C41.67 44.33 41.94 44.04 42.36 43.61
C43.02 42.92 43.47 42.38 43.71 41.96
C43.95 41.55 44.06 41.12 44.06 40.68
C44.06 40.17 43.91 39.72 43.61 39.32
C43.31 38.93 42.86 38.73 42.27 38.73
Z
" fill="black" fill-rule="nonzero" />
<path d="
M40.68 62.49
C40.58 62.81 40.41 63.12 40.17 63.45
C39.92 63.78 39.65 64.06 39.33 64.28
L39.33 65.13
C39.52 65.02 39.72 64.87 39.94 64.67
C40.17 64.47 40.34 64.27 40.48 64.07
L40.48 69.65
L41.05 69.65
L41.05 62.49
Z
M44.09 62.49
C43.65 62.49 43.30 62.67 43.03 63.01
C42.76 63.36 42.60 63.87 42.56 64.55
L43.15 64.65
C43.15 64.19 43.24 63.83 43.41 63.59
C43.58 63.34 43.80 63.22 44.07 63.22
C44.32 63.22 44.52 63.33 44.69 63.56
C44.86 63.79 44.95 64.09 44.95 64.45
C44.95 64.76 44.87 65.10 44.70 65.47
C44.53 65.83 44.18 66.35 43.65 67.01
C43.19 67.59 42.87 68.08 42.70 68.50
C42.53 68.93 42.45 69.31 42.45 69.65
L45.54 69.65
L45.54 68.81
L43.25 68.81
C43.31 68.65 43.39 68.49 43.49 68.33
C43.59 68.17 43.81 67.87 44.16 67.44
C44.69 66.74 45.06 66.19 45.25 65.77
C45.44 65.36 45.54 64.92 45.54 64.47
C45.54 63.96 45.41 63.50 45.17 63.10
C44.92 62.70 44.56 62.49 44.09 62.49
Z
" fill="black" fill-rule="nonzero" />
<path d="
M43.47 160.20
L43.47 160.20
L43.47 160.20
C43.47 160.20 43.47 160.20 43.47 160.20
Z
M40.46 157.54
C39.97 157.54 39.58 157.73 39.29 158.11
C39.00 158.48 38.83 159.02 38.79 159.73
L38.78 159.86
L38.91 159.88
L39.50 159.97
L39.67 160.00
L39.67 159.83
C39.66 159.40 39.74 159.07 39.90 158.85
C40.04 158.65 40.22 158.54 40.43 158.54
C40.43 158.54 40.44 158.54 40.44 158.54
C40.44 158.54 40.44 158.54 40.44 158.54
C40.64 158.54 40.81 158.64 40.95 158.83
C41.10 159.03 41.18 159.30 41.18 159.63
C41.18 159.92 41.10 160.24 40.94 160.59
C40.78 160.94 40.44 161.45 39.91 162.11
C39.44 162.69 39.12 163.20 38.94 163.63
C38.76 164.07 38.67 164.47 38.68 164.83
L38.69 164.97
L42.06 164.97
L42.06 164.83
L42.06 163.99
L42.06 163.85
L39.84 163.85
C39.88 163.76 39.93 163.67 39.98 163.59
C40.08 163.43 40.30 163.14 40.64 162.71
C41.18 162.00 41.55 161.44 41.75 161.01
C41.95 160.58 42.05 160.12 42.05 159.65
C42.05 159.11 41.92 158.63 41.66 158.21
C41.39 157.76 40.99 157.54 40.46 157.54
Z
M42.95 157.66
L42.94 157.79
L42.48 161.45
L42.46 161.58
L42.59 161.60
L43.13 161.71
L43.25 161.73
L43.29 161.62
C43.37 161.43 43.48 161.28 43.61 161.17
C43.73 161.07 43.87 161.02 44.01 161.02
C44.01 161.02 44.01 161.02 44.01 161.02
C44.01 161.02 44.01 161.02 44.01 161.02
C44.25 161.02 44.45 161.14 44.61 161.38
C44.78 161.64 44.87 162.00 44.87 162.48
C44.87 163.00 44.78 163.40 44.60 163.69
C44.43 163.96 44.24 164.09 44.02 164.09
C44.01 164.09 44.01 164.09 44.01 164.09
C44.01 164.09 44.01 164.09 44.01 164.09
C43.84 164.09 43.69 164.00 43.55 163.81
C43.40 163.61 43.31 163.30 43.26 162.87
L43.25 162.73
L43.10 162.75
L42.50 162.82
L42.37 162.84
L42.38 162.97
C42.42 163.62 42.59 164.14 42.89 164.51
C43.19 164.90 43.57 165.09 44.02 165.09
C44.56 165.09 44.99 164.82 45.31 164.28
C45.61 163.76 45.76 163.14 45.76 162.42
C45.76 161.68 45.61 161.09 45.30 160.65
C44.98 160.20 44.60 159.97 44.16 159.97
C43.92 159.97 43.69 160.04 43.47 160.20
L43.47 160.20
L43.66 158.78
L45.54 158.78
L45.54 158.64
L45.54 157.80
L45.54 157.66
Z
" fill="white" fill-rule="nonzero" />
<path d="
M40.46 169.44
C39.97 169.44 39.58 169.63 39.29 170.01
C39.00 170.38 38.83 170.92 38.79 171.63
L38.78 171.76
L38.91 171.78
L39.50 171.87
L39.67 171.90
L39.67 171.73
C39.66 171.30 39.74 170.98 39.90 170.76
C40.04 170.55 40.22 170.45 40.43 170.45
C40.43 170.45 40.44 170.45 40.44 170.45
C40.44 170.45 40.44 170.45 40.44 170.45
C40.64 170.45 40.81 170.54 40.95 170.73
C41.10 170.94 41.18 171.20 41.18 171.53
C41.18 171.83 41.10 172.15 40.94 172.49
C40.78 172.85 40.44 173.35 39.91 174.01
C39.44 174.59 39.12 175.10 38.94 175.54
C38.76 175.98 38.67 176.38 38.68 176.74
L38.69 176.87
L42.06 176.87
L42.06 176.73
L42.06 175.89
L42.06 175.75
L39.84 175.75
C39.88 175.66 39.93 175.58 39.98 175.49
C40.08 175.34 40.30 175.04 40.64 174.61
C41.18 173.91 41.55 173.34 41.75 172.92
C41.95 172.48 42.05 172.03 42.05 171.55
C42.05 171.02 41.92 170.53 41.66 170.11
C41.39 169.66 40.99 169.44 40.46 169.44
Z
M43.99 169.44
C43.59 169.44 43.24 169.61 42.96 169.96
C42.69 170.29 42.52 170.77 42.44 171.41
L42.43 171.53
L42.54 171.56
L43.12 171.72
L43.28 171.76
L43.29 171.60
C43.33 171.19 43.42 170.89 43.56 170.70
C43.68 170.53 43.83 170.44 44.00 170.44
C44.00 170.44 44.00 170.44 44.00 170.44
C44.00 170.44 44.00 170.44 44.00 170.44
C44.17 170.44 44.31 170.52 44.43 170.69
C44.56 170.87 44.62 171.11 44.62 171.41
C44.62 171.74 44.54 172.00 44.39 172.19
C44.24 172.37 44.05 172.46 43.82 172.46
L43.82 172.46
L43.74 172.45
L43.59 172.44
L43.58 172.58
L43.51 173.35
L43.49 173.58
L43.71 173.49
C43.85 173.43 43.97 173.41 44.06 173.41
C44.06 173.41 44.06 173.41 44.06 173.41
C44.06 173.41 44.06 173.41 44.06 173.41
C44.27 173.41 44.45 173.51 44.59 173.72
C44.75 173.95 44.83 174.26 44.83 174.64
C44.83 175.05 44.74 175.39 44.57 175.64
C44.41 175.88 44.22 175.99 44.01 175.99
C44.01 175.99 44.01 175.99 44.00 175.99
C44.00 175.99 44.00 175.99 44.00 175.99
C43.81 175.99 43.66 175.90 43.53 175.71
C43.39 175.49 43.30 175.16 43.24 174.72
L43.22 174.57
L43.07 174.60
L42.50 174.71
L42.37 174.74
L42.38 174.86
C42.42 175.50 42.59 176.02 42.89 176.40
C43.19 176.80 43.57 177.00 44.01 177.00
C44.49 177.00 44.90 176.77 45.23 176.32
C45.56 175.88 45.72 175.31 45.72 174.63
C45.72 174.31 45.68 174.02 45.61 173.75
C45.53 173.49 45.42 173.27 45.28 173.11
C45.20 173.00 45.09 172.91 44.97 172.84
L44.97 172.84
C45.11 172.70 45.23 172.54 45.31 172.35
C45.43 172.08 45.50 171.77 45.50 171.43
C45.49 170.86 45.35 170.40 45.07 170.02
C44.78 169.63 44.42 169.44 43.99 169.44
Z
" fill="white" fill-rule="nonzero" />
<path d="
M42.61 182.99
L42.61 186.17
L40.81 186.17
L42.61 182.99
Z
M42.74 181.61
L40.11 186.17
L40.11 186.96
L42.61 186.96
L42.61 188.64
L43.32 188.64
L43.32 186.96
L44.10 186.96
L44.10 186.17
L43.32 186.17
L43.32 181.61
Z
" fill="black" fill-rule="nonzero" />
<path d="
M44.05 194.11
C44.26 194.11 44.44 194.22 44.59 194.43
C44.74 194.64 44.82 194.92 44.82 195.25
C44.82 195.57 44.74 195.84 44.60 196.04
C44.45 196.25 44.27 196.35 44.06 196.35
C43.84 196.35 43.66 196.24 43.51 196.04
C43.37 195.83 43.29 195.55 43.29 195.20
C43.29 194.89 43.37 194.63 43.52 194.42
C43.67 194.22 43.84 194.11 44.05 194.11
Z
M44.04 197.06
C44.31 197.06 44.53 197.20 44.72 197.46
C44.91 197.73 45.01 198.08 45.01 198.52
C45.01 198.95 44.92 199.30 44.73 199.56
C44.55 199.82 44.32 199.95 44.06 199.95
C43.80 199.95 43.57 199.82 43.38 199.55
C43.20 199.28 43.10 198.93 43.10 198.49
C43.10 198.07 43.19 197.73 43.38 197.46
C43.56 197.20 43.78 197.06 44.04 197.06
Z
M40.46 193.39
C40.02 193.39 39.67 193.57 39.40 193.91
C39.13 194.26 38.97 194.77 38.93 195.45
L39.52 195.55
C39.52 195.09 39.61 194.73 39.78 194.49
C39.95 194.24 40.17 194.12 40.44 194.12
C40.69 194.12 40.89 194.23 41.06 194.46
C41.23 194.69 41.32 194.99 41.32 195.35
C41.32 195.66 41.24 196.00 41.07 196.37
C40.90 196.73 40.55 197.25 40.02 197.91
C39.56 198.49 39.24 198.98 39.07 199.40
C38.90 199.83 38.82 200.21 38.82 200.55
L41.91 200.55
L41.91 199.71
L39.62 199.71
C39.68 199.55 39.76 199.39 39.86 199.23
C39.96 199.07 40.18 198.77 40.53 198.34
C41.06 197.64 41.43 197.09 41.62 196.67
C41.81 196.26 41.91 195.82 41.91 195.37
C41.91 194.86 41.78 194.40 41.54 194.00
C41.29 193.60 40.93 193.39 40.46 193.39
Z
M44.05 193.39
C43.66 193.39 43.34 193.56 43.09 193.90
C42.83 194.24 42.70 194.69 42.70 195.23
C42.70 195.59 42.76 195.89 42.88 196.13
C43.00 196.37 43.17 196.55 43.40 196.68
C43.13 196.79 42.91 197.00 42.75 197.31
C42.59 197.62 42.52 198.02 42.52 198.49
C42.52 199.14 42.66 199.67 42.96 200.07
C43.25 200.47 43.62 200.67 44.06 200.67
C44.49 200.67 44.86 200.47 45.15 200.07
C45.45 199.67 45.59 199.15 45.59 198.52
C45.59 198.06 45.52 197.67 45.37 197.36
C45.22 197.05 45.00 196.82 44.72 196.68
C44.95 196.55 45.12 196.37 45.23 196.13
C45.35 195.89 45.40 195.60 45.40 195.26
C45.40 194.71 45.27 194.26 45.02 193.91
C44.76 193.57 44.44 193.39 44.05 193.39
Z
" fill="black" fill-rule="nonzero" />
<path d="
M52.36 181.41
C51.88 181.41 51.49 181.60 51.19 181.98
C50.90 182.35 50.74 182.89 50.70 183.60
L50.69 183.73
L50.82 183.75
L51.41 183.84
L51.57 183.87
L51.57 183.70
C51.57 183.27 51.65 182.95 51.80 182.72
C51.94 182.52 52.12 182.42 52.34 182.42
C52.34 182.42 52.34 182.42 52.34 182.42
C52.34 182.42 52.34 182.42 52.35 182.42
C52.55 182.42 52.72 182.51 52.86 182.70
C53.01 182.90 53.08 183.17 53.08 183.50
C53.08 183.80 53.00 184.12 52.85 184.46
C52.69 184.82 52.34 185.32 51.81 185.98
C51.34 186.56 51.02 187.07 50.84 187.51
C50.67 187.95 50.58 188.34 50.59 188.70
L50.59 188.84
L53.96 188.84
L53.96 188.70
L53.96 187.86
L53.96 187.72
L51.74 187.72
C51.79 187.63 51.83 187.55 51.89 187.46
C51.99 187.31 52.20 187.01 52.54 186.58
C53.09 185.88 53.46 185.31 53.65 184.89
C53.85 184.45 53.95 184.00 53.95 183.52
C53.95 182.98 53.82 182.50 53.57 182.08
C53.29 181.63 52.89 181.41 52.36 181.41
Z
M54.32 181.53
L54.32 181.67
L54.32 182.51
L54.32 182.65
L56.51 182.65
C56.26 183.12 56.02 183.67 55.80 184.30
C55.55 185.03 55.35 185.79 55.21 186.59
C55.06 187.39 54.98 188.10 54.98 188.70
L54.97 188.84
L55.71 188.84
L55.84 188.84
L55.85 188.71
C55.90 187.57 56.10 186.41 56.43 185.25
C56.77 184.09 57.16 183.15 57.61 182.43
L57.63 182.39
L57.63 182.35
L57.63 181.67
L57.63 181.53
Z
" fill="white" fill-rule="nonzero" />
<path d="
M55.96 194.26
C55.96 194.26 55.96 194.26 55.96 194.26
C55.97 194.26 55.97 194.26 55.97 194.26
C56.15 194.26 56.32 194.38 56.47 194.63
C56.64 194.90 56.72 195.27 56.72 195.76
C56.72 196.24 56.64 196.61 56.48 196.87
C56.33 197.10 56.16 197.22 55.96 197.22
C55.96 197.22 55.95 197.22 55.95 197.22
C55.95 197.22 55.95 197.22 55.95 197.22
C55.74 197.22 55.56 197.10 55.41 196.87
C55.24 196.61 55.16 196.27 55.16 195.83
C55.16 195.34 55.25 194.95 55.43 194.66
C55.59 194.39 55.77 194.26 55.96 194.26
Z
M52.36 193.25
C51.88 193.25 51.49 193.44 51.19 193.83
C50.90 194.19 50.74 194.73 50.70 195.45
L50.69 195.57
L50.82 195.59
L51.41 195.69
L51.57 195.71
L51.57 195.55
C51.57 195.12 51.65 194.79 51.80 194.57
C51.94 194.36 52.12 194.26 52.34 194.26
C52.34 194.26 52.34 194.26 52.34 194.26
C52.34 194.26 52.34 194.26 52.35 194.26
C52.55 194.26 52.72 194.36 52.86 194.55
C53.01 194.75 53.08 195.02 53.08 195.35
C53.08 195.64 53.00 195.96 52.85 196.31
C52.69 196.66 52.34 197.17 51.81 197.82
C51.34 198.41 51.02 198.92 50.84 199.35
C50.67 199.79 50.58 200.19 50.59 200.55
L50.59 200.69
L53.96 200.69
L53.96 200.55
L53.96 199.71
L53.96 199.56
L51.74 199.56
C51.79 199.48 51.83 199.39 51.89 199.31
C51.99 199.15 52.20 198.86 52.54 198.42
C53.09 197.72 53.46 197.16 53.65 196.73
C53.85 196.30 53.95 195.84 53.95 195.37
C53.95 194.83 53.82 194.35 53.57 193.92
C53.29 193.48 52.89 193.25 52.36 193.25
Z
M55.90 193.25
C55.44 193.25 55.05 193.49 54.74 193.96
C54.44 194.41 54.28 195.03 54.28 195.80
C54.28 196.55 54.43 197.15 54.72 197.59
C55.03 198.04 55.39 198.27 55.82 198.27
C56.07 198.27 56.30 198.18 56.53 197.99
C56.62 197.91 56.70 197.83 56.77 197.74
L56.77 197.74
C56.76 198.13 56.71 198.48 56.62 198.80
C56.52 199.19 56.40 199.46 56.26 199.61
C56.13 199.74 55.99 199.81 55.84 199.81
C55.84 199.81 55.84 199.81 55.84 199.81
C55.84 199.81 55.84 199.81 55.84 199.81
C55.67 199.81 55.54 199.73 55.44 199.59
C55.32 199.42 55.24 199.16 55.20 198.81
L55.19 198.66
L55.04 198.68
L54.49 198.76
L54.36 198.78
L54.37 198.91
C54.42 199.51 54.57 199.98 54.83 200.30
C55.09 200.64 55.43 200.81 55.83 200.81
C56.18 200.81 56.50 200.67 56.78 200.39
C57.05 200.13 57.26 199.71 57.42 199.15
C57.57 198.59 57.64 197.82 57.64 196.83
C57.64 195.94 57.57 195.25 57.43 194.77
C57.29 194.28 57.08 193.91 56.81 193.65
C56.53 193.39 56.23 193.25 55.90 193.25
Z
" fill="white" fill-rule="nonzero" />
<path d="
M55.93 206.02
C56.21 206.02 56.44 206.22 56.62 206.61
C56.79 207.00 56.88 207.78 56.88 208.94
C56.88 210.08 56.79 210.86 56.62 211.25
C56.44 211.65 56.22 211.85 55.96 211.85
C55.68 211.85 55.46 211.65 55.28 211.26
C55.10 210.87 55.01 210.09 55.01 208.94
C55.01 207.79 55.10 207.02 55.27 206.62
C55.45 206.22 55.67 206.02 55.93 206.02
Z
M55.95 205.30
C55.45 205.30 55.07 205.61 54.81 206.22
C54.55 206.84 54.43 207.74 54.43 208.94
C54.43 210.27 54.57 211.21 54.85 211.75
C55.13 212.30 55.50 212.57 55.95 212.57
C56.45 212.57 56.83 212.26 57.09 211.65
C57.34 211.03 57.47 210.13 57.47 208.94
C57.47 207.61 57.32 206.65 57.01 206.05
C56.75 205.55 56.40 205.30 55.95 205.30
Z
M52.27 205.30
C51.91 205.30 51.60 205.45 51.35 205.76
C51.09 206.08 50.93 206.54 50.86 207.14
L51.43 207.30
C51.47 206.87 51.57 206.55 51.72 206.34
C51.87 206.12 52.06 206.02 52.28 206.02
C52.49 206.02 52.67 206.12 52.82 206.32
C52.96 206.52 53.04 206.79 53.04 207.12
C53.04 207.49 52.95 207.78 52.77 207.99
C52.60 208.21 52.37 208.32 52.09 208.32
L52.00 208.31
L51.93 209.08
C52.09 209.01 52.23 208.98 52.33 208.98
C52.59 208.98 52.81 209.11 52.98 209.36
C53.16 209.61 53.25 209.95 53.25 210.36
C53.25 210.80 53.15 211.16 52.96 211.44
C52.77 211.71 52.54 211.85 52.28 211.85
C51.80 211.85 51.49 211.39 51.37 210.45
L50.80 210.57
C50.84 211.18 51.00 211.67 51.27 212.03
C51.55 212.39 51.89 212.58 52.29 212.58
C52.72 212.58 53.09 212.37 53.40 211.95
C53.70 211.54 53.86 211.00 53.86 210.35
C53.86 210.04 53.82 209.76 53.75 209.51
C53.67 209.26 53.57 209.06 53.45 208.91
C53.33 208.76 53.17 208.66 52.99 208.59
C53.19 208.45 53.35 208.25 53.46 208.00
C53.57 207.75 53.63 207.47 53.63 207.14
C53.63 206.61 53.50 206.17 53.23 205.82
C52.97 205.47 52.65 205.30 52.27 205.30
Z
" fill="black" fill-rule="nonzero" />
<path d="
M64.06 26.74
L64.06 26.88
L64.06 27.71
L64.06 27.85
L66.75 27.85
C66.44 28.31 66.16 28.85 65.89 29.47
C65.57 30.19 65.33 30.94 65.15 31.74
C64.97 32.53 64.87 33.23 64.86 33.82
L64.86 33.97
L65.73 33.97
L65.87 33.97
L65.88 33.83
C65.94 32.71 66.18 31.57 66.60 30.43
C67.01 29.28 67.50 28.35 68.04 27.64
L68.07 27.60
L68.07 27.55
L68.07 26.88
L68.07 26.74
Z
" fill="white" fill-rule="nonzero" />
<path d="
M67.83 182.21
C68.11 182.21 68.34 182.41 68.52 182.80
C68.70 183.19 68.79 183.97 68.79 185.13
C68.79 186.27 68.70 187.05 68.52 187.45
C68.35 187.84 68.13 188.04 67.87 188.04
C67.59 188.04 67.36 187.85 67.18 187.45
C67.01 187.06 66.92 186.28 66.92 185.13
C66.92 183.98 67.01 183.21 67.18 182.81
C67.36 182.41 67.57 182.21 67.83 182.21
Z
M64.49 181.49
C64.39 181.80 64.22 182.12 63.98 182.45
C63.74 182.77 63.46 183.05 63.14 183.28
L63.14 184.12
C63.33 184.02 63.53 183.87 63.75 183.66
C63.98 183.46 64.15 183.26 64.29 183.07
L64.29 188.64
L64.86 188.64
L64.86 181.49
Z
M67.86 181.49
C67.36 181.49 66.98 181.80 66.72 182.41
C66.46 183.03 66.33 183.93 66.33 185.13
C66.33 186.46 66.47 187.40 66.76 187.95
C67.04 188.49 67.41 188.76 67.85 188.76
C68.36 188.76 68.74 188.45 68.99 187.84
C69.25 187.22 69.38 186.32 69.38 185.13
C69.38 183.80 69.22 182.84 68.91 182.24
C68.66 181.74 68.30 181.49 67.86 181.49
Z
" fill="black" fill-rule="nonzero" />
<path d="
M68.02 193.25
L67.98 193.35
C67.89 193.65 67.73 193.95 67.49 194.27
C67.26 194.58 66.99 194.85 66.69 195.06
L66.63 195.11
L66.63 195.18
L66.63 196.03
L66.63 196.27
L66.84 196.15
C67.04 196.04 67.25 195.88 67.48 195.67
C67.59 195.57 67.69 195.47 67.78 195.38
L67.78 195.38
L67.78 200.54
L67.78 200.69
L68.63 200.69
L68.63 200.54
L68.63 193.39
L68.63 193.25
Z
M64.17 193.25
C63.77 193.25 63.43 193.42 63.14 193.77
C62.87 194.10 62.70 194.59 62.62 195.22
L62.61 195.34
L62.73 195.38
L63.30 195.53
L63.46 195.57
L63.48 195.41
C63.51 195.00 63.60 194.70 63.74 194.51
C63.86 194.34 64.01 194.25 64.18 194.25
C64.18 194.25 64.18 194.25 64.18 194.25
C64.18 194.25 64.18 194.25 64.18 194.25
C64.35 194.25 64.49 194.33 64.61 194.50
C64.74 194.68 64.80 194.92 64.80 195.22
C64.80 195.55 64.72 195.81 64.57 196.00
C64.42 196.18 64.23 196.27 64.00 196.27
L64.00 196.27
L63.92 196.26
L63.77 196.25
L63.76 196.39
L63.69 197.16
L63.67 197.39
L63.89 197.30
C64.03 197.25 64.15 197.22 64.24 197.22
C64.24 197.22 64.24 197.22 64.24 197.22
C64.24 197.22 64.24 197.22 64.24 197.22
C64.45 197.22 64.63 197.32 64.77 197.53
C64.93 197.76 65.01 198.07 65.01 198.45
C65.01 198.87 64.92 199.20 64.75 199.45
C64.59 199.69 64.40 199.80 64.19 199.80
C64.19 199.80 64.19 199.80 64.19 199.80
C64.18 199.80 64.18 199.80 64.18 199.80
C63.99 199.80 63.84 199.71 63.71 199.52
C63.58 199.30 63.48 198.97 63.42 198.53
L63.40 198.38
L63.25 198.41
L62.68 198.52
L62.56 198.55
L62.56 198.67
C62.60 199.31 62.77 199.83 63.07 200.21
C63.37 200.61 63.75 200.81 64.19 200.81
C64.67 200.81 65.08 200.58 65.41 200.13
C65.74 199.69 65.91 199.13 65.91 198.44
C65.91 198.12 65.87 197.83 65.79 197.56
C65.71 197.30 65.60 197.08 65.47 196.92
C65.38 196.81 65.27 196.72 65.16 196.65
L65.16 196.65
C65.29 196.52 65.41 196.35 65.49 196.16
C65.62 195.89 65.68 195.58 65.68 195.24
C65.68 194.68 65.53 194.21 65.25 193.83
C64.96 193.45 64.60 193.25 64.17 193.25
Z
" fill="white" fill-rule="nonzero" />
<path d="
M67.90 205.30
C67.46 205.30 67.11 205.47 66.84 205.82
C66.57 206.16 66.42 206.67 66.37 207.36
L66.96 207.45
C66.96 206.99 67.05 206.64 67.22 206.39
C67.39 206.14 67.61 206.02 67.88 206.02
C68.13 206.02 68.34 206.14 68.51 206.36
C68.68 206.59 68.76 206.89 68.76 207.25
C68.76 207.57 68.68 207.90 68.51 208.27
C68.35 208.63 67.99 209.15 67.46 209.82
C67.00 210.39 66.68 210.89 66.51 211.31
C66.34 211.73 66.26 212.11 66.26 212.45
L69.35 212.45
L69.35 211.61
L67.06 211.61
C67.12 211.45 67.20 211.29 67.30 211.13
C67.40 210.97 67.63 210.68 67.97 210.24
C68.50 209.55 68.87 208.99 69.06 208.57
C69.25 208.16 69.35 207.72 69.35 207.27
C69.35 206.76 69.22 206.30 68.98 205.90
C68.73 205.50 68.37 205.30 67.90 205.30
Z
M64.17 205.30
C63.81 205.30 63.51 205.45 63.25 205.76
C63.00 206.08 62.84 206.54 62.76 207.14
L63.33 207.30
C63.38 206.87 63.47 206.55 63.62 206.34
C63.78 206.12 63.96 206.02 64.18 206.02
C64.39 206.02 64.57 206.12 64.72 206.32
C64.87 206.52 64.94 206.79 64.94 207.12
C64.94 207.49 64.86 207.78 64.68 207.99
C64.50 208.21 64.27 208.32 63.99 208.32
L63.90 208.31
L63.84 209.08
C64.00 209.01 64.13 208.98 64.24 208.98
C64.50 208.98 64.71 209.11 64.89 209.36
C65.07 209.61 65.15 209.95 65.15 210.36
C65.15 210.80 65.06 211.16 64.87 211.44
C64.67 211.71 64.45 211.85 64.19 211.85
C63.70 211.85 63.40 211.39 63.28 210.45
L62.70 210.57
C62.74 211.18 62.90 211.67 63.18 212.03
C63.46 212.39 63.79 212.58 64.19 212.58
C64.62 212.58 64.99 212.37 65.30 211.95
C65.61 211.54 65.76 211.00 65.76 210.35
C65.76 210.04 65.73 209.76 65.65 209.51
C65.58 209.26 65.48 209.06 65.36 208.91
C65.23 208.76 65.08 208.66 64.89 208.59
C65.10 208.45 65.25 208.25 65.37 208.00
C65.48 207.75 65.53 207.47 65.53 207.14
C65.53 206.61 65.40 206.17 65.14 205.82
C64.87 205.47 64.55 205.30 64.17 205.30
Z
" fill="black" fill-rule="nonzero" />
<path d="
M76.08 193.25
C75.67 193.25 75.33 193.42 75.05 193.77
C74.78 194.10 74.60 194.59 74.53 195.22
L74.51 195.34
L74.63 195.38
L75.20 195.53
L75.36 195.57
L75.38 195.41
C75.42 195.00 75.51 194.70 75.64 194.51
C75.77 194.34 75.91 194.25 76.08 194.25
C76.08 194.25 76.09 194.25 76.09 194.25
C76.09 194.25 76.09 194.25 76.09 194.25
C76.25 194.25 76.39 194.33 76.51 194.50
C76.64 194.68 76.71 194.92 76.71 195.22
C76.71 195.55 76.63 195.81 76.47 196.00
C76.33 196.18 76.14 196.27 75.90 196.27
L75.90 196.27
L75.82 196.26
L75.68 196.25
L75.67 196.39
L75.60 197.16
L75.58 197.39
L75.79 197.30
C75.94 197.25 76.05 197.22 76.15 197.22
C76.15 197.22 76.15 197.22 76.15 197.22
C76.15 197.22 76.15 197.22 76.15 197.22
C76.36 197.22 76.53 197.32 76.68 197.53
C76.84 197.76 76.92 198.07 76.92 198.45
C76.92 198.87 76.83 199.20 76.65 199.45
C76.49 199.69 76.31 199.80 76.09 199.80
C76.09 199.80 76.09 199.80 76.09 199.80
C76.09 199.80 76.09 199.80 76.09 199.80
C75.90 199.80 75.74 199.71 75.62 199.52
C75.48 199.30 75.38 198.97 75.33 198.53
L75.31 198.38
L75.16 198.41
L74.58 198.52
L74.46 198.55
L74.47 198.67
C74.51 199.31 74.68 199.83 74.97 200.21
C75.28 200.61 75.65 200.81 76.10 200.81
C76.58 200.81 76.98 200.58 77.32 200.13
C77.65 199.69 77.81 199.13 77.81 198.44
C77.81 198.12 77.77 197.83 77.69 197.56
C77.61 197.30 77.50 197.08 77.37 196.92
C77.28 196.81 77.18 196.72 77.06 196.65
L77.06 196.65
C77.20 196.52 77.31 196.35 77.40 196.16
C77.52 195.89 77.58 195.58 77.58 195.24
C77.58 194.68 77.44 194.21 77.16 193.83
C76.86 193.45 76.50 193.25 76.08 193.25
Z
M79.71 193.25
C79.30 193.25 78.96 193.42 78.68 193.77
C78.41 194.10 78.23 194.59 78.16 195.22
L78.14 195.34
L78.26 195.38
L78.83 195.53
L78.99 195.57
L79.01 195.41
C79.05 195.00 79.14 194.70 79.27 194.51
C79.40 194.34 79.54 194.25 79.71 194.25
C79.72 194.25 79.72 194.25 79.72 194.25
C79.72 194.25 79.72 194.25 79.72 194.25
C79.88 194.25 80.03 194.33 80.14 194.50
C80.27 194.68 80.34 194.92 80.34 195.22
C80.34 195.55 80.26 195.81 80.10 196.00
C79.96 196.18 79.77 196.27 79.53 196.27
L79.53 196.27
L79.45 196.26
L79.31 196.25
L79.30 196.39
L79.23 197.16
L79.21 197.39
L79.42 197.30
C79.57 197.25 79.68 197.22 79.78 197.22
C79.78 197.22 79.78 197.22 79.78 197.22
C79.78 197.22 79.78 197.22 79.78 197.22
C79.99 197.22 80.16 197.32 80.31 197.53
C80.47 197.76 80.55 198.07 80.55 198.45
C80.55 198.87 80.46 199.20 80.28 199.45
C80.12 199.69 79.94 199.80 79.72 199.80
C79.72 199.80 79.72 199.80 79.72 199.80
C79.72 199.80 79.72 199.80 79.72 199.80
C79.53 199.80 79.37 199.71 79.25 199.52
C79.11 199.30 79.01 198.97 78.96 198.53
L78.94 198.38
L78.79 198.41
L78.21 198.52
L78.09 198.55
L78.10 198.67
C78.14 199.31 78.31 199.83 78.60 200.21
C78.91 200.61 79.28 200.81 79.73 200.81
C80.21 200.81 80.61 200.58 80.95 200.13
C81.28 199.69 81.44 199.13 81.44 198.44
C81.44 198.12 81.40 197.83 81.32 197.56
C81.24 197.30 81.13 197.08 81.00 196.92
C80.91 196.81 80.81 196.72 80.69 196.65
L80.69 196.65
C80.83 196.52 80.94 196.35 81.03 196.16
C81.15 195.89 81.21 195.58 81.21 195.24
C81.21 194.68 81.07 194.21 80.79 193.83
C80.49 193.45 80.13 193.25 79.71 193.25
Z
" fill="white" fill-rule="nonzero" />
<path d="
M78.13 205.28
L78.13 205.42
L78.13 206.26
L78.13 206.40
L80.32 206.40
C80.07 206.87 79.83 207.42 79.61 208.05
C79.36 208.78 79.16 209.54 79.02 210.34
C78.87 211.14 78.79 211.84 78.79 212.45
L78.78 212.59
L79.52 212.59
L79.65 212.59
L79.66 212.46
C79.71 211.31 79.91 210.16 80.25 209.00
C80.58 207.84 80.98 206.89 81.42 206.17
L81.44 206.14
L81.44 206.10
L81.44 205.42
L81.44 205.28
Z
M76.08 205.16
C75.67 205.16 75.33 205.33 75.05 205.67
C74.78 206.01 74.60 206.49 74.53 207.13
L74.51 207.25
L74.63 207.28
L75.20 207.44
L75.36 207.48
L75.38 207.31
C75.42 206.91 75.51 206.61 75.64 206.42
C75.77 206.24 75.91 206.16 76.08 206.16
C76.08 206.16 76.09 206.16 76.09 206.16
C76.09 206.16 76.09 206.16 76.09 206.16
C76.25 206.16 76.39 206.24 76.51 206.40
C76.64 206.58 76.71 206.82 76.71 207.12
C76.71 207.45 76.63 207.71 76.47 207.90
C76.33 208.09 76.14 208.18 75.90 208.18
L75.90 208.18
L75.82 208.17
L75.68 208.15
L75.67 208.30
L75.60 209.07
L75.58 209.30
L75.79 209.21
C75.94 209.15 76.05 209.12 76.15 209.12
C76.15 209.12 76.15 209.12 76.15 209.12
C76.15 209.12 76.15 209.12 76.15 209.12
C76.36 209.12 76.53 209.23 76.68 209.44
C76.84 209.67 76.92 209.98 76.92 210.36
C76.92 210.77 76.83 211.10 76.65 211.36
C76.49 211.59 76.31 211.71 76.09 211.71
C76.09 211.71 76.09 211.71 76.09 211.71
C76.09 211.71 76.09 211.71 76.09 211.71
C75.90 211.71 75.74 211.61 75.62 211.42
C75.48 211.21 75.38 210.88 75.33 210.43
L75.31 210.28
L75.16 210.31
L74.58 210.43
L74.46 210.45
L74.47 210.58
C74.51 211.22 74.68 211.73 74.97 212.12
C75.28 212.52 75.65 212.72 76.10 212.72
C76.58 212.72 76.98 212.49 77.32 212.04
C77.65 211.59 77.81 211.03 77.81 210.35
C77.81 210.02 77.77 209.73 77.69 209.47
C77.61 209.20 77.50 208.99 77.37 208.82
C77.28 208.71 77.18 208.63 77.06 208.56
L77.06 208.56
C77.20 208.42 77.31 208.26 77.40 208.06
C77.52 207.79 77.58 207.49 77.58 207.14
C77.58 206.58 77.44 206.11 77.16 205.74
C76.86 205.35 76.50 205.16 76.08 205.16
Z
" fill="white" fill-rule="nonzero" />
<path d="
M89.85 27.47
C90.11 27.47 90.33 27.58 90.52 27.79
C90.70 28.00 90.80 28.27 90.80 28.60
C90.80 28.92 90.71 29.18 90.52 29.38
C90.34 29.58 90.12 29.68 89.86 29.68
C89.60 29.68 89.37 29.58 89.19 29.37
C89.01 29.17 88.92 28.89 88.92 28.55
C88.92 28.24 89.01 27.98 89.19 27.78
C89.38 27.57 89.60 27.47 89.85 27.47
Z
M89.84 30.39
C90.17 30.39 90.45 30.52 90.68 30.78
C90.92 31.05 91.03 31.39 91.03 31.83
C91.03 32.25 90.92 32.60 90.69 32.85
C90.47 33.11 90.19 33.24 89.86 33.24
C89.54 33.24 89.26 33.10 89.03 32.84
C88.80 32.58 88.68 32.23 88.68 31.80
C88.68 31.38 88.79 31.04 89.02 30.78
C89.25 30.52 89.52 30.39 89.84 30.39
Z
M89.85 26.76
C89.37 26.76 88.98 26.93 88.66 27.27
C88.35 27.60 88.19 28.04 88.19 28.57
C88.19 28.93 88.26 29.22 88.41 29.46
C88.55 29.70 88.77 29.88 89.05 30.01
C88.71 30.12 88.44 30.33 88.25 30.63
C88.05 30.94 87.96 31.33 87.96 31.80
C87.96 32.44 88.14 32.96 88.50 33.35
C88.86 33.75 89.32 33.95 89.86 33.95
C90.40 33.95 90.85 33.75 91.21 33.35
C91.58 32.96 91.76 32.45 91.76 31.82
C91.76 31.37 91.66 30.99 91.48 30.68
C91.29 30.37 91.02 30.15 90.67 30.01
C90.96 29.88 91.17 29.70 91.31 29.46
C91.45 29.23 91.52 28.94 91.52 28.60
C91.52 28.06 91.36 27.62 91.05 27.28
C90.73 26.93 90.33 26.76 89.85 26.76
Z
" fill="black" fill-rule="nonzero" />
<path d="
M115.48 146.49
C115.69 146.49 115.87 146.60 116.02 146.81
C116.17 147.02 116.25 147.29 116.25 147.63
C116.25 147.95 116.18 148.21 116.03 148.42
C115.88 148.62 115.70 148.72 115.49 148.72
C115.28 148.72 115.10 148.62 114.95 148.41
C114.80 148.21 114.73 147.93 114.73 147.58
C114.73 147.27 114.80 147.01 114.95 146.80
C115.10 146.59 115.28 146.49 115.48 146.49
Z
M115.48 149.44
C115.74 149.44 115.97 149.57 116.16 149.84
C116.35 150.11 116.44 150.46 116.44 150.90
C116.44 151.33 116.35 151.68 116.16 151.94
C115.98 152.19 115.76 152.32 115.49 152.32
C115.23 152.32 115.01 152.19 114.82 151.92
C114.63 151.66 114.54 151.30 114.54 150.87
C114.54 150.45 114.63 150.10 114.81 149.84
C114.99 149.57 115.21 149.44 115.48 149.44
Z
M115.48 145.77
C115.09 145.77 114.77 145.94 114.52 146.28
C114.26 146.62 114.14 147.06 114.14 147.60
C114.14 147.96 114.19 148.26 114.31 148.50
C114.43 148.74 114.60 148.93 114.84 149.06
C114.56 149.17 114.34 149.38 114.18 149.69
C114.03 150.00 113.95 150.39 113.95 150.87
C113.95 151.52 114.10 152.04 114.39 152.44
C114.68 152.84 115.05 153.04 115.49 153.04
C115.93 153.04 116.29 152.84 116.59 152.44
C116.88 152.04 117.03 151.53 117.03 150.89
C117.03 150.43 116.95 150.05 116.80 149.73
C116.65 149.42 116.43 149.20 116.15 149.06
C116.38 148.93 116.55 148.74 116.67 148.50
C116.78 148.27 116.84 147.97 116.84 147.63
C116.84 147.08 116.71 146.64 116.45 146.29
C116.19 145.94 115.87 145.77 115.48 145.77
Z
M111.80 145.77
C111.44 145.77 111.13 145.93 110.87 146.24
C110.62 146.55 110.46 147.01 110.39 147.62
L110.96 147.77
C111.00 147.34 111.09 147.02 111.25 146.81
C111.40 146.60 111.58 146.49 111.80 146.49
C112.02 146.49 112.20 146.59 112.34 146.79
C112.49 147.00 112.57 147.26 112.57 147.60
C112.57 147.96 112.48 148.25 112.30 148.47
C112.13 148.68 111.90 148.79 111.61 148.79
L111.52 148.78
L111.46 149.55
C111.62 149.49 111.75 149.45 111.86 149.45
C112.12 149.45 112.33 149.58 112.51 149.83
C112.69 150.08 112.78 150.42 112.78 150.83
C112.78 151.27 112.68 151.63 112.49 151.91
C112.30 152.19 112.07 152.32 111.81 152.32
C111.32 152.32 111.02 151.86 110.90 150.92
L110.33 151.04
C110.37 151.65 110.52 152.14 110.80 152.50
C111.08 152.87 111.42 153.05 111.82 153.05
C112.25 153.05 112.61 152.84 112.92 152.42
C113.23 152.01 113.39 151.47 113.39 150.82
C113.39 150.51 113.35 150.23 113.27 149.98
C113.20 149.73 113.10 149.53 112.98 149.38
C112.86 149.24 112.70 149.13 112.51 149.06
C112.72 148.92 112.87 148.73 112.99 148.48
C113.10 148.23 113.16 147.94 113.16 147.62
C113.16 147.09 113.02 146.64 112.76 146.29
C112.50 145.95 112.17 145.77 111.80 145.77
Z
" fill="black" fill-rule="nonzero" />
<path d="
M115.52 172.88
C115.77 172.88 115.98 173.02 116.16 173.30
C116.34 173.58 116.42 173.97 116.42 174.48
C116.42 174.99 116.34 175.40 116.16 175.69
C115.98 175.99 115.78 176.14 115.55 176.14
C115.30 176.14 115.07 175.98 114.88 175.67
C114.68 175.35 114.59 174.94 114.59 174.43
C114.59 173.95 114.68 173.58 114.86 173.30
C115.05 173.02 115.27 172.88 115.52 172.88
Z
M115.60 169.58
C115.11 169.58 114.71 169.87 114.40 170.46
C114.08 171.04 113.93 172.02 113.93 173.40
C113.93 174.64 114.08 175.53 114.38 176.06
C114.69 176.59 115.08 176.85 115.55 176.85
C115.81 176.85 116.05 176.76 116.27 176.58
C116.49 176.39 116.67 176.11 116.80 175.72
C116.94 175.33 117.01 174.90 117.01 174.43
C117.01 173.72 116.87 173.16 116.60 172.74
C116.32 172.32 116.00 172.11 115.63 172.11
C115.41 172.11 115.19 172.19 114.99 172.35
C114.80 172.51 114.63 172.75 114.50 173.06
C114.50 172.19 114.59 171.52 114.76 171.08
C114.96 170.56 115.23 170.30 115.57 170.30
C115.78 170.30 115.97 170.41 116.12 170.64
C116.22 170.80 116.30 171.06 116.36 171.42
L116.93 171.35
C116.88 170.78 116.73 170.34 116.49 170.04
C116.25 169.73 115.96 169.58 115.60 169.58
Z
M111.80 169.58
C111.44 169.58 111.13 169.74 110.87 170.05
C110.62 170.36 110.46 170.82 110.39 171.43
L110.96 171.58
C111.00 171.15 111.09 170.83 111.25 170.62
C111.40 170.41 111.58 170.30 111.80 170.30
C112.02 170.30 112.20 170.40 112.34 170.60
C112.49 170.81 112.57 171.07 112.57 171.41
C112.57 171.77 112.48 172.06 112.30 172.28
C112.13 172.49 111.90 172.60 111.61 172.60
L111.52 172.59
L111.46 173.36
C111.62 173.30 111.75 173.26 111.86 173.26
C112.12 173.26 112.33 173.39 112.51 173.64
C112.69 173.90 112.78 174.23 112.78 174.64
C112.78 175.08 112.68 175.44 112.49 175.72
C112.30 176.00 112.07 176.14 111.81 176.14
C111.32 176.14 111.02 175.67 110.90 174.74
L110.33 174.85
C110.37 175.46 110.52 175.95 110.80 176.31
C111.08 176.68 111.42 176.86 111.82 176.86
C112.25 176.86 112.61 176.65 112.92 176.23
C113.23 175.82 113.39 175.28 113.39 174.63
C113.39 174.32 113.35 174.04 113.27 173.79
C113.20 173.54 113.10 173.34 112.98 173.20
C112.86 173.05 112.70 172.94 112.51 172.88
C112.72 172.73 112.87 172.54 112.99 172.29
C113.10 172.04 113.16 171.75 113.16 171.43
C113.16 170.90 113.02 170.46 112.76 170.11
C112.50 169.76 112.17 169.58 111.80 169.58
Z
" fill="black" fill-rule="nonzero" />
<path d="
M113.70 196.70
C114.02 196.70 114.28 196.84 114.50 197.12
C114.72 197.39 114.83 197.78 114.83 198.28
C114.83 198.79 114.72 199.19 114.50 199.48
C114.28 199.77 114.03 199.91 113.75 199.91
C113.43 199.91 113.16 199.76 112.92 199.45
C112.68 199.14 112.56 198.73 112.56 198.22
C112.56 197.76 112.67 197.39 112.90 197.11
C113.13 196.84 113.40 196.70 113.70 196.70
Z
M113.81 193.44
C113.20 193.44 112.71 193.73 112.32 194.31
C111.93 194.88 111.74 195.85 111.74 197.21
C111.74 198.44 111.93 199.31 112.31 199.84
C112.68 200.36 113.16 200.62 113.75 200.62
C114.07 200.62 114.36 200.53 114.63 200.35
C114.90 200.17 115.12 199.89 115.29 199.50
C115.46 199.12 115.55 198.69 115.55 198.22
C115.55 197.53 115.38 196.98 115.04 196.56
C114.70 196.15 114.30 195.94 113.84 195.94
C113.57 195.94 113.31 196.02 113.06 196.18
C112.81 196.34 112.61 196.57 112.44 196.88
C112.45 196.01 112.56 195.36 112.77 194.92
C113.02 194.41 113.35 194.15 113.76 194.15
C114.03 194.15 114.26 194.26 114.45 194.49
C114.58 194.64 114.68 194.90 114.74 195.26
L115.45 195.19
C115.39 194.62 115.21 194.19 114.91 193.89
C114.61 193.59 114.25 193.44 113.81 193.44
Z
" fill="black" fill-rule="nonzero" />
<path d="
M138.72 195.91
L138.72 195.91
L138.72 195.91
C138.72 195.91 138.72 195.91 138.72 195.91
Z
M138.19 193.38
L138.18 193.50
L137.72 197.16
L137.71 197.29
L137.84 197.32
L138.38 197.42
L138.49 197.45
L138.54 197.34
C138.62 197.14 138.72 196.99 138.85 196.89
C138.98 196.79 139.11 196.74 139.25 196.74
C139.25 196.74 139.25 196.74 139.25 196.74
C139.25 196.74 139.26 196.74 139.26 196.74
C139.49 196.74 139.69 196.86 139.85 197.09
C140.03 197.35 140.11 197.72 140.11 198.20
C140.11 198.71 140.02 199.11 139.84 199.40
C139.67 199.67 139.48 199.80 139.26 199.80
C139.26 199.80 139.26 199.80 139.26 199.80
C139.26 199.80 139.25 199.80 139.25 199.80
C139.08 199.80 138.93 199.71 138.80 199.53
C138.65 199.33 138.55 199.01 138.51 198.59
L138.49 198.44
L138.35 198.46
L137.75 198.54
L137.61 198.55
L137.62 198.69
C137.66 199.34 137.83 199.85 138.13 200.23
C138.44 200.61 138.81 200.81 139.26 200.81
C139.80 200.81 140.23 200.53 140.55 199.99
C140.85 199.47 141.00 198.85 141.00 198.13
C141.00 197.39 140.85 196.81 140.54 196.36
C140.23 195.91 139.85 195.68 139.41 195.68
C139.17 195.68 138.94 195.76 138.72 195.91
L138.72 195.91
L138.90 194.50
L140.78 194.50
L140.78 194.35
L140.78 193.52
L140.78 193.38
Z
M135.61 193.25
C135.20 193.25 134.86 193.42 134.58 193.77
C134.30 194.10 134.13 194.59 134.06 195.22
L134.04 195.34
L134.16 195.38
L134.73 195.53
L134.89 195.57
L134.91 195.41
C134.95 195.00 135.04 194.70 135.17 194.51
C135.29 194.34 135.44 194.25 135.61 194.25
C135.61 194.25 135.61 194.25 135.61 194.25
C135.62 194.25 135.62 194.25 135.62 194.25
C135.78 194.25 135.92 194.33 136.04 194.50
C136.17 194.68 136.24 194.92 136.23 195.22
C136.24 195.55 136.16 195.81 136.00 196.00
C135.86 196.18 135.67 196.27 135.43 196.27
L135.43 196.27
L135.35 196.26
L135.21 196.25
L135.19 196.39
L135.13 197.16
L135.11 197.39
L135.32 197.30
C135.47 197.25 135.58 197.22 135.67 197.22
C135.67 197.22 135.67 197.22 135.67 197.22
C135.67 197.22 135.68 197.22 135.68 197.22
C135.88 197.22 136.06 197.32 136.21 197.53
C136.37 197.76 136.44 198.07 136.44 198.45
C136.44 198.87 136.36 199.20 136.18 199.45
C136.02 199.69 135.83 199.80 135.62 199.80
C135.62 199.80 135.62 199.80 135.62 199.80
C135.62 199.80 135.62 199.80 135.61 199.80
C135.42 199.80 135.27 199.71 135.15 199.52
C135.01 199.30 134.91 198.97 134.85 198.53
L134.83 198.38
L134.68 198.41
L134.11 198.52
L133.99 198.55
L134.00 198.67
C134.04 199.31 134.20 199.83 134.50 200.21
C134.81 200.61 135.18 200.81 135.63 200.81
C136.10 200.81 136.51 200.58 136.85 200.13
C137.17 199.69 137.34 199.13 137.34 198.44
C137.34 198.12 137.30 197.83 137.22 197.56
C137.14 197.30 137.03 197.08 136.90 196.92
C136.81 196.81 136.71 196.72 136.59 196.65
L136.59 196.65
C136.73 196.52 136.84 196.35 136.93 196.16
C137.05 195.89 137.11 195.58 137.11 195.24
C137.11 194.68 136.97 194.21 136.68 193.83
C136.39 193.45 136.03 193.25 135.61 193.25
Z
" fill="white" fill-rule="nonzero" />
<path d="
M185.32 38.59
L185.28 38.68
C185.17 38.97 184.97 39.27 184.68 39.58
C184.39 39.89 184.06 40.15 183.68 40.37
L183.61 40.41
L183.61 40.49
L183.61 41.33
L183.61 41.55
L183.81 41.46
C184.05 41.35 184.31 41.20 184.59 40.99
C184.75 40.87 184.90 40.75 185.02 40.64
L185.02 40.64
L185.02 45.79
L185.02 45.93
L186.02 45.93
L186.02 45.79
L186.02 38.73
L186.02 38.59
Z
" fill="white" fill-rule="nonzero" />
<path d="
M185.02 193.29
C184.54 193.30 184.13 193.46 183.79 193.80
C183.45 194.13 183.24 194.61 183.14 195.24
L183.12 195.37
L183.25 195.40
L183.96 195.55
L184.11 195.59
L184.13 195.43
C184.18 195.03 184.28 194.74 184.45 194.56
C184.61 194.38 184.80 194.29 185.03 194.29
C185.03 194.29 185.03 194.29 185.03 194.29
C185.04 194.29 185.04 194.29 185.04 194.29
C185.26 194.29 185.44 194.37 185.60 194.54
C185.76 194.72 185.83 194.95 185.83 195.24
C185.83 195.56 185.74 195.81 185.55 196.00
C185.36 196.19 185.11 196.28 184.81 196.28
L184.81 196.28
L184.70 196.27
L184.56 196.26
L184.55 196.40
L184.47 197.16
L184.44 197.37
L184.65 197.31
C184.84 197.25 184.99 197.22 185.11 197.22
C185.11 197.22 185.11 197.22 185.11 197.22
C185.11 197.22 185.11 197.22 185.11 197.22
C185.38 197.22 185.61 197.32 185.80 197.54
C186.00 197.76 186.09 198.06 186.09 198.44
C186.09 198.84 185.99 199.16 185.77 199.41
C185.56 199.65 185.32 199.77 185.04 199.77
C185.04 199.77 185.04 199.77 185.04 199.77
C185.04 199.77 185.04 199.77 185.04 199.77
C184.78 199.77 184.58 199.67 184.42 199.48
C184.25 199.27 184.13 198.94 184.06 198.51
L184.04 198.37
L183.90 198.39
L183.19 198.50
L183.06 198.52
L183.07 198.65
C183.12 199.29 183.33 199.80 183.69 200.19
C184.06 200.57 184.52 200.77 185.05 200.77
C185.62 200.77 186.11 200.55 186.52 200.11
C186.93 199.67 187.13 199.11 187.13 198.42
C187.13 198.10 187.08 197.81 186.98 197.55
C186.88 197.28 186.75 197.07 186.58 196.91
C186.48 196.80 186.36 196.72 186.22 196.65
L186.22 196.65
C186.38 196.52 186.51 196.36 186.62 196.18
C186.77 195.91 186.85 195.61 186.85 195.26
C186.85 194.70 186.67 194.23 186.32 193.86
C185.96 193.48 185.53 193.30 185.02 193.29
Z
" fill="white" fill-rule="nonzero" />
<path d="
M196.25 172.09
L196.25 172.09
L196.25 172.09
C196.25 172.09 196.25 172.09 196.25 172.09
Z
M195.68 169.55
L195.66 169.67
L195.10 173.28
L195.07 173.42
L195.21 173.44
L195.88 173.55
L195.98 173.57
L196.03 173.47
C196.13 173.28 196.26 173.13 196.42 173.03
C196.59 172.92 196.76 172.87 196.95 172.87
C196.95 172.87 196.95 172.87 196.95 172.87
C196.95 172.87 196.95 172.87 196.95 172.87
C197.26 172.87 197.52 172.99 197.73 173.24
C197.94 173.49 198.05 173.84 198.05 174.31
C198.05 174.81 197.93 175.21 197.71 175.49
C197.50 175.76 197.25 175.90 196.96 175.90
C196.96 175.90 196.96 175.90 196.95 175.90
C196.95 175.90 196.95 175.90 196.95 175.90
C196.73 175.90 196.52 175.80 196.35 175.61
C196.17 175.42 196.05 175.11 196.00 174.69
L195.98 174.56
L195.84 174.57
L195.10 174.65
L194.96 174.66
L194.97 174.80
C195.02 175.45 195.23 175.96 195.60 176.33
C195.97 176.70 196.43 176.89 196.96 176.89
C197.61 176.89 198.13 176.63 198.52 176.10
C198.89 175.58 199.08 174.96 199.08 174.24
C199.08 173.51 198.89 172.93 198.51 172.49
C198.12 172.05 197.67 171.82 197.14 171.82
C196.83 171.82 196.53 171.91 196.25 172.09
L196.25 172.09
L196.48 170.66
L198.80 170.66
L198.80 170.52
L198.80 169.69
L198.80 169.55
Z
" fill="white" fill-rule="nonzero" />
</g>
<g  transform="translate(1.19,228.58)" >
<path d="
M109.47 2.72
C109.30 2.72 109.16 2.78 109.05 2.89
C108.93 3.01 108.88 3.15 108.88 3.31
C108.88 3.47 108.93 3.61 109.05 3.73
C109.17 3.84 109.31 3.90 109.47 3.90
C109.63 3.90 109.77 3.84 109.88 3.73
C110.00 3.61 110.06 3.47 110.06 3.31
C110.06 3.15 110.00 3.01 109.88 2.89
C109.77 2.78 109.63 2.72 109.47 2.72
Z
M125.81 4.17
L125.81 8.08
L123.04 8.08
L125.81 4.17
Z
M114.44 7.81
L114.44 9.84
C113.96 10.23 113.57 10.42 113.28 10.42
C113.06 10.42 112.87 10.33 112.70 10.15
C112.53 9.96 112.45 9.73 112.45 9.45
C112.45 9.23 112.52 9.03 112.65 8.84
C112.78 8.66 113.00 8.48 113.31 8.31
C113.48 8.21 113.85 8.05 114.44 7.81
Z
M102.79 3.55
C103.72 3.55 104.48 3.86 105.07 4.49
C105.67 5.12 105.96 5.98 105.96 7.06
C105.96 8.15 105.67 9.00 105.07 9.63
C104.48 10.27 103.74 10.58 102.84 10.58
C102.50 10.58 102.09 10.53 101.60 10.42
L101.60 3.72
C102.04 3.60 102.44 3.55 102.79 3.55
Z
M99.35 3.11
L99.35 3.32
L99.64 3.32
C99.94 3.32 100.17 3.41 100.32 3.58
C100.43 3.70 100.48 4.01 100.48 4.50
L100.48 9.59
C100.48 10.04 100.44 10.33 100.35 10.45
C100.21 10.67 99.98 10.77 99.64 10.77
L99.35 10.77
L99.35 10.99
L102.87 10.99
C104.40 10.99 105.54 10.58 106.29 9.76
C106.96 9.02 107.29 8.10 107.29 7.01
C107.29 6.19 107.10 5.47 106.73 4.84
C106.35 4.22 105.86 3.77 105.25 3.51
C104.63 3.24 103.74 3.11 102.56 3.11
Z
M109.70 5.51
L108.09 6.16
L108.17 6.37
C108.33 6.31 108.46 6.28 108.57 6.28
C108.67 6.28 108.75 6.30 108.81 6.35
C108.86 6.40 108.91 6.49 108.93 6.61
C108.97 6.78 108.99 7.16 108.99 7.73
L108.99 9.79
C108.99 10.11 108.96 10.34 108.91 10.45
C108.86 10.57 108.79 10.65 108.70 10.70
C108.61 10.75 108.43 10.78 108.17 10.78
L108.17 10.99
L110.76 10.99
L110.76 10.78
C110.51 10.78 110.33 10.75 110.24 10.70
C110.14 10.64 110.07 10.56 110.02 10.45
C109.98 10.34 109.95 10.12 109.95 9.79
L109.95 5.51
Z
M126.13 2.94
L122.47 8.16
L122.47 8.91
L125.81 8.91
L125.81 10.99
L126.77 10.99
L126.77 8.91
L127.83 8.91
L127.83 8.08
L126.77 8.08
L126.77 2.94
Z
M113.63 5.51
C113.01 5.51 112.53 5.65 112.19 5.93
C111.85 6.20 111.68 6.51 111.68 6.84
C111.68 7.02 111.72 7.16 111.81 7.26
C111.91 7.36 112.02 7.41 112.17 7.41
C112.31 7.41 112.43 7.36 112.52 7.26
C112.62 7.17 112.66 7.03 112.66 6.85
L112.65 6.51
C112.65 6.34 112.72 6.19 112.87 6.06
C113.01 5.93 113.21 5.86 113.45 5.86
C113.77 5.86 114.02 5.96 114.19 6.16
C114.36 6.36 114.44 6.72 114.44 7.25
L114.44 7.46
C113.53 7.79 112.87 8.08 112.48 8.31
C112.08 8.54 111.81 8.79 111.65 9.05
C111.53 9.24 111.47 9.47 111.47 9.73
C111.47 10.14 111.59 10.47 111.83 10.72
C112.07 10.97 112.37 11.10 112.74 11.10
C112.98 11.10 113.20 11.05 113.41 10.95
C113.55 10.89 113.89 10.64 114.44 10.22
C114.44 10.54 114.50 10.76 114.61 10.90
C114.73 11.03 114.88 11.09 115.07 11.09
C115.46 11.09 115.88 10.80 116.31 10.22
L116.31 9.90
C116.08 10.13 115.92 10.27 115.84 10.32
C115.79 10.35 115.74 10.36 115.68 10.36
C115.62 10.36 115.57 10.34 115.52 10.30
C115.48 10.26 115.45 10.19 115.43 10.07
C115.41 9.96 115.40 9.65 115.40 9.14
L115.40 7.33
C115.40 6.82 115.36 6.48 115.29 6.31
C115.19 6.05 115.02 5.87 114.79 5.75
C114.49 5.59 114.10 5.51 113.63 5.51
Z
M117.82 9.86
C117.64 9.86 117.49 9.92 117.37 10.05
C117.24 10.17 117.18 10.32 117.18 10.51
C117.18 10.68 117.24 10.84 117.37 10.96
C117.49 11.09 117.64 11.15 117.82 11.15
C118.00 11.15 118.15 11.09 118.28 10.96
C118.41 10.84 118.47 10.68 118.47 10.51
C118.47 10.33 118.41 10.18 118.28 10.05
C118.16 9.92 118.01 9.86 117.82 9.86
Z
" fill="black" fill-rule="nonzero" />
</g>
</g>
</svg>
