<?xml version="1.0" encoding="utf-8" standalone="no"?>
<!DOCTYPE svg PUBLIC "-//W3C//DTD SVG 1.0//EN" "http://www.w3.org/TR/SVG/DTD/svg11.dtd" >
<svg version="1.1" baseProfile="full"  width="319.13385" height="338.51422" viewBox="0 0 229.77638 243.73024" preserveAspectRatio="xMidYMid" xmlns="http://www.w3.org/2000/svg" >

<g lengthAdjust="spacingAndGlyphs" xml:space='preserve' >
<g  transform="translate(1.19,1.19)" >
<path d="
M0.0 0.0
L0.0 227.39
L227.39 227.39
L227.39 0.0
Z
" fill="none" fill-rule="nonzero" />
<line x1="6.54" y1="6.54" x2="6.54" y2="220.84" fill="none" stroke="black" stroke-width="0.87px" stroke-linecap="square" />
<line x1="18.45" y1="6.54" x2="18.45" y2="220.84" fill="none" stroke="black" stroke-width="0.25px" stroke-linecap="butt" />
<line x1="30.35" y1="6.54" x2="30.35" y2="220.84" fill="none" stroke="black" stroke-width="0.25px" stroke-linecap="butt" />
<line x1="42.26" y1="6.54" x2="42.26" y2="220.84" fill="none" stroke="black" stroke-width="0.25px" stroke-linecap="butt" />
<line x1="54.17" y1="6.54" x2="54.17" y2="220.84" fill="none" stroke="black" stroke-width="0.25px" stroke-linecap="butt" />
<line x1="66.07" y1="6.54" x2="66.07" y2="220.84" fill="none" stroke="black" stroke-width="0.25px" stroke-linecap="butt" />
<line x1="77.98" y1="6.54" x2="77.98" y2="220.84" fill="none" stroke="black" stroke-width="0.25px" stroke-linecap="butt" />
<line x1="89.88" y1="6.54" x2="89.88" y2="220.84" fill="none" stroke="black" stroke-width="0.25px" stroke-linecap="butt" />
<line x1="101.79" y1="6.54" x2="101.79" y2="220.84" fill="none" stroke="black" stroke-width="0.25px" stroke-linecap="butt" />
<line x1="113.69" y1="6.54" x2="113.69" y2="220.84" fill="none" stroke="black" stroke-width="0.25px" stroke-linecap="butt" />
<line x1="125.60" y1="6.54" x2="125.60" y2="220.84" fill="none" stroke="black" stroke-width="0.25px" stroke-linecap="butt" />
<line x1="137.50" y1="6.54" x2="137.50" y2="220.84" fill="none" stroke="black" stroke-width="0.25px" stroke-linecap="butt" />
<line x1="149.41" y1="6.54" x2="149.41" y2="220.84" fill="none" stroke="black" stroke-width="0.25px" stroke-linecap="butt" />
<line x1="161.31" y1="6.54" x2="161.31" y2="220.84" fill="none" stroke="black" stroke-width="0.25px" stroke-linecap="butt" />
<line x1="173.22" y1="6.54" x2="173.22" y2="220.84" fill="none" stroke="black" stroke-width="0.25px" stroke-linecap="butt" />
<line x1="185.13" y1="6.54" x2="185.13" y2="220.84" fill="none" stroke="black" stroke-width="0.25px" stroke-linecap="butt" />
<line x1="197.03" y1="6.54" x2="197.03" y2="220.84" fill="none" stroke="black" stroke-width="0.25px" stroke-linecap="butt" />
<line x1="208.94" y1="6.54" x2="208.94" y2="220.84" fill="none" stroke="black" stroke-width="0.25px" stroke-linecap="butt" />
<line x1="220.84" y1="6.54" x2="220.84" y2="220.84" fill="none" stroke="black" stroke-width="0.87px" stroke-linecap="square" />
<line x1="6.54" y1="6.54" x2="220.84" y2="6.54" fill="none" stroke="black" stroke-width="0.87px" stroke-linecap="square" />
<line x1="6.54" y1="18.45" x2="220.84" y2="18.45" fill="none" stroke="black" stroke-width="0.25px" stroke-linecap="butt" />
<line x1="6.54" y1="30.35" x2="220.84" y2="30.35" fill="none" stroke="black" stroke-width="0.25px" stroke-linecap="butt" />
<line x1="6.54" y1="42.26" x2="220.84" y2="42.26" fill="none" stroke="black" stroke-width="0.25px" stroke-linecap="butt" />
<line x1="6.54" y1="54.17" x2="220.84" y2="54.17" fill="none" stroke="black" stroke-width="0.25px" stroke-linecap="butt" />
<line x1="6.54" y1="66.07" x2="220.84" y2="66.07" fill="none" stroke="black" stroke-width="0.25px" stroke-linecap="butt" />
<line x1="6.54" y1="77.98" x2="220.84" y2="77.98" fill="none" stroke="black" stroke-width="0.25px" stroke-linecap="butt" />
<line x1="6.54" y1="89.88" x2="220.84" y2="89.88" fill="none" stroke="black" stroke-width="0.25px" stroke-linecap="butt" />
<line x1="6.54" y1="101.79" x2="220.84" y2="101.79" fill="none" stroke="black" stroke-width="0.25px" stroke-linecap="butt" />
<line x1="6.54" y1="113.69" x2="220.84" y2="113.69" fill="none" stroke="black" stroke-width="0.25px" stroke-linecap="butt" />
<line x1="6.54" y1="125.60" x2="220.84" y2="125.60" fill="none" stroke="black" stroke-width="0.25px" stroke-linecap="butt" />
<line x1="6.54" y1="137.50" x2="220.84" y2="137.50" fill="none" stroke="black" stroke-width="0.25px" stroke-linecap="butt" />
<line x1="6.54" y1="149.41" x2="220.84" y2="149.41" fill="none" stroke="black" stroke-width="0.25px" stroke-linecap="butt" />
<line x1="6.54" y1="161.31" x2="220.84" y2="161.31" fill="none" stroke="black" stroke-width="0.25px" stroke-linecap="butt" />
<line x1="6.54" y1="173.22" x2="220.84" y2="173.22" fill="none" stroke="black" stroke-width="0.25px" stroke-linecap="butt" />
<line x1="6.54" y1="185.13" x2="220.84" y2="185.13" fill="none" stroke="black" stroke-width="0.25px" stroke-linecap="butt" />
<line x1="6.54" y1="197.03" x2="220.84" y2="197.03" fill="none" stroke="black" stroke-width="0.25px" stroke-linecap="butt" />
<line x1="6.54" y1="208.94" x2="220.84" y2="208.94" fill="none" stroke="black" stroke-width="0.25px" stroke-linecap="butt" />
<line x1="6.54" y1="220.84" x2="220.84" y2="220.84" fill="none" stroke="black" stroke-width="0.87px" stroke-linecap="square" />
<circle cx="30.35" cy="30.35" r="6.01" fill="black"/>
<circle cx="30.35" cy="54.17" r="5.89" fill="white"/>
<circle cx="30.35" cy="54.17" r="5.89" fill="none" stroke="black" stroke-width="0.25px"/>
<circle cx="30.35" cy="66.07" r="6.01" fill="black"/>
<circle cx="30.35" cy="125.60" r="5.89" fill="white"/>
<circle cx="30.35" cy="125.60" r="5.89" fill="none" stroke="black" stroke-width="0.25px"/>
<circle cx="30.35" cy="161.31" r="6.01" fill="black"/>
<circle cx="42.26" cy="30.35" r="6.01" fill="black"/>
<circle cx="42.26" cy="42.26" r="5.89" fill="white"/>
<circle cx="42.26" cy="42.26" r="5.89" fill="none" stroke="black" stroke-width="0.25px"/>
<circle cx="42.26" cy="66.07" r="5.89" fill="white"/>
<circle cx="42.26" cy="66.07" r="5.89" fill="none" stroke="black" stroke-width="0.25px"/>
<circle cx="42.26" cy="113.69" r="1.27" fill="black"/>
<circle cx="42.26" cy="185.13" r="5.89" fill="white"/>
<circle cx="42.26" cy="185.13" r="5.89" fill="none" stroke="black" stroke-width="0.25px"/>
<circle cx="54.17" cy="137.50" r="5.89" fill="white"/>
<circle cx="54.17" cy="137.50" r="5.89" fill="none" stroke="black" stroke-width="0.25px"/>
<circle cx="54.17" cy="161.31" r="6.01" fill="black"/>
<circle cx="66.07" cy="30.35" r="6.01" fill="black"/>
<circle cx="66.07" cy="185.13" r="5.89" fill="white"/>
<circle cx="66.07" cy="185.13" r="5.89" fill="none" stroke="black" stroke-width="0.25px"/>
<circle cx="77.98" cy="161.31" r="6.01" fill="black"/>
<circle cx="89.88" cy="30.35" r="5.89" fill="white"/>
<circle cx="89.88" cy="30.35" r="5.89" fill="none" stroke="black" stroke-width="0.25px"/>
<circle cx="89.88" cy="185.13" r="5.89" fill="white"/>
<circle cx="89.88" cy="185.13" r="5.89" fill="none" stroke="black" stroke-width="0.25px"/>
<circle cx="113.69" cy="42.26" r="1.27" fill="black"/>
<circle cx="113.69" cy="113.69" r="1.27" fill="black"/>
<circle cx="113.69" cy="185.13" r="1.27" fill="black"/>
<circle cx="113.69" cy="197.03" r="5.89" fill="white"/>
<circle cx="113.69" cy="197.03" r="5.89" fill="none" stroke="black" stroke-width="0.25px"/>
<circle cx="185.13" cy="42.26" r="6.01" fill="black"/>
<circle cx="185.13" cy="113.69" r="1.27" fill="black"/>
<circle cx="185.13" cy="185.13" r="1.27" fill="black"/>
<circle cx="185.13" cy="197.03" r="6.01" fill="black"/>
<circle cx="197.03" cy="173.22" r="6.01" fill="black"/>
<path d="
M55.96 134.59
C56.16 134.59 56.34 134.69 56.50 134.90
C56.65 135.12 56.72 135.39 56.72 135.72
C56.72 136.05 56.65 136.31 56.50 136.51
C56.35 136.72 56.17 136.82 55.96 136.82
C55.75 136.82 55.57 136.72 55.42 136.51
C55.27 136.30 55.20 136.02 55.20 135.67
C55.20 135.36 55.27 135.10 55.42 134.90
C55.57 134.69 55.75 134.59 55.96 134.59
Z
M55.95 137.54
C56.21 137.54 56.44 137.67 56.63 137.94
C56.82 138.20 56.91 138.56 56.91 138.99
C56.91 139.43 56.82 139.77 56.64 140.03
C56.45 140.29 56.23 140.42 55.96 140.42
C55.70 140.42 55.48 140.29 55.29 140.02
C55.10 139.75 55.01 139.40 55.01 138.96
C55.01 138.54 55.10 138.20 55.28 137.93
C55.47 137.67 55.69 137.54 55.95 137.54
Z
M52.58 133.87
C52.48 134.18 52.31 134.50 52.07 134.82
C51.83 135.15 51.55 135.43 51.23 135.66
L51.23 136.50
C51.42 136.40 51.63 136.24 51.85 136.04
C52.07 135.84 52.25 135.64 52.38 135.45
L52.38 141.02
L52.96 141.02
L52.96 133.87
Z
M55.95 133.87
C55.57 133.87 55.25 134.04 54.99 134.38
C54.74 134.72 54.61 135.16 54.61 135.70
C54.61 136.06 54.67 136.36 54.79 136.60
C54.90 136.84 55.08 137.03 55.31 137.16
C55.03 137.27 54.81 137.48 54.66 137.79
C54.50 138.09 54.42 138.49 54.42 138.96
C54.42 139.61 54.57 140.14 54.86 140.54
C55.16 140.94 55.52 141.14 55.96 141.14
C56.40 141.14 56.76 140.94 57.06 140.54
C57.35 140.14 57.50 139.62 57.50 138.99
C57.50 138.53 57.42 138.14 57.27 137.83
C57.12 137.52 56.90 137.30 56.62 137.16
C56.85 137.02 57.02 136.84 57.14 136.60
C57.25 136.36 57.31 136.07 57.31 135.73
C57.31 135.18 57.18 134.73 56.92 134.39
C56.66 134.04 56.34 133.87 55.95 133.87
Z
" fill="black" fill-rule="nonzero" />
<path d="
M52.48 157.60
L52.45 157.70
C52.35 157.99 52.19 158.30 51.96 158.61
C51.72 158.93 51.46 159.19 51.15 159.41
L51.09 159.45
L51.09 159.53
L51.09 160.37
L51.09 160.61
L51.30 160.50
C51.50 160.39 51.71 160.23 51.94 160.02
C52.05 159.92 52.15 159.82 52.24 159.72
L52.24 159.72
L52.24 164.89
L52.24 165.03
L53.10 165.03
L53.10 164.89
L53.10 157.74
L53.10 157.60
Z
M54.32 157.72
L54.32 157.86
L54.32 158.70
L54.32 158.84
L56.51 158.84
C56.26 159.31 56.02 159.86 55.80 160.49
C55.55 161.22 55.35 161.98 55.21 162.78
C55.06 163.58 54.98 164.28 54.98 164.89
L54.97 165.03
L55.71 165.03
L55.84 165.03
L55.85 164.90
C55.90 163.76 56.10 162.60 56.43 161.44
C56.77 160.28 57.16 159.34 57.61 158.61
L57.63 158.58
L57.63 158.54
L57.63 157.86
L57.63 157.72
Z
" fill="white" fill-rule="nonzero" />
<path d="
M79.77 158.54
C79.77 158.54 79.77 158.54 79.78 158.54
C79.78 158.54 79.78 158.54 79.78 158.54
C79.96 158.54 80.13 158.67 80.28 158.91
C80.45 159.18 80.53 159.56 80.53 160.04
C80.53 160.52 80.45 160.89 80.29 161.15
C80.14 161.38 79.97 161.50 79.77 161.50
C79.77 161.50 79.77 161.50 79.76 161.50
C79.76 161.50 79.76 161.50 79.76 161.50
C79.56 161.50 79.38 161.38 79.22 161.15
C79.05 160.90 78.97 160.55 78.97 160.11
C78.97 159.62 79.06 159.23 79.24 158.94
C79.40 158.68 79.58 158.54 79.77 158.54
Z
M76.29 157.54
L76.26 157.64
C76.17 157.93 76.00 158.24 75.77 158.55
C75.54 158.87 75.27 159.13 74.96 159.35
L74.90 159.39
L74.90 159.47
L74.90 160.31
L74.90 160.55
L75.11 160.44
C75.31 160.33 75.52 160.17 75.75 159.96
C75.86 159.86 75.96 159.76 76.05 159.66
L76.05 159.66
L76.05 164.83
L76.05 164.97
L76.91 164.97
L76.91 164.83
L76.91 157.68
L76.91 157.54
Z
M79.71 157.54
C79.25 157.54 78.86 157.77 78.55 158.24
C78.25 158.70 78.09 159.31 78.09 160.08
C78.09 160.83 78.24 161.43 78.53 161.87
C78.84 162.33 79.20 162.56 79.64 162.56
C79.88 162.56 80.12 162.46 80.34 162.27
C80.43 162.20 80.51 162.12 80.59 162.02
L80.59 162.02
C80.57 162.42 80.52 162.77 80.44 163.08
C80.33 163.47 80.21 163.74 80.07 163.89
C79.94 164.02 79.80 164.09 79.65 164.09
C79.65 164.09 79.65 164.09 79.65 164.09
C79.65 164.09 79.65 164.09 79.65 164.09
C79.48 164.09 79.35 164.02 79.25 163.87
C79.13 163.70 79.06 163.44 79.01 163.09
L79.00 162.94
L78.85 162.96
L78.30 163.04
L78.17 163.06
L78.18 163.19
C78.23 163.80 78.38 164.26 78.64 164.58
C78.91 164.92 79.24 165.09 79.64 165.09
C79.99 165.09 80.31 164.95 80.59 164.68
C80.86 164.41 81.07 163.99 81.23 163.43
C81.38 162.88 81.45 162.10 81.45 161.11
C81.45 160.22 81.38 159.54 81.24 159.06
C81.10 158.57 80.89 158.19 80.62 157.94
C80.34 157.67 80.04 157.54 79.71 157.54
Z
" fill="white" fill-rule="nonzero" />
<path d="
M91.64 182.21
C91.92 182.21 92.15 182.41 92.33 182.80
C92.51 183.19 92.60 183.97 92.60 185.13
C92.60 186.27 92.51 187.05 92.33 187.45
C92.16 187.84 91.94 188.04 91.68 188.04
C91.40 188.04 91.17 187.85 91.00 187.45
C90.82 187.06 90.73 186.28 90.73 185.13
C90.73 183.98 90.82 183.21 90.99 182.81
C91.17 182.41 91.38 182.21 91.64 182.21
Z
M88.08 181.49
C87.64 181.49 87.29 181.66 87.02 182.01
C86.75 182.35 86.60 182.87 86.55 183.55
L87.15 183.64
C87.15 183.18 87.23 182.83 87.40 182.58
C87.57 182.34 87.79 182.21 88.06 182.21
C88.31 182.21 88.52 182.33 88.69 182.56
C88.86 182.78 88.94 183.08 88.94 183.44
C88.94 183.76 88.86 184.10 88.69 184.46
C88.53 184.82 88.18 185.34 87.64 186.01
C87.18 186.58 86.86 187.08 86.69 187.50
C86.52 187.92 86.44 188.30 86.45 188.64
L89.54 188.64
L89.54 187.80
L87.24 187.80
C87.30 187.64 87.39 187.48 87.49 187.32
C87.59 187.17 87.81 186.87 88.15 186.43
C88.68 185.74 89.05 185.18 89.24 184.77
C89.43 184.35 89.53 183.92 89.53 183.46
C89.53 182.95 89.41 182.49 89.16 182.09
C88.92 181.69 88.55 181.49 88.08 181.49
Z
M91.67 181.49
C91.17 181.49 90.79 181.80 90.53 182.41
C90.27 183.03 90.14 183.93 90.14 185.13
C90.14 186.46 90.28 187.40 90.57 187.95
C90.85 188.49 91.22 188.76 91.66 188.76
C92.17 188.76 92.55 188.45 92.80 187.84
C93.06 187.22 93.19 186.32 93.19 185.13
C93.19 183.80 93.03 182.84 92.72 182.24
C92.47 181.74 92.12 181.49 91.67 181.49
Z
" fill="black" fill-rule="nonzero" />
</g>
<g  transform="translate(1.19,228.58)" >
<path d="
M109.47 2.72
C109.30 2.72 109.16 2.78 109.05 2.89
C108.93 3.01 108.88 3.15 108.88 3.31
C108.88 3.47 108.93 3.61 109.05 3.73
C109.17 3.84 109.31 3.90 109.47 3.90
C109.63 3.90 109.77 3.84 109.88 3.73
C110.00 3.61 110.06 3.47 110.06 3.31
C110.06 3.15 110.00 3.01 109.88 2.89
C109.77 2.78 109.63 2.72 109.47 2.72
Z
M114.44 7.81
L114.44 9.84
C113.96 10.23 113.57 10.42 113.28 10.42
C113.06 10.42 112.87 10.33 112.70 10.15
C112.53 9.96 112.45 9.73 112.45 9.45
C112.45 9.23 112.52 9.03 112.65 8.84
C112.78 8.66 113.00 8.48 113.31 8.31
C113.48 8.21 113.85 8.05 114.44 7.81
Z
M102.79 3.55
C103.72 3.55 104.48 3.86 105.07 4.49
C105.67 5.12 105.96 5.98 105.96 7.06
C105.96 8.15 105.67 9.00 105.07 9.63
C104.48 10.27 103.74 10.58 102.84 10.58
C102.50 10.58 102.09 10.53 101.60 10.42
L101.60 3.72
C102.04 3.60 102.44 3.55 102.79 3.55
Z
M99.35 3.11
L99.35 3.32
L99.64 3.32
C99.94 3.32 100.17 3.41 100.32 3.58
C100.43 3.70 100.48 4.01 100.48 4.50
L100.48 9.59
C100.48 10.04 100.44 10.33 100.35 10.45
C100.21 10.67 99.98 10.77 99.64 10.77
L99.35 10.77
L99.35 10.99
L102.87 10.99
C104.40 10.99 105.54 10.58 106.29 9.76
C106.96 9.02 107.29 8.10 107.29 7.01
C107.29 6.19 107.10 5.47 106.73 4.84
C106.35 4.22 105.86 3.77 105.25 3.51
C104.63 3.24 103.74 3.11 102.56 3.11
Z
M109.70 5.51
L108.09 6.16
L108.17 6.37
C108.33 6.31 108.46 6.28 108.57 6.28
C108.67 6.28 108.75 6.30 108.81 6.35
C108.86 6.40 108.91 6.49 108.93 6.61
C108.97 6.78 108.99 7.16 108.99 7.73
L108.99 9.79
C108.99 10.11 108.96 10.34 108.91 10.45
C108.86 10.57 108.79 10.65 108.70 10.70
C108.61 10.75 108.43 10.78 108.17 10.78
L108.17 10.99
L110.76 10.99
L110.76 10.78
C110.51 10.78 110.33 10.75 110.24 10.70
C110.14 10.64 110.07 10.56 110.02 10.45
C109.98 10.34 109.95 10.12 109.95 9.79
L109.95 5.51
Z
M113.63 5.51
C113.01 5.51 112.53 5.65 112.19 5.93
C111.85 6.20 111.68 6.51 111.68 6.84
C111.68 7.02 111.72 7.16 111.81 7.26
C111.91 7.36 112.02 7.41 112.17 7.41
C112.31 7.41 112.43 7.36 112.52 7.26
C112.62 7.17 112.66 7.03 112.66 6.85
L112.65 6.51
C112.65 6.34 112.72 6.19 112.87 6.06
C113.01 5.93 113.21 5.86 113.45 5.86
C113.77 5.86 114.02 5.96 114.19 6.16
C114.36 6.36 114.44 6.72 114.44 7.25
L114.44 7.46
C113.53 7.79 112.87 8.08 112.48 8.31
C112.08 8.54 111.81 8.79 111.65 9.05
C111.53 9.24 111.47 9.47 111.47 9.73
C111.47 10.14 111.59 10.47 111.83 10.72
C112.07 10.97 112.37 11.10 112.74 11.10
C112.98 11.10 113.20 11.05 113.41 10.95
C113.55 10.89 113.89 10.64 114.44 10.22
C114.44 10.54 114.50 10.76 114.61 10.90
C114.73 11.03 114.88 11.09 115.07 11.09
C115.46 11.09 115.88 10.80 116.31 10.22
L116.31 9.90
C116.08 10.13 115.92 10.27 115.84 10.32
C115.79 10.35 115.74 10.36 115.68 10.36
C115.62 10.36 115.57 10.34 115.52 10.30
C115.48 10.26 115.45 10.19 115.43 10.07
C115.41 9.96 115.40 9.65 115.40 9.14
L115.40 7.33
C115.40 6.82 115.36 6.48 115.29 6.31
C115.19 6.05 115.02 5.87 114.79 5.75
C114.49 5.59 114.10 5.51 113.63 5.51
Z
M124.63 3.11
L123.12 6.17
C123.85 6.20 124.42 6.30 124.85 6.47
C125.38 6.70 125.81 7.02 126.11 7.43
C126.42 7.84 126.57 8.29 126.57 8.76
C126.57 9.25 126.40 9.67 126.06 10.02
C125.71 10.36 125.32 10.53 124.86 10.53
C124.56 10.53 124.27 10.43 123.98 10.23
C123.80 10.10 123.67 10.02 123.59 9.99
C123.52 9.96 123.43 9.94 123.33 9.94
C123.19 9.94 123.08 9.98 122.99 10.07
C122.90 10.15 122.86 10.25 122.86 10.36
C122.86 10.55 122.96 10.73 123.18 10.89
C123.39 11.05 123.74 11.13 124.21 11.13
C124.68 11.13 125.14 11.02 125.58 10.81
C125.90 10.66 126.18 10.46 126.44 10.21
C126.69 9.96 126.91 9.66 127.07 9.31
C127.24 8.96 127.33 8.57 127.33 8.16
C127.33 7.44 127.07 6.82 126.55 6.30
C125.95 5.69 125.14 5.30 124.11 5.15
L124.63 4.09
L127.00 4.09
L127.46 3.11
Z
M117.82 9.86
C117.64 9.86 117.49 9.92 117.37 10.05
C117.24 10.17 117.18 10.32 117.18 10.51
C117.18 10.68 117.24 10.84 117.37 10.96
C117.49 11.09 117.64 11.15 117.82 11.15
C118.00 11.15 118.15 11.09 118.28 10.96
C118.41 10.84 118.47 10.68 118.47 10.51
C118.47 10.33 118.41 10.18 118.28 10.05
C118.16 9.92 118.01 9.86 117.82 9.86
Z
" fill="black" fill-rule="nonzero" />
</g>
</g>
</svg>
