<?xml version="1.0" encoding="utf-8" standalone="no"?>
<!DOCTYPE svg PUBLIC "-//W3C//DTD SVG 1.0//EN" "http://www.w3.org/TR/SVG/DTD/svg11.dtd" >
<svg version="1.1" baseProfile="full"  width="319.13385" height="338.51422" viewBox="0 0 229.77638 243.73024" preserveAspectRatio="xMidYMid" xmlns="http://www.w3.org/2000/svg" >

<g lengthAdjust="spacingAndGlyphs" xml:space='preserve' >
<g  transform="translate(1.19,1.19)" >
<path d="
M0.0 0.0
L0.0 227.39
L227.39 227.39
L227.39 0.0
Z
" fill="none" fill-rule="nonzero" />
<line x1="6.54" y1="6.54" x2="6.54" y2="220.84" fill="none" stroke="black" stroke-width="0.87px" stroke-linecap="square" />
<line x1="18.45" y1="6.54" x2="18.45" y2="220.84" fill="none" stroke="black" stroke-width="0.25px" stroke-linecap="butt" />
<line x1="30.35" y1="6.54" x2="30.35" y2="220.84" fill="none" stroke="black" stroke-width="0.25px" stroke-linecap="butt" />
<line x1="42.26" y1="6.54" x2="42.26" y2="220.84" fill="none" stroke="black" stroke-width="0.25px" stroke-linecap="butt" />
<line x1="54.17" y1="6.54" x2="54.17" y2="220.84" fill="none" stroke="black" stroke-width="0.25px" stroke-linecap="butt" />
<line x1="66.07" y1="6.54" x2="66.07" y2="220.84" fill="none" stroke="black" stroke-width="0.25px" stroke-linecap="butt" />
<line x1="77.98" y1="6.54" x2="77.98" y2="220.84" fill="none" stroke="black" stroke-width="0.25px" stroke-linecap="butt" />
<line x1="89.88" y1="6.54" x2="89.88" y2="220.84" fill="none" stroke="black" stroke-width="0.25px" stroke-linecap="butt" />
<line x1="101.79" y1="6.54" x2="101.79" y2="220.84" fill="none" stroke="black" stroke-width="0.25px" stroke-linecap="butt" />
<line x1="113.69" y1="6.54" x2="113.69" y2="220.84" fill="none" stroke="black" stroke-width="0.25px" stroke-linecap="butt" />
<line x1="125.60" y1="6.54" x2="125.60" y2="220.84" fill="none" stroke="black" stroke-width="0.25px" stroke-linecap="butt" />
<line x1="137.50" y1="6.54" x2="137.50" y2="220.84" fill="none" stroke="black" stroke-width="0.25px" stroke-linecap="butt" />
<line x1="149.41" y1="6.54" x2="149.41" y2="220.84" fill="none" stroke="black" stroke-width="0.25px" stroke-linecap="butt" />
<line x1="161.31" y1="6.54" x2="161.31" y2="220.84" fill="none" stroke="black" stroke-width="0.25px" stroke-linecap="butt" />
<line x1="173.22" y1="6.54" x2="173.22" y2="220.84" fill="none" stroke="black" stroke-width="0.25px" stroke-linecap="butt" />
<line x1="185.13" y1="6.54" x2="185.13" y2="220.84" fill="none" stroke="black" stroke-width="0.25px" stroke-linecap="butt" />
<line x1="197.03" y1="6.54" x2="197.03" y2="220.84" fill="none" stroke="black" stroke-width="0.25px" stroke-linecap="butt" />
<line x1="208.94" y1="6.54" x2="208.94" y2="220.84" fill="none" stroke="black" stroke-width="0.25px" stroke-linecap="butt" />
<line x1="220.84" y1="6.54" x2="220.84" y2="220.84" fill="none" stroke="black" stroke-width="0.87px" stroke-linecap="square" />
<line x1="6.54" y1="6.54" x2="220.84" y2="6.54" fill="none" stroke="black" stroke-width="0.87px" stroke-linecap="square" />
<line x1="6.54" y1="18.45" x2="220.84" y2="18.45" fill="none" stroke="black" stroke-width="0.25px" stroke-linecap="butt" />
<line x1="6.54" y1="30.35" x2="220.84" y2="30.35" fill="none" stroke="black" stroke-width="0.25px" stroke-linecap="butt" />
<line x1="6.54" y1="42.26" x2="220.84" y2="42.26" fill="none" stroke="black" stroke-width="0.25px" stroke-linecap="butt" />
<line x1="6.54" y1="54.17" x2="220.84" y2="54.17" fill="none" stroke="black" stroke-width="0.25px" stroke-linecap="butt" />
<line x1="6.54" y1="66.07" x2="220.84" y2="66.07" fill="none" stroke="black" stroke-width="0.25px" stroke-linecap="butt" />
<line x1="6.54" y1="77.98" x2="220.84" y2="77.98" fill="none" stroke="black" stroke-width="0.25px" stroke-linecap="butt" />
<line x1="6.54" y1="89.88" x2="220.84" y2="89.88" fill="none" stroke="black" stroke-width="0.25px" stroke-linecap="butt" />
<line x1="6.54" y1="101.79" x2="220.84" y2="101.79" fill="none" stroke="black" stroke-width="0.25px" stroke-linecap="butt" />
<line x1="6.54" y1="113.69" x2="220.84" y2="113.69" fill="none" stroke="black" stroke-width="0.25px" stroke-linecap="butt" />
<line x1="6.54" y1="125.60" x2="220.84" y2="125.60" fill="none" stroke="black" stroke-width="0.25px" stroke-linecap="butt" />
<line x1="6.54" y1="137.50" x2="220.84" y2="137.50" fill="none" stroke="black" stroke-width="0.25px" stroke-linecap="butt" />
<line x1="6.54" y1="149.41" x2="220.84" y2="149.41" fill="none" stroke="black" stroke-width="0.25px" stroke-linecap="butt" />
<line x1="6.54" y1="161.31" x2="220.84" y2="161.31" fill="none" stroke="black" stroke-width="0.25px" stroke-linecap="butt" />
<line x1="6.54" y1="173.22" x2="220.84" y2="173.22" fill="none" stroke="black" stroke-width="0.25px" stroke-linecap="butt" />
<line x1="6.54" y1="185.13" x2="220.84" y2="185.13" fill="none" stroke="black" stroke-width="0.25px" stroke-linecap="butt" />
<line x1="6.54" y1="197.03" x2="220.84" y2="197.03" fill="none" stroke="black" stroke-width="0.25px" stroke-linecap="butt" />
<line x1="6.54" y1="208.94" x2="220.84" y2="208.94" fill="none" stroke="black" stroke-width="0.25px" stroke-linecap="butt" />
<line x1="6.54" y1="220.84" x2="220.84" y2="220.84" fill="none" stroke="black" stroke-width="0.87px" stroke-linecap="square" />
<circle cx="18.45" cy="30.35" r="6.01" fill="black"/>
<circle cx="18.45" cy="42.26" r="5.89" fill="white"/>
<circle cx="18.45" cy="42.26" r="5.89" fill="none" stroke="black" stroke-width="0.25px"/>
<circle cx="18.45" cy="66.07" r="5.89" fill="white"/>
<circle cx="18.45" cy="66.07" r="5.89" fill="none" stroke="black" stroke-width="0.25px"/>
<circle cx="30.35" cy="30.35" r="6.01" fill="black"/>
<circle cx="30.35" cy="54.17" r="5.89" fill="white"/>
<circle cx="30.35" cy="54.17" r="5.89" fill="none" stroke="black" stroke-width="0.25px"/>
<circle cx="30.35" cy="66.07" r="6.01" fill="black"/>
<circle cx="30.35" cy="77.98" r="6.01" fill="black"/>
<circle cx="30.35" cy="125.60" r="5.89" fill="white"/>
<circle cx="30.35" cy="125.60" r="5.89" fill="none" stroke="black" stroke-width="0.25px"/>
<circle cx="30.35" cy="161.31" r="6.01" fill="black"/>
<circle cx="42.26" cy="30.35" r="6.01" fill="black"/>
<circle cx="42.26" cy="42.26" r="5.89" fill="white"/>
<circle cx="42.26" cy="42.26" r="5.89" fill="none" stroke="black" stroke-width="0.25px"/>
<circle cx="42.26" cy="66.07" r="5.89" fill="white"/>
<circle cx="42.26" cy="66.07" r="5.89" fill="none" stroke="black" stroke-width="0.25px"/>
<circle cx="42.26" cy="77.98" r="6.01" fill="black"/>
<circle cx="42.26" cy="113.69" r="1.27" fill="black"/>
<circle cx="42.26" cy="185.13" r="5.89" fill="white"/>
<circle cx="42.26" cy="185.13" r="5.89" fill="none" stroke="black" stroke-width="0.25px"/>
<circle cx="54.17" cy="30.35" r="6.01" fill="black"/>
<circle cx="54.17" cy="42.26" r="6.01" fill="black"/>
<circle cx="54.17" cy="54.17" r="5.89" fill="white"/>
<circle cx="54.17" cy="54.17" r="5.89" fill="none" stroke="black" stroke-width="0.25px"/>
<circle cx="54.17" cy="66.07" r="5.89" fill="white"/>
<circle cx="54.17" cy="66.07" r="5.89" fill="none" stroke="black" stroke-width="0.25px"/>
<circle cx="54.17" cy="77.98" r="6.01" fill="black"/>
<circle cx="66.07" cy="30.35" r="6.01" fill="black"/>
<circle cx="66.07" cy="42.26" r="5.89" fill="white"/>
<circle cx="66.07" cy="42.26" r="5.89" fill="none" stroke="black" stroke-width="0.25px"/>
<circle cx="66.07" cy="77.98" r="6.01" fill="black"/>
<circle cx="66.07" cy="113.69" r="5.89" fill="white"/>
<circle cx="66.07" cy="113.69" r="5.89" fill="none" stroke="black" stroke-width="0.25px"/>
<circle cx="66.07" cy="185.13" r="5.89" fill="white"/>
<circle cx="66.07" cy="185.13" r="5.89" fill="none" stroke="black" stroke-width="0.25px"/>
<circle cx="77.98" cy="66.07" r="5.89" fill="white"/>
<circle cx="77.98" cy="66.07" r="5.89" fill="none" stroke="black" stroke-width="0.25px"/>
<circle cx="77.98" cy="77.98" r="6.01" fill="black"/>
<circle cx="89.88" cy="30.35" r="5.89" fill="white"/>
<circle cx="89.88" cy="30.35" r="5.89" fill="none" stroke="black" stroke-width="0.25px"/>
<circle cx="89.88" cy="66.07" r="5.89" fill="white"/>
<circle cx="89.88" cy="66.07" r="5.89" fill="none" stroke="black" stroke-width="0.25px"/>
<circle cx="113.69" cy="42.26" r="1.27" fill="black"/>
<circle cx="113.69" cy="113.69" r="1.27" fill="black"/>
<circle cx="113.69" cy="185.13" r="1.27" fill="black"/>
<circle cx="113.69" cy="197.03" r="5.89" fill="white"/>
<circle cx="113.69" cy="197.03" r="5.89" fill="none" stroke="black" stroke-width="0.25px"/>
<circle cx="185.13" cy="42.26" r="6.01" fill="black"/>
<circle cx="185.13" cy="113.69" r="1.27" fill="black"/>
<circle cx="185.13" cy="185.13" r="1.27" fill="black"/>
<circle cx="185.13" cy="197.03" r="6.01" fill="black"/>
<circle cx="197.03" cy="173.22" r="6.01" fill="black"/>
<path d="
M20.39 26.57
L20.36 26.67
C20.27 26.97 20.10 27.27 19.87 27.59
C19.64 27.90 19.37 28.17 19.07 28.39
L19.01 28.43
L19.01 28.50
L19.01 29.35
L19.01 29.59
L19.22 29.47
C19.41 29.36 19.63 29.20 19.86 28.99
C19.97 28.90 20.06 28.80 20.15 28.70
L20.15 28.70
L20.15 33.87
L20.15 34.01
L21.01 34.01
L21.01 33.87
L21.01 26.72
L21.01 26.57
Z
M16.55 26.57
C16.15 26.57 15.80 26.75 15.52 27.09
C15.25 27.42 15.08 27.91 15.00 28.54
L14.99 28.67
L15.10 28.70
L15.68 28.85
L15.84 28.90
L15.85 28.73
C15.89 28.32 15.98 28.03 16.12 27.83
C16.24 27.66 16.39 27.58 16.56 27.58
C16.56 27.58 16.56 27.58 16.56 27.58
C16.56 27.58 16.56 27.58 16.56 27.58
C16.73 27.58 16.87 27.66 16.99 27.82
C17.12 28.00 17.18 28.24 17.18 28.54
C17.18 28.87 17.10 29.13 16.95 29.32
C16.80 29.50 16.61 29.59 16.38 29.60
L16.38 29.60
L16.29 29.59
L16.15 29.57
L16.14 29.72
L16.07 30.48
L16.05 30.71
L16.05 30.71
L16.27 30.63
C16.41 30.57 16.53 30.54 16.62 30.54
C16.62 30.54 16.62 30.54 16.62 30.54
C16.62 30.54 16.62 30.54 16.62 30.54
C16.83 30.54 17.00 30.65 17.15 30.86
C17.31 31.09 17.39 31.39 17.39 31.78
C17.39 32.19 17.30 32.52 17.13 32.77
C16.97 33.01 16.78 33.13 16.57 33.13
C16.57 33.13 16.56 33.13 16.56 33.13
C16.56 33.13 16.56 33.13 16.56 33.13
C16.37 33.13 16.21 33.03 16.09 32.84
C15.95 32.63 15.86 32.30 15.80 31.85
L15.78 31.70
L15.63 31.73
L15.05 31.85
L14.93 31.87
L14.94 32.00
C14.98 32.64 15.15 33.15 15.44 33.53
C15.75 33.93 16.13 34.13 16.57 34.13
C17.05 34.13 17.46 33.91 17.79 33.45
C18.12 33.01 18.28 32.45 18.28 31.76
C18.28 31.44 18.24 31.15 18.16 30.89
C18.08 30.62 17.98 30.40 17.84 30.24
C17.75 30.13 17.65 30.04 17.53 29.97
L17.53 29.97
C17.67 29.84 17.78 29.67 17.87 29.48
C17.99 29.21 18.05 28.91 18.05 28.56
C18.05 28.00 17.91 27.53 17.63 27.15
C17.34 26.77 16.98 26.57 16.55 26.57
Z
" fill="white" fill-rule="nonzero" />
<path d="
M20.24 39.34
C20.45 39.34 20.63 39.45 20.78 39.66
C20.93 39.87 21.01 40.15 21.01 40.48
C21.01 40.80 20.93 41.07 20.78 41.27
C20.64 41.47 20.46 41.58 20.25 41.58
C20.03 41.58 19.85 41.47 19.70 41.27
C19.56 41.06 19.48 40.78 19.48 40.43
C19.48 40.12 19.56 39.86 19.71 39.65
C19.85 39.45 20.03 39.34 20.24 39.34
Z
M20.23 42.29
C20.50 42.29 20.72 42.42 20.91 42.69
C21.10 42.96 21.20 43.31 21.20 43.75
C21.20 44.18 21.10 44.53 20.92 44.79
C20.74 45.05 20.51 45.18 20.25 45.18
C19.99 45.18 19.76 45.04 19.57 44.78
C19.39 44.51 19.29 44.16 19.29 43.72
C19.29 43.30 19.38 42.96 19.57 42.69
C19.75 42.42 19.97 42.29 20.23 42.29
Z
M16.87 38.62
C16.77 38.93 16.60 39.25 16.36 39.58
C16.11 39.91 15.83 40.18 15.52 40.41
L15.52 41.26
C15.70 41.15 15.91 41.00 16.13 40.80
C16.35 40.59 16.53 40.40 16.66 40.20
L16.66 45.77
L17.24 45.77
L17.24 38.62
Z
M20.24 38.62
C19.85 38.62 19.53 38.79 19.27 39.13
C19.02 39.47 18.89 39.91 18.89 40.45
C18.89 40.81 18.95 41.11 19.07 41.36
C19.19 41.60 19.36 41.78 19.59 41.91
C19.31 42.02 19.10 42.23 18.94 42.54
C18.78 42.85 18.71 43.24 18.71 43.72
C18.71 44.37 18.85 44.90 19.15 45.30
C19.44 45.70 19.81 45.90 20.25 45.90
C20.68 45.90 21.05 45.70 21.34 45.30
C21.64 44.90 21.78 44.38 21.78 43.74
C21.78 43.28 21.71 42.90 21.56 42.59
C21.40 42.28 21.19 42.05 20.90 41.91
C21.14 41.78 21.31 41.59 21.42 41.36
C21.54 41.12 21.59 40.83 21.59 40.48
C21.59 39.94 21.46 39.49 21.21 39.14
C20.95 38.80 20.63 38.62 20.24 38.62
Z
" fill="black" fill-rule="nonzero" />
<path d="
M20.28 62.43
C19.84 62.43 19.48 62.60 19.22 62.95
C18.95 63.29 18.79 63.81 18.75 64.49
L19.34 64.58
C19.34 64.12 19.43 63.77 19.60 63.52
C19.77 63.28 19.99 63.16 20.26 63.16
C20.50 63.16 20.71 63.27 20.88 63.50
C21.05 63.73 21.14 64.02 21.14 64.38
C21.14 64.70 21.06 65.04 20.89 65.40
C20.72 65.77 20.37 66.28 19.84 66.95
C19.38 67.52 19.06 68.02 18.89 68.44
C18.72 68.86 18.64 69.24 18.64 69.58
L21.73 69.58
L21.73 68.74
L19.44 68.74
C19.50 68.58 19.58 68.43 19.68 68.27
C19.78 68.11 20.00 67.81 20.35 67.37
C20.88 66.68 21.25 66.12 21.44 65.71
C21.63 65.29 21.73 64.86 21.73 64.40
C21.73 63.89 21.60 63.44 21.36 63.03
C21.11 62.63 20.75 62.43 20.28 62.43
Z
M16.55 62.43
C16.19 62.43 15.88 62.59 15.63 62.90
C15.38 63.21 15.21 63.67 15.14 64.28
L15.71 64.43
C15.75 64.00 15.85 63.68 16.00 63.47
C16.15 63.26 16.34 63.15 16.56 63.15
C16.77 63.15 16.95 63.25 17.10 63.45
C17.25 63.66 17.32 63.92 17.32 64.26
C17.32 64.62 17.23 64.91 17.06 65.13
C16.88 65.35 16.65 65.45 16.37 65.45
L16.28 65.44
L16.21 66.21
C16.37 66.15 16.51 66.11 16.62 66.11
C16.87 66.11 17.09 66.24 17.27 66.49
C17.44 66.75 17.53 67.08 17.53 67.49
C17.53 67.93 17.44 68.29 17.24 68.57
C17.05 68.85 16.83 68.99 16.56 68.99
C16.08 68.99 15.78 68.52 15.66 67.59
L15.08 67.70
C15.12 68.32 15.28 68.80 15.56 69.17
C15.83 69.53 16.17 69.71 16.57 69.71
C17.00 69.71 17.37 69.50 17.68 69.09
C17.99 68.67 18.14 68.13 18.14 67.48
C18.14 67.17 18.10 66.89 18.03 66.64
C17.95 66.39 17.86 66.20 17.73 66.05
C17.61 65.90 17.46 65.79 17.27 65.73
C17.47 65.58 17.63 65.39 17.74 65.14
C17.86 64.89 17.91 64.60 17.91 64.28
C17.91 63.75 17.78 63.31 17.52 62.96
C17.25 62.61 16.93 62.43 16.55 62.43
Z
" fill="black" fill-rule="nonzero" />
<path d="
M28.67 26.57
L28.64 26.67
C28.54 26.97 28.38 27.27 28.15 27.59
C27.91 27.90 27.65 28.17 27.34 28.39
L27.28 28.43
L27.28 28.50
L27.28 29.35
L27.28 29.59
L27.49 29.47
C27.69 29.36 27.90 29.20 28.13 28.99
C28.24 28.90 28.34 28.80 28.43 28.70
L28.43 28.70
L28.43 33.87
L28.43 34.01
L29.29 34.01
L29.29 33.87
L29.29 26.72
L29.29 26.57
Z
M32.09 26.57
C31.68 26.57 31.34 26.75 31.06 27.09
C30.79 27.42 30.61 27.91 30.54 28.54
L30.52 28.67
L30.64 28.70
L31.21 28.85
L31.37 28.90
L31.39 28.73
C31.43 28.32 31.52 28.03 31.65 27.83
C31.77 27.66 31.92 27.58 32.09 27.58
C32.09 27.58 32.09 27.58 32.10 27.58
C32.10 27.58 32.10 27.58 32.10 27.58
C32.26 27.58 32.40 27.66 32.52 27.82
C32.65 28.00 32.72 28.24 32.72 28.54
C32.72 28.87 32.64 29.13 32.48 29.32
C32.34 29.50 32.15 29.59 31.91 29.60
L31.91 29.60
L31.83 29.59
L31.69 29.57
L31.67 29.72
L31.61 30.48
L31.59 30.71
L31.59 30.71
L31.80 30.63
C31.95 30.57 32.06 30.54 32.15 30.54
C32.15 30.54 32.15 30.54 32.15 30.54
C32.15 30.54 32.16 30.54 32.16 30.54
C32.36 30.54 32.54 30.65 32.69 30.86
C32.85 31.09 32.93 31.39 32.93 31.78
C32.93 32.19 32.84 32.52 32.66 32.77
C32.50 33.01 32.31 33.13 32.10 33.13
C32.10 33.13 32.10 33.13 32.10 33.13
C32.10 33.13 32.10 33.13 32.10 33.13
C31.91 33.13 31.75 33.03 31.63 32.84
C31.49 32.63 31.39 32.30 31.33 31.85
L31.31 31.70
L31.17 31.73
L30.59 31.85
L30.47 31.87
L30.48 32.00
C30.52 32.64 30.69 33.15 30.98 33.53
C31.29 33.93 31.66 34.13 32.11 34.13
C32.58 34.13 32.99 33.91 33.33 33.45
C33.66 33.01 33.82 32.45 33.82 31.76
C33.82 31.44 33.78 31.15 33.70 30.89
C33.62 30.62 33.51 30.40 33.38 30.24
C33.29 30.13 33.19 30.04 33.07 29.97
L33.07 29.97
C33.21 29.84 33.32 29.67 33.41 29.48
C33.53 29.21 33.59 28.91 33.59 28.56
C33.59 28.00 33.45 27.53 33.16 27.15
C32.87 26.77 32.51 26.57 32.09 26.57
Z
" fill="white" fill-rule="nonzero" />
<path d="
M32.45 52.02
L32.45 55.23
L30.99 55.23
L32.45 52.02
Z
M28.77 50.59
C28.67 50.90 28.50 51.22 28.26 51.55
C28.02 51.87 27.74 52.15 27.42 52.38
L27.42 53.22
C27.61 53.12 27.81 52.97 28.04 52.76
C28.26 52.56 28.44 52.36 28.57 52.17
L28.57 57.74
L29.15 57.74
L29.15 50.59
Z
M32.56 50.62
L30.43 55.23
L30.43 56.04
L32.45 56.04
L32.45 57.74
L33.03 57.74
L33.03 56.04
L33.66 56.04
L33.66 55.23
L33.03 55.23
L33.03 50.62
Z
" fill="black" fill-rule="nonzero" />
<path d="
M28.67 62.35
L28.64 62.45
C28.54 62.75 28.38 63.05 28.15 63.37
C27.91 63.68 27.65 63.95 27.34 64.17
L27.28 64.21
L27.28 64.28
L27.28 65.13
L27.28 65.37
L27.49 65.25
C27.69 65.14 27.90 64.98 28.13 64.77
C28.24 64.68 28.34 64.58 28.43 64.48
L28.43 64.48
L28.43 69.65
L28.43 69.79
L29.29 69.79
L29.29 69.65
L29.29 62.49
L29.29 62.35
Z
M32.30 62.35
L32.27 62.45
C32.17 62.75 32.01 63.05 31.78 63.37
C31.54 63.68 31.28 63.95 30.97 64.17
L30.91 64.21
L30.91 64.28
L30.91 65.13
L30.91 65.37
L31.12 65.25
C31.32 65.14 31.53 64.98 31.76 64.77
C31.87 64.68 31.97 64.58 32.06 64.48
L32.06 64.48
L32.06 69.65
L32.06 69.79
L32.92 69.79
L32.92 69.65
L32.92 62.49
L32.92 62.35
Z
" fill="white" fill-rule="nonzero" />
<path d="
M28.67 74.26
L28.64 74.36
C28.54 74.65 28.38 74.96 28.15 75.27
C27.91 75.59 27.65 75.85 27.34 76.07
L27.28 76.12
L27.28 76.19
L27.28 77.03
L27.28 77.27
L27.49 77.16
C27.69 77.05 27.90 76.89 28.13 76.68
C28.24 76.58 28.34 76.48 28.43 76.39
L28.43 76.39
L28.43 81.55
L28.43 81.69
L29.29 81.69
L29.29 81.55
L29.29 74.40
L29.29 74.26
Z
M30.51 74.38
L30.51 74.52
L30.51 75.36
L30.51 75.50
L32.70 75.50
C32.45 75.97 32.21 76.52 31.99 77.15
C31.74 77.88 31.54 78.64 31.39 79.44
C31.25 80.24 31.17 80.95 31.16 81.55
L31.16 81.69
L31.90 81.69
L32.03 81.69
L32.04 81.56
C32.09 80.42 32.29 79.26 32.62 78.10
C32.96 76.94 33.35 76.00 33.80 75.28
L33.82 75.24
L33.82 75.20
L33.82 74.52
L33.82 74.38
Z
" fill="white" fill-rule="nonzero" />
<path d="
M32.18 125.27
C32.43 125.27 32.65 125.40 32.82 125.68
C33.00 125.96 33.09 126.35 33.09 126.86
C33.09 127.37 33.00 127.78 32.82 128.07
C32.64 128.37 32.44 128.52 32.22 128.52
C31.96 128.52 31.73 128.36 31.54 128.05
C31.35 127.73 31.25 127.32 31.25 126.81
C31.25 126.33 31.34 125.96 31.53 125.68
C31.71 125.40 31.93 125.27 32.18 125.27
Z
M28.77 121.96
C28.67 122.27 28.50 122.59 28.26 122.92
C28.02 123.25 27.74 123.52 27.42 123.75
L27.42 124.59
C27.61 124.49 27.81 124.34 28.04 124.14
C28.26 123.93 28.44 123.73 28.57 123.54
L28.57 129.11
L29.15 129.11
L29.15 121.96
Z
M32.26 121.96
C31.77 121.96 31.37 122.25 31.06 122.84
C30.74 123.42 30.59 124.40 30.59 125.78
C30.59 127.02 30.74 127.91 31.05 128.44
C31.35 128.97 31.74 129.23 32.21 129.23
C32.47 129.23 32.71 129.14 32.93 128.96
C33.15 128.77 33.33 128.49 33.47 128.10
C33.60 127.71 33.67 127.28 33.67 126.81
C33.67 126.10 33.54 125.54 33.26 125.12
C32.98 124.70 32.66 124.49 32.29 124.49
C32.07 124.49 31.86 124.57 31.66 124.73
C31.46 124.89 31.29 125.13 31.16 125.44
C31.16 124.57 31.25 123.91 31.42 123.46
C31.63 122.94 31.89 122.68 32.23 122.68
C32.44 122.68 32.63 122.79 32.78 123.02
C32.89 123.18 32.97 123.44 33.02 123.80
L33.59 123.73
C33.54 123.16 33.39 122.72 33.15 122.42
C32.91 122.11 32.62 121.96 32.26 121.96
Z
" fill="black" fill-rule="nonzero" />
<path d="
M30.33 158.58
C30.33 158.58 30.33 158.58 30.33 158.58
C30.34 158.58 30.34 158.58 30.34 158.58
C30.58 158.58 30.80 158.70 31.00 158.96
C31.20 159.22 31.30 159.58 31.30 160.05
C31.30 160.53 31.20 160.89 31.01 161.14
C30.82 161.38 30.59 161.50 30.32 161.50
C30.32 161.50 30.32 161.50 30.32 161.50
C30.32 161.50 30.32 161.50 30.32 161.50
C30.05 161.50 29.81 161.38 29.61 161.14
C29.41 160.89 29.31 160.55 29.31 160.13
C29.31 159.65 29.41 159.27 29.63 158.99
C29.84 158.71 30.08 158.58 30.33 158.58
Z
M30.25 157.58
C29.70 157.58 29.24 157.81 28.86 158.27
C28.48 158.72 28.29 159.33 28.29 160.10
C28.29 160.85 28.47 161.44 28.84 161.88
C29.21 162.32 29.65 162.54 30.16 162.54
C30.45 162.54 30.73 162.45 31.00 162.27
C31.14 162.18 31.26 162.07 31.37 161.95
L31.37 161.95
C31.35 162.36 31.29 162.73 31.18 163.05
C31.06 163.44 30.91 163.70 30.74 163.85
C30.57 163.99 30.38 164.05 30.18 164.05
C30.18 164.05 30.18 164.05 30.18 164.05
C30.18 164.05 30.18 164.05 30.18 164.05
C29.96 164.05 29.78 163.98 29.65 163.83
C29.51 163.66 29.41 163.41 29.36 163.06
L29.34 162.93
L29.21 162.94
L28.52 163.02
L28.38 163.03
L28.40 163.17
C28.46 163.77 28.65 164.23 28.97 164.56
C29.29 164.88 29.69 165.05 30.17 165.05
C30.59 165.05 30.97 164.92 31.30 164.65
C31.64 164.38 31.90 163.97 32.09 163.41
C32.28 162.86 32.37 162.10 32.37 161.12
C32.37 160.23 32.28 159.55 32.11 159.07
C31.93 158.59 31.67 158.22 31.34 157.96
C31.01 157.71 30.64 157.58 30.25 157.58
Z
" fill="white" fill-rule="nonzero" />
<path d="
M43.47 29.24
L43.47 29.24
L43.47 29.24
C43.47 29.24 43.47 29.24 43.47 29.24
Z
M40.57 26.58
L40.54 26.67
C40.45 26.97 40.29 27.28 40.05 27.59
C39.82 27.91 39.55 28.17 39.25 28.39
L39.19 28.43
L39.19 28.51
L39.19 29.35
L39.19 29.59
L39.19 29.59
L39.40 29.47
C39.59 29.37 39.81 29.21 40.04 29.00
C40.15 28.90 40.25 28.80 40.33 28.70
L40.33 28.70
L40.33 33.87
L40.33 34.01
L41.19 34.01
L41.19 33.87
L41.19 26.72
L41.19 26.58
Z
M42.95 26.70
L42.94 26.83
L42.48 30.48
L42.46 30.62
L42.59 30.64
L43.13 30.75
L43.25 30.77
L43.29 30.66
C43.37 30.47 43.48 30.32 43.61 30.21
C43.73 30.11 43.87 30.06 44.01 30.06
C44.01 30.06 44.01 30.06 44.01 30.06
C44.01 30.06 44.01 30.06 44.01 30.06
C44.25 30.06 44.45 30.18 44.61 30.42
C44.78 30.68 44.87 31.04 44.87 31.52
C44.87 32.04 44.78 32.44 44.60 32.73
C44.43 33.00 44.24 33.13 44.02 33.13
C44.01 33.13 44.01 33.13 44.01 33.13
C44.01 33.13 44.01 33.13 44.01 33.13
C43.84 33.13 43.69 33.04 43.55 32.85
C43.40 32.65 43.31 32.34 43.26 31.91
L43.25 31.77
L43.10 31.79
L42.50 31.86
L42.37 31.88
L42.38 32.01
C42.42 32.66 42.59 33.18 42.89 33.55
C43.19 33.94 43.57 34.13 44.02 34.13
C44.56 34.13 44.99 33.86 45.31 33.32
C45.61 32.80 45.76 32.18 45.76 31.45
C45.76 30.72 45.61 30.13 45.30 29.69
C44.98 29.23 44.60 29.01 44.16 29.01
C43.92 29.01 43.69 29.08 43.47 29.24
L43.47 29.24
L43.66 27.82
L45.54 27.82
L45.54 27.68
L45.54 26.84
L45.54 26.70
Z
" fill="white" fill-rule="nonzero" />
<path d="
M42.27 38.73
C41.73 38.73 41.30 38.90 40.97 39.24
C40.64 39.58 40.44 40.09 40.39 40.76
L41.12 40.85
C41.12 40.40 41.23 40.05 41.44 39.81
C41.65 39.56 41.92 39.44 42.25 39.44
C42.56 39.44 42.82 39.56 43.03 39.78
C43.23 40.01 43.34 40.30 43.34 40.66
C43.34 40.97 43.24 41.30 43.03 41.66
C42.83 42.02 42.39 42.53 41.73 43.19
C41.17 43.76 40.78 44.25 40.56 44.66
C40.35 45.08 40.25 45.46 40.26 45.79
L44.07 45.79
L44.07 44.96
L41.24 44.96
C41.32 44.80 41.42 44.65 41.54 44.49
C41.67 44.33 41.94 44.04 42.36 43.61
C43.02 42.92 43.47 42.38 43.71 41.96
C43.95 41.55 44.06 41.12 44.06 40.68
C44.06 40.17 43.91 39.72 43.61 39.32
C43.31 38.93 42.86 38.73 42.27 38.73
Z
" fill="black" fill-rule="nonzero" />
<path d="
M40.68 62.49
C40.58 62.81 40.41 63.12 40.17 63.45
C39.92 63.78 39.65 64.06 39.33 64.28
L39.33 65.13
C39.52 65.02 39.72 64.87 39.94 64.67
C40.17 64.47 40.34 64.27 40.48 64.07
L40.48 69.65
L41.05 69.65
L41.05 62.49
Z
M44.09 62.49
C43.65 62.49 43.30 62.67 43.03 63.01
C42.76 63.36 42.60 63.87 42.56 64.55
L43.15 64.65
C43.15 64.19 43.24 63.83 43.41 63.59
C43.58 63.34 43.80 63.22 44.07 63.22
C44.32 63.22 44.52 63.33 44.69 63.56
C44.86 63.79 44.95 64.09 44.95 64.45
C44.95 64.76 44.87 65.10 44.70 65.47
C44.53 65.83 44.18 66.35 43.65 67.01
C43.19 67.59 42.87 68.08 42.70 68.50
C42.53 68.93 42.45 69.31 42.45 69.65
L45.54 69.65
L45.54 68.81
L43.25 68.81
C43.31 68.65 43.39 68.49 43.49 68.33
C43.59 68.17 43.81 67.87 44.16 67.44
C44.69 66.74 45.06 66.19 45.25 65.77
C45.44 65.36 45.54 64.92 45.54 64.47
C45.54 63.96 45.41 63.50 45.17 63.10
C44.92 62.70 44.56 62.49 44.09 62.49
Z
" fill="black" fill-rule="nonzero" />
<path d="
M44.06 75.21
C44.06 75.21 44.06 75.21 44.06 75.21
C44.06 75.21 44.06 75.21 44.06 75.21
C44.25 75.21 44.41 75.33 44.56 75.58
C44.73 75.84 44.82 76.22 44.82 76.70
C44.82 77.19 44.73 77.56 44.57 77.81
C44.43 78.05 44.25 78.16 44.05 78.16
C44.05 78.16 44.05 78.16 44.05 78.16
C44.05 78.16 44.05 78.16 44.04 78.16
C43.84 78.16 43.66 78.04 43.50 77.81
C43.34 77.56 43.25 77.21 43.25 76.77
C43.25 76.28 43.34 75.89 43.52 75.60
C43.68 75.34 43.86 75.21 44.06 75.21
Z
M40.57 74.20
L40.54 74.30
C40.45 74.59 40.29 74.90 40.05 75.21
C39.82 75.53 39.55 75.79 39.25 76.01
L39.19 76.05
L39.19 76.13
L39.19 76.97
L39.19 77.21
L39.40 77.10
C39.59 76.99 39.81 76.83 40.04 76.62
C40.15 76.52 40.25 76.42 40.33 76.32
L40.33 76.32
L40.33 81.49
L40.33 81.63
L41.19 81.63
L41.19 81.49
L41.19 74.34
L41.19 74.20
Z
M43.99 74.20
C43.53 74.20 43.15 74.43 42.83 74.90
C42.53 75.36 42.38 75.97 42.38 76.74
C42.38 77.50 42.52 78.09 42.82 78.53
C43.12 78.99 43.49 79.22 43.92 79.22
C44.16 79.22 44.40 79.12 44.63 78.93
C44.72 78.86 44.80 78.78 44.87 78.68
L44.87 78.68
C44.85 79.08 44.80 79.43 44.72 79.74
C44.62 80.13 44.49 80.40 44.36 80.55
C44.23 80.68 44.09 80.75 43.94 80.75
C43.94 80.75 43.94 80.75 43.93 80.75
C43.93 80.75 43.93 80.75 43.93 80.75
C43.77 80.75 43.63 80.68 43.53 80.53
C43.42 80.36 43.34 80.10 43.30 79.75
L43.28 79.61
L43.14 79.63
L42.59 79.70
L42.45 79.72
L42.46 79.86
C42.51 80.46 42.67 80.92 42.92 81.25
C43.19 81.58 43.52 81.75 43.92 81.75
C44.28 81.75 44.59 81.62 44.87 81.34
C45.14 81.07 45.36 80.66 45.51 80.09
C45.66 79.54 45.74 78.77 45.74 77.77
C45.74 76.88 45.67 76.20 45.52 75.72
C45.38 75.23 45.17 74.85 44.90 74.60
C44.62 74.33 44.32 74.20 43.99 74.20
Z
" fill="white" fill-rule="nonzero" />
<path d="
M42.61 182.99
L42.61 186.17
L40.81 186.17
L42.61 182.99
Z
M42.74 181.61
L40.11 186.17
L40.11 186.96
L42.61 186.96
L42.61 188.64
L43.32 188.64
L43.32 186.96
L44.10 186.96
L44.10 186.17
L43.32 186.17
L43.32 181.61
Z
" fill="black" fill-rule="nonzero" />
<path d="
M55.38 29.24
L55.38 29.24
L55.38 29.24
C55.38 29.24 55.38 29.24 55.38 29.24
Z
M52.36 26.58
C51.88 26.58 51.49 26.77 51.19 27.15
C50.90 27.52 50.74 28.06 50.70 28.77
L50.69 28.90
L50.82 28.92
L51.41 29.01
L51.57 29.04
L51.57 28.87
C51.57 28.44 51.65 28.11 51.80 27.89
C51.94 27.69 52.12 27.58 52.34 27.58
C52.34 27.58 52.34 27.58 52.34 27.58
C52.34 27.58 52.34 27.58 52.35 27.58
C52.55 27.58 52.72 27.68 52.86 27.87
C53.01 28.07 53.08 28.34 53.08 28.67
C53.08 28.96 53.00 29.28 52.85 29.63
C52.69 29.98 52.34 30.49 51.81 31.15
C51.34 31.73 51.02 32.24 50.84 32.67
C50.67 33.11 50.58 33.51 50.59 33.87
L50.59 34.01
L53.96 34.01
L53.96 33.87
L53.96 33.03
L53.96 32.89
L51.74 32.89
C51.79 32.80 51.83 32.71 51.89 32.63
C51.99 32.47 52.20 32.18 52.54 31.75
C53.09 31.04 53.46 30.48 53.65 30.05
C53.85 29.62 53.95 29.16 53.95 28.69
C53.95 28.15 53.82 27.67 53.57 27.25
C53.29 26.80 52.89 26.58 52.36 26.58
Z
M54.86 26.70
L54.84 26.83
L54.39 30.48
L54.37 30.62
L54.50 30.64
L55.04 30.75
L55.15 30.77
L55.20 30.66
C55.28 30.47 55.38 30.32 55.52 30.21
C55.64 30.11 55.77 30.06 55.91 30.06
C55.91 30.06 55.91 30.06 55.91 30.06
C55.92 30.06 55.92 30.06 55.92 30.06
C56.15 30.06 56.35 30.18 56.51 30.42
C56.69 30.68 56.78 31.04 56.78 31.52
C56.78 32.04 56.68 32.44 56.50 32.73
C56.33 33.00 56.14 33.13 55.92 33.13
C55.92 33.13 55.92 33.13 55.92 33.13
C55.92 33.13 55.92 33.13 55.92 33.13
C55.75 33.13 55.59 33.04 55.46 32.85
C55.31 32.65 55.21 32.34 55.17 31.91
L55.15 31.77
L55.01 31.79
L54.41 31.86
L54.28 31.88
L54.28 32.01
C54.32 32.66 54.49 33.18 54.79 33.55
C55.10 33.94 55.48 34.13 55.93 34.13
C56.47 34.13 56.90 33.86 57.21 33.32
C57.51 32.80 57.66 32.18 57.66 31.45
C57.66 30.72 57.51 30.13 57.21 29.69
C56.89 29.23 56.51 29.01 56.07 29.01
C55.83 29.01 55.60 29.08 55.38 29.24
L55.38 29.24
L55.56 27.82
L57.44 27.82
L57.44 27.68
L57.44 26.84
L57.44 26.70
Z
" fill="white" fill-rule="nonzero" />
<path d="
M52.36 38.48
C51.88 38.48 51.49 38.67 51.19 39.05
C50.90 39.42 50.74 39.96 50.70 40.67
L50.69 40.80
L50.82 40.82
L51.41 40.91
L51.57 40.94
L51.57 40.77
C51.57 40.34 51.65 40.02 51.80 39.79
C51.94 39.59 52.12 39.49 52.34 39.49
C52.34 39.49 52.34 39.49 52.34 39.49
C52.34 39.49 52.34 39.49 52.35 39.49
C52.55 39.49 52.72 39.58 52.86 39.77
C53.01 39.97 53.08 40.24 53.08 40.57
C53.08 40.87 53.00 41.19 52.85 41.53
C52.69 41.89 52.34 42.39 51.81 43.05
C51.34 43.63 51.02 44.14 50.84 44.58
C50.67 45.02 50.58 45.42 50.59 45.78
L50.59 45.91
L53.96 45.91
L53.96 45.77
L53.96 44.93
L53.96 44.79
L51.74 44.79
C51.79 44.70 51.83 44.62 51.89 44.53
C51.99 44.38 52.20 44.08 52.54 43.65
C53.09 42.95 53.46 42.38 53.65 41.96
C53.85 41.52 53.95 41.07 53.95 40.59
C53.95 40.05 53.82 39.57 53.57 39.15
C53.29 38.70 52.89 38.48 52.36 38.48
Z
M55.90 38.48
C55.49 38.48 55.15 38.65 54.87 39.00
C54.60 39.33 54.42 39.81 54.35 40.45
L54.33 40.57
L54.45 40.60
L55.02 40.76
L55.18 40.80
L55.20 40.64
C55.24 40.23 55.33 39.93 55.46 39.74
C55.59 39.57 55.73 39.48 55.90 39.48
C55.90 39.48 55.91 39.48 55.91 39.48
C55.91 39.48 55.91 39.48 55.91 39.48
C56.07 39.48 56.21 39.56 56.33 39.73
C56.46 39.90 56.53 40.14 56.53 40.45
C56.53 40.78 56.45 41.04 56.29 41.23
C56.15 41.41 55.96 41.50 55.72 41.50
L55.72 41.50
L55.64 41.49
L55.50 41.48
L55.49 41.62
L55.42 42.39
L55.40 42.62
L55.40 42.62
L55.61 42.53
C55.76 42.47 55.87 42.45 55.96 42.45
C55.96 42.45 55.96 42.45 55.96 42.45
C55.97 42.45 55.97 42.45 55.97 42.45
C56.17 42.45 56.35 42.55 56.50 42.76
C56.66 42.99 56.74 43.30 56.74 43.68
C56.74 44.09 56.65 44.43 56.47 44.68
C56.31 44.91 56.12 45.03 55.91 45.03
C55.91 45.03 55.91 45.03 55.91 45.03
C55.91 45.03 55.91 45.03 55.91 45.03
C55.72 45.03 55.56 44.94 55.44 44.75
C55.30 44.53 55.20 44.20 55.15 43.76
L55.13 43.61
L54.98 43.64
L54.40 43.75
L54.28 43.78
L54.29 43.90
C54.33 44.54 54.50 45.05 54.79 45.44
C55.10 45.84 55.47 46.04 55.92 46.04
C56.40 46.04 56.80 45.81 57.14 45.36
C57.47 44.92 57.63 44.35 57.63 43.67
C57.63 43.35 57.59 43.05 57.51 42.79
C57.43 42.52 57.32 42.31 57.19 42.15
C57.10 42.04 57.00 41.95 56.88 41.88
L56.88 41.88
C57.02 41.74 57.13 41.58 57.22 41.39
C57.34 41.12 57.40 40.81 57.40 40.47
C57.40 39.90 57.26 39.44 56.98 39.06
C56.68 38.67 56.32 38.48 55.90 38.48
Z
" fill="white" fill-rule="nonzero" />
<path d="
M56.26 52.02
L56.26 55.23
L54.80 55.23
L56.26 52.02
Z
M52.36 50.59
C51.92 50.59 51.57 50.76 51.30 51.11
C51.03 51.45 50.88 51.97 50.84 52.65
L51.43 52.74
C51.43 52.28 51.51 51.93 51.69 51.68
C51.86 51.44 52.08 51.31 52.34 51.31
C52.59 51.31 52.80 51.43 52.97 51.66
C53.14 51.88 53.22 52.18 53.22 52.54
C53.22 52.86 53.14 53.20 52.98 53.56
C52.81 53.92 52.46 54.44 51.92 55.11
C51.46 55.68 51.15 56.18 50.98 56.60
C50.80 57.02 50.72 57.40 50.73 57.74
L53.82 57.74
L53.82 56.90
L51.53 56.90
C51.59 56.74 51.67 56.58 51.77 56.42
C51.87 56.27 52.09 55.97 52.43 55.53
C52.97 54.84 53.33 54.28 53.52 53.87
C53.72 53.45 53.81 53.02 53.81 52.56
C53.81 52.05 53.69 51.59 53.44 51.19
C53.20 50.79 52.84 50.59 52.36 50.59
Z
M56.37 50.62
L54.24 55.23
L54.24 56.04
L56.26 56.04
L56.26 57.74
L56.84 57.74
L56.84 56.04
L57.47 56.04
L57.47 55.23
L56.84 55.23
L56.84 50.62
Z
" fill="black" fill-rule="nonzero" />
<path d="
M55.93 63.16
C56.21 63.16 56.44 63.35 56.62 63.75
C56.79 64.14 56.88 64.91 56.88 66.07
C56.88 67.22 56.79 67.99 56.62 68.39
C56.44 68.79 56.22 68.99 55.96 68.99
C55.68 68.99 55.46 68.79 55.28 68.40
C55.10 68.00 55.01 67.23 55.01 66.07
C55.01 64.93 55.10 64.15 55.27 63.76
C55.45 63.36 55.67 63.16 55.93 63.16
Z
M52.36 62.43
C51.92 62.43 51.57 62.61 51.30 62.95
C51.03 63.30 50.88 63.81 50.84 64.49
L51.43 64.59
C51.43 64.13 51.51 63.77 51.69 63.53
C51.86 63.28 52.08 63.16 52.34 63.16
C52.59 63.16 52.80 63.27 52.97 63.50
C53.14 63.73 53.22 64.02 53.22 64.39
C53.22 64.70 53.14 65.04 52.98 65.40
C52.81 65.77 52.46 66.29 51.92 66.95
C51.46 67.53 51.15 68.02 50.98 68.44
C50.80 68.86 50.72 69.25 50.73 69.59
L53.82 69.59
L53.82 68.75
L51.53 68.75
C51.59 68.59 51.67 68.43 51.77 68.27
C51.87 68.11 52.09 67.81 52.43 67.38
C52.97 66.68 53.33 66.13 53.52 65.71
C53.72 65.29 53.81 64.86 53.81 64.41
C53.81 63.89 53.69 63.44 53.44 63.04
C53.20 62.63 52.84 62.43 52.36 62.43
Z
M55.95 62.43
C55.45 62.43 55.07 62.74 54.81 63.36
C54.55 63.97 54.43 64.88 54.43 66.07
C54.43 67.41 54.57 68.35 54.85 68.89
C55.13 69.43 55.50 69.71 55.95 69.71
C56.45 69.71 56.83 69.40 57.09 68.78
C57.34 68.16 57.47 67.26 57.47 66.07
C57.47 64.75 57.32 63.78 57.01 63.18
C56.75 62.68 56.40 62.43 55.95 62.43
Z
" fill="black" fill-rule="nonzero" />
<path d="
M52.36 74.26
C51.88 74.26 51.49 74.45 51.19 74.83
C50.90 75.20 50.74 75.74 50.70 76.45
L50.69 76.58
L50.82 76.60
L51.41 76.69
L51.57 76.72
L51.57 76.55
C51.57 76.12 51.65 75.80 51.80 75.57
C51.94 75.37 52.12 75.27 52.34 75.27
C52.34 75.27 52.34 75.27 52.34 75.27
C52.34 75.27 52.34 75.27 52.35 75.27
C52.55 75.27 52.72 75.36 52.86 75.55
C53.01 75.75 53.08 76.02 53.08 76.35
C53.08 76.65 53.00 76.97 52.85 77.31
C52.69 77.67 52.34 78.17 51.81 78.83
C51.34 79.41 51.02 79.92 50.84 80.36
C50.67 80.80 50.58 81.20 50.59 81.56
L50.59 81.69
L53.96 81.69
L53.96 81.55
L53.96 80.71
L53.96 80.57
L51.74 80.57
C51.79 80.48 51.83 80.40 51.89 80.31
C51.99 80.16 52.20 79.86 52.54 79.43
C53.09 78.73 53.46 78.16 53.65 77.74
C53.85 77.30 53.95 76.85 53.95 76.37
C53.95 75.83 53.82 75.35 53.57 74.93
C53.29 74.48 52.89 74.26 52.36 74.26
Z
M56.11 74.26
L56.08 74.36
C55.98 74.65 55.82 74.96 55.59 75.27
C55.35 75.59 55.09 75.85 54.78 76.07
L54.72 76.12
L54.72 76.19
L54.72 77.03
L54.72 77.27
L54.93 77.16
C55.13 77.05 55.34 76.89 55.57 76.68
C55.68 76.58 55.78 76.48 55.87 76.39
L55.87 76.39
L55.87 81.55
L55.87 81.69
L56.73 81.69
L56.73 81.55
L56.73 74.40
L56.73 74.26
Z
" fill="white" fill-rule="nonzero" />
<path d="
M64.06 26.74
L64.06 26.88
L64.06 27.71
L64.06 27.85
L66.75 27.85
C66.44 28.31 66.16 28.85 65.89 29.47
C65.57 30.19 65.33 30.94 65.15 31.74
C64.97 32.53 64.87 33.23 64.86 33.82
L64.86 33.97
L65.73 33.97
L65.87 33.97
L65.88 33.83
C65.94 32.71 66.18 31.57 66.60 30.43
C67.01 29.28 67.50 28.35 68.04 27.64
L68.07 27.60
L68.07 27.55
L68.07 26.88
L68.07 26.74
Z
" fill="white" fill-rule="nonzero" />
<path d="
M64.27 38.68
C63.83 38.68 63.48 38.86 63.21 39.20
C62.94 39.55 62.79 40.06 62.74 40.74
L63.33 40.84
C63.33 40.38 63.42 40.02 63.59 39.78
C63.76 39.53 63.98 39.41 64.25 39.41
C64.50 39.41 64.71 39.52 64.88 39.75
C65.05 39.98 65.13 40.27 65.13 40.64
C65.13 40.95 65.05 41.29 64.88 41.65
C64.72 42.02 64.36 42.53 63.83 43.20
C63.37 43.78 63.05 44.27 62.88 44.69
C62.71 45.11 62.63 45.50 62.63 45.84
L65.72 45.84
L65.72 44.99
L63.43 44.99
C63.49 44.84 63.57 44.68 63.67 44.52
C63.77 44.36 64.00 44.06 64.34 43.62
C64.87 42.93 65.24 42.38 65.43 41.96
C65.62 41.54 65.72 41.11 65.72 40.66
C65.72 40.14 65.59 39.69 65.35 39.29
C65.10 38.88 64.74 38.68 64.27 38.68
Z
M67.90 38.68
C67.46 38.68 67.11 38.86 66.84 39.20
C66.57 39.55 66.42 40.06 66.37 40.74
L66.96 40.84
C66.96 40.38 67.05 40.02 67.22 39.78
C67.39 39.53 67.61 39.41 67.88 39.41
C68.13 39.41 68.34 39.52 68.51 39.75
C68.68 39.98 68.76 40.27 68.76 40.64
C68.76 40.95 68.68 41.29 68.51 41.65
C68.35 42.02 67.99 42.53 67.46 43.20
C67.00 43.78 66.68 44.27 66.51 44.69
C66.34 45.11 66.26 45.50 66.26 45.84
L69.35 45.84
L69.35 44.99
L67.06 44.99
C67.12 44.84 67.20 44.68 67.30 44.52
C67.40 44.36 67.63 44.06 67.97 43.62
C68.50 42.93 68.87 42.38 69.06 41.96
C69.25 41.54 69.35 41.11 69.35 40.66
C69.35 40.14 69.22 39.69 68.98 39.29
C68.73 38.88 68.37 38.68 67.90 38.68
Z
" fill="black" fill-rule="nonzero" />
<path d="
M64.27 74.26
C63.78 74.26 63.39 74.45 63.10 74.83
C62.81 75.20 62.65 75.74 62.60 76.45
L62.59 76.58
L62.72 76.60
L63.31 76.69
L63.48 76.72
L63.48 76.55
C63.48 76.12 63.55 75.80 63.71 75.57
C63.85 75.37 64.03 75.27 64.24 75.27
C64.25 75.27 64.25 75.27 64.25 75.27
C64.25 75.27 64.25 75.27 64.25 75.27
C64.45 75.27 64.62 75.36 64.76 75.55
C64.91 75.75 64.99 76.02 64.99 76.35
C64.99 76.65 64.91 76.97 64.75 77.31
C64.59 77.67 64.25 78.17 63.72 78.83
C63.25 79.41 62.93 79.92 62.75 80.36
C62.57 80.80 62.48 81.20 62.49 81.56
L62.50 81.69
L65.87 81.69
L65.87 81.55
L65.87 80.71
L65.87 80.57
L63.65 80.57
C63.69 80.48 63.74 80.40 63.79 80.31
C63.89 80.16 64.11 79.86 64.45 79.43
C64.99 78.73 65.36 78.16 65.56 77.74
C65.76 77.30 65.86 76.85 65.86 76.37
C65.86 75.83 65.73 75.35 65.47 74.93
C65.20 74.48 64.80 74.26 64.27 74.26
Z
M66.23 74.38
L66.23 74.52
L66.23 75.36
L66.23 75.50
L68.41 75.50
C68.16 75.97 67.93 76.52 67.71 77.15
C67.46 77.88 67.26 78.64 67.11 79.44
C66.97 80.24 66.89 80.95 66.88 81.55
L66.88 81.69
L67.61 81.69
L67.75 81.69
L67.76 81.56
C67.81 80.42 68.00 79.26 68.34 78.10
C68.68 76.94 69.07 76.00 69.51 75.28
L69.54 75.24
L69.54 75.20
L69.54 74.52
L69.54 74.38
Z
" fill="white" fill-rule="nonzero" />
<path d="
M67.86 110.78
C68.07 110.78 68.25 110.88 68.40 111.09
C68.55 111.31 68.63 111.58 68.63 111.91
C68.63 112.24 68.55 112.50 68.41 112.70
C68.26 112.91 68.08 113.01 67.87 113.01
C67.66 113.01 67.47 112.91 67.33 112.70
C67.18 112.49 67.10 112.21 67.10 111.86
C67.10 111.55 67.18 111.29 67.33 111.09
C67.48 110.88 67.66 110.78 67.86 110.78
Z
M67.85 113.72
C68.12 113.72 68.35 113.86 68.53 114.13
C68.72 114.39 68.82 114.74 68.82 115.18
C68.82 115.62 68.73 115.96 68.54 116.22
C68.36 116.48 68.13 116.61 67.87 116.61
C67.61 116.61 67.38 116.48 67.20 116.21
C67.01 115.94 66.91 115.59 66.91 115.15
C66.91 114.73 67.01 114.39 67.19 114.12
C67.37 113.86 67.59 113.72 67.85 113.72
Z
M64.27 110.06
C63.83 110.06 63.48 110.23 63.21 110.57
C62.94 110.92 62.79 111.43 62.74 112.12
L63.33 112.21
C63.33 111.75 63.42 111.40 63.59 111.15
C63.76 110.90 63.98 110.78 64.25 110.78
C64.50 110.78 64.71 110.89 64.88 111.12
C65.05 111.35 65.13 111.65 65.13 112.01
C65.13 112.32 65.05 112.66 64.88 113.03
C64.72 113.39 64.36 113.91 63.83 114.57
C63.37 115.15 63.05 115.64 62.88 116.07
C62.71 116.49 62.63 116.87 62.63 117.21
L65.72 117.21
L65.72 116.37
L63.43 116.37
C63.49 116.21 63.57 116.05 63.67 115.89
C63.77 115.73 64.00 115.43 64.34 115.00
C64.87 114.30 65.24 113.75 65.43 113.33
C65.62 112.92 65.72 112.48 65.72 112.03
C65.72 111.52 65.59 111.06 65.35 110.66
C65.10 110.26 64.74 110.06 64.27 110.06
Z
M67.86 110.06
C67.47 110.06 67.15 110.23 66.90 110.57
C66.64 110.91 66.51 111.35 66.51 111.89
C66.51 112.25 66.57 112.55 66.69 112.79
C66.81 113.03 66.98 113.22 67.21 113.35
C66.94 113.46 66.72 113.67 66.56 113.97
C66.41 114.28 66.33 114.68 66.33 115.15
C66.33 115.80 66.47 116.33 66.77 116.73
C67.06 117.13 67.43 117.33 67.87 117.33
C68.31 117.33 68.67 117.13 68.96 116.73
C69.26 116.33 69.41 115.81 69.41 115.18
C69.41 114.72 69.33 114.33 69.18 114.02
C69.03 113.71 68.81 113.48 68.53 113.35
C68.76 113.21 68.93 113.03 69.04 112.79
C69.16 112.55 69.21 112.26 69.21 111.92
C69.21 111.37 69.09 110.92 68.83 110.58
C68.57 110.23 68.25 110.06 67.86 110.06
Z
" fill="black" fill-rule="nonzero" />
<path d="
M67.83 182.21
C68.11 182.21 68.34 182.41 68.52 182.80
C68.70 183.19 68.79 183.97 68.79 185.13
C68.79 186.27 68.70 187.05 68.52 187.45
C68.35 187.84 68.13 188.04 67.87 188.04
C67.59 188.04 67.36 187.85 67.18 187.45
C67.01 187.06 66.92 186.28 66.92 185.13
C66.92 183.98 67.01 183.21 67.18 182.81
C67.36 182.41 67.57 182.21 67.83 182.21
Z
M64.49 181.49
C64.39 181.80 64.22 182.12 63.98 182.45
C63.74 182.77 63.46 183.05 63.14 183.28
L63.14 184.12
C63.33 184.02 63.53 183.87 63.75 183.66
C63.98 183.46 64.15 183.26 64.29 183.07
L64.29 188.64
L64.86 188.64
L64.86 181.49
Z
M67.86 181.49
C67.36 181.49 66.98 181.80 66.72 182.41
C66.46 183.03 66.33 183.93 66.33 185.13
C66.33 186.46 66.47 187.40 66.76 187.95
C67.04 188.49 67.41 188.76 67.85 188.76
C68.36 188.76 68.74 188.45 68.99 187.84
C69.25 187.22 69.38 186.32 69.38 185.13
C69.38 183.80 69.22 182.84 68.91 182.24
C68.66 181.74 68.30 181.49 67.86 181.49
Z
" fill="black" fill-rule="nonzero" />
<path d="
M79.80 65.74
C80.05 65.74 80.27 65.88 80.44 66.16
C80.62 66.43 80.71 66.83 80.71 67.33
C80.71 67.85 80.62 68.25 80.44 68.55
C80.26 68.84 80.06 68.99 79.84 68.99
C79.58 68.99 79.36 68.83 79.16 68.52
C78.97 68.21 78.87 67.79 78.87 67.28
C78.87 66.81 78.96 66.43 79.15 66.15
C79.33 65.88 79.55 65.74 79.80 65.74
Z
M76.17 62.43
C75.73 62.43 75.38 62.61 75.11 62.95
C74.85 63.30 74.69 63.81 74.65 64.49
L75.24 64.59
C75.24 64.13 75.33 63.77 75.50 63.53
C75.67 63.28 75.89 63.16 76.15 63.16
C76.40 63.16 76.61 63.27 76.78 63.50
C76.95 63.73 77.04 64.02 77.04 64.39
C77.04 64.70 76.95 65.04 76.79 65.40
C76.62 65.77 76.27 66.29 75.73 66.95
C75.27 67.53 74.96 68.02 74.79 68.44
C74.61 68.86 74.53 69.25 74.54 69.59
L77.63 69.59
L77.63 68.75
L75.34 68.75
C75.40 68.59 75.48 68.43 75.58 68.27
C75.68 68.11 75.90 67.81 76.24 67.38
C76.78 66.68 77.14 66.13 77.33 65.71
C77.53 65.29 77.62 64.86 77.62 64.41
C77.62 63.89 77.50 63.44 77.26 63.04
C77.01 62.63 76.65 62.43 76.17 62.43
Z
M79.88 62.43
C79.39 62.43 78.99 62.73 78.68 63.31
C78.37 63.90 78.21 64.88 78.21 66.25
C78.21 67.49 78.36 68.38 78.67 68.91
C78.97 69.44 79.36 69.71 79.83 69.71
C80.10 69.71 80.34 69.61 80.55 69.43
C80.77 69.25 80.95 68.96 81.09 68.57
C81.23 68.19 81.30 67.75 81.30 67.28
C81.30 66.58 81.16 66.01 80.88 65.59
C80.61 65.18 80.28 64.97 79.91 64.97
C79.69 64.97 79.48 65.05 79.28 65.21
C79.08 65.37 78.91 65.60 78.78 65.91
C78.78 65.04 78.87 64.38 79.04 63.93
C79.25 63.41 79.52 63.15 79.85 63.15
C80.06 63.15 80.25 63.27 80.40 63.49
C80.51 63.65 80.59 63.91 80.64 64.28
L81.21 64.21
C81.16 63.63 81.02 63.19 80.78 62.89
C80.54 62.59 80.24 62.43 79.88 62.43
Z
" fill="black" fill-rule="nonzero" />
<path d="
M79.77 75.21
C79.77 75.21 79.77 75.21 79.78 75.21
C79.78 75.21 79.78 75.21 79.78 75.21
C79.96 75.21 80.13 75.33 80.28 75.58
C80.45 75.84 80.53 76.22 80.53 76.70
C80.53 77.19 80.45 77.56 80.29 77.81
C80.14 78.05 79.97 78.16 79.77 78.16
C79.77 78.16 79.77 78.16 79.76 78.16
C79.76 78.16 79.76 78.16 79.76 78.16
C79.56 78.16 79.38 78.04 79.22 77.81
C79.05 77.56 78.97 77.21 78.97 76.77
C78.97 76.28 79.06 75.89 79.24 75.60
C79.40 75.34 79.58 75.21 79.77 75.21
Z
M76.17 74.20
C75.69 74.20 75.30 74.39 75.00 74.77
C74.72 75.14 74.55 75.68 74.51 76.39
L74.50 76.52
L74.63 76.54
L75.22 76.63
L75.38 76.66
L75.38 76.49
C75.38 76.06 75.46 75.74 75.61 75.51
C75.75 75.31 75.93 75.21 76.15 75.21
C76.15 75.21 76.15 75.21 76.15 75.21
C76.15 75.21 76.16 75.21 76.16 75.21
C76.36 75.21 76.53 75.30 76.67 75.49
C76.82 75.69 76.89 75.96 76.89 76.29
C76.89 76.59 76.82 76.91 76.66 77.25
C76.50 77.61 76.15 78.11 75.62 78.77
C75.16 79.35 74.83 79.86 74.66 80.30
C74.48 80.74 74.39 81.13 74.40 81.49
L74.40 81.63
L77.77 81.63
L77.77 81.49
L77.77 80.65
L77.77 80.51
L75.55 80.51
C75.60 80.42 75.65 80.34 75.70 80.25
C75.80 80.10 76.02 79.80 76.35 79.37
C76.90 78.67 77.27 78.10 77.46 77.68
C77.66 77.24 77.76 76.79 77.76 76.31
C77.76 75.77 77.63 75.29 77.38 74.87
C77.10 74.42 76.70 74.20 76.17 74.20
Z
M79.71 74.20
C79.25 74.20 78.86 74.43 78.55 74.90
C78.25 75.36 78.09 75.97 78.09 76.74
C78.09 77.50 78.24 78.09 78.53 78.53
C78.84 78.99 79.20 79.22 79.64 79.22
C79.88 79.22 80.12 79.12 80.34 78.93
C80.43 78.86 80.51 78.78 80.59 78.68
L80.59 78.68
C80.57 79.08 80.52 79.43 80.44 79.74
C80.33 80.13 80.21 80.40 80.07 80.55
C79.94 80.68 79.80 80.75 79.65 80.75
C79.65 80.75 79.65 80.75 79.65 80.75
C79.65 80.75 79.65 80.75 79.65 80.75
C79.48 80.75 79.35 80.68 79.25 80.53
C79.13 80.36 79.06 80.10 79.01 79.75
L79.00 79.61
L78.85 79.63
L78.30 79.70
L78.17 79.72
L78.18 79.86
C78.23 80.46 78.38 80.92 78.64 81.25
C78.91 81.58 79.24 81.75 79.64 81.75
C79.99 81.75 80.31 81.62 80.59 81.34
C80.86 81.07 81.07 80.66 81.23 80.09
C81.38 79.54 81.45 78.77 81.45 77.77
C81.45 76.88 81.38 76.20 81.24 75.72
C81.10 75.23 80.89 74.85 80.62 74.60
C80.34 74.33 80.04 74.20 79.71 74.20
Z
" fill="white" fill-rule="nonzero" />
<path d="
M89.85 27.47
C90.11 27.47 90.33 27.58 90.52 27.79
C90.70 28.00 90.80 28.27 90.80 28.60
C90.80 28.92 90.71 29.18 90.52 29.38
C90.34 29.58 90.12 29.68 89.86 29.68
C89.60 29.68 89.37 29.58 89.19 29.37
C89.01 29.17 88.92 28.89 88.92 28.55
C88.92 28.24 89.01 27.98 89.19 27.78
C89.38 27.57 89.60 27.47 89.85 27.47
Z
M89.84 30.39
C90.17 30.39 90.45 30.52 90.68 30.78
C90.92 31.05 91.03 31.39 91.03 31.83
C91.03 32.25 90.92 32.60 90.69 32.85
C90.47 33.11 90.19 33.24 89.86 33.24
C89.54 33.24 89.26 33.10 89.03 32.84
C88.80 32.58 88.68 32.23 88.68 31.80
C88.68 31.38 88.79 31.04 89.02 30.78
C89.25 30.52 89.52 30.39 89.84 30.39
Z
M89.85 26.76
C89.37 26.76 88.98 26.93 88.66 27.27
C88.35 27.60 88.19 28.04 88.19 28.57
C88.19 28.93 88.26 29.22 88.41 29.46
C88.55 29.70 88.77 29.88 89.05 30.01
C88.71 30.12 88.44 30.33 88.25 30.63
C88.05 30.94 87.96 31.33 87.96 31.80
C87.96 32.44 88.14 32.96 88.50 33.35
C88.86 33.75 89.32 33.95 89.86 33.95
C90.40 33.95 90.85 33.75 91.21 33.35
C91.58 32.96 91.76 32.45 91.76 31.82
C91.76 31.37 91.66 30.99 91.48 30.68
C91.29 30.37 91.02 30.15 90.67 30.01
C90.96 29.88 91.17 29.70 91.31 29.46
C91.45 29.23 91.52 28.94 91.52 28.60
C91.52 28.06 91.36 27.62 91.05 27.28
C90.73 26.93 90.33 26.76 89.85 26.76
Z
" fill="black" fill-rule="nonzero" />
<path d="
M91.64 63.16
C91.92 63.16 92.15 63.35 92.33 63.74
C92.51 64.14 92.60 64.91 92.60 66.07
C92.60 67.22 92.51 67.99 92.33 68.39
C92.16 68.79 91.94 68.99 91.68 68.99
C91.40 68.99 91.17 68.79 91.00 68.40
C90.82 68.00 90.73 67.23 90.73 66.07
C90.73 64.92 90.82 64.15 90.99 63.75
C91.17 63.35 91.38 63.16 91.64 63.16
Z
M91.67 62.43
C91.17 62.43 90.79 62.74 90.53 63.35
C90.27 63.97 90.14 64.88 90.14 66.07
C90.14 67.41 90.28 68.34 90.57 68.89
C90.85 69.43 91.22 69.70 91.66 69.70
C92.17 69.70 92.55 69.40 92.80 68.78
C93.06 68.16 93.19 67.26 93.19 66.07
C93.19 64.75 93.03 63.78 92.72 63.18
C92.47 62.68 92.12 62.43 91.67 62.43
Z
M87.98 62.43
C87.62 62.43 87.32 62.59 87.06 62.90
C86.81 63.21 86.65 63.67 86.57 64.28
L87.15 64.43
C87.19 64.00 87.28 63.68 87.43 63.47
C87.59 63.26 87.77 63.15 87.99 63.15
C88.21 63.15 88.39 63.25 88.53 63.45
C88.68 63.66 88.75 63.92 88.75 64.26
C88.75 64.62 88.67 64.91 88.49 65.13
C88.31 65.35 88.08 65.45 87.80 65.45
L87.71 65.44
L87.65 66.21
C87.81 66.15 87.94 66.11 88.05 66.11
C88.31 66.11 88.52 66.24 88.70 66.49
C88.88 66.75 88.96 67.08 88.96 67.49
C88.96 67.93 88.87 68.29 88.68 68.57
C88.48 68.85 88.26 68.99 88.00 68.99
C87.51 68.99 87.21 68.52 87.09 67.59
L86.52 67.70
C86.55 68.32 86.71 68.80 86.99 69.17
C87.27 69.53 87.61 69.71 88.00 69.71
C88.43 69.71 88.80 69.50 89.11 69.09
C89.42 68.67 89.57 68.13 89.57 67.48
C89.57 67.17 89.54 66.89 89.46 66.64
C89.39 66.39 89.29 66.20 89.17 66.05
C89.04 65.90 88.89 65.79 88.70 65.73
C88.91 65.58 89.06 65.39 89.18 65.14
C89.29 64.89 89.35 64.60 89.35 64.28
C89.35 63.75 89.21 63.31 88.95 62.96
C88.68 62.61 88.36 62.43 87.98 62.43
Z
" fill="black" fill-rule="nonzero" />
<path d="
M113.70 196.70
C114.02 196.70 114.28 196.84 114.50 197.12
C114.72 197.39 114.83 197.78 114.83 198.28
C114.83 198.79 114.72 199.19 114.50 199.48
C114.28 199.77 114.03 199.91 113.75 199.91
C113.43 199.91 113.16 199.76 112.92 199.45
C112.68 199.14 112.56 198.73 112.56 198.22
C112.56 197.76 112.67 197.39 112.90 197.11
C113.13 196.84 113.40 196.70 113.70 196.70
Z
M113.81 193.44
C113.20 193.44 112.71 193.73 112.32 194.31
C111.93 194.88 111.74 195.85 111.74 197.21
C111.74 198.44 111.93 199.31 112.31 199.84
C112.68 200.36 113.16 200.62 113.75 200.62
C114.07 200.62 114.36 200.53 114.63 200.35
C114.90 200.17 115.12 199.89 115.29 199.50
C115.46 199.12 115.55 198.69 115.55 198.22
C115.55 197.53 115.38 196.98 115.04 196.56
C114.70 196.15 114.30 195.94 113.84 195.94
C113.57 195.94 113.31 196.02 113.06 196.18
C112.81 196.34 112.61 196.57 112.44 196.88
C112.45 196.01 112.56 195.36 112.77 194.92
C113.02 194.41 113.35 194.15 113.76 194.15
C114.03 194.15 114.26 194.26 114.45 194.49
C114.58 194.64 114.68 194.90 114.74 195.26
L115.45 195.19
C115.39 194.62 115.21 194.19 114.91 193.89
C114.61 193.59 114.25 193.44 113.81 193.44
Z
" fill="black" fill-rule="nonzero" />
<path d="
M185.32 38.59
L185.28 38.68
C185.17 38.97 184.97 39.27 184.68 39.58
C184.39 39.89 184.06 40.15 183.68 40.37
L183.61 40.41
L183.61 40.49
L183.61 41.33
L183.61 41.55
L183.81 41.46
C184.05 41.35 184.31 41.20 184.59 40.99
C184.75 40.87 184.90 40.75 185.02 40.64
L185.02 40.64
L185.02 45.79
L185.02 45.93
L186.02 45.93
L186.02 45.79
L186.02 38.73
L186.02 38.59
Z
" fill="white" fill-rule="nonzero" />
<path d="
M185.02 193.29
C184.54 193.30 184.13 193.46 183.79 193.80
C183.45 194.13 183.24 194.61 183.14 195.24
L183.12 195.37
L183.25 195.40
L183.96 195.55
L184.11 195.59
L184.13 195.43
C184.18 195.03 184.28 194.74 184.45 194.56
C184.61 194.38 184.80 194.29 185.03 194.29
C185.03 194.29 185.03 194.29 185.03 194.29
C185.04 194.29 185.04 194.29 185.04 194.29
C185.26 194.29 185.44 194.37 185.60 194.54
C185.76 194.72 185.83 194.95 185.83 195.24
C185.83 195.56 185.74 195.81 185.55 196.00
C185.36 196.19 185.11 196.28 184.81 196.28
L184.81 196.28
L184.70 196.27
L184.56 196.26
L184.55 196.40
L184.47 197.16
L184.44 197.37
L184.65 197.31
C184.84 197.25 184.99 197.22 185.11 197.22
C185.11 197.22 185.11 197.22 185.11 197.22
C185.11 197.22 185.11 197.22 185.11 197.22
C185.38 197.22 185.61 197.32 185.80 197.54
C186.00 197.76 186.09 198.06 186.09 198.44
C186.09 198.84 185.99 199.16 185.77 199.41
C185.56 199.65 185.32 199.77 185.04 199.77
C185.04 199.77 185.04 199.77 185.04 199.77
C185.04 199.77 185.04 199.77 185.04 199.77
C184.78 199.77 184.58 199.67 184.42 199.48
C184.25 199.27 184.13 198.94 184.06 198.51
L184.04 198.37
L183.90 198.39
L183.19 198.50
L183.06 198.52
L183.07 198.65
C183.12 199.29 183.33 199.80 183.69 200.19
C184.06 200.57 184.52 200.77 185.05 200.77
C185.62 200.77 186.11 200.55 186.52 200.11
C186.93 199.67 187.13 199.11 187.13 198.42
C187.13 198.10 187.08 197.81 186.98 197.55
C186.88 197.28 186.75 197.07 186.58 196.91
C186.48 196.80 186.36 196.72 186.22 196.65
L186.22 196.65
C186.38 196.52 186.51 196.36 186.62 196.18
C186.77 195.91 186.85 195.61 186.85 195.26
C186.85 194.70 186.67 194.23 186.32 193.86
C185.96 193.48 185.53 193.30 185.02 193.29
Z
" fill="white" fill-rule="nonzero" />
<path d="
M196.25 172.09
L196.25 172.09
L196.25 172.09
C196.25 172.09 196.25 172.09 196.25 172.09
Z
M195.68 169.55
L195.66 169.67
L195.10 173.28
L195.07 173.42
L195.21 173.44
L195.88 173.55
L195.98 173.57
L196.03 173.47
C196.13 173.28 196.26 173.13 196.42 173.03
C196.59 172.92 196.76 172.87 196.95 172.87
C196.95 172.87 196.95 172.87 196.95 172.87
C196.95 172.87 196.95 172.87 196.95 172.87
C197.26 172.87 197.52 172.99 197.73 173.24
C197.94 173.49 198.05 173.84 198.05 174.31
C198.05 174.81 197.93 175.21 197.71 175.49
C197.50 175.76 197.25 175.90 196.96 175.90
C196.96 175.90 196.96 175.90 196.95 175.90
C196.95 175.90 196.95 175.90 196.95 175.90
C196.73 175.90 196.52 175.80 196.35 175.61
C196.17 175.42 196.05 175.11 196.00 174.69
L195.98 174.56
L195.84 174.57
L195.10 174.65
L194.96 174.66
L194.97 174.80
C195.02 175.45 195.23 175.96 195.60 176.33
C195.97 176.70 196.43 176.89 196.96 176.89
C197.61 176.89 198.13 176.63 198.52 176.10
C198.89 175.58 199.08 174.96 199.08 174.24
C199.08 173.51 198.89 172.93 198.51 172.49
C198.12 172.05 197.67 171.82 197.14 171.82
C196.83 171.82 196.53 171.91 196.25 172.09
L196.25 172.09
L196.48 170.66
L198.80 170.66
L198.80 170.52
L198.80 169.69
L198.80 169.55
Z
" fill="white" fill-rule="nonzero" />
</g>
<g  transform="translate(1.19,228.58)" >
<path d="
M109.47 2.72
C109.30 2.72 109.16 2.78 109.05 2.89
C108.93 3.01 108.88 3.15 108.88 3.31
C108.88 3.47 108.93 3.61 109.05 3.73
C109.17 3.84 109.31 3.90 109.47 3.90
C109.63 3.90 109.77 3.84 109.88 3.73
C110.00 3.61 110.06 3.47 110.06 3.31
C110.06 3.15 110.00 3.01 109.88 2.89
C109.77 2.78 109.63 2.72 109.47 2.72
Z
M114.44 7.81
L114.44 9.84
C113.96 10.23 113.57 10.42 113.28 10.42
C113.06 10.42 112.87 10.33 112.70 10.15
C112.53 9.96 112.45 9.73 112.45 9.45
C112.45 9.23 112.52 9.03 112.65 8.84
C112.78 8.66 113.00 8.48 113.31 8.31
C113.48 8.21 113.85 8.05 114.44 7.81
Z
M102.79 3.55
C103.72 3.55 104.48 3.86 105.07 4.49
C105.67 5.12 105.96 5.98 105.96 7.06
C105.96 8.15 105.67 9.00 105.07 9.63
C104.48 10.27 103.74 10.58 102.84 10.58
C102.50 10.58 102.09 10.53 101.60 10.42
L101.60 3.72
C102.04 3.60 102.44 3.55 102.79 3.55
Z
M125.23 6.52
C125.71 6.52 126.09 6.76 126.35 7.25
C126.61 7.73 126.75 8.30 126.75 8.97
C126.75 9.55 126.61 10.01 126.35 10.33
C126.08 10.64 125.78 10.80 125.44 10.80
C125.16 10.80 124.92 10.71 124.72 10.53
C124.45 10.27 124.25 9.93 124.11 9.49
C123.97 9.06 123.90 8.65 123.90 8.28
C123.90 7.96 123.94 7.54 124.01 7.01
C124.34 6.81 124.59 6.67 124.76 6.61
C124.92 6.55 125.08 6.52 125.23 6.52
Z
M99.35 3.11
L99.35 3.32
L99.64 3.32
C99.94 3.32 100.17 3.41 100.32 3.58
C100.43 3.70 100.48 4.01 100.48 4.50
L100.48 9.59
C100.48 10.04 100.44 10.33 100.35 10.45
C100.21 10.67 99.98 10.77 99.64 10.77
L99.35 10.77
L99.35 10.99
L102.87 10.99
C104.40 10.99 105.54 10.58 106.29 9.76
C106.96 9.02 107.29 8.10 107.29 7.01
C107.29 6.19 107.10 5.47 106.73 4.84
C106.35 4.22 105.86 3.77 105.25 3.51
C104.63 3.24 103.74 3.11 102.56 3.11
Z
M109.70 5.51
L108.09 6.16
L108.17 6.37
C108.33 6.31 108.46 6.28 108.57 6.28
C108.67 6.28 108.75 6.30 108.81 6.35
C108.86 6.40 108.91 6.49 108.93 6.61
C108.97 6.78 108.99 7.16 108.99 7.73
L108.99 9.79
C108.99 10.11 108.96 10.34 108.91 10.45
C108.86 10.57 108.79 10.65 108.70 10.70
C108.61 10.75 108.43 10.78 108.17 10.78
L108.17 10.99
L110.76 10.99
L110.76 10.78
C110.51 10.78 110.33 10.75 110.24 10.70
C110.14 10.64 110.07 10.56 110.02 10.45
C109.98 10.34 109.95 10.12 109.95 9.79
L109.95 5.51
Z
M113.63 5.51
C113.01 5.51 112.53 5.65 112.19 5.93
C111.85 6.20 111.68 6.51 111.68 6.84
C111.68 7.02 111.72 7.16 111.81 7.26
C111.91 7.36 112.02 7.41 112.17 7.41
C112.31 7.41 112.43 7.36 112.52 7.26
C112.62 7.17 112.66 7.03 112.66 6.85
L112.65 6.51
C112.65 6.34 112.72 6.19 112.87 6.06
C113.01 5.93 113.21 5.86 113.45 5.86
C113.77 5.86 114.02 5.96 114.19 6.16
C114.36 6.36 114.44 6.72 114.44 7.25
L114.44 7.46
C113.53 7.79 112.87 8.08 112.48 8.31
C112.08 8.54 111.81 8.79 111.65 9.05
C111.53 9.24 111.47 9.47 111.47 9.73
C111.47 10.14 111.59 10.47 111.83 10.72
C112.07 10.97 112.37 11.10 112.74 11.10
C112.98 11.10 113.20 11.05 113.41 10.95
C113.55 10.89 113.89 10.64 114.44 10.22
C114.44 10.54 114.50 10.76 114.61 10.90
C114.73 11.03 114.88 11.09 115.07 11.09
C115.46 11.09 115.88 10.80 116.31 10.22
L116.31 9.90
C116.08 10.13 115.92 10.27 115.84 10.32
C115.79 10.35 115.74 10.36 115.68 10.36
C115.62 10.36 115.57 10.34 115.52 10.30
C115.48 10.26 115.45 10.19 115.43 10.07
C115.41 9.96 115.40 9.65 115.40 9.14
L115.40 7.33
C115.40 6.82 115.36 6.48 115.29 6.31
C115.19 6.05 115.02 5.87 114.79 5.75
C114.49 5.59 114.10 5.51 113.63 5.51
Z
M127.29 2.94
C126.87 2.94 126.42 3.03 125.94 3.20
C125.46 3.37 124.96 3.70 124.44 4.19
C123.91 4.69 123.51 5.25 123.22 5.88
C122.94 6.52 122.80 7.19 122.80 7.90
C122.80 9.00 123.17 9.90 123.90 10.59
C124.28 10.95 124.74 11.13 125.28 11.13
C126.07 11.13 126.70 10.80 127.18 10.14
C127.58 9.60 127.78 9.00 127.78 8.34
C127.78 7.66 127.58 7.10 127.19 6.66
C126.79 6.23 126.33 6.01 125.79 6.01
C125.23 6.01 124.67 6.20 124.11 6.59
C124.25 6.06 124.42 5.60 124.63 5.21
C124.83 4.83 125.10 4.48 125.41 4.16
C125.73 3.85 126.05 3.62 126.37 3.46
C126.69 3.31 127.11 3.21 127.62 3.16
L127.62 2.94
Z
M117.82 9.86
C117.64 9.86 117.49 9.92 117.37 10.05
C117.24 10.17 117.18 10.32 117.18 10.51
C117.18 10.68 117.24 10.84 117.37 10.96
C117.49 11.09 117.64 11.15 117.82 11.15
C118.00 11.15 118.15 11.09 118.28 10.96
C118.41 10.84 118.47 10.68 118.47 10.51
C118.47 10.33 118.41 10.18 118.28 10.05
C118.16 9.92 118.01 9.86 117.82 9.86
Z
" fill="black" fill-rule="nonzero" />
</g>
</g>
</svg>
