<?xml version="1.0" encoding="utf-8" standalone="no"?>
<!DOCTYPE svg PUBLIC "-//W3C//DTD SVG 1.0//EN" "http://www.w3.org/TR/SVG/DTD/svg11.dtd" >
<svg version="1.1" baseProfile="full"  width="319.13385" height="338.51422" viewBox="0 0 229.77638 243.73024" preserveAspectRatio="xMidYMid" xmlns="http://www.w3.org/2000/svg" >

<g lengthAdjust="spacingAndGlyphs" xml:space='preserve' >
<g  transform="translate(1.19,1.19)" >
<path d="
M0.0 0.0
L0.0 227.39
L227.39 227.39
L227.39 0.0
Z
" fill="none" fill-rule="nonzero" />
<line x1="6.54" y1="6.54" x2="6.54" y2="220.84" fill="none" stroke="black" stroke-width="0.87px" stroke-linecap="square" />
<line x1="18.45" y1="6.54" x2="18.45" y2="220.84" fill="none" stroke="black" stroke-width="0.25px" stroke-linecap="butt" />
<line x1="30.35" y1="6.54" x2="30.35" y2="220.84" fill="none" stroke="black" stroke-width="0.25px" stroke-linecap="butt" />
<line x1="42.26" y1="6.54" x2="42.26" y2="220.84" fill="none" stroke="black" stroke-width="0.25px" stroke-linecap="butt" />
<line x1="54.17" y1="6.54" x2="54.17" y2="220.84" fill="none" stroke="black" stroke-width="0.25px" stroke-linecap="butt" />
<line x1="66.07" y1="6.54" x2="66.07" y2="220.84" fill="none" stroke="black" stroke-width="0.25px" stroke-linecap="butt" />
<line x1="77.98" y1="6.54" x2="77.98" y2="220.84" fill="none" stroke="black" stroke-width="0.25px" stroke-linecap="butt" />
<line x1="89.88" y1="6.54" x2="89.88" y2="220.84" fill="none" stroke="black" stroke-width="0.25px" stroke-linecap="butt" />
<line x1="101.79" y1="6.54" x2="101.79" y2="220.84" fill="none" stroke="black" stroke-width="0.25px" stroke-linecap="butt" />
<line x1="113.69" y1="6.54" x2="113.69" y2="220.84" fill="none" stroke="black" stroke-width="0.25px" stroke-linecap="butt" />
<line x1="125.60" y1="6.54" x2="125.60" y2="220.84" fill="none" stroke="black" stroke-width="0.25px" stroke-linecap="butt" />
<line x1="137.50" y1="6.54" x2="137.50" y2="220.84" fill="none" stroke="black" stroke-width="0.25px" stroke-linecap="butt" />
<line x1="149.41" y1="6.54" x2="149.41" y2="220.84" fill="none" stroke="black" stroke-width="0.25px" stroke-linecap="butt" />
<line x1="161.31" y1="6.54" x2="161.31" y2="220.84" fill="none" stroke="black" stroke-width="0.25px" stroke-linecap="butt" />
<line x1="173.22" y1="6.54" x2="173.22" y2="220.84" fill="none" stroke="black" stroke-width="0.25px" stroke-linecap="butt" />
<line x1="185.13" y1="6.54" x2="185.13" y2="220.84" fill="none" stroke="black" stroke-width="0.25px" stroke-linecap="butt" />
<line x1="197.03" y1="6.54" x2="197.03" y2="220.84" fill="none" stroke="black" stroke-width="0.25px" stroke-linecap="butt" />
<line x1="208.94" y1="6.54" x2="208.94" y2="220.84" fill="none" stroke="black" stroke-width="0.25px" stroke-linecap="butt" />
<line x1="220.84" y1="6.54" x2="220.84" y2="220.84" fill="none" stroke="black" stroke-width="0.87px" stroke-linecap="square" />
<line x1="6.54" y1="6.54" x2="220.84" y2="6.54" fill="none" stroke="black" stroke-width="0.87px" stroke-linecap="square" />
<line x1="6.54" y1="18.45" x2="220.84" y2="18.45" fill="none" stroke="black" stroke-width="0.25px" stroke-linecap="butt" />
<line x1="6.54" y1="30.35" x2="220.84" y2="30.35" fill="none" stroke="black" stroke-width="0.25px" stroke-linecap="butt" />
<line x1="6.54" y1="42.26" x2="220.84" y2="42.26" fill="none" stroke="black" stroke-width="0.25px" stroke-linecap="butt" />
<line x1="6.54" y1="54.17" x2="220.84" y2="54.17" fill="none" stroke="black" stroke-width="0.25px" stroke-linecap="butt" />
<line x1="6.54" y1="66.07" x2="220.84" y2="66.07" fill="none" stroke="black" stroke-width="0.25px" stroke-linecap="butt" />
<line x1="6.54" y1="77.98" x2="220.84" y2="77.98" fill="none" stroke="black" stroke-width="0.25px" stroke-linecap="butt" />
<line x1="6.54" y1="89.88" x2="220.84" y2="89.88" fill="none" stroke="black" stroke-width="0.25px" stroke-linecap="butt" />
<line x1="6.54" y1="101.79" x2="220.84" y2="101.79" fill="none" stroke="black" stroke-width="0.25px" stroke-linecap="butt" />
<line x1="6.54" y1="113.69" x2="220.84" y2="113.69" fill="none" stroke="black" stroke-width="0.25px" stroke-linecap="butt" />
<line x1="6.54" y1="125.60" x2="220.84" y2="125.60" fill="none" stroke="black" stroke-width="0.25px" stroke-linecap="butt" />
<line x1="6.54" y1="137.50" x2="220.84" y2="137.50" fill="none" stroke="black" stroke-width="0.25px" stroke-linecap="butt" />
<line x1="6.54" y1="149.41" x2="220.84" y2="149.41" fill="none" stroke="black" stroke-width="0.25px" stroke-linecap="butt" />
<line x1="6.54" y1="161.31" x2="220.84" y2="161.31" fill="none" stroke="black" stroke-width="0.25px" stroke-linecap="butt" />
<line x1="6.54" y1="173.22" x2="220.84" y2="173.22" fill="none" stroke="black" stroke-width="0.25px" stroke-linecap="butt" />
<line x1="6.54" y1="185.13" x2="220.84" y2="185.13" fill="none" stroke="black" stroke-width="0.25px" stroke-linecap="butt" />
<line x1="6.54" y1="197.03" x2="220.84" y2="197.03" fill="none" stroke="black" stroke-width="0.25px" stroke-linecap="butt" />
<line x1="6.54" y1="208.94" x2="220.84" y2="208.94" fill="none" stroke="black" stroke-width="0.25px" stroke-linecap="butt" />
<line x1="6.54" y1="220.84" x2="220.84" y2="220.84" fill="none" stroke="black" stroke-width="0.87px" stroke-linecap="square" />
<circle cx="18.45" cy="42.26" r="5.89" fill="white"/>
<circle cx="18.45" cy="42.26" r="5.89" fill="none" stroke="black" stroke-width="0.25px"/>
<circle cx="30.35" cy="30.35" r="6.01" fill="black"/>
<circle cx="30.35" cy="54.17" r="5.89" fill="white"/>
<circle cx="30.35" cy="54.17" r="5.89" fill="none" stroke="black" stroke-width="0.25px"/>
<circle cx="30.35" cy="66.07" r="6.01" fill="black"/>
<circle cx="30.35" cy="77.98" r="6.01" fill="black"/>
<circle cx="30.35" cy="125.60" r="5.89" fill="white"/>
<circle cx="30.35" cy="125.60" r="5.89" fill="none" stroke="black" stroke-width="0.25px"/>
<circle cx="30.35" cy="161.31" r="6.01" fill="black"/>
<circle cx="42.26" cy="30.35" r="6.01" fill="black"/>
<circle cx="42.26" cy="42.26" r="5.89" fill="white"/>
<circle cx="42.26" cy="42.26" r="5.89" fill="none" stroke="black" stroke-width="0.25px"/>
<circle cx="42.26" cy="66.07" r="5.89" fill="white"/>
<circle cx="42.26" cy="66.07" r="5.89" fill="none" stroke="black" stroke-width="0.25px"/>
<circle cx="42.26" cy="77.98" r="6.01" fill="black"/>
<circle cx="42.26" cy="113.69" r="1.27" fill="black"/>
<circle cx="42.26" cy="185.13" r="5.89" fill="white"/>
<circle cx="42.26" cy="185.13" r="5.89" fill="none" stroke="black" stroke-width="0.25px"/>
<circle cx="54.17" cy="42.26" r="5.89" fill="white"/>
<circle cx="54.17" cy="42.26" r="5.89" fill="none" stroke="black" stroke-width="0.25px"/>
<circle cx="54.17" cy="66.07" r="5.89" fill="white"/>
<circle cx="54.17" cy="66.07" r="5.89" fill="none" stroke="black" stroke-width="0.25px"/>
<circle cx="54.17" cy="77.98" r="6.01" fill="black"/>
<circle cx="66.07" cy="18.45" r="6.01" fill="black"/>
<circle cx="66.07" cy="30.35" r="6.01" fill="black"/>
<circle cx="66.07" cy="42.26" r="5.89" fill="white"/>
<circle cx="66.07" cy="42.26" r="5.89" fill="none" stroke="black" stroke-width="0.25px"/>
<circle cx="66.07" cy="54.17" r="6.01" fill="black"/>
<circle cx="66.07" cy="66.07" r="5.89" fill="white"/>
<circle cx="66.07" cy="66.07" r="5.89" fill="none" stroke="black" stroke-width="0.25px"/>
<circle cx="66.07" cy="77.98" r="5.89" fill="white"/>
<circle cx="66.07" cy="77.98" r="5.89" fill="none" stroke="black" stroke-width="0.25px"/>
<circle cx="66.07" cy="89.88" r="6.01" fill="black"/>
<circle cx="66.07" cy="185.13" r="5.89" fill="white"/>
<circle cx="66.07" cy="185.13" r="5.89" fill="none" stroke="black" stroke-width="0.25px"/>
<circle cx="77.98" cy="30.35" r="5.89" fill="white"/>
<circle cx="77.98" cy="30.35" r="5.89" fill="none" stroke="black" stroke-width="0.25px"/>
<circle cx="77.98" cy="42.26" r="6.01" fill="black"/>
<circle cx="77.98" cy="54.17" r="6.01" fill="black"/>
<circle cx="89.88" cy="30.35" r="5.89" fill="white"/>
<circle cx="89.88" cy="30.35" r="5.89" fill="none" stroke="black" stroke-width="0.25px"/>
<circle cx="89.88" cy="42.26" r="5.89" fill="white"/>
<circle cx="89.88" cy="42.26" r="5.89" fill="none" stroke="black" stroke-width="0.25px"/>
<circle cx="89.88" cy="54.17" r="6.01" fill="black"/>
<circle cx="89.88" cy="77.98" r="5.89" fill="white"/>
<circle cx="89.88" cy="77.98" r="5.89" fill="none" stroke="black" stroke-width="0.25px"/>
<circle cx="101.79" cy="30.35" r="5.89" fill="white"/>
<circle cx="101.79" cy="30.35" r="5.89" fill="none" stroke="black" stroke-width="0.25px"/>
<circle cx="101.79" cy="42.26" r="6.01" fill="black"/>
<circle cx="113.69" cy="30.35" r="5.89" fill="white"/>
<circle cx="113.69" cy="30.35" r="5.89" fill="none" stroke="black" stroke-width="0.25px"/>
<circle cx="113.69" cy="42.26" r="6.01" fill="black"/>
<circle cx="113.69" cy="113.69" r="1.27" fill="black"/>
<circle cx="113.69" cy="185.13" r="1.27" fill="black"/>
<circle cx="113.69" cy="197.03" r="5.89" fill="white"/>
<circle cx="113.69" cy="197.03" r="5.89" fill="none" stroke="black" stroke-width="0.25px"/>
<circle cx="125.60" cy="30.35" r="5.89" fill="white"/>
<circle cx="125.60" cy="30.35" r="5.89" fill="none" stroke="black" stroke-width="0.25px"/>
<circle cx="125.60" cy="42.26" r="6.01" fill="black"/>
<circle cx="137.50" cy="30.35" r="5.89" fill="white"/>
<circle cx="137.50" cy="30.35" r="5.89" fill="none" stroke="black" stroke-width="0.25px"/>
<circle cx="137.50" cy="42.26" r="6.01" fill="black"/>
<circle cx="185.13" cy="42.26" r="6.01" fill="black"/>
<circle cx="185.13" cy="113.69" r="1.27" fill="black"/>
<circle cx="185.13" cy="185.13" r="1.27" fill="black"/>
<circle cx="185.13" cy="197.03" r="6.01" fill="black"/>
<circle cx="197.03" cy="173.22" r="6.01" fill="black"/>
<path d="
M20.24 39.34
C20.45 39.34 20.63 39.45 20.78 39.66
C20.93 39.87 21.01 40.15 21.01 40.48
C21.01 40.80 20.93 41.07 20.78 41.27
C20.64 41.47 20.46 41.58 20.25 41.58
C20.03 41.58 19.85 41.47 19.70 41.27
C19.56 41.06 19.48 40.78 19.48 40.43
C19.48 40.12 19.56 39.86 19.71 39.65
C19.85 39.45 20.03 39.34 20.24 39.34
Z
M20.23 42.29
C20.50 42.29 20.72 42.42 20.91 42.69
C21.10 42.96 21.20 43.31 21.20 43.75
C21.20 44.18 21.10 44.53 20.92 44.79
C20.74 45.05 20.51 45.18 20.25 45.18
C19.99 45.18 19.76 45.04 19.57 44.78
C19.39 44.51 19.29 44.16 19.29 43.72
C19.29 43.30 19.38 42.96 19.57 42.69
C19.75 42.42 19.97 42.29 20.23 42.29
Z
M16.87 38.62
C16.77 38.93 16.60 39.25 16.36 39.58
C16.11 39.91 15.83 40.18 15.52 40.41
L15.52 41.26
C15.70 41.15 15.91 41.00 16.13 40.80
C16.35 40.59 16.53 40.40 16.66 40.20
L16.66 45.77
L17.24 45.77
L17.24 38.62
Z
M20.24 38.62
C19.85 38.62 19.53 38.79 19.27 39.13
C19.02 39.47 18.89 39.91 18.89 40.45
C18.89 40.81 18.95 41.11 19.07 41.36
C19.19 41.60 19.36 41.78 19.59 41.91
C19.31 42.02 19.10 42.23 18.94 42.54
C18.78 42.85 18.71 43.24 18.71 43.72
C18.71 44.37 18.85 44.90 19.15 45.30
C19.44 45.70 19.81 45.90 20.25 45.90
C20.68 45.90 21.05 45.70 21.34 45.30
C21.64 44.90 21.78 44.38 21.78 43.74
C21.78 43.28 21.71 42.90 21.56 42.59
C21.40 42.28 21.19 42.05 20.90 41.91
C21.14 41.78 21.31 41.59 21.42 41.36
C21.54 41.12 21.59 40.83 21.59 40.48
C21.59 39.94 21.46 39.49 21.21 39.14
C20.95 38.80 20.63 38.62 20.24 38.62
Z
" fill="black" fill-rule="nonzero" />
<path d="
M28.67 26.57
L28.64 26.67
C28.54 26.97 28.38 27.27 28.15 27.59
C27.91 27.90 27.65 28.17 27.34 28.39
L27.28 28.43
L27.28 28.50
L27.28 29.35
L27.28 29.59
L27.49 29.47
C27.69 29.36 27.90 29.20 28.13 28.99
C28.24 28.90 28.34 28.80 28.43 28.70
L28.43 28.70
L28.43 33.87
L28.43 34.01
L29.29 34.01
L29.29 33.87
L29.29 26.72
L29.29 26.57
Z
M32.09 26.57
C31.68 26.57 31.34 26.75 31.06 27.09
C30.79 27.42 30.61 27.91 30.54 28.54
L30.52 28.67
L30.64 28.70
L31.21 28.85
L31.37 28.90
L31.39 28.73
C31.43 28.32 31.52 28.03 31.65 27.83
C31.77 27.66 31.92 27.58 32.09 27.58
C32.09 27.58 32.09 27.58 32.10 27.58
C32.10 27.58 32.10 27.58 32.10 27.58
C32.26 27.58 32.40 27.66 32.52 27.82
C32.65 28.00 32.72 28.24 32.72 28.54
C32.72 28.87 32.64 29.13 32.48 29.32
C32.34 29.50 32.15 29.59 31.91 29.60
L31.91 29.60
L31.83 29.59
L31.69 29.57
L31.67 29.72
L31.61 30.48
L31.59 30.71
L31.59 30.71
L31.80 30.63
C31.95 30.57 32.06 30.54 32.15 30.54
C32.15 30.54 32.15 30.54 32.15 30.54
C32.15 30.54 32.16 30.54 32.16 30.54
C32.36 30.54 32.54 30.65 32.69 30.86
C32.85 31.09 32.93 31.39 32.93 31.78
C32.93 32.19 32.84 32.52 32.66 32.77
C32.50 33.01 32.31 33.13 32.10 33.13
C32.10 33.13 32.10 33.13 32.10 33.13
C32.10 33.13 32.10 33.13 32.10 33.13
C31.91 33.13 31.75 33.03 31.63 32.84
C31.49 32.63 31.39 32.30 31.33 31.85
L31.31 31.70
L31.17 31.73
L30.59 31.85
L30.47 31.87
L30.48 32.00
C30.52 32.64 30.69 33.15 30.98 33.53
C31.29 33.93 31.66 34.13 32.11 34.13
C32.58 34.13 32.99 33.91 33.33 33.45
C33.66 33.01 33.82 32.45 33.82 31.76
C33.82 31.44 33.78 31.15 33.70 30.89
C33.62 30.62 33.51 30.40 33.38 30.24
C33.29 30.13 33.19 30.04 33.07 29.97
L33.07 29.97
C33.21 29.84 33.32 29.67 33.41 29.48
C33.53 29.21 33.59 28.91 33.59 28.56
C33.59 28.00 33.45 27.53 33.16 27.15
C32.87 26.77 32.51 26.57 32.09 26.57
Z
" fill="white" fill-rule="nonzero" />
<path d="
M32.45 52.02
L32.45 55.23
L30.99 55.23
L32.45 52.02
Z
M28.77 50.59
C28.67 50.90 28.50 51.22 28.26 51.55
C28.02 51.87 27.74 52.15 27.42 52.38
L27.42 53.22
C27.61 53.12 27.81 52.97 28.04 52.76
C28.26 52.56 28.44 52.36 28.57 52.17
L28.57 57.74
L29.15 57.74
L29.15 50.59
Z
M32.56 50.62
L30.43 55.23
L30.43 56.04
L32.45 56.04
L32.45 57.74
L33.03 57.74
L33.03 56.04
L33.66 56.04
L33.66 55.23
L33.03 55.23
L33.03 50.62
Z
" fill="black" fill-rule="nonzero" />
<path d="
M28.67 62.35
L28.64 62.45
C28.54 62.75 28.38 63.05 28.15 63.37
C27.91 63.68 27.65 63.95 27.34 64.17
L27.28 64.21
L27.28 64.28
L27.28 65.13
L27.28 65.37
L27.49 65.25
C27.69 65.14 27.90 64.98 28.13 64.77
C28.24 64.68 28.34 64.58 28.43 64.48
L28.43 64.48
L28.43 69.65
L28.43 69.79
L29.29 69.79
L29.29 69.65
L29.29 62.49
L29.29 62.35
Z
M32.30 62.35
L32.27 62.45
C32.17 62.75 32.01 63.05 31.78 63.37
C31.54 63.68 31.28 63.95 30.97 64.17
L30.91 64.21
L30.91 64.28
L30.91 65.13
L30.91 65.37
L31.12 65.25
C31.32 65.14 31.53 64.98 31.76 64.77
C31.87 64.68 31.97 64.58 32.06 64.48
L32.06 64.48
L32.06 69.65
L32.06 69.79
L32.92 69.79
L32.92 69.65
L32.92 62.49
L32.92 62.35
Z
" fill="white" fill-rule="nonzero" />
<path d="
M28.67 74.26
L28.64 74.36
C28.54 74.65 28.38 74.96 28.15 75.27
C27.91 75.59 27.65 75.85 27.34 76.07
L27.28 76.12
L27.28 76.19
L27.28 77.03
L27.28 77.27
L27.49 77.16
C27.69 77.05 27.90 76.89 28.13 76.68
C28.24 76.58 28.34 76.48 28.43 76.39
L28.43 76.39
L28.43 81.55
L28.43 81.69
L29.29 81.69
L29.29 81.55
L29.29 74.40
L29.29 74.26
Z
M30.51 74.38
L30.51 74.52
L30.51 75.36
L30.51 75.50
L32.70 75.50
C32.45 75.97 32.21 76.52 31.99 77.15
C31.74 77.88 31.54 78.64 31.39 79.44
C31.25 80.24 31.17 80.95 31.16 81.55
L31.16 81.69
L31.90 81.69
L32.03 81.69
L32.04 81.56
C32.09 80.42 32.29 79.26 32.62 78.10
C32.96 76.94 33.35 76.00 33.80 75.28
L33.82 75.24
L33.82 75.20
L33.82 74.52
L33.82 74.38
Z
" fill="white" fill-rule="nonzero" />
<path d="
M32.18 125.27
C32.43 125.27 32.65 125.40 32.82 125.68
C33.00 125.96 33.09 126.35 33.09 126.86
C33.09 127.37 33.00 127.78 32.82 128.07
C32.64 128.37 32.44 128.52 32.22 128.52
C31.96 128.52 31.73 128.36 31.54 128.05
C31.35 127.73 31.25 127.32 31.25 126.81
C31.25 126.33 31.34 125.96 31.53 125.68
C31.71 125.40 31.93 125.27 32.18 125.27
Z
M28.77 121.96
C28.67 122.27 28.50 122.59 28.26 122.92
C28.02 123.25 27.74 123.52 27.42 123.75
L27.42 124.59
C27.61 124.49 27.81 124.34 28.04 124.14
C28.26 123.93 28.44 123.73 28.57 123.54
L28.57 129.11
L29.15 129.11
L29.15 121.96
Z
M32.26 121.96
C31.77 121.96 31.37 122.25 31.06 122.84
C30.74 123.42 30.59 124.40 30.59 125.78
C30.59 127.02 30.74 127.91 31.05 128.44
C31.35 128.97 31.74 129.23 32.21 129.23
C32.47 129.23 32.71 129.14 32.93 128.96
C33.15 128.77 33.33 128.49 33.47 128.10
C33.60 127.71 33.67 127.28 33.67 126.81
C33.67 126.10 33.54 125.54 33.26 125.12
C32.98 124.70 32.66 124.49 32.29 124.49
C32.07 124.49 31.86 124.57 31.66 124.73
C31.46 124.89 31.29 125.13 31.16 125.44
C31.16 124.57 31.25 123.91 31.42 123.46
C31.63 122.94 31.89 122.68 32.23 122.68
C32.44 122.68 32.63 122.79 32.78 123.02
C32.89 123.18 32.97 123.44 33.02 123.80
L33.59 123.73
C33.54 123.16 33.39 122.72 33.15 122.42
C32.91 122.11 32.62 121.96 32.26 121.96
Z
" fill="black" fill-rule="nonzero" />
<path d="
M30.33 158.58
C30.33 158.58 30.33 158.58 30.33 158.58
C30.34 158.58 30.34 158.58 30.34 158.58
C30.58 158.58 30.80 158.70 31.00 158.96
C31.20 159.22 31.30 159.58 31.30 160.05
C31.30 160.53 31.20 160.89 31.01 161.14
C30.82 161.38 30.59 161.50 30.32 161.50
C30.32 161.50 30.32 161.50 30.32 161.50
C30.32 161.50 30.32 161.50 30.32 161.50
C30.05 161.50 29.81 161.38 29.61 161.14
C29.41 160.89 29.31 160.55 29.31 160.13
C29.31 159.65 29.41 159.27 29.63 158.99
C29.84 158.71 30.08 158.58 30.33 158.58
Z
M30.25 157.58
C29.70 157.58 29.24 157.81 28.86 158.27
C28.48 158.72 28.29 159.33 28.29 160.10
C28.29 160.85 28.47 161.44 28.84 161.88
C29.21 162.32 29.65 162.54 30.16 162.54
C30.45 162.54 30.73 162.45 31.00 162.27
C31.14 162.18 31.26 162.07 31.37 161.95
L31.37 161.95
C31.35 162.36 31.29 162.73 31.18 163.05
C31.06 163.44 30.91 163.70 30.74 163.85
C30.57 163.99 30.38 164.05 30.18 164.05
C30.18 164.05 30.18 164.05 30.18 164.05
C30.18 164.05 30.18 164.05 30.18 164.05
C29.96 164.05 29.78 163.98 29.65 163.83
C29.51 163.66 29.41 163.41 29.36 163.06
L29.34 162.93
L29.21 162.94
L28.52 163.02
L28.38 163.03
L28.40 163.17
C28.46 163.77 28.65 164.23 28.97 164.56
C29.29 164.88 29.69 165.05 30.17 165.05
C30.59 165.05 30.97 164.92 31.30 164.65
C31.64 164.38 31.90 163.97 32.09 163.41
C32.28 162.86 32.37 162.10 32.37 161.12
C32.37 160.23 32.28 159.55 32.11 159.07
C31.93 158.59 31.67 158.22 31.34 157.96
C31.01 157.71 30.64 157.58 30.25 157.58
Z
" fill="white" fill-rule="nonzero" />
<path d="
M43.47 29.24
L43.47 29.24
L43.47 29.24
C43.47 29.24 43.47 29.24 43.47 29.24
Z
M40.57 26.58
L40.54 26.67
C40.45 26.97 40.29 27.28 40.05 27.59
C39.82 27.91 39.55 28.17 39.25 28.39
L39.19 28.43
L39.19 28.51
L39.19 29.35
L39.19 29.59
L39.19 29.59
L39.40 29.47
C39.59 29.37 39.81 29.21 40.04 29.00
C40.15 28.90 40.25 28.80 40.33 28.70
L40.33 28.70
L40.33 33.87
L40.33 34.01
L41.19 34.01
L41.19 33.87
L41.19 26.72
L41.19 26.58
Z
M42.95 26.70
L42.94 26.83
L42.48 30.48
L42.46 30.62
L42.59 30.64
L43.13 30.75
L43.25 30.77
L43.29 30.66
C43.37 30.47 43.48 30.32 43.61 30.21
C43.73 30.11 43.87 30.06 44.01 30.06
C44.01 30.06 44.01 30.06 44.01 30.06
C44.01 30.06 44.01 30.06 44.01 30.06
C44.25 30.06 44.45 30.18 44.61 30.42
C44.78 30.68 44.87 31.04 44.87 31.52
C44.87 32.04 44.78 32.44 44.60 32.73
C44.43 33.00 44.24 33.13 44.02 33.13
C44.01 33.13 44.01 33.13 44.01 33.13
C44.01 33.13 44.01 33.13 44.01 33.13
C43.84 33.13 43.69 33.04 43.55 32.85
C43.40 32.65 43.31 32.34 43.26 31.91
L43.25 31.77
L43.10 31.79
L42.50 31.86
L42.37 31.88
L42.38 32.01
C42.42 32.66 42.59 33.18 42.89 33.55
C43.19 33.94 43.57 34.13 44.02 34.13
C44.56 34.13 44.99 33.86 45.31 33.32
C45.61 32.80 45.76 32.18 45.76 31.45
C45.76 30.72 45.61 30.13 45.30 29.69
C44.98 29.23 44.60 29.01 44.16 29.01
C43.92 29.01 43.69 29.08 43.47 29.24
L43.47 29.24
L43.66 27.82
L45.54 27.82
L45.54 27.68
L45.54 26.84
L45.54 26.70
Z
" fill="white" fill-rule="nonzero" />
<path d="
M42.27 38.73
C41.73 38.73 41.30 38.90 40.97 39.24
C40.64 39.58 40.44 40.09 40.39 40.76
L41.12 40.85
C41.12 40.40 41.23 40.05 41.44 39.81
C41.65 39.56 41.92 39.44 42.25 39.44
C42.56 39.44 42.82 39.56 43.03 39.78
C43.23 40.01 43.34 40.30 43.34 40.66
C43.34 40.97 43.24 41.30 43.03 41.66
C42.83 42.02 42.39 42.53 41.73 43.19
C41.17 43.76 40.78 44.25 40.56 44.66
C40.35 45.08 40.25 45.46 40.26 45.79
L44.07 45.79
L44.07 44.96
L41.24 44.96
C41.32 44.80 41.42 44.65 41.54 44.49
C41.67 44.33 41.94 44.04 42.36 43.61
C43.02 42.92 43.47 42.38 43.71 41.96
C43.95 41.55 44.06 41.12 44.06 40.68
C44.06 40.17 43.91 39.72 43.61 39.32
C43.31 38.93 42.86 38.73 42.27 38.73
Z
" fill="black" fill-rule="nonzero" />
<path d="
M40.68 62.49
C40.58 62.81 40.41 63.12 40.17 63.45
C39.92 63.78 39.65 64.06 39.33 64.28
L39.33 65.13
C39.52 65.02 39.72 64.87 39.94 64.67
C40.17 64.47 40.34 64.27 40.48 64.07
L40.48 69.65
L41.05 69.65
L41.05 62.49
Z
M44.09 62.49
C43.65 62.49 43.30 62.67 43.03 63.01
C42.76 63.36 42.60 63.87 42.56 64.55
L43.15 64.65
C43.15 64.19 43.24 63.83 43.41 63.59
C43.58 63.34 43.80 63.22 44.07 63.22
C44.32 63.22 44.52 63.33 44.69 63.56
C44.86 63.79 44.95 64.09 44.95 64.45
C44.95 64.76 44.87 65.10 44.70 65.47
C44.53 65.83 44.18 66.35 43.65 67.01
C43.19 67.59 42.87 68.08 42.70 68.50
C42.53 68.93 42.45 69.31 42.45 69.65
L45.54 69.65
L45.54 68.81
L43.25 68.81
C43.31 68.65 43.39 68.49 43.49 68.33
C43.59 68.17 43.81 67.87 44.16 67.44
C44.69 66.74 45.06 66.19 45.25 65.77
C45.44 65.36 45.54 64.92 45.54 64.47
C45.54 63.96 45.41 63.50 45.17 63.10
C44.92 62.70 44.56 62.49 44.09 62.49
Z
" fill="black" fill-rule="nonzero" />
<path d="
M44.06 75.21
C44.06 75.21 44.06 75.21 44.06 75.21
C44.06 75.21 44.06 75.21 44.06 75.21
C44.25 75.21 44.41 75.33 44.56 75.58
C44.73 75.84 44.82 76.22 44.82 76.70
C44.82 77.19 44.73 77.56 44.57 77.81
C44.43 78.05 44.25 78.16 44.05 78.16
C44.05 78.16 44.05 78.16 44.05 78.16
C44.05 78.16 44.05 78.16 44.04 78.16
C43.84 78.16 43.66 78.04 43.50 77.81
C43.34 77.56 43.25 77.21 43.25 76.77
C43.25 76.28 43.34 75.89 43.52 75.60
C43.68 75.34 43.86 75.21 44.06 75.21
Z
M40.57 74.20
L40.54 74.30
C40.45 74.59 40.29 74.90 40.05 75.21
C39.82 75.53 39.55 75.79 39.25 76.01
L39.19 76.05
L39.19 76.13
L39.19 76.97
L39.19 77.21
L39.40 77.10
C39.59 76.99 39.81 76.83 40.04 76.62
C40.15 76.52 40.25 76.42 40.33 76.32
L40.33 76.32
L40.33 81.49
L40.33 81.63
L41.19 81.63
L41.19 81.49
L41.19 74.34
L41.19 74.20
Z
M43.99 74.20
C43.53 74.20 43.15 74.43 42.83 74.90
C42.53 75.36 42.38 75.97 42.38 76.74
C42.38 77.50 42.52 78.09 42.82 78.53
C43.12 78.99 43.49 79.22 43.92 79.22
C44.16 79.22 44.40 79.12 44.63 78.93
C44.72 78.86 44.80 78.78 44.87 78.68
L44.87 78.68
C44.85 79.08 44.80 79.43 44.72 79.74
C44.62 80.13 44.49 80.40 44.36 80.55
C44.23 80.68 44.09 80.75 43.94 80.75
C43.94 80.75 43.94 80.75 43.93 80.75
C43.93 80.75 43.93 80.75 43.93 80.75
C43.77 80.75 43.63 80.68 43.53 80.53
C43.42 80.36 43.34 80.10 43.30 79.75
L43.28 79.61
L43.14 79.63
L42.59 79.70
L42.45 79.72
L42.46 79.86
C42.51 80.46 42.67 80.92 42.92 81.25
C43.19 81.58 43.52 81.75 43.92 81.75
C44.28 81.75 44.59 81.62 44.87 81.34
C45.14 81.07 45.36 80.66 45.51 80.09
C45.66 79.54 45.74 78.77 45.74 77.77
C45.74 76.88 45.67 76.20 45.52 75.72
C45.38 75.23 45.17 74.85 44.90 74.60
C44.62 74.33 44.32 74.20 43.99 74.20
Z
" fill="white" fill-rule="nonzero" />
<path d="
M42.61 182.99
L42.61 186.17
L40.81 186.17
L42.61 182.99
Z
M42.74 181.61
L40.11 186.17
L40.11 186.96
L42.61 186.96
L42.61 188.64
L43.32 188.64
L43.32 186.96
L44.10 186.96
L44.10 186.17
L43.32 186.17
L43.32 181.61
Z
" fill="black" fill-rule="nonzero" />
<path d="
M55.99 41.93
C56.24 41.93 56.46 42.07 56.63 42.34
C56.81 42.62 56.90 43.02 56.90 43.52
C56.90 44.04 56.81 44.44 56.63 44.73
C56.45 45.03 56.25 45.18 56.03 45.18
C55.77 45.18 55.54 45.02 55.35 44.71
C55.16 44.40 55.06 43.98 55.06 43.47
C55.06 42.99 55.15 42.62 55.34 42.34
C55.52 42.07 55.74 41.93 55.99 41.93
Z
M52.36 38.62
C51.92 38.62 51.57 38.80 51.30 39.14
C51.03 39.49 50.88 40.00 50.84 40.68
L51.43 40.78
C51.43 40.32 51.51 39.96 51.69 39.72
C51.86 39.47 52.08 39.35 52.34 39.35
C52.59 39.35 52.80 39.46 52.97 39.69
C53.14 39.92 53.22 40.21 53.22 40.58
C53.22 40.89 53.14 41.23 52.98 41.59
C52.81 41.96 52.46 42.47 51.92 43.14
C51.46 43.71 51.15 44.21 50.98 44.63
C50.80 45.05 50.72 45.43 50.73 45.77
L53.82 45.77
L53.82 44.93
L51.53 44.93
C51.59 44.78 51.67 44.62 51.77 44.46
C51.87 44.30 52.09 44.00 52.43 43.56
C52.97 42.87 53.33 42.32 53.52 41.90
C53.72 41.48 53.81 41.05 53.81 40.60
C53.81 40.08 53.69 39.63 53.44 39.23
C53.20 38.82 52.84 38.62 52.36 38.62
Z
M56.07 38.62
C55.58 38.62 55.18 38.92 54.87 39.50
C54.56 40.08 54.40 41.07 54.40 42.44
C54.40 43.68 54.55 44.57 54.86 45.10
C55.16 45.63 55.55 45.90 56.02 45.90
C56.28 45.90 56.52 45.80 56.74 45.62
C56.96 45.43 57.14 45.15 57.28 44.76
C57.41 44.37 57.48 43.94 57.48 43.47
C57.48 42.76 57.35 42.20 57.07 41.78
C56.79 41.36 56.47 41.15 56.10 41.15
C55.88 41.15 55.67 41.23 55.47 41.39
C55.27 41.56 55.10 41.79 54.97 42.10
C54.97 41.23 55.06 40.57 55.23 40.12
C55.44 39.60 55.70 39.34 56.04 39.34
C56.25 39.34 56.44 39.46 56.59 39.68
C56.70 39.84 56.78 40.10 56.83 40.46
L57.40 40.40
C57.35 39.82 57.21 39.38 56.97 39.08
C56.73 38.77 56.43 38.62 56.07 38.62
Z
" fill="black" fill-rule="nonzero" />
<path d="
M55.93 63.16
C56.21 63.16 56.44 63.35 56.62 63.75
C56.79 64.14 56.88 64.91 56.88 66.07
C56.88 67.22 56.79 67.99 56.62 68.39
C56.44 68.79 56.22 68.99 55.96 68.99
C55.68 68.99 55.46 68.79 55.28 68.40
C55.10 68.00 55.01 67.23 55.01 66.07
C55.01 64.93 55.10 64.15 55.27 63.76
C55.45 63.36 55.67 63.16 55.93 63.16
Z
M52.36 62.43
C51.92 62.43 51.57 62.61 51.30 62.95
C51.03 63.30 50.88 63.81 50.84 64.49
L51.43 64.59
C51.43 64.13 51.51 63.77 51.69 63.53
C51.86 63.28 52.08 63.16 52.34 63.16
C52.59 63.16 52.80 63.27 52.97 63.50
C53.14 63.73 53.22 64.02 53.22 64.39
C53.22 64.70 53.14 65.04 52.98 65.40
C52.81 65.77 52.46 66.29 51.92 66.95
C51.46 67.53 51.15 68.02 50.98 68.44
C50.80 68.86 50.72 69.25 50.73 69.59
L53.82 69.59
L53.82 68.75
L51.53 68.75
C51.59 68.59 51.67 68.43 51.77 68.27
C51.87 68.11 52.09 67.81 52.43 67.38
C52.97 66.68 53.33 66.13 53.52 65.71
C53.72 65.29 53.81 64.86 53.81 64.41
C53.81 63.89 53.69 63.44 53.44 63.04
C53.20 62.63 52.84 62.43 52.36 62.43
Z
M55.95 62.43
C55.45 62.43 55.07 62.74 54.81 63.36
C54.55 63.97 54.43 64.88 54.43 66.07
C54.43 67.41 54.57 68.35 54.85 68.89
C55.13 69.43 55.50 69.71 55.95 69.71
C56.45 69.71 56.83 69.40 57.09 68.78
C57.34 68.16 57.47 67.26 57.47 66.07
C57.47 64.75 57.32 63.78 57.01 63.18
C56.75 62.68 56.40 62.43 55.95 62.43
Z
" fill="black" fill-rule="nonzero" />
<path d="
M52.36 74.26
C51.88 74.26 51.49 74.45 51.19 74.83
C50.90 75.20 50.74 75.74 50.70 76.45
L50.69 76.58
L50.82 76.60
L51.41 76.69
L51.57 76.72
L51.57 76.55
C51.57 76.12 51.65 75.80 51.80 75.57
C51.94 75.37 52.12 75.27 52.34 75.27
C52.34 75.27 52.34 75.27 52.34 75.27
C52.34 75.27 52.34 75.27 52.35 75.27
C52.55 75.27 52.72 75.36 52.86 75.55
C53.01 75.75 53.08 76.02 53.08 76.35
C53.08 76.65 53.00 76.97 52.85 77.31
C52.69 77.67 52.34 78.17 51.81 78.83
C51.34 79.41 51.02 79.92 50.84 80.36
C50.67 80.80 50.58 81.20 50.59 81.56
L50.59 81.69
L53.96 81.69
L53.96 81.55
L53.96 80.71
L53.96 80.57
L51.74 80.57
C51.79 80.48 51.83 80.40 51.89 80.31
C51.99 80.16 52.20 79.86 52.54 79.43
C53.09 78.73 53.46 78.16 53.65 77.74
C53.85 77.30 53.95 76.85 53.95 76.37
C53.95 75.83 53.82 75.35 53.57 74.93
C53.29 74.48 52.89 74.26 52.36 74.26
Z
M56.11 74.26
L56.08 74.36
C55.98 74.65 55.82 74.96 55.59 75.27
C55.35 75.59 55.09 75.85 54.78 76.07
L54.72 76.12
L54.72 76.19
L54.72 77.03
L54.72 77.27
L54.93 77.16
C55.13 77.05 55.34 76.89 55.57 76.68
C55.68 76.58 55.78 76.48 55.87 76.39
L55.87 76.39
L55.87 81.55
L55.87 81.69
L56.73 81.69
L56.73 81.55
L56.73 74.40
L56.73 74.26
Z
" fill="white" fill-rule="nonzero" />
<path d="
M64.27 14.73
C63.78 14.73 63.39 14.92 63.10 15.30
C62.81 15.67 62.65 16.21 62.60 16.92
L62.59 17.05
L62.72 17.07
L63.31 17.17
L63.48 17.19
L63.48 17.03
C63.48 16.59 63.55 16.27 63.71 16.05
C63.85 15.84 64.03 15.74 64.24 15.74
C64.25 15.74 64.25 15.74 64.25 15.74
C64.25 15.74 64.25 15.74 64.25 15.74
C64.45 15.74 64.62 15.83 64.76 16.02
C64.91 16.23 64.99 16.49 64.99 16.83
C64.99 17.12 64.91 17.44 64.75 17.79
C64.59 18.14 64.25 18.64 63.72 19.30
C63.25 19.89 62.93 20.40 62.75 20.83
C62.57 21.27 62.48 21.67 62.49 22.03
L62.50 22.17
L65.87 22.17
L65.87 22.02
L65.87 21.18
L65.87 21.04
L63.65 21.04
C63.69 20.96 63.74 20.87 63.79 20.78
C63.89 20.63 64.11 20.33 64.45 19.90
C64.99 19.20 65.36 18.64 65.56 18.21
C65.76 17.77 65.86 17.32 65.86 16.85
C65.86 16.31 65.73 15.83 65.47 15.40
C65.20 14.96 64.80 14.73 64.27 14.73
Z
M66.23 14.85
L66.23 14.99
L66.23 15.83
L66.23 15.98
L68.41 15.98
C68.16 16.45 67.93 16.99 67.71 17.62
C67.46 18.35 67.26 19.11 67.11 19.91
C66.97 20.72 66.89 21.42 66.88 22.02
L66.88 22.17
L67.61 22.17
L67.75 22.17
L67.76 22.03
C67.81 20.89 68.00 19.74 68.34 18.57
C68.68 17.41 69.07 16.47 69.51 15.75
L69.54 15.71
L69.54 15.67
L69.54 14.99
L69.54 14.85
Z
" fill="white" fill-rule="nonzero" />
<path d="
M64.06 26.74
L64.06 26.88
L64.06 27.71
L64.06 27.85
L66.75 27.85
C66.44 28.31 66.16 28.85 65.89 29.47
C65.57 30.19 65.33 30.94 65.15 31.74
C64.97 32.53 64.87 33.23 64.86 33.82
L64.86 33.97
L65.73 33.97
L65.87 33.97
L65.88 33.83
C65.94 32.71 66.18 31.57 66.60 30.43
C67.01 29.28 67.50 28.35 68.04 27.64
L68.07 27.60
L68.07 27.55
L68.07 26.88
L68.07 26.74
Z
" fill="white" fill-rule="nonzero" />
<path d="
M64.27 38.68
C63.83 38.68 63.48 38.86 63.21 39.20
C62.94 39.55 62.79 40.06 62.74 40.74
L63.33 40.84
C63.33 40.38 63.42 40.02 63.59 39.78
C63.76 39.53 63.98 39.41 64.25 39.41
C64.50 39.41 64.71 39.52 64.88 39.75
C65.05 39.98 65.13 40.27 65.13 40.64
C65.13 40.95 65.05 41.29 64.88 41.65
C64.72 42.02 64.36 42.53 63.83 43.20
C63.37 43.78 63.05 44.27 62.88 44.69
C62.71 45.11 62.63 45.50 62.63 45.84
L65.72 45.84
L65.72 44.99
L63.43 44.99
C63.49 44.84 63.57 44.68 63.67 44.52
C63.77 44.36 64.00 44.06 64.34 43.62
C64.87 42.93 65.24 42.38 65.43 41.96
C65.62 41.54 65.72 41.11 65.72 40.66
C65.72 40.14 65.59 39.69 65.35 39.29
C65.10 38.88 64.74 38.68 64.27 38.68
Z
M67.90 38.68
C67.46 38.68 67.11 38.86 66.84 39.20
C66.57 39.55 66.42 40.06 66.37 40.74
L66.96 40.84
C66.96 40.38 67.05 40.02 67.22 39.78
C67.39 39.53 67.61 39.41 67.88 39.41
C68.13 39.41 68.34 39.52 68.51 39.75
C68.68 39.98 68.76 40.27 68.76 40.64
C68.76 40.95 68.68 41.29 68.51 41.65
C68.35 42.02 67.99 42.53 67.46 43.20
C67.00 43.78 66.68 44.27 66.51 44.69
C66.34 45.11 66.26 45.50 66.26 45.84
L69.35 45.84
L69.35 44.99
L67.06 44.99
C67.12 44.84 67.20 44.68 67.30 44.52
C67.40 44.36 67.63 44.06 67.97 43.62
C68.50 42.93 68.87 42.38 69.06 41.96
C69.25 41.54 69.35 41.11 69.35 40.66
C69.35 40.14 69.22 39.69 68.98 39.29
C68.73 38.88 68.37 38.68 67.90 38.68
Z
" fill="black" fill-rule="nonzero" />
<path d="
M67.28 53.05
L67.28 53.05
L67.28 53.05
C67.28 53.05 67.28 53.05 67.28 53.05
Z
M64.27 50.39
C63.78 50.39 63.39 50.58 63.10 50.96
C62.81 51.33 62.65 51.87 62.60 52.58
L62.59 52.71
L62.72 52.73
L63.31 52.82
L63.48 52.85
L63.48 52.68
C63.48 52.25 63.55 51.92 63.71 51.70
C63.85 51.50 64.03 51.39 64.24 51.39
C64.25 51.39 64.25 51.39 64.25 51.39
C64.25 51.39 64.25 51.39 64.25 51.39
C64.45 51.39 64.62 51.49 64.76 51.68
C64.91 51.88 64.99 52.15 64.99 52.48
C64.99 52.78 64.91 53.10 64.75 53.44
C64.59 53.79 64.25 54.30 63.72 54.96
C63.25 55.54 62.93 56.05 62.75 56.48
C62.57 56.92 62.48 57.32 62.49 57.68
L62.50 57.82
L65.87 57.82
L65.87 57.68
L65.87 56.84
L65.87 56.70
L63.65 56.70
C63.69 56.61 63.74 56.53 63.79 56.44
C63.89 56.28 64.11 55.99 64.45 55.56
C64.99 54.85 65.36 54.29 65.56 53.86
C65.76 53.43 65.86 52.98 65.86 52.50
C65.86 51.96 65.73 51.48 65.47 51.06
C65.20 50.61 64.80 50.39 64.27 50.39
Z
M66.76 50.51
L66.75 50.64
L66.29 54.30
L66.28 54.43
L66.40 54.45
L66.94 54.56
L67.06 54.58
L67.10 54.47
C67.18 54.28 67.29 54.13 67.42 54.02
C67.55 53.92 67.68 53.87 67.82 53.87
C67.82 53.87 67.82 53.87 67.82 53.87
C67.82 53.87 67.82 53.87 67.82 53.87
C68.06 53.87 68.26 53.99 68.42 54.23
C68.59 54.49 68.68 54.85 68.68 55.33
C68.68 55.85 68.59 56.25 68.41 56.54
C68.24 56.81 68.05 56.94 67.83 56.94
C67.83 56.94 67.82 56.94 67.82 56.94
C67.82 56.94 67.82 56.94 67.82 56.94
C67.65 56.94 67.50 56.85 67.36 56.67
C67.21 56.46 67.12 56.15 67.07 55.72
L67.06 55.58
L66.92 55.60
L66.31 55.67
L66.18 55.69
L66.19 55.82
C66.23 56.47 66.40 56.99 66.70 57.36
C67.00 57.75 67.38 57.94 67.83 57.94
C68.37 57.94 68.80 57.67 69.12 57.13
C69.42 56.61 69.57 55.99 69.57 55.27
C69.57 54.53 69.42 53.94 69.11 53.50
C68.79 53.05 68.42 52.82 67.98 52.82
C67.73 52.82 67.50 52.89 67.28 53.05
L67.28 53.05
L67.47 51.63
L69.35 51.63
L69.35 51.49
L69.35 50.65
L69.35 50.51
Z
" fill="white" fill-rule="nonzero" />
<path d="
M67.83 63.16
C68.11 63.16 68.34 63.35 68.52 63.74
C68.70 64.14 68.79 64.91 68.79 66.07
C68.79 67.22 68.70 67.99 68.52 68.39
C68.35 68.79 68.13 68.99 67.87 68.99
C67.59 68.99 67.36 68.79 67.18 68.40
C67.01 68.00 66.92 67.23 66.92 66.07
C66.92 64.92 67.01 64.15 67.18 63.75
C67.36 63.35 67.57 63.16 67.83 63.16
Z
M67.86 62.43
C67.36 62.43 66.98 62.74 66.72 63.35
C66.46 63.97 66.33 64.88 66.33 66.07
C66.33 67.41 66.47 68.34 66.76 68.89
C67.04 69.43 67.41 69.70 67.85 69.70
C68.36 69.70 68.74 69.40 68.99 68.78
C69.25 68.16 69.38 67.26 69.38 66.07
C69.38 64.75 69.22 63.78 68.91 63.18
C68.66 62.68 68.30 62.43 67.86 62.43
Z
M64.17 62.43
C63.81 62.43 63.51 62.59 63.25 62.90
C63.00 63.21 62.84 63.67 62.76 64.28
L63.33 64.43
C63.38 64.00 63.47 63.68 63.62 63.47
C63.78 63.26 63.96 63.15 64.18 63.15
C64.39 63.15 64.57 63.25 64.72 63.45
C64.87 63.66 64.94 63.92 64.94 64.26
C64.94 64.62 64.86 64.91 64.68 65.13
C64.50 65.35 64.27 65.45 63.99 65.45
L63.90 65.44
L63.84 66.21
C64.00 66.15 64.13 66.11 64.24 66.11
C64.50 66.11 64.71 66.24 64.89 66.49
C65.07 66.75 65.15 67.08 65.15 67.49
C65.15 67.93 65.06 68.29 64.87 68.57
C64.67 68.85 64.45 68.99 64.19 68.99
C63.70 68.99 63.40 68.52 63.28 67.59
L62.70 67.70
C62.74 68.32 62.90 68.80 63.18 69.17
C63.46 69.53 63.79 69.71 64.19 69.71
C64.62 69.71 64.99 69.50 65.30 69.09
C65.61 68.67 65.76 68.13 65.76 67.48
C65.76 67.17 65.73 66.89 65.65 66.64
C65.58 66.39 65.48 66.20 65.36 66.05
C65.23 65.90 65.08 65.79 64.89 65.73
C65.10 65.58 65.25 65.39 65.37 65.14
C65.48 64.89 65.53 64.60 65.53 64.28
C65.53 63.75 65.40 63.31 65.14 62.96
C64.87 62.61 64.55 62.43 64.17 62.43
Z
" fill="black" fill-rule="nonzero" />
<path d="
M67.90 74.34
C67.46 74.34 67.11 74.51 66.84 74.85
C66.57 75.20 66.42 75.71 66.37 76.40
L66.96 76.49
C66.96 76.03 67.05 75.68 67.22 75.43
C67.39 75.18 67.61 75.06 67.88 75.06
C68.13 75.06 68.34 75.18 68.51 75.40
C68.68 75.63 68.76 75.93 68.76 76.29
C68.76 76.60 68.68 76.94 68.51 77.31
C68.35 77.67 67.99 78.19 67.46 78.86
C67.00 79.43 66.68 79.93 66.51 80.35
C66.34 80.77 66.26 81.15 66.26 81.49
L69.35 81.49
L69.35 80.65
L67.06 80.65
C67.12 80.49 67.20 80.33 67.30 80.17
C67.40 80.01 67.63 79.72 67.97 79.28
C68.50 78.59 68.87 78.03 69.06 77.61
C69.25 77.20 69.35 76.76 69.35 76.31
C69.35 75.80 69.22 75.34 68.98 74.94
C68.73 74.54 68.37 74.34 67.90 74.34
Z
M64.17 74.34
C63.81 74.34 63.51 74.49 63.25 74.80
C63.00 75.11 62.84 75.57 62.76 76.18
L63.33 76.34
C63.38 75.91 63.47 75.59 63.62 75.37
C63.78 75.16 63.96 75.06 64.18 75.06
C64.39 75.06 64.57 75.16 64.72 75.36
C64.87 75.56 64.94 75.83 64.94 76.16
C64.94 76.53 64.86 76.82 64.68 77.03
C64.50 77.25 64.27 77.36 63.99 77.36
L63.90 77.35
L63.84 78.12
C64.00 78.05 64.13 78.02 64.24 78.02
C64.50 78.02 64.71 78.15 64.89 78.40
C65.07 78.65 65.15 78.99 65.15 79.40
C65.15 79.84 65.06 80.20 64.87 80.48
C64.67 80.75 64.45 80.89 64.19 80.89
C63.70 80.89 63.40 80.42 63.28 79.49
L62.70 79.61
C62.74 80.22 62.90 80.71 63.18 81.07
C63.46 81.43 63.79 81.62 64.19 81.62
C64.62 81.62 64.99 81.41 65.30 80.99
C65.61 80.57 65.76 80.04 65.76 79.39
C65.76 79.08 65.73 78.80 65.65 78.55
C65.58 78.30 65.48 78.10 65.36 77.95
C65.23 77.80 65.08 77.70 64.89 77.63
C65.10 77.49 65.25 77.29 65.37 77.04
C65.48 76.79 65.53 76.51 65.53 76.18
C65.53 75.65 65.40 75.21 65.14 74.86
C64.87 74.51 64.55 74.34 64.17 74.34
Z
" fill="black" fill-rule="nonzero" />
<path d="
M64.17 86.10
C63.77 86.10 63.43 86.27 63.14 86.62
C62.87 86.95 62.70 87.44 62.62 88.07
L62.61 88.19
L62.73 88.23
L63.30 88.38
L63.46 88.43
L63.48 88.26
C63.51 87.85 63.60 87.55 63.74 87.36
C63.86 87.19 64.01 87.10 64.18 87.10
C64.18 87.10 64.18 87.10 64.18 87.10
C64.18 87.10 64.18 87.10 64.18 87.10
C64.35 87.10 64.49 87.19 64.61 87.35
C64.74 87.53 64.80 87.77 64.80 88.07
C64.80 88.40 64.72 88.66 64.57 88.85
C64.42 89.03 64.23 89.12 64.00 89.12
L64.00 89.12
L63.92 89.11
L63.77 89.10
L63.76 89.24
L63.69 90.01
L63.67 90.24
L63.89 90.15
C64.03 90.10 64.15 90.07 64.24 90.07
C64.24 90.07 64.24 90.07 64.24 90.07
C64.24 90.07 64.24 90.07 64.24 90.07
C64.45 90.07 64.63 90.17 64.77 90.39
C64.93 90.61 65.01 90.92 65.01 91.31
C65.01 91.72 64.92 92.05 64.75 92.30
C64.59 92.54 64.40 92.65 64.19 92.65
C64.19 92.65 64.19 92.65 64.19 92.65
C64.18 92.65 64.18 92.65 64.18 92.65
C63.99 92.65 63.84 92.56 63.71 92.37
C63.58 92.15 63.48 91.82 63.42 91.38
L63.40 91.23
L63.25 91.26
L62.68 91.38
L62.56 91.40
L62.56 91.52
C62.60 92.16 62.77 92.68 63.07 93.06
C63.37 93.46 63.75 93.66 64.19 93.66
C64.67 93.66 65.08 93.43 65.41 92.98
C65.74 92.54 65.91 91.98 65.91 91.29
C65.91 90.97 65.87 90.68 65.79 90.41
C65.71 90.15 65.60 89.93 65.47 89.77
C65.38 89.66 65.27 89.57 65.16 89.50
L65.16 89.50
C65.29 89.37 65.41 89.20 65.49 89.01
C65.62 88.74 65.68 88.43 65.68 88.09
C65.68 87.53 65.53 87.06 65.25 86.68
C64.96 86.30 64.60 86.10 64.17 86.10
Z
M67.80 86.10
C67.40 86.10 67.06 86.27 66.77 86.62
C66.50 86.95 66.33 87.44 66.25 88.07
L66.24 88.19
L66.36 88.23
L66.93 88.38
L67.09 88.43
L67.11 88.26
C67.14 87.85 67.23 87.55 67.37 87.36
C67.49 87.19 67.64 87.10 67.81 87.10
C67.81 87.10 67.81 87.10 67.81 87.10
C67.81 87.10 67.81 87.10 67.81 87.10
C67.98 87.10 68.12 87.19 68.24 87.35
C68.37 87.53 68.43 87.77 68.43 88.07
C68.43 88.40 68.35 88.66 68.20 88.85
C68.05 89.03 67.86 89.12 67.63 89.12
L67.63 89.12
L67.55 89.11
L67.40 89.10
L67.39 89.24
L67.32 90.01
L67.30 90.24
L67.52 90.15
C67.66 90.10 67.78 90.07 67.87 90.07
C67.87 90.07 67.87 90.07 67.87 90.07
C67.87 90.07 67.87 90.07 67.87 90.07
C68.08 90.07 68.26 90.17 68.40 90.39
C68.56 90.61 68.64 90.92 68.64 91.31
C68.64 91.72 68.55 92.05 68.38 92.30
C68.22 92.54 68.03 92.65 67.82 92.65
C67.82 92.65 67.82 92.65 67.82 92.65
C67.81 92.65 67.81 92.65 67.81 92.65
C67.62 92.65 67.47 92.56 67.34 92.37
C67.21 92.15 67.11 91.82 67.05 91.38
L67.03 91.23
L66.88 91.26
L66.31 91.38
L66.19 91.40
L66.19 91.52
C66.23 92.16 66.40 92.68 66.70 93.06
C67.00 93.46 67.38 93.66 67.82 93.66
C68.30 93.66 68.71 93.43 69.05 92.98
C69.37 92.54 69.54 91.98 69.54 91.29
C69.54 90.97 69.50 90.68 69.42 90.41
C69.34 90.15 69.23 89.93 69.10 89.77
C69.01 89.66 68.90 89.57 68.79 89.50
L68.79 89.50
C68.92 89.37 69.04 89.20 69.12 89.01
C69.25 88.74 69.31 88.43 69.31 88.09
C69.31 87.53 69.16 87.06 68.88 86.68
C68.59 86.30 68.23 86.10 67.80 86.10
Z
" fill="white" fill-rule="nonzero" />
<path d="
M67.83 182.21
C68.11 182.21 68.34 182.41 68.52 182.80
C68.70 183.19 68.79 183.97 68.79 185.13
C68.79 186.27 68.70 187.05 68.52 187.45
C68.35 187.84 68.13 188.04 67.87 188.04
C67.59 188.04 67.36 187.85 67.18 187.45
C67.01 187.06 66.92 186.28 66.92 185.13
C66.92 183.98 67.01 183.21 67.18 182.81
C67.36 182.41 67.57 182.21 67.83 182.21
Z
M64.49 181.49
C64.39 181.80 64.22 182.12 63.98 182.45
C63.74 182.77 63.46 183.05 63.14 183.28
L63.14 184.12
C63.33 184.02 63.53 183.87 63.75 183.66
C63.98 183.46 64.15 183.26 64.29 183.07
L64.29 188.64
L64.86 188.64
L64.86 181.49
Z
M67.86 181.49
C67.36 181.49 66.98 181.80 66.72 182.41
C66.46 183.03 66.33 183.93 66.33 185.13
C66.33 186.46 66.47 187.40 66.76 187.95
C67.04 188.49 67.41 188.76 67.85 188.76
C68.36 188.76 68.74 188.45 68.99 187.84
C69.25 187.22 69.38 186.32 69.38 185.13
C69.38 183.80 69.22 182.84 68.91 182.24
C68.66 181.74 68.30 181.49 67.86 181.49
Z
" fill="black" fill-rule="nonzero" />
<path d="
M80.07 28.21
L80.07 31.42
L78.61 31.42
L80.07 28.21
Z
M76.17 26.78
C75.73 26.78 75.38 26.95 75.11 27.30
C74.85 27.64 74.69 28.15 74.65 28.84
L75.24 28.93
C75.24 28.47 75.33 28.12 75.50 27.87
C75.67 27.63 75.89 27.50 76.15 27.50
C76.40 27.50 76.61 27.62 76.78 27.84
C76.95 28.07 77.04 28.37 77.04 28.73
C77.04 29.05 76.95 29.38 76.79 29.75
C76.62 30.11 76.27 30.63 75.73 31.30
C75.27 31.87 74.96 32.37 74.79 32.79
C74.61 33.21 74.53 33.59 74.54 33.93
L77.63 33.93
L77.63 33.09
L75.34 33.09
C75.40 32.93 75.48 32.77 75.58 32.61
C75.68 32.45 75.90 32.16 76.24 31.72
C76.78 31.03 77.14 30.47 77.33 30.06
C77.53 29.64 77.62 29.20 77.62 28.75
C77.62 28.24 77.50 27.78 77.26 27.38
C77.01 26.98 76.65 26.78 76.17 26.78
Z
M80.18 26.81
L78.05 31.42
L78.05 32.22
L80.07 32.22
L80.07 33.93
L80.65 33.93
L80.65 32.22
L81.28 32.22
L81.28 31.42
L80.65 31.42
L80.65 26.81
Z
" fill="black" fill-rule="nonzero" />
<path d="
M76.17 38.48
C75.69 38.48 75.30 38.67 75.00 39.05
C74.72 39.42 74.55 39.96 74.51 40.67
L74.50 40.80
L74.63 40.82
L75.22 40.91
L75.38 40.94
L75.38 40.77
C75.38 40.34 75.46 40.02 75.61 39.79
C75.75 39.59 75.93 39.49 76.15 39.49
C76.15 39.49 76.15 39.49 76.15 39.49
C76.15 39.49 76.16 39.49 76.16 39.49
C76.36 39.49 76.53 39.58 76.67 39.77
C76.82 39.97 76.89 40.24 76.89 40.57
C76.89 40.87 76.82 41.19 76.66 41.53
C76.50 41.89 76.15 42.39 75.62 43.05
C75.16 43.63 74.83 44.14 74.66 44.58
C74.48 45.02 74.39 45.42 74.40 45.78
L74.40 45.91
L77.77 45.91
L77.77 45.77
L77.77 44.93
L77.77 44.79
L75.55 44.79
C75.60 44.70 75.65 44.62 75.70 44.53
C75.80 44.38 76.02 44.08 76.35 43.65
C76.90 42.95 77.27 42.38 77.46 41.96
C77.66 41.52 77.76 41.07 77.76 40.59
C77.76 40.05 77.63 39.57 77.38 39.15
C77.10 38.70 76.70 38.48 76.17 38.48
Z
M79.71 38.48
C79.30 38.48 78.96 38.65 78.68 39.00
C78.41 39.33 78.23 39.81 78.16 40.45
L78.14 40.57
L78.26 40.60
L78.83 40.76
L78.99 40.80
L79.01 40.64
C79.05 40.23 79.14 39.93 79.27 39.74
C79.40 39.57 79.54 39.48 79.71 39.48
C79.72 39.48 79.72 39.48 79.72 39.48
C79.72 39.48 79.72 39.48 79.72 39.48
C79.88 39.48 80.03 39.56 80.14 39.73
C80.27 39.90 80.34 40.14 80.34 40.45
C80.34 40.78 80.26 41.04 80.10 41.23
C79.96 41.41 79.77 41.50 79.53 41.50
L79.53 41.50
L79.45 41.49
L79.31 41.48
L79.30 41.62
L79.23 42.39
L79.21 42.62
L79.42 42.53
C79.57 42.47 79.69 42.45 79.78 42.45
C79.78 42.45 79.78 42.45 79.78 42.45
C79.78 42.45 79.78 42.45 79.78 42.45
C79.99 42.45 80.16 42.55 80.31 42.76
C80.47 42.99 80.55 43.30 80.55 43.68
C80.55 44.09 80.46 44.43 80.28 44.68
C80.12 44.91 79.94 45.03 79.72 45.03
C79.72 45.03 79.72 45.03 79.72 45.03
C79.72 45.03 79.72 45.03 79.72 45.03
C79.53 45.03 79.37 44.94 79.25 44.75
C79.11 44.53 79.01 44.20 78.96 43.76
L78.94 43.61
L78.79 43.64
L78.21 43.75
L78.09 43.78
L78.10 43.90
C78.14 44.54 78.31 45.05 78.60 45.44
C78.91 45.84 79.28 46.04 79.73 46.04
C80.21 46.04 80.61 45.81 80.95 45.36
C81.28 44.92 81.44 44.35 81.44 43.67
C81.44 43.35 81.40 43.05 81.32 42.79
C81.24 42.52 81.13 42.31 81.00 42.15
C80.91 42.04 80.81 41.95 80.69 41.88
L80.69 41.88
C80.83 41.74 80.94 41.58 81.03 41.39
C81.15 41.12 81.21 40.81 81.21 40.47
C81.21 39.90 81.07 39.44 80.79 39.06
C80.49 38.67 80.13 38.48 79.71 38.48
Z
" fill="white" fill-rule="nonzero" />
<path d="
M79.77 51.39
C79.77 51.39 79.77 51.39 79.78 51.39
C79.78 51.39 79.78 51.39 79.78 51.39
C79.96 51.39 80.13 51.52 80.28 51.76
C80.45 52.03 80.53 52.41 80.53 52.89
C80.53 53.37 80.45 53.74 80.29 54.00
C80.14 54.23 79.97 54.35 79.77 54.35
C79.77 54.35 79.77 54.35 79.76 54.35
C79.76 54.35 79.76 54.35 79.76 54.35
C79.56 54.35 79.38 54.23 79.22 54.00
C79.05 53.75 78.97 53.40 78.97 52.96
C78.97 52.47 79.06 52.08 79.24 51.79
C79.40 51.53 79.58 51.39 79.77 51.39
Z
M76.17 50.39
C75.69 50.39 75.30 50.58 75.00 50.96
C74.72 51.33 74.55 51.87 74.51 52.58
L74.50 52.71
L74.63 52.73
L75.22 52.82
L75.38 52.85
L75.38 52.68
C75.38 52.25 75.46 51.92 75.61 51.70
C75.75 51.50 75.93 51.39 76.15 51.39
C76.15 51.39 76.15 51.39 76.15 51.39
C76.15 51.39 76.16 51.39 76.16 51.39
C76.36 51.39 76.53 51.49 76.67 51.68
C76.82 51.88 76.89 52.15 76.89 52.48
C76.89 52.78 76.82 53.10 76.66 53.44
C76.50 53.79 76.15 54.30 75.62 54.96
C75.16 55.54 74.83 56.05 74.66 56.48
C74.48 56.92 74.39 57.32 74.40 57.68
L74.40 57.82
L77.77 57.82
L77.77 57.68
L77.77 56.84
L77.77 56.70
L75.55 56.70
C75.60 56.61 75.65 56.53 75.70 56.44
C75.80 56.28 76.02 55.99 76.35 55.56
C76.90 54.85 77.27 54.29 77.46 53.86
C77.66 53.43 77.76 52.98 77.76 52.50
C77.76 51.96 77.63 51.48 77.38 51.06
C77.10 50.61 76.70 50.39 76.17 50.39
Z
M79.71 50.39
C79.25 50.39 78.86 50.62 78.55 51.09
C78.25 51.55 78.09 52.16 78.09 52.93
C78.09 53.68 78.24 54.28 78.53 54.72
C78.84 55.18 79.20 55.41 79.64 55.41
C79.88 55.41 80.12 55.31 80.34 55.12
C80.43 55.05 80.51 54.97 80.59 54.87
L80.59 54.87
C80.57 55.27 80.52 55.62 80.44 55.93
C80.33 56.32 80.21 56.59 80.07 56.74
C79.94 56.87 79.80 56.94 79.65 56.94
C79.65 56.94 79.65 56.94 79.65 56.94
C79.65 56.94 79.65 56.94 79.65 56.94
C79.48 56.94 79.35 56.87 79.25 56.72
C79.13 56.55 79.06 56.29 79.01 55.94
L79.00 55.79
L78.85 55.82
L78.30 55.89
L78.17 55.91
L78.18 56.04
C78.23 56.65 78.38 57.11 78.64 57.44
C78.91 57.77 79.24 57.94 79.64 57.94
C79.99 57.94 80.31 57.80 80.59 57.53
C80.86 57.26 81.07 56.84 81.23 56.28
C81.38 55.73 81.45 54.95 81.45 53.96
C81.45 53.07 81.38 52.39 81.24 51.91
C81.10 51.42 80.89 51.04 80.62 50.79
C80.34 50.52 80.04 50.39 79.71 50.39
Z
" fill="white" fill-rule="nonzero" />
<path d="
M89.85 27.47
C90.11 27.47 90.33 27.58 90.52 27.79
C90.70 28.00 90.80 28.27 90.80 28.60
C90.80 28.92 90.71 29.18 90.52 29.38
C90.34 29.58 90.12 29.68 89.86 29.68
C89.60 29.68 89.37 29.58 89.19 29.37
C89.01 29.17 88.92 28.89 88.92 28.55
C88.92 28.24 89.01 27.98 89.19 27.78
C89.38 27.57 89.60 27.47 89.85 27.47
Z
M89.84 30.39
C90.17 30.39 90.45 30.52 90.68 30.78
C90.92 31.05 91.03 31.39 91.03 31.83
C91.03 32.25 90.92 32.60 90.69 32.85
C90.47 33.11 90.19 33.24 89.86 33.24
C89.54 33.24 89.26 33.10 89.03 32.84
C88.80 32.58 88.68 32.23 88.68 31.80
C88.68 31.38 88.79 31.04 89.02 30.78
C89.25 30.52 89.52 30.39 89.84 30.39
Z
M89.85 26.76
C89.37 26.76 88.98 26.93 88.66 27.27
C88.35 27.60 88.19 28.04 88.19 28.57
C88.19 28.93 88.26 29.22 88.41 29.46
C88.55 29.70 88.77 29.88 89.05 30.01
C88.71 30.12 88.44 30.33 88.25 30.63
C88.05 30.94 87.96 31.33 87.96 31.80
C87.96 32.44 88.14 32.96 88.50 33.35
C88.86 33.75 89.32 33.95 89.86 33.95
C90.40 33.95 90.85 33.75 91.21 33.35
C91.58 32.96 91.76 32.45 91.76 31.82
C91.76 31.37 91.66 30.99 91.48 30.68
C91.29 30.37 91.02 30.15 90.67 30.01
C90.96 29.88 91.17 29.70 91.31 29.46
C91.45 29.23 91.52 28.94 91.52 28.60
C91.52 28.06 91.36 27.62 91.05 27.28
C90.73 26.93 90.33 26.76 89.85 26.76
Z
" fill="black" fill-rule="nonzero" />
<path d="
M91.67 39.34
C91.88 39.34 92.06 39.45 92.21 39.66
C92.36 39.87 92.44 40.15 92.44 40.48
C92.44 40.80 92.37 41.07 92.22 41.27
C92.07 41.47 91.89 41.58 91.68 41.58
C91.47 41.58 91.28 41.47 91.14 41.27
C90.99 41.06 90.92 40.78 90.92 40.43
C90.92 40.12 90.99 39.86 91.14 39.65
C91.29 39.45 91.47 39.34 91.67 39.34
Z
M91.67 42.29
C91.93 42.29 92.16 42.42 92.35 42.69
C92.53 42.96 92.63 43.31 92.63 43.75
C92.63 44.18 92.54 44.53 92.35 44.79
C92.17 45.05 91.95 45.18 91.68 45.18
C91.42 45.18 91.19 45.04 91.01 44.78
C90.82 44.51 90.73 44.16 90.73 43.72
C90.73 43.30 90.82 42.96 91.00 42.69
C91.18 42.42 91.40 42.29 91.67 42.29
Z
M88.08 38.62
C87.64 38.62 87.29 38.80 87.02 39.14
C86.75 39.49 86.60 40.00 86.55 40.68
L87.15 40.78
C87.15 40.32 87.23 39.96 87.40 39.72
C87.57 39.47 87.79 39.35 88.06 39.35
C88.31 39.35 88.52 39.46 88.69 39.69
C88.86 39.92 88.94 40.21 88.94 40.58
C88.94 40.89 88.86 41.23 88.69 41.59
C88.53 41.96 88.18 42.47 87.64 43.14
C87.18 43.71 86.86 44.21 86.69 44.63
C86.52 45.05 86.44 45.43 86.45 45.77
L89.54 45.77
L89.54 44.93
L87.24 44.93
C87.30 44.78 87.39 44.62 87.49 44.46
C87.59 44.30 87.81 44.00 88.15 43.56
C88.68 42.87 89.05 42.32 89.24 41.90
C89.43 41.48 89.53 41.05 89.53 40.60
C89.53 40.08 89.41 39.63 89.16 39.23
C88.92 38.82 88.55 38.62 88.08 38.62
Z
M91.67 38.62
C91.28 38.62 90.96 38.79 90.71 39.13
C90.45 39.47 90.32 39.91 90.32 40.45
C90.32 40.81 90.38 41.11 90.50 41.36
C90.62 41.60 90.79 41.78 91.02 41.91
C90.75 42.02 90.53 42.23 90.37 42.54
C90.22 42.85 90.14 43.24 90.14 43.72
C90.14 44.37 90.29 44.90 90.58 45.30
C90.87 45.70 91.24 45.90 91.68 45.90
C92.12 45.90 92.48 45.70 92.78 45.30
C93.07 44.90 93.22 44.38 93.22 43.74
C93.22 43.28 93.14 42.90 92.99 42.59
C92.84 42.28 92.62 42.05 92.34 41.91
C92.57 41.78 92.74 41.59 92.85 41.36
C92.97 41.12 93.03 40.83 93.03 40.48
C93.03 39.94 92.90 39.49 92.64 39.14
C92.38 38.80 92.06 38.62 91.67 38.62
Z
" fill="black" fill-rule="nonzero" />
<path d="
M91.83 50.38
L91.79 50.48
C91.70 50.78 91.54 51.08 91.30 51.40
C91.07 51.71 90.80 51.98 90.50 52.20
L90.44 52.24
L90.44 52.31
L90.44 53.16
L90.44 53.40
L90.65 53.28
C90.85 53.17 91.06 53.01 91.29 52.81
C91.40 52.71 91.50 52.61 91.59 52.51
L91.59 52.51
L91.59 57.68
L91.59 57.82
L92.44 57.82
L92.44 57.68
L92.44 50.53
L92.44 50.38
Z
M87.98 50.38
C87.58 50.39 87.24 50.56 86.95 50.90
C86.68 51.24 86.51 51.72 86.43 52.36
L86.42 52.48
L86.54 52.51
L87.11 52.66
L87.27 52.71
L87.29 52.54
C87.33 52.14 87.41 51.84 87.55 51.65
C87.67 51.47 87.82 51.39 87.99 51.39
C87.99 51.39 87.99 51.39 87.99 51.39
C87.99 51.39 87.99 51.39 88.00 51.39
C88.16 51.39 88.30 51.47 88.42 51.63
C88.55 51.81 88.61 52.05 88.61 52.35
C88.61 52.68 88.54 52.94 88.38 53.13
C88.23 53.31 88.04 53.41 87.81 53.41
L87.81 53.41
L87.73 53.40
L87.58 53.38
L87.57 53.53
L87.51 54.29
L87.49 54.52
L87.49 54.52
L87.70 54.44
C87.84 54.38 87.96 54.35 88.05 54.35
C88.05 54.35 88.05 54.35 88.05 54.35
C88.05 54.35 88.05 54.35 88.05 54.35
C88.26 54.35 88.44 54.46 88.58 54.67
C88.74 54.90 88.82 55.20 88.82 55.59
C88.82 56.00 88.74 56.33 88.56 56.58
C88.40 56.82 88.21 56.94 88.00 56.94
C88.00 56.94 88.00 56.94 88.00 56.94
C88.00 56.94 87.99 56.94 87.99 56.94
C87.80 56.94 87.65 56.84 87.53 56.65
C87.39 56.44 87.29 56.11 87.23 55.66
L87.21 55.51
L87.06 55.54
L86.49 55.66
L86.37 55.68
L86.37 55.81
C86.42 56.45 86.58 56.96 86.88 57.35
C87.18 57.74 87.56 57.94 88.00 57.95
C88.48 57.94 88.89 57.72 89.23 57.26
C89.55 56.82 89.72 56.26 89.72 55.57
C89.72 55.25 89.68 54.96 89.60 54.70
C89.52 54.43 89.41 54.21 89.28 54.05
C89.19 53.94 89.08 53.85 88.97 53.79
L88.97 53.79
C89.10 53.65 89.22 53.48 89.31 53.29
C89.43 53.02 89.49 52.72 89.49 52.37
C89.49 51.81 89.35 51.34 89.06 50.97
C88.77 50.58 88.41 50.39 87.98 50.38
Z
" fill="white" fill-rule="nonzero" />
<path d="
M91.98 75.77
L91.98 78.98
L90.52 78.98
L91.98 75.77
Z
M92.09 74.37
L89.96 78.98
L89.96 79.78
L91.98 79.78
L91.98 81.49
L92.56 81.49
L92.56 79.78
L93.19 79.78
L93.19 78.98
L92.56 78.98
L92.56 74.37
Z
M87.98 74.34
C87.62 74.34 87.32 74.49 87.06 74.80
C86.81 75.11 86.65 75.57 86.57 76.18
L87.15 76.34
C87.19 75.91 87.28 75.59 87.43 75.37
C87.59 75.16 87.77 75.06 87.99 75.06
C88.21 75.06 88.39 75.16 88.53 75.36
C88.68 75.56 88.75 75.83 88.75 76.16
C88.75 76.53 88.67 76.82 88.49 77.03
C88.31 77.25 88.08 77.36 87.80 77.36
L87.71 77.35
L87.65 78.12
C87.81 78.05 87.94 78.02 88.05 78.02
C88.31 78.02 88.52 78.15 88.70 78.40
C88.88 78.65 88.96 78.99 88.96 79.40
C88.96 79.84 88.87 80.20 88.68 80.48
C88.48 80.75 88.26 80.89 88.00 80.89
C87.51 80.89 87.21 80.42 87.09 79.49
L86.52 79.61
C86.55 80.22 86.71 80.71 86.99 81.07
C87.27 81.43 87.61 81.62 88.00 81.62
C88.43 81.62 88.80 81.41 89.11 80.99
C89.42 80.57 89.57 80.04 89.57 79.39
C89.57 79.08 89.54 78.80 89.46 78.55
C89.39 78.30 89.29 78.10 89.17 77.95
C89.04 77.80 88.89 77.70 88.70 77.63
C88.91 77.49 89.06 77.29 89.18 77.04
C89.29 76.79 89.35 76.51 89.35 76.18
C89.35 75.65 89.21 75.21 88.95 74.86
C88.68 74.51 88.36 74.34 87.98 74.34
Z
" fill="black" fill-rule="nonzero" />
<path d="
M103.61 30.02
C103.86 30.02 104.08 30.16 104.26 30.44
C104.43 30.72 104.52 31.11 104.52 31.61
C104.52 32.13 104.43 32.53 104.25 32.83
C104.08 33.12 103.87 33.27 103.65 33.27
C103.39 33.27 103.17 33.11 102.97 32.80
C102.78 32.49 102.68 32.07 102.68 31.56
C102.68 31.09 102.77 30.71 102.96 30.43
C103.14 30.16 103.36 30.02 103.61 30.02
Z
M103.70 26.72
C103.21 26.72 102.80 27.01 102.49 27.59
C102.18 28.18 102.02 29.16 102.02 30.53
C102.02 31.77 102.17 32.66 102.48 33.19
C102.78 33.72 103.17 33.99 103.64 33.99
C103.91 33.99 104.15 33.90 104.36 33.71
C104.58 33.53 104.76 33.24 104.90 32.85
C105.04 32.47 105.11 32.04 105.11 31.56
C105.11 30.86 104.97 30.29 104.69 29.88
C104.42 29.46 104.09 29.25 103.72 29.25
C103.50 29.25 103.29 29.33 103.09 29.49
C102.89 29.65 102.72 29.88 102.59 30.19
C102.59 29.32 102.68 28.66 102.86 28.21
C103.06 27.69 103.33 27.43 103.66 27.43
C103.88 27.43 104.06 27.55 104.21 27.77
C104.32 27.93 104.40 28.19 104.45 28.56
L105.02 28.49
C104.97 27.91 104.83 27.47 104.59 27.17
C104.35 26.87 104.05 26.72 103.70 26.72
Z
M99.89 26.72
C99.53 26.72 99.22 26.87 98.97 27.18
C98.72 27.49 98.55 27.95 98.48 28.56
L99.05 28.72
C99.09 28.29 99.19 27.96 99.34 27.75
C99.49 27.54 99.68 27.43 99.90 27.43
C100.11 27.43 100.29 27.54 100.44 27.74
C100.59 27.94 100.66 28.21 100.66 28.54
C100.66 28.90 100.57 29.19 100.40 29.41
C100.22 29.63 99.99 29.74 99.71 29.74
L99.62 29.73
L99.55 30.49
C99.71 30.43 99.85 30.40 99.96 30.40
C100.21 30.40 100.43 30.52 100.61 30.78
C100.78 31.03 100.87 31.36 100.87 31.78
C100.87 32.22 100.77 32.58 100.58 32.85
C100.39 33.13 100.16 33.27 99.90 33.27
C99.42 33.27 99.12 32.80 99.00 31.87
L98.42 31.99
C98.46 32.60 98.62 33.09 98.90 33.45
C99.17 33.81 99.51 33.99 99.91 33.99
C100.34 33.99 100.71 33.78 101.02 33.37
C101.33 32.95 101.48 32.42 101.48 31.76
C101.48 31.46 101.44 31.18 101.37 30.93
C101.29 30.68 101.19 30.48 101.07 30.33
C100.95 30.18 100.80 30.07 100.61 30.01
C100.81 29.87 100.97 29.67 101.08 29.42
C101.19 29.17 101.25 28.89 101.25 28.56
C101.25 28.03 101.12 27.59 100.85 27.24
C100.59 26.89 100.27 26.72 99.89 26.72
Z
" fill="black" fill-rule="nonzero" />
<path d="
M103.00 41.14
L103.00 41.14
L103.00 41.14
C103.00 41.14 103.00 41.14 103.00 41.14
Z
M102.48 38.61
L102.46 38.73
L102.01 42.39
L101.99 42.52
L102.12 42.54
L102.66 42.65
L102.78 42.67
L102.82 42.57
C102.90 42.37 103.00 42.22 103.14 42.12
C103.26 42.01 103.39 41.96 103.53 41.96
C103.54 41.96 103.54 41.96 103.54 41.96
C103.54 41.96 103.54 41.96 103.54 41.96
C103.78 41.96 103.98 42.08 104.14 42.32
C104.31 42.58 104.40 42.95 104.40 43.43
C104.40 43.94 104.31 44.34 104.12 44.63
C103.96 44.90 103.76 45.03 103.54 45.03
C103.54 45.03 103.54 45.03 103.54 45.03
C103.54 45.03 103.54 45.03 103.54 45.03
C103.37 45.03 103.22 44.94 103.08 44.76
C102.93 44.56 102.83 44.24 102.79 43.81
L102.78 43.67
L102.63 43.69
L102.03 43.77
L101.90 43.78
L101.91 43.92
C101.95 44.57 102.12 45.08 102.41 45.45
C102.72 45.84 103.10 46.03 103.55 46.04
C104.09 46.03 104.52 45.76 104.83 45.22
C105.14 44.70 105.29 44.08 105.29 43.36
C105.29 42.62 105.13 42.03 104.83 41.59
C104.51 41.14 104.13 40.91 103.69 40.91
C103.45 40.91 103.22 40.99 103.00 41.14
L103.00 41.14
L103.19 39.72
L105.07 39.72
L105.07 39.58
L105.07 38.75
L105.07 38.61
Z
M99.89 38.48
C99.49 38.48 99.14 38.65 98.86 39.00
C98.59 39.33 98.41 39.81 98.34 40.45
L98.32 40.57
L98.44 40.60
L99.01 40.76
L99.18 40.80
L99.19 40.64
C99.23 40.23 99.32 39.93 99.46 39.74
C99.58 39.57 99.72 39.48 99.89 39.48
C99.90 39.48 99.90 39.48 99.90 39.48
C99.90 39.48 99.90 39.48 99.90 39.48
C100.07 39.48 100.21 39.56 100.32 39.73
C100.45 39.90 100.52 40.14 100.52 40.45
C100.52 40.78 100.44 41.04 100.29 41.23
C100.14 41.41 99.95 41.50 99.72 41.50
L99.72 41.50
L99.63 41.49
L99.49 41.48
L99.48 41.62
L99.41 42.39
L99.39 42.62
L99.61 42.53
C99.75 42.47 99.87 42.45 99.96 42.45
C99.96 42.45 99.96 42.45 99.96 42.45
C99.96 42.45 99.96 42.45 99.96 42.45
C100.17 42.45 100.34 42.55 100.49 42.76
C100.65 42.99 100.73 43.30 100.73 43.68
C100.73 44.09 100.64 44.43 100.47 44.68
C100.30 44.91 100.12 45.03 99.91 45.03
C99.90 45.03 99.90 45.03 99.90 45.03
C99.90 45.03 99.90 45.03 99.90 45.03
C99.71 45.03 99.55 44.94 99.43 44.75
C99.29 44.53 99.19 44.20 99.14 43.76
L99.12 43.61
L98.97 43.64
L98.39 43.75
L98.27 43.78
L98.28 43.90
C98.32 44.54 98.49 45.05 98.78 45.44
C99.09 45.84 99.46 46.04 99.91 46.04
C100.39 46.04 100.79 45.81 101.13 45.36
C101.46 44.92 101.62 44.35 101.62 43.67
C101.62 43.35 101.58 43.05 101.50 42.79
C101.42 42.52 101.32 42.31 101.18 42.15
C101.09 42.04 100.99 41.95 100.87 41.88
L100.87 41.88
C101.01 41.74 101.12 41.58 101.21 41.39
C101.33 41.12 101.39 40.81 101.39 40.47
C101.39 39.90 101.25 39.44 100.97 39.06
C100.67 38.67 100.32 38.48 99.89 38.48
Z
" fill="white" fill-rule="nonzero" />
<path d="
M115.48 27.43
C115.69 27.43 115.87 27.54 116.02 27.75
C116.17 27.96 116.25 28.24 116.25 28.57
C116.25 28.89 116.18 29.16 116.03 29.36
C115.88 29.57 115.70 29.67 115.49 29.67
C115.28 29.67 115.10 29.57 114.95 29.36
C114.80 29.15 114.73 28.87 114.73 28.52
C114.73 28.21 114.80 27.95 114.95 27.75
C115.10 27.54 115.28 27.43 115.48 27.43
Z
M115.48 30.38
C115.74 30.38 115.97 30.52 116.16 30.78
C116.35 31.05 116.44 31.40 116.44 31.84
C116.44 32.27 116.35 32.62 116.16 32.88
C115.98 33.14 115.76 33.27 115.49 33.27
C115.23 33.27 115.01 33.14 114.82 32.87
C114.63 32.60 114.54 32.25 114.54 31.81
C114.54 31.39 114.63 31.05 114.81 30.78
C114.99 30.52 115.21 30.38 115.48 30.38
Z
M115.48 26.72
C115.09 26.72 114.77 26.89 114.52 27.23
C114.26 27.57 114.14 28.01 114.14 28.55
C114.14 28.91 114.19 29.21 114.31 29.45
C114.43 29.69 114.60 29.87 114.84 30.00
C114.56 30.11 114.34 30.32 114.18 30.63
C114.03 30.94 113.95 31.34 113.95 31.81
C113.95 32.46 114.10 32.99 114.39 33.39
C114.68 33.79 115.05 33.99 115.49 33.99
C115.93 33.99 116.29 33.79 116.59 33.39
C116.88 32.99 117.03 32.47 117.03 31.84
C117.03 31.38 116.95 30.99 116.80 30.68
C116.65 30.37 116.43 30.14 116.15 30.00
C116.38 29.87 116.55 29.69 116.67 29.45
C116.78 29.21 116.84 28.92 116.84 28.58
C116.84 28.03 116.71 27.58 116.45 27.23
C116.19 26.89 115.87 26.72 115.48 26.72
Z
M111.80 26.72
C111.44 26.72 111.13 26.87 110.87 27.18
C110.62 27.49 110.46 27.95 110.39 28.56
L110.96 28.72
C111.00 28.29 111.09 27.96 111.25 27.75
C111.40 27.54 111.58 27.43 111.80 27.43
C112.02 27.43 112.20 27.54 112.34 27.74
C112.49 27.94 112.57 28.21 112.57 28.54
C112.57 28.90 112.48 29.19 112.30 29.41
C112.13 29.63 111.90 29.74 111.61 29.74
L111.52 29.73
L111.46 30.49
C111.62 30.43 111.75 30.40 111.86 30.40
C112.12 30.40 112.33 30.52 112.51 30.78
C112.69 31.03 112.78 31.36 112.78 31.78
C112.78 32.22 112.68 32.58 112.49 32.85
C112.30 33.13 112.07 33.27 111.81 33.27
C111.32 33.27 111.02 32.80 110.90 31.87
L110.33 31.99
C110.37 32.60 110.52 33.09 110.80 33.45
C111.08 33.81 111.42 33.99 111.82 33.99
C112.25 33.99 112.61 33.78 112.92 33.37
C113.23 32.95 113.39 32.42 113.39 31.76
C113.39 31.46 113.35 31.18 113.27 30.93
C113.20 30.68 113.10 30.48 112.98 30.33
C112.86 30.18 112.70 30.07 112.51 30.01
C112.72 29.87 112.87 29.67 112.99 29.42
C113.10 29.17 113.16 28.89 113.16 28.56
C113.16 28.03 113.02 27.59 112.76 27.24
C112.50 26.89 112.17 26.72 111.80 26.72
Z
" fill="black" fill-rule="nonzero" />
<path d="
M113.85 38.60
L113.85 38.74
L113.85 39.58
L113.85 39.72
L116.04 39.72
C115.79 40.19 115.55 40.74 115.33 41.37
C115.08 42.10 114.88 42.86 114.73 43.66
C114.59 44.46 114.51 45.17 114.50 45.77
L114.50 45.91
L115.24 45.91
L115.37 45.91
L115.38 45.78
C115.43 44.64 115.62 43.48 115.96 42.32
C116.30 41.16 116.69 40.22 117.14 39.50
L117.16 39.46
L117.16 39.42
L117.16 38.74
L117.16 38.60
Z
M111.80 38.48
C111.39 38.48 111.05 38.65 110.76 39.00
C110.49 39.33 110.32 39.81 110.24 40.45
L110.23 40.57
L110.35 40.60
L110.92 40.76
L111.08 40.80
L111.10 40.64
C111.14 40.23 111.22 39.93 111.36 39.74
C111.48 39.57 111.63 39.48 111.80 39.48
C111.80 39.48 111.80 39.48 111.80 39.48
C111.80 39.48 111.81 39.48 111.81 39.48
C111.97 39.48 112.11 39.56 112.23 39.73
C112.36 39.90 112.42 40.14 112.42 40.45
C112.42 40.78 112.35 41.04 112.19 41.23
C112.05 41.41 111.86 41.50 111.62 41.50
L111.62 41.50
L111.54 41.49
L111.40 41.48
L111.38 41.62
L111.32 42.39
L111.30 42.62
L111.51 42.53
C111.65 42.47 111.77 42.45 111.86 42.45
C111.86 42.45 111.86 42.45 111.86 42.45
C111.86 42.45 111.86 42.45 111.87 42.45
C112.07 42.45 112.25 42.55 112.39 42.76
C112.55 42.99 112.63 43.30 112.63 43.68
C112.63 44.09 112.55 44.43 112.37 44.68
C112.21 44.91 112.02 45.03 111.81 45.03
C111.81 45.03 111.81 45.03 111.81 45.03
C111.81 45.03 111.80 45.03 111.80 45.03
C111.61 45.03 111.46 44.94 111.34 44.75
C111.20 44.53 111.10 44.20 111.04 43.76
L111.02 43.61
L110.87 43.64
L110.30 43.75
L110.18 43.78
L110.19 43.90
C110.23 44.54 110.39 45.05 110.69 45.44
C110.99 45.84 111.37 46.04 111.82 46.04
C112.29 46.04 112.70 45.81 113.04 45.36
C113.36 44.92 113.53 44.35 113.53 43.67
C113.53 43.35 113.49 43.05 113.41 42.79
C113.33 42.52 113.22 42.31 113.09 42.15
C113.00 42.04 112.90 41.95 112.78 41.88
L112.78 41.88
C112.92 41.74 113.03 41.58 113.12 41.39
C113.24 41.12 113.30 40.81 113.30 40.47
C113.30 39.90 113.16 39.44 112.87 39.06
C112.58 38.67 112.22 38.48 111.80 38.48
Z
" fill="white" fill-rule="nonzero" />
<path d="
M113.70 196.70
C114.02 196.70 114.28 196.84 114.50 197.12
C114.72 197.39 114.83 197.78 114.83 198.28
C114.83 198.79 114.72 199.19 114.50 199.48
C114.28 199.77 114.03 199.91 113.75 199.91
C113.43 199.91 113.16 199.76 112.92 199.45
C112.68 199.14 112.56 198.73 112.56 198.22
C112.56 197.76 112.67 197.39 112.90 197.11
C113.13 196.84 113.40 196.70 113.70 196.70
Z
M113.81 193.44
C113.20 193.44 112.71 193.73 112.32 194.31
C111.93 194.88 111.74 195.85 111.74 197.21
C111.74 198.44 111.93 199.31 112.31 199.84
C112.68 200.36 113.16 200.62 113.75 200.62
C114.07 200.62 114.36 200.53 114.63 200.35
C114.90 200.17 115.12 199.89 115.29 199.50
C115.46 199.12 115.55 198.69 115.55 198.22
C115.55 197.53 115.38 196.98 115.04 196.56
C114.70 196.15 114.30 195.94 113.84 195.94
C113.57 195.94 113.31 196.02 113.06 196.18
C112.81 196.34 112.61 196.57 112.44 196.88
C112.45 196.01 112.56 195.36 112.77 194.92
C113.02 194.41 113.35 194.15 113.76 194.15
C114.03 194.15 114.26 194.26 114.45 194.49
C114.58 194.64 114.68 194.90 114.74 195.26
L115.45 195.19
C115.39 194.62 115.21 194.19 114.91 193.89
C114.61 193.59 114.25 193.44 113.81 193.44
Z
" fill="black" fill-rule="nonzero" />
<path d="
M124.07 28.15
L124.07 31.36
L122.61 31.36
L124.07 28.15
Z
M127.36 27.44
C127.64 27.44 127.87 27.64 128.05 28.03
C128.23 28.42 128.31 29.20 128.31 30.36
C128.31 31.50 128.23 32.28 128.05 32.67
C127.87 33.07 127.66 33.27 127.39 33.27
C127.12 33.27 126.89 33.07 126.71 32.68
C126.53 32.29 126.45 31.51 126.45 30.36
C126.45 29.21 126.53 28.44 126.71 28.04
C126.88 27.64 127.10 27.44 127.36 27.44
Z
M124.18 26.75
L122.04 31.36
L122.04 32.16
L124.07 32.16
L124.07 33.87
L124.64 33.87
L124.64 32.16
L125.28 32.16
L125.28 31.36
L124.64 31.36
L124.64 26.75
Z
M127.39 26.72
C126.88 26.72 126.50 27.03 126.25 27.64
C125.99 28.26 125.86 29.16 125.86 30.36
C125.86 31.69 126.00 32.63 126.28 33.17
C126.57 33.72 126.93 33.99 127.38 33.99
C127.88 33.99 128.26 33.68 128.52 33.07
C128.78 32.45 128.91 31.55 128.91 30.36
C128.91 29.03 128.75 28.07 128.44 27.47
C128.18 26.97 127.83 26.72 127.39 26.72
Z
" fill="black" fill-rule="nonzero" />
<path d="
M127.39 39.49
C127.40 39.49 127.40 39.49 127.40 39.49
C127.40 39.49 127.40 39.49 127.40 39.49
C127.58 39.49 127.75 39.61 127.90 39.86
C128.07 40.13 128.15 40.50 128.15 40.98
C128.15 41.47 128.07 41.84 127.91 42.09
C127.76 42.33 127.59 42.44 127.39 42.44
C127.39 42.44 127.39 42.44 127.39 42.44
C127.38 42.44 127.38 42.44 127.38 42.44
C127.18 42.44 127.00 42.33 126.84 42.09
C126.67 41.84 126.59 41.49 126.59 41.05
C126.59 40.56 126.68 40.17 126.86 39.89
C127.02 39.62 127.20 39.49 127.39 39.49
Z
M127.33 38.48
C126.87 38.48 126.49 38.72 126.17 39.19
C125.87 39.64 125.72 40.25 125.72 41.03
C125.72 41.78 125.86 42.37 126.15 42.81
C126.46 43.27 126.83 43.50 127.26 43.50
C127.50 43.50 127.74 43.40 127.97 43.21
C128.05 43.14 128.13 43.06 128.21 42.96
L128.21 42.96
C128.19 43.36 128.14 43.71 128.06 44.02
C127.95 44.42 127.83 44.69 127.69 44.83
C127.57 44.97 127.43 45.03 127.28 45.03
C127.27 45.03 127.27 45.03 127.27 45.03
C127.27 45.03 127.27 45.03 127.27 45.03
C127.11 45.03 126.97 44.96 126.87 44.81
C126.76 44.64 126.68 44.38 126.64 44.03
L126.62 43.89
L126.48 43.91
L125.92 43.98
L125.79 44.00
L125.80 44.14
C125.85 44.74 126.00 45.20 126.26 45.53
C126.53 45.86 126.86 46.03 127.26 46.04
C127.61 46.03 127.93 45.90 128.21 45.62
C128.48 45.35 128.69 44.94 128.85 44.37
C129.00 43.82 129.07 43.05 129.07 42.06
C129.07 41.16 129.00 40.48 128.86 40.00
C128.72 39.51 128.51 39.13 128.24 38.88
C127.96 38.61 127.66 38.48 127.33 38.48
Z
M123.70 38.48
C123.30 38.48 122.95 38.65 122.67 39.00
C122.40 39.33 122.23 39.81 122.15 40.45
L122.14 40.57
L122.25 40.60
L122.82 40.76
L122.99 40.80
L123.00 40.64
C123.04 40.23 123.13 39.93 123.27 39.74
C123.39 39.57 123.54 39.48 123.71 39.48
C123.71 39.48 123.71 39.48 123.71 39.48
C123.71 39.48 123.71 39.48 123.71 39.48
C123.88 39.48 124.02 39.56 124.13 39.73
C124.26 39.90 124.33 40.14 124.33 40.45
C124.33 40.78 124.25 41.04 124.10 41.23
C123.95 41.41 123.76 41.50 123.53 41.50
L123.53 41.50
L123.44 41.49
L123.30 41.48
L123.29 41.62
L123.22 42.39
L123.20 42.62
L123.42 42.53
C123.56 42.47 123.68 42.45 123.77 42.45
C123.77 42.45 123.77 42.45 123.77 42.45
C123.77 42.45 123.77 42.45 123.77 42.45
C123.98 42.45 124.15 42.55 124.30 42.76
C124.46 42.99 124.54 43.30 124.54 43.68
C124.54 44.09 124.45 44.43 124.28 44.68
C124.11 44.91 123.93 45.03 123.72 45.03
C123.72 45.03 123.71 45.03 123.71 45.03
C123.71 45.03 123.71 45.03 123.71 45.03
C123.52 45.03 123.36 44.94 123.24 44.75
C123.10 44.53 123.00 44.20 122.95 43.76
L122.93 43.61
L122.78 43.64
L122.20 43.75
L122.08 43.78
L122.09 43.90
C122.13 44.54 122.30 45.05 122.59 45.44
C122.90 45.84 123.28 46.04 123.72 46.04
C124.20 46.04 124.61 45.81 124.94 45.36
C125.27 44.92 125.43 44.35 125.43 43.67
C125.43 43.35 125.39 43.05 125.31 42.79
C125.23 42.52 125.13 42.31 124.99 42.15
C124.90 42.04 124.80 41.95 124.68 41.88
L124.68 41.88
C124.82 41.74 124.93 41.58 125.02 41.39
C125.14 41.12 125.20 40.81 125.20 40.47
C125.20 39.90 125.06 39.44 124.78 39.06
C124.49 38.67 124.13 38.48 123.70 38.48
Z
" fill="white" fill-rule="nonzero" />
<path d="
M135.97 28.21
L135.97 31.42
L134.51 31.42
L135.97 28.21
Z
M136.08 26.81
L133.95 31.42
L133.95 32.22
L135.97 32.22
L135.97 33.93
L136.55 33.93
L136.55 32.22
L137.18 32.22
L137.18 31.42
L136.55 31.42
L136.55 26.81
Z
M139.33 26.78
C138.89 26.78 138.54 26.95 138.27 27.30
C138.00 27.64 137.85 28.15 137.81 28.84
L138.40 28.93
C138.40 28.47 138.48 28.12 138.65 27.87
C138.83 27.63 139.04 27.50 139.31 27.50
C139.56 27.50 139.77 27.62 139.94 27.84
C140.11 28.07 140.19 28.37 140.19 28.73
C140.19 29.05 140.11 29.38 139.94 29.75
C139.78 30.11 139.43 30.63 138.89 31.30
C138.43 31.87 138.12 32.37 137.94 32.79
C137.77 33.21 137.69 33.59 137.70 33.93
L140.79 33.93
L140.79 33.09
L138.49 33.09
C138.56 32.93 138.64 32.77 138.74 32.61
C138.84 32.45 139.06 32.16 139.40 31.72
C139.94 31.03 140.30 30.47 140.49 30.06
C140.68 29.64 140.78 29.20 140.78 28.75
C140.78 28.24 140.66 27.78 140.41 27.38
C140.17 26.98 139.81 26.78 139.33 26.78
Z
" fill="black" fill-rule="nonzero" />
<path d="
M135.83 40.77
L135.83 43.19
L134.73 43.19
L135.83 40.77
Z
M135.99 38.57
L135.95 38.65
L133.82 43.27
L133.81 43.30
L133.81 43.33
L133.81 44.13
L133.81 44.27
L135.83 44.27
L135.83 45.84
L135.83 45.98
L136.69 45.98
L136.69 45.84
L136.69 44.27
L137.32 44.27
L137.32 44.13
L137.32 43.33
L137.32 43.19
L136.69 43.19
L136.69 38.71
L136.69 38.57
Z
M139.45 38.54
L139.42 38.64
C139.32 38.94 139.16 39.24 138.93 39.56
C138.69 39.87 138.42 40.14 138.12 40.36
L138.06 40.40
L138.06 40.47
L138.06 41.32
L138.06 41.56
L138.27 41.44
C138.47 41.33 138.68 41.17 138.91 40.96
C139.02 40.86 139.12 40.77 139.21 40.67
L139.21 40.67
L139.21 45.84
L139.21 45.98
L140.07 45.98
L140.07 45.84
L140.07 38.68
L140.07 38.54
Z
" fill="white" fill-rule="nonzero" />
<path d="
M185.32 38.59
L185.28 38.68
C185.17 38.97 184.97 39.27 184.68 39.58
C184.39 39.89 184.06 40.15 183.68 40.37
L183.61 40.41
L183.61 40.49
L183.61 41.33
L183.61 41.55
L183.81 41.46
C184.05 41.35 184.31 41.20 184.59 40.99
C184.75 40.87 184.90 40.75 185.02 40.64
L185.02 40.64
L185.02 45.79
L185.02 45.93
L186.02 45.93
L186.02 45.79
L186.02 38.73
L186.02 38.59
Z
" fill="white" fill-rule="nonzero" />
<path d="
M185.02 193.29
C184.54 193.30 184.13 193.46 183.79 193.80
C183.45 194.13 183.24 194.61 183.14 195.24
L183.12 195.37
L183.25 195.40
L183.96 195.55
L184.11 195.59
L184.13 195.43
C184.18 195.03 184.28 194.74 184.45 194.56
C184.61 194.38 184.80 194.29 185.03 194.29
C185.03 194.29 185.03 194.29 185.03 194.29
C185.04 194.29 185.04 194.29 185.04 194.29
C185.26 194.29 185.44 194.37 185.60 194.54
C185.76 194.72 185.83 194.95 185.83 195.24
C185.83 195.56 185.74 195.81 185.55 196.00
C185.36 196.19 185.11 196.28 184.81 196.28
L184.81 196.28
L184.70 196.27
L184.56 196.26
L184.55 196.40
L184.47 197.16
L184.44 197.37
L184.65 197.31
C184.84 197.25 184.99 197.22 185.11 197.22
C185.11 197.22 185.11 197.22 185.11 197.22
C185.11 197.22 185.11 197.22 185.11 197.22
C185.38 197.22 185.61 197.32 185.80 197.54
C186.00 197.76 186.09 198.06 186.09 198.44
C186.09 198.84 185.99 199.16 185.77 199.41
C185.56 199.65 185.32 199.77 185.04 199.77
C185.04 199.77 185.04 199.77 185.04 199.77
C185.04 199.77 185.04 199.77 185.04 199.77
C184.78 199.77 184.58 199.67 184.42 199.48
C184.25 199.27 184.13 198.94 184.06 198.51
L184.04 198.37
L183.90 198.39
L183.19 198.50
L183.06 198.52
L183.07 198.65
C183.12 199.29 183.33 199.80 183.69 200.19
C184.06 200.57 184.52 200.77 185.05 200.77
C185.62 200.77 186.11 200.55 186.52 200.11
C186.93 199.67 187.13 199.11 187.13 198.42
C187.13 198.10 187.08 197.81 186.98 197.55
C186.88 197.28 186.75 197.07 186.58 196.91
C186.48 196.80 186.36 196.72 186.22 196.65
L186.22 196.65
C186.38 196.52 186.51 196.36 186.62 196.18
C186.77 195.91 186.85 195.61 186.85 195.26
C186.85 194.70 186.67 194.23 186.32 193.86
C185.96 193.48 185.53 193.30 185.02 193.29
Z
" fill="white" fill-rule="nonzero" />
<path d="
M196.25 172.09
L196.25 172.09
L196.25 172.09
C196.25 172.09 196.25 172.09 196.25 172.09
Z
M195.68 169.55
L195.66 169.67
L195.10 173.28
L195.07 173.42
L195.21 173.44
L195.88 173.55
L195.98 173.57
L196.03 173.47
C196.13 173.28 196.26 173.13 196.42 173.03
C196.59 172.92 196.76 172.87 196.95 172.87
C196.95 172.87 196.95 172.87 196.95 172.87
C196.95 172.87 196.95 172.87 196.95 172.87
C197.26 172.87 197.52 172.99 197.73 173.24
C197.94 173.49 198.05 173.84 198.05 174.31
C198.05 174.81 197.93 175.21 197.71 175.49
C197.50 175.76 197.25 175.90 196.96 175.90
C196.96 175.90 196.96 175.90 196.95 175.90
C196.95 175.90 196.95 175.90 196.95 175.90
C196.73 175.90 196.52 175.80 196.35 175.61
C196.17 175.42 196.05 175.11 196.00 174.69
L195.98 174.56
L195.84 174.57
L195.10 174.65
L194.96 174.66
L194.97 174.80
C195.02 175.45 195.23 175.96 195.60 176.33
C195.97 176.70 196.43 176.89 196.96 176.89
C197.61 176.89 198.13 176.63 198.52 176.10
C198.89 175.58 199.08 174.96 199.08 174.24
C199.08 173.51 198.89 172.93 198.51 172.49
C198.12 172.05 197.67 171.82 197.14 171.82
C196.83 171.82 196.53 171.91 196.25 172.09
L196.25 172.09
L196.48 170.66
L198.80 170.66
L198.80 170.52
L198.80 169.69
L198.80 169.55
Z
" fill="white" fill-rule="nonzero" />
</g>
<g  transform="translate(1.19,228.58)" >
<path d="
M109.47 2.72
C109.30 2.72 109.16 2.78 109.05 2.89
C108.93 3.01 108.88 3.15 108.88 3.31
C108.88 3.47 108.93 3.61 109.05 3.73
C109.17 3.84 109.31 3.90 109.47 3.90
C109.63 3.90 109.77 3.84 109.88 3.73
C110.00 3.61 110.06 3.47 110.06 3.31
C110.06 3.15 110.00 3.01 109.88 2.89
C109.77 2.78 109.63 2.72 109.47 2.72
Z
M114.44 7.81
L114.44 9.84
C113.96 10.23 113.57 10.42 113.28 10.42
C113.06 10.42 112.87 10.33 112.70 10.15
C112.53 9.96 112.45 9.73 112.45 9.45
C112.45 9.23 112.52 9.03 112.65 8.84
C112.78 8.66 113.00 8.48 113.31 8.31
C113.48 8.21 113.85 8.05 114.44 7.81
Z
M102.79 3.55
C103.72 3.55 104.48 3.86 105.07 4.49
C105.67 5.12 105.96 5.98 105.96 7.06
C105.96 8.15 105.67 9.00 105.07 9.63
C104.48 10.27 103.74 10.58 102.84 10.58
C102.50 10.58 102.09 10.53 101.60 10.42
L101.60 3.72
C102.04 3.60 102.44 3.55 102.79 3.55
Z
M99.35 3.11
L99.35 3.32
L99.64 3.32
C99.94 3.32 100.17 3.41 100.32 3.58
C100.43 3.70 100.48 4.01 100.48 4.50
L100.48 9.59
C100.48 10.04 100.44 10.33 100.35 10.45
C100.21 10.67 99.98 10.77 99.64 10.77
L99.35 10.77
L99.35 10.99
L102.87 10.99
C104.40 10.99 105.54 10.58 106.29 9.76
C106.96 9.02 107.29 8.10 107.29 7.01
C107.29 6.19 107.10 5.47 106.73 4.84
C106.35 4.22 105.86 3.77 105.25 3.51
C104.63 3.24 103.74 3.11 102.56 3.11
Z
M109.70 5.51
L108.09 6.16
L108.17 6.37
C108.33 6.31 108.46 6.28 108.57 6.28
C108.67 6.28 108.75 6.30 108.81 6.35
C108.86 6.40 108.91 6.49 108.93 6.61
C108.97 6.78 108.99 7.16 108.99 7.73
L108.99 9.79
C108.99 10.11 108.96 10.34 108.91 10.45
C108.86 10.57 108.79 10.65 108.70 10.70
C108.61 10.75 108.43 10.78 108.17 10.78
L108.17 10.99
L110.76 10.99
L110.76 10.78
C110.51 10.78 110.33 10.75 110.24 10.70
C110.14 10.64 110.07 10.56 110.02 10.45
C109.98 10.34 109.95 10.12 109.95 9.79
L109.95 5.51
Z
M113.63 5.51
C113.01 5.51 112.53 5.65 112.19 5.93
C111.85 6.20 111.68 6.51 111.68 6.84
C111.68 7.02 111.72 7.16 111.81 7.26
C111.91 7.36 112.02 7.41 112.17 7.41
C112.31 7.41 112.43 7.36 112.52 7.26
C112.62 7.17 112.66 7.03 112.66 6.85
L112.65 6.51
C112.65 6.34 112.72 6.19 112.87 6.06
C113.01 5.93 113.21 5.86 113.45 5.86
C113.77 5.86 114.02 5.96 114.19 6.16
C114.36 6.36 114.44 6.72 114.44 7.25
L114.44 7.46
C113.53 7.79 112.87 8.08 112.48 8.31
C112.08 8.54 111.81 8.79 111.65 9.05
C111.53 9.24 111.47 9.47 111.47 9.73
C111.47 10.14 111.59 10.47 111.83 10.72
C112.07 10.97 112.37 11.10 112.74 11.10
C112.98 11.10 113.20 11.05 113.41 10.95
C113.55 10.89 113.89 10.64 114.44 10.22
C114.44 10.54 114.50 10.76 114.61 10.90
C114.73 11.03 114.88 11.09 115.07 11.09
C115.46 11.09 115.88 10.80 116.31 10.22
L116.31 9.90
C116.08 10.13 115.92 10.27 115.84 10.32
C115.79 10.35 115.74 10.36 115.68 10.36
C115.62 10.36 115.57 10.34 115.52 10.30
C115.48 10.26 115.45 10.19 115.43 10.07
C115.41 9.96 115.40 9.65 115.40 9.14
L115.40 7.33
C115.40 6.82 115.36 6.48 115.29 6.31
C115.19 6.05 115.02 5.87 114.79 5.75
C114.49 5.59 114.10 5.51 113.63 5.51
Z
M117.82 9.86
C117.64 9.86 117.49 9.92 117.37 10.05
C117.24 10.17 117.18 10.32 117.18 10.51
C117.18 10.68 117.24 10.84 117.37 10.96
C117.49 11.09 117.64 11.15 117.82 11.15
C118.00 11.15 118.15 11.09 118.28 10.96
C118.41 10.84 118.47 10.68 118.47 10.51
C118.47 10.33 118.41 10.18 118.28 10.05
C118.16 9.92 118.01 9.86 117.82 9.86
Z
M123.49 3.11
L122.73 4.97
L122.90 5.04
C123.10 4.66 123.36 4.39 123.68 4.21
C123.87 4.11 124.18 4.05 124.62 4.05
L126.79 4.05
L124.43 11.15
L125.08 11.15
L127.71 3.33
L127.71 3.11
Z
" fill="black" fill-rule="nonzero" />
</g>
</g>
</svg>
