<?xml version="1.0" encoding="utf-8" standalone="no"?>
<!DOCTYPE svg PUBLIC "-//W3C//DTD SVG 1.0//EN" "http://www.w3.org/TR/SVG/DTD/svg11.dtd" >
<svg version="1.1" baseProfile="full"  width="319.13385" height="338.51422" viewBox="0 0 229.77638 243.73024" preserveAspectRatio="xMidYMid" xmlns="http://www.w3.org/2000/svg" >

<g lengthAdjust="spacingAndGlyphs" xml:space='preserve' >
<g  transform="translate(1.19,1.19)" >
<path d="
M0.0 0.0
L0.0 227.39
L227.39 227.39
L227.39 0.0
Z
" fill="none" fill-rule="nonzero" />
<line x1="6.54" y1="6.54" x2="6.54" y2="220.84" fill="none" stroke="black" stroke-width="0.87px" stroke-linecap="square" />
<line x1="18.45" y1="6.54" x2="18.45" y2="220.84" fill="none" stroke="black" stroke-width="0.25px" stroke-linecap="butt" />
<line x1="30.35" y1="6.54" x2="30.35" y2="220.84" fill="none" stroke="black" stroke-width="0.25px" stroke-linecap="butt" />
<line x1="42.26" y1="6.54" x2="42.26" y2="220.84" fill="none" stroke="black" stroke-width="0.25px" stroke-linecap="butt" />
<line x1="54.17" y1="6.54" x2="54.17" y2="220.84" fill="none" stroke="black" stroke-width="0.25px" stroke-linecap="butt" />
<line x1="66.07" y1="6.54" x2="66.07" y2="220.84" fill="none" stroke="black" stroke-width="0.25px" stroke-linecap="butt" />
<line x1="77.98" y1="6.54" x2="77.98" y2="220.84" fill="none" stroke="black" stroke-width="0.25px" stroke-linecap="butt" />
<line x1="89.88" y1="6.54" x2="89.88" y2="220.84" fill="none" stroke="black" stroke-width="0.25px" stroke-linecap="butt" />
<line x1="101.79" y1="6.54" x2="101.79" y2="220.84" fill="none" stroke="black" stroke-width="0.25px" stroke-linecap="butt" />
<line x1="113.69" y1="6.54" x2="113.69" y2="220.84" fill="none" stroke="black" stroke-width="0.25px" stroke-linecap="butt" />
<line x1="125.60" y1="6.54" x2="125.60" y2="220.84" fill="none" stroke="black" stroke-width="0.25px" stroke-linecap="butt" />
<line x1="137.50" y1="6.54" x2="137.50" y2="220.84" fill="none" stroke="black" stroke-width="0.25px" stroke-linecap="butt" />
<line x1="149.41" y1="6.54" x2="149.41" y2="220.84" fill="none" stroke="black" stroke-width="0.25px" stroke-linecap="butt" />
<line x1="161.31" y1="6.54" x2="161.31" y2="220.84" fill="none" stroke="black" stroke-width="0.25px" stroke-linecap="butt" />
<line x1="173.22" y1="6.54" x2="173.22" y2="220.84" fill="none" stroke="black" stroke-width="0.25px" stroke-linecap="butt" />
<line x1="185.13" y1="6.54" x2="185.13" y2="220.84" fill="none" stroke="black" stroke-width="0.25px" stroke-linecap="butt" />
<line x1="197.03" y1="6.54" x2="197.03" y2="220.84" fill="none" stroke="black" stroke-width="0.25px" stroke-linecap="butt" />
<line x1="208.94" y1="6.54" x2="208.94" y2="220.84" fill="none" stroke="black" stroke-width="0.25px" stroke-linecap="butt" />
<line x1="220.84" y1="6.54" x2="220.84" y2="220.84" fill="none" stroke="black" stroke-width="0.87px" stroke-linecap="square" />
<line x1="6.54" y1="6.54" x2="220.84" y2="6.54" fill="none" stroke="black" stroke-width="0.87px" stroke-linecap="square" />
<line x1="6.54" y1="18.45" x2="220.84" y2="18.45" fill="none" stroke="black" stroke-width="0.25px" stroke-linecap="butt" />
<line x1="6.54" y1="30.35" x2="220.84" y2="30.35" fill="none" stroke="black" stroke-width="0.25px" stroke-linecap="butt" />
<line x1="6.54" y1="42.26" x2="220.84" y2="42.26" fill="none" stroke="black" stroke-width="0.25px" stroke-linecap="butt" />
<line x1="6.54" y1="54.17" x2="220.84" y2="54.17" fill="none" stroke="black" stroke-width="0.25px" stroke-linecap="butt" />
<line x1="6.54" y1="66.07" x2="220.84" y2="66.07" fill="none" stroke="black" stroke-width="0.25px" stroke-linecap="butt" />
<line x1="6.54" y1="77.98" x2="220.84" y2="77.98" fill="none" stroke="black" stroke-width="0.25px" stroke-linecap="butt" />
<line x1="6.54" y1="89.88" x2="220.84" y2="89.88" fill="none" stroke="black" stroke-width="0.25px" stroke-linecap="butt" />
<line x1="6.54" y1="101.79" x2="220.84" y2="101.79" fill="none" stroke="black" stroke-width="0.25px" stroke-linecap="butt" />
<line x1="6.54" y1="113.69" x2="220.84" y2="113.69" fill="none" stroke="black" stroke-width="0.25px" stroke-linecap="butt" />
<line x1="6.54" y1="125.60" x2="220.84" y2="125.60" fill="none" stroke="black" stroke-width="0.25px" stroke-linecap="butt" />
<line x1="6.54" y1="137.50" x2="220.84" y2="137.50" fill="none" stroke="black" stroke-width="0.25px" stroke-linecap="butt" />
<line x1="6.54" y1="149.41" x2="220.84" y2="149.41" fill="none" stroke="black" stroke-width="0.25px" stroke-linecap="butt" />
<line x1="6.54" y1="161.31" x2="220.84" y2="161.31" fill="none" stroke="black" stroke-width="0.25px" stroke-linecap="butt" />
<line x1="6.54" y1="173.22" x2="220.84" y2="173.22" fill="none" stroke="black" stroke-width="0.25px" stroke-linecap="butt" />
<line x1="6.54" y1="185.13" x2="220.84" y2="185.13" fill="none" stroke="black" stroke-width="0.25px" stroke-linecap="butt" />
<line x1="6.54" y1="197.03" x2="220.84" y2="197.03" fill="none" stroke="black" stroke-width="0.25px" stroke-linecap="butt" />
<line x1="6.54" y1="208.94" x2="220.84" y2="208.94" fill="none" stroke="black" stroke-width="0.25px" stroke-linecap="butt" />
<line x1="6.54" y1="220.84" x2="220.84" y2="220.84" fill="none" stroke="black" stroke-width="0.87px" stroke-linecap="square" />
<circle cx="18.45" cy="42.26" r="5.89" fill="white"/>
<circle cx="18.45" cy="42.26" r="5.89" fill="none" stroke="black" stroke-width="0.25px"/>
<circle cx="30.35" cy="30.35" r="6.01" fill="black"/>
<circle cx="30.35" cy="54.17" r="5.89" fill="white"/>
<circle cx="30.35" cy="54.17" r="5.89" fill="none" stroke="black" stroke-width="0.25px"/>
<circle cx="30.35" cy="66.07" r="6.01" fill="black"/>
<circle cx="30.35" cy="77.98" r="6.01" fill="black"/>
<circle cx="30.35" cy="125.60" r="5.89" fill="white"/>
<circle cx="30.35" cy="125.60" r="5.89" fill="none" stroke="black" stroke-width="0.25px"/>
<circle cx="30.35" cy="161.31" r="6.01" fill="black"/>
<circle cx="42.26" cy="30.35" r="6.01" fill="black"/>
<circle cx="42.26" cy="42.26" r="5.89" fill="white"/>
<circle cx="42.26" cy="42.26" r="5.89" fill="none" stroke="black" stroke-width="0.25px"/>
<circle cx="42.26" cy="66.07" r="5.89" fill="white"/>
<circle cx="42.26" cy="66.07" r="5.89" fill="none" stroke="black" stroke-width="0.25px"/>
<circle cx="42.26" cy="77.98" r="6.01" fill="black"/>
<circle cx="42.26" cy="101.79" r="6.01" fill="black"/>
<circle cx="42.26" cy="113.69" r="1.27" fill="black"/>
<circle cx="42.26" cy="185.13" r="5.89" fill="white"/>
<circle cx="42.26" cy="185.13" r="5.89" fill="none" stroke="black" stroke-width="0.25px"/>
<circle cx="54.17" cy="66.07" r="5.89" fill="white"/>
<circle cx="54.17" cy="66.07" r="5.89" fill="none" stroke="black" stroke-width="0.25px"/>
<circle cx="54.17" cy="77.98" r="6.01" fill="black"/>
<circle cx="54.17" cy="89.88" r="5.89" fill="white"/>
<circle cx="54.17" cy="89.88" r="5.89" fill="none" stroke="black" stroke-width="0.25px"/>
<circle cx="54.17" cy="101.79" r="6.01" fill="black"/>
<circle cx="54.17" cy="125.60" r="5.89" fill="white"/>
<circle cx="54.17" cy="125.60" r="5.89" fill="none" stroke="black" stroke-width="0.25px"/>
<circle cx="66.07" cy="30.35" r="6.01" fill="black"/>
<circle cx="66.07" cy="77.98" r="5.89" fill="white"/>
<circle cx="66.07" cy="77.98" r="5.89" fill="none" stroke="black" stroke-width="0.25px"/>
<circle cx="66.07" cy="89.88" r="6.01" fill="black"/>
<circle cx="66.07" cy="101.79" r="5.89" fill="white"/>
<circle cx="66.07" cy="101.79" r="5.89" fill="none" stroke="black" stroke-width="0.25px"/>
<circle cx="66.07" cy="185.13" r="5.89" fill="white"/>
<circle cx="66.07" cy="185.13" r="5.89" fill="none" stroke="black" stroke-width="0.25px"/>
<circle cx="77.98" cy="42.26" r="6.01" fill="black"/>
<circle cx="77.98" cy="66.07" r="5.89" fill="white"/>
<circle cx="77.98" cy="66.07" r="5.89" fill="none" stroke="black" stroke-width="0.25px"/>
<circle cx="77.98" cy="101.79" r="5.89" fill="white"/>
<circle cx="77.98" cy="101.79" r="5.89" fill="none" stroke="black" stroke-width="0.25px"/>
<circle cx="89.88" cy="30.35" r="5.89" fill="white"/>
<circle cx="89.88" cy="30.35" r="5.89" fill="none" stroke="black" stroke-width="0.25px"/>
<circle cx="89.88" cy="42.26" r="6.01" fill="black"/>
<circle cx="113.69" cy="42.26" r="1.27" fill="black"/>
<circle cx="113.69" cy="113.69" r="1.27" fill="black"/>
<circle cx="113.69" cy="185.13" r="1.27" fill="black"/>
<circle cx="113.69" cy="197.03" r="5.89" fill="white"/>
<circle cx="113.69" cy="197.03" r="5.89" fill="none" stroke="black" stroke-width="0.25px"/>
<circle cx="185.13" cy="42.26" r="6.01" fill="black"/>
<circle cx="185.13" cy="113.69" r="1.27" fill="black"/>
<circle cx="185.13" cy="185.13" r="1.27" fill="black"/>
<circle cx="185.13" cy="197.03" r="6.01" fill="black"/>
<circle cx="197.03" cy="173.22" r="6.01" fill="black"/>
<path d="
M20.24 39.34
C20.45 39.34 20.63 39.45 20.78 39.66
C20.93 39.87 21.01 40.15 21.01 40.48
C21.01 40.80 20.93 41.07 20.78 41.27
C20.64 41.47 20.46 41.58 20.25 41.58
C20.03 41.58 19.85 41.47 19.70 41.27
C19.56 41.06 19.48 40.78 19.48 40.43
C19.48 40.12 19.56 39.86 19.71 39.65
C19.85 39.45 20.03 39.34 20.24 39.34
Z
M20.23 42.29
C20.50 42.29 20.72 42.42 20.91 42.69
C21.10 42.96 21.20 43.31 21.20 43.75
C21.20 44.18 21.10 44.53 20.92 44.79
C20.74 45.05 20.51 45.18 20.25 45.18
C19.99 45.18 19.76 45.04 19.57 44.78
C19.39 44.51 19.29 44.16 19.29 43.72
C19.29 43.30 19.38 42.96 19.57 42.69
C19.75 42.42 19.97 42.29 20.23 42.29
Z
M16.87 38.62
C16.77 38.93 16.60 39.25 16.36 39.58
C16.11 39.91 15.83 40.18 15.52 40.41
L15.52 41.26
C15.70 41.15 15.91 41.00 16.13 40.80
C16.35 40.59 16.53 40.40 16.66 40.20
L16.66 45.77
L17.24 45.77
L17.24 38.62
Z
M20.24 38.62
C19.85 38.62 19.53 38.79 19.27 39.13
C19.02 39.47 18.89 39.91 18.89 40.45
C18.89 40.81 18.95 41.11 19.07 41.36
C19.19 41.60 19.36 41.78 19.59 41.91
C19.31 42.02 19.10 42.23 18.94 42.54
C18.78 42.85 18.71 43.24 18.71 43.72
C18.71 44.37 18.85 44.90 19.15 45.30
C19.44 45.70 19.81 45.90 20.25 45.90
C20.68 45.90 21.05 45.70 21.34 45.30
C21.64 44.90 21.78 44.38 21.78 43.74
C21.78 43.28 21.71 42.90 21.56 42.59
C21.40 42.28 21.19 42.05 20.90 41.91
C21.14 41.78 21.31 41.59 21.42 41.36
C21.54 41.12 21.59 40.83 21.59 40.48
C21.59 39.94 21.46 39.49 21.21 39.14
C20.95 38.80 20.63 38.62 20.24 38.62
Z
" fill="black" fill-rule="nonzero" />
<path d="
M28.67 26.57
L28.64 26.67
C28.54 26.97 28.38 27.27 28.15 27.59
C27.91 27.90 27.65 28.17 27.34 28.39
L27.28 28.43
L27.28 28.50
L27.28 29.35
L27.28 29.59
L27.49 29.47
C27.69 29.36 27.90 29.20 28.13 28.99
C28.24 28.90 28.34 28.80 28.43 28.70
L28.43 28.70
L28.43 33.87
L28.43 34.01
L29.29 34.01
L29.29 33.87
L29.29 26.72
L29.29 26.57
Z
M32.09 26.57
C31.68 26.57 31.34 26.75 31.06 27.09
C30.79 27.42 30.61 27.91 30.54 28.54
L30.52 28.67
L30.64 28.70
L31.21 28.85
L31.37 28.90
L31.39 28.73
C31.43 28.32 31.52 28.03 31.65 27.83
C31.77 27.66 31.92 27.58 32.09 27.58
C32.09 27.58 32.09 27.58 32.10 27.58
C32.10 27.58 32.10 27.58 32.10 27.58
C32.26 27.58 32.40 27.66 32.52 27.82
C32.65 28.00 32.72 28.24 32.72 28.54
C32.72 28.87 32.64 29.13 32.48 29.32
C32.34 29.50 32.15 29.59 31.91 29.60
L31.91 29.60
L31.83 29.59
L31.69 29.57
L31.67 29.72
L31.61 30.48
L31.59 30.71
L31.59 30.71
L31.80 30.63
C31.95 30.57 32.06 30.54 32.15 30.54
C32.15 30.54 32.15 30.54 32.15 30.54
C32.15 30.54 32.16 30.54 32.16 30.54
C32.36 30.54 32.54 30.65 32.69 30.86
C32.85 31.09 32.93 31.39 32.93 31.78
C32.93 32.19 32.84 32.52 32.66 32.77
C32.50 33.01 32.31 33.13 32.10 33.13
C32.10 33.13 32.10 33.13 32.10 33.13
C32.10 33.13 32.10 33.13 32.10 33.13
C31.91 33.13 31.75 33.03 31.63 32.84
C31.49 32.63 31.39 32.30 31.33 31.85
L31.31 31.70
L31.17 31.73
L30.59 31.85
L30.47 31.87
L30.48 32.00
C30.52 32.64 30.69 33.15 30.98 33.53
C31.29 33.93 31.66 34.13 32.11 34.13
C32.58 34.13 32.99 33.91 33.33 33.45
C33.66 33.01 33.82 32.45 33.82 31.76
C33.82 31.44 33.78 31.15 33.70 30.89
C33.62 30.62 33.51 30.40 33.38 30.24
C33.29 30.13 33.19 30.04 33.07 29.97
L33.07 29.97
C33.21 29.84 33.32 29.67 33.41 29.48
C33.53 29.21 33.59 28.91 33.59 28.56
C33.59 28.00 33.45 27.53 33.16 27.15
C32.87 26.77 32.51 26.57 32.09 26.57
Z
" fill="white" fill-rule="nonzero" />
<path d="
M32.45 52.02
L32.45 55.23
L30.99 55.23
L32.45 52.02
Z
M28.77 50.59
C28.67 50.90 28.50 51.22 28.26 51.55
C28.02 51.87 27.74 52.15 27.42 52.38
L27.42 53.22
C27.61 53.12 27.81 52.97 28.04 52.76
C28.26 52.56 28.44 52.36 28.57 52.17
L28.57 57.74
L29.15 57.74
L29.15 50.59
Z
M32.56 50.62
L30.43 55.23
L30.43 56.04
L32.45 56.04
L32.45 57.74
L33.03 57.74
L33.03 56.04
L33.66 56.04
L33.66 55.23
L33.03 55.23
L33.03 50.62
Z
" fill="black" fill-rule="nonzero" />
<path d="
M28.67 62.35
L28.64 62.45
C28.54 62.75 28.38 63.05 28.15 63.37
C27.91 63.68 27.65 63.95 27.34 64.17
L27.28 64.21
L27.28 64.28
L27.28 65.13
L27.28 65.37
L27.49 65.25
C27.69 65.14 27.90 64.98 28.13 64.77
C28.24 64.68 28.34 64.58 28.43 64.48
L28.43 64.48
L28.43 69.65
L28.43 69.79
L29.29 69.79
L29.29 69.65
L29.29 62.49
L29.29 62.35
Z
M32.30 62.35
L32.27 62.45
C32.17 62.75 32.01 63.05 31.78 63.37
C31.54 63.68 31.28 63.95 30.97 64.17
L30.91 64.21
L30.91 64.28
L30.91 65.13
L30.91 65.37
L31.12 65.25
C31.32 65.14 31.53 64.98 31.76 64.77
C31.87 64.68 31.97 64.58 32.06 64.48
L32.06 64.48
L32.06 69.65
L32.06 69.79
L32.92 69.79
L32.92 69.65
L32.92 62.49
L32.92 62.35
Z
" fill="white" fill-rule="nonzero" />
<path d="
M28.67 74.26
L28.64 74.36
C28.54 74.65 28.38 74.96 28.15 75.27
C27.91 75.59 27.65 75.85 27.34 76.07
L27.28 76.12
L27.28 76.19
L27.28 77.03
L27.28 77.27
L27.49 77.16
C27.69 77.05 27.90 76.89 28.13 76.68
C28.24 76.58 28.34 76.48 28.43 76.39
L28.43 76.39
L28.43 81.55
L28.43 81.69
L29.29 81.69
L29.29 81.55
L29.29 74.40
L29.29 74.26
Z
M30.51 74.38
L30.51 74.52
L30.51 75.36
L30.51 75.50
L32.70 75.50
C32.45 75.97 32.21 76.52 31.99 77.15
C31.74 77.88 31.54 78.64 31.39 79.44
C31.25 80.24 31.17 80.95 31.16 81.55
L31.16 81.69
L31.90 81.69
L32.03 81.69
L32.04 81.56
C32.09 80.42 32.29 79.26 32.62 78.10
C32.96 76.94 33.35 76.00 33.80 75.28
L33.82 75.24
L33.82 75.20
L33.82 74.52
L33.82 74.38
Z
" fill="white" fill-rule="nonzero" />
<path d="
M32.18 125.27
C32.43 125.27 32.65 125.40 32.82 125.68
C33.00 125.96 33.09 126.35 33.09 126.86
C33.09 127.37 33.00 127.78 32.82 128.07
C32.64 128.37 32.44 128.52 32.22 128.52
C31.96 128.52 31.73 128.36 31.54 128.05
C31.35 127.73 31.25 127.32 31.25 126.81
C31.25 126.33 31.34 125.96 31.53 125.68
C31.71 125.40 31.93 125.27 32.18 125.27
Z
M28.77 121.96
C28.67 122.27 28.50 122.59 28.26 122.92
C28.02 123.25 27.74 123.52 27.42 123.75
L27.42 124.59
C27.61 124.49 27.81 124.34 28.04 124.14
C28.26 123.93 28.44 123.73 28.57 123.54
L28.57 129.11
L29.15 129.11
L29.15 121.96
Z
M32.26 121.96
C31.77 121.96 31.37 122.25 31.06 122.84
C30.74 123.42 30.59 124.40 30.59 125.78
C30.59 127.02 30.74 127.91 31.05 128.44
C31.35 128.97 31.74 129.23 32.21 129.23
C32.47 129.23 32.71 129.14 32.93 128.96
C33.15 128.77 33.33 128.49 33.47 128.10
C33.60 127.71 33.67 127.28 33.67 126.81
C33.67 126.10 33.54 125.54 33.26 125.12
C32.98 124.70 32.66 124.49 32.29 124.49
C32.07 124.49 31.86 124.57 31.66 124.73
C31.46 124.89 31.29 125.13 31.16 125.44
C31.16 124.57 31.25 123.91 31.42 123.46
C31.63 122.94 31.89 122.68 32.23 122.68
C32.44 122.68 32.63 122.79 32.78 123.02
C32.89 123.18 32.97 123.44 33.02 123.80
L33.59 123.73
C33.54 123.16 33.39 122.72 33.15 122.42
C32.91 122.11 32.62 121.96 32.26 121.96
Z
" fill="black" fill-rule="nonzero" />
<path d="
M30.33 158.58
C30.33 158.58 30.33 158.58 30.33 158.58
C30.34 158.58 30.34 158.58 30.34 158.58
C30.58 158.58 30.80 158.70 31.00 158.96
C31.20 159.22 31.30 159.58 31.30 160.05
C31.30 160.53 31.20 160.89 31.01 161.14
C30.82 161.38 30.59 161.50 30.32 161.50
C30.32 161.50 30.32 161.50 30.32 161.50
C30.32 161.50 30.32 161.50 30.32 161.50
C30.05 161.50 29.81 161.38 29.61 161.14
C29.41 160.89 29.31 160.55 29.31 160.13
C29.31 159.65 29.41 159.27 29.63 158.99
C29.84 158.71 30.08 158.58 30.33 158.58
Z
M30.25 157.58
C29.70 157.58 29.24 157.81 28.86 158.27
C28.48 158.72 28.29 159.33 28.29 160.10
C28.29 160.85 28.47 161.44 28.84 161.88
C29.21 162.32 29.65 162.54 30.16 162.54
C30.45 162.54 30.73 162.45 31.00 162.27
C31.14 162.18 31.26 162.07 31.37 161.95
L31.37 161.95
C31.35 162.36 31.29 162.73 31.18 163.05
C31.06 163.44 30.91 163.70 30.74 163.85
C30.57 163.99 30.38 164.05 30.18 164.05
C30.18 164.05 30.18 164.05 30.18 164.05
C30.18 164.05 30.18 164.05 30.18 164.05
C29.96 164.05 29.78 163.98 29.65 163.83
C29.51 163.66 29.41 163.41 29.36 163.06
L29.34 162.93
L29.21 162.94
L28.52 163.02
L28.38 163.03
L28.40 163.17
C28.46 163.77 28.65 164.23 28.97 164.56
C29.29 164.88 29.69 165.05 30.17 165.05
C30.59 165.05 30.97 164.92 31.30 164.65
C31.64 164.38 31.90 163.97 32.09 163.41
C32.28 162.86 32.37 162.10 32.37 161.12
C32.37 160.23 32.28 159.55 32.11 159.07
C31.93 158.59 31.67 158.22 31.34 157.96
C31.01 157.71 30.64 157.58 30.25 157.58
Z
" fill="white" fill-rule="nonzero" />
<path d="
M43.47 29.24
L43.47 29.24
L43.47 29.24
C43.47 29.24 43.47 29.24 43.47 29.24
Z
M40.57 26.58
L40.54 26.67
C40.45 26.97 40.29 27.28 40.05 27.59
C39.82 27.91 39.55 28.17 39.25 28.39
L39.19 28.43
L39.19 28.51
L39.19 29.35
L39.19 29.59
L39.19 29.59
L39.40 29.47
C39.59 29.37 39.81 29.21 40.04 29.00
C40.15 28.90 40.25 28.80 40.33 28.70
L40.33 28.70
L40.33 33.87
L40.33 34.01
L41.19 34.01
L41.19 33.87
L41.19 26.72
L41.19 26.58
Z
M42.95 26.70
L42.94 26.83
L42.48 30.48
L42.46 30.62
L42.59 30.64
L43.13 30.75
L43.25 30.77
L43.29 30.66
C43.37 30.47 43.48 30.32 43.61 30.21
C43.73 30.11 43.87 30.06 44.01 30.06
C44.01 30.06 44.01 30.06 44.01 30.06
C44.01 30.06 44.01 30.06 44.01 30.06
C44.25 30.06 44.45 30.18 44.61 30.42
C44.78 30.68 44.87 31.04 44.87 31.52
C44.87 32.04 44.78 32.44 44.60 32.73
C44.43 33.00 44.24 33.13 44.02 33.13
C44.01 33.13 44.01 33.13 44.01 33.13
C44.01 33.13 44.01 33.13 44.01 33.13
C43.84 33.13 43.69 33.04 43.55 32.85
C43.40 32.65 43.31 32.34 43.26 31.91
L43.25 31.77
L43.10 31.79
L42.50 31.86
L42.37 31.88
L42.38 32.01
C42.42 32.66 42.59 33.18 42.89 33.55
C43.19 33.94 43.57 34.13 44.02 34.13
C44.56 34.13 44.99 33.86 45.31 33.32
C45.61 32.80 45.76 32.18 45.76 31.45
C45.76 30.72 45.61 30.13 45.30 29.69
C44.98 29.23 44.60 29.01 44.16 29.01
C43.92 29.01 43.69 29.08 43.47 29.24
L43.47 29.24
L43.66 27.82
L45.54 27.82
L45.54 27.68
L45.54 26.84
L45.54 26.70
Z
" fill="white" fill-rule="nonzero" />
<path d="
M42.27 38.73
C41.73 38.73 41.30 38.90 40.97 39.24
C40.64 39.58 40.44 40.09 40.39 40.76
L41.12 40.85
C41.12 40.40 41.23 40.05 41.44 39.81
C41.65 39.56 41.92 39.44 42.25 39.44
C42.56 39.44 42.82 39.56 43.03 39.78
C43.23 40.01 43.34 40.30 43.34 40.66
C43.34 40.97 43.24 41.30 43.03 41.66
C42.83 42.02 42.39 42.53 41.73 43.19
C41.17 43.76 40.78 44.25 40.56 44.66
C40.35 45.08 40.25 45.46 40.26 45.79
L44.07 45.79
L44.07 44.96
L41.24 44.96
C41.32 44.80 41.42 44.65 41.54 44.49
C41.67 44.33 41.94 44.04 42.36 43.61
C43.02 42.92 43.47 42.38 43.71 41.96
C43.95 41.55 44.06 41.12 44.06 40.68
C44.06 40.17 43.91 39.72 43.61 39.32
C43.31 38.93 42.86 38.73 42.27 38.73
Z
" fill="black" fill-rule="nonzero" />
<path d="
M40.68 62.49
C40.58 62.81 40.41 63.12 40.17 63.45
C39.92 63.78 39.65 64.06 39.33 64.28
L39.33 65.13
C39.52 65.02 39.72 64.87 39.94 64.67
C40.17 64.47 40.34 64.27 40.48 64.07
L40.48 69.65
L41.05 69.65
L41.05 62.49
Z
M44.09 62.49
C43.65 62.49 43.30 62.67 43.03 63.01
C42.76 63.36 42.60 63.87 42.56 64.55
L43.15 64.65
C43.15 64.19 43.24 63.83 43.41 63.59
C43.58 63.34 43.80 63.22 44.07 63.22
C44.32 63.22 44.52 63.33 44.69 63.56
C44.86 63.79 44.95 64.09 44.95 64.45
C44.95 64.76 44.87 65.10 44.70 65.47
C44.53 65.83 44.18 66.35 43.65 67.01
C43.19 67.59 42.87 68.08 42.70 68.50
C42.53 68.93 42.45 69.31 42.45 69.65
L45.54 69.65
L45.54 68.81
L43.25 68.81
C43.31 68.65 43.39 68.49 43.49 68.33
C43.59 68.17 43.81 67.87 44.16 67.44
C44.69 66.74 45.06 66.19 45.25 65.77
C45.44 65.36 45.54 64.92 45.54 64.47
C45.54 63.96 45.41 63.50 45.17 63.10
C44.92 62.70 44.56 62.49 44.09 62.49
Z
" fill="black" fill-rule="nonzero" />
<path d="
M44.06 75.21
C44.06 75.21 44.06 75.21 44.06 75.21
C44.06 75.21 44.06 75.21 44.06 75.21
C44.25 75.21 44.41 75.33 44.56 75.58
C44.73 75.84 44.82 76.22 44.82 76.70
C44.82 77.19 44.73 77.56 44.57 77.81
C44.43 78.05 44.25 78.16 44.05 78.16
C44.05 78.16 44.05 78.16 44.05 78.16
C44.05 78.16 44.05 78.16 44.04 78.16
C43.84 78.16 43.66 78.04 43.50 77.81
C43.34 77.56 43.25 77.21 43.25 76.77
C43.25 76.28 43.34 75.89 43.52 75.60
C43.68 75.34 43.86 75.21 44.06 75.21
Z
M40.57 74.20
L40.54 74.30
C40.45 74.59 40.29 74.90 40.05 75.21
C39.82 75.53 39.55 75.79 39.25 76.01
L39.19 76.05
L39.19 76.13
L39.19 76.97
L39.19 77.21
L39.40 77.10
C39.59 76.99 39.81 76.83 40.04 76.62
C40.15 76.52 40.25 76.42 40.33 76.32
L40.33 76.32
L40.33 81.49
L40.33 81.63
L41.19 81.63
L41.19 81.49
L41.19 74.34
L41.19 74.20
Z
M43.99 74.20
C43.53 74.20 43.15 74.43 42.83 74.90
C42.53 75.36 42.38 75.97 42.38 76.74
C42.38 77.50 42.52 78.09 42.82 78.53
C43.12 78.99 43.49 79.22 43.92 79.22
C44.16 79.22 44.40 79.12 44.63 78.93
C44.72 78.86 44.80 78.78 44.87 78.68
L44.87 78.68
C44.85 79.08 44.80 79.43 44.72 79.74
C44.62 80.13 44.49 80.40 44.36 80.55
C44.23 80.68 44.09 80.75 43.94 80.75
C43.94 80.75 43.94 80.75 43.93 80.75
C43.93 80.75 43.93 80.75 43.93 80.75
C43.77 80.75 43.63 80.68 43.53 80.53
C43.42 80.36 43.34 80.10 43.30 79.75
L43.28 79.61
L43.14 79.63
L42.59 79.70
L42.45 79.72
L42.46 79.86
C42.51 80.46 42.67 80.92 42.92 81.25
C43.19 81.58 43.52 81.75 43.92 81.75
C44.28 81.75 44.59 81.62 44.87 81.34
C45.14 81.07 45.36 80.66 45.51 80.09
C45.66 79.54 45.74 78.77 45.74 77.77
C45.74 76.88 45.67 76.20 45.52 75.72
C45.38 75.23 45.17 74.85 44.90 74.60
C44.62 74.33 44.32 74.20 43.99 74.20
Z
" fill="white" fill-rule="nonzero" />
<path d="
M43.47 100.67
L43.47 100.67
L43.47 100.67
C43.47 100.67 43.47 100.67 43.47 100.67
Z
M40.46 98.01
C39.97 98.01 39.58 98.20 39.29 98.58
C39.00 98.95 38.83 99.49 38.79 100.20
L38.78 100.33
L38.91 100.35
L39.50 100.44
L39.67 100.47
L39.67 100.30
C39.66 99.87 39.74 99.55 39.90 99.32
C40.04 99.12 40.22 99.02 40.43 99.02
C40.43 99.02 40.44 99.02 40.44 99.02
C40.44 99.02 40.44 99.02 40.44 99.02
C40.64 99.02 40.81 99.11 40.95 99.30
C41.10 99.50 41.18 99.77 41.18 100.10
C41.18 100.40 41.10 100.72 40.94 101.06
C40.78 101.42 40.44 101.92 39.91 102.58
C39.44 103.16 39.12 103.67 38.94 104.11
C38.76 104.55 38.67 104.95 38.68 105.31
L38.69 105.44
L42.06 105.44
L42.06 105.30
L42.06 104.46
L42.06 104.32
L39.84 104.32
C39.88 104.23 39.93 104.15 39.98 104.06
C40.08 103.91 40.30 103.61 40.64 103.18
C41.18 102.48 41.55 101.91 41.75 101.49
C41.95 101.05 42.05 100.60 42.05 100.12
C42.05 99.58 41.92 99.10 41.66 98.68
C41.39 98.23 40.99 98.01 40.46 98.01
Z
M42.95 98.14
L42.94 98.26
L42.48 101.92
L42.46 102.05
L42.59 102.07
L43.13 102.18
L43.25 102.20
L43.29 102.10
C43.37 101.90 43.48 101.75 43.61 101.65
C43.73 101.54 43.87 101.49 44.01 101.49
C44.01 101.49 44.01 101.49 44.01 101.49
C44.01 101.49 44.01 101.49 44.01 101.49
C44.25 101.49 44.45 101.61 44.61 101.85
C44.78 102.11 44.87 102.48 44.87 102.96
C44.87 103.47 44.78 103.87 44.60 104.16
C44.43 104.43 44.24 104.56 44.02 104.56
C44.01 104.56 44.01 104.56 44.01 104.56
C44.01 104.56 44.01 104.56 44.01 104.56
C43.84 104.56 43.69 104.47 43.55 104.29
C43.40 104.09 43.31 103.77 43.26 103.34
L43.25 103.20
L43.10 103.22
L42.50 103.30
L42.37 103.31
L42.38 103.45
C42.42 104.10 42.59 104.61 42.89 104.98
C43.19 105.37 43.57 105.56 44.02 105.57
C44.56 105.56 44.99 105.29 45.31 104.75
C45.61 104.23 45.76 103.61 45.76 102.89
C45.76 102.15 45.61 101.56 45.30 101.12
C44.98 100.67 44.60 100.44 44.16 100.44
C43.92 100.44 43.69 100.52 43.47 100.67
L43.47 100.67
L43.66 99.25
L45.54 99.25
L45.54 99.11
L45.54 98.28
L45.54 98.14
Z
" fill="white" fill-rule="nonzero" />
<path d="
M42.61 182.99
L42.61 186.17
L40.81 186.17
L42.61 182.99
Z
M42.74 181.61
L40.11 186.17
L40.11 186.96
L42.61 186.96
L42.61 188.64
L43.32 188.64
L43.32 186.96
L44.10 186.96
L44.10 186.17
L43.32 186.17
L43.32 181.61
Z
" fill="black" fill-rule="nonzero" />
<path d="
M55.93 63.16
C56.21 63.16 56.44 63.35 56.62 63.75
C56.79 64.14 56.88 64.91 56.88 66.07
C56.88 67.22 56.79 67.99 56.62 68.39
C56.44 68.79 56.22 68.99 55.96 68.99
C55.68 68.99 55.46 68.79 55.28 68.40
C55.10 68.00 55.01 67.23 55.01 66.07
C55.01 64.93 55.10 64.15 55.27 63.76
C55.45 63.36 55.67 63.16 55.93 63.16
Z
M52.36 62.43
C51.92 62.43 51.57 62.61 51.30 62.95
C51.03 63.30 50.88 63.81 50.84 64.49
L51.43 64.59
C51.43 64.13 51.51 63.77 51.69 63.53
C51.86 63.28 52.08 63.16 52.34 63.16
C52.59 63.16 52.80 63.27 52.97 63.50
C53.14 63.73 53.22 64.02 53.22 64.39
C53.22 64.70 53.14 65.04 52.98 65.40
C52.81 65.77 52.46 66.29 51.92 66.95
C51.46 67.53 51.15 68.02 50.98 68.44
C50.80 68.86 50.72 69.25 50.73 69.59
L53.82 69.59
L53.82 68.75
L51.53 68.75
C51.59 68.59 51.67 68.43 51.77 68.27
C51.87 68.11 52.09 67.81 52.43 67.38
C52.97 66.68 53.33 66.13 53.52 65.71
C53.72 65.29 53.81 64.86 53.81 64.41
C53.81 63.89 53.69 63.44 53.44 63.04
C53.20 62.63 52.84 62.43 52.36 62.43
Z
M55.95 62.43
C55.45 62.43 55.07 62.74 54.81 63.36
C54.55 63.97 54.43 64.88 54.43 66.07
C54.43 67.41 54.57 68.35 54.85 68.89
C55.13 69.43 55.50 69.71 55.95 69.71
C56.45 69.71 56.83 69.40 57.09 68.78
C57.34 68.16 57.47 67.26 57.47 66.07
C57.47 64.75 57.32 63.78 57.01 63.18
C56.75 62.68 56.40 62.43 55.95 62.43
Z
" fill="black" fill-rule="nonzero" />
<path d="
M56.11 74.20
L56.08 74.29
C55.98 74.59 55.82 74.90 55.59 75.21
C55.35 75.53 55.09 75.79 54.78 76.01
L54.72 76.05
L54.72 76.13
L54.72 76.97
L54.72 77.21
L54.93 77.09
C55.13 76.99 55.34 76.83 55.57 76.62
C55.68 76.52 55.78 76.42 55.87 76.32
L55.87 76.32
L55.87 81.49
L55.87 81.63
L56.73 81.63
L56.73 81.49
L56.73 74.34
L56.73 74.20
Z
M52.27 74.20
C51.86 74.20 51.52 74.37 51.24 74.71
C50.97 75.05 50.79 75.53 50.72 76.17
L50.70 76.29
L50.82 76.32
L51.39 76.48
L51.55 76.52
L51.57 76.35
C51.61 75.95 51.70 75.65 51.83 75.46
C51.96 75.28 52.10 75.20 52.27 75.20
C52.27 75.20 52.28 75.20 52.28 75.20
C52.28 75.20 52.28 75.20 52.28 75.20
C52.44 75.20 52.58 75.28 52.70 75.44
C52.83 75.62 52.90 75.86 52.90 76.16
C52.90 76.49 52.82 76.75 52.66 76.94
C52.52 77.13 52.33 77.22 52.09 77.22
L52.09 77.22
L52.01 77.21
L51.87 77.19
L51.86 77.34
L51.79 78.10
L51.77 78.33
L51.98 78.25
C52.13 78.19 52.24 78.16 52.33 78.16
C52.33 78.16 52.33 78.16 52.33 78.16
C52.34 78.16 52.34 78.16 52.34 78.16
C52.54 78.16 52.72 78.27 52.87 78.48
C53.03 78.71 53.11 79.01 53.11 79.40
C53.11 79.81 53.02 80.14 52.84 80.40
C52.68 80.63 52.49 80.75 52.28 80.75
C52.28 80.75 52.28 80.75 52.28 80.75
C52.28 80.75 52.28 80.75 52.28 80.75
C52.09 80.75 51.93 80.65 51.81 80.46
C51.67 80.25 51.57 79.92 51.52 79.47
L51.50 79.32
L51.35 79.35
L50.77 79.47
L50.65 79.49
L50.66 79.62
C50.70 80.26 50.87 80.77 51.16 81.16
C51.47 81.56 51.84 81.76 52.29 81.76
C52.76 81.76 53.17 81.53 53.51 81.08
C53.84 80.63 54.00 80.07 54.00 79.39
C54.00 79.06 53.96 78.77 53.88 78.51
C53.80 78.24 53.69 78.03 53.56 77.86
C53.47 77.75 53.37 77.67 53.25 77.60
L53.25 77.60
C53.39 77.46 53.50 77.30 53.59 77.10
C53.71 76.83 53.77 76.53 53.77 76.18
C53.77 75.62 53.63 75.15 53.35 74.78
C53.05 74.39 52.69 74.20 52.27 74.20
Z
" fill="white" fill-rule="nonzero" />
<path d="
M56.26 87.74
L56.26 90.95
L54.80 90.95
L56.26 87.74
Z
M52.36 86.31
C51.92 86.31 51.57 86.48 51.30 86.82
C51.03 87.17 50.88 87.68 50.84 88.37
L51.43 88.46
C51.43 88.00 51.51 87.65 51.69 87.40
C51.86 87.15 52.08 87.03 52.34 87.03
C52.59 87.03 52.80 87.14 52.97 87.37
C53.14 87.60 53.22 87.90 53.22 88.26
C53.22 88.57 53.14 88.91 52.98 89.28
C52.81 89.64 52.46 90.16 51.92 90.82
C51.46 91.40 51.15 91.89 50.98 92.32
C50.80 92.74 50.72 93.12 50.73 93.46
L53.82 93.46
L53.82 92.62
L51.53 92.62
C51.59 92.46 51.67 92.30 51.77 92.14
C51.87 91.98 52.09 91.68 52.43 91.25
C52.97 90.55 53.33 90.00 53.52 89.58
C53.72 89.17 53.81 88.73 53.81 88.28
C53.81 87.77 53.69 87.31 53.44 86.91
C53.20 86.51 52.84 86.31 52.36 86.31
Z
M56.37 86.34
L54.24 90.95
L54.24 91.75
L56.26 91.75
L56.26 93.46
L56.84 93.46
L56.84 91.75
L57.47 91.75
L57.47 90.95
L56.84 90.95
L56.84 86.34
Z
" fill="black" fill-rule="nonzero" />
<path d="
M52.36 98.07
C51.88 98.07 51.49 98.26 51.19 98.64
C50.90 99.01 50.74 99.55 50.70 100.26
L50.69 100.39
L50.82 100.41
L51.41 100.50
L51.57 100.53
L51.57 100.36
C51.57 99.93 51.65 99.61 51.80 99.39
C51.94 99.18 52.12 99.08 52.34 99.08
C52.34 99.08 52.34 99.08 52.34 99.08
C52.34 99.08 52.34 99.08 52.35 99.08
C52.55 99.08 52.72 99.17 52.86 99.36
C53.01 99.57 53.08 99.83 53.08 100.16
C53.08 100.46 53.00 100.78 52.85 101.12
C52.69 101.48 52.34 101.98 51.81 102.64
C51.34 103.22 51.02 103.73 50.84 104.17
C50.67 104.61 50.58 105.01 50.59 105.37
L50.59 105.50
L53.96 105.50
L53.96 105.36
L53.96 104.52
L53.96 104.38
L51.74 104.38
C51.79 104.29 51.83 104.21 51.89 104.12
C51.99 103.97 52.20 103.67 52.54 103.24
C53.09 102.54 53.46 101.97 53.65 101.55
C53.85 101.11 53.95 100.66 53.95 100.18
C53.95 99.65 53.82 99.16 53.57 98.74
C53.29 98.29 52.89 98.07 52.36 98.07
Z
M54.32 98.19
L54.32 98.33
L54.32 99.17
L54.32 99.32
L56.51 99.32
C56.26 99.78 56.02 100.33 55.80 100.96
C55.55 101.69 55.35 102.45 55.21 103.25
C55.06 104.05 54.98 104.76 54.98 105.36
L54.97 105.50
L55.71 105.50
L55.84 105.50
L55.85 105.37
C55.90 104.23 56.10 103.08 56.43 101.91
C56.77 100.75 57.16 99.81 57.61 99.09
L57.63 99.05
L57.63 99.01
L57.63 98.33
L57.63 98.19
Z
" fill="white" fill-rule="nonzero" />
<path d="
M55.99 125.27
C56.24 125.27 56.46 125.40 56.63 125.68
C56.81 125.96 56.90 126.35 56.90 126.86
C56.90 127.37 56.81 127.78 56.63 128.07
C56.45 128.37 56.25 128.52 56.03 128.52
C55.77 128.52 55.54 128.36 55.35 128.05
C55.16 127.73 55.06 127.32 55.06 126.81
C55.06 126.33 55.15 125.96 55.34 125.68
C55.52 125.40 55.74 125.27 55.99 125.27
Z
M52.36 121.96
C51.92 121.96 51.57 122.13 51.30 122.48
C51.03 122.82 50.88 123.34 50.84 124.02
L51.43 124.11
C51.43 123.65 51.51 123.30 51.69 123.05
C51.86 122.81 52.08 122.69 52.34 122.69
C52.59 122.69 52.80 122.80 52.97 123.03
C53.14 123.26 53.22 123.55 53.22 123.91
C53.22 124.23 53.14 124.57 52.98 124.93
C52.81 125.30 52.46 125.81 51.92 126.48
C51.46 127.05 51.15 127.55 50.98 127.97
C50.80 128.39 50.72 128.77 50.73 129.11
L53.82 129.11
L53.82 128.27
L51.53 128.27
C51.59 128.11 51.67 127.96 51.77 127.80
C51.87 127.64 52.09 127.34 52.43 126.90
C52.97 126.21 53.33 125.65 53.52 125.24
C53.72 124.82 53.81 124.39 53.81 123.93
C53.81 123.42 53.69 122.97 53.44 122.56
C53.20 122.16 52.84 121.96 52.36 121.96
Z
M56.07 121.96
C55.58 121.96 55.18 122.25 54.87 122.84
C54.56 123.42 54.40 124.40 54.40 125.78
C54.40 127.02 54.55 127.91 54.86 128.44
C55.16 128.97 55.55 129.23 56.02 129.23
C56.28 129.23 56.52 129.14 56.74 128.96
C56.96 128.77 57.14 128.49 57.28 128.10
C57.41 127.71 57.48 127.28 57.48 126.81
C57.48 126.10 57.35 125.54 57.07 125.12
C56.79 124.70 56.47 124.49 56.10 124.49
C55.88 124.49 55.67 124.57 55.47 124.73
C55.27 124.89 55.10 125.13 54.97 125.44
C54.97 124.57 55.06 123.91 55.23 123.46
C55.44 122.94 55.70 122.68 56.04 122.68
C56.25 122.68 56.44 122.79 56.59 123.02
C56.70 123.18 56.78 123.44 56.83 123.80
L57.40 123.73
C57.35 123.16 57.21 122.72 56.97 122.42
C56.73 122.11 56.43 121.96 56.07 121.96
Z
" fill="black" fill-rule="nonzero" />
<path d="
M64.06 26.74
L64.06 26.88
L64.06 27.71
L64.06 27.85
L66.75 27.85
C66.44 28.31 66.16 28.85 65.89 29.47
C65.57 30.19 65.33 30.94 65.15 31.74
C64.97 32.53 64.87 33.23 64.86 33.82
L64.86 33.97
L65.73 33.97
L65.87 33.97
L65.88 33.83
C65.94 32.71 66.18 31.57 66.60 30.43
C67.01 29.28 67.50 28.35 68.04 27.64
L68.07 27.60
L68.07 27.55
L68.07 26.88
L68.07 26.74
Z
" fill="white" fill-rule="nonzero" />
<path d="
M67.90 74.34
C67.46 74.34 67.11 74.51 66.84 74.85
C66.57 75.20 66.42 75.71 66.37 76.40
L66.96 76.49
C66.96 76.03 67.05 75.68 67.22 75.43
C67.39 75.18 67.61 75.06 67.88 75.06
C68.13 75.06 68.34 75.18 68.51 75.40
C68.68 75.63 68.76 75.93 68.76 76.29
C68.76 76.60 68.68 76.94 68.51 77.31
C68.35 77.67 67.99 78.19 67.46 78.86
C67.00 79.43 66.68 79.93 66.51 80.35
C66.34 80.77 66.26 81.15 66.26 81.49
L69.35 81.49
L69.35 80.65
L67.06 80.65
C67.12 80.49 67.20 80.33 67.30 80.17
C67.40 80.01 67.63 79.72 67.97 79.28
C68.50 78.59 68.87 78.03 69.06 77.61
C69.25 77.20 69.35 76.76 69.35 76.31
C69.35 75.80 69.22 75.34 68.98 74.94
C68.73 74.54 68.37 74.34 67.90 74.34
Z
M64.17 74.34
C63.81 74.34 63.51 74.49 63.25 74.80
C63.00 75.11 62.84 75.57 62.76 76.18
L63.33 76.34
C63.38 75.91 63.47 75.59 63.62 75.37
C63.78 75.16 63.96 75.06 64.18 75.06
C64.39 75.06 64.57 75.16 64.72 75.36
C64.87 75.56 64.94 75.83 64.94 76.16
C64.94 76.53 64.86 76.82 64.68 77.03
C64.50 77.25 64.27 77.36 63.99 77.36
L63.90 77.35
L63.84 78.12
C64.00 78.05 64.13 78.02 64.24 78.02
C64.50 78.02 64.71 78.15 64.89 78.40
C65.07 78.65 65.15 78.99 65.15 79.40
C65.15 79.84 65.06 80.20 64.87 80.48
C64.67 80.75 64.45 80.89 64.19 80.89
C63.70 80.89 63.40 80.42 63.28 79.49
L62.70 79.61
C62.74 80.22 62.90 80.71 63.18 81.07
C63.46 81.43 63.79 81.62 64.19 81.62
C64.62 81.62 64.99 81.41 65.30 80.99
C65.61 80.57 65.76 80.04 65.76 79.39
C65.76 79.08 65.73 78.80 65.65 78.55
C65.58 78.30 65.48 78.10 65.36 77.95
C65.23 77.80 65.08 77.70 64.89 77.63
C65.10 77.49 65.25 77.29 65.37 77.04
C65.48 76.79 65.53 76.51 65.53 76.18
C65.53 75.65 65.40 75.21 65.14 74.86
C64.87 74.51 64.55 74.34 64.17 74.34
Z
" fill="black" fill-rule="nonzero" />
<path d="
M67.87 87.11
C67.87 87.11 67.87 87.11 67.87 87.11
C67.87 87.11 67.87 87.11 67.87 87.11
C68.06 87.11 68.22 87.23 68.38 87.48
C68.54 87.75 68.63 88.12 68.63 88.61
C68.63 89.09 68.55 89.46 68.38 89.72
C68.24 89.95 68.06 90.07 67.86 90.07
C67.86 90.07 67.86 90.07 67.86 90.07
C67.86 90.07 67.86 90.07 67.85 90.07
C67.65 90.07 67.47 89.95 67.32 89.72
C67.15 89.46 67.06 89.12 67.06 88.68
C67.06 88.19 67.15 87.80 67.33 87.51
C67.50 87.24 67.67 87.11 67.87 87.11
Z
M64.27 86.10
C63.78 86.10 63.39 86.30 63.10 86.68
C62.81 87.04 62.65 87.58 62.60 88.30
L62.59 88.43
L62.72 88.45
L63.31 88.54
L63.48 88.56
L63.48 88.40
C63.48 87.97 63.55 87.64 63.71 87.42
C63.85 87.21 64.03 87.11 64.24 87.11
C64.25 87.11 64.25 87.11 64.25 87.11
C64.25 87.11 64.25 87.11 64.25 87.11
C64.45 87.11 64.62 87.21 64.76 87.40
C64.91 87.60 64.99 87.87 64.99 88.20
C64.99 88.49 64.91 88.81 64.75 89.16
C64.59 89.51 64.25 90.02 63.72 90.67
C63.25 91.26 62.93 91.77 62.75 92.20
C62.57 92.64 62.48 93.04 62.49 93.40
L62.50 93.54
L65.87 93.54
L65.87 93.40
L65.87 92.56
L65.87 92.41
L63.65 92.41
C63.69 92.33 63.74 92.24 63.79 92.16
C63.89 92.00 64.11 91.71 64.45 91.27
C64.99 90.57 65.36 90.01 65.56 89.58
C65.76 89.15 65.86 88.69 65.86 88.22
C65.86 87.68 65.73 87.20 65.47 86.77
C65.20 86.33 64.80 86.10 64.27 86.10
Z
M67.80 86.10
C67.34 86.10 66.96 86.34 66.64 86.81
C66.34 87.26 66.19 87.88 66.19 88.65
C66.19 89.40 66.34 90.00 66.63 90.44
C66.93 90.89 67.30 91.12 67.73 91.12
C67.97 91.12 68.21 91.03 68.44 90.84
C68.53 90.77 68.61 90.68 68.68 90.59
L68.68 90.59
C68.66 90.98 68.61 91.33 68.53 91.65
C68.43 92.04 68.31 92.31 68.17 92.46
C68.04 92.59 67.90 92.66 67.75 92.66
C67.75 92.66 67.75 92.66 67.75 92.66
C67.74 92.66 67.74 92.66 67.74 92.66
C67.58 92.66 67.45 92.58 67.35 92.44
C67.23 92.27 67.15 92.01 67.11 91.66
L67.09 91.51
L66.95 91.53
L66.40 91.61
L66.26 91.63
L66.28 91.76
C66.32 92.36 66.48 92.83 66.73 93.15
C67.00 93.49 67.33 93.66 67.73 93.66
C68.09 93.66 68.40 93.52 68.68 93.24
C68.95 92.98 69.17 92.56 69.32 92.00
C69.47 91.44 69.55 90.67 69.55 89.68
C69.55 88.79 69.48 88.10 69.34 87.62
C69.19 87.13 68.98 86.76 68.71 86.50
C68.44 86.24 68.13 86.10 67.80 86.10
Z
" fill="white" fill-rule="nonzero" />
<path d="
M67.86 98.87
C68.07 98.87 68.25 98.98 68.40 99.19
C68.55 99.40 68.63 99.67 68.63 100.01
C68.63 100.33 68.55 100.59 68.41 100.80
C68.26 101.00 68.08 101.10 67.87 101.10
C67.66 101.10 67.47 101.00 67.33 100.79
C67.18 100.59 67.10 100.31 67.10 99.96
C67.10 99.65 67.18 99.39 67.33 99.18
C67.48 98.97 67.66 98.87 67.86 98.87
Z
M67.85 101.82
C68.12 101.82 68.35 101.95 68.53 102.22
C68.72 102.49 68.82 102.84 68.82 103.28
C68.82 103.71 68.73 104.06 68.54 104.32
C68.36 104.58 68.13 104.70 67.87 104.70
C67.61 104.70 67.38 104.57 67.20 104.30
C67.01 104.04 66.91 103.68 66.91 103.25
C66.91 102.83 67.01 102.48 67.19 102.22
C67.37 101.95 67.59 101.82 67.85 101.82
Z
M64.27 98.15
C63.83 98.15 63.48 98.32 63.21 98.67
C62.94 99.01 62.79 99.53 62.74 100.21
L63.33 100.30
C63.33 99.84 63.42 99.49 63.59 99.24
C63.76 99.00 63.98 98.87 64.25 98.87
C64.50 98.87 64.71 98.99 64.88 99.22
C65.05 99.45 65.13 99.74 65.13 100.10
C65.13 100.42 65.05 100.76 64.88 101.12
C64.72 101.49 64.36 102.00 63.83 102.67
C63.37 103.24 63.05 103.74 62.88 104.16
C62.71 104.58 62.63 104.96 62.63 105.30
L65.72 105.30
L65.72 104.46
L63.43 104.46
C63.49 104.30 63.57 104.14 63.67 103.99
C63.77 103.83 64.00 103.53 64.34 103.09
C64.87 102.40 65.24 101.84 65.43 101.43
C65.62 101.01 65.72 100.58 65.72 100.12
C65.72 99.61 65.59 99.15 65.35 98.75
C65.10 98.35 64.74 98.15 64.27 98.15
Z
M67.86 98.15
C67.47 98.15 67.15 98.32 66.90 98.66
C66.64 99.00 66.51 99.44 66.51 99.98
C66.51 100.34 66.57 100.64 66.69 100.88
C66.81 101.12 66.98 101.31 67.21 101.44
C66.94 101.55 66.72 101.76 66.56 102.07
C66.41 102.38 66.33 102.77 66.33 103.25
C66.33 103.90 66.47 104.42 66.77 104.82
C67.06 105.22 67.43 105.42 67.87 105.42
C68.31 105.42 68.67 105.22 68.96 104.82
C69.26 104.42 69.41 103.91 69.41 103.27
C69.41 102.81 69.33 102.43 69.18 102.12
C69.03 101.80 68.81 101.58 68.53 101.44
C68.76 101.31 68.93 101.12 69.04 100.88
C69.16 100.65 69.21 100.35 69.21 100.01
C69.21 99.46 69.09 99.02 68.83 98.67
C68.57 98.32 68.25 98.15 67.86 98.15
Z
" fill="black" fill-rule="nonzero" />
<path d="
M67.83 182.21
C68.11 182.21 68.34 182.41 68.52 182.80
C68.70 183.19 68.79 183.97 68.79 185.13
C68.79 186.27 68.70 187.05 68.52 187.45
C68.35 187.84 68.13 188.04 67.87 188.04
C67.59 188.04 67.36 187.85 67.18 187.45
C67.01 187.06 66.92 186.28 66.92 185.13
C66.92 183.98 67.01 183.21 67.18 182.81
C67.36 182.41 67.57 182.21 67.83 182.21
Z
M64.49 181.49
C64.39 181.80 64.22 182.12 63.98 182.45
C63.74 182.77 63.46 183.05 63.14 183.28
L63.14 184.12
C63.33 184.02 63.53 183.87 63.75 183.66
C63.98 183.46 64.15 183.26 64.29 183.07
L64.29 188.64
L64.86 188.64
L64.86 181.49
Z
M67.86 181.49
C67.36 181.49 66.98 181.80 66.72 182.41
C66.46 183.03 66.33 183.93 66.33 185.13
C66.33 186.46 66.47 187.40 66.76 187.95
C67.04 188.49 67.41 188.76 67.85 188.76
C68.36 188.76 68.74 188.45 68.99 187.84
C69.25 187.22 69.38 186.32 69.38 185.13
C69.38 183.80 69.22 182.84 68.91 182.24
C68.66 181.74 68.30 181.49 67.86 181.49
Z
" fill="black" fill-rule="nonzero" />
<path d="
M76.17 38.54
C75.69 38.54 75.30 38.73 75.00 39.11
C74.72 39.48 74.55 40.02 74.51 40.74
L74.50 40.86
L74.63 40.88
L75.22 40.98
L75.38 41.00
L75.38 40.84
C75.38 40.41 75.46 40.08 75.61 39.86
C75.75 39.65 75.93 39.55 76.15 39.55
C76.15 39.55 76.15 39.55 76.15 39.55
C76.15 39.55 76.16 39.55 76.16 39.55
C76.36 39.55 76.53 39.64 76.67 39.83
C76.82 40.04 76.89 40.31 76.89 40.64
C76.89 40.93 76.82 41.25 76.66 41.60
C76.50 41.95 76.15 42.46 75.62 43.11
C75.16 43.70 74.83 44.21 74.66 44.64
C74.48 45.08 74.39 45.48 74.40 45.84
L74.40 45.98
L77.77 45.98
L77.77 45.84
L77.77 44.99
L77.77 44.85
L75.55 44.85
C75.60 44.77 75.65 44.68 75.70 44.59
C75.80 44.44 76.02 44.15 76.35 43.71
C76.90 43.01 77.27 42.45 77.46 42.02
C77.66 41.59 77.76 41.13 77.76 40.66
C77.76 40.12 77.63 39.64 77.38 39.21
C77.10 38.77 76.70 38.54 76.17 38.54
Z
M79.92 38.54
L79.89 38.64
C79.80 38.94 79.63 39.24 79.40 39.56
C79.17 39.87 78.90 40.14 78.59 40.36
L78.53 40.40
L78.53 40.47
L78.53 41.32
L78.53 41.56
L78.74 41.44
C78.94 41.33 79.15 41.17 79.39 40.96
C79.49 40.86 79.59 40.77 79.68 40.67
L79.68 40.67
L79.68 45.84
L79.68 45.98
L80.54 45.98
L80.54 45.84
L80.54 38.68
L80.54 38.54
Z
" fill="white" fill-rule="nonzero" />
<path d="
M76.17 62.49
C75.73 62.49 75.38 62.67 75.11 63.01
C74.85 63.36 74.69 63.87 74.65 64.55
L75.24 64.65
C75.24 64.19 75.33 63.83 75.50 63.59
C75.67 63.34 75.89 63.22 76.15 63.22
C76.40 63.22 76.61 63.33 76.78 63.56
C76.95 63.79 77.04 64.09 77.04 64.45
C77.04 64.76 76.95 65.10 76.79 65.47
C76.62 65.83 76.27 66.35 75.73 67.01
C75.27 67.59 74.96 68.08 74.79 68.50
C74.61 68.93 74.53 69.31 74.54 69.65
L77.63 69.65
L77.63 68.81
L75.34 68.81
C75.40 68.65 75.48 68.49 75.58 68.33
C75.68 68.17 75.90 67.87 76.24 67.44
C76.78 66.74 77.14 66.19 77.33 65.77
C77.53 65.36 77.62 64.92 77.62 64.47
C77.62 63.96 77.50 63.50 77.26 63.10
C77.01 62.70 76.65 62.49 76.17 62.49
Z
M79.80 62.49
C79.36 62.49 79.01 62.67 78.74 63.01
C78.48 63.36 78.32 63.87 78.28 64.55
L78.87 64.65
C78.87 64.19 78.96 63.83 79.13 63.59
C79.30 63.34 79.52 63.22 79.78 63.22
C80.03 63.22 80.24 63.33 80.41 63.56
C80.58 63.79 80.67 64.09 80.67 64.45
C80.67 64.76 80.58 65.10 80.42 65.47
C80.25 65.83 79.90 66.35 79.36 67.01
C78.91 67.59 78.59 68.08 78.42 68.50
C78.24 68.93 78.16 69.31 78.17 69.65
L81.26 69.65
L81.26 68.81
L78.97 68.81
C79.03 68.65 79.11 68.49 79.21 68.33
C79.31 68.17 79.53 67.87 79.87 67.44
C80.41 66.74 80.77 66.19 80.96 65.77
C81.16 65.36 81.25 64.92 81.25 64.47
C81.25 63.96 81.13 63.50 80.89 63.10
C80.64 62.70 80.28 62.49 79.80 62.49
Z
" fill="black" fill-rule="nonzero" />
<path d="
M79.74 98.87
C80.02 98.87 80.25 99.07 80.43 99.46
C80.60 99.85 80.69 100.63 80.69 101.79
C80.69 102.93 80.60 103.71 80.43 104.10
C80.25 104.50 80.03 104.70 79.77 104.70
C79.49 104.70 79.27 104.51 79.09 104.11
C78.91 103.72 78.82 102.94 78.82 101.79
C78.82 100.64 78.91 99.87 79.09 99.47
C79.26 99.07 79.48 98.87 79.74 98.87
Z
M79.76 98.15
C79.26 98.15 78.88 98.46 78.62 99.07
C78.37 99.69 78.24 100.59 78.24 101.79
C78.24 103.12 78.38 104.06 78.66 104.60
C78.95 105.15 79.31 105.42 79.76 105.42
C80.26 105.42 80.64 105.11 80.90 104.50
C81.16 103.88 81.28 102.98 81.28 101.79
C81.28 100.46 81.13 99.50 80.82 98.90
C80.56 98.40 80.21 98.15 79.76 98.15
Z
M76.08 98.15
C75.72 98.15 75.41 98.30 75.16 98.61
C74.90 98.93 74.74 99.39 74.67 99.99
L75.24 100.15
C75.28 99.72 75.38 99.40 75.53 99.19
C75.68 98.97 75.87 98.87 76.09 98.87
C76.30 98.87 76.48 98.97 76.63 99.17
C76.78 99.37 76.85 99.64 76.85 99.97
C76.85 100.34 76.76 100.63 76.58 100.84
C76.41 101.06 76.18 101.17 75.90 101.17
L75.81 101.16
L75.74 101.93
C75.90 101.86 76.04 101.83 76.15 101.83
C76.40 101.83 76.62 101.96 76.79 102.21
C76.97 102.46 77.06 102.80 77.06 103.21
C77.06 103.65 76.96 104.01 76.77 104.29
C76.58 104.56 76.35 104.70 76.09 104.70
C75.61 104.70 75.30 104.24 75.19 103.30
L74.61 103.42
C74.65 104.03 74.81 104.52 75.08 104.88
C75.36 105.24 75.70 105.43 76.10 105.43
C76.53 105.43 76.90 105.22 77.21 104.80
C77.51 104.39 77.67 103.85 77.67 103.20
C77.67 102.89 77.63 102.61 77.56 102.36
C77.48 102.11 77.38 101.91 77.26 101.76
C77.14 101.61 76.98 101.51 76.80 101.44
C77.00 101.30 77.16 101.10 77.27 100.85
C77.38 100.60 77.44 100.32 77.44 99.99
C77.44 99.46 77.31 99.02 77.04 98.67
C76.78 98.32 76.46 98.15 76.08 98.15
Z
" fill="black" fill-rule="nonzero" />
<path d="
M89.85 27.47
C90.11 27.47 90.33 27.58 90.52 27.79
C90.70 28.00 90.80 28.27 90.80 28.60
C90.80 28.92 90.71 29.18 90.52 29.38
C90.34 29.58 90.12 29.68 89.86 29.68
C89.60 29.68 89.37 29.58 89.19 29.37
C89.01 29.17 88.92 28.89 88.92 28.55
C88.92 28.24 89.01 27.98 89.19 27.78
C89.38 27.57 89.60 27.47 89.85 27.47
Z
M89.84 30.39
C90.17 30.39 90.45 30.52 90.68 30.78
C90.92 31.05 91.03 31.39 91.03 31.83
C91.03 32.25 90.92 32.60 90.69 32.85
C90.47 33.11 90.19 33.24 89.86 33.24
C89.54 33.24 89.26 33.10 89.03 32.84
C88.80 32.58 88.68 32.23 88.68 31.80
C88.68 31.38 88.79 31.04 89.02 30.78
C89.25 30.52 89.52 30.39 89.84 30.39
Z
M89.85 26.76
C89.37 26.76 88.98 26.93 88.66 27.27
C88.35 27.60 88.19 28.04 88.19 28.57
C88.19 28.93 88.26 29.22 88.41 29.46
C88.55 29.70 88.77 29.88 89.05 30.01
C88.71 30.12 88.44 30.33 88.25 30.63
C88.05 30.94 87.96 31.33 87.96 31.80
C87.96 32.44 88.14 32.96 88.50 33.35
C88.86 33.75 89.32 33.95 89.86 33.95
C90.40 33.95 90.85 33.75 91.21 33.35
C91.58 32.96 91.76 32.45 91.76 31.82
C91.76 31.37 91.66 30.99 91.48 30.68
C91.29 30.37 91.02 30.15 90.67 30.01
C90.96 29.88 91.17 29.70 91.31 29.46
C91.45 29.23 91.52 28.94 91.52 28.60
C91.52 28.06 91.36 27.62 91.05 27.28
C90.73 26.93 90.33 26.76 89.85 26.76
Z
" fill="black" fill-rule="nonzero" />
<path d="
M88.08 38.48
C87.59 38.48 87.20 38.67 86.91 39.05
C86.62 39.42 86.46 39.96 86.41 40.67
L86.41 40.80
L86.53 40.82
L87.12 40.91
L87.29 40.94
L87.29 40.77
C87.29 40.34 87.36 40.02 87.52 39.79
C87.66 39.59 87.84 39.49 88.05 39.49
C88.06 39.49 88.06 39.49 88.06 39.49
C88.06 39.49 88.06 39.49 88.06 39.49
C88.26 39.49 88.43 39.58 88.57 39.77
C88.72 39.97 88.80 40.24 88.80 40.57
C88.80 40.87 88.72 41.19 88.56 41.53
C88.40 41.89 88.06 42.39 87.53 43.05
C87.06 43.63 86.74 44.14 86.56 44.58
C86.38 45.02 86.30 45.42 86.30 45.78
L86.31 45.91
L89.68 45.91
L89.68 45.77
L89.68 44.93
L89.68 44.79
L87.46 44.79
C87.50 44.70 87.55 44.62 87.61 44.53
C87.70 44.38 87.92 44.08 88.26 43.65
C88.80 42.95 89.17 42.38 89.37 41.96
C89.57 41.52 89.67 41.07 89.67 40.59
C89.67 40.05 89.54 39.57 89.28 39.15
C89.01 38.70 88.61 38.48 88.08 38.48
Z
M91.62 38.48
C91.21 38.48 90.87 38.65 90.58 39.00
C90.31 39.33 90.14 39.81 90.06 40.45
L90.05 40.57
L90.17 40.60
L90.74 40.76
L90.90 40.80
L90.92 40.64
C90.96 40.23 91.04 39.93 91.18 39.74
C91.30 39.57 91.45 39.48 91.62 39.48
C91.62 39.48 91.62 39.48 91.62 39.48
C91.62 39.48 91.62 39.48 91.63 39.48
C91.79 39.48 91.93 39.56 92.05 39.73
C92.18 39.90 92.24 40.14 92.24 40.45
C92.24 40.78 92.17 41.04 92.01 41.23
C91.86 41.41 91.67 41.50 91.44 41.50
L91.44 41.50
L91.36 41.49
L91.21 41.48
L91.20 41.62
L91.14 42.39
L91.12 42.62
L91.33 42.53
C91.47 42.47 91.59 42.45 91.68 42.45
C91.68 42.45 91.68 42.45 91.68 42.45
C91.68 42.45 91.68 42.45 91.68 42.45
C91.89 42.45 92.07 42.55 92.21 42.76
C92.37 42.99 92.45 43.30 92.45 43.68
C92.45 44.09 92.37 44.43 92.19 44.68
C92.03 44.91 91.84 45.03 91.63 45.03
C91.63 45.03 91.63 45.03 91.63 45.03
C91.63 45.03 91.62 45.03 91.62 45.03
C91.43 45.03 91.28 44.94 91.16 44.75
C91.02 44.53 90.92 44.20 90.86 43.76
L90.84 43.61
L90.69 43.64
L90.12 43.75
L90.00 43.78
L90.00 43.90
C90.05 44.54 90.21 45.05 90.51 45.44
C90.81 45.84 91.19 46.04 91.63 46.04
C92.11 46.04 92.52 45.81 92.86 45.36
C93.18 44.92 93.35 44.35 93.35 43.67
C93.35 43.35 93.31 43.05 93.23 42.79
C93.15 42.52 93.04 42.31 92.91 42.15
C92.82 42.04 92.71 41.95 92.60 41.88
L92.60 41.88
C92.73 41.74 92.85 41.58 92.94 41.39
C93.06 41.12 93.12 40.81 93.12 40.47
C93.12 39.90 92.98 39.44 92.69 39.06
C92.40 38.67 92.04 38.48 91.62 38.48
Z
" fill="white" fill-rule="nonzero" />
<path d="
M113.70 196.70
C114.02 196.70 114.28 196.84 114.50 197.12
C114.72 197.39 114.83 197.78 114.83 198.28
C114.83 198.79 114.72 199.19 114.50 199.48
C114.28 199.77 114.03 199.91 113.75 199.91
C113.43 199.91 113.16 199.76 112.92 199.45
C112.68 199.14 112.56 198.73 112.56 198.22
C112.56 197.76 112.67 197.39 112.90 197.11
C113.13 196.84 113.40 196.70 113.70 196.70
Z
M113.81 193.44
C113.20 193.44 112.71 193.73 112.32 194.31
C111.93 194.88 111.74 195.85 111.74 197.21
C111.74 198.44 111.93 199.31 112.31 199.84
C112.68 200.36 113.16 200.62 113.75 200.62
C114.07 200.62 114.36 200.53 114.63 200.35
C114.90 200.17 115.12 199.89 115.29 199.50
C115.46 199.12 115.55 198.69 115.55 198.22
C115.55 197.53 115.38 196.98 115.04 196.56
C114.70 196.15 114.30 195.94 113.84 195.94
C113.57 195.94 113.31 196.02 113.06 196.18
C112.81 196.34 112.61 196.57 112.44 196.88
C112.45 196.01 112.56 195.36 112.77 194.92
C113.02 194.41 113.35 194.15 113.76 194.15
C114.03 194.15 114.26 194.26 114.45 194.49
C114.58 194.64 114.68 194.90 114.74 195.26
L115.45 195.19
C115.39 194.62 115.21 194.19 114.91 193.89
C114.61 193.59 114.25 193.44 113.81 193.44
Z
" fill="black" fill-rule="nonzero" />
<path d="
M185.32 38.59
L185.28 38.68
C185.17 38.97 184.97 39.27 184.68 39.58
C184.39 39.89 184.06 40.15 183.68 40.37
L183.61 40.41
L183.61 40.49
L183.61 41.33
L183.61 41.55
L183.81 41.46
C184.05 41.35 184.31 41.20 184.59 40.99
C184.75 40.87 184.90 40.75 185.02 40.64
L185.02 40.64
L185.02 45.79
L185.02 45.93
L186.02 45.93
L186.02 45.79
L186.02 38.73
L186.02 38.59
Z
" fill="white" fill-rule="nonzero" />
<path d="
M185.02 193.29
C184.54 193.30 184.13 193.46 183.79 193.80
C183.45 194.13 183.24 194.61 183.14 195.24
L183.12 195.37
L183.25 195.40
L183.96 195.55
L184.11 195.59
L184.13 195.43
C184.18 195.03 184.28 194.74 184.45 194.56
C184.61 194.38 184.80 194.29 185.03 194.29
C185.03 194.29 185.03 194.29 185.03 194.29
C185.04 194.29 185.04 194.29 185.04 194.29
C185.26 194.29 185.44 194.37 185.60 194.54
C185.76 194.72 185.83 194.95 185.83 195.24
C185.83 195.56 185.74 195.81 185.55 196.00
C185.36 196.19 185.11 196.28 184.81 196.28
L184.81 196.28
L184.70 196.27
L184.56 196.26
L184.55 196.40
L184.47 197.16
L184.44 197.37
L184.65 197.31
C184.84 197.25 184.99 197.22 185.11 197.22
C185.11 197.22 185.11 197.22 185.11 197.22
C185.11 197.22 185.11 197.22 185.11 197.22
C185.38 197.22 185.61 197.32 185.80 197.54
C186.00 197.76 186.09 198.06 186.09 198.44
C186.09 198.84 185.99 199.16 185.77 199.41
C185.56 199.65 185.32 199.77 185.04 199.77
C185.04 199.77 185.04 199.77 185.04 199.77
C185.04 199.77 185.04 199.77 185.04 199.77
C184.78 199.77 184.58 199.67 184.42 199.48
C184.25 199.27 184.13 198.94 184.06 198.51
L184.04 198.37
L183.90 198.39
L183.19 198.50
L183.06 198.52
L183.07 198.65
C183.12 199.29 183.33 199.80 183.69 200.19
C184.06 200.57 184.52 200.77 185.05 200.77
C185.62 200.77 186.11 200.55 186.52 200.11
C186.93 199.67 187.13 199.11 187.13 198.42
C187.13 198.10 187.08 197.81 186.98 197.55
C186.88 197.28 186.75 197.07 186.58 196.91
C186.48 196.80 186.36 196.72 186.22 196.65
L186.22 196.65
C186.38 196.52 186.51 196.36 186.62 196.18
C186.77 195.91 186.85 195.61 186.85 195.26
C186.85 194.70 186.67 194.23 186.32 193.86
C185.96 193.48 185.53 193.30 185.02 193.29
Z
" fill="white" fill-rule="nonzero" />
<path d="
M196.25 172.09
L196.25 172.09
L196.25 172.09
C196.25 172.09 196.25 172.09 196.25 172.09
Z
M195.68 169.55
L195.66 169.67
L195.10 173.28
L195.07 173.42
L195.21 173.44
L195.88 173.55
L195.98 173.57
L196.03 173.47
C196.13 173.28 196.26 173.13 196.42 173.03
C196.59 172.92 196.76 172.87 196.95 172.87
C196.95 172.87 196.95 172.87 196.95 172.87
C196.95 172.87 196.95 172.87 196.95 172.87
C197.26 172.87 197.52 172.99 197.73 173.24
C197.94 173.49 198.05 173.84 198.05 174.31
C198.05 174.81 197.93 175.21 197.71 175.49
C197.50 175.76 197.25 175.90 196.96 175.90
C196.96 175.90 196.96 175.90 196.95 175.90
C196.95 175.90 196.95 175.90 196.95 175.90
C196.73 175.90 196.52 175.80 196.35 175.61
C196.17 175.42 196.05 175.11 196.00 174.69
L195.98 174.56
L195.84 174.57
L195.10 174.65
L194.96 174.66
L194.97 174.80
C195.02 175.45 195.23 175.96 195.60 176.33
C195.97 176.70 196.43 176.89 196.96 176.89
C197.61 176.89 198.13 176.63 198.52 176.10
C198.89 175.58 199.08 174.96 199.08 174.24
C199.08 173.51 198.89 172.93 198.51 172.49
C198.12 172.05 197.67 171.82 197.14 171.82
C196.83 171.82 196.53 171.91 196.25 172.09
L196.25 172.09
L196.48 170.66
L198.80 170.66
L198.80 170.52
L198.80 169.69
L198.80 169.55
Z
" fill="white" fill-rule="nonzero" />
</g>
<g  transform="translate(1.19,228.58)" >
<path d="
M109.47 2.72
C109.30 2.72 109.16 2.78 109.05 2.89
C108.93 3.01 108.88 3.15 108.88 3.31
C108.88 3.47 108.93 3.61 109.05 3.73
C109.17 3.84 109.31 3.90 109.47 3.90
C109.63 3.90 109.77 3.84 109.88 3.73
C110.00 3.61 110.06 3.47 110.06 3.31
C110.06 3.15 110.00 3.01 109.88 2.89
C109.77 2.78 109.63 2.72 109.47 2.72
Z
M125.28 3.28
C125.67 3.28 125.98 3.40 126.21 3.63
C126.44 3.86 126.55 4.18 126.55 4.58
C126.55 4.89 126.49 5.16 126.37 5.41
C126.24 5.65 125.95 5.98 125.48 6.40
L124.53 5.61
C124.34 5.42 124.20 5.23 124.09 5.03
C123.99 4.83 123.94 4.63 123.94 4.43
C123.94 4.12 124.06 3.85 124.31 3.62
C124.56 3.39 124.88 3.28 125.28 3.28
Z
M114.44 7.81
L114.44 9.84
C113.96 10.23 113.57 10.42 113.28 10.42
C113.06 10.42 112.87 10.33 112.70 10.15
C112.53 9.96 112.45 9.73 112.45 9.45
C112.45 9.23 112.52 9.03 112.65 8.84
C112.78 8.66 113.00 8.48 113.31 8.31
C113.48 8.21 113.85 8.05 114.44 7.81
Z
M102.79 3.55
C103.72 3.55 104.48 3.86 105.07 4.49
C105.67 5.12 105.96 5.98 105.96 7.06
C105.96 8.15 105.67 9.00 105.07 9.63
C104.48 10.27 103.74 10.58 102.84 10.58
C102.50 10.58 102.09 10.53 101.60 10.42
L101.60 3.72
C102.04 3.60 102.44 3.55 102.79 3.55
Z
M124.85 7.24
C125.68 7.90 126.24 8.44 126.51 8.85
C126.66 9.07 126.73 9.32 126.73 9.60
C126.73 9.94 126.61 10.22 126.36 10.46
C126.10 10.70 125.77 10.81 125.35 10.81
C124.93 10.81 124.58 10.66 124.31 10.36
C124.03 10.06 123.90 9.66 123.90 9.16
C123.90 8.79 123.98 8.45 124.13 8.13
C124.29 7.81 124.52 7.51 124.85 7.24
Z
M99.35 3.11
L99.35 3.32
L99.64 3.32
C99.94 3.32 100.17 3.41 100.32 3.58
C100.43 3.70 100.48 4.01 100.48 4.50
L100.48 9.59
C100.48 10.04 100.44 10.33 100.35 10.45
C100.21 10.67 99.98 10.77 99.64 10.77
L99.35 10.77
L99.35 10.99
L102.87 10.99
C104.40 10.99 105.54 10.58 106.29 9.76
C106.96 9.02 107.29 8.10 107.29 7.01
C107.29 6.19 107.10 5.47 106.73 4.84
C106.35 4.22 105.86 3.77 105.25 3.51
C104.63 3.24 103.74 3.11 102.56 3.11
Z
M109.70 5.51
L108.09 6.16
L108.17 6.37
C108.33 6.31 108.46 6.28 108.57 6.28
C108.67 6.28 108.75 6.30 108.81 6.35
C108.86 6.40 108.91 6.49 108.93 6.61
C108.97 6.78 108.99 7.16 108.99 7.73
L108.99 9.79
C108.99 10.11 108.96 10.34 108.91 10.45
C108.86 10.57 108.79 10.65 108.70 10.70
C108.61 10.75 108.43 10.78 108.17 10.78
L108.17 10.99
L110.76 10.99
L110.76 10.78
C110.51 10.78 110.33 10.75 110.24 10.70
C110.14 10.64 110.07 10.56 110.02 10.45
C109.98 10.34 109.95 10.12 109.95 9.79
L109.95 5.51
Z
M113.63 5.51
C113.01 5.51 112.53 5.65 112.19 5.93
C111.85 6.20 111.68 6.51 111.68 6.84
C111.68 7.02 111.72 7.16 111.81 7.26
C111.91 7.36 112.02 7.41 112.17 7.41
C112.31 7.41 112.43 7.36 112.52 7.26
C112.62 7.17 112.66 7.03 112.66 6.85
L112.65 6.51
C112.65 6.34 112.72 6.19 112.87 6.06
C113.01 5.93 113.21 5.86 113.45 5.86
C113.77 5.86 114.02 5.96 114.19 6.16
C114.36 6.36 114.44 6.72 114.44 7.25
L114.44 7.46
C113.53 7.79 112.87 8.08 112.48 8.31
C112.08 8.54 111.81 8.79 111.65 9.05
C111.53 9.24 111.47 9.47 111.47 9.73
C111.47 10.14 111.59 10.47 111.83 10.72
C112.07 10.97 112.37 11.10 112.74 11.10
C112.98 11.10 113.20 11.05 113.41 10.95
C113.55 10.89 113.89 10.64 114.44 10.22
C114.44 10.54 114.50 10.76 114.61 10.90
C114.73 11.03 114.88 11.09 115.07 11.09
C115.46 11.09 115.88 10.80 116.31 10.22
L116.31 9.90
C116.08 10.13 115.92 10.27 115.84 10.32
C115.79 10.35 115.74 10.36 115.68 10.36
C115.62 10.36 115.57 10.34 115.52 10.30
C115.48 10.26 115.45 10.19 115.43 10.07
C115.41 9.96 115.40 9.65 115.40 9.14
L115.40 7.33
C115.40 6.82 115.36 6.48 115.29 6.31
C115.19 6.05 115.02 5.87 114.79 5.75
C114.49 5.59 114.10 5.51 113.63 5.51
Z
M125.26 2.94
C124.61 2.94 124.08 3.13 123.69 3.50
C123.29 3.87 123.10 4.31 123.10 4.82
C123.10 5.15 123.19 5.48 123.37 5.79
C123.55 6.10 123.95 6.51 124.57 7.02
C124.00 7.43 123.59 7.81 123.36 8.15
C123.13 8.50 123.01 8.84 123.01 9.19
C123.01 9.64 123.18 10.05 123.51 10.42
C123.93 10.89 124.51 11.13 125.26 11.13
C125.94 11.13 126.50 10.93 126.92 10.54
C127.34 10.14 127.55 9.67 127.55 9.12
C127.55 8.68 127.41 8.26 127.11 7.87
C126.89 7.56 126.44 7.15 125.76 6.62
C126.42 6.21 126.86 5.85 127.07 5.54
C127.28 5.24 127.38 4.94 127.38 4.64
C127.38 4.20 127.19 3.81 126.80 3.46
C126.41 3.12 125.90 2.94 125.26 2.94
Z
M117.82 9.86
C117.64 9.86 117.49 9.92 117.37 10.05
C117.24 10.17 117.18 10.32 117.18 10.51
C117.18 10.68 117.24 10.84 117.37 10.96
C117.49 11.09 117.64 11.15 117.82 11.15
C118.00 11.15 118.15 11.09 118.28 10.96
C118.41 10.84 118.47 10.68 118.47 10.51
C118.47 10.33 118.41 10.18 118.28 10.05
C118.16 9.92 118.01 9.86 117.82 9.86
Z
" fill="black" fill-rule="nonzero" />
</g>
</g>
</svg>
