<?xml version="1.0" encoding="utf-8" standalone="no"?>
<!DOCTYPE svg PUBLIC "-//W3C//DTD SVG 1.0//EN" "http://www.w3.org/TR/SVG/DTD/svg11.dtd" >
<svg version="1.1" baseProfile="full"  width="319.13385" height="338.51422" viewBox="0 0 229.77638 243.73024" preserveAspectRatio="xMidYMid" xmlns="http://www.w3.org/2000/svg" >

<g lengthAdjust="spacingAndGlyphs" xml:space='preserve' >
<g  transform="translate(1.19,1.19)" >
<path d="
M0.0 0.0
L0.0 227.39
L227.39 227.39
L227.39 0.0
Z
" fill="none" fill-rule="nonzero" />
<line x1="6.54" y1="6.54" x2="6.54" y2="220.84" fill="none" stroke="black" stroke-width="0.87px" stroke-linecap="square" />
<line x1="18.45" y1="6.54" x2="18.45" y2="220.84" fill="none" stroke="black" stroke-width="0.25px" stroke-linecap="butt" />
<line x1="30.35" y1="6.54" x2="30.35" y2="220.84" fill="none" stroke="black" stroke-width="0.25px" stroke-linecap="butt" />
<line x1="42.26" y1="6.54" x2="42.26" y2="220.84" fill="none" stroke="black" stroke-width="0.25px" stroke-linecap="butt" />
<line x1="54.17" y1="6.54" x2="54.17" y2="220.84" fill="none" stroke="black" stroke-width="0.25px" stroke-linecap="butt" />
<line x1="66.07" y1="6.54" x2="66.07" y2="36.31" fill="none" stroke="black" stroke-width="0.25px" stroke-linecap="butt" />
<line x1="66.07" y1="60.12" x2="66.07" y2="220.84" fill="none" stroke="black" stroke-width="0.25px" stroke-linecap="butt" />
<line x1="77.98" y1="6.54" x2="77.98" y2="24.40" fill="none" stroke="black" stroke-width="0.25px" stroke-linecap="butt" />
<line x1="77.98" y1="36.31" x2="77.98" y2="220.84" fill="none" stroke="black" stroke-width="0.25px" stroke-linecap="butt" />
<line x1="89.88" y1="6.54" x2="89.88" y2="12.50" fill="none" stroke="black" stroke-width="0.25px" stroke-linecap="butt" />
<line x1="89.88" y1="24.40" x2="89.88" y2="36.31" fill="none" stroke="black" stroke-width="0.25px" stroke-linecap="butt" />
<line x1="89.88" y1="48.21" x2="89.88" y2="220.84" fill="none" stroke="black" stroke-width="0.25px" stroke-linecap="butt" />
<line x1="101.79" y1="6.54" x2="101.79" y2="24.40" fill="none" stroke="black" stroke-width="0.25px" stroke-linecap="butt" />
<line x1="101.79" y1="48.21" x2="101.79" y2="220.84" fill="none" stroke="black" stroke-width="0.25px" stroke-linecap="butt" />
<line x1="113.69" y1="6.54" x2="113.69" y2="24.40" fill="none" stroke="black" stroke-width="0.25px" stroke-linecap="butt" />
<line x1="113.69" y1="36.31" x2="113.69" y2="220.84" fill="none" stroke="black" stroke-width="0.25px" stroke-linecap="butt" />
<line x1="125.60" y1="6.54" x2="125.60" y2="220.84" fill="none" stroke="black" stroke-width="0.25px" stroke-linecap="butt" />
<line x1="137.50" y1="6.54" x2="137.50" y2="220.84" fill="none" stroke="black" stroke-width="0.25px" stroke-linecap="butt" />
<line x1="149.41" y1="6.54" x2="149.41" y2="220.84" fill="none" stroke="black" stroke-width="0.25px" stroke-linecap="butt" />
<line x1="161.31" y1="6.54" x2="161.31" y2="220.84" fill="none" stroke="black" stroke-width="0.25px" stroke-linecap="butt" />
<line x1="173.22" y1="6.54" x2="173.22" y2="220.84" fill="none" stroke="black" stroke-width="0.25px" stroke-linecap="butt" />
<line x1="185.13" y1="6.54" x2="185.13" y2="220.84" fill="none" stroke="black" stroke-width="0.25px" stroke-linecap="butt" />
<line x1="197.03" y1="6.54" x2="197.03" y2="220.84" fill="none" stroke="black" stroke-width="0.25px" stroke-linecap="butt" />
<line x1="208.94" y1="6.54" x2="208.94" y2="220.84" fill="none" stroke="black" stroke-width="0.25px" stroke-linecap="butt" />
<line x1="220.84" y1="6.54" x2="220.84" y2="220.84" fill="none" stroke="black" stroke-width="0.87px" stroke-linecap="square" />
<line x1="6.54" y1="6.54" x2="220.84" y2="6.54" fill="none" stroke="black" stroke-width="0.87px" stroke-linecap="square" />
<line x1="6.54" y1="18.45" x2="83.93" y2="18.45" fill="none" stroke="black" stroke-width="0.25px" stroke-linecap="butt" />
<line x1="95.83" y1="18.45" x2="220.84" y2="18.45" fill="none" stroke="black" stroke-width="0.25px" stroke-linecap="butt" />
<line x1="6.54" y1="30.35" x2="72.02" y2="30.35" fill="none" stroke="black" stroke-width="0.25px" stroke-linecap="butt" />
<line x1="83.93" y1="30.35" x2="95.83" y2="30.35" fill="none" stroke="black" stroke-width="0.25px" stroke-linecap="butt" />
<line x1="119.65" y1="30.35" x2="220.84" y2="30.35" fill="none" stroke="black" stroke-width="0.25px" stroke-linecap="butt" />
<line x1="6.54" y1="42.26" x2="60.12" y2="42.26" fill="none" stroke="black" stroke-width="0.25px" stroke-linecap="butt" />
<line x1="72.02" y1="42.26" x2="83.93" y2="42.26" fill="none" stroke="black" stroke-width="0.25px" stroke-linecap="butt" />
<line x1="107.74" y1="42.26" x2="220.84" y2="42.26" fill="none" stroke="black" stroke-width="0.25px" stroke-linecap="butt" />
<line x1="6.54" y1="54.17" x2="60.12" y2="54.17" fill="none" stroke="black" stroke-width="0.25px" stroke-linecap="butt" />
<line x1="72.02" y1="54.17" x2="220.84" y2="54.17" fill="none" stroke="black" stroke-width="0.25px" stroke-linecap="butt" />
<line x1="6.54" y1="66.07" x2="220.84" y2="66.07" fill="none" stroke="black" stroke-width="0.25px" stroke-linecap="butt" />
<line x1="6.54" y1="77.98" x2="220.84" y2="77.98" fill="none" stroke="black" stroke-width="0.25px" stroke-linecap="butt" />
<line x1="6.54" y1="89.88" x2="220.84" y2="89.88" fill="none" stroke="black" stroke-width="0.25px" stroke-linecap="butt" />
<line x1="6.54" y1="101.79" x2="220.84" y2="101.79" fill="none" stroke="black" stroke-width="0.25px" stroke-linecap="butt" />
<line x1="6.54" y1="113.69" x2="220.84" y2="113.69" fill="none" stroke="black" stroke-width="0.25px" stroke-linecap="butt" />
<line x1="6.54" y1="125.60" x2="220.84" y2="125.60" fill="none" stroke="black" stroke-width="0.25px" stroke-linecap="butt" />
<line x1="6.54" y1="137.50" x2="220.84" y2="137.50" fill="none" stroke="black" stroke-width="0.25px" stroke-linecap="butt" />
<line x1="6.54" y1="149.41" x2="220.84" y2="149.41" fill="none" stroke="black" stroke-width="0.25px" stroke-linecap="butt" />
<line x1="6.54" y1="161.31" x2="220.84" y2="161.31" fill="none" stroke="black" stroke-width="0.25px" stroke-linecap="butt" />
<line x1="6.54" y1="173.22" x2="220.84" y2="173.22" fill="none" stroke="black" stroke-width="0.25px" stroke-linecap="butt" />
<line x1="6.54" y1="185.13" x2="220.84" y2="185.13" fill="none" stroke="black" stroke-width="0.25px" stroke-linecap="butt" />
<line x1="6.54" y1="197.03" x2="220.84" y2="197.03" fill="none" stroke="black" stroke-width="0.25px" stroke-linecap="butt" />
<line x1="6.54" y1="208.94" x2="220.84" y2="208.94" fill="none" stroke="black" stroke-width="0.25px" stroke-linecap="butt" />
<line x1="6.54" y1="220.84" x2="220.84" y2="220.84" fill="none" stroke="black" stroke-width="0.87px" stroke-linecap="square" />
<circle cx="6.54" cy="18.45" r="6.01" fill="black"/>
<circle cx="6.54" cy="54.17" r="5.89" fill="white"/>
<circle cx="6.54" cy="54.17" r="5.89" fill="none" stroke="black" stroke-width="0.25px"/>
<circle cx="18.45" cy="6.54" r="6.01" fill="black"/>
<circle cx="18.45" cy="18.45" r="5.89" fill="white"/>
<circle cx="18.45" cy="18.45" r="5.89" fill="none" stroke="black" stroke-width="0.25px"/>
<circle cx="18.45" cy="30.35" r="6.01" fill="black"/>
<circle cx="18.45" cy="42.26" r="6.01" fill="black"/>
<circle cx="18.45" cy="54.17" r="6.01" fill="black"/>
<circle cx="18.45" cy="66.07" r="5.89" fill="white"/>
<circle cx="18.45" cy="66.07" r="5.89" fill="none" stroke="black" stroke-width="0.25px"/>
<circle cx="30.35" cy="18.45" r="6.01" fill="black"/>
<circle cx="30.35" cy="30.35" r="5.89" fill="white"/>
<circle cx="30.35" cy="30.35" r="5.89" fill="none" stroke="black" stroke-width="0.25px"/>
<circle cx="30.35" cy="42.26" r="6.01" fill="black"/>
<circle cx="30.35" cy="54.17" r="6.01" fill="black"/>
<circle cx="30.35" cy="66.07" r="6.01" fill="black"/>
<circle cx="30.35" cy="77.98" r="5.89" fill="white"/>
<circle cx="30.35" cy="77.98" r="5.89" fill="none" stroke="black" stroke-width="0.25px"/>
<circle cx="30.35" cy="89.88" r="5.89" fill="white"/>
<circle cx="30.35" cy="89.88" r="5.89" fill="none" stroke="black" stroke-width="0.25px"/>
<circle cx="30.35" cy="125.60" r="6.01" fill="black"/>
<circle cx="30.35" cy="161.31" r="6.01" fill="black"/>
<circle cx="30.35" cy="173.22" r="5.89" fill="white"/>
<circle cx="30.35" cy="173.22" r="5.89" fill="none" stroke="black" stroke-width="0.25px"/>
<circle cx="42.26" cy="6.54" r="6.01" fill="black"/>
<circle cx="42.26" cy="18.45" r="5.89" fill="white"/>
<circle cx="42.26" cy="18.45" r="5.89" fill="none" stroke="black" stroke-width="0.25px"/>
<circle cx="42.26" cy="30.35" r="5.89" fill="white"/>
<circle cx="42.26" cy="30.35" r="5.89" fill="none" stroke="black" stroke-width="0.25px"/>
<circle cx="42.26" cy="42.26" r="5.89" fill="white"/>
<circle cx="42.26" cy="42.26" r="5.89" fill="none" stroke="black" stroke-width="0.25px"/>
<circle cx="42.26" cy="54.17" r="6.01" fill="black"/>
<circle cx="42.26" cy="66.07" r="5.89" fill="white"/>
<circle cx="42.26" cy="66.07" r="5.89" fill="none" stroke="black" stroke-width="0.25px"/>
<circle cx="42.26" cy="77.98" r="6.01" fill="black"/>
<circle cx="42.26" cy="113.69" r="1.27" fill="black"/>
<circle cx="42.26" cy="161.31" r="6.01" fill="black"/>
<circle cx="42.26" cy="185.13" r="5.89" fill="white"/>
<circle cx="42.26" cy="185.13" r="5.89" fill="none" stroke="black" stroke-width="0.25px"/>
<circle cx="54.17" cy="18.45" r="6.01" fill="black"/>
<circle cx="54.17" cy="42.26" r="5.89" fill="white"/>
<circle cx="54.17" cy="42.26" r="5.89" fill="none" stroke="black" stroke-width="0.25px"/>
<circle cx="54.17" cy="54.17" r="5.89" fill="white"/>
<circle cx="54.17" cy="54.17" r="5.89" fill="none" stroke="black" stroke-width="0.25px"/>
<circle cx="54.17" cy="66.07" r="5.89" fill="white"/>
<circle cx="54.17" cy="66.07" r="5.89" fill="none" stroke="black" stroke-width="0.25px"/>
<circle cx="54.17" cy="101.79" r="5.89" fill="white"/>
<circle cx="54.17" cy="101.79" r="5.89" fill="none" stroke="black" stroke-width="0.25px"/>
<circle cx="54.17" cy="125.60" r="6.01" fill="black"/>
<circle cx="66.07" cy="30.35" r="6.01" fill="black"/>
<circle cx="66.07" cy="185.13" r="5.89" fill="white"/>
<circle cx="66.07" cy="185.13" r="5.89" fill="none" stroke="black" stroke-width="0.25px"/>
<circle cx="77.98" cy="42.26" r="6.01" fill="black"/>
<circle cx="77.98" cy="54.17" r="5.89" fill="white"/>
<circle cx="77.98" cy="54.17" r="5.89" fill="none" stroke="black" stroke-width="0.25px"/>
<circle cx="89.88" cy="30.35" r="5.89" fill="white"/>
<circle cx="89.88" cy="30.35" r="5.89" fill="none" stroke="black" stroke-width="0.25px"/>
<circle cx="89.88" cy="54.17" r="5.89" fill="white"/>
<circle cx="89.88" cy="54.17" r="5.89" fill="none" stroke="black" stroke-width="0.25px"/>
<circle cx="113.69" cy="42.26" r="1.27" fill="black"/>
<circle cx="113.69" cy="113.69" r="1.27" fill="black"/>
<circle cx="113.69" cy="185.13" r="1.27" fill="black"/>
<circle cx="113.69" cy="197.03" r="5.89" fill="white"/>
<circle cx="113.69" cy="197.03" r="5.89" fill="none" stroke="black" stroke-width="0.25px"/>
<circle cx="185.13" cy="42.26" r="6.01" fill="black"/>
<circle cx="185.13" cy="113.69" r="1.27" fill="black"/>
<circle cx="185.13" cy="185.13" r="1.27" fill="black"/>
<circle cx="185.13" cy="197.03" r="6.01" fill="black"/>
<circle cx="197.03" cy="66.07" r="5.89" fill="white"/>
<circle cx="197.03" cy="66.07" r="5.89" fill="none" stroke="black" stroke-width="0.25px"/>
<circle cx="197.03" cy="173.22" r="6.01" fill="black"/>
<path d="
M7.76 17.33
L7.76 17.33
L7.76 17.33
C7.76 17.33 7.76 17.33 7.76 17.33
Z
M4.74 14.67
C4.26 14.67 3.87 14.86 3.57 15.24
C3.28 15.61 3.12 16.15 3.07 16.86
L3.07 16.99
L3.19 17.01
L3.78 17.10
L3.95 17.13
L3.95 16.96
C3.95 16.53 4.03 16.21 4.18 15.99
C4.32 15.78 4.50 15.68 4.72 15.68
C4.72 15.68 4.72 15.68 4.72 15.68
C4.72 15.68 4.72 15.68 4.72 15.68
C4.92 15.68 5.09 15.77 5.23 15.96
C5.39 16.17 5.46 16.43 5.46 16.77
C5.46 17.06 5.38 17.38 5.22 17.72
C5.06 18.08 4.72 18.58 4.19 19.24
C3.72 19.83 3.40 20.33 3.22 20.77
C3.04 21.21 2.96 21.61 2.97 21.97
L2.97 22.11
L6.34 22.11
L6.34 21.96
L6.34 21.12
L6.34 20.98
L4.12 20.98
C4.16 20.90 4.21 20.81 4.27 20.72
C4.36 20.57 4.58 20.27 4.92 19.84
C5.46 19.14 5.83 18.57 6.03 18.15
C6.23 17.71 6.33 17.26 6.33 16.78
C6.33 16.25 6.20 15.77 5.94 15.34
C5.67 14.90 5.27 14.67 4.74 14.67
Z
M7.23 14.80
L7.22 14.92
L6.76 18.58
L6.75 18.71
L6.88 18.74
L7.42 18.84
L7.53 18.87
L7.58 18.76
C7.65 18.56 7.76 18.41 7.89 18.31
C8.02 18.21 8.15 18.16 8.29 18.16
C8.29 18.16 8.29 18.16 8.29 18.16
C8.29 18.16 8.29 18.16 8.30 18.16
C8.53 18.16 8.73 18.27 8.89 18.51
C9.07 18.77 9.15 19.14 9.15 19.62
C9.15 20.13 9.06 20.53 8.88 20.82
C8.71 21.09 8.52 21.22 8.30 21.22
C8.30 21.22 8.30 21.22 8.30 21.22
C8.29 21.22 8.29 21.22 8.29 21.22
C8.12 21.22 7.97 21.13 7.84 20.95
C7.69 20.75 7.59 20.43 7.55 20.01
L7.53 19.86
L7.39 19.88
L6.79 19.96
L6.65 19.97
L6.66 20.11
C6.70 20.76 6.87 21.27 7.17 21.65
C7.48 22.03 7.85 22.23 8.30 22.23
C8.84 22.23 9.27 21.95 9.59 21.41
C9.89 20.89 10.04 20.27 10.04 19.55
C10.04 18.81 9.89 18.23 9.58 17.78
C9.27 17.33 8.89 17.10 8.45 17.10
C8.21 17.10 7.98 17.18 7.76 17.33
L7.76 17.33
L7.94 15.92
L9.82 15.92
L9.82 15.77
L9.82 14.94
L9.82 14.80
Z
" fill="white" fill-rule="nonzero" />
<path d="
M8.30 51.25
C8.59 51.25 8.82 51.45 8.99 51.84
C9.17 52.23 9.26 53.01 9.26 54.17
C9.26 55.31 9.17 56.08 9.00 56.48
C8.82 56.88 8.60 57.08 8.34 57.08
C8.06 57.08 7.83 56.88 7.66 56.49
C7.48 56.10 7.39 55.32 7.39 54.17
C7.39 53.02 7.48 52.25 7.65 51.85
C7.83 51.45 8.04 51.25 8.30 51.25
Z
M8.33 50.53
C7.83 50.53 7.45 50.83 7.19 51.45
C6.93 52.06 6.80 52.97 6.80 54.17
C6.80 55.50 6.95 56.44 7.23 56.98
C7.51 57.53 7.88 57.80 8.32 57.80
C8.83 57.80 9.21 57.49 9.47 56.87
C9.72 56.26 9.85 55.35 9.85 54.17
C9.85 52.84 9.70 51.88 9.38 51.27
C9.13 50.78 8.78 50.53 8.33 50.53
Z
M4.65 50.53
C4.29 50.53 3.98 50.68 3.73 50.99
C3.47 51.30 3.31 51.76 3.24 52.37
L3.81 52.53
C3.85 52.10 3.94 51.78 4.10 51.56
C4.25 51.35 4.43 51.25 4.65 51.25
C4.87 51.25 5.05 51.35 5.19 51.55
C5.34 51.75 5.42 52.02 5.42 52.35
C5.42 52.72 5.33 53.01 5.15 53.22
C4.98 53.44 4.75 53.55 4.46 53.55
L4.37 53.54
L4.31 54.31
C4.47 54.24 4.60 54.21 4.71 54.21
C4.97 54.21 5.19 54.34 5.36 54.59
C5.54 54.84 5.63 55.17 5.63 55.59
C5.63 56.03 5.53 56.39 5.34 56.66
C5.15 56.94 4.92 57.08 4.66 57.08
C4.17 57.08 3.87 56.61 3.75 55.68
L3.18 55.80
C3.22 56.41 3.37 56.90 3.65 57.26
C3.93 57.62 4.27 57.80 4.67 57.80
C5.10 57.80 5.47 57.60 5.77 57.18
C6.08 56.76 6.24 56.23 6.24 55.57
C6.24 55.27 6.20 54.99 6.12 54.74
C6.05 54.49 5.95 54.29 5.83 54.14
C5.71 53.99 5.55 53.88 5.37 53.82
C5.57 53.68 5.72 53.48 5.84 53.23
C5.95 52.98 6.01 52.70 6.01 52.37
C6.01 51.84 5.87 51.40 5.61 51.05
C5.35 50.70 5.02 50.53 4.65 50.53
Z
" fill="black" fill-rule="nonzero" />
<path d="
M16.65 2.83
C16.16 2.83 15.77 3.02 15.47 3.40
C15.19 3.77 15.02 4.31 14.98 5.02
L14.97 5.15
L15.10 5.17
L15.69 5.26
L15.85 5.29
L15.85 5.12
C15.85 4.69 15.93 4.36 16.09 4.14
C16.23 3.94 16.41 3.83 16.62 3.83
C16.62 3.83 16.62 3.83 16.63 3.83
C16.63 3.83 16.63 3.83 16.63 3.83
C16.83 3.83 17.00 3.93 17.14 4.12
C17.29 4.32 17.37 4.59 17.37 4.92
C17.37 5.21 17.29 5.53 17.13 5.88
C16.97 6.23 16.62 6.74 16.10 7.40
C15.63 7.98 15.31 8.49 15.13 8.92
C14.95 9.36 14.86 9.76 14.87 10.12
L14.87 10.26
L18.24 10.26
L18.24 10.12
L18.24 9.28
L18.24 9.14
L16.03 9.14
C16.07 9.05 16.12 8.96 16.17 8.88
C16.27 8.72 16.49 8.43 16.83 8.00
C17.37 7.29 17.74 6.73 17.94 6.30
C18.14 5.87 18.24 5.41 18.24 4.94
C18.24 4.40 18.11 3.92 17.85 3.50
C17.58 3.05 17.17 2.83 16.65 2.83
Z
M18.61 2.95
L18.61 3.09
L18.61 3.93
L18.61 4.07
L20.79 4.07
C20.54 4.54 20.31 5.09 20.09 5.72
C19.83 6.45 19.63 7.21 19.49 8.01
C19.34 8.81 19.27 9.51 19.26 10.12
L19.26 10.26
L19.99 10.26
L20.13 10.26
L20.13 10.13
C20.18 8.98 20.38 7.83 20.72 6.67
C21.06 5.51 21.45 4.56 21.89 3.84
L21.91 3.81
L21.91 3.77
L21.91 3.09
L21.91 2.95
Z
" fill="white" fill-rule="nonzero" />
<path d="
M16.65 14.87
C16.21 14.87 15.85 15.05 15.59 15.39
C15.32 15.74 15.16 16.25 15.12 16.93
L15.71 17.03
C15.71 16.57 15.80 16.21 15.97 15.97
C16.14 15.72 16.36 15.60 16.63 15.60
C16.87 15.60 17.08 15.71 17.25 15.94
C17.42 16.17 17.51 16.46 17.51 16.83
C17.51 17.14 17.43 17.48 17.26 17.84
C17.09 18.21 16.74 18.72 16.21 19.39
C15.75 19.96 15.43 20.46 15.26 20.88
C15.09 21.30 15.00 21.68 15.01 22.02
L18.10 22.02
L18.10 21.18
L15.81 21.18
C15.87 21.03 15.95 20.87 16.05 20.71
C16.15 20.55 16.37 20.25 16.72 19.81
C17.25 19.12 17.62 18.57 17.81 18.15
C18.00 17.73 18.09 17.30 18.09 16.85
C18.09 16.33 17.97 15.88 17.73 15.48
C17.48 15.07 17.12 14.87 16.65 14.87
Z
M20.28 14.87
C19.84 14.87 19.48 15.05 19.22 15.39
C18.95 15.74 18.79 16.25 18.75 16.93
L19.34 17.03
C19.34 16.57 19.43 16.21 19.60 15.97
C19.77 15.72 19.99 15.60 20.26 15.60
C20.50 15.60 20.71 15.71 20.88 15.94
C21.05 16.17 21.14 16.46 21.14 16.83
C21.14 17.14 21.06 17.48 20.89 17.84
C20.72 18.21 20.37 18.72 19.84 19.39
C19.38 19.96 19.06 20.46 18.89 20.88
C18.72 21.30 18.64 21.68 18.64 22.02
L21.73 22.02
L21.73 21.18
L19.44 21.18
C19.50 21.03 19.58 20.87 19.68 20.71
C19.78 20.55 20.00 20.25 20.35 19.81
C20.88 19.12 21.25 18.57 21.44 18.15
C21.63 17.73 21.73 17.30 21.73 16.85
C21.73 16.33 21.60 15.88 21.36 15.48
C21.11 15.07 20.75 14.87 20.28 14.87
Z
" fill="black" fill-rule="nonzero" />
<path d="
M16.65 26.64
C16.16 26.64 15.77 26.83 15.47 27.21
C15.19 27.58 15.02 28.12 14.98 28.83
L14.97 28.96
L15.10 28.98
L15.69 29.07
L15.85 29.10
L15.85 28.93
C15.85 28.50 15.93 28.17 16.09 27.95
C16.23 27.75 16.41 27.64 16.62 27.64
C16.62 27.64 16.62 27.64 16.63 27.64
C16.63 27.64 16.63 27.64 16.63 27.64
C16.83 27.64 17.00 27.74 17.14 27.93
C17.29 28.13 17.37 28.40 17.37 28.73
C17.37 29.03 17.29 29.34 17.13 29.69
C16.97 30.04 16.62 30.55 16.10 31.21
C15.63 31.79 15.31 32.30 15.13 32.73
C14.95 33.17 14.86 33.57 14.87 33.93
L14.87 34.07
L18.24 34.07
L18.24 33.93
L18.24 33.09
L18.24 32.95
L16.03 32.95
C16.07 32.86 16.12 32.78 16.17 32.69
C16.27 32.53 16.49 32.24 16.83 31.81
C17.37 31.10 17.74 30.54 17.94 30.11
C18.14 29.68 18.24 29.22 18.24 28.75
C18.24 28.21 18.11 27.73 17.85 27.31
C17.58 26.86 17.17 26.64 16.65 26.64
Z
M20.39 26.64
L20.36 26.74
C20.27 27.03 20.10 27.34 19.87 27.65
C19.64 27.97 19.37 28.23 19.07 28.45
L19.01 28.49
L19.01 28.57
L19.01 29.41
L19.01 29.65
L19.22 29.54
C19.41 29.43 19.63 29.27 19.86 29.06
C19.97 28.96 20.06 28.86 20.15 28.76
L20.15 28.76
L20.15 33.93
L20.15 34.07
L21.01 34.07
L21.01 33.93
L21.01 26.78
L21.01 26.64
Z
" fill="white" fill-rule="nonzero" />
<path d="
M20.39 38.48
L20.36 38.58
C20.27 38.87 20.10 39.18 19.87 39.49
C19.64 39.81 19.37 40.08 19.07 40.29
L19.01 40.34
L19.01 40.41
L19.01 41.25
L19.01 41.50
L19.01 41.50
L19.22 41.38
C19.41 41.27 19.63 41.11 19.86 40.90
C19.97 40.80 20.06 40.70 20.15 40.61
L20.15 40.61
L20.15 45.77
L20.15 45.91
L21.01 45.91
L21.01 45.77
L21.01 38.62
L21.01 38.48
Z
M16.55 38.48
C16.15 38.48 15.80 38.65 15.52 39.00
C15.25 39.33 15.08 39.81 15.00 40.45
L14.99 40.57
L15.10 40.60
L15.68 40.76
L15.84 40.80
L15.85 40.64
C15.89 40.23 15.98 39.93 16.12 39.74
C16.24 39.57 16.39 39.48 16.56 39.48
C16.56 39.48 16.56 39.48 16.56 39.48
C16.56 39.48 16.56 39.48 16.56 39.48
C16.73 39.48 16.87 39.56 16.99 39.73
C17.12 39.90 17.18 40.14 17.18 40.45
C17.18 40.78 17.10 41.04 16.95 41.23
C16.80 41.41 16.61 41.50 16.38 41.50
L16.38 41.50
L16.29 41.49
L16.15 41.48
L16.14 41.62
L16.07 42.39
L16.05 42.62
L16.27 42.53
C16.41 42.47 16.53 42.45 16.62 42.45
C16.62 42.45 16.62 42.45 16.62 42.45
C16.62 42.45 16.62 42.45 16.62 42.45
C16.83 42.45 17.00 42.55 17.15 42.76
C17.31 42.99 17.39 43.30 17.39 43.68
C17.39 44.09 17.30 44.43 17.13 44.68
C16.97 44.91 16.78 45.03 16.57 45.03
C16.57 45.03 16.56 45.03 16.56 45.03
C16.56 45.03 16.56 45.03 16.56 45.03
C16.37 45.03 16.21 44.94 16.09 44.75
C15.95 44.53 15.86 44.20 15.80 43.76
L15.78 43.61
L15.63 43.64
L15.05 43.75
L14.93 43.78
L14.94 43.90
C14.98 44.54 15.15 45.05 15.44 45.44
C15.75 45.84 16.13 46.04 16.57 46.04
C17.05 46.04 17.46 45.81 17.79 45.36
C18.12 44.92 18.28 44.35 18.28 43.67
C18.28 43.35 18.24 43.05 18.16 42.79
C18.08 42.52 17.98 42.31 17.84 42.15
C17.75 42.04 17.65 41.95 17.53 41.88
L17.53 41.88
C17.67 41.74 17.78 41.58 17.87 41.39
C17.99 41.12 18.05 40.81 18.05 40.47
C18.05 39.90 17.91 39.44 17.63 39.06
C17.34 38.67 16.98 38.48 16.55 38.48
Z
" fill="white" fill-rule="nonzero" />
<path d="
M20.24 51.39
C20.25 51.39 20.25 51.39 20.25 51.39
C20.25 51.39 20.25 51.39 20.25 51.39
C20.43 51.39 20.60 51.52 20.75 51.76
C20.92 52.03 21.00 52.41 21.00 52.89
C21.00 53.37 20.92 53.74 20.76 54.00
C20.62 54.23 20.44 54.35 20.24 54.35
C20.24 54.35 20.24 54.35 20.24 54.35
C20.24 54.35 20.23 54.35 20.23 54.35
C20.03 54.35 19.85 54.23 19.69 54.00
C19.53 53.75 19.44 53.40 19.44 52.96
C19.44 52.47 19.53 52.08 19.71 51.79
C19.87 51.53 20.05 51.39 20.24 51.39
Z
M16.65 50.39
C16.16 50.39 15.77 50.58 15.47 50.96
C15.19 51.33 15.02 51.87 14.98 52.58
L14.97 52.71
L15.10 52.73
L15.69 52.82
L15.85 52.85
L15.85 52.68
C15.85 52.25 15.93 51.92 16.09 51.70
C16.23 51.50 16.41 51.39 16.62 51.39
C16.62 51.39 16.62 51.39 16.63 51.39
C16.63 51.39 16.63 51.39 16.63 51.39
C16.83 51.39 17.00 51.49 17.14 51.68
C17.29 51.88 17.37 52.15 17.37 52.48
C17.37 52.78 17.29 53.10 17.13 53.44
C16.97 53.79 16.62 54.30 16.10 54.96
C15.63 55.54 15.31 56.05 15.13 56.48
C14.95 56.92 14.86 57.32 14.87 57.68
L14.87 57.82
L18.24 57.82
L18.24 57.68
L18.24 56.84
L18.24 56.70
L16.03 56.70
C16.07 56.61 16.12 56.53 16.17 56.44
C16.27 56.28 16.49 55.99 16.83 55.56
C17.37 54.85 17.74 54.29 17.94 53.86
C18.14 53.43 18.24 52.98 18.24 52.50
C18.24 51.96 18.11 51.48 17.85 51.06
C17.58 50.61 17.17 50.39 16.65 50.39
Z
M20.18 50.39
C19.72 50.39 19.34 50.62 19.02 51.09
C18.72 51.55 18.57 52.16 18.57 52.93
C18.57 53.68 18.71 54.28 19.00 54.72
C19.31 55.18 19.68 55.41 20.11 55.41
C20.35 55.41 20.59 55.31 20.82 55.12
C20.90 55.05 20.98 54.97 21.06 54.87
L21.06 54.87
C21.04 55.27 20.99 55.62 20.91 55.93
C20.81 56.32 20.68 56.59 20.54 56.74
C20.42 56.87 20.28 56.94 20.13 56.94
C20.13 56.94 20.12 56.94 20.12 56.94
C20.12 56.94 20.12 56.94 20.12 56.94
C19.96 56.94 19.82 56.87 19.72 56.72
C19.61 56.55 19.53 56.29 19.49 55.94
L19.47 55.79
L19.33 55.82
L18.77 55.89
L18.64 55.91
L18.65 56.04
C18.70 56.65 18.85 57.11 19.11 57.44
C19.38 57.77 19.71 57.94 20.11 57.94
C20.46 57.94 20.78 57.80 21.06 57.53
C21.33 57.26 21.54 56.84 21.70 56.28
C21.85 55.73 21.93 54.95 21.93 53.96
C21.93 53.07 21.85 52.39 21.71 51.91
C21.57 51.42 21.36 51.04 21.09 50.79
C20.81 50.52 20.51 50.39 20.18 50.39
Z
" fill="white" fill-rule="nonzero" />
<path d="
M20.24 63.15
C20.45 63.15 20.63 63.26 20.78 63.47
C20.93 63.68 21.01 63.96 21.01 64.29
C21.01 64.61 20.93 64.88 20.78 65.08
C20.64 65.29 20.46 65.39 20.25 65.39
C20.03 65.39 19.85 65.28 19.70 65.08
C19.56 64.87 19.48 64.59 19.48 64.24
C19.48 63.93 19.56 63.67 19.71 63.46
C19.85 63.26 20.03 63.15 20.24 63.15
Z
M20.23 66.10
C20.50 66.10 20.72 66.24 20.91 66.50
C21.10 66.77 21.20 67.12 21.20 67.56
C21.20 67.99 21.10 68.34 20.92 68.60
C20.74 68.86 20.51 68.99 20.25 68.99
C19.99 68.99 19.76 68.85 19.57 68.59
C19.39 68.32 19.29 67.97 19.29 67.53
C19.29 67.11 19.38 66.77 19.57 66.50
C19.75 66.23 19.97 66.10 20.23 66.10
Z
M16.65 62.43
C16.21 62.43 15.85 62.61 15.59 62.95
C15.32 63.30 15.16 63.81 15.12 64.49
L15.71 64.59
C15.71 64.13 15.80 63.77 15.97 63.53
C16.14 63.28 16.36 63.16 16.63 63.16
C16.87 63.16 17.08 63.27 17.25 63.50
C17.42 63.73 17.51 64.02 17.51 64.39
C17.51 64.70 17.43 65.04 17.26 65.40
C17.09 65.77 16.74 66.29 16.21 66.95
C15.75 67.53 15.43 68.02 15.26 68.44
C15.09 68.86 15.00 69.25 15.01 69.59
L18.10 69.59
L18.10 68.75
L15.81 68.75
C15.87 68.59 15.95 68.43 16.05 68.27
C16.15 68.11 16.37 67.81 16.72 67.38
C17.25 66.68 17.62 66.13 17.81 65.71
C18.00 65.29 18.09 64.86 18.09 64.41
C18.09 63.89 17.97 63.44 17.73 63.04
C17.48 62.63 17.12 62.43 16.65 62.43
Z
M20.24 62.43
C19.85 62.43 19.53 62.60 19.27 62.94
C19.02 63.28 18.89 63.72 18.89 64.27
C18.89 64.63 18.95 64.93 19.07 65.17
C19.19 65.41 19.36 65.59 19.59 65.72
C19.31 65.83 19.10 66.04 18.94 66.35
C18.78 66.66 18.71 67.05 18.71 67.53
C18.71 68.18 18.85 68.71 19.15 69.11
C19.44 69.51 19.81 69.71 20.25 69.71
C20.68 69.71 21.05 69.51 21.34 69.11
C21.64 68.71 21.78 68.19 21.78 67.55
C21.78 67.09 21.71 66.71 21.56 66.40
C21.40 66.09 21.19 65.86 20.90 65.72
C21.14 65.59 21.31 65.40 21.42 65.17
C21.54 64.93 21.59 64.64 21.59 64.29
C21.59 63.75 21.46 63.30 21.21 62.95
C20.95 62.61 20.63 62.43 20.24 62.43
Z
" fill="black" fill-rule="nonzero" />
<path d="
M28.55 14.67
C28.07 14.67 27.68 14.86 27.38 15.24
C27.09 15.61 26.93 16.15 26.89 16.86
L26.88 16.99
L27.01 17.01
L27.60 17.10
L27.76 17.13
L27.76 16.96
C27.76 16.53 27.84 16.21 27.99 15.98
C28.13 15.78 28.31 15.68 28.53 15.68
C28.53 15.68 28.53 15.68 28.53 15.68
C28.53 15.68 28.53 15.68 28.53 15.68
C28.73 15.68 28.91 15.77 29.05 15.96
C29.20 16.16 29.27 16.43 29.27 16.76
C29.27 17.06 29.19 17.38 29.04 17.72
C28.87 18.08 28.53 18.58 28.00 19.24
C27.53 19.82 27.21 20.33 27.03 20.77
C26.85 21.21 26.77 21.60 26.78 21.96
L26.78 22.10
L30.15 22.10
L30.15 21.96
L30.15 21.12
L30.15 20.98
L27.93 20.98
C27.98 20.89 28.02 20.81 28.08 20.72
C28.18 20.57 28.39 20.27 28.73 19.84
C29.28 19.14 29.65 18.57 29.84 18.15
C30.04 17.71 30.14 17.26 30.14 16.78
C30.14 16.24 30.01 15.76 29.75 15.34
C29.48 14.89 29.08 14.67 28.55 14.67
Z
M32.09 14.67
C31.68 14.67 31.34 14.84 31.06 15.19
C30.79 15.52 30.61 16.00 30.54 16.64
L30.52 16.76
L30.64 16.79
L31.21 16.95
L31.37 16.99
L31.39 16.82
C31.43 16.42 31.52 16.12 31.65 15.93
C31.77 15.76 31.92 15.67 32.09 15.67
C32.09 15.67 32.09 15.67 32.10 15.67
C32.10 15.67 32.10 15.67 32.10 15.67
C32.26 15.67 32.40 15.75 32.52 15.92
C32.65 16.09 32.72 16.33 32.72 16.64
C32.72 16.97 32.64 17.23 32.48 17.42
C32.34 17.60 32.15 17.69 31.91 17.69
L31.91 17.69
L31.83 17.68
L31.69 17.67
L31.67 17.81
L31.61 18.58
L31.59 18.81
L31.80 18.72
C31.95 18.66 32.06 18.63 32.15 18.63
C32.15 18.63 32.15 18.63 32.15 18.63
C32.15 18.63 32.16 18.63 32.16 18.63
C32.36 18.63 32.54 18.74 32.69 18.95
C32.85 19.18 32.93 19.49 32.93 19.87
C32.93 20.28 32.84 20.61 32.66 20.87
C32.50 21.10 32.31 21.22 32.10 21.22
C32.10 21.22 32.10 21.22 32.10 21.22
C32.10 21.22 32.10 21.22 32.10 21.22
C31.91 21.22 31.75 21.13 31.63 20.94
C31.49 20.72 31.39 20.39 31.33 19.95
L31.31 19.80
L31.17 19.83
L30.59 19.94
L30.47 19.97
L30.48 20.09
C30.52 20.73 30.69 21.24 30.98 21.63
C31.29 22.03 31.66 22.23 32.11 22.23
C32.58 22.23 32.99 22.00 33.33 21.55
C33.66 21.11 33.82 20.54 33.82 19.86
C33.82 19.54 33.78 19.24 33.70 18.98
C33.62 18.71 33.51 18.50 33.38 18.33
C33.29 18.23 33.19 18.14 33.07 18.07
L33.07 18.07
C33.21 17.93 33.32 17.77 33.41 17.57
C33.53 17.31 33.59 17.00 33.59 16.66
C33.59 16.09 33.45 15.62 33.16 15.25
C32.87 14.86 32.51 14.67 32.09 14.67
Z
" fill="white" fill-rule="nonzero" />
<path d="
M32.11 27.44
C32.40 27.44 32.63 27.64 32.80 28.03
C32.98 28.42 33.07 29.20 33.07 30.36
C33.07 31.50 32.98 32.28 32.81 32.67
C32.63 33.07 32.41 33.27 32.15 33.27
C31.87 33.27 31.65 33.07 31.47 32.68
C31.29 32.29 31.20 31.51 31.20 30.36
C31.20 29.21 31.29 28.44 31.46 28.04
C31.64 27.64 31.86 27.44 32.11 27.44
Z
M28.55 26.72
C28.11 26.72 27.76 26.89 27.49 27.23
C27.22 27.58 27.07 28.09 27.03 28.78
L27.62 28.87
C27.62 28.41 27.70 28.06 27.87 27.81
C28.05 27.56 28.26 27.44 28.53 27.44
C28.78 27.44 28.99 27.56 29.16 27.78
C29.33 28.01 29.41 28.31 29.41 28.67
C29.41 28.98 29.33 29.32 29.16 29.69
C29.00 30.05 28.65 30.57 28.11 31.24
C27.65 31.81 27.34 32.31 27.17 32.73
C26.99 33.15 26.91 33.53 26.92 33.87
L30.01 33.87
L30.01 33.03
L27.71 33.03
C27.78 32.87 27.86 32.71 27.96 32.55
C28.06 32.39 28.28 32.10 28.62 31.66
C29.16 30.97 29.52 30.41 29.71 29.99
C29.90 29.58 30.00 29.14 30.00 28.69
C30.00 28.18 29.88 27.72 29.63 27.32
C29.39 26.92 29.03 26.72 28.55 26.72
Z
M32.14 26.72
C31.64 26.72 31.26 27.03 31.00 27.64
C30.74 28.26 30.61 29.16 30.61 30.36
C30.61 31.69 30.76 32.63 31.04 33.17
C31.32 33.72 31.69 33.99 32.13 33.99
C32.64 33.99 33.02 33.68 33.28 33.07
C33.53 32.45 33.66 31.55 33.66 30.36
C33.66 29.03 33.51 28.07 33.20 27.47
C32.94 26.97 32.59 26.72 32.14 26.72
Z
" fill="black" fill-rule="nonzero" />
<path d="
M32.15 39.49
C32.15 39.49 32.15 39.49 32.15 39.49
C32.15 39.49 32.16 39.49 32.16 39.49
C32.34 39.49 32.51 39.61 32.66 39.86
C32.83 40.13 32.91 40.50 32.91 40.98
C32.91 41.47 32.83 41.84 32.67 42.09
C32.52 42.33 32.35 42.45 32.15 42.45
C32.14 42.45 32.14 42.45 32.14 42.45
C32.14 42.45 32.14 42.45 32.14 42.45
C31.93 42.45 31.75 42.33 31.60 42.09
C31.43 41.84 31.35 41.50 31.35 41.06
C31.35 40.57 31.44 40.18 31.62 39.89
C31.78 39.62 31.96 39.49 32.15 39.49
Z
M28.67 38.48
L28.64 38.58
C28.54 38.88 28.38 39.18 28.15 39.50
C27.91 39.81 27.65 40.08 27.34 40.30
L27.28 40.34
L27.28 40.41
L27.28 41.26
L27.28 41.50
L27.49 41.38
C27.69 41.27 27.90 41.11 28.13 40.90
C28.24 40.80 28.34 40.71 28.43 40.61
L28.43 40.61
L28.43 45.77
L28.43 45.92
L29.29 45.92
L29.29 45.77
L29.29 38.62
L29.29 38.48
Z
M32.09 38.48
C31.63 38.48 31.24 38.72 30.93 39.19
C30.62 39.64 30.47 40.25 30.47 41.03
C30.47 41.78 30.62 42.37 30.91 42.81
C31.22 43.27 31.58 43.50 32.01 43.50
C32.26 43.50 32.49 43.41 32.72 43.22
C32.81 43.14 32.89 43.06 32.96 42.97
L32.96 42.97
C32.94 43.36 32.89 43.71 32.81 44.02
C32.71 44.42 32.59 44.69 32.45 44.83
C32.32 44.97 32.18 45.04 32.03 45.04
C32.03 45.04 32.03 45.04 32.03 45.04
C32.03 45.04 32.03 45.04 32.03 45.04
C31.86 45.04 31.73 44.96 31.63 44.81
C31.51 44.65 31.43 44.39 31.39 44.03
L31.38 43.89
L31.23 43.91
L30.68 43.99
L30.55 44.01
L30.56 44.14
C30.61 44.74 30.76 45.20 31.02 45.53
C31.28 45.87 31.62 46.04 32.02 46.04
C32.37 46.04 32.69 45.90 32.97 45.62
C33.24 45.36 33.45 44.94 33.60 44.37
C33.76 43.82 33.83 43.05 33.83 42.06
C33.83 41.17 33.76 40.48 33.62 40.00
C33.47 39.51 33.27 39.14 33.00 38.88
C32.72 38.61 32.42 38.48 32.09 38.48
Z
" fill="white" fill-rule="nonzero" />
<path d="
M31.57 53.05
L31.57 53.05
L31.57 53.05
C31.57 53.05 31.57 53.05 31.57 53.05
Z
M28.67 50.39
L28.64 50.49
C28.54 50.78 28.38 51.09 28.15 51.40
C27.91 51.72 27.65 51.98 27.34 52.20
L27.28 52.24
L27.28 52.32
L27.28 53.16
L27.28 53.40
L27.49 53.29
C27.69 53.18 27.90 53.02 28.13 52.81
C28.24 52.71 28.34 52.61 28.43 52.51
L28.43 52.51
L28.43 57.68
L28.43 57.82
L29.29 57.82
L29.29 57.68
L29.29 50.53
L29.29 50.39
Z
M31.04 50.51
L31.03 50.64
L30.57 54.30
L30.56 54.43
L30.69 54.45
L31.23 54.56
L31.34 54.58
L31.39 54.47
C31.47 54.28 31.57 54.13 31.70 54.02
C31.83 53.92 31.96 53.87 32.10 53.87
C32.10 53.87 32.10 53.87 32.10 53.87
C32.10 53.87 32.11 53.87 32.11 53.87
C32.34 53.87 32.54 53.99 32.70 54.23
C32.88 54.49 32.96 54.85 32.96 55.33
C32.96 55.85 32.87 56.25 32.69 56.54
C32.52 56.81 32.33 56.94 32.11 56.94
C32.11 56.94 32.11 56.94 32.11 56.94
C32.11 56.94 32.10 56.94 32.10 56.94
C31.93 56.94 31.78 56.85 31.65 56.67
C31.50 56.46 31.40 56.15 31.36 55.72
L31.34 55.58
L31.20 55.60
L30.60 55.67
L30.46 55.69
L30.47 55.82
C30.51 56.47 30.68 56.99 30.98 57.36
C31.29 57.75 31.67 57.94 32.11 57.94
C32.66 57.94 33.08 57.67 33.40 57.13
C33.70 56.61 33.85 55.99 33.85 55.27
C33.85 54.53 33.70 53.94 33.40 53.50
C33.08 53.05 32.70 52.82 32.26 52.82
C32.02 52.82 31.79 52.89 31.57 53.05
L31.57 53.05
L31.75 51.63
L33.63 51.63
L33.63 51.49
L33.63 50.65
L33.63 50.51
Z
" fill="white" fill-rule="nonzero" />
<path d="
M32.18 77.64
C32.43 77.64 32.65 77.78 32.82 78.06
C33.00 78.34 33.09 78.73 33.09 79.24
C33.09 79.75 33.00 80.16 32.82 80.45
C32.64 80.75 32.44 80.89 32.22 80.89
C31.96 80.89 31.73 80.74 31.54 80.42
C31.35 80.11 31.25 79.70 31.25 79.18
C31.25 78.71 31.34 78.34 31.53 78.06
C31.71 77.78 31.93 77.64 32.18 77.64
Z
M28.55 74.34
C28.11 74.34 27.76 74.51 27.49 74.86
C27.22 75.20 27.07 75.72 27.03 76.40
L27.62 76.49
C27.62 76.03 27.70 75.68 27.87 75.43
C28.05 75.19 28.26 75.06 28.53 75.06
C28.78 75.06 28.99 75.18 29.16 75.41
C29.33 75.63 29.41 75.93 29.41 76.29
C29.41 76.61 29.33 76.95 29.16 77.31
C29.00 77.67 28.65 78.19 28.11 78.86
C27.65 79.43 27.34 79.93 27.17 80.35
C26.99 80.77 26.91 81.15 26.92 81.49
L30.01 81.49
L30.01 80.65
L27.71 80.65
C27.78 80.49 27.86 80.33 27.96 80.17
C28.06 80.02 28.28 79.72 28.62 79.28
C29.16 78.59 29.52 78.03 29.71 77.62
C29.90 77.20 30.00 76.77 30.00 76.31
C30.00 75.80 29.88 75.34 29.63 74.94
C29.39 74.54 29.03 74.34 28.55 74.34
Z
M32.26 74.34
C31.77 74.34 31.37 74.63 31.06 75.22
C30.74 75.80 30.59 76.78 30.59 78.16
C30.59 79.40 30.74 80.28 31.05 80.82
C31.35 81.35 31.74 81.61 32.21 81.61
C32.47 81.61 32.71 81.52 32.93 81.34
C33.15 81.15 33.33 80.87 33.47 80.48
C33.60 80.09 33.67 79.66 33.67 79.18
C33.67 78.48 33.54 77.92 33.26 77.50
C32.98 77.08 32.66 76.87 32.29 76.87
C32.07 76.87 31.86 76.95 31.66 77.11
C31.46 77.27 31.29 77.51 31.16 77.82
C31.16 76.94 31.25 76.28 31.42 75.84
C31.63 75.32 31.89 75.06 32.23 75.06
C32.44 75.06 32.63 75.17 32.78 75.40
C32.89 75.55 32.97 75.81 33.02 76.18
L33.59 76.11
C33.54 75.54 33.39 75.10 33.15 74.79
C32.91 74.49 32.62 74.34 32.26 74.34
Z
" fill="black" fill-rule="nonzero" />
<path d="
M32.18 86.24
C31.74 86.24 31.39 86.42 31.12 86.76
C30.85 87.11 30.70 87.62 30.66 88.30
L31.25 88.39
C31.25 87.94 31.33 87.58 31.50 87.34
C31.68 87.09 31.89 86.97 32.16 86.97
C32.41 86.97 32.62 87.08 32.79 87.31
C32.96 87.54 33.04 87.83 33.04 88.20
C33.04 88.51 32.96 88.85 32.79 89.21
C32.63 89.58 32.28 90.09 31.74 90.76
C31.28 91.33 30.97 91.83 30.80 92.25
C30.62 92.67 30.54 93.05 30.55 93.39
L33.64 93.39
L33.64 92.55
L31.35 92.55
C31.41 92.40 31.49 92.24 31.59 92.08
C31.69 91.92 31.91 91.62 32.25 91.18
C32.79 90.49 33.15 89.94 33.34 89.52
C33.53 89.10 33.63 88.67 33.63 88.22
C33.63 87.70 33.51 87.25 33.26 86.85
C33.02 86.44 32.66 86.24 32.18 86.24
Z
M28.46 86.24
C28.10 86.24 27.79 86.40 27.54 86.71
C27.28 87.02 27.12 87.48 27.05 88.09
L27.62 88.24
C27.66 87.81 27.76 87.49 27.91 87.28
C28.06 87.07 28.24 86.96 28.47 86.96
C28.68 86.96 28.86 87.06 29.01 87.27
C29.15 87.47 29.23 87.74 29.23 88.07
C29.23 88.43 29.14 88.72 28.96 88.94
C28.79 89.16 28.56 89.26 28.27 89.26
L28.19 89.25
L28.12 90.02
C28.28 89.96 28.41 89.93 28.52 89.93
C28.78 89.93 29.00 90.05 29.17 90.30
C29.35 90.56 29.44 90.89 29.44 91.31
C29.44 91.75 29.34 92.10 29.15 92.38
C28.96 92.66 28.73 92.80 28.47 92.80
C27.98 92.80 27.68 92.33 27.56 91.40
L26.99 91.51
C27.03 92.13 27.19 92.61 27.46 92.98
C27.74 93.34 28.08 93.52 28.48 93.52
C28.91 93.52 29.28 93.31 29.58 92.90
C29.89 92.48 30.05 91.94 30.05 91.29
C30.05 90.98 30.01 90.70 29.93 90.45
C29.86 90.21 29.76 90.01 29.64 89.86
C29.52 89.71 29.36 89.60 29.18 89.54
C29.38 89.39 29.54 89.20 29.65 88.95
C29.76 88.70 29.82 88.41 29.82 88.09
C29.82 87.56 29.69 87.12 29.42 86.77
C29.16 86.42 28.84 86.24 28.46 86.24
Z
" fill="black" fill-rule="nonzero" />
<path d="
M32.15 122.82
C32.15 122.82 32.15 122.82 32.15 122.82
C32.15 122.82 32.16 122.82 32.16 122.82
C32.34 122.82 32.51 122.95 32.66 123.20
C32.83 123.46 32.91 123.84 32.91 124.32
C32.91 124.80 32.83 125.17 32.67 125.43
C32.52 125.66 32.35 125.78 32.15 125.78
C32.14 125.78 32.14 125.78 32.14 125.78
C32.14 125.78 32.14 125.78 32.14 125.78
C31.93 125.78 31.75 125.66 31.60 125.43
C31.43 125.18 31.35 124.83 31.35 124.39
C31.35 123.90 31.44 123.51 31.62 123.22
C31.78 122.96 31.96 122.82 32.15 122.82
Z
M32.09 121.82
C31.63 121.82 31.24 122.05 30.93 122.52
C30.62 122.98 30.47 123.59 30.47 124.36
C30.47 125.11 30.62 125.71 30.91 126.15
C31.22 126.61 31.58 126.84 32.01 126.84
C32.26 126.84 32.49 126.74 32.72 126.55
C32.81 126.48 32.89 126.40 32.96 126.30
L32.96 126.30
C32.94 126.70 32.89 127.05 32.81 127.36
C32.71 127.75 32.59 128.02 32.45 128.17
C32.32 128.30 32.18 128.37 32.03 128.37
C32.03 128.37 32.03 128.37 32.03 128.37
C32.03 128.37 32.03 128.37 32.03 128.37
C31.86 128.37 31.73 128.30 31.63 128.15
C31.51 127.98 31.43 127.72 31.39 127.37
L31.38 127.23
L31.23 127.25
L30.68 127.32
L30.55 127.34
L30.56 127.48
C30.61 128.08 30.76 128.54 31.02 128.87
C31.28 129.20 31.62 129.37 32.02 129.37
C32.37 129.37 32.69 129.24 32.97 128.96
C33.24 128.69 33.45 128.28 33.60 127.71
C33.76 127.16 33.83 126.38 33.83 125.39
C33.83 124.50 33.76 123.82 33.62 123.34
C33.47 122.85 33.27 122.47 33.00 122.22
C32.72 121.95 32.42 121.82 32.09 121.82
Z
M28.46 121.82
C28.05 121.82 27.71 121.99 27.43 122.34
C27.16 122.67 26.98 123.15 26.91 123.79
L26.89 123.91
L27.01 123.94
L27.58 124.10
L27.74 124.14
L27.76 123.97
C27.80 123.57 27.89 123.27 28.02 123.08
C28.14 122.91 28.29 122.82 28.46 122.82
C28.46 122.82 28.46 122.82 28.47 122.82
C28.47 122.82 28.47 122.82 28.47 122.82
C28.63 122.82 28.77 122.90 28.89 123.07
C29.02 123.24 29.09 123.48 29.09 123.79
C29.09 124.12 29.01 124.38 28.85 124.57
C28.71 124.75 28.52 124.84 28.28 124.84
L28.28 124.84
L28.20 124.83
L28.06 124.81
L28.04 124.96
L27.98 125.73
L27.96 125.96
L28.17 125.87
C28.32 125.81 28.43 125.78 28.52 125.78
C28.52 125.78 28.52 125.78 28.52 125.78
C28.52 125.78 28.53 125.78 28.53 125.78
C28.73 125.78 28.91 125.89 29.06 126.10
C29.22 126.33 29.30 126.64 29.30 127.02
C29.30 127.43 29.21 127.76 29.03 128.02
C28.87 128.25 28.68 128.37 28.47 128.37
C28.47 128.37 28.47 128.37 28.47 128.37
C28.47 128.37 28.47 128.37 28.47 128.37
C28.28 128.37 28.12 128.28 28.00 128.09
C27.86 127.87 27.76 127.54 27.70 127.10
L27.68 126.94
L27.54 126.98
L26.96 127.09
L26.84 127.12
L26.85 127.24
C26.89 127.88 27.06 128.39 27.35 128.78
C27.66 129.18 28.03 129.38 28.48 129.38
C28.95 129.38 29.36 129.15 29.70 128.70
C30.03 128.26 30.19 127.69 30.19 127.01
C30.19 126.69 30.15 126.39 30.07 126.13
C29.99 125.86 29.88 125.65 29.75 125.48
C29.66 125.38 29.56 125.29 29.44 125.22
L29.44 125.22
C29.58 125.08 29.69 124.92 29.78 124.72
C29.90 124.46 29.96 124.15 29.96 123.81
C29.96 123.24 29.82 122.77 29.53 122.40
C29.24 122.01 28.88 121.82 28.46 121.82
Z
" fill="white" fill-rule="nonzero" />
<path d="
M28.82 171.02
L28.82 174.23
L27.36 174.23
L28.82 171.02
Z
M32.11 170.31
C32.40 170.31 32.63 170.50 32.80 170.90
C32.98 171.29 33.07 172.06 33.07 173.22
C33.07 174.37 32.98 175.14 32.81 175.54
C32.63 175.94 32.41 176.14 32.15 176.14
C31.87 176.14 31.65 175.94 31.47 175.55
C31.29 175.15 31.20 174.38 31.20 173.22
C31.20 172.08 31.29 171.30 31.46 170.91
C31.64 170.51 31.86 170.31 32.11 170.31
Z
M28.93 169.61
L26.80 174.23
L26.80 175.03
L28.82 175.03
L28.82 176.74
L29.40 176.74
L29.40 175.03
L30.03 175.03
L30.03 174.23
L29.40 174.23
L29.40 169.61
Z
M32.14 169.58
C31.64 169.58 31.26 169.89 31.00 170.51
C30.74 171.12 30.61 172.03 30.61 173.22
C30.61 174.56 30.76 175.50 31.04 176.04
C31.32 176.58 31.69 176.86 32.13 176.86
C32.64 176.86 33.02 176.55 33.28 175.93
C33.53 175.31 33.66 174.41 33.66 173.22
C33.66 171.90 33.51 170.93 33.20 170.33
C32.94 169.83 32.59 169.58 32.14 169.58
Z
" fill="black" fill-rule="nonzero" />
<path d="
M43.47 5.42
L43.47 5.42
L43.47 5.42
C43.47 5.42 43.47 5.42 43.47 5.42
Z
M42.95 2.89
L42.94 3.01
L42.48 6.67
L42.46 6.80
L42.59 6.83
L43.13 6.93
L43.25 6.96
L43.29 6.85
C43.37 6.65 43.48 6.50 43.61 6.40
C43.73 6.30 43.87 6.25 44.01 6.25
C44.01 6.25 44.01 6.25 44.01 6.25
C44.01 6.25 44.01 6.25 44.01 6.25
C44.25 6.25 44.45 6.37 44.61 6.61
C44.78 6.86 44.87 7.23 44.87 7.71
C44.87 8.22 44.78 8.62 44.60 8.91
C44.43 9.18 44.24 9.32 44.02 9.32
C44.01 9.32 44.01 9.32 44.01 9.32
C44.01 9.32 44.01 9.32 44.01 9.32
C43.84 9.32 43.69 9.22 43.55 9.04
C43.40 8.84 43.31 8.53 43.26 8.10
L43.25 7.95
L43.10 7.97
L42.50 8.05
L42.37 8.07
L42.38 8.20
C42.42 8.85 42.59 9.36 42.89 9.74
C43.19 10.12 43.57 10.32 44.02 10.32
C44.56 10.32 44.99 10.05 45.31 9.50
C45.61 8.98 45.76 8.36 45.76 7.64
C45.76 6.91 45.61 6.32 45.30 5.88
C44.98 5.42 44.60 5.19 44.16 5.19
C43.92 5.19 43.69 5.27 43.47 5.42
L43.47 5.42
L43.66 4.01
L45.54 4.01
L45.54 3.87
L45.54 3.03
L45.54 2.89
Z
M40.36 2.76
C39.96 2.76 39.61 2.94 39.33 3.28
C39.06 3.61 38.89 4.10 38.81 4.73
L38.80 4.86
L38.91 4.89
L39.49 5.04
L39.65 5.09
L39.66 4.92
C39.70 4.51 39.79 4.22 39.93 4.02
C40.05 3.85 40.20 3.76 40.37 3.76
C40.37 3.76 40.37 3.76 40.37 3.76
C40.37 3.76 40.37 3.76 40.37 3.76
C40.54 3.76 40.68 3.85 40.80 4.01
C40.93 4.19 40.99 4.43 40.99 4.73
C40.99 5.06 40.91 5.32 40.76 5.51
C40.61 5.69 40.42 5.78 40.19 5.78
L40.19 5.78
L40.11 5.78
L39.96 5.76
L39.95 5.90
L39.88 6.67
L39.86 6.90
L40.08 6.82
C40.22 6.76 40.34 6.73 40.43 6.73
C40.43 6.73 40.43 6.73 40.43 6.73
C40.43 6.73 40.43 6.73 40.43 6.73
C40.64 6.73 40.82 6.83 40.96 7.05
C41.12 7.28 41.20 7.58 41.20 7.97
C41.20 8.38 41.11 8.71 40.94 8.96
C40.78 9.20 40.59 9.32 40.38 9.32
C40.38 9.32 40.38 9.32 40.37 9.32
C40.37 9.32 40.37 9.32 40.37 9.32
C40.18 9.32 40.02 9.22 39.90 9.03
C39.76 8.82 39.67 8.49 39.61 8.04
L39.59 7.89
L39.44 7.92
L38.87 8.04
L38.74 8.06
L38.75 8.18
C38.79 8.83 38.96 9.34 39.26 9.72
C39.56 10.12 39.94 10.32 40.38 10.32
C40.86 10.32 41.27 10.10 41.60 9.64
C41.93 9.20 42.09 8.64 42.09 7.95
C42.09 7.63 42.05 7.34 41.98 7.08
C41.89 6.81 41.79 6.59 41.65 6.43
C41.57 6.32 41.46 6.23 41.34 6.16
L41.34 6.16
C41.48 6.03 41.60 5.86 41.68 5.67
C41.80 5.40 41.86 5.09 41.86 4.75
C41.86 4.19 41.72 3.72 41.44 3.34
C41.15 2.96 40.79 2.76 40.36 2.76
Z
" fill="white" fill-rule="nonzero" />
<path d="
M44.36 16.24
L44.36 19.45
L42.90 19.45
L44.36 16.24
Z
M44.47 14.84
L42.33 19.45
L42.33 20.26
L44.36 20.26
L44.36 21.96
L44.93 21.96
L44.93 20.26
L45.57 20.26
L45.57 19.45
L44.93 19.45
L44.93 14.84
Z
M40.36 14.81
C40.00 14.81 39.70 14.97 39.44 15.28
C39.19 15.59 39.02 16.05 38.95 16.66
L39.52 16.81
C39.56 16.38 39.66 16.06 39.81 15.85
C39.96 15.63 40.15 15.53 40.37 15.53
C40.58 15.53 40.76 15.63 40.91 15.83
C41.06 16.03 41.13 16.30 41.13 16.64
C41.13 17.00 41.04 17.29 40.87 17.51
C40.69 17.72 40.46 17.83 40.18 17.83
L40.09 17.82
L40.02 18.59
C40.19 18.52 40.32 18.49 40.43 18.49
C40.69 18.49 40.90 18.62 41.08 18.87
C41.25 19.12 41.34 19.46 41.34 19.87
C41.34 20.31 41.25 20.67 41.05 20.95
C40.86 21.23 40.64 21.36 40.37 21.36
C39.89 21.36 39.59 20.90 39.47 19.96
L38.89 20.08
C38.93 20.69 39.09 21.18 39.37 21.54
C39.65 21.91 39.98 22.09 40.38 22.09
C40.81 22.09 41.18 21.88 41.49 21.46
C41.80 21.05 41.95 20.51 41.95 19.86
C41.95 19.55 41.91 19.27 41.84 19.02
C41.76 18.77 41.67 18.57 41.54 18.42
C41.42 18.28 41.27 18.17 41.08 18.10
C41.28 17.96 41.44 17.77 41.55 17.52
C41.67 17.27 41.72 16.98 41.72 16.66
C41.72 16.12 41.59 15.68 41.33 15.33
C41.06 14.98 40.74 14.81 40.36 14.81
Z
" fill="black" fill-rule="nonzero" />
<path d="
M44.36 28.21
L44.36 31.42
L42.90 31.42
L44.36 28.21
Z
M40.46 26.78
C40.02 26.78 39.67 26.95 39.40 27.30
C39.13 27.64 38.97 28.15 38.93 28.84
L39.52 28.93
C39.52 28.47 39.61 28.12 39.78 27.87
C39.95 27.63 40.17 27.50 40.44 27.50
C40.69 27.50 40.89 27.62 41.06 27.84
C41.23 28.07 41.32 28.37 41.32 28.73
C41.32 29.05 41.24 29.38 41.07 29.75
C40.90 30.11 40.55 30.63 40.02 31.30
C39.56 31.87 39.24 32.37 39.07 32.79
C38.90 33.21 38.82 33.59 38.82 33.93
L41.91 33.93
L41.91 33.09
L39.62 33.09
C39.68 32.93 39.76 32.77 39.86 32.61
C39.96 32.45 40.18 32.16 40.53 31.72
C41.06 31.03 41.43 30.47 41.62 30.06
C41.81 29.64 41.91 29.20 41.91 28.75
C41.91 28.24 41.78 27.78 41.54 27.38
C41.29 26.98 40.93 26.78 40.46 26.78
Z
M44.47 26.81
L42.33 31.42
L42.33 32.22
L44.36 32.22
L44.36 33.93
L44.93 33.93
L44.93 32.22
L45.57 32.22
L45.57 31.42
L44.93 31.42
L44.93 26.81
Z
" fill="black" fill-rule="nonzero" />
<path d="
M40.57 50.38
L40.54 50.48
C40.45 50.78 40.29 51.08 40.05 51.40
C39.82 51.71 39.55 51.98 39.25 52.20
L39.19 52.24
L39.19 52.31
L39.19 53.16
L39.19 53.40
L39.40 53.28
C39.59 53.17 39.81 53.01 40.04 52.81
C40.15 52.71 40.25 52.61 40.33 52.51
L40.33 52.51
L40.33 57.68
L40.33 57.82
L41.19 57.82
L41.19 57.68
L41.19 50.53
L41.19 50.38
Z
M43.99 50.38
C43.59 50.39 43.24 50.56 42.96 50.90
C42.69 51.24 42.52 51.72 42.44 52.36
L42.43 52.48
L42.54 52.51
L43.12 52.66
L43.28 52.71
L43.29 52.54
C43.33 52.14 43.42 51.84 43.56 51.65
C43.68 51.47 43.83 51.39 44.00 51.39
C44.00 51.39 44.00 51.39 44.00 51.39
C44.00 51.39 44.00 51.39 44.00 51.39
C44.17 51.39 44.31 51.47 44.43 51.63
C44.56 51.81 44.62 52.05 44.62 52.35
C44.62 52.68 44.54 52.94 44.39 53.13
C44.24 53.31 44.05 53.41 43.82 53.41
L43.82 53.41
L43.74 53.40
L43.59 53.38
L43.58 53.53
L43.51 54.29
L43.49 54.52
L43.71 54.44
C43.85 54.38 43.97 54.35 44.06 54.35
C44.06 54.35 44.06 54.35 44.06 54.35
C44.06 54.35 44.06 54.35 44.06 54.35
C44.27 54.35 44.45 54.46 44.59 54.67
C44.75 54.90 44.83 55.20 44.83 55.59
C44.83 56.00 44.74 56.33 44.57 56.58
C44.41 56.82 44.22 56.94 44.01 56.94
C44.01 56.94 44.01 56.94 44.00 56.94
C44.00 56.94 44.00 56.94 44.00 56.94
C43.81 56.94 43.66 56.84 43.53 56.65
C43.39 56.44 43.30 56.11 43.24 55.66
L43.22 55.51
L43.07 55.54
L42.50 55.66
L42.37 55.68
L42.38 55.81
C42.42 56.45 42.59 56.96 42.89 57.35
C43.19 57.74 43.57 57.94 44.01 57.95
C44.49 57.94 44.90 57.72 45.23 57.26
C45.56 56.82 45.72 56.26 45.72 55.57
C45.72 55.25 45.68 54.96 45.61 54.70
C45.53 54.43 45.42 54.21 45.28 54.05
C45.20 53.94 45.09 53.85 44.97 53.79
L44.97 53.79
C45.11 53.65 45.23 53.48 45.31 53.29
C45.43 53.02 45.50 52.72 45.50 52.37
C45.49 51.81 45.35 51.34 45.07 50.97
C44.78 50.58 44.42 50.39 43.99 50.38
Z
" fill="white" fill-rule="nonzero" />
<path d="
M40.57 74.26
L40.54 74.36
C40.45 74.65 40.29 74.96 40.05 75.27
C39.82 75.59 39.55 75.85 39.25 76.07
L39.19 76.12
L39.19 76.19
L39.19 77.03
L39.19 77.27
L39.40 77.16
C39.59 77.05 39.81 76.89 40.04 76.68
C40.15 76.58 40.25 76.48 40.33 76.39
L40.33 76.39
L40.33 81.55
L40.33 81.69
L41.19 81.69
L41.19 81.55
L41.19 74.40
L41.19 74.26
Z
M42.42 74.38
L42.42 74.52
L42.42 75.36
L42.42 75.50
L44.60 75.50
C44.35 75.97 44.12 76.52 43.90 77.15
C43.64 77.88 43.44 78.64 43.30 79.44
C43.15 80.24 43.08 80.95 43.07 81.55
L43.07 81.69
L43.80 81.69
L43.94 81.69
L43.94 81.56
C44.00 80.42 44.19 79.26 44.53 78.10
C44.87 76.94 45.26 76.00 45.70 75.28
L45.72 75.24
L45.72 75.20
L45.72 74.52
L45.72 74.38
Z
" fill="white" fill-rule="nonzero" />
<path d="
M40.59 159.83
L40.59 162.24
L39.49 162.24
L40.59 159.83
Z
M40.75 157.63
L40.71 157.71
L38.57 162.32
L38.56 162.35
L38.56 162.38
L38.56 163.19
L38.56 163.33
L40.59 163.33
L40.59 164.89
L40.59 165.03
L41.45 165.03
L41.45 164.89
L41.45 163.33
L42.08 163.33
L42.08 163.19
L42.08 162.38
L42.08 162.24
L41.45 162.24
L41.45 157.77
L41.45 157.63
Z
M44.20 157.60
L44.17 157.70
C44.08 157.99 43.92 158.30 43.68 158.61
C43.45 158.93 43.18 159.19 42.88 159.41
L42.82 159.45
L42.82 159.53
L42.82 160.37
L42.82 160.61
L43.03 160.50
C43.22 160.39 43.44 160.23 43.67 160.02
C43.78 159.92 43.88 159.82 43.96 159.72
L43.96 159.72
L43.96 164.89
L43.96 165.03
L44.82 165.03
L44.82 164.89
L44.82 157.74
L44.82 157.60
Z
" fill="white" fill-rule="nonzero" />
<path d="
M52.27 14.67
C51.86 14.67 51.52 14.84 51.24 15.19
C50.97 15.52 50.79 16.00 50.72 16.64
L50.70 16.76
L50.82 16.79
L51.39 16.95
L51.55 16.99
L51.57 16.82
C51.61 16.42 51.70 16.12 51.83 15.93
C51.96 15.76 52.10 15.67 52.27 15.67
C52.27 15.67 52.28 15.67 52.28 15.67
C52.28 15.67 52.28 15.67 52.28 15.67
C52.44 15.67 52.58 15.75 52.70 15.92
C52.83 16.09 52.90 16.33 52.90 16.64
C52.90 16.97 52.82 17.23 52.66 17.42
C52.52 17.60 52.33 17.69 52.09 17.69
L52.09 17.69
L52.01 17.68
L51.87 17.67
L51.86 17.81
L51.79 18.58
L51.77 18.81
L51.98 18.72
C52.13 18.66 52.24 18.63 52.33 18.63
C52.33 18.63 52.33 18.63 52.33 18.63
C52.34 18.63 52.34 18.63 52.34 18.63
C52.54 18.63 52.72 18.74 52.87 18.95
C53.03 19.18 53.11 19.49 53.11 19.87
C53.11 20.28 53.02 20.61 52.84 20.87
C52.68 21.10 52.49 21.22 52.28 21.22
C52.28 21.22 52.28 21.22 52.28 21.22
C52.28 21.22 52.28 21.22 52.28 21.22
C52.09 21.22 51.93 21.13 51.81 20.94
C51.67 20.72 51.57 20.39 51.52 19.95
L51.50 19.80
L51.35 19.83
L50.77 19.94
L50.65 19.97
L50.66 20.09
C50.70 20.73 50.87 21.24 51.16 21.63
C51.47 22.03 51.84 22.23 52.29 22.23
C52.76 22.23 53.17 22.00 53.51 21.55
C53.84 21.11 54.00 20.54 54.00 19.86
C54.00 19.54 53.96 19.24 53.88 18.98
C53.80 18.71 53.69 18.50 53.56 18.33
C53.47 18.23 53.37 18.14 53.25 18.07
L53.25 18.07
C53.39 17.93 53.50 17.77 53.59 17.57
C53.71 17.31 53.77 17.00 53.77 16.66
C53.77 16.09 53.63 15.62 53.35 15.25
C53.05 14.86 52.69 14.67 52.27 14.67
Z
M55.90 14.67
C55.49 14.67 55.15 14.84 54.87 15.19
C54.60 15.52 54.42 16.00 54.35 16.64
L54.33 16.76
L54.45 16.79
L55.02 16.95
L55.18 16.99
L55.20 16.82
C55.24 16.42 55.33 16.12 55.46 15.93
C55.59 15.76 55.73 15.67 55.90 15.67
C55.90 15.67 55.91 15.67 55.91 15.67
C55.91 15.67 55.91 15.67 55.91 15.67
C56.07 15.67 56.21 15.75 56.33 15.92
C56.46 16.09 56.53 16.33 56.53 16.64
C56.53 16.97 56.45 17.23 56.29 17.42
C56.15 17.60 55.96 17.69 55.72 17.69
L55.72 17.69
L55.64 17.68
L55.50 17.67
L55.49 17.81
L55.42 18.58
L55.40 18.81
L55.61 18.72
C55.76 18.66 55.87 18.63 55.96 18.63
C55.96 18.63 55.96 18.63 55.96 18.63
C55.97 18.63 55.97 18.63 55.97 18.63
C56.17 18.63 56.35 18.74 56.50 18.95
C56.66 19.18 56.74 19.49 56.74 19.87
C56.74 20.28 56.65 20.61 56.47 20.87
C56.31 21.10 56.12 21.22 55.91 21.22
C55.91 21.22 55.91 21.22 55.91 21.22
C55.91 21.22 55.91 21.22 55.91 21.22
C55.72 21.22 55.56 21.13 55.44 20.94
C55.30 20.72 55.20 20.39 55.15 19.95
L55.13 19.80
L54.98 19.83
L54.40 19.94
L54.28 19.97
L54.29 20.09
C54.33 20.73 54.50 21.24 54.79 21.63
C55.10 22.03 55.47 22.23 55.92 22.23
C56.40 22.23 56.80 22.00 57.14 21.55
C57.47 21.11 57.63 20.54 57.63 19.86
C57.63 19.54 57.59 19.24 57.51 18.98
C57.43 18.71 57.32 18.50 57.19 18.33
C57.10 18.23 57.00 18.14 56.88 18.07
L56.88 18.07
C57.02 17.93 57.13 17.77 57.22 17.57
C57.34 17.31 57.40 17.00 57.40 16.66
C57.40 16.09 57.26 15.62 56.98 15.25
C56.68 14.86 56.32 14.67 55.90 14.67
Z
" fill="white" fill-rule="nonzero" />
<path d="
M55.99 41.93
C56.24 41.93 56.46 42.07 56.63 42.34
C56.81 42.62 56.90 43.02 56.90 43.52
C56.90 44.04 56.81 44.44 56.63 44.73
C56.45 45.03 56.25 45.18 56.03 45.18
C55.77 45.18 55.54 45.02 55.35 44.71
C55.16 44.40 55.06 43.98 55.06 43.47
C55.06 42.99 55.15 42.62 55.34 42.34
C55.52 42.07 55.74 41.93 55.99 41.93
Z
M52.58 38.62
C52.48 38.93 52.31 39.25 52.07 39.58
C51.83 39.91 51.55 40.18 51.23 40.41
L51.23 41.26
C51.42 41.15 51.63 41.00 51.85 40.80
C52.07 40.59 52.25 40.40 52.38 40.20
L52.38 45.77
L52.96 45.77
L52.96 38.62
Z
M56.07 38.62
C55.58 38.62 55.18 38.92 54.87 39.50
C54.56 40.08 54.40 41.07 54.40 42.44
C54.40 43.68 54.55 44.57 54.86 45.10
C55.16 45.63 55.55 45.90 56.02 45.90
C56.28 45.90 56.52 45.80 56.74 45.62
C56.96 45.43 57.14 45.15 57.28 44.76
C57.41 44.37 57.48 43.94 57.48 43.47
C57.48 42.76 57.35 42.20 57.07 41.78
C56.79 41.36 56.47 41.15 56.10 41.15
C55.88 41.15 55.67 41.23 55.47 41.39
C55.27 41.56 55.10 41.79 54.97 42.10
C54.97 41.23 55.06 40.57 55.23 40.12
C55.44 39.60 55.70 39.34 56.04 39.34
C56.25 39.34 56.44 39.46 56.59 39.68
C56.70 39.84 56.78 40.10 56.83 40.46
L57.40 40.40
C57.35 39.82 57.21 39.38 56.97 39.08
C56.73 38.77 56.43 38.62 56.07 38.62
Z
" fill="black" fill-rule="nonzero" />
<path d="
M56.26 52.02
L56.26 55.23
L54.80 55.23
L56.26 52.02
Z
M52.58 50.59
C52.48 50.90 52.31 51.22 52.07 51.55
C51.83 51.87 51.55 52.15 51.23 52.38
L51.23 53.22
C51.42 53.12 51.63 52.97 51.85 52.76
C52.07 52.56 52.25 52.36 52.38 52.17
L52.38 57.74
L52.96 57.74
L52.96 50.59
Z
M56.37 50.62
L54.24 55.23
L54.24 56.04
L56.26 56.04
L56.26 57.74
L56.84 57.74
L56.84 56.04
L57.47 56.04
L57.47 55.23
L56.84 55.23
L56.84 50.62
Z
" fill="black" fill-rule="nonzero" />
<path d="
M55.96 63.15
C56.16 63.15 56.34 63.26 56.50 63.47
C56.65 63.68 56.72 63.96 56.72 64.29
C56.72 64.61 56.65 64.88 56.50 65.08
C56.35 65.29 56.17 65.39 55.96 65.39
C55.75 65.39 55.57 65.28 55.42 65.08
C55.27 64.87 55.20 64.59 55.20 64.24
C55.20 63.93 55.27 63.67 55.42 63.46
C55.57 63.26 55.75 63.15 55.96 63.15
Z
M55.95 66.10
C56.21 66.10 56.44 66.24 56.63 66.50
C56.82 66.77 56.91 67.12 56.91 67.56
C56.91 67.99 56.82 68.34 56.64 68.60
C56.45 68.86 56.23 68.99 55.96 68.99
C55.70 68.99 55.48 68.85 55.29 68.59
C55.10 68.32 55.01 67.97 55.01 67.53
C55.01 67.11 55.10 66.77 55.28 66.50
C55.47 66.23 55.69 66.10 55.95 66.10
Z
M52.58 62.43
C52.48 62.75 52.31 63.06 52.07 63.39
C51.83 63.72 51.55 64.00 51.23 64.22
L51.23 65.07
C51.42 64.96 51.63 64.81 51.85 64.61
C52.07 64.41 52.25 64.21 52.38 64.01
L52.38 69.59
L52.96 69.59
L52.96 62.43
Z
M55.95 62.43
C55.57 62.43 55.25 62.60 54.99 62.94
C54.74 63.28 54.61 63.72 54.61 64.27
C54.61 64.63 54.67 64.93 54.79 65.17
C54.90 65.41 55.08 65.59 55.31 65.72
C55.03 65.83 54.81 66.04 54.66 66.35
C54.50 66.66 54.42 67.05 54.42 67.53
C54.42 68.18 54.57 68.71 54.86 69.11
C55.16 69.51 55.52 69.71 55.96 69.71
C56.40 69.71 56.76 69.51 57.06 69.11
C57.35 68.71 57.50 68.19 57.50 67.55
C57.50 67.09 57.42 66.71 57.27 66.40
C57.12 66.09 56.90 65.86 56.62 65.72
C56.85 65.59 57.02 65.40 57.14 65.17
C57.25 64.93 57.31 64.64 57.31 64.29
C57.31 63.75 57.18 63.30 56.92 62.95
C56.66 62.61 56.34 62.43 55.95 62.43
Z
" fill="black" fill-rule="nonzero" />
<path d="
M52.63 99.64
L52.63 102.86
L51.17 102.86
L52.63 99.64
Z
M52.74 98.24
L50.61 102.86
L50.61 103.66
L52.63 103.66
L52.63 105.36
L53.21 105.36
L53.21 103.66
L53.84 103.66
L53.84 102.86
L53.21 102.86
L53.21 98.24
Z
M55.99 98.21
C55.55 98.21 55.20 98.38 54.93 98.73
C54.66 99.07 54.51 99.59 54.47 100.27
L55.06 100.36
C55.06 99.90 55.14 99.55 55.32 99.30
C55.49 99.06 55.71 98.94 55.97 98.94
C56.22 98.94 56.43 99.05 56.60 99.28
C56.77 99.51 56.85 99.80 56.85 100.16
C56.85 100.48 56.77 100.82 56.61 101.18
C56.44 101.55 56.09 102.06 55.55 102.73
C55.09 103.30 54.78 103.80 54.61 104.22
C54.43 104.64 54.35 105.02 54.36 105.36
L57.45 105.36
L57.45 104.52
L55.16 104.52
C55.22 104.36 55.30 104.20 55.40 104.05
C55.50 103.89 55.72 103.59 56.06 103.15
C56.60 102.46 56.96 101.90 57.15 101.49
C57.35 101.07 57.44 100.64 57.44 100.18
C57.44 99.67 57.32 99.22 57.07 98.81
C56.83 98.41 56.47 98.21 55.99 98.21
Z
" fill="black" fill-rule="nonzero" />
<path d="
M52.49 124.05
L52.49 124.05
L52.49 124.05
L52.49 126.46
L51.39 126.46
L52.49 124.05
L52.49 124.05
L52.49 124.05
Z
M52.65 121.85
L52.61 121.93
L50.48 126.54
L50.47 126.57
L50.47 126.60
L50.47 127.41
L50.47 127.55
L52.49 127.55
L52.49 129.11
L52.49 129.25
L53.35 129.25
L53.35 129.11
L53.35 127.55
L53.98 127.55
L53.98 127.41
L53.98 126.60
L53.98 126.46
L53.35 126.46
L53.35 121.99
L53.35 121.85
Z
M55.90 121.82
C55.49 121.82 55.15 121.99 54.87 122.34
C54.60 122.67 54.42 123.15 54.35 123.79
L54.33 123.91
L54.45 123.94
L55.02 124.10
L55.18 124.14
L55.20 123.97
C55.24 123.57 55.33 123.27 55.46 123.08
C55.59 122.91 55.73 122.82 55.90 122.82
C55.90 122.82 55.91 122.82 55.91 122.82
C55.91 122.82 55.91 122.82 55.91 122.82
C56.07 122.82 56.21 122.90 56.33 123.07
C56.46 123.24 56.53 123.48 56.53 123.79
C56.53 124.12 56.45 124.38 56.29 124.57
C56.15 124.75 55.96 124.84 55.72 124.84
L55.72 124.84
L55.64 124.83
L55.50 124.81
L55.49 124.96
L55.42 125.73
L55.40 125.96
L55.40 125.96
L55.61 125.87
C55.76 125.81 55.87 125.78 55.96 125.78
C55.96 125.78 55.96 125.78 55.96 125.78
C55.97 125.78 55.97 125.78 55.97 125.78
C56.17 125.78 56.35 125.89 56.50 126.10
C56.66 126.33 56.74 126.64 56.74 127.02
C56.74 127.43 56.65 127.76 56.47 128.02
C56.31 128.25 56.12 128.37 55.91 128.37
C55.91 128.37 55.91 128.37 55.91 128.37
C55.91 128.37 55.91 128.37 55.91 128.37
C55.72 128.37 55.56 128.28 55.44 128.09
C55.30 127.87 55.20 127.54 55.15 127.10
L55.13 126.94
L54.98 126.98
L54.40 127.09
L54.28 127.12
L54.29 127.24
C54.33 127.88 54.50 128.39 54.79 128.78
C55.10 129.18 55.47 129.38 55.92 129.38
C56.40 129.38 56.80 129.15 57.14 128.70
C57.47 128.26 57.63 127.69 57.63 127.01
C57.63 126.69 57.59 126.39 57.51 126.13
C57.43 125.86 57.32 125.65 57.19 125.48
C57.10 125.38 57.00 125.29 56.88 125.22
L56.88 125.22
C57.02 125.08 57.13 124.92 57.22 124.72
C57.34 124.46 57.40 124.15 57.40 123.81
C57.40 123.24 57.26 122.77 56.98 122.40
C56.68 122.01 56.32 121.82 55.90 121.82
Z
" fill="white" fill-rule="nonzero" />
<path d="
M63.28 38.42
L63.28 46.09
L69.11 46.09
L69.11 44.80
L64.83 44.80
L64.83 42.71
L68.68 42.71
L68.68 41.42
L64.83 41.42
L64.83 39.72
L68.96 39.72
L68.96 38.42
Z
" fill="black" fill-rule="nonzero" />
<path d="
M63.59 50.33
L63.59 58.00
L65.14 58.00
L65.14 54.74
L68.34 54.74
L68.34 53.44
L65.14 53.44
L65.14 51.63
L68.85 51.63
L68.85 50.33
Z
" fill="black" fill-rule="nonzero" />
<path d="
M77.13 27.82
C77.76 27.82 78.18 27.84 78.40 27.89
C78.69 27.95 78.93 28.07 79.11 28.25
C79.30 28.43 79.45 28.68 79.55 28.99
C79.66 29.31 79.71 29.77 79.71 30.36
C79.71 30.95 79.66 31.42 79.55 31.76
C79.45 32.11 79.31 32.35 79.15 32.50
C78.98 32.65 78.77 32.76 78.52 32.82
C78.33 32.87 78.02 32.90 77.59 32.90
L76.43 32.90
L76.43 27.82
Z
M74.88 26.52
L74.88 34.19
L77.80 34.19
C78.37 34.19 78.82 34.13 79.17 34.03
C79.62 33.88 79.99 33.68 80.25 33.41
C80.61 33.07 80.88 32.62 81.08 32.06
C81.23 31.60 81.31 31.06 81.31 30.43
C81.31 29.71 81.23 29.10 81.06 28.61
C80.89 28.12 80.65 27.71 80.33 27.37
C80.01 27.03 79.62 26.80 79.17 26.67
C78.84 26.57 78.35 26.52 77.71 26.52
Z
" fill="black" fill-rule="nonzero" />
<path d="
M78.13 38.60
L78.13 38.74
L78.13 39.58
L78.13 39.72
L80.32 39.72
C80.07 40.19 79.83 40.74 79.61 41.37
C79.36 42.10 79.16 42.86 79.02 43.66
C78.87 44.46 78.79 45.17 78.79 45.77
L78.78 45.91
L79.52 45.91
L79.65 45.91
L79.66 45.78
C79.71 44.64 79.91 43.48 80.25 42.32
C80.58 41.16 80.98 40.22 81.42 39.50
L81.44 39.46
L81.44 39.42
L81.44 38.74
L81.44 38.60
Z
M76.08 38.48
C75.67 38.48 75.33 38.65 75.05 39.00
C74.78 39.33 74.60 39.81 74.53 40.45
L74.51 40.57
L74.63 40.60
L75.20 40.76
L75.36 40.80
L75.38 40.64
C75.42 40.23 75.51 39.93 75.64 39.74
C75.77 39.57 75.91 39.48 76.08 39.48
C76.08 39.48 76.09 39.48 76.09 39.48
C76.09 39.48 76.09 39.48 76.09 39.48
C76.25 39.48 76.39 39.56 76.51 39.73
C76.64 39.90 76.71 40.14 76.71 40.45
C76.71 40.78 76.63 41.04 76.47 41.23
C76.33 41.41 76.14 41.50 75.90 41.50
L75.90 41.50
L75.82 41.49
L75.68 41.48
L75.67 41.62
L75.60 42.39
L75.58 42.62
L75.79 42.53
C75.94 42.47 76.05 42.45 76.15 42.45
C76.15 42.45 76.15 42.45 76.15 42.45
C76.15 42.45 76.15 42.45 76.15 42.45
C76.36 42.45 76.53 42.55 76.68 42.76
C76.84 42.99 76.92 43.30 76.92 43.68
C76.92 44.09 76.83 44.43 76.65 44.68
C76.49 44.91 76.31 45.03 76.09 45.03
C76.09 45.03 76.09 45.03 76.09 45.03
C76.09 45.03 76.09 45.03 76.09 45.03
C75.90 45.03 75.74 44.94 75.62 44.75
C75.48 44.53 75.38 44.20 75.33 43.76
L75.31 43.61
L75.16 43.64
L74.58 43.75
L74.46 43.78
L74.47 43.90
C74.51 44.54 74.68 45.05 74.97 45.44
C75.28 45.84 75.65 46.04 76.10 46.04
C76.58 46.04 76.98 45.81 77.32 45.36
C77.65 44.92 77.81 44.35 77.81 43.67
C77.81 43.35 77.77 43.05 77.69 42.79
C77.61 42.52 77.50 42.31 77.37 42.15
C77.28 42.04 77.18 41.95 77.06 41.88
L77.06 41.88
C77.20 41.74 77.31 41.58 77.40 41.39
C77.52 41.12 77.58 40.81 77.58 40.47
C77.58 39.90 77.44 39.44 77.16 39.06
C76.86 38.67 76.50 38.48 76.08 38.48
Z
" fill="white" fill-rule="nonzero" />
<path d="
M79.77 51.25
C79.98 51.25 80.15 51.35 80.31 51.56
C80.46 51.78 80.53 52.05 80.53 52.38
C80.53 52.71 80.46 52.97 80.31 53.17
C80.16 53.38 79.99 53.48 79.78 53.48
C79.56 53.48 79.38 53.38 79.23 53.17
C79.08 52.96 79.01 52.68 79.01 52.33
C79.01 52.02 79.08 51.76 79.23 51.56
C79.38 51.35 79.56 51.25 79.77 51.25
Z
M79.76 54.19
C80.02 54.19 80.25 54.33 80.44 54.60
C80.63 54.86 80.72 55.21 80.72 55.65
C80.72 56.09 80.63 56.43 80.45 56.69
C80.26 56.95 80.04 57.08 79.78 57.08
C79.51 57.08 79.29 56.95 79.10 56.68
C78.91 56.41 78.82 56.06 78.82 55.62
C78.82 55.20 78.91 54.86 79.09 54.59
C79.28 54.33 79.50 54.19 79.76 54.19
Z
M79.76 50.53
C79.38 50.53 79.06 50.70 78.80 51.04
C78.55 51.38 78.42 51.82 78.42 52.36
C78.42 52.72 78.48 53.02 78.60 53.26
C78.71 53.50 78.89 53.69 79.12 53.82
C78.84 53.93 78.62 54.14 78.47 54.44
C78.31 54.75 78.23 55.15 78.23 55.62
C78.23 56.27 78.38 56.80 78.67 57.20
C78.97 57.60 79.34 57.80 79.78 57.80
C80.21 57.80 80.58 57.60 80.87 57.20
C81.16 56.80 81.31 56.28 81.31 55.65
C81.31 55.19 81.24 54.80 81.08 54.49
C80.93 54.18 80.71 53.95 80.43 53.82
C80.66 53.68 80.84 53.50 80.95 53.26
C81.06 53.02 81.12 52.73 81.12 52.39
C81.12 51.84 80.99 51.39 80.73 51.05
C80.48 50.70 80.15 50.53 79.76 50.53
Z
M76.08 50.53
C75.72 50.53 75.41 50.68 75.16 50.99
C74.90 51.30 74.74 51.76 74.67 52.37
L75.24 52.53
C75.28 52.10 75.38 51.78 75.53 51.56
C75.68 51.35 75.87 51.25 76.09 51.25
C76.30 51.25 76.48 51.35 76.63 51.55
C76.78 51.75 76.85 52.02 76.85 52.35
C76.85 52.72 76.76 53.01 76.58 53.22
C76.41 53.44 76.18 53.55 75.90 53.55
L75.81 53.54
L75.74 54.31
C75.90 54.24 76.04 54.21 76.15 54.21
C76.40 54.21 76.62 54.34 76.79 54.59
C76.97 54.84 77.06 55.17 77.06 55.59
C77.06 56.03 76.96 56.39 76.77 56.66
C76.58 56.94 76.35 57.08 76.09 57.08
C75.61 57.08 75.30 56.61 75.19 55.68
L74.61 55.80
C74.65 56.41 74.81 56.90 75.08 57.26
C75.36 57.62 75.70 57.80 76.10 57.80
C76.53 57.80 76.90 57.60 77.21 57.18
C77.51 56.76 77.67 56.23 77.67 55.57
C77.67 55.27 77.63 54.99 77.56 54.74
C77.48 54.49 77.38 54.29 77.26 54.14
C77.14 53.99 76.98 53.88 76.80 53.82
C77.00 53.68 77.16 53.48 77.27 53.23
C77.38 52.98 77.44 52.70 77.44 52.37
C77.44 51.84 77.31 51.40 77.04 51.05
C76.78 50.70 76.46 50.53 76.08 50.53
Z
" fill="black" fill-rule="nonzero" />
<path d="
M90.04 14.48
C89.30 14.48 88.69 14.61 88.20 14.86
C87.55 15.20 87.06 15.67 86.73 16.29
C86.39 16.91 86.23 17.62 86.23 18.42
C86.23 19.16 86.38 19.84 86.68 20.47
C86.98 21.09 87.43 21.57 88.02 21.91
C88.62 22.25 89.32 22.41 90.12 22.41
C90.75 22.41 91.37 22.29 91.99 22.06
C92.61 21.82 93.08 21.54 93.40 21.23
L93.40 18.17
L90.06 18.17
L90.06 19.46
L91.84 19.46
L91.84 20.44
C91.60 20.62 91.32 20.77 91.00 20.90
C90.67 21.03 90.34 21.09 90.02 21.09
C89.36 21.09 88.83 20.86 88.43 20.41
C88.03 19.95 87.82 19.27 87.82 18.36
C87.82 17.52 88.02 16.88 88.42 16.45
C88.82 16.02 89.36 15.81 90.04 15.81
C90.48 15.81 90.85 15.92 91.15 16.13
C91.45 16.35 91.65 16.65 91.76 17.03
L93.30 16.74
C93.15 16.03 92.80 15.48 92.27 15.08
C91.73 14.68 90.99 14.48 90.04 14.48
Z
" fill="black" fill-rule="nonzero" />
<path d="
M89.80 40.21
L90.86 43.06
L88.76 43.06
L89.80 40.21
Z
M89.00 38.42
L86.01 46.09
L87.66 46.09
L88.29 44.35
L91.35 44.35
L92.02 46.09
L93.71 46.09
L90.64 38.42
Z
" fill="black" fill-rule="nonzero" />
<path d="
M91.70 53.83
C91.96 53.83 92.17 53.97 92.35 54.25
C92.53 54.53 92.61 54.92 92.61 55.42
C92.61 55.94 92.53 56.34 92.35 56.64
C92.17 56.93 91.97 57.08 91.74 57.08
C91.49 57.08 91.26 56.92 91.07 56.61
C90.87 56.30 90.78 55.88 90.78 55.37
C90.78 54.90 90.87 54.52 91.05 54.25
C91.24 53.97 91.46 53.83 91.70 53.83
Z
M91.79 50.53
C91.30 50.53 90.90 50.82 90.59 51.40
C90.27 51.99 90.11 52.97 90.11 54.34
C90.11 55.59 90.27 56.47 90.57 57.00
C90.88 57.53 91.27 57.80 91.74 57.80
C92.00 57.80 92.24 57.71 92.46 57.52
C92.68 57.34 92.85 57.05 92.99 56.66
C93.13 56.28 93.20 55.85 93.20 55.37
C93.20 54.67 93.06 54.11 92.79 53.69
C92.51 53.27 92.19 53.06 91.82 53.06
C91.59 53.06 91.38 53.14 91.18 53.30
C90.98 53.46 90.82 53.69 90.69 54.00
C90.69 53.13 90.78 52.47 90.95 52.02
C91.15 51.50 91.42 51.25 91.76 51.25
C91.97 51.25 92.15 51.36 92.31 51.59
C92.41 51.74 92.49 52.00 92.55 52.37
L93.12 52.30
C93.07 51.72 92.92 51.28 92.68 50.98
C92.44 50.68 92.14 50.53 91.79 50.53
Z
M87.98 50.53
C87.62 50.53 87.32 50.68 87.06 50.99
C86.81 51.30 86.65 51.76 86.57 52.37
L87.15 52.53
C87.19 52.10 87.28 51.78 87.43 51.56
C87.59 51.35 87.77 51.25 87.99 51.25
C88.21 51.25 88.39 51.35 88.53 51.55
C88.68 51.75 88.75 52.02 88.75 52.35
C88.75 52.72 88.67 53.01 88.49 53.22
C88.31 53.44 88.08 53.55 87.80 53.55
L87.71 53.54
L87.65 54.31
C87.81 54.24 87.94 54.21 88.05 54.21
C88.31 54.21 88.52 54.34 88.70 54.59
C88.88 54.84 88.96 55.17 88.96 55.59
C88.96 56.03 88.87 56.39 88.68 56.66
C88.48 56.94 88.26 57.08 88.00 57.08
C87.51 57.08 87.21 56.61 87.09 55.68
L86.52 55.80
C86.55 56.41 86.71 56.90 86.99 57.26
C87.27 57.62 87.61 57.80 88.00 57.80
C88.43 57.80 88.80 57.60 89.11 57.18
C89.42 56.76 89.57 56.23 89.57 55.57
C89.57 55.27 89.54 54.99 89.46 54.74
C89.39 54.49 89.29 54.29 89.17 54.14
C89.04 53.99 88.89 53.88 88.70 53.82
C88.91 53.68 89.06 53.48 89.18 53.23
C89.29 52.98 89.35 52.70 89.35 52.37
C89.35 51.84 89.21 51.40 88.95 51.05
C88.68 50.70 88.36 50.53 87.98 50.53
Z
" fill="black" fill-rule="nonzero" />
<path d="
M102.01 26.39
C100.94 26.39 100.07 26.74 99.41 27.45
C98.76 28.15 98.43 29.15 98.43 30.42
C98.43 31.63 98.75 32.58 99.41 33.28
C100.06 33.97 100.90 34.32 101.92 34.32
C102.74 34.32 103.42 34.12 103.96 33.71
C104.49 33.30 104.88 32.68 105.11 31.85
L103.61 31.37
C103.48 31.93 103.26 32.34 102.97 32.60
C102.67 32.87 102.32 33.00 101.90 33.00
C101.35 33.00 100.89 32.79 100.54 32.38
C100.20 31.97 100.02 31.28 100.02 30.31
C100.02 29.39 100.20 28.73 100.55 28.32
C100.91 27.92 101.37 27.71 101.94 27.71
C102.35 27.71 102.70 27.83 102.99 28.06
C103.27 28.29 103.46 28.60 103.55 29.00
L105.09 28.63
C104.91 28.02 104.65 27.55 104.30 27.22
C103.72 26.67 102.95 26.39 102.01 26.39
Z
" fill="black" fill-rule="nonzero" />
<path d="
M101.14 39.70
C101.87 39.70 102.31 39.71 102.46 39.73
C102.72 39.76 102.92 39.85 103.05 40.00
C103.18 40.15 103.24 40.34 103.24 40.57
C103.24 40.82 103.17 41.02 103.02 41.17
C102.86 41.33 102.66 41.42 102.39 41.45
C102.24 41.47 101.87 41.47 101.27 41.47
L100.25 41.47
L100.25 39.70
Z
M101.50 42.75
C102.21 42.75 102.66 42.79 102.88 42.86
C103.09 42.93 103.25 43.05 103.36 43.21
C103.47 43.37 103.53 43.57 103.53 43.80
C103.53 44.07 103.45 44.29 103.31 44.45
C103.16 44.61 102.98 44.71 102.75 44.76
C102.60 44.79 102.24 44.80 101.69 44.80
L100.25 44.80
L100.25 42.75
Z
M98.70 38.42
L98.70 46.09
L101.31 46.09
C102.30 46.09 102.92 46.07 103.18 46.04
C103.59 46.00 103.94 45.88 104.22 45.68
C104.50 45.48 104.72 45.22 104.88 44.89
C105.05 44.56 105.13 44.22 105.13 43.87
C105.13 43.43 105.00 43.04 104.75 42.71
C104.50 42.39 104.14 42.15 103.67 42.02
C104.00 41.87 104.27 41.64 104.46 41.34
C104.65 41.04 104.75 40.71 104.75 40.36
C104.75 40.02 104.67 39.72 104.52 39.46
C104.36 39.19 104.16 38.98 103.93 38.82
C103.69 38.66 103.42 38.55 103.13 38.50
C102.83 38.45 102.38 38.42 101.77 38.42
Z
" fill="black" fill-rule="nonzero" />
<path d="
M110.61 26.52
L110.61 34.19
L112.16 34.19
L112.16 30.84
L115.19 30.84
L115.19 34.19
L116.74 34.19
L116.74 26.52
L115.19 26.52
L115.19 29.54
L112.16 29.54
L112.16 26.52
Z
" fill="black" fill-rule="nonzero" />
<path d="
M195.50 63.91
L195.50 67.12
L194.04 67.12
L195.50 63.91
Z
M199.13 63.91
L199.13 67.12
L197.67 67.12
L199.13 63.91
Z
M195.61 62.51
L193.47 67.12
L193.47 67.93
L195.50 67.93
L195.50 69.63
L196.08 69.63
L196.08 67.93
L196.71 67.93
L196.71 67.12
L196.08 67.12
L196.08 62.51
Z
M199.24 62.51
L197.11 67.12
L197.11 67.93
L199.13 67.93
L199.13 69.63
L199.71 69.63
L199.71 67.93
L200.34 67.93
L200.34 67.12
L199.71 67.12
L199.71 62.51
Z
" fill="black" fill-rule="nonzero" />
</g>
<g  transform="translate(1.19,228.58)" >
<path d="
M109.47 2.72
C109.30 2.72 109.16 2.78 109.05 2.89
C108.93 3.01 108.88 3.15 108.88 3.31
C108.88 3.47 108.93 3.61 109.05 3.73
C109.17 3.84 109.31 3.90 109.47 3.90
C109.63 3.90 109.77 3.84 109.88 3.73
C110.00 3.61 110.06 3.47 110.06 3.31
C110.06 3.15 110.00 3.01 109.88 2.89
C109.77 2.78 109.63 2.72 109.47 2.72
Z
M125.09 3.32
C125.39 3.32 125.65 3.44 125.89 3.67
C126.12 3.90 126.30 4.24 126.43 4.67
C126.56 5.11 126.62 5.51 126.62 5.89
C126.62 6.19 126.59 6.60 126.52 7.10
C126.33 7.25 126.12 7.37 125.87 7.46
C125.63 7.55 125.42 7.59 125.24 7.59
C124.87 7.59 124.56 7.42 124.31 7.09
C123.97 6.63 123.79 5.99 123.79 5.17
C123.79 4.56 123.92 4.10 124.18 3.79
C124.44 3.48 124.74 3.32 125.09 3.32
Z
M114.44 7.81
L114.44 9.84
C113.96 10.23 113.57 10.42 113.28 10.42
C113.06 10.42 112.87 10.33 112.70 10.15
C112.53 9.96 112.45 9.73 112.45 9.45
C112.45 9.23 112.52 9.03 112.65 8.84
C112.78 8.66 113.00 8.48 113.31 8.31
C113.48 8.21 113.85 8.05 114.44 7.81
Z
M102.79 3.55
C103.72 3.55 104.48 3.86 105.07 4.49
C105.67 5.12 105.96 5.98 105.96 7.06
C105.96 8.15 105.67 9.00 105.07 9.63
C104.48 10.27 103.74 10.58 102.84 10.58
C102.50 10.58 102.09 10.53 101.60 10.42
L101.60 3.72
C102.04 3.60 102.44 3.55 102.79 3.55
Z
M99.35 3.11
L99.35 3.32
L99.64 3.32
C99.94 3.32 100.17 3.41 100.32 3.58
C100.43 3.70 100.48 4.01 100.48 4.50
L100.48 9.59
C100.48 10.04 100.44 10.33 100.35 10.45
C100.21 10.67 99.98 10.77 99.64 10.77
L99.35 10.77
L99.35 10.99
L102.87 10.99
C104.40 10.99 105.54 10.58 106.29 9.76
C106.96 9.02 107.29 8.10 107.29 7.01
C107.29 6.19 107.10 5.47 106.73 4.84
C106.35 4.22 105.86 3.77 105.25 3.51
C104.63 3.24 103.74 3.11 102.56 3.11
Z
M109.70 5.51
L108.09 6.16
L108.17 6.37
C108.33 6.31 108.46 6.28 108.57 6.28
C108.67 6.28 108.75 6.30 108.81 6.35
C108.86 6.40 108.91 6.49 108.93 6.61
C108.97 6.78 108.99 7.16 108.99 7.73
L108.99 9.79
C108.99 10.11 108.96 10.34 108.91 10.45
C108.86 10.57 108.79 10.65 108.70 10.70
C108.61 10.75 108.43 10.78 108.17 10.78
L108.17 10.99
L110.76 10.99
L110.76 10.78
C110.51 10.78 110.33 10.75 110.24 10.70
C110.14 10.64 110.07 10.56 110.02 10.45
C109.98 10.34 109.95 10.12 109.95 9.79
L109.95 5.51
Z
M113.63 5.51
C113.01 5.51 112.53 5.65 112.19 5.93
C111.85 6.20 111.68 6.51 111.68 6.84
C111.68 7.02 111.72 7.16 111.81 7.26
C111.91 7.36 112.02 7.41 112.17 7.41
C112.31 7.41 112.43 7.36 112.52 7.26
C112.62 7.17 112.66 7.03 112.66 6.85
L112.65 6.51
C112.65 6.34 112.72 6.19 112.87 6.06
C113.01 5.93 113.21 5.86 113.45 5.86
C113.77 5.86 114.02 5.96 114.19 6.16
C114.36 6.36 114.44 6.72 114.44 7.25
L114.44 7.46
C113.53 7.79 112.87 8.08 112.48 8.31
C112.08 8.54 111.81 8.79 111.65 9.05
C111.53 9.24 111.47 9.47 111.47 9.73
C111.47 10.14 111.59 10.47 111.83 10.72
C112.07 10.97 112.37 11.10 112.74 11.10
C112.98 11.10 113.20 11.05 113.41 10.95
C113.55 10.89 113.89 10.64 114.44 10.22
C114.44 10.54 114.50 10.76 114.61 10.90
C114.73 11.03 114.88 11.09 115.07 11.09
C115.46 11.09 115.88 10.80 116.31 10.22
L116.31 9.90
C116.08 10.13 115.92 10.27 115.84 10.32
C115.79 10.35 115.74 10.36 115.68 10.36
C115.62 10.36 115.57 10.34 115.52 10.30
C115.48 10.26 115.45 10.19 115.43 10.07
C115.41 9.96 115.40 9.65 115.40 9.14
L115.40 7.33
C115.40 6.82 115.36 6.48 115.29 6.31
C115.19 6.05 115.02 5.87 114.79 5.75
C114.49 5.59 114.10 5.51 113.63 5.51
Z
M117.82 9.86
C117.64 9.86 117.49 9.92 117.37 10.05
C117.24 10.17 117.18 10.32 117.18 10.51
C117.18 10.68 117.24 10.84 117.37 10.96
C117.49 11.09 117.64 11.15 117.82 11.15
C118.00 11.15 118.15 11.09 118.28 10.96
C118.41 10.84 118.47 10.68 118.47 10.51
C118.47 10.33 118.41 10.18 118.28 10.05
C118.16 9.92 118.01 9.86 117.82 9.86
Z
M125.22 2.94
C124.45 2.94 123.83 3.27 123.35 3.93
C122.96 4.46 122.76 5.08 122.76 5.77
C122.76 6.48 122.96 7.05 123.35 7.47
C123.75 7.90 124.22 8.12 124.78 8.12
C125.27 8.12 125.82 7.92 126.43 7.53
L126.43 7.53
C126.27 8.21 125.99 8.83 125.58 9.40
C125.18 9.96 124.76 10.36 124.32 10.58
C123.89 10.81 123.42 10.93 122.92 10.94
L122.92 11.15
L123.25 11.15
C123.98 11.15 124.66 10.95 125.29 10.54
C126.05 10.04 126.65 9.41 127.08 8.65
C127.51 7.89 127.73 7.07 127.73 6.20
C127.73 5.23 127.45 4.41 126.88 3.75
C126.42 3.21 125.86 2.94 125.22 2.94
Z
" fill="black" fill-rule="nonzero" />
</g>
</g>
</svg>
