<?xml version="1.0" encoding="utf-8" standalone="no"?>
<!DOCTYPE svg PUBLIC "-//W3C//DTD SVG 1.0//EN" "http://www.w3.org/TR/SVG/DTD/svg11.dtd" >
<svg version="1.1" baseProfile="full"  width="319.13385" height="338.51422" viewBox="0 0 229.77638 243.73024" preserveAspectRatio="xMidYMid" xmlns="http://www.w3.org/2000/svg" >

<g lengthAdjust="spacingAndGlyphs" xml:space='preserve' >
<g  transform="translate(1.19,1.19)" >
<path d="
M0.0 0.0
L0.0 227.39
L227.39 227.39
L227.39 0.0
Z
" fill="none" fill-rule="nonzero" />
<line x1="6.54" y1="6.54" x2="6.54" y2="220.84" fill="none" stroke="black" stroke-width="0.87px" stroke-linecap="square" />
<line x1="18.45" y1="6.54" x2="18.45" y2="220.84" fill="none" stroke="black" stroke-width="0.25px" stroke-linecap="butt" />
<line x1="30.35" y1="6.54" x2="30.35" y2="220.84" fill="none" stroke="black" stroke-width="0.25px" stroke-linecap="butt" />
<line x1="42.26" y1="6.54" x2="42.26" y2="220.84" fill="none" stroke="black" stroke-width="0.25px" stroke-linecap="butt" />
<line x1="54.17" y1="6.54" x2="54.17" y2="220.84" fill="none" stroke="black" stroke-width="0.25px" stroke-linecap="butt" />
<line x1="66.07" y1="6.54" x2="66.07" y2="220.84" fill="none" stroke="black" stroke-width="0.25px" stroke-linecap="butt" />
<line x1="77.98" y1="6.54" x2="77.98" y2="220.84" fill="none" stroke="black" stroke-width="0.25px" stroke-linecap="butt" />
<line x1="89.88" y1="6.54" x2="89.88" y2="220.84" fill="none" stroke="black" stroke-width="0.25px" stroke-linecap="butt" />
<line x1="101.79" y1="6.54" x2="101.79" y2="220.84" fill="none" stroke="black" stroke-width="0.25px" stroke-linecap="butt" />
<line x1="113.69" y1="6.54" x2="113.69" y2="220.84" fill="none" stroke="black" stroke-width="0.25px" stroke-linecap="butt" />
<line x1="125.60" y1="6.54" x2="125.60" y2="220.84" fill="none" stroke="black" stroke-width="0.25px" stroke-linecap="butt" />
<line x1="137.50" y1="6.54" x2="137.50" y2="220.84" fill="none" stroke="black" stroke-width="0.25px" stroke-linecap="butt" />
<line x1="149.41" y1="6.54" x2="149.41" y2="220.84" fill="none" stroke="black" stroke-width="0.25px" stroke-linecap="butt" />
<line x1="161.31" y1="6.54" x2="161.31" y2="220.84" fill="none" stroke="black" stroke-width="0.25px" stroke-linecap="butt" />
<line x1="173.22" y1="6.54" x2="173.22" y2="220.84" fill="none" stroke="black" stroke-width="0.25px" stroke-linecap="butt" />
<line x1="185.13" y1="6.54" x2="185.13" y2="220.84" fill="none" stroke="black" stroke-width="0.25px" stroke-linecap="butt" />
<line x1="197.03" y1="6.54" x2="197.03" y2="220.84" fill="none" stroke="black" stroke-width="0.25px" stroke-linecap="butt" />
<line x1="208.94" y1="6.54" x2="208.94" y2="220.84" fill="none" stroke="black" stroke-width="0.25px" stroke-linecap="butt" />
<line x1="220.84" y1="6.54" x2="220.84" y2="220.84" fill="none" stroke="black" stroke-width="0.87px" stroke-linecap="square" />
<line x1="6.54" y1="6.54" x2="220.84" y2="6.54" fill="none" stroke="black" stroke-width="0.87px" stroke-linecap="square" />
<line x1="6.54" y1="18.45" x2="220.84" y2="18.45" fill="none" stroke="black" stroke-width="0.25px" stroke-linecap="butt" />
<line x1="6.54" y1="30.35" x2="220.84" y2="30.35" fill="none" stroke="black" stroke-width="0.25px" stroke-linecap="butt" />
<line x1="6.54" y1="42.26" x2="220.84" y2="42.26" fill="none" stroke="black" stroke-width="0.25px" stroke-linecap="butt" />
<line x1="6.54" y1="54.17" x2="220.84" y2="54.17" fill="none" stroke="black" stroke-width="0.25px" stroke-linecap="butt" />
<line x1="6.54" y1="66.07" x2="220.84" y2="66.07" fill="none" stroke="black" stroke-width="0.25px" stroke-linecap="butt" />
<line x1="6.54" y1="77.98" x2="220.84" y2="77.98" fill="none" stroke="black" stroke-width="0.25px" stroke-linecap="butt" />
<line x1="6.54" y1="89.88" x2="220.84" y2="89.88" fill="none" stroke="black" stroke-width="0.25px" stroke-linecap="butt" />
<line x1="6.54" y1="101.79" x2="220.84" y2="101.79" fill="none" stroke="black" stroke-width="0.25px" stroke-linecap="butt" />
<line x1="6.54" y1="113.69" x2="220.84" y2="113.69" fill="none" stroke="black" stroke-width="0.25px" stroke-linecap="butt" />
<line x1="6.54" y1="125.60" x2="220.84" y2="125.60" fill="none" stroke="black" stroke-width="0.25px" stroke-linecap="butt" />
<line x1="6.54" y1="137.50" x2="220.84" y2="137.50" fill="none" stroke="black" stroke-width="0.25px" stroke-linecap="butt" />
<line x1="6.54" y1="149.41" x2="220.84" y2="149.41" fill="none" stroke="black" stroke-width="0.25px" stroke-linecap="butt" />
<line x1="6.54" y1="161.31" x2="220.84" y2="161.31" fill="none" stroke="black" stroke-width="0.25px" stroke-linecap="butt" />
<line x1="6.54" y1="173.22" x2="220.84" y2="173.22" fill="none" stroke="black" stroke-width="0.25px" stroke-linecap="butt" />
<line x1="6.54" y1="185.13" x2="220.84" y2="185.13" fill="none" stroke="black" stroke-width="0.25px" stroke-linecap="butt" />
<line x1="6.54" y1="197.03" x2="220.84" y2="197.03" fill="none" stroke="black" stroke-width="0.25px" stroke-linecap="butt" />
<line x1="6.54" y1="208.94" x2="220.84" y2="208.94" fill="none" stroke="black" stroke-width="0.25px" stroke-linecap="butt" />
<line x1="6.54" y1="220.84" x2="220.84" y2="220.84" fill="none" stroke="black" stroke-width="0.87px" stroke-linecap="square" />
<circle cx="30.35" cy="30.35" r="6.01" fill="black"/>
<circle cx="30.35" cy="42.26" r="6.01" fill="black"/>
<circle cx="30.35" cy="54.17" r="6.01" fill="black"/>
<circle cx="30.35" cy="66.07" r="6.01" fill="black"/>
<circle cx="42.26" cy="30.35" r="5.89" fill="white"/>
<circle cx="42.26" cy="30.35" r="5.89" fill="none" stroke="black" stroke-width="0.25px"/>
<circle cx="42.26" cy="42.26" r="5.89" fill="white"/>
<circle cx="42.26" cy="42.26" r="5.89" fill="none" stroke="black" stroke-width="0.25px"/>
<circle cx="42.26" cy="54.17" r="5.89" fill="white"/>
<circle cx="42.26" cy="54.17" r="5.89" fill="none" stroke="black" stroke-width="0.25px"/>
<circle cx="42.26" cy="113.69" r="1.27" fill="black"/>
<circle cx="42.26" cy="185.13" r="1.27" fill="black"/>
<circle cx="66.07" cy="30.35" r="6.01" fill="black"/>
<circle cx="66.07" cy="42.26" r="5.89" fill="white"/>
<circle cx="66.07" cy="42.26" r="5.89" fill="none" stroke="black" stroke-width="0.25px"/>
<circle cx="89.88" cy="30.35" r="5.89" fill="white"/>
<circle cx="89.88" cy="30.35" r="5.89" fill="none" stroke="black" stroke-width="0.25px"/>
<circle cx="113.69" cy="42.26" r="1.27" fill="black"/>
<circle cx="113.69" cy="113.69" r="1.27" fill="black"/>
<circle cx="113.69" cy="185.13" r="1.27" fill="black"/>
<circle cx="185.13" cy="42.26" r="1.27" fill="black"/>
<circle cx="185.13" cy="113.69" r="1.27" fill="black"/>
<circle cx="185.13" cy="185.13" r="1.27" fill="black"/>
<path d="
M28.67 26.57
L28.64 26.67
C28.54 26.97 28.38 27.27 28.15 27.59
C27.91 27.90 27.65 28.17 27.34 28.39
L27.28 28.43
L27.28 28.50
L27.28 29.35
L27.28 29.59
L27.49 29.47
C27.69 29.36 27.90 29.20 28.13 28.99
C28.24 28.90 28.34 28.80 28.43 28.70
L28.43 28.70
L28.43 33.87
L28.43 34.01
L29.29 34.01
L29.29 33.87
L29.29 26.72
L29.29 26.57
Z
M32.09 26.57
C31.68 26.57 31.34 26.75 31.06 27.09
C30.79 27.42 30.61 27.91 30.54 28.54
L30.52 28.67
L30.64 28.70
L31.21 28.85
L31.37 28.90
L31.39 28.73
C31.43 28.32 31.52 28.03 31.65 27.83
C31.77 27.66 31.92 27.58 32.09 27.58
C32.09 27.58 32.09 27.58 32.10 27.58
C32.10 27.58 32.10 27.58 32.10 27.58
C32.26 27.58 32.40 27.66 32.52 27.82
C32.65 28.00 32.72 28.24 32.72 28.54
C32.72 28.87 32.64 29.13 32.48 29.32
C32.34 29.50 32.15 29.59 31.91 29.60
L31.91 29.60
L31.83 29.59
L31.69 29.57
L31.67 29.72
L31.61 30.48
L31.59 30.71
L31.59 30.71
L31.80 30.63
C31.95 30.57 32.06 30.54 32.15 30.54
C32.15 30.54 32.15 30.54 32.15 30.54
C32.15 30.54 32.16 30.54 32.16 30.54
C32.36 30.54 32.54 30.65 32.69 30.86
C32.85 31.09 32.93 31.39 32.93 31.78
C32.93 32.19 32.84 32.52 32.66 32.77
C32.50 33.01 32.31 33.13 32.10 33.13
C32.10 33.13 32.10 33.13 32.10 33.13
C32.10 33.13 32.10 33.13 32.10 33.13
C31.91 33.13 31.75 33.03 31.63 32.84
C31.49 32.63 31.39 32.30 31.33 31.85
L31.31 31.70
L31.17 31.73
L30.59 31.85
L30.47 31.87
L30.48 32.00
C30.52 32.64 30.69 33.15 30.98 33.53
C31.29 33.93 31.66 34.13 32.11 34.13
C32.58 34.13 32.99 33.91 33.33 33.45
C33.66 33.01 33.82 32.45 33.82 31.76
C33.82 31.44 33.78 31.15 33.70 30.89
C33.62 30.62 33.51 30.40 33.38 30.24
C33.29 30.13 33.19 30.04 33.07 29.97
L33.07 29.97
C33.21 29.84 33.32 29.67 33.41 29.48
C33.53 29.21 33.59 28.91 33.59 28.56
C33.59 28.00 33.45 27.53 33.16 27.15
C32.87 26.77 32.51 26.57 32.09 26.57
Z
" fill="white" fill-rule="nonzero" />
<path d="
M31.57 41.14
L31.57 41.14
L31.57 41.14
C31.57 41.14 31.57 41.14 31.57 41.14
Z
M28.67 38.48
L28.64 38.58
C28.54 38.88 28.38 39.18 28.15 39.50
C27.91 39.81 27.65 40.08 27.34 40.30
L27.28 40.34
L27.28 40.41
L27.28 41.26
L27.28 41.50
L27.49 41.38
C27.69 41.27 27.90 41.11 28.13 40.90
C28.24 40.80 28.34 40.71 28.43 40.61
L28.43 40.61
L28.43 45.77
L28.43 45.92
L29.29 45.92
L29.29 45.77
L29.29 38.62
L29.29 38.48
Z
M31.04 38.61
L31.03 38.73
L30.57 42.39
L30.56 42.52
L30.69 42.55
L31.23 42.65
L31.34 42.68
L31.39 42.57
C31.47 42.37 31.57 42.22 31.70 42.12
C31.83 42.02 31.96 41.97 32.10 41.97
C32.10 41.97 32.10 41.97 32.10 41.97
C32.10 41.97 32.11 41.97 32.11 41.97
C32.34 41.97 32.54 42.09 32.70 42.32
C32.88 42.58 32.96 42.95 32.96 43.43
C32.96 43.94 32.87 44.34 32.69 44.63
C32.52 44.90 32.33 45.04 32.11 45.04
C32.11 45.04 32.11 45.04 32.11 45.04
C32.11 45.04 32.10 45.04 32.10 45.04
C31.93 45.04 31.78 44.94 31.65 44.76
C31.50 44.56 31.40 44.24 31.36 43.82
L31.34 43.67
L31.20 43.69
L30.60 43.77
L30.46 43.79
L30.47 43.92
C30.51 44.57 30.68 45.08 30.98 45.46
C31.29 45.84 31.67 46.04 32.11 46.04
C32.66 46.04 33.08 45.76 33.40 45.22
C33.70 44.70 33.85 44.08 33.85 43.36
C33.85 42.62 33.70 42.04 33.40 41.60
C33.08 41.14 32.70 40.91 32.26 40.91
C32.02 40.91 31.79 40.99 31.57 41.14
L31.57 41.14
L31.75 39.73
L33.63 39.73
L33.63 39.59
L33.63 38.75
L33.63 38.61
Z
" fill="white" fill-rule="nonzero" />
<path d="
M28.67 50.45
L28.64 50.55
C28.54 50.84 28.38 51.15 28.15 51.46
C27.91 51.78 27.65 52.04 27.34 52.26
L27.28 52.30
L27.28 52.38
L27.28 53.22
L27.28 53.46
L27.49 53.35
C27.69 53.24 27.90 53.08 28.13 52.87
C28.24 52.77 28.34 52.67 28.43 52.57
L28.43 52.57
L28.43 57.74
L28.43 57.88
L29.29 57.88
L29.29 57.74
L29.29 50.59
L29.29 50.45
Z
M30.51 50.57
L30.51 50.71
L30.51 51.55
L30.51 51.69
L32.70 51.69
C32.45 52.16 32.21 52.71 31.99 53.34
C31.74 54.07 31.54 54.83 31.39 55.63
C31.25 56.43 31.17 57.14 31.16 57.74
L31.16 57.88
L31.90 57.88
L32.03 57.88
L32.04 57.75
C32.09 56.61 32.29 55.45 32.62 54.29
C32.96 53.13 33.35 52.19 33.80 51.47
L33.82 51.43
L33.82 51.39
L33.82 50.71
L33.82 50.57
Z
" fill="white" fill-rule="nonzero" />
<path d="
M28.67 62.35
L28.64 62.45
C28.54 62.75 28.38 63.05 28.15 63.37
C27.91 63.68 27.65 63.95 27.34 64.17
L27.28 64.21
L27.28 64.28
L27.28 65.13
L27.28 65.37
L27.49 65.25
C27.69 65.14 27.90 64.98 28.13 64.77
C28.24 64.68 28.34 64.58 28.43 64.48
L28.43 64.48
L28.43 69.65
L28.43 69.79
L29.29 69.79
L29.29 69.65
L29.29 62.49
L29.29 62.35
Z
M32.30 62.35
L32.27 62.45
C32.17 62.75 32.01 63.05 31.78 63.37
C31.54 63.68 31.28 63.95 30.97 64.17
L30.91 64.21
L30.91 64.28
L30.91 65.13
L30.91 65.37
L31.12 65.25
C31.32 65.14 31.53 64.98 31.76 64.77
C31.87 64.68 31.97 64.58 32.06 64.48
L32.06 64.48
L32.06 69.65
L32.06 69.79
L32.92 69.79
L32.92 69.65
L32.92 62.49
L32.92 62.35
Z
" fill="white" fill-rule="nonzero" />
<path d="
M44.36 28.21
L44.36 31.42
L42.90 31.42
L44.36 28.21
Z
M40.68 26.78
C40.58 27.09 40.41 27.41 40.17 27.74
C39.92 28.06 39.65 28.34 39.33 28.57
L39.33 29.41
C39.52 29.31 39.72 29.15 39.94 28.95
C40.17 28.75 40.34 28.55 40.48 28.36
L40.48 33.93
L41.05 33.93
L41.05 26.78
Z
M44.47 26.81
L42.33 31.42
L42.33 32.22
L44.36 32.22
L44.36 33.93
L44.93 33.93
L44.93 32.22
L45.57 32.22
L45.57 31.42
L44.93 31.42
L44.93 26.81
Z
" fill="black" fill-rule="nonzero" />
<path d="
M44.08 53.83
C44.34 53.83 44.55 53.97 44.73 54.25
C44.90 54.53 44.99 54.92 44.99 55.43
C44.99 55.94 44.90 56.35 44.73 56.64
C44.55 56.94 44.35 57.08 44.12 57.08
C43.86 57.08 43.64 56.93 43.45 56.61
C43.25 56.30 43.15 55.89 43.15 55.37
C43.15 54.90 43.25 54.52 43.43 54.25
C43.62 53.97 43.83 53.83 44.08 53.83
Z
M40.68 50.53
C40.58 50.84 40.41 51.16 40.17 51.49
C39.92 51.81 39.65 52.09 39.33 52.32
L39.33 53.16
C39.52 53.06 39.72 52.91 39.94 52.70
C40.17 52.50 40.34 52.30 40.48 52.11
L40.48 57.68
L41.05 57.68
L41.05 50.53
Z
M44.17 50.53
C43.68 50.53 43.28 50.82 42.96 51.41
C42.65 51.99 42.49 52.97 42.49 54.35
C42.49 55.59 42.65 56.47 42.95 57.00
C43.26 57.54 43.65 57.80 44.12 57.80
C44.38 57.80 44.62 57.71 44.84 57.52
C45.05 57.34 45.23 57.05 45.37 56.67
C45.51 56.28 45.58 55.85 45.58 55.37
C45.58 54.67 45.44 54.11 45.16 53.69
C44.89 53.27 44.57 53.06 44.20 53.06
C43.97 53.06 43.76 53.14 43.56 53.30
C43.36 53.46 43.20 53.70 43.06 54.01
C43.07 53.13 43.15 52.47 43.33 52.02
C43.53 51.51 43.80 51.25 44.13 51.25
C44.35 51.25 44.53 51.36 44.68 51.59
C44.79 51.74 44.87 52.00 44.93 52.37
L45.50 52.30
C45.45 51.73 45.30 51.29 45.06 50.98
C44.82 50.68 44.52 50.53 44.17 50.53
Z
" fill="black" fill-rule="nonzero" />
<path d="
M64.49 38.68
C64.39 38.99 64.22 39.31 63.98 39.64
C63.74 39.97 63.46 40.24 63.14 40.47
L63.14 41.32
C63.33 41.21 63.53 41.06 63.75 40.86
C63.98 40.66 64.15 40.46 64.29 40.26
L64.29 45.84
L64.86 45.84
L64.86 38.68
Z
M67.90 38.68
C67.46 38.68 67.11 38.86 66.84 39.20
C66.57 39.55 66.42 40.06 66.37 40.74
L66.96 40.84
C66.96 40.38 67.05 40.02 67.22 39.78
C67.39 39.53 67.61 39.41 67.88 39.41
C68.13 39.41 68.34 39.52 68.51 39.75
C68.68 39.98 68.76 40.27 68.76 40.64
C68.76 40.95 68.68 41.29 68.51 41.65
C68.35 42.02 67.99 42.53 67.46 43.20
C67.00 43.78 66.68 44.27 66.51 44.69
C66.34 45.11 66.26 45.50 66.26 45.84
L69.35 45.84
L69.35 44.99
L67.06 44.99
C67.12 44.84 67.20 44.68 67.30 44.52
C67.40 44.36 67.63 44.06 67.97 43.62
C68.50 42.93 68.87 42.38 69.06 41.96
C69.25 41.54 69.35 41.11 69.35 40.66
C69.35 40.14 69.22 39.69 68.98 39.29
C68.73 38.88 68.37 38.68 67.90 38.68
Z
" fill="black" fill-rule="nonzero" />
</g>
<g  transform="translate(1.19,228.58)" >
<path d="
M109.47 2.72
C109.30 2.72 109.16 2.78 109.05 2.89
C108.93 3.01 108.88 3.15 108.88 3.31
C108.88 3.47 108.93 3.61 109.05 3.73
C109.17 3.84 109.31 3.90 109.47 3.90
C109.63 3.90 109.77 3.84 109.88 3.73
C110.00 3.61 110.06 3.47 110.06 3.31
C110.06 3.15 110.00 3.01 109.88 2.89
C109.77 2.78 109.63 2.72 109.47 2.72
Z
M114.44 7.81
L114.44 9.84
C113.96 10.23 113.57 10.42 113.28 10.42
C113.06 10.42 112.87 10.33 112.70 10.15
C112.53 9.96 112.45 9.73 112.45 9.45
C112.45 9.23 112.52 9.03 112.65 8.84
C112.78 8.66 113.00 8.48 113.31 8.31
C113.48 8.21 113.85 8.05 114.44 7.81
Z
M102.79 3.55
C103.72 3.55 104.48 3.86 105.07 4.49
C105.67 5.12 105.96 5.98 105.96 7.06
C105.96 8.15 105.67 9.00 105.07 9.63
C104.48 10.27 103.74 10.58 102.84 10.58
C102.50 10.58 102.09 10.53 101.60 10.42
L101.60 3.72
C102.04 3.60 102.44 3.55 102.79 3.55
Z
M99.35 3.11
L99.35 3.32
L99.64 3.32
C99.94 3.32 100.17 3.41 100.32 3.58
C100.43 3.70 100.48 4.01 100.48 4.50
L100.48 9.59
C100.48 10.04 100.44 10.33 100.35 10.45
C100.21 10.67 99.98 10.77 99.64 10.77
L99.35 10.77
L99.35 10.99
L102.87 10.99
C104.40 10.99 105.54 10.58 106.29 9.76
C106.96 9.02 107.29 8.10 107.29 7.01
C107.29 6.19 107.10 5.47 106.73 4.84
C106.35 4.22 105.86 3.77 105.25 3.51
C104.63 3.24 103.74 3.11 102.56 3.11
Z
M109.70 5.51
L108.09 6.16
L108.17 6.37
C108.33 6.31 108.46 6.28 108.57 6.28
C108.67 6.28 108.75 6.30 108.81 6.35
C108.86 6.40 108.91 6.49 108.93 6.61
C108.97 6.78 108.99 7.16 108.99 7.73
L108.99 9.79
C108.99 10.11 108.96 10.34 108.91 10.45
C108.86 10.57 108.79 10.65 108.70 10.70
C108.61 10.75 108.43 10.78 108.17 10.78
L108.17 10.99
L110.76 10.99
L110.76 10.78
C110.51 10.78 110.33 10.75 110.24 10.70
C110.14 10.64 110.07 10.56 110.02 10.45
C109.98 10.34 109.95 10.12 109.95 9.79
L109.95 5.51
Z
M125.60 2.94
L123.68 3.88
L123.77 4.06
C124.03 3.94 124.23 3.88 124.37 3.88
C124.47 3.88 124.56 3.91 124.63 3.97
C124.70 4.02 124.75 4.12 124.78 4.24
C124.81 4.40 124.83 4.77 124.83 5.34
L124.83 9.60
C124.83 10.07 124.81 10.36 124.77 10.45
C124.73 10.55 124.65 10.62 124.54 10.68
C124.43 10.73 124.19 10.77 123.82 10.77
L123.82 10.99
L126.79 10.99
L126.79 10.77
C126.43 10.77 126.19 10.73 126.08 10.67
C125.96 10.62 125.88 10.53 125.85 10.42
C125.81 10.32 125.79 10.04 125.79 9.60
L125.79 2.94
Z
M113.63 5.51
C113.01 5.51 112.53 5.65 112.19 5.93
C111.85 6.20 111.68 6.51 111.68 6.84
C111.68 7.02 111.72 7.16 111.81 7.26
C111.91 7.36 112.02 7.41 112.17 7.41
C112.31 7.41 112.43 7.36 112.52 7.26
C112.62 7.17 112.66 7.03 112.66 6.85
L112.65 6.51
C112.65 6.34 112.72 6.19 112.87 6.06
C113.01 5.93 113.21 5.86 113.45 5.86
C113.77 5.86 114.02 5.96 114.19 6.16
C114.36 6.36 114.44 6.72 114.44 7.25
L114.44 7.46
C113.53 7.79 112.87 8.08 112.48 8.31
C112.08 8.54 111.81 8.79 111.65 9.05
C111.53 9.24 111.47 9.47 111.47 9.73
C111.47 10.14 111.59 10.47 111.83 10.72
C112.07 10.97 112.37 11.10 112.74 11.10
C112.98 11.10 113.20 11.05 113.41 10.95
C113.55 10.89 113.89 10.64 114.44 10.22
C114.44 10.54 114.50 10.76 114.61 10.90
C114.73 11.03 114.88 11.09 115.07 11.09
C115.46 11.09 115.88 10.80 116.31 10.22
L116.31 9.90
C116.08 10.13 115.92 10.27 115.84 10.32
C115.79 10.35 115.74 10.36 115.68 10.36
C115.62 10.36 115.57 10.34 115.52 10.30
C115.48 10.26 115.45 10.19 115.43 10.07
C115.41 9.96 115.40 9.65 115.40 9.14
L115.40 7.33
C115.40 6.82 115.36 6.48 115.29 6.31
C115.19 6.05 115.02 5.87 114.79 5.75
C114.49 5.59 114.10 5.51 113.63 5.51
Z
M117.82 9.86
C117.64 9.86 117.49 9.92 117.37 10.05
C117.24 10.17 117.18 10.32 117.18 10.51
C117.18 10.68 117.24 10.84 117.37 10.96
C117.49 11.09 117.64 11.15 117.82 11.15
C118.00 11.15 118.15 11.09 118.28 10.96
C118.41 10.84 118.47 10.68 118.47 10.51
C118.47 10.33 118.41 10.18 118.28 10.05
C118.16 9.92 118.01 9.86 117.82 9.86
Z
" fill="black" fill-rule="nonzero" />
</g>
</g>
</svg>
