<?xml version="1.0" encoding="utf-8" standalone="no"?>
<!DOCTYPE svg PUBLIC "-//W3C//DTD SVG 1.0//EN" "http://www.w3.org/TR/SVG/DTD/svg11.dtd" >
<svg version="1.1" baseProfile="full"  width="319.13385" height="338.46454" viewBox="0 0 229.77638 243.69449" preserveAspectRatio="xMidYMid" xmlns="http://www.w3.org/2000/svg" >

<g lengthAdjust="spacingAndGlyphs" xml:space='preserve' >
<g  transform="translate(1.19,1.19)" >
<path d="
M0.0 0.0
L0.0 227.39
L227.39 227.39
L227.39 0.0
Z
" fill="none" fill-rule="nonzero" />
<line x1="6.54" y1="6.54" x2="6.54" y2="220.84" fill="none" stroke="black" stroke-width="0.87px" stroke-linecap="square" />
<line x1="18.45" y1="6.54" x2="18.45" y2="220.84" fill="none" stroke="black" stroke-width="0.25px" stroke-linecap="butt" />
<line x1="30.35" y1="6.54" x2="30.35" y2="220.84" fill="none" stroke="black" stroke-width="0.25px" stroke-linecap="butt" />
<line x1="42.26" y1="6.54" x2="42.26" y2="72.02" fill="none" stroke="black" stroke-width="0.25px" stroke-linecap="butt" />
<line x1="42.26" y1="83.93" x2="42.26" y2="220.84" fill="none" stroke="black" stroke-width="0.25px" stroke-linecap="butt" />
<line x1="54.17" y1="6.54" x2="54.17" y2="220.84" fill="none" stroke="black" stroke-width="0.25px" stroke-linecap="butt" />
<line x1="66.07" y1="6.54" x2="66.07" y2="220.84" fill="none" stroke="black" stroke-width="0.25px" stroke-linecap="butt" />
<line x1="77.98" y1="6.54" x2="77.98" y2="220.84" fill="none" stroke="black" stroke-width="0.25px" stroke-linecap="butt" />
<line x1="89.88" y1="6.54" x2="89.88" y2="220.84" fill="none" stroke="black" stroke-width="0.25px" stroke-linecap="butt" />
<line x1="101.79" y1="6.54" x2="101.79" y2="220.84" fill="none" stroke="black" stroke-width="0.25px" stroke-linecap="butt" />
<line x1="113.69" y1="6.54" x2="113.69" y2="220.84" fill="none" stroke="black" stroke-width="0.25px" stroke-linecap="butt" />
<line x1="125.60" y1="6.54" x2="125.60" y2="220.84" fill="none" stroke="black" stroke-width="0.25px" stroke-linecap="butt" />
<line x1="137.50" y1="6.54" x2="137.50" y2="220.84" fill="none" stroke="black" stroke-width="0.25px" stroke-linecap="butt" />
<line x1="149.41" y1="6.54" x2="149.41" y2="220.84" fill="none" stroke="black" stroke-width="0.25px" stroke-linecap="butt" />
<line x1="161.31" y1="6.54" x2="161.31" y2="220.84" fill="none" stroke="black" stroke-width="0.25px" stroke-linecap="butt" />
<line x1="173.22" y1="6.54" x2="173.22" y2="220.84" fill="none" stroke="black" stroke-width="0.25px" stroke-linecap="butt" />
<line x1="185.13" y1="6.54" x2="185.13" y2="220.84" fill="none" stroke="black" stroke-width="0.25px" stroke-linecap="butt" />
<line x1="197.03" y1="6.54" x2="197.03" y2="220.84" fill="none" stroke="black" stroke-width="0.25px" stroke-linecap="butt" />
<line x1="208.94" y1="6.54" x2="208.94" y2="220.84" fill="none" stroke="black" stroke-width="0.25px" stroke-linecap="butt" />
<line x1="220.84" y1="6.54" x2="220.84" y2="220.84" fill="none" stroke="black" stroke-width="0.87px" stroke-linecap="square" />
<line x1="6.54" y1="6.54" x2="220.84" y2="6.54" fill="none" stroke="black" stroke-width="0.87px" stroke-linecap="square" />
<line x1="6.54" y1="18.45" x2="220.84" y2="18.45" fill="none" stroke="black" stroke-width="0.25px" stroke-linecap="butt" />
<line x1="6.54" y1="30.35" x2="220.84" y2="30.35" fill="none" stroke="black" stroke-width="0.25px" stroke-linecap="butt" />
<line x1="6.54" y1="42.26" x2="220.84" y2="42.26" fill="none" stroke="black" stroke-width="0.25px" stroke-linecap="butt" />
<line x1="6.54" y1="54.17" x2="220.84" y2="54.17" fill="none" stroke="black" stroke-width="0.25px" stroke-linecap="butt" />
<line x1="6.54" y1="66.07" x2="220.84" y2="66.07" fill="none" stroke="black" stroke-width="0.25px" stroke-linecap="butt" />
<line x1="6.54" y1="77.98" x2="36.31" y2="77.98" fill="none" stroke="black" stroke-width="0.25px" stroke-linecap="butt" />
<line x1="48.21" y1="77.98" x2="220.84" y2="77.98" fill="none" stroke="black" stroke-width="0.25px" stroke-linecap="butt" />
<line x1="6.54" y1="89.88" x2="220.84" y2="89.88" fill="none" stroke="black" stroke-width="0.25px" stroke-linecap="butt" />
<line x1="6.54" y1="101.79" x2="220.84" y2="101.79" fill="none" stroke="black" stroke-width="0.25px" stroke-linecap="butt" />
<line x1="6.54" y1="113.69" x2="220.84" y2="113.69" fill="none" stroke="black" stroke-width="0.25px" stroke-linecap="butt" />
<line x1="6.54" y1="125.60" x2="220.84" y2="125.60" fill="none" stroke="black" stroke-width="0.25px" stroke-linecap="butt" />
<line x1="6.54" y1="137.50" x2="220.84" y2="137.50" fill="none" stroke="black" stroke-width="0.25px" stroke-linecap="butt" />
<line x1="6.54" y1="149.41" x2="220.84" y2="149.41" fill="none" stroke="black" stroke-width="0.25px" stroke-linecap="butt" />
<line x1="6.54" y1="161.31" x2="220.84" y2="161.31" fill="none" stroke="black" stroke-width="0.25px" stroke-linecap="butt" />
<line x1="6.54" y1="173.22" x2="220.84" y2="173.22" fill="none" stroke="black" stroke-width="0.25px" stroke-linecap="butt" />
<line x1="6.54" y1="185.13" x2="220.84" y2="185.13" fill="none" stroke="black" stroke-width="0.25px" stroke-linecap="butt" />
<line x1="6.54" y1="197.03" x2="220.84" y2="197.03" fill="none" stroke="black" stroke-width="0.25px" stroke-linecap="butt" />
<line x1="6.54" y1="208.94" x2="220.84" y2="208.94" fill="none" stroke="black" stroke-width="0.25px" stroke-linecap="butt" />
<line x1="6.54" y1="220.84" x2="220.84" y2="220.84" fill="none" stroke="black" stroke-width="0.87px" stroke-linecap="square" />
<circle cx="18.45" cy="66.07" r="5.85" fill="white"/>
<circle cx="18.45" cy="66.07" r="5.85" fill="none" stroke="black" stroke-width="0.25px"/>
<circle cx="30.35" cy="30.35" r="5.85" fill="white"/>
<circle cx="30.35" cy="30.35" r="5.85" fill="none" stroke="black" stroke-width="0.25px"/>
<circle cx="30.35" cy="42.26" r="5.85" fill="white"/>
<circle cx="30.35" cy="42.26" r="5.85" fill="none" stroke="black" stroke-width="0.25px"/>
<circle cx="42.26" cy="42.26" r="5.98" fill="black"/>
<circle cx="42.26" cy="54.17" r="5.98" fill="black"/>
<circle cx="42.26" cy="89.88" r="5.98" fill="black"/>
<circle cx="42.26" cy="113.69" r="1.27" fill="black"/>
<circle cx="42.26" cy="185.13" r="5.85" fill="white"/>
<circle cx="42.26" cy="185.13" r="5.85" fill="none" stroke="black" stroke-width="0.25px"/>
<circle cx="54.17" cy="18.45" r="5.85" fill="white"/>
<circle cx="54.17" cy="18.45" r="5.85" fill="none" stroke="black" stroke-width="0.25px"/>
<circle cx="77.98" cy="42.26" r="5.98" fill="black"/>
<circle cx="113.69" cy="42.26" r="1.27" fill="black"/>
<circle cx="113.69" cy="113.69" r="1.27" fill="black"/>
<circle cx="113.69" cy="185.13" r="1.27" fill="black"/>
<circle cx="161.31" cy="30.35" r="5.85" fill="white"/>
<circle cx="161.31" cy="30.35" r="5.85" fill="none" stroke="black" stroke-width="0.25px"/>
<circle cx="185.13" cy="42.26" r="5.98" fill="black"/>
<circle cx="185.13" cy="113.69" r="1.27" fill="black"/>
<circle cx="185.13" cy="125.60" r="5.98" fill="black"/>
<circle cx="185.13" cy="185.13" r="1.27" fill="black"/>
<circle cx="185.13" cy="197.03" r="5.98" fill="black"/>
<path d="
M16.87 62.49
C16.77 62.81 16.60 63.12 16.36 63.45
C16.11 63.78 15.83 64.06 15.52 64.28
L15.52 65.13
C15.70 65.02 15.91 64.87 16.13 64.67
C16.36 64.47 16.53 64.27 16.66 64.07
L16.66 69.65
L17.24 69.65
L17.24 62.49
Z
M20.28 62.49
C19.84 62.49 19.48 62.67 19.22 63.01
C18.95 63.36 18.79 63.87 18.75 64.55
L19.34 64.65
C19.34 64.19 19.43 63.83 19.60 63.59
C19.77 63.34 19.99 63.22 20.26 63.22
C20.50 63.22 20.71 63.33 20.88 63.56
C21.05 63.79 21.14 64.09 21.14 64.45
C21.14 64.76 21.06 65.10 20.89 65.47
C20.72 65.83 20.37 66.35 19.84 67.01
C19.38 67.59 19.06 68.08 18.89 68.50
C18.72 68.93 18.64 69.31 18.64 69.65
L21.73 69.65
L21.73 68.81
L19.44 68.81
C19.50 68.65 19.58 68.49 19.68 68.33
C19.78 68.17 20.00 67.87 20.35 67.44
C20.88 66.74 21.25 66.19 21.44 65.77
C21.63 65.36 21.73 64.92 21.73 64.47
C21.73 63.96 21.60 63.50 21.36 63.10
C21.11 62.70 20.75 62.49 20.28 62.49
Z
" fill="black" fill-rule="nonzero" />
<path d="
M30.70 28.22
L30.70 31.40
L28.90 31.40
L30.70 28.22
Z
M30.84 26.84
L28.20 31.40
L28.20 32.19
L30.70 32.19
L30.70 33.87
L31.42 33.87
L31.42 32.19
L32.20 32.19
L32.20 31.40
L31.42 31.40
L31.42 26.84
Z
" fill="black" fill-rule="nonzero" />
<path d="
M30.33 39.38
C30.58 39.38 30.80 39.48 30.99 39.69
C31.18 39.90 31.27 40.17 31.27 40.50
C31.27 40.82 31.18 41.08 31.00 41.28
C30.82 41.48 30.59 41.59 30.34 41.59
C30.07 41.59 29.85 41.48 29.66 41.28
C29.48 41.07 29.39 40.80 29.39 40.45
C29.39 40.15 29.48 39.89 29.67 39.68
C29.85 39.48 30.07 39.38 30.33 39.38
Z
M30.32 42.29
C30.64 42.29 30.92 42.42 31.16 42.69
C31.39 42.95 31.51 43.30 31.51 43.73
C31.51 44.16 31.39 44.50 31.17 44.76
C30.94 45.01 30.66 45.14 30.34 45.14
C30.01 45.14 29.73 45.01 29.50 44.75
C29.27 44.48 29.15 44.13 29.15 43.70
C29.15 43.29 29.27 42.95 29.49 42.68
C29.72 42.42 29.99 42.29 30.32 42.29
Z
M30.32 38.67
C29.84 38.67 29.45 38.83 29.13 39.17
C28.82 39.51 28.66 39.94 28.66 40.48
C28.66 40.83 28.73 41.13 28.88 41.37
C29.02 41.61 29.24 41.79 29.52 41.92
C29.18 42.03 28.91 42.23 28.72 42.54
C28.53 42.84 28.43 43.23 28.43 43.70
C28.43 44.35 28.61 44.86 28.97 45.26
C29.34 45.65 29.79 45.85 30.34 45.85
C30.87 45.85 31.32 45.65 31.69 45.26
C32.05 44.86 32.23 44.35 32.23 43.73
C32.23 43.27 32.14 42.89 31.95 42.58
C31.76 42.28 31.50 42.05 31.15 41.92
C31.43 41.79 31.64 41.60 31.78 41.37
C31.93 41.13 32.00 40.84 32.00 40.51
C32.00 39.96 31.84 39.52 31.52 39.18
C31.20 38.84 30.80 38.67 30.32 38.67
Z
" fill="black" fill-rule="nonzero" />
<path d="
M40.25 38.65
L40.25 38.79
L40.25 39.62
L40.25 39.76
L42.94 39.76
C42.63 40.22 42.35 40.76 42.08 41.37
C41.76 42.09 41.52 42.85 41.34 43.64
C41.16 44.44 41.06 45.13 41.05 45.73
L41.05 45.87
L41.92 45.87
L42.06 45.87
L42.07 45.74
C42.13 44.61 42.37 43.48 42.79 42.33
C43.20 41.19 43.69 40.26 44.23 39.55
L44.26 39.51
L44.26 39.46
L44.26 38.79
L44.26 38.65
Z
" fill="white" fill-rule="nonzero" />
<path d="
M42.24 51.43
C42.24 51.43 42.24 51.43 42.24 51.43
C42.24 51.43 42.24 51.43 42.24 51.43
C42.49 51.43 42.71 51.56 42.90 51.81
C43.11 52.07 43.21 52.44 43.21 52.91
C43.21 53.38 43.11 53.74 42.91 53.99
C42.72 54.23 42.50 54.35 42.23 54.35
C42.23 54.35 42.23 54.35 42.23 54.35
C42.23 54.35 42.22 54.35 42.22 54.35
C41.95 54.35 41.72 54.23 41.52 53.99
C41.31 53.74 41.21 53.40 41.21 52.98
C41.21 52.50 41.32 52.12 41.54 51.84
C41.75 51.56 41.98 51.43 42.24 51.43
Z
M42.16 50.43
C41.61 50.43 41.14 50.66 40.76 51.12
C40.39 51.57 40.20 52.18 40.20 52.95
C40.20 53.70 40.38 54.29 40.74 54.73
C41.11 55.17 41.55 55.39 42.07 55.39
C42.36 55.39 42.64 55.30 42.91 55.12
C43.05 55.03 43.17 54.92 43.28 54.80
L43.28 54.80
C43.26 55.21 43.19 55.58 43.09 55.90
C42.96 56.29 42.81 56.55 42.64 56.70
C42.47 56.84 42.29 56.91 42.09 56.91
C42.09 56.91 42.09 56.91 42.09 56.91
C42.09 56.91 42.08 56.91 42.08 56.91
C41.86 56.91 41.69 56.83 41.56 56.68
C41.41 56.51 41.32 56.26 41.27 55.91
L41.25 55.78
L41.11 55.79
L40.43 55.87
L40.29 55.89
L40.30 56.02
C40.37 56.62 40.56 57.09 40.87 57.41
C41.19 57.74 41.59 57.90 42.07 57.90
C42.49 57.90 42.87 57.77 43.21 57.50
C43.54 57.24 43.81 56.82 44.00 56.26
C44.18 55.71 44.28 54.95 44.28 53.97
C44.28 53.08 44.19 52.40 44.02 51.92
C43.84 51.44 43.58 51.07 43.25 50.81
C42.91 50.56 42.55 50.43 42.16 50.43
Z
" fill="white" fill-rule="nonzero" />
<path d="
M42.18 75.93
L43.23 78.78
L41.14 78.78
L42.18 75.93
Z
M41.38 74.14
L38.39 81.81
L40.03 81.81
L40.67 80.07
L43.73 80.07
L44.40 81.81
L46.08 81.81
L43.01 74.14
Z
" fill="black" fill-rule="nonzero" />
<path d="
M40.57 86.10
L40.54 86.20
C40.45 86.50 40.29 86.80 40.05 87.12
C39.82 87.43 39.55 87.70 39.25 87.92
L39.19 87.96
L39.19 88.03
L39.19 88.88
L39.19 89.12
L39.40 89.00
C39.59 88.89 39.81 88.73 40.04 88.52
C40.15 88.42 40.25 88.32 40.33 88.23
L40.33 88.23
L40.33 93.39
L40.33 93.54
L41.19 93.54
L41.19 93.39
L41.19 86.24
L41.19 86.10
Z
M43.99 86.10
C43.59 86.10 43.24 86.27 42.96 86.62
C42.69 86.95 42.52 87.44 42.44 88.07
L42.43 88.19
L42.55 88.23
L43.12 88.38
L43.28 88.43
L43.29 88.26
C43.33 87.85 43.42 87.55 43.56 87.36
C43.68 87.19 43.83 87.10 44.00 87.10
C44.00 87.10 44.00 87.10 44.00 87.10
C44.00 87.10 44.00 87.10 44.00 87.10
C44.17 87.10 44.31 87.19 44.43 87.35
C44.56 87.53 44.62 87.77 44.62 88.07
C44.62 88.40 44.54 88.66 44.39 88.85
C44.24 89.03 44.05 89.12 43.82 89.12
L43.82 89.12
L43.74 89.11
L43.59 89.10
L43.58 89.24
L43.51 90.01
L43.49 90.24
L43.49 90.24
L43.71 90.15
C43.85 90.10 43.97 90.07 44.06 90.07
C44.06 90.07 44.06 90.07 44.06 90.07
C44.06 90.07 44.06 90.07 44.06 90.07
C44.27 90.07 44.45 90.17 44.59 90.39
C44.75 90.61 44.83 90.92 44.83 91.31
C44.83 91.72 44.74 92.05 44.57 92.30
C44.41 92.54 44.22 92.65 44.01 92.65
C44.01 92.65 44.01 92.65 44.00 92.65
C44.00 92.65 44.00 92.65 44.00 92.65
C43.81 92.65 43.66 92.56 43.53 92.37
C43.39 92.15 43.30 91.82 43.24 91.38
L43.22 91.23
L43.07 91.26
L42.50 91.38
L42.37 91.40
L42.38 91.52
C42.42 92.16 42.59 92.68 42.89 93.06
C43.19 93.46 43.57 93.66 44.01 93.66
C44.49 93.66 44.90 93.43 45.23 92.98
C45.56 92.54 45.72 91.98 45.72 91.29
C45.72 90.97 45.68 90.68 45.61 90.41
C45.53 90.15 45.42 89.93 45.28 89.77
C45.20 89.66 45.09 89.57 44.97 89.50
L44.97 89.50
C45.11 89.37 45.23 89.20 45.31 89.01
C45.43 88.74 45.50 88.43 45.50 88.09
C45.49 87.53 45.35 87.06 45.07 86.68
C44.78 86.30 44.42 86.10 43.99 86.10
Z
" fill="white" fill-rule="nonzero" />
<path d="
M42.27 181.59
C41.73 181.59 41.30 181.76 40.97 182.10
C40.64 182.44 40.44 182.95 40.39 183.63
L41.12 183.72
C41.12 183.26 41.23 182.92 41.44 182.67
C41.65 182.43 41.92 182.31 42.25 182.31
C42.56 182.31 42.82 182.42 43.03 182.65
C43.23 182.87 43.34 183.16 43.34 183.52
C43.34 183.83 43.24 184.17 43.03 184.53
C42.83 184.89 42.39 185.40 41.73 186.06
C41.17 186.62 40.78 187.11 40.56 187.53
C40.35 187.95 40.25 188.32 40.26 188.66
L44.07 188.66
L44.07 187.83
L41.24 187.83
C41.32 187.67 41.42 187.51 41.54 187.36
C41.67 187.20 41.94 186.91 42.36 186.47
C43.02 185.79 43.47 185.24 43.71 184.83
C43.95 184.42 44.06 183.99 44.06 183.54
C44.06 183.04 43.91 182.58 43.61 182.19
C43.31 181.79 42.86 181.59 42.27 181.59
Z
" fill="black" fill-rule="nonzero" />
<path d="
M55.93 15.54
C56.21 15.54 56.44 15.73 56.62 16.12
C56.79 16.52 56.88 17.29 56.88 18.45
C56.88 19.60 56.79 20.37 56.62 20.77
C56.44 21.17 56.22 21.37 55.96 21.37
C55.68 21.37 55.46 21.17 55.28 20.78
C55.10 20.38 55.01 19.61 55.01 18.45
C55.01 17.30 55.10 16.53 55.27 16.13
C55.45 15.74 55.67 15.54 55.93 15.54
Z
M52.58 14.81
C52.48 15.12 52.31 15.44 52.07 15.77
C51.83 16.10 51.55 16.37 51.23 16.60
L51.23 17.45
C51.42 17.34 51.63 17.19 51.85 16.99
C52.07 16.78 52.25 16.59 52.38 16.39
L52.38 21.96
L52.96 21.96
L52.96 14.81
Z
M55.95 14.81
C55.45 14.81 55.07 15.12 54.81 15.74
C54.55 16.35 54.43 17.26 54.43 18.45
C54.43 19.79 54.57 20.72 54.85 21.27
C55.13 21.81 55.50 22.09 55.95 22.09
C56.45 22.09 56.83 21.78 57.09 21.16
C57.34 20.54 57.47 19.64 57.47 18.45
C57.47 17.13 57.32 16.16 57.01 15.56
C56.75 15.06 56.40 14.81 55.95 14.81
Z
" fill="black" fill-rule="nonzero" />
<path d="
M76.29 38.54
L76.26 38.64
C76.17 38.94 76.00 39.24 75.77 39.56
C75.54 39.87 75.27 40.14 74.96 40.36
L74.90 40.40
L74.90 40.47
L74.90 41.32
L74.90 41.56
L75.11 41.44
C75.31 41.33 75.52 41.17 75.76 40.96
C75.86 40.86 75.96 40.77 76.05 40.67
L76.05 40.67
L76.05 45.84
L76.05 45.98
L76.91 45.98
L76.91 45.84
L76.91 38.68
L76.91 38.54
Z
M79.92 38.54
L79.89 38.64
C79.80 38.94 79.63 39.24 79.40 39.56
C79.17 39.87 78.90 40.14 78.59 40.36
L78.53 40.40
L78.53 40.47
L78.53 41.32
L78.53 41.56
L78.74 41.44
C78.94 41.33 79.15 41.17 79.39 40.96
C79.49 40.86 79.59 40.77 79.68 40.67
L79.68 40.67
L79.68 45.84
L79.68 45.98
L80.54 45.98
L80.54 45.84
L80.54 38.68
L80.54 38.54
Z
" fill="white" fill-rule="nonzero" />
<path d="
M161.32 30.03
C161.64 30.03 161.90 30.16 162.12 30.44
C162.34 30.71 162.45 31.10 162.45 31.60
C162.45 32.11 162.34 32.51 162.12 32.80
C161.90 33.09 161.65 33.24 161.37 33.24
C161.06 33.24 160.78 33.08 160.54 32.77
C160.30 32.46 160.18 32.06 160.18 31.55
C160.18 31.08 160.29 30.71 160.52 30.44
C160.75 30.16 161.02 30.03 161.32 30.03
Z
M161.43 26.76
C160.83 26.76 160.33 27.05 159.94 27.63
C159.56 28.21 159.36 29.17 159.36 30.53
C159.36 31.76 159.55 32.63 159.93 33.16
C160.31 33.68 160.79 33.95 161.37 33.95
C161.69 33.95 161.99 33.86 162.26 33.67
C162.52 33.49 162.74 33.21 162.92 32.83
C163.09 32.44 163.17 32.02 163.17 31.55
C163.17 30.85 163.00 30.30 162.66 29.88
C162.32 29.47 161.92 29.26 161.46 29.26
C161.19 29.26 160.93 29.34 160.68 29.50
C160.43 29.66 160.23 29.89 160.07 30.20
C160.07 29.33 160.18 28.68 160.39 28.24
C160.64 27.73 160.97 27.47 161.39 27.47
C161.65 27.47 161.88 27.58 162.07 27.81
C162.20 27.96 162.30 28.22 162.37 28.58
L163.07 28.51
C163.01 27.94 162.83 27.51 162.53 27.21
C162.24 26.91 161.87 26.76 161.43 26.76
Z
" fill="black" fill-rule="nonzero" />
<path d="
M185.32 38.59
L185.28 38.67
C185.17 38.97 184.97 39.27 184.68 39.58
C184.39 39.89 184.06 40.15 183.68 40.37
L183.61 40.41
L183.61 40.49
L183.61 41.33
L183.61 41.55
L183.81 41.46
C184.05 41.35 184.31 41.20 184.59 40.99
C184.75 40.87 184.90 40.75 185.02 40.64
L185.02 40.64
L185.02 45.79
L185.02 45.93
L186.02 45.93
L186.02 45.79
L186.02 38.73
L186.02 38.59
Z
" fill="white" fill-rule="nonzero" />
<path d="
M184.34 124.46
L184.34 124.46
L184.34 124.46
C184.34 124.46 184.34 124.46 184.34 124.46
Z
M183.77 121.93
L183.75 122.05
L183.19 125.66
L183.17 125.80
L183.31 125.82
L183.98 125.93
L184.08 125.94
L184.12 125.85
C184.22 125.66 184.35 125.51 184.52 125.41
C184.68 125.30 184.86 125.25 185.04 125.25
C185.04 125.25 185.04 125.25 185.04 125.25
C185.05 125.25 185.05 125.25 185.05 125.25
C185.36 125.25 185.62 125.37 185.82 125.61
C186.04 125.86 186.14 126.22 186.14 126.69
C186.14 127.19 186.03 127.58 185.81 127.87
C185.59 128.14 185.34 128.28 185.05 128.28
C185.05 128.28 185.05 128.28 185.05 128.28
C185.05 128.28 185.05 128.28 185.05 128.28
C184.82 128.28 184.62 128.18 184.45 127.99
C184.26 127.80 184.14 127.49 184.09 127.07
L184.07 126.93
L183.94 126.95
L183.19 127.02
L183.05 127.04
L183.06 127.18
C183.12 127.83 183.33 128.34 183.69 128.71
C184.07 129.08 184.52 129.27 185.06 129.27
C185.71 129.27 186.23 129.00 186.61 128.47
C186.99 127.96 187.17 127.34 187.17 126.62
C187.17 125.89 186.98 125.30 186.60 124.87
C186.22 124.42 185.76 124.20 185.24 124.20
C184.92 124.20 184.63 124.29 184.34 124.46
L184.34 124.46
L184.58 123.04
L186.90 123.04
L186.90 122.89
L186.90 122.07
L186.90 121.93
Z
" fill="white" fill-rule="nonzero" />
<path d="
M185.03 193.29
C184.54 193.29 184.13 193.46 183.79 193.80
C183.45 194.13 183.24 194.61 183.14 195.24
L183.12 195.37
L183.25 195.40
L183.96 195.55
L184.11 195.59
L184.13 195.43
C184.18 195.03 184.28 194.74 184.45 194.56
C184.61 194.38 184.80 194.29 185.03 194.29
C185.03 194.29 185.03 194.29 185.03 194.29
C185.04 194.29 185.04 194.29 185.04 194.29
C185.26 194.29 185.44 194.37 185.60 194.54
C185.76 194.71 185.83 194.95 185.83 195.24
C185.83 195.56 185.74 195.81 185.55 196.00
C185.36 196.19 185.11 196.28 184.81 196.28
L184.81 196.28
L184.70 196.27
L184.56 196.26
L184.55 196.40
L184.47 197.16
L184.44 197.37
L184.65 197.31
C184.84 197.25 184.99 197.22 185.11 197.22
C185.11 197.22 185.11 197.22 185.11 197.22
C185.11 197.22 185.11 197.22 185.11 197.22
C185.38 197.22 185.61 197.32 185.80 197.54
C186.00 197.76 186.09 198.06 186.09 198.44
C186.09 198.84 185.99 199.16 185.77 199.41
C185.56 199.65 185.32 199.77 185.04 199.77
C185.04 199.77 185.04 199.77 185.04 199.77
C185.04 199.77 185.04 199.77 185.04 199.77
C184.78 199.77 184.58 199.67 184.42 199.48
C184.25 199.27 184.13 198.94 184.06 198.51
L184.04 198.37
L183.90 198.39
L183.19 198.50
L183.06 198.52
L183.07 198.66
C183.12 199.29 183.33 199.80 183.69 200.19
C184.06 200.57 184.52 200.77 185.05 200.77
C185.62 200.77 186.11 200.55 186.52 200.11
C186.93 199.67 187.13 199.11 187.13 198.42
C187.13 198.10 187.08 197.81 186.98 197.55
C186.88 197.28 186.75 197.07 186.58 196.91
C186.48 196.80 186.36 196.72 186.22 196.65
L186.22 196.65
C186.38 196.52 186.51 196.36 186.62 196.18
C186.77 195.91 186.85 195.60 186.85 195.26
C186.85 194.70 186.67 194.23 186.32 193.86
C185.96 193.48 185.53 193.30 185.03 193.29
Z
" fill="white" fill-rule="nonzero" />
</g>
<g  transform="translate(1.19,228.58)" >
<path d="
M105.01 2.94
C104.84 2.94 104.70 3.00 104.58 3.11
C104.47 3.23 104.41 3.37 104.41 3.53
C104.41 3.69 104.47 3.83 104.59 3.95
C104.70 4.07 104.84 4.12 105.01 4.12
C105.17 4.12 105.31 4.07 105.42 3.95
C105.54 3.83 105.59 3.69 105.59 3.53
C105.59 3.37 105.54 3.23 105.42 3.11
C105.31 3.00 105.17 2.94 105.01 2.94
Z
M109.98 8.04
L109.98 10.07
C109.50 10.46 109.11 10.65 108.81 10.65
C108.60 10.65 108.40 10.56 108.24 10.37
C108.07 10.19 107.99 9.96 107.99 9.68
C107.99 9.46 108.05 9.25 108.19 9.07
C108.32 8.88 108.54 8.70 108.84 8.53
C109.01 8.44 109.39 8.27 109.98 8.04
Z
M98.33 3.77
C99.26 3.77 100.02 4.08 100.61 4.71
C101.21 5.34 101.50 6.20 101.50 7.29
C101.50 8.37 101.21 9.23 100.61 9.86
C100.02 10.49 99.27 10.81 98.37 10.81
C98.04 10.81 97.63 10.75 97.13 10.64
L97.13 3.94
C97.58 3.83 97.98 3.77 98.33 3.77
Z
M94.88 3.33
L94.88 3.54
L95.18 3.54
C95.48 3.54 95.70 3.63 95.86 3.80
C95.96 3.92 96.02 4.23 96.02 4.72
L96.02 9.82
C96.02 10.26 95.98 10.55 95.89 10.68
C95.75 10.89 95.51 11.00 95.18 11.00
L94.88 11.00
L94.88 11.21
L98.41 11.21
C99.94 11.21 101.08 10.80 101.83 9.98
C102.49 9.24 102.83 8.33 102.83 7.23
C102.83 6.41 102.64 5.69 102.27 5.07
C101.89 4.44 101.40 4.00 100.78 3.73
C100.17 3.46 99.27 3.33 98.09 3.33
Z
M105.23 5.73
L103.63 6.38
L103.71 6.59
C103.86 6.53 104.00 6.50 104.10 6.50
C104.21 6.50 104.28 6.53 104.34 6.58
C104.40 6.62 104.44 6.71 104.47 6.83
C104.51 7.00 104.52 7.38 104.52 7.96
L104.52 10.01
C104.52 10.34 104.50 10.56 104.44 10.68
C104.39 10.79 104.32 10.88 104.23 10.93
C104.14 10.98 103.97 11.00 103.71 11.00
L103.71 11.21
L106.30 11.21
L106.30 11.00
C106.04 11.00 105.87 10.98 105.78 10.92
C105.68 10.87 105.61 10.79 105.56 10.68
C105.51 10.56 105.49 10.34 105.49 10.01
L105.49 5.73
Z
M129.49 3.16
C128.88 3.16 128.38 3.36 127.98 3.74
C127.58 4.12 127.33 4.67 127.23 5.39
L127.45 5.39
C127.60 4.95 127.82 4.62 128.13 4.39
C128.44 4.17 128.79 4.05 129.18 4.05
C129.60 4.05 129.97 4.22 130.28 4.54
C130.58 4.86 130.74 5.27 130.74 5.77
C130.74 6.42 130.46 7.15 129.90 7.94
C129.34 8.73 128.38 9.75 127.01 11.00
L127.01 11.21
L131.66 11.21
L132.21 9.70
L132.00 9.70
C131.90 9.87 131.78 10.00 131.64 10.10
C131.51 10.19 131.35 10.26 131.19 10.29
C131.02 10.32 130.72 10.33 130.31 10.33
L128.25 10.33
C128.49 10.12 129.09 9.48 130.05 8.43
C130.70 7.73 131.16 7.06 131.45 6.43
C131.64 6.03 131.73 5.63 131.73 5.23
C131.73 4.68 131.52 4.19 131.09 3.78
C130.66 3.37 130.12 3.16 129.49 3.16
Z
M109.16 5.73
C108.55 5.73 108.07 5.87 107.73 6.15
C107.38 6.43 107.21 6.73 107.21 7.07
C107.21 7.24 107.26 7.38 107.35 7.48
C107.44 7.58 107.56 7.63 107.70 7.63
C107.85 7.63 107.97 7.58 108.06 7.49
C108.15 7.39 108.20 7.25 108.20 7.07
L108.19 6.74
C108.19 6.56 108.26 6.41 108.41 6.28
C108.55 6.15 108.74 6.08 108.99 6.08
C109.31 6.08 109.55 6.18 109.72 6.38
C109.89 6.58 109.98 6.94 109.98 7.47
L109.98 7.68
C109.06 8.02 108.41 8.30 108.01 8.53
C107.62 8.76 107.34 9.01 107.19 9.28
C107.07 9.47 107.01 9.69 107.01 9.95
C107.01 10.36 107.13 10.69 107.37 10.95
C107.61 11.20 107.91 11.32 108.28 11.32
C108.51 11.32 108.74 11.27 108.95 11.18
C109.09 11.11 109.43 10.87 109.98 10.45
C109.98 10.76 110.04 10.99 110.15 11.12
C110.26 11.25 110.41 11.32 110.60 11.32
C111.00 11.32 111.41 11.03 111.85 10.45
L111.85 10.12
C111.62 10.35 111.46 10.49 111.38 10.54
C111.33 10.57 111.28 10.58 111.22 10.58
C111.16 10.58 111.11 10.57 111.06 10.53
C111.02 10.49 110.98 10.41 110.97 10.30
C110.95 10.18 110.94 9.87 110.94 9.36
L110.94 7.55
C110.94 7.04 110.90 6.70 110.83 6.53
C110.72 6.28 110.55 6.09 110.33 5.97
C110.02 5.81 109.64 5.73 109.16 5.73
Z
M120.17 3.33
L118.65 6.39
C119.38 6.42 119.96 6.52 120.38 6.69
C120.92 6.92 121.34 7.24 121.65 7.65
C121.96 8.06 122.11 8.51 122.11 8.99
C122.11 9.48 121.94 9.90 121.59 10.24
C121.25 10.58 120.85 10.75 120.40 10.75
C120.10 10.75 119.81 10.65 119.52 10.45
C119.33 10.32 119.20 10.24 119.13 10.21
C119.05 10.18 118.96 10.17 118.86 10.17
C118.73 10.17 118.62 10.21 118.53 10.29
C118.44 10.37 118.39 10.47 118.39 10.58
C118.39 10.77 118.50 10.95 118.72 11.11
C118.93 11.27 119.27 11.35 119.75 11.35
C120.22 11.35 120.67 11.25 121.12 11.03
C121.43 10.88 121.72 10.68 121.98 10.43
C122.23 10.19 122.44 9.89 122.61 9.53
C122.78 9.18 122.86 8.80 122.86 8.38
C122.86 7.67 122.61 7.05 122.09 6.52
C121.49 5.91 120.68 5.53 119.65 5.37
L120.17 4.32
L122.54 4.32
L122.99 3.33
Z
M113.36 10.08
C113.18 10.08 113.03 10.15 112.90 10.27
C112.78 10.39 112.71 10.55 112.71 10.73
C112.71 10.91 112.78 11.06 112.90 11.19
C113.03 11.31 113.18 11.38 113.36 11.38
C113.54 11.38 113.69 11.31 113.82 11.19
C113.94 11.06 114.00 10.91 114.00 10.73
C114.00 10.55 113.94 10.40 113.82 10.27
C113.69 10.15 113.54 10.08 113.36 10.08
Z
M125.26 10.08
C125.09 10.08 124.93 10.15 124.81 10.27
C124.68 10.39 124.62 10.55 124.62 10.73
C124.62 10.91 124.68 11.06 124.81 11.19
C124.93 11.31 125.09 11.38 125.26 11.38
C125.44 11.38 125.59 11.31 125.72 11.19
C125.85 11.06 125.91 10.91 125.91 10.73
C125.91 10.55 125.85 10.40 125.72 10.27
C125.60 10.15 125.45 10.08 125.26 10.08
Z
" fill="black" fill-rule="nonzero" />
</g>
</g>
</svg>
